<?xml version="1.0" encoding="utf-8"?>
<!-- Generator: Adobe Illustrator 12.0.1, SVG Export Plug-In . SVG Version: 6.00 Build 51448)  -->
<!DOCTYPE svg PUBLIC "-//W3C//DTD SVG 1.1//EN" "http://www.w3.org/Graphics/SVG/1.1/DTD/svg11.dtd" [
	<!ENTITY ns_svg "http://www.w3.org/2000/svg">
	<!ENTITY ns_xlink "http://www.w3.org/1999/xlink">
]>
<svg  version="1.1" id="Layer_1" xmlns="&ns_svg;" xmlns:xlink="&ns_xlink;" width="396" height="590" viewBox="0 0 396 590"
	 overflow="visible" enable-background="new 0 0 396 590" xml:space="preserve">
<g>
</g>
<g>
	<polyline fill="none" stroke="#000000" points="83,11.667 83,444.334 351.667,444.334 	"/>
	<path fill="none" stroke="#000000" d="M83.5,443.5c1.307-9.309,9.671-63.286,28.5-108.5c25.333-60.833,50.703-95.556,82.5-139.667
		c28.833-40,109.167-147.5,109.167-147.5S289.87,79.223,267,111.667c-14.333,20.333-16.166,22-33.833,44.5
		c-24.975,31.806-64.667,84.833-90,125.333C120.044,318.466,89.333,412.833,84,443.667"/>
	<g>
		<g>
			<line fill="none" stroke="#000000" x1="174.333" y1="211.167" x2="195.667" y2="178.833"/>
			<polygon points="197.211,183.217 194.986,179.865 191.028,179.138 198.954,173.851 			"/>
		</g>
	</g>
	<g>
		<g>
			<line fill="none" stroke="#000000" x1="217.008" y1="184.563" x2="195.994" y2="217.102"/>
			<polygon points="194.407,212.734 196.664,216.064 200.629,216.752 192.755,222.116 			"/>
		</g>
	</g>
	<g>
		<path d="M58.73,45.739h-0.042l-2.373,1.281l-0.357-1.407l2.982-1.596h1.575v13.65H58.73V45.739z"/>
		<path d="M66.856,57.898c-0.714,0-1.218-0.567-1.218-1.323c0-0.756,0.525-1.323,1.26-1.323c0.735,0,1.239,0.546,1.239,1.323
			c0,0.756-0.504,1.323-1.26,1.323H66.856z"/>
		<path d="M74.186,57.898c-2.667,0-4.494-2.499-4.536-7.014c0-4.599,1.995-7.098,4.768-7.098c2.855,0,4.515,2.562,4.515,6.909
			c0,4.641-1.743,7.203-4.726,7.203H74.186z M74.27,56.47c1.869,0,2.772-2.205,2.772-5.691c0-3.36-0.841-5.565-2.772-5.565
			c-1.68,0-2.772,2.142-2.772,5.565c-0.042,3.549,1.051,5.691,2.751,5.691H74.27z"/>
	</g>
	<g>
		<path d="M48.293,153.231c-2.667,0-4.494-2.499-4.536-7.014c0-4.599,1.995-7.098,4.768-7.098c2.855,0,4.515,2.562,4.515,6.909
			c0,4.641-1.743,7.203-4.726,7.203H48.293z M48.377,151.803c1.869,0,2.772-2.205,2.772-5.691c0-3.36-0.841-5.565-2.772-5.565
			c-1.68,0-2.772,2.142-2.772,5.565c-0.042,3.549,1.051,5.691,2.751,5.691H48.377z"/>
		<path d="M56.083,153.231c-0.714,0-1.218-0.567-1.218-1.323c0-0.756,0.525-1.323,1.26-1.323c0.735,0,1.239,0.546,1.239,1.323
			c0,0.756-0.504,1.323-1.26,1.323H56.083z"/>
		<path d="M67.927,139.35v1.218L61.984,153h-1.891l5.901-12.075v-0.042h-6.678v-1.533H67.927z"/>
		<path d="M77.985,140.904h-5.208l-0.524,3.465c0.314-0.042,0.608-0.084,1.112-0.084c1.071,0,2.101,0.231,2.94,0.735
			c1.071,0.588,1.953,1.785,1.953,3.549c0,2.667-2.121,4.662-5.082,4.662c-1.491,0-2.73-0.42-3.402-0.84l0.462-1.407
			c0.567,0.336,1.681,0.756,2.94,0.756c1.722,0,3.233-1.134,3.213-2.982c0-1.806-1.197-3.045-3.906-3.045
			c-0.798,0-1.407,0.063-1.911,0.147l0.882-6.51h6.531V140.904z"/>
	</g>
	<g>
		<path d="M59.066,254.564c-2.667,0-4.494-2.499-4.536-7.014c0-4.599,1.995-7.098,4.768-7.098c2.855,0,4.515,2.562,4.515,6.909
			c0,4.641-1.743,7.203-4.726,7.203H59.066z M59.15,253.137c1.869,0,2.772-2.205,2.772-5.691c0-3.36-0.841-5.565-2.772-5.565
			c-1.68,0-2.772,2.142-2.772,5.565c-0.042,3.549,1.051,5.691,2.751,5.691H59.15z"/>
		<path d="M66.856,254.564c-0.714,0-1.218-0.567-1.218-1.323c0-0.756,0.525-1.323,1.26-1.323c0.735,0,1.239,0.546,1.239,1.323
			c0,0.756-0.504,1.323-1.26,1.323H66.856z"/>
		<path d="M77.986,242.238h-5.208l-0.524,3.465c0.314-0.042,0.608-0.084,1.112-0.084c1.071,0,2.101,0.231,2.94,0.735
			c1.071,0.588,1.953,1.785,1.953,3.549c0,2.667-2.121,4.662-5.082,4.662c-1.491,0-2.73-0.42-3.402-0.84l0.462-1.407
			c0.567,0.336,1.681,0.756,2.94,0.756c1.722,0,3.233-1.134,3.213-2.982c0-1.806-1.197-3.045-3.906-3.045
			c-0.798,0-1.407,0.063-1.911,0.147l0.882-6.51h6.531V242.238z"/>
	</g>
	<g>
		<path d="M48.293,351.232c-2.667,0-4.494-2.5-4.536-7.015c0-4.599,1.995-7.098,4.768-7.098c2.855,0,4.515,2.562,4.515,6.909
			c0,4.641-1.743,7.203-4.726,7.203H48.293z M48.377,349.805c1.869,0,2.772-2.205,2.772-5.691c0-3.36-0.841-5.565-2.772-5.565
			c-1.68,0-2.772,2.142-2.772,5.565c-0.042,3.549,1.051,5.691,2.751,5.691H48.377z"/>
		<path d="M56.083,351.232c-0.714,0-1.218-0.567-1.218-1.323c0-0.757,0.525-1.323,1.26-1.323c0.735,0,1.239,0.546,1.239,1.323
			c0,0.756-0.504,1.323-1.26,1.323H56.083z"/>
		<path d="M59.065,351.001v-1.134l1.448-1.407c3.486-3.317,5.082-5.082,5.082-7.14c0-1.387-0.65-2.668-2.688-2.668
			c-1.239,0-2.269,0.631-2.898,1.156l-0.588-1.303c0.924-0.777,2.289-1.386,3.864-1.386c2.919,0,4.158,2.017,4.158,3.969
			c0,2.521-1.827,4.558-4.704,7.329l-1.071,1.008v0.042h6.111v1.533H59.065z"/>
		<path d="M77.985,338.905h-5.208l-0.524,3.465c0.314-0.042,0.608-0.084,1.112-0.084c1.071,0,2.101,0.231,2.94,0.735
			c1.071,0.588,1.953,1.785,1.953,3.549c0,2.666-2.121,4.662-5.082,4.662c-1.491,0-2.73-0.42-3.402-0.84l0.462-1.408
			c0.567,0.336,1.681,0.757,2.94,0.757c1.722,0,3.233-1.134,3.213-2.982c0-1.806-1.197-3.045-3.906-3.045
			c-0.798,0-1.407,0.063-1.911,0.147l0.882-6.51h6.531V338.905z"/>
	</g>
	<g>
		<path d="M70.239,449.898c-2.667,0-4.494-2.499-4.536-7.014c0-4.6,1.995-7.098,4.768-7.098c2.855,0,4.515,2.562,4.515,6.908
			c0,4.641-1.743,7.203-4.726,7.203H70.239z M70.323,448.471c1.869,0,2.772-2.205,2.772-5.691c0-3.359-0.841-5.564-2.772-5.564
			c-1.68,0-2.772,2.142-2.772,5.564c-0.042,3.549,1.051,5.691,2.751,5.691H70.323z"/>
	</g>
	<g>
		<path d="M81.902,451.739H81.86l-2.373,1.28l-0.357-1.406l2.982-1.596h1.575v13.649h-1.785V451.739z"/>
	</g>
	<g>
		<path d="M153.892,463.666v-1.133l1.448-1.408c3.486-3.317,5.082-5.082,5.082-7.14c0-1.386-0.65-2.667-2.688-2.667
			c-1.239,0-2.269,0.631-2.898,1.155l-0.588-1.302c0.924-0.777,2.289-1.387,3.864-1.387c2.919,0,4.158,2.017,4.158,3.969
			c0,2.521-1.827,4.558-4.704,7.33l-1.071,1.008v0.041h6.111v1.533H153.892z"/>
	</g>
	<g>
		<path d="M233.666,461.566c0.525,0.314,1.723,0.84,3.024,0.84c2.352,0,3.107-1.491,3.087-2.646
			c-0.021-1.91-1.743-2.729-3.528-2.729h-1.028v-1.386h1.028c1.344,0,3.045-0.693,3.045-2.311c0-1.092-0.692-2.059-2.394-2.059
			c-1.092,0-2.143,0.484-2.73,0.904l-0.504-1.345c0.735-0.524,2.121-1.05,3.591-1.05c2.688,0,3.906,1.596,3.906,3.255
			c0,1.429-0.861,2.625-2.52,3.233v0.043c1.68,0.314,3.045,1.574,3.045,3.486c0,2.184-1.723,4.094-4.978,4.094
			c-1.532,0-2.877-0.482-3.549-0.924L233.666,461.566z"/>
	</g>
	<g>
		<path d="M314.938,463.667v-3.717h-6.342v-1.197l6.09-8.735h1.995v8.504h1.91v1.429h-1.91v3.717H314.938z M314.938,458.521v-4.578
			c0-0.713,0.021-1.428,0.063-2.141h-0.063c-0.42,0.797-0.756,1.385-1.134,2.036l-3.34,4.642v0.041H314.938z"/>
	</g>
	<g>
		<path d="M12.92,272.799v-1.848h14.91v1.848H12.92z"/>
		<path d="M28.062,263.749c0,2.73-2.016,4.872-5.229,4.872c-3.402,0-5.397-2.247-5.397-5.04c0-2.919,2.121-4.893,5.208-4.893
			c3.78,0,5.418,2.625,5.418,5.04V263.749z M26.676,263.686c0-1.764-1.659-3.087-3.969-3.087c-1.722,0-3.885,0.861-3.885,3.045
			c0,2.163,2.016,3.108,3.948,3.108c2.226,0,3.906-1.26,3.906-3.045V263.686z"/>
		<path d="M25.395,249.195c0.882,0,1.743-0.042,2.436-0.146v1.659l-1.281,0.168v0.063c0.798,0.546,1.512,1.659,1.512,3.108
			c0,2.058-1.449,3.107-2.919,3.107c-2.457,0-3.801-2.184-3.78-6.11h-0.21c-0.84,0-2.373,0.23-2.352,2.31
			c0,0.966,0.273,1.953,0.756,2.667l-1.239,0.42c-0.525-0.84-0.882-2.079-0.882-3.359c0-3.129,2.121-3.886,4.158-3.886H25.395z
			 M22.644,251.002c-0.042,2.016,0.315,4.305,2.289,4.305c1.218,0,1.764-0.798,1.764-1.722c0-1.345-0.84-2.205-1.701-2.499
			c-0.189-0.063-0.399-0.084-0.588-0.084H22.644z"/>
		<path d="M12.92,237.457h12.285c0.903,0,1.932-0.021,2.625-0.084v1.658l-1.764,0.084v0.042c1.134,0.567,1.995,1.785,1.995,3.444
			c0,2.457-2.079,4.368-5.166,4.368c-3.402,0.021-5.46-2.101-5.46-4.557c0-1.575,0.735-2.625,1.533-3.066v-0.042H12.92V237.457z
			 M21.804,239.305c-0.252,0-0.546,0.021-0.798,0.084c-1.155,0.272-2.121,1.281-2.121,2.667c0,1.911,1.68,3.045,3.906,3.045
			c2.079,0,3.78-1.029,3.78-3.003c0-1.239-0.84-2.373-2.205-2.709c-0.252-0.063-0.504-0.084-0.798-0.084H21.804z"/>
		<path d="M13.257,225.948c2.079,1.533,4.788,2.625,8.61,2.625c3.738,0,6.405-1.154,8.505-2.625v1.429
			c-1.743,1.322-4.431,2.751-8.526,2.751c-4.116-0.021-6.825-1.429-8.589-2.751V225.948z"/>
		<path d="M22.329,222.127v-0.042c-0.357-0.252-0.819-0.588-1.155-0.882l-3.507-3.003v-2.205l4.179,3.927l5.985-4.473v2.247
			l-4.893,3.485l1.071,0.945h3.822v1.848H12.92v-1.848H22.329z"/>
		<path d="M26.339,205.412c2.352,0,3.759,0.482,4.662,1.448c0.903,1.009,1.218,2.437,1.218,3.718c0,1.218-0.294,2.562-0.84,3.381
			l-1.428-0.462c0.441-0.673,0.819-1.723,0.819-2.982c0-1.89-0.987-3.276-3.57-3.276h-1.113v0.042
			c0.945,0.547,1.701,1.659,1.701,3.234c0,2.521-2.142,4.326-4.977,4.326c-3.444,0-5.376-2.247-5.376-4.6
			c0-1.764,0.903-2.709,1.743-3.171v-0.042l-1.512-0.063v-1.638c0.714,0.063,1.533,0.084,2.772,0.084H26.339z M21.657,207.26
			c-0.294,0-0.567,0.021-0.819,0.104c-1.092,0.337-1.974,1.219-1.974,2.583c0,1.765,1.491,3.024,3.864,3.024
			c1.974,0,3.654-1.029,3.654-3.003c0-1.155-0.714-2.184-1.911-2.563c-0.294-0.104-0.651-0.146-0.987-0.146H21.657z"/>
		<path d="M28.062,202.01c0,0.714-0.567,1.218-1.323,1.218c-0.756,0-1.323-0.525-1.323-1.26c0-0.735,0.546-1.239,1.323-1.239
			c0.756,0,1.323,0.504,1.323,1.26V202.01z"/>
		<path d="M30.372,199.553c-2.079-1.47-4.788-2.625-8.568-2.625c-3.78,0-6.447,1.134-8.547,2.625v-1.428
			c1.722-1.323,4.431-2.751,8.547-2.751c4.116,0.021,6.783,1.428,8.568,2.751V199.553z"/>
	</g>
	<g>
		<path d="M160.337,484.9c0.042,2.498,1.617,3.527,3.465,3.527c1.323,0,2.142-0.23,2.814-0.504l0.336,1.303
			c-0.651,0.293-1.785,0.65-3.402,0.65c-3.108,0-4.998-2.079-4.998-5.124c0-3.087,1.827-5.502,4.788-5.502
			c3.318,0,4.179,2.919,4.179,4.788c0,0.378-0.021,0.672-0.063,0.882L160.337,484.9z M165.734,483.577
			c0.021-1.155-0.483-3.003-2.541-3.003c-1.89,0-2.688,1.722-2.835,3.003H165.734z"/>
		<path d="M170.606,479.503l1.449,2.163c0.378,0.588,0.693,1.092,1.029,1.659h0.063c0.336-0.589,0.672-1.113,1.029-1.659
			l1.407-2.163h2.016l-3.465,4.914l3.549,5.25h-2.1l-1.491-2.289c-0.399-0.588-0.735-1.155-1.092-1.765h-0.042
			c-0.336,0.609-0.693,1.156-1.071,1.765l-1.47,2.289h-2.037l3.612-5.187l-3.444-4.978H170.606z"/>
		<path d="M181.967,477.066v2.437h2.646v1.407h-2.646v5.48c0,1.26,0.357,1.975,1.386,1.975c0.504,0,0.798-0.042,1.071-0.127
			l0.084,1.408c-0.357,0.125-0.924,0.252-1.638,0.252c-0.861,0-1.554-0.295-1.995-0.777c-0.504-0.566-0.714-1.471-0.714-2.667
			v-5.544h-1.575v-1.407h1.575v-1.869L181.967,477.066z"/>
		<path d="M187.616,484.9c0.042,2.498,1.617,3.527,3.465,3.527c1.323,0,2.142-0.23,2.814-0.504l0.336,1.303
			c-0.651,0.293-1.785,0.65-3.402,0.65c-3.108,0-4.998-2.079-4.998-5.124c0-3.087,1.827-5.502,4.788-5.502
			c3.318,0,4.179,2.919,4.179,4.788c0,0.378-0.021,0.672-0.063,0.882L187.616,484.9z M193.013,483.577
			c0.021-1.155-0.483-3.003-2.541-3.003c-1.89,0-2.688,1.722-2.835,3.003H193.013z"/>
		<path d="M197.087,482.254c0-1.07-0.021-1.91-0.084-2.751h1.638l0.105,1.659h0.042c0.504-0.945,1.68-1.891,3.36-1.891
			c1.407,0,3.591,0.84,3.591,4.326v6.069h-1.848v-5.858c0-1.639-0.609-3.024-2.353-3.024c-1.197,0-2.142,0.86-2.478,1.89
			c-0.084,0.23-0.126,0.567-0.126,0.861v6.132h-1.848V482.254z"/>
		<path d="M208.49,487.798c0.566,0.336,1.533,0.714,2.457,0.714c1.322,0,1.953-0.65,1.953-1.512c0-0.882-0.525-1.365-1.869-1.869
			c-1.849-0.672-2.709-1.658-2.709-2.877c0-1.638,1.344-2.982,3.507-2.982c1.029,0,1.932,0.273,2.478,0.631l-0.44,1.322
			c-0.399-0.23-1.134-0.588-2.079-0.588c-1.092,0-1.68,0.631-1.68,1.387c0,0.86,0.588,1.238,1.91,1.742
			c1.743,0.651,2.667,1.533,2.667,3.066c0,1.807-1.406,3.066-3.779,3.066c-1.113,0-2.143-0.295-2.856-0.715L208.49,487.798z"/>
		<path d="M217.94,477.634c-0.693,0-1.155-0.546-1.155-1.196c0-0.651,0.483-1.176,1.197-1.176s1.176,0.524,1.176,1.176
			c0,0.65-0.462,1.196-1.197,1.196H217.94z M217.058,489.667v-10.164h1.848v10.164H217.058z"/>
		<path d="M226.108,489.898c-2.729,0-4.872-2.017-4.872-5.229c0-3.401,2.247-5.397,5.04-5.397c2.919,0,4.893,2.121,4.893,5.209
			c0,3.779-2.624,5.418-5.039,5.418H226.108z M226.171,488.512c1.764,0,3.087-1.658,3.087-3.969c0-1.723-0.861-3.885-3.045-3.885
			c-2.163,0-3.108,2.016-3.108,3.947c0,2.227,1.26,3.906,3.045,3.906H226.171z"/>
		<path d="M233.5,482.254c0-1.07-0.021-1.91-0.084-2.751h1.638l0.105,1.659h0.042c0.504-0.945,1.68-1.891,3.359-1.891
			c1.408,0,3.592,0.84,3.592,4.326v6.069h-1.848v-5.858c0-1.639-0.609-3.024-2.352-3.024c-1.198,0-2.143,0.86-2.479,1.89
			c-0.084,0.23-0.126,0.567-0.126,0.861v6.132H233.5V482.254z"/>
		<path d="M249.627,482.674c0-1.197-0.02-2.226-0.084-3.171h1.617l0.084,1.995h0.064c0.461-1.365,1.596-2.227,2.834-2.227
			c0.189,0,0.336,0.021,0.504,0.063v1.722c-0.209-0.021-0.398-0.041-0.65-0.041c-1.303,0-2.227,0.986-2.479,2.352
			c-0.041,0.273-0.063,0.566-0.063,0.882v5.418h-1.848L249.627,482.674z"/>
		<path d="M263.51,487.23c0,0.883,0.041,1.744,0.146,2.437h-1.66l-0.168-1.281h-0.063c-0.545,0.798-1.658,1.513-3.107,1.513
			c-2.059,0-3.107-1.449-3.107-2.92c0-2.457,2.184-3.801,6.109-3.779v-0.21c0-0.841-0.23-2.373-2.309-2.353
			c-0.967,0-1.953,0.273-2.668,0.756l-0.42-1.238c0.84-0.525,2.08-0.883,3.359-0.883c3.129,0,3.887,2.121,3.887,4.158V487.23z
			 M261.703,484.48c-2.016-0.043-4.305,0.314-4.305,2.289c0,1.217,0.797,1.764,1.721,1.764c1.346,0,2.205-0.84,2.5-1.701
			c0.063-0.189,0.084-0.398,0.084-0.588V484.48z"/>
		<path d="M268.611,477.066v2.437h2.646v1.407h-2.646v5.48c0,1.26,0.357,1.975,1.387,1.975c0.504,0,0.799-0.042,1.07-0.127
			l0.084,1.408c-0.355,0.125-0.924,0.252-1.637,0.252c-0.861,0-1.555-0.295-1.996-0.777c-0.504-0.566-0.713-1.471-0.713-2.667
			v-5.544h-1.576v-1.407h1.576v-1.869L268.611,477.066z"/>
		<path d="M274.219,477.634c-0.693,0-1.154-0.546-1.154-1.196c0-0.651,0.482-1.176,1.197-1.176c0.713,0,1.176,0.524,1.176,1.176
			c0,0.65-0.463,1.196-1.197,1.196H274.219z M273.338,489.667v-10.164h1.848v10.164H273.338z"/>
		<path d="M282.387,489.898c-2.729,0-4.871-2.017-4.871-5.229c0-3.401,2.246-5.397,5.039-5.397c2.92,0,4.893,2.121,4.893,5.209
			c0,3.779-2.623,5.418-5.039,5.418H282.387z M282.451,488.512c1.764,0,3.086-1.658,3.086-3.969c0-1.723-0.861-3.885-3.045-3.885
			c-2.162,0-3.107,2.016-3.107,3.947c0,2.227,1.26,3.906,3.045,3.906H282.451z"/>
	</g>
</g>
<g>
</g>
<g>
	<path d="M42.217,516.867h6.534v1.314h-4.95v4.032h4.572v1.296h-4.572V529h-1.584V516.867z"/>
	<path d="M51.235,518.686c-0.595,0-0.99-0.468-0.99-1.025c0-0.559,0.414-1.008,1.026-1.008c0.611,0,1.008,0.449,1.008,1.008
		c0,0.558-0.396,1.025-1.026,1.025H51.235z M50.479,529v-8.712h1.584V529H50.479z"/>
	<path d="M62.143,527.723c0,2.016-0.414,3.221-1.241,3.995c-0.864,0.774-2.089,1.044-3.187,1.044c-1.044,0-2.196-0.252-2.897-0.72
		l0.396-1.224c0.576,0.378,1.477,0.701,2.556,0.701c1.62,0,2.809-0.846,2.809-3.06v-0.954h-0.036
		c-0.468,0.811-1.422,1.458-2.772,1.458c-2.159,0-3.708-1.836-3.708-4.267c0-2.951,1.927-4.607,3.942-4.607
		c1.512,0,2.322,0.773,2.718,1.494h0.036l0.054-1.296h1.404c-0.054,0.612-0.072,1.313-0.072,2.376V527.723z M60.559,523.708
		c0-0.252-0.018-0.485-0.09-0.702c-0.288-0.936-1.044-1.691-2.214-1.691c-1.512,0-2.592,1.277-2.592,3.312
		c0,1.692,0.882,3.132,2.574,3.132c0.989,0,1.872-0.611,2.195-1.638c0.091-0.252,0.126-0.558,0.126-0.847V523.708z"/>
	<path d="M72.044,526.624c0,0.899,0.018,1.692,0.071,2.376h-1.403l-0.091-1.422h-0.035c-0.396,0.701-1.332,1.62-2.881,1.62
		c-1.367,0-3.006-0.774-3.006-3.816v-5.094h1.584v4.806c0,1.656,0.522,2.79,1.944,2.79c1.062,0,1.8-0.737,2.088-1.458
		c0.09-0.216,0.145-0.504,0.145-0.81v-5.328h1.584V526.624z"/>
	<path d="M74.689,523.006c0-1.025-0.018-1.908-0.072-2.718h1.387l0.071,1.71h0.055c0.396-1.17,1.367-1.908,2.43-1.908
		c0.162,0,0.288,0.018,0.432,0.055v1.476c-0.18-0.019-0.342-0.036-0.558-0.036c-1.116,0-1.908,0.846-2.124,2.016
		c-0.036,0.234-0.054,0.486-0.054,0.756V529h-1.584L74.689,523.006z"/>
	<path d="M81.349,524.914c0.036,2.143,1.386,3.023,2.97,3.023c1.135,0,1.837-0.197,2.412-0.432l0.288,1.116
		c-0.558,0.252-1.529,0.558-2.916,0.558c-2.664,0-4.284-1.781-4.284-4.392c0-2.646,1.566-4.716,4.104-4.716
		c2.844,0,3.582,2.502,3.582,4.104c0,0.324-0.019,0.576-0.054,0.756L81.349,524.914z M85.975,523.779
		c0.019-0.989-0.414-2.573-2.178-2.573c-1.62,0-2.304,1.476-2.43,2.573H85.975z"/>
	<path d="M96.217,518.775h-0.036l-2.034,1.099l-0.306-1.206l2.556-1.368h1.351V529h-1.53V518.775z"/>
	<path d="M103.183,529.198c-0.612,0-1.045-0.486-1.045-1.134c0-0.648,0.45-1.135,1.08-1.135c0.631,0,1.063,0.469,1.063,1.135
		c0,0.647-0.432,1.134-1.08,1.134H103.183z"/>
	<path d="M110.347,518.199h-3.689v-1.332h8.981v1.332h-3.708V529h-1.584V518.199z"/>
	<path d="M116.772,520.288l1.891,5.147c0.216,0.576,0.432,1.26,0.576,1.782h0.035c0.162-0.522,0.343-1.188,0.559-1.817l1.728-5.112
		h1.674l-2.376,6.21c-1.134,2.988-1.907,4.518-2.987,5.472c-0.792,0.666-1.548,0.937-1.944,1.009l-0.396-1.332
		c0.396-0.108,0.918-0.36,1.386-0.774c0.432-0.343,0.954-0.954,1.332-1.765c0.072-0.162,0.126-0.27,0.126-0.377
		c0-0.09-0.036-0.217-0.126-0.396l-3.204-8.046H116.772z"/>
	<path d="M124.675,523.132c0-1.116-0.019-2.017-0.072-2.844h1.422l0.09,1.493h0.036c0.63-1.079,1.674-1.691,3.078-1.691
		c2.124,0,3.708,1.782,3.708,4.428c0,3.133-1.926,4.681-3.96,4.681c-1.17,0-2.16-0.505-2.683-1.368h-0.035v4.734h-1.584V523.132z
		 M126.259,525.454c0,0.216,0.018,0.45,0.071,0.647c0.271,1.099,1.242,1.854,2.358,1.854c1.674,0,2.646-1.368,2.646-3.366
		c0-1.746-0.899-3.24-2.573-3.24c-1.08,0-2.106,0.756-2.412,1.944c-0.036,0.216-0.09,0.45-0.09,0.647V525.454z"/>
	<path d="M135.673,518.686c-0.595,0-0.99-0.468-0.99-1.025c0-0.559,0.414-1.008,1.026-1.008c0.611,0,1.008,0.449,1.008,1.008
		c0,0.558-0.396,1.025-1.026,1.025H135.673z M134.917,529v-8.712h1.584V529H134.917z"/>
	<path d="M145.339,528.693c-0.414,0.199-1.332,0.505-2.502,0.505c-2.629,0-4.339-1.782-4.339-4.464c0-2.683,1.836-4.645,4.681-4.645
		c0.936,0,1.764,0.234,2.195,0.469l-0.359,1.205c-0.378-0.197-0.972-0.414-1.836-0.414c-1.998,0-3.078,1.494-3.078,3.313
		c0,2.016,1.296,3.258,3.023,3.258c0.9,0,1.494-0.216,1.944-0.414L145.339,528.693z"/>
	<path d="M153.348,526.912c0,0.756,0.036,1.494,0.126,2.088h-1.422l-0.145-1.098h-0.054c-0.468,0.684-1.422,1.296-2.664,1.296
		c-1.764,0-2.664-1.242-2.664-2.503c0-2.105,1.872-3.258,5.238-3.239v-0.181c0-0.719-0.198-2.033-1.98-2.016
		c-0.828,0-1.674,0.234-2.286,0.648l-0.359-1.063c0.72-0.449,1.782-0.756,2.88-0.756c2.682,0,3.33,1.818,3.33,3.564V526.912z
		 M151.8,524.554c-1.729-0.036-3.69,0.271-3.69,1.962c0,1.045,0.685,1.512,1.477,1.512c1.151,0,1.89-0.719,2.142-1.457
		c0.054-0.162,0.072-0.342,0.072-0.504V524.554z"/>
	<path d="M155.887,516.22h1.584V529h-1.584V516.22z"/>
	<path d="M163.914,516.22h1.584V529h-1.584V516.22z"/>
	<path d="M171.672,529.198c-2.341,0-4.177-1.728-4.177-4.482c0-2.916,1.927-4.626,4.32-4.626c2.502,0,4.194,1.818,4.194,4.464
		c0,3.24-2.25,4.645-4.32,4.645H171.672z M171.726,528.01c1.512,0,2.646-1.422,2.646-3.402c0-1.476-0.737-3.33-2.609-3.33
		c-1.854,0-2.664,1.729-2.664,3.385c0,1.908,1.08,3.348,2.61,3.348H171.726z"/>
	<path d="M184.146,526.912c0,0.756,0.036,1.494,0.126,2.088h-1.422l-0.145-1.098h-0.054c-0.468,0.684-1.422,1.296-2.664,1.296
		c-1.764,0-2.664-1.242-2.664-2.503c0-2.105,1.872-3.258,5.238-3.239v-0.181c0-0.719-0.198-2.033-1.98-2.016
		c-0.828,0-1.674,0.234-2.286,0.648l-0.359-1.063c0.72-0.449,1.782-0.756,2.88-0.756c2.682,0,3.33,1.818,3.33,3.564V526.912z
		 M182.598,524.554c-1.729-0.036-3.69,0.271-3.69,1.962c0,1.045,0.685,1.512,1.477,1.512c1.151,0,1.89-0.719,2.142-1.457
		c0.054-0.162,0.072-0.342,0.072-0.504V524.554z"/>
	<path d="M194.207,516.22v10.53c0,0.773,0.019,1.656,0.072,2.25h-1.422l-0.072-1.512h-0.036c-0.485,0.972-1.53,1.71-2.952,1.71
		c-2.105,0-3.744-1.782-3.744-4.429c-0.018-2.916,1.801-4.68,3.906-4.68c1.351,0,2.25,0.63,2.628,1.314h0.036v-5.185H194.207z
		 M192.623,523.834c0-0.216-0.018-0.469-0.072-0.684c-0.233-0.99-1.098-1.818-2.285-1.818c-1.639,0-2.61,1.439-2.61,3.348
		c0,1.782,0.882,3.24,2.574,3.24c1.062,0,2.034-0.72,2.321-1.891c0.055-0.215,0.072-0.432,0.072-0.684V523.834z"/>
	<path d="M200.508,523.564v1.151h-4.446v-1.151H200.508z"/>
	<path d="M203.261,524.914c0.036,2.143,1.386,3.023,2.97,3.023c1.135,0,1.837-0.197,2.412-0.432l0.288,1.116
		c-0.558,0.252-1.529,0.558-2.916,0.558c-2.664,0-4.284-1.781-4.284-4.392c0-2.646,1.566-4.716,4.104-4.716
		c2.844,0,3.582,2.502,3.582,4.104c0,0.324-0.019,0.576-0.054,0.756L203.261,524.914z M207.887,523.779
		c0.019-0.989-0.414-2.573-2.178-2.573c-1.62,0-2.304,1.476-2.43,2.573H207.887z"/>
	<path d="M212.063,520.288l1.242,1.854c0.324,0.504,0.594,0.936,0.882,1.422h0.055c0.287-0.504,0.575-0.955,0.882-1.422l1.206-1.854
		h1.728l-2.97,4.212l3.042,4.5h-1.8l-1.278-1.962c-0.342-0.504-0.63-0.99-0.936-1.513h-0.036c-0.288,0.522-0.595,0.99-0.918,1.513
		L211.9,529h-1.746l3.097-4.446l-2.952-4.266H212.063z"/>
	<path d="M221.801,518.199v2.089h2.269v1.206h-2.269v4.697c0,1.08,0.307,1.692,1.188,1.692c0.432,0,0.684-0.036,0.918-0.108
		l0.072,1.207c-0.307,0.107-0.792,0.216-1.404,0.216c-0.738,0-1.332-0.253-1.71-0.666c-0.432-0.486-0.612-1.261-0.612-2.286v-4.752
		h-1.35v-1.206h1.35v-1.603L221.801,518.199z"/>
	<path d="M226.643,524.914c0.036,2.143,1.386,3.023,2.97,3.023c1.135,0,1.837-0.197,2.412-0.432l0.288,1.116
		c-0.558,0.252-1.529,0.558-2.916,0.558c-2.664,0-4.284-1.781-4.284-4.392c0-2.646,1.566-4.716,4.104-4.716
		c2.844,0,3.582,2.502,3.582,4.104c0,0.324-0.018,0.576-0.054,0.756L226.643,524.914z M231.269,523.779
		c0.019-0.989-0.414-2.573-2.178-2.573c-1.62,0-2.304,1.476-2.43,2.573H231.269z"/>
	<path d="M234.761,522.646c0-0.918-0.019-1.639-0.072-2.358h1.404l0.09,1.422h0.036c0.432-0.81,1.439-1.62,2.88-1.62
		c1.206,0,3.078,0.721,3.078,3.708V529h-1.584v-5.021c0-1.404-0.522-2.593-2.017-2.593c-1.025,0-1.836,0.738-2.124,1.62
		c-0.072,0.198-0.107,0.486-0.107,0.738V529h-1.584V522.646z"/>
	<path d="M244.534,527.398c0.486,0.287,1.314,0.611,2.106,0.611c1.134,0,1.674-0.558,1.674-1.296c0-0.756-0.45-1.17-1.602-1.603
		c-1.584-0.575-2.322-1.422-2.322-2.465c0-1.404,1.152-2.557,3.006-2.557c0.882,0,1.656,0.234,2.124,0.54l-0.378,1.134
		c-0.342-0.197-0.972-0.504-1.782-0.504c-0.936,0-1.439,0.54-1.439,1.188c0,0.738,0.504,1.063,1.638,1.494
		c1.494,0.559,2.286,1.314,2.286,2.629c0,1.548-1.206,2.628-3.24,2.628c-0.954,0-1.836-0.253-2.448-0.612L244.534,527.398z"/>
	<path d="M252.635,518.686c-0.595,0-0.99-0.468-0.99-1.025c0-0.559,0.414-1.008,1.026-1.008c0.611,0,1.008,0.449,1.008,1.008
		c0,0.558-0.396,1.025-1.026,1.025H252.635z M251.879,529v-8.712h1.584V529H251.879z"/>
	<path d="M259.637,529.198c-2.341,0-4.177-1.728-4.177-4.482c0-2.916,1.927-4.626,4.32-4.626c2.502,0,4.194,1.818,4.194,4.464
		c0,3.24-2.25,4.645-4.32,4.645H259.637z M259.69,528.01c1.512,0,2.646-1.422,2.646-3.402c0-1.476-0.737-3.33-2.609-3.33
		c-1.854,0-2.664,1.729-2.664,3.385c0,1.908,1.08,3.348,2.61,3.348H259.69z"/>
	<path d="M265.973,522.646c0-0.918-0.019-1.639-0.072-2.358h1.404l0.09,1.422h0.036c0.432-0.81,1.439-1.62,2.88-1.62
		c1.206,0,3.078,0.721,3.078,3.708V529h-1.584v-5.021c0-1.404-0.522-2.593-2.017-2.593c-1.025,0-1.836,0.738-2.124,1.62
		c-0.072,0.198-0.107,0.486-0.107,0.738V529h-1.584V522.646z"/>
	<path d="M279.796,523.006c0-1.025-0.018-1.908-0.072-2.718h1.387l0.071,1.71h0.055c0.396-1.17,1.367-1.908,2.43-1.908
		c0.162,0,0.288,0.018,0.432,0.055v1.476c-0.18-0.019-0.342-0.036-0.558-0.036c-1.116,0-1.908,0.846-2.124,2.016
		c-0.036,0.234-0.054,0.486-0.054,0.756V529h-1.584L279.796,523.006z"/>
	<path d="M291.694,526.912c0,0.756,0.036,1.494,0.126,2.088h-1.422l-0.145-1.098H290.2c-0.468,0.684-1.422,1.296-2.664,1.296
		c-1.764,0-2.664-1.242-2.664-2.503c0-2.105,1.872-3.258,5.238-3.239v-0.181c0-0.719-0.198-2.033-1.98-2.016
		c-0.828,0-1.674,0.234-2.286,0.648l-0.359-1.063c0.72-0.449,1.782-0.756,2.88-0.756c2.682,0,3.33,1.818,3.33,3.564V526.912z
		 M290.146,524.554c-1.729-0.036-3.69,0.271-3.69,1.962c0,1.045,0.685,1.512,1.477,1.512c1.151,0,1.89-0.719,2.142-1.457
		c0.054-0.162,0.072-0.342,0.072-0.504V524.554z"/>
	<path d="M296.067,518.199v2.089h2.269v1.206h-2.269v4.697c0,1.08,0.307,1.692,1.188,1.692c0.432,0,0.684-0.036,0.918-0.108
		l0.072,1.207c-0.307,0.107-0.792,0.216-1.404,0.216c-0.738,0-1.332-0.253-1.71-0.666c-0.433-0.486-0.612-1.261-0.612-2.286v-4.752
		h-1.35v-1.206h1.35v-1.603L296.067,518.199z"/>
	<path d="M300.874,518.686c-0.595,0-0.99-0.468-0.99-1.025c0-0.559,0.414-1.008,1.026-1.008c0.611,0,1.008,0.449,1.008,1.008
		c0,0.558-0.396,1.025-1.026,1.025H300.874z M300.118,529v-8.712h1.584V529H300.118z"/>
	<path d="M307.876,529.198c-2.341,0-4.177-1.728-4.177-4.482c0-2.916,1.927-4.626,4.32-4.626c2.502,0,4.194,1.818,4.194,4.464
		c0,3.24-2.25,4.645-4.32,4.645H307.876z M307.93,528.01c1.512,0,2.646-1.422,2.646-3.402c0-1.476-0.737-3.33-2.609-3.33
		c-1.854,0-2.664,1.729-2.664,3.385c0,1.908,1.08,3.348,2.61,3.348H307.93z"/>
	<path d="M324.237,528.693c-0.414,0.199-1.332,0.505-2.502,0.505c-2.629,0-4.339-1.782-4.339-4.464c0-2.683,1.836-4.645,4.681-4.645
		c0.936,0,1.764,0.234,2.195,0.469l-0.359,1.205c-0.378-0.197-0.972-0.414-1.836-0.414c-1.998,0-3.078,1.494-3.078,3.313
		c0,2.016,1.296,3.258,3.023,3.258c0.9,0,1.494-0.216,1.944-0.414L324.237,528.693z"/>
	<path d="M333.382,526.624c0,0.899,0.018,1.692,0.071,2.376h-1.403l-0.091-1.422h-0.035c-0.396,0.701-1.332,1.62-2.881,1.62
		c-1.367,0-3.006-0.774-3.006-3.816v-5.094h1.584v4.806c0,1.656,0.522,2.79,1.944,2.79c1.062,0,1.8-0.737,2.088-1.458
		c0.09-0.216,0.145-0.504,0.145-0.81v-5.328h1.584V526.624z"/>
	<path d="M336.027,523.006c0-1.025-0.018-1.908-0.072-2.718h1.387l0.071,1.71h0.055c0.396-1.17,1.367-1.908,2.43-1.908
		c0.162,0,0.288,0.018,0.432,0.055v1.476c-0.18-0.019-0.342-0.036-0.558-0.036c-1.116,0-1.908,0.846-2.124,2.016
		c-0.036,0.234-0.054,0.486-0.054,0.756V529h-1.584L336.027,523.006z"/>
	<path d="M342.957,520.288l1.71,4.878c0.288,0.811,0.522,1.529,0.702,2.25h0.054c0.198-0.721,0.45-1.439,0.738-2.25l1.692-4.878
		h1.656L346.089,529h-1.512l-3.312-8.712H342.957z"/>
	<path d="M351.705,524.914c0.036,2.143,1.386,3.023,2.97,3.023c1.135,0,1.837-0.197,2.412-0.432l0.288,1.116
		c-0.558,0.252-1.529,0.558-2.916,0.558c-2.664,0-4.284-1.781-4.284-4.392c0-2.646,1.566-4.716,4.104-4.716
		c2.844,0,3.582,2.502,3.582,4.104c0,0.324-0.018,0.576-0.054,0.756L351.705,524.914z M356.331,523.779
		c0.019-0.989-0.414-2.573-2.178-2.573c-1.62,0-2.304,1.476-2.43,2.573H356.331z"/>
	<path d="M363.782,529v-7.506h-1.206v-1.206h1.206v-0.414c0-1.224,0.288-2.341,1.026-3.042c0.594-0.576,1.386-0.811,2.105-0.811
		c0.576,0,1.044,0.127,1.351,0.252l-0.198,1.225c-0.252-0.107-0.559-0.198-1.026-0.198c-1.332,0-1.691,1.188-1.691,2.521v0.468
		h2.105v1.206h-2.088V529H363.782z"/>
	<path d="M372.225,529.198c-2.341,0-4.177-1.728-4.177-4.482c0-2.916,1.927-4.626,4.32-4.626c2.502,0,4.194,1.818,4.194,4.464
		c0,3.24-2.25,4.645-4.32,4.645H372.225z M372.278,528.01c1.512,0,2.646-1.422,2.646-3.402c0-1.476-0.737-3.33-2.609-3.33
		c-1.854,0-2.664,1.729-2.664,3.385c0,1.908,1.08,3.348,2.61,3.348H372.278z"/>
	<path d="M378.578,523.006c0-1.025-0.018-1.908-0.072-2.718h1.387l0.071,1.71h0.055c0.396-1.17,1.367-1.908,2.43-1.908
		c0.162,0,0.288,0.018,0.432,0.055v1.476c-0.18-0.019-0.342-0.036-0.558-0.036c-1.116,0-1.908,0.846-2.124,2.016
		c-0.036,0.234-0.054,0.486-0.054,0.756V529h-1.584L378.578,523.006z"/>
	<path d="M112.012,544.605c0-1.026-0.018-1.908-0.072-2.718h1.387l0.071,1.71h0.055c0.396-1.17,1.367-1.908,2.43-1.908
		c0.162,0,0.288,0.019,0.432,0.054v1.477c-0.18-0.019-0.342-0.036-0.558-0.036c-1.116,0-1.908,0.846-2.124,2.016
		c-0.036,0.234-0.054,0.486-0.054,0.756v4.645h-1.584L112.012,544.605z"/>
	<path d="M125.134,548.224c0,0.9,0.018,1.692,0.071,2.376h-1.403l-0.091-1.422h-0.035c-0.396,0.702-1.332,1.62-2.881,1.62
		c-1.367,0-3.006-0.774-3.006-3.816v-5.094h1.584v4.806c0,1.656,0.522,2.79,1.944,2.79c1.062,0,1.8-0.738,2.088-1.458
		c0.09-0.216,0.145-0.504,0.145-0.81v-5.328h1.584V548.224z"/>
	<path d="M127.762,537.819h1.584v5.454h0.035c0.559-0.972,1.566-1.584,2.971-1.584c2.16,0,3.672,1.8,3.672,4.428
		c0,3.133-1.98,4.681-3.924,4.681c-1.261,0-2.25-0.486-2.916-1.639h-0.036l-0.09,1.44h-1.368c0.054-0.594,0.072-1.476,0.072-2.25
		V537.819z M129.346,547.107c0,0.198,0.018,0.396,0.054,0.576c0.306,1.098,1.242,1.854,2.376,1.854c1.674,0,2.646-1.35,2.646-3.348
		c0-1.764-0.899-3.258-2.592-3.258c-1.08,0-2.088,0.756-2.394,1.944c-0.055,0.197-0.09,0.414-0.09,0.666V547.107z"/>
	<path d="M138.004,537.819h1.584v5.454h0.035c0.559-0.972,1.566-1.584,2.971-1.584c2.16,0,3.672,1.8,3.672,4.428
		c0,3.133-1.98,4.681-3.924,4.681c-1.261,0-2.25-0.486-2.916-1.639h-0.036l-0.09,1.44h-1.368c0.054-0.594,0.072-1.476,0.072-2.25
		V537.819z M139.588,547.107c0,0.198,0.018,0.396,0.054,0.576c0.306,1.098,1.242,1.854,2.376,1.854c1.674,0,2.646-1.35,2.646-3.348
		c0-1.764-0.899-3.258-2.592-3.258c-1.08,0-2.088,0.756-2.394,1.944c-0.055,0.197-0.09,0.414-0.09,0.666V547.107z"/>
	<path d="M149.163,546.514c0.036,2.142,1.386,3.023,2.97,3.023c1.135,0,1.837-0.197,2.412-0.432l0.288,1.116
		c-0.558,0.252-1.529,0.558-2.916,0.558c-2.664,0-4.284-1.781-4.284-4.392c0-2.646,1.566-4.716,4.104-4.716
		c2.844,0,3.582,2.502,3.582,4.104c0,0.324-0.019,0.576-0.054,0.756L149.163,546.514z M153.789,545.38
		c0.019-0.99-0.414-2.574-2.178-2.574c-1.62,0-2.304,1.476-2.43,2.574H153.789z"/>
	<path d="M157.299,544.605c0-1.026-0.018-1.908-0.072-2.718h1.387l0.071,1.71h0.055c0.396-1.17,1.367-1.908,2.43-1.908
		c0.162,0,0.288,0.019,0.432,0.054v1.477c-0.18-0.019-0.342-0.036-0.558-0.036c-1.116,0-1.908,0.846-2.124,2.016
		c-0.036,0.234-0.054,0.486-0.054,0.756v4.645h-1.584L157.299,544.605z"/>
	<path d="M167.738,540.285c-0.595,0-0.99-0.468-0.99-1.025c0-0.559,0.414-1.008,1.026-1.008c0.611,0,1.008,0.449,1.008,1.008
		c0,0.558-0.396,1.025-1.026,1.025H167.738z M166.982,550.6v-8.712h1.584v8.712H166.982z"/>
	<path d="M171.194,544.245c0-0.918-0.019-1.638-0.072-2.357h1.404l0.09,1.422h0.036c0.432-0.81,1.439-1.62,2.88-1.62
		c1.206,0,3.078,0.72,3.078,3.708v5.202h-1.584v-5.022c0-1.403-0.522-2.592-2.017-2.592c-1.025,0-1.836,0.738-2.124,1.62
		c-0.072,0.198-0.107,0.486-0.107,0.738v5.256h-1.584V544.245z"/>
	<path d="M184.783,548.998c0.486,0.287,1.314,0.611,2.106,0.611c1.134,0,1.674-0.558,1.674-1.296c0-0.756-0.45-1.17-1.602-1.602
		c-1.584-0.576-2.322-1.422-2.322-2.467c0-1.403,1.152-2.556,3.006-2.556c0.882,0,1.656,0.234,2.124,0.54l-0.378,1.134
		c-0.342-0.197-0.972-0.504-1.782-0.504c-0.936,0-1.439,0.54-1.439,1.188c0,0.737,0.504,1.062,1.638,1.494
		c1.494,0.558,2.286,1.313,2.286,2.628c0,1.548-1.206,2.628-3.24,2.628c-0.954,0-1.836-0.252-2.448-0.612L184.783,548.998z"/>
	<path d="M192.885,540.285c-0.595,0-0.99-0.468-0.99-1.025c0-0.559,0.414-1.008,1.026-1.008c0.611,0,1.008,0.449,1.008,1.008
		c0,0.558-0.396,1.025-1.026,1.025H192.885z M192.129,550.6v-8.712h1.584v8.712H192.129z"/>
	<path d="M196.34,544.245c0-0.918-0.036-1.638-0.072-2.357h1.386l0.072,1.404h0.054c0.486-0.828,1.296-1.603,2.754-1.603
		c1.17,0,2.07,0.72,2.448,1.746h0.036c0.27-0.504,0.63-0.864,0.99-1.134c0.521-0.396,1.08-0.612,1.907-0.612
		c1.171,0,2.881,0.756,2.881,3.78v5.13h-1.549v-4.932c0-1.692-0.63-2.683-1.89-2.683c-0.918,0-1.602,0.666-1.89,1.422
		c-0.072,0.234-0.126,0.522-0.126,0.792v5.4h-1.549v-5.22c0-1.404-0.611-2.395-1.817-2.395c-0.972,0-1.71,0.792-1.962,1.584
		c-0.09,0.234-0.126,0.504-0.126,0.774v5.256h-1.548V544.245z"/>
	<path d="M211.353,544.731c0-1.116-0.019-2.016-0.072-2.844h1.422l0.09,1.494h0.036c0.63-1.08,1.674-1.692,3.078-1.692
		c2.124,0,3.708,1.782,3.708,4.428c0,3.133-1.926,4.681-3.96,4.681c-1.17,0-2.16-0.504-2.683-1.368h-0.035v4.734h-1.584V544.731z
		 M212.937,547.054c0,0.216,0.018,0.45,0.071,0.647c0.271,1.099,1.242,1.854,2.358,1.854c1.674,0,2.646-1.368,2.646-3.366
		c0-1.746-0.899-3.24-2.573-3.24c-1.08,0-2.106,0.756-2.412,1.944c-0.036,0.216-0.09,0.45-0.09,0.648V547.054z"/>
	<path d="M221.594,537.819h1.584v12.78h-1.584V537.819z"/>
	<path d="M226.705,546.514c0.036,2.142,1.386,3.023,2.97,3.023c1.135,0,1.837-0.197,2.412-0.432l0.288,1.116
		c-0.558,0.252-1.529,0.558-2.916,0.558c-2.664,0-4.284-1.781-4.284-4.392c0-2.646,1.566-4.716,4.104-4.716
		c2.844,0,3.582,2.502,3.582,4.104c0,0.324-0.018,0.576-0.054,0.756L226.705,546.514z M231.331,545.38
		c0.019-0.99-0.414-2.574-2.178-2.574c-1.62,0-2.304,1.476-2.43,2.574H231.331z"/>
	<path d="M239.539,546.514c0.036,2.142,1.386,3.023,2.97,3.023c1.135,0,1.837-0.197,2.412-0.432l0.288,1.116
		c-0.558,0.252-1.529,0.558-2.916,0.558c-2.664,0-4.284-1.781-4.284-4.392c0-2.646,1.566-4.716,4.104-4.716
		c2.844,0,3.582,2.502,3.582,4.104c0,0.324-0.018,0.576-0.054,0.756L239.539,546.514z M244.165,545.38
		c0.019-0.99-0.414-2.574-2.178-2.574c-1.62,0-2.304,1.476-2.43,2.574H244.165z"/>
	<path d="M248.341,541.888l1.242,1.854c0.324,0.504,0.594,0.937,0.882,1.422h0.055c0.287-0.504,0.575-0.953,0.882-1.422l1.206-1.854
		h1.728l-2.97,4.212l3.042,4.5h-1.8l-1.278-1.962c-0.342-0.504-0.63-0.99-0.936-1.512h-0.036c-0.288,0.521-0.595,0.989-0.918,1.512
		l-1.261,1.962h-1.746l3.097-4.446l-2.952-4.266H248.341z"/>
	<path d="M258.078,539.8v2.088h2.269v1.206h-2.269v4.698c0,1.08,0.307,1.691,1.188,1.691c0.432,0,0.684-0.036,0.918-0.107
		l0.072,1.206c-0.307,0.107-0.792,0.216-1.404,0.216c-0.738,0-1.332-0.252-1.71-0.666c-0.432-0.486-0.612-1.26-0.612-2.286v-4.752
		h-1.35v-1.206h1.35v-1.603L258.078,539.8z"/>
	<path d="M262.921,546.514c0.036,2.142,1.386,3.023,2.97,3.023c1.135,0,1.837-0.197,2.412-0.432l0.288,1.116
		c-0.558,0.252-1.529,0.558-2.916,0.558c-2.664,0-4.284-1.781-4.284-4.392c0-2.646,1.566-4.716,4.104-4.716
		c2.844,0,3.582,2.502,3.582,4.104c0,0.324-0.019,0.576-0.054,0.756L262.921,546.514z M267.547,545.38
		c0.019-0.99-0.414-2.574-2.178-2.574c-1.62,0-2.304,1.476-2.43,2.574H267.547z"/>
	<path d="M271.039,544.245c0-0.918-0.019-1.638-0.072-2.357h1.404l0.09,1.422h0.036c0.432-0.81,1.439-1.62,2.88-1.62
		c1.206,0,3.078,0.72,3.078,3.708v5.202h-1.584v-5.022c0-1.403-0.522-2.592-2.017-2.592c-1.025,0-1.836,0.738-2.124,1.62
		c-0.072,0.198-0.107,0.486-0.107,0.738v5.256h-1.584V544.245z"/>
	<path d="M280.813,548.998c0.486,0.287,1.314,0.611,2.106,0.611c1.134,0,1.674-0.558,1.674-1.296c0-0.756-0.45-1.17-1.602-1.602
		c-1.584-0.576-2.322-1.422-2.322-2.467c0-1.403,1.152-2.556,3.006-2.556c0.882,0,1.656,0.234,2.124,0.54l-0.378,1.134
		c-0.342-0.197-0.972-0.504-1.782-0.504c-0.936,0-1.439,0.54-1.439,1.188c0,0.737,0.504,1.062,1.638,1.494
		c1.494,0.558,2.286,1.313,2.286,2.628c0,1.548-1.206,2.628-3.24,2.628c-0.954,0-1.836-0.252-2.448-0.612L280.813,548.998z"/>
	<path d="M288.913,540.285c-0.595,0-0.99-0.468-0.99-1.025c0-0.559,0.414-1.008,1.026-1.008c0.611,0,1.008,0.449,1.008,1.008
		c0,0.558-0.396,1.025-1.026,1.025H288.913z M288.157,550.6v-8.712h1.584v8.712H288.157z"/>
	<path d="M295.915,550.798c-2.341,0-4.177-1.729-4.177-4.482c0-2.916,1.927-4.626,4.32-4.626c2.502,0,4.194,1.818,4.194,4.464
		c0,3.24-2.25,4.645-4.32,4.645H295.915z M295.969,549.609c1.512,0,2.646-1.422,2.646-3.401c0-1.477-0.737-3.33-2.609-3.33
		c-1.854,0-2.664,1.728-2.664,3.384c0,1.908,1.08,3.348,2.61,3.348H295.969z"/>
	<path d="M302.251,544.245c0-0.918-0.019-1.638-0.072-2.357h1.404l0.09,1.422h0.036c0.432-0.81,1.439-1.62,2.88-1.62
		c1.206,0,3.078,0.72,3.078,3.708v5.202h-1.584v-5.022c0-1.403-0.522-2.592-2.017-2.592c-1.025,0-1.836,0.738-2.124,1.62
		c-0.072,0.198-0.107,0.486-0.107,0.738v5.256h-1.584V544.245z"/>
	<path d="M312.906,550.798c-0.612,0-1.045-0.486-1.045-1.134c0-0.648,0.45-1.135,1.08-1.135c0.631,0,1.063,0.469,1.063,1.135
		c0,0.647-0.432,1.134-1.08,1.134H312.906z"/>
	<path d="M101.616,559.708c-1.314,1.782-2.25,4.104-2.25,7.38c0,3.204,0.989,5.49,2.25,7.29h-1.225
		c-1.134-1.494-2.357-3.798-2.357-7.308c0.018-3.528,1.224-5.851,2.357-7.362H101.616z"/>
	<path d="M104.928,560.068V572.2h-1.584v-12.132H104.928z"/>
	<path d="M107.61,565.846c0-0.918-0.019-1.638-0.072-2.357h1.404l0.09,1.422h0.036c0.432-0.81,1.439-1.62,2.88-1.62
		c1.206,0,3.078,0.72,3.078,3.708v5.202h-1.584v-5.022c0-1.403-0.522-2.592-2.017-2.592c-1.025,0-1.836,0.738-2.124,1.62
		c-0.072,0.198-0.107,0.486-0.107,0.738v5.256h-1.584V565.846z"/>
	<path d="M119.436,561.4v2.088h2.269v1.206h-2.269v4.698c0,1.08,0.307,1.691,1.188,1.691c0.432,0,0.684-0.036,0.918-0.107
		l0.072,1.206c-0.307,0.107-0.792,0.216-1.404,0.216c-0.738,0-1.332-0.252-1.71-0.666c-0.432-0.486-0.612-1.26-0.612-2.286v-4.752
		h-1.35v-1.206h1.35v-1.603L119.436,561.4z"/>
	<path d="M124.242,561.886c-0.595,0-0.99-0.468-0.99-1.025c0-0.559,0.414-1.008,1.026-1.008c0.611,0,1.008,0.449,1.008,1.008
		c0,0.558-0.396,1.025-1.026,1.025H124.242z M123.486,572.2v-8.712h1.584v8.712H123.486z"/>
	<path d="M133.836,570.112c0,0.756,0.036,1.494,0.126,2.088h-1.422l-0.145-1.098h-0.054c-0.468,0.684-1.422,1.296-2.664,1.296
		c-1.764,0-2.664-1.242-2.664-2.502c0-2.106,1.872-3.259,5.238-3.24v-0.18c0-0.721-0.198-2.034-1.98-2.017
		c-0.828,0-1.674,0.234-2.286,0.648l-0.359-1.063c0.72-0.45,1.782-0.756,2.88-0.756c2.682,0,3.33,1.818,3.33,3.564V570.112z
		 M132.288,567.754c-1.729-0.036-3.69,0.271-3.69,1.962c0,1.044,0.685,1.513,1.477,1.513c1.151,0,1.89-0.721,2.142-1.458
		c0.054-0.162,0.072-0.343,0.072-0.504V567.754z"/>
	<path d="M136.374,559.42h1.584v12.78h-1.584V559.42z"/>
	<path d="M150.611,571.895c-0.414,0.197-1.332,0.504-2.502,0.504c-2.629,0-4.339-1.782-4.339-4.464c0-2.683,1.836-4.645,4.681-4.645
		c0.936,0,1.764,0.234,2.195,0.468l-0.359,1.206c-0.378-0.197-0.972-0.414-1.836-0.414c-1.998,0-3.078,1.494-3.078,3.313
		c0,2.016,1.296,3.258,3.023,3.258c0.9,0,1.494-0.216,1.944-0.414L150.611,571.895z"/>
	<path d="M152.483,566.206c0-1.026-0.018-1.908-0.072-2.718h1.387l0.071,1.71h0.055c0.396-1.17,1.367-1.908,2.43-1.908
		c0.162,0,0.288,0.019,0.432,0.054v1.477c-0.18-0.019-0.342-0.036-0.558-0.036c-1.116,0-1.908,0.846-2.124,2.016
		c-0.036,0.234-0.054,0.486-0.054,0.757v4.644h-1.584L152.483,566.206z"/>
	<path d="M161.789,572.398c-2.341,0-4.177-1.729-4.177-4.482c0-2.916,1.927-4.626,4.32-4.626c2.502,0,4.194,1.818,4.194,4.464
		c0,3.24-2.25,4.645-4.32,4.645H161.789z M161.843,571.21c1.512,0,2.646-1.422,2.646-3.401c0-1.477-0.737-3.33-2.609-3.33
		c-1.854,0-2.664,1.728-2.664,3.384c0,1.908,1.08,3.348,2.61,3.348H161.843z"/>
	<path d="M167.908,570.599c0.486,0.287,1.314,0.611,2.106,0.611c1.134,0,1.674-0.558,1.674-1.296c0-0.756-0.45-1.17-1.602-1.602
		c-1.584-0.576-2.322-1.422-2.322-2.467c0-1.403,1.152-2.556,3.006-2.556c0.882,0,1.656,0.234,2.124,0.54l-0.378,1.134
		c-0.342-0.197-0.972-0.504-1.782-0.504c-0.936,0-1.439,0.54-1.439,1.188c0,0.737,0.504,1.062,1.638,1.494
		c1.494,0.558,2.286,1.313,2.286,2.628c0,1.548-1.206,2.628-3.24,2.628c-0.954,0-1.836-0.252-2.448-0.612L167.908,570.599z"/>
	<path d="M175.036,570.599c0.486,0.287,1.314,0.611,2.106,0.611c1.134,0,1.674-0.558,1.674-1.296c0-0.756-0.45-1.17-1.602-1.602
		c-1.584-0.576-2.322-1.422-2.322-2.467c0-1.403,1.152-2.556,3.006-2.556c0.882,0,1.656,0.234,2.124,0.54l-0.378,1.134
		c-0.342-0.197-0.972-0.504-1.782-0.504c-0.936,0-1.439,0.54-1.439,1.188c0,0.737,0.504,1.062,1.638,1.494
		c1.494,0.558,2.286,1.313,2.286,2.628c0,1.548-1.206,2.628-3.24,2.628c-0.954,0-1.836-0.252-2.448-0.612L175.036,570.599z"/>
	<path d="M186.053,566.764v1.152h-4.446v-1.152H186.053z"/>
	<path d="M187.69,570.599c0.486,0.287,1.314,0.611,2.106,0.611c1.134,0,1.674-0.558,1.674-1.296c0-0.756-0.45-1.17-1.602-1.602
		c-1.584-0.576-2.322-1.422-2.322-2.467c0-1.403,1.152-2.556,3.006-2.556c0.882,0,1.656,0.234,2.124,0.54l-0.378,1.134
		c-0.342-0.197-0.972-0.504-1.782-0.504c-0.936,0-1.439,0.54-1.439,1.188c0,0.737,0.504,1.062,1.638,1.494
		c1.494,0.558,2.286,1.313,2.286,2.628c0,1.548-1.206,2.628-3.24,2.628c-0.954,0-1.836-0.252-2.448-0.612L187.69,570.599z"/>
	<path d="M195.935,568.114c0.036,2.142,1.386,3.024,2.97,3.024c1.135,0,1.837-0.198,2.412-0.433l0.288,1.116
		c-0.558,0.252-1.529,0.558-2.916,0.558c-2.664,0-4.284-1.781-4.284-4.392c0-2.646,1.566-4.716,4.104-4.716
		c2.844,0,3.582,2.502,3.582,4.104c0,0.324-0.019,0.576-0.054,0.756L195.935,568.114z M200.561,566.98
		c0.019-0.99-0.414-2.574-2.178-2.574c-1.62,0-2.304,1.476-2.43,2.574H200.561z"/>
	<path d="M210.263,571.895c-0.414,0.197-1.332,0.504-2.502,0.504c-2.629,0-4.339-1.782-4.339-4.464c0-2.683,1.836-4.645,4.681-4.645
		c0.936,0,1.764,0.234,2.195,0.468l-0.359,1.206c-0.378-0.197-0.972-0.414-1.836-0.414c-1.998,0-3.078,1.494-3.078,3.313
		c0,2.016,1.296,3.258,3.023,3.258c0.9,0,1.494-0.216,1.944-0.414L210.263,571.895z"/>
	<path d="M214.258,561.4v2.088h2.269v1.206h-2.269v4.698c0,1.08,0.307,1.691,1.188,1.691c0.432,0,0.684-0.036,0.918-0.107
		l0.072,1.206c-0.307,0.107-0.792,0.216-1.404,0.216c-0.738,0-1.332-0.252-1.71-0.666c-0.432-0.486-0.612-1.26-0.612-2.286v-4.752
		h-1.35v-1.206h1.35v-1.603L214.258,561.4z"/>
	<path d="M219.064,561.886c-0.595,0-0.99-0.468-0.99-1.025c0-0.559,0.414-1.008,1.026-1.008c0.611,0,1.008,0.449,1.008,1.008
		c0,0.558-0.396,1.025-1.026,1.025H219.064z M218.309,572.2v-8.712h1.584v8.712H218.309z"/>
	<path d="M226.066,572.398c-2.341,0-4.177-1.729-4.177-4.482c0-2.916,1.927-4.626,4.32-4.626c2.502,0,4.194,1.818,4.194,4.464
		c0,3.24-2.25,4.645-4.32,4.645H226.066z M226.12,571.21c1.512,0,2.646-1.422,2.646-3.401c0-1.477-0.737-3.33-2.609-3.33
		c-1.854,0-2.664,1.728-2.664,3.384c0,1.908,1.08,3.348,2.61,3.348H226.12z"/>
	<path d="M232.402,565.846c0-0.918-0.019-1.638-0.072-2.357h1.404l0.09,1.422h0.036c0.432-0.81,1.439-1.62,2.88-1.62
		c1.206,0,3.078,0.72,3.078,3.708v5.202h-1.584v-5.022c0-1.403-0.522-2.592-2.017-2.592c-1.025,0-1.836,0.738-2.124,1.62
		c-0.072,0.198-0.107,0.486-0.107,0.738v5.256h-1.584V565.846z"/>
	<path d="M241.798,566.134v-1.08h9.288v1.08H241.798z M241.798,569.662v-1.08h9.288v1.08H241.798z"/>
	<path d="M256.342,572.398c-2.286,0-3.853-2.143-3.888-6.013c0-3.941,1.71-6.084,4.086-6.084c2.447,0,3.87,2.196,3.87,5.923
		c0,3.978-1.494,6.174-4.051,6.174H256.342z M256.414,571.174c1.602,0,2.376-1.89,2.376-4.878c0-2.88-0.721-4.77-2.376-4.77
		c-1.44,0-2.376,1.836-2.376,4.77c-0.036,3.042,0.899,4.878,2.357,4.878H256.414z"/>
	<path d="M263.02,572.398c-0.612,0-1.045-0.486-1.045-1.134c0-0.648,0.45-1.135,1.08-1.135c0.631,0,1.063,0.469,1.063,1.135
		c0,0.647-0.432,1.134-1.08,1.134H263.02z"/>
	<path d="M269.013,561.977h-0.036l-2.034,1.098l-0.306-1.206l2.556-1.368h1.351v11.7h-1.53V561.977z"/>
	<path d="M278.535,572.398c-2.286,0-3.853-2.143-3.888-6.013c0-3.941,1.71-6.084,4.086-6.084c2.447,0,3.87,2.196,3.87,5.923
		c0,3.978-1.494,6.174-4.051,6.174H278.535z M278.607,571.174c1.602,0,2.376-1.89,2.376-4.878c0-2.88-0.721-4.77-2.376-4.77
		c-1.44,0-2.376,1.836-2.376,4.77c-0.036,3.042,0.899,4.878,2.357,4.878H278.607z"/>
	<path d="M287.967,560.302c2.268,0,3.42,1.404,3.42,2.88c0,0.99-0.504,2.07-1.944,2.736v0.054c1.458,0.576,2.358,1.62,2.358,3.024
		c0,2.052-1.746,3.402-3.979,3.402c-2.448,0-3.924-1.44-3.924-3.15c0-1.476,0.882-2.538,2.304-3.15v-0.054
		c-1.313-0.611-1.872-1.62-1.872-2.628c0-1.854,1.566-3.114,3.618-3.114H287.967z M287.876,571.246c1.423,0,2.341-0.882,2.341-2.088
		c0-1.404-0.99-2.106-2.574-2.556c-1.368,0.396-2.106,1.313-2.106,2.43c-0.054,1.17,0.847,2.214,2.322,2.214H287.876z
		 M287.912,561.437c-1.313,0-2.033,0.863-2.033,1.872c-0.019,1.17,0.882,1.8,2.231,2.159c1.008-0.342,1.782-1.062,1.782-2.124
		c0-0.936-0.559-1.907-1.962-1.907H287.912z"/>
	<path d="M299.99,571.895c-0.414,0.197-1.332,0.504-2.502,0.504c-2.629,0-4.339-1.782-4.339-4.464c0-2.683,1.836-4.645,4.681-4.645
		c0.936,0,1.764,0.234,2.195,0.468l-0.359,1.206c-0.378-0.197-0.972-0.414-1.836-0.414c-1.998,0-3.078,1.494-3.078,3.313
		c0,2.016,1.296,3.258,3.023,3.258c0.9,0,1.494-0.216,1.944-0.414L299.99,571.895z"/>
	<path d="M301.845,565.846c0-0.918-0.036-1.638-0.072-2.357h1.386l0.072,1.404h0.054c0.486-0.828,1.296-1.603,2.754-1.603
		c1.17,0,2.07,0.72,2.448,1.746h0.036c0.27-0.504,0.63-0.864,0.99-1.134c0.521-0.396,1.08-0.612,1.907-0.612
		c1.171,0,2.881,0.756,2.881,3.78v5.13h-1.549v-4.932c0-1.692-0.63-2.683-1.89-2.683c-0.918,0-1.602,0.666-1.89,1.422
		c-0.072,0.234-0.126,0.522-0.126,0.792v5.4h-1.549v-5.22c0-1.404-0.611-2.395-1.817-2.395c-0.973,0-1.71,0.792-1.962,1.584
		c-0.09,0.234-0.126,0.504-0.126,0.774v5.256h-1.548V565.846z"/>
	<path d="M316.109,566.206v-0.681l0.869-0.844c2.092-1.991,3.049-3.05,3.049-4.284c0-0.832-0.391-1.601-1.612-1.601
		c-0.744,0-1.361,0.378-1.739,0.693l-0.353-0.781c0.555-0.466,1.373-0.831,2.318-0.831c1.751,0,2.495,1.209,2.495,2.381
		c0,1.512-1.097,2.734-2.822,4.397l-0.644,0.604v0.025h3.667v0.92H316.109z"/>
	<path d="M322.366,574.378c1.26-1.782,2.25-4.104,2.25-7.344s-0.973-5.526-2.25-7.326h1.224c1.134,1.477,2.358,3.798,2.358,7.326
		c-0.019,3.528-1.225,5.814-2.358,7.344H322.366z"/>
</g>
</svg>
