<?xml version="1.0" encoding="utf-8"?>
<!-- Generator: Adobe Illustrator 13.0.0, SVG Export Plug-In . SVG Version: 6.00 Build 14948)  -->
<!DOCTYPE svg PUBLIC "-//W3C//DTD SVG 1.1//EN" "http://www.w3.org/Graphics/SVG/1.1/DTD/svg11.dtd">
<svg version="1.1" id="Layer_1" xmlns="http://www.w3.org/2000/svg" xmlns:xlink="http://www.w3.org/1999/xlink" x="0px" y="0px"
	 width="662.966px" height="503.975px" viewBox="0 0 662.966 503.975" enable-background="new 0 0 662.966 503.975"
	 xml:space="preserve">
<g>
	<g>
		<line fill="none" stroke="#000000" x1="295.051" y1="459.646" x2="295.051" y2="295.087"/>
		<polygon points="291.347,456.837 295.051,458.411 298.754,456.837 295.051,465.616 		"/>
	</g>
</g>
<g>
	<g>
		<line fill="none" stroke="#000000" x1="99.892" y1="383.371" x2="499.558" y2="383.371"/>
		<polygon points="102.701,379.667 101.128,383.371 102.701,387.074 93.923,383.371 		"/>
	</g>
</g>
<g>
	<g>
		<path fill="none" stroke="#000000" stroke-dasharray="3,3" d="M224.527,90.418c68.09,66.162,174.874,66.474,242.25,0"/>
		<polygon points="467.379,95.028 465.897,91.287 462.176,89.754 471.026,86.226 		"/>
		<polygon points="229.123,89.719 225.414,91.28 223.96,95.032 220.246,86.259 		"/>
	</g>
</g>
<g>
</g>
<g>
	
		<radialGradient id="path16609_20_" cx="131.0752" cy="-549.6187" r="16.186" gradientTransform="matrix(1.5933 0 0 0.6358 -140.6911 416.0022)" gradientUnits="userSpaceOnUse">
		<stop  offset="0" style="stop-color:#FFFCDF"/>
		<stop  offset="0.1203" style="stop-color:#FFFBDA"/>
		<stop  offset="0.2662" style="stop-color:#FFF9CB"/>
		<stop  offset="0.4255" style="stop-color:#FFF6B2"/>
		<stop  offset="0.5943" style="stop-color:#FFF090"/>
		<stop  offset="0.7706" style="stop-color:#FFEA64"/>
		<stop  offset="0.9506" style="stop-color:#FFE22F"/>
		<stop  offset="1" style="stop-color:#FFE01F"/>
	</radialGradient>
	<path id="path16609_2_" fill="url(#path16609_20_)" stroke="#000000" d="M93.466,66.554c0,5.786-11.338,10.478-25.316,10.478
		c-13.98,0-25.314-4.689-25.314-10.478S54.169,56.079,68.15,56.079C82.128,56.08,93.466,60.767,93.466,66.554z"/>
	<g>
		<path d="M65.082,69.717c-0.468,0.18-1.403,0.444-2.495,0.444c-1.223,0-2.231-0.312-3.022-1.067
			c-0.696-0.672-1.127-1.751-1.127-3.01c0-2.411,1.667-4.174,4.378-4.174c0.935,0,1.679,0.204,2.027,0.372l-0.264,0.852
			c-0.432-0.204-0.971-0.348-1.787-0.348c-1.967,0-3.25,1.223-3.25,3.25c0,2.051,1.223,3.262,3.118,3.262
			c0.684,0,1.151-0.096,1.392-0.216V66.67h-1.631v-0.839h2.663V69.717z"/>
		<path d="M70.747,63.013c-0.216-0.012-0.492,0.012-0.792,0.06c-1.667,0.264-2.531,1.475-2.71,2.77h0.024
			c0.372-0.503,1.031-0.911,1.895-0.911c1.379,0,2.351,1.007,2.351,2.519c0,1.439-0.972,2.758-2.603,2.758
			c-1.655,0-2.747-1.295-2.747-3.322c0-1.535,0.54-2.746,1.319-3.526c0.647-0.636,1.511-1.031,2.495-1.151
			c0.312-0.048,0.576-0.06,0.768-0.06V63.013z M68.936,69.393c0.899,0,1.511-0.756,1.511-1.871s-0.636-1.787-1.607-1.787
			c-0.636,0-1.235,0.384-1.523,0.959c-0.06,0.12-0.108,0.264-0.108,0.456c0.012,1.283,0.612,2.243,1.715,2.243H68.936z"/>
		<path d="M72.825,62.101c0.503-0.096,1.163-0.168,2.003-0.168c1.031,0,1.787,0.24,2.267,0.672c0.444,0.384,0.72,0.971,0.72,1.691
			c0,0.731-0.216,1.307-0.636,1.727c-0.552,0.587-1.451,0.888-2.471,0.888c-0.312,0-0.6-0.012-0.839-0.072v3.238h-1.043V62.101z
			 M73.868,65.987c0.228,0.06,0.527,0.084,0.863,0.084c1.271,0,2.027-0.624,2.027-1.715c0-1.08-0.755-1.595-1.907-1.595
			c-0.456,0-0.804,0.048-0.983,0.084V65.987z"/>
	</g>
</g>
<g>
	
		<radialGradient id="path16609_29_" cx="115.186" cy="-411.1089" r="16.1858" gradientTransform="matrix(1.5933 0 0 0.6358 -140.6911 416.0022)" gradientUnits="userSpaceOnUse">
		<stop  offset="0" style="stop-color:#A2FF5F"/>
		<stop  offset="0.4082" style="stop-color:#A0FF5F"/>
		<stop  offset="0.5552" style="stop-color:#99FD5F"/>
		<stop  offset="0.66" style="stop-color:#8EFB5E"/>
		<stop  offset="0.7448" style="stop-color:#7DF85E"/>
		<stop  offset="0.8174" style="stop-color:#67F35D"/>
		<stop  offset="0.8817" style="stop-color:#4BEE5C"/>
		<stop  offset="0.9398" style="stop-color:#2BE85B"/>
		<stop  offset="0.9915" style="stop-color:#07E05A"/>
		<stop  offset="1" style="stop-color:#00DF5A"/>
	</radialGradient>
	<path id="path16609_21_" fill="url(#path16609_29_)" stroke="#000000" d="M68.15,154.618c0,5.786-11.338,10.478-25.315,10.478
		c-13.981,0-25.315-4.689-25.315-10.478s11.334-10.476,25.315-10.476C56.813,144.144,68.15,148.831,68.15,154.618z"/>
	<g>
		<path d="M35.245,150.166c0.503-0.096,1.163-0.168,2.003-0.168c1.031,0,1.787,0.24,2.267,0.672c0.444,0.384,0.72,0.971,0.72,1.691
			c0,0.731-0.216,1.307-0.636,1.727c-0.552,0.587-1.451,0.888-2.471,0.888c-0.312,0-0.6-0.012-0.839-0.072v3.238h-1.043V150.166z
			 M36.288,154.051c0.228,0.06,0.527,0.084,0.863,0.084c1.271,0,2.027-0.624,2.027-1.715c0-1.08-0.755-1.595-1.907-1.595
			c-0.456,0-0.804,0.048-0.983,0.084V154.051z"/>
		<path d="M47.793,157.781c-0.468,0.18-1.403,0.444-2.495,0.444c-1.223,0-2.231-0.312-3.022-1.067
			c-0.696-0.672-1.127-1.751-1.127-3.01c0-2.411,1.667-4.174,4.378-4.174c0.935,0,1.679,0.204,2.027,0.372l-0.264,0.852
			c-0.432-0.204-0.971-0.348-1.787-0.348c-1.967,0-3.25,1.223-3.25,3.25c0,2.051,1.223,3.262,3.118,3.262
			c0.684,0,1.151-0.096,1.392-0.216v-2.411H45.13v-0.839h2.663V157.781z"/>
		<path d="M50.424,150.058v8.083h-1.056v-8.083H50.424z"/>
	</g>
</g>
<g>
	
		<radialGradient id="path16609_30_" cx="131.0752" cy="-273.0132" r="16.1855" gradientTransform="matrix(1.5933 0 0 0.6358 -140.6911 416.0022)" gradientUnits="userSpaceOnUse">
		<stop  offset="0" style="stop-color:#FFFCDF"/>
		<stop  offset="0.1203" style="stop-color:#FFFBDA"/>
		<stop  offset="0.2662" style="stop-color:#FFF9CB"/>
		<stop  offset="0.4255" style="stop-color:#FFF6B2"/>
		<stop  offset="0.5943" style="stop-color:#FFF090"/>
		<stop  offset="0.7706" style="stop-color:#FFEA64"/>
		<stop  offset="0.9506" style="stop-color:#FFE22F"/>
		<stop  offset="1" style="stop-color:#FFE01F"/>
	</radialGradient>
	<path id="path16609_5_" fill="url(#path16609_30_)" stroke="#000000" d="M93.466,242.42c0,5.786-11.338,10.477-25.316,10.477
		c-13.98,0-25.314-4.688-25.314-10.477s11.334-10.476,25.314-10.476C82.128,231.946,93.466,236.633,93.466,242.42z"/>
	<g>
		<path d="M59.858,237.858h4.354v0.876h-3.298v2.687h3.046v0.863h-3.046v3.658h-1.056V237.858z"/>
		<path d="M69.792,238.877c-0.216-0.012-0.492,0.013-0.792,0.061c-1.667,0.264-2.531,1.475-2.71,2.771h0.024
			c0.372-0.504,1.031-0.912,1.895-0.912c1.379,0,2.351,1.008,2.351,2.519c0,1.439-0.972,2.759-2.603,2.759
			c-1.655,0-2.747-1.295-2.747-3.322c0-1.535,0.54-2.746,1.319-3.526c0.647-0.635,1.511-1.031,2.495-1.15
			c0.312-0.049,0.576-0.061,0.768-0.061V238.877z M67.981,245.258c0.899,0,1.511-0.756,1.511-1.871s-0.636-1.787-1.607-1.787
			c-0.636,0-1.235,0.384-1.523,0.96c-0.06,0.12-0.108,0.264-0.108,0.455c0.012,1.283,0.612,2.243,1.715,2.243H67.981z"/>
		<path d="M71.87,237.966c0.503-0.096,1.163-0.168,2.003-0.168c1.031,0,1.787,0.24,2.267,0.672c0.444,0.384,0.72,0.972,0.72,1.69
			c0,0.732-0.216,1.308-0.636,1.728c-0.552,0.588-1.451,0.888-2.471,0.888c-0.312,0-0.6-0.013-0.839-0.072v3.238H71.87V237.966z
			 M72.914,241.852c0.228,0.061,0.527,0.084,0.863,0.084c1.271,0,2.027-0.624,2.027-1.715c0-1.079-0.755-1.596-1.907-1.596
			c-0.456,0-0.804,0.049-0.983,0.084V241.852z"/>
	</g>
</g>
<g>
	
		<radialGradient id="path16609_31_" cx="304.7139" cy="-549.6187" r="16.186" gradientTransform="matrix(1.5933 0 0 0.6358 -140.6911 416.0022)" gradientUnits="userSpaceOnUse">
		<stop  offset="0" style="stop-color:#FFFCDF"/>
		<stop  offset="0.1203" style="stop-color:#FFFBDA"/>
		<stop  offset="0.2662" style="stop-color:#FFF9CB"/>
		<stop  offset="0.4255" style="stop-color:#FFF6B2"/>
		<stop  offset="0.5943" style="stop-color:#FFF090"/>
		<stop  offset="0.7706" style="stop-color:#FFEA64"/>
		<stop  offset="0.9506" style="stop-color:#FFE22F"/>
		<stop  offset="1" style="stop-color:#FFE01F"/>
	</radialGradient>
	<path id="path16609_3_" fill="url(#path16609_31_)" stroke="#000000" d="M370.125,66.554c0,5.786-11.338,10.478-25.316,10.478
		c-13.98,0-25.314-4.689-25.314-10.478s11.334-10.476,25.314-10.476C358.787,56.08,370.125,60.767,370.125,66.554z"/>
	<g>
		<path d="M339.652,63.013c-0.216-0.012-0.492,0.012-0.792,0.06c-1.667,0.264-2.531,1.475-2.71,2.77h0.024
			c0.372-0.503,1.031-0.911,1.895-0.911c1.379,0,2.351,1.007,2.351,2.519c0,1.439-0.972,2.758-2.603,2.758
			c-1.655,0-2.747-1.295-2.747-3.322c0-1.535,0.54-2.746,1.319-3.526c0.647-0.636,1.511-1.031,2.495-1.151
			c0.312-0.048,0.576-0.06,0.768-0.06V63.013z M337.841,69.393c0.899,0,1.511-0.756,1.511-1.871s-0.636-1.787-1.607-1.787
			c-0.636,0-1.235,0.384-1.523,0.959c-0.06,0.12-0.108,0.264-0.108,0.456c0.012,1.283,0.612,2.243,1.715,2.243H337.841z"/>
		<path d="M341.73,62.101c0.503-0.096,1.163-0.168,2.003-0.168c1.031,0,1.787,0.24,2.267,0.672c0.444,0.384,0.72,0.971,0.72,1.691
			c0,0.731-0.216,1.307-0.636,1.727c-0.552,0.587-1.451,0.888-2.471,0.888c-0.312,0-0.6-0.012-0.839-0.072v3.238h-1.043V62.101z
			 M342.774,65.987c0.228,0.06,0.527,0.084,0.863,0.084c1.271,0,2.027-0.624,2.027-1.715c0-1.08-0.755-1.595-1.907-1.595
			c-0.456,0-0.804,0.048-0.983,0.084V65.987z"/>
		<path d="M354.279,69.717c-0.468,0.18-1.403,0.444-2.495,0.444c-1.224,0-2.231-0.312-3.022-1.067
			c-0.695-0.672-1.127-1.751-1.127-3.01c0-2.411,1.667-4.174,4.378-4.174c0.935,0,1.679,0.204,2.027,0.372l-0.264,0.852
			c-0.432-0.204-0.971-0.348-1.787-0.348c-1.967,0-3.25,1.223-3.25,3.25c0,2.051,1.223,3.262,3.118,3.262
			c0.684,0,1.151-0.096,1.391-0.216V66.67h-1.631v-0.839h2.663V69.717z"/>
	</g>
</g>
<g>
	
		<radialGradient id="path16609_32_" cx="478.4019" cy="-549.8843" r="16.186" gradientTransform="matrix(1.5933 0 0 0.6358 -140.6911 416.0022)" gradientUnits="userSpaceOnUse">
		<stop  offset="0" style="stop-color:#FFFCDF"/>
		<stop  offset="0.1203" style="stop-color:#FFFBDA"/>
		<stop  offset="0.2662" style="stop-color:#FFF9CB"/>
		<stop  offset="0.4255" style="stop-color:#FFF6B2"/>
		<stop  offset="0.5943" style="stop-color:#FFF090"/>
		<stop  offset="0.7706" style="stop-color:#FFEA64"/>
		<stop  offset="0.9506" style="stop-color:#FFE22F"/>
		<stop  offset="1" style="stop-color:#FFE01F"/>
	</radialGradient>
	<path id="path16609_4_" fill="url(#path16609_32_)" stroke="#000000" d="M646.862,66.385c0,5.786-11.338,10.478-25.316,10.478
		c-13.98,0-25.314-4.689-25.314-10.478s11.334-10.476,25.314-10.476C635.524,55.911,646.862,60.598,646.862,66.385z"/>
	<g>
		<path d="M609.659,61.944c0.529-0.108,1.297-0.18,2.004-0.18c1.115,0,1.848,0.216,2.35,0.672c0.396,0.348,0.637,0.899,0.637,1.535
			c0,1.055-0.684,1.763-1.523,2.051v0.036c0.611,0.216,0.984,0.792,1.188,1.631c0.264,1.127,0.455,1.907,0.611,2.219h-1.078
			c-0.133-0.228-0.313-0.923-0.529-1.931c-0.238-1.115-0.684-1.535-1.631-1.571h-0.982v3.502h-1.045V61.944z M610.704,65.614h1.066
			c1.115,0,1.824-0.612,1.824-1.535c0-1.043-0.756-1.5-1.859-1.5c-0.504,0-0.852,0.048-1.031,0.096V65.614z"/>
		<path d="M620.924,68.325c0,0.6,0.014,1.127,0.049,1.583h-0.936l-0.061-0.947h-0.023c-0.264,0.468-0.887,1.079-1.918,1.079
			c-0.912,0-2.004-0.516-2.004-2.542v-3.394h1.055v3.202c0,1.104,0.35,1.859,1.297,1.859c0.707,0,1.199-0.492,1.391-0.971
			c0.061-0.144,0.096-0.336,0.096-0.54v-3.55h1.055V68.325z"/>
		<path d="M626.999,63h-2.975l-0.301,1.979c0.18-0.024,0.348-0.048,0.637-0.048c0.611,0,1.199,0.132,1.678,0.419
			c0.613,0.336,1.115,1.02,1.115,2.027c0,1.523-1.211,2.663-2.902,2.663c-0.852,0-1.559-0.24-1.941-0.479l0.264-0.804
			c0.324,0.192,0.959,0.432,1.678,0.432c0.984,0,1.848-0.647,1.836-1.703c0-1.031-0.684-1.739-2.23-1.739
			c-0.457,0-0.805,0.036-1.092,0.084l0.504-3.718h3.73V63z"/>
		<path d="M628.872,61.932c0.504-0.096,1.164-0.168,2.004-0.168c1.031,0,1.787,0.24,2.268,0.672
			c0.443,0.384,0.719,0.971,0.719,1.691c0,0.731-0.217,1.307-0.637,1.727c-0.551,0.587-1.451,0.888-2.469,0.888
			c-0.313,0-0.602-0.012-0.84-0.072v3.238h-1.045V61.932z M629.917,65.818c0.227,0.06,0.527,0.084,0.863,0.084
			c1.271,0,2.027-0.624,2.027-1.715c0-1.08-0.756-1.595-1.908-1.595c-0.455,0-0.803,0.048-0.982,0.084V65.818z"/>
	</g>
</g>
<g>
	
		<radialGradient id="path16609_33_" cx="432.5327" cy="-411.4478" r="16.1858" gradientTransform="matrix(1.5933 0 0 0.6358 -140.6911 416.0022)" gradientUnits="userSpaceOnUse">
		<stop  offset="0" style="stop-color:#A2FF5F"/>
		<stop  offset="0.4082" style="stop-color:#A0FF5F"/>
		<stop  offset="0.5552" style="stop-color:#99FD5F"/>
		<stop  offset="0.66" style="stop-color:#8EFB5E"/>
		<stop  offset="0.7448" style="stop-color:#7DF85E"/>
		<stop  offset="0.8174" style="stop-color:#67F35D"/>
		<stop  offset="0.8817" style="stop-color:#4BEE5C"/>
		<stop  offset="0.9398" style="stop-color:#2BE85B"/>
		<stop  offset="0.9915" style="stop-color:#07E05A"/>
		<stop  offset="1" style="stop-color:#00DF5A"/>
	</radialGradient>
	<path id="path16609_23_" fill="url(#path16609_33_)" stroke="#000000" d="M573.778,154.403c0,5.786-11.338,10.478-25.316,10.478
		c-13.98,0-25.314-4.689-25.314-10.478s11.334-10.476,25.314-10.476C562.44,143.928,573.778,148.616,573.778,154.403z"/>
	<g>
		<path d="M533.624,149.962c0.529-0.108,1.297-0.18,2.004-0.18c1.115,0,1.848,0.216,2.35,0.672c0.396,0.348,0.637,0.899,0.637,1.535
			c0,1.055-0.684,1.763-1.523,2.051v0.036c0.611,0.216,0.984,0.792,1.188,1.631c0.264,1.127,0.455,1.907,0.611,2.219h-1.078
			c-0.133-0.228-0.313-0.923-0.529-1.931c-0.238-1.115-0.684-1.535-1.631-1.571h-0.982v3.502h-1.045V149.962z M534.668,153.633
			h1.066c1.115,0,1.824-0.612,1.824-1.535c0-1.043-0.756-1.5-1.859-1.5c-0.504,0-0.852,0.048-1.031,0.096V153.633z"/>
		<path d="M544.889,156.343c0,0.6,0.014,1.127,0.049,1.583h-0.936l-0.061-0.947h-0.023c-0.264,0.468-0.887,1.079-1.918,1.079
			c-0.912,0-2.004-0.516-2.004-2.542v-3.394h1.055v3.202c0,1.104,0.35,1.859,1.297,1.859c0.707,0,1.199-0.492,1.391-0.971
			c0.061-0.144,0.096-0.336,0.096-0.54v-3.55h1.055V156.343z"/>
		<path d="M550.963,151.018h-2.975l-0.301,1.979c0.18-0.024,0.348-0.048,0.637-0.048c0.611,0,1.199,0.132,1.678,0.419
			c0.613,0.336,1.115,1.02,1.115,2.027c0,1.523-1.211,2.663-2.902,2.663c-0.852,0-1.559-0.24-1.941-0.479l0.264-0.804
			c0.324,0.192,0.959,0.432,1.678,0.432c0.984,0,1.848-0.647,1.836-1.703c0-1.031-0.684-1.739-2.23-1.739
			c-0.457,0-0.805,0.036-1.092,0.084l0.504-3.718h3.73V151.018z"/>
		<path d="M552.836,149.951c0.504-0.096,1.164-0.168,2.004-0.168c1.031,0,1.787,0.24,2.268,0.672
			c0.443,0.384,0.719,0.971,0.719,1.691c0,0.731-0.217,1.307-0.637,1.727c-0.551,0.587-1.451,0.888-2.469,0.888
			c-0.313,0-0.602-0.012-0.84-0.072v3.238h-1.045V149.951z M553.881,153.836c0.227,0.06,0.527,0.084,0.863,0.084
			c1.271,0,2.027-0.624,2.027-1.715c0-1.08-0.756-1.595-1.908-1.595c-0.455,0-0.803,0.048-0.982,0.084V153.836z"/>
		<path d="M563.395,154.136h-3.131v2.915h3.502v0.875h-4.557v-8.083h4.377v0.875h-3.322v2.555h3.131V154.136z"/>
	</g>
</g>
<g>
	
		<radialGradient id="path16609_34_" cx="415.1274" cy="-273.0127" r="16.186" gradientTransform="matrix(1.5933 0 0 0.6358 -140.6911 416.0022)" gradientUnits="userSpaceOnUse">
		<stop  offset="0" style="stop-color:#FFFCDF"/>
		<stop  offset="0.1203" style="stop-color:#FFFBDA"/>
		<stop  offset="0.2662" style="stop-color:#FFF9CB"/>
		<stop  offset="0.4255" style="stop-color:#FFF6B2"/>
		<stop  offset="0.5943" style="stop-color:#FFF090"/>
		<stop  offset="0.7706" style="stop-color:#FFEA64"/>
		<stop  offset="0.9506" style="stop-color:#FFE22F"/>
		<stop  offset="1" style="stop-color:#FFE01F"/>
	</radialGradient>
	<path id="path16609_19_" fill="url(#path16609_34_)" stroke="#000000" d="M546.047,242.42c0,5.786-11.338,10.478-25.316,10.478
		c-13.98,0-25.314-4.69-25.314-10.478s11.334-10.476,25.314-10.476C534.709,231.945,546.047,236.633,546.047,242.42z"/>
	<g>
		<path d="M516.374,245.944l-1.043-1.787c-0.42-0.684-0.672-1.127-0.924-1.595h-0.024c-0.228,0.468-0.467,0.899-0.875,1.606
			l-0.972,1.775h-1.199l2.471-4.09l-2.375-3.994h1.212l1.067,1.896c0.3,0.527,0.527,0.936,0.743,1.367h0.036
			c0.228-0.479,0.432-0.852,0.731-1.367l1.092-1.896h1.211l-2.459,3.935l2.52,4.149H516.374z"/>
		<path d="M523.082,239.036h-2.975l-0.3,1.979c0.18-0.023,0.348-0.048,0.636-0.048c0.611,0,1.199,0.132,1.679,0.42
			c0.612,0.336,1.115,1.02,1.115,2.027c0,1.522-1.211,2.662-2.902,2.662c-0.852,0-1.559-0.24-1.942-0.479l0.264-0.804
			c0.324,0.192,0.959,0.432,1.679,0.432c0.983,0,1.848-0.647,1.835-1.703c0-1.031-0.684-1.739-2.23-1.739
			c-0.456,0-0.804,0.036-1.092,0.084l0.504-3.718h3.73V239.036z"/>
		<path d="M524.956,237.968c0.504-0.096,1.164-0.168,2.003-0.168c1.032,0,1.787,0.24,2.268,0.672
			c0.443,0.384,0.719,0.972,0.719,1.69c0,0.732-0.216,1.308-0.636,1.728c-0.551,0.588-1.451,0.888-2.47,0.888
			c-0.313,0-0.601-0.013-0.84-0.072v3.238h-1.044V237.968z M526,241.854c0.228,0.061,0.527,0.084,0.863,0.084
			c1.271,0,2.027-0.624,2.027-1.715c0-1.079-0.756-1.596-1.907-1.596c-0.456,0-0.804,0.049-0.983,0.084V241.854z"/>
	</g>
</g>
<g>
	
		<radialGradient id="path16609_35_" cx="304.7139" cy="-434.9702" r="16.1858" gradientTransform="matrix(1.5933 0 0 0.6358 -140.6911 416.0022)" gradientUnits="userSpaceOnUse">
		<stop  offset="0" style="stop-color:#FFFCDF"/>
		<stop  offset="0.1203" style="stop-color:#FFFBDA"/>
		<stop  offset="0.2662" style="stop-color:#FFF9CB"/>
		<stop  offset="0.4255" style="stop-color:#FFF6B2"/>
		<stop  offset="0.5943" style="stop-color:#FFF090"/>
		<stop  offset="0.7706" style="stop-color:#FFEA64"/>
		<stop  offset="0.9506" style="stop-color:#FFE22F"/>
		<stop  offset="1" style="stop-color:#FFE01F"/>
	</radialGradient>
	<path id="path16609_8_" fill="url(#path16609_35_)" stroke="#000000" d="M370.125,139.447c0,5.786-11.338,10.478-25.316,10.478
		c-13.98,0-25.314-4.689-25.314-10.478s11.334-10.476,25.314-10.476C358.787,128.973,370.125,133.66,370.125,139.447z"/>
	<g>
		<path d="M334.983,139.42c-0.06-1.127-0.132-2.495-0.132-3.49h-0.024c-0.288,0.936-0.612,1.955-1.02,3.07l-1.427,3.922h-0.792
			l-1.319-3.85c-0.384-1.151-0.695-2.183-0.923-3.142h-0.024c-0.024,1.007-0.084,2.351-0.156,3.574l-0.216,3.466h-0.995l0.563-8.083
			h1.332l1.379,3.91c0.336,0.996,0.6,1.883,0.815,2.723h0.024c0.216-0.815,0.503-1.703,0.863-2.723l1.439-3.91h1.331l0.504,8.083
			h-1.032L334.983,139.42z"/>
		<path d="M342.748,142.119c0,1.343-0.276,2.147-0.828,2.663c-0.576,0.516-1.391,0.696-2.123,0.696c-0.696,0-1.463-0.168-1.931-0.48
			l0.264-0.815c0.384,0.252,0.983,0.468,1.703,0.468c1.08,0,1.871-0.564,1.871-2.039v-0.636h-0.024
			c-0.312,0.54-0.948,0.972-1.847,0.972c-1.439,0-2.471-1.223-2.471-2.842c0-1.967,1.284-3.07,2.627-3.07
			c1.007,0,1.547,0.516,1.811,0.995h0.024l0.036-0.863h0.936c-0.036,0.408-0.048,0.875-0.048,1.583V142.119z M341.692,139.444
			c0-0.168-0.012-0.324-0.06-0.468c-0.192-0.624-0.696-1.127-1.476-1.127c-1.007,0-1.727,0.852-1.727,2.207
			c0,1.127,0.588,2.087,1.715,2.087c0.66,0,1.247-0.408,1.463-1.091c0.06-0.168,0.083-0.372,0.083-0.563V139.444z"/>
		<path d="M345.834,140.428l-0.839,2.542h-1.08l2.747-8.083h1.259l2.758,8.083h-1.115l-0.863-2.542H345.834z M348.484,139.612
			l-0.803-2.327c-0.168-0.527-0.288-1.007-0.408-1.475h-0.036c-0.108,0.468-0.24,0.972-0.396,1.463l-0.792,2.338H348.484z"/>
		<path d="M352.458,135.774H350v-0.887h5.985v0.887h-2.471v7.196h-1.055V135.774z"/>
		<path d="M356.887,134.995c0.503-0.096,1.163-0.168,2.003-0.168c1.031,0,1.787,0.24,2.267,0.672c0.444,0.384,0.72,0.971,0.72,1.691
			c0,0.731-0.216,1.307-0.636,1.727c-0.552,0.587-1.451,0.888-2.471,0.888c-0.312,0-0.6-0.012-0.839-0.072v3.238h-1.043V134.995z
			 M357.931,138.88c0.228,0.06,0.527,0.084,0.863,0.084c1.271,0,2.027-0.624,2.027-1.715c0-1.08-0.755-1.595-1.907-1.595
			c-0.456,0-0.804,0.048-0.983,0.084V138.88z"/>
	</g>
</g>
<g>
	
		<radialGradient id="path16609_36_" cx="206.6421" cy="-256.5347" r="16.1863" gradientTransform="matrix(1.5933 0 0 0.6358 -140.6911 416.0022)" gradientUnits="userSpaceOnUse">
		<stop  offset="0" style="stop-color:#A2FF5F"/>
		<stop  offset="0.4082" style="stop-color:#A0FF5F"/>
		<stop  offset="0.5552" style="stop-color:#99FD5F"/>
		<stop  offset="0.66" style="stop-color:#8EFB5E"/>
		<stop  offset="0.7448" style="stop-color:#7DF85E"/>
		<stop  offset="0.8174" style="stop-color:#67F35D"/>
		<stop  offset="0.8817" style="stop-color:#4BEE5C"/>
		<stop  offset="0.9398" style="stop-color:#2BE85B"/>
		<stop  offset="0.9915" style="stop-color:#07E05A"/>
		<stop  offset="1" style="stop-color:#00DF5A"/>
	</radialGradient>
	<path id="path16609_22_" fill="url(#path16609_36_)" stroke="#000000" d="M213.867,252.897c0,5.785-11.338,10.478-25.315,10.478
		c-13.981,0-25.315-4.69-25.315-10.478c0-5.789,11.334-10.476,25.315-10.476C202.529,242.422,213.867,247.11,213.867,252.897z"/>
	<g>
		<path d="M178.861,249.224h-2.459v-0.887h5.985v0.887h-2.471v7.196h-1.055V249.224z"/>
		<path d="M183.29,248.337h1.043v3.898h0.036c0.216-0.312,0.432-0.6,0.636-0.864l2.471-3.034h1.295l-2.926,3.43l3.154,4.653h-1.235
			l-2.651-3.97l-0.779,0.887v3.083h-1.043V248.337z"/>
		<path d="M189.781,248.337h1.056v7.208h3.454v0.876h-4.51V248.337z"/>
		<path d="M195.085,256.42v-0.647l0.828-0.804c1.991-1.896,2.902-2.902,2.902-4.078c0-0.792-0.372-1.523-1.535-1.523
			c-0.708,0-1.295,0.36-1.655,0.66l-0.336-0.744c0.528-0.444,1.307-0.792,2.207-0.792c1.667,0,2.375,1.151,2.375,2.267
			c0,1.439-1.043,2.604-2.687,4.186l-0.612,0.576v0.023h3.49v0.876H195.085z"/>
	</g>
</g>
<g>
	
		<radialGradient id="path16609_37_" cx="131.0254" cy="-51.3228" r="16.1858" gradientTransform="matrix(1.5933 0 0 0.6358 -140.6911 416.0022)" gradientUnits="userSpaceOnUse">
		<stop  offset="0" style="stop-color:#FFFCDF"/>
		<stop  offset="0.1203" style="stop-color:#FFFBDA"/>
		<stop  offset="0.2662" style="stop-color:#FFF9CB"/>
		<stop  offset="0.4255" style="stop-color:#FFF6B2"/>
		<stop  offset="0.5943" style="stop-color:#FFF090"/>
		<stop  offset="0.7706" style="stop-color:#FFEA64"/>
		<stop  offset="0.9506" style="stop-color:#FFE22F"/>
		<stop  offset="1" style="stop-color:#FFE01F"/>
	</radialGradient>
	<path id="path16609_6_" fill="url(#path16609_37_)" stroke="#000000" d="M93.387,383.371c0,5.786-11.338,10.478-25.316,10.478
		c-13.98,0-25.314-4.689-25.314-10.478s11.334-10.476,25.314-10.476C82.049,372.896,93.387,377.583,93.387,383.371z"/>
	<g>
		<path d="M64.408,386.534c-0.468,0.18-1.403,0.443-2.495,0.443c-1.224,0-2.231-0.312-3.022-1.067
			c-0.695-0.672-1.127-1.751-1.127-3.011c0-2.41,1.667-4.174,4.378-4.174c0.935,0,1.679,0.204,2.027,0.372l-0.264,0.852
			c-0.432-0.204-0.971-0.348-1.787-0.348c-1.967,0-3.25,1.224-3.25,3.25c0,2.051,1.223,3.263,3.118,3.263
			c0.684,0,1.151-0.097,1.391-0.216v-2.411h-1.631v-0.84h2.663V386.534z"/>
		<path d="M67.302,384.35l-0.839,2.543h-1.08l2.747-8.084h1.259l2.758,8.084h-1.115l-0.863-2.543H67.302z M69.953,383.535
			l-0.803-2.326c-0.168-0.528-0.288-1.008-0.408-1.476h-0.036c-0.108,0.468-0.24,0.972-0.396,1.463l-0.792,2.339H69.953z"/>
		<path d="M73.339,378.917c0.503-0.096,1.163-0.168,2.003-0.168c1.031,0,1.787,0.24,2.267,0.672c0.444,0.384,0.72,0.972,0.72,1.69
			c0,0.732-0.216,1.308-0.636,1.728c-0.552,0.588-1.451,0.888-2.471,0.888c-0.312,0-0.6-0.013-0.839-0.072v3.238h-1.043V378.917z
			 M74.383,382.803c0.228,0.06,0.527,0.084,0.863,0.084c1.271,0,2.027-0.624,2.027-1.715c0-1.079-0.755-1.596-1.907-1.596
			c-0.456,0-0.804,0.049-0.983,0.084V382.803z"/>
	</g>
</g>
<g>
	
		<radialGradient id="path16609_38_" cx="209.4038" cy="-155.7212" r="16.1858" gradientTransform="matrix(1.5933 0 0 0.6358 -140.6911 416.0022)" gradientUnits="userSpaceOnUse">
		<stop  offset="0" style="stop-color:#A2FF5F"/>
		<stop  offset="0.4082" style="stop-color:#A0FF5F"/>
		<stop  offset="0.5552" style="stop-color:#99FD5F"/>
		<stop  offset="0.66" style="stop-color:#8EFB5E"/>
		<stop  offset="0.7448" style="stop-color:#7DF85E"/>
		<stop  offset="0.8174" style="stop-color:#67F35D"/>
		<stop  offset="0.8817" style="stop-color:#4BEE5C"/>
		<stop  offset="0.9398" style="stop-color:#2BE85B"/>
		<stop  offset="0.9915" style="stop-color:#07E05A"/>
		<stop  offset="1" style="stop-color:#00DF5A"/>
	</radialGradient>
	<path id="path16609_25_" fill="url(#path16609_38_)" stroke="#000000" d="M218.268,316.994c0,5.786-11.338,10.478-25.315,10.478
		c-13.981,0-25.315-4.689-25.315-10.478s11.334-10.476,25.315-10.476C206.93,306.519,218.268,311.207,218.268,316.994z"/>
	<g>
		<path d="M186.369,313.321h-2.459v-0.888h5.985v0.888h-2.471v7.196h-1.055V313.321z"/>
		<path d="M191.205,317.974l-0.839,2.543h-1.08l2.747-8.084h1.259l2.758,8.084h-1.115l-0.864-2.543H191.205z M193.855,317.159
			l-0.803-2.326c-0.168-0.528-0.288-1.008-0.408-1.476h-0.036c-0.108,0.468-0.24,0.972-0.396,1.463l-0.792,2.339H193.855z"/>
		<path d="M197.229,312.433h1.056v7.208h3.454v0.876h-4.51V312.433z"/>
	</g>
</g>
<g>
	
		<radialGradient id="path16609_39_" cx="273.4839" cy="-206.6558" r="16.1858" gradientTransform="matrix(1.5933 0 0 0.6358 -140.6911 416.0022)" gradientUnits="userSpaceOnUse">
		<stop  offset="0" style="stop-color:#FFFCDF"/>
		<stop  offset="0.1203" style="stop-color:#FFFBDA"/>
		<stop  offset="0.2662" style="stop-color:#FFF9CB"/>
		<stop  offset="0.4255" style="stop-color:#FFF6B2"/>
		<stop  offset="0.5943" style="stop-color:#FFF090"/>
		<stop  offset="0.7706" style="stop-color:#FFEA64"/>
		<stop  offset="0.9506" style="stop-color:#FFE22F"/>
		<stop  offset="1" style="stop-color:#FFE01F"/>
	</radialGradient>
	<path id="path16609_7_" fill="url(#path16609_39_)" stroke="#000000" d="M320.366,284.61c0,5.786-11.338,10.478-25.316,10.478
		c-13.98,0-25.314-4.689-25.314-10.478s11.334-10.476,25.314-10.476C309.028,274.135,320.366,278.823,320.366,284.61z"/>
	<g>
		<path d="M290.914,284.342h-3.13v2.914h3.502v0.876h-4.558v-8.084h4.377v0.876h-3.322v2.555h3.13V284.342z"/>
		<path d="M295.534,288.132v-2.123h-3.622v-0.684l3.479-4.989h1.139v4.857h1.091v0.815h-1.091v2.123H295.534z M295.534,285.194
			v-2.614c0-0.408,0.012-0.815,0.036-1.224h-0.036c-0.24,0.456-0.432,0.792-0.647,1.163l-1.907,2.651v0.023H295.534z"/>
		<path d="M298.799,280.157c0.503-0.096,1.163-0.168,2.003-0.168c1.031,0,1.787,0.24,2.267,0.672c0.444,0.384,0.72,0.972,0.72,1.69
			c0,0.732-0.216,1.308-0.636,1.728c-0.552,0.588-1.451,0.888-2.471,0.888c-0.312,0-0.6-0.013-0.839-0.072v3.238h-1.043V280.157z
			 M299.843,284.042c0.228,0.06,0.527,0.084,0.863,0.084c1.271,0,2.027-0.624,2.027-1.715c0-1.079-0.755-1.596-1.907-1.596
			c-0.456,0-0.804,0.049-0.983,0.084V284.042z"/>
	</g>
</g>
<g>
	
		<radialGradient id="path16609_40_" cx="257.521" cy="-13.2534" r="16.1858" gradientTransform="matrix(1.5933 0 0 0.6358 -140.6911 416.0022)" gradientUnits="userSpaceOnUse">
		<stop  offset="0" style="stop-color:#A2FF5F"/>
		<stop  offset="0.4082" style="stop-color:#A0FF5F"/>
		<stop  offset="0.5552" style="stop-color:#99FD5F"/>
		<stop  offset="0.66" style="stop-color:#8EFB5E"/>
		<stop  offset="0.7448" style="stop-color:#7DF85E"/>
		<stop  offset="0.8174" style="stop-color:#67F35D"/>
		<stop  offset="0.8817" style="stop-color:#4BEE5C"/>
		<stop  offset="0.9398" style="stop-color:#2BE85B"/>
		<stop  offset="0.9915" style="stop-color:#07E05A"/>
		<stop  offset="1" style="stop-color:#00DF5A"/>
	</radialGradient>
	<path id="path16609_26_" fill="url(#path16609_40_)" stroke="#000000" d="M294.932,407.575c0,5.786-11.338,10.478-25.315,10.478
		c-13.981,0-25.315-4.689-25.315-10.478s11.334-10.476,25.315-10.476C283.594,397.1,294.932,401.788,294.932,407.575z"/>
	<g>
		<path d="M252.505,403.123c0.503-0.096,1.163-0.168,2.003-0.168c1.031,0,1.787,0.24,2.267,0.672c0.444,0.384,0.72,0.972,0.72,1.69
			c0,0.732-0.216,1.308-0.636,1.728c-0.552,0.588-1.451,0.888-2.471,0.888c-0.312,0-0.6-0.013-0.839-0.072v3.238h-1.043V403.123z
			 M253.548,407.008c0.228,0.06,0.527,0.084,0.863,0.084c1.271,0,2.027-0.624,2.027-1.715c0-1.079-0.755-1.596-1.907-1.596
			c-0.456,0-0.804,0.049-0.983,0.084V407.008z"/>
		<path d="M258.889,403.014h1.043v3.898h0.036c0.216-0.312,0.432-0.6,0.636-0.863l2.471-3.035h1.295l-2.926,3.431l3.154,4.653
			h-1.235l-2.651-3.97l-0.779,0.888v3.082h-1.043V403.014z"/>
		<path d="M265.38,403.123c0.648-0.096,1.403-0.168,2.231-0.168c1.499,0,2.566,0.336,3.274,0.995
			c0.732,0.66,1.151,1.607,1.151,2.915c0,1.319-0.419,2.398-1.163,3.142c-0.768,0.756-2.015,1.164-3.586,1.164
			c-0.756,0-1.367-0.024-1.907-0.097V403.123z M266.436,410.283c0.264,0.048,0.647,0.048,1.055,0.048
			c2.231,0.012,3.442-1.247,3.442-3.43c0.012-1.932-1.067-3.119-3.274-3.119c-0.54,0-0.947,0.049-1.223,0.108V410.283z"/>
		<path d="M274.428,403.014v3.383h3.91v-3.383h1.056v8.084h-1.056v-3.79h-3.91v3.79h-1.056v-8.084H274.428z"/>
		<path d="M282.515,408.555l-0.839,2.543h-1.08l2.747-8.084h1.259l2.758,8.084h-1.115l-0.864-2.543H282.515z M285.166,407.74
			l-0.803-2.326c-0.168-0.528-0.288-1.008-0.408-1.476h-0.036c-0.108,0.468-0.24,0.972-0.396,1.463l-0.792,2.339H285.166z"/>
	</g>
</g>
<g>
	
		<radialGradient id="path16609_41_" cx="217.5459" cy="95.9761" r="16.1858" gradientTransform="matrix(1.5933 0 0 0.6358 -140.6911 416.0022)" gradientUnits="userSpaceOnUse">
		<stop  offset="0" style="stop-color:#FFFCDF"/>
		<stop  offset="0.1203" style="stop-color:#FFFBDA"/>
		<stop  offset="0.2662" style="stop-color:#FFF9CB"/>
		<stop  offset="0.4255" style="stop-color:#FFF6B2"/>
		<stop  offset="0.5943" style="stop-color:#FFF090"/>
		<stop  offset="0.7706" style="stop-color:#FFEA64"/>
		<stop  offset="0.9506" style="stop-color:#FFE22F"/>
		<stop  offset="1" style="stop-color:#FFE01F"/>
	</radialGradient>
	<path id="path16609_12_" fill="url(#path16609_41_)" stroke="#000000" d="M231.24,477.023c0,5.786-11.338,10.478-25.316,10.478
		c-13.98,0-25.314-4.689-25.314-10.478s11.334-10.476,25.314-10.476C219.902,466.548,231.24,471.236,231.24,477.023z"/>
	<g>
		<path d="M198.976,473.349h-2.459v-0.888h5.985v0.888h-2.471v7.196h-1.055V473.349z"/>
		<path d="M203.404,472.582c0.527-0.107,1.295-0.18,2.003-0.18c1.115,0,1.847,0.216,2.351,0.672
			c0.396,0.348,0.636,0.899,0.636,1.535c0,1.056-0.684,1.763-1.523,2.051v0.036c0.612,0.216,0.983,0.791,1.188,1.631
			c0.264,1.127,0.456,1.907,0.612,2.219h-1.08c-0.132-0.228-0.312-0.924-0.528-1.931c-0.24-1.115-0.684-1.535-1.631-1.571h-0.983
			v3.502h-1.043V472.582z M204.448,476.251h1.067c1.115,0,1.823-0.611,1.823-1.535c0-1.043-0.755-1.499-1.859-1.499
			c-0.504,0-0.852,0.048-1.031,0.096V476.251z"/>
		<path d="M209.86,472.57c0.503-0.096,1.163-0.168,2.003-0.168c1.031,0,1.787,0.24,2.267,0.672c0.444,0.384,0.72,0.972,0.72,1.69
			c0,0.732-0.216,1.308-0.636,1.728c-0.552,0.588-1.451,0.888-2.471,0.888c-0.312,0-0.6-0.013-0.839-0.072v3.238h-1.043V472.57z
			 M210.904,476.456c0.228,0.06,0.527,0.084,0.863,0.084c1.271,0,2.027-0.624,2.027-1.715c0-1.079-0.755-1.596-1.907-1.596
			c-0.456,0-0.804,0.049-0.983,0.084V476.456z"/>
	</g>
</g>
<g>
	
		<radialGradient id="path16609_42_" cx="273.4209" cy="95.9761" r="16.1858" gradientTransform="matrix(1.5933 0 0 0.6358 -140.6911 416.0022)" gradientUnits="userSpaceOnUse">
		<stop  offset="0" style="stop-color:#FFFCDF"/>
		<stop  offset="0.1203" style="stop-color:#FFFBDA"/>
		<stop  offset="0.2662" style="stop-color:#FFF9CB"/>
		<stop  offset="0.4255" style="stop-color:#FFF6B2"/>
		<stop  offset="0.5943" style="stop-color:#FFF090"/>
		<stop  offset="0.7706" style="stop-color:#FFEA64"/>
		<stop  offset="0.9506" style="stop-color:#FFE22F"/>
		<stop  offset="1" style="stop-color:#FFE01F"/>
	</radialGradient>
	<path id="path16609_13_" fill="url(#path16609_42_)" stroke="#000000" d="M320.266,477.023c0,5.786-11.338,10.478-25.316,10.478
		c-13.98,0-25.314-4.689-25.314-10.478s11.334-10.476,25.314-10.476C308.928,466.548,320.266,471.236,320.266,477.023z"/>
	<g>
		<path d="M285.806,472.57c0.503-0.096,1.163-0.168,2.003-0.168c1.031,0,1.787,0.24,2.267,0.672c0.444,0.384,0.72,0.972,0.72,1.69
			c0,0.732-0.216,1.308-0.636,1.728c-0.552,0.588-1.451,0.888-2.471,0.888c-0.312,0-0.6-0.013-0.839-0.072v3.238h-1.043V472.57z
			 M286.85,476.456c0.228,0.06,0.527,0.084,0.863,0.084c1.271,0,2.027-0.624,2.027-1.715c0-1.079-0.755-1.596-1.907-1.596
			c-0.456,0-0.804,0.049-0.983,0.084V476.456z"/>
		<path d="M293.233,472.461v3.383h3.91v-3.383h1.056v8.084h-1.056v-3.79h-3.91v3.79h-1.056v-8.084H293.233z"/>
		<path d="M304.187,476.755h-3.13v2.914h3.502v0.876h-4.558v-8.084h4.378v0.876h-3.322v2.555h3.13V476.755z"/>
	</g>
</g>
<g>
	
		<radialGradient id="path16609_43_" cx="329.2954" cy="94.4028" r="16.1858" gradientTransform="matrix(1.5933 0 0 0.6358 -140.6911 416.0022)" gradientUnits="userSpaceOnUse">
		<stop  offset="0" style="stop-color:#FFFCDF"/>
		<stop  offset="0.1203" style="stop-color:#FFFBDA"/>
		<stop  offset="0.2662" style="stop-color:#FFF9CB"/>
		<stop  offset="0.4255" style="stop-color:#FFF6B2"/>
		<stop  offset="0.5943" style="stop-color:#FFF090"/>
		<stop  offset="0.7706" style="stop-color:#FFEA64"/>
		<stop  offset="0.9506" style="stop-color:#FFE22F"/>
		<stop  offset="1" style="stop-color:#FFE01F"/>
	</radialGradient>
	<path id="path16609_14_" fill="url(#path16609_43_)" stroke="#000000" d="M409.291,476.023c0,5.786-11.338,10.478-25.316,10.478
		c-13.98,0-25.314-4.689-25.314-10.478s11.333-10.476,25.314-10.476C397.953,465.548,409.291,470.236,409.291,476.023z"/>
	<g>
		<path d="M376.75,472.349h-2.458v-0.888h5.984v0.888h-2.471v7.196h-1.056V472.349z"/>
		<path d="M383.421,479.545v-3.43l-2.567-4.654h1.2l1.139,2.231c0.3,0.611,0.552,1.104,0.804,1.667h0.024
			c0.216-0.528,0.503-1.056,0.815-1.667l1.163-2.231h1.176l-2.699,4.642v3.442H383.421z"/>
		<path d="M388.114,471.582c0.528-0.107,1.296-0.18,2.003-0.18c1.115,0,1.848,0.216,2.351,0.672
			c0.396,0.348,0.636,0.899,0.636,1.535c0,1.056-0.684,1.763-1.522,2.051v0.036c0.611,0.216,0.983,0.791,1.187,1.631
			c0.265,1.127,0.456,1.907,0.612,2.219H392.3c-0.133-0.228-0.313-0.924-0.528-1.931c-0.239-1.115-0.684-1.535-1.631-1.571h-0.983
			v3.502h-1.044V471.582z M389.158,475.251h1.067c1.115,0,1.823-0.611,1.823-1.535c0-1.043-0.756-1.499-1.859-1.499
			c-0.504,0-0.852,0.048-1.031,0.096V475.251z"/>
	</g>
</g>
<g>
	
		<radialGradient id="path16609_44_" cx="359.584" cy="-67.8013" r="16.1855" gradientTransform="matrix(1.5933 0 0 0.6358 -140.6911 416.0022)" gradientUnits="userSpaceOnUse">
		<stop  offset="0" style="stop-color:#A2FF5F"/>
		<stop  offset="0.4082" style="stop-color:#A0FF5F"/>
		<stop  offset="0.5552" style="stop-color:#99FD5F"/>
		<stop  offset="0.66" style="stop-color:#8EFB5E"/>
		<stop  offset="0.7448" style="stop-color:#7DF85E"/>
		<stop  offset="0.8174" style="stop-color:#67F35D"/>
		<stop  offset="0.8817" style="stop-color:#4BEE5C"/>
		<stop  offset="0.9398" style="stop-color:#2BE85B"/>
		<stop  offset="0.9915" style="stop-color:#07E05A"/>
		<stop  offset="1" style="stop-color:#00DF5A"/>
	</radialGradient>
	<path id="path16609_24_" fill="url(#path16609_44_)" stroke="#000000" d="M457.548,372.893c0,5.786-11.338,10.478-25.314,10.478
		c-13.98,0-25.314-4.689-25.314-10.478s11.334-10.476,25.314-10.476C446.21,362.418,457.548,367.106,457.548,372.893z"/>
	<g>
		<path d="M422.543,369.22h-2.459v-0.888h5.984v0.888h-2.471v7.196h-1.055V369.22z"/>
		<path d="M426.971,368.333h1.045v3.898h0.035c0.217-0.312,0.432-0.6,0.637-0.863l2.471-3.035h1.295l-2.928,3.431l3.154,4.653
			h-1.234l-2.65-3.97l-0.779,0.888v3.082h-1.045V368.333z"/>
		<path d="M433.463,368.333h1.057v7.208h3.453v0.876h-4.51V368.333z"/>
		<path d="M441.059,369.604h-0.023l-1.355,0.731l-0.205-0.803l1.703-0.912h0.9v7.796h-1.02V369.604z"/>
	</g>
</g>
<g>
	
		<radialGradient id="path16609_45_" cx="313.9438" cy="-109.5337" r="16.1858" gradientTransform="matrix(1.5933 0 0 0.6358 -140.6911 416.0022)" gradientUnits="userSpaceOnUse">
		<stop  offset="0" style="stop-color:#FFFCDF"/>
		<stop  offset="0.1203" style="stop-color:#FFFBDA"/>
		<stop  offset="0.2662" style="stop-color:#FFF9CB"/>
		<stop  offset="0.4255" style="stop-color:#FFF6B2"/>
		<stop  offset="0.5943" style="stop-color:#FFF090"/>
		<stop  offset="0.7706" style="stop-color:#FFEA64"/>
		<stop  offset="0.9506" style="stop-color:#FFE22F"/>
		<stop  offset="1" style="stop-color:#FFE01F"/>
	</radialGradient>
	<path id="path16609_9_" fill="url(#path16609_45_)" stroke="#000000" d="M384.831,346.36c0,5.786-11.338,10.478-25.316,10.478
		c-13.98,0-25.314-4.689-25.314-10.478s11.334-10.476,25.314-10.476C373.493,335.885,384.831,340.573,384.831,346.36z"/>
	<g>
		<path d="M351.067,348.611c0.468,0.3,1.14,0.528,1.859,0.528c1.067,0,1.691-0.552,1.691-1.38c0-0.743-0.433-1.188-1.523-1.595
			c-1.319-0.479-2.135-1.176-2.135-2.303c0-1.26,1.043-2.195,2.614-2.195c0.815,0,1.428,0.192,1.775,0.396l-0.288,0.852
			c-0.252-0.156-0.792-0.384-1.523-0.384c-1.104,0-1.523,0.659-1.523,1.211c0,0.756,0.492,1.127,1.607,1.56
			c1.367,0.539,2.051,1.187,2.051,2.374c0,1.247-0.911,2.339-2.818,2.339c-0.779,0-1.631-0.24-2.063-0.527L351.067,348.611z"/>
		<path d="M361.804,342.086v0.695l-3.394,7.101h-1.08l3.37-6.896v-0.023h-3.813v-0.876H361.804z"/>
		<path d="M363.271,341.907c0.504-0.096,1.164-0.168,2.003-0.168c1.032,0,1.787,0.24,2.268,0.672
			c0.443,0.384,0.719,0.972,0.719,1.69c0,0.732-0.216,1.308-0.636,1.728c-0.551,0.588-1.451,0.888-2.47,0.888
			c-0.313,0-0.601-0.013-0.84-0.072v3.238h-1.044V341.907z M364.315,345.792c0.228,0.06,0.527,0.084,0.863,0.084
			c1.271,0,2.027-0.624,2.027-1.715c0-1.079-0.756-1.596-1.907-1.596c-0.456,0-0.804,0.049-0.983,0.084V345.792z"/>
	</g>
</g>
<g>
	
		<radialGradient id="path16609_46_" cx="415.2153" cy="-51.353" r="16.1858" gradientTransform="matrix(1.5933 0 0 0.6358 -140.6911 416.0022)" gradientUnits="userSpaceOnUse">
		<stop  offset="0" style="stop-color:#FFFCDF"/>
		<stop  offset="0.1203" style="stop-color:#FFFBDA"/>
		<stop  offset="0.2662" style="stop-color:#FFF9CB"/>
		<stop  offset="0.4255" style="stop-color:#FFF6B2"/>
		<stop  offset="0.5943" style="stop-color:#FFF090"/>
		<stop  offset="0.7706" style="stop-color:#FFEA64"/>
		<stop  offset="0.9506" style="stop-color:#FFE22F"/>
		<stop  offset="1" style="stop-color:#FFE01F"/>
	</radialGradient>
	<path id="path16609_10_" fill="url(#path16609_46_)" stroke="#000000" d="M546.187,383.351c0,5.786-11.338,10.478-25.316,10.478
		c-13.98,0-25.314-4.689-25.314-10.478s11.334-10.476,25.314-10.476C534.849,372.876,546.187,377.564,546.187,383.351z"/>
	<g>
		<path d="M512.285,378.911c0.528-0.107,1.296-0.18,2.003-0.18c1.115,0,1.848,0.216,2.351,0.672
			c0.396,0.348,0.636,0.899,0.636,1.535c0,1.056-0.684,1.763-1.522,2.051v0.036c0.611,0.216,0.983,0.791,1.187,1.631
			c0.265,1.127,0.456,1.907,0.612,2.219h-1.079c-0.133-0.228-0.313-0.924-0.528-1.931c-0.239-1.115-0.684-1.535-1.631-1.571h-0.983
			v3.502h-1.044V378.911z M513.329,382.581h1.067c1.115,0,1.823-0.611,1.823-1.535c0-1.043-0.756-1.499-1.859-1.499
			c-0.504,0-0.852,0.048-1.031,0.096V382.581z"/>
		<path d="M523.023,379.966h-2.975l-0.3,1.979c0.18-0.023,0.348-0.048,0.636-0.048c0.611,0,1.199,0.132,1.679,0.42
			c0.612,0.336,1.115,1.02,1.115,2.027c0,1.522-1.211,2.662-2.902,2.662c-0.852,0-1.559-0.24-1.942-0.479l0.264-0.804
			c0.324,0.191,0.96,0.432,1.679,0.432c0.983,0,1.848-0.647,1.835-1.703c0-1.031-0.684-1.739-2.23-1.739
			c-0.456,0-0.804,0.036-1.091,0.084l0.503-3.718h3.73V379.966z"/>
		<path d="M524.897,378.899c0.504-0.096,1.164-0.168,2.003-0.168c1.032,0,1.787,0.24,2.267,0.672c0.444,0.384,0.72,0.972,0.72,1.69
			c0,0.732-0.216,1.308-0.636,1.728c-0.551,0.588-1.451,0.888-2.47,0.888c-0.313,0-0.601-0.013-0.84-0.072v3.238h-1.044V378.899z
			 M525.941,382.785c0.228,0.06,0.527,0.084,0.863,0.084c1.271,0,2.027-0.624,2.027-1.715c0-1.079-0.756-1.596-1.907-1.596
			c-0.456,0-0.804,0.049-0.983,0.084V382.785z"/>
	</g>
</g>
<g>
	
		<radialGradient id="path16609_47_" cx="399.438" cy="24.0151" r="16.1853" gradientTransform="matrix(1.5933 0 0 0.6358 -140.6911 416.0022)" gradientUnits="userSpaceOnUse">
		<stop  offset="0" style="stop-color:#A2FF5F"/>
		<stop  offset="0.4082" style="stop-color:#A0FF5F"/>
		<stop  offset="0.5552" style="stop-color:#99FD5F"/>
		<stop  offset="0.66" style="stop-color:#8EFB5E"/>
		<stop  offset="0.7448" style="stop-color:#7DF85E"/>
		<stop  offset="0.8174" style="stop-color:#67F35D"/>
		<stop  offset="0.8817" style="stop-color:#4BEE5C"/>
		<stop  offset="0.9398" style="stop-color:#2BE85B"/>
		<stop  offset="0.9915" style="stop-color:#07E05A"/>
		<stop  offset="1" style="stop-color:#00DF5A"/>
	</radialGradient>
	<path id="path16609_27_" fill="url(#path16609_47_)" stroke="#000000" d="M521.047,431.27c0,5.786-11.338,10.478-25.315,10.478
		c-13.98,0-25.314-4.689-25.314-10.478s11.334-10.476,25.314-10.476C509.709,420.795,521.047,425.483,521.047,431.27z"/>
	<g>
		<path d="M483.719,426.829c0.528-0.107,1.296-0.18,2.003-0.18c1.115,0,1.848,0.216,2.351,0.672
			c0.396,0.348,0.636,0.899,0.636,1.535c0,1.056-0.684,1.763-1.522,2.051v0.036c0.611,0.216,0.983,0.791,1.187,1.631
			c0.265,1.127,0.456,1.907,0.612,2.219h-1.079c-0.133-0.228-0.313-0.924-0.528-1.931c-0.239-1.115-0.684-1.535-1.631-1.571h-0.983
			v3.502h-1.044V426.829z M484.763,430.499h1.067c1.115,0,1.823-0.611,1.823-1.535c0-1.043-0.756-1.499-1.859-1.499
			c-0.504,0-0.852,0.048-1.031,0.096V430.499z"/>
		<path d="M490.175,426.817c0.504-0.096,1.164-0.168,2.003-0.168c1.032,0,1.787,0.24,2.267,0.672c0.444,0.384,0.72,0.972,0.72,1.69
			c0,0.732-0.216,1.308-0.636,1.728c-0.551,0.588-1.451,0.888-2.47,0.888c-0.313,0-0.601-0.013-0.84-0.072v3.238h-1.044V426.817z
			 M491.219,430.703c0.228,0.06,0.527,0.084,0.863,0.084c1.271,0,2.027-0.624,2.027-1.715c0-1.079-0.756-1.596-1.907-1.596
			c-0.456,0-0.804,0.049-0.983,0.084V430.703z"/>
		<path d="M496.559,426.817c0.504-0.096,1.164-0.168,2.003-0.168c1.032,0,1.787,0.24,2.268,0.672
			c0.443,0.384,0.719,0.972,0.719,1.69c0,0.732-0.216,1.308-0.636,1.728c-0.551,0.588-1.451,0.888-2.47,0.888
			c-0.313,0-0.601-0.013-0.84-0.072v3.238h-1.044V426.817z M497.603,430.703c0.228,0.06,0.527,0.084,0.863,0.084
			c1.271,0,2.027-0.624,2.027-1.715c0-1.079-0.756-1.596-1.907-1.596c-0.456,0-0.804,0.049-0.983,0.084V430.703z"/>
		<path d="M502.943,426.708h1.044v3.898h0.036c0.216-0.312,0.432-0.6,0.636-0.863l2.471-3.035h1.295l-2.927,3.431l3.154,4.653
			h-1.235l-2.65-3.97l-0.779,0.888v3.082h-1.044V426.708z"/>
	</g>
</g>
<g>
	
		<radialGradient id="path16609_48_" cx="415.2153" cy="99.3823" r="16.186" gradientTransform="matrix(1.5933 0 0 0.6358 -140.6911 416.0022)" gradientUnits="userSpaceOnUse">
		<stop  offset="0" style="stop-color:#FFFCDF"/>
		<stop  offset="0.1203" style="stop-color:#FFFBDA"/>
		<stop  offset="0.2662" style="stop-color:#FFF9CB"/>
		<stop  offset="0.4255" style="stop-color:#FFF6B2"/>
		<stop  offset="0.5943" style="stop-color:#FFF090"/>
		<stop  offset="0.7706" style="stop-color:#FFEA64"/>
		<stop  offset="0.9506" style="stop-color:#FFE22F"/>
		<stop  offset="1" style="stop-color:#FFE01F"/>
	</radialGradient>
	<path id="path16609_11_" fill="url(#path16609_48_)" stroke="#000000" d="M546.187,479.189c0,5.786-11.338,10.478-25.316,10.478
		c-13.98,0-25.314-4.689-25.314-10.478s11.334-10.476,25.314-10.476C534.849,468.714,546.187,473.402,546.187,479.189z"/>
	<g>
		<path d="M508.979,474.737c0.504-0.096,1.164-0.168,2.002-0.168c1.033,0,1.787,0.24,2.268,0.672
			c0.443,0.384,0.719,0.972,0.719,1.69c0,0.732-0.215,1.308-0.635,1.728c-0.551,0.588-1.451,0.888-2.471,0.888
			c-0.313,0-0.6-0.013-0.84-0.072v3.238h-1.043V474.737z M510.022,478.623c0.229,0.061,0.527,0.084,0.863,0.084
			c1.271,0,2.027-0.624,2.027-1.715c0-1.079-0.756-1.596-1.906-1.596c-0.457,0-0.805,0.049-0.984,0.084V478.623z"/>
		<path d="M515.362,474.749c0.529-0.107,1.297-0.18,2.004-0.18c1.115,0,1.848,0.216,2.35,0.672c0.396,0.348,0.637,0.899,0.637,1.535
			c0,1.056-0.684,1.763-1.523,2.051v0.036c0.611,0.216,0.984,0.791,1.188,1.631c0.264,1.127,0.455,1.907,0.611,2.219h-1.078
			c-0.133-0.228-0.313-0.924-0.529-1.931c-0.238-1.115-0.684-1.535-1.631-1.571h-0.982v3.502h-1.045V474.749z M516.407,478.418
			h1.066c1.115,0,1.824-0.611,1.824-1.535c0-1.043-0.756-1.499-1.859-1.499c-0.504,0-0.852,0.048-1.031,0.096V478.418z"/>
		<path d="M521.819,474.737c0.504-0.096,1.164-0.168,2.002-0.168c1.033,0,1.787,0.24,2.268,0.672
			c0.443,0.384,0.719,0.972,0.719,1.69c0,0.732-0.215,1.308-0.635,1.728c-0.551,0.588-1.451,0.888-2.471,0.888
			c-0.313,0-0.6-0.013-0.84-0.072v3.238h-1.043V474.737z M522.862,478.623c0.229,0.061,0.527,0.084,0.863,0.084
			c1.271,0,2.027-0.624,2.027-1.715c0-1.079-0.756-1.596-1.906-1.596c-0.457,0-0.805,0.049-0.984,0.084V478.623z"/>
		<path d="M528.202,474.737c0.504-0.096,1.164-0.168,2.004-0.168c1.031,0,1.787,0.24,2.268,0.672
			c0.443,0.384,0.719,0.972,0.719,1.69c0,0.732-0.217,1.308-0.637,1.728c-0.551,0.588-1.451,0.888-2.469,0.888
			c-0.313,0-0.602-0.013-0.84-0.072v3.238h-1.045V474.737z M529.247,478.623c0.227,0.061,0.527,0.084,0.863,0.084
			c1.271,0,2.027-0.624,2.027-1.715c0-1.079-0.756-1.596-1.908-1.596c-0.455,0-0.803,0.049-0.982,0.084V478.623z"/>
	</g>
</g>
<g>
	
		<radialGradient id="path16609_49_" cx="478.4019" cy="-51.353" r="16.186" gradientTransform="matrix(1.5933 0 0 0.6358 -140.6911 416.0022)" gradientUnits="userSpaceOnUse">
		<stop  offset="0" style="stop-color:#A2FF5F"/>
		<stop  offset="0.4082" style="stop-color:#A0FF5F"/>
		<stop  offset="0.5552" style="stop-color:#99FD5F"/>
		<stop  offset="0.66" style="stop-color:#8EFB5E"/>
		<stop  offset="0.7448" style="stop-color:#7DF85E"/>
		<stop  offset="0.8174" style="stop-color:#67F35D"/>
		<stop  offset="0.8817" style="stop-color:#4BEE5C"/>
		<stop  offset="0.9398" style="stop-color:#2BE85B"/>
		<stop  offset="0.9915" style="stop-color:#07E05A"/>
		<stop  offset="1" style="stop-color:#00DF5A"/>
	</radialGradient>
	<path id="path16609_28_" fill="url(#path16609_49_)" stroke="#000000" d="M646.862,383.351c0,5.786-11.338,10.478-25.315,10.478
		c-13.981,0-25.315-4.689-25.315-10.478s11.334-10.476,25.315-10.476C635.524,372.876,646.862,377.564,646.862,383.351z"/>
	<g>
		<path d="M611.527,378.911c0.528-0.107,1.296-0.18,2.003-0.18c1.115,0,1.848,0.216,2.351,0.672
			c0.396,0.348,0.636,0.899,0.636,1.535c0,1.056-0.684,1.763-1.522,2.051v0.036c0.611,0.216,0.983,0.791,1.187,1.631
			c0.265,1.127,0.456,1.907,0.612,2.219h-1.079c-0.133-0.228-0.313-0.924-0.528-1.931c-0.239-1.115-0.684-1.535-1.631-1.571h-0.983
			v3.502h-1.044V378.911z M612.571,382.581h1.067c1.115,0,1.823-0.611,1.823-1.535c0-1.043-0.756-1.499-1.859-1.499
			c-0.504,0-0.852,0.048-1.031,0.096V382.581z"/>
		<path d="M622.265,379.966h-2.975l-0.3,1.979c0.18-0.023,0.348-0.048,0.636-0.048c0.611,0,1.199,0.132,1.679,0.42
			c0.612,0.336,1.115,1.02,1.115,2.027c0,1.522-1.211,2.662-2.902,2.662c-0.852,0-1.559-0.24-1.942-0.479l0.264-0.804
			c0.324,0.191,0.96,0.432,1.679,0.432c0.983,0,1.848-0.647,1.835-1.703c0-1.031-0.684-1.739-2.23-1.739
			c-0.456,0-0.804,0.036-1.091,0.084l0.503-3.718h3.73V379.966z"/>
		<path d="M624.139,378.899c0.504-0.096,1.164-0.168,2.003-0.168c1.032,0,1.787,0.24,2.267,0.672c0.444,0.384,0.72,0.972,0.72,1.69
			c0,0.732-0.216,1.308-0.636,1.728c-0.551,0.588-1.451,0.888-2.47,0.888c-0.313,0-0.601-0.013-0.84-0.072v3.238h-1.044V378.899z
			 M625.183,382.785c0.228,0.06,0.527,0.084,0.863,0.084c1.271,0,2.027-0.624,2.027-1.715c0-1.079-0.756-1.596-1.907-1.596
			c-0.456,0-0.804,0.049-0.983,0.084V382.785z"/>
		<path d="M631.567,378.791v8.084h-1.056v-8.084H631.567z"/>
	</g>
</g>
<g>
	<g>
		
			<radialGradient id="path16609_50_" cx="174.4478" cy="-610.728" r="16.1858" gradientTransform="matrix(1.5933 0 0 0.6358 -140.6911 416.0022)" gradientUnits="userSpaceOnUse">
			<stop  offset="0" style="stop-color:#FFFCDF"/>
			<stop  offset="0.1203" style="stop-color:#FFFBDA"/>
			<stop  offset="0.2662" style="stop-color:#FFF9CB"/>
			<stop  offset="0.4255" style="stop-color:#FFF6B2"/>
			<stop  offset="0.5943" style="stop-color:#FFF090"/>
			<stop  offset="0.7706" style="stop-color:#FFEA64"/>
			<stop  offset="0.9506" style="stop-color:#FFE22F"/>
			<stop  offset="1" style="stop-color:#FFE01F"/>
		</radialGradient>
		<path id="path16609_15_" fill="url(#path16609_50_)" stroke="#000000" d="M162.572,27.701c0,5.786-11.338,10.478-25.316,10.478
			c-13.98,0-25.314-4.689-25.314-10.478s11.334-10.476,25.314-10.476C151.234,17.226,162.572,21.914,162.572,27.701z"/>
		<g>
			<path d="M123.359,31.224v-8.083h1.151l2.579,4.09c0.587,0.947,1.067,1.787,1.439,2.626l0.036-0.012
				c-0.096-1.079-0.12-2.063-0.12-3.31v-3.394h0.983v8.083h-1.055l-2.566-4.102c-0.564-0.9-1.104-1.823-1.5-2.699l-0.036,0.012
				c0.06,1.019,0.072,1.991,0.072,3.334v3.454H123.359z"/>
			<path d="M132.563,28.682l-0.839,2.542h-1.08l2.747-8.083h1.259l2.758,8.083h-1.115l-0.863-2.542H132.563z M135.213,27.866
				l-0.803-2.327c-0.168-0.527-0.288-1.007-0.408-1.475h-0.036c-0.108,0.468-0.24,0.972-0.396,1.463l-0.792,2.338H135.213z"/>
			<path d="M138.587,23.249c0.648-0.096,1.403-0.168,2.231-0.168c1.499,0,2.566,0.336,3.274,0.996
				c0.732,0.66,1.151,1.607,1.151,2.914c0,1.319-0.419,2.399-1.163,3.143c-0.768,0.755-2.015,1.163-3.586,1.163
				c-0.756,0-1.367-0.024-1.907-0.096V23.249z M139.643,30.409c0.264,0.048,0.647,0.048,1.055,0.048
				c2.231,0.012,3.442-1.247,3.442-3.43c0.012-1.931-1.067-3.118-3.274-3.118c-0.54,0-0.947,0.048-1.223,0.108V30.409z"/>
			<path d="M146.591,23.249c0.503-0.096,1.163-0.168,2.003-0.168c1.031,0,1.787,0.24,2.267,0.672c0.444,0.384,0.72,0.971,0.72,1.691
				c0,0.731-0.216,1.307-0.636,1.727c-0.552,0.587-1.451,0.888-2.471,0.888c-0.312,0-0.6-0.012-0.839-0.072v3.238h-1.043V23.249z
				 M147.635,27.134c0.228,0.06,0.527,0.084,0.863,0.084c1.271,0,2.027-0.624,2.027-1.715c0-1.08-0.755-1.595-1.907-1.595
				c-0.456,0-0.804,0.048-0.983,0.084V27.134z"/>
		</g>
	</g>
	<g>
		
			<radialGradient id="path16609_51_" cx="261.2915" cy="-610.728" r="16.1858" gradientTransform="matrix(1.5933 0 0 0.6358 -140.6911 416.0022)" gradientUnits="userSpaceOnUse">
			<stop  offset="0" style="stop-color:#FFFCDF"/>
			<stop  offset="0.1203" style="stop-color:#FFFBDA"/>
			<stop  offset="0.2662" style="stop-color:#FFF9CB"/>
			<stop  offset="0.4255" style="stop-color:#FFF6B2"/>
			<stop  offset="0.5943" style="stop-color:#FFF090"/>
			<stop  offset="0.7706" style="stop-color:#FFEA64"/>
			<stop  offset="0.9506" style="stop-color:#FFE22F"/>
			<stop  offset="1" style="stop-color:#FFE01F"/>
		</radialGradient>
		<path id="path16609_16_" fill="url(#path16609_51_)" stroke="#000000" d="M300.94,27.701c0,5.786-11.338,10.478-25.316,10.478
			c-13.98,0-25.314-4.689-25.314-10.478s11.334-10.476,25.314-10.476C289.602,17.226,300.94,21.914,300.94,27.701z"/>
		<g>
			<path d="M257.817,31.224v-8.083h1.151l2.579,4.09c0.587,0.947,1.067,1.787,1.439,2.626l0.036-0.012
				c-0.096-1.079-0.12-2.063-0.12-3.31v-3.394h0.983v8.083h-1.055l-2.566-4.102c-0.564-0.9-1.104-1.823-1.5-2.699l-0.036,0.012
				c0.06,1.019,0.072,1.991,0.072,3.334v3.454H257.817z"/>
			<path d="M267.02,28.682l-0.839,2.542h-1.08l2.747-8.083h1.259l2.758,8.083h-1.115l-0.863-2.542H267.02z M269.67,27.866
				l-0.803-2.327c-0.168-0.527-0.288-1.007-0.408-1.475h-0.036c-0.108,0.468-0.24,0.972-0.396,1.463l-0.792,2.338H269.67z"/>
			<path d="M273.045,23.249c0.648-0.096,1.403-0.168,2.231-0.168c1.499,0,2.566,0.336,3.274,0.996
				c0.732,0.66,1.151,1.607,1.151,2.914c0,1.319-0.419,2.399-1.163,3.143c-0.768,0.755-2.015,1.163-3.586,1.163
				c-0.756,0-1.367-0.024-1.907-0.096V23.249z M274.101,30.409c0.264,0.048,0.647,0.048,1.055,0.048
				c2.231,0.012,3.442-1.247,3.442-3.43c0.012-1.931-1.067-3.118-3.274-3.118c-0.54,0-0.947,0.048-1.223,0.108V30.409z"/>
			<path d="M281.049,23.249c0.503-0.096,1.163-0.168,2.003-0.168c1.031,0,1.787,0.24,2.267,0.672c0.444,0.384,0.72,0.971,0.72,1.691
				c0,0.731-0.216,1.307-0.636,1.727c-0.552,0.587-1.451,0.888-2.471,0.888c-0.312,0-0.6-0.012-0.839-0.072v3.238h-1.043V23.249z
				 M282.092,27.134c0.228,0.06,0.527,0.084,0.863,0.084c1.271,0,2.027-0.624,2.027-1.715c0-1.08-0.755-1.595-1.907-1.595
				c-0.456,0-0.804,0.048-0.983,0.084V27.134z"/>
			<path d="M288.476,23.141v3.382h3.91v-3.382h1.056v8.083h-1.056v-3.79h-3.91v3.79h-1.056v-8.083H288.476z"/>
		</g>
	</g>
	<g>
		
			<radialGradient id="path16609_52_" cx="217.5894" cy="-533.1401" r="16.1855" gradientTransform="matrix(1.5933 0 0 0.6358 -140.6911 416.0022)" gradientUnits="userSpaceOnUse">
			<stop  offset="0" style="stop-color:#A2FF5F"/>
			<stop  offset="0.4082" style="stop-color:#A0FF5F"/>
			<stop  offset="0.5552" style="stop-color:#99FD5F"/>
			<stop  offset="0.66" style="stop-color:#8EFB5E"/>
			<stop  offset="0.7448" style="stop-color:#7DF85E"/>
			<stop  offset="0.8174" style="stop-color:#67F35D"/>
			<stop  offset="0.8817" style="stop-color:#4BEE5C"/>
			<stop  offset="0.9398" style="stop-color:#2BE85B"/>
			<stop  offset="0.9915" style="stop-color:#07E05A"/>
			<stop  offset="1" style="stop-color:#00DF5A"/>
		</radialGradient>
		<path id="path16609" fill="url(#path16609_52_)" stroke="#000000" d="M231.309,77.031c0,5.786-11.338,10.478-25.315,10.478
			c-13.98,0-25.314-4.689-25.314-10.478s11.334-10.476,25.314-10.476C219.971,66.556,231.309,71.244,231.309,77.031z"/>
		<g>
			<path d="M195.017,80.193c-0.468,0.18-1.403,0.444-2.495,0.444c-1.223,0-2.231-0.312-3.022-1.067
				c-0.696-0.672-1.127-1.751-1.127-3.01c0-2.411,1.667-4.174,4.378-4.174c0.935,0,1.679,0.204,2.027,0.372l-0.264,0.852
				c-0.432-0.204-0.971-0.348-1.787-0.348c-1.967,0-3.25,1.223-3.25,3.25c0,2.051,1.223,3.262,3.118,3.262
				c0.684,0,1.151-0.096,1.392-0.216v-2.411h-1.631v-0.839h2.663V80.193z"/>
			<path d="M200.682,73.489c-0.216-0.012-0.492,0.012-0.792,0.06c-1.667,0.264-2.531,1.475-2.71,2.77h0.024
				c0.372-0.503,1.031-0.911,1.895-0.911c1.379,0,2.351,1.007,2.351,2.519c0,1.439-0.972,2.758-2.603,2.758
				c-1.655,0-2.747-1.295-2.747-3.322c0-1.535,0.54-2.746,1.319-3.526c0.647-0.636,1.511-1.031,2.495-1.151
				c0.312-0.048,0.576-0.06,0.768-0.06V73.489z M198.871,79.87c0.899,0,1.511-0.756,1.511-1.871s-0.636-1.787-1.607-1.787
				c-0.636,0-1.235,0.384-1.523,0.959c-0.06,0.12-0.108,0.264-0.108,0.456c0.012,1.283,0.612,2.243,1.715,2.243H198.871z"/>
			<path d="M202.76,72.578c0.503-0.096,1.163-0.168,2.003-0.168c1.031,0,1.787,0.24,2.267,0.672c0.444,0.384,0.72,0.971,0.72,1.691
				c0,0.731-0.216,1.307-0.636,1.727c-0.552,0.587-1.451,0.888-2.471,0.888c-0.312,0-0.6-0.012-0.839-0.072v3.238h-1.043V72.578z
				 M203.803,76.463c0.228,0.06,0.527,0.084,0.863,0.084c1.271,0,2.027-0.624,2.027-1.715c0-1.08-0.755-1.595-1.907-1.595
				c-0.456,0-0.804,0.048-0.983,0.084V76.463z"/>
			<path d="M209.131,72.578c0.648-0.096,1.403-0.168,2.231-0.168c1.499,0,2.566,0.336,3.274,0.996
				c0.732,0.66,1.151,1.607,1.151,2.914c0,1.319-0.419,2.399-1.163,3.143c-0.768,0.755-2.015,1.163-3.586,1.163
				c-0.756,0-1.368-0.024-1.907-0.096V72.578z M210.187,79.738c0.264,0.048,0.647,0.048,1.055,0.048
				c2.231,0.012,3.442-1.247,3.442-3.43c0.012-1.931-1.067-3.118-3.274-3.118c-0.54,0-0.947,0.048-1.223,0.108V79.738z"/>
			<path d="M218.179,72.47v3.382h3.91V72.47h1.056v8.083h-1.056v-3.79h-3.91v3.79h-1.056V72.47H218.179z"/>
		</g>
	</g>
	<g>
		<g>
			<line fill="none" stroke="#000000" x1="313.391" y1="66.555" x2="93.387" y2="66.555"/>
			<polygon points="310.583,70.259 312.155,66.555 310.583,62.852 319.36,66.555 			"/>
		</g>
	</g>
	<g>
		<g>
			<path fill="none" stroke="#000000" d="M152.846,36.399c28.096,38.019,74.941,40.473,106.295,5.177"/>
			<polygon points="260.045,46.136 258.32,42.5 254.507,41.217 263.105,37.114 			"/>
		</g>
	</g>
</g>
<g>
	
		<radialGradient id="path16609_53_" cx="348.3008" cy="-610.728" r="16.1858" gradientTransform="matrix(1.5933 0 0 0.6358 -140.6911 416.0022)" gradientUnits="userSpaceOnUse">
		<stop  offset="0" style="stop-color:#FFFCDF"/>
		<stop  offset="0.1203" style="stop-color:#FFFBDA"/>
		<stop  offset="0.2662" style="stop-color:#FFF9CB"/>
		<stop  offset="0.4255" style="stop-color:#FFF6B2"/>
		<stop  offset="0.5943" style="stop-color:#FFF090"/>
		<stop  offset="0.7706" style="stop-color:#FFEA64"/>
		<stop  offset="0.9506" style="stop-color:#FFE22F"/>
		<stop  offset="1" style="stop-color:#FFE01F"/>
	</radialGradient>
	<path id="path16609_18_" fill="url(#path16609_53_)" stroke="#000000" d="M439.572,27.701c0,5.786-11.338,10.478-25.316,10.478
		c-13.98,0-25.314-4.689-25.314-10.478s11.334-10.476,25.314-10.476C428.234,17.226,439.572,21.914,439.572,27.701z"/>
	<g>
		<path d="M400.36,31.224v-8.083h1.15l2.579,4.09c0.587,0.947,1.067,1.787,1.438,2.626l0.037-0.012
			c-0.097-1.079-0.121-2.063-0.121-3.31v-3.394h0.984v8.083h-1.056l-2.566-4.102c-0.563-0.9-1.104-1.823-1.499-2.699l-0.036,0.012
			c0.06,1.019,0.071,1.991,0.071,3.334v3.454H400.36z"/>
		<path d="M409.563,28.682l-0.84,2.542h-1.08l2.747-8.083h1.259l2.759,8.083h-1.115l-0.863-2.542H409.563z M412.213,27.866
			l-0.804-2.327c-0.168-0.527-0.288-1.007-0.407-1.475h-0.037c-0.107,0.468-0.239,0.972-0.396,1.463l-0.792,2.338H412.213z"/>
		<path d="M415.587,23.249c0.647-0.096,1.403-0.168,2.231-0.168c1.498,0,2.566,0.336,3.273,0.996
			c0.732,0.66,1.151,1.607,1.151,2.914c0,1.319-0.419,2.399-1.163,3.143c-0.768,0.755-2.016,1.163-3.586,1.163
			c-0.756,0-1.367-0.024-1.907-0.096V23.249z M416.643,30.409c0.264,0.048,0.647,0.048,1.055,0.048
			c2.231,0.012,3.443-1.247,3.443-3.43c0.012-1.931-1.068-3.118-3.275-3.118c-0.539,0-0.947,0.048-1.223,0.108V30.409z"/>
		<path d="M423.591,23.249c0.503-0.096,1.163-0.168,2.003-0.168c1.031,0,1.787,0.24,2.267,0.672c0.444,0.384,0.72,0.971,0.72,1.691
			c0,0.731-0.216,1.307-0.636,1.727c-0.552,0.587-1.451,0.888-2.471,0.888c-0.312,0-0.6-0.012-0.839-0.072v3.238h-1.044V23.249z
			 M424.635,27.134c0.227,0.06,0.527,0.084,0.863,0.084c1.271,0,2.026-0.624,2.026-1.715c0-1.08-0.755-1.595-1.907-1.595
			c-0.455,0-0.803,0.048-0.982,0.084V27.134z"/>
	</g>
</g>
<g>
	
		<radialGradient id="path16609_54_" cx="435.144" cy="-610.728" r="16.1858" gradientTransform="matrix(1.5933 0 0 0.6358 -140.6911 416.0022)" gradientUnits="userSpaceOnUse">
		<stop  offset="0" style="stop-color:#FFFCDF"/>
		<stop  offset="0.1203" style="stop-color:#FFFBDA"/>
		<stop  offset="0.2662" style="stop-color:#FFF9CB"/>
		<stop  offset="0.4255" style="stop-color:#FFF6B2"/>
		<stop  offset="0.5943" style="stop-color:#FFF090"/>
		<stop  offset="0.7706" style="stop-color:#FFEA64"/>
		<stop  offset="0.9506" style="stop-color:#FFE22F"/>
		<stop  offset="1" style="stop-color:#FFE01F"/>
	</radialGradient>
	<path id="path16609_17_" fill="url(#path16609_54_)" stroke="#000000" d="M577.94,27.701c0,5.786-11.338,10.478-25.316,10.478
		c-13.98,0-25.314-4.689-25.314-10.478s11.334-10.476,25.314-10.476C566.602,17.226,577.94,21.914,577.94,27.701z"/>
	<g>
		<path d="M534.817,31.224v-8.083h1.151l2.579,4.09c0.587,0.947,1.066,1.787,1.438,2.626l0.036-0.012
			c-0.096-1.079-0.12-2.063-0.12-3.31v-3.394h0.983v8.083h-1.055l-2.566-4.102c-0.564-0.9-1.104-1.823-1.5-2.699l-0.035,0.012
			c0.059,1.019,0.071,1.991,0.071,3.334v3.454H534.817z"/>
		<path d="M544.02,28.682l-0.84,2.542h-1.079l2.747-8.083h1.259l2.759,8.083h-1.115l-0.863-2.542H544.02z M546.67,27.866
			l-0.803-2.327c-0.168-0.527-0.289-1.007-0.408-1.475h-0.036c-0.108,0.468-0.239,0.972-0.396,1.463l-0.792,2.338H546.67z"/>
		<path d="M550.045,23.249c0.647-0.096,1.402-0.168,2.23-0.168c1.499,0,2.566,0.336,3.273,0.996c0.732,0.66,1.152,1.607,1.152,2.914
			c0,1.319-0.42,2.399-1.164,3.143c-0.768,0.755-2.015,1.163-3.586,1.163c-0.756,0-1.367-0.024-1.906-0.096V23.249z M551.1,30.409
			c0.264,0.048,0.648,0.048,1.056,0.048c2.231,0.012,3.442-1.247,3.442-3.43c0.012-1.931-1.067-3.118-3.274-3.118
			c-0.54,0-0.947,0.048-1.224,0.108V30.409z"/>
		<path d="M558.049,23.249c0.503-0.096,1.162-0.168,2.002-0.168c1.031,0,1.787,0.24,2.268,0.672
			c0.443,0.384,0.719,0.971,0.719,1.691c0,0.731-0.215,1.307-0.635,1.727c-0.553,0.587-1.451,0.888-2.471,0.888
			c-0.313,0-0.6-0.012-0.84-0.072v3.238h-1.043V23.249z M559.092,27.134c0.228,0.06,0.527,0.084,0.863,0.084
			c1.271,0,2.027-0.624,2.027-1.715c0-1.08-0.756-1.595-1.907-1.595c-0.456,0-0.804,0.048-0.983,0.084V27.134z"/>
		<path d="M565.476,23.141v3.382h3.909v-3.382h1.057v8.083h-1.057v-3.79h-3.909v3.79h-1.056v-8.083H565.476z"/>
	</g>
</g>
<g>
	
		<radialGradient id="path16609_55_" cx="391.4419" cy="-533.1401" r="16.1858" gradientTransform="matrix(1.5933 0 0 0.6358 -140.6911 416.0022)" gradientUnits="userSpaceOnUse">
		<stop  offset="0" style="stop-color:#A2FF5F"/>
		<stop  offset="0.4082" style="stop-color:#A0FF5F"/>
		<stop  offset="0.5552" style="stop-color:#99FD5F"/>
		<stop  offset="0.66" style="stop-color:#8EFB5E"/>
		<stop  offset="0.7448" style="stop-color:#7DF85E"/>
		<stop  offset="0.8174" style="stop-color:#67F35D"/>
		<stop  offset="0.8817" style="stop-color:#4BEE5C"/>
		<stop  offset="0.9398" style="stop-color:#2BE85B"/>
		<stop  offset="0.9915" style="stop-color:#07E05A"/>
		<stop  offset="1" style="stop-color:#00DF5A"/>
	</radialGradient>
	<path id="path16609_1_" fill="url(#path16609_55_)" stroke="#000000" d="M508.309,77.031c0,5.786-11.338,10.478-25.316,10.478
		c-13.98,0-25.314-4.689-25.314-10.478s11.334-10.476,25.314-10.476C496.971,66.556,508.309,71.244,508.309,77.031z"/>
	<g>
		<path d="M469.93,73.489c-0.217-0.012-0.492,0.012-0.792,0.06c-1.667,0.264-2.53,1.475-2.71,2.77h0.023
			c0.371-0.503,1.031-0.911,1.895-0.911c1.379,0,2.352,1.007,2.352,2.519c0,1.439-0.973,2.758-2.604,2.758
			c-1.654,0-2.746-1.295-2.746-3.322c0-1.535,0.539-2.746,1.319-3.526c0.647-0.636,1.511-1.031,2.495-1.151
			c0.312-0.048,0.575-0.06,0.768-0.06V73.489z M468.119,79.87c0.899,0,1.511-0.756,1.511-1.871s-0.635-1.787-1.606-1.787
			c-0.636,0-1.235,0.384-1.523,0.959c-0.06,0.12-0.108,0.264-0.108,0.456c0.013,1.283,0.612,2.243,1.715,2.243H468.119z"/>
		<path d="M472.008,72.578c0.503-0.096,1.162-0.168,2.002-0.168c1.031,0,1.787,0.24,2.268,0.672
			c0.443,0.384,0.719,0.971,0.719,1.691c0,0.731-0.215,1.307-0.635,1.727c-0.553,0.587-1.451,0.888-2.471,0.888
			c-0.313,0-0.6-0.012-0.84-0.072v3.238h-1.043V72.578z M473.051,76.463c0.228,0.06,0.527,0.084,0.863,0.084
			c1.271,0,2.027-0.624,2.027-1.715c0-1.08-0.756-1.595-1.907-1.595c-0.456,0-0.804,0.048-0.983,0.084V76.463z"/>
		<path d="M484.556,80.193c-0.468,0.18-1.403,0.444-2.495,0.444c-1.223,0-2.23-0.312-3.021-1.067
			c-0.695-0.672-1.128-1.751-1.128-3.01c0-2.411,1.667-4.174,4.378-4.174c0.936,0,1.679,0.204,2.027,0.372l-0.265,0.852
			c-0.432-0.204-0.972-0.348-1.787-0.348c-1.967,0-3.25,1.223-3.25,3.25c0,2.051,1.224,3.262,3.118,3.262
			c0.684,0,1.151-0.096,1.391-0.216v-2.411h-1.631v-0.839h2.663V80.193z"/>
		<path d="M486.131,72.578c0.648-0.096,1.403-0.168,2.23-0.168c1.5,0,2.566,0.336,3.274,0.996c0.731,0.66,1.151,1.607,1.151,2.914
			c0,1.319-0.42,2.399-1.163,3.143c-0.768,0.755-2.015,1.163-3.586,1.163c-0.756,0-1.368-0.024-1.907-0.096V72.578z M487.187,79.738
			c0.264,0.048,0.647,0.048,1.056,0.048c2.23,0.012,3.441-1.247,3.441-3.43c0.012-1.931-1.066-3.118-3.273-3.118
			c-0.54,0-0.947,0.048-1.224,0.108V79.738z"/>
		<path d="M495.178,72.47v3.382h3.91V72.47h1.056v8.083h-1.056v-3.79h-3.91v3.79h-1.055V72.47H495.178z"/>
	</g>
</g>
<g>
	<g>
		<line fill="none" stroke="#000000" x1="590.391" y1="66.555" x2="370.387" y2="66.555"/>
		<polygon points="587.583,70.259 589.155,66.555 587.583,62.852 596.36,66.555 		"/>
	</g>
</g>
<g>
	<g>
		<path fill="none" stroke="#000000" d="M429.846,36.399c28.096,38.019,74.941,40.473,106.295,5.177"/>
		<polygon points="537.045,46.136 535.321,42.5 531.507,41.217 540.105,37.114 		"/>
	</g>
</g>
<g>
	<g>
		<line fill="none" stroke="#000000" x1="68.15" y1="225.896" x2="68.15" y2="77.229"/>
		<polygon points="64.446,223.087 68.15,224.66 71.854,223.087 68.15,231.865 		"/>
	</g>
</g>
<g>
	<g>
		<line fill="none" stroke="#000000" x1="100.141" y1="242.421" x2="488.891" y2="242.421"/>
		<polygon points="486.083,246.125 487.655,242.421 486.083,238.717 494.86,242.421 		"/>
		<polygon points="102.95,238.717 101.377,242.421 102.95,246.125 94.172,242.421 		"/>
	</g>
</g>
<g>
	<g>
		<line fill="none" stroke="#000000" x1="552.391" y1="383.352" x2="596.231" y2="383.352"/>
		<polygon points="555.2,379.648 553.627,383.352 555.2,387.055 546.422,383.352 		"/>
	</g>
</g>
<g>
	<g>
		<line fill="none" stroke="#000000" x1="635.392" y1="81.896" x2="635.392" y2="375.562"/>
		<polygon points="639.096,84.705 635.392,83.132 631.688,84.705 635.392,75.927 		"/>
	</g>
</g>
<g>
	<g>
		<line fill="none" stroke="#000000" x1="542.891" y1="230.229" x2="604.558" y2="80.896"/>
		<polygon points="606.91,84.906 604.086,82.038 600.063,82.078 606.836,75.378 		"/>
		<polygon points="540.54,226.22 543.363,229.087 547.386,229.047 540.613,235.747 		"/>
	</g>
</g>
<g>
	<g>
		<path fill="none" stroke="#000000" d="M60.891,367.396c27.622-55.605,133.606-139.65,206.25-91.5"/>
		<polygon points="262.753,277.432 266.111,275.213 266.846,271.257 272.117,279.194 		"/>
		<polygon points="58.823,363.233 61.441,366.29 65.458,366.529 58.235,372.742 		"/>
	</g>
</g>
<g>
	<path fill="none" stroke="#000000" d="M276.558,319.563"/>
</g>
<g>
	<path fill="none" stroke="#000000" d="M87.391,255.396"/>
</g>
<g>
	<g>
		<path fill="none" stroke="#000000" d="M327.725,345.748c-113.033,7.557-148.617-36.418-59.002-53.352"/>
		<polygon points="266.65,296.557 267.508,292.625 265.275,289.278 274.587,291.288 		"/>
		<polygon points="325.169,349.63 326.492,345.83 324.675,342.24 333.681,345.349 		"/>
	</g>
</g>
<g>
	<g>
		<path fill="none" stroke="#000000" d="M94.891,250.896c152.75,43.25,178,80-3.5,123"/>
		<polygon points="93.27,369.644 92.594,373.611 94.978,376.852 85.583,375.272 		"/>
		<polygon points="98.603,248.097 96.08,251.233 96.584,255.225 89.147,249.27 		"/>
	</g>
</g>
<g>
	<g>
		<polyline fill="none" stroke="#000000" points="220.814,463.911 295.016,422.229 369.633,463.602 		"/>
		<polygon points="365.381,465.48 368.552,463.002 368.973,459.001 374.854,466.497 		"/>
		<polygon points="221.449,459.306 221.892,463.305 225.077,465.764 215.61,466.834 		"/>
	</g>
</g>
<g>
	<g>
		<path fill="none" stroke="#000000" d="M384.891,355.563c45.334,25.333,96.667-14.667,122.334-98.334"/>
		<polygon points="509.943,261 506.863,258.411 502.861,258.828 508.976,251.522 		"/>
		<polygon points="389.15,353.7 385.97,356.166 385.537,360.167 379.68,352.651 		"/>
	</g>
</g>
<g>
	<g>
		<line fill="none" stroke="#000000" x1="520.872" y1="462.396" x2="520.872" y2="394.146"/>
		<polygon points="517.167,459.587 520.872,461.161 524.575,459.587 520.872,468.366 		"/>
	</g>
</g>
</svg>
