<?xml version="1.0" encoding="utf-8"?>
<!-- Generator: Adobe Illustrator 13.0.0, SVG Export Plug-In . SVG Version: 6.00 Build 14948)  -->
<!DOCTYPE svg PUBLIC "-//W3C//DTD SVG 1.1//EN" "http://www.w3.org/Graphics/SVG/1.1/DTD/svg11.dtd">
<svg version="1.1"
	 id="svg6472" xmlns:rdf="http://www.w3.org/1999/02/22-rdf-syntax-ns#" xmlns:sodipodi="http://inkscape.sourceforge.net/DTD/sodipodi-0.dtd" xmlns:cc="http://web.resource.org/cc/" xmlns:xml="http://www.w3.org/XML/1998/namespace" xmlns:inkscape="http://www.inkscape.org/namespaces/inkscape" xmlns:svg="http://www.w3.org/2000/svg" xmlns:dc="http://purl.org/dc/elements/1.1/" sodipodi:docbase="C:\Documents and Settings\pvil005\Desktop\Repository_diagrams\Signal_Transduction_Pathways" sodipodi:version="0.32" sodipodi:docname="thomsen_neubig_1989.svg" inkscape:version="0.40+cvs"
	 xmlns="http://www.w3.org/2000/svg" xmlns:xlink="http://www.w3.org/1999/xlink" x="0px" y="0px" width="367px" height="281px"
	 viewBox="206.445 252.138 367 281" enable-background="new 206.445 252.138 367 281" xml:space="preserve">
<sodipodi:namedview  pagecolor="#ffffff" inkscape:cx="366.95913" bordercolor="#666666" borderopacity="1.0" inkscape:zoom="2.0000000" inkscape:cy="638.57916" id="base" inkscape:current-layer="layer1" inkscape:window-x="16" inkscape:window-width="1225" inkscape:window-height="941" inkscape:pageshadow="2" inkscape:pageopacity="0.0" inkscape:window-y="1" inkscape:document-units="px">
	</sodipodi:namedview>
<g>
	
		<radialGradient id="path14489_1_" cx="142.563" cy="97.5938" r="16.1873" gradientTransform="matrix(0.5769 0 0 0.4066 231.8538 236.6136)" gradientUnits="userSpaceOnUse">
		<stop  offset="0" style="stop-color:#A2FF5F"/>
		<stop  offset="0.4082" style="stop-color:#A0FF5F"/>
		<stop  offset="0.5552" style="stop-color:#99FD5F"/>
		<stop  offset="0.66" style="stop-color:#8EFB5E"/>
		<stop  offset="0.7448" style="stop-color:#7DF85E"/>
		<stop  offset="0.8174" style="stop-color:#67F35D"/>
		<stop  offset="0.8817" style="stop-color:#4BEE5C"/>
		<stop  offset="0.9398" style="stop-color:#2BE85B"/>
		<stop  offset="0.9915" style="stop-color:#07E05A"/>
		<stop  offset="1" style="stop-color:#00DF5A"/>
	</radialGradient>
	<path id="path14489" fill="url(#path14489_1_)" stroke="#000000" d="M323.265,276.295c0,3.7-4.105,6.701-9.167,6.701
		c-5.063,0-9.167-2.999-9.167-6.701s4.104-6.7,9.167-6.7C319.159,269.596,323.265,272.594,323.265,276.295z"/>
	<g enable-background="new    ">
		<path d="M311.053,272.584c0.419-0.08,0.969-0.14,1.669-0.14c0.859,0,1.489,0.2,1.889,0.56c0.37,0.32,0.6,0.81,0.6,1.409
			c0,0.61-0.18,1.089-0.53,1.439c-0.46,0.49-1.209,0.739-2.059,0.739c-0.26,0-0.5-0.01-0.7-0.06v2.699h-0.869V272.584z
			 M311.922,275.822c0.19,0.05,0.44,0.07,0.72,0.07c1.06,0,1.689-0.52,1.689-1.429c0-0.899-0.629-1.329-1.589-1.329
			c-0.38,0-0.67,0.04-0.82,0.07V275.822z"/>
		<path d="M316.712,273.503c-0.33,0-0.55-0.26-0.55-0.569c0-0.31,0.23-0.56,0.57-0.56s0.56,0.25,0.56,0.56
			c0,0.31-0.22,0.569-0.57,0.569H316.712z M316.292,279.23v-4.837h0.879v4.837H316.292z"/>
	</g>
</g>
<g>
	
		<radialGradient id="path14499_1_" cx="142.4946" cy="99.981" r="16.1878" gradientTransform="matrix(0.5769 0 0 0.4066 200.2738 385.6312)" gradientUnits="userSpaceOnUse">
		<stop  offset="0" style="stop-color:#A2FF5F"/>
		<stop  offset="0.4082" style="stop-color:#A0FF5F"/>
		<stop  offset="0.5552" style="stop-color:#99FD5F"/>
		<stop  offset="0.66" style="stop-color:#8EFB5E"/>
		<stop  offset="0.7448" style="stop-color:#7DF85E"/>
		<stop  offset="0.8174" style="stop-color:#67F35D"/>
		<stop  offset="0.8817" style="stop-color:#4BEE5C"/>
		<stop  offset="0.9398" style="stop-color:#2BE85B"/>
		<stop  offset="0.9915" style="stop-color:#07E05A"/>
		<stop  offset="1" style="stop-color:#00DF5A"/>
	</radialGradient>
	<path id="path14499" fill="url(#path14499_1_)" stroke="#000000" d="M291.645,426.283c0,3.701-4.105,6.701-9.167,6.701
		s-9.166-3-9.166-6.701s4.104-6.701,9.166-6.701C287.54,419.584,291.645,422.582,291.645,426.283z"/>
	<g enable-background="new    ">
		<path d="M285.036,429.008c-0.31,0.16-0.959,0.32-1.779,0.32c-1.899,0-3.318-1.2-3.318-3.419c0-2.118,1.429-3.538,3.518-3.538
			c0.83,0,1.369,0.181,1.599,0.3l-0.22,0.71c-0.32-0.16-0.79-0.279-1.35-0.279c-1.579,0-2.628,1.009-2.628,2.778
			c0,1.659,0.95,2.708,2.579,2.708c0.54,0,1.08-0.109,1.429-0.279L285.036,429.008z"/>
	</g>
</g>
<g>
	
		<radialGradient id="path14509_1_" cx="143.2271" cy="88.8242" r="16.1868" gradientTransform="matrix(0.5769 0 0 0.4066 150.9788 359.851)" gradientUnits="userSpaceOnUse">
		<stop  offset="0" style="stop-color:#A2FF5F"/>
		<stop  offset="0.4082" style="stop-color:#A0FF5F"/>
		<stop  offset="0.5552" style="stop-color:#99FD5F"/>
		<stop  offset="0.66" style="stop-color:#8EFB5E"/>
		<stop  offset="0.7448" style="stop-color:#7DF85E"/>
		<stop  offset="0.8174" style="stop-color:#67F35D"/>
		<stop  offset="0.8817" style="stop-color:#4BEE5C"/>
		<stop  offset="0.9398" style="stop-color:#2BE85B"/>
		<stop  offset="0.9915" style="stop-color:#07E05A"/>
		<stop  offset="1" style="stop-color:#00DF5A"/>
	</radialGradient>
	<path id="path14509" fill="url(#path14509_1_)" stroke="#000000" d="M242.773,395.966c0,3.701-4.105,6.701-9.167,6.701
		c-5.063,0-9.166-3-9.166-6.701s4.104-6.699,9.166-6.699C238.667,389.267,242.773,392.265,242.773,395.966z"/>
	<g enable-background="new    ">
		<path d="M231.997,392.165h0.879v6.007h2.878v0.729h-3.758V392.165z"/>
	</g>
</g>
<g>
	
		<radialGradient id="path14519_1_" cx="142.8462" cy="88.8242" r="16.1865" gradientTransform="matrix(0.5769 0 0 0.4066 150.9788 420.3138)" gradientUnits="userSpaceOnUse">
		<stop  offset="0" style="stop-color:#A2FF5F"/>
		<stop  offset="0.4082" style="stop-color:#A0FF5F"/>
		<stop  offset="0.5552" style="stop-color:#99FD5F"/>
		<stop  offset="0.66" style="stop-color:#8EFB5E"/>
		<stop  offset="0.7448" style="stop-color:#7DF85E"/>
		<stop  offset="0.8174" style="stop-color:#67F35D"/>
		<stop  offset="0.8817" style="stop-color:#4BEE5C"/>
		<stop  offset="0.9398" style="stop-color:#2BE85B"/>
		<stop  offset="0.9915" style="stop-color:#07E05A"/>
		<stop  offset="1" style="stop-color:#00DF5A"/>
	</radialGradient>
	<path id="path14519" fill="url(#path14519_1_)" stroke="#000000" d="M242.553,456.429c0,3.701-4.105,6.701-9.167,6.701
		c-5.063,0-9.166-2.998-9.166-6.701c0-3.701,4.104-6.699,9.166-6.699C238.448,449.729,242.553,452.728,242.553,456.429z"/>
	<g enable-background="new    ">
		<path d="M231.456,452.728c0.439-0.09,1.079-0.149,1.669-0.149c0.93,0,1.539,0.18,1.959,0.56c0.33,0.29,0.53,0.75,0.53,1.279
			c0,0.88-0.57,1.469-1.27,1.709v0.03c0.51,0.18,0.82,0.659,0.99,1.359c0.22,0.939,0.379,1.589,0.509,1.849h-0.899
			c-0.11-0.189-0.26-0.77-0.439-1.609c-0.2-0.93-0.57-1.279-1.359-1.309h-0.82v2.918h-0.869V452.728z M232.325,455.786h0.89
			c0.93,0,1.519-0.51,1.519-1.279c0-0.869-0.629-1.249-1.549-1.249c-0.42,0-0.71,0.04-0.86,0.08V455.786z"/>
	</g>
</g>
<path id="path18370" sodipodi:nodetypes="cc" d="M465.07,282.255"/>
<path id="path18390" sodipodi:nodetypes="cc" d="M282.205,158.956"/>
<g>
	
		<radialGradient id="path14439_1_" cx="167.958" cy="231.0933" r="16.188" gradientTransform="matrix(0.7447 0 0 0.4066 320.6105 332.3207)" gradientUnits="userSpaceOnUse">
		<stop  offset="0" style="stop-color:#A2FF5F"/>
		<stop  offset="0.4082" style="stop-color:#A0FF5F"/>
		<stop  offset="0.5552" style="stop-color:#99FD5F"/>
		<stop  offset="0.66" style="stop-color:#8EFB5E"/>
		<stop  offset="0.7448" style="stop-color:#7DF85E"/>
		<stop  offset="0.8174" style="stop-color:#67F35D"/>
		<stop  offset="0.8817" style="stop-color:#4BEE5C"/>
		<stop  offset="0.9398" style="stop-color:#2BE85B"/>
		<stop  offset="0.9915" style="stop-color:#07E05A"/>
		<stop  offset="1" style="stop-color:#00DF5A"/>
	</radialGradient>
	<path id="path14439_2_" fill="url(#path14439_1_)" stroke="#000000" d="M457.522,426.283c0,3.699-5.299,6.701-11.833,6.701
		c-6.535,0-11.833-3-11.833-6.701c0-3.703,5.298-6.701,11.833-6.701C452.223,419.584,457.522,422.582,457.522,426.283z"/>
	<g enable-background="new    ">
		<path d="M443.48,429.009c-0.309,0.16-0.959,0.32-1.779,0.32c-1.898,0-3.318-1.2-3.318-3.419c0-2.118,1.43-3.538,3.52-3.538
			c0.828,0,1.369,0.181,1.598,0.3l-0.219,0.71c-0.32-0.16-0.789-0.279-1.35-0.279c-1.578,0-2.629,1.009-2.629,2.778
			c0,1.659,0.949,2.708,2.578,2.708c0.541,0,1.08-0.109,1.43-0.279L443.48,429.009z"/>
		<path d="M446.591,426.2v0.64h-2.469v-0.64H446.591z"/>
		<path d="M452.791,428.919c-0.391,0.149-1.17,0.37-2.078,0.37c-1.02,0-1.859-0.26-2.52-0.89c-0.58-0.56-0.939-1.459-0.939-2.509
			c0-2.009,1.389-3.479,3.648-3.479c0.779,0,1.398,0.17,1.689,0.311l-0.221,0.709c-0.359-0.17-0.811-0.289-1.488-0.289
			c-1.641,0-2.709,1.019-2.709,2.708c0,1.709,1.02,2.719,2.598,2.719c0.57,0,0.959-0.08,1.16-0.18v-2.01h-1.359v-0.699h2.219
			V428.919z"/>
	</g>
</g>
<g>
	<g id="path5958_2_" sodipodi:nodetypes="cc">
		<g>
			<path fill="none" stroke="#000000" d="M266.778,426.244c-28.673,0-33.286-2.957-33.286-17.106"/>
			<polygon points="237.196,411.946 233.492,410.374 229.789,411.946 233.492,403.169 			"/>
		</g>
	</g>
	<g id="path5958_3_" sodipodi:nodetypes="cc">
		<g>
			<path fill="none" stroke="#000000" d="M266.778,426.244c-29.093,0-33.042,2.711-33.042,17.089"/>
			<polygon points="230.033,440.524 233.737,442.098 237.44,440.524 233.737,449.303 			"/>
			<polygon points="263.97,429.948 265.542,426.244 263.97,422.54 272.748,426.244 			"/>
		</g>
	</g>
</g>
<g>
	<g>
		<line fill="none" stroke="#000000" x1="335.675" y1="426.185" x2="297.883" y2="426.185"/>
		<polygon points="300.691,422.48 299.119,426.185 300.691,429.888 291.914,426.185 		"/>
		<polygon points="332.866,429.889 334.439,426.185 332.866,422.481 341.644,426.185 		"/>
	</g>
</g>
<g>
	<g>
		<path fill="none" stroke="#000000" d="M327.454,426.185c-16.477,0-16.477-36.372-16.477-36.372"/>
		<polygon points="314.681,392.621 310.977,391.048 307.273,392.621 310.977,383.843 		"/>
	</g>
</g>
<g>
	<g>
		<line fill="none" stroke="#000000" x1="394.445" y1="425.685" x2="427.675" y2="425.685"/>
		<polygon points="424.867,429.389 426.439,425.685 424.867,421.981 433.644,425.685 		"/>
		<polygon points="397.253,421.98 395.681,425.685 397.253,429.388 388.476,425.685 		"/>
	</g>
</g>
<g>
	<g>
		<path fill="none" stroke="#000000" d="M403.795,425.685c14.609,0,14.609-38.039,14.609-38.039"/>
		<polygon points="422.109,390.454 418.404,388.882 414.701,390.454 418.404,381.677 		"/>
	</g>
</g>
<g>
	<g>
		<line fill="none" stroke="#000000" x1="495.57" y1="425.81" x2="463.882" y2="425.81"/>
		<polygon points="466.691,422.105 465.119,425.81 466.691,429.513 457.914,425.81 		"/>
		<polygon points="492.761,429.514 494.333,425.81 492.761,422.106 501.539,425.81 		"/>
	</g>
</g>
<g>
	<g>
		<path fill="none" stroke="#000000" d="M490.891,425.81c-16.477,0-16.477-38.122-16.477-38.122"/>
		<polygon points="478.119,390.496 474.415,388.923 470.71,390.496 474.415,381.718 		"/>
	</g>
</g>
<g>
	
		<radialGradient id="path14429_1_" cx="193.1792" cy="-153.7949" r="19.3738" gradientTransform="matrix(1.3314 0 0 0.4052 178.2209 386.4539)" gradientUnits="userSpaceOnUse">
		<stop  offset="0" style="stop-color:#A2FF5F"/>
		<stop  offset="0.4082" style="stop-color:#A0FF5F"/>
		<stop  offset="0.5552" style="stop-color:#99FD5F"/>
		<stop  offset="0.66" style="stop-color:#8EFB5E"/>
		<stop  offset="0.7448" style="stop-color:#7DF85E"/>
		<stop  offset="0.8174" style="stop-color:#67F35D"/>
		<stop  offset="0.8817" style="stop-color:#4BEE5C"/>
		<stop  offset="0.9398" style="stop-color:#2BE85B"/>
		<stop  offset="0.9915" style="stop-color:#07E05A"/>
		<stop  offset="1" style="stop-color:#00DF5A"/>
	</radialGradient>
	<path id="path14429_4_" fill="url(#path14429_1_)" stroke="#000000" d="M460.74,324.135c0,4.414-11.341,7.993-25.321,7.993
		c-13.982,0-25.319-3.577-25.319-7.993c0-4.414,11.337-7.99,25.319-7.99C449.399,316.146,460.74,319.721,460.74,324.135z"/>
	<g enable-background="new    ">
		<path d="M425.255,326.771c-0.389,0.149-1.168,0.37-2.078,0.37c-1.02,0-1.859-0.26-2.519-0.89c-0.579-0.56-0.939-1.459-0.939-2.509
			c0-2.009,1.39-3.479,3.648-3.479c0.779,0,1.4,0.17,1.689,0.311l-0.221,0.709c-0.359-0.17-0.809-0.29-1.488-0.29
			c-1.639,0-2.708,1.02-2.708,2.709c0,1.709,1.019,2.719,2.599,2.719c0.568,0,0.959-0.08,1.158-0.18v-2.01h-1.359v-0.699h2.219
			V326.771z"/>
		<path d="M429.107,320.575l-0.949,1.239v0.02l1.51-0.199v0.679l-1.51-0.18v0.021l0.959,1.209l-0.629,0.35l-0.609-1.399h-0.02
			l-0.641,1.409l-0.57-0.359l0.951-1.22v-0.02l-1.48,0.189v-0.679l1.469,0.189v-0.021l-0.939-1.229l0.611-0.34l0.619,1.379h0.02
			l0.609-1.39L429.107,320.575z"/>
		<path d="M432.738,324.053v0.64h-2.469v-0.64H432.738z"/>
		<path d="M438.937,326.771c-0.391,0.149-1.17,0.37-2.078,0.37c-1.02,0-1.859-0.26-2.52-0.89c-0.58-0.56-0.939-1.459-0.939-2.509
			c0-2.009,1.389-3.479,3.648-3.479c0.779,0,1.398,0.17,1.689,0.311l-0.221,0.709c-0.359-0.17-0.811-0.29-1.488-0.29
			c-1.641,0-2.709,1.02-2.709,2.709c0,1.709,1.02,2.719,2.598,2.719c0.57,0,0.959-0.08,1.16-0.18v-2.01h-1.359v-0.699h2.219V326.771
			z"/>
		<path d="M440.25,320.425c0.539-0.08,1.17-0.14,1.859-0.14c1.248,0,2.139,0.279,2.729,0.829c0.609,0.55,0.959,1.34,0.959,2.429
			c0,1.1-0.35,1.999-0.969,2.619c-0.641,0.629-1.68,0.969-2.988,0.969c-0.631,0-1.141-0.02-1.59-0.079V320.425z M441.128,326.392
			c0.221,0.04,0.541,0.04,0.881,0.04c1.857,0.01,2.867-1.039,2.867-2.858c0.01-1.609-0.889-2.599-2.729-2.599
			c-0.449,0-0.789,0.04-1.02,0.09V326.392z"/>
		<path d="M446.919,320.425c0.42-0.08,0.971-0.14,1.67-0.14c0.859,0,1.488,0.2,1.889,0.56c0.369,0.319,0.6,0.81,0.6,1.409
			c0,0.609-0.18,1.09-0.529,1.439c-0.461,0.489-1.209,0.739-2.059,0.739c-0.26,0-0.5-0.01-0.701-0.06v2.698h-0.869V320.425z
			 M447.789,323.663c0.191,0.05,0.441,0.07,0.721,0.07c1.059,0,1.689-0.52,1.689-1.43c0-0.899-0.631-1.329-1.59-1.329
			c-0.379,0-0.67,0.04-0.82,0.07V323.663z"/>
	</g>
</g>
<g>
	<g id="path5958_6_" sodipodi:nodetypes="cc">
		<g>
			<path fill="none" stroke="#000000" d="M409.363,322.657c-76.668,0-90.995-33.925-90.995-33.925"/>
			<polygon points="322.874,289.878 318.85,289.871 316.049,292.76 316.046,283.233 			"/>
		</g>
	</g>
	<g id="path5958_5_" sodipodi:nodetypes="cc">
		<g>
			<path fill="none" stroke="#000000" d="M409.258,322.954c-76.563,0-90.995,33.432-90.995,33.432"/>
			<polygon points="315.976,352.339 318.753,355.251 322.777,355.275 315.898,361.866 			"/>
		</g>
	</g>
</g>
<g>
	<g>
		<path fill="none" stroke="#000000" d="M527.82,433.888c-37.708,98.917-203.708,102.917-241.39,4.053"/>
		<polygon points="290.891,439.246 286.87,439.096 283.969,441.884 284.304,432.362 		"/>
	</g>
</g>
<g>
	<g>
		<path fill="none" stroke="#000000" d="M530.112,417.138c1-50-15.667-80-63-91.833"/>
		<polygon points="470.735,322.393 468.311,325.604 468.938,329.579 461.321,323.857 		"/>
	</g>
</g>
<radialGradient id="path12666_6_" cx="378.1333" cy="346.9414" r="16.1868" gradientTransform="matrix(1.0057 0 0 0.5335 37.9986 187.5241)" gradientUnits="userSpaceOnUse">
	<stop  offset="0" style="stop-color:#A2FF5F"/>
	<stop  offset="0.4082" style="stop-color:#A0FF5F"/>
	<stop  offset="0.5552" style="stop-color:#99FD5F"/>
	<stop  offset="0.66" style="stop-color:#8EFB5E"/>
	<stop  offset="0.7448" style="stop-color:#7DF85E"/>
	<stop  offset="0.8174" style="stop-color:#67F35D"/>
	<stop  offset="0.8817" style="stop-color:#4BEE5C"/>
	<stop  offset="0.9398" style="stop-color:#2BE85B"/>
	<stop  offset="0.9915" style="stop-color:#07E05A"/>
	<stop  offset="1" style="stop-color:#00DF5A"/>
</radialGradient>
<path id="path12666_2_" fill="url(#path12666_6_)" stroke="#000000" d="M434.267,372.616c0,4.855-7.156,8.793-15.979,8.793
	c-8.825,0-15.979-3.936-15.979-8.793c0-4.855,7.154-8.791,15.979-8.791C427.111,363.827,434.267,367.761,434.267,372.616z"/>
<g enable-background="new    ">
	<path d="M414.964,375.442c-0.39,0.149-1.169,0.37-2.079,0.37c-1.02,0-1.859-0.26-2.519-0.89c-0.58-0.56-0.939-1.459-0.939-2.509
		c0-2.009,1.389-3.479,3.648-3.479c0.78,0,1.399,0.17,1.689,0.311l-0.22,0.709c-0.36-0.17-0.81-0.289-1.489-0.289
		c-1.639,0-2.708,1.019-2.708,2.708c0,1.709,1.02,2.719,2.599,2.719c0.57,0,0.959-0.08,1.159-0.18v-2.01h-1.359v-0.699h2.219
		V375.442z"/>
	<path d="M416.277,369.096c0.54-0.08,1.169-0.14,1.859-0.14c1.25,0,2.139,0.279,2.729,0.829c0.61,0.55,0.959,1.34,0.959,2.429
		c0,1.1-0.35,1.999-0.969,2.619c-0.64,0.629-1.679,0.969-2.988,0.969c-0.63,0-1.14-0.02-1.589-0.079V369.096z M417.156,375.063
		c0.22,0.04,0.54,0.04,0.88,0.04c1.859,0.01,2.868-1.039,2.868-2.858c0.01-1.609-0.89-2.599-2.729-2.599
		c-0.45,0-0.79,0.04-1.02,0.09V375.063z"/>
	<path d="M422.947,369.096c0.42-0.08,0.969-0.14,1.669-0.14c0.859,0,1.489,0.2,1.89,0.56c0.369,0.319,0.6,0.81,0.6,1.409
		c0,0.609-0.181,1.09-0.53,1.439c-0.46,0.489-1.21,0.739-2.06,0.739c-0.26,0-0.499-0.01-0.699-0.06v2.698h-0.869V369.096z
		 M423.816,372.334c0.189,0.05,0.439,0.07,0.72,0.07c1.06,0,1.688-0.52,1.688-1.43c0-0.899-0.629-1.329-1.588-1.329
		c-0.381,0-0.67,0.04-0.82,0.07V372.334z"/>
</g>
<g>
	
		<radialGradient id="path12666_7_" cx="434.3901" cy="347.2959" r="16.1873" gradientTransform="matrix(1.0057 0 0 0.5335 37.9986 187.5241)" gradientUnits="userSpaceOnUse">
		<stop  offset="0" style="stop-color:#A2FF5F"/>
		<stop  offset="0.4082" style="stop-color:#A0FF5F"/>
		<stop  offset="0.5552" style="stop-color:#99FD5F"/>
		<stop  offset="0.66" style="stop-color:#8EFB5E"/>
		<stop  offset="0.7448" style="stop-color:#7DF85E"/>
		<stop  offset="0.8174" style="stop-color:#67F35D"/>
		<stop  offset="0.8817" style="stop-color:#4BEE5C"/>
		<stop  offset="0.9398" style="stop-color:#2BE85B"/>
		<stop  offset="0.9915" style="stop-color:#07E05A"/>
		<stop  offset="1" style="stop-color:#00DF5A"/>
	</radialGradient>
	<path id="path12666_1_" fill="url(#path12666_7_)" stroke="#000000" d="M490.844,372.806c0,4.855-7.156,8.793-15.979,8.793
		c-8.824,0-15.979-3.936-15.979-8.793c0-4.855,7.154-8.791,15.979-8.791C483.688,364.017,490.844,367.95,490.844,372.806z"/>
	<g enable-background="new    ">
		<path d="M472.387,375.442c-0.39,0.149-1.169,0.37-2.079,0.37c-1.02,0-1.859-0.26-2.519-0.89c-0.579-0.56-0.939-1.459-0.939-2.509
			c0-2.009,1.39-3.479,3.647-3.479c0.78,0,1.4,0.17,1.689,0.311l-0.22,0.709c-0.36-0.17-0.81-0.289-1.489-0.289
			c-1.639,0-2.709,1.019-2.709,2.708c0,1.709,1.02,2.719,2.6,2.719c0.569,0,0.959-0.08,1.158-0.18v-2.01h-1.359v-0.699h2.22V375.442
			z"/>
		<path d="M474.99,369.745h-2.049v-0.739h4.986v0.739h-2.059v5.997h-0.879V369.745z"/>
		<path d="M478.679,369.096c0.42-0.08,0.97-0.14,1.67-0.14c0.859,0,1.488,0.2,1.889,0.56c0.369,0.319,0.6,0.81,0.6,1.409
			c0,0.609-0.18,1.09-0.529,1.439c-0.461,0.489-1.21,0.739-2.06,0.739c-0.26,0-0.499-0.01-0.7-0.06v2.698h-0.869V369.096z
			 M479.548,372.334c0.19,0.05,0.44,0.07,0.721,0.07c1.059,0,1.688-0.52,1.688-1.43c0-0.899-0.63-1.329-1.589-1.329
			c-0.38,0-0.67,0.04-0.82,0.07V372.334z"/>
	</g>
</g>
<g>
	
		<radialGradient id="path12666_8_" cx="274.5337" cy="347.2979" r="19.4349" gradientTransform="matrix(1.0057 0 0 0.5335 37.9986 187.5241)" gradientUnits="userSpaceOnUse">
		<stop  offset="0" style="stop-color:#A2FF5F"/>
		<stop  offset="0.4082" style="stop-color:#A0FF5F"/>
		<stop  offset="0.5552" style="stop-color:#99FD5F"/>
		<stop  offset="0.66" style="stop-color:#8EFB5E"/>
		<stop  offset="0.7448" style="stop-color:#7DF85E"/>
		<stop  offset="0.8174" style="stop-color:#67F35D"/>
		<stop  offset="0.8817" style="stop-color:#4BEE5C"/>
		<stop  offset="0.9398" style="stop-color:#2BE85B"/>
		<stop  offset="0.9915" style="stop-color:#07E05A"/>
		<stop  offset="1" style="stop-color:#00DF5A"/>
	</radialGradient>
	<path id="path12666_3_" fill="url(#path12666_8_)" stroke="#000000" d="M333.284,372.806c0,5.83-8.592,10.558-19.186,10.558
		c-10.596,0-19.186-4.726-19.186-10.558c0-5.829,8.59-10.555,19.186-10.555C324.691,362.253,333.284,366.977,333.284,372.806z"/>
	<g enable-background="new    ">
		<path d="M306.01,375.442c-0.39,0.149-1.169,0.37-2.079,0.37c-1.02,0-1.859-0.26-2.519-0.89c-0.58-0.56-0.939-1.459-0.939-2.509
			c0-2.009,1.389-3.479,3.648-3.479c0.78,0,1.399,0.17,1.689,0.311l-0.22,0.709c-0.36-0.17-0.81-0.289-1.489-0.289
			c-1.639,0-2.708,1.019-2.708,2.708c0,1.709,1.02,2.719,2.599,2.719c0.57,0,0.959-0.08,1.159-0.18v-2.01h-1.359v-0.699h2.219
			V375.442z"/>
		<path d="M309.341,372.724v0.64h-2.469v-0.64H309.341z"/>
		<path d="M315.54,375.442c-0.39,0.149-1.169,0.37-2.079,0.37c-1.02,0-1.859-0.26-2.519-0.89c-0.58-0.56-0.939-1.459-0.939-2.509
			c0-2.009,1.389-3.479,3.648-3.479c0.78,0,1.399,0.17,1.689,0.311l-0.22,0.709c-0.36-0.17-0.81-0.289-1.489-0.289
			c-1.639,0-2.708,1.019-2.708,2.708c0,1.709,1.02,2.719,2.599,2.719c0.57,0,0.959-0.08,1.159-0.18v-2.01h-1.359v-0.699h2.219
			V375.442z"/>
		<path d="M316.852,369.096c0.54-0.08,1.169-0.14,1.859-0.14c1.25,0,2.139,0.279,2.729,0.829c0.61,0.55,0.959,1.34,0.959,2.429
			c0,1.1-0.35,1.999-0.969,2.619c-0.64,0.629-1.679,0.969-2.988,0.969c-0.63,0-1.14-0.02-1.589-0.079V369.096z M317.731,375.063
			c0.22,0.04,0.54,0.04,0.88,0.04c1.859,0.01,2.868-1.039,2.868-2.858c0.01-1.609-0.89-2.599-2.729-2.599
			c-0.45,0-0.79,0.04-1.02,0.09V375.063z"/>
		<path d="M323.522,369.096c0.419-0.08,0.969-0.14,1.669-0.14c0.859,0,1.489,0.2,1.889,0.56c0.37,0.319,0.6,0.81,0.6,1.409
			c0,0.609-0.18,1.09-0.53,1.439c-0.46,0.489-1.209,0.739-2.059,0.739c-0.26,0-0.5-0.01-0.7-0.06v2.698h-0.869V369.096z
			 M324.391,372.334c0.19,0.05,0.44,0.07,0.72,0.07c1.06,0,1.689-0.52,1.689-1.43c0-0.899-0.629-1.329-1.589-1.329
			c-0.38,0-0.67,0.04-0.82,0.07V372.334z"/>
	</g>
</g>
<g>
	
		<radialGradient id="path12666_9_" cx="325.2261" cy="447.5342" r="23.3467" gradientTransform="matrix(1.0057 0 0 0.5335 37.9986 187.5241)" gradientUnits="userSpaceOnUse">
		<stop  offset="0" style="stop-color:#A2FF5F"/>
		<stop  offset="0.4082" style="stop-color:#A0FF5F"/>
		<stop  offset="0.5552" style="stop-color:#99FD5F"/>
		<stop  offset="0.66" style="stop-color:#8EFB5E"/>
		<stop  offset="0.7448" style="stop-color:#7DF85E"/>
		<stop  offset="0.8174" style="stop-color:#67F35D"/>
		<stop  offset="0.8817" style="stop-color:#4BEE5C"/>
		<stop  offset="0.9398" style="stop-color:#2BE85B"/>
		<stop  offset="0.9915" style="stop-color:#07E05A"/>
		<stop  offset="1" style="stop-color:#00DF5A"/>
	</radialGradient>
	<path id="path12666_4_" fill="url(#path12666_9_)" stroke="#000000" d="M388.126,426.282c0,7.002-10.322,12.682-23.048,12.682
		c-12.729,0-23.047-5.676-23.047-12.682c0-7.004,10.318-12.68,23.047-12.68C377.804,413.604,388.126,419.278,388.126,426.282z"/>
	<g enable-background="new    ">
		<path d="M352.117,429.008c-0.31,0.16-0.959,0.32-1.779,0.32c-1.899,0-3.318-1.2-3.318-3.419c0-2.118,1.429-3.538,3.518-3.538
			c0.83,0,1.369,0.181,1.599,0.3l-0.22,0.71c-0.32-0.16-0.79-0.279-1.35-0.279c-1.579,0-2.628,1.009-2.628,2.778
			c0,1.659,0.95,2.708,2.579,2.708c0.54,0,1.08-0.109,1.429-0.279L352.117,429.008z"/>
		<path d="M355.228,426.199v0.64h-2.469v-0.64H355.228z"/>
		<path d="M361.426,428.918c-0.39,0.149-1.169,0.37-2.079,0.37c-1.02,0-1.859-0.26-2.519-0.89c-0.58-0.56-0.939-1.459-0.939-2.509
			c0-2.009,1.389-3.479,3.648-3.479c0.78,0,1.399,0.17,1.689,0.311l-0.22,0.709c-0.36-0.17-0.81-0.29-1.489-0.29
			c-1.639,0-2.708,1.02-2.708,2.709c0,1.709,1.02,2.719,2.599,2.719c0.57,0,0.959-0.08,1.159-0.18v-2.01h-1.359v-0.699h2.219
			V428.918z"/>
		<path d="M364.758,426.199v0.64h-2.469v-0.64H364.758z"/>
		<path d="M370.956,428.918c-0.39,0.149-1.169,0.37-2.079,0.37c-1.02,0-1.859-0.26-2.519-0.89c-0.58-0.56-0.939-1.459-0.939-2.509
			c0-2.009,1.389-3.479,3.648-3.479c0.78,0,1.399,0.17,1.689,0.311l-0.22,0.709c-0.36-0.17-0.81-0.29-1.489-0.29
			c-1.639,0-2.708,1.02-2.708,2.709c0,1.709,1.02,2.719,2.599,2.719c0.57,0,0.959-0.08,1.159-0.18v-2.01h-1.359v-0.699h2.219
			V428.918z"/>
		<path d="M372.269,422.571c0.54-0.08,1.169-0.14,1.859-0.14c1.25,0,2.139,0.279,2.729,0.829c0.61,0.55,0.959,1.34,0.959,2.429
			c0,1.1-0.35,1.999-0.969,2.619c-0.64,0.629-1.679,0.969-2.988,0.969c-0.63,0-1.14-0.02-1.589-0.079V422.571z M373.148,428.538
			c0.22,0.04,0.54,0.04,0.88,0.04c1.859,0.01,2.868-1.039,2.868-2.858c0.01-1.609-0.89-2.599-2.729-2.599
			c-0.45,0-0.79,0.04-1.02,0.09V428.538z"/>
		<path d="M378.938,422.571c0.419-0.08,0.969-0.14,1.669-0.14c0.859,0,1.489,0.2,1.889,0.56c0.37,0.319,0.6,0.81,0.6,1.409
			c0,0.609-0.18,1.09-0.53,1.439c-0.46,0.489-1.209,0.739-2.059,0.739c-0.26,0-0.5-0.01-0.7-0.06v2.698h-0.869V422.571z
			 M379.808,425.81c0.19,0.05,0.44,0.07,0.72,0.07c1.06,0,1.689-0.52,1.689-1.43c0-0.899-0.629-1.329-1.589-1.329
			c-0.38,0-0.67,0.04-0.82,0.07V425.81z"/>
	</g>
</g>
<g>
	
		<radialGradient id="path12666_10_" cx="485.314" cy="447.5342" r="23.3462" gradientTransform="matrix(1.0057 0 0 0.5335 37.9986 187.5241)" gradientUnits="userSpaceOnUse">
		<stop  offset="0" style="stop-color:#A2FF5F"/>
		<stop  offset="0.4082" style="stop-color:#A0FF5F"/>
		<stop  offset="0.5552" style="stop-color:#99FD5F"/>
		<stop  offset="0.66" style="stop-color:#8EFB5E"/>
		<stop  offset="0.7448" style="stop-color:#7DF85E"/>
		<stop  offset="0.8174" style="stop-color:#67F35D"/>
		<stop  offset="0.8817" style="stop-color:#4BEE5C"/>
		<stop  offset="0.9398" style="stop-color:#2BE85B"/>
		<stop  offset="0.9915" style="stop-color:#07E05A"/>
		<stop  offset="1" style="stop-color:#00DF5A"/>
	</radialGradient>
	<path id="path12666_5_" fill="url(#path12666_10_)" stroke="#000000" d="M549.126,426.282c0,7.002-10.322,12.682-23.048,12.682
		c-12.729,0-23.047-5.676-23.047-12.682c0-7.004,10.318-12.68,23.047-12.68C538.804,413.604,549.126,419.278,549.126,426.282z"/>
	<g enable-background="new    ">
		<path d="M513.117,429.008c-0.311,0.16-0.959,0.32-1.779,0.32c-1.898,0-3.318-1.2-3.318-3.419c0-2.118,1.43-3.538,3.519-3.538
			c0.829,0,1.369,0.181,1.599,0.3l-0.219,0.71c-0.32-0.16-0.79-0.279-1.35-0.279c-1.58,0-2.629,1.009-2.629,2.778
			c0,1.659,0.949,2.708,2.578,2.708c0.54,0,1.08-0.109,1.43-0.279L513.117,429.008z"/>
		<path d="M516.228,426.199v0.64h-2.469v-0.64H516.228z"/>
		<path d="M522.426,428.918c-0.39,0.149-1.169,0.37-2.079,0.37c-1.02,0-1.859-0.26-2.519-0.89c-0.579-0.56-0.939-1.459-0.939-2.509
			c0-2.009,1.39-3.479,3.647-3.479c0.78,0,1.4,0.17,1.689,0.311l-0.22,0.709c-0.36-0.17-0.81-0.29-1.489-0.29
			c-1.639,0-2.709,1.02-2.709,2.709c0,1.709,1.02,2.719,2.6,2.719c0.569,0,0.959-0.08,1.158-0.18v-2.01h-1.358v-0.699h2.219V428.918
			z"/>
		<path d="M525.757,426.199v0.64h-2.469v-0.64H525.757z"/>
		<path d="M531.957,428.918c-0.391,0.149-1.17,0.37-2.08,0.37c-1.02,0-1.858-0.26-2.518-0.89c-0.58-0.56-0.939-1.459-0.939-2.509
			c0-2.009,1.389-3.479,3.647-3.479c0.78,0,1.399,0.17,1.688,0.311l-0.219,0.709c-0.36-0.17-0.811-0.29-1.49-0.29
			c-1.639,0-2.708,1.02-2.708,2.709c0,1.709,1.02,2.719,2.599,2.719c0.57,0,0.959-0.08,1.159-0.18v-2.01h-1.359v-0.699h2.22V428.918
			z"/>
		<path d="M534.558,423.221h-2.049v-0.739h4.986v0.739h-2.059v5.997h-0.879V423.221z"/>
		<path d="M538.249,422.571c0.419-0.08,0.97-0.14,1.669-0.14c0.859,0,1.489,0.2,1.889,0.56c0.37,0.319,0.6,0.81,0.6,1.409
			c0,0.609-0.18,1.09-0.529,1.439c-0.46,0.489-1.209,0.739-2.059,0.739c-0.26,0-0.5-0.01-0.7-0.06v2.698h-0.869V422.571z
			 M539.118,425.81c0.19,0.05,0.44,0.07,0.72,0.07c1.06,0,1.689-0.52,1.689-1.43c0-0.899-0.63-1.329-1.59-1.329
			c-0.379,0-0.67,0.04-0.819,0.07V425.81z"/>
	</g>
</g>
</svg>
