<?xml version="1.0" encoding="utf-8"?>
<!-- Generator: Adobe Illustrator 12.0.1, SVG Export Plug-In . SVG Version: 6.00 Build 51448)  -->
<!DOCTYPE svg PUBLIC "-//W3C//DTD SVG 1.1//EN" "http://www.w3.org/Graphics/SVG/1.1/DTD/svg11.dtd" [
	<!ENTITY ns_svg "http://www.w3.org/2000/svg">
	<!ENTITY ns_xlink "http://www.w3.org/1999/xlink">
]>
<svg  version="1.1" id="Layer_1" xmlns="&ns_svg;" xmlns:xlink="&ns_xlink;" width="467.333" height="226"
	 viewBox="0 0 467.333 226" overflow="visible" enable-background="new 0 0 467.333 226" xml:space="preserve">
<g>
	
		<radialGradient id="path16609_27_" cx="87.2393" cy="-521.3784" r="16.1858" gradientTransform="matrix(1.5933 0 0 0.6358 -73.3171 363.4738)" gradientUnits="userSpaceOnUse">
		<stop  offset="0" style="stop-color:#A2FF5F"/>
		<stop  offset="0.4082" style="stop-color:#A0FF5F"/>
		<stop  offset="0.5552" style="stop-color:#99FD5F"/>
		<stop  offset="0.66" style="stop-color:#8EFB5E"/>
		<stop  offset="0.7448" style="stop-color:#7DF85E"/>
		<stop  offset="0.8174" style="stop-color:#67F35D"/>
		<stop  offset="0.8817" style="stop-color:#4BEE5C"/>
		<stop  offset="0.9398" style="stop-color:#2BE85B"/>
		<stop  offset="0.9915" style="stop-color:#07E05A"/>
		<stop  offset="1" style="stop-color:#00DF5A"/>
	</radialGradient>
	<path id="path16609_7_" fill="url(#path16609_27_)" stroke="#000000" d="M90.997,31.98c0,5.786-11.338,10.478-25.314,10.478
		c-13.982,0-25.316-4.689-25.316-10.478S51.7,21.505,65.682,21.505C79.659,21.506,90.997,26.193,90.997,31.98z"/>
	<text transform="matrix(1 0 0 1 59.2344 34.9165)" font-family="'Myriad-Roman'" font-size="10">P</text>
	<text transform="matrix(0.7 0 0 0.7 64.5542 38.2466)" font-family="'Myriad-Roman'" font-size="10">b2</text>
</g>
<g>
	
		<radialGradient id="path16609_28_" cx="299.1816" cy="-521.3784" r="16.1858" gradientTransform="matrix(1.5933 0 0 0.6358 -73.3171 363.4738)" gradientUnits="userSpaceOnUse">
		<stop  offset="0" style="stop-color:#A2FF5F"/>
		<stop  offset="0.4082" style="stop-color:#A0FF5F"/>
		<stop  offset="0.5552" style="stop-color:#99FD5F"/>
		<stop  offset="0.66" style="stop-color:#8EFB5E"/>
		<stop  offset="0.7448" style="stop-color:#7DF85E"/>
		<stop  offset="0.8174" style="stop-color:#67F35D"/>
		<stop  offset="0.8817" style="stop-color:#4BEE5C"/>
		<stop  offset="0.9398" style="stop-color:#2BE85B"/>
		<stop  offset="0.9915" style="stop-color:#07E05A"/>
		<stop  offset="1" style="stop-color:#00DF5A"/>
	</radialGradient>
	<path id="path16609_2_" fill="url(#path16609_28_)" stroke="#000000" d="M428.683,31.98c0,5.786-11.338,10.478-25.314,10.478
		c-13.982,0-25.316-4.689-25.316-10.478s11.334-10.476,25.316-10.476C417.345,21.506,428.683,26.193,428.683,31.98z"/>
	<text transform="matrix(1 0 0 1 397.2354 34.9175)" font-family="'Myriad-Bold'" font-size="10">P</text>
	<text transform="matrix(0.7 0 0 0.7 403.0439 38.2476)" font-family="'Myriad-Bold'" font-size="10">t2</text>
</g>
<g>
	
		<radialGradient id="path16609_29_" cx="228.125" cy="-392.8013" r="16.186" gradientTransform="matrix(1.5933 0 0 0.6358 -73.3171 363.4738)" gradientUnits="userSpaceOnUse">
		<stop  offset="0" style="stop-color:#A2FF5F"/>
		<stop  offset="0.4082" style="stop-color:#A0FF5F"/>
		<stop  offset="0.5552" style="stop-color:#99FD5F"/>
		<stop  offset="0.66" style="stop-color:#8EFB5E"/>
		<stop  offset="0.7448" style="stop-color:#7DF85E"/>
		<stop  offset="0.8174" style="stop-color:#67F35D"/>
		<stop  offset="0.8817" style="stop-color:#4BEE5C"/>
		<stop  offset="0.9398" style="stop-color:#2BE85B"/>
		<stop  offset="0.9915" style="stop-color:#07E05A"/>
		<stop  offset="1" style="stop-color:#00DF5A"/>
	</radialGradient>
	<path id="path16609_3_" fill="url(#path16609_29_)" stroke="#000000" d="M315.47,113.73c0,5.786-11.338,10.478-25.314,10.478
		c-13.982,0-25.316-4.689-25.316-10.478s11.334-10.476,25.316-10.476C304.132,103.255,315.47,107.943,315.47,113.73z"/>
	<text transform="matrix(1 0 0 1 285.9639 116.6665)" font-family="'Myriad-Bold'" font-size="10">P</text>
	<text transform="matrix(0.7 0 0 0.7 291.7734 119.9966)" font-family="'Myriad-Bold'" font-size="10">t</text>
</g>
<g>
	
		<radialGradient id="path16609_30_" cx="299.1816" cy="-264.2231" r="16.186" gradientTransform="matrix(1.5933 0 0 0.6358 -73.3171 363.4738)" gradientUnits="userSpaceOnUse">
		<stop  offset="0" style="stop-color:#A2FF5F"/>
		<stop  offset="0.4082" style="stop-color:#A0FF5F"/>
		<stop  offset="0.5552" style="stop-color:#99FD5F"/>
		<stop  offset="0.66" style="stop-color:#8EFB5E"/>
		<stop  offset="0.7448" style="stop-color:#7DF85E"/>
		<stop  offset="0.8174" style="stop-color:#67F35D"/>
		<stop  offset="0.8817" style="stop-color:#4BEE5C"/>
		<stop  offset="0.9398" style="stop-color:#2BE85B"/>
		<stop  offset="0.9915" style="stop-color:#07E05A"/>
		<stop  offset="1" style="stop-color:#00DF5A"/>
	</radialGradient>
	<path id="path16609_4_" fill="url(#path16609_30_)" stroke="#000000" d="M428.683,195.48c0,5.786-11.338,10.478-25.314,10.478
		c-13.982,0-25.316-4.689-25.316-10.478s11.334-10.476,25.316-10.476C417.345,185.005,428.683,189.693,428.683,195.48z"/>
	<text transform="matrix(1 0 0 1 398.6143 198.4165)" font-family="'Myriad-Bold'" font-size="10">P</text>
	<text transform="matrix(0.7 0 0 0.7 404.4229 201.7466)" font-family="'Myriad-Bold'" font-size="10">a</text>
</g>
<g>
	
		<radialGradient id="path16609_31_" cx="157.7959" cy="-392.8013" r="16.186" gradientTransform="matrix(1.5933 0 0 0.6358 -73.3171 363.4738)" gradientUnits="userSpaceOnUse">
		<stop  offset="0" style="stop-color:#A2FF5F"/>
		<stop  offset="0.4082" style="stop-color:#A0FF5F"/>
		<stop  offset="0.5552" style="stop-color:#99FD5F"/>
		<stop  offset="0.66" style="stop-color:#8EFB5E"/>
		<stop  offset="0.7448" style="stop-color:#7DF85E"/>
		<stop  offset="0.8174" style="stop-color:#67F35D"/>
		<stop  offset="0.8817" style="stop-color:#4BEE5C"/>
		<stop  offset="0.9398" style="stop-color:#2BE85B"/>
		<stop  offset="0.9915" style="stop-color:#07E05A"/>
		<stop  offset="1" style="stop-color:#00DF5A"/>
	</radialGradient>
	<path id="path16609_5_" fill="url(#path16609_31_)" stroke="#000000" d="M203.414,113.73c0,5.786-11.338,10.478-25.314,10.478
		c-13.982,0-25.316-4.689-25.316-10.478s11.334-10.476,25.316-10.476C192.076,103.255,203.414,107.943,203.414,113.73z"/>
	<text transform="matrix(1 0 0 1 173.1006 116.6665)" font-family="'Myriad-Bold'" font-size="10">P</text>
	<text transform="matrix(0.7 0 0 0.7 178.9102 119.9966)" font-family="'Myriad-Bold'" font-size="10">b</text>
</g>
<g>
	
		<radialGradient id="path16609_32_" cx="87.2393" cy="-264.2231" r="16.186" gradientTransform="matrix(1.5933 0 0 0.6358 -73.3171 363.4738)" gradientUnits="userSpaceOnUse">
		<stop  offset="0" style="stop-color:#A2FF5F"/>
		<stop  offset="0.4082" style="stop-color:#A0FF5F"/>
		<stop  offset="0.5552" style="stop-color:#99FD5F"/>
		<stop  offset="0.66" style="stop-color:#8EFB5E"/>
		<stop  offset="0.7448" style="stop-color:#7DF85E"/>
		<stop  offset="0.8174" style="stop-color:#67F35D"/>
		<stop  offset="0.8817" style="stop-color:#4BEE5C"/>
		<stop  offset="0.9398" style="stop-color:#2BE85B"/>
		<stop  offset="0.9915" style="stop-color:#07E05A"/>
		<stop  offset="1" style="stop-color:#00DF5A"/>
	</radialGradient>
	<path id="path16609_6_" fill="url(#path16609_32_)" stroke="#000000" d="M90.997,195.48c0,5.786-11.338,10.478-25.314,10.478
		c-13.982,0-25.316-4.689-25.316-10.478s11.334-10.476,25.316-10.476C79.659,185.005,90.997,189.693,90.997,195.48z"/>
	<text transform="matrix(1 0 0 1 62.2031 198.4165)" font-family="'Myriad-Roman'" font-size="10">P</text>
	<text transform="matrix(0.7 0 0 0.7 67.5234 201.7466)" font-family="'Myriad-Roman'" font-size="10">i</text>
</g>
<g>
	
		<radialGradient id="path16609_33_" cx="193.2744" cy="-547.333" r="16.186" gradientTransform="matrix(1.5933 0 0 0.6358 -73.3171 363.4738)" gradientUnits="userSpaceOnUse">
		<stop  offset="0" style="stop-color:#A2FF5F"/>
		<stop  offset="0.4082" style="stop-color:#A0FF5F"/>
		<stop  offset="0.5552" style="stop-color:#99FD5F"/>
		<stop  offset="0.66" style="stop-color:#8EFB5E"/>
		<stop  offset="0.7448" style="stop-color:#7DF85E"/>
		<stop  offset="0.8174" style="stop-color:#67F35D"/>
		<stop  offset="0.8817" style="stop-color:#4BEE5C"/>
		<stop  offset="0.9398" style="stop-color:#2BE85B"/>
		<stop  offset="0.9915" style="stop-color:#07E05A"/>
		<stop  offset="1" style="stop-color:#00DF5A"/>
	</radialGradient>
	<path id="path16609_8_" fill="url(#path16609_33_)" stroke="#000000" d="M259.942,15.48c0,5.786-11.339,10.478-25.315,10.478
		c-13.982,0-25.316-4.689-25.316-10.478s11.334-10.476,25.316-10.476C248.604,5.005,259.942,9.693,259.942,15.48z"/>
	<text transform="matrix(1 0 0 1 226.7417 18.4165)" font-family="'Myriad-Roman'" font-size="10">PP1</text>
</g>
<g>
	
		<radialGradient id="path16609_34_" cx="193.2744" cy="-240.6309" r="16.186" gradientTransform="matrix(1.5933 0 0 0.6358 -73.3171 363.4738)" gradientUnits="userSpaceOnUse">
		<stop  offset="0" style="stop-color:#A2FF5F"/>
		<stop  offset="0.4082" style="stop-color:#A0FF5F"/>
		<stop  offset="0.5552" style="stop-color:#99FD5F"/>
		<stop  offset="0.66" style="stop-color:#8EFB5E"/>
		<stop  offset="0.7448" style="stop-color:#7DF85E"/>
		<stop  offset="0.8174" style="stop-color:#67F35D"/>
		<stop  offset="0.8817" style="stop-color:#4BEE5C"/>
		<stop  offset="0.9398" style="stop-color:#2BE85B"/>
		<stop  offset="0.9915" style="stop-color:#07E05A"/>
		<stop  offset="1" style="stop-color:#00DF5A"/>
	</radialGradient>
	<path id="path16609_9_" fill="url(#path16609_34_)" stroke="#000000" d="M259.942,210.48c0,5.786-11.338,10.478-25.314,10.478
		c-13.983,0-25.317-4.689-25.317-10.478s11.334-10.476,25.317-10.476C248.604,200.005,259.942,204.693,259.942,210.48z"/>
	<text transform="matrix(1 0 0 1 226.7422 213.4165)" font-family="'Myriad-Roman'" font-size="10">PP1</text>
</g>
<g>
	
		<radialGradient id="path16609_35_" cx="193.2744" cy="-419.9346" r="16.1858" gradientTransform="matrix(1.5933 0 0 0.6358 -73.3171 363.4738)" gradientUnits="userSpaceOnUse">
		<stop  offset="0" style="stop-color:#A2FF5F"/>
		<stop  offset="0.4082" style="stop-color:#A0FF5F"/>
		<stop  offset="0.5552" style="stop-color:#99FD5F"/>
		<stop  offset="0.66" style="stop-color:#8EFB5E"/>
		<stop  offset="0.7448" style="stop-color:#7DF85E"/>
		<stop  offset="0.8174" style="stop-color:#67F35D"/>
		<stop  offset="0.8817" style="stop-color:#4BEE5C"/>
		<stop  offset="0.9398" style="stop-color:#2BE85B"/>
		<stop  offset="0.9915" style="stop-color:#07E05A"/>
		<stop  offset="1" style="stop-color:#00DF5A"/>
	</radialGradient>
	<path id="path16609_10_" fill="url(#path16609_35_)" stroke="#000000" d="M259.942,96.48c0,5.786-11.338,10.478-25.314,10.478
		c-13.983,0-25.317-4.689-25.317-10.478s11.334-10.476,25.317-10.476C248.604,86.005,259.942,90.693,259.942,96.48z"/>
	<text transform="matrix(1 0 0 1 226.7422 99.4165)" font-family="'Myriad-Roman'" font-size="10">PP1</text>
</g>
<g>
	<g>
		
			<radialGradient id="XMLID_1_" cx="134.4868" cy="50.7349" r="9.5" gradientTransform="matrix(0.9858 0.0024 -0.0024 0.9859 3.8157 1.3976)" gradientUnits="userSpaceOnUse">
			<stop  offset="0" style="stop-color:#FFFCDF"/>
			<stop  offset="0.1203" style="stop-color:#FFFBDA"/>
			<stop  offset="0.2662" style="stop-color:#FFF9CB"/>
			<stop  offset="0.4255" style="stop-color:#FFF6B2"/>
			<stop  offset="0.5943" style="stop-color:#FFF090"/>
			<stop  offset="0.7706" style="stop-color:#FFEA64"/>
			<stop  offset="0.9506" style="stop-color:#FFE22F"/>
			<stop  offset="1" style="stop-color:#FFE01F"/>
		</radialGradient>
		<circle fill="url(#XMLID_1_)" stroke="#000000" stroke-width="0.9921" cx="136.277" cy="51.739" r="9.366"/>
		<text transform="matrix(1 0 0 1 128.0054 55.8784)" font-family="'Myriad-Roman'" font-size="9">Ca</text>
		<text transform="matrix(0.7 0 0 0.7 137.563 52.8813)" font-family="'Myriad-Roman'" font-size="9">2+</text>
	</g>
	<text transform="matrix(1 0 0 1 113.8315 54.3789)" font-family="'Myriad-Roman'" font-size="9">2 x</text>
</g>
<g>
	<g>
		
			<radialGradient id="path16609_1_" cx="65.1855" cy="-394.3735" r="16.1858" gradientTransform="matrix(1.5933 0 0 0.6358 -73.3171 363.4738)" gradientUnits="userSpaceOnUse">
			<stop  offset="0" style="stop-color:#A2FF5F"/>
			<stop  offset="0.4082" style="stop-color:#A0FF5F"/>
			<stop  offset="0.5552" style="stop-color:#99FD5F"/>
			<stop  offset="0.66" style="stop-color:#8EFB5E"/>
			<stop  offset="0.7448" style="stop-color:#7DF85E"/>
			<stop  offset="0.8174" style="stop-color:#67F35D"/>
			<stop  offset="0.8817" style="stop-color:#4BEE5C"/>
			<stop  offset="0.9398" style="stop-color:#2BE85B"/>
			<stop  offset="0.9915" style="stop-color:#07E05A"/>
			<stop  offset="1" style="stop-color:#00DF5A"/>
		</radialGradient>
		<path id="path16609_12_" fill="url(#path16609_1_)" stroke="#000000" d="M55.858,112.731c0,5.785-11.338,10.477-25.315,10.477
			c-13.981,0-25.315-4.689-25.315-10.477c0-5.789,11.334-10.477,25.315-10.477C44.521,102.256,55.858,106.944,55.858,112.731z"/>
		<text transform="matrix(1 0 0 1 14.1074 115.6675)" font-family="'Myriad-Roman'" font-size="10">Ca</text>
		<text transform="matrix(0.7 0 0 0.7 24.7271 118.9976)" font-family="'Myriad-Roman'" font-size="10">2</text>
		<text transform="matrix(1 0 0 1 28.3179 115.6675)" font-family="'Myriad-Roman'" font-size="10">CaM</text>
	</g>
</g>
<g>
	<g>
		
			<radialGradient id="path16609_15_" cx="146.7266" cy="-326.0898" r="16.186" gradientTransform="matrix(1.5933 0 0 0.6358 -73.3171 363.4738)" gradientUnits="userSpaceOnUse">
			<stop  offset="0" style="stop-color:#A2FF5F"/>
			<stop  offset="0.4082" style="stop-color:#A0FF5F"/>
			<stop  offset="0.5552" style="stop-color:#99FD5F"/>
			<stop  offset="0.66" style="stop-color:#8EFB5E"/>
			<stop  offset="0.7448" style="stop-color:#7DF85E"/>
			<stop  offset="0.8174" style="stop-color:#67F35D"/>
			<stop  offset="0.8817" style="stop-color:#4BEE5C"/>
			<stop  offset="0.9398" style="stop-color:#2BE85B"/>
			<stop  offset="0.9915" style="stop-color:#07E05A"/>
			<stop  offset="1" style="stop-color:#00DF5A"/>
		</radialGradient>
		<path id="path16609_11_" fill="url(#path16609_15_)" stroke="#000000" d="M185.774,156.146c0,5.785-11.338,10.477-25.315,10.477
			c-13.981,0-25.315-4.689-25.315-10.477c0-5.789,11.334-10.477,25.315-10.477C174.437,145.671,185.774,150.359,185.774,156.146z"/>
		<text transform="matrix(1 0 0 1 144.0234 159.0825)" font-family="'Myriad-Roman'" font-size="10">Ca</text>
		<text transform="matrix(0.7 0 0 0.7 154.6431 162.4126)" font-family="'Myriad-Roman'" font-size="10">4</text>
		<text transform="matrix(1 0 0 1 158.2339 159.0825)" font-family="'Myriad-Roman'" font-size="10">CaM</text>
	</g>
</g>
<g>
	<g>
		
			<radialGradient id="XMLID_2_" cx="346.4287" cy="50.2139" r="9.5005" gradientTransform="matrix(0.9858 0.0024 -0.0024 0.9859 3.8157 1.3976)" gradientUnits="userSpaceOnUse">
			<stop  offset="0" style="stop-color:#FFFCDF"/>
			<stop  offset="0.1203" style="stop-color:#FFFBDA"/>
			<stop  offset="0.2662" style="stop-color:#FFF9CB"/>
			<stop  offset="0.4255" style="stop-color:#FFF6B2"/>
			<stop  offset="0.5943" style="stop-color:#FFF090"/>
			<stop  offset="0.7706" style="stop-color:#FFEA64"/>
			<stop  offset="0.9506" style="stop-color:#FFE22F"/>
			<stop  offset="1" style="stop-color:#FFE01F"/>
		</radialGradient>
		<circle fill="url(#XMLID_2_)" stroke="#000000" stroke-width="0.9921" cx="345.222" cy="51.739" r="9.366"/>
		<text transform="matrix(1 0 0 1 336.9502 55.8784)" font-family="'Myriad-Roman'" font-size="9">Ca</text>
		<text transform="matrix(0.7 0 0 0.7 346.5078 52.8813)" font-family="'Myriad-Roman'" font-size="9">2+</text>
	</g>
	<text transform="matrix(1 0 0 1 322.7764 54.3789)" font-family="'Myriad-Roman'" font-size="9">2 x</text>
</g>
<g>
	<g>
		<line fill="none" stroke="#000000" x1="378.333" y1="31.667" x2="96.833" y2="31.667"/>
		<polygon points="99.642,27.963 98.069,31.667 99.642,35.371 90.864,31.667 		"/>
	</g>
</g>
<g>
	<g>
		<line fill="none" stroke="#000000" x1="378.333" y1="194.667" x2="96.833" y2="194.667"/>
		<polygon points="99.642,190.963 98.069,194.667 99.642,198.371 90.864,194.667 		"/>
	</g>
</g>
<g>
	<g>
		<g>
			<line fill="none" stroke="#000000" x1="68.556" y1="42.23" x2="68.556" y2="178.917"/>
			<polygon points="64.853,176.108 68.556,177.68 72.26,176.108 68.556,184.885 			"/>
		</g>
	</g>
	<g>
		<g>
			<line fill="none" stroke="#000000" x1="62.806" y1="185.167" x2="62.806" y2="48.48"/>
			<polygon points="66.509,51.289 62.806,49.716 59.102,51.289 62.806,42.511 			"/>
		</g>
	</g>
</g>
<g>
	<g>
		<g>
			<line fill="none" stroke="#000000" x1="400.492" y1="42.23" x2="400.492" y2="178.917"/>
			<polygon points="396.789,176.108 400.492,177.68 404.196,176.108 400.492,184.885 			"/>
		</g>
	</g>
	<g>
		<g>
			<line fill="none" stroke="#000000" x1="406.242" y1="185.167" x2="406.242" y2="48.48"/>
			<polygon points="409.945,51.289 406.242,49.716 402.538,51.289 406.242,42.511 			"/>
		</g>
	</g>
</g>
<g>
	<g>
		<g>
			<line fill="none" stroke="#000000" x1="87.707" y1="37.333" x2="159.083" y2="101.167"/>
			<polygon points="154.521,102.055 158.162,100.343 159.459,96.533 163.532,105.146 			"/>
		</g>
	</g>
	<g>
		<g>
			<line fill="none" stroke="#000000" x1="156.635" y1="108.167" x2="85.083" y2="45.167"/>
			<polygon points="89.638,44.243 86.011,45.983 84.743,49.803 80.603,41.222 			"/>
		</g>
	</g>
</g>
<g>
	<g>
		<g>
			<line fill="none" stroke="#000000" x1="87.707" y1="190.167" x2="159.083" y2="126.334"/>
			<polygon points="159.458,130.967 158.162,127.159 154.521,125.446 163.532,122.356 			"/>
		</g>
	</g>
	<g>
		<g>
			<line fill="none" stroke="#000000" x1="156.635" y1="119.334" x2="85.083" y2="182.334"/>
			<polygon points="84.744,177.699 86.011,181.518 89.639,183.258 80.603,186.279 			"/>
		</g>
	</g>
</g>
<g>
	<g>
		<g>
			<line fill="none" stroke="#000000" x1="380.46" y1="37.333" x2="309.083" y2="101.167"/>
			<polygon points="308.708,96.534 310.004,100.342 313.646,102.055 304.634,105.146 			"/>
		</g>
	</g>
	<g>
		<g>
			<line fill="none" stroke="#000000" x1="311.531" y1="108.167" x2="383.083" y2="45.167"/>
			<polygon points="383.423,49.802 382.155,45.983 378.527,44.243 387.563,41.222 			"/>
		</g>
	</g>
</g>
<g>
	<g>
		<g>
			<line fill="none" stroke="#000000" x1="380.46" y1="190.167" x2="309.083" y2="126.334"/>
			<polygon points="313.646,125.447 310.005,127.159 308.707,130.967 304.634,122.355 			"/>
		</g>
	</g>
	<g>
		<g>
			<line fill="none" stroke="#000000" x1="311.531" y1="119.334" x2="383.083" y2="182.334"/>
			<polygon points="378.528,183.257 382.155,181.518 383.423,177.699 387.563,186.279 			"/>
		</g>
	</g>
</g>
<g>
	<g>
		
			<radialGradient id="path16609_16_" cx="238.5679" cy="-326.0898" r="16.1858" gradientTransform="matrix(1.5933 0 0 0.6358 -73.3171 363.4738)" gradientUnits="userSpaceOnUse">
			<stop  offset="0" style="stop-color:#A2FF5F"/>
			<stop  offset="0.4082" style="stop-color:#A0FF5F"/>
			<stop  offset="0.5552" style="stop-color:#99FD5F"/>
			<stop  offset="0.66" style="stop-color:#8EFB5E"/>
			<stop  offset="0.7448" style="stop-color:#7DF85E"/>
			<stop  offset="0.8174" style="stop-color:#67F35D"/>
			<stop  offset="0.8817" style="stop-color:#4BEE5C"/>
			<stop  offset="0.9398" style="stop-color:#2BE85B"/>
			<stop  offset="0.9915" style="stop-color:#07E05A"/>
			<stop  offset="1" style="stop-color:#00DF5A"/>
		</radialGradient>
		<path id="path16609_13_" fill="url(#path16609_16_)" stroke="#000000" d="M332.108,156.146c0,5.785-11.338,10.477-25.315,10.477
			c-13.981,0-25.315-4.689-25.315-10.477c0-5.789,11.334-10.477,25.315-10.477C320.771,145.671,332.108,150.359,332.108,156.146z"/>
		<text transform="matrix(1 0 0 1 290.3574 159.0825)" font-family="'Myriad-Roman'" font-size="10">Ca</text>
		<text transform="matrix(0.7 0 0 0.7 300.9775 162.4126)" font-family="'Myriad-Roman'" font-size="10">4</text>
		<text transform="matrix(1 0 0 1 304.5674 159.0825)" font-family="'Myriad-Roman'" font-size="10">CaM</text>
	</g>
</g>
<g>
	<g>
		
			<radialGradient id="path16609_17_" cx="320.4238" cy="-394.374" r="16.186" gradientTransform="matrix(1.5933 0 0 0.6358 -73.3171 363.4738)" gradientUnits="userSpaceOnUse">
			<stop  offset="0" style="stop-color:#A2FF5F"/>
			<stop  offset="0.4082" style="stop-color:#A0FF5F"/>
			<stop  offset="0.5552" style="stop-color:#99FD5F"/>
			<stop  offset="0.66" style="stop-color:#8EFB5E"/>
			<stop  offset="0.7448" style="stop-color:#7DF85E"/>
			<stop  offset="0.8174" style="stop-color:#67F35D"/>
			<stop  offset="0.8817" style="stop-color:#4BEE5C"/>
			<stop  offset="0.9398" style="stop-color:#2BE85B"/>
			<stop  offset="0.9915" style="stop-color:#07E05A"/>
			<stop  offset="1" style="stop-color:#00DF5A"/>
		</radialGradient>
		<path id="path16609_14_" fill="url(#path16609_17_)" stroke="#000000" d="M462.524,112.731c0,5.785-11.338,10.477-25.314,10.477
			c-13.982,0-25.316-4.689-25.316-10.477c0-5.789,11.334-10.477,25.316-10.477C451.187,102.256,462.524,106.944,462.524,112.731z"/>
		<text transform="matrix(1 0 0 1 420.7744 115.6675)" font-family="'Myriad-Roman'" font-size="10">Ca</text>
		<text transform="matrix(0.7 0 0 0.7 431.3936 118.9976)" font-family="'Myriad-Roman'" font-size="10">2</text>
		<text transform="matrix(1 0 0 1 434.9844 115.6675)" font-family="'Myriad-Roman'" font-size="10">CaM</text>
	</g>
</g>
<g>
	<g>
		<g>
			<line fill="none" stroke="#000000" x1="204.149" y1="116.906" x2="259.071" y2="116.906"/>
			<polygon points="256.263,120.609 257.835,116.906 256.263,113.202 265.04,116.906 			"/>
		</g>
	</g>
	<g>
		<g>
			<line fill="none" stroke="#000000" x1="264.583" y1="111.156" x2="209.661" y2="111.156"/>
			<polygon points="212.47,107.453 210.897,111.156 212.47,114.86 203.692,111.156 			"/>
		</g>
	</g>
</g>
</svg>
