<?xml version="1.0" encoding="utf-8"?>
<!-- Generator: Adobe Illustrator 12.0.1, SVG Export Plug-In . SVG Version: 6.00 Build 51448)  -->
<!DOCTYPE svg PUBLIC "-//W3C//DTD SVG 1.1//EN" "http://www.w3.org/Graphics/SVG/1.1/DTD/svg11.dtd" [
	<!ENTITY ns_svg "http://www.w3.org/2000/svg">
	<!ENTITY ns_xlink "http://www.w3.org/1999/xlink">
]>
<svg  version="1.1" id="Layer_1" xmlns="&ns_svg;" xmlns:xlink="&ns_xlink;" width="481" height="201" viewBox="0 0 481 201"
	 overflow="visible" enable-background="new 0 0 481 201" xml:space="preserve">
<g>
	
		<radialGradient id="path16609_25_" cx="87.6948" cy="-517.4043" r="16.1858" gradientTransform="matrix(1.5933 0 0 0.6358 -61.8468 355.9471)" gradientUnits="userSpaceOnUse">
		<stop  offset="0" style="stop-color:#A2FF5F"/>
		<stop  offset="0.4082" style="stop-color:#A0FF5F"/>
		<stop  offset="0.5552" style="stop-color:#99FD5F"/>
		<stop  offset="0.66" style="stop-color:#8EFB5E"/>
		<stop  offset="0.7448" style="stop-color:#7DF85E"/>
		<stop  offset="0.8174" style="stop-color:#67F35D"/>
		<stop  offset="0.8817" style="stop-color:#4BEE5C"/>
		<stop  offset="0.9398" style="stop-color:#2BE85B"/>
		<stop  offset="0.9915" style="stop-color:#07E05A"/>
		<stop  offset="1" style="stop-color:#00DF5A"/>
	</radialGradient>
	<path id="path16609_7_" fill="url(#path16609_25_)" stroke="#000000" d="M103.192,26.98c0,5.786-11.338,10.478-25.314,10.478
		c-13.982,0-25.316-4.689-25.316-10.478s11.334-10.476,25.316-10.476C91.854,16.506,103.192,21.193,103.192,26.98z"/>
	<text transform="matrix(1 0 0 1 68.5469 29.917)" font-family="'Myriad-Roman'" font-size="10">CaM</text>
</g>
<g>
	<g>
		
			<radialGradient id="XMLID_1_" cx="149.8096" cy="95.915" r="9.5" gradientTransform="matrix(0.9858 0.0024 -0.0024 0.9859 3.492 1.1521)" gradientUnits="userSpaceOnUse">
			<stop  offset="0" style="stop-color:#FFFCDF"/>
			<stop  offset="0.1203" style="stop-color:#FFFBDA"/>
			<stop  offset="0.2662" style="stop-color:#FFF9CB"/>
			<stop  offset="0.4255" style="stop-color:#FFF6B2"/>
			<stop  offset="0.5943" style="stop-color:#FFF090"/>
			<stop  offset="0.7706" style="stop-color:#FFEA64"/>
			<stop  offset="0.9506" style="stop-color:#FFE22F"/>
			<stop  offset="1" style="stop-color:#FFE01F"/>
		</radialGradient>
		<circle fill="url(#XMLID_1_)" stroke="#000000" stroke-width="0.9921" cx="150.953" cy="96.072" r="9.366"/>
		<text transform="matrix(1 0 0 1 142.6807 100.2119)" font-family="'Myriad-Roman'" font-size="9">Ca</text>
		<text transform="matrix(0.7 0 0 0.7 152.2383 97.2148)" font-family="'Myriad-Roman'" font-size="9">2+</text>
	</g>
	<text transform="matrix(1 0 0 1 128.5068 98.7129)" font-family="'Myriad-Roman'" font-size="9">2 x</text>
</g>
<g>
	<g>
		
			<radialGradient id="path16609_1_" cx="346.1797" cy="-258.916" r="16.1858" gradientTransform="matrix(1.1384 0 0 0.4543 7.9305 300.7917)" gradientUnits="userSpaceOnUse">
			<stop  offset="0" style="stop-color:#FFFCDF"/>
			<stop  offset="0.1203" style="stop-color:#FFFBDA"/>
			<stop  offset="0.2662" style="stop-color:#FFF9CB"/>
			<stop  offset="0.4255" style="stop-color:#FFF6B2"/>
			<stop  offset="0.5943" style="stop-color:#FFF090"/>
			<stop  offset="0.7706" style="stop-color:#FFEA64"/>
			<stop  offset="0.9506" style="stop-color:#FFE22F"/>
			<stop  offset="1" style="stop-color:#FFE01F"/>
		</radialGradient>
		<path id="path16609_8_" fill="url(#path16609_1_)" stroke="#000000" d="M420.119,183.169c0,4.136-8.101,7.487-18.087,7.487
			c-9.991,0-18.089-3.351-18.089-7.487c0-4.135,8.098-7.483,18.089-7.483C412.019,175.686,420.119,179.034,420.119,183.169z"/>
		<text transform="matrix(1 0 0 1 393.4561 186.1064)" font-family="'Myriad-Roman'" font-size="10">Buff</text>
	</g>
	<g>
		
			<radialGradient id="XMLID_2_" cx="433.6318" cy="152.4668" r="9.4995" gradientTransform="matrix(0.9858 0.0024 -0.0024 0.9859 3.492 1.1521)" gradientUnits="userSpaceOnUse">
			<stop  offset="0" style="stop-color:#FFFCDF"/>
			<stop  offset="0.1203" style="stop-color:#FFFBDA"/>
			<stop  offset="0.2662" style="stop-color:#FFF9CB"/>
			<stop  offset="0.4255" style="stop-color:#FFF6B2"/>
			<stop  offset="0.5943" style="stop-color:#FFF090"/>
			<stop  offset="0.7706" style="stop-color:#FFEA64"/>
			<stop  offset="0.9506" style="stop-color:#FFE22F"/>
			<stop  offset="1" style="stop-color:#FFE01F"/>
		</radialGradient>
		<circle fill="url(#XMLID_2_)" stroke="#000000" stroke-width="0.9921" cx="430.618" cy="152.512" r="9.366"/>
		<text transform="matrix(1 0 0 1 422.3457 156.6514)" font-family="'Myriad-Roman'" font-size="9">Ca</text>
		<text transform="matrix(0.7 0 0 0.7 431.9043 153.6543)" font-family="'Myriad-Roman'" font-size="9">2+</text>
	</g>
	<g>
		
			<radialGradient id="XMLID_3_" cx="433.6943" cy="177.8242" r="9.5" gradientTransform="matrix(0.9858 0.0024 -0.0024 0.9859 3.492 1.1521)" gradientUnits="userSpaceOnUse">
			<stop  offset="0" style="stop-color:#FFFCDF"/>
			<stop  offset="0.1203" style="stop-color:#FFFBDA"/>
			<stop  offset="0.2662" style="stop-color:#FFF9CB"/>
			<stop  offset="0.4255" style="stop-color:#FFF6B2"/>
			<stop  offset="0.5943" style="stop-color:#FFF090"/>
			<stop  offset="0.7706" style="stop-color:#FFEA64"/>
			<stop  offset="0.9506" style="stop-color:#FFE22F"/>
			<stop  offset="1" style="stop-color:#FFE01F"/>
		</radialGradient>
		<circle fill="url(#XMLID_3_)" stroke="#000000" stroke-width="0.9921" cx="430.618" cy="177.512" r="9.366"/>
		<text transform="matrix(1 0 0 1 422.3457 181.6514)" font-family="'Myriad-Roman'" font-size="9">Ca</text>
		<text transform="matrix(0.7 0 0 0.7 431.9043 178.6543)" font-family="'Myriad-Roman'" font-size="9">2+</text>
	</g>
	<g>
		
			<radialGradient id="path16609_2_" cx="291.1514" cy="-300.3091" r="16.1858" gradientTransform="matrix(1.5933 0 0 0.6358 -61.8468 355.9471)" gradientUnits="userSpaceOnUse">
			<stop  offset="0" style="stop-color:#A2FF5F"/>
			<stop  offset="0.4082" style="stop-color:#A0FF5F"/>
			<stop  offset="0.5552" style="stop-color:#99FD5F"/>
			<stop  offset="0.66" style="stop-color:#8EFB5E"/>
			<stop  offset="0.7448" style="stop-color:#7DF85E"/>
			<stop  offset="0.8174" style="stop-color:#67F35D"/>
			<stop  offset="0.8817" style="stop-color:#4BEE5C"/>
			<stop  offset="0.9398" style="stop-color:#2BE85B"/>
			<stop  offset="0.9915" style="stop-color:#07E05A"/>
			<stop  offset="1" style="stop-color:#00DF5A"/>
		</radialGradient>
		<path id="path16609_10_" fill="url(#path16609_2_)" stroke="#000000" d="M427.358,165.011c0,5.785-11.338,10.477-25.315,10.477
			c-13.981,0-25.315-4.689-25.315-10.477c0-5.789,11.334-10.477,25.315-10.477C416.021,154.536,427.358,159.224,427.358,165.011z"/>
		<text transform="matrix(1 0 0 1 392.7129 167.9473)" font-family="'Myriad-Roman'" font-size="10">CaM</text>
	</g>
	<g>
		
			<radialGradient id="XMLID_4_" cx="375.4756" cy="152.6094" r="9.4995" gradientTransform="matrix(0.9858 0.0024 -0.0024 0.9859 3.492 1.1521)" gradientUnits="userSpaceOnUse">
			<stop  offset="0" style="stop-color:#FFFCDF"/>
			<stop  offset="0.1203" style="stop-color:#FFFBDA"/>
			<stop  offset="0.2662" style="stop-color:#FFF9CB"/>
			<stop  offset="0.4255" style="stop-color:#FFF6B2"/>
			<stop  offset="0.5943" style="stop-color:#FFF090"/>
			<stop  offset="0.7706" style="stop-color:#FFEA64"/>
			<stop  offset="0.9506" style="stop-color:#FFE22F"/>
			<stop  offset="1" style="stop-color:#FFE01F"/>
		</radialGradient>
		<circle fill="url(#XMLID_4_)" stroke="#000000" stroke-width="0.9921" cx="373.285" cy="152.511" r="9.366"/>
		<text transform="matrix(1 0 0 1 365.0137 156.6504)" font-family="'Myriad-Roman'" font-size="9">Ca</text>
		<text transform="matrix(0.7 0 0 0.7 374.5703 153.6533)" font-family="'Myriad-Roman'" font-size="9">2+</text>
	</g>
	<g>
		
			<radialGradient id="XMLID_5_" cx="375.5391" cy="177.9668" r="9.5" gradientTransform="matrix(0.9858 0.0024 -0.0024 0.9859 3.492 1.1521)" gradientUnits="userSpaceOnUse">
			<stop  offset="0" style="stop-color:#FFFCDF"/>
			<stop  offset="0.1203" style="stop-color:#FFFBDA"/>
			<stop  offset="0.2662" style="stop-color:#FFF9CB"/>
			<stop  offset="0.4255" style="stop-color:#FFF6B2"/>
			<stop  offset="0.5943" style="stop-color:#FFF090"/>
			<stop  offset="0.7706" style="stop-color:#FFEA64"/>
			<stop  offset="0.9506" style="stop-color:#FFE22F"/>
			<stop  offset="1" style="stop-color:#FFE01F"/>
		</radialGradient>
		<circle fill="url(#XMLID_5_)" stroke="#000000" stroke-width="0.9921" cx="373.285" cy="177.511" r="9.366"/>
		<text transform="matrix(1 0 0 1 365.0137 181.6504)" font-family="'Myriad-Roman'" font-size="9">Ca</text>
		<text transform="matrix(0.7 0 0 0.7 374.5703 178.6533)" font-family="'Myriad-Roman'" font-size="9">2+</text>
	</g>
</g>
<g>
	<g>
		
			<radialGradient id="path16609_4_" cx="203.7339" cy="-259.6489" r="16.1853" gradientTransform="matrix(1.1384 0 0 0.4543 7.9305 300.7917)" gradientUnits="userSpaceOnUse">
			<stop  offset="0" style="stop-color:#FFFCDF"/>
			<stop  offset="0.1203" style="stop-color:#FFFBDA"/>
			<stop  offset="0.2662" style="stop-color:#FFF9CB"/>
			<stop  offset="0.4255" style="stop-color:#FFF6B2"/>
			<stop  offset="0.5943" style="stop-color:#FFF090"/>
			<stop  offset="0.7706" style="stop-color:#FFEA64"/>
			<stop  offset="0.9506" style="stop-color:#FFE22F"/>
			<stop  offset="1" style="stop-color:#FFE01F"/>
		</radialGradient>
		<path id="path16609_12_" fill="url(#path16609_4_)" stroke="#000000" d="M257.953,182.836c0,4.136-8.101,7.487-18.087,7.487
			c-9.991,0-18.089-3.351-18.089-7.487c0-4.135,8.098-7.483,18.089-7.483C249.853,175.353,257.953,178.701,257.953,182.836z"/>
		<text transform="matrix(1 0 0 1 231.2905 185.7734)" font-family="'Myriad-Roman'" font-size="10">Buff</text>
	</g>
	<g>
		
			<radialGradient id="path16609_15_" cx="189.3696" cy="-300.8325" r="16.1858" gradientTransform="matrix(1.5933 0 0 0.6358 -61.8468 355.9471)" gradientUnits="userSpaceOnUse">
			<stop  offset="0" style="stop-color:#A2FF5F"/>
			<stop  offset="0.4082" style="stop-color:#A0FF5F"/>
			<stop  offset="0.5552" style="stop-color:#99FD5F"/>
			<stop  offset="0.66" style="stop-color:#8EFB5E"/>
			<stop  offset="0.7448" style="stop-color:#7DF85E"/>
			<stop  offset="0.8174" style="stop-color:#67F35D"/>
			<stop  offset="0.8817" style="stop-color:#4BEE5C"/>
			<stop  offset="0.9398" style="stop-color:#2BE85B"/>
			<stop  offset="0.9915" style="stop-color:#07E05A"/>
			<stop  offset="1" style="stop-color:#00DF5A"/>
		</radialGradient>
		<path id="path16609_11_" fill="url(#path16609_15_)" stroke="#000000" d="M265.192,164.678c0,5.785-11.338,10.477-25.315,10.477
			c-13.981,0-25.315-4.689-25.315-10.477c0-5.789,11.334-10.477,25.315-10.477C253.854,154.203,265.192,158.891,265.192,164.678z"/>
		<text transform="matrix(1 0 0 1 230.5464 167.6143)" font-family="'Myriad-Roman'" font-size="10">CaM</text>
	</g>
	<g>
		
			<radialGradient id="XMLID_6_" cx="210.981" cy="152.6758" r="9.4995" gradientTransform="matrix(0.9858 0.0024 -0.0024 0.9859 3.492 1.1521)" gradientUnits="userSpaceOnUse">
			<stop  offset="0" style="stop-color:#FFFCDF"/>
			<stop  offset="0.1203" style="stop-color:#FFFBDA"/>
			<stop  offset="0.2662" style="stop-color:#FFF9CB"/>
			<stop  offset="0.4255" style="stop-color:#FFF6B2"/>
			<stop  offset="0.5943" style="stop-color:#FFF090"/>
			<stop  offset="0.7706" style="stop-color:#FFEA64"/>
			<stop  offset="0.9506" style="stop-color:#FFE22F"/>
			<stop  offset="1" style="stop-color:#FFE01F"/>
		</radialGradient>
		<circle fill="url(#XMLID_6_)" stroke="#000000" stroke-width="0.9921" cx="211.119" cy="152.178" r="9.366"/>
		<text transform="matrix(1 0 0 1 202.8472 156.3174)" font-family="'Myriad-Roman'" font-size="9">Ca</text>
		<text transform="matrix(0.7 0 0 0.7 212.4048 153.3203)" font-family="'Myriad-Roman'" font-size="9">2+</text>
	</g>
	<g>
		
			<radialGradient id="XMLID_7_" cx="211.0454" cy="178.0342" r="9.5" gradientTransform="matrix(0.9858 0.0024 -0.0024 0.9859 3.492 1.1521)" gradientUnits="userSpaceOnUse">
			<stop  offset="0" style="stop-color:#FFFCDF"/>
			<stop  offset="0.1203" style="stop-color:#FFFBDA"/>
			<stop  offset="0.2662" style="stop-color:#FFF9CB"/>
			<stop  offset="0.4255" style="stop-color:#FFF6B2"/>
			<stop  offset="0.5943" style="stop-color:#FFF090"/>
			<stop  offset="0.7706" style="stop-color:#FFEA64"/>
			<stop  offset="0.9506" style="stop-color:#FFE22F"/>
			<stop  offset="1" style="stop-color:#FFE01F"/>
		</radialGradient>
		<circle fill="url(#XMLID_7_)" stroke="#000000" stroke-width="0.9921" cx="211.119" cy="177.178" r="9.366"/>
		<text transform="matrix(1 0 0 1 202.8472 181.3174)" font-family="'Myriad-Roman'" font-size="9">Ca</text>
		<text transform="matrix(0.7 0 0 0.7 212.4048 178.3203)" font-family="'Myriad-Roman'" font-size="9">2+</text>
	</g>
</g>
<g>
	<g>
		
			<radialGradient id="path16609_17_" cx="61.4312" cy="-258.1807" r="16.1858" gradientTransform="matrix(1.1384 0 0 0.4543 7.9305 300.7917)" gradientUnits="userSpaceOnUse">
			<stop  offset="0" style="stop-color:#FFFCDF"/>
			<stop  offset="0.1203" style="stop-color:#FFFBDA"/>
			<stop  offset="0.2662" style="stop-color:#FFF9CB"/>
			<stop  offset="0.4255" style="stop-color:#FFF6B2"/>
			<stop  offset="0.5943" style="stop-color:#FFF090"/>
			<stop  offset="0.7706" style="stop-color:#FFEA64"/>
			<stop  offset="0.9506" style="stop-color:#FFE22F"/>
			<stop  offset="1" style="stop-color:#FFE01F"/>
		</radialGradient>
		<path id="path16609_14_" fill="url(#path16609_17_)" stroke="#000000" d="M95.954,183.503c0,4.136-8.102,7.487-18.088,7.487
			c-9.99,0-18.088-3.351-18.088-7.487c0-4.135,8.098-7.483,18.088-7.483C87.853,176.02,95.954,179.368,95.954,183.503z"/>
		<text transform="matrix(1 0 0 1 69.291 186.4404)" font-family="'Myriad-Roman'" font-size="10">Buff</text>
	</g>
	<g>
		
			<radialGradient id="path16609_18_" cx="87.6948" cy="-299.7837" r="16.1858" gradientTransform="matrix(1.5933 0 0 0.6358 -61.8468 355.9471)" gradientUnits="userSpaceOnUse">
			<stop  offset="0" style="stop-color:#A2FF5F"/>
			<stop  offset="0.4082" style="stop-color:#A0FF5F"/>
			<stop  offset="0.5552" style="stop-color:#99FD5F"/>
			<stop  offset="0.66" style="stop-color:#8EFB5E"/>
			<stop  offset="0.7448" style="stop-color:#7DF85E"/>
			<stop  offset="0.8174" style="stop-color:#67F35D"/>
			<stop  offset="0.8817" style="stop-color:#4BEE5C"/>
			<stop  offset="0.9398" style="stop-color:#2BE85B"/>
			<stop  offset="0.9915" style="stop-color:#07E05A"/>
			<stop  offset="1" style="stop-color:#00DF5A"/>
		</radialGradient>
		<path id="path16609_13_" fill="url(#path16609_18_)" stroke="#000000" d="M103.192,165.345c0,5.785-11.338,10.477-25.314,10.477
			c-13.982,0-25.316-4.689-25.316-10.477c0-5.789,11.334-10.477,25.316-10.477C91.854,154.87,103.192,159.558,103.192,165.345z"/>
		<text transform="matrix(1 0 0 1 68.5469 168.2813)" font-family="'Myriad-Roman'" font-size="10">CaM</text>
	</g>
</g>
<g>
	<g>
		
			<radialGradient id="path16609_19_" cx="189.5869" cy="-517.4058" r="16.186" gradientTransform="matrix(1.5933 0 0 0.6358 -61.8468 355.9471)" gradientUnits="userSpaceOnUse">
			<stop  offset="0" style="stop-color:#A2FF5F"/>
			<stop  offset="0.4082" style="stop-color:#A0FF5F"/>
			<stop  offset="0.5552" style="stop-color:#99FD5F"/>
			<stop  offset="0.66" style="stop-color:#8EFB5E"/>
			<stop  offset="0.7448" style="stop-color:#7DF85E"/>
			<stop  offset="0.8174" style="stop-color:#67F35D"/>
			<stop  offset="0.8817" style="stop-color:#4BEE5C"/>
			<stop  offset="0.9398" style="stop-color:#2BE85B"/>
			<stop  offset="0.9915" style="stop-color:#07E05A"/>
			<stop  offset="1" style="stop-color:#00DF5A"/>
		</radialGradient>
		<path id="path16609_3_" fill="url(#path16609_19_)" stroke="#000000" d="M265.525,26.98c0,5.785-11.338,10.477-25.315,10.477
			c-13.981,0-25.315-4.689-25.315-10.477c0-5.789,11.334-10.477,25.315-10.477C254.188,16.506,265.525,21.193,265.525,26.98z"/>
		<text transform="matrix(1 0 0 1 230.8794 29.917)" font-family="'Myriad-Roman'" font-size="10">CaM</text>
	</g>
	<g>
		
			<radialGradient id="XMLID_8_" cx="210.9727" cy="13.0098" r="9.5005" gradientTransform="matrix(0.9858 0.0024 -0.0024 0.9859 3.492 1.1521)" gradientUnits="userSpaceOnUse">
			<stop  offset="0" style="stop-color:#FFFCDF"/>
			<stop  offset="0.1203" style="stop-color:#FFFBDA"/>
			<stop  offset="0.2662" style="stop-color:#FFF9CB"/>
			<stop  offset="0.4255" style="stop-color:#FFF6B2"/>
			<stop  offset="0.5943" style="stop-color:#FFF090"/>
			<stop  offset="0.7706" style="stop-color:#FFEA64"/>
			<stop  offset="0.9506" style="stop-color:#FFE22F"/>
			<stop  offset="1" style="stop-color:#FFE01F"/>
		</radialGradient>
		<circle fill="url(#XMLID_8_)" stroke="#000000" stroke-width="0.9921" cx="211.452" cy="14.48" r="9.366"/>
		<text transform="matrix(1 0 0 1 203.1802 18.6201)" font-family="'Myriad-Roman'" font-size="9">Ca</text>
		<text transform="matrix(0.7 0 0 0.7 212.7378 15.623)" font-family="'Myriad-Roman'" font-size="9">2+</text>
	</g>
	<g>
		
			<radialGradient id="XMLID_9_" cx="211.0356" cy="38.3682" r="9.5005" gradientTransform="matrix(0.9858 0.0024 -0.0024 0.9859 3.492 1.1521)" gradientUnits="userSpaceOnUse">
			<stop  offset="0" style="stop-color:#FFFCDF"/>
			<stop  offset="0.1203" style="stop-color:#FFFBDA"/>
			<stop  offset="0.2662" style="stop-color:#FFF9CB"/>
			<stop  offset="0.4255" style="stop-color:#FFF6B2"/>
			<stop  offset="0.5943" style="stop-color:#FFF090"/>
			<stop  offset="0.7706" style="stop-color:#FFEA64"/>
			<stop  offset="0.9506" style="stop-color:#FFE22F"/>
			<stop  offset="1" style="stop-color:#FFE01F"/>
		</radialGradient>
		<circle fill="url(#XMLID_9_)" stroke="#000000" stroke-width="0.9921" cx="211.452" cy="39.48" r="9.366"/>
		<text transform="matrix(1 0 0 1 203.1802 43.6201)" font-family="'Myriad-Roman'" font-size="9">Ca</text>
		<text transform="matrix(0.7 0 0 0.7 212.7378 40.623)" font-family="'Myriad-Roman'" font-size="9">2+</text>
	</g>
</g>
<g>
	<g>
		
			<radialGradient id="XMLID_10_" cx="433.2881" cy="12.1172" r="9.5" gradientTransform="matrix(0.9858 0.0024 -0.0024 0.9859 3.492 1.1521)" gradientUnits="userSpaceOnUse">
			<stop  offset="0" style="stop-color:#FFFCDF"/>
			<stop  offset="0.1203" style="stop-color:#FFFBDA"/>
			<stop  offset="0.2662" style="stop-color:#FFF9CB"/>
			<stop  offset="0.4255" style="stop-color:#FFF6B2"/>
			<stop  offset="0.5943" style="stop-color:#FFF090"/>
			<stop  offset="0.7706" style="stop-color:#FFEA64"/>
			<stop  offset="0.9506" style="stop-color:#FFE22F"/>
			<stop  offset="1" style="stop-color:#FFE01F"/>
		</radialGradient>
		<circle fill="url(#XMLID_10_)" stroke="#000000" stroke-width="0.9921" cx="430.618" cy="14.147" r="9.366"/>
		<text transform="matrix(1 0 0 1 422.3457 18.2871)" font-family="'Myriad-Roman'" font-size="9">Ca</text>
		<text transform="matrix(0.7 0 0 0.7 431.9043 15.29)" font-family="'Myriad-Roman'" font-size="9">2+</text>
	</g>
	<g>
		
			<radialGradient id="XMLID_11_" cx="433.3496" cy="37.4766" r="9.4995" gradientTransform="matrix(0.9858 0.0024 -0.0024 0.9859 3.492 1.1521)" gradientUnits="userSpaceOnUse">
			<stop  offset="0" style="stop-color:#FFFCDF"/>
			<stop  offset="0.1203" style="stop-color:#FFFBDA"/>
			<stop  offset="0.2662" style="stop-color:#FFF9CB"/>
			<stop  offset="0.4255" style="stop-color:#FFF6B2"/>
			<stop  offset="0.5943" style="stop-color:#FFF090"/>
			<stop  offset="0.7706" style="stop-color:#FFEA64"/>
			<stop  offset="0.9506" style="stop-color:#FFE22F"/>
			<stop  offset="1" style="stop-color:#FFE01F"/>
		</radialGradient>
		<circle fill="url(#XMLID_11_)" stroke="#000000" stroke-width="0.9921" cx="430.618" cy="39.147" r="9.366"/>
		<text transform="matrix(1 0 0 1 422.3457 43.2871)" font-family="'Myriad-Roman'" font-size="9">Ca</text>
		<text transform="matrix(0.7 0 0 0.7 431.9043 40.29)" font-family="'Myriad-Roman'" font-size="9">2+</text>
	</g>
	<g>
		
			<radialGradient id="path16609_20_" cx="291.1514" cy="-517.9312" r="16.186" gradientTransform="matrix(1.5933 0 0 0.6358 -61.8468 355.9471)" gradientUnits="userSpaceOnUse">
			<stop  offset="0" style="stop-color:#A2FF5F"/>
			<stop  offset="0.4082" style="stop-color:#A0FF5F"/>
			<stop  offset="0.5552" style="stop-color:#99FD5F"/>
			<stop  offset="0.66" style="stop-color:#8EFB5E"/>
			<stop  offset="0.7448" style="stop-color:#7DF85E"/>
			<stop  offset="0.8174" style="stop-color:#67F35D"/>
			<stop  offset="0.8817" style="stop-color:#4BEE5C"/>
			<stop  offset="0.9398" style="stop-color:#2BE85B"/>
			<stop  offset="0.9915" style="stop-color:#07E05A"/>
			<stop  offset="1" style="stop-color:#00DF5A"/>
		</radialGradient>
		<path id="path16609_5_" fill="url(#path16609_20_)" stroke="#000000" d="M427.358,26.646c0,5.785-11.338,10.477-25.315,10.477
			c-13.981,0-25.315-4.689-25.315-10.477c0-5.789,11.334-10.477,25.315-10.477C416.021,16.172,427.358,20.859,427.358,26.646z"/>
		<text transform="matrix(1 0 0 1 392.7129 29.583)" font-family="'Myriad-Roman'" font-size="10">CaM</text>
	</g>
	<g>
		
			<radialGradient id="XMLID_12_" cx="375.1309" cy="12.2593" r="9.5" gradientTransform="matrix(0.9858 0.0024 -0.0024 0.9859 3.492 1.1521)" gradientUnits="userSpaceOnUse">
			<stop  offset="0" style="stop-color:#FFFCDF"/>
			<stop  offset="0.1203" style="stop-color:#FFFBDA"/>
			<stop  offset="0.2662" style="stop-color:#FFF9CB"/>
			<stop  offset="0.4255" style="stop-color:#FFF6B2"/>
			<stop  offset="0.5943" style="stop-color:#FFF090"/>
			<stop  offset="0.7706" style="stop-color:#FFEA64"/>
			<stop  offset="0.9506" style="stop-color:#FFE22F"/>
			<stop  offset="1" style="stop-color:#FFE01F"/>
		</radialGradient>
		<circle fill="url(#XMLID_12_)" stroke="#000000" stroke-width="0.9921" cx="373.285" cy="14.146" r="9.366"/>
		<text transform="matrix(1 0 0 1 365.0137 18.2861)" font-family="'Myriad-Roman'" font-size="9">Ca</text>
		<text transform="matrix(0.7 0 0 0.7 374.5703 15.2891)" font-family="'Myriad-Roman'" font-size="9">2+</text>
	</g>
	<g>
		
			<radialGradient id="XMLID_13_" cx="375.1934" cy="37.6177" r="9.5" gradientTransform="matrix(0.9858 0.0024 -0.0024 0.9859 3.492 1.1521)" gradientUnits="userSpaceOnUse">
			<stop  offset="0" style="stop-color:#FFFCDF"/>
			<stop  offset="0.1203" style="stop-color:#FFFBDA"/>
			<stop  offset="0.2662" style="stop-color:#FFF9CB"/>
			<stop  offset="0.4255" style="stop-color:#FFF6B2"/>
			<stop  offset="0.5943" style="stop-color:#FFF090"/>
			<stop  offset="0.7706" style="stop-color:#FFEA64"/>
			<stop  offset="0.9506" style="stop-color:#FFE22F"/>
			<stop  offset="1" style="stop-color:#FFE01F"/>
		</radialGradient>
		<circle fill="url(#XMLID_13_)" stroke="#000000" stroke-width="0.9921" cx="373.285" cy="39.146" r="9.366"/>
		<text transform="matrix(1 0 0 1 365.0137 43.2861)" font-family="'Myriad-Roman'" font-size="9">Ca</text>
		<text transform="matrix(0.7 0 0 0.7 374.5703 40.2891)" font-family="'Myriad-Roman'" font-size="9">2+</text>
	</g>
</g>
<g>
	
		<radialGradient id="path16609_21_" cx="13.7051" cy="-494.9614" r="16.1853" gradientTransform="matrix(1.1384 0 0 0.4543 7.9305 300.7917)" gradientUnits="userSpaceOnUse">
		<stop  offset="0" style="stop-color:#FFFCDF"/>
		<stop  offset="0.1203" style="stop-color:#FFFBDA"/>
		<stop  offset="0.2662" style="stop-color:#FFF9CB"/>
		<stop  offset="0.4255" style="stop-color:#FFF6B2"/>
		<stop  offset="0.5943" style="stop-color:#FFF090"/>
		<stop  offset="0.7706" style="stop-color:#FFEA64"/>
		<stop  offset="0.9506" style="stop-color:#FFE22F"/>
		<stop  offset="1" style="stop-color:#FFE01F"/>
	</radialGradient>
	<path id="path16609_6_" fill="url(#path16609_21_)" stroke="#000000" d="M41.62,75.938c0,4.136-8.101,7.487-18.087,7.487
		c-9.99,0-18.088-3.351-18.088-7.487c0-4.135,8.098-7.483,18.088-7.483C33.52,68.454,41.62,71.803,41.62,75.938z"/>
	<text transform="matrix(1 0 0 1 14.958 78.875)" font-family="'Myriad-Roman'" font-size="10">Buff</text>
</g>
<g>
	
		<radialGradient id="path16609_22_" cx="156.5918" cy="-495.6948" r="16.1855" gradientTransform="matrix(1.1384 0 0 0.4543 7.9305 300.7917)" gradientUnits="userSpaceOnUse">
		<stop  offset="0" style="stop-color:#FFFCDF"/>
		<stop  offset="0.1203" style="stop-color:#FFFBDA"/>
		<stop  offset="0.2662" style="stop-color:#FFF9CB"/>
		<stop  offset="0.4255" style="stop-color:#FFF6B2"/>
		<stop  offset="0.5943" style="stop-color:#FFF090"/>
		<stop  offset="0.7706" style="stop-color:#FFEA64"/>
		<stop  offset="0.9506" style="stop-color:#FFE22F"/>
		<stop  offset="1" style="stop-color:#FFE01F"/>
	</radialGradient>
	<path id="path16609_9_" fill="url(#path16609_22_)" stroke="#000000" d="M204.288,75.604c0,4.136-8.102,7.487-18.088,7.487
		c-9.99,0-18.088-3.351-18.088-7.487c0-4.135,8.098-7.483,18.088-7.483C196.187,68.121,204.288,71.47,204.288,75.604z"/>
	<text transform="matrix(1 0 0 1 177.625 78.542)" font-family="'Myriad-Roman'" font-size="10">Buff</text>
</g>
<g>
	<g>
		<line fill="none" stroke="#000000" x1="77.509" y1="43.754" x2="77.509" y2="148.504"/>
		<polygon points="73.806,145.695 77.509,147.269 81.213,145.695 77.509,154.474 		"/>
		<polygon points="81.212,46.563 77.509,44.99 73.805,46.563 77.509,37.785 		"/>
	</g>
</g>
<g>
	<g>
		<path fill="none" stroke="#000000" d="M77.509,112.254c0-23.954-9.966-36.75-29.25-36.75"/>
		<polygon points="51.067,71.801 49.495,75.504 51.067,79.208 42.29,75.504 		"/>
	</g>
</g>
<g>
	<g>
		<line fill="none" stroke="#000000" x1="109.509" y1="26.838" x2="199.009" y2="26.838"/>
		<polygon points="196.2,30.541 197.772,26.838 196.2,23.134 204.978,26.838 		"/>
		<polygon points="112.317,23.135 110.745,26.838 112.317,30.542 103.54,26.838 		"/>
	</g>
</g>
<g>
	<g>
		<path fill="none" stroke="#000000" d="M181.508,26.838c-27.371,0-41.995,17.717-41.995,52"/>
		<polygon points="135.81,76.029 139.513,77.602 143.217,76.029 139.513,84.807 		"/>
	</g>
</g>
<g>
	<g>
		<line fill="none" stroke="#000000" x1="109.509" y1="164.838" x2="199.009" y2="164.838"/>
		<polygon points="196.2,168.541 197.772,164.838 196.2,161.134 204.978,164.838 		"/>
		<polygon points="112.317,161.135 110.745,164.838 112.317,168.542 103.54,164.838 		"/>
	</g>
</g>
<g>
	<g>
		<path fill="none" stroke="#000000" d="M181.509,164.838c-27.372,0-41.996-17.717-41.996-52"/>
		<polygon points="143.216,115.646 139.513,114.074 135.809,115.646 139.513,106.869 		"/>
	</g>
</g>
<g>
	<g>
		<line fill="none" stroke="#000000" x1="239.842" y1="43.754" x2="239.842" y2="148.504"/>
		<polygon points="236.139,145.695 239.842,147.269 243.546,145.695 239.842,154.474 		"/>
		<polygon points="243.545,46.563 239.842,44.99 236.138,46.563 239.842,37.785 		"/>
	</g>
</g>
<g>
	<g>
		<path fill="none" stroke="#000000" d="M239.842,112.254c0-23.954-9.966-36.75-29.25-36.75"/>
		<polygon points="213.4,71.801 211.828,75.504 213.4,79.208 204.623,75.504 		"/>
	</g>
</g>
<g>
	<g>
		
			<radialGradient id="XMLID_14_" cx="314.1328" cy="95.5156" r="9.5" gradientTransform="matrix(0.9858 0.0024 -0.0024 0.9859 3.492 1.1521)" gradientUnits="userSpaceOnUse">
			<stop  offset="0" style="stop-color:#FFFCDF"/>
			<stop  offset="0.1203" style="stop-color:#FFFBDA"/>
			<stop  offset="0.2662" style="stop-color:#FFF9CB"/>
			<stop  offset="0.4255" style="stop-color:#FFF6B2"/>
			<stop  offset="0.5943" style="stop-color:#FFF090"/>
			<stop  offset="0.7706" style="stop-color:#FFEA64"/>
			<stop  offset="0.9506" style="stop-color:#FFE22F"/>
			<stop  offset="1" style="stop-color:#FFE01F"/>
		</radialGradient>
		<circle fill="url(#XMLID_14_)" stroke="#000000" stroke-width="0.9921" cx="312.953" cy="96.072" r="9.366"/>
		<text transform="matrix(1 0 0 1 304.6807 100.2119)" font-family="'Myriad-Roman'" font-size="9">Ca</text>
		<text transform="matrix(0.7 0 0 0.7 314.2383 97.2148)" font-family="'Myriad-Roman'" font-size="9">2+</text>
	</g>
	<text transform="matrix(1 0 0 1 290.5068 98.7129)" font-family="'Myriad-Roman'" font-size="9">2 x</text>
</g>
<g>
	
		<radialGradient id="path16609_23_" cx="392.3457" cy="-495.6948" r="16.1855" gradientTransform="matrix(1.1384 0 0 0.4543 7.9305 300.7917)" gradientUnits="userSpaceOnUse">
		<stop  offset="0" style="stop-color:#FFFCDF"/>
		<stop  offset="0.1203" style="stop-color:#FFFBDA"/>
		<stop  offset="0.2662" style="stop-color:#FFF9CB"/>
		<stop  offset="0.4255" style="stop-color:#FFF6B2"/>
		<stop  offset="0.5943" style="stop-color:#FFF090"/>
		<stop  offset="0.7706" style="stop-color:#FFEA64"/>
		<stop  offset="0.9506" style="stop-color:#FFE22F"/>
		<stop  offset="1" style="stop-color:#FFE01F"/>
	</radialGradient>
	<path id="path16609_16_" fill="url(#path16609_23_)" stroke="#000000" d="M472.685,75.604c0,4.136-8.102,7.487-18.088,7.487
		c-9.99,0-18.088-3.351-18.088-7.487c0-4.135,8.098-7.483,18.088-7.483C464.583,68.121,472.685,71.47,472.685,75.604z"/>
	<text transform="matrix(1 0 0 1 446.0215 78.542)" font-family="'Myriad-Roman'" font-size="10">Buff</text>
</g>
<g>
	<g>
		<line fill="none" stroke="#000000" x1="401.592" y1="43.754" x2="401.592" y2="148.504"/>
		<polygon points="397.889,145.695 401.592,147.269 405.296,145.695 401.592,154.474 		"/>
		<polygon points="405.295,46.563 401.592,44.99 397.888,46.563 401.592,37.785 		"/>
	</g>
</g>
<g>
	<g>
		<path fill="none" stroke="#000000" d="M401.592,112.254c0-23.954,9.966-36.75,29.25-36.75"/>
		<polygon points="428.033,79.207 429.606,75.504 428.033,71.8 436.812,75.504 		"/>
	</g>
</g>
<g>
	<g>
		<line fill="none" stroke="#000000" x1="271.509" y1="26.838" x2="361.009" y2="26.838"/>
		<polygon points="358.2,30.541 359.772,26.838 358.2,23.134 366.978,26.838 		"/>
		<polygon points="274.317,23.135 272.745,26.838 274.317,30.542 265.54,26.838 		"/>
	</g>
</g>
<g>
	<g>
		<path fill="none" stroke="#000000" d="M343.508,26.838c-27.371,0-41.995,17.717-41.995,52"/>
		<polygon points="297.81,76.029 301.513,77.602 305.217,76.029 301.513,84.807 		"/>
	</g>
</g>
<g>
	<g>
		<line fill="none" stroke="#000000" x1="271.509" y1="164.838" x2="361.009" y2="164.838"/>
		<polygon points="358.2,168.541 359.772,164.838 358.2,161.134 366.978,164.838 		"/>
		<polygon points="274.317,161.135 272.745,164.838 274.317,168.542 265.54,164.838 		"/>
	</g>
</g>
<g>
	<g>
		<path fill="none" stroke="#000000" d="M343.509,164.838c-27.372,0-41.996-17.717-41.996-52"/>
		<polygon points="305.216,115.646 301.513,114.074 297.809,115.646 301.513,106.869 		"/>
	</g>
</g>
</svg>
