<?xml version="1.0" encoding="utf-8"?>
<!-- Generator: Adobe Illustrator 12.0.1, SVG Export Plug-In . SVG Version: 6.00 Build 51448)  -->
<!DOCTYPE svg PUBLIC "-//W3C//DTD SVG 1.1//EN" "http://www.w3.org/Graphics/SVG/1.1/DTD/svg11.dtd" [
	<!ENTITY ns_svg "http://www.w3.org/2000/svg">
	<!ENTITY ns_xlink "http://www.w3.org/1999/xlink">
]>
<svg  version="1.1" id="Layer_1" xmlns="&ns_svg;" xmlns:xlink="&ns_xlink;" width="583" height="396" viewBox="0 0 583 396"
	 overflow="visible" enable-background="new 0 0 583 396" xml:space="preserve">
<g>
	
		<radialGradient id="path16609_5_" cx="117.188" cy="-649.1226" r="16.1863" gradientTransform="matrix(1.214 0 0 0.4844 -58.8826 375.2076)" gradientUnits="userSpaceOnUse">
		<stop  offset="0" style="stop-color:#FFFCDF"/>
		<stop  offset="0.1203" style="stop-color:#FFFBDA"/>
		<stop  offset="0.2662" style="stop-color:#FFF9CB"/>
		<stop  offset="0.4255" style="stop-color:#FFF6B2"/>
		<stop  offset="0.5943" style="stop-color:#FFF090"/>
		<stop  offset="0.7706" style="stop-color:#FFEA64"/>
		<stop  offset="0.9506" style="stop-color:#FFE22F"/>
		<stop  offset="1" style="stop-color:#FFE01F"/>
	</radialGradient>
	<path id="path16609_17_" fill="url(#path16609_5_)" stroke="#000000" d="M102.672,60.771c0,4.409-8.639,7.983-19.289,7.983
		c-10.652,0-19.288-3.573-19.288-7.983s8.636-7.981,19.288-7.981C94.034,52.791,102.672,56.362,102.672,60.771z"/>
	<g>
		<path d="M77.424,61.587l-0.7,2.12h-0.9l2.29-6.74h1.05l2.3,6.74h-0.93l-0.72-2.12H77.424z M79.634,60.907l-0.67-1.94
			c-0.14-0.44-0.24-0.84-0.34-1.23h-0.03c-0.09,0.39-0.2,0.81-0.33,1.22l-0.66,1.95H79.634z"/>
		<path d="M82.944,57.707h-2.05v-0.74h4.99v0.74h-2.06v6h-0.88V57.707z"/>
		<path d="M86.634,57.057c0.42-0.08,0.97-0.14,1.67-0.14c0.86,0,1.49,0.2,1.89,0.56c0.37,0.32,0.6,0.81,0.6,1.41
			c0,0.61-0.18,1.09-0.53,1.44c-0.46,0.49-1.21,0.74-2.06,0.74c-0.26,0-0.5-0.01-0.7-0.06v2.7h-0.87V57.057z M87.504,60.297
			c0.19,0.05,0.44,0.07,0.72,0.07c1.06,0,1.69-0.52,1.69-1.43c0-0.9-0.63-1.33-1.59-1.33c-0.38,0-0.67,0.04-0.82,0.07V60.297z"/>
	</g>
</g>
<g>
	
		<radialGradient id="path16609_13_" cx="112.7944" cy="-79.3452" r="16.1863" gradientTransform="matrix(1.214 0 0 0.4844 -58.8826 375.2076)" gradientUnits="userSpaceOnUse">
		<stop  offset="0" style="stop-color:#FFFCDF"/>
		<stop  offset="0.1203" style="stop-color:#FFFBDA"/>
		<stop  offset="0.2662" style="stop-color:#FFF9CB"/>
		<stop  offset="0.4255" style="stop-color:#FFF6B2"/>
		<stop  offset="0.5943" style="stop-color:#FFF090"/>
		<stop  offset="0.7706" style="stop-color:#FFEA64"/>
		<stop  offset="0.9506" style="stop-color:#FFE22F"/>
		<stop  offset="1" style="stop-color:#FFE01F"/>
	</radialGradient>
	<path id="path16609_2_" fill="url(#path16609_13_)" stroke="#000000" d="M97.339,336.772c0,4.408-8.639,7.982-19.289,7.982
		c-10.652,0-19.288-3.572-19.288-7.982s8.636-7.982,19.288-7.982C88.7,328.792,97.339,332.362,97.339,336.772z"/>
	<g>
		<path d="M70.851,337.588l-0.7,2.12h-0.9l2.29-6.74h1.05l2.3,6.74h-0.93l-0.72-2.12H70.851z M73.061,336.908l-0.67-1.94
			c-0.14-0.44-0.24-0.84-0.34-1.229h-0.03c-0.09,0.39-0.2,0.81-0.33,1.22l-0.66,1.95H73.061z"/>
		<path d="M75.871,333.059c0.54-0.08,1.17-0.141,1.86-0.141c1.25,0,2.14,0.28,2.73,0.83c0.61,0.55,0.96,1.34,0.96,2.43
			c0,1.1-0.35,2-0.97,2.62c-0.64,0.63-1.68,0.97-2.99,0.97c-0.63,0-1.14-0.02-1.59-0.08V333.059z M76.751,339.027
			c0.22,0.041,0.54,0.041,0.88,0.041c1.86,0.01,2.87-1.041,2.87-2.86c0.01-1.61-0.89-2.601-2.73-2.601
			c-0.45,0-0.79,0.041-1.02,0.091V339.027z"/>
		<path d="M82.541,333.059c0.42-0.08,0.97-0.141,1.67-0.141c0.86,0,1.49,0.2,1.89,0.561c0.37,0.319,0.6,0.81,0.6,1.41
			c0,0.609-0.18,1.09-0.53,1.439c-0.46,0.49-1.21,0.74-2.06,0.74c-0.26,0-0.5-0.01-0.7-0.061v2.7h-0.87V333.059z M83.411,336.298
			c0.19,0.05,0.44,0.07,0.72,0.07c1.06,0,1.69-0.521,1.69-1.431c0-0.899-0.63-1.33-1.59-1.33c-0.38,0-0.67,0.041-0.82,0.07V336.298z
			"/>
	</g>
</g>
<g>
	
		<radialGradient id="path16609_18_" cx="326.2612" cy="-649.1226" r="16.1863" gradientTransform="matrix(1.214 0 0 0.4844 -58.8826 375.2076)" gradientUnits="userSpaceOnUse">
		<stop  offset="0" style="stop-color:#FFFCDF"/>
		<stop  offset="0.1203" style="stop-color:#FFFBDA"/>
		<stop  offset="0.2662" style="stop-color:#FFF9CB"/>
		<stop  offset="0.4255" style="stop-color:#FFF6B2"/>
		<stop  offset="0.5943" style="stop-color:#FFF090"/>
		<stop  offset="0.7706" style="stop-color:#FFEA64"/>
		<stop  offset="0.9506" style="stop-color:#FFE22F"/>
		<stop  offset="1" style="stop-color:#FFE01F"/>
	</radialGradient>
	<path id="path16609_3_" fill="url(#path16609_18_)" stroke="#000000" d="M356.487,60.771c0,4.409-8.639,7.983-19.289,7.983
		c-10.652,0-19.288-3.573-19.288-7.983s8.636-7.981,19.288-7.981C347.849,52.791,356.487,56.362,356.487,60.771z"/>
	<g>
		<path d="M331.239,61.587l-0.7,2.12h-0.9l2.291-6.74h1.049l2.301,6.74h-0.93l-0.721-2.12H331.239z M333.449,60.907l-0.67-1.94
			c-0.141-0.44-0.24-0.84-0.34-1.23h-0.03c-0.09,0.39-0.2,0.81-0.33,1.22l-0.66,1.95H333.449z"/>
		<path d="M336.76,57.707h-2.051v-0.74h4.99v0.74h-2.061v6h-0.879V57.707z"/>
		<path d="M340.449,57.057c0.42-0.08,0.97-0.14,1.67-0.14c0.859,0,1.49,0.2,1.89,0.56c0.37,0.32,0.601,0.81,0.601,1.41
			c0,0.61-0.181,1.09-0.53,1.44c-0.46,0.49-1.21,0.74-2.06,0.74c-0.261,0-0.5-0.01-0.701-0.06v2.7h-0.869V57.057z M341.318,60.297
			c0.19,0.05,0.44,0.07,0.721,0.07c1.061,0,1.689-0.52,1.689-1.43c0-0.9-0.629-1.33-1.59-1.33c-0.38,0-0.67,0.04-0.82,0.07V60.297z"
			/>
	</g>
</g>
<g>
	<g>
		
			<radialGradient id="path11134_21_" cx="-5.1973" cy="-673.9639" r="22.1563" gradientTransform="matrix(0.3664 0 0 0.3664 94.3221 409.6476)" gradientUnits="userSpaceOnUse">
			<stop  offset="0" style="stop-color:#FFFCDF"/>
			<stop  offset="0.1203" style="stop-color:#FFFBDA"/>
			<stop  offset="0.2662" style="stop-color:#FFF9CB"/>
			<stop  offset="0.4255" style="stop-color:#FFF6B2"/>
			<stop  offset="0.5943" style="stop-color:#FFF090"/>
			<stop  offset="0.7706" style="stop-color:#FFEA64"/>
			<stop  offset="0.9506" style="stop-color:#FFE22F"/>
			<stop  offset="1" style="stop-color:#FFE01F"/>
		</radialGradient>
		<path id="path11134_2_" fill="url(#path11134_21_)" stroke="#000000" stroke-width="0.9921" d="M100.536,162.708
			c0,4.482-3.635,8.117-8.117,8.117c-4.484,0-8.119-3.635-8.119-8.117s3.634-8.119,8.119-8.119
			C96.901,154.589,100.536,158.226,100.536,162.708z"/>
		<g>
			<path d="M89.513,161.168h0.626v2.339h0.021c0.13-0.188,0.26-0.36,0.382-0.519l1.482-1.82h0.777l-1.756,2.059l1.893,2.792h-0.741
				l-1.591-2.382l-0.468,0.532v1.85h-0.626V161.168z"/>
			<path d="M94.529,160.942v1.184h1.139v0.302h-1.139v1.194h-0.322v-1.194h-1.139v-0.302h1.139v-1.184H94.529z"/>
		</g>
	</g>
	<g>
		<path d="M66.105,166.229v-0.648l0.828-0.804c1.992-1.896,2.904-2.904,2.904-4.08c0-0.792-0.372-1.524-1.536-1.524
			c-0.708,0-1.296,0.36-1.656,0.66l-0.336-0.744c0.528-0.444,1.308-0.792,2.208-0.792c1.668,0,2.376,1.152,2.376,2.268
			c0,1.44-1.044,2.604-2.688,4.188l-0.612,0.576v0.024h3.492v0.876H66.105z"/>
		<path d="M75.633,160.42l0.828,1.236c0.216,0.336,0.396,0.624,0.588,0.948h0.036c0.192-0.336,0.384-0.636,0.588-0.948l0.804-1.236
			h1.152l-1.98,2.808l2.028,3h-1.2l-0.852-1.308c-0.228-0.336-0.42-0.66-0.624-1.008h-0.024c-0.192,0.348-0.396,0.66-0.612,1.008
			l-0.84,1.308h-1.164l2.064-2.964l-1.968-2.844H75.633z"/>
	</g>
</g>
<g>
	<g>
		
			<radialGradient id="path11134_22_" cx="-10.6563" cy="-510.209" r="22.1567" gradientTransform="matrix(0.3664 0 0 0.3664 94.3221 409.6476)" gradientUnits="userSpaceOnUse">
			<stop  offset="0" style="stop-color:#FFFCDF"/>
			<stop  offset="0.1203" style="stop-color:#FFFBDA"/>
			<stop  offset="0.2662" style="stop-color:#FFF9CB"/>
			<stop  offset="0.4255" style="stop-color:#FFF6B2"/>
			<stop  offset="0.5943" style="stop-color:#FFF090"/>
			<stop  offset="0.7706" style="stop-color:#FFEA64"/>
			<stop  offset="0.9506" style="stop-color:#FFE22F"/>
			<stop  offset="1" style="stop-color:#FFE01F"/>
		</radialGradient>
		<path id="path11134_3_" fill="url(#path11134_22_)" stroke="#000000" stroke-width="0.9921" d="M98.536,222.708
			c0,4.482-3.635,8.117-8.117,8.117c-4.484,0-8.119-3.635-8.119-8.117s3.634-8.119,8.119-8.119
			C94.901,214.589,98.536,218.226,98.536,222.708z"/>
		<g>
			<path d="M87.743,221.168v2.029h2.347v-2.029h0.633v4.851h-0.633v-2.274h-2.347v2.274H87.11v-4.851H87.743z"/>
			<path d="M92.924,220.942v1.184h1.139v0.302h-1.139v1.194h-0.322v-1.194h-1.139v-0.302h1.139v-1.184H92.924z"/>
		</g>
	</g>
	<g>
		<path d="M64.105,226.229v-0.648l0.828-0.804c1.992-1.896,2.904-2.903,2.904-4.08c0-0.792-0.372-1.524-1.536-1.524
			c-0.708,0-1.296,0.36-1.656,0.66l-0.336-0.744c0.528-0.443,1.308-0.791,2.208-0.791c1.668,0,2.376,1.151,2.376,2.268
			c0,1.439-1.044,2.604-2.688,4.188l-0.612,0.576v0.024h3.492v0.876H64.105z"/>
		<path d="M73.633,220.42l0.828,1.236c0.216,0.336,0.396,0.624,0.588,0.948h0.036c0.192-0.336,0.384-0.636,0.588-0.948l0.804-1.236
			h1.152l-1.98,2.809l2.028,3h-1.2l-0.852-1.309c-0.228-0.336-0.42-0.659-0.624-1.008h-0.024c-0.192,0.349-0.396,0.66-0.612,1.008
			l-0.84,1.309h-1.164l2.064-2.964l-1.968-2.845H73.633z"/>
	</g>
</g>
<g>
	<path id="path19818" fill="#FFFF00" stroke="#000000" d="M498.08,36.904c0,3.535-2.765,6.401-6.173,6.401
		c-3.409,0-6.172-2.866-6.172-6.401c0-3.534,2.763-6.4,6.172-6.4C495.315,30.504,498.08,33.37,498.08,36.904z"/>
	<g enable-background="new    ">
		<path fill="#FF3399" d="M489.949,33.014c0.424-0.084,0.979-0.146,1.687-0.146c0.868,0,1.505,0.209,1.908,0.586
			c0.374,0.335,0.606,0.849,0.606,1.477c0,0.639-0.182,1.142-0.535,1.508c-0.465,0.514-1.223,0.775-2.081,0.775
			c-0.262,0-0.505-0.011-0.706-0.063v2.827h-0.879V33.014z M490.828,36.406c0.191,0.053,0.444,0.073,0.727,0.073
			c1.07,0,1.707-0.544,1.707-1.497c0-0.942-0.637-1.393-1.605-1.393c-0.384,0-0.677,0.041-0.828,0.073V36.406z"/>
	</g>
</g>
<g>
	<g>
		
			<radialGradient id="path11134_23_" cx="1148.4189" cy="-688.293" r="22.1565" gradientTransform="matrix(0.3664 0 0 0.3664 94.3221 409.6476)" gradientUnits="userSpaceOnUse">
			<stop  offset="0" style="stop-color:#FFFCDF"/>
			<stop  offset="0.1203" style="stop-color:#FFFBDA"/>
			<stop  offset="0.2662" style="stop-color:#FFF9CB"/>
			<stop  offset="0.4255" style="stop-color:#FFF6B2"/>
			<stop  offset="0.5943" style="stop-color:#FFF090"/>
			<stop  offset="0.7706" style="stop-color:#FFEA64"/>
			<stop  offset="0.9506" style="stop-color:#FFE22F"/>
			<stop  offset="1" style="stop-color:#FFE01F"/>
		</radialGradient>
		<path id="path11134_6_" fill="url(#path11134_23_)" stroke="#000000" stroke-width="0.9921" d="M523.221,157.458
			c0,4.482-3.635,8.117-8.117,8.117c-4.484,0-8.119-3.635-8.119-8.117s3.633-8.119,8.119-8.119
			C519.586,149.339,523.221,152.976,523.221,157.458z"/>
		<g>
			<path d="M512.197,155.918h0.627v2.339h0.021c0.129-0.188,0.26-0.36,0.381-0.519l1.482-1.82h0.777l-1.756,2.059l1.893,2.792h-0.74
				l-1.592-2.382l-0.467,0.532v1.85h-0.627V155.918z"/>
			<path d="M517.213,155.692v1.184h1.139v0.302h-1.139v1.194h-0.322v-1.194h-1.139v-0.302h1.139v-1.184H517.213z"/>
		</g>
	</g>
	<g>
		<path d="M488.79,160.979v-0.648l0.828-0.804c1.991-1.896,2.903-2.904,2.903-4.08c0-0.792-0.371-1.524-1.535-1.524
			c-0.709,0-1.297,0.36-1.656,0.66l-0.336-0.744c0.527-0.444,1.308-0.792,2.208-0.792c1.668,0,2.376,1.152,2.376,2.268
			c0,1.44-1.044,2.604-2.688,4.188l-0.613,0.576v0.024h3.492v0.876H488.79z"/>
		<path d="M498.318,155.17l0.827,1.236c0.216,0.336,0.396,0.624,0.589,0.948h0.035c0.192-0.336,0.385-0.636,0.588-0.948l0.805-1.236
			h1.152l-1.98,2.808l2.027,3h-1.199l-0.853-1.308c-0.228-0.336-0.42-0.66-0.624-1.008h-0.023c-0.192,0.348-0.396,0.66-0.612,1.008
			l-0.841,1.308h-1.163l2.063-2.964l-1.968-2.844H498.318z"/>
	</g>
</g>
<g>
	<g>
		
			<radialGradient id="path11134_24_" cx="1156.6074" cy="-424.9189" r="22.1563" gradientTransform="matrix(0.3664 0 0 0.3664 94.3221 409.6476)" gradientUnits="userSpaceOnUse">
			<stop  offset="0" style="stop-color:#FFFCDF"/>
			<stop  offset="0.1203" style="stop-color:#FFFBDA"/>
			<stop  offset="0.2662" style="stop-color:#FFF9CB"/>
			<stop  offset="0.4255" style="stop-color:#FFF6B2"/>
			<stop  offset="0.5943" style="stop-color:#FFF090"/>
			<stop  offset="0.7706" style="stop-color:#FFEA64"/>
			<stop  offset="0.9506" style="stop-color:#FFE22F"/>
			<stop  offset="1" style="stop-color:#FFE01F"/>
		</radialGradient>
		<path id="path11134_5_" fill="url(#path11134_24_)" stroke="#000000" stroke-width="0.9921" d="M526.221,253.958
			c0,4.482-3.635,8.117-8.117,8.117c-4.484,0-8.119-3.635-8.119-8.117s3.633-8.119,8.119-8.119
			C522.586,245.839,526.221,249.476,526.221,253.958z"/>
		<g>
			<path d="M515.428,252.418v2.029h2.346v-2.029h0.633v4.851h-0.633v-2.274h-2.346v2.274h-0.633v-4.851H515.428z"/>
			<path d="M520.609,252.192v1.184h1.139v0.302h-1.139v1.194h-0.322v-1.194h-1.139v-0.302h1.139v-1.184H520.609z"/>
		</g>
	</g>
	<g>
		<path d="M491.79,257.479v-0.648l0.828-0.804c1.991-1.896,2.903-2.903,2.903-4.08c0-0.792-0.371-1.524-1.535-1.524
			c-0.709,0-1.297,0.36-1.656,0.66l-0.336-0.744c0.527-0.443,1.308-0.791,2.208-0.791c1.668,0,2.376,1.151,2.376,2.268
			c0,1.439-1.044,2.604-2.688,4.188l-0.613,0.576v0.024h3.492v0.876H491.79z"/>
		<path d="M501.318,251.67l0.827,1.236c0.216,0.336,0.396,0.624,0.589,0.948h0.035c0.192-0.336,0.385-0.636,0.588-0.948l0.805-1.236
			h1.152l-1.98,2.809l2.027,3h-1.199l-0.853-1.309c-0.228-0.336-0.42-0.659-0.624-1.008h-0.023c-0.192,0.349-0.396,0.66-0.612,1.008
			l-0.841,1.309h-1.163l2.063-2.964l-1.968-2.845H501.318z"/>
	</g>
</g>
<g>
	<g>
		
			<radialGradient id="path16609_19_" cx="159.5527" cy="-577.8477" r="16.1858" gradientTransform="matrix(1.5933 0 0 0.6358 -118.2103 400.7437)" gradientUnits="userSpaceOnUse">
			<stop  offset="0" style="stop-color:#A2FF5F"/>
			<stop  offset="0.4082" style="stop-color:#A0FF5F"/>
			<stop  offset="0.5552" style="stop-color:#99FD5F"/>
			<stop  offset="0.66" style="stop-color:#8EFB5E"/>
			<stop  offset="0.7448" style="stop-color:#7DF85E"/>
			<stop  offset="0.8174" style="stop-color:#67F35D"/>
			<stop  offset="0.8817" style="stop-color:#4BEE5C"/>
			<stop  offset="0.9398" style="stop-color:#2BE85B"/>
			<stop  offset="0.9915" style="stop-color:#07E05A"/>
			<stop  offset="1" style="stop-color:#00DF5A"/>
		</radialGradient>
		<path id="path16609_4_" fill="url(#path16609_19_)" stroke="#000000" d="M161.32,33.347c0,5.786-11.338,10.478-25.315,10.478
			c-13.981,0-25.315-4.689-25.315-10.478s11.334-10.476,25.315-10.476C149.982,22.873,161.32,27.56,161.32,33.347z"/>
		<g>
			<path d="M135.986,31.08h-3.132v2.916h3.504v0.876h-4.56v-8.088h4.38v0.876h-3.324v2.556h3.132V31.08z"/>
			<path d="M138.785,34.097h-0.017l-0.949,0.513l-0.143-0.563l1.193-0.639h0.63v5.46h-0.714V34.097z"/>
		</g>
	</g>
	<g>
		
			<radialGradient id="path11134_25_" cx="43.7505" cy="-1063.8628" r="22.1567" gradientTransform="matrix(0.3664 0 0 0.3664 94.3221 409.6476)" gradientUnits="userSpaceOnUse">
			<stop  offset="0" style="stop-color:#FFFCDF"/>
			<stop  offset="0.1203" style="stop-color:#FFFBDA"/>
			<stop  offset="0.2662" style="stop-color:#FFF9CB"/>
			<stop  offset="0.4255" style="stop-color:#FFF6B2"/>
			<stop  offset="0.5943" style="stop-color:#FFF090"/>
			<stop  offset="0.7706" style="stop-color:#FFEA64"/>
			<stop  offset="0.9506" style="stop-color:#FFE22F"/>
			<stop  offset="1" style="stop-color:#FFE01F"/>
		</radialGradient>
		<path id="path11134_4_" fill="url(#path11134_25_)" stroke="#000000" stroke-width="0.9921" d="M118.47,19.849
			c0,4.482-3.635,8.117-8.117,8.117c-4.484,0-8.119-3.635-8.119-8.117s3.634-8.119,8.119-8.119
			C114.835,11.73,118.47,15.367,118.47,19.849z"/>
		<g>
			<path d="M107.448,18.31h0.626v2.339h0.021c0.13-0.188,0.26-0.36,0.382-0.519l1.482-1.82h0.777l-1.756,2.059l1.893,2.792h-0.741
				l-1.591-2.382l-0.468,0.532v1.85h-0.626V18.31z"/>
			<path d="M112.463,18.084v1.184h1.139v0.302h-1.139v1.194h-0.322v-1.194h-1.139v-0.302h1.139v-1.184H112.463z"/>
		</g>
	</g>
	<g>
		
			<radialGradient id="path11134_26_" cx="43.7505" cy="-990.1729" r="22.1567" gradientTransform="matrix(0.3664 0 0 0.3664 94.3221 409.6476)" gradientUnits="userSpaceOnUse">
			<stop  offset="0" style="stop-color:#FFFCDF"/>
			<stop  offset="0.1203" style="stop-color:#FFFBDA"/>
			<stop  offset="0.2662" style="stop-color:#FFF9CB"/>
			<stop  offset="0.4255" style="stop-color:#FFF6B2"/>
			<stop  offset="0.5943" style="stop-color:#FFF090"/>
			<stop  offset="0.7706" style="stop-color:#FFEA64"/>
			<stop  offset="0.9506" style="stop-color:#FFE22F"/>
			<stop  offset="1" style="stop-color:#FFE01F"/>
		</radialGradient>
		<path id="path11134_7_" fill="url(#path11134_26_)" stroke="#000000" stroke-width="0.9921" d="M118.47,46.849
			c0,4.482-3.635,8.117-8.117,8.117c-4.484,0-8.119-3.635-8.119-8.117s3.634-8.119,8.119-8.119
			C114.835,38.73,118.47,42.367,118.47,46.849z"/>
		<g>
			<path d="M107.448,45.31h0.626v2.339h0.021c0.13-0.188,0.26-0.36,0.382-0.519l1.482-1.82h0.777l-1.756,2.059l1.893,2.792h-0.741
				l-1.591-2.382l-0.468,0.532v1.85h-0.626V45.31z"/>
			<path d="M112.463,45.084v1.184h1.139v0.302h-1.139v1.194h-0.322v-1.194h-1.139v-0.302h1.139v-1.184H112.463z"/>
		</g>
	</g>
</g>
<g>
	<g>
		
			<radialGradient id="path16609_20_" cx="159.5527" cy="-456.7402" r="16.1858" gradientTransform="matrix(1.5933 0 0 0.6358 -118.2103 400.7437)" gradientUnits="userSpaceOnUse">
			<stop  offset="0" style="stop-color:#A2FF5F"/>
			<stop  offset="0.4082" style="stop-color:#A0FF5F"/>
			<stop  offset="0.5552" style="stop-color:#99FD5F"/>
			<stop  offset="0.66" style="stop-color:#8EFB5E"/>
			<stop  offset="0.7448" style="stop-color:#7DF85E"/>
			<stop  offset="0.8174" style="stop-color:#67F35D"/>
			<stop  offset="0.8817" style="stop-color:#4BEE5C"/>
			<stop  offset="0.9398" style="stop-color:#2BE85B"/>
			<stop  offset="0.9915" style="stop-color:#07E05A"/>
			<stop  offset="1" style="stop-color:#00DF5A"/>
		</radialGradient>
		<path id="path16609_1_" fill="url(#path16609_20_)" stroke="#000000" d="M161.32,110.347c0,5.786-11.338,10.478-25.315,10.478
			c-13.981,0-25.315-4.689-25.315-10.478s11.334-10.476,25.315-10.476C149.982,99.873,161.32,104.56,161.32,110.347z"/>
		<g>
			<path d="M135.986,108.08h-3.132v2.916h3.504v0.876h-4.56v-8.088h4.38v0.876h-3.324v2.556h3.132V108.08z"/>
			<path d="M138.785,111.097h-0.017l-0.949,0.513l-0.143-0.563l1.193-0.639h0.63v5.46h-0.714V111.097z"/>
		</g>
	</g>
	<g>
		
			<radialGradient id="path11134_27_" cx="43.7505" cy="-853.71" r="22.1567" gradientTransform="matrix(0.3664 0 0 0.3664 94.3221 409.6476)" gradientUnits="userSpaceOnUse">
			<stop  offset="0" style="stop-color:#FFFCDF"/>
			<stop  offset="0.1203" style="stop-color:#FFFBDA"/>
			<stop  offset="0.2662" style="stop-color:#FFF9CB"/>
			<stop  offset="0.4255" style="stop-color:#FFF6B2"/>
			<stop  offset="0.5943" style="stop-color:#FFF090"/>
			<stop  offset="0.7706" style="stop-color:#FFEA64"/>
			<stop  offset="0.9506" style="stop-color:#FFE22F"/>
			<stop  offset="1" style="stop-color:#FFE01F"/>
		</radialGradient>
		<path id="path11134_8_" fill="url(#path11134_27_)" stroke="#000000" stroke-width="0.9921" d="M118.47,96.849
			c0,4.482-3.635,8.117-8.117,8.117c-4.484,0-8.119-3.635-8.119-8.117s3.634-8.119,8.119-8.119
			C114.835,88.73,118.47,92.367,118.47,96.849z"/>
		<g>
			<path d="M107.448,95.31h0.626v2.339h0.021c0.13-0.188,0.26-0.36,0.382-0.519l1.482-1.82h0.777l-1.756,2.059l1.893,2.792h-0.741
				l-1.591-2.382l-0.468,0.532v1.85h-0.626V95.31z"/>
			<path d="M112.463,95.084v1.184h1.139v0.302h-1.139v1.194h-0.322v-1.194h-1.139v-0.302h1.139v-1.184H112.463z"/>
		</g>
	</g>
	<g>
		
			<radialGradient id="path11134_28_" cx="43.7505" cy="-780.02" r="22.1567" gradientTransform="matrix(0.3664 0 0 0.3664 94.3221 409.6476)" gradientUnits="userSpaceOnUse">
			<stop  offset="0" style="stop-color:#FFFCDF"/>
			<stop  offset="0.1203" style="stop-color:#FFFBDA"/>
			<stop  offset="0.2662" style="stop-color:#FFF9CB"/>
			<stop  offset="0.4255" style="stop-color:#FFF6B2"/>
			<stop  offset="0.5943" style="stop-color:#FFF090"/>
			<stop  offset="0.7706" style="stop-color:#FFEA64"/>
			<stop  offset="0.9506" style="stop-color:#FFE22F"/>
			<stop  offset="1" style="stop-color:#FFE01F"/>
		</radialGradient>
		<path id="path11134_1_" fill="url(#path11134_28_)" stroke="#000000" stroke-width="0.9921" d="M118.47,123.849
			c0,4.482-3.635,8.117-8.117,8.117c-4.484,0-8.119-3.635-8.119-8.117s3.634-8.119,8.119-8.119
			C114.835,115.73,118.47,119.367,118.47,123.849z"/>
		<g>
			<path d="M107.448,122.31h0.626v2.339h0.021c0.13-0.188,0.26-0.36,0.382-0.519l1.482-1.82h0.777l-1.756,2.059l1.893,2.792h-0.741
				l-1.591-2.382l-0.468,0.532v1.85h-0.626V122.31z"/>
			<path d="M112.463,122.084v1.184h1.139v0.302h-1.139v1.194h-0.322v-1.194h-1.139v-0.302h1.139v-1.184H112.463z"/>
		</g>
	</g>
</g>
<g>
	<g>
		
			<radialGradient id="path16609_21_" cx="191.5825" cy="-377.8677" r="16.186" gradientTransform="matrix(1.214 0 0 0.4844 -58.8826 375.2076)" gradientUnits="userSpaceOnUse">
			<stop  offset="0" style="stop-color:#FFFCDF"/>
			<stop  offset="0.1203" style="stop-color:#FFFBDA"/>
			<stop  offset="0.2662" style="stop-color:#FFF9CB"/>
			<stop  offset="0.4255" style="stop-color:#FFF6B2"/>
			<stop  offset="0.5943" style="stop-color:#FFF090"/>
			<stop  offset="0.7706" style="stop-color:#FFEA64"/>
			<stop  offset="0.9506" style="stop-color:#FFE22F"/>
			<stop  offset="1" style="stop-color:#FFE01F"/>
		</radialGradient>
		<path id="path16609_14_" fill="url(#path16609_21_)" stroke="#000000" d="M192.987,192.167c0,4.409-8.639,7.983-19.289,7.983
			c-10.652,0-19.288-3.572-19.288-7.983c0-4.41,8.636-7.981,19.288-7.981C184.349,184.187,192.987,187.758,192.987,192.167z"/>
		<g>
			<path d="M167.739,192.982l-0.7,2.12h-0.9l2.29-6.74h1.05l2.3,6.74h-0.93l-0.72-2.12H167.739z M169.949,192.303l-0.67-1.94
				c-0.14-0.44-0.24-0.84-0.34-1.23h-0.03c-0.09,0.39-0.2,0.81-0.33,1.22l-0.66,1.95H169.949z"/>
			<path d="M173.259,189.103h-2.05v-0.74h4.99v0.74h-2.06v6h-0.88V189.103z"/>
			<path d="M176.949,188.453c0.42-0.08,0.97-0.14,1.67-0.14c0.86,0,1.49,0.2,1.89,0.56c0.37,0.32,0.6,0.81,0.6,1.41
				c0,0.61-0.18,1.09-0.53,1.44c-0.46,0.49-1.21,0.74-2.06,0.74c-0.26,0-0.5-0.01-0.7-0.06v2.7h-0.87V188.453z M177.819,191.692
				c0.19,0.05,0.44,0.07,0.72,0.07c1.06,0,1.69-0.52,1.69-1.43c0-0.9-0.63-1.33-1.59-1.33c-0.38,0-0.67,0.04-0.82,0.07V191.692z"/>
		</g>
	</g>
	<g>
		
			<radialGradient id="path16609_22_" cx="159.2388" cy="-328.0518" r="16.1855" gradientTransform="matrix(1.5933 0 0 0.6358 -118.2103 400.7437)" gradientUnits="userSpaceOnUse">
			<stop  offset="0" style="stop-color:#A2FF5F"/>
			<stop  offset="0.4082" style="stop-color:#A0FF5F"/>
			<stop  offset="0.5552" style="stop-color:#99FD5F"/>
			<stop  offset="0.66" style="stop-color:#8EFB5E"/>
			<stop  offset="0.7448" style="stop-color:#7DF85E"/>
			<stop  offset="0.8174" style="stop-color:#67F35D"/>
			<stop  offset="0.8817" style="stop-color:#4BEE5C"/>
			<stop  offset="0.9398" style="stop-color:#2BE85B"/>
			<stop  offset="0.9915" style="stop-color:#07E05A"/>
			<stop  offset="1" style="stop-color:#00DF5A"/>
		</radialGradient>
		<path id="path16609_6_" fill="url(#path16609_22_)" stroke="#000000" d="M160.82,192.167c0,5.786-11.338,10.477-25.315,10.477
			c-13.981,0-25.315-4.689-25.315-10.477c0-5.788,11.334-10.476,25.315-10.476C149.482,181.693,160.82,186.38,160.82,192.167z"/>
		<g>
			<path d="M135.486,189.9h-3.132v2.916h3.504v0.876h-4.56v-8.088h4.38v0.876h-3.324v2.556h3.132V189.9z"/>
			<path d="M138.285,192.917h-0.017l-0.949,0.513l-0.143-0.563l1.193-0.639h0.63v5.46h-0.714V192.917z"/>
		</g>
	</g>
</g>
<g>
	<g>
		
			<radialGradient id="path16609_23_" cx="191.5825" cy="-200.6958" r="16.1863" gradientTransform="matrix(1.214 0 0 0.4844 -58.8826 375.2076)" gradientUnits="userSpaceOnUse">
			<stop  offset="0" style="stop-color:#FFFCDF"/>
			<stop  offset="0.1203" style="stop-color:#FFFBDA"/>
			<stop  offset="0.2662" style="stop-color:#FFF9CB"/>
			<stop  offset="0.4255" style="stop-color:#FFF6B2"/>
			<stop  offset="0.5943" style="stop-color:#FFF090"/>
			<stop  offset="0.7706" style="stop-color:#FFEA64"/>
			<stop  offset="0.9506" style="stop-color:#FFE22F"/>
			<stop  offset="1" style="stop-color:#FFE01F"/>
		</radialGradient>
		<path id="path16609_16_" fill="url(#path16609_23_)" stroke="#000000" d="M192.987,277.988c0,4.41-8.639,7.984-19.289,7.984
			c-10.652,0-19.288-3.574-19.288-7.984s8.636-7.98,19.288-7.98C184.349,270.008,192.987,273.58,192.987,277.988z"/>
		<g>
			<path d="M167.739,278.805l-0.7,2.12h-0.9l2.29-6.74h1.05l2.3,6.74h-0.93l-0.72-2.12H167.739z M169.949,278.125l-0.67-1.94
				c-0.14-0.44-0.24-0.84-0.34-1.229h-0.03c-0.09,0.39-0.2,0.81-0.33,1.22l-0.66,1.95H169.949z"/>
			<path d="M173.259,274.925h-2.05v-0.74h4.99v0.74h-2.06v6h-0.88V274.925z"/>
			<path d="M176.949,274.275c0.42-0.08,0.97-0.141,1.67-0.141c0.86,0,1.49,0.2,1.89,0.561c0.37,0.319,0.6,0.81,0.6,1.41
				c0,0.609-0.18,1.09-0.53,1.439c-0.46,0.49-1.21,0.74-2.06,0.74c-0.26,0-0.5-0.01-0.7-0.061v2.7h-0.87V274.275z M177.819,277.515
				c0.19,0.05,0.44,0.07,0.72,0.07c1.06,0,1.69-0.521,1.69-1.431c0-0.899-0.63-1.33-1.59-1.33c-0.38,0-0.67,0.041-0.82,0.07V277.515
				z"/>
		</g>
	</g>
	<g>
		<g>
			
				<radialGradient id="path16609_24_" cx="159.2388" cy="-193.0693" r="16.1858" gradientTransform="matrix(1.5933 0 0 0.6358 -118.2103 400.7437)" gradientUnits="userSpaceOnUse">
				<stop  offset="0" style="stop-color:#A2FF5F"/>
				<stop  offset="0.4082" style="stop-color:#A0FF5F"/>
				<stop  offset="0.5552" style="stop-color:#99FD5F"/>
				<stop  offset="0.66" style="stop-color:#8EFB5E"/>
				<stop  offset="0.7448" style="stop-color:#7DF85E"/>
				<stop  offset="0.8174" style="stop-color:#67F35D"/>
				<stop  offset="0.8817" style="stop-color:#4BEE5C"/>
				<stop  offset="0.9398" style="stop-color:#2BE85B"/>
				<stop  offset="0.9915" style="stop-color:#07E05A"/>
				<stop  offset="1" style="stop-color:#00DF5A"/>
			</radialGradient>
			<path id="path16609_15_" fill="url(#path16609_24_)" stroke="#000000" d="M160.82,277.988c0,5.787-11.338,10.479-25.315,10.479
				c-13.981,0-25.315-4.689-25.315-10.479c0-5.787,11.334-10.475,25.315-10.475C149.482,267.514,160.82,272.201,160.82,277.988z"/>
			<g>
				<path d="M135.486,275.721h-3.132v2.916h3.504v0.876h-4.56v-8.088h4.38v0.876h-3.324v2.556h3.132V275.721z"/>
				<path d="M138.285,278.737h-0.017l-0.949,0.513l-0.143-0.563l1.193-0.639h0.63v5.46h-0.714V278.737z"/>
			</g>
		</g>
		<g>
			
				<radialGradient id="path11134_29_" cx="42.3857" cy="-396.1738" r="22.1565" gradientTransform="matrix(0.3664 0 0 0.3664 94.3221 409.6476)" gradientUnits="userSpaceOnUse">
				<stop  offset="0" style="stop-color:#FFFCDF"/>
				<stop  offset="0.1203" style="stop-color:#FFFBDA"/>
				<stop  offset="0.2662" style="stop-color:#FFF9CB"/>
				<stop  offset="0.4255" style="stop-color:#FFF6B2"/>
				<stop  offset="0.5943" style="stop-color:#FFF090"/>
				<stop  offset="0.7706" style="stop-color:#FFEA64"/>
				<stop  offset="0.9506" style="stop-color:#FFE22F"/>
				<stop  offset="1" style="stop-color:#FFE01F"/>
			</radialGradient>
			<path id="path11134_10_" fill="url(#path11134_29_)" stroke="#000000" stroke-width="0.9921" d="M117.97,264.49
				c0,4.482-3.635,8.117-8.117,8.117c-4.484,0-8.119-3.635-8.119-8.117s3.634-8.119,8.119-8.119
				C114.335,256.371,117.97,260.008,117.97,264.49z"/>
			<g>
				<path d="M107.177,262.95v2.029h2.347v-2.029h0.633v4.851h-0.633v-2.274h-2.347v2.274h-0.633v-4.851H107.177z"/>
				<path d="M112.359,262.725v1.184h1.139v0.302h-1.139v1.194h-0.322v-1.194h-1.139v-0.302h1.139v-1.184H112.359z"/>
			</g>
		</g>
		<g>
			
				<radialGradient id="path11134_30_" cx="42.3857" cy="-322.4844" r="22.1567" gradientTransform="matrix(0.3664 0 0 0.3664 94.3221 409.6476)" gradientUnits="userSpaceOnUse">
				<stop  offset="0" style="stop-color:#FFFCDF"/>
				<stop  offset="0.1203" style="stop-color:#FFFBDA"/>
				<stop  offset="0.2662" style="stop-color:#FFF9CB"/>
				<stop  offset="0.4255" style="stop-color:#FFF6B2"/>
				<stop  offset="0.5943" style="stop-color:#FFF090"/>
				<stop  offset="0.7706" style="stop-color:#FFEA64"/>
				<stop  offset="0.9506" style="stop-color:#FFE22F"/>
				<stop  offset="1" style="stop-color:#FFE01F"/>
			</radialGradient>
			<path id="path11134_9_" fill="url(#path11134_30_)" stroke="#000000" stroke-width="0.9921" d="M117.97,291.49
				c0,4.482-3.635,8.117-8.117,8.117c-4.484,0-8.119-3.635-8.119-8.117s3.634-8.119,8.119-8.119
				C114.335,283.371,117.97,287.008,117.97,291.49z"/>
			<g>
				<path d="M107.177,289.95v2.029h2.347v-2.029h0.633v4.851h-0.633v-2.274h-2.347v2.274h-0.633v-4.851H107.177z"/>
				<path d="M112.359,289.725v1.184h1.139v0.302h-1.139v1.194h-0.322v-1.194h-1.139v-0.302h1.139v-1.184H112.359z"/>
			</g>
		</g>
	</g>
</g>
<g>
	<g>
		<path id="path19818_1_" fill="#FFFF00" stroke="#000000" d="M172.08,365.404c0,3.535-2.765,6.401-6.173,6.401
			c-3.409,0-6.172-2.866-6.172-6.401c0-3.534,2.763-6.4,6.172-6.4C169.315,359.004,172.08,361.87,172.08,365.404z"/>
		<g enable-background="new    ">
			<path fill="#FF3399" d="M163.949,361.514c0.424-0.084,0.979-0.146,1.687-0.146c0.868,0,1.505,0.209,1.908,0.586
				c0.374,0.335,0.606,0.849,0.606,1.477c0,0.639-0.182,1.142-0.535,1.508c-0.465,0.514-1.223,0.775-2.081,0.775
				c-0.262,0-0.505-0.011-0.706-0.063v2.827h-0.879V361.514z M164.828,364.906c0.191,0.053,0.444,0.073,0.727,0.073
				c1.07,0,1.707-0.544,1.707-1.497c0-0.942-0.637-1.393-1.605-1.393c-0.384,0-0.677,0.041-0.828,0.073V364.906z"/>
		</g>
	</g>
	<g>
		<g>
			<g>
				
					<radialGradient id="path16609_25_" cx="159.2388" cy="-55.4473" r="16.1858" gradientTransform="matrix(1.5933 0 0 0.6358 -118.2103 400.7437)" gradientUnits="userSpaceOnUse">
					<stop  offset="0" style="stop-color:#A2FF5F"/>
					<stop  offset="0.4082" style="stop-color:#A0FF5F"/>
					<stop  offset="0.5552" style="stop-color:#99FD5F"/>
					<stop  offset="0.66" style="stop-color:#8EFB5E"/>
					<stop  offset="0.7448" style="stop-color:#7DF85E"/>
					<stop  offset="0.8174" style="stop-color:#67F35D"/>
					<stop  offset="0.8817" style="stop-color:#4BEE5C"/>
					<stop  offset="0.9398" style="stop-color:#2BE85B"/>
					<stop  offset="0.9915" style="stop-color:#07E05A"/>
					<stop  offset="1" style="stop-color:#00DF5A"/>
				</radialGradient>
				<path id="path16609_7_" fill="url(#path16609_25_)" stroke="#000000" d="M160.82,365.488c0,5.787-11.338,10.479-25.315,10.479
					c-13.981,0-25.315-4.689-25.315-10.479c0-5.787,11.334-10.475,25.315-10.475C149.482,355.014,160.82,359.701,160.82,365.488z"/>
				<g>
					<path d="M135.486,363.221h-3.132v2.916h3.504v0.876h-4.56v-8.088h4.38v0.876h-3.324v2.556h3.132V363.221z"/>
					<path d="M138.285,366.237h-0.017l-0.949,0.513l-0.143-0.563l1.193-0.639h0.63v5.46h-0.714V366.237z"/>
				</g>
			</g>
			<g>
				
					<radialGradient id="path11134_31_" cx="42.3857" cy="-157.3643" r="22.1567" gradientTransform="matrix(0.3664 0 0 0.3664 94.3221 409.6476)" gradientUnits="userSpaceOnUse">
					<stop  offset="0" style="stop-color:#FFFCDF"/>
					<stop  offset="0.1203" style="stop-color:#FFFBDA"/>
					<stop  offset="0.2662" style="stop-color:#FFF9CB"/>
					<stop  offset="0.4255" style="stop-color:#FFF6B2"/>
					<stop  offset="0.5943" style="stop-color:#FFF090"/>
					<stop  offset="0.7706" style="stop-color:#FFEA64"/>
					<stop  offset="0.9506" style="stop-color:#FFE22F"/>
					<stop  offset="1" style="stop-color:#FFE01F"/>
				</radialGradient>
				<path id="path11134_12_" fill="url(#path11134_31_)" stroke="#000000" stroke-width="0.9921" d="M117.97,351.99
					c0,4.482-3.635,8.117-8.117,8.117c-4.484,0-8.119-3.635-8.119-8.117s3.634-8.119,8.119-8.119
					C114.335,343.871,117.97,347.508,117.97,351.99z"/>
				<g>
					<path d="M107.177,350.45v2.029h2.347v-2.029h0.633v4.851h-0.633v-2.274h-2.347v2.274h-0.633v-4.851H107.177z"/>
					<path d="M112.359,350.225v1.184h1.139v0.302h-1.139v1.194h-0.322v-1.194h-1.139v-0.302h1.139v-1.184H112.359z"/>
				</g>
			</g>
			<g>
				
					<radialGradient id="path11134_32_" cx="42.3857" cy="-83.6738" r="22.1565" gradientTransform="matrix(0.3664 0 0 0.3664 94.3221 409.6476)" gradientUnits="userSpaceOnUse">
					<stop  offset="0" style="stop-color:#FFFCDF"/>
					<stop  offset="0.1203" style="stop-color:#FFFBDA"/>
					<stop  offset="0.2662" style="stop-color:#FFF9CB"/>
					<stop  offset="0.4255" style="stop-color:#FFF6B2"/>
					<stop  offset="0.5943" style="stop-color:#FFF090"/>
					<stop  offset="0.7706" style="stop-color:#FFEA64"/>
					<stop  offset="0.9506" style="stop-color:#FFE22F"/>
					<stop  offset="1" style="stop-color:#FFE01F"/>
				</radialGradient>
				<path id="path11134_11_" fill="url(#path11134_32_)" stroke="#000000" stroke-width="0.9921" d="M117.97,378.99
					c0,4.482-3.635,8.117-8.117,8.117c-4.484,0-8.119-3.635-8.119-8.117s3.634-8.119,8.119-8.119
					C114.335,370.871,117.97,374.508,117.97,378.99z"/>
				<g>
					<path d="M107.177,377.45v2.029h2.347v-2.029h0.633v4.851h-0.633v-2.274h-2.347v2.274h-0.633v-4.851H107.177z"/>
					<path d="M112.359,377.225v1.184h1.139v0.302h-1.139v1.194h-0.322v-1.194h-1.139v-0.302h1.139v-1.184H112.359z"/>
				</g>
			</g>
		</g>
	</g>
</g>
<g>
	<g>
		<path id="path19818_2_" fill="#FFFF00" stroke="#000000" d="M491.58,317.404c0,3.535-2.765,6.401-6.173,6.401
			c-3.409,0-6.172-2.866-6.172-6.401c0-3.534,2.763-6.4,6.172-6.4C488.815,311.004,491.58,313.87,491.58,317.404z"/>
		<g enable-background="new    ">
			<path fill="#FF3399" d="M483.449,313.514c0.424-0.084,0.979-0.146,1.687-0.146c0.868,0,1.505,0.209,1.908,0.586
				c0.374,0.335,0.606,0.849,0.606,1.477c0,0.639-0.182,1.142-0.535,1.508c-0.465,0.514-1.223,0.775-2.081,0.775
				c-0.262,0-0.505-0.011-0.706-0.063v2.827h-0.879V313.514z M484.328,316.906c0.191,0.053,0.444,0.073,0.727,0.073
				c1.07,0,1.707-0.544,1.707-1.497c0-0.942-0.637-1.393-1.605-1.393c-0.384,0-0.677,0.041-0.828,0.073V316.906z"/>
		</g>
	</g>
	<g>
		<g>
			<g>
				
					<radialGradient id="path16609_26_" cx="359.7656" cy="-130.9434" r="16.186" gradientTransform="matrix(1.5933 0 0 0.6358 -118.2103 400.7437)" gradientUnits="userSpaceOnUse">
					<stop  offset="0" style="stop-color:#A2FF5F"/>
					<stop  offset="0.4082" style="stop-color:#A0FF5F"/>
					<stop  offset="0.5552" style="stop-color:#99FD5F"/>
					<stop  offset="0.66" style="stop-color:#8EFB5E"/>
					<stop  offset="0.7448" style="stop-color:#7DF85E"/>
					<stop  offset="0.8174" style="stop-color:#67F35D"/>
					<stop  offset="0.8817" style="stop-color:#4BEE5C"/>
					<stop  offset="0.9398" style="stop-color:#2BE85B"/>
					<stop  offset="0.9915" style="stop-color:#07E05A"/>
					<stop  offset="1" style="stop-color:#00DF5A"/>
				</radialGradient>
				<path id="path16609_8_" fill="url(#path16609_26_)" stroke="#000000" d="M480.32,317.488c0,5.787-11.338,10.479-25.315,10.479
					c-13.981,0-25.315-4.689-25.315-10.479c0-5.787,11.334-10.475,25.315-10.475C468.982,307.014,480.32,311.701,480.32,317.488z"/>
				<g>
					<path d="M454.986,315.221h-3.132v2.916h3.504v0.876h-4.56v-8.088h4.38v0.876h-3.324v2.556h3.132V315.221z"/>
					<path d="M456.18,323.009v-0.453l0.58-0.563c1.395-1.327,2.033-2.032,2.033-2.855c0-0.555-0.261-1.067-1.076-1.067
						c-0.495,0-0.906,0.252-1.158,0.462l-0.235-0.521c0.37-0.311,0.915-0.555,1.546-0.555c1.167,0,1.662,0.807,1.662,1.588
						c0,1.008-0.73,1.823-1.881,2.932l-0.429,0.403v0.017h2.444v0.613H456.18z"/>
				</g>
			</g>
			<g>
				
					<radialGradient id="path11134_33_" cx="914.3848" cy="-288.3682" r="22.1567" gradientTransform="matrix(0.3664 0 0 0.3664 94.3221 409.6476)" gradientUnits="userSpaceOnUse">
					<stop  offset="0" style="stop-color:#FFFCDF"/>
					<stop  offset="0.1203" style="stop-color:#FFFBDA"/>
					<stop  offset="0.2662" style="stop-color:#FFF9CB"/>
					<stop  offset="0.4255" style="stop-color:#FFF6B2"/>
					<stop  offset="0.5943" style="stop-color:#FFF090"/>
					<stop  offset="0.7706" style="stop-color:#FFEA64"/>
					<stop  offset="0.9506" style="stop-color:#FFE22F"/>
					<stop  offset="1" style="stop-color:#FFE01F"/>
				</radialGradient>
				<path id="path11134_14_" fill="url(#path11134_33_)" stroke="#000000" stroke-width="0.9921" d="M437.471,303.99
					c0,4.482-3.635,8.117-8.117,8.117c-4.484,0-8.119-3.635-8.119-8.117s3.633-8.119,8.119-8.119
					C433.836,295.871,437.471,299.508,437.471,303.99z"/>
				<g>
					<path d="M426.678,302.45v2.029h2.346v-2.029h0.633v4.851h-0.633v-2.274h-2.346v2.274h-0.633v-4.851H426.678z"/>
					<path d="M431.859,302.225v1.184h1.139v0.302h-1.139v1.194h-0.322v-1.194h-1.139v-0.302h1.139v-1.184H431.859z"/>
				</g>
			</g>
			<g>
				
					<radialGradient id="path11134_34_" cx="914.3848" cy="-214.6787" r="22.157" gradientTransform="matrix(0.3664 0 0 0.3664 94.3221 409.6476)" gradientUnits="userSpaceOnUse">
					<stop  offset="0" style="stop-color:#FFFCDF"/>
					<stop  offset="0.1203" style="stop-color:#FFFBDA"/>
					<stop  offset="0.2662" style="stop-color:#FFF9CB"/>
					<stop  offset="0.4255" style="stop-color:#FFF6B2"/>
					<stop  offset="0.5943" style="stop-color:#FFF090"/>
					<stop  offset="0.7706" style="stop-color:#FFEA64"/>
					<stop  offset="0.9506" style="stop-color:#FFE22F"/>
					<stop  offset="1" style="stop-color:#FFE01F"/>
				</radialGradient>
				<path id="path11134_13_" fill="url(#path11134_34_)" stroke="#000000" stroke-width="0.9921" d="M437.471,330.99
					c0,4.482-3.635,8.117-8.117,8.117c-4.484,0-8.119-3.635-8.119-8.117s3.633-8.119,8.119-8.119
					C433.836,322.871,437.471,326.508,437.471,330.99z"/>
				<g>
					<path d="M426.678,329.45v2.029h2.346v-2.029h0.633v4.851h-0.633v-2.274h-2.346v2.274h-0.633v-4.851H426.678z"/>
					<path d="M431.859,329.225v1.184h1.139v0.302h-1.139v1.194h-0.322v-1.194h-1.139v-0.302h1.139v-1.184H431.859z"/>
				</g>
			</g>
		</g>
	</g>
</g>
<g>
	<g>
		<path id="path19818_3_" fill="#FFFF00" stroke="#000000" d="M491.58,202.404c0,3.535-2.765,6.401-6.173,6.401
			c-3.409,0-6.172-2.866-6.172-6.401c0-3.534,2.763-6.4,6.172-6.4C488.815,196.004,491.58,198.87,491.58,202.404z"/>
		<g enable-background="new    ">
			<path fill="#FF3399" d="M483.449,198.514c0.424-0.084,0.979-0.146,1.687-0.146c0.868,0,1.505,0.209,1.908,0.586
				c0.374,0.335,0.606,0.849,0.606,1.477c0,0.639-0.182,1.142-0.535,1.508c-0.465,0.514-1.223,0.775-2.081,0.775
				c-0.262,0-0.505-0.011-0.706-0.063v2.827h-0.879V198.514z M484.328,201.906c0.191,0.053,0.444,0.073,0.727,0.073
				c1.07,0,1.707-0.544,1.707-1.497c0-0.942-0.637-1.393-1.605-1.393c-0.384,0-0.677,0.041-0.828,0.073V201.906z"/>
		</g>
	</g>
	<g>
		
			<radialGradient id="path16609_27_" cx="359.7656" cy="-311.8174" r="16.1858" gradientTransform="matrix(1.5933 0 0 0.6358 -118.2103 400.7437)" gradientUnits="userSpaceOnUse">
			<stop  offset="0" style="stop-color:#A2FF5F"/>
			<stop  offset="0.4082" style="stop-color:#A0FF5F"/>
			<stop  offset="0.5552" style="stop-color:#99FD5F"/>
			<stop  offset="0.66" style="stop-color:#8EFB5E"/>
			<stop  offset="0.7448" style="stop-color:#7DF85E"/>
			<stop  offset="0.8174" style="stop-color:#67F35D"/>
			<stop  offset="0.8817" style="stop-color:#4BEE5C"/>
			<stop  offset="0.9398" style="stop-color:#2BE85B"/>
			<stop  offset="0.9915" style="stop-color:#07E05A"/>
			<stop  offset="1" style="stop-color:#00DF5A"/>
		</radialGradient>
		<path id="path16609_9_" fill="url(#path16609_27_)" stroke="#000000" d="M480.32,202.488c0,5.787-11.338,10.479-25.315,10.479
			c-13.981,0-25.315-4.689-25.315-10.479c0-5.787,11.334-10.475,25.315-10.475C468.982,192.014,480.32,196.701,480.32,202.488z"/>
		<g>
			<path d="M454.986,200.221h-3.132v2.916h3.504v0.876h-4.56v-8.088h4.38v0.876h-3.324v2.556h3.132V200.221z"/>
			<path d="M456.18,208.009v-0.453l0.58-0.563c1.395-1.327,2.033-2.032,2.033-2.855c0-0.555-0.261-1.067-1.076-1.067
				c-0.495,0-0.906,0.252-1.158,0.462l-0.235-0.521c0.37-0.311,0.915-0.555,1.546-0.555c1.167,0,1.662,0.807,1.662,1.588
				c0,1.008-0.73,1.823-1.881,2.932l-0.429,0.403v0.017h2.444v0.613H456.18z"/>
		</g>
	</g>
</g>
<g>
	<g>
		<path id="path19818_4_" fill="#FFFF00" stroke="#000000" d="M491.58,98.904c0,3.535-2.765,6.401-6.173,6.401
			c-3.409,0-6.172-2.866-6.172-6.401c0-3.534,2.763-6.4,6.172-6.4C488.815,92.504,491.58,95.37,491.58,98.904z"/>
		<g enable-background="new    ">
			<path fill="#FF3399" d="M483.449,95.014c0.424-0.084,0.979-0.146,1.687-0.146c0.868,0,1.505,0.209,1.908,0.586
				c0.374,0.335,0.606,0.849,0.606,1.477c0,0.639-0.182,1.142-0.535,1.508c-0.465,0.514-1.223,0.775-2.081,0.775
				c-0.262,0-0.505-0.011-0.706-0.063v2.827h-0.879V95.014z M484.328,98.406c0.191,0.053,0.444,0.073,0.727,0.073
				c1.07,0,1.707-0.544,1.707-1.497c0-0.942-0.637-1.393-1.605-1.393c-0.384,0-0.677,0.041-0.828,0.073V98.406z"/>
		</g>
	</g>
	<g>
		<g>
			<g>
				
					<radialGradient id="path16609_28_" cx="359.7656" cy="-474.6045" r="16.1858" gradientTransform="matrix(1.5933 0 0 0.6358 -118.2103 400.7437)" gradientUnits="userSpaceOnUse">
					<stop  offset="0" style="stop-color:#A2FF5F"/>
					<stop  offset="0.4082" style="stop-color:#A0FF5F"/>
					<stop  offset="0.5552" style="stop-color:#99FD5F"/>
					<stop  offset="0.66" style="stop-color:#8EFB5E"/>
					<stop  offset="0.7448" style="stop-color:#7DF85E"/>
					<stop  offset="0.8174" style="stop-color:#67F35D"/>
					<stop  offset="0.8817" style="stop-color:#4BEE5C"/>
					<stop  offset="0.9398" style="stop-color:#2BE85B"/>
					<stop  offset="0.9915" style="stop-color:#07E05A"/>
					<stop  offset="1" style="stop-color:#00DF5A"/>
				</radialGradient>
				<path id="path16609_10_" fill="url(#path16609_28_)" stroke="#000000" d="M480.32,98.988c0,5.787-11.338,10.479-25.315,10.479
					c-13.981,0-25.315-4.689-25.315-10.479c0-5.787,11.334-10.475,25.315-10.475C468.982,88.514,480.32,93.201,480.32,98.988z"/>
				<g>
					<path d="M454.986,96.721h-3.132v2.916h3.504v0.876h-4.56v-8.088h4.38v0.876h-3.324v2.556h3.132V96.721z"/>
					<path d="M456.18,104.509v-0.453l0.58-0.563c1.395-1.327,2.033-2.032,2.033-2.855c0-0.555-0.261-1.067-1.076-1.067
						c-0.495,0-0.906,0.252-1.158,0.462l-0.235-0.521c0.37-0.311,0.915-0.555,1.546-0.555c1.167,0,1.662,0.807,1.662,1.588
						c0,1.008-0.73,1.823-1.881,2.932l-0.429,0.403v0.017h2.444v0.613H456.18z"/>
				</g>
			</g>
			<g>
				
					<radialGradient id="path11134_35_" cx="914.3848" cy="-884.7109" r="22.1567" gradientTransform="matrix(0.3664 0 0 0.3664 94.3221 409.6476)" gradientUnits="userSpaceOnUse">
					<stop  offset="0" style="stop-color:#FFFCDF"/>
					<stop  offset="0.1203" style="stop-color:#FFFBDA"/>
					<stop  offset="0.2662" style="stop-color:#FFF9CB"/>
					<stop  offset="0.4255" style="stop-color:#FFF6B2"/>
					<stop  offset="0.5943" style="stop-color:#FFF090"/>
					<stop  offset="0.7706" style="stop-color:#FFEA64"/>
					<stop  offset="0.9506" style="stop-color:#FFE22F"/>
					<stop  offset="1" style="stop-color:#FFE01F"/>
				</radialGradient>
				<path id="path11134_16_" fill="url(#path11134_35_)" stroke="#000000" stroke-width="0.9921" d="M437.471,85.49
					c0,4.482-3.635,8.117-8.117,8.117c-4.484,0-8.119-3.635-8.119-8.117s3.633-8.119,8.119-8.119
					C433.836,77.371,437.471,81.008,437.471,85.49z"/>
				<g>
					<path d="M426.447,83.95h0.627v2.339h0.021c0.129-0.188,0.26-0.36,0.381-0.519l1.482-1.82h0.777l-1.756,2.059l1.893,2.792h-0.74
						l-1.592-2.382l-0.467,0.532v1.85h-0.627V83.95z"/>
					<path d="M431.463,83.725v1.184h1.139v0.302h-1.139v1.194h-0.322V85.21h-1.139v-0.302h1.139v-1.184H431.463z"/>
				</g>
			</g>
			<g>
				
					<radialGradient id="path11134_36_" cx="914.3848" cy="-811.0215" r="22.157" gradientTransform="matrix(0.3664 0 0 0.3664 94.3221 409.6476)" gradientUnits="userSpaceOnUse">
					<stop  offset="0" style="stop-color:#FFFCDF"/>
					<stop  offset="0.1203" style="stop-color:#FFFBDA"/>
					<stop  offset="0.2662" style="stop-color:#FFF9CB"/>
					<stop  offset="0.4255" style="stop-color:#FFF6B2"/>
					<stop  offset="0.5943" style="stop-color:#FFF090"/>
					<stop  offset="0.7706" style="stop-color:#FFEA64"/>
					<stop  offset="0.9506" style="stop-color:#FFE22F"/>
					<stop  offset="1" style="stop-color:#FFE01F"/>
				</radialGradient>
				<path id="path11134_15_" fill="url(#path11134_36_)" stroke="#000000" stroke-width="0.9921" d="M437.471,112.49
					c0,4.482-3.635,8.117-8.117,8.117c-4.484,0-8.119-3.635-8.119-8.117s3.633-8.119,8.119-8.119
					C433.836,104.371,437.471,108.008,437.471,112.49z"/>
				<g>
					<path d="M426.447,110.95h0.627v2.339h0.021c0.129-0.188,0.26-0.36,0.381-0.519l1.482-1.82h0.777l-1.756,2.059l1.893,2.792
						h-0.74l-1.592-2.382l-0.467,0.532v1.85h-0.627V110.95z"/>
					<path d="M431.463,110.725v1.184h1.139v0.302h-1.139v1.194h-0.322v-1.194h-1.139v-0.302h1.139v-1.184H431.463z"/>
				</g>
			</g>
		</g>
	</g>
</g>
<g>
	<g>
		<g>
			<g>
				
					<radialGradient id="path16609_29_" cx="253.6968" cy="-456.7393" r="16.186" gradientTransform="matrix(1.5933 0 0 0.6358 -118.2103 400.7437)" gradientUnits="userSpaceOnUse">
					<stop  offset="0" style="stop-color:#A2FF5F"/>
					<stop  offset="0.4082" style="stop-color:#A0FF5F"/>
					<stop  offset="0.5552" style="stop-color:#99FD5F"/>
					<stop  offset="0.66" style="stop-color:#8EFB5E"/>
					<stop  offset="0.7448" style="stop-color:#7DF85E"/>
					<stop  offset="0.8174" style="stop-color:#67F35D"/>
					<stop  offset="0.8817" style="stop-color:#4BEE5C"/>
					<stop  offset="0.9398" style="stop-color:#2BE85B"/>
					<stop  offset="0.9915" style="stop-color:#07E05A"/>
					<stop  offset="1" style="stop-color:#00DF5A"/>
				</radialGradient>
				<path id="path16609_11_" fill="url(#path16609_29_)" stroke="#000000" d="M311.32,110.347c0,5.787-11.338,10.479-25.315,10.479
					c-13.981,0-25.315-4.689-25.315-10.479c0-5.787,11.334-10.475,25.315-10.475C299.982,99.873,311.32,104.56,311.32,110.347z"/>
				<g>
					<path d="M285.986,108.079h-3.132v2.916h3.504v0.876h-4.56v-8.088h4.38v0.876h-3.324v2.556h3.132V108.079z"/>
					<path d="M287.18,115.867v-0.453l0.58-0.563c1.395-1.327,2.033-2.032,2.033-2.855c0-0.555-0.26-1.067-1.075-1.067
						c-0.496,0-0.907,0.252-1.159,0.462l-0.235-0.521c0.37-0.311,0.916-0.555,1.545-0.555c1.167,0,1.663,0.807,1.663,1.588
						c0,1.008-0.731,1.823-1.881,2.932l-0.429,0.403v0.017h2.444v0.613H287.18z"/>
				</g>
			</g>
			<g>
				
					<radialGradient id="path11134_37_" cx="453.1406" cy="-853.71" r="22.1565" gradientTransform="matrix(0.3664 0 0 0.3664 94.3221 409.6476)" gradientUnits="userSpaceOnUse">
					<stop  offset="0" style="stop-color:#FFFCDF"/>
					<stop  offset="0.1203" style="stop-color:#FFFBDA"/>
					<stop  offset="0.2662" style="stop-color:#FFF9CB"/>
					<stop  offset="0.4255" style="stop-color:#FFF6B2"/>
					<stop  offset="0.5943" style="stop-color:#FFF090"/>
					<stop  offset="0.7706" style="stop-color:#FFEA64"/>
					<stop  offset="0.9506" style="stop-color:#FFE22F"/>
					<stop  offset="1" style="stop-color:#FFE01F"/>
				</radialGradient>
				<path id="path11134_18_" fill="url(#path11134_37_)" stroke="#000000" stroke-width="0.9921" d="M268.471,96.849
					c0,4.482-3.635,8.117-8.117,8.117c-4.484,0-8.119-3.635-8.119-8.117s3.633-8.119,8.119-8.119
					C264.836,88.73,268.471,92.367,268.471,96.849z"/>
				<g>
					<path d="M257.448,95.309h0.626v2.339h0.021c0.13-0.188,0.26-0.36,0.382-0.519l1.482-1.82h0.777l-1.756,2.059l1.893,2.792
						h-0.741l-1.591-2.382l-0.468,0.532v1.85h-0.626V95.309z"/>
					<path d="M262.463,95.083v1.184h1.139v0.302h-1.139v1.194h-0.322v-1.194h-1.139v-0.302h1.139v-1.184H262.463z"/>
				</g>
			</g>
			<g>
				
					<radialGradient id="path11134_38_" cx="453.1406" cy="-780.02" r="22.1565" gradientTransform="matrix(0.3664 0 0 0.3664 94.3221 409.6476)" gradientUnits="userSpaceOnUse">
					<stop  offset="0" style="stop-color:#FFFCDF"/>
					<stop  offset="0.1203" style="stop-color:#FFFBDA"/>
					<stop  offset="0.2662" style="stop-color:#FFF9CB"/>
					<stop  offset="0.4255" style="stop-color:#FFF6B2"/>
					<stop  offset="0.5943" style="stop-color:#FFF090"/>
					<stop  offset="0.7706" style="stop-color:#FFEA64"/>
					<stop  offset="0.9506" style="stop-color:#FFE22F"/>
					<stop  offset="1" style="stop-color:#FFE01F"/>
				</radialGradient>
				<path id="path11134_17_" fill="url(#path11134_38_)" stroke="#000000" stroke-width="0.9921" d="M268.471,123.849
					c0,4.482-3.635,8.117-8.117,8.117c-4.484,0-8.119-3.635-8.119-8.117s3.633-8.119,8.119-8.119
					C264.836,115.73,268.471,119.367,268.471,123.849z"/>
				<g>
					<path d="M257.448,122.309h0.626v2.339h0.021c0.13-0.188,0.26-0.36,0.382-0.519l1.482-1.82h0.777l-1.756,2.059l1.893,2.792
						h-0.741l-1.591-2.382l-0.468,0.532v1.85h-0.626V122.309z"/>
					<path d="M262.463,122.083v1.184h1.139v0.302h-1.139v1.194h-0.322v-1.194h-1.139v-0.302h1.139v-1.184H262.463z"/>
				</g>
			</g>
		</g>
	</g>
</g>
<g>
	<g>
		<g>
			<g>
				
					<radialGradient id="path16609_30_" cx="253.6968" cy="-577.8467" r="16.186" gradientTransform="matrix(1.5933 0 0 0.6358 -118.2103 400.7437)" gradientUnits="userSpaceOnUse">
					<stop  offset="0" style="stop-color:#A2FF5F"/>
					<stop  offset="0.4082" style="stop-color:#A0FF5F"/>
					<stop  offset="0.5552" style="stop-color:#99FD5F"/>
					<stop  offset="0.66" style="stop-color:#8EFB5E"/>
					<stop  offset="0.7448" style="stop-color:#7DF85E"/>
					<stop  offset="0.8174" style="stop-color:#67F35D"/>
					<stop  offset="0.8817" style="stop-color:#4BEE5C"/>
					<stop  offset="0.9398" style="stop-color:#2BE85B"/>
					<stop  offset="0.9915" style="stop-color:#07E05A"/>
					<stop  offset="1" style="stop-color:#00DF5A"/>
				</radialGradient>
				<path id="path16609_12_" fill="url(#path16609_30_)" stroke="#000000" d="M311.32,33.347c0,5.787-11.338,10.479-25.315,10.479
					c-13.981,0-25.315-4.689-25.315-10.479c0-5.787,11.334-10.475,25.315-10.475C299.982,22.873,311.32,27.56,311.32,33.347z"/>
				<g>
					<path d="M285.986,31.079h-3.132v2.916h3.504v0.876h-4.56v-8.088h4.38v0.876h-3.324v2.556h3.132V31.079z"/>
					<path d="M287.18,38.867v-0.453l0.58-0.563c1.395-1.327,2.033-2.032,2.033-2.855c0-0.555-0.26-1.067-1.075-1.067
						c-0.496,0-0.907,0.252-1.159,0.462l-0.235-0.521c0.37-0.311,0.916-0.555,1.545-0.555c1.167,0,1.663,0.807,1.663,1.588
						c0,1.008-0.731,1.823-1.881,2.932l-0.429,0.403v0.017h2.444v0.613H287.18z"/>
				</g>
			</g>
			<g>
				
					<radialGradient id="path11134_39_" cx="453.1406" cy="-1063.8628" r="22.1565" gradientTransform="matrix(0.3664 0 0 0.3664 94.3221 409.6476)" gradientUnits="userSpaceOnUse">
					<stop  offset="0" style="stop-color:#FFFCDF"/>
					<stop  offset="0.1203" style="stop-color:#FFFBDA"/>
					<stop  offset="0.2662" style="stop-color:#FFF9CB"/>
					<stop  offset="0.4255" style="stop-color:#FFF6B2"/>
					<stop  offset="0.5943" style="stop-color:#FFF090"/>
					<stop  offset="0.7706" style="stop-color:#FFEA64"/>
					<stop  offset="0.9506" style="stop-color:#FFE22F"/>
					<stop  offset="1" style="stop-color:#FFE01F"/>
				</radialGradient>
				<path id="path11134_20_" fill="url(#path11134_39_)" stroke="#000000" stroke-width="0.9921" d="M268.471,19.849
					c0,4.482-3.635,8.117-8.117,8.117c-4.484,0-8.119-3.635-8.119-8.117s3.633-8.119,8.119-8.119
					C264.836,11.73,268.471,15.367,268.471,19.849z"/>
				<g>
					<path d="M257.448,18.309h0.626v2.339h0.021c0.13-0.188,0.26-0.36,0.382-0.519l1.482-1.82h0.777l-1.756,2.059l1.893,2.792
						h-0.741l-1.591-2.382l-0.468,0.532v1.85h-0.626V18.309z"/>
					<path d="M262.463,18.083v1.184h1.139v0.302h-1.139v1.194h-0.322v-1.194h-1.139v-0.302h1.139v-1.184H262.463z"/>
				</g>
			</g>
			<g>
				
					<radialGradient id="path11134_40_" cx="453.1406" cy="-990.1729" r="22.1565" gradientTransform="matrix(0.3664 0 0 0.3664 94.3221 409.6476)" gradientUnits="userSpaceOnUse">
					<stop  offset="0" style="stop-color:#FFFCDF"/>
					<stop  offset="0.1203" style="stop-color:#FFFBDA"/>
					<stop  offset="0.2662" style="stop-color:#FFF9CB"/>
					<stop  offset="0.4255" style="stop-color:#FFF6B2"/>
					<stop  offset="0.5943" style="stop-color:#FFF090"/>
					<stop  offset="0.7706" style="stop-color:#FFEA64"/>
					<stop  offset="0.9506" style="stop-color:#FFE22F"/>
					<stop  offset="1" style="stop-color:#FFE01F"/>
				</radialGradient>
				<path id="path11134_19_" fill="url(#path11134_40_)" stroke="#000000" stroke-width="0.9921" d="M268.471,46.849
					c0,4.482-3.635,8.117-8.117,8.117c-4.484,0-8.119-3.635-8.119-8.117s3.633-8.119,8.119-8.119
					C264.836,38.73,268.471,42.367,268.471,46.849z"/>
				<g>
					<path d="M257.448,45.309h0.626v2.339h0.021c0.13-0.188,0.26-0.36,0.382-0.519l1.482-1.82h0.777l-1.756,2.059l1.893,2.792
						h-0.741l-1.591-2.382l-0.468,0.532v1.85h-0.626V45.309z"/>
					<path d="M262.463,45.083v1.184h1.139v0.302h-1.139v1.194h-0.322v-1.194h-1.139v-0.302h1.139v-1.184H262.463z"/>
				</g>
			</g>
		</g>
	</g>
</g>
<g>
	<g>
		<line fill="none" stroke="#000000" x1="134.333" y1="49.667" x2="134.333" y2="93.667"/>
		<polygon points="130.63,90.858 134.333,92.431 138.038,90.858 134.333,99.636 		"/>
		<polygon points="138.037,52.475 134.333,50.902 130.629,52.475 134.333,43.697 		"/>
	</g>
</g>
<g>
	<g>
		<path fill="none" stroke="#000000" stroke-dasharray="3 3" d="M134.333,84.333c0-12.878-7.548-23.667-25.667-23.667"/>
		<polygon points="111.475,56.963 109.902,60.667 111.475,64.371 102.697,60.667 		"/>
	</g>
</g>
<g>
	<g>
		<line fill="none" stroke="#000000" x1="134.836" y1="174.957" x2="134.836" y2="126.667"/>
		<polygon points="138.539,129.475 134.836,127.902 131.132,129.475 134.836,120.697 		"/>
		<polygon points="131.133,172.148 134.836,173.721 138.54,172.148 134.836,180.926 		"/>
	</g>
</g>
<g>
	<g>
		<path fill="none" stroke="#000000" stroke-dasharray="3 3" d="M134.836,136.909c0,14.134-8.284,25.975-28.169,25.975"/>
		<polygon points="109.475,159.181 107.902,162.884 109.475,166.588 100.697,162.884 		"/>
	</g>
</g>
<g>
	<g>
		<line fill="none" stroke="#000000" x1="135" y1="209.666" x2="135" y2="261.729"/>
		<polygon points="131.297,258.92 135,260.492 138.705,258.92 135,267.697 		"/>
		<polygon points="138.704,212.475 135,210.902 131.296,212.475 135,203.697 		"/>
	</g>
</g>
<g>
	<g>
		<path fill="none" stroke="#000000" stroke-dasharray="3 3" d="M135,250.687c0-15.239-8.932-28.005-30.37-28.005"/>
		<polygon points="107.439,218.979 105.866,222.682 107.439,226.386 98.661,222.682 		"/>
	</g>
</g>
<g>
	<g>
		<line fill="none" stroke="#000000" x1="135" y1="349.513" x2="135" y2="295"/>
		<polygon points="138.703,297.809 135,296.236 131.296,297.809 135,289.031 		"/>
		<polygon points="131.297,346.704 135,348.277 138.704,346.704 135,355.482 		"/>
	</g>
</g>
<g>
	<g>
		<path fill="none" stroke="#000000" stroke-dasharray="3 3" d="M135,306.562c0,15.956-9.352,29.322-31.799,29.322"/>
		<polygon points="106.009,332.181 104.437,335.884 106.009,339.588 97.231,335.884 		"/>
	</g>
</g>
<g>
	<g>
		<polyline fill="none" stroke="#000000" points="177.75,365.25 454.5,365.25 454.5,334 		"/>
		<polygon points="458.203,336.809 454.5,335.236 450.796,336.809 454.5,328.031 		"/>
		<polygon points="180.559,361.547 178.986,365.25 180.559,368.954 171.781,365.25 		"/>
	</g>
</g>
<g>
	<g>
		<line fill="none" stroke="#000000" x1="454.666" y1="220" x2="454.666" y2="301.166"/>
		<polygon points="450.963,298.357 454.666,299.93 458.37,298.357 454.666,307.135 		"/>
		<polygon points="458.369,222.809 454.666,221.236 450.962,222.809 454.666,214.031 		"/>
	</g>
</g>
<g>
	<g>
		<path fill="none" stroke="#000000" stroke-dasharray="3 3" d="M454.666,286c0-17.412,8.554-32,29.084-32"/>
		<polygon points="480.941,257.703 482.514,254 480.941,250.296 489.719,254 		"/>
	</g>
</g>
<g>
	<g>
		<line fill="none" stroke="#000000" x1="454.916" y1="185.916" x2="454.916" y2="115.927"/>
		<polygon points="458.619,118.736 454.916,117.163 451.212,118.736 454.916,109.958 		"/>
		<polygon points="451.213,183.107 454.916,184.68 458.62,183.107 454.916,191.885 		"/>
	</g>
</g>
<g>
	<g>
		<path fill="none" stroke="#000000" stroke-dasharray="3 3" d="M454.916,129.004c0,15.015,7.375,27.593,25.078,27.593"/>
		<polygon points="477.186,160.301 478.758,156.598 477.186,152.894 485.963,156.598 		"/>
	</g>
</g>
<g>
	<g>
		<polyline fill="none" stroke="#000000" points="454.5,82.5 454.5,31.5 317.25,31.5 		"/>
		<polygon points="320.059,27.797 318.486,31.5 320.059,35.204 311.281,31.5 		"/>
		<polygon points="450.797,79.691 454.5,81.264 458.204,79.691 454.5,88.469 		"/>
	</g>
</g>
<g>
	<g>
		<path fill="none" stroke="#000000" stroke-dasharray="3 3" d="M454.583,64.264c0-15.015,7.375-27.593,25.078-27.593"/>
		<polygon points="476.853,40.374 478.426,36.67 476.853,32.966 485.631,36.67 		"/>
	</g>
</g>
<g>
	<g>
		<line fill="none" stroke="#000000" x1="285.999" y1="50.09" x2="285.999" y2="93.623"/>
		<polygon points="282.296,90.814 285.999,92.387 289.703,90.814 285.999,99.592 		"/>
		<polygon points="289.702,52.898 285.999,51.326 282.295,52.898 285.999,44.121 		"/>
	</g>
</g>
<g>
	<g>
		<path fill="none" stroke="#000000" stroke-dasharray="3 3" d="M285.999,84.39c0-12.742,7.468-23.416,25.395-23.416"/>
		<polygon points="308.585,64.677 310.158,60.974 308.585,57.27 317.363,60.974 		"/>
	</g>
</g>
<g>
	<g>
		<line fill="none" stroke="#000000" x1="167.332" y1="33.334" x2="254.667" y2="33.341"/>
		<polygon points="251.857,37.044 253.431,33.341 251.858,29.637 260.636,33.342 		"/>
		<polygon points="170.141,29.632 168.568,33.334 170.14,37.039 161.363,33.334 		"/>
	</g>
</g>
<g>
	<g>
		<line fill="none" stroke="#000000" x1="167.666" y1="110.334" x2="255" y2="110.341"/>
		<polygon points="252.191,114.044 253.764,110.341 252.192,106.637 260.969,110.342 		"/>
		<polygon points="170.474,106.632 168.901,110.334 170.474,114.039 161.696,110.334 		"/>
	</g>
</g>
<g>
	<path d="M11.886,202.915c-0.372,0.192-1.152,0.384-2.136,0.384c-2.28,0-3.984-1.44-3.984-4.104c0-2.544,1.716-4.248,4.224-4.248
		c0.996,0,1.644,0.216,1.92,0.36l-0.264,0.852c-0.384-0.192-0.948-0.336-1.62-0.336c-1.896,0-3.156,1.212-3.156,3.336
		c0,1.992,1.14,3.252,3.096,3.252c0.648,0,1.296-0.132,1.716-0.336L11.886,202.915z"/>
	<path d="M15.005,203.167v-3.432l-2.568-4.656h1.2l1.14,2.232c0.3,0.612,0.552,1.104,0.804,1.668h0.024
		c0.216-0.528,0.504-1.056,0.816-1.668l1.164-2.232h1.176l-2.7,4.644v3.444H15.005z"/>
	<path d="M21.761,195.967h-2.46v-0.888h5.988v0.888h-2.472v7.2h-1.056V195.967z"/>
	<path d="M29.021,203.299c-2.148,0-3.636-1.656-3.636-4.104c0-2.568,1.584-4.248,3.744-4.248c2.22,0,3.648,1.692,3.648,4.092
		c0,2.772-1.692,4.26-3.744,4.26H29.021z M29.069,202.447c1.656,0,2.592-1.524,2.592-3.36c0-1.608-0.84-3.288-2.58-3.288
		c-1.74,0-2.604,1.62-2.604,3.372c0,1.704,0.936,3.276,2.58,3.276H29.069z"/>
	<path d="M34.001,201.895c0.468,0.3,1.14,0.528,1.86,0.528c1.068,0,1.692-0.552,1.692-1.38c0-0.744-0.432-1.188-1.524-1.596
		c-1.32-0.48-2.136-1.176-2.136-2.304c0-1.26,1.044-2.196,2.616-2.196c0.816,0,1.428,0.192,1.776,0.396l-0.288,0.852
		c-0.252-0.156-0.792-0.384-1.524-0.384c-1.104,0-1.524,0.66-1.524,1.212c0,0.756,0.492,1.128,1.608,1.56
		c1.368,0.54,2.052,1.188,2.052,2.376c0,1.248-0.912,2.34-2.82,2.34c-0.78,0-1.632-0.24-2.064-0.528L34.001,201.895z"/>
	<path d="M43.205,203.299c-2.148,0-3.636-1.656-3.636-4.104c0-2.568,1.584-4.248,3.744-4.248c2.22,0,3.648,1.692,3.648,4.092
		c0,2.772-1.692,4.26-3.744,4.26H43.205z M43.253,202.447c1.656,0,2.592-1.524,2.592-3.36c0-1.608-0.84-3.288-2.58-3.288
		c-1.74,0-2.604,1.62-2.604,3.372c0,1.704,0.936,3.276,2.58,3.276H43.253z"/>
	<path d="M48.305,195.079h1.056v7.212h3.456v0.876h-4.512V195.079z"/>
</g>
<g>
	<path d="M537.9,195.078h1.057v7.212h3.455v0.876H537.9V195.078z"/>
	<path d="M544.188,195.078v4.8c0,1.8,0.804,2.568,1.884,2.568c1.188,0,1.969-0.792,1.969-2.568v-4.8h1.056v4.728
		c0,2.484-1.308,3.492-3.06,3.492c-1.656,0-2.904-0.936-2.904-3.456v-4.764H544.188z"/>
	<path d="M557.725,199.614c-0.061-1.128-0.133-2.496-0.133-3.492h-0.023c-0.288,0.936-0.612,1.956-1.02,3.072l-1.429,3.924h-0.792
		l-1.32-3.852c-0.384-1.152-0.695-2.184-0.924-3.144h-0.023c-0.024,1.008-0.084,2.352-0.156,3.576l-0.217,3.468h-0.996l0.564-8.088
		h1.332l1.381,3.912c0.336,0.996,0.6,1.884,0.815,2.724h0.024c0.215-0.816,0.504-1.704,0.863-2.724l1.44-3.912h1.332l0.504,8.088
		h-1.032L557.725,199.614z"/>
	<path d="M564.732,199.374H561.6v2.916h3.504v0.876h-4.56v-8.088h4.38v0.876H561.6v2.556h3.133V199.374z"/>
	<path d="M566.46,203.166v-8.088h1.151l2.58,4.092c0.588,0.948,1.068,1.788,1.44,2.628l0.036-0.012
		c-0.096-1.08-0.12-2.064-0.12-3.312v-3.396h0.983v8.088h-1.055l-2.568-4.104c-0.564-0.9-1.104-1.824-1.5-2.7l-0.036,0.012
		c0.06,1.02,0.071,1.992,0.071,3.336v3.456H566.46z"/>
</g>
</svg>
