<?xml version="1.0" encoding="UTF-8" standalone="no"?>
<!-- Created with Inkscape (http://www.inkscape.org/) -->
<svg
   xmlns:svg="http://www.w3.org/2000/svg"
   xmlns="http://www.w3.org/2000/svg"
   xmlns:xlink="http://www.w3.org/1999/xlink"
   version="1.0"
   width="583"
   height="396"
   viewBox="0 0 583 396"
   id="Layer_1"
   xml:space="preserve"
   style="overflow:visible"><defs
   id="defs1275">
	
	

	
	

		
	<radialGradient
   cx="359.76559"
   cy="-130.94341"
   r="16.186001"
   id="radialGradient3850"
   xlink:href="#path16609_26_"
   gradientUnits="userSpaceOnUse"
   gradientTransform="matrix(1.5933,0,0,0.6358,-118.2103,400.7437)" /><radialGradient
   cx="914.38483"
   cy="-288.36819"
   r="22.1567"
   id="radialGradient3852"
   xlink:href="#path11134_33_"
   gradientUnits="userSpaceOnUse"
   gradientTransform="matrix(0.3664,0,0,0.3664,94.3221,409.6476)" /><radialGradient
   cx="914.38483"
   cy="-214.6787"
   r="22.157"
   id="radialGradient3854"
   xlink:href="#path11134_34_"
   gradientUnits="userSpaceOnUse"
   gradientTransform="matrix(0.3664,0,0,0.3664,94.3221,409.6476)" /><radialGradient
   cx="359.76559"
   cy="-130.94341"
   r="16.186001"
   id="radialGradient3901"
   xlink:href="#path16609_26_"
   gradientUnits="userSpaceOnUse"
   gradientTransform="matrix(1.5933,0,0,0.6358,-118.2103,400.7437)" /><radialGradient
   cx="914.38483"
   cy="-288.36819"
   r="22.1567"
   id="radialGradient3903"
   xlink:href="#path11134_33_"
   gradientUnits="userSpaceOnUse"
   gradientTransform="matrix(0.3664,0,0,0.3664,94.3221,409.6476)" /><radialGradient
   cx="914.38483"
   cy="-214.6787"
   r="22.157"
   id="radialGradient3905"
   xlink:href="#path11134_34_"
   gradientUnits="userSpaceOnUse"
   gradientTransform="matrix(0.3664,0,0,0.3664,94.3221,409.6476)" />
			
			
			
		
		
	<radialGradient
   cx="159.2388"
   cy="-55.4473"
   r="16.185801"
   id="radialGradient3996"
   xlink:href="#path16609_25_"
   gradientUnits="userSpaceOnUse"
   gradientTransform="matrix(1.5933,0,0,0.6358,-118.2103,400.7437)" /><radialGradient
   cx="42.3857"
   cy="-157.3643"
   r="22.1567"
   id="radialGradient3998"
   xlink:href="#path11134_31_"
   gradientUnits="userSpaceOnUse"
   gradientTransform="matrix(0.3664,0,0,0.3664,94.3221,409.6476)" /><radialGradient
   cx="42.3857"
   cy="-83.673798"
   r="22.1565"
   id="radialGradient4000"
   xlink:href="#path11134_32_"
   gradientUnits="userSpaceOnUse"
   gradientTransform="matrix(0.3664,0,0,0.3664,94.3221,409.6476)" />
			
			
			
		
	
	
<radialGradient
   cx="159.2388"
   cy="-193.06931"
   r="16.185801"
   id="radialGradient4106"
   xlink:href="#path16609_24_"
   gradientUnits="userSpaceOnUse"
   gradientTransform="matrix(1.5933,0,0,0.6358,-118.2103,400.7437)" /><radialGradient
   cx="42.3857"
   cy="-396.1738"
   r="22.1565"
   id="radialGradient4108"
   xlink:href="#path11134_29_"
   gradientUnits="userSpaceOnUse"
   gradientTransform="matrix(0.3664,0,0,0.3664,94.3221,409.6476)" /><radialGradient
   cx="42.3857"
   cy="-322.48441"
   r="22.1567"
   id="radialGradient4110"
   xlink:href="#path11134_30_"
   gradientUnits="userSpaceOnUse"
   gradientTransform="matrix(0.3664,0,0,0.3664,94.3221,409.6476)" />
		
		
		
	<radialGradient
   cx="191.5825"
   cy="-200.6958"
   r="16.1863"
   id="radialGradient4156"
   xlink:href="#path16609_23_"
   gradientUnits="userSpaceOnUse"
   gradientTransform="matrix(1.214,0,0,0.4844,-58.8826,375.2076)" />
		
			<radialGradient
   cx="191.5825"
   cy="-200.6958"
   r="16.1863"
   id="path16609_23_"
   gradientUnits="userSpaceOnUse"
   gradientTransform="matrix(1.214,0,0,0.4844,-58.8826,375.2076)">
			<stop
   id="stop463"
   style="stop-color:#fffcdf;stop-opacity:1"
   offset="0" />
			<stop
   id="stop465"
   style="stop-color:#fffbda;stop-opacity:1"
   offset="0.1203" />
			<stop
   id="stop467"
   style="stop-color:#fff9cb;stop-opacity:1"
   offset="0.26620001" />
			<stop
   id="stop469"
   style="stop-color:#fff6b2;stop-opacity:1"
   offset="0.42550001" />
			<stop
   id="stop471"
   style="stop-color:#fff090;stop-opacity:1"
   offset="0.59429997" />
			<stop
   id="stop473"
   style="stop-color:#ffea64;stop-opacity:1"
   offset="0.77060002" />
			<stop
   id="stop475"
   style="stop-color:#ffe22f;stop-opacity:1"
   offset="0.95060003" />
			<stop
   id="stop477"
   style="stop-color:#ffe01f;stop-opacity:1"
   offset="1" />
		</radialGradient>
		
		
	<radialGradient
   cx="191.5825"
   cy="-200.6958"
   r="16.1863"
   id="radialGradient4172"
   xlink:href="#path16609_23_"
   gradientUnits="userSpaceOnUse"
   gradientTransform="matrix(1.214,0,0,0.4844,-58.8826,375.2076)" />
	
	
	
<radialGradient
   cx="43.7505"
   cy="-780.02002"
   r="22.1567"
   id="radialGradient4218"
   xlink:href="#path11134_28_"
   gradientUnits="userSpaceOnUse"
   gradientTransform="matrix(0.3664,0,0,0.3664,94.3221,409.6476)" />
		
			<radialGradient
   cx="43.7505"
   cy="-780.02002"
   r="22.1567"
   id="path11134_28_"
   gradientUnits="userSpaceOnUse"
   gradientTransform="matrix(0.3664,0,0,0.3664,94.3221,409.6476)">
			<stop
   id="stop375"
   style="stop-color:#fffcdf;stop-opacity:1"
   offset="0" />
			<stop
   id="stop377"
   style="stop-color:#fffbda;stop-opacity:1"
   offset="0.1203" />
			<stop
   id="stop379"
   style="stop-color:#fff9cb;stop-opacity:1"
   offset="0.26620001" />
			<stop
   id="stop381"
   style="stop-color:#fff6b2;stop-opacity:1"
   offset="0.42550001" />
			<stop
   id="stop383"
   style="stop-color:#fff090;stop-opacity:1"
   offset="0.59429997" />
			<stop
   id="stop385"
   style="stop-color:#ffea64;stop-opacity:1"
   offset="0.77060002" />
			<stop
   id="stop387"
   style="stop-color:#ffe22f;stop-opacity:1"
   offset="0.95060003" />
			<stop
   id="stop389"
   style="stop-color:#ffe01f;stop-opacity:1"
   offset="1" />
		</radialGradient>
		
		
	<radialGradient
   cx="43.7505"
   cy="-780.02002"
   r="22.1567"
   id="radialGradient4233"
   xlink:href="#path11134_28_"
   gradientUnits="userSpaceOnUse"
   gradientTransform="matrix(0.3664,0,0,0.3664,94.3221,409.6476)" /><radialGradient
   cx="43.7505"
   cy="-853.71002"
   r="22.1567"
   id="radialGradient4235"
   xlink:href="#path11134_27_"
   gradientUnits="userSpaceOnUse"
   gradientTransform="matrix(0.3664,0,0,0.3664,94.3221,409.6476)" />
		
			<radialGradient
   cx="43.7505"
   cy="-853.71002"
   r="22.1567"
   id="path11134_27_"
   gradientUnits="userSpaceOnUse"
   gradientTransform="matrix(0.3664,0,0,0.3664,94.3221,409.6476)">
			<stop
   id="stop349"
   style="stop-color:#fffcdf;stop-opacity:1"
   offset="0" />
			<stop
   id="stop351"
   style="stop-color:#fffbda;stop-opacity:1"
   offset="0.1203" />
			<stop
   id="stop353"
   style="stop-color:#fff9cb;stop-opacity:1"
   offset="0.26620001" />
			<stop
   id="stop355"
   style="stop-color:#fff6b2;stop-opacity:1"
   offset="0.42550001" />
			<stop
   id="stop357"
   style="stop-color:#fff090;stop-opacity:1"
   offset="0.59429997" />
			<stop
   id="stop359"
   style="stop-color:#ffea64;stop-opacity:1"
   offset="0.77060002" />
			<stop
   id="stop361"
   style="stop-color:#ffe22f;stop-opacity:1"
   offset="0.95060003" />
			<stop
   id="stop363"
   style="stop-color:#ffe01f;stop-opacity:1"
   offset="1" />
		</radialGradient>
		
		
	<radialGradient
   cx="43.7505"
   cy="-853.71002"
   r="22.1567"
   id="radialGradient4250"
   xlink:href="#path11134_27_"
   gradientUnits="userSpaceOnUse"
   gradientTransform="matrix(0.3664,0,0,0.3664,94.3221,409.6476)" /><radialGradient
   cx="159.5527"
   cy="-456.7402"
   r="16.185801"
   id="radialGradient4252"
   xlink:href="#path16609_20_"
   gradientUnits="userSpaceOnUse"
   gradientTransform="matrix(1.5933,0,0,0.6358,-118.2103,400.7437)" />
		
			<radialGradient
   cx="159.5527"
   cy="-456.7402"
   r="16.185801"
   id="path16609_20_"
   gradientUnits="userSpaceOnUse"
   gradientTransform="matrix(1.5933,0,0,0.6358,-118.2103,400.7437)">
			<stop
   id="stop319"
   style="stop-color:#a2ff5f;stop-opacity:1"
   offset="0" />
			<stop
   id="stop321"
   style="stop-color:#a0ff5f;stop-opacity:1"
   offset="0.4082" />
			<stop
   id="stop323"
   style="stop-color:#99fd5f;stop-opacity:1"
   offset="0.55519998" />
			<stop
   id="stop325"
   style="stop-color:#8efb5e;stop-opacity:1"
   offset="0.66000003" />
			<stop
   id="stop327"
   style="stop-color:#7df85e;stop-opacity:1"
   offset="0.74479997" />
			<stop
   id="stop329"
   style="stop-color:#67f35d;stop-opacity:1"
   offset="0.81739998" />
			<stop
   id="stop331"
   style="stop-color:#4bee5c;stop-opacity:1"
   offset="0.88169998" />
			<stop
   id="stop333"
   style="stop-color:#2be85b;stop-opacity:1"
   offset="0.93980002" />
			<stop
   id="stop335"
   style="stop-color:#07e05a;stop-opacity:1"
   offset="0.99150002" />
			<stop
   id="stop337"
   style="stop-color:#00df5a;stop-opacity:1"
   offset="1" />
		</radialGradient>
		
		
	<radialGradient
   cx="159.5527"
   cy="-456.7402"
   r="16.185801"
   id="radialGradient4269"
   xlink:href="#path16609_20_"
   gradientUnits="userSpaceOnUse"
   gradientTransform="matrix(1.5933,0,0,0.6358,-118.2103,400.7437)" />
	
	
<radialGradient
   cx="359.76559"
   cy="-474.60449"
   r="16.185801"
   id="radialGradient4321"
   xlink:href="#path16609_28_"
   gradientUnits="userSpaceOnUse"
   gradientTransform="matrix(1.5933,0,0,0.6358,-118.2103,400.7437)" /><radialGradient
   cx="914.38483"
   cy="-884.71088"
   r="22.1567"
   id="radialGradient4323"
   xlink:href="#path11134_35_"
   gradientUnits="userSpaceOnUse"
   gradientTransform="matrix(0.3664,0,0,0.3664,94.3221,409.6476)" /><radialGradient
   cx="914.38483"
   cy="-811.02148"
   r="22.157"
   id="radialGradient4325"
   xlink:href="#path11134_36_"
   gradientUnits="userSpaceOnUse"
   gradientTransform="matrix(0.3664,0,0,0.3664,94.3221,409.6476)" />
		
	
		
		
	
	
<radialGradient
   cx="253.69679"
   cy="-456.73929"
   r="16.186001"
   id="radialGradient4421"
   xlink:href="#path16609_29_"
   gradientUnits="userSpaceOnUse"
   gradientTransform="matrix(1.5933,0,0,0.6358,-118.2103,400.7437)" /><radialGradient
   cx="453.14059"
   cy="-853.71002"
   r="22.1565"
   id="radialGradient4423"
   xlink:href="#path11134_37_"
   gradientUnits="userSpaceOnUse"
   gradientTransform="matrix(0.3664,0,0,0.3664,94.3221,409.6476)" /><radialGradient
   cx="453.14059"
   cy="-780.02002"
   r="22.1565"
   id="radialGradient4425"
   xlink:href="#path11134_38_"
   gradientUnits="userSpaceOnUse"
   gradientTransform="matrix(0.3664,0,0,0.3664,94.3221,409.6476)" />
		
	<radialGradient
   cx="253.69679"
   cy="-456.73929"
   r="16.186001"
   id="radialGradient4472"
   xlink:href="#path16609_29_"
   gradientUnits="userSpaceOnUse"
   gradientTransform="matrix(1.5933,0,0,0.6358,-118.2103,400.7437)" /><radialGradient
   cx="453.14059"
   cy="-853.71002"
   r="22.1565"
   id="radialGradient4474"
   xlink:href="#path11134_37_"
   gradientUnits="userSpaceOnUse"
   gradientTransform="matrix(0.3664,0,0,0.3664,94.3221,409.6476)" /><radialGradient
   cx="453.14059"
   cy="-780.02002"
   r="22.1565"
   id="radialGradient4476"
   xlink:href="#path11134_38_"
   gradientUnits="userSpaceOnUse"
   gradientTransform="matrix(0.3664,0,0,0.3664,94.3221,409.6476)" />
			
			
			
		<radialGradient
   cx="453.14059"
   cy="-780.02002"
   r="22.1565"
   id="radialGradient4522"
   xlink:href="#path11134_38_"
   gradientUnits="userSpaceOnUse"
   gradientTransform="matrix(0.3664,0,0,0.3664,94.3221,409.6476)" />
				
					<radialGradient
   cx="453.14059"
   cy="-780.02002"
   r="22.1565"
   id="path11134_38_"
   gradientUnits="userSpaceOnUse"
   gradientTransform="matrix(0.3664,0,0,0.3664,94.3221,409.6476)">
					<stop
   id="stop961"
   style="stop-color:#fffcdf;stop-opacity:1"
   offset="0" />
					<stop
   id="stop963"
   style="stop-color:#fffbda;stop-opacity:1"
   offset="0.1203" />
					<stop
   id="stop965"
   style="stop-color:#fff9cb;stop-opacity:1"
   offset="0.26620001" />
					<stop
   id="stop967"
   style="stop-color:#fff6b2;stop-opacity:1"
   offset="0.42550001" />
					<stop
   id="stop969"
   style="stop-color:#fff090;stop-opacity:1"
   offset="0.59429997" />
					<stop
   id="stop971"
   style="stop-color:#ffea64;stop-opacity:1"
   offset="0.77060002" />
					<stop
   id="stop973"
   style="stop-color:#ffe22f;stop-opacity:1"
   offset="0.95060003" />
					<stop
   id="stop975"
   style="stop-color:#ffe01f;stop-opacity:1"
   offset="1" />
				</radialGradient>
				
				
			<radialGradient
   cx="453.14059"
   cy="-780.02002"
   r="22.1565"
   id="radialGradient4537"
   xlink:href="#path11134_38_"
   gradientUnits="userSpaceOnUse"
   gradientTransform="matrix(0.3664,0,0,0.3664,94.3221,409.6476)" /><radialGradient
   cx="453.14059"
   cy="-853.71002"
   r="22.1565"
   id="radialGradient4539"
   xlink:href="#path11134_37_"
   gradientUnits="userSpaceOnUse"
   gradientTransform="matrix(0.3664,0,0,0.3664,94.3221,409.6476)" />
				
					<radialGradient
   cx="453.14059"
   cy="-853.71002"
   r="22.1565"
   id="path11134_37_"
   gradientUnits="userSpaceOnUse"
   gradientTransform="matrix(0.3664,0,0,0.3664,94.3221,409.6476)">
					<stop
   id="stop935"
   style="stop-color:#fffcdf;stop-opacity:1"
   offset="0" />
					<stop
   id="stop937"
   style="stop-color:#fffbda;stop-opacity:1"
   offset="0.1203" />
					<stop
   id="stop939"
   style="stop-color:#fff9cb;stop-opacity:1"
   offset="0.26620001" />
					<stop
   id="stop941"
   style="stop-color:#fff6b2;stop-opacity:1"
   offset="0.42550001" />
					<stop
   id="stop943"
   style="stop-color:#fff090;stop-opacity:1"
   offset="0.59429997" />
					<stop
   id="stop945"
   style="stop-color:#ffea64;stop-opacity:1"
   offset="0.77060002" />
					<stop
   id="stop947"
   style="stop-color:#ffe22f;stop-opacity:1"
   offset="0.95060003" />
					<stop
   id="stop949"
   style="stop-color:#ffe01f;stop-opacity:1"
   offset="1" />
				</radialGradient>
				
				
			<radialGradient
   cx="453.14059"
   cy="-853.71002"
   r="22.1565"
   id="radialGradient4554"
   xlink:href="#path11134_37_"
   gradientUnits="userSpaceOnUse"
   gradientTransform="matrix(0.3664,0,0,0.3664,94.3221,409.6476)" /><radialGradient
   cx="253.69679"
   cy="-456.73929"
   r="16.186001"
   id="radialGradient4556"
   xlink:href="#path16609_29_"
   gradientUnits="userSpaceOnUse"
   gradientTransform="matrix(1.5933,0,0,0.6358,-118.2103,400.7437)" />
				
					<radialGradient
   cx="253.69679"
   cy="-456.73929"
   r="16.186001"
   id="path16609_29_"
   gradientUnits="userSpaceOnUse"
   gradientTransform="matrix(1.5933,0,0,0.6358,-118.2103,400.7437)">
					<stop
   id="stop905"
   style="stop-color:#a2ff5f;stop-opacity:1"
   offset="0" />
					<stop
   id="stop907"
   style="stop-color:#a0ff5f;stop-opacity:1"
   offset="0.4082" />
					<stop
   id="stop909"
   style="stop-color:#99fd5f;stop-opacity:1"
   offset="0.55519998" />
					<stop
   id="stop911"
   style="stop-color:#8efb5e;stop-opacity:1"
   offset="0.66000003" />
					<stop
   id="stop913"
   style="stop-color:#7df85e;stop-opacity:1"
   offset="0.74479997" />
					<stop
   id="stop915"
   style="stop-color:#67f35d;stop-opacity:1"
   offset="0.81739998" />
					<stop
   id="stop917"
   style="stop-color:#4bee5c;stop-opacity:1"
   offset="0.88169998" />
					<stop
   id="stop919"
   style="stop-color:#2be85b;stop-opacity:1"
   offset="0.93980002" />
					<stop
   id="stop921"
   style="stop-color:#07e05a;stop-opacity:1"
   offset="0.99150002" />
					<stop
   id="stop923"
   style="stop-color:#00df5a;stop-opacity:1"
   offset="1" />
				</radialGradient>
				
				
			<radialGradient
   cx="253.69679"
   cy="-456.73929"
   r="16.186001"
   id="radialGradient4573"
   xlink:href="#path16609_29_"
   gradientUnits="userSpaceOnUse"
   gradientTransform="matrix(1.5933,0,0,0.6358,-118.2103,400.7437)" />
	
<radialGradient
   cx="253.69679"
   cy="-577.84668"
   r="16.186001"
   id="radialGradient4635"
   xlink:href="#path16609_30_"
   gradientUnits="userSpaceOnUse"
   gradientTransform="matrix(1.5933,0,0,0.6358,-118.2103,400.7437)" /><radialGradient
   cx="453.14059"
   cy="-1063.8628"
   r="22.1565"
   id="radialGradient4637"
   xlink:href="#path11134_39_"
   gradientUnits="userSpaceOnUse"
   gradientTransform="matrix(0.3664,0,0,0.3664,94.3221,409.6476)" /><radialGradient
   cx="453.14059"
   cy="-990.17291"
   r="22.1565"
   id="radialGradient4639"
   xlink:href="#path11134_40_"
   gradientUnits="userSpaceOnUse"
   gradientTransform="matrix(0.3664,0,0,0.3664,94.3221,409.6476)" />
		
	<radialGradient
   cx="253.69679"
   cy="-577.84668"
   r="16.186001"
   id="radialGradient4686"
   xlink:href="#path16609_30_"
   gradientUnits="userSpaceOnUse"
   gradientTransform="matrix(1.5933,0,0,0.6358,-118.2103,400.7437)" /><radialGradient
   cx="453.14059"
   cy="-1063.8628"
   r="22.1565"
   id="radialGradient4688"
   xlink:href="#path11134_39_"
   gradientUnits="userSpaceOnUse"
   gradientTransform="matrix(0.3664,0,0,0.3664,94.3221,409.6476)" /><radialGradient
   cx="453.14059"
   cy="-990.17291"
   r="22.1565"
   id="radialGradient4690"
   xlink:href="#path11134_40_"
   gradientUnits="userSpaceOnUse"
   gradientTransform="matrix(0.3664,0,0,0.3664,94.3221,409.6476)" />
			
			
			
		
	
	
	
<radialGradient
   cx="359.76559"
   cy="-474.60449"
   r="16.185801"
   id="radialGradient4780"
   xlink:href="#path16609_28_"
   gradientUnits="userSpaceOnUse"
   gradientTransform="matrix(1.5933,0,0,0.6358,-118.2103,400.7437)" /><radialGradient
   cx="914.38483"
   cy="-884.71088"
   r="22.1567"
   id="radialGradient4782"
   xlink:href="#path11134_35_"
   gradientUnits="userSpaceOnUse"
   gradientTransform="matrix(0.3664,0,0,0.3664,94.3221,409.6476)" /><radialGradient
   cx="914.38483"
   cy="-811.02148"
   r="22.157"
   id="radialGradient4784"
   xlink:href="#path11134_36_"
   gradientUnits="userSpaceOnUse"
   gradientTransform="matrix(0.3664,0,0,0.3664,94.3221,409.6476)" />
			
			
			
		
	
	
<radialGradient
   cx="1148.4189"
   cy="-688.29303"
   r="22.1565"
   id="radialGradient4847"
   xlink:href="#path11134_23_"
   gradientUnits="userSpaceOnUse"
   gradientTransform="matrix(0.3664,0,0,0.3664,94.3221,409.6476)" /><radialGradient
   cx="914.38483"
   cy="-884.71088"
   r="22.1567"
   id="radialGradient4849"
   xlink:href="#path11134_35_"
   gradientUnits="userSpaceOnUse"
   gradientTransform="matrix(0.3664,0,0,0.3664,94.3221,409.6476)" />
	
	
<radialGradient
   cx="1156.6074"
   cy="-424.91891"
   r="22.1563"
   id="radialGradient4868"
   xlink:href="#path11134_24_"
   gradientUnits="userSpaceOnUse"
   gradientTransform="matrix(0.3664,0,0,0.3664,94.3221,409.6476)" /><radialGradient
   cx="914.38483"
   cy="-214.6787"
   r="22.157"
   id="radialGradient4870"
   xlink:href="#path11134_34_"
   gradientUnits="userSpaceOnUse"
   gradientTransform="matrix(0.3664,0,0,0.3664,94.3221,409.6476)" /><radialGradient
   cx="42.3857"
   cy="-83.673798"
   r="22.1565"
   id="radialGradient4872"
   xlink:href="#path11134_32_"
   gradientUnits="userSpaceOnUse"
   gradientTransform="matrix(0.3664,0,0,0.3664,94.3221,409.6476)" /><radialGradient
   cx="42.3857"
   cy="-396.1738"
   r="22.1565"
   id="radialGradient4874"
   xlink:href="#path11134_29_"
   gradientUnits="userSpaceOnUse"
   gradientTransform="matrix(0.3664,0,0,0.3664,94.3221,409.6476)" />
	
	

	
	
<radialGradient
   cx="43.7505"
   cy="-853.71002"
   r="22.1567"
   id="radialGradient4916"
   xlink:href="#path11134_27_"
   gradientUnits="userSpaceOnUse"
   gradientTransform="matrix(0.3664,0,0,0.3664,94.3221,409.6476)" /><radialGradient
   cx="43.7505"
   cy="-1063.8628"
   r="22.1567"
   id="radialGradient4918"
   xlink:href="#path11134_25_"
   gradientUnits="userSpaceOnUse"
   gradientTransform="matrix(0.3664,0,0,0.3664,94.3221,409.6476)" /><radialGradient
   cx="253.69679"
   cy="-456.73929"
   r="16.186001"
   id="radialGradient4920"
   xlink:href="#path16609_29_"
   gradientUnits="userSpaceOnUse"
   gradientTransform="matrix(1.5933,0,0,0.6358,-118.2103,400.7437)" /><radialGradient
   cx="453.14059"
   cy="-853.71002"
   r="22.1565"
   id="radialGradient4922"
   xlink:href="#path11134_37_"
   gradientUnits="userSpaceOnUse"
   gradientTransform="matrix(0.3664,0,0,0.3664,94.3221,409.6476)" /><radialGradient
   cx="453.14059"
   cy="-780.02002"
   r="22.1565"
   id="radialGradient4924"
   xlink:href="#path11134_38_"
   gradientUnits="userSpaceOnUse"
   gradientTransform="matrix(0.3664,0,0,0.3664,94.3221,409.6476)" /><radialGradient
   cx="453.14059"
   cy="-780.02002"
   r="22.1565"
   id="radialGradient4930"
   xlink:href="#path11134_38_"
   gradientUnits="userSpaceOnUse"
   gradientTransform="matrix(0.3664,0,0,0.3664,94.3221,409.6476)" /><radialGradient
   cx="453.14059"
   cy="-853.71002"
   r="22.1565"
   id="radialGradient4936"
   xlink:href="#path11134_37_"
   gradientUnits="userSpaceOnUse"
   gradientTransform="matrix(0.3664,0,0,0.3664,94.3221,409.6476)" /><radialGradient
   cx="253.69679"
   cy="-456.73929"
   r="16.186001"
   id="radialGradient4942"
   xlink:href="#path16609_29_"
   gradientUnits="userSpaceOnUse"
   gradientTransform="matrix(1.5933,0,0,0.6358,-118.2103,400.7437)" />
	
	
</defs>
<g
   id="g3">
	
		<radialGradient
   cx="117.188"
   cy="-649.12262"
   r="16.1863"
   id="path16609_5_"
   gradientUnits="userSpaceOnUse"
   gradientTransform="matrix(1.214,0,0,0.4844,-58.8826,375.2076)">
		<stop
   id="stop6"
   style="stop-color:#fffcdf;stop-opacity:1"
   offset="0" />
		<stop
   id="stop8"
   style="stop-color:#fffbda;stop-opacity:1"
   offset="0.1203" />
		<stop
   id="stop10"
   style="stop-color:#fff9cb;stop-opacity:1"
   offset="0.26620001" />
		<stop
   id="stop12"
   style="stop-color:#fff6b2;stop-opacity:1"
   offset="0.42550001" />
		<stop
   id="stop14"
   style="stop-color:#fff090;stop-opacity:1"
   offset="0.59429997" />
		<stop
   id="stop16"
   style="stop-color:#ffea64;stop-opacity:1"
   offset="0.77060002" />
		<stop
   id="stop18"
   style="stop-color:#ffe22f;stop-opacity:1"
   offset="0.95060003" />
		<stop
   id="stop20"
   style="stop-color:#ffe01f;stop-opacity:1"
   offset="1" />
	</radialGradient>
	<path
   d="M 102.672,60.771 C 102.672,65.18 94.033,68.754 83.383,68.754 C 72.731,68.754 64.095,65.181 64.095,60.771 C 64.095,56.361 72.731,52.79 83.383,52.79 C 94.034,52.791 102.672,56.362 102.672,60.771 z"
   id="path16609_17_"
   style="fill:url(#path16609_5_);stroke:#000000" />
	<g
   id="g23">
		<path
   d="M 77.424,61.587 L 76.724,63.707 L 75.824,63.707 L 78.114,56.967 L 79.164,56.967 L 81.464,63.707 L 80.534,63.707 L 79.814,61.587 L 77.424,61.587 z M 79.634,60.907 L 78.964,58.967 C 78.824,58.527 78.724,58.127 78.624,57.737 L 78.594,57.737 C 78.504,58.127 78.394,58.547 78.264,58.957 L 77.604,60.907 L 79.634,60.907 L 79.634,60.907 z"
   id="path25" />
		<path
   d="M 82.944,57.707 L 80.894,57.707 L 80.894,56.967 L 85.884,56.967 L 85.884,57.707 L 83.824,57.707 L 83.824,63.707 L 82.944,63.707 L 82.944,57.707 z"
   id="path27" />
		<path
   d="M 86.634,57.057 C 87.054,56.977 87.604,56.917 88.304,56.917 C 89.164,56.917 89.794,57.117 90.194,57.477 C 90.564,57.797 90.794,58.287 90.794,58.887 C 90.794,59.497 90.614,59.977 90.264,60.327 C 89.804,60.817 89.054,61.067 88.204,61.067 C 87.944,61.067 87.704,61.057 87.504,61.007 L 87.504,63.707 L 86.634,63.707 L 86.634,57.057 L 86.634,57.057 z M 87.504,60.297 C 87.694,60.347 87.944,60.367 88.224,60.367 C 89.284,60.367 89.914,59.847 89.914,58.937 C 89.914,58.037 89.284,57.607 88.324,57.607 C 87.944,57.607 87.654,57.647 87.504,57.677 L 87.504,60.297 z"
   id="path29" />
	</g>
</g>
<g
   id="g31">
	
		<radialGradient
   cx="112.7944"
   cy="-79.3452"
   r="16.1863"
   id="path16609_13_"
   gradientUnits="userSpaceOnUse"
   gradientTransform="matrix(1.214,0,0,0.4844,-58.8826,375.2076)">
		<stop
   id="stop34"
   style="stop-color:#fffcdf;stop-opacity:1"
   offset="0" />
		<stop
   id="stop36"
   style="stop-color:#fffbda;stop-opacity:1"
   offset="0.1203" />
		<stop
   id="stop38"
   style="stop-color:#fff9cb;stop-opacity:1"
   offset="0.26620001" />
		<stop
   id="stop40"
   style="stop-color:#fff6b2;stop-opacity:1"
   offset="0.42550001" />
		<stop
   id="stop42"
   style="stop-color:#fff090;stop-opacity:1"
   offset="0.59429997" />
		<stop
   id="stop44"
   style="stop-color:#ffea64;stop-opacity:1"
   offset="0.77060002" />
		<stop
   id="stop46"
   style="stop-color:#ffe22f;stop-opacity:1"
   offset="0.95060003" />
		<stop
   id="stop48"
   style="stop-color:#ffe01f;stop-opacity:1"
   offset="1" />
	</radialGradient>
	<path
   d="M 97.339,336.772 C 97.339,341.18 88.7,344.754 78.05,344.754 C 67.398,344.754 58.762,341.182 58.762,336.772 C 58.762,332.362 67.398,328.79 78.05,328.79 C 88.7,328.792 97.339,332.362 97.339,336.772 z"
   id="path16609_2_"
   style="fill:url(#path16609_13_);stroke:#000000" />
	<g
   id="g51">
		<path
   d="M 70.851,337.588 L 70.151,339.708 L 69.251,339.708 L 71.541,332.968 L 72.591,332.968 L 74.891,339.708 L 73.961,339.708 L 73.241,337.588 L 70.851,337.588 z M 73.061,336.908 L 72.391,334.968 C 72.251,334.528 72.151,334.128 72.051,333.739 L 72.021,333.739 C 71.931,334.129 71.821,334.549 71.691,334.959 L 71.031,336.909 L 73.061,336.909 L 73.061,336.908 z"
   id="path53" />
		<path
   d="M 75.871,333.059 C 76.411,332.979 77.041,332.918 77.731,332.918 C 78.981,332.918 79.871,333.198 80.461,333.748 C 81.071,334.298 81.421,335.088 81.421,336.178 C 81.421,337.278 81.071,338.178 80.451,338.798 C 79.811,339.428 78.771,339.768 77.461,339.768 C 76.831,339.768 76.321,339.748 75.871,339.688 L 75.871,333.059 z M 76.751,339.027 C 76.971,339.068 77.291,339.068 77.631,339.068 C 79.491,339.078 80.501,338.027 80.501,336.208 C 80.511,334.598 79.611,333.607 77.771,333.607 C 77.321,333.607 76.981,333.648 76.751,333.698 L 76.751,339.027 z"
   id="path55" />
		<path
   d="M 82.541,333.059 C 82.961,332.979 83.511,332.918 84.211,332.918 C 85.071,332.918 85.701,333.118 86.101,333.479 C 86.471,333.798 86.701,334.289 86.701,334.889 C 86.701,335.498 86.521,335.979 86.171,336.328 C 85.711,336.818 84.961,337.068 84.111,337.068 C 83.851,337.068 83.611,337.058 83.411,337.007 L 83.411,339.707 L 82.541,339.707 L 82.541,333.059 L 82.541,333.059 z M 83.411,336.298 C 83.601,336.348 83.851,336.368 84.131,336.368 C 85.191,336.368 85.821,335.847 85.821,334.937 C 85.821,334.038 85.191,333.607 84.231,333.607 C 83.851,333.607 83.561,333.648 83.411,333.677 L 83.411,336.298 z"
   id="path57" />
	</g>
</g>
<g
   id="g59">
	
		<radialGradient
   cx="326.2612"
   cy="-649.12262"
   r="16.1863"
   id="path16609_18_"
   gradientUnits="userSpaceOnUse"
   gradientTransform="matrix(1.214,0,0,0.4844,-58.8826,375.2076)">
		<stop
   id="stop62"
   style="stop-color:#fffcdf;stop-opacity:1"
   offset="0" />
		<stop
   id="stop64"
   style="stop-color:#fffbda;stop-opacity:1"
   offset="0.1203" />
		<stop
   id="stop66"
   style="stop-color:#fff9cb;stop-opacity:1"
   offset="0.26620001" />
		<stop
   id="stop68"
   style="stop-color:#fff6b2;stop-opacity:1"
   offset="0.42550001" />
		<stop
   id="stop70"
   style="stop-color:#fff090;stop-opacity:1"
   offset="0.59429997" />
		<stop
   id="stop72"
   style="stop-color:#ffea64;stop-opacity:1"
   offset="0.77060002" />
		<stop
   id="stop74"
   style="stop-color:#ffe22f;stop-opacity:1"
   offset="0.95060003" />
		<stop
   id="stop76"
   style="stop-color:#ffe01f;stop-opacity:1"
   offset="1" />
	</radialGradient>
	<path
   d="M 356.487,60.771 C 356.487,65.18 347.848,68.754 337.198,68.754 C 326.546,68.754 317.91,65.181 317.91,60.771 C 317.91,56.361 326.546,52.79 337.198,52.79 C 347.849,52.791 356.487,56.362 356.487,60.771 z"
   id="path16609_3_"
   style="fill:url(#path16609_18_);stroke:#000000" />
	<g
   id="g79">
		<path
   d="M 331.239,61.587 L 330.539,63.707 L 329.639,63.707 L 331.93,56.967 L 332.979,56.967 L 335.28,63.707 L 334.35,63.707 L 333.629,61.587 L 331.239,61.587 z M 333.449,60.907 L 332.779,58.967 C 332.638,58.527 332.539,58.127 332.439,57.737 L 332.409,57.737 C 332.319,58.127 332.209,58.547 332.079,58.957 L 331.419,60.907 L 333.449,60.907 L 333.449,60.907 z"
   id="path81" />
		<path
   d="M 336.76,57.707 L 334.709,57.707 L 334.709,56.967 L 339.699,56.967 L 339.699,57.707 L 337.638,57.707 L 337.638,63.707 L 336.759,63.707 L 336.759,57.707 L 336.76,57.707 z"
   id="path83" />
		<path
   d="M 340.449,57.057 C 340.869,56.977 341.419,56.917 342.119,56.917 C 342.978,56.917 343.609,57.117 344.009,57.477 C 344.379,57.797 344.61,58.287 344.61,58.887 C 344.61,59.497 344.429,59.977 344.08,60.327 C 343.62,60.817 342.87,61.067 342.02,61.067 C 341.759,61.067 341.52,61.057 341.319,61.007 L 341.319,63.707 L 340.45,63.707 L 340.45,57.057 L 340.449,57.057 z M 341.318,60.297 C 341.508,60.347 341.758,60.367 342.039,60.367 C 343.1,60.367 343.728,59.847 343.728,58.937 C 343.728,58.037 343.099,57.607 342.138,57.607 C 341.758,57.607 341.468,57.647 341.318,57.677 L 341.318,60.297 L 341.318,60.297 z"
   id="path85" />
	</g>
</g>
<g
   id="g89">
		
			<radialGradient
   cx="-5.1973"
   cy="-673.96393"
   r="22.1563"
   id="path11134_21_"
   gradientUnits="userSpaceOnUse"
   gradientTransform="matrix(0.3664,0,0,0.3664,94.3221,409.6476)">
			<stop
   id="stop92"
   style="stop-color:#fffcdf;stop-opacity:1"
   offset="0" />
			<stop
   id="stop94"
   style="stop-color:#fffbda;stop-opacity:1"
   offset="0.1203" />
			<stop
   id="stop96"
   style="stop-color:#fff9cb;stop-opacity:1"
   offset="0.26620001" />
			<stop
   id="stop98"
   style="stop-color:#fff6b2;stop-opacity:1"
   offset="0.42550001" />
			<stop
   id="stop100"
   style="stop-color:#fff090;stop-opacity:1"
   offset="0.59429997" />
			<stop
   id="stop102"
   style="stop-color:#ffea64;stop-opacity:1"
   offset="0.77060002" />
			<stop
   id="stop104"
   style="stop-color:#ffe22f;stop-opacity:1"
   offset="0.95060003" />
			<stop
   id="stop106"
   style="stop-color:#ffe01f;stop-opacity:1"
   offset="1" />
		</radialGradient>
		<path
   d="M 100.536,162.708 C 100.536,167.19 96.901,170.825 92.419,170.825 C 87.935,170.825 84.3,167.19 84.3,162.708 C 84.3,158.226 87.934,154.589 92.419,154.589 C 96.901,154.589 100.536,158.226 100.536,162.708 z"
   id="path11134_2_"
   style="fill:url(#path11134_21_);stroke:#000000;stroke-width:0.9921" />
		<g
   id="g109">
			<path
   d="M 89.513,161.168 L 90.139,161.168 L 90.139,163.507 L 90.16,163.507 C 90.29,163.319 90.42,163.147 90.542,162.988 L 92.024,161.168 L 92.801,161.168 L 91.045,163.227 L 92.938,166.019 L 92.197,166.019 L 90.606,163.637 L 90.138,164.169 L 90.138,166.019 L 89.512,166.019 L 89.512,161.168 L 89.513,161.168 z"
   id="path111" />
			<path
   d="M 94.529,160.942 L 94.529,162.126 L 95.668,162.126 L 95.668,162.428 L 94.529,162.428 L 94.529,163.622 L 94.207,163.622 L 94.207,162.428 L 93.068,162.428 L 93.068,162.126 L 94.207,162.126 L 94.207,160.942 L 94.529,160.942 z"
   id="path113" />
		</g>
	</g>
<g
   id="g123">
		
			<radialGradient
   cx="-10.6563"
   cy="-510.20901"
   r="22.1567"
   id="path11134_22_"
   gradientUnits="userSpaceOnUse"
   gradientTransform="matrix(0.3664,0,0,0.3664,94.3221,409.6476)">
			<stop
   id="stop126"
   style="stop-color:#fffcdf;stop-opacity:1"
   offset="0" />
			<stop
   id="stop128"
   style="stop-color:#fffbda;stop-opacity:1"
   offset="0.1203" />
			<stop
   id="stop130"
   style="stop-color:#fff9cb;stop-opacity:1"
   offset="0.26620001" />
			<stop
   id="stop132"
   style="stop-color:#fff6b2;stop-opacity:1"
   offset="0.42550001" />
			<stop
   id="stop134"
   style="stop-color:#fff090;stop-opacity:1"
   offset="0.59429997" />
			<stop
   id="stop136"
   style="stop-color:#ffea64;stop-opacity:1"
   offset="0.77060002" />
			<stop
   id="stop138"
   style="stop-color:#ffe22f;stop-opacity:1"
   offset="0.95060003" />
			<stop
   id="stop140"
   style="stop-color:#ffe01f;stop-opacity:1"
   offset="1" />
		</radialGradient>
		<path
   d="M 98.536,222.708 C 98.536,227.19 94.901,230.825 90.419,230.825 C 85.935,230.825 82.3,227.19 82.3,222.708 C 82.3,218.226 85.934,214.589 90.419,214.589 C 94.901,214.589 98.536,218.226 98.536,222.708 z"
   id="path11134_3_"
   style="fill:url(#path11134_22_);stroke:#000000;stroke-width:0.9921" />
		<g
   id="g143">
			<path
   d="M 87.743,221.168 L 87.743,223.197 L 90.09,223.197 L 90.09,221.168 L 90.723,221.168 L 90.723,226.019 L 90.09,226.019 L 90.09,223.745 L 87.743,223.745 L 87.743,226.019 L 87.11,226.019 L 87.11,221.168 L 87.743,221.168 z"
   id="path145" />
			<path
   d="M 92.924,220.942 L 92.924,222.126 L 94.063,222.126 L 94.063,222.428 L 92.924,222.428 L 92.924,223.622 L 92.602,223.622 L 92.602,222.428 L 91.463,222.428 L 91.463,222.126 L 92.602,222.126 L 92.602,220.942 L 92.924,220.942 z"
   id="path147" />
		</g>
	</g>
<g
   id="g155">
	<path
   d="M 498.08,36.904 C 498.08,40.439 495.315,43.305 491.907,43.305 C 488.498,43.305 485.735,40.439 485.735,36.904 C 485.735,33.37 488.498,30.504 491.907,30.504 C 495.315,30.504 498.08,33.37 498.08,36.904 z"
   id="path19818"
   style="fill:#ffff00;stroke:#000000" />
	<g
   id="g158">
		<path
   d="M 489.949,33.014 C 490.373,32.93 490.928,32.868 491.636,32.868 C 492.504,32.868 493.141,33.077 493.544,33.454 C 493.918,33.789 494.15,34.303 494.15,34.931 C 494.15,35.57 493.968,36.073 493.615,36.439 C 493.15,36.953 492.392,37.214 491.534,37.214 C 491.272,37.214 491.029,37.203 490.828,37.151 L 490.828,39.978 L 489.949,39.978 L 489.949,33.014 L 489.949,33.014 z M 490.828,36.406 C 491.019,36.459 491.272,36.479 491.555,36.479 C 492.625,36.479 493.262,35.935 493.262,34.982 C 493.262,34.04 492.625,33.589 491.657,33.589 C 491.273,33.589 490.98,33.63 490.829,33.662 L 490.829,36.406 L 490.828,36.406 z"
   id="path160"
   style="fill:#ff3399" />
	</g>
</g>
<g
   transform="translate(-16,0)"
   id="g164">
		
			<radialGradient
   cx="1148.4189"
   cy="-688.29303"
   r="22.1565"
   id="path11134_23_"
   gradientUnits="userSpaceOnUse"
   gradientTransform="matrix(0.3664,0,0,0.3664,94.3221,409.6476)">
			<stop
   id="stop167"
   style="stop-color:#fffcdf;stop-opacity:1"
   offset="0" />
			<stop
   id="stop169"
   style="stop-color:#fffbda;stop-opacity:1"
   offset="0.1203" />
			<stop
   id="stop171"
   style="stop-color:#fff9cb;stop-opacity:1"
   offset="0.26620001" />
			<stop
   id="stop173"
   style="stop-color:#fff6b2;stop-opacity:1"
   offset="0.42550001" />
			<stop
   id="stop175"
   style="stop-color:#fff090;stop-opacity:1"
   offset="0.59429997" />
			<stop
   id="stop177"
   style="stop-color:#ffea64;stop-opacity:1"
   offset="0.77060002" />
			<stop
   id="stop179"
   style="stop-color:#ffe22f;stop-opacity:1"
   offset="0.95060003" />
			<stop
   id="stop181"
   style="stop-color:#ffe01f;stop-opacity:1"
   offset="1" />
		</radialGradient>
		<path
   d="M 523.221,157.458 C 523.221,161.94 519.586,165.575 515.104,165.575 C 510.62,165.575 506.985,161.94 506.985,157.458 C 506.985,152.976 510.618,149.339 515.104,149.339 C 519.586,149.339 523.221,152.976 523.221,157.458 z"
   id="path11134_6_"
   style="fill:url(#radialGradient4847);stroke:#000000;stroke-width:0.9921" />
		<g
   id="g184">
			<path
   d="M 512.197,155.918 L 512.824,155.918 L 512.824,158.257 L 512.845,158.257 C 512.974,158.069 513.105,157.897 513.226,157.738 L 514.708,155.918 L 515.485,155.918 L 513.729,157.977 L 515.622,160.769 L 514.882,160.769 L 513.29,158.387 L 512.823,158.919 L 512.823,160.769 L 512.196,160.769 L 512.196,155.918 L 512.197,155.918 z"
   id="path186" />
			<path
   d="M 517.213,155.692 L 517.213,156.876 L 518.352,156.876 L 518.352,157.178 L 517.213,157.178 L 517.213,158.372 L 516.891,158.372 L 516.891,157.178 L 515.752,157.178 L 515.752,156.876 L 516.891,156.876 L 516.891,155.692 L 517.213,155.692 z"
   id="path188" />
		</g>
	</g>
<g
   transform="translate(-16,0)"
   id="g198">
		
			<radialGradient
   cx="1156.6074"
   cy="-424.91891"
   r="22.1563"
   id="path11134_24_"
   gradientUnits="userSpaceOnUse"
   gradientTransform="matrix(0.3664,0,0,0.3664,94.3221,409.6476)">
			<stop
   id="stop201"
   style="stop-color:#fffcdf;stop-opacity:1"
   offset="0" />
			<stop
   id="stop203"
   style="stop-color:#fffbda;stop-opacity:1"
   offset="0.1203" />
			<stop
   id="stop205"
   style="stop-color:#fff9cb;stop-opacity:1"
   offset="0.26620001" />
			<stop
   id="stop207"
   style="stop-color:#fff6b2;stop-opacity:1"
   offset="0.42550001" />
			<stop
   id="stop209"
   style="stop-color:#fff090;stop-opacity:1"
   offset="0.59429997" />
			<stop
   id="stop211"
   style="stop-color:#ffea64;stop-opacity:1"
   offset="0.77060002" />
			<stop
   id="stop213"
   style="stop-color:#ffe22f;stop-opacity:1"
   offset="0.95060003" />
			<stop
   id="stop215"
   style="stop-color:#ffe01f;stop-opacity:1"
   offset="1" />
		</radialGradient>
		<path
   d="M 526.221,253.958 C 526.221,258.44 522.586,262.075 518.104,262.075 C 513.62,262.075 509.985,258.44 509.985,253.958 C 509.985,249.476 513.618,245.839 518.104,245.839 C 522.586,245.839 526.221,249.476 526.221,253.958 z"
   id="path11134_5_"
   style="fill:url(#radialGradient4868);stroke:#000000;stroke-width:0.9921" />
		<g
   id="g218">
			<path
   d="M 515.428,252.418 L 515.428,254.447 L 517.774,254.447 L 517.774,252.418 L 518.407,252.418 L 518.407,257.269 L 517.774,257.269 L 517.774,254.995 L 515.428,254.995 L 515.428,257.269 L 514.795,257.269 L 514.795,252.418 L 515.428,252.418 z"
   id="path220" />
			<path
   d="M 520.609,252.192 L 520.609,253.376 L 521.748,253.376 L 521.748,253.678 L 520.609,253.678 L 520.609,254.872 L 520.287,254.872 L 520.287,253.678 L 519.148,253.678 L 519.148,253.376 L 520.287,253.376 L 520.287,252.192 L 520.609,252.192 z"
   id="path222" />
		</g>
	</g>
<g
   id="g232">
		
			<radialGradient
   cx="159.5527"
   cy="-577.84772"
   r="16.185801"
   id="path16609_19_"
   gradientUnits="userSpaceOnUse"
   gradientTransform="matrix(1.5933,0,0,0.6358,-118.2103,400.7437)">
			<stop
   id="stop235"
   style="stop-color:#a2ff5f;stop-opacity:1"
   offset="0" />
			<stop
   id="stop237"
   style="stop-color:#a0ff5f;stop-opacity:1"
   offset="0.4082" />
			<stop
   id="stop239"
   style="stop-color:#99fd5f;stop-opacity:1"
   offset="0.55519998" />
			<stop
   id="stop241"
   style="stop-color:#8efb5e;stop-opacity:1"
   offset="0.66000003" />
			<stop
   id="stop243"
   style="stop-color:#7df85e;stop-opacity:1"
   offset="0.74479997" />
			<stop
   id="stop245"
   style="stop-color:#67f35d;stop-opacity:1"
   offset="0.81739998" />
			<stop
   id="stop247"
   style="stop-color:#4bee5c;stop-opacity:1"
   offset="0.88169998" />
			<stop
   id="stop249"
   style="stop-color:#2be85b;stop-opacity:1"
   offset="0.93980002" />
			<stop
   id="stop251"
   style="stop-color:#07e05a;stop-opacity:1"
   offset="0.99150002" />
			<stop
   id="stop253"
   style="stop-color:#00df5a;stop-opacity:1"
   offset="1" />
		</radialGradient>
		<path
   d="M 161.32,33.347 C 161.32,39.133 149.982,43.825 136.005,43.825 C 122.024,43.825 110.69,39.136 110.69,33.347 C 110.69,27.558 122.024,22.871 136.005,22.871 C 149.982,22.873 161.32,27.56 161.32,33.347 z"
   id="path16609_4_"
   style="fill:url(#path16609_19_);stroke:#000000" />
		<g
   id="g256">
			<path
   d="M 135.986,31.08 L 132.854,31.08 L 132.854,33.996 L 136.358,33.996 L 136.358,34.872 L 131.798,34.872 L 131.798,26.784 L 136.178,26.784 L 136.178,27.66 L 132.854,27.66 L 132.854,30.216 L 135.986,30.216 L 135.986,31.08 L 135.986,31.08 z"
   id="path258" />
			<path
   d="M 138.785,34.097 L 138.768,34.097 L 137.819,34.61 L 137.676,34.047 L 138.869,33.408 L 139.499,33.408 L 139.499,38.868 L 138.785,38.868 L 138.785,34.097 z"
   id="path260" />
		</g>
	</g><g
   transform="translate(-8,12)"
   id="g262">
		
			<radialGradient
   cx="43.7505"
   cy="-1063.8628"
   r="22.1567"
   id="path11134_25_"
   gradientUnits="userSpaceOnUse"
   gradientTransform="matrix(0.3664,0,0,0.3664,94.3221,409.6476)">
			<stop
   id="stop265"
   style="stop-color:#fffcdf;stop-opacity:1"
   offset="0" />
			<stop
   id="stop267"
   style="stop-color:#fffbda;stop-opacity:1"
   offset="0.1203" />
			<stop
   id="stop269"
   style="stop-color:#fff9cb;stop-opacity:1"
   offset="0.26620001" />
			<stop
   id="stop271"
   style="stop-color:#fff6b2;stop-opacity:1"
   offset="0.42550001" />
			<stop
   id="stop273"
   style="stop-color:#fff090;stop-opacity:1"
   offset="0.59429997" />
			<stop
   id="stop275"
   style="stop-color:#ffea64;stop-opacity:1"
   offset="0.77060002" />
			<stop
   id="stop277"
   style="stop-color:#ffe22f;stop-opacity:1"
   offset="0.95060003" />
			<stop
   id="stop279"
   style="stop-color:#ffe01f;stop-opacity:1"
   offset="1" />
		</radialGradient>
		<path
   d="M 118.47,19.849 C 118.47,24.331 114.835,27.966 110.353,27.966 C 105.869,27.966 102.234,24.331 102.234,19.849 C 102.234,15.367 105.868,11.73 110.353,11.73 C 114.835,11.73 118.47,15.367 118.47,19.849 z"
   id="path11134_4_"
   style="fill:url(#radialGradient4918);stroke:#000000;stroke-width:0.9921" />
		<g
   id="g282">
			<path
   d="M 107.448,18.31 L 108.074,18.31 L 108.074,20.649 L 108.095,20.649 C 108.225,20.461 108.355,20.289 108.477,20.13 L 109.959,18.31 L 110.736,18.31 L 108.98,20.369 L 110.873,23.161 L 110.132,23.161 L 108.541,20.779 L 108.073,21.311 L 108.073,23.161 L 107.447,23.161 L 107.447,18.31 L 107.448,18.31 z"
   id="path284" />
			<path
   d="M 112.463,18.084 L 112.463,19.268 L 113.602,19.268 L 113.602,19.57 L 112.463,19.57 L 112.463,20.764 L 112.141,20.764 L 112.141,19.57 L 111.002,19.57 L 111.002,19.268 L 112.141,19.268 L 112.141,18.084 L 112.463,18.084 z"
   id="path286" />
		</g>
	</g>
<path
   d="M 161.32,110.347 C 161.32,116.133 149.982,120.825 136.005,120.825 C 122.024,120.825 110.69,116.136 110.69,110.347 C 110.69,104.558 122.024,99.871 136.005,99.871 C 149.982,99.873 161.32,104.56 161.32,110.347 z"
   id="path16609_1_"
   style="fill:url(#radialGradient4269);stroke:#000000" /><g
   id="g340">
			<path
   d="M 135.986,108.08 L 132.854,108.08 L 132.854,110.996 L 136.358,110.996 L 136.358,111.872 L 131.798,111.872 L 131.798,103.784 L 136.178,103.784 L 136.178,104.66 L 132.854,104.66 L 132.854,107.216 L 135.986,107.216 L 135.986,108.08 L 135.986,108.08 z"
   id="path342" />
			<path
   d="M 138.785,111.097 L 138.768,111.097 L 137.819,111.61 L 137.676,111.047 L 138.869,110.408 L 139.499,110.408 L 139.499,115.868 L 138.785,115.868 L 138.785,111.097 z"
   id="path344" />
		</g><g
   transform="translate(-8,12)"
   id="g4910"><path
     d="M 118.47,96.849 C 118.47,101.331 114.835,104.966 110.353,104.966 C 105.869,104.966 102.234,101.331 102.234,96.849 C 102.234,92.367 105.868,88.73 110.353,88.73 C 114.835,88.73 118.47,92.367 118.47,96.849 z"
     id="path11134_8_"
     style="fill:url(#radialGradient4916);stroke:#000000;stroke-width:0.9921" /><g
     id="g366">
			<path
   d="M 107.448,95.31 L 108.074,95.31 L 108.074,97.649 L 108.095,97.649 C 108.225,97.461 108.355,97.289 108.477,97.13 L 109.959,95.31 L 110.736,95.31 L 108.98,97.369 L 110.873,100.161 L 110.132,100.161 L 108.541,97.779 L 108.073,98.311 L 108.073,100.161 L 107.447,100.161 L 107.447,95.31 L 107.448,95.31 z"
   id="path368" />
			<path
   d="M 112.463,95.084 L 112.463,96.268 L 113.602,96.268 L 113.602,96.57 L 112.463,96.57 L 112.463,97.764 L 112.141,97.764 L 112.141,96.57 L 111.002,96.57 L 111.002,96.268 L 112.141,96.268 L 112.141,95.084 L 112.463,95.084 z"
   id="path370" />
		</g></g>
<g
   id="g398">
	<g
   id="g400">
		
			<radialGradient
   cx="191.5825"
   cy="-377.86771"
   r="16.186001"
   id="path16609_21_"
   gradientUnits="userSpaceOnUse"
   gradientTransform="matrix(1.214,0,0,0.4844,-58.8826,375.2076)">
			<stop
   id="stop403"
   style="stop-color:#fffcdf;stop-opacity:1"
   offset="0" />
			<stop
   id="stop405"
   style="stop-color:#fffbda;stop-opacity:1"
   offset="0.1203" />
			<stop
   id="stop407"
   style="stop-color:#fff9cb;stop-opacity:1"
   offset="0.26620001" />
			<stop
   id="stop409"
   style="stop-color:#fff6b2;stop-opacity:1"
   offset="0.42550001" />
			<stop
   id="stop411"
   style="stop-color:#fff090;stop-opacity:1"
   offset="0.59429997" />
			<stop
   id="stop413"
   style="stop-color:#ffea64;stop-opacity:1"
   offset="0.77060002" />
			<stop
   id="stop415"
   style="stop-color:#ffe22f;stop-opacity:1"
   offset="0.95060003" />
			<stop
   id="stop417"
   style="stop-color:#ffe01f;stop-opacity:1"
   offset="1" />
		</radialGradient>
		<path
   d="M 192.987,192.167 C 192.987,196.576 184.348,200.15 173.698,200.15 C 163.046,200.15 154.41,196.578 154.41,192.167 C 154.41,187.757 163.046,184.186 173.698,184.186 C 184.349,184.187 192.987,187.758 192.987,192.167 z"
   id="path16609_14_"
   style="fill:url(#path16609_21_);stroke:#000000" />
		<g
   id="g420">
			<path
   d="M 167.739,192.982 L 167.039,195.102 L 166.139,195.102 L 168.429,188.362 L 169.479,188.362 L 171.779,195.102 L 170.849,195.102 L 170.129,192.982 L 167.739,192.982 z M 169.949,192.303 L 169.279,190.363 C 169.139,189.923 169.039,189.523 168.939,189.133 L 168.909,189.133 C 168.819,189.523 168.709,189.943 168.579,190.353 L 167.919,192.303 L 169.949,192.303 z"
   id="path422" />
			<path
   d="M 173.259,189.103 L 171.209,189.103 L 171.209,188.363 L 176.199,188.363 L 176.199,189.103 L 174.139,189.103 L 174.139,195.103 L 173.259,195.103 L 173.259,189.103 z"
   id="path424" />
			<path
   d="M 176.949,188.453 C 177.369,188.373 177.919,188.313 178.619,188.313 C 179.479,188.313 180.109,188.513 180.509,188.873 C 180.879,189.193 181.109,189.683 181.109,190.283 C 181.109,190.893 180.929,191.373 180.579,191.723 C 180.119,192.213 179.369,192.463 178.519,192.463 C 178.259,192.463 178.019,192.453 177.819,192.403 L 177.819,195.103 L 176.949,195.103 L 176.949,188.453 L 176.949,188.453 z M 177.819,191.692 C 178.009,191.742 178.259,191.762 178.539,191.762 C 179.599,191.762 180.229,191.242 180.229,190.332 C 180.229,189.432 179.599,189.002 178.639,189.002 C 178.259,189.002 177.969,189.042 177.819,189.072 L 177.819,191.692 z"
   id="path426" />
		</g>
	</g>
	<g
   id="g428">
		
			<radialGradient
   cx="159.2388"
   cy="-328.05179"
   r="16.185499"
   id="path16609_22_"
   gradientUnits="userSpaceOnUse"
   gradientTransform="matrix(1.5933,0,0,0.6358,-118.2103,400.7437)">
			<stop
   id="stop431"
   style="stop-color:#a2ff5f;stop-opacity:1"
   offset="0" />
			<stop
   id="stop433"
   style="stop-color:#a0ff5f;stop-opacity:1"
   offset="0.4082" />
			<stop
   id="stop435"
   style="stop-color:#99fd5f;stop-opacity:1"
   offset="0.55519998" />
			<stop
   id="stop437"
   style="stop-color:#8efb5e;stop-opacity:1"
   offset="0.66000003" />
			<stop
   id="stop439"
   style="stop-color:#7df85e;stop-opacity:1"
   offset="0.74479997" />
			<stop
   id="stop441"
   style="stop-color:#67f35d;stop-opacity:1"
   offset="0.81739998" />
			<stop
   id="stop443"
   style="stop-color:#4bee5c;stop-opacity:1"
   offset="0.88169998" />
			<stop
   id="stop445"
   style="stop-color:#2be85b;stop-opacity:1"
   offset="0.93980002" />
			<stop
   id="stop447"
   style="stop-color:#07e05a;stop-opacity:1"
   offset="0.99150002" />
			<stop
   id="stop449"
   style="stop-color:#00df5a;stop-opacity:1"
   offset="1" />
		</radialGradient>
		<path
   d="M 160.82,192.167 C 160.82,197.953 149.482,202.644 135.505,202.644 C 121.524,202.644 110.19,197.955 110.19,192.167 C 110.19,186.379 121.524,181.691 135.505,181.691 C 149.482,181.693 160.82,186.38 160.82,192.167 z"
   id="path16609_6_"
   style="fill:url(#path16609_22_);stroke:#000000" />
		<g
   id="g452">
			<path
   d="M 135.486,189.9 L 132.354,189.9 L 132.354,192.816 L 135.858,192.816 L 135.858,193.692 L 131.298,193.692 L 131.298,185.604 L 135.678,185.604 L 135.678,186.48 L 132.354,186.48 L 132.354,189.036 L 135.486,189.036 L 135.486,189.9 L 135.486,189.9 z"
   id="path454" />
			<path
   d="M 138.285,192.917 L 138.268,192.917 L 137.319,193.43 L 137.176,192.867 L 138.369,192.228 L 138.999,192.228 L 138.999,197.688 L 138.285,197.688 L 138.285,192.917 z"
   id="path456" />
		</g>
	</g>
</g>
<path
   d="M 192.987,277.988 C 192.987,282.398 184.348,285.972 173.698,285.972 C 163.046,285.972 154.41,282.398 154.41,277.988 C 154.41,273.578 163.046,270.008 173.698,270.008 C 184.349,270.008 192.987,273.58 192.987,277.988 z"
   id="path16609_16_"
   style="fill:url(#radialGradient4172);stroke:#000000" /><g
   id="g480">
			<path
   d="M 167.739,278.805 L 167.039,280.925 L 166.139,280.925 L 168.429,274.185 L 169.479,274.185 L 171.779,280.925 L 170.849,280.925 L 170.129,278.805 L 167.739,278.805 z M 169.949,278.125 L 169.279,276.185 C 169.139,275.745 169.039,275.345 168.939,274.956 L 168.909,274.956 C 168.819,275.346 168.709,275.766 168.579,276.176 L 167.919,278.126 L 169.949,278.126 L 169.949,278.125 z"
   id="path482" />
			<path
   d="M 173.259,274.925 L 171.209,274.925 L 171.209,274.185 L 176.199,274.185 L 176.199,274.925 L 174.139,274.925 L 174.139,280.925 L 173.259,280.925 L 173.259,274.925 z"
   id="path484" />
			<path
   d="M 176.949,274.275 C 177.369,274.195 177.919,274.134 178.619,274.134 C 179.479,274.134 180.109,274.334 180.509,274.695 C 180.879,275.014 181.109,275.505 181.109,276.105 C 181.109,276.714 180.929,277.195 180.579,277.544 C 180.119,278.034 179.369,278.284 178.519,278.284 C 178.259,278.284 178.019,278.274 177.819,278.223 L 177.819,280.923 L 176.949,280.923 L 176.949,274.275 L 176.949,274.275 z M 177.819,277.515 C 178.009,277.565 178.259,277.585 178.539,277.585 C 179.599,277.585 180.229,277.064 180.229,276.154 C 180.229,275.255 179.599,274.824 178.639,274.824 C 178.259,274.824 177.969,274.865 177.819,274.894 L 177.819,277.515 z"
   id="path486" />
		</g><g
   id="g490">
			
				<radialGradient
   cx="159.2388"
   cy="-193.06931"
   r="16.185801"
   id="path16609_24_"
   gradientUnits="userSpaceOnUse"
   gradientTransform="matrix(1.5933,0,0,0.6358,-118.2103,400.7437)">
				<stop
   id="stop493"
   style="stop-color:#a2ff5f;stop-opacity:1"
   offset="0" />
				<stop
   id="stop495"
   style="stop-color:#a0ff5f;stop-opacity:1"
   offset="0.4082" />
				<stop
   id="stop497"
   style="stop-color:#99fd5f;stop-opacity:1"
   offset="0.55519998" />
				<stop
   id="stop499"
   style="stop-color:#8efb5e;stop-opacity:1"
   offset="0.66000003" />
				<stop
   id="stop501"
   style="stop-color:#7df85e;stop-opacity:1"
   offset="0.74479997" />
				<stop
   id="stop503"
   style="stop-color:#67f35d;stop-opacity:1"
   offset="0.81739998" />
				<stop
   id="stop505"
   style="stop-color:#4bee5c;stop-opacity:1"
   offset="0.88169998" />
				<stop
   id="stop507"
   style="stop-color:#2be85b;stop-opacity:1"
   offset="0.93980002" />
				<stop
   id="stop509"
   style="stop-color:#07e05a;stop-opacity:1"
   offset="0.99150002" />
				<stop
   id="stop511"
   style="stop-color:#00df5a;stop-opacity:1"
   offset="1" />
			</radialGradient>
			<path
   d="M 160.82,277.988 C 160.82,283.775 149.482,288.467 135.505,288.467 C 121.524,288.467 110.19,283.778 110.19,277.988 C 110.19,272.201 121.524,267.513 135.505,267.513 C 149.482,267.514 160.82,272.201 160.82,277.988 z"
   id="path16609_15_"
   style="fill:url(#radialGradient4106);stroke:#000000" />
			<g
   id="g514">
				<path
   d="M 135.486,275.721 L 132.354,275.721 L 132.354,278.637 L 135.858,278.637 L 135.858,279.513 L 131.298,279.513 L 131.298,271.425 L 135.678,271.425 L 135.678,272.301 L 132.354,272.301 L 132.354,274.857 L 135.486,274.857 L 135.486,275.721 L 135.486,275.721 z"
   id="path516" />
				<path
   d="M 138.285,278.737 L 138.268,278.737 L 137.319,279.25 L 137.176,278.687 L 138.369,278.048 L 138.999,278.048 L 138.999,283.508 L 138.285,283.508 L 138.285,278.737 z"
   id="path518" />
			</g>
		</g><g
   transform="translate(-8,12)"
   id="g520">
			
				<radialGradient
   cx="42.3857"
   cy="-396.1738"
   r="22.1565"
   id="path11134_29_"
   gradientUnits="userSpaceOnUse"
   gradientTransform="matrix(0.3664,0,0,0.3664,94.3221,409.6476)">
				<stop
   id="stop523"
   style="stop-color:#fffcdf;stop-opacity:1"
   offset="0" />
				<stop
   id="stop525"
   style="stop-color:#fffbda;stop-opacity:1"
   offset="0.1203" />
				<stop
   id="stop527"
   style="stop-color:#fff9cb;stop-opacity:1"
   offset="0.26620001" />
				<stop
   id="stop529"
   style="stop-color:#fff6b2;stop-opacity:1"
   offset="0.42550001" />
				<stop
   id="stop531"
   style="stop-color:#fff090;stop-opacity:1"
   offset="0.59429997" />
				<stop
   id="stop533"
   style="stop-color:#ffea64;stop-opacity:1"
   offset="0.77060002" />
				<stop
   id="stop535"
   style="stop-color:#ffe22f;stop-opacity:1"
   offset="0.95060003" />
				<stop
   id="stop537"
   style="stop-color:#ffe01f;stop-opacity:1"
   offset="1" />
			</radialGradient>
			<path
   d="M 117.97,264.49 C 117.97,268.972 114.335,272.607 109.853,272.607 C 105.369,272.607 101.734,268.972 101.734,264.49 C 101.734,260.008 105.368,256.371 109.853,256.371 C 114.335,256.371 117.97,260.008 117.97,264.49 z"
   id="path11134_10_"
   style="fill:url(#radialGradient4874);stroke:#000000;stroke-width:0.9921" />
			<g
   id="g540">
				<path
   d="M 107.177,262.95 L 107.177,264.979 L 109.524,264.979 L 109.524,262.95 L 110.157,262.95 L 110.157,267.801 L 109.524,267.801 L 109.524,265.527 L 107.177,265.527 L 107.177,267.801 L 106.544,267.801 L 106.544,262.95 L 107.177,262.95 z"
   id="path542" />
				<path
   d="M 112.359,262.725 L 112.359,263.909 L 113.498,263.909 L 113.498,264.211 L 112.359,264.211 L 112.359,265.405 L 112.037,265.405 L 112.037,264.211 L 110.898,264.211 L 110.898,263.909 L 112.037,263.909 L 112.037,262.725 L 112.359,262.725 z"
   id="path544" />
			</g>
		</g>
<g
   transform="translate(2,0)"
   id="g574">
		<path
   d="M 172.08,365.404 C 172.08,368.939 169.315,371.805 165.907,371.805 C 162.498,371.805 159.735,368.939 159.735,365.404 C 159.735,361.87 162.498,359.004 165.907,359.004 C 169.315,359.004 172.08,361.87 172.08,365.404 z"
   id="path19818_1_"
   style="fill:#ffff00;stroke:#000000" />
		<g
   id="g577">
			<path
   d="M 163.949,361.514 C 164.373,361.43 164.928,361.368 165.636,361.368 C 166.504,361.368 167.141,361.577 167.544,361.954 C 167.918,362.289 168.15,362.803 168.15,363.431 C 168.15,364.07 167.968,364.573 167.615,364.939 C 167.15,365.453 166.392,365.714 165.534,365.714 C 165.272,365.714 165.029,365.703 164.828,365.651 L 164.828,368.478 L 163.949,368.478 L 163.949,361.514 L 163.949,361.514 z M 164.828,364.906 C 165.019,364.959 165.272,364.979 165.555,364.979 C 166.625,364.979 167.262,364.435 167.262,363.482 C 167.262,362.54 166.625,362.089 165.657,362.089 C 165.273,362.089 164.98,362.13 164.829,362.162 L 164.829,364.906 L 164.828,364.906 z"
   id="path579"
   style="fill:#ff3399" />
		</g>
	</g><g
   id="g585">
				
					<radialGradient
   cx="159.2388"
   cy="-55.4473"
   r="16.185801"
   id="path16609_25_"
   gradientUnits="userSpaceOnUse"
   gradientTransform="matrix(1.5933,0,0,0.6358,-118.2103,400.7437)">
					<stop
   id="stop588"
   style="stop-color:#a2ff5f;stop-opacity:1"
   offset="0" />
					<stop
   id="stop590"
   style="stop-color:#a0ff5f;stop-opacity:1"
   offset="0.4082" />
					<stop
   id="stop592"
   style="stop-color:#99fd5f;stop-opacity:1"
   offset="0.55519998" />
					<stop
   id="stop594"
   style="stop-color:#8efb5e;stop-opacity:1"
   offset="0.66000003" />
					<stop
   id="stop596"
   style="stop-color:#7df85e;stop-opacity:1"
   offset="0.74479997" />
					<stop
   id="stop598"
   style="stop-color:#67f35d;stop-opacity:1"
   offset="0.81739998" />
					<stop
   id="stop600"
   style="stop-color:#4bee5c;stop-opacity:1"
   offset="0.88169998" />
					<stop
   id="stop602"
   style="stop-color:#2be85b;stop-opacity:1"
   offset="0.93980002" />
					<stop
   id="stop604"
   style="stop-color:#07e05a;stop-opacity:1"
   offset="0.99150002" />
					<stop
   id="stop606"
   style="stop-color:#00df5a;stop-opacity:1"
   offset="1" />
				</radialGradient>
				<path
   d="M 160.82,365.488 C 160.82,371.275 149.482,375.967 135.505,375.967 C 121.524,375.967 110.19,371.278 110.19,365.488 C 110.19,359.701 121.524,355.013 135.505,355.013 C 149.482,355.014 160.82,359.701 160.82,365.488 z"
   id="path16609_7_"
   style="fill:url(#radialGradient3996);stroke:#000000" />
				<g
   id="g609">
					<path
   d="M 135.486,363.221 L 132.354,363.221 L 132.354,366.137 L 135.858,366.137 L 135.858,367.013 L 131.298,367.013 L 131.298,358.925 L 135.678,358.925 L 135.678,359.801 L 132.354,359.801 L 132.354,362.357 L 135.486,362.357 L 135.486,363.221 L 135.486,363.221 z"
   id="path611" />
					<path
   d="M 138.285,366.237 L 138.268,366.237 L 137.319,366.75 L 137.176,366.187 L 138.369,365.548 L 138.999,365.548 L 138.999,371.008 L 138.285,371.008 L 138.285,366.237 z"
   id="path613" />
				</g>
			</g><g
   transform="translate(-8,-14)"
   id="g641">
				
					<radialGradient
   cx="42.3857"
   cy="-83.673798"
   r="22.1565"
   id="path11134_32_"
   gradientUnits="userSpaceOnUse"
   gradientTransform="matrix(0.3664,0,0,0.3664,94.3221,409.6476)">
					<stop
   id="stop644"
   style="stop-color:#fffcdf;stop-opacity:1"
   offset="0" />
					<stop
   id="stop646"
   style="stop-color:#fffbda;stop-opacity:1"
   offset="0.1203" />
					<stop
   id="stop648"
   style="stop-color:#fff9cb;stop-opacity:1"
   offset="0.26620001" />
					<stop
   id="stop650"
   style="stop-color:#fff6b2;stop-opacity:1"
   offset="0.42550001" />
					<stop
   id="stop652"
   style="stop-color:#fff090;stop-opacity:1"
   offset="0.59429997" />
					<stop
   id="stop654"
   style="stop-color:#ffea64;stop-opacity:1"
   offset="0.77060002" />
					<stop
   id="stop656"
   style="stop-color:#ffe22f;stop-opacity:1"
   offset="0.95060003" />
					<stop
   id="stop658"
   style="stop-color:#ffe01f;stop-opacity:1"
   offset="1" />
				</radialGradient>
				<path
   d="M 117.97,378.99 C 117.97,383.472 114.335,387.107 109.853,387.107 C 105.369,387.107 101.734,383.472 101.734,378.99 C 101.734,374.508 105.368,370.871 109.853,370.871 C 114.335,370.871 117.97,374.508 117.97,378.99 z"
   id="path11134_11_"
   style="fill:url(#radialGradient4872);stroke:#000000;stroke-width:0.9921" />
				<g
   id="g661">
					<path
   d="M 107.177,377.45 L 107.177,379.479 L 109.524,379.479 L 109.524,377.45 L 110.157,377.45 L 110.157,382.301 L 109.524,382.301 L 109.524,380.027 L 107.177,380.027 L 107.177,382.301 L 106.544,382.301 L 106.544,377.45 L 107.177,377.45 z"
   id="path663" />
					<path
   d="M 112.359,377.225 L 112.359,378.409 L 113.498,378.409 L 113.498,378.711 L 112.359,378.711 L 112.359,379.905 L 112.037,379.905 L 112.037,378.711 L 110.898,378.711 L 110.898,378.409 L 112.037,378.409 L 112.037,377.225 L 112.359,377.225 z"
   id="path665" />
				</g>
			</g>
<g
   transform="translate(2,0)"
   id="g669">
		<path
   d="M 491.58,317.404 C 491.58,320.939 488.815,323.805 485.407,323.805 C 481.998,323.805 479.235,320.939 479.235,317.404 C 479.235,313.87 481.998,311.004 485.407,311.004 C 488.815,311.004 491.58,313.87 491.58,317.404 z"
   id="path19818_2_"
   style="fill:#ffff00;stroke:#000000" />
		<g
   id="g672">
			<path
   d="M 483.449,313.514 C 483.873,313.43 484.428,313.368 485.136,313.368 C 486.004,313.368 486.641,313.577 487.044,313.954 C 487.418,314.289 487.65,314.803 487.65,315.431 C 487.65,316.07 487.468,316.573 487.115,316.939 C 486.65,317.453 485.892,317.714 485.034,317.714 C 484.772,317.714 484.529,317.703 484.328,317.651 L 484.328,320.478 L 483.449,320.478 L 483.449,313.514 L 483.449,313.514 z M 484.328,316.906 C 484.519,316.959 484.772,316.979 485.055,316.979 C 486.125,316.979 486.762,316.435 486.762,315.482 C 486.762,314.54 486.125,314.089 485.157,314.089 C 484.773,314.089 484.48,314.13 484.329,314.162 L 484.329,316.906 L 484.328,316.906 z"
   id="path674"
   style="fill:#ff3399" />
		</g>
	</g><g
   id="g680">
				
					<radialGradient
   cx="359.76559"
   cy="-130.94341"
   r="16.186001"
   id="path16609_26_"
   gradientUnits="userSpaceOnUse"
   gradientTransform="matrix(1.5933,0,0,0.6358,-118.2103,400.7437)">
					<stop
   id="stop683"
   style="stop-color:#a2ff5f;stop-opacity:1"
   offset="0" />
					<stop
   id="stop685"
   style="stop-color:#a0ff5f;stop-opacity:1"
   offset="0.4082" />
					<stop
   id="stop687"
   style="stop-color:#99fd5f;stop-opacity:1"
   offset="0.55519998" />
					<stop
   id="stop689"
   style="stop-color:#8efb5e;stop-opacity:1"
   offset="0.66000003" />
					<stop
   id="stop691"
   style="stop-color:#7df85e;stop-opacity:1"
   offset="0.74479997" />
					<stop
   id="stop693"
   style="stop-color:#67f35d;stop-opacity:1"
   offset="0.81739998" />
					<stop
   id="stop695"
   style="stop-color:#4bee5c;stop-opacity:1"
   offset="0.88169998" />
					<stop
   id="stop697"
   style="stop-color:#2be85b;stop-opacity:1"
   offset="0.93980002" />
					<stop
   id="stop699"
   style="stop-color:#07e05a;stop-opacity:1"
   offset="0.99150002" />
					<stop
   id="stop701"
   style="stop-color:#00df5a;stop-opacity:1"
   offset="1" />
				</radialGradient>
				<path
   d="M 480.32,317.488 C 480.32,323.275 468.982,327.967 455.005,327.967 C 441.024,327.967 429.69,323.278 429.69,317.488 C 429.69,311.701 441.024,307.013 455.005,307.013 C 468.982,307.014 480.32,311.701 480.32,317.488 z"
   id="path16609_8_"
   style="fill:url(#radialGradient3901);stroke:#000000" />
				<g
   id="g704">
					<path
   d="M 454.986,315.221 L 451.854,315.221 L 451.854,318.137 L 455.358,318.137 L 455.358,319.013 L 450.798,319.013 L 450.798,310.925 L 455.178,310.925 L 455.178,311.801 L 451.854,311.801 L 451.854,314.357 L 454.986,314.357 L 454.986,315.221 z"
   id="path706" />
					<path
   d="M 456.18,323.009 L 456.18,322.556 L 456.76,321.993 C 458.155,320.666 458.793,319.961 458.793,319.138 C 458.793,318.583 458.532,318.071 457.717,318.071 C 457.222,318.071 456.811,318.323 456.559,318.533 L 456.324,318.012 C 456.694,317.701 457.239,317.457 457.87,317.457 C 459.037,317.457 459.532,318.264 459.532,319.045 C 459.532,320.053 458.802,320.868 457.651,321.977 L 457.222,322.38 L 457.222,322.397 L 459.666,322.397 L 459.666,323.01 L 456.18,323.01 L 456.18,323.009 z"
   id="path708" />
				</g>
			</g><g
   transform="translate(-8,-14)"
   id="g736">
				
					<radialGradient
   cx="914.38483"
   cy="-214.6787"
   r="22.157"
   id="path11134_34_"
   gradientUnits="userSpaceOnUse"
   gradientTransform="matrix(0.3664,0,0,0.3664,94.3221,409.6476)">
					<stop
   id="stop739"
   style="stop-color:#fffcdf;stop-opacity:1"
   offset="0" />
					<stop
   id="stop741"
   style="stop-color:#fffbda;stop-opacity:1"
   offset="0.1203" />
					<stop
   id="stop743"
   style="stop-color:#fff9cb;stop-opacity:1"
   offset="0.26620001" />
					<stop
   id="stop745"
   style="stop-color:#fff6b2;stop-opacity:1"
   offset="0.42550001" />
					<stop
   id="stop747"
   style="stop-color:#fff090;stop-opacity:1"
   offset="0.59429997" />
					<stop
   id="stop749"
   style="stop-color:#ffea64;stop-opacity:1"
   offset="0.77060002" />
					<stop
   id="stop751"
   style="stop-color:#ffe22f;stop-opacity:1"
   offset="0.95060003" />
					<stop
   id="stop753"
   style="stop-color:#ffe01f;stop-opacity:1"
   offset="1" />
				</radialGradient>
				<path
   d="M 437.471,330.99 C 437.471,335.472 433.836,339.107 429.354,339.107 C 424.87,339.107 421.235,335.472 421.235,330.99 C 421.235,326.508 424.868,322.871 429.354,322.871 C 433.836,322.871 437.471,326.508 437.471,330.99 z"
   id="path11134_13_"
   style="fill:url(#radialGradient4870);stroke:#000000;stroke-width:0.9921" />
				<g
   id="g756">
					<path
   d="M 426.678,329.45 L 426.678,331.479 L 429.024,331.479 L 429.024,329.45 L 429.657,329.45 L 429.657,334.301 L 429.024,334.301 L 429.024,332.027 L 426.678,332.027 L 426.678,334.301 L 426.045,334.301 L 426.045,329.45 L 426.678,329.45 z"
   id="path758" />
					<path
   d="M 431.859,329.225 L 431.859,330.409 L 432.998,330.409 L 432.998,330.711 L 431.859,330.711 L 431.859,331.905 L 431.537,331.905 L 431.537,330.711 L 430.398,330.711 L 430.398,330.409 L 431.537,330.409 L 431.537,329.225 L 431.859,329.225 z"
   id="path760" />
				</g>
			</g>
<g
   transform="translate(2,0)"
   id="g764">
		<path
   d="M 491.58,202.404 C 491.58,205.939 488.815,208.805 485.407,208.805 C 481.998,208.805 479.235,205.939 479.235,202.404 C 479.235,198.87 481.998,196.004 485.407,196.004 C 488.815,196.004 491.58,198.87 491.58,202.404 z"
   id="path19818_3_"
   style="fill:#ffff00;stroke:#000000" />
		<g
   id="g767">
			<path
   d="M 483.449,198.514 C 483.873,198.43 484.428,198.368 485.136,198.368 C 486.004,198.368 486.641,198.577 487.044,198.954 C 487.418,199.289 487.65,199.803 487.65,200.431 C 487.65,201.07 487.468,201.573 487.115,201.939 C 486.65,202.453 485.892,202.714 485.034,202.714 C 484.772,202.714 484.529,202.703 484.328,202.651 L 484.328,205.478 L 483.449,205.478 L 483.449,198.514 L 483.449,198.514 z M 484.328,201.906 C 484.519,201.959 484.772,201.979 485.055,201.979 C 486.125,201.979 486.762,201.435 486.762,200.482 C 486.762,199.54 486.125,199.089 485.157,199.089 C 484.773,199.089 484.48,199.13 484.329,199.162 L 484.329,201.906 L 484.328,201.906 z"
   id="path769"
   style="fill:#ff3399" />
		</g>
	</g><g
   id="g771">
		
			<radialGradient
   cx="359.76559"
   cy="-311.81741"
   r="16.185801"
   id="path16609_27_"
   gradientUnits="userSpaceOnUse"
   gradientTransform="matrix(1.5933,0,0,0.6358,-118.2103,400.7437)">
			<stop
   id="stop774"
   style="stop-color:#a2ff5f;stop-opacity:1"
   offset="0" />
			<stop
   id="stop776"
   style="stop-color:#a0ff5f;stop-opacity:1"
   offset="0.4082" />
			<stop
   id="stop778"
   style="stop-color:#99fd5f;stop-opacity:1"
   offset="0.55519998" />
			<stop
   id="stop780"
   style="stop-color:#8efb5e;stop-opacity:1"
   offset="0.66000003" />
			<stop
   id="stop782"
   style="stop-color:#7df85e;stop-opacity:1"
   offset="0.74479997" />
			<stop
   id="stop784"
   style="stop-color:#67f35d;stop-opacity:1"
   offset="0.81739998" />
			<stop
   id="stop786"
   style="stop-color:#4bee5c;stop-opacity:1"
   offset="0.88169998" />
			<stop
   id="stop788"
   style="stop-color:#2be85b;stop-opacity:1"
   offset="0.93980002" />
			<stop
   id="stop790"
   style="stop-color:#07e05a;stop-opacity:1"
   offset="0.99150002" />
			<stop
   id="stop792"
   style="stop-color:#00df5a;stop-opacity:1"
   offset="1" />
		</radialGradient>
		<path
   d="M 480.32,202.488 C 480.32,208.275 468.982,212.967 455.005,212.967 C 441.024,212.967 429.69,208.278 429.69,202.488 C 429.69,196.701 441.024,192.013 455.005,192.013 C 468.982,192.014 480.32,196.701 480.32,202.488 z"
   id="path16609_9_"
   style="fill:url(#path16609_27_);stroke:#000000" />
		<g
   id="g795">
			<path
   d="M 454.986,200.221 L 451.854,200.221 L 451.854,203.137 L 455.358,203.137 L 455.358,204.013 L 450.798,204.013 L 450.798,195.925 L 455.178,195.925 L 455.178,196.801 L 451.854,196.801 L 451.854,199.357 L 454.986,199.357 L 454.986,200.221 z"
   id="path797" />
			<path
   d="M 456.18,208.009 L 456.18,207.556 L 456.76,206.993 C 458.155,205.666 458.793,204.961 458.793,204.138 C 458.793,203.583 458.532,203.071 457.717,203.071 C 457.222,203.071 456.811,203.323 456.559,203.533 L 456.324,203.012 C 456.694,202.701 457.239,202.457 457.87,202.457 C 459.037,202.457 459.532,203.264 459.532,204.045 C 459.532,205.053 458.802,205.868 457.651,206.977 L 457.222,207.38 L 457.222,207.397 L 459.666,207.397 L 459.666,208.01 L 456.18,208.01 L 456.18,208.009 z"
   id="path799" />
		</g>
	</g>
<path
   d="M 491.58,98.904 C 491.58,102.439 488.815,105.305 485.407,105.305 C 481.998,105.305 479.235,102.439 479.235,98.904 C 479.235,95.37 481.998,92.504 485.407,92.504 C 488.815,92.504 491.58,95.37 491.58,98.904 z"
   id="path19818_4_"
   style="fill:#ffff00;stroke:#000000" /><g
   id="g806">
			<path
   d="M 483.449,95.014 C 483.873,94.93 484.428,94.868 485.136,94.868 C 486.004,94.868 486.641,95.077 487.044,95.454 C 487.418,95.789 487.65,96.303 487.65,96.931 C 487.65,97.57 487.468,98.073 487.115,98.439 C 486.65,98.953 485.892,99.214 485.034,99.214 C 484.772,99.214 484.529,99.203 484.328,99.151 L 484.328,101.978 L 483.449,101.978 L 483.449,95.014 L 483.449,95.014 z M 484.328,98.406 C 484.519,98.459 484.772,98.479 485.055,98.479 C 486.125,98.479 486.762,97.935 486.762,96.982 C 486.762,96.04 486.125,95.589 485.157,95.589 C 484.773,95.589 484.48,95.63 484.329,95.662 L 484.329,98.406 L 484.328,98.406 z"
   id="path808"
   style="fill:#ff3399" />
		</g><g
   id="g814">
				
					<radialGradient
   cx="359.76559"
   cy="-474.60449"
   r="16.185801"
   id="path16609_28_"
   gradientUnits="userSpaceOnUse"
   gradientTransform="matrix(1.5933,0,0,0.6358,-118.2103,400.7437)">
					<stop
   id="stop817"
   style="stop-color:#a2ff5f;stop-opacity:1"
   offset="0" />
					<stop
   id="stop819"
   style="stop-color:#a0ff5f;stop-opacity:1"
   offset="0.4082" />
					<stop
   id="stop821"
   style="stop-color:#99fd5f;stop-opacity:1"
   offset="0.55519998" />
					<stop
   id="stop823"
   style="stop-color:#8efb5e;stop-opacity:1"
   offset="0.66000003" />
					<stop
   id="stop825"
   style="stop-color:#7df85e;stop-opacity:1"
   offset="0.74479997" />
					<stop
   id="stop827"
   style="stop-color:#67f35d;stop-opacity:1"
   offset="0.81739998" />
					<stop
   id="stop829"
   style="stop-color:#4bee5c;stop-opacity:1"
   offset="0.88169998" />
					<stop
   id="stop831"
   style="stop-color:#2be85b;stop-opacity:1"
   offset="0.93980002" />
					<stop
   id="stop833"
   style="stop-color:#07e05a;stop-opacity:1"
   offset="0.99150002" />
					<stop
   id="stop835"
   style="stop-color:#00df5a;stop-opacity:1"
   offset="1" />
				</radialGradient>
				<path
   d="M 480.32,98.988 C 480.32,104.775 468.982,109.467 455.005,109.467 C 441.024,109.467 429.69,104.778 429.69,98.988 C 429.69,93.201 441.024,88.513 455.005,88.513 C 468.982,88.514 480.32,93.201 480.32,98.988 z"
   id="path16609_10_"
   style="fill:url(#radialGradient4780);stroke:#000000" />
				<g
   id="g838">
					<path
   d="M 454.986,96.721 L 451.854,96.721 L 451.854,99.637 L 455.358,99.637 L 455.358,100.513 L 450.798,100.513 L 450.798,92.425 L 455.178,92.425 L 455.178,93.301 L 451.854,93.301 L 451.854,95.857 L 454.986,95.857 L 454.986,96.721 z"
   id="path840" />
					<path
   d="M 456.18,104.509 L 456.18,104.056 L 456.76,103.493 C 458.155,102.166 458.793,101.461 458.793,100.638 C 458.793,100.083 458.532,99.571 457.717,99.571 C 457.222,99.571 456.811,99.823 456.559,100.033 L 456.324,99.512 C 456.694,99.201 457.239,98.957 457.87,98.957 C 459.037,98.957 459.532,99.764 459.532,100.545 C 459.532,101.553 458.802,102.368 457.651,103.477 L 457.222,103.88 L 457.222,103.897 L 459.666,103.897 L 459.666,104.51 L 456.18,104.51 L 456.18,104.509 z"
   id="path842" />
				</g>
			</g><g
   transform="translate(-8,12)"
   id="g844">
				
					<radialGradient
   cx="914.38483"
   cy="-884.71088"
   r="22.1567"
   id="path11134_35_"
   gradientUnits="userSpaceOnUse"
   gradientTransform="matrix(0.3664,0,0,0.3664,94.3221,409.6476)">
					<stop
   id="stop847"
   style="stop-color:#fffcdf;stop-opacity:1"
   offset="0" />
					<stop
   id="stop849"
   style="stop-color:#fffbda;stop-opacity:1"
   offset="0.1203" />
					<stop
   id="stop851"
   style="stop-color:#fff9cb;stop-opacity:1"
   offset="0.26620001" />
					<stop
   id="stop853"
   style="stop-color:#fff6b2;stop-opacity:1"
   offset="0.42550001" />
					<stop
   id="stop855"
   style="stop-color:#fff090;stop-opacity:1"
   offset="0.59429997" />
					<stop
   id="stop857"
   style="stop-color:#ffea64;stop-opacity:1"
   offset="0.77060002" />
					<stop
   id="stop859"
   style="stop-color:#ffe22f;stop-opacity:1"
   offset="0.95060003" />
					<stop
   id="stop861"
   style="stop-color:#ffe01f;stop-opacity:1"
   offset="1" />
				</radialGradient>
				<path
   d="M 437.471,85.49 C 437.471,89.972 433.836,93.607 429.354,93.607 C 424.87,93.607 421.235,89.972 421.235,85.49 C 421.235,81.008 424.868,77.371 429.354,77.371 C 433.836,77.371 437.471,81.008 437.471,85.49 z"
   id="path11134_16_"
   style="fill:url(#radialGradient4849);stroke:#000000;stroke-width:0.9921" />
				<g
   id="g864">
					<path
   d="M 426.447,83.95 L 427.074,83.95 L 427.074,86.289 L 427.095,86.289 C 427.224,86.101 427.355,85.929 427.476,85.77 L 428.958,83.95 L 429.735,83.95 L 427.979,86.009 L 429.872,88.801 L 429.132,88.801 L 427.54,86.419 L 427.073,86.951 L 427.073,88.801 L 426.446,88.801 L 426.446,83.95 L 426.447,83.95 z"
   id="path866" />
					<path
   d="M 431.463,83.725 L 431.463,84.909 L 432.602,84.909 L 432.602,85.211 L 431.463,85.211 L 431.463,86.405 L 431.141,86.405 L 431.141,85.21 L 430.002,85.21 L 430.002,84.908 L 431.141,84.908 L 431.141,83.724 L 431.463,83.724 L 431.463,83.725 z"
   id="path868" />
				</g>
			</g>
<path
   d="M 311.32,110.347 C 311.32,116.134 299.982,120.826 286.005,120.826 C 272.024,120.826 260.69,116.137 260.69,110.347 C 260.69,104.56 272.024,99.872 286.005,99.872 C 299.982,99.873 311.32,104.56 311.32,110.347 z"
   id="path16609_11_"
   style="fill:url(#radialGradient4942);stroke:#000000" /><g
   id="g926">
					<path
   d="M 285.986,108.079 L 282.854,108.079 L 282.854,110.995 L 286.358,110.995 L 286.358,111.871 L 281.798,111.871 L 281.798,103.783 L 286.178,103.783 L 286.178,104.659 L 282.854,104.659 L 282.854,107.215 L 285.986,107.215 L 285.986,108.079 z"
   id="path928" />
					<path
   d="M 287.18,115.867 L 287.18,115.414 L 287.76,114.851 C 289.155,113.524 289.793,112.819 289.793,111.996 C 289.793,111.441 289.533,110.929 288.718,110.929 C 288.222,110.929 287.811,111.181 287.559,111.391 L 287.324,110.87 C 287.694,110.559 288.24,110.315 288.869,110.315 C 290.036,110.315 290.532,111.122 290.532,111.903 C 290.532,112.911 289.801,113.726 288.651,114.835 L 288.222,115.238 L 288.222,115.255 L 290.666,115.255 L 290.666,115.868 L 287.18,115.868 L 287.18,115.867 z"
   id="path930" />
				</g><path
   d="M 268.471,123.849 C 268.471,128.331 264.836,131.966 260.354,131.966 C 255.87,131.966 252.235,128.331 252.235,123.849 C 252.235,119.367 255.868,115.73 260.354,115.73 C 264.836,115.73 268.471,119.367 268.471,123.849 z"
   id="path11134_17_"
   style="fill:url(#radialGradient4930);stroke:#000000;stroke-width:0.9921" /><g
   id="g978">
					<path
   d="M 257.448,122.309 L 258.074,122.309 L 258.074,124.648 L 258.095,124.648 C 258.225,124.46 258.355,124.288 258.477,124.129 L 259.959,122.309 L 260.736,122.309 L 258.98,124.368 L 260.873,127.16 L 260.132,127.16 L 258.541,124.778 L 258.073,125.31 L 258.073,127.16 L 257.447,127.16 L 257.447,122.309 L 257.448,122.309 z"
   id="path980" />
					<path
   d="M 262.463,122.083 L 262.463,123.267 L 263.602,123.267 L 263.602,123.569 L 262.463,123.569 L 262.463,124.763 L 262.141,124.763 L 262.141,123.569 L 261.002,123.569 L 261.002,123.267 L 262.141,123.267 L 262.141,122.083 L 262.463,122.083 z"
   id="path982" />
				</g>
<g
   id="g990">
				
					<radialGradient
   cx="253.69679"
   cy="-577.84668"
   r="16.186001"
   id="path16609_30_"
   gradientUnits="userSpaceOnUse"
   gradientTransform="matrix(1.5933,0,0,0.6358,-118.2103,400.7437)">
					<stop
   id="stop993"
   style="stop-color:#a2ff5f;stop-opacity:1"
   offset="0" />
					<stop
   id="stop995"
   style="stop-color:#a0ff5f;stop-opacity:1"
   offset="0.4082" />
					<stop
   id="stop997"
   style="stop-color:#99fd5f;stop-opacity:1"
   offset="0.55519998" />
					<stop
   id="stop999"
   style="stop-color:#8efb5e;stop-opacity:1"
   offset="0.66000003" />
					<stop
   id="stop1001"
   style="stop-color:#7df85e;stop-opacity:1"
   offset="0.74479997" />
					<stop
   id="stop1003"
   style="stop-color:#67f35d;stop-opacity:1"
   offset="0.81739998" />
					<stop
   id="stop1005"
   style="stop-color:#4bee5c;stop-opacity:1"
   offset="0.88169998" />
					<stop
   id="stop1007"
   style="stop-color:#2be85b;stop-opacity:1"
   offset="0.93980002" />
					<stop
   id="stop1009"
   style="stop-color:#07e05a;stop-opacity:1"
   offset="0.99150002" />
					<stop
   id="stop1011"
   style="stop-color:#00df5a;stop-opacity:1"
   offset="1" />
				</radialGradient>
				<path
   d="M 311.32,33.347 C 311.32,39.134 299.982,43.826 286.005,43.826 C 272.024,43.826 260.69,39.137 260.69,33.347 C 260.69,27.56 272.024,22.872 286.005,22.872 C 299.982,22.873 311.32,27.56 311.32,33.347 z"
   id="path16609_12_"
   style="fill:url(#radialGradient4686);stroke:#000000" />
				<g
   id="g1014">
					<path
   d="M 285.986,31.079 L 282.854,31.079 L 282.854,33.995 L 286.358,33.995 L 286.358,34.871 L 281.798,34.871 L 281.798,26.783 L 286.178,26.783 L 286.178,27.659 L 282.854,27.659 L 282.854,30.215 L 285.986,30.215 L 285.986,31.079 z"
   id="path1016" />
					<path
   d="M 287.18,38.867 L 287.18,38.414 L 287.76,37.851 C 289.155,36.524 289.793,35.819 289.793,34.996 C 289.793,34.441 289.533,33.929 288.718,33.929 C 288.222,33.929 287.811,34.181 287.559,34.391 L 287.324,33.87 C 287.694,33.559 288.24,33.315 288.869,33.315 C 290.036,33.315 290.532,34.122 290.532,34.903 C 290.532,35.911 289.801,36.726 288.651,37.835 L 288.222,38.238 L 288.222,38.255 L 290.666,38.255 L 290.666,38.868 L 287.18,38.868 L 287.18,38.867 z"
   id="path1018" />
				</g>
			</g><g
   id="g1046">
				
					<radialGradient
   cx="453.14059"
   cy="-990.17291"
   r="22.1565"
   id="path11134_40_"
   gradientUnits="userSpaceOnUse"
   gradientTransform="matrix(0.3664,0,0,0.3664,94.3221,409.6476)">
					<stop
   id="stop1049"
   style="stop-color:#fffcdf;stop-opacity:1"
   offset="0" />
					<stop
   id="stop1051"
   style="stop-color:#fffbda;stop-opacity:1"
   offset="0.1203" />
					<stop
   id="stop1053"
   style="stop-color:#fff9cb;stop-opacity:1"
   offset="0.26620001" />
					<stop
   id="stop1055"
   style="stop-color:#fff6b2;stop-opacity:1"
   offset="0.42550001" />
					<stop
   id="stop1057"
   style="stop-color:#fff090;stop-opacity:1"
   offset="0.59429997" />
					<stop
   id="stop1059"
   style="stop-color:#ffea64;stop-opacity:1"
   offset="0.77060002" />
					<stop
   id="stop1061"
   style="stop-color:#ffe22f;stop-opacity:1"
   offset="0.95060003" />
					<stop
   id="stop1063"
   style="stop-color:#ffe01f;stop-opacity:1"
   offset="1" />
				</radialGradient>
				<path
   d="M 268.471,46.849 C 268.471,51.331 264.836,54.966 260.354,54.966 C 255.87,54.966 252.235,51.331 252.235,46.849 C 252.235,42.367 255.868,38.73 260.354,38.73 C 264.836,38.73 268.471,42.367 268.471,46.849 z"
   id="path11134_19_"
   style="fill:url(#radialGradient4690);stroke:#000000;stroke-width:0.9921" />
				<g
   id="g1066">
					<path
   d="M 257.448,45.309 L 258.074,45.309 L 258.074,47.648 L 258.095,47.648 C 258.225,47.46 258.355,47.288 258.477,47.129 L 259.959,45.309 L 260.736,45.309 L 258.98,47.368 L 260.873,50.16 L 260.132,50.16 L 258.541,47.778 L 258.073,48.31 L 258.073,50.16 L 257.447,50.16 L 257.447,45.309 L 257.448,45.309 z"
   id="path1068" />
					<path
   d="M 262.463,45.083 L 262.463,46.267 L 263.602,46.267 L 263.602,46.569 L 262.463,46.569 L 262.463,47.763 L 262.141,47.763 L 262.141,46.569 L 261.002,46.569 L 261.002,46.267 L 262.141,46.267 L 262.141,45.083 L 262.463,45.083 z"
   id="path1070" />
				</g>
			</g>
<g
   id="g1072">
	<g
   id="g1074">
		<line
   fill="none"
   stroke="#000000"
   x1="134.33299"
   y1="49.667"
   x2="134.33299"
   y2="93.667"
   id="line1076"
   style="fill:none;stroke:#000000" />
		<polygon
   points="130.63,90.858 134.333,92.431 138.038,90.858 134.333,99.636 130.63,90.858 "
   id="polygon1078" />
		<polygon
   points="138.037,52.475 134.333,50.902 130.629,52.475 134.333,43.697 138.037,52.475 "
   id="polygon1080" />
	</g>
</g>
<g
   id="g1082">
	<g
   id="g1084">
		<path
   d="M 134.333,84.333 C 134.333,71.455 126.785,60.666 108.666,60.666"
   id="path1086"
   style="fill:none;stroke:#000000;stroke-dasharray:3, 3" />
		<polygon
   points="111.475,56.963 109.902,60.667 111.475,64.371 102.697,60.667 111.475,56.963 "
   id="polygon1088" />
	</g>
</g>
<g
   id="g1090">
	<g
   id="g1092">
		<line
   fill="none"
   stroke="#000000"
   x1="134.836"
   y1="174.957"
   x2="134.836"
   y2="126.667"
   id="line1094"
   style="fill:none;stroke:#000000" />
		<polygon
   points="138.539,129.475 134.836,127.902 131.132,129.475 134.836,120.697 138.539,129.475 "
   id="polygon1096" />
		<polygon
   points="131.133,172.148 134.836,173.721 138.54,172.148 134.836,180.926 131.133,172.148 "
   id="polygon1098" />
	</g>
</g>
<g
   id="g1100">
	<g
   id="g1102">
		<path
   d="M 134.836,136.909 C 134.836,151.043 126.552,162.884 106.667,162.884"
   id="path1104"
   style="fill:none;stroke:#000000;stroke-dasharray:3, 3" />
		<polygon
   points="109.475,159.181 107.902,162.884 109.475,166.588 100.697,162.884 109.475,159.181 "
   id="polygon1106" />
	</g>
</g>
<g
   id="g1108">
	<g
   id="g1110">
		<line
   fill="none"
   stroke="#000000"
   x1="135"
   y1="209.666"
   x2="135"
   y2="261.729"
   id="line1112"
   style="fill:none;stroke:#000000" />
		<polygon
   points="131.297,258.92 135,260.492 138.705,258.92 135,267.697 131.297,258.92 "
   id="polygon1114" />
		<polygon
   points="138.704,212.475 135,210.902 131.296,212.475 135,203.697 138.704,212.475 "
   id="polygon1116" />
	</g>
</g>
<g
   id="g1118">
	<g
   id="g1120">
		<path
   d="M 135,250.687 C 135,235.448 126.068,222.682 104.63,222.682"
   id="path1122"
   style="fill:none;stroke:#000000;stroke-dasharray:3, 3" />
		<polygon
   points="107.439,218.979 105.866,222.682 107.439,226.386 98.661,222.682 107.439,218.979 "
   id="polygon1124" />
	</g>
</g>
<g
   id="g1126">
	<g
   id="g1128">
		<line
   fill="none"
   stroke="#000000"
   x1="135"
   y1="349.513"
   x2="135"
   y2="295"
   id="line1130"
   style="fill:none;stroke:#000000" />
		<polygon
   points="138.703,297.809 135,296.236 131.296,297.809 135,289.031 138.703,297.809 "
   id="polygon1132" />
		<polygon
   points="131.297,346.704 135,348.277 138.704,346.704 135,355.482 131.297,346.704 "
   id="polygon1134" />
	</g>
</g>
<g
   id="g1136">
	<g
   id="g1138">
		<path
   d="M 135,306.562 C 135,322.518 125.648,335.884 103.201,335.884"
   id="path1140"
   style="fill:none;stroke:#000000;stroke-dasharray:3, 3" />
		<polygon
   points="106.009,332.181 104.437,335.884 106.009,339.588 97.231,335.884 106.009,332.181 "
   id="polygon1142" />
	</g>
</g>
<g
   id="g1144">
	<g
   id="g1146">
		<polyline
   fill="none"
   stroke="#000000"
   points="177.75,365.25 454.5,365.25 454.5,334   "
   id="polyline1148"
   style="fill:none;stroke:#000000" />
		<polygon
   points="458.203,336.809 454.5,335.236 450.796,336.809 454.5,328.031 458.203,336.809 "
   id="polygon1150" />
		<polygon
   points="180.559,361.547 178.986,365.25 180.559,368.954 171.781,365.25 180.559,361.547 "
   id="polygon1152" />
	</g>
</g>
<g
   id="g1154">
	<g
   id="g1156">
		<line
   fill="none"
   stroke="#000000"
   x1="454.66599"
   y1="220"
   x2="454.66599"
   y2="301.16599"
   id="line1158"
   style="fill:none;stroke:#000000" />
		<polygon
   points="450.963,298.357 454.666,299.93 458.37,298.357 454.666,307.135 450.963,298.357 "
   id="polygon1160" />
		<polygon
   points="458.369,222.809 454.666,221.236 450.962,222.809 454.666,214.031 458.369,222.809 "
   id="polygon1162" />
	</g>
</g>
<g
   id="g1164">
	<g
   id="g1166">
		<path
   d="M 454.666,286 C 454.666,268.588 463.22,254 483.75,254"
   id="path1168"
   style="fill:none;stroke:#000000;stroke-dasharray:3, 3" />
		<polygon
   points="480.941,257.703 482.514,254 480.941,250.296 489.719,254 480.941,257.703 "
   id="polygon1170" />
	</g>
</g>
<g
   id="g1172">
	<g
   id="g1174">
		<line
   fill="none"
   stroke="#000000"
   x1="454.91599"
   y1="185.916"
   x2="454.91599"
   y2="115.927"
   id="line1176"
   style="fill:none;stroke:#000000" />
		<polygon
   points="458.619,118.736 454.916,117.163 451.212,118.736 454.916,109.958 458.619,118.736 "
   id="polygon1178" />
		<polygon
   points="451.213,183.107 454.916,184.68 458.62,183.107 454.916,191.885 451.213,183.107 "
   id="polygon1180" />
	</g>
</g>
<g
   id="g1182">
	<g
   id="g1184">
		<path
   d="M 454.916,129.004 C 454.916,144.019 462.291,156.597 479.994,156.597"
   id="path1186"
   style="fill:none;stroke:#000000;stroke-dasharray:3, 3" />
		<polygon
   points="477.186,160.301 478.758,156.598 477.186,152.894 485.963,156.598 477.186,160.301 "
   id="polygon1188" />
	</g>
</g>
<g
   id="g1190">
	<g
   id="g1192">
		<polyline
   fill="none"
   stroke="#000000"
   points="454.5,82.5 454.5,31.5 317.25,31.5   "
   id="polyline1194"
   style="fill:none;stroke:#000000" />
		<polygon
   points="320.059,27.797 318.486,31.5 320.059,35.204 311.281,31.5 320.059,27.797 "
   id="polygon1196" />
		<polygon
   points="450.797,79.691 454.5,81.264 458.204,79.691 454.5,88.469 450.797,79.691 "
   id="polygon1198" />
	</g>
</g>
<g
   id="g1200">
	<g
   id="g1202">
		<path
   d="M 454.583,64.264 C 454.583,49.249 461.958,36.671 479.661,36.671"
   id="path1204"
   style="fill:none;stroke:#000000;stroke-dasharray:3, 3" />
		<polygon
   points="476.853,40.374 478.426,36.67 476.853,32.966 485.631,36.67 476.853,40.374 "
   id="polygon1206" />
	</g>
</g>
<g
   id="g1208">
	<g
   id="g1210">
		<line
   fill="none"
   stroke="#000000"
   x1="285.99899"
   y1="50.09"
   x2="285.99899"
   y2="93.623001"
   id="line1212"
   style="fill:none;stroke:#000000" />
		<polygon
   points="282.296,90.814 285.999,92.387 289.703,90.814 285.999,99.592 282.296,90.814 "
   id="polygon1214" />
		<polygon
   points="289.702,52.898 285.999,51.326 282.295,52.898 285.999,44.121 289.702,52.898 "
   id="polygon1216" />
	</g>
</g>
<g
   id="g1218">
	<g
   id="g1220">
		<path
   d="M 285.999,84.39 C 285.999,71.648 293.467,60.974 311.394,60.974"
   id="path1222"
   style="fill:none;stroke:#000000;stroke-dasharray:3, 3" />
		<polygon
   points="308.585,64.677 310.158,60.974 308.585,57.27 317.363,60.974 308.585,64.677 "
   id="polygon1224" />
	</g>
</g>
<g
   id="g1226">
	<g
   id="g1228">
		<line
   fill="none"
   stroke="#000000"
   x1="167.332"
   y1="33.334"
   x2="254.66701"
   y2="33.341"
   id="line1230"
   style="fill:none;stroke:#000000" />
		<polygon
   points="251.857,37.044 253.431,33.341 251.858,29.637 260.636,33.342 251.857,37.044 "
   id="polygon1232" />
		<polygon
   points="170.141,29.632 168.568,33.334 170.14,37.039 161.363,33.334 170.141,29.632 "
   id="polygon1234" />
	</g>
</g>
<g
   id="g1236">
	<g
   id="g1238">
		<line
   fill="none"
   stroke="#000000"
   x1="167.666"
   y1="110.334"
   x2="255"
   y2="110.341"
   id="line1240"
   style="fill:none;stroke:#000000" />
		<polygon
   points="252.191,114.044 253.764,110.341 252.192,106.637 260.969,110.342 252.191,114.044 "
   id="polygon1242" />
		<polygon
   points="170.474,106.632 168.901,110.334 170.474,114.039 161.696,110.334 170.474,106.632 "
   id="polygon1244" />
	</g>
</g>
<g
   transform="translate(0,-6)"
   id="g1246">
	<path
   d="M 11.886,202.915 C 11.514,203.107 10.734,203.299 9.75,203.299 C 7.47,203.299 5.766,201.859 5.766,199.195 C 5.766,196.651 7.482,194.947 9.99,194.947 C 10.986,194.947 11.634,195.163 11.91,195.307 L 11.646,196.159 C 11.262,195.967 10.698,195.823 10.026,195.823 C 8.13,195.823 6.87,197.035 6.87,199.159 C 6.87,201.151 8.01,202.411 9.966,202.411 C 10.614,202.411 11.262,202.279 11.682,202.075 L 11.886,202.915 z"
   id="path1248" />
	<path
   d="M 15.005,203.167 L 15.005,199.735 L 12.437,195.079 L 13.637,195.079 L 14.777,197.311 C 15.077,197.923 15.329,198.415 15.581,198.979 L 15.605,198.979 C 15.821,198.451 16.109,197.923 16.421,197.311 L 17.585,195.079 L 18.761,195.079 L 16.061,199.723 L 16.061,203.167 L 15.005,203.167 z"
   id="path1250" />
	<path
   d="M 21.761,195.967 L 19.301,195.967 L 19.301,195.079 L 25.289,195.079 L 25.289,195.967 L 22.817,195.967 L 22.817,203.167 L 21.761,203.167 L 21.761,195.967 L 21.761,195.967 z"
   id="path1252" />
	<path
   d="M 29.021,203.299 C 26.873,203.299 25.385,201.643 25.385,199.195 C 25.385,196.627 26.969,194.947 29.129,194.947 C 31.349,194.947 32.777,196.639 32.777,199.039 C 32.777,201.811 31.085,203.299 29.033,203.299 L 29.021,203.299 z M 29.069,202.447 C 30.725,202.447 31.661,200.923 31.661,199.087 C 31.661,197.479 30.821,195.799 29.081,195.799 C 27.341,195.799 26.477,197.419 26.477,199.171 C 26.477,200.875 27.413,202.447 29.057,202.447 L 29.069,202.447 z"
   id="path1254" />
	<path
   d="M 34.001,201.895 C 34.469,202.195 35.141,202.423 35.861,202.423 C 36.929,202.423 37.553,201.871 37.553,201.043 C 37.553,200.299 37.121,199.855 36.029,199.447 C 34.709,198.967 33.893,198.271 33.893,197.143 C 33.893,195.883 34.937,194.947 36.509,194.947 C 37.325,194.947 37.937,195.139 38.285,195.343 L 37.997,196.195 C 37.745,196.039 37.205,195.811 36.473,195.811 C 35.369,195.811 34.949,196.471 34.949,197.023 C 34.949,197.779 35.441,198.151 36.557,198.583 C 37.925,199.123 38.609,199.771 38.609,200.959 C 38.609,202.207 37.697,203.299 35.789,203.299 C 35.009,203.299 34.157,203.059 33.725,202.771 L 34.001,201.895 z"
   id="path1256" />
	<path
   d="M 43.205,203.299 C 41.057,203.299 39.569,201.643 39.569,199.195 C 39.569,196.627 41.153,194.947 43.313,194.947 C 45.533,194.947 46.961,196.639 46.961,199.039 C 46.961,201.811 45.269,203.299 43.217,203.299 L 43.205,203.299 z M 43.253,202.447 C 44.909,202.447 45.845,200.923 45.845,199.087 C 45.845,197.479 45.005,195.799 43.265,195.799 C 41.525,195.799 40.661,197.419 40.661,199.171 C 40.661,200.875 41.597,202.447 43.241,202.447 L 43.253,202.447 z"
   id="path1258" />
	<path
   d="M 48.305,195.079 L 49.361,195.079 L 49.361,202.291 L 52.817,202.291 L 52.817,203.167 L 48.305,203.167 L 48.305,195.079 z"
   id="path1260" />
</g>
<g
   transform="translate(0,-6)"
   id="g1262">
	<path
   d="M 537.9,195.078 L 538.957,195.078 L 538.957,202.29 L 542.412,202.29 L 542.412,203.166 L 537.9,203.166 L 537.9,195.078 z"
   id="path1264" />
	<path
   d="M 544.188,195.078 L 544.188,199.878 C 544.188,201.678 544.992,202.446 546.072,202.446 C 547.26,202.446 548.041,201.654 548.041,199.878 L 548.041,195.078 L 549.097,195.078 L 549.097,199.806 C 549.097,202.29 547.789,203.298 546.037,203.298 C 544.381,203.298 543.133,202.362 543.133,199.842 L 543.133,195.078 L 544.188,195.078 z"
   id="path1266" />
	<path
   d="M 557.725,199.614 C 557.664,198.486 557.592,197.118 557.592,196.122 L 557.569,196.122 C 557.281,197.058 556.957,198.078 556.549,199.194 L 555.12,203.118 L 554.328,203.118 L 553.008,199.266 C 552.624,198.114 552.313,197.082 552.084,196.122 L 552.061,196.122 C 552.037,197.13 551.977,198.474 551.905,199.698 L 551.688,203.166 L 550.692,203.166 L 551.256,195.078 L 552.588,195.078 L 553.969,198.99 C 554.305,199.986 554.569,200.874 554.784,201.714 L 554.808,201.714 C 555.023,200.898 555.312,200.01 555.671,198.99 L 557.111,195.078 L 558.443,195.078 L 558.947,203.166 L 557.915,203.166 L 557.725,199.614 z"
   id="path1268" />
	<path
   d="M 564.732,199.374 L 561.6,199.374 L 561.6,202.29 L 565.104,202.29 L 565.104,203.166 L 560.544,203.166 L 560.544,195.078 L 564.924,195.078 L 564.924,195.954 L 561.6,195.954 L 561.6,198.51 L 564.733,198.51 L 564.733,199.374 L 564.732,199.374 z"
   id="path1270" />
	<path
   d="M 566.46,203.166 L 566.46,195.078 L 567.611,195.078 L 570.191,199.17 C 570.779,200.118 571.259,200.958 571.631,201.798 L 571.667,201.786 C 571.571,200.706 571.547,199.722 571.547,198.474 L 571.547,195.078 L 572.53,195.078 L 572.53,203.166 L 571.475,203.166 L 568.907,199.062 C 568.343,198.162 567.803,197.238 567.407,196.362 L 567.371,196.374 C 567.431,197.394 567.442,198.366 567.442,199.71 L 567.442,203.166 L 566.46,203.166 z"
   id="path1272" />
</g>
</svg>