<?xml version="1.0" encoding="utf-8"?>
<!-- Generator: Adobe Illustrator 14.0.0, SVG Export Plug-In . SVG Version: 6.00 Build 43363)  -->
<!DOCTYPE svg PUBLIC "-//W3C//DTD SVG 1.1//EN" "http://www.w3.org/Graphics/SVG/1.1/DTD/svg11.dtd">
<svg version="1.1" id="Layer_1" xmlns="http://www.w3.org/2000/svg" xmlns:xlink="http://www.w3.org/1999/xlink" x="0px" y="0px"
	 width="675px" height="378.947px" viewBox="0 0 675 378.947" enable-background="new 0 0 675 378.947" xml:space="preserve">
<rect x="54.403" y="94.402" fill="none" stroke="#231F20" width="572" height="160.151"/>
<rect x="152.403" y="29.553" fill="none" stroke="#231F20" stroke-dasharray="3,3" width="375" height="160"/>
<g>
	<g>
		<g id="XMLID_1_">
			<g>
				<polygon fill="#FFFFFF" points="395.9,94.5 416.9,80.029 416.9,109.31 				"/>
			</g>
			<g>
				<line fill="none" stroke="#231F20" x1="395.9" y1="94.5" x2="416.9" y2="109.31"/>
				<line fill="none" stroke="#231F20" x1="416.9" y1="109.31" x2="416.9" y2="80.029"/>
				<line fill="none" stroke="#231F20" x1="416.9" y1="80.029" x2="395.9" y2="94.5"/>
			</g>
		</g>
	</g>
	<line fill="none" stroke="#231F20" x1="394.403" y1="79.235" x2="394.403" y2="110.101"/>
</g>
<rect x="440.32" y="243.553" fill="#FFFFFF" stroke="#231F20" width="89.5" height="21"/>
<g>
	<g>
		<g id="XMLID_2_">
			<g>
				<polygon fill="#FFFFFF" points="211.402,94.491 232.402,80.021 232.402,109.3 				"/>
			</g>
			<g>
				<line fill="none" stroke="#231F20" x1="211.402" y1="94.491" x2="232.402" y2="109.3"/>
				<line fill="none" stroke="#231F20" x1="232.402" y1="109.3" x2="232.402" y2="80.021"/>
				<line fill="none" stroke="#231F20" x1="232.402" y1="80.021" x2="211.402" y2="94.491"/>
			</g>
		</g>
	</g>
	<line fill="none" stroke="#231F20" x1="209.906" y1="79.235" x2="209.906" y2="110.101"/>
</g>
<line fill="none" stroke="#231F20" x1="472.403" y1="94.402" x2="472.403" y2="166.553"/>
<line fill="none" stroke="#231F20" x1="460.069" y1="166.553" x2="485.069" y2="166.553"/>
<line fill="none" stroke="#231F20" x1="460.069" y1="130.902" x2="485.069" y2="130.902"/>
<line fill="none" stroke="#231F20" x1="460.069" y1="138.553" x2="485.069" y2="138.553"/>
<g>
	<g>
		<line fill="none" stroke="#010101" x1="479.249" y1="120.865" x2="465.556" y2="150.241"/>
		<polygon fill="#010101" points="481.419,124.975 478.726,121.985 474.704,121.846 481.771,115.454 		"/>
	</g>
</g>
<line fill="none" stroke="#231F20" x1="296.236" y1="94.826" x2="296.236" y2="166.977"/>
<line fill="none" stroke="#231F20" x1="283.903" y1="166.977" x2="308.903" y2="166.977"/>
<line fill="none" stroke="#231F20" x1="283.903" y1="131.326" x2="308.903" y2="131.326"/>
<line fill="none" stroke="#231F20" x1="283.903" y1="138.977" x2="308.903" y2="138.977"/>
<g>
	<g>
		<line fill="none" stroke="#010101" x1="303.082" y1="121.289" x2="289.389" y2="150.666"/>
		<polygon fill="#010101" points="305.251,125.399 302.559,122.409 298.538,122.27 305.603,115.878 		"/>
	</g>
</g>
<path fill="none" stroke="#231F20" d="M337.903,299.704c0,9.142,0,18.283,0,27.424"/>
<path fill="none" stroke="#231F20" d="M337.903,254.978c0,12.141,0,24.283,0,36.424"/>
<line fill="none" stroke="#231F20" x1="325.403" y1="327.128" x2="350.403" y2="327.128"/>
<line fill="none" stroke="#231F20" x1="325.403" y1="291.478" x2="350.403" y2="291.478"/>
<line fill="none" stroke="#231F20" x1="325.403" y1="299.128" x2="350.403" y2="299.128"/>
<g>
	<path fill="#010101" d="M520.211,327.85c0.547,0.35,1.332,0.615,2.172,0.615c1.246,0,1.975-0.658,1.975-1.61
		c0-0.868-0.504-1.387-1.779-1.862c-1.539-0.561-2.492-1.373-2.492-2.689c0-1.471,1.219-2.564,3.053-2.564
		c0.953,0,1.668,0.225,2.074,0.463l-0.336,0.994c-0.295-0.182-0.926-0.447-1.779-0.447c-1.289,0-1.779,0.77-1.779,1.414
		c0,0.883,0.574,1.316,1.877,1.82c1.598,0.617,2.395,1.387,2.395,2.774c0,1.456-1.064,2.731-3.291,2.731
		c-0.91,0-1.904-0.28-2.41-0.617L520.211,327.85z"/>
	<path fill="#010101" d="M527.562,322.555l1.471,4.006c0.168,0.448,0.336,0.98,0.447,1.387h0.029
		c0.125-0.406,0.266-0.924,0.434-1.415l1.346-3.978h1.301l-1.848,4.832c-0.883,2.326-1.484,3.502-2.326,4.244
		c-0.615,0.519-1.205,0.729-1.512,0.785l-0.309-1.023c0.309-0.098,0.715-0.293,1.078-0.602c0.336-0.267,0.742-0.742,1.037-1.373
		c0.057-0.126,0.098-0.225,0.098-0.294c0-0.07-0.027-0.169-0.098-0.322l-2.494-6.247H527.562z"/>
	<path fill="#010101" d="M533.455,328.088c0.379,0.224,1.023,0.476,1.639,0.476c0.883,0,1.303-0.435,1.303-1.009
		c0-0.588-0.35-0.896-1.246-1.232c-1.232-0.448-1.807-1.106-1.807-1.919c0-1.093,0.896-1.989,2.34-1.989
		c0.686,0,1.287,0.182,1.652,0.42l-0.295,0.896c-0.266-0.168-0.756-0.406-1.387-0.406c-0.729,0-1.121,0.421-1.121,0.925
		c0,0.561,0.393,0.812,1.275,1.163c1.162,0.434,1.779,1.022,1.779,2.031c0,1.204-0.939,2.045-2.521,2.045
		c-0.742,0-1.43-0.196-1.904-0.477L533.455,328.088z"/>
	<path fill="#010101" d="M540.652,320.93v1.625h1.766v0.938h-1.766v3.656c0,0.841,0.238,1.316,0.924,1.316
		c0.336,0,0.533-0.027,0.715-0.084l0.057,0.939c-0.238,0.084-0.617,0.168-1.094,0.168c-0.574,0-1.035-0.196-1.33-0.519
		c-0.336-0.378-0.477-0.98-0.477-1.778v-3.699h-1.051v-0.938h1.051v-1.262L540.652,320.93z"/>
	<path fill="#010101" d="M544.404,326.168c0.027,1.667,1.078,2.354,2.324,2.354c0.883,0,1.43-0.154,1.877-0.35l0.225,0.882
		c-0.434,0.196-1.191,0.435-2.27,0.435c-2.086,0-3.334-1.387-3.334-3.432s1.205-3.643,3.18-3.643c2.229,0,2.803,1.934,2.803,3.18
		c0,0.252-0.016,0.435-0.043,0.574H544.404z M548.018,325.285c0.014-0.77-0.322-1.988-1.709-1.988c-1.26,0-1.793,1.135-1.891,1.988
		H548.018z"/>
	<path fill="#010101" d="M550.732,324.389c0-0.714-0.029-1.273-0.057-1.834h1.078l0.057,1.106h0.043
		c0.377-0.645,1.008-1.247,2.143-1.247c0.91,0,1.611,0.561,1.904,1.359h0.029c0.209-0.393,0.49-0.673,0.77-0.883
		c0.406-0.309,0.84-0.477,1.484-0.477c0.91,0,2.242,0.588,2.242,2.941v3.979h-1.205v-3.824c0-1.316-0.49-2.087-1.471-2.087
		c-0.715,0-1.246,0.519-1.471,1.106c-0.057,0.182-0.098,0.393-0.098,0.616v4.188h-1.205v-4.062c0-1.078-0.477-1.849-1.414-1.849
		c-0.758,0-1.332,0.616-1.527,1.232c-0.07,0.169-0.098,0.393-0.098,0.603v4.076h-1.205V324.389z"/>
	<path fill="#010101" d="M563.781,320.649c0,0.42-0.295,0.757-0.785,0.757c-0.447,0-0.742-0.337-0.742-0.757
		c0-0.421,0.309-0.771,0.77-0.771C563.473,319.879,563.781,320.215,563.781,320.649z M562.408,329.334v-6.779h1.232v6.779H562.408z"
		/>
	<path fill="#010101" d="M570.516,329.096c-0.322,0.154-1.037,0.393-1.947,0.393c-2.045,0-3.375-1.387-3.375-3.46
		c0-2.087,1.428-3.614,3.641-3.614c0.729,0,1.373,0.182,1.709,0.364l-0.279,0.938c-0.295-0.154-0.756-0.322-1.43-0.322
		c-1.555,0-2.395,1.163-2.395,2.563c0,1.569,1.008,2.536,2.354,2.536c0.701,0,1.162-0.169,1.514-0.322L570.516,329.096z"/>
	<path fill="#010101" d="M574.951,319.893h1.232v8.419h4.035v1.022h-5.268V319.893z"/>
	<path fill="#010101" d="M587.471,325.889c0,2.507-1.75,3.6-3.375,3.6c-1.822,0-3.25-1.345-3.25-3.488
		c0-2.255,1.498-3.586,3.361-3.586C586.154,322.414,587.471,323.829,587.471,325.889z M582.105,325.958
		c0,1.485,0.842,2.605,2.045,2.605c1.178,0,2.061-1.106,2.061-2.634c0-1.148-0.574-2.591-2.031-2.591
		C582.736,323.339,582.105,324.684,582.105,325.958z"/>
	<path fill="#010101" d="M595.156,325.889c0,2.507-1.75,3.6-3.375,3.6c-1.822,0-3.25-1.345-3.25-3.488
		c0-2.255,1.498-3.586,3.361-3.586C593.84,322.414,595.156,323.829,595.156,325.889z M589.791,325.958
		c0,1.485,0.842,2.605,2.045,2.605c1.178,0,2.061-1.106,2.061-2.634c0-1.148-0.574-2.591-2.031-2.591
		C590.422,323.339,589.791,324.684,589.791,325.958z"/>
	<path fill="#010101" d="M596.707,324.768c0-0.869-0.029-1.568-0.057-2.213h1.094l0.068,1.162h0.029
		c0.49-0.826,1.303-1.303,2.408-1.303c1.654,0,2.887,1.387,2.887,3.432c0,2.438-1.5,3.643-3.096,3.643
		c-0.896,0-1.682-0.393-2.088-1.064h-0.027v3.684h-1.219V324.768z M597.926,326.574c0,0.183,0.014,0.351,0.055,0.504
		c0.225,0.855,0.967,1.443,1.85,1.443c1.303,0,2.059-1.064,2.059-2.619c0-1.345-0.713-2.508-2.016-2.508
		c-0.842,0-1.639,0.588-1.863,1.514c-0.043,0.153-0.084,0.336-0.084,0.49V326.574z"/>
</g>
<g>
	<path fill="#010101" d="M174.686,157.536v3.95h4.566v-3.95h1.232v9.441h-1.232v-4.426h-4.566v4.426h-1.232v-9.441H174.686z"/>
	<path fill="#010101" d="M183.24,163.812c0.028,1.667,1.078,2.353,2.325,2.353c0.883,0,1.429-0.154,1.877-0.35l0.225,0.882
		c-0.435,0.196-1.191,0.435-2.27,0.435c-2.087,0-3.334-1.387-3.334-3.432c0-2.045,1.205-3.642,3.18-3.642
		c2.228,0,2.802,1.933,2.802,3.18c0,0.252-0.015,0.435-0.042,0.575H183.24z M186.854,162.929c0.014-0.77-0.322-1.989-1.709-1.989
		c-1.261,0-1.793,1.134-1.892,1.989H186.854z"/>
	<path fill="#010101" d="M194.33,165.352c0,0.588,0.028,1.163,0.098,1.625h-1.106l-0.098-0.854h-0.042
		c-0.378,0.532-1.106,1.009-2.073,1.009c-1.373,0-2.073-0.967-2.073-1.947c0-1.639,1.457-2.535,4.076-2.521v-0.14
		c0-0.546-0.154-1.569-1.541-1.555c-0.645,0-1.303,0.182-1.778,0.504l-0.28-0.827c0.56-0.35,1.387-0.588,2.241-0.588
		c2.073,0,2.577,1.415,2.577,2.76V165.352z M193.139,163.517c-1.345-0.028-2.872,0.21-2.872,1.527c0,0.812,0.532,1.177,1.148,1.177
		c0.896,0,1.472-0.561,1.667-1.135c0.042-0.14,0.057-0.28,0.057-0.392V163.517z"/>
	<path fill="#010101" d="M196.315,162.312c0-0.798-0.014-1.485-0.056-2.115h1.078l0.057,1.345h0.042
		c0.308-0.91,1.064-1.485,1.891-1.485c0.126,0,0.225,0.014,0.336,0.028v1.163c-0.126-0.028-0.252-0.028-0.42-0.028
		c-0.868,0-1.484,0.645-1.653,1.569c-0.027,0.168-0.042,0.378-0.042,0.575v3.614h-1.232V162.312z"/>
	<path fill="#010101" d="M202.714,158.573v1.625h1.765v0.938h-1.765v3.656c0,0.84,0.237,1.316,0.924,1.316
		c0.336,0,0.532-0.028,0.715-0.084l0.056,0.938c-0.238,0.084-0.616,0.168-1.093,0.168c-0.574,0-1.036-0.196-1.33-0.519
		c-0.337-0.378-0.477-0.98-0.477-1.779v-3.698h-1.051v-0.938h1.051v-1.261L202.714,158.573z"/>
</g>
<rect x="22.403" y="217.553" fill="none" stroke="#231F20" stroke-dasharray="3,3" width="631" height="130"/>
<g>
	<path fill="#010101" d="M221.021,66.178c-1.274-0.336-2.521-0.714-3.614-1.093c-0.21-0.07-0.392-0.14-0.574-0.14
		c-2.255-0.084-4.16-1.737-4.16-4.791c0-3.025,1.835-4.973,4.384-4.973c2.577,0,4.244,1.989,4.244,4.777
		c0,2.437-1.121,3.978-2.689,4.539v0.056c0.938,0.238,1.961,0.462,2.76,0.603L221.021,66.178z M220.013,60.028
		c0-1.905-0.98-3.852-2.983-3.852c-2.059,0-3.068,1.905-3.068,3.95c0,2.017,1.093,3.824,3.025,3.824
		C218.92,63.951,220.013,62.171,220.013,60.028z"/>
	<path fill="#010101" d="M225.86,68.317c0,0.411,0.02,0.813,0.068,1.136h-0.774l-0.068-0.598h-0.029
		c-0.265,0.373-0.774,0.706-1.45,0.706c-0.96,0-1.45-0.676-1.45-1.362c0-1.146,1.019-1.773,2.851-1.763v-0.098
		c0-0.382-0.107-1.097-1.078-1.087c-0.45,0-0.911,0.127-1.244,0.353l-0.196-0.578c0.392-0.245,0.97-0.412,1.567-0.412
		c1.45,0,1.803,0.989,1.803,1.93V68.317z M225.028,67.034c-0.94-0.02-2.008,0.147-2.008,1.067c0,0.568,0.372,0.823,0.803,0.823
		c0.627,0,1.028-0.392,1.166-0.793c0.029-0.098,0.04-0.196,0.04-0.274V67.034z"/>
	<path fill="#010101" d="M231.544,67.043c0,1.753-1.225,2.518-2.361,2.518c-1.273,0-2.273-0.94-2.273-2.439
		c0-1.577,1.048-2.508,2.351-2.508C230.623,64.614,231.544,65.603,231.544,67.043z M227.792,67.092c0,1.039,0.588,1.822,1.43,1.822
		c0.823,0,1.44-0.774,1.44-1.842c0-0.803-0.401-1.812-1.42-1.812C228.233,65.26,227.792,66.201,227.792,67.092z"/>
</g>
<g>
	<path fill="#010101" d="M217.05,126.608c-0.434,0.224-1.345,0.448-2.493,0.448c-2.662,0-4.65-1.681-4.65-4.791
		c0-2.969,2.003-4.958,4.931-4.958c1.163,0,1.919,0.252,2.241,0.42l-0.308,0.994c-0.448-0.224-1.107-0.392-1.891-0.392
		c-2.213,0-3.684,1.415-3.684,3.894c0,2.325,1.331,3.796,3.614,3.796c0.756,0,1.513-0.154,2.003-0.393L217.05,126.608z"/>
	<path fill="#010101" d="M220.828,126.902l-3.096-9.441h1.331l1.471,4.65c0.392,1.274,0.742,2.423,1.008,3.53h0.028
		c0.266-1.093,0.645-2.283,1.079-3.516l1.597-4.665h1.303l-3.376,9.441H220.828z"/>
	<path fill="#010101" d="M229.548,130.428c0,0.411,0.02,0.813,0.068,1.136h-0.774l-0.068-0.598h-0.029
		c-0.265,0.373-0.774,0.706-1.45,0.706c-0.96,0-1.45-0.676-1.45-1.362c0-1.146,1.019-1.773,2.851-1.763v-0.098
		c0-0.382-0.107-1.097-1.077-1.087c-0.451,0-0.911,0.127-1.244,0.353l-0.196-0.578c0.392-0.245,0.97-0.412,1.567-0.412
		c1.45,0,1.803,0.989,1.803,1.93V130.428z M228.715,129.145c-0.94-0.02-2.008,0.147-2.008,1.067c0,0.568,0.372,0.823,0.803,0.823
		c0.627,0,1.028-0.392,1.166-0.793c0.029-0.098,0.039-0.196,0.039-0.274V129.145z"/>
	<path fill="#010101" d="M235.231,129.155c0,1.753-1.225,2.518-2.361,2.518c-1.273,0-2.273-0.94-2.273-2.439
		c0-1.577,1.048-2.508,2.351-2.508C234.311,126.725,235.231,127.714,235.231,129.155z M231.479,129.204
		c0,1.039,0.588,1.822,1.43,1.822c0.823,0,1.44-0.774,1.44-1.842c0-0.803-0.401-1.812-1.42-1.812
		C231.92,127.372,231.479,128.312,231.479,129.204z"/>
</g>
<g>
	<path fill="#010101" d="M402.021,66.178c-1.274-0.336-2.521-0.714-3.614-1.093c-0.209-0.07-0.392-0.14-0.574-0.14
		c-2.255-0.084-4.16-1.737-4.16-4.791c0-3.025,1.836-4.973,4.385-4.973c2.577,0,4.244,1.989,4.244,4.777
		c0,2.437-1.121,3.978-2.689,4.539v0.056c0.938,0.238,1.961,0.462,2.76,0.603L402.021,66.178z M401.012,60.028
		c0-1.905-0.98-3.852-2.982-3.852c-2.06,0-3.068,1.905-3.068,3.95c0,2.017,1.093,3.824,3.025,3.824
		C399.92,63.951,401.012,62.171,401.012,60.028z"/>
	<path fill="#010101" d="M403.529,65.995c0-0.5-0.02-0.892-0.039-1.283h0.754l0.039,0.774h0.029
		c0.265-0.451,0.705-0.872,1.499-0.872c0.637,0,1.126,0.392,1.333,0.95h0.02c0.146-0.274,0.342-0.47,0.538-0.617
		c0.284-0.215,0.588-0.333,1.038-0.333c0.637,0,1.568,0.412,1.568,2.057v2.782h-0.844v-2.674c0-0.921-0.342-1.459-1.027-1.459
		c-0.5,0-0.873,0.362-1.029,0.774c-0.039,0.127-0.068,0.274-0.068,0.431v2.929h-0.843v-2.841c0-0.754-0.333-1.293-0.989-1.293
		c-0.529,0-0.931,0.431-1.068,0.862c-0.049,0.118-0.068,0.274-0.068,0.421v2.851h-0.842V65.995z"/>
	<path fill="#010101" d="M411.703,62.498h0.861v6.955h-0.861V62.498z"/>
</g>
<g>
	<path fill="#010101" d="M398.051,126.607c-0.435,0.224-1.346,0.448-2.494,0.448c-2.661,0-4.65-1.681-4.65-4.791
		c0-2.969,2.004-4.958,4.932-4.958c1.162,0,1.918,0.252,2.24,0.42l-0.308,0.994c-0.448-0.224-1.106-0.392-1.892-0.392
		c-2.213,0-3.684,1.415-3.684,3.894c0,2.325,1.33,3.796,3.613,3.796c0.757,0,1.514-0.154,2.004-0.393L398.051,126.607z"/>
	<path fill="#010101" d="M401.828,126.901l-3.096-9.441h1.33l1.471,4.65c0.393,1.274,0.742,2.423,1.009,3.53h0.028
		c0.266-1.093,0.645-2.283,1.078-3.516l1.598-4.665h1.303l-3.377,9.441H401.828z"/>
	<path fill="#010101" d="M407.217,128.105c0-0.5-0.02-0.892-0.039-1.283h0.754l0.039,0.774h0.03
		c0.265-0.451,0.705-0.872,1.499-0.872c0.637,0,1.126,0.392,1.332,0.95h0.02c0.146-0.274,0.343-0.47,0.539-0.617
		c0.283-0.215,0.588-0.333,1.038-0.333c0.637,0,1.567,0.412,1.567,2.057v2.782h-0.843v-2.674c0-0.921-0.343-1.459-1.028-1.459
		c-0.5,0-0.872,0.362-1.029,0.774c-0.039,0.127-0.068,0.274-0.068,0.431v2.929h-0.842v-2.841c0-0.754-0.334-1.293-0.99-1.293
		c-0.528,0-0.93,0.431-1.067,0.862c-0.049,0.118-0.068,0.274-0.068,0.421v2.851h-0.843V128.105z"/>
	<path fill="#010101" d="M415.391,124.608h0.861v6.955h-0.861V124.608z"/>
</g>
<g>
	<path fill="#010101" d="M291.097,70.704c0.588-0.098,1.359-0.182,2.339-0.182c1.205,0,2.087,0.28,2.647,0.785
		c0.504,0.448,0.827,1.134,0.827,1.975c0,0.854-0.252,1.527-0.729,2.017c-0.658,0.686-1.695,1.036-2.886,1.036
		c-0.364,0-0.7-0.014-0.98-0.084v3.782h-1.219V70.704z M292.316,75.257c0.266,0.07,0.603,0.098,1.009,0.098
		c1.471,0,2.367-0.728,2.367-2.003c0-1.261-0.896-1.863-2.228-1.863c-0.532,0-0.938,0.042-1.148,0.098V75.257z"/>
	<path fill="#010101" d="M298.196,77.74h0.862v6.955h-0.862V77.74z"/>
	<path fill="#010101" d="M300.841,79.954l0.931,2.655c0.157,0.441,0.284,0.833,0.382,1.224h0.029
		c0.108-0.392,0.245-0.783,0.402-1.224l0.921-2.655h0.901l-1.861,4.741h-0.823l-1.802-4.741H300.841z"/>
</g>
<g>
	<path fill="#010101" d="M323.247,134.126h-3.656v3.404h4.09v1.022h-5.323v-9.441h5.112v1.022h-3.88v2.983h3.656V134.126z"/>
	<path fill="#010101" d="M324.911,136.26h0.862v6.955h-0.862V136.26z"/>
	<path fill="#010101" d="M327.556,138.474l0.931,2.655c0.157,0.441,0.284,0.833,0.382,1.224h0.029
		c0.108-0.392,0.245-0.783,0.402-1.224l0.921-2.655h0.901l-1.861,4.741h-0.823l-1.802-4.741H327.556z"/>
</g>
<g>
	<path fill="#010101" d="M501.248,132.603h-3.656v3.404h4.09v1.022h-5.322v-9.441h5.112v1.022h-3.88v2.983h3.656V132.603z"/>
	<path fill="#010101" d="M502.912,134.736h0.861v6.955h-0.861V134.736z"/>
	<path fill="#010101" d="M508.555,140.555c0,0.411,0.02,0.813,0.068,1.136h-0.773l-0.068-0.598h-0.029
		c-0.266,0.373-0.774,0.706-1.451,0.706c-0.959,0-1.449-0.676-1.449-1.362c0-1.146,1.02-1.773,2.851-1.763v-0.098
		c0-0.382-0.107-1.097-1.077-1.087c-0.451,0-0.911,0.127-1.244,0.353l-0.196-0.578c0.392-0.245,0.97-0.412,1.567-0.412
		c1.45,0,1.803,0.989,1.803,1.93V140.555z M507.722,139.272c-0.94-0.02-2.008,0.147-2.008,1.067c0,0.568,0.372,0.823,0.804,0.823
		c0.627,0,1.027-0.392,1.165-0.793c0.029-0.098,0.039-0.196,0.039-0.274V139.272z"/>
</g>
<g>
	<path fill="#010101" d="M467.26,70.704c0.588-0.098,1.359-0.182,2.34-0.182c1.204,0,2.087,0.28,2.646,0.785
		c0.505,0.448,0.827,1.134,0.827,1.975c0,0.854-0.253,1.527-0.729,2.017c-0.658,0.686-1.694,1.036-2.886,1.036
		c-0.364,0-0.7-0.014-0.98-0.084v3.782h-1.219V70.704z M468.479,75.257c0.266,0.07,0.603,0.098,1.009,0.098
		c1.471,0,2.367-0.728,2.367-2.003c0-1.261-0.896-1.863-2.228-1.863c-0.532,0-0.938,0.042-1.148,0.098V75.257z"/>
	<path fill="#010101" d="M474.358,77.74h0.862v6.955h-0.862V77.74z"/>
	<path fill="#010101" d="M480.002,83.559c0,0.411,0.02,0.813,0.068,1.136h-0.774l-0.068-0.598h-0.029
		c-0.265,0.373-0.774,0.706-1.45,0.706c-0.96,0-1.449-0.676-1.449-1.362c0-1.146,1.019-1.773,2.85-1.763V81.58
		c0-0.382-0.107-1.097-1.077-1.087c-0.45,0-0.911,0.127-1.243,0.353l-0.197-0.578c0.393-0.245,0.971-0.412,1.568-0.412
		c1.449,0,1.803,0.989,1.803,1.93V83.559z M479.169,82.276c-0.94-0.02-2.009,0.147-2.009,1.067c0,0.568,0.373,0.823,0.804,0.823
		c0.627,0,1.028-0.392,1.165-0.793c0.029-0.098,0.04-0.196,0.04-0.274V82.276z"/>
</g>
<g>
	<path fill="#010101" d="M490.627,237.178c-1.274-0.336-2.521-0.715-3.613-1.093c-0.211-0.069-0.393-0.14-0.574-0.14
		c-2.256-0.084-4.16-1.737-4.16-4.791c0-3.025,1.834-4.973,4.384-4.973c2.577,0,4.244,1.989,4.244,4.777
		c0,2.437-1.12,3.978-2.689,4.538v0.056c0.938,0.238,1.961,0.463,2.76,0.603L490.627,237.178z M489.619,231.028
		c0-1.905-0.98-3.853-2.984-3.853c-2.059,0-3.067,1.906-3.067,3.951c0,2.017,1.093,3.824,3.025,3.824
		S489.619,233.172,489.619,231.028z"/>
	<path fill="#010101" d="M492.469,235.712l0.931,2.655c0.157,0.44,0.284,0.832,0.382,1.224h0.029
		c0.107-0.392,0.245-0.783,0.402-1.224l0.92-2.655h0.901l-1.86,4.741h-0.824l-1.802-4.741H492.469z"/>
</g>
<g>
	<path fill="#010101" d="M486.883,272.238c0.616-0.113,1.513-0.197,2.34-0.197c1.303,0,2.156,0.253,2.73,0.771
		c0.463,0.42,0.743,1.064,0.743,1.807c0,1.232-0.784,2.059-1.765,2.395v0.043c0.714,0.252,1.148,0.924,1.372,1.904
		c0.308,1.316,0.532,2.228,0.729,2.592h-1.261c-0.154-0.28-0.364-1.078-0.616-2.256c-0.28-1.303-0.798-1.793-1.905-1.834h-1.148
		v4.09h-1.219V272.238z M488.102,276.538h1.246c1.303,0,2.13-0.714,2.13-1.793c0-1.219-0.883-1.751-2.171-1.751
		c-0.589,0-0.995,0.042-1.205,0.098V276.538z"/>
	<path fill="#010101" d="M494.398,281.474l0.931,2.655c0.157,0.44,0.284,0.832,0.382,1.224h0.029
		c0.107-0.392,0.245-0.783,0.402-1.224l0.92-2.655h0.901l-1.86,4.741h-0.824l-1.802-4.741H494.398z"/>
</g>
<g>
	<path fill="#010101" d="M333.281,234.624c0.588-0.099,1.359-0.183,2.339-0.183c1.205,0,2.087,0.281,2.647,0.785
		c0.504,0.448,0.826,1.135,0.826,1.975c0,0.855-0.252,1.527-0.729,2.018c-0.658,0.686-1.694,1.036-2.885,1.036
		c-0.364,0-0.7-0.014-0.98-0.084v3.782h-1.219V234.624z M334.5,239.177c0.266,0.069,0.603,0.098,1.009,0.098
		c1.471,0,2.367-0.728,2.367-2.003c0-1.261-0.896-1.863-2.228-1.863c-0.532,0-0.938,0.043-1.148,0.098V239.177z"/>
	<path fill="#010101" d="M340.713,243.874l0.93,2.655c0.157,0.44,0.284,0.832,0.383,1.224h0.029
		c0.107-0.392,0.244-0.783,0.401-1.224l0.921-2.655h0.9l-1.86,4.741h-0.823l-1.803-4.741H340.713z"/>
</g>
<g>
	<path fill="#010101" d="M363.528,297.39c-0.435,0.224-1.345,0.448-2.493,0.448c-2.662,0-4.65-1.682-4.65-4.791
		c0-2.969,2.003-4.959,4.931-4.959c1.163,0,1.919,0.252,2.241,0.421l-0.309,0.994c-0.447-0.224-1.106-0.392-1.891-0.392
		c-2.213,0-3.684,1.414-3.684,3.894c0,2.325,1.33,3.796,3.613,3.796c0.756,0,1.514-0.154,2.004-0.393L363.528,297.39z"/>
	<path fill="#010101" d="M365.049,297.604l0.93,2.655c0.157,0.44,0.284,0.832,0.383,1.224h0.029
		c0.107-0.392,0.244-0.783,0.401-1.224l0.921-2.655h0.9l-1.86,4.741h-0.823l-1.803-4.741H365.049z"/>
</g>
<rect x="156.794" y="239.858" fill="#FFFFFF" stroke="#231F20" width="89.5" height="21"/>
<g>
	<path fill="#010101" d="M203.357,268.545c0.616-0.113,1.513-0.197,2.339-0.197c1.303,0,2.157,0.253,2.731,0.771
		c0.462,0.42,0.743,1.064,0.743,1.807c0,1.232-0.785,2.059-1.765,2.395v0.043c0.714,0.252,1.148,0.924,1.373,1.904
		c0.308,1.316,0.532,2.228,0.729,2.592h-1.261c-0.154-0.28-0.364-1.078-0.616-2.256c-0.28-1.303-0.798-1.793-1.905-1.834h-1.148
		v4.09h-1.219V268.545z M204.576,272.845h1.247c1.303,0,2.129-0.714,2.129-1.793c0-1.219-0.883-1.751-2.171-1.751
		c-0.588,0-0.995,0.042-1.205,0.098V272.845z"/>
	<path fill="#010101" d="M213.919,282.355c-0.225,0.107-0.725,0.273-1.362,0.273c-1.43,0-2.361-0.97-2.361-2.42
		c0-1.459,1-2.527,2.547-2.527c0.509,0,0.96,0.128,1.195,0.256l-0.196,0.656c-0.206-0.108-0.529-0.226-0.999-0.226
		c-1.087,0-1.675,0.813-1.675,1.792c0,1.098,0.705,1.773,1.646,1.773c0.49,0,0.813-0.117,1.058-0.225L213.919,282.355z"/>
</g>
</svg>
