<?xml version="1.0" encoding="utf-8"?>
<!-- Generator: Adobe Illustrator 13.0.0, SVG Export Plug-In . SVG Version: 6.00 Build 14948)  -->
<!DOCTYPE svg PUBLIC "-//W3C//DTD SVG 1.1//EN" "http://www.w3.org/Graphics/SVG/1.1/DTD/svg11.dtd">
<svg version="1.1" id="Layer_1" xmlns="http://www.w3.org/2000/svg" xmlns:xlink="http://www.w3.org/1999/xlink" x="0px" y="0px"
	 width="738px" height="256px" viewBox="0 0 738 256" enable-background="new 0 0 738 256" xml:space="preserve">
<g>
	<g>
		<line fill="none" stroke="#000000" x1="585.904" y1="53.98" x2="585.941" y2="86.018"/>
		<polygon points="582.234,83.213 585.939,84.782 589.642,83.205 585.948,91.987 		"/>
	</g>
</g>
<g>
	
		<radialGradient id="path16609_1_" cx="459.5352" cy="-514.0762" r="23.1435" gradientTransform="matrix(1.5933 0 0 0.6358 -146.0954 366.1447)" gradientUnits="userSpaceOnUse">
		<stop  offset="0" style="stop-color:#A2FF5F"/>
		<stop  offset="0.4082" style="stop-color:#A0FF5F"/>
		<stop  offset="0.5552" style="stop-color:#99FD5F"/>
		<stop  offset="0.66" style="stop-color:#8EFB5E"/>
		<stop  offset="0.7448" style="stop-color:#7DF85E"/>
		<stop  offset="0.8174" style="stop-color:#67F35D"/>
		<stop  offset="0.8817" style="stop-color:#4BEE5C"/>
		<stop  offset="0.9398" style="stop-color:#2BE85B"/>
		<stop  offset="0.9915" style="stop-color:#07E05A"/>
		<stop  offset="1" style="stop-color:#00DF5A"/>
	</radialGradient>
	<path id="path16609_12_" fill="url(#path16609_1_)" stroke="#000000" d="M622.279,39.293c0,8.273-16.212,14.981-36.198,14.981
		c-19.992,0-36.198-6.705-36.198-14.981s16.206-14.979,36.198-14.979C606.067,24.316,622.279,31.019,622.279,39.293z"/>
	<g>
		<path d="M574.846,36.23v-6.736h0.959l2.148,3.408c0.49,0.79,0.89,1.489,1.199,2.189l0.03-0.01
			c-0.08-0.899-0.101-1.719-0.101-2.758v-2.829h0.82v6.736h-0.879l-2.14-3.418c-0.47-0.75-0.919-1.52-1.249-2.249l-0.03,0.01
			c0.05,0.85,0.06,1.659,0.06,2.778v2.878H574.846z"/>
		<path d="M584.054,36.34c-1.789,0-3.028-1.379-3.028-3.418c0-2.139,1.319-3.538,3.118-3.538c1.849,0,3.038,1.409,3.038,3.408
			c0,2.309-1.408,3.548-3.118,3.548H584.054z M584.094,35.63c1.379,0,2.158-1.27,2.158-2.798c0-1.339-0.699-2.739-2.148-2.739
			s-2.168,1.349-2.168,2.809c0,1.419,0.779,2.729,2.148,2.729H584.094z"/>
		<path d="M589.185,29.494v2.818h3.259v-2.818h0.879v6.736h-0.879v-3.158h-3.259v3.158h-0.88v-6.736H589.185z"/>
		<path d="M595.925,34.111l-0.7,2.119h-0.898l2.288-6.736h1.05l2.299,6.736h-0.93l-0.72-2.119H595.925z M598.133,33.432
			l-0.669-1.939c-0.14-0.44-0.239-0.84-0.34-1.229h-0.03c-0.09,0.39-0.199,0.81-0.33,1.219l-0.659,1.949H598.133z"/>
		<path d="M579.075,41.494h3.628v0.729h-2.748v2.239h2.538v0.72h-2.538v3.048h-0.88V41.494z"/>
		<path d="M584.105,45.961c0.02,1.189,0.77,1.679,1.648,1.679c0.631,0,1.02-0.11,1.34-0.24l0.16,0.62
			c-0.311,0.14-0.85,0.31-1.619,0.31c-1.479,0-2.379-0.99-2.379-2.439c0-1.469,0.869-2.619,2.279-2.619
			c1.578,0,1.988,1.39,1.988,2.279c0,0.18-0.01,0.32-0.029,0.42L584.105,45.961z M586.674,45.332c0.01-0.55-0.23-1.429-1.209-1.429
			c-0.9,0-1.279,0.819-1.35,1.429H586.674z"/>
		<path d="M588.348,44.2c0.174,0.105,0.574,0.28,1.008,0.28c0.785,0,1.037-0.497,1.029-0.882c-0.007-0.637-0.581-0.911-1.176-0.911
			h-0.344v-0.462h0.344c0.447,0,1.016-0.231,1.016-0.771c0-0.364-0.232-0.687-0.799-0.687c-0.364,0-0.715,0.161-0.91,0.301
			l-0.168-0.448c0.244-0.175,0.707-0.35,1.197-0.35c0.896,0,1.303,0.532,1.303,1.085c0,0.476-0.287,0.875-0.841,1.079v0.014
			c0.561,0.105,1.016,0.525,1.016,1.163c0,0.729-0.574,1.366-1.659,1.366c-0.512,0-0.961-0.161-1.185-0.308L588.348,44.2z"/>
		<path d="M593.787,41.174v1.646h1.582v0.42h-1.582v1.66h-0.449v-1.66h-1.582v-0.42h1.582v-1.646H593.787z"/>
	</g>
</g>
<g>
	
		<radialGradient id="path16609_14_" cx="116.5713" cy="-513.1318" r="16.1858" gradientTransform="matrix(1.5933 0 0 0.6358 -146.0954 366.1447)" gradientUnits="userSpaceOnUse">
		<stop  offset="0" style="stop-color:#A2FF5F"/>
		<stop  offset="0.4082" style="stop-color:#A0FF5F"/>
		<stop  offset="0.5552" style="stop-color:#99FD5F"/>
		<stop  offset="0.66" style="stop-color:#8EFB5E"/>
		<stop  offset="0.7448" style="stop-color:#7DF85E"/>
		<stop  offset="0.8174" style="stop-color:#67F35D"/>
		<stop  offset="0.8817" style="stop-color:#4BEE5C"/>
		<stop  offset="0.9398" style="stop-color:#2BE85B"/>
		<stop  offset="0.9915" style="stop-color:#07E05A"/>
		<stop  offset="1" style="stop-color:#00DF5A"/>
	</radialGradient>
	<path id="path16609_10_" fill="url(#path16609_14_)" stroke="#000000" d="M64.953,39.895c0,5.786-11.338,10.478-25.315,10.478
		c-13.981,0-25.315-4.689-25.315-10.478s11.333-10.476,25.315-10.476C53.615,29.42,64.953,34.107,64.953,39.895z"/>
	<g>
		<path d="M34.052,40.712l-0.7,2.119h-0.899l2.289-6.736h1.049l2.299,6.736h-0.929l-0.72-2.119H34.052z M36.261,40.032l-0.669-1.939
			c-0.14-0.44-0.24-0.84-0.34-1.229h-0.03c-0.09,0.39-0.2,0.81-0.33,1.219l-0.66,1.949H36.261z"/>
		<path d="M39.033,39.502c0-0.57-0.01-1.06-0.04-1.509h0.77l0.04,0.95h0.03c0.22-0.65,0.76-1.06,1.349-1.06
			c0.09,0,0.16,0.01,0.24,0.03v0.82c-0.1-0.01-0.19-0.02-0.31-0.02c-0.62,0-1.06,0.47-1.179,1.119c-0.02,0.13-0.03,0.27-0.03,0.42
			v2.579h-0.879L39.033,39.502z"/>
		<path d="M46.351,42.121c0,1.119-0.23,1.789-0.689,2.219c-0.48,0.43-1.159,0.58-1.769,0.58c-0.58,0-1.219-0.14-1.609-0.4l0.22-0.68
			c0.32,0.21,0.819,0.39,1.419,0.39c0.9,0,1.559-0.47,1.559-1.699v-0.53h-0.02c-0.26,0.45-0.79,0.81-1.54,0.81
			c-1.199,0-2.059-1.02-2.059-2.369c0-1.639,1.069-2.559,2.188-2.559c0.84,0,1.29,0.43,1.509,0.83h0.02l0.03-0.72h0.779
			c-0.03,0.34-0.04,0.729-0.04,1.319V42.121z M45.471,39.892c0-0.14-0.01-0.27-0.05-0.39c-0.16-0.52-0.58-0.939-1.229-0.939
			c-0.839,0-1.439,0.709-1.439,1.839c0,0.939,0.49,1.739,1.429,1.739c0.549,0,1.039-0.34,1.219-0.91c0.05-0.14,0.07-0.31,0.07-0.47
			V39.892z"/>
	</g>
</g>
<g>
	
		<radialGradient id="path16609_15_" cx="209.7461" cy="-514.0767" r="23.1442" gradientTransform="matrix(1.5933 0 0 0.6358 -146.0954 366.1447)" gradientUnits="userSpaceOnUse">
		<stop  offset="0" style="stop-color:#A2FF5F"/>
		<stop  offset="0.4082" style="stop-color:#A0FF5F"/>
		<stop  offset="0.5552" style="stop-color:#99FD5F"/>
		<stop  offset="0.66" style="stop-color:#8EFB5E"/>
		<stop  offset="0.7448" style="stop-color:#7DF85E"/>
		<stop  offset="0.8174" style="stop-color:#67F35D"/>
		<stop  offset="0.8817" style="stop-color:#4BEE5C"/>
		<stop  offset="0.9398" style="stop-color:#2BE85B"/>
		<stop  offset="0.9915" style="stop-color:#07E05A"/>
		<stop  offset="1" style="stop-color:#00DF5A"/>
	</radialGradient>
	<path id="path16609_3_" fill="url(#path16609_15_)" stroke="#000000" d="M224.292,39.294c0,8.273-16.212,14.981-36.198,14.981
		c-19.992,0-36.198-6.706-36.198-14.981c0-8.276,16.207-14.979,36.198-14.979C208.08,24.316,224.292,31.019,224.292,39.294z"/>
	<g>
		<path d="M181.93,34.111l-0.7,2.119h-0.899l2.289-6.736h1.049l2.299,6.736h-0.929l-0.72-2.119H181.93z M184.138,33.432
			l-0.669-1.939c-0.14-0.44-0.24-0.84-0.34-1.229h-0.03c-0.09,0.39-0.2,0.81-0.33,1.219l-0.66,1.949H184.138z"/>
		<path d="M186.911,32.902c0-0.57-0.01-1.06-0.04-1.509h0.77l0.04,0.95h0.03c0.22-0.65,0.76-1.06,1.349-1.06
			c0.09,0,0.16,0.01,0.24,0.03v0.82c-0.1-0.01-0.19-0.02-0.31-0.02c-0.62,0-1.06,0.47-1.179,1.119c-0.02,0.13-0.03,0.27-0.03,0.42
			v2.579H186.9L186.911,32.902z"/>
		<path d="M194.228,35.521c0,1.119-0.23,1.789-0.689,2.219c-0.48,0.43-1.159,0.58-1.769,0.58c-0.58,0-1.219-0.14-1.609-0.4
			l0.22-0.68c0.32,0.21,0.819,0.39,1.419,0.39c0.9,0,1.559-0.47,1.559-1.699V35.4h-0.02c-0.26,0.45-0.79,0.81-1.54,0.81
			c-1.199,0-2.059-1.02-2.059-2.369c0-1.639,1.069-2.559,2.188-2.559c0.84,0,1.29,0.43,1.509,0.83h0.02l0.03-0.72h0.779
			c-0.03,0.34-0.04,0.729-0.04,1.319V35.521z M193.349,33.292c0-0.14-0.01-0.27-0.05-0.39c-0.16-0.52-0.58-0.939-1.229-0.939
			c-0.839,0-1.439,0.709-1.439,1.839c0,0.939,0.49,1.739,1.429,1.739c0.549,0,1.039-0.34,1.219-0.91c0.05-0.14,0.07-0.31,0.07-0.47
			V33.292z"/>
		<path d="M180.83,41.494h3.628v0.729h-2.749v2.239h2.539v0.72h-2.539v3.048h-0.879V41.494z"/>
		<path d="M185.86,45.961c0.02,1.189,0.77,1.679,1.649,1.679c0.63,0,1.02-0.11,1.339-0.24l0.16,0.62
			c-0.31,0.14-0.85,0.31-1.619,0.31c-1.479,0-2.378-0.99-2.378-2.439c0-1.469,0.87-2.619,2.279-2.619
			c1.579,0,1.989,1.39,1.989,2.279c0,0.18-0.01,0.32-0.03,0.42L185.86,45.961z M188.429,45.332c0.01-0.55-0.23-1.429-1.209-1.429
			c-0.899,0-1.279,0.819-1.349,1.429H188.429z"/>
		<path d="M190.103,44.2c0.175,0.105,0.574,0.28,1.008,0.28c0.785,0,1.037-0.497,1.03-0.882c-0.007-0.637-0.582-0.911-1.177-0.911
			h-0.343v-0.462h0.343c0.448,0,1.016-0.231,1.016-0.771c0-0.364-0.231-0.687-0.798-0.687c-0.364,0-0.714,0.161-0.911,0.301
			l-0.168-0.448c0.245-0.175,0.707-0.35,1.197-0.35c0.896,0,1.303,0.532,1.303,1.085c0,0.476-0.287,0.875-0.84,1.079v0.014
			c0.561,0.105,1.016,0.525,1.016,1.163c0,0.729-0.574,1.366-1.66,1.366c-0.512,0-0.96-0.161-1.184-0.308L190.103,44.2z"/>
		<path d="M195.542,41.174v1.646h1.583v0.42h-1.583v1.66h-0.448v-1.66h-1.583v-0.42h1.583v-1.646H195.542z"/>
	</g>
</g>
<g>
	
		<radialGradient id="path16609_16_" cx="253.3516" cy="-383.8091" r="16.186" gradientTransform="matrix(1.5933 0 0 0.6358 -146.0954 366.1447)" gradientUnits="userSpaceOnUse">
		<stop  offset="0" style="stop-color:#A2FF5F"/>
		<stop  offset="0.4082" style="stop-color:#A0FF5F"/>
		<stop  offset="0.5552" style="stop-color:#99FD5F"/>
		<stop  offset="0.66" style="stop-color:#8EFB5E"/>
		<stop  offset="0.7448" style="stop-color:#7DF85E"/>
		<stop  offset="0.8174" style="stop-color:#67F35D"/>
		<stop  offset="0.8817" style="stop-color:#4BEE5C"/>
		<stop  offset="0.9398" style="stop-color:#2BE85B"/>
		<stop  offset="0.9915" style="stop-color:#07E05A"/>
		<stop  offset="1" style="stop-color:#00DF5A"/>
	</radialGradient>
	<path id="path16609_8_" fill="url(#path16609_16_)" stroke="#000000" d="M282.885,122.117c0,5.787-11.338,10.479-25.315,10.479
		c-13.981,0-25.315-4.689-25.315-10.479c0-5.787,11.333-10.475,25.315-10.475C271.547,111.643,282.885,116.33,282.885,122.117z"/>
	<g>
		<path d="M251.984,122.936l-0.7,2.119h-0.899l2.289-6.736h1.049l2.299,6.736h-0.929l-0.72-2.119H251.984z M254.193,122.256
			l-0.669-1.939c-0.14-0.439-0.24-0.84-0.34-1.229h-0.03c-0.09,0.389-0.2,0.809-0.33,1.219l-0.66,1.949H254.193z"/>
		<path d="M256.965,121.727c0-0.57-0.01-1.061-0.04-1.51h0.77l0.04,0.949h0.03c0.22-0.649,0.76-1.059,1.349-1.059
			c0.09,0,0.16,0.01,0.24,0.029v0.82c-0.1-0.011-0.19-0.021-0.31-0.021c-0.62,0-1.06,0.47-1.179,1.119
			c-0.02,0.13-0.03,0.271-0.03,0.42v2.579h-0.879L256.965,121.727z"/>
		<path d="M264.283,124.345c0,1.119-0.23,1.789-0.689,2.219c-0.48,0.43-1.159,0.579-1.769,0.579c-0.58,0-1.219-0.14-1.609-0.399
			l0.22-0.68c0.32,0.21,0.819,0.39,1.419,0.39c0.9,0,1.559-0.469,1.559-1.699v-0.529h-0.02c-0.26,0.449-0.79,0.81-1.54,0.81
			c-1.199,0-2.059-1.02-2.059-2.368c0-1.64,1.069-2.559,2.188-2.559c0.84,0,1.29,0.43,1.509,0.829h0.02l0.03-0.72h0.779
			c-0.03,0.34-0.04,0.729-0.04,1.319V124.345z M263.403,122.115c0-0.139-0.01-0.27-0.05-0.389c-0.16-0.52-0.58-0.939-1.229-0.939
			c-0.839,0-1.439,0.709-1.439,1.838c0,0.939,0.49,1.74,1.429,1.74c0.549,0,1.039-0.34,1.219-0.91c0.05-0.141,0.07-0.311,0.07-0.47
			V122.115z"/>
	</g>
</g>
<g>
	<path d="M511.226,18.094v2.818h2.71v0.72h-2.71v2.842h-0.768v-2.842h-2.711v-0.72h2.711v-2.818H511.226z"/>
</g>
<g>
	
		<radialGradient id="path16609_17_" cx="377.1572" cy="-213.5" r="19.7328" gradientTransform="matrix(1.5933 0 0 0.6358 -146.0954 366.1447)" gradientUnits="userSpaceOnUse">
		<stop  offset="0" style="stop-color:#A2FF5F"/>
		<stop  offset="0.4082" style="stop-color:#A0FF5F"/>
		<stop  offset="0.5552" style="stop-color:#99FD5F"/>
		<stop  offset="0.66" style="stop-color:#8EFB5E"/>
		<stop  offset="0.7448" style="stop-color:#7DF85E"/>
		<stop  offset="0.8174" style="stop-color:#67F35D"/>
		<stop  offset="0.8817" style="stop-color:#4BEE5C"/>
		<stop  offset="0.9398" style="stop-color:#2BE85B"/>
		<stop  offset="0.9915" style="stop-color:#07E05A"/>
		<stop  offset="1" style="stop-color:#00DF5A"/>
	</radialGradient>
	<path id="path16609_11_" fill="url(#path16609_17_)" stroke="#000000" d="M485.691,230.401c0,7.053-13.822,12.772-30.863,12.772
		c-17.045,0-30.862-5.718-30.862-12.772c0-7.058,13.817-12.772,30.862-12.772C471.869,217.632,485.691,223.347,485.691,230.401z"/>
	<g>
		<path d="M441.405,233.127c-0.31,0.16-0.96,0.32-1.779,0.32c-1.898,0-3.318-1.2-3.318-3.419c0-2.118,1.43-3.538,3.519-3.538
			c0.829,0,1.369,0.181,1.599,0.3l-0.22,0.71c-0.319-0.16-0.789-0.279-1.349-0.279c-1.579,0-2.629,1.009-2.629,2.778
			c0,1.659,0.949,2.708,2.578,2.708c0.54,0,1.08-0.109,1.43-0.279L441.405,233.127z"/>
		<path d="M442.867,227.61c-0.33,0-0.55-0.26-0.55-0.57c0-0.31,0.229-0.56,0.569-0.56s0.561,0.25,0.561,0.56
			c0,0.311-0.221,0.57-0.57,0.57H442.867z M442.447,233.337V228.5h0.88v4.837H442.447z"/>
		<path d="M445.847,227.34v1.16h1.259v0.669h-1.259v2.608c0,0.601,0.17,0.939,0.659,0.939c0.24,0,0.38-0.02,0.51-0.06l0.04,0.67
			c-0.17,0.06-0.439,0.12-0.779,0.12c-0.41,0-0.739-0.141-0.949-0.37c-0.24-0.27-0.34-0.699-0.34-1.27v-2.639h-0.75V228.5h0.75
			v-0.89L445.847,227.34z"/>
		<path d="M448.106,230.009c0-0.569-0.01-1.06-0.04-1.509h0.77l0.04,0.949h0.03c0.22-0.649,0.76-1.06,1.35-1.06
			c0.09,0,0.159,0.01,0.239,0.03v0.819c-0.1-0.01-0.189-0.021-0.31-0.021c-0.619,0-1.06,0.47-1.18,1.12
			c-0.02,0.13-0.029,0.27-0.029,0.42v2.578h-0.88L448.106,230.009z"/>
		<path d="M455.395,232.018c0,0.5,0.01,0.939,0.04,1.319h-0.779l-0.05-0.79h-0.021c-0.22,0.391-0.739,0.9-1.599,0.9
			c-0.76,0-1.67-0.431-1.67-2.119V228.5h0.88v2.668c0,0.92,0.29,1.549,1.079,1.549c0.59,0,1-0.409,1.16-0.81
			c0.05-0.119,0.079-0.279,0.079-0.449V228.5h0.88V232.018z"/>
		<path d="M456.856,226.241h0.88v7.096h-0.88V226.241z"/>
		<path d="M459.196,226.241h0.88v7.096h-0.88V226.241z"/>
		<path d="M461.956,227.61c-0.33,0-0.55-0.26-0.55-0.57c0-0.31,0.229-0.56,0.569-0.56s0.561,0.25,0.561,0.56
			c0,0.311-0.221,0.57-0.57,0.57H461.956z M461.536,233.337V228.5h0.88v4.837H461.536z"/>
		<path d="M463.876,229.809c0-0.51-0.01-0.909-0.04-1.309h0.779l0.051,0.789h0.02c0.24-0.449,0.8-0.899,1.6-0.899
			c0.669,0,1.709,0.399,1.709,2.059v2.889h-0.88v-2.788c0-0.78-0.29-1.439-1.119-1.439c-0.57,0-1.02,0.409-1.18,0.899
			c-0.04,0.11-0.06,0.27-0.06,0.41v2.918h-0.88V229.809z"/>
		<path d="M469.926,231.068c0.02,1.189,0.77,1.679,1.649,1.679c0.629,0,1.019-0.109,1.339-0.239l0.16,0.619
			c-0.311,0.14-0.85,0.31-1.619,0.31c-1.479,0-2.379-0.989-2.379-2.438c0-1.469,0.869-2.618,2.278-2.618
			c1.579,0,1.989,1.389,1.989,2.278c0,0.18-0.01,0.32-0.03,0.42L469.926,231.068z M472.494,230.438
			c0.01-0.55-0.229-1.429-1.209-1.429c-0.899,0-1.279,0.819-1.35,1.429H472.494z"/>
	</g>
</g>
<g>
	<radialGradient id="SVGID_1_" cx="510.293" cy="229.8281" r="9.3335" gradientUnits="userSpaceOnUse">
		<stop  offset="0" style="stop-color:#FFFCDF"/>
		<stop  offset="0.1203" style="stop-color:#FFFBDA"/>
		<stop  offset="0.2662" style="stop-color:#FFF9CB"/>
		<stop  offset="0.4255" style="stop-color:#FFF6B2"/>
		<stop  offset="0.5943" style="stop-color:#FFF090"/>
		<stop  offset="0.7706" style="stop-color:#FFEA64"/>
		<stop  offset="0.9506" style="stop-color:#FFE22F"/>
		<stop  offset="1" style="stop-color:#FFE01F"/>
	</radialGradient>
	<circle fill="url(#SVGID_1_)" stroke="#000000" cx="510.293" cy="229.829" r="9.333"/>
	<g>
		<radialGradient id="SVGID_2_" cx="506.5215" cy="229.1621" r="2.1397" gradientUnits="userSpaceOnUse">
			<stop  offset="0" style="stop-color:#FFFCDF"/>
			<stop  offset="0.1203" style="stop-color:#FFFBDA"/>
			<stop  offset="0.2662" style="stop-color:#FFF9CB"/>
			<stop  offset="0.4255" style="stop-color:#FFF6B2"/>
			<stop  offset="0.5943" style="stop-color:#FFF090"/>
			<stop  offset="0.7706" style="stop-color:#FFEA64"/>
			<stop  offset="0.9506" style="stop-color:#FFE22F"/>
			<stop  offset="1" style="stop-color:#FFE01F"/>
		</radialGradient>
		<path fill="url(#SVGID_2_)" d="M505.348,226.734v2.031h2.348v-2.031h0.634v4.854h-0.634v-2.275h-2.348v2.275h-0.634v-4.854
			H505.348z"/>
		<radialGradient id="SVGID_3_" cx="510.1396" cy="232.3223" r="1.3894" gradientUnits="userSpaceOnUse">
			<stop  offset="0" style="stop-color:#FFFCDF"/>
			<stop  offset="0.1203" style="stop-color:#FFFBDA"/>
			<stop  offset="0.2662" style="stop-color:#FFF9CB"/>
			<stop  offset="0.4255" style="stop-color:#FFF6B2"/>
			<stop  offset="0.5943" style="stop-color:#FFF090"/>
			<stop  offset="0.7706" style="stop-color:#FFEA64"/>
			<stop  offset="0.9506" style="stop-color:#FFE22F"/>
			<stop  offset="1" style="stop-color:#FFE01F"/>
		</radialGradient>
		<path fill="url(#SVGID_3_)" d="M509.095,233.986v-0.271l0.348-0.338c0.836-0.796,1.219-1.219,1.219-1.712
			c0-0.332-0.156-0.64-0.645-0.64c-0.298,0-0.544,0.151-0.695,0.277l-0.141-0.313c0.222-0.187,0.549-0.332,0.926-0.332
			c0.7,0,0.997,0.483,0.997,0.951c0,0.604-0.438,1.093-1.128,1.758l-0.257,0.241v0.011h1.466v0.367H509.095z"/>
		<radialGradient id="SVGID_4_" cx="513.9307" cy="229.1621" r="2.3662" gradientUnits="userSpaceOnUse">
			<stop  offset="0" style="stop-color:#FFFCDF"/>
			<stop  offset="0.1203" style="stop-color:#FFFBDA"/>
			<stop  offset="0.2662" style="stop-color:#FFF9CB"/>
			<stop  offset="0.4255" style="stop-color:#FFF6B2"/>
			<stop  offset="0.5943" style="stop-color:#FFF090"/>
			<stop  offset="0.7706" style="stop-color:#FFEA64"/>
			<stop  offset="0.9506" style="stop-color:#FFE22F"/>
			<stop  offset="1" style="stop-color:#FFE01F"/>
		</radialGradient>
		<path fill="url(#SVGID_4_)" d="M513.895,231.668c-1.289,0-2.182-0.994-2.182-2.463c0-1.541,0.95-2.55,2.246-2.55
			c1.333,0,2.189,1.016,2.189,2.456c0,1.664-1.015,2.557-2.246,2.557H513.895z M513.924,231.157c0.993,0,1.556-0.915,1.556-2.018
			c0-0.965-0.505-1.973-1.549-1.973s-1.563,0.972-1.563,2.023c0,1.022,0.562,1.967,1.548,1.967H513.924z"/>
	</g>
</g>
<g>
	
		<radialGradient id="path16609_18_" cx="531.1035" cy="-378.3008" r="16.1853" gradientTransform="matrix(1.5933 0 0 0.6358 -146.0954 366.1447)" gradientUnits="userSpaceOnUse">
		<stop  offset="0" style="stop-color:#A2FF5F"/>
		<stop  offset="0.4082" style="stop-color:#A0FF5F"/>
		<stop  offset="0.5552" style="stop-color:#99FD5F"/>
		<stop  offset="0.66" style="stop-color:#8EFB5E"/>
		<stop  offset="0.7448" style="stop-color:#7DF85E"/>
		<stop  offset="0.8174" style="stop-color:#67F35D"/>
		<stop  offset="0.8817" style="stop-color:#4BEE5C"/>
		<stop  offset="0.9398" style="stop-color:#2BE85B"/>
		<stop  offset="0.9915" style="stop-color:#07E05A"/>
		<stop  offset="1" style="stop-color:#00DF5A"/>
	</radialGradient>
	<path id="path16609_5_" fill="url(#path16609_18_)" stroke="#000000" d="M725.426,125.619c0,5.787-11.338,10.479-25.314,10.479
		c-13.982,0-25.314-4.689-25.314-10.479c0-5.787,11.332-10.475,25.314-10.475C714.088,115.145,725.426,119.832,725.426,125.619z"/>
	<g>
		<path d="M687.816,128.557v-6.736h0.959l2.148,3.408c0.49,0.789,0.89,1.488,1.199,2.188l0.03-0.011
			c-0.08-0.898-0.101-1.719-0.101-2.758v-2.828h0.82v6.736h-0.879l-2.14-3.418c-0.47-0.75-0.919-1.52-1.249-2.25l-0.03,0.011
			c0.05,0.85,0.06,1.659,0.06,2.778v2.879H687.816z"/>
		<path d="M697.024,128.666c-1.789,0-3.028-1.379-3.028-3.418c0-2.139,1.319-3.538,3.118-3.538c1.849,0,3.038,1.409,3.038,3.408
			c0,2.309-1.408,3.548-3.118,3.548H697.024z M697.064,127.957c1.379,0,2.158-1.27,2.158-2.799c0-1.34-0.699-2.738-2.148-2.738
			s-2.168,1.349-2.168,2.809c0,1.418,0.779,2.729,2.148,2.729H697.064z"/>
		<path d="M702.155,121.82v2.818h3.259v-2.818h0.879v6.736h-0.879v-3.158h-3.259v3.158h-0.88v-6.736H702.155z"/>
		<path d="M708.896,126.438l-0.7,2.119h-0.898l2.288-6.736h1.05l2.299,6.736h-0.93l-0.72-2.119H708.896z M711.104,125.758
			l-0.669-1.939c-0.14-0.439-0.239-0.84-0.34-1.229h-0.03c-0.09,0.389-0.199,0.809-0.33,1.219l-0.659,1.949H711.104z"/>
	</g>
</g>
<g>
	<g>
		<line fill="none" stroke="#000000" x1="80.917" y1="113.336" x2="179.734" y2="113.33"/>
		<polygon points="176.925,117.034 178.498,113.33 176.925,109.626 185.703,113.33 		"/>
	</g>
</g>
<g>
	<g>
		<g>
			<line fill="none" stroke="#000000" x1="285.316" y1="42.518" x2="200.112" y2="102.843"/>
			<polygon points="200.264,98.197 201.121,102.129 204.544,104.243 195.241,106.292 			"/>
		</g>
	</g>
	<g>
		<g>
			<line fill="none" stroke="#000000" x1="201.837" y1="111.142" x2="286.193" y2="52.124"/>
			<polygon points="286.015,56.769 285.18,52.832 281.769,50.699 291.084,48.702 			"/>
		</g>
	</g>
</g>
<path fill="none" stroke="#000000" d="M189.489,55.976"/>
<path fill="none" stroke="#000000" d="M121.4,81.643"/>
<g>
	<g>
		<line fill="none" stroke="#000000" x1="224.654" y1="39.914" x2="278.399" y2="39.91"/>
		<polygon points="275.591,43.614 277.164,39.91 275.591,36.207 284.369,39.91 		"/>
	</g>
</g>
<g>
	<g>
		<g>
			<line fill="none" stroke="#000000" x1="419.732" y1="36.583" x2="362.905" y2="36.58"/>
			<polygon points="365.715,32.875 364.141,36.58 365.714,40.283 356.936,36.579 			"/>
		</g>
	</g>
	<g>
		<g>
			<line fill="none" stroke="#000000" x1="356.396" y1="43.25" x2="414.039" y2="43.246"/>
			<polygon points="411.23,46.95 412.803,43.246 411.23,39.542 420.008,43.245 			"/>
		</g>
	</g>
</g>
<g>
	<g>
		<line fill="none" stroke="#000000" x1="491.564" y1="39.914" x2="543.566" y2="39.911"/>
		<polygon points="540.758,43.615 542.331,39.911 540.758,36.207 549.536,39.91 		"/>
	</g>
</g>
<g>
	<g>
		<g>
			<line fill="none" stroke="#000000" x1="676.4" y1="104.335" x2="630.066" y2="104.332"/>
			<polygon points="632.875,100.628 631.303,104.332 632.875,108.036 624.098,104.332 			"/>
		</g>
	</g>
	<g>
		<g>
			<line fill="none" stroke="#000000" x1="627.401" y1="111.001" x2="674.4" y2="110.998"/>
			<polygon points="671.592,114.702 673.164,110.998 671.592,107.294 680.369,110.998 			"/>
		</g>
	</g>
</g>
<g>
	<g>
		<line fill="none" stroke="#000000" x1="589.824" y1="170.31" x2="589.9" y2="128.81"/>
		<polygon points="593.6,131.625 589.898,130.045 586.191,131.611 589.911,122.84 		"/>
	</g>
</g>
<g>
	<g>
		<line fill="none" stroke="#000000" x1="582.566" y1="122.81" x2="582.401" y2="164.476"/>
		<polygon points="578.708,161.652 582.406,163.24 586.116,161.682 582.378,170.444 		"/>
	</g>
</g>
<g>
	<g>
		<line fill="none" stroke="#000000" x1="456.148" y1="176.651" x2="456.152" y2="151.81"/>
		<polygon points="459.856,154.619 456.152,153.045 452.449,154.617 456.154,145.84 		"/>
	</g>
</g>
<g>
	<g>
		<line fill="none" stroke="#000000" x1="545.896" y1="188.003" x2="487.399" y2="188"/>
		<polygon points="490.208,184.296 488.635,188 490.208,191.704 481.43,188 		"/>
	</g>
</g>
<path id="path5901" sodipodi:nodetypes="cc" fill="none" stroke="#000000" d="M240.233,114.643
	c-2.706-22.811,14.958-40.875,14.958-40.875"/>
<path id="path5901_2_" sodipodi:nodetypes="cc" fill="none" stroke="#000000" d="M260.552,39.871
	c-14.498-0.691-19.141-13.473-19.141-13.473"/>
<path id="path5901_3_" sodipodi:nodetypes="cc" fill="none" stroke="#000000" d="M391.588,43.367
	c-14.498,0.693-19.15,13.307-19.15,13.307"/>
<path id="path5901_4_" sodipodi:nodetypes="cc" fill="none" stroke="#000000" d="M530.13,39.871
	c-14.498-0.637-19.146-12.306-19.146-12.306"/>
<g>
	<g>
		<line fill="none" stroke="#000000" x1="72.399" y1="39.912" x2="146.067" y2="39.912"/>
		<polygon points="143.259,43.616 144.832,39.912 143.259,36.208 152.037,39.912 		"/>
		<polygon points="75.208,36.208 73.635,39.912 75.208,43.615 66.43,39.912 		"/>
	</g>
</g>
<g>
	
		<radialGradient id="path16609_19_" cx="292.5928" cy="-514.0767" r="23.1442" gradientTransform="matrix(1.5933 0 0 0.6358 -146.0954 366.1447)" gradientUnits="userSpaceOnUse">
		<stop  offset="0" style="stop-color:#A2FF5F"/>
		<stop  offset="0.4082" style="stop-color:#A0FF5F"/>
		<stop  offset="0.5552" style="stop-color:#99FD5F"/>
		<stop  offset="0.66" style="stop-color:#8EFB5E"/>
		<stop  offset="0.7448" style="stop-color:#7DF85E"/>
		<stop  offset="0.8174" style="stop-color:#67F35D"/>
		<stop  offset="0.8817" style="stop-color:#4BEE5C"/>
		<stop  offset="0.9398" style="stop-color:#2BE85B"/>
		<stop  offset="0.9915" style="stop-color:#07E05A"/>
		<stop  offset="1" style="stop-color:#00DF5A"/>
	</radialGradient>
	<path id="path16609_6_" fill="url(#path16609_19_)" stroke="#000000" d="M356.291,39.294c0,8.273-16.211,14.981-36.198,14.981
		c-19.992,0-36.198-6.706-36.198-14.981c0-8.276,16.207-14.979,36.198-14.979C340.08,24.316,356.291,31.019,356.291,39.294z"/>
	<g>
		<path d="M313.93,34.111l-0.7,2.119h-0.899l2.289-6.736h1.049l2.299,6.736h-0.929l-0.72-2.119H313.93z M316.138,33.432
			l-0.669-1.939c-0.14-0.44-0.24-0.84-0.34-1.229h-0.03c-0.09,0.39-0.2,0.81-0.33,1.219l-0.66,1.949H316.138z"/>
		<path d="M318.911,32.902c0-0.57-0.01-1.06-0.04-1.509h0.77l0.04,0.95h0.03c0.22-0.65,0.76-1.06,1.349-1.06
			c0.09,0,0.16,0.01,0.24,0.03v0.82c-0.1-0.01-0.19-0.02-0.31-0.02c-0.62,0-1.06,0.47-1.179,1.119c-0.02,0.13-0.03,0.27-0.03,0.42
			v2.579H318.9L318.911,32.902z"/>
		<path d="M326.228,35.521c0,1.119-0.23,1.789-0.689,2.219c-0.48,0.43-1.159,0.58-1.769,0.58c-0.58,0-1.219-0.14-1.609-0.4
			l0.22-0.68c0.32,0.21,0.819,0.39,1.419,0.39c0.9,0,1.559-0.47,1.559-1.699V35.4h-0.02c-0.26,0.45-0.79,0.81-1.54,0.81
			c-1.199,0-2.059-1.02-2.059-2.369c0-1.639,1.069-2.559,2.188-2.559c0.84,0,1.29,0.43,1.509,0.83h0.02l0.03-0.72h0.779
			c-0.03,0.34-0.04,0.729-0.04,1.319V35.521z M325.349,33.292c0-0.14-0.01-0.27-0.05-0.39c-0.16-0.52-0.58-0.939-1.229-0.939
			c-0.839,0-1.439,0.709-1.439,1.839c0,0.939,0.49,1.739,1.429,1.739c0.549,0,1.039-0.34,1.219-0.91c0.05-0.14,0.07-0.31,0.07-0.47
			V33.292z"/>
		<path d="M312.83,41.494h3.628v0.729h-2.749v2.239h2.539v0.72h-2.539v3.048h-0.879V41.494z"/>
		<path d="M317.86,45.961c0.02,1.189,0.77,1.679,1.649,1.679c0.63,0,1.02-0.11,1.339-0.24l0.16,0.62
			c-0.31,0.14-0.85,0.31-1.619,0.31c-1.479,0-2.378-0.99-2.378-2.439c0-1.469,0.87-2.619,2.279-2.619
			c1.579,0,1.989,1.39,1.989,2.279c0,0.18-0.01,0.32-0.03,0.42L317.86,45.961z M320.429,45.332c0.01-0.55-0.23-1.429-1.209-1.429
			c-0.899,0-1.279,0.819-1.349,1.429H320.429z"/>
		<path d="M321.956,44.9v-0.378l0.483-0.469c1.163-1.106,1.695-1.695,1.695-2.381c0-0.462-0.217-0.89-0.896-0.89
			c-0.413,0-0.756,0.21-0.966,0.385l-0.196-0.435c0.308-0.259,0.764-0.462,1.289-0.462c0.973,0,1.387,0.672,1.387,1.324
			c0,0.84-0.609,1.52-1.569,2.444l-0.357,0.336v0.014h2.038V44.9H321.956z"/>
		<path d="M327.542,41.174v1.646h1.583v0.42h-1.583v1.66h-0.448v-1.66h-1.583v-0.42h1.583v-1.646H327.542z"/>
	</g>
</g>
<g>
	
		<radialGradient id="path16609_20_" cx="377.7842" cy="-514.0762" r="23.1435" gradientTransform="matrix(1.5933 0 0 0.6358 -146.0954 366.1447)" gradientUnits="userSpaceOnUse">
		<stop  offset="0" style="stop-color:#A2FF5F"/>
		<stop  offset="0.4082" style="stop-color:#A0FF5F"/>
		<stop  offset="0.5552" style="stop-color:#99FD5F"/>
		<stop  offset="0.66" style="stop-color:#8EFB5E"/>
		<stop  offset="0.7448" style="stop-color:#7DF85E"/>
		<stop  offset="0.8174" style="stop-color:#67F35D"/>
		<stop  offset="0.8817" style="stop-color:#4BEE5C"/>
		<stop  offset="0.9398" style="stop-color:#2BE85B"/>
		<stop  offset="0.9915" style="stop-color:#07E05A"/>
		<stop  offset="1" style="stop-color:#00DF5A"/>
	</radialGradient>
	<path id="path16609_9_" fill="url(#path16609_20_)" stroke="#000000" d="M492.026,39.293c0,8.273-16.212,14.981-36.198,14.981
		c-19.992,0-36.197-6.705-36.197-14.981s16.205-14.979,36.197-14.979C475.814,24.316,492.026,31.019,492.026,39.293z"/>
	<g>
		<path d="M449.572,34.111l-0.699,2.119h-0.9l2.289-6.736h1.049l2.299,6.736h-0.929l-0.72-2.119H449.572z M451.781,33.432
			l-0.67-1.939c-0.141-0.44-0.24-0.84-0.34-1.229h-0.029c-0.091,0.39-0.201,0.81-0.33,1.219l-0.66,1.949H451.781z"/>
		<path d="M454.553,32.902c0-0.57-0.01-1.06-0.039-1.509h0.77l0.039,0.95h0.03c0.22-0.65,0.76-1.06,1.349-1.06
			c0.091,0,0.16,0.01,0.24,0.03v0.82c-0.1-0.01-0.189-0.02-0.31-0.02c-0.62,0-1.06,0.47-1.179,1.119
			c-0.021,0.13-0.031,0.27-0.031,0.42v2.579h-0.879L454.553,32.902z"/>
		<path d="M461.871,35.521c0,1.119-0.23,1.789-0.689,2.219c-0.48,0.43-1.16,0.58-1.77,0.58c-0.58,0-1.219-0.14-1.609-0.4l0.221-0.68
			c0.319,0.21,0.818,0.39,1.418,0.39c0.9,0,1.56-0.47,1.56-1.699V35.4h-0.02c-0.261,0.45-0.79,0.81-1.54,0.81
			c-1.199,0-2.059-1.02-2.059-2.369c0-1.639,1.07-2.559,2.189-2.559c0.84,0,1.289,0.43,1.509,0.83h0.021l0.029-0.72h0.779
			c-0.029,0.34-0.039,0.729-0.039,1.319V35.521z M460.991,33.292c0-0.14-0.01-0.27-0.05-0.39c-0.16-0.52-0.58-0.939-1.229-0.939
			c-0.839,0-1.438,0.709-1.438,1.839c0,0.939,0.489,1.739,1.429,1.739c0.55,0,1.039-0.34,1.22-0.91
			c0.049-0.14,0.069-0.31,0.069-0.47V33.292z"/>
		<path d="M442.112,41.494h3.628v0.729h-2.748v2.239h2.538v0.72h-2.538v3.048h-0.88V41.494z"/>
		<path d="M447.143,45.961c0.02,1.189,0.77,1.679,1.648,1.679c0.631,0,1.02-0.11,1.34-0.24l0.16,0.62
			c-0.311,0.14-0.85,0.31-1.619,0.31c-1.479,0-2.379-0.99-2.379-2.439c0-1.469,0.869-2.619,2.279-2.619
			c1.578,0,1.988,1.39,1.988,2.279c0,0.18-0.01,0.32-0.029,0.42L447.143,45.961z M449.711,45.332c0.01-0.55-0.23-1.429-1.209-1.429
			c-0.9,0-1.279,0.819-1.35,1.429H449.711z"/>
		<path d="M451.385,44.2c0.176,0.105,0.574,0.28,1.009,0.28c0.784,0,1.036-0.497,1.03-0.882c-0.008-0.637-0.582-0.911-1.178-0.911
			h-0.343v-0.462h0.343c0.449,0,1.016-0.231,1.016-0.771c0-0.364-0.23-0.687-0.798-0.687c-0.364,0-0.714,0.161-0.911,0.301
			l-0.168-0.448c0.246-0.175,0.707-0.35,1.197-0.35c0.896,0,1.303,0.532,1.303,1.085c0,0.476-0.287,0.875-0.84,1.079v0.014
			c0.561,0.105,1.016,0.525,1.016,1.163c0,0.729-0.574,1.366-1.66,1.366c-0.512,0-0.959-0.161-1.184-0.308L451.385,44.2z"/>
		<path d="M456.824,41.174v1.646h1.584v0.42h-1.584v1.66h-0.447v-1.66h-1.583v-0.42h1.583v-1.646H456.824z"/>
		<path d="M463.558,48.34c-1.789,0-3.028-1.379-3.028-3.418c0-2.139,1.319-3.538,3.118-3.538c1.849,0,3.038,1.409,3.038,3.408
			c0,2.309-1.408,3.548-3.118,3.548H463.558z M463.598,47.63c1.379,0,2.158-1.27,2.158-2.798c0-1.339-0.699-2.739-2.148-2.739
			s-2.168,1.349-2.168,2.809c0,1.419,0.779,2.729,2.148,2.729H463.598z"/>
		<path d="M467.375,44.9v-0.378l0.482-0.469c1.163-1.106,1.695-1.695,1.695-2.381c0-0.462-0.217-0.89-0.896-0.89
			c-0.413,0-0.756,0.21-0.967,0.385l-0.195-0.435c0.308-0.259,0.764-0.462,1.289-0.462c0.973,0,1.387,0.672,1.387,1.324
			c0,0.84-0.609,1.52-1.569,2.444l-0.357,0.336v0.014h2.038V44.9H467.375z"/>
		<path d="M472.59,42.785v0.448h-1.729v-0.448H472.59z"/>
	</g>
</g>
<g>
	
		<radialGradient id="path16609_21_" cx="459.5352" cy="-407.2817" r="23.1435" gradientTransform="matrix(1.5933 0 0 0.6358 -146.0954 366.1447)" gradientUnits="userSpaceOnUse">
		<stop  offset="0" style="stop-color:#A2FF5F"/>
		<stop  offset="0.4082" style="stop-color:#A0FF5F"/>
		<stop  offset="0.5552" style="stop-color:#99FD5F"/>
		<stop  offset="0.66" style="stop-color:#8EFB5E"/>
		<stop  offset="0.7448" style="stop-color:#7DF85E"/>
		<stop  offset="0.8174" style="stop-color:#67F35D"/>
		<stop  offset="0.8817" style="stop-color:#4BEE5C"/>
		<stop  offset="0.9398" style="stop-color:#2BE85B"/>
		<stop  offset="0.9915" style="stop-color:#07E05A"/>
		<stop  offset="1" style="stop-color:#00DF5A"/>
	</radialGradient>
	<path id="path16609_2_" fill="url(#path16609_21_)" stroke="#000000" d="M622.279,107.194c0,8.273-16.212,14.981-36.198,14.981
		c-19.992,0-36.198-6.705-36.198-14.981c0-8.276,16.206-14.979,36.198-14.979C606.067,92.216,622.279,98.919,622.279,107.194z"/>
	<g>
		<path d="M574.846,104.13v-6.736h0.959l2.148,3.408c0.49,0.79,0.89,1.489,1.199,2.189l0.03-0.01
			c-0.08-0.899-0.101-1.719-0.101-2.758v-2.829h0.82v6.736h-0.879l-2.14-3.418c-0.47-0.75-0.919-1.52-1.249-2.249l-0.03,0.01
			c0.05,0.85,0.06,1.659,0.06,2.778v2.878H574.846z"/>
		<path d="M584.054,104.24c-1.789,0-3.028-1.379-3.028-3.418c0-2.139,1.319-3.538,3.118-3.538c1.849,0,3.038,1.409,3.038,3.408
			c0,2.309-1.408,3.548-3.118,3.548H584.054z M584.094,103.531c1.379,0,2.158-1.27,2.158-2.798c0-1.339-0.699-2.739-2.148-2.739
			s-2.168,1.349-2.168,2.809c0,1.419,0.779,2.729,2.148,2.729H584.094z"/>
		<path d="M589.185,97.394v2.818h3.259v-2.818h0.879v6.736h-0.879v-3.158h-3.259v3.158h-0.88v-6.736H589.185z"/>
		<path d="M595.925,102.012l-0.7,2.119h-0.898l2.288-6.736h1.05l2.299,6.736h-0.93l-0.72-2.119H595.925z M598.133,101.332
			l-0.669-1.939c-0.14-0.44-0.239-0.84-0.34-1.229h-0.03c-0.09,0.39-0.199,0.81-0.33,1.219l-0.659,1.949H598.133z"/>
		<path d="M579.075,109.394h3.628v0.729h-2.748v2.239h2.538v0.72h-2.538v3.049h-0.88V109.394z"/>
		<path d="M584.105,113.862c0.02,1.189,0.77,1.679,1.648,1.679c0.631,0,1.02-0.11,1.34-0.24l0.16,0.62
			c-0.311,0.14-0.85,0.31-1.619,0.31c-1.479,0-2.379-0.99-2.379-2.439c0-1.469,0.869-2.619,2.279-2.619
			c1.578,0,1.988,1.39,1.988,2.279c0,0.18-0.01,0.32-0.029,0.42L584.105,113.862z M586.674,113.232
			c0.01-0.55-0.23-1.429-1.209-1.429c-0.9,0-1.279,0.819-1.35,1.429H586.674z"/>
		<path d="M588.199,112.8v-0.378l0.484-0.469c1.162-1.106,1.694-1.695,1.694-2.381c0-0.462-0.217-0.89-0.896-0.89
			c-0.413,0-0.757,0.21-0.966,0.385l-0.197-0.435c0.309-0.259,0.764-0.462,1.289-0.462c0.974,0,1.387,0.672,1.387,1.324
			c0,0.84-0.609,1.52-1.568,2.444l-0.357,0.336v0.014h2.038v0.511H588.199z"/>
		<path d="M593.787,109.074v1.646h1.582v0.42h-1.582v1.66h-0.449v-1.66h-1.582v-0.42h1.582v-1.646H593.787z"/>
	</g>
</g>
<g>
	
		<radialGradient id="path16609_22_" cx="459.5352" cy="-281.0488" r="25.8341" gradientTransform="matrix(1.5933 0 0 0.6358 -146.0954 366.1447)" gradientUnits="userSpaceOnUse">
		<stop  offset="0" style="stop-color:#A2FF5F"/>
		<stop  offset="0.4082" style="stop-color:#A0FF5F"/>
		<stop  offset="0.5552" style="stop-color:#99FD5F"/>
		<stop  offset="0.66" style="stop-color:#8EFB5E"/>
		<stop  offset="0.7448" style="stop-color:#7DF85E"/>
		<stop  offset="0.8174" style="stop-color:#67F35D"/>
		<stop  offset="0.8817" style="stop-color:#4BEE5C"/>
		<stop  offset="0.9398" style="stop-color:#2BE85B"/>
		<stop  offset="0.9915" style="stop-color:#07E05A"/>
		<stop  offset="1" style="stop-color:#00DF5A"/>
	</radialGradient>
	<path id="path16609_4_" fill="url(#path16609_22_)" stroke="#000000" d="M626.487,187.453c0,9.235-18.096,16.723-40.406,16.723
		c-22.316,0-40.406-7.484-40.406-16.723c0-9.239,18.09-16.721,40.406-16.721C608.392,170.734,626.487,178.216,626.487,187.453z"/>
	<g>
		<path d="M573.436,184.389v-6.736h0.959l2.148,3.408c0.49,0.79,0.891,1.49,1.2,2.189l0.03-0.01c-0.08-0.9-0.101-1.72-0.101-2.759
			v-2.829h0.819v6.736h-0.879l-2.139-3.418c-0.471-0.749-0.92-1.52-1.25-2.248l-0.029,0.01c0.05,0.85,0.06,1.659,0.06,2.778v2.878
			H573.436z"/>
		<path d="M582.645,184.499c-1.789,0-3.029-1.38-3.029-3.418c0-2.139,1.32-3.538,3.119-3.538c1.849,0,3.038,1.409,3.038,3.408
			c0,2.309-1.409,3.548-3.118,3.548H582.645z M582.684,183.789c1.379,0,2.159-1.27,2.159-2.798c0-1.339-0.7-2.739-2.149-2.739
			s-2.168,1.35-2.168,2.809c0,1.42,0.779,2.729,2.148,2.729H582.684z"/>
		<path d="M587.775,177.652v2.818h3.258v-2.818h0.879v6.736h-0.879v-3.158h-3.258v3.158h-0.88v-6.736H587.775z"/>
		<path d="M594.516,182.271l-0.7,2.118h-0.899l2.289-6.736h1.049l2.299,6.736h-0.93l-0.719-2.118H594.516z M596.724,181.591
			l-0.669-1.938c-0.141-0.44-0.24-0.84-0.34-1.23h-0.03c-0.091,0.391-0.2,0.811-0.33,1.22l-0.659,1.949H596.724z"/>
		<path d="M573.426,189.652h3.627v0.73h-2.748v2.238h2.539v0.72h-2.539v3.048h-0.879V189.652z"/>
		<path d="M578.455,194.121c0.021,1.188,0.77,1.678,1.649,1.678c0.63,0,1.02-0.109,1.339-0.239l0.16,0.62
			c-0.31,0.14-0.85,0.31-1.619,0.31c-1.479,0-2.379-0.989-2.379-2.438c0-1.47,0.87-2.619,2.279-2.619
			c1.579,0,1.988,1.39,1.988,2.279c0,0.18-0.01,0.319-0.029,0.42L578.455,194.121z M581.023,193.49
			c0.011-0.549-0.229-1.429-1.209-1.429c-0.899,0-1.279,0.819-1.35,1.429H581.023z"/>
		<path d="M582.697,192.359c0.176,0.104,0.574,0.279,1.009,0.279c0.784,0,1.036-0.497,1.03-0.883
			c-0.008-0.637-0.582-0.91-1.178-0.91h-0.343v-0.462h0.343c0.449,0,1.016-0.231,1.016-0.771c0-0.364-0.23-0.687-0.798-0.687
			c-0.364,0-0.714,0.161-0.911,0.302l-0.168-0.449c0.246-0.175,0.707-0.35,1.197-0.35c0.896,0,1.303,0.532,1.303,1.086
			c0,0.476-0.287,0.875-0.84,1.078v0.014c0.561,0.105,1.016,0.525,1.016,1.163c0,0.729-0.574,1.366-1.66,1.366
			c-0.512,0-0.959-0.162-1.184-0.309L582.697,192.359z"/>
		<path d="M588.137,189.333v1.646h1.584v0.421h-1.584v1.659h-0.447v-1.659h-1.583v-0.421h1.583v-1.646H588.137z"/>
		<path d="M594.871,196.499c-1.789,0-3.029-1.38-3.029-3.418c0-2.139,1.32-3.538,3.119-3.538c1.849,0,3.038,1.409,3.038,3.408
			c0,2.309-1.409,3.548-3.118,3.548H594.871z M594.91,195.789c1.379,0,2.159-1.27,2.159-2.798c0-1.339-0.7-2.739-2.149-2.739
			s-2.168,1.35-2.168,2.809c0,1.42,0.779,2.729,2.148,2.729H594.91z"/>
		<path d="M598.688,193.059v-0.378l0.482-0.47c1.163-1.105,1.695-1.694,1.695-2.381c0-0.462-0.217-0.889-0.896-0.889
			c-0.413,0-0.756,0.209-0.967,0.385l-0.195-0.435c0.308-0.259,0.764-0.462,1.289-0.462c0.973,0,1.387,0.672,1.387,1.324
			c0,0.84-0.609,1.52-1.569,2.443l-0.357,0.336v0.015h2.038v0.511H598.688z"/>
		<path d="M603.902,190.943v0.449h-1.729v-0.449H603.902z"/>
	</g>
</g>
<path id="path5901_5_" sodipodi:nodetypes="cc" fill="none" stroke="#000000" d="M585.966,75.165
	c0.609-8.65,12.271-11.402,12.271-11.402"/>
<g>
	<g>
		<path fill="none" stroke="#000000" d="M442.816,76.768c-28.705,8.166-35.256,90.936-10.229,106.125"/>
		<polygon points="441.129,81.099 441.628,77.106 439.102,73.974 448.558,75.134 		"/>
	</g>
</g>
<g id="path5901_6_" sodipodi:nodetypes="cc">
	<g>
		<path fill="none" stroke="#000000" d="M417.879,151.893c-1.344-14.969-13.688-20-13.688-20"/>
		<polygon points="408.19,129.522 405.336,132.359 405.395,136.383 398.664,129.64 		"/>
	</g>
</g>
<g>
	<g>
		<line fill="none" stroke="#000000" x1="456.147" y1="130.891" x2="456.15" y2="85.643"/>
		<polygon points="459.854,88.451 456.15,86.878 452.447,88.451 456.15,79.673 		"/>
	</g>
</g>
<g>
	<g>
		<path fill="none" stroke="#000000" d="M473.191,94.684c-9.667,1.792-17.317,8.336-17.041,14.208
			c0.368,7.852,10.826,15.37,23.166,13.083"/>
		<polygon points="471.105,98.838 471.977,94.909 469.755,91.555 479.061,93.596 		"/>
	</g>
</g>
<g>
	<g>
		<path fill="none" stroke="#000000" d="M126.733,39.893c-54,0-54,59.667-54,59.667"/>
		<polygon points="69.029,96.751 72.733,98.324 76.437,96.751 72.733,105.529 		"/>
	</g>
</g>
<g>
	<g>
		<path fill="none" stroke="#000000" d="M544.233,188.06c-49.999,0-49.999,29.999-49.999,29.999"/>
		<polygon points="490.53,215.25 494.234,216.823 497.938,215.25 494.234,224.028 		"/>
	</g>
</g>
<g>
	<radialGradient id="path16609_23_" cx="455.8281" cy="186.2969" r="19.373" gradientUnits="userSpaceOnUse">
		<stop  offset="0" style="stop-color:#FFFCDF"/>
		<stop  offset="0.1203" style="stop-color:#FFFBDA"/>
		<stop  offset="0.2662" style="stop-color:#FFF9CB"/>
		<stop  offset="0.4255" style="stop-color:#FFF6B2"/>
		<stop  offset="0.5943" style="stop-color:#FFF090"/>
		<stop  offset="0.7706" style="stop-color:#FFEA64"/>
		<stop  offset="0.9506" style="stop-color:#FFE22F"/>
		<stop  offset="1" style="stop-color:#FFE01F"/>
	</radialGradient>
	<path id="path16609_7_" fill="url(#path16609_23_)" stroke="#000000" d="M481.144,186.295c0,5.787-11.338,10.479-25.316,10.479
		c-13.98,0-25.314-4.689-25.314-10.479c0-5.787,11.334-10.475,25.314-10.475C469.806,175.82,481.144,180.508,481.144,186.295z"/>
	<g>
		<radialGradient id="SVGID_5_" cx="441.5234" cy="187.5283" r="2.7053" gradientUnits="userSpaceOnUse">
			<stop  offset="0" style="stop-color:#FFFCDF"/>
			<stop  offset="0.1203" style="stop-color:#FFFBDA"/>
			<stop  offset="0.2662" style="stop-color:#FFF9CB"/>
			<stop  offset="0.4255" style="stop-color:#FFF6B2"/>
			<stop  offset="0.5943" style="stop-color:#FFF090"/>
			<stop  offset="0.7706" style="stop-color:#FFEA64"/>
			<stop  offset="0.9506" style="stop-color:#FFE22F"/>
			<stop  offset="1" style="stop-color:#FFE01F"/>
		</radialGradient>
		<path fill="url(#SVGID_5_)" d="M439.71,184.16h3.628v0.73h-2.748v2.238h2.538v0.72h-2.538v3.048h-0.88V184.16z"/>
		<radialGradient id="SVGID_6_" cx="446.0244" cy="188.4688" r="2.3394" gradientUnits="userSpaceOnUse">
			<stop  offset="0" style="stop-color:#FFFCDF"/>
			<stop  offset="0.1203" style="stop-color:#FFFBDA"/>
			<stop  offset="0.2662" style="stop-color:#FFF9CB"/>
			<stop  offset="0.4255" style="stop-color:#FFF6B2"/>
			<stop  offset="0.5943" style="stop-color:#FFF090"/>
			<stop  offset="0.7706" style="stop-color:#FFEA64"/>
			<stop  offset="0.9506" style="stop-color:#FFE22F"/>
			<stop  offset="1" style="stop-color:#FFE01F"/>
		</radialGradient>
		<path fill="url(#SVGID_6_)" d="M444.74,188.629c0.02,1.188,0.77,1.678,1.648,1.678c0.631,0,1.02-0.109,1.34-0.239l0.16,0.62
			c-0.311,0.14-0.85,0.31-1.619,0.31c-1.479,0-2.379-0.989-2.379-2.438c0-1.47,0.869-2.619,2.279-2.619
			c1.578,0,1.988,1.39,1.988,2.279c0,0.18-0.01,0.319-0.029,0.42L444.74,188.629z M447.309,187.998
			c0.01-0.549-0.23-1.429-1.209-1.429c-0.9,0-1.279,0.819-1.35,1.429H447.309z"/>
		<radialGradient id="SVGID_7_" cx="450.2363" cy="185.291" r="1.9443" gradientUnits="userSpaceOnUse">
			<stop  offset="0" style="stop-color:#FFFCDF"/>
			<stop  offset="0.1203" style="stop-color:#FFFBDA"/>
			<stop  offset="0.2662" style="stop-color:#FFF9CB"/>
			<stop  offset="0.4255" style="stop-color:#FFF6B2"/>
			<stop  offset="0.5943" style="stop-color:#FFF090"/>
			<stop  offset="0.7706" style="stop-color:#FFEA64"/>
			<stop  offset="0.9506" style="stop-color:#FFE22F"/>
			<stop  offset="1" style="stop-color:#FFE01F"/>
		</radialGradient>
		<path fill="url(#SVGID_7_)" d="M448.982,186.867c0.176,0.104,0.574,0.279,1.009,0.279c0.784,0,1.036-0.497,1.03-0.883
			c-0.008-0.637-0.582-0.91-1.178-0.91h-0.343v-0.462h0.343c0.449,0,1.016-0.231,1.016-0.771c0-0.364-0.23-0.687-0.798-0.687
			c-0.364,0-0.714,0.161-0.911,0.302l-0.168-0.449c0.246-0.175,0.707-0.35,1.197-0.35c0.896,0,1.303,0.532,1.303,1.086
			c0,0.476-0.287,0.875-0.84,1.078v0.014c0.561,0.105,1.016,0.525,1.016,1.163c0,0.729-0.574,1.366-1.66,1.366
			c-0.512,0-0.959-0.162-1.184-0.309L448.982,186.867z"/>
		<radialGradient id="SVGID_8_" cx="454.1992" cy="185.7031" r="1.8352" gradientUnits="userSpaceOnUse">
			<stop  offset="0" style="stop-color:#FFFCDF"/>
			<stop  offset="0.1203" style="stop-color:#FFFBDA"/>
			<stop  offset="0.2662" style="stop-color:#FFF9CB"/>
			<stop  offset="0.4255" style="stop-color:#FFF6B2"/>
			<stop  offset="0.5943" style="stop-color:#FFF090"/>
			<stop  offset="0.7706" style="stop-color:#FFEA64"/>
			<stop  offset="0.9506" style="stop-color:#FFE22F"/>
			<stop  offset="1" style="stop-color:#FFE01F"/>
		</radialGradient>
		<path fill="url(#SVGID_8_)" d="M454.422,183.841v1.646h1.584v0.421h-1.584v1.659h-0.447v-1.659h-1.583v-0.421h1.583v-1.646
			H454.422z"/>
		<radialGradient id="SVGID_9_" cx="463.8115" cy="187.5283" r="2.978" gradientUnits="userSpaceOnUse">
			<stop  offset="0" style="stop-color:#FFFCDF"/>
			<stop  offset="0.1203" style="stop-color:#FFFBDA"/>
			<stop  offset="0.2662" style="stop-color:#FFF9CB"/>
			<stop  offset="0.4255" style="stop-color:#FFF6B2"/>
			<stop  offset="0.5943" style="stop-color:#FFF090"/>
			<stop  offset="0.7706" style="stop-color:#FFEA64"/>
			<stop  offset="0.9506" style="stop-color:#FFE22F"/>
			<stop  offset="1" style="stop-color:#FFE01F"/>
		</radialGradient>
		<path fill="url(#SVGID_9_)" d="M461.283,190.896v-6.736h0.959l2.148,3.408c0.49,0.79,0.891,1.49,1.2,2.189l0.03-0.01
			c-0.08-0.9-0.101-1.72-0.101-2.759v-2.829h0.819v6.736h-0.879l-2.139-3.418c-0.471-0.749-0.92-1.52-1.25-2.248l-0.029,0.01
			c0.05,0.85,0.06,1.659,0.06,2.778v2.878H461.283z"/>
		<radialGradient id="SVGID_10_" cx="470.541" cy="187.5293" r="3.2844" gradientUnits="userSpaceOnUse">
			<stop  offset="0" style="stop-color:#FFFCDF"/>
			<stop  offset="0.1203" style="stop-color:#FFFBDA"/>
			<stop  offset="0.2662" style="stop-color:#FFF9CB"/>
			<stop  offset="0.4255" style="stop-color:#FFF6B2"/>
			<stop  offset="0.5943" style="stop-color:#FFF090"/>
			<stop  offset="0.7706" style="stop-color:#FFEA64"/>
			<stop  offset="0.9506" style="stop-color:#FFE22F"/>
			<stop  offset="1" style="stop-color:#FFE01F"/>
		</radialGradient>
		<path fill="url(#SVGID_10_)" d="M470.492,191.007c-1.789,0-3.029-1.38-3.029-3.418c0-2.139,1.32-3.538,3.119-3.538
			c1.849,0,3.038,1.409,3.038,3.408c0,2.309-1.409,3.548-3.118,3.548H470.492z M470.531,190.297c1.379,0,2.159-1.27,2.159-2.798
			c0-1.339-0.7-2.739-2.149-2.739s-2.168,1.35-2.168,2.809c0,1.42,0.779,2.729,2.148,2.729H470.531z"/>
	</g>
</g>
<g>
	<radialGradient id="path16609_24_" cx="455.8281" cy="134.2969" r="19.373" gradientUnits="userSpaceOnUse">
		<stop  offset="0" style="stop-color:#FFFCDF"/>
		<stop  offset="0.1203" style="stop-color:#FFFBDA"/>
		<stop  offset="0.2662" style="stop-color:#FFF9CB"/>
		<stop  offset="0.4255" style="stop-color:#FFF6B2"/>
		<stop  offset="0.5943" style="stop-color:#FFF090"/>
		<stop  offset="0.7706" style="stop-color:#FFEA64"/>
		<stop  offset="0.9506" style="stop-color:#FFE22F"/>
		<stop  offset="1" style="stop-color:#FFE01F"/>
	</radialGradient>
	<path id="path16609_13_" fill="url(#path16609_24_)" stroke="#000000" d="M481.144,134.295c0,5.787-11.338,10.479-25.316,10.479
		c-13.98,0-25.314-4.689-25.314-10.479c0-5.787,11.334-10.475,25.314-10.475C469.806,123.82,481.144,128.508,481.144,134.295z"/>
	<g>
		<radialGradient id="SVGID_11_" cx="441.5234" cy="135.5283" r="2.7053" gradientUnits="userSpaceOnUse">
			<stop  offset="0" style="stop-color:#FFFCDF"/>
			<stop  offset="0.1203" style="stop-color:#FFFBDA"/>
			<stop  offset="0.2662" style="stop-color:#FFF9CB"/>
			<stop  offset="0.4255" style="stop-color:#FFF6B2"/>
			<stop  offset="0.5943" style="stop-color:#FFF090"/>
			<stop  offset="0.7706" style="stop-color:#FFEA64"/>
			<stop  offset="0.9506" style="stop-color:#FFE22F"/>
			<stop  offset="1" style="stop-color:#FFE01F"/>
		</radialGradient>
		<path fill="url(#SVGID_11_)" d="M439.71,132.16h3.628v0.73h-2.748v2.238h2.538v0.72h-2.538v3.048h-0.88V132.16z"/>
		<radialGradient id="SVGID_12_" cx="446.0244" cy="136.4688" r="2.3394" gradientUnits="userSpaceOnUse">
			<stop  offset="0" style="stop-color:#FFFCDF"/>
			<stop  offset="0.1203" style="stop-color:#FFFBDA"/>
			<stop  offset="0.2662" style="stop-color:#FFF9CB"/>
			<stop  offset="0.4255" style="stop-color:#FFF6B2"/>
			<stop  offset="0.5943" style="stop-color:#FFF090"/>
			<stop  offset="0.7706" style="stop-color:#FFEA64"/>
			<stop  offset="0.9506" style="stop-color:#FFE22F"/>
			<stop  offset="1" style="stop-color:#FFE01F"/>
		</radialGradient>
		<path fill="url(#SVGID_12_)" d="M444.74,136.629c0.02,1.188,0.77,1.678,1.648,1.678c0.631,0,1.02-0.109,1.34-0.239l0.16,0.62
			c-0.311,0.14-0.85,0.31-1.619,0.31c-1.479,0-2.379-0.989-2.379-2.438c0-1.47,0.869-2.619,2.279-2.619
			c1.578,0,1.988,1.39,1.988,2.279c0,0.18-0.01,0.319-0.029,0.42L444.74,136.629z M447.309,135.998
			c0.01-0.549-0.23-1.429-1.209-1.429c-0.9,0-1.279,0.819-1.35,1.429H447.309z"/>
		<radialGradient id="SVGID_13_" cx="450.2891" cy="133.252" r="1.9324" gradientUnits="userSpaceOnUse">
			<stop  offset="0" style="stop-color:#FFFCDF"/>
			<stop  offset="0.1203" style="stop-color:#FFFBDA"/>
			<stop  offset="0.2662" style="stop-color:#FFF9CB"/>
			<stop  offset="0.4255" style="stop-color:#FFF6B2"/>
			<stop  offset="0.5943" style="stop-color:#FFF090"/>
			<stop  offset="0.7706" style="stop-color:#FFEA64"/>
			<stop  offset="0.9506" style="stop-color:#FFE22F"/>
			<stop  offset="1" style="stop-color:#FFE01F"/>
		</radialGradient>
		<path fill="url(#SVGID_13_)" d="M448.836,135.566v-0.378l0.482-0.47c1.163-1.105,1.695-1.694,1.695-2.381
			c0-0.462-0.217-0.889-0.896-0.889c-0.413,0-0.756,0.209-0.967,0.385l-0.195-0.435c0.308-0.259,0.764-0.462,1.289-0.462
			c0.973,0,1.387,0.672,1.387,1.324c0,0.84-0.609,1.52-1.569,2.443l-0.357,0.336v0.015h2.038v0.511H448.836z"/>
		<radialGradient id="SVGID_14_" cx="454.1992" cy="133.7031" r="1.8352" gradientUnits="userSpaceOnUse">
			<stop  offset="0" style="stop-color:#FFFCDF"/>
			<stop  offset="0.1203" style="stop-color:#FFFBDA"/>
			<stop  offset="0.2662" style="stop-color:#FFF9CB"/>
			<stop  offset="0.4255" style="stop-color:#FFF6B2"/>
			<stop  offset="0.5943" style="stop-color:#FFF090"/>
			<stop  offset="0.7706" style="stop-color:#FFEA64"/>
			<stop  offset="0.9506" style="stop-color:#FFE22F"/>
			<stop  offset="1" style="stop-color:#FFE01F"/>
		</radialGradient>
		<path fill="url(#SVGID_14_)" d="M454.422,131.841v1.646h1.584v0.421h-1.584v1.659h-0.447v-1.659h-1.583v-0.421h1.583v-1.646
			H454.422z"/>
		<radialGradient id="SVGID_15_" cx="463.8115" cy="135.5283" r="2.978" gradientUnits="userSpaceOnUse">
			<stop  offset="0" style="stop-color:#FFFCDF"/>
			<stop  offset="0.1203" style="stop-color:#FFFBDA"/>
			<stop  offset="0.2662" style="stop-color:#FFF9CB"/>
			<stop  offset="0.4255" style="stop-color:#FFF6B2"/>
			<stop  offset="0.5943" style="stop-color:#FFF090"/>
			<stop  offset="0.7706" style="stop-color:#FFEA64"/>
			<stop  offset="0.9506" style="stop-color:#FFE22F"/>
			<stop  offset="1" style="stop-color:#FFE01F"/>
		</radialGradient>
		<path fill="url(#SVGID_15_)" d="M461.283,138.896v-6.736h0.959l2.148,3.408c0.49,0.79,0.891,1.49,1.2,2.189l0.03-0.01
			c-0.08-0.9-0.101-1.72-0.101-2.759v-2.829h0.819v6.736h-0.879l-2.139-3.418c-0.471-0.749-0.92-1.52-1.25-2.248l-0.029,0.01
			c0.05,0.85,0.06,1.659,0.06,2.778v2.878H461.283z"/>
		<radialGradient id="SVGID_16_" cx="470.541" cy="135.5293" r="3.2844" gradientUnits="userSpaceOnUse">
			<stop  offset="0" style="stop-color:#FFFCDF"/>
			<stop  offset="0.1203" style="stop-color:#FFFBDA"/>
			<stop  offset="0.2662" style="stop-color:#FFF9CB"/>
			<stop  offset="0.4255" style="stop-color:#FFF6B2"/>
			<stop  offset="0.5943" style="stop-color:#FFF090"/>
			<stop  offset="0.7706" style="stop-color:#FFEA64"/>
			<stop  offset="0.9506" style="stop-color:#FFE22F"/>
			<stop  offset="1" style="stop-color:#FFE01F"/>
		</radialGradient>
		<path fill="url(#SVGID_16_)" d="M470.492,139.007c-1.789,0-3.029-1.38-3.029-3.418c0-2.139,1.32-3.538,3.119-3.538
			c1.849,0,3.038,1.409,3.038,3.408c0,2.309-1.409,3.548-3.118,3.548H470.492z M470.531,138.297c1.379,0,2.159-1.27,2.159-2.798
			c0-1.339-0.7-2.739-2.149-2.739s-2.168,1.35-2.168,2.809c0,1.42,0.779,2.729,2.148,2.729H470.531z"/>
	</g>
</g>
<path id="path5901_7_" sodipodi:nodetypes="cc" fill="none" stroke="#000000" d="M582.487,152.498
	c0-8.855-13.108-11.48-13.108-11.48"/>
<g>
	
		<radialGradient id="path11134_11_" cx="-140.2822" cy="-643.585" r="22.1558" gradientTransform="matrix(0.3664 0 0 0.3664 124.1013 349.4556)" gradientUnits="userSpaceOnUse">
		<stop  offset="0" style="stop-color:#FFFCDF"/>
		<stop  offset="0.1203" style="stop-color:#FFFBDA"/>
		<stop  offset="0.2662" style="stop-color:#FFF9CB"/>
		<stop  offset="0.4255" style="stop-color:#FFF6B2"/>
		<stop  offset="0.5943" style="stop-color:#FFF090"/>
		<stop  offset="0.7706" style="stop-color:#FFEA64"/>
		<stop  offset="0.9506" style="stop-color:#FFE22F"/>
		<stop  offset="1" style="stop-color:#FFE01F"/>
	</radialGradient>
	<path id="path11134_6_" fill="url(#path11134_11_)" stroke="#000000" stroke-width="0.9921" d="M80.82,113.646
		c0,4.482-3.635,8.117-8.117,8.117c-4.484,0-8.119-3.635-8.119-8.117c0-4.481,3.634-8.118,8.119-8.118
		C77.185,105.528,80.82,109.165,80.82,113.646z"/>
	<g>
		<path d="M67.008,112.103h2.614v0.526h-1.98v1.613h1.829v0.519h-1.829v2.196h-0.634V112.103z"/>
		<path d="M70.628,115.322c0.015,0.857,0.555,1.21,1.188,1.21c0.454,0,0.734-0.079,0.965-0.173l0.115,0.446
			c-0.223,0.101-0.612,0.224-1.167,0.224c-1.065,0-1.714-0.713-1.714-1.758c0-1.059,0.627-1.887,1.643-1.887
			c1.138,0,1.433,1.001,1.433,1.643c0,0.129-0.007,0.23-0.021,0.302L70.628,115.322z M72.48,114.868
			c0.007-0.396-0.166-1.029-0.872-1.029c-0.648,0-0.922,0.59-0.972,1.029H72.48z"/>
		<path d="M73.68,114.057c0.126,0.076,0.413,0.202,0.726,0.202c0.563,0,0.745-0.357,0.74-0.635
			c-0.005-0.458-0.418-0.654-0.846-0.654h-0.247v-0.333H74.3c0.322,0,0.729-0.166,0.729-0.554c0-0.262-0.166-0.493-0.574-0.493
			c-0.262,0-0.514,0.115-0.654,0.217l-0.121-0.322c0.177-0.126,0.509-0.252,0.861-0.252c0.645,0,0.937,0.383,0.937,0.78
			c0,0.343-0.206,0.629-0.604,0.775v0.01c0.403,0.076,0.73,0.378,0.73,0.836c0,0.524-0.413,0.982-1.193,0.982
			c-0.367,0-0.689-0.116-0.851-0.222L73.68,114.057z"/>
		<path d="M77.594,111.882v1.184h1.138v0.302h-1.138v1.193h-0.322v-1.193h-1.139v-0.302h1.139v-1.184H77.594z"/>
	</g>
</g>
<g>
	
		<radialGradient id="path11134_12_" cx="190.8682" cy="-640.853" r="22.156" gradientTransform="matrix(0.3664 0 0 0.3664 124.1013 349.4556)" gradientUnits="userSpaceOnUse">
		<stop  offset="0" style="stop-color:#FFFCDF"/>
		<stop  offset="0.1203" style="stop-color:#FFFBDA"/>
		<stop  offset="0.2662" style="stop-color:#FFF9CB"/>
		<stop  offset="0.4255" style="stop-color:#FFF6B2"/>
		<stop  offset="0.5943" style="stop-color:#FFF090"/>
		<stop  offset="0.7706" style="stop-color:#FFEA64"/>
		<stop  offset="0.9506" style="stop-color:#FFE22F"/>
		<stop  offset="1" style="stop-color:#FFE01F"/>
	</radialGradient>
	<path id="path11134_2_" fill="url(#path11134_12_)" stroke="#000000" stroke-width="0.9921" d="M202.153,114.647
		c0,4.482-3.635,8.117-8.117,8.117c-4.484,0-8.119-3.635-8.119-8.117c0-4.481,3.634-8.118,8.119-8.118
		C198.519,106.529,202.153,110.166,202.153,114.647z"/>
	<g>
		<path d="M188.342,113.103h2.614v0.526h-1.98v1.613h1.829v0.519h-1.829v2.196h-0.634V113.103z"/>
		<path d="M191.962,116.322c0.015,0.857,0.555,1.21,1.188,1.21c0.454,0,0.734-0.079,0.965-0.173l0.115,0.446
			c-0.223,0.101-0.612,0.224-1.167,0.224c-1.065,0-1.714-0.713-1.714-1.758c0-1.059,0.627-1.887,1.643-1.887
			c1.138,0,1.433,1.001,1.433,1.643c0,0.129-0.007,0.23-0.021,0.302L191.962,116.322z M193.813,115.868
			c0.007-0.396-0.166-1.029-0.872-1.029c-0.648,0-0.922,0.59-0.972,1.029H193.813z"/>
		<path d="M194.908,115.561v-0.271l0.348-0.338c0.836-0.796,1.219-1.219,1.219-1.712c0-0.332-0.156-0.64-0.645-0.64
			c-0.298,0-0.544,0.151-0.695,0.277l-0.141-0.313c0.222-0.187,0.549-0.332,0.926-0.332c0.7,0,0.997,0.483,0.997,0.951
			c0,0.604-0.438,1.093-1.128,1.758l-0.257,0.241v0.011h1.466v0.367H194.908z"/>
		<path d="M198.928,112.882v1.184h1.138v0.302h-1.138v1.193h-0.322v-1.193h-1.139v-0.302h1.139v-1.184H198.928z"/>
	</g>
</g>
<g>
	
		<radialGradient id="path11134_13_" cx="905.5098" cy="-758.2158" r="22.1563" gradientTransform="matrix(0.3664 0 0 0.3664 124.1013 349.4556)" gradientUnits="userSpaceOnUse">
		<stop  offset="0" style="stop-color:#FFFCDF"/>
		<stop  offset="0.1203" style="stop-color:#FFFBDA"/>
		<stop  offset="0.2662" style="stop-color:#FFF9CB"/>
		<stop  offset="0.4255" style="stop-color:#FFF6B2"/>
		<stop  offset="0.5943" style="stop-color:#FFF090"/>
		<stop  offset="0.7706" style="stop-color:#FFEA64"/>
		<stop  offset="0.9506" style="stop-color:#FFE22F"/>
		<stop  offset="1" style="stop-color:#FFE01F"/>
	</radialGradient>
	<path id="path11134_3_" fill="url(#path11134_13_)" stroke="#000000" stroke-width="0.9921" d="M463.998,71.646
		c0,4.482-3.635,8.117-8.117,8.117c-4.484,0-8.119-3.635-8.119-8.117c0-4.482,3.635-8.119,8.119-8.119
		C460.363,63.527,463.998,67.164,463.998,71.646z"/>
	<g>
		<path d="M449.83,70.103h2.613v0.526h-1.98v1.613h1.83v0.519h-1.83v2.196h-0.633V70.103z"/>
		<path d="M453.449,73.322c0.016,0.857,0.555,1.21,1.189,1.21c0.453,0,0.734-0.079,0.965-0.173l0.115,0.446
			c-0.223,0.101-0.613,0.224-1.168,0.224c-1.064,0-1.713-0.713-1.713-1.758c0-1.059,0.627-1.887,1.643-1.887
			c1.137,0,1.432,1.001,1.432,1.643c0,0.129-0.006,0.23-0.021,0.302L453.449,73.322z M455.301,72.868
			c0.008-0.396-0.166-1.029-0.871-1.029c-0.648,0-0.922,0.59-0.973,1.029H455.301z"/>
		<path d="M456.502,72.057c0.125,0.076,0.412,0.202,0.725,0.202c0.564,0,0.746-0.357,0.74-0.635
			c-0.004-0.458-0.418-0.654-0.846-0.654h-0.246v-0.333h0.246c0.322,0,0.73-0.166,0.73-0.554c0-0.262-0.166-0.493-0.574-0.493
			c-0.262,0-0.514,0.115-0.654,0.217l-0.121-0.322c0.176-0.126,0.508-0.252,0.861-0.252c0.645,0,0.936,0.383,0.936,0.78
			c0,0.343-0.205,0.629-0.604,0.775v0.01c0.402,0.076,0.73,0.378,0.73,0.836c0,0.524-0.414,0.982-1.193,0.982
			c-0.367,0-0.689-0.116-0.852-0.222L456.502,72.057z"/>
		<path d="M460.416,69.882v1.184h1.137v0.302h-1.137v1.193h-0.322v-1.193h-1.139v-0.302h1.139v-1.184H460.416z"/>
	</g>
</g>
<g>
	
		<radialGradient id="path11134_14_" cx="1572.0801" cy="-711.2188" r="22.1567" gradientTransform="matrix(0.3664 0 0 0.3664 124.1013 349.4556)" gradientUnits="userSpaceOnUse">
		<stop  offset="0" style="stop-color:#FFFCDF"/>
		<stop  offset="0.1203" style="stop-color:#FFFBDA"/>
		<stop  offset="0.2662" style="stop-color:#FFF9CB"/>
		<stop  offset="0.4255" style="stop-color:#FFF6B2"/>
		<stop  offset="0.5943" style="stop-color:#FFF090"/>
		<stop  offset="0.7706" style="stop-color:#FFEA64"/>
		<stop  offset="0.9506" style="stop-color:#FFE22F"/>
		<stop  offset="1" style="stop-color:#FFE01F"/>
	</radialGradient>
	<path id="path11134_4_" fill="url(#path11134_14_)" stroke="#000000" stroke-width="0.9921" d="M708.229,88.866
		c0,4.482-3.635,8.117-8.117,8.117c-4.484,0-8.119-3.635-8.119-8.117c0-4.482,3.635-8.119,8.119-8.119
		C704.595,80.747,708.229,84.384,708.229,88.866z"/>
	<g>
		<path d="M694.418,87.32h2.614v0.526h-1.98v1.613h1.829v0.519h-1.829v2.196h-0.634V87.32z"/>
		<path d="M698.038,90.54c0.015,0.857,0.555,1.21,1.188,1.21c0.454,0,0.734-0.079,0.965-0.173l0.115,0.446
			c-0.223,0.101-0.612,0.224-1.167,0.224c-1.065,0-1.714-0.713-1.714-1.758c0-1.059,0.627-1.887,1.643-1.887
			c1.138,0,1.433,1.001,1.433,1.643c0,0.129-0.007,0.23-0.021,0.302L698.038,90.54z M699.89,90.086
			c0.007-0.396-0.166-1.029-0.872-1.029c-0.648,0-0.922,0.59-0.972,1.029H699.89z"/>
		<path d="M700.984,89.778v-0.271l0.348-0.338c0.836-0.796,1.219-1.219,1.219-1.712c0-0.332-0.156-0.64-0.645-0.64
			c-0.298,0-0.544,0.151-0.695,0.277l-0.141-0.313c0.222-0.187,0.549-0.332,0.926-0.332c0.7,0,0.997,0.483,0.997,0.951
			c0,0.604-0.438,1.093-1.128,1.758l-0.257,0.241v0.011h1.466v0.367H700.984z"/>
		<path d="M705.004,87.1v1.184h1.138v0.302h-1.138v1.193h-0.322v-1.193h-1.139v-0.302h1.139V87.1H705.004z"/>
	</g>
</g>
<g>
	<path d="M238.896,21.065c0.02,1.189,0.77,1.679,1.649,1.679c0.63,0,1.02-0.11,1.339-0.24l0.16,0.62
		c-0.31,0.14-0.85,0.31-1.619,0.31c-1.479,0-2.378-0.99-2.378-2.439c0-1.469,0.87-2.619,2.279-2.619c1.579,0,1.989,1.39,1.989,2.279
		c0,0.18-0.01,0.32-0.03,0.42L238.896,21.065z M241.465,20.435c0.01-0.55-0.23-1.429-1.209-1.429c-0.899,0-1.279,0.819-1.349,1.429
		H241.465z"/>
	<path d="M244.617,17.888v0.448h-1.73v-0.448H244.617z"/>
</g>
<g>
	<path d="M495.229,21.285c0.02,1.189,0.77,1.679,1.648,1.679c0.631,0,1.02-0.11,1.34-0.24l0.16,0.62
		c-0.311,0.14-0.85,0.31-1.619,0.31c-1.479,0-2.379-0.99-2.379-2.439c0-1.469,0.869-2.619,2.279-2.619
		c1.578,0,1.988,1.39,1.988,2.279c0,0.18-0.01,0.32-0.029,0.42L495.229,21.285z M497.797,20.655c0.01-0.55-0.23-1.429-1.209-1.429
		c-0.9,0-1.279,0.819-1.35,1.429H497.797z"/>
	<path d="M500.949,18.108v0.448h-1.73v-0.448H500.949z"/>
</g>
<g>
	
		<radialGradient id="path11134_15_" cx="1105.3691" cy="-896.6396" r="22.157" gradientTransform="matrix(0.3664 0 0 0.3664 124.1013 349.4556)" gradientUnits="userSpaceOnUse">
		<stop  offset="0" style="stop-color:#FFFCDF"/>
		<stop  offset="0.1203" style="stop-color:#FFFBDA"/>
		<stop  offset="0.2662" style="stop-color:#FFF9CB"/>
		<stop  offset="0.4255" style="stop-color:#FFF6B2"/>
		<stop  offset="0.5943" style="stop-color:#FFF090"/>
		<stop  offset="0.7706" style="stop-color:#FFEA64"/>
		<stop  offset="0.9506" style="stop-color:#FFE22F"/>
		<stop  offset="1" style="stop-color:#FFE01F"/>
	</radialGradient>
	<path id="path11134_1_" fill="url(#path11134_15_)" stroke="#000000" stroke-width="0.9921" d="M537.227,20.928
		c0,4.482-3.635,8.117-8.117,8.117c-4.484,0-8.119-3.635-8.119-8.117s3.633-8.119,8.119-8.119
		C533.592,12.809,537.227,16.445,537.227,20.928z"/>
	<g>
		<path d="M526.436,18.185v2.031h2.348v-2.031h0.634v4.854h-0.634v-2.275h-2.348v2.275h-0.634v-4.854H526.436z"/>
		<path d="M531.616,17.964v1.184h1.138v0.302h-1.138v1.193h-0.322v-1.193h-1.139v-0.302h1.139v-1.184H531.616z"/>
	</g>
</g>
<g>
	<path d="M700.493,103.137v2.818h2.71v0.72h-2.71v2.842h-0.768v-2.842h-2.71v-0.72h2.71v-2.818H700.493z"/>
</g>
<g>
	
		<radialGradient id="path11134_16_" cx="991.5293" cy="-700.3779" r="22.1563" gradientTransform="matrix(0.3664 0 0 0.3664 124.1013 349.4556)" gradientUnits="userSpaceOnUse">
		<stop  offset="0" style="stop-color:#FFFCDF"/>
		<stop  offset="0.1203" style="stop-color:#FFFBDA"/>
		<stop  offset="0.2662" style="stop-color:#FFF9CB"/>
		<stop  offset="0.4255" style="stop-color:#FFF6B2"/>
		<stop  offset="0.5943" style="stop-color:#FFF090"/>
		<stop  offset="0.7706" style="stop-color:#FFEA64"/>
		<stop  offset="0.9506" style="stop-color:#FFE22F"/>
		<stop  offset="1" style="stop-color:#FFE01F"/>
	</radialGradient>
	<path id="path11134_5_" fill="url(#path11134_16_)" stroke="#000000" stroke-width="0.9921" d="M495.516,92.838
		c0,4.482-3.635,8.117-8.117,8.117c-4.484,0-8.119-3.635-8.119-8.117s3.634-8.119,8.119-8.119
		C491.881,84.719,495.516,88.355,495.516,92.838z"/>
	<g>
		<path d="M481.354,96.148v-4.854h0.691l1.549,2.456c0.354,0.569,0.641,1.073,0.864,1.577l0.021-0.007
			c-0.058-0.648-0.071-1.239-0.071-1.988v-2.038h0.59v4.854h-0.634l-1.541-2.463c-0.339-0.54-0.663-1.095-0.9-1.621l-0.021,0.008
			c0.036,0.612,0.043,1.195,0.043,2.002v2.074H481.354z"/>
		<path d="M487.983,96.228c-1.289,0-2.183-0.994-2.183-2.463c0-1.541,0.951-2.55,2.248-2.55c1.332,0,2.189,1.016,2.189,2.456
			c0,1.664-1.016,2.557-2.248,2.557H487.983z M488.013,95.717c0.993,0,1.556-0.915,1.556-2.018c0-0.965-0.505-1.973-1.549-1.973
			s-1.563,0.972-1.563,2.023c0,1.022,0.562,1.967,1.548,1.967H488.013z"/>
		<path d="M490.833,93.248c0.126,0.076,0.413,0.202,0.726,0.202c0.563,0,0.745-0.357,0.74-0.635
			c-0.005-0.458-0.418-0.654-0.846-0.654h-0.247v-0.333h0.247c0.322,0,0.729-0.166,0.729-0.554c0-0.262-0.166-0.493-0.574-0.493
			c-0.262,0-0.514,0.115-0.654,0.217l-0.121-0.322c0.177-0.126,0.509-0.252,0.861-0.252c0.645,0,0.937,0.383,0.937,0.78
			c0,0.343-0.206,0.629-0.604,0.775v0.01c0.403,0.076,0.73,0.378,0.73,0.836c0,0.524-0.413,0.982-1.193,0.982
			c-0.367,0-0.689-0.116-0.851-0.222L490.833,93.248z"/>
		<path d="M494.479,92.231v0.322h-1.243v-0.322H494.479z"/>
	</g>
</g>
<g>
	
		<radialGradient id="path11134_17_" cx="991.4063" cy="-621.5977" r="22.157" gradientTransform="matrix(0.3664 0 0 0.3664 124.1013 349.4556)" gradientUnits="userSpaceOnUse">
		<stop  offset="0" style="stop-color:#FFFCDF"/>
		<stop  offset="0.1203" style="stop-color:#FFFBDA"/>
		<stop  offset="0.2662" style="stop-color:#FFF9CB"/>
		<stop  offset="0.4255" style="stop-color:#FFF6B2"/>
		<stop  offset="0.5943" style="stop-color:#FFF090"/>
		<stop  offset="0.7706" style="stop-color:#FFEA64"/>
		<stop  offset="0.9506" style="stop-color:#FFE22F"/>
		<stop  offset="1" style="stop-color:#FFE01F"/>
	</radialGradient>
	<path id="path11134_7_" fill="url(#path11134_17_)" stroke="#000000" stroke-width="0.9921" d="M495.471,121.703
		c0,4.482-3.635,8.117-8.117,8.117c-4.484,0-8.119-3.635-8.119-8.117s3.633-8.119,8.119-8.119
		C491.836,113.584,495.471,117.221,495.471,121.703z"/>
	<g>
		<path d="M486.021,122.694c-1.289,0-2.182-0.994-2.182-2.463c0-1.541,0.951-2.55,2.246-2.55c1.334,0,2.189,1.016,2.189,2.456
			c0,1.664-1.014,2.557-2.246,2.557H486.021z M486.051,122.184c0.994,0,1.557-0.915,1.557-2.018c0-0.965-0.506-1.973-1.549-1.973
			c-1.045,0-1.563,0.972-1.563,2.023c0,1.022,0.561,1.967,1.547,1.967H486.051z"/>
		<path d="M488.766,125.012v-0.271l0.348-0.338c0.836-0.796,1.219-1.219,1.219-1.712c0-0.332-0.156-0.64-0.645-0.64
			c-0.297,0-0.543,0.151-0.695,0.277l-0.141-0.313c0.223-0.187,0.549-0.332,0.926-0.332c0.701,0,0.998,0.483,0.998,0.951
			c0,0.604-0.438,1.093-1.129,1.758l-0.256,0.241v0.011h1.465v0.367H488.766z"/>
	</g>
</g>
<g>
	
		<radialGradient id="path11134_18_" cx="670.2637" cy="-778.9844" r="22.1565" gradientTransform="matrix(0.3664 0 0 0.3664 124.1013 349.4556)" gradientUnits="userSpaceOnUse">
		<stop  offset="0" style="stop-color:#FFFCDF"/>
		<stop  offset="0.1203" style="stop-color:#FFFBDA"/>
		<stop  offset="0.2662" style="stop-color:#FFF9CB"/>
		<stop  offset="0.4255" style="stop-color:#FFF6B2"/>
		<stop  offset="0.5943" style="stop-color:#FFF090"/>
		<stop  offset="0.7706" style="stop-color:#FFEA64"/>
		<stop  offset="0.9506" style="stop-color:#FFE22F"/>
		<stop  offset="1" style="stop-color:#FFE01F"/>
	</radialGradient>
	<path id="path11134_8_" fill="url(#path11134_18_)" stroke="#000000" stroke-width="0.9921" d="M377.804,64.037
		c0,4.482-3.635,8.117-8.117,8.117c-4.484,0-8.119-3.635-8.119-8.117s3.633-8.119,8.119-8.119
		C374.169,55.917,377.804,59.554,377.804,64.037z"/>
	<g>
		<path d="M368.355,65.028c-1.289,0-2.182-0.994-2.182-2.463c0-1.541,0.95-2.55,2.246-2.55c1.333,0,2.189,1.016,2.189,2.456
			c0,1.664-1.015,2.557-2.246,2.557H368.355z M368.384,64.518c0.993,0,1.556-0.915,1.556-2.018c0-0.965-0.505-1.973-1.549-1.973
			s-1.563,0.972-1.563,2.023c0,1.022,0.562,1.967,1.548,1.967H368.384z"/>
		<path d="M371.099,67.346v-0.271l0.348-0.338c0.836-0.796,1.219-1.219,1.219-1.712c0-0.332-0.156-0.64-0.645-0.64
			c-0.298,0-0.544,0.151-0.695,0.277l-0.141-0.313c0.222-0.187,0.549-0.332,0.926-0.332c0.7,0,0.997,0.483,0.997,0.951
			c0,0.604-0.438,1.093-1.128,1.758l-0.257,0.241v0.011h1.466v0.367H371.099z"/>
	</g>
</g>
<g>
	
		<radialGradient id="path11134_19_" cx="728.9609" cy="-607.7676" r="22.1565" gradientTransform="matrix(0.3664 0 0 0.3664 124.1013 349.4556)" gradientUnits="userSpaceOnUse">
		<stop  offset="0" style="stop-color:#FFFCDF"/>
		<stop  offset="0.1203" style="stop-color:#FFFBDA"/>
		<stop  offset="0.2662" style="stop-color:#FFF9CB"/>
		<stop  offset="0.4255" style="stop-color:#FFF6B2"/>
		<stop  offset="0.5943" style="stop-color:#FFF090"/>
		<stop  offset="0.7706" style="stop-color:#FFEA64"/>
		<stop  offset="0.9506" style="stop-color:#FFE22F"/>
		<stop  offset="1" style="stop-color:#FFE01F"/>
	</radialGradient>
	<path id="path11134_9_" fill="url(#path11134_19_)" stroke="#000000" stroke-width="0.9921" d="M399.311,126.771
		c0,4.482-3.635,8.117-8.117,8.117c-4.484,0-8.119-3.635-8.119-8.117s3.633-8.119,8.119-8.119
		C395.676,118.651,399.311,122.288,399.311,126.771z"/>
	<g>
		<path d="M386.893,128.882v-4.854h0.691l1.549,2.456c0.354,0.569,0.641,1.073,0.863,1.577l0.021-0.007
			c-0.057-0.648-0.07-1.239-0.07-1.988v-2.038h0.59v4.854h-0.635l-1.541-2.463c-0.338-0.54-0.662-1.095-0.9-1.621l-0.021,0.008
			c0.037,0.612,0.043,1.195,0.043,2.002v2.074H386.893z"/>
		<path d="M393.521,128.961c-1.289,0-2.182-0.994-2.182-2.463c0-1.541,0.951-2.55,2.248-2.55c1.332,0,2.189,1.016,2.189,2.456
			c0,1.664-1.016,2.557-2.248,2.557H393.521z M393.551,128.45c0.994,0,1.557-0.915,1.557-2.018c0-0.965-0.506-1.973-1.549-1.973
			c-1.045,0-1.563,0.972-1.563,2.023c0,1.022,0.561,1.967,1.547,1.967H393.551z"/>
	</g>
</g>
<g>
	<path d="M493.976,226.844v2.818h2.71v0.719h-2.71v2.843h-0.768v-2.843h-2.711v-0.719h2.711v-2.818H493.976z"/>
</g>
<g>
	
		<radialGradient id="path11134_20_" cx="1194.0547" cy="-571.6504" r="22.1565" gradientTransform="matrix(0.3664 0 0 0.3664 124.1013 349.4556)" gradientUnits="userSpaceOnUse">
		<stop  offset="0" style="stop-color:#FFFCDF"/>
		<stop  offset="0.1203" style="stop-color:#FFFBDA"/>
		<stop  offset="0.2662" style="stop-color:#FFF9CB"/>
		<stop  offset="0.4255" style="stop-color:#FFF6B2"/>
		<stop  offset="0.5943" style="stop-color:#FFF090"/>
		<stop  offset="0.7706" style="stop-color:#FFEA64"/>
		<stop  offset="0.9506" style="stop-color:#FFE22F"/>
		<stop  offset="1" style="stop-color:#FFE01F"/>
	</radialGradient>
	<path id="path11134_10_" fill="url(#path11134_20_)" stroke="#000000" stroke-width="0.9921" d="M569.721,140.004
		c0,4.482-3.635,8.117-8.117,8.117c-4.484,0-8.119-3.635-8.119-8.117s3.633-8.119,8.119-8.119
		C566.086,131.885,569.721,135.521,569.721,140.004z"/>
	<g>
		<path d="M559.499,143.394c-1.289,0-2.182-0.994-2.182-2.463c0-1.541,0.95-2.55,2.246-2.55c1.333,0,2.189,1.016,2.189,2.456
			c0,1.664-1.015,2.557-2.246,2.557H559.499z M559.528,142.883c0.993,0,1.556-0.915,1.556-2.018c0-0.965-0.505-1.973-1.549-1.973
			s-1.563,0.972-1.563,2.023c0,1.022,0.562,1.967,1.548,1.967H559.528z"/>
		<path d="M562.243,140.918v-0.271l0.348-0.338c0.836-0.796,1.219-1.219,1.219-1.712c0-0.332-0.156-0.64-0.645-0.64
			c-0.298,0-0.544,0.151-0.695,0.277l-0.141-0.313c0.222-0.187,0.549-0.332,0.926-0.332c0.7,0,0.997,0.483,0.997,0.951
			c0,0.604-0.438,1.093-1.128,1.758l-0.257,0.241v0.011h1.466v0.367H562.243z"/>
		<path d="M565.995,139.397v0.322h-1.243v-0.322H565.995z"/>
	</g>
</g>
<g>
	<path d="M606.229,63.618c0.02,1.189,0.77,1.679,1.648,1.679c0.631,0,1.02-0.11,1.34-0.24l0.16,0.62
		c-0.311,0.14-0.85,0.31-1.619,0.31c-1.479,0-2.379-0.99-2.379-2.439c0-1.469,0.869-2.619,2.279-2.619
		c1.578,0,1.988,1.39,1.988,2.279c0,0.18-0.01,0.32-0.029,0.42L606.229,63.618z M608.797,62.988c0.01-0.55-0.23-1.429-1.209-1.429
		c-0.9,0-1.279,0.819-1.35,1.429H608.797z"/>
	<path d="M611.949,60.441v0.448h-1.73v-0.448H611.949z"/>
</g>
</svg>
