<?xml version="1.0" encoding="utf-8"?>
<!-- Generator: Adobe Illustrator 14.0.0, SVG Export Plug-In . SVG Version: 6.00 Build 43363)  -->
<!DOCTYPE svg PUBLIC "-//W3C//DTD SVG 1.1//EN" "http://www.w3.org/Graphics/SVG/1.1/DTD/svg11.dtd">
<svg version="1.1" id="Layer_1" xmlns="http://www.w3.org/2000/svg" xmlns:xlink="http://www.w3.org/1999/xlink" x="0px" y="0px"
	 width="527.28px" height="364px" viewBox="0 0 527.28 364" enable-background="new 0 0 527.28 364" xml:space="preserve">
<g>
	<g id="g59398" transform="translate(21.16987,-31.23187)">
		<g id="g7045">
			<g id="g7047">
				<path id="path7049" fill="#C2DCF3" stroke="#2A8FCE" d="M208.898,321.669c0-1.289-1.045-2.334-2.332-2.334
					c-1.289,0-2.334,1.045-2.334,2.334c0,1.287,1.045,2.332,2.334,2.332C207.853,324.001,208.898,322.956,208.898,321.669z"/>
				<path id="path7051" fill="none" stroke="#2A8FCE" d="M206.565,319.335v-16.334"/>
			</g>
			<g id="g7053">
				<path id="path7055" fill="#C2DCF3" stroke="#2A8FCE" d="M203.548,321.669c0-1.289-1.045-2.334-2.332-2.334
					c-1.289,0-2.334,1.045-2.334,2.334c0,1.287,1.045,2.332,2.334,2.332C202.503,324.001,203.548,322.956,203.548,321.669z"/>
				<path id="path7057" fill="none" stroke="#2A8FCE" d="M201.216,319.335v-16.334"/>
			</g>
			<g id="g7059">
				<path id="path7061" fill="#C2DCF3" stroke="#2A8FCE" d="M198.198,321.669c0-1.289-1.045-2.334-2.334-2.334
					c-1.287,0-2.332,1.045-2.332,2.334c0,1.287,1.045,2.332,2.332,2.332C197.153,324.001,198.198,322.956,198.198,321.669z"/>
				<path id="path7063" fill="none" stroke="#2A8FCE" d="M195.864,319.335v-16.334"/>
			</g>
			<g id="g7065">
				<path id="path7067" fill="#C2DCF3" stroke="#2A8FCE" d="M224.95,321.669c0-1.289-1.045-2.334-2.334-2.334
					c-1.287,0-2.332,1.045-2.332,2.334c0,1.287,1.045,2.332,2.332,2.332C223.905,324.001,224.95,322.956,224.95,321.669z"/>
				<path id="path7069" fill="none" stroke="#2A8FCE" d="M222.616,319.335v-16.334"/>
			</g>
			<g id="g7071">
				<path id="path7073" fill="#C2DCF3" stroke="#2A8FCE" d="M219.599,321.669c0-1.289-1.045-2.334-2.332-2.334
					c-1.289,0-2.334,1.045-2.334,2.334c0,1.287,1.045,2.332,2.334,2.332C218.554,324.001,219.599,322.956,219.599,321.669z"/>
				<path id="path7075" fill="none" stroke="#2A8FCE" d="M217.267,319.335v-16.334"/>
			</g>
			<g id="g7077">
				<path id="path7079" fill="#C2DCF3" stroke="#2A8FCE" d="M214.249,321.669c0-1.289-1.045-2.334-2.334-2.334
					c-1.287,0-2.332,1.045-2.332,2.334c0,1.287,1.045,2.332,2.332,2.332C213.204,324.001,214.249,322.956,214.249,321.669z"/>
				<path id="path7081" fill="none" stroke="#2A8FCE" d="M211.915,319.335v-16.334"/>
			</g>
			<g id="g7083">
				<path id="path7085" fill="#C2DCF3" stroke="#2A8FCE" d="M211.573,298.767c0,1.287-1.045,2.333-2.332,2.333
					c-1.289,0-2.334-1.046-2.334-2.333c0-1.288,1.045-2.333,2.334-2.333C210.528,296.434,211.573,297.48,211.573,298.767z"/>
				<path id="path7087" fill="none" stroke="#2A8FCE" d="M209.241,301.1v16.335"/>
			</g>
			<g id="g7089">
				<path id="path7091" fill="#C2DCF3" stroke="#2A8FCE" d="M206.224,298.767c0,1.287-1.045,2.333-2.334,2.333
					c-1.287,0-2.332-1.046-2.332-2.333c0-1.288,1.045-2.333,2.332-2.333C205.179,296.434,206.224,297.48,206.224,298.767z"/>
				<path id="path7093" fill="none" stroke="#2A8FCE" d="M203.89,301.1v16.335"/>
			</g>
			<g id="g7095">
				<path id="path7097" fill="#C2DCF3" stroke="#2A8FCE" d="M200.872,298.767c0,1.287-1.045,2.333-2.332,2.333
					c-1.289,0-2.334-1.046-2.334-2.333c0-1.288,1.045-2.333,2.334-2.333C199.827,296.434,200.872,297.48,200.872,298.767z"/>
				<path id="path7099" fill="none" stroke="#2A8FCE" d="M198.54,301.1v16.335"/>
			</g>
			<g id="g7101">
				<path id="path7103" fill="#C2DCF3" stroke="#2A8FCE" d="M227.624,298.767c0,1.287-1.045,2.333-2.332,2.333
					c-1.289,0-2.334-1.046-2.334-2.333c0-1.288,1.045-2.333,2.334-2.333C226.579,296.434,227.624,297.48,227.624,298.767z"/>
				<path id="path7105" fill="none" stroke="#2A8FCE" d="M225.292,301.1v16.335"/>
			</g>
			<g id="g7107">
				<path id="path7109" fill="#C2DCF3" stroke="#2A8FCE" d="M222.274,298.767c0,1.287-1.045,2.333-2.332,2.333
					c-1.289,0-2.334-1.046-2.334-2.333c0-1.288,1.045-2.333,2.334-2.333C221.23,296.434,222.274,297.48,222.274,298.767z"/>
				<path id="path7111" fill="none" stroke="#2A8FCE" d="M219.942,301.1v16.335"/>
			</g>
			<g id="g7113">
				<path id="path7115" fill="#C2DCF3" stroke="#2A8FCE" d="M216.925,298.767c0,1.287-1.047,2.333-2.334,2.333
					s-2.332-1.046-2.332-2.333c0-1.288,1.045-2.333,2.332-2.333S216.925,297.48,216.925,298.767z"/>
				<path id="path7117" fill="none" stroke="#2A8FCE" d="M214.591,301.1v16.335"/>
			</g>
		</g>
		<g id="g7119">
			<g id="g7121">
				<path id="path7123" fill="#C2DCF3" stroke="#2A8FCE" d="M176.902,321.669c0-1.289-1.045-2.334-2.332-2.334
					c-1.289,0-2.334,1.045-2.334,2.334c0,1.287,1.045,2.332,2.334,2.332C175.857,324.001,176.902,322.956,176.902,321.669z"/>
				<path id="path7125" fill="none" stroke="#2A8FCE" d="M174.57,319.335v-16.334"/>
			</g>
			<g id="g7127">
				<path id="path7129" fill="#C2DCF3" stroke="#2A8FCE" d="M171.552,321.669c0-1.289-1.045-2.334-2.333-2.334
					s-2.333,1.045-2.333,2.334c0,1.287,1.045,2.332,2.333,2.332C170.506,324.001,171.552,322.956,171.552,321.669z"/>
				<path id="path7131" fill="none" stroke="#2A8FCE" d="M169.219,319.335v-16.334"/>
			</g>
			<g id="g7133">
				<path id="path7135" fill="#C2DCF3" stroke="#2A8FCE" d="M166.201,321.669c0-1.289-1.045-2.334-2.332-2.334
					c-1.289,0-2.334,1.045-2.334,2.334c0,1.287,1.045,2.332,2.334,2.332C165.156,324.001,166.201,322.956,166.201,321.669z"/>
				<path id="path7137" fill="none" stroke="#2A8FCE" d="M163.869,319.335v-16.334"/>
			</g>
			<g id="g7139">
				<path id="path7141" fill="#C2DCF3" stroke="#2A8FCE" d="M192.952,321.669c0-1.289-1.045-2.334-2.332-2.334
					c-1.289,0-2.334,1.045-2.334,2.334c0,1.287,1.045,2.332,2.334,2.332C191.907,324.001,192.952,322.956,192.952,321.669z"/>
				<path id="path7143" fill="none" stroke="#2A8FCE" d="M190.62,319.335v-16.334"/>
			</g>
			<g id="g7145">
				<path id="path7147" fill="#C2DCF3" stroke="#2A8FCE" d="M187.603,321.669c0-1.289-1.044-2.334-2.333-2.334
					s-2.333,1.045-2.333,2.334c0,1.287,1.045,2.332,2.333,2.332S187.603,322.956,187.603,321.669z"/>
				<path id="path7149" fill="none" stroke="#2A8FCE" d="M185.27,319.335v-16.334"/>
			</g>
			<g id="g7151">
				<path id="path7153" fill="#C2DCF3" stroke="#2A8FCE" d="M182.252,321.669c0-1.289-1.045-2.334-2.332-2.334
					c-1.288,0-2.334,1.045-2.334,2.334c0,1.287,1.046,2.332,2.334,2.332C181.207,324.001,182.252,322.956,182.252,321.669z"/>
				<path id="path7155" fill="none" stroke="#2A8FCE" d="M179.919,319.335v-16.334"/>
			</g>
			<g id="g7157">
				<path id="path7159" fill="#C2DCF3" stroke="#2A8FCE" d="M179.578,298.767c0,1.287-1.045,2.333-2.334,2.333
					c-1.287,0-2.332-1.046-2.332-2.333c0-1.288,1.045-2.333,2.332-2.333C178.533,296.434,179.578,297.48,179.578,298.767z"/>
				<path id="path7161" fill="none" stroke="#2A8FCE" d="M177.244,301.1v16.335"/>
			</g>
			<g id="g7163">
				<path id="path7165" fill="#C2DCF3" stroke="#2A8FCE" d="M174.226,298.767c0,1.287-1.045,2.333-2.333,2.333
					s-2.333-1.046-2.333-2.333c0-1.288,1.045-2.333,2.333-2.333S174.226,297.48,174.226,298.767z"/>
				<path id="path7167" fill="none" stroke="#2A8FCE" d="M171.894,301.1v16.335"/>
			</g>
			<g id="g7169">
				<path id="path7171" fill="#C2DCF3" stroke="#2A8FCE" d="M168.877,298.767c0,1.287-1.045,2.333-2.334,2.333
					c-1.287,0-2.332-1.046-2.332-2.333c0-1.288,1.045-2.333,2.332-2.333C167.832,296.434,168.877,297.48,168.877,298.767z"/>
				<path id="path7173" fill="none" stroke="#2A8FCE" d="M166.543,301.1v16.335"/>
			</g>
			<g id="g7175">
				<path id="path7177" fill="#C2DCF3" stroke="#2A8FCE" d="M195.628,298.767c0,1.287-1.045,2.333-2.334,2.333
					c-1.287,0-2.332-1.046-2.332-2.333c0-1.288,1.045-2.333,2.332-2.333C194.583,296.434,195.628,297.48,195.628,298.767z"/>
				<path id="path7179" fill="none" stroke="#2A8FCE" d="M193.296,301.1v16.335"/>
			</g>
			<g id="g7181">
				<path id="path7183" fill="#C2DCF3" stroke="#2A8FCE" d="M190.278,298.767c0,1.287-1.045,2.333-2.334,2.333
					c-1.287,0-2.332-1.046-2.332-2.333c0-1.288,1.045-2.333,2.332-2.333C189.233,296.434,190.278,297.48,190.278,298.767z"/>
				<path id="path7185" fill="none" stroke="#2A8FCE" d="M187.944,301.1v16.335"/>
			</g>
			<g id="g7187">
				<path id="path7189" fill="#C2DCF3" stroke="#2A8FCE" d="M184.928,298.767c0,1.287-1.045,2.333-2.333,2.333
					s-2.333-1.046-2.333-2.333c0-1.288,1.045-2.333,2.333-2.333S184.928,297.48,184.928,298.767z"/>
				<path id="path7191" fill="none" stroke="#2A8FCE" d="M182.595,301.1v16.335"/>
			</g>
		</g>
		<g id="g7193">
			<g id="g7195">
				<path id="path7197" fill="#C2DCF3" stroke="#2A8FCE" d="M144.906,321.669c0-1.289-1.046-2.334-2.334-2.334
					c-1.287,0-2.332,1.045-2.332,2.334c0,1.287,1.045,2.332,2.332,2.332C143.86,324.001,144.906,322.956,144.906,321.669z"/>
				<path id="path7199" fill="none" stroke="#2A8FCE" d="M142.572,319.335v-16.334"/>
			</g>
			<g id="g7201">
				<path id="path7203" fill="#C2DCF3" stroke="#2A8FCE" d="M139.555,321.669c0-1.289-1.045-2.334-2.333-2.334
					s-2.333,1.045-2.333,2.334c0,1.287,1.045,2.332,2.333,2.332S139.555,322.956,139.555,321.669z"/>
				<path id="path7205" fill="none" stroke="#2A8FCE" d="M137.222,319.335v-16.334"/>
			</g>
			<g id="g7207">
				<path id="path7209" fill="#C2DCF3" stroke="#2A8FCE" d="M134.205,321.669c0-1.289-1.045-2.334-2.333-2.334
					c-1.288,0-2.333,1.045-2.333,2.334c0,1.287,1.045,2.332,2.333,2.332C133.16,324.001,134.205,322.956,134.205,321.669z"/>
				<path id="path7211" fill="none" stroke="#2A8FCE" d="M131.871,319.335v-16.334"/>
			</g>
			<g id="g7213">
				<path id="path7215" fill="#C2DCF3" stroke="#2A8FCE" d="M160.957,321.669c0-1.289-1.045-2.334-2.332-2.334
					c-1.289,0-2.334,1.045-2.334,2.334c0,1.287,1.045,2.332,2.334,2.332C159.912,324.001,160.957,322.956,160.957,321.669z"/>
				<path id="path7217" fill="none" stroke="#2A8FCE" d="M158.625,319.335v-16.334"/>
			</g>
			<g id="g7219">
				<path id="path7221" fill="#C2DCF3" stroke="#2A8FCE" d="M155.606,321.669c0-1.289-1.045-2.334-2.333-2.334
					s-2.333,1.045-2.333,2.334c0,1.287,1.045,2.332,2.333,2.332S155.606,322.956,155.606,321.669z"/>
				<path id="path7223" fill="none" stroke="#2A8FCE" d="M153.273,319.335v-16.334"/>
			</g>
			<g id="g7225">
				<path id="path7227" fill="#C2DCF3" stroke="#2A8FCE" d="M150.256,321.669c0-1.289-1.046-2.334-2.333-2.334
					c-1.288,0-2.333,1.045-2.333,2.334c0,1.287,1.045,2.332,2.333,2.332C149.211,324.001,150.256,322.956,150.256,321.669z"/>
				<path id="path7229" fill="none" stroke="#2A8FCE" d="M147.923,319.335v-16.334"/>
			</g>
			<g id="g7231">
				<path id="path7233" fill="#C2DCF3" stroke="#2A8FCE" d="M147.58,298.767c0,1.287-1.045,2.333-2.332,2.333
					c-1.289,0-2.334-1.046-2.334-2.333c0-1.288,1.045-2.333,2.334-2.333C146.535,296.434,147.58,297.48,147.58,298.767z"/>
				<path id="path7235" fill="none" stroke="#2A8FCE" d="M145.248,301.1v16.335"/>
			</g>
			<g id="g7237">
				<path id="path7239" fill="#C2DCF3" stroke="#2A8FCE" d="M142.23,298.767c0,1.287-1.045,2.333-2.333,2.333
					s-2.333-1.046-2.333-2.333c0-1.288,1.045-2.333,2.333-2.333S142.23,297.48,142.23,298.767z"/>
				<path id="path7241" fill="none" stroke="#2A8FCE" d="M139.897,301.1v16.335"/>
			</g>
			<g id="g7243">
				<path id="path7245" fill="#C2DCF3" stroke="#2A8FCE" d="M136.88,298.767c0,1.287-1.045,2.333-2.334,2.333
					c-1.287,0-2.332-1.046-2.332-2.333c0-1.288,1.045-2.333,2.332-2.333C135.836,296.434,136.88,297.48,136.88,298.767z"/>
				<path id="path7247" fill="none" stroke="#2A8FCE" d="M134.546,301.1v16.335"/>
			</g>
			<g id="g7249">
				<path id="path7251" fill="#C2DCF3" stroke="#2A8FCE" d="M163.632,298.767c0,1.287-1.045,2.333-2.333,2.333
					s-2.333-1.046-2.333-2.333c0-1.288,1.045-2.333,2.333-2.333S163.632,297.48,163.632,298.767z"/>
				<path id="path7253" fill="none" stroke="#2A8FCE" d="M161.299,301.1v16.335"/>
			</g>
			<g id="g7255">
				<path id="path7257" fill="#C2DCF3" stroke="#2A8FCE" d="M158.283,298.767c0,1.287-1.045,2.333-2.334,2.333
					c-1.287,0-2.332-1.046-2.332-2.333c0-1.288,1.045-2.333,2.332-2.333C157.238,296.434,158.283,297.48,158.283,298.767z"/>
				<path id="path7259" fill="none" stroke="#2A8FCE" d="M155.949,301.1v16.335"/>
			</g>
			<g id="g7261">
				<path id="path7263" fill="#C2DCF3" stroke="#2A8FCE" d="M152.931,298.767c0,1.287-1.045,2.333-2.333,2.333
					s-2.333-1.046-2.333-2.333c0-1.288,1.045-2.333,2.333-2.333S152.931,297.48,152.931,298.767z"/>
				<path id="path7265" fill="none" stroke="#2A8FCE" d="M150.598,301.1v16.335"/>
			</g>
		</g>
		<g id="g7267">
			<g id="g7269">
				<path id="path7271" fill="#C2DCF3" stroke="#2A8FCE" d="M112.909,321.669c0-1.289-1.045-2.334-2.333-2.334
					s-2.333,1.045-2.333,2.334c0,1.287,1.045,2.332,2.333,2.332S112.909,322.956,112.909,321.669z"/>
				<path id="path7273" fill="none" stroke="#2A8FCE" d="M110.576,319.335v-16.334"/>
			</g>
			<g id="g7275">
				<path id="path7277" fill="#C2DCF3" stroke="#2A8FCE" d="M107.558,321.669c0-1.289-1.045-2.334-2.333-2.334
					s-2.333,1.045-2.333,2.334c0,1.287,1.045,2.332,2.333,2.332S107.558,322.956,107.558,321.669z"/>
				<path id="path7279" fill="none" stroke="#2A8FCE" d="M105.225,319.335v-16.334"/>
			</g>
			<g id="g7281">
				<path id="path7283" fill="#C2DCF3" stroke="#2A8FCE" d="M102.208,321.669c0-1.289-1.045-2.334-2.333-2.334
					s-2.333,1.045-2.333,2.334c0,1.287,1.045,2.332,2.333,2.332S102.208,322.956,102.208,321.669z"/>
				<path id="path7285" fill="none" stroke="#2A8FCE" d="M99.875,319.335v-16.334"/>
			</g>
			<g id="g7287">
				<path id="path7289" fill="#C2DCF3" stroke="#2A8FCE" d="M128.96,321.669c0-1.289-1.045-2.334-2.333-2.334
					s-2.333,1.045-2.333,2.334c0,1.287,1.045,2.332,2.333,2.332S128.96,322.956,128.96,321.669z"/>
				<path id="path7291" fill="none" stroke="#2A8FCE" d="M126.627,319.335v-16.334"/>
			</g>
			<g id="g7293">
				<path id="path7295" fill="#C2DCF3" stroke="#2A8FCE" d="M123.61,321.669c0-1.289-1.045-2.334-2.333-2.334
					c-1.288,0-2.333,1.045-2.333,2.334c0,1.287,1.045,2.332,2.333,2.332C122.565,324.001,123.61,322.956,123.61,321.669z"/>
				<path id="path7297" fill="none" stroke="#2A8FCE" d="M121.277,319.335v-16.334"/>
			</g>
			<g id="g7299">
				<path id="path7301" fill="#C2DCF3" stroke="#2A8FCE" d="M118.259,321.669c0-1.289-1.045-2.334-2.333-2.334
					c-1.288,0-2.333,1.045-2.333,2.334c0,1.287,1.045,2.332,2.333,2.332C117.214,324.001,118.259,322.956,118.259,321.669z"/>
				<path id="path7303" fill="none" stroke="#2A8FCE" d="M115.926,319.335v-16.334"/>
			</g>
			<g id="g7305">
				<path id="path7307" fill="#C2DCF3" stroke="#2A8FCE" d="M115.584,298.767c0,1.287-1.045,2.333-2.333,2.333
					s-2.333-1.046-2.333-2.333c0-1.288,1.045-2.333,2.333-2.333S115.584,297.48,115.584,298.767z"/>
				<path id="path7309" fill="none" stroke="#2A8FCE" d="M113.251,301.1v16.335"/>
			</g>
			<g id="g7311">
				<path id="path7313" fill="#C2DCF3" stroke="#2A8FCE" d="M110.233,298.767c0,1.287-1.045,2.333-2.333,2.333
					c-1.288,0-2.333-1.046-2.333-2.333c0-1.288,1.045-2.333,2.333-2.333C109.188,296.434,110.233,297.48,110.233,298.767z"/>
				<path id="path7315" fill="none" stroke="#2A8FCE" d="M107.9,301.1v16.335"/>
			</g>
			<g id="g7317">
				<path id="path7319" fill="#C2DCF3" stroke="#2A8FCE" d="M104.883,298.767c0,1.287-1.045,2.333-2.333,2.333
					c-1.288,0-2.333-1.046-2.333-2.333c0-1.288,1.045-2.333,2.333-2.333C103.838,296.434,104.883,297.48,104.883,298.767z"/>
				<path id="path7321" fill="none" stroke="#2A8FCE" d="M102.55,301.1v16.335"/>
			</g>
			<g id="g7323">
				<path id="path7325" fill="#C2DCF3" stroke="#2A8FCE" d="M131.635,298.767c0,1.287-1.045,2.333-2.333,2.333
					s-2.333-1.046-2.333-2.333c0-1.288,1.045-2.333,2.333-2.333S131.635,297.48,131.635,298.767z"/>
				<path id="path7327" fill="none" stroke="#2A8FCE" d="M129.303,301.1v16.335"/>
			</g>
			<g id="g7329">
				<path id="path7331" fill="#C2DCF3" stroke="#2A8FCE" d="M126.285,298.767c0,1.287-1.045,2.333-2.333,2.333
					s-2.333-1.046-2.333-2.333c0-1.288,1.045-2.333,2.333-2.333S126.285,297.48,126.285,298.767z"/>
				<path id="path7333" fill="none" stroke="#2A8FCE" d="M123.952,301.1v16.335"/>
			</g>
			<g id="g7335">
				<path id="path7337" fill="#C2DCF3" stroke="#2A8FCE" d="M120.934,298.767c0,1.287-1.045,2.333-2.333,2.333
					s-2.333-1.046-2.333-2.333c0-1.288,1.045-2.333,2.333-2.333S120.934,297.48,120.934,298.767z"/>
				<path id="path7339" fill="none" stroke="#2A8FCE" d="M118.601,301.1v16.335"/>
			</g>
		</g>
		<g id="g7341">
			<g id="g7343">
				<path id="path7345" fill="#C2DCF3" stroke="#2A8FCE" d="M80.912,321.669c0-1.289-1.045-2.334-2.333-2.334
					s-2.333,1.045-2.333,2.334c0,1.287,1.045,2.332,2.333,2.332S80.912,322.956,80.912,321.669z"/>
				<path id="path7347" fill="none" stroke="#2A8FCE" d="M78.579,319.335v-16.334"/>
			</g>
			<g id="g7349">
				<path id="path7351" fill="#C2DCF3" stroke="#2A8FCE" d="M75.562,321.669c0-1.289-1.045-2.334-2.333-2.334
					s-2.333,1.045-2.333,2.334c0,1.287,1.045,2.332,2.333,2.332C74.516,324.001,75.562,322.956,75.562,321.669z"/>
				<path id="path7353" fill="none" stroke="#2A8FCE" d="M73.229,319.335v-16.334"/>
			</g>
			<g id="g7355">
				<path id="path7357" fill="#C2DCF3" stroke="#2A8FCE" d="M70.211,321.669c0-1.289-1.045-2.334-2.333-2.334
					c-1.288,0-2.333,1.045-2.333,2.334c0,1.287,1.045,2.332,2.333,2.332C69.166,324.001,70.211,322.956,70.211,321.669z"/>
				<path id="path7359" fill="none" stroke="#2A8FCE" d="M67.878,319.335v-16.334"/>
			</g>
			<g id="g7361">
				<path id="path7363" fill="#C2DCF3" stroke="#2A8FCE" d="M96.964,321.669c0-1.289-1.045-2.334-2.333-2.334
					c-1.288,0-2.333,1.045-2.333,2.334c0,1.287,1.045,2.332,2.333,2.332C95.919,324.001,96.964,322.956,96.964,321.669z"/>
				<path id="path7365" fill="none" stroke="#2A8FCE" d="M94.631,319.335v-16.334"/>
			</g>
			<g id="g7367">
				<path id="path7369" fill="#C2DCF3" stroke="#2A8FCE" d="M91.613,321.669c0-1.289-1.045-2.334-2.333-2.334
					c-1.288,0-2.333,1.045-2.333,2.334c0,1.287,1.045,2.332,2.333,2.332C90.568,324.001,91.613,322.956,91.613,321.669z"/>
				<path id="path7371" fill="none" stroke="#2A8FCE" d="M89.28,319.335v-16.334"/>
			</g>
			<g id="g7373">
				<path id="path7375" fill="#C2DCF3" stroke="#2A8FCE" d="M86.263,321.669c0-1.289-1.045-2.334-2.333-2.334
					s-2.333,1.045-2.333,2.334c0,1.287,1.045,2.332,2.333,2.332S86.263,322.956,86.263,321.669z"/>
				<path id="path7377" fill="none" stroke="#2A8FCE" d="M83.93,319.335v-16.334"/>
			</g>
			<g id="g7379">
				<path id="path7381" fill="#C2DCF3" stroke="#2A8FCE" d="M83.587,298.767c0,1.287-1.045,2.333-2.333,2.333
					c-1.288,0-2.333-1.046-2.333-2.333c0-1.288,1.045-2.333,2.333-2.333C82.542,296.434,83.587,297.48,83.587,298.767z"/>
				<path id="path7383" fill="none" stroke="#2A8FCE" d="M81.254,301.1v16.335"/>
			</g>
			<g id="g7385">
				<path id="path7387" fill="#C2DCF3" stroke="#2A8FCE" d="M78.237,298.767c0,1.287-1.045,2.333-2.333,2.333
					c-1.288,0-2.333-1.046-2.333-2.333c0-1.288,1.045-2.333,2.333-2.333C77.192,296.434,78.237,297.48,78.237,298.767z"/>
				<path id="path7389" fill="none" stroke="#2A8FCE" d="M75.904,301.1v16.335"/>
			</g>
			<g id="g7391">
				<path id="path7393" fill="#C2DCF3" stroke="#2A8FCE" d="M72.887,298.767c0,1.287-1.045,2.333-2.333,2.333
					s-2.333-1.046-2.333-2.333c0-1.288,1.045-2.333,2.333-2.333S72.887,297.48,72.887,298.767z"/>
				<path id="path7395" fill="none" stroke="#2A8FCE" d="M70.554,301.1v16.335"/>
			</g>
			<g id="g7397">
				<path id="path7399" fill="#C2DCF3" stroke="#2A8FCE" d="M99.639,298.767c0,1.287-1.045,2.333-2.333,2.333
					s-2.333-1.046-2.333-2.333c0-1.288,1.045-2.333,2.333-2.333S99.639,297.48,99.639,298.767z"/>
				<path id="path7401" fill="none" stroke="#2A8FCE" d="M97.306,301.1v16.335"/>
			</g>
			<g id="g7403">
				<path id="path7405" fill="#C2DCF3" stroke="#2A8FCE" d="M94.288,298.767c0,1.287-1.045,2.333-2.333,2.333
					s-2.333-1.046-2.333-2.333c0-1.288,1.045-2.333,2.333-2.333S94.288,297.48,94.288,298.767z"/>
				<path id="path7407" fill="none" stroke="#2A8FCE" d="M91.955,301.1v16.335"/>
			</g>
			<g id="g7409">
				<path id="path7411" fill="#C2DCF3" stroke="#2A8FCE" d="M88.938,298.767c0,1.287-1.045,2.333-2.333,2.333
					s-2.333-1.046-2.333-2.333c0-1.288,1.045-2.333,2.333-2.333S88.938,297.48,88.938,298.767z"/>
				<path id="path7413" fill="none" stroke="#2A8FCE" d="M86.605,301.1v16.335"/>
			</g>
		</g>
		<g id="g7415">
			<g id="g7417">
				<path id="path7419" fill="#C2DCF3" stroke="#2A8FCE" d="M48.915,321.669c0-1.289-1.045-2.334-2.333-2.334
					s-2.333,1.045-2.333,2.334c0,1.287,1.045,2.332,2.333,2.332S48.915,322.956,48.915,321.669z"/>
				<path id="path7421" fill="none" stroke="#2A8FCE" d="M46.582,319.335v-16.334"/>
			</g>
			<g id="g7423">
				<path id="path7425" fill="#C2DCF3" stroke="#2A8FCE" d="M43.565,321.669c0-1.289-1.045-2.334-2.333-2.334
					c-1.288,0-2.333,1.045-2.333,2.334c0,1.287,1.045,2.332,2.333,2.332C42.52,324.001,43.565,322.956,43.565,321.669z"/>
				<path id="path7427" fill="none" stroke="#2A8FCE" d="M41.232,319.335v-16.334"/>
			</g>
			<g id="g7429">
				<path id="path7431" fill="#C2DCF3" stroke="#2A8FCE" d="M38.215,321.669c0-1.289-1.045-2.334-2.333-2.334
					c-1.288,0-2.333,1.045-2.333,2.334c0,1.287,1.045,2.332,2.333,2.332C37.17,324.001,38.215,322.956,38.215,321.669z"/>
				<path id="path7433" fill="none" stroke="#2A8FCE" d="M35.882,319.335v-16.334"/>
			</g>
			<g id="g7435">
				<path id="path7437" fill="#C2DCF3" stroke="#2A8FCE" d="M64.967,321.669c0-1.289-1.045-2.334-2.333-2.334
					c-1.288,0-2.333,1.045-2.333,2.334c0,1.287,1.045,2.332,2.333,2.332C63.922,324.001,64.967,322.956,64.967,321.669z"/>
				<path id="path7439" fill="none" stroke="#2A8FCE" d="M62.634,319.335v-16.334"/>
			</g>
			<g id="g7441">
				<path id="path7443" fill="#C2DCF3" stroke="#2A8FCE" d="M59.617,321.669c0-1.289-1.045-2.334-2.333-2.334
					s-2.333,1.045-2.333,2.334c0,1.287,1.045,2.332,2.333,2.332S59.617,322.956,59.617,321.669z"/>
				<path id="path7445" fill="none" stroke="#2A8FCE" d="M57.284,319.335v-16.334"/>
			</g>
			<g id="g7447">
				<path id="path7449" fill="#C2DCF3" stroke="#2A8FCE" d="M54.266,321.669c0-1.289-1.045-2.334-2.333-2.334
					s-2.333,1.045-2.333,2.334c0,1.287,1.045,2.332,2.333,2.332S54.266,322.956,54.266,321.669z"/>
				<path id="path7451" fill="none" stroke="#2A8FCE" d="M51.933,319.335v-16.334"/>
			</g>
			<g id="g7453">
				<path id="path7455" fill="#C2DCF3" stroke="#2A8FCE" d="M51.591,298.767c0,1.287-1.045,2.333-2.333,2.333
					c-1.288,0-2.333-1.046-2.333-2.333c0-1.288,1.045-2.333,2.333-2.333C50.546,296.434,51.591,297.48,51.591,298.767z"/>
				<path id="path7457" fill="none" stroke="#2A8FCE" d="M49.258,301.1v16.335"/>
			</g>
			<g id="g7459">
				<path id="path7461" fill="#C2DCF3" stroke="#2A8FCE" d="M46.24,298.767c0,1.287-1.045,2.333-2.333,2.333
					s-2.333-1.046-2.333-2.333c0-1.288,1.045-2.333,2.333-2.333S46.24,297.48,46.24,298.767z"/>
				<path id="path7463" fill="none" stroke="#2A8FCE" d="M43.907,301.1v16.335"/>
			</g>
			<g id="g7465">
				<path id="path7467" fill="#C2DCF3" stroke="#2A8FCE" d="M40.89,298.767c0,1.287-1.045,2.333-2.333,2.333
					s-2.333-1.046-2.333-2.333c0-1.288,1.045-2.333,2.333-2.333S40.89,297.48,40.89,298.767z"/>
				<path id="path7469" fill="none" stroke="#2A8FCE" d="M38.557,301.1v16.335"/>
			</g>
			<g id="g7471">
				<path id="path7473" fill="#C2DCF3" stroke="#2A8FCE" d="M67.642,298.767c0,1.287-1.045,2.333-2.333,2.333
					s-2.333-1.046-2.333-2.333c0-1.288,1.045-2.333,2.333-2.333S67.642,297.48,67.642,298.767z"/>
				<path id="path7475" fill="none" stroke="#2A8FCE" d="M65.309,301.1v16.335"/>
			</g>
			<g id="g7477">
				<path id="path7479" fill="#C2DCF3" stroke="#2A8FCE" d="M62.292,298.767c0,1.287-1.045,2.333-2.333,2.333
					s-2.333-1.046-2.333-2.333c0-1.288,1.045-2.333,2.333-2.333S62.292,297.48,62.292,298.767z"/>
				<path id="path7481" fill="none" stroke="#2A8FCE" d="M59.959,301.1v16.335"/>
			</g>
			<g id="g7483">
				<path id="path7485" fill="#C2DCF3" stroke="#2A8FCE" d="M56.941,298.767c0,1.287-1.045,2.333-2.333,2.333
					c-1.288,0-2.333-1.046-2.333-2.333c0-1.288,1.045-2.333,2.333-2.333C55.896,296.434,56.941,297.48,56.941,298.767z"/>
				<path id="path7487" fill="none" stroke="#2A8FCE" d="M54.608,301.1v16.335"/>
			</g>
		</g>
	</g>
	<g id="g59398_1_" transform="translate(21.16987,-31.23187)">
		<g id="g7045_1_">
			<g id="g7047_1_">
				<path id="path7049_1_" fill="#C2DCF3" stroke="#2A8FCE" d="M400.267,321.667c0-1.287-1.045-2.332-2.333-2.332
					s-2.333,1.045-2.333,2.332c0,1.289,1.045,2.334,2.333,2.334S400.267,322.956,400.267,321.667z"/>
				<path id="path7051_1_" fill="none" stroke="#2A8FCE" d="M397.934,319.335v-16.334"/>
			</g>
			<g id="g7053_1_">
				<path id="path7055_1_" fill="#C2DCF3" stroke="#2A8FCE" d="M394.917,321.667c0-1.287-1.045-2.332-2.333-2.332
					s-2.333,1.045-2.333,2.332c0,1.289,1.045,2.334,2.333,2.334S394.917,322.956,394.917,321.667z"/>
				<path id="path7057_1_" fill="none" stroke="#2A8FCE" d="M392.584,319.335v-16.334"/>
			</g>
			<g id="g7059_1_">
				<path id="path7061_1_" fill="#C2DCF3" stroke="#2A8FCE" d="M389.567,321.667c0-1.287-1.045-2.332-2.334-2.332
					c-1.287,0-2.332,1.045-2.332,2.332c0,1.289,1.045,2.334,2.332,2.334C388.523,324.001,389.567,322.956,389.567,321.667z"/>
				<path id="path7063_1_" fill="none" stroke="#2A8FCE" d="M387.233,319.335v-16.334"/>
			</g>
			<g id="g7065_1_">
				<path id="path7067_1_" fill="#C2DCF3" stroke="#2A8FCE" d="M416.319,321.667c0-1.287-1.045-2.332-2.334-2.332
					c-1.287,0-2.332,1.045-2.332,2.332c0,1.289,1.045,2.334,2.332,2.334C415.274,324.001,416.319,322.956,416.319,321.667z"/>
				<path id="path7069_1_" fill="none" stroke="#2A8FCE" d="M413.985,319.335v-16.334"/>
			</g>
			<g id="g7071_1_">
				<path id="path7073_1_" fill="#C2DCF3" stroke="#2A8FCE" d="M410.968,321.667c0-1.287-1.045-2.332-2.333-2.332
					s-2.333,1.045-2.333,2.332c0,1.289,1.045,2.334,2.333,2.334S410.968,322.956,410.968,321.667z"/>
				<path id="path7075_1_" fill="none" stroke="#2A8FCE" d="M408.635,319.335v-16.334"/>
			</g>
			<g id="g7077_1_">
				<path id="path7079_1_" fill="#C2DCF3" stroke="#2A8FCE" d="M405.618,321.667c0-1.287-1.045-2.332-2.334-2.332
					c-1.287,0-2.332,1.045-2.332,2.332c0,1.289,1.045,2.334,2.332,2.334C404.573,324.001,405.618,322.956,405.618,321.667z"/>
				<path id="path7081_1_" fill="none" stroke="#2A8FCE" d="M403.284,319.335v-16.334"/>
			</g>
			<g id="g7083_1_">
				<path id="path7085_1_" fill="#C2DCF3" stroke="#2A8FCE" d="M402.942,298.767c0,1.287-1.045,2.333-2.332,2.333
					c-1.289,0-2.334-1.046-2.334-2.333c0-1.288,1.045-2.333,2.334-2.333C401.898,296.434,402.942,297.48,402.942,298.767z"/>
				<path id="path7087_1_" fill="none" stroke="#2A8FCE" d="M400.61,301.1v16.335"/>
			</g>
			<g id="g7089_1_">
				<path id="path7091_1_" fill="#C2DCF3" stroke="#2A8FCE" d="M397.592,298.767c0,1.287-1.045,2.333-2.333,2.333
					s-2.333-1.046-2.333-2.333c0-1.288,1.045-2.333,2.333-2.333S397.592,297.48,397.592,298.767z"/>
				<path id="path7093_1_" fill="none" stroke="#2A8FCE" d="M395.259,301.1v16.335"/>
			</g>
			<g id="g7095_1_">
				<path id="path7097_1_" fill="#C2DCF3" stroke="#2A8FCE" d="M392.241,298.767c0,1.287-1.045,2.333-2.332,2.333
					c-1.289,0-2.334-1.046-2.334-2.333c0-1.288,1.045-2.333,2.334-2.333C391.196,296.434,392.241,297.48,392.241,298.767z"/>
				<path id="path7099_1_" fill="none" stroke="#2A8FCE" d="M389.909,301.1v16.335"/>
			</g>
			<g id="g7101_1_">
				<path id="path7103_1_" fill="#C2DCF3" stroke="#2A8FCE" d="M418.993,298.767c0,1.287-1.045,2.333-2.332,2.333
					c-1.289,0-2.334-1.046-2.334-2.333c0-1.288,1.045-2.333,2.334-2.333C417.948,296.434,418.993,297.48,418.993,298.767z"/>
				<path id="path7105_1_" fill="none" stroke="#2A8FCE" d="M416.661,301.1v16.335"/>
			</g>
			<g id="g7107_1_">
				<path id="path7109_1_" fill="#C2DCF3" stroke="#2A8FCE" d="M413.644,298.767c0,1.287-1.045,2.333-2.333,2.333
					s-2.333-1.046-2.333-2.333c0-1.288,1.045-2.333,2.333-2.333S413.644,297.48,413.644,298.767z"/>
				<path id="path7111_1_" fill="none" stroke="#2A8FCE" d="M411.311,301.1v16.335"/>
			</g>
			<g id="g7113_1_">
				<path id="path7115_1_" fill="#C2DCF3" stroke="#2A8FCE" d="M408.293,298.767c0,1.287-1.046,2.333-2.333,2.333
					c-1.288,0-2.333-1.046-2.333-2.333c0-1.288,1.045-2.333,2.333-2.333C407.247,296.434,408.293,297.48,408.293,298.767z"/>
				<path id="path7117_1_" fill="none" stroke="#2A8FCE" d="M405.96,301.1v16.335"/>
			</g>
		</g>
		<g id="g7119_1_">
			<g id="g7121_1_">
				<path id="path7123_1_" fill="#C2DCF3" stroke="#2A8FCE" d="M368.271,321.667c0-1.287-1.045-2.332-2.332-2.332
					c-1.289,0-2.334,1.045-2.334,2.332c0,1.289,1.045,2.334,2.334,2.334C367.226,324.001,368.271,322.956,368.271,321.667z"/>
				<path id="path7125_1_" fill="none" stroke="#2A8FCE" d="M365.939,319.335v-16.334"/>
			</g>
			<g id="g7127_1_">
				<path id="path7129_1_" fill="#C2DCF3" stroke="#2A8FCE" d="M362.921,321.667c0-1.287-1.045-2.332-2.333-2.332
					s-2.333,1.045-2.333,2.332c0,1.289,1.045,2.334,2.333,2.334C361.875,324.001,362.921,322.956,362.921,321.667z"/>
				<path id="path7131_1_" fill="none" stroke="#2A8FCE" d="M360.588,319.335v-16.334"/>
			</g>
			<g id="g7133_1_">
				<path id="path7135_1_" fill="#C2DCF3" stroke="#2A8FCE" d="M357.569,321.667c0-1.287-1.045-2.332-2.332-2.332
					c-1.289,0-2.334,1.045-2.334,2.332c0,1.289,1.045,2.334,2.334,2.334C356.524,324.001,357.569,322.956,357.569,321.667z"/>
				<path id="path7137_1_" fill="none" stroke="#2A8FCE" d="M355.237,319.335v-16.334"/>
			</g>
			<g id="g7139_1_">
				<path id="path7141_1_" fill="#C2DCF3" stroke="#2A8FCE" d="M384.321,321.667c0-1.287-1.045-2.332-2.332-2.332
					c-1.289,0-2.334,1.045-2.334,2.332c0,1.289,1.045,2.334,2.334,2.334C383.276,324.001,384.321,322.956,384.321,321.667z"/>
				<path id="path7143_1_" fill="none" stroke="#2A8FCE" d="M381.989,319.335v-16.334"/>
			</g>
			<g id="g7145_1_">
				<path id="path7147_1_" fill="#C2DCF3" stroke="#2A8FCE" d="M378.972,321.667c0-1.287-1.045-2.332-2.333-2.332
					s-2.333,1.045-2.333,2.332c0,1.289,1.045,2.334,2.333,2.334S378.972,322.956,378.972,321.667z"/>
				<path id="path7149_1_" fill="none" stroke="#2A8FCE" d="M376.639,319.335v-16.334"/>
			</g>
			<g id="g7151_1_">
				<path id="path7153_1_" fill="#C2DCF3" stroke="#2A8FCE" d="M373.62,321.667c0-1.287-1.045-2.332-2.332-2.332
					c-1.288,0-2.334,1.045-2.334,2.332c0,1.289,1.046,2.334,2.334,2.334C372.575,324.001,373.62,322.956,373.62,321.667z"/>
				<path id="path7155_1_" fill="none" stroke="#2A8FCE" d="M371.288,319.335v-16.334"/>
			</g>
			<g id="g7157_1_">
				<path id="path7159_1_" fill="#C2DCF3" stroke="#2A8FCE" d="M370.946,298.767c0,1.287-1.045,2.333-2.334,2.333
					c-1.287,0-2.332-1.046-2.332-2.333c0-1.288,1.045-2.333,2.332-2.333C369.901,296.434,370.946,297.48,370.946,298.767z"/>
				<path id="path7161_1_" fill="none" stroke="#2A8FCE" d="M368.612,301.1v16.335"/>
			</g>
			<g id="g7163_1_">
				<path id="path7165_1_" fill="#C2DCF3" stroke="#2A8FCE" d="M365.595,298.767c0,1.287-1.045,2.333-2.333,2.333
					s-2.333-1.046-2.333-2.333c0-1.288,1.045-2.333,2.333-2.333S365.595,297.48,365.595,298.767z"/>
				<path id="path7167_1_" fill="none" stroke="#2A8FCE" d="M363.263,301.1v16.335"/>
			</g>
			<g id="g7169_1_">
				<path id="path7171_1_" fill="#C2DCF3" stroke="#2A8FCE" d="M360.245,298.767c0,1.287-1.045,2.333-2.334,2.333
					c-1.287,0-2.332-1.046-2.332-2.333c0-1.288,1.045-2.333,2.332-2.333C359.2,296.434,360.245,297.48,360.245,298.767z"/>
				<path id="path7173_1_" fill="none" stroke="#2A8FCE" d="M357.911,301.1v16.335"/>
			</g>
			<g id="g7175_1_">
				<path id="path7177_1_" fill="#C2DCF3" stroke="#2A8FCE" d="M386.997,298.767c0,1.287-1.045,2.333-2.334,2.333
					c-1.287,0-2.332-1.046-2.332-2.333c0-1.288,1.045-2.333,2.332-2.333C385.952,296.434,386.997,297.48,386.997,298.767z"/>
				<path id="path7179_1_" fill="none" stroke="#2A8FCE" d="M384.665,301.1v16.335"/>
			</g>
			<g id="g7181_1_">
				<path id="path7183_1_" fill="#C2DCF3" stroke="#2A8FCE" d="M381.648,298.767c0,1.287-1.046,2.333-2.334,2.333
					c-1.287,0-2.332-1.046-2.332-2.333c0-1.288,1.045-2.333,2.332-2.333C380.602,296.434,381.648,297.48,381.648,298.767z"/>
				<path id="path7185_1_" fill="none" stroke="#2A8FCE" d="M379.314,301.1v16.335"/>
			</g>
			<g id="g7187_1_">
				<path id="path7189_1_" fill="#C2DCF3" stroke="#2A8FCE" d="M376.297,298.767c0,1.287-1.045,2.333-2.333,2.333
					s-2.333-1.046-2.333-2.333c0-1.288,1.045-2.333,2.333-2.333S376.297,297.48,376.297,298.767z"/>
				<path id="path7191_1_" fill="none" stroke="#2A8FCE" d="M373.964,301.1v16.335"/>
			</g>
		</g>
		<g id="g7193_1_">
			<g id="g7195_1_">
				<path id="path7197_1_" fill="#C2DCF3" stroke="#2A8FCE" d="M336.274,321.667c0-1.287-1.046-2.332-2.334-2.332
					c-1.287,0-2.332,1.045-2.332,2.332c0,1.289,1.045,2.334,2.332,2.334C335.229,324.001,336.274,322.956,336.274,321.667z"/>
				<path id="path7199_1_" fill="none" stroke="#2A8FCE" d="M333.94,319.335v-16.334"/>
			</g>
			<g id="g7201_1_">
				<path id="path7203_1_" fill="#C2DCF3" stroke="#2A8FCE" d="M330.924,321.667c0-1.287-1.045-2.332-2.333-2.332
					s-2.333,1.045-2.333,2.332c0,1.289,1.045,2.334,2.333,2.334S330.924,322.956,330.924,321.667z"/>
				<path id="path7205_1_" fill="none" stroke="#2A8FCE" d="M328.591,319.335v-16.334"/>
			</g>
			<g id="g7207_1_">
				<path id="path7209_1_" fill="#C2DCF3" stroke="#2A8FCE" d="M325.573,321.667c0-1.287-1.045-2.332-2.334-2.332
					c-1.287,0-2.332,1.045-2.332,2.332c0,1.289,1.045,2.334,2.332,2.334C324.528,324.001,325.573,322.956,325.573,321.667z"/>
				<path id="path7211_1_" fill="none" stroke="#2A8FCE" d="M323.239,319.335v-16.334"/>
			</g>
			<g id="g7213_1_">
				<path id="path7215_1_" fill="#C2DCF3" stroke="#2A8FCE" d="M352.325,321.667c0-1.287-1.045-2.332-2.332-2.332
					c-1.289,0-2.334,1.045-2.334,2.332c0,1.289,1.045,2.334,2.334,2.334C351.28,324.001,352.325,322.956,352.325,321.667z"/>
				<path id="path7217_1_" fill="none" stroke="#2A8FCE" d="M349.993,319.335v-16.334"/>
			</g>
			<g id="g7219_1_">
				<path id="path7221_1_" fill="#C2DCF3" stroke="#2A8FCE" d="M346.975,321.667c0-1.287-1.045-2.332-2.333-2.332
					s-2.333,1.045-2.333,2.332c0,1.289,1.045,2.334,2.333,2.334S346.975,322.956,346.975,321.667z"/>
				<path id="path7223_1_" fill="none" stroke="#2A8FCE" d="M344.642,319.335v-16.334"/>
			</g>
			<g id="g7225_1_">
				<path id="path7227_1_" fill="#C2DCF3" stroke="#2A8FCE" d="M341.625,321.667c0-1.287-1.046-2.332-2.333-2.332
					c-1.288,0-2.333,1.045-2.333,2.332c0,1.289,1.045,2.334,2.333,2.334C340.579,324.001,341.625,322.956,341.625,321.667z"/>
				<path id="path7229_1_" fill="none" stroke="#2A8FCE" d="M339.292,319.335v-16.334"/>
			</g>
			<g id="g7231_1_">
				<path id="path7233_1_" fill="#C2DCF3" stroke="#2A8FCE" d="M338.948,298.767c0,1.287-1.045,2.333-2.332,2.333
					c-1.289,0-2.334-1.046-2.334-2.333c0-1.288,1.045-2.333,2.334-2.333C337.903,296.434,338.948,297.48,338.948,298.767z"/>
				<path id="path7235_1_" fill="none" stroke="#2A8FCE" d="M336.616,301.1v16.335"/>
			</g>
			<g id="g7237_1_">
				<path id="path7239_1_" fill="#C2DCF3" stroke="#2A8FCE" d="M333.599,298.767c0,1.287-1.045,2.333-2.333,2.333
					s-2.333-1.046-2.333-2.333c0-1.288,1.045-2.333,2.333-2.333S333.599,297.48,333.599,298.767z"/>
				<path id="path7241_1_" fill="none" stroke="#2A8FCE" d="M331.266,301.1v16.335"/>
			</g>
			<g id="g7243_1_">
				<path id="path7245_1_" fill="#C2DCF3" stroke="#2A8FCE" d="M328.249,298.767c0,1.287-1.045,2.333-2.334,2.333
					c-1.287,0-2.332-1.046-2.332-2.333c0-1.288,1.045-2.333,2.332-2.333C327.204,296.434,328.249,297.48,328.249,298.767z"/>
				<path id="path7247_1_" fill="none" stroke="#2A8FCE" d="M325.915,301.1v16.335"/>
			</g>
			<g id="g7249_1_">
				<path id="path7251_1_" fill="#C2DCF3" stroke="#2A8FCE" d="M355.001,298.767c0,1.287-1.045,2.333-2.333,2.333
					s-2.333-1.046-2.333-2.333c0-1.288,1.045-2.333,2.333-2.333S355.001,297.48,355.001,298.767z"/>
				<path id="path7253_1_" fill="none" stroke="#2A8FCE" d="M352.668,301.1v16.335"/>
			</g>
			<g id="g7255_1_">
				<path id="path7257_1_" fill="#C2DCF3" stroke="#2A8FCE" d="M349.651,298.767c0,1.287-1.045,2.333-2.334,2.333
					c-1.287,0-2.332-1.046-2.332-2.333c0-1.288,1.045-2.333,2.332-2.333C348.607,296.434,349.651,297.48,349.651,298.767z"/>
				<path id="path7259_1_" fill="none" stroke="#2A8FCE" d="M347.317,301.1v16.335"/>
			</g>
			<g id="g7261_1_">
				<path id="path7263_1_" fill="#C2DCF3" stroke="#2A8FCE" d="M344.3,298.767c0,1.287-1.045,2.333-2.333,2.333
					s-2.333-1.046-2.333-2.333c0-1.288,1.045-2.333,2.333-2.333S344.3,297.48,344.3,298.767z"/>
				<path id="path7265_1_" fill="none" stroke="#2A8FCE" d="M341.967,301.1v16.335"/>
			</g>
		</g>
		<g id="g7267_1_">
			<g id="g7269_1_">
				<path id="path7271_1_" fill="#C2DCF3" stroke="#2A8FCE" d="M304.278,321.667c0-1.287-1.045-2.332-2.334-2.332
					c-1.287,0-2.332,1.045-2.332,2.332c0,1.289,1.045,2.334,2.332,2.334C303.233,324.001,304.278,322.956,304.278,321.667z"/>
				<path id="path7273_1_" fill="none" stroke="#2A8FCE" d="M301.944,319.335v-16.334"/>
			</g>
			<g id="g7275_1_">
				<path id="path7277_1_" fill="#C2DCF3" stroke="#2A8FCE" d="M298.927,321.667c0-1.287-1.045-2.332-2.333-2.332
					s-2.333,1.045-2.333,2.332c0,1.289,1.045,2.334,2.333,2.334S298.927,322.956,298.927,321.667z"/>
				<path id="path7279_1_" fill="none" stroke="#2A8FCE" d="M296.594,319.335v-16.334"/>
			</g>
			<g id="g7281_1_">
				<path id="path7283_1_" fill="#C2DCF3" stroke="#2A8FCE" d="M293.577,321.667c0-1.287-1.045-2.332-2.334-2.332
					c-1.287,0-2.332,1.045-2.332,2.332c0,1.289,1.045,2.334,2.332,2.334C292.532,324.001,293.577,322.956,293.577,321.667z"/>
				<path id="path7285_1_" fill="none" stroke="#2A8FCE" d="M291.243,319.335v-16.334"/>
			</g>
			<g id="g7287_1_">
				<path id="path7289_1_" fill="#C2DCF3" stroke="#2A8FCE" d="M320.329,321.667c0-1.287-1.045-2.332-2.334-2.332
					c-1.287,0-2.332,1.045-2.332,2.332c0,1.289,1.045,2.334,2.332,2.334C319.284,324.001,320.329,322.956,320.329,321.667z"/>
				<path id="path7291_1_" fill="none" stroke="#2A8FCE" d="M317.995,319.335v-16.334"/>
			</g>
			<g id="g7293_1_">
				<path id="path7295_1_" fill="#C2DCF3" stroke="#2A8FCE" d="M314.979,321.667c0-1.287-1.045-2.332-2.333-2.332
					c-1.287,0-2.333,1.045-2.333,2.332c0,1.289,1.046,2.334,2.333,2.334C313.934,324.001,314.979,322.956,314.979,321.667z"/>
				<path id="path7297_1_" fill="none" stroke="#2A8FCE" d="M312.646,319.335v-16.334"/>
			</g>
			<g id="g7299_1_">
				<path id="path7301_1_" fill="#C2DCF3" stroke="#2A8FCE" d="M309.628,321.667c0-1.287-1.045-2.332-2.333-2.332
					s-2.333,1.045-2.333,2.332c0,1.289,1.045,2.334,2.333,2.334S309.628,322.956,309.628,321.667z"/>
				<path id="path7303_1_" fill="none" stroke="#2A8FCE" d="M307.295,319.335v-16.334"/>
			</g>
			<g id="g7305_1_">
				<path id="path7307_1_" fill="#C2DCF3" stroke="#2A8FCE" d="M306.952,298.767c0,1.287-1.045,2.333-2.332,2.333
					c-1.289,0-2.334-1.046-2.334-2.333c0-1.288,1.045-2.333,2.334-2.333C305.907,296.434,306.952,297.48,306.952,298.767z"/>
				<path id="path7309_1_" fill="none" stroke="#2A8FCE" d="M304.62,301.1v16.335"/>
			</g>
			<g id="g7311_1_">
				<path id="path7313_1_" fill="#C2DCF3" stroke="#2A8FCE" d="M301.602,298.767c0,1.287-1.045,2.333-2.333,2.333
					c-1.287,0-2.333-1.046-2.333-2.333c0-1.288,1.046-2.333,2.333-2.333C300.557,296.434,301.602,297.48,301.602,298.767z"/>
				<path id="path7315_1_" fill="none" stroke="#2A8FCE" d="M299.269,301.1v16.335"/>
			</g>
			<g id="g7317_1_">
				<path id="path7319_1_" fill="#C2DCF3" stroke="#2A8FCE" d="M296.252,298.767c0,1.287-1.046,2.333-2.333,2.333
					c-1.288,0-2.333-1.046-2.333-2.333c0-1.288,1.045-2.333,2.333-2.333C295.206,296.434,296.252,297.48,296.252,298.767z"/>
				<path id="path7321_1_" fill="none" stroke="#2A8FCE" d="M293.919,301.1v16.335"/>
			</g>
			<g id="g7323_1_">
				<path id="path7325_1_" fill="#C2DCF3" stroke="#2A8FCE" d="M323.004,298.767c0,1.287-1.045,2.333-2.333,2.333
					s-2.333-1.046-2.333-2.333c0-1.288,1.045-2.333,2.333-2.333S323.004,297.48,323.004,298.767z"/>
				<path id="path7327_1_" fill="none" stroke="#2A8FCE" d="M320.672,301.1v16.335"/>
			</g>
			<g id="g7329_1_">
				<path id="path7331_1_" fill="#C2DCF3" stroke="#2A8FCE" d="M317.653,298.767c0,1.287-1.045,2.333-2.332,2.333
					c-1.289,0-2.334-1.046-2.334-2.333c0-1.288,1.045-2.333,2.334-2.333C316.608,296.434,317.653,297.48,317.653,298.767z"/>
				<path id="path7333_1_" fill="none" stroke="#2A8FCE" d="M315.321,301.1v16.335"/>
			</g>
			<g id="g7335_1_">
				<path id="path7337_1_" fill="#C2DCF3" stroke="#2A8FCE" d="M312.303,298.767c0,1.287-1.045,2.333-2.333,2.333
					s-2.333-1.046-2.333-2.333c0-1.288,1.045-2.333,2.333-2.333S312.303,297.48,312.303,298.767z"/>
				<path id="path7339_1_" fill="none" stroke="#2A8FCE" d="M309.97,301.1v16.335"/>
			</g>
		</g>
		<g id="g7341_1_">
			<g id="g7343_1_">
				<path id="path7345_1_" fill="#C2DCF3" stroke="#2A8FCE" d="M272.28,321.667c0-1.287-1.045-2.332-2.332-2.332
					c-1.289,0-2.334,1.045-2.334,2.332c0,1.289,1.045,2.334,2.334,2.334C271.235,324.001,272.28,322.956,272.28,321.667z"/>
				<path id="path7347_1_" fill="none" stroke="#2A8FCE" d="M269.948,319.335v-16.334"/>
			</g>
			<g id="g7349_1_">
				<path id="path7351_1_" fill="#C2DCF3" stroke="#2A8FCE" d="M266.931,321.667c0-1.287-1.045-2.332-2.333-2.332
					s-2.333,1.045-2.333,2.332c0,1.289,1.045,2.334,2.333,2.334C265.885,324.001,266.931,322.956,266.931,321.667z"/>
				<path id="path7353_1_" fill="none" stroke="#2A8FCE" d="M264.598,319.335v-16.334"/>
			</g>
			<g id="g7355_1_">
				<path id="path7357_1_" fill="#C2DCF3" stroke="#2A8FCE" d="M261.579,321.667c0-1.287-1.045-2.332-2.332-2.332
					c-1.288,0-2.334,1.045-2.334,2.332c0,1.289,1.046,2.334,2.334,2.334C260.534,324.001,261.579,322.956,261.579,321.667z"/>
				<path id="path7359_1_" fill="none" stroke="#2A8FCE" d="M259.247,319.335v-16.334"/>
			</g>
			<g id="g7361_1_">
				<path id="path7363_1_" fill="#C2DCF3" stroke="#2A8FCE" d="M288.333,321.667c0-1.287-1.045-2.332-2.334-2.332
					c-1.287,0-2.332,1.045-2.332,2.332c0,1.289,1.045,2.334,2.332,2.334C287.288,324.001,288.333,322.956,288.333,321.667z"/>
				<path id="path7365_1_" fill="none" stroke="#2A8FCE" d="M285.999,319.335v-16.334"/>
			</g>
			<g id="g7367_1_">
				<path id="path7369_1_" fill="#C2DCF3" stroke="#2A8FCE" d="M282.982,321.667c0-1.287-1.045-2.332-2.332-2.332
					c-1.289,0-2.334,1.045-2.334,2.332c0,1.289,1.045,2.334,2.334,2.334C281.937,324.001,282.982,322.956,282.982,321.667z"/>
				<path id="path7371_1_" fill="none" stroke="#2A8FCE" d="M280.649,319.335v-16.334"/>
			</g>
			<g id="g7373_1_">
				<path id="path7375_1_" fill="#C2DCF3" stroke="#2A8FCE" d="M277.632,321.667c0-1.287-1.045-2.332-2.333-2.332
					s-2.333,1.045-2.333,2.332c0,1.289,1.045,2.334,2.333,2.334S277.632,322.956,277.632,321.667z"/>
				<path id="path7377_1_" fill="none" stroke="#2A8FCE" d="M275.299,319.335v-16.334"/>
			</g>
			<g id="g7379_1_">
				<path id="path7381_1_" fill="#C2DCF3" stroke="#2A8FCE" d="M274.956,298.767c0,1.287-1.045,2.333-2.334,2.333
					c-1.287,0-2.332-1.046-2.332-2.333c0-1.288,1.045-2.333,2.332-2.333C273.911,296.434,274.956,297.48,274.956,298.767z"/>
				<path id="path7383_1_" fill="none" stroke="#2A8FCE" d="M272.622,301.1v16.335"/>
			</g>
			<g id="g7385_1_">
				<path id="path7387_1_" fill="#C2DCF3" stroke="#2A8FCE" d="M269.607,298.767c0,1.287-1.046,2.333-2.334,2.333
					c-1.287,0-2.332-1.046-2.332-2.333c0-1.288,1.045-2.333,2.332-2.333C268.561,296.434,269.607,297.48,269.607,298.767z"/>
				<path id="path7389_1_" fill="none" stroke="#2A8FCE" d="M267.273,301.1v16.335"/>
			</g>
			<g id="g7391_1_">
				<path id="path7393_1_" fill="#C2DCF3" stroke="#2A8FCE" d="M264.256,298.767c0,1.287-1.045,2.333-2.333,2.333
					s-2.333-1.046-2.333-2.333c0-1.288,1.045-2.333,2.333-2.333S264.256,297.48,264.256,298.767z"/>
				<path id="path7395_1_" fill="none" stroke="#2A8FCE" d="M261.923,301.1v16.335"/>
			</g>
			<g id="g7397_1_">
				<path id="path7399_1_" fill="#C2DCF3" stroke="#2A8FCE" d="M291.008,298.767c0,1.287-1.045,2.333-2.333,2.333
					s-2.333-1.046-2.333-2.333c0-1.288,1.045-2.333,2.333-2.333S291.008,297.48,291.008,298.767z"/>
				<path id="path7401_1_" fill="none" stroke="#2A8FCE" d="M288.675,301.1v16.335"/>
			</g>
			<g id="g7403_1_">
				<path id="path7405_1_" fill="#C2DCF3" stroke="#2A8FCE" d="M285.657,298.767c0,1.287-1.045,2.333-2.334,2.333
					c-1.287,0-2.332-1.046-2.332-2.333c0-1.288,1.045-2.333,2.332-2.333C284.612,296.434,285.657,297.48,285.657,298.767z"/>
				<path id="path7407_1_" fill="none" stroke="#2A8FCE" d="M283.323,301.1v16.335"/>
			</g>
			<g id="g7409_1_">
				<path id="path7411_1_" fill="#C2DCF3" stroke="#2A8FCE" d="M280.307,298.767c0,1.287-1.045,2.333-2.333,2.333
					s-2.333-1.046-2.333-2.333c0-1.288,1.045-2.333,2.333-2.333S280.307,297.48,280.307,298.767z"/>
				<path id="path7413_1_" fill="none" stroke="#2A8FCE" d="M277.974,301.1v16.335"/>
			</g>
		</g>
		<g id="g7415_1_">
			<g id="g7417_1_">
				<path id="path7419_1_" fill="#C2DCF3" stroke="#2A8FCE" d="M240.284,321.667c0-1.287-1.045-2.332-2.334-2.332
					c-1.287,0-2.332,1.045-2.332,2.332c0,1.289,1.045,2.334,2.332,2.334C239.239,324.001,240.284,322.956,240.284,321.667z"/>
				<path id="path7421_1_" fill="none" stroke="#2A8FCE" d="M237.95,319.335v-16.334"/>
			</g>
			<g id="g7423_1_">
				<path id="path7425_1_" fill="#C2DCF3" stroke="#2A8FCE" d="M234.934,321.667c0-1.287-1.045-2.332-2.333-2.332
					c-1.287,0-2.333,1.045-2.333,2.332c0,1.289,1.046,2.334,2.333,2.334C233.889,324.001,234.934,322.956,234.934,321.667z"/>
				<path id="path7427_1_" fill="none" stroke="#2A8FCE" d="M232.601,319.335v-16.334"/>
			</g>
			<g id="g7429_1_">
				<path id="path7431_1_" fill="#C2DCF3" stroke="#2A8FCE" d="M229.584,321.667c0-1.287-1.046-2.332-2.333-2.332
					c-1.288,0-2.333,1.045-2.333,2.332c0,1.289,1.045,2.334,2.333,2.334C228.538,324.001,229.584,322.956,229.584,321.667z"/>
				<path id="path7433_1_" fill="none" stroke="#2A8FCE" d="M227.251,319.335v-16.334"/>
			</g>
			<g id="g7435_1_">
				<path id="path7437_1_" fill="#C2DCF3" stroke="#2A8FCE" d="M256.336,321.667c0-1.287-1.046-2.332-2.333-2.332
					c-1.288,0-2.333,1.045-2.333,2.332c0,1.289,1.045,2.334,2.333,2.334C255.29,324.001,256.336,322.956,256.336,321.667z"/>
				<path id="path7439_1_" fill="none" stroke="#2A8FCE" d="M254.003,319.335v-16.334"/>
			</g>
			<g id="g7441_1_">
				<path id="path7443_1_" fill="#C2DCF3" stroke="#2A8FCE" d="M250.985,321.667c0-1.287-1.045-2.332-2.332-2.332
					c-1.289,0-2.334,1.045-2.334,2.332c0,1.289,1.045,2.334,2.334,2.334C249.94,324.001,250.985,322.956,250.985,321.667z"/>
				<path id="path7445_1_" fill="none" stroke="#2A8FCE" d="M248.653,319.335v-16.334"/>
			</g>
			<g id="g7447_1_">
				<path id="path7449_1_" fill="#C2DCF3" stroke="#2A8FCE" d="M245.635,321.667c0-1.287-1.045-2.332-2.333-2.332
					s-2.333,1.045-2.333,2.332c0,1.289,1.045,2.334,2.333,2.334S245.635,322.956,245.635,321.667z"/>
				<path id="path7451_1_" fill="none" stroke="#2A8FCE" d="M243.302,319.335v-16.334"/>
			</g>
			<g id="g7453_1_">
				<path id="path7455_1_" fill="#C2DCF3" stroke="#2A8FCE" d="M242.96,298.767c0,1.287-1.045,2.333-2.333,2.333
					s-2.333-1.046-2.333-2.333c0-1.288,1.045-2.333,2.333-2.333S242.96,297.48,242.96,298.767z"/>
				<path id="path7457_1_" fill="none" stroke="#2A8FCE" d="M240.627,301.1v16.335"/>
			</g>
			<g id="g7459_1_">
				<path id="path7461_1_" fill="#C2DCF3" stroke="#2A8FCE" d="M237.608,298.767c0,1.287-1.045,2.333-2.332,2.333
					c-1.289,0-2.334-1.046-2.334-2.333c0-1.288,1.045-2.333,2.334-2.333C236.564,296.434,237.608,297.48,237.608,298.767z"/>
				<path id="path7463_1_" fill="none" stroke="#2A8FCE" d="M235.276,301.1v16.335"/>
			</g>
			<g id="g7465_1_">
				<path id="path7467_1_" fill="#C2DCF3" stroke="#2A8FCE" d="M232.259,298.767c0,1.287-1.045,2.333-2.333,2.333
					s-2.333-1.046-2.333-2.333c0-1.288,1.045-2.333,2.333-2.333S232.259,297.48,232.259,298.767z"/>
				<path id="path7469_1_" fill="none" stroke="#2A8FCE" d="M229.926,301.1v16.335"/>
			</g>
			<g id="g7471_1_">
				<path id="path7473_1_" fill="#C2DCF3" stroke="#2A8FCE" d="M259.011,298.767c0,1.287-1.045,2.333-2.333,2.333
					s-2.333-1.046-2.333-2.333c0-1.288,1.045-2.333,2.333-2.333S259.011,297.48,259.011,298.767z"/>
				<path id="path7475_1_" fill="none" stroke="#2A8FCE" d="M256.678,301.1v16.335"/>
			</g>
			<g id="g7477_1_">
				<path id="path7479_1_" fill="#C2DCF3" stroke="#2A8FCE" d="M253.661,298.767c0,1.287-1.045,2.333-2.334,2.333
					c-1.287,0-2.332-1.046-2.332-2.333c0-1.288,1.045-2.333,2.332-2.333C252.616,296.434,253.661,297.48,253.661,298.767z"/>
				<path id="path7481_1_" fill="none" stroke="#2A8FCE" d="M251.327,301.1v16.335"/>
			</g>
			<g id="g7483_1_">
				<path id="path7485_1_" fill="#C2DCF3" stroke="#2A8FCE" d="M248.31,298.767c0,1.287-1.045,2.333-2.333,2.333
					s-2.333-1.046-2.333-2.333c0-1.288,1.045-2.333,2.333-2.333S248.31,297.48,248.31,298.767z"/>
				<path id="path7487_1_" fill="none" stroke="#2A8FCE" d="M245.977,301.1v16.335"/>
			</g>
		</g>
	</g>
</g>
<g>
	<g>
		<g>
			<line fill="none" stroke="#010101" x1="150.104" y1="307.644" x2="150.104" y2="246.328"/>
			<polygon fill="#010101" points="146.4,304.835 150.104,306.407 153.808,304.835 150.104,313.612 			"/>
		</g>
	</g>
	<g>
		<g>
			
				<radialGradient id="SVGID_1_" cx="163.8379" cy="215.6699" r="18.2194" gradientTransform="matrix(1 0 0 1 -13.7344 61.3154)" gradientUnits="userSpaceOnUse">
				<stop  offset="0" style="stop-color:#FDFBE1"/>
				<stop  offset="0.1203" style="stop-color:#FEFBDC"/>
				<stop  offset="0.2662" style="stop-color:#FFFACC"/>
				<stop  offset="0.4255" style="stop-color:#FEF6B3"/>
				<stop  offset="0.5943" style="stop-color:#FEF091"/>
				<stop  offset="0.7706" style="stop-color:#FEEA64"/>
				<stop  offset="0.9506" style="stop-color:#FEE22D"/>
				<stop  offset="1" style="stop-color:#FEE01B"/>
			</radialGradient>
			<path fill="url(#SVGID_1_)" d="M155.187,253.569c-2.226,0-4.158,1.958-5.083,4.778c-0.925-2.82-2.856-4.778-5.083-4.778
				c-3.117,0-5.668,3.826-5.668,8.504v29.824c0,4.678,2.551,8.504,5.668,8.504c2.226,0,4.158-1.958,5.083-4.779
				c0.925,2.821,2.857,4.779,5.083,4.779c3.115,0,5.668-3.826,5.668-8.504v-29.824C160.854,257.396,158.302,253.569,155.187,253.569
				z"/>
		</g>
		<g>
			<path fill="none" stroke="#010101" d="M155.187,253.569c-2.226,0-4.158,1.958-5.083,4.778c-0.925-2.82-2.856-4.778-5.083-4.778
				c-3.117,0-5.668,3.826-5.668,8.504v29.824c0,4.678,2.551,8.504,5.668,8.504c2.226,0,4.158-1.958,5.083-4.779
				c0.925,2.821,2.857,4.779,5.083,4.779c3.115,0,5.668-3.826,5.668-8.504v-29.824C160.854,257.396,158.302,253.569,155.187,253.569
				z"/>
		</g>
	</g>
	<text transform="matrix(0.0053 1 -1 0.0053 145.4087 268.4668)" fill="#010101" font-family="'Myriad-Roman'" font-size="10">Ca</text>
	
		<text transform="matrix(0.0031 0.583 -0.583 0.0031 148.7954 279.0703)" fill="#010101" font-family="'Myriad-Roman'" font-size="10">2+</text>
</g>
<g>
	<g>
		<g>
			<line fill="none" stroke="#010101" x1="94.721" y1="307.644" x2="94.721" y2="246.328"/>
			<polygon fill="#010101" points="91.018,304.835 94.721,306.407 98.425,304.835 94.721,313.612 			"/>
		</g>
	</g>
	<g>
		<g>
			
				<radialGradient id="SVGID_2_" cx="108.4551" cy="215.6699" r="18.2194" gradientTransform="matrix(1 0 0 1 -13.7344 61.3154)" gradientUnits="userSpaceOnUse">
				<stop  offset="0" style="stop-color:#FDFBE1"/>
				<stop  offset="0.1203" style="stop-color:#FEFBDC"/>
				<stop  offset="0.2662" style="stop-color:#FFFACC"/>
				<stop  offset="0.4255" style="stop-color:#FEF6B3"/>
				<stop  offset="0.5943" style="stop-color:#FEF091"/>
				<stop  offset="0.7706" style="stop-color:#FEEA64"/>
				<stop  offset="0.9506" style="stop-color:#FEE22D"/>
				<stop  offset="1" style="stop-color:#FEE01B"/>
			</radialGradient>
			<path fill="url(#SVGID_2_)" d="M99.804,253.569c-2.226,0-4.158,1.958-5.083,4.778c-0.925-2.82-2.856-4.778-5.083-4.778
				c-3.117,0-5.668,3.826-5.668,8.504v29.824c0,4.678,2.551,8.504,5.668,8.504c2.226,0,4.158-1.958,5.083-4.779
				c0.925,2.821,2.857,4.779,5.083,4.779c3.115,0,5.668-3.826,5.668-8.504v-29.824C105.472,257.396,102.919,253.569,99.804,253.569z
				"/>
		</g>
		<g>
			<path fill="none" stroke="#010101" d="M99.804,253.569c-2.226,0-4.158,1.958-5.083,4.778c-0.925-2.82-2.856-4.778-5.083-4.778
				c-3.117,0-5.668,3.826-5.668,8.504v29.824c0,4.678,2.551,8.504,5.668,8.504c2.226,0,4.158-1.958,5.083-4.779
				c0.925,2.821,2.857,4.779,5.083,4.779c3.115,0,5.668-3.826,5.668-8.504v-29.824C105.472,257.396,102.919,253.569,99.804,253.569z
				"/>
		</g>
	</g>
	<text transform="matrix(0.0053 1 -1 0.0053 90.0205 267.4531)" fill="#010101" font-family="'Myriad-Roman'" font-size="10"> Na </text>
	
		<text transform="matrix(0.0031 0.583 -0.583 0.0031 93.4341 283.0742)" fill="#010101" font-family="'Myriad-Roman'" font-size="10">+</text>
</g>
<g>
	<g>
		<g>
			<g>
				<line fill="none" stroke="#010101" x1="222.957" y1="248.328" x2="222.957" y2="309.644"/>
				<polygon fill="#010101" points="226.66,251.137 222.957,249.563 219.253,251.137 222.957,242.358 				"/>
			</g>
		</g>
		<g>
			<g>
				
					<radialGradient id="SVGID_3_" cx="236.6914" cy="215.6719" r="18.2191" gradientTransform="matrix(1 0 0 1 -13.7344 63.3154)" gradientUnits="userSpaceOnUse">
					<stop  offset="0" style="stop-color:#FDFBE1"/>
					<stop  offset="0.1203" style="stop-color:#FEFBDC"/>
					<stop  offset="0.2662" style="stop-color:#FFFACC"/>
					<stop  offset="0.4255" style="stop-color:#FEF6B3"/>
					<stop  offset="0.5943" style="stop-color:#FEF091"/>
					<stop  offset="0.7706" style="stop-color:#FEEA64"/>
					<stop  offset="0.9506" style="stop-color:#FEE22D"/>
					<stop  offset="1" style="stop-color:#FEE01B"/>
				</radialGradient>
				<path fill="url(#SVGID_3_)" d="M228.039,255.572c-2.226,0-4.157,1.957-5.082,4.778c-0.926-2.821-2.856-4.778-5.083-4.778
					c-3.117,0-5.668,3.826-5.668,8.504v29.823c0,4.678,2.551,8.504,5.668,8.504c2.227,0,4.157-1.958,5.083-4.778
					c0.925,2.82,2.856,4.778,5.082,4.778c3.116,0,5.668-3.826,5.668-8.504v-29.823C233.707,259.398,231.155,255.572,228.039,255.572
					z"/>
			</g>
			<g>
				<path fill="none" stroke="#010101" d="M228.039,255.572c-2.226,0-4.157,1.957-5.082,4.778c-0.926-2.821-2.856-4.778-5.083-4.778
					c-3.117,0-5.668,3.826-5.668,8.504v29.823c0,4.678,2.551,8.504,5.668,8.504c2.227,0,4.157-1.958,5.083-4.778
					c0.925,2.82,2.856,4.778,5.082,4.778c3.116,0,5.668-3.826,5.668-8.504v-29.823C233.707,259.398,231.155,255.572,228.039,255.572
					z"/>
			</g>
		</g>
	</g>
	<text transform="matrix(0.0053 1 -1 0.0053 218.3076 274.5645)" fill="#010101" font-family="'Myriad-Roman'" font-size="10">K</text>
	
		<text transform="matrix(0.0031 0.583 -0.583 0.0031 221.6665 279.9668)" fill="#010101" font-family="'Myriad-Roman'" font-size="10">+</text>
</g>
<g>
	<g>
		<g>
			<g>
				<line fill="none" stroke="#010101" x1="331.457" y1="248.328" x2="331.457" y2="309.644"/>
				<polygon fill="#010101" points="335.16,251.137 331.457,249.563 327.753,251.137 331.457,242.358 				"/>
			</g>
		</g>
		<g>
			<g>
				
					<radialGradient id="SVGID_4_" cx="345.1914" cy="215.6719" r="18.2191" gradientTransform="matrix(1 0 0 1 -13.7344 63.3154)" gradientUnits="userSpaceOnUse">
					<stop  offset="0" style="stop-color:#FDFBE1"/>
					<stop  offset="0.1203" style="stop-color:#FEFBDC"/>
					<stop  offset="0.2662" style="stop-color:#FFFACC"/>
					<stop  offset="0.4255" style="stop-color:#FEF6B3"/>
					<stop  offset="0.5943" style="stop-color:#FEF091"/>
					<stop  offset="0.7706" style="stop-color:#FEEA64"/>
					<stop  offset="0.9506" style="stop-color:#FEE22D"/>
					<stop  offset="1" style="stop-color:#FEE01B"/>
				</radialGradient>
				<path fill="url(#SVGID_4_)" d="M336.539,255.572c-2.226,0-4.157,1.957-5.082,4.778c-0.926-2.821-2.856-4.778-5.083-4.778
					c-3.117,0-5.668,3.826-5.668,8.504v29.823c0,4.678,2.551,8.504,5.668,8.504c2.227,0,4.157-1.958,5.083-4.778
					c0.925,2.82,2.856,4.778,5.082,4.778c3.116,0,5.668-3.826,5.668-8.504v-29.823C342.207,259.398,339.655,255.572,336.539,255.572
					z"/>
			</g>
			<g>
				<path fill="none" stroke="#010101" d="M336.539,255.572c-2.226,0-4.157,1.957-5.082,4.778c-0.926-2.821-2.856-4.778-5.083-4.778
					c-3.117,0-5.668,3.826-5.668,8.504v29.823c0,4.678,2.551,8.504,5.668,8.504c2.227,0,4.157-1.958,5.083-4.778
					c0.925,2.82,2.856,4.778,5.082,4.778c3.116,0,5.668-3.826,5.668-8.504v-29.823C342.207,259.398,339.655,255.572,336.539,255.572
					z"/>
			</g>
		</g>
	</g>
	<text transform="matrix(0.0053 1 -1 0.0053 326.8086 274.5645)" fill="#010101" font-family="'Myriad-Roman'" font-size="10">K</text>
	
		<text transform="matrix(0.0031 0.583 -0.583 0.0031 330.168 279.9668)" fill="#010101" font-family="'Myriad-Roman'" font-size="10">+</text>
</g>
<g>
	<g>
		<g>
			<g>
				<line fill="none" stroke="#010101" x1="282.832" y1="248.328" x2="282.832" y2="309.644"/>
				<polygon fill="#010101" points="286.535,251.137 282.832,249.563 279.128,251.137 282.832,242.358 				"/>
			</g>
		</g>
		<g>
			<g>
				
					<radialGradient id="SVGID_5_" cx="296.5664" cy="215.6719" r="18.2191" gradientTransform="matrix(1 0 0 1 -13.7344 63.3154)" gradientUnits="userSpaceOnUse">
					<stop  offset="0" style="stop-color:#FDFBE1"/>
					<stop  offset="0.1203" style="stop-color:#FEFBDC"/>
					<stop  offset="0.2662" style="stop-color:#FFFACC"/>
					<stop  offset="0.4255" style="stop-color:#FEF6B3"/>
					<stop  offset="0.5943" style="stop-color:#FEF091"/>
					<stop  offset="0.7706" style="stop-color:#FEEA64"/>
					<stop  offset="0.9506" style="stop-color:#FEE22D"/>
					<stop  offset="1" style="stop-color:#FEE01B"/>
				</radialGradient>
				<path fill="url(#SVGID_5_)" d="M287.914,255.572c-2.226,0-4.157,1.957-5.082,4.778c-0.926-2.821-2.856-4.778-5.083-4.778
					c-3.117,0-5.668,3.826-5.668,8.504v29.823c0,4.678,2.551,8.504,5.668,8.504c2.227,0,4.157-1.958,5.083-4.778
					c0.925,2.82,2.856,4.778,5.082,4.778c3.116,0,5.668-3.826,5.668-8.504v-29.823C293.582,259.398,291.03,255.572,287.914,255.572z
					"/>
			</g>
			<g>
				<path fill="none" stroke="#010101" d="M287.914,255.572c-2.226,0-4.157,1.957-5.082,4.778c-0.926-2.821-2.856-4.778-5.083-4.778
					c-3.117,0-5.668,3.826-5.668,8.504v29.823c0,4.678,2.551,8.504,5.668,8.504c2.227,0,4.157-1.958,5.083-4.778
					c0.925,2.82,2.856,4.778,5.082,4.778c3.116,0,5.668-3.826,5.668-8.504v-29.823C293.582,259.398,291.03,255.572,287.914,255.572z
					"/>
			</g>
		</g>
	</g>
	<text transform="matrix(0.0053 1 -1 0.0053 278.1836 274.5645)" fill="#010101" font-family="'Myriad-Roman'" font-size="10">K</text>
	
		<text transform="matrix(0.0031 0.583 -0.583 0.0031 281.543 279.9668)" fill="#010101" font-family="'Myriad-Roman'" font-size="10">+</text>
</g>
<g>
	<g>
		<g>
			<g>
				<line fill="none" stroke="#010101" x1="390.124" y1="248.328" x2="390.124" y2="309.644"/>
				<polygon fill="#010101" points="393.827,251.137 390.124,249.564 386.42,251.137 390.124,242.359 				"/>
			</g>
		</g>
		<g>
			<g>
				<radialGradient id="SVGID_6_" cx="390.123" cy="278.9883" r="18.2188" gradientUnits="userSpaceOnUse">
					<stop  offset="0" style="stop-color:#FDFBE1"/>
					<stop  offset="0.1203" style="stop-color:#FEFBDC"/>
					<stop  offset="0.2662" style="stop-color:#FFFACC"/>
					<stop  offset="0.4255" style="stop-color:#FEF6B3"/>
					<stop  offset="0.5943" style="stop-color:#FEF091"/>
					<stop  offset="0.7706" style="stop-color:#FEEA64"/>
					<stop  offset="0.9506" style="stop-color:#FEE22D"/>
					<stop  offset="1" style="stop-color:#FEE01B"/>
				</radialGradient>
				<path fill="url(#SVGID_6_)" d="M395.206,255.572c-2.226,0-4.157,1.958-5.082,4.778c-0.925-2.82-2.856-4.778-5.083-4.778
					c-3.117,0-5.668,3.826-5.668,8.504v29.823c0,4.678,2.551,8.504,5.668,8.504c2.227,0,4.158-1.958,5.083-4.778
					c0.925,2.82,2.856,4.778,5.082,4.778c3.116,0,5.668-3.826,5.668-8.504v-29.823C400.874,259.398,398.322,255.572,395.206,255.572
					z"/>
			</g>
			<g>
				<path fill="none" stroke="#010101" d="M395.206,255.572c-2.226,0-4.157,1.958-5.082,4.778c-0.925-2.82-2.856-4.778-5.083-4.778
					c-3.117,0-5.668,3.826-5.668,8.504v29.823c0,4.678,2.551,8.504,5.668,8.504c2.227,0,4.158-1.958,5.083-4.778
					c0.925,2.82,2.856,4.778,5.082,4.778c3.116,0,5.668-3.826,5.668-8.504v-29.823C400.874,259.398,398.322,255.572,395.206,255.572
					z"/>
			</g>
		</g>
	</g>
	<text transform="matrix(0.0053 1 -1 0.0053 385.4824 276.0322)" fill="#010101" font-family="'Myriad-Roman'" font-size="10">+</text>
</g>
<text transform="matrix(1 0 0 1 390.2637 223.8066)" font-family="'MyriadPro-Regular'" font-size="12">Extracellular Space</text>
<text transform="matrix(1 0 0 1 461.9561 275.3076)"><tspan x="0" y="0" font-family="'MyriadPro-Regular'" font-size="12">Plasma </tspan><tspan x="-8.394" y="14.4" font-family="'MyriadPro-Regular'" font-size="12">Membrane</tspan></text>
<text transform="matrix(1 0 0 1 418.625 345)" font-family="'MyriadPro-Regular'" font-size="12">Cytosol</text>
<image overflow="visible" width="205" height="184" xlink:href="../../Picture 8.png"  transform="matrix(0.9999 0 0 0.9999 92.9087 6.8896)">
</image>
<text transform="matrix(1 0 0 1 17.4546 90)" font-family="'MyriadPro-Regular'" font-size="12">A)</text>
<text transform="matrix(1 0 0 1 17.8745 283.4717)" font-family="'MyriadPro-Regular'" font-size="12">B)</text>
</svg>
