<?xml version="1.0" encoding="utf-8"?>

<!-- Generator: Adobe Illustrator 14.0.0, SVG Export Plug-In . SVG Version: 6.00 Build 43363)  -->

<!DOCTYPE svg PUBLIC "-//W3C//DTD SVG 1.1//EN" "http://www.w3.org/Graphics/SVG/1.1/DTD/svg11.dtd">

<svg version="1.1" id="Layer_1" xmlns="http://www.w3.org/2000/svg" xmlns:xlink="http://www.w3.org/1999/xlink" x="0px" y="0px"

	 width="434.667px" height="472px" viewBox="0 0 434.667 472" enable-background="new 0 0 434.667 472" xml:space="preserve">

<g>

	

		<radialGradient id="path11134_1_" cx="282.3184" cy="-554.5967" r="22.1565" gradientTransform="matrix(0.3664 0 0 0.3664 23.9925 426.1212)" gradientUnits="userSpaceOnUse">

		<stop  offset="0" style="stop-color:#FFFCE1"/>

		<stop  offset="0.1203" style="stop-color:#FFFCDC"/>

		<stop  offset="0.2662" style="stop-color:#FFF9CC"/>

		<stop  offset="0.4255" style="stop-color:#FFF7B1"/>

		<stop  offset="0.5943" style="stop-color:#FFF18E"/>

		<stop  offset="0.7706" style="stop-color:#FFEA5B"/>

		<stop  offset="0.9506" style="stop-color:#FFE100"/>

		<stop  offset="1" style="stop-color:#FFDF00"/>

	</radialGradient>

	<path id="path11134_24_" fill="url(#path11134_1_)" stroke="#010101" stroke-width="0.9921" d="M135.552,222.918

		c0,4.482-3.635,8.117-8.117,8.117c-4.484,0-8.119-3.635-8.119-8.117s3.635-8.119,8.119-8.119

		C131.917,214.799,135.552,218.436,135.552,222.918z"/>

	<g>

		<path fill="#010101" d="M121.821,226.229v-5.389h0.768l1.72,2.727c0.392,0.631,0.711,1.191,0.959,1.751l0.024-0.009

			c-0.064-0.719-0.08-1.375-0.08-2.206v-2.263h0.655v5.389h-0.703l-1.712-2.734c-0.375-0.6-0.735-1.216-0.999-1.799l-0.024,0.008

			c0.04,0.68,0.049,1.327,0.049,2.223v2.303H121.821z"/>

		<path fill="#010101" d="M129.772,225.301c0,0.336,0.016,0.664,0.056,0.928h-0.632l-0.063-0.487h-0.024

			c-0.208,0.304-0.632,0.575-1.184,0.575c-0.783,0-1.183-0.552-1.183-1.111c0-0.936,0.831-1.447,2.326-1.439v-0.08

			c0-0.319-0.088-0.903-0.88-0.896c-0.367,0-0.743,0.104-1.015,0.288l-0.16-0.472c0.319-0.2,0.792-0.336,1.279-0.336

			c1.191,0,1.479,0.808,1.479,1.583V225.301z M129.084,224.254c-0.768-0.017-1.64,0.119-1.64,0.871c0,0.464,0.304,0.672,0.655,0.672

			c0.512,0,0.84-0.32,0.952-0.647c0.023-0.072,0.032-0.152,0.032-0.225V224.254z"/>

		<path fill="#010101" d="M132.166,220.585v1.316h1.266v0.336h-1.266v1.327h-0.358v-1.327h-1.266v-0.336h1.266v-1.316H132.166z"/>

	</g>

</g>

<g>

	

		<radialGradient id="path11134_2_" cx="192.0869" cy="-554.5967" r="22.1567" gradientTransform="matrix(0.3664 0 0 0.3664 23.9925 426.1212)" gradientUnits="userSpaceOnUse">

		<stop  offset="0" style="stop-color:#FFFCE1"/>

		<stop  offset="0.1203" style="stop-color:#FFFCDC"/>

		<stop  offset="0.2662" style="stop-color:#FFF9CC"/>

		<stop  offset="0.4255" style="stop-color:#FFF7B1"/>

		<stop  offset="0.5943" style="stop-color:#FFF18E"/>

		<stop  offset="0.7706" style="stop-color:#FFEA5B"/>

		<stop  offset="0.9506" style="stop-color:#FFE100"/>

		<stop  offset="1" style="stop-color:#FFDF00"/>

	</radialGradient>

	<path id="path11134_23_" fill="url(#path11134_2_)" stroke="#010101" stroke-width="0.9921" d="M102.491,222.918

		c0,4.482-3.635,8.117-8.117,8.117c-4.484,0-8.119-3.635-8.119-8.117s3.633-8.119,8.119-8.119

		C98.856,214.799,102.491,218.436,102.491,222.918z"/>

	<g>

		<path fill="#010101" d="M88.759,226.228v-5.389h0.768l1.72,2.727c0.392,0.631,0.711,1.191,0.959,1.751l0.024-0.009

			c-0.064-0.719-0.08-1.375-0.08-2.206v-2.263h0.655v5.389h-0.703l-1.712-2.734c-0.375-0.6-0.735-1.216-0.999-1.799l-0.024,0.008

			c0.04,0.68,0.049,1.327,0.049,2.223v2.303H88.759z"/>

		<path fill="#010101" d="M96.71,225.3c0,0.336,0.016,0.664,0.056,0.928h-0.632l-0.063-0.487h-0.024

			c-0.208,0.304-0.632,0.575-1.184,0.575c-0.783,0-1.183-0.552-1.183-1.111c0-0.936,0.831-1.447,2.326-1.439v-0.08

			c0-0.319-0.088-0.903-0.88-0.896c-0.367,0-0.743,0.104-1.015,0.288l-0.16-0.472c0.319-0.2,0.792-0.336,1.279-0.336

			c1.191,0,1.479,0.808,1.479,1.583V225.3z M96.023,224.253c-0.768-0.017-1.64,0.119-1.64,0.871c0,0.464,0.304,0.672,0.655,0.672

			c0.512,0,0.84-0.32,0.952-0.647c0.023-0.072,0.032-0.152,0.032-0.225V224.253z"/>

		<path fill="#010101" d="M99.104,220.584v1.316h1.266v0.336h-1.266v1.327h-0.358v-1.327H97.48V221.9h1.266v-1.316H99.104z"/>

	</g>

</g>

<g>

	

		<radialGradient id="path16609_1_" cx="102.2568" cy="-270.4932" r="16.1853" gradientTransform="matrix(1.5933 0 0 0.6358 -52.354 410.2129)" gradientUnits="userSpaceOnUse">

		<stop  offset="0" style="stop-color:#ACD152"/>

		<stop  offset="0.4082" style="stop-color:#ABD152"/>

		<stop  offset="0.5552" style="stop-color:#A6CF54"/>

		<stop  offset="0.66" style="stop-color:#A0CD53"/>

		<stop  offset="0.7448" style="stop-color:#93C951"/>

		<stop  offset="0.8174" style="stop-color:#84C551"/>

		<stop  offset="0.8817" style="stop-color:#74C054"/>

		<stop  offset="0.9398" style="stop-color:#63BC54"/>

		<stop  offset="0.9915" style="stop-color:#59BA53"/>

		<stop  offset="1" style="stop-color:#57BA53"/>

	</radialGradient>

	<path id="path16609_24_" fill="url(#path16609_1_)" stroke="#010101" d="M135.886,238.232c0,5.786-11.338,10.478-25.314,10.478

		c-13.98,0-25.314-4.689-25.314-10.478s11.334-10.476,25.314-10.476C124.548,227.758,135.886,232.445,135.886,238.232z"/>

	<g>

		<path fill="#010101" d="M112.421,241.503c-0.372,0.192-1.151,0.384-2.135,0.384c-2.279,0-3.982-1.439-3.982-4.102

			c0-2.543,1.715-4.246,4.222-4.246c0.996,0,1.643,0.216,1.919,0.36l-0.264,0.852c-0.384-0.192-0.948-0.336-1.619-0.336

			c-1.895,0-3.154,1.211-3.154,3.334c0,1.991,1.139,3.25,3.094,3.25c0.648,0,1.295-0.132,1.715-0.336L112.421,241.503z"/>

		<path fill="#010101" d="M115.256,233.455c-0.276,1.008-0.792,2.303-1.115,2.854l-0.672,0.072c0.252-0.708,0.576-1.943,0.708-2.807

			L115.256,233.455z"/>

	</g>

</g>

<g>

	

		<radialGradient id="path16609_2_" cx="246.6348" cy="-579.793" r="16.1858" gradientTransform="matrix(1.5933 0 0 0.6358 -52.354 410.2129)" gradientUnits="userSpaceOnUse">

		<stop  offset="0" style="stop-color:#ACD152"/>

		<stop  offset="0.4082" style="stop-color:#ABD152"/>

		<stop  offset="0.5552" style="stop-color:#A6CF54"/>

		<stop  offset="0.66" style="stop-color:#A0CD53"/>

		<stop  offset="0.7448" style="stop-color:#93C951"/>

		<stop  offset="0.8174" style="stop-color:#84C551"/>

		<stop  offset="0.8817" style="stop-color:#74C054"/>

		<stop  offset="0.9398" style="stop-color:#63BC54"/>

		<stop  offset="0.9915" style="stop-color:#59BA53"/>

		<stop  offset="1" style="stop-color:#57BA53"/>

	</radialGradient>

	<path id="path16609_23_" fill="url(#path16609_2_)" stroke="#010101" d="M365.924,41.58c0,5.786-11.338,10.478-25.316,10.478

		c-13.98,0-25.314-4.689-25.314-10.478c0-5.788,11.334-10.476,25.314-10.476C354.586,31.105,365.924,35.792,365.924,41.58z"/>

	<g>

		<path fill="#010101" d="M341.564,44.851c-0.371,0.192-1.15,0.384-2.135,0.384c-2.278,0-3.981-1.439-3.981-4.102

			c0-2.543,1.716-4.246,4.222-4.246c0.996,0,1.643,0.216,1.919,0.36l-0.264,0.852c-0.384-0.192-0.948-0.336-1.619-0.336

			c-1.896,0-3.154,1.211-3.154,3.334c0,1.991,1.14,3.25,3.095,3.25c0.647,0,1.295-0.132,1.715-0.336L341.564,44.851z"/>

		<path fill="#010101" d="M344.399,36.803c-0.276,1.008-0.792,2.303-1.115,2.854l-0.672,0.072c0.252-0.708,0.575-1.943,0.708-2.807

			L344.399,36.803z"/>

		<path fill="#010101" d="M346.188,36.803c-0.276,1.008-0.792,2.303-1.115,2.854l-0.672,0.072c0.252-0.708,0.575-1.943,0.707-2.807

			L346.188,36.803z"/>

	</g>

</g>

<g>

	

		<radialGradient id="path16609_3_" cx="64.5547" cy="-184.1963" r="16.1855" gradientTransform="matrix(1.5933 0 0 0.6358 -52.354 410.2129)" gradientUnits="userSpaceOnUse">

		<stop  offset="0" style="stop-color:#FFFCE1"/>

		<stop  offset="0.1203" style="stop-color:#FFFCDC"/>

		<stop  offset="0.2662" style="stop-color:#FFF9CC"/>

		<stop  offset="0.4255" style="stop-color:#FFF7B1"/>

		<stop  offset="0.5943" style="stop-color:#FFF18E"/>

		<stop  offset="0.7706" style="stop-color:#FFEA5B"/>

		<stop  offset="0.9506" style="stop-color:#FFE100"/>

		<stop  offset="1" style="stop-color:#FFDF00"/>

	</radialGradient>

	<path id="path16609_22_" fill="url(#path16609_3_)" stroke="#010101" d="M75.816,293.1c0,5.787-11.338,10.478-25.315,10.478

		c-13.981,0-25.315-4.688-25.315-10.478c0-5.787,11.334-10.475,25.315-10.475C64.479,282.625,75.816,287.313,75.816,293.1z"/>

	<g>

		<path fill="#010101" d="M47.669,295.352c0.467,0.299,1.139,0.527,1.859,0.527c1.067,0,1.691-0.563,1.691-1.379

			c0-0.744-0.432-1.188-1.523-1.596c-1.319-0.479-2.135-1.175-2.135-2.303c0-1.259,1.043-2.194,2.614-2.194

			c0.815,0,1.427,0.192,1.775,0.396l-0.288,0.852c-0.252-0.156-0.792-0.384-1.523-0.384c-1.103,0-1.523,0.659-1.523,1.212

			c0,0.755,0.492,1.127,1.607,1.559c1.367,0.527,2.051,1.188,2.051,2.375c0,1.247-0.912,2.338-2.819,2.338

			c-0.779,0-1.631-0.239-2.063-0.527L47.669,295.352z"/>

		<path fill="#010101" d="M54.856,288.323c-0.276,1.007-0.792,2.303-1.115,2.854l-0.672,0.072c0.252-0.708,0.576-1.943,0.708-2.807

			L54.856,288.323z"/>

	</g>

</g>

<g>

	

		<radialGradient id="path16609_4_" cx="102.2568" cy="-579.793" r="16.1853" gradientTransform="matrix(1.5933 0 0 0.6358 -52.354 410.2129)" gradientUnits="userSpaceOnUse">

		<stop  offset="0" style="stop-color:#ACD152"/>

		<stop  offset="0.4082" style="stop-color:#ABD152"/>

		<stop  offset="0.5552" style="stop-color:#A6CF54"/>

		<stop  offset="0.66" style="stop-color:#A0CD53"/>

		<stop  offset="0.7448" style="stop-color:#93C951"/>

		<stop  offset="0.8174" style="stop-color:#84C551"/>

		<stop  offset="0.8817" style="stop-color:#74C054"/>

		<stop  offset="0.9398" style="stop-color:#63BC54"/>

		<stop  offset="0.9915" style="stop-color:#59BA53"/>

		<stop  offset="1" style="stop-color:#57BA53"/>

	</radialGradient>

	<path id="path16609_21_" fill="url(#path16609_4_)" stroke="#010101" d="M135.886,41.58c0,5.786-11.337,10.478-25.314,10.478

		c-13.98,0-25.314-4.689-25.314-10.478c0-5.788,11.334-10.476,25.314-10.476C124.549,31.105,135.886,35.792,135.886,41.58z"/>

	<g>

		<path fill="#010101" d="M112.422,44.852c-0.372,0.192-1.151,0.384-2.135,0.384c-2.279,0-3.982-1.439-3.982-4.102

			c0-2.543,1.715-4.246,4.222-4.246c0.996,0,1.643,0.216,1.919,0.36l-0.264,0.852c-0.384-0.192-0.948-0.336-1.619-0.336

			c-1.895,0-3.154,1.211-3.154,3.334c0,1.991,1.139,3.25,3.094,3.25c0.648,0,1.295-0.132,1.715-0.336L112.422,44.852z"/>

		<path fill="#010101" d="M115.256,36.804c-0.276,1.008-0.792,2.303-1.115,2.854l-0.672,0.072c0.252-0.708,0.576-1.943,0.708-2.807

			L115.256,36.804z"/>

	</g>

</g>

<g>

	<g>

		

			<radialGradient id="path11134_3_" cx="909.0977" cy="-554.5967" r="22.157" gradientTransform="matrix(0.3664 0 0 0.3664 23.9925 426.1212)" gradientUnits="userSpaceOnUse">

			<stop  offset="0" style="stop-color:#FFFCE1"/>

			<stop  offset="0.1203" style="stop-color:#FFFCDC"/>

			<stop  offset="0.2662" style="stop-color:#FFF9CC"/>

			<stop  offset="0.4255" style="stop-color:#FFF7B1"/>

			<stop  offset="0.5943" style="stop-color:#FFF18E"/>

			<stop  offset="0.7706" style="stop-color:#FFEA5B"/>

			<stop  offset="0.9506" style="stop-color:#FFE100"/>

			<stop  offset="1" style="stop-color:#FFDF00"/>

		</radialGradient>

		<path id="path11134_22_" fill="url(#path11134_3_)" stroke="#010101" stroke-width="0.9921" d="M365.204,222.918

			c0,4.482-3.635,8.117-8.117,8.117c-4.484,0-8.119-3.635-8.119-8.117s3.633-8.119,8.119-8.119

			C361.569,214.799,365.204,218.436,365.204,222.918z"/>

		<g>

			<path fill="#010101" d="M351.472,226.228v-5.389h0.768l1.72,2.727c0.392,0.631,0.711,1.191,0.959,1.751l0.024-0.009

				c-0.064-0.719-0.08-1.375-0.08-2.206v-2.263h0.655v5.389h-0.703l-1.712-2.734c-0.375-0.6-0.735-1.216-0.999-1.799l-0.024,0.008

				c0.04,0.68,0.049,1.327,0.049,2.223v2.303H351.472z"/>

			<path fill="#010101" d="M359.423,225.3c0,0.336,0.016,0.664,0.056,0.928h-0.632l-0.063-0.487h-0.024

				c-0.208,0.304-0.632,0.575-1.184,0.575c-0.783,0-1.183-0.552-1.183-1.111c0-0.936,0.831-1.447,2.326-1.439v-0.08

				c0-0.319-0.088-0.903-0.88-0.896c-0.367,0-0.743,0.104-1.015,0.288l-0.16-0.472c0.319-0.2,0.792-0.336,1.279-0.336

				c1.191,0,1.479,0.808,1.479,1.583V225.3z M358.735,224.253c-0.768-0.017-1.64,0.119-1.64,0.871c0,0.464,0.304,0.672,0.655,0.672

				c0.512,0,0.84-0.32,0.952-0.647c0.023-0.072,0.032-0.152,0.032-0.225V224.253z"/>

			<path fill="#010101" d="M361.816,220.584v1.316h1.266v0.336h-1.266v1.327h-0.358v-1.327h-1.266V221.9h1.266v-1.316H361.816z"/>

		</g>

	</g>

	<g>

		

			<radialGradient id="path11134_4_" cx="820.2109" cy="-554.5967" r="22.1565" gradientTransform="matrix(0.3664 0 0 0.3664 23.9925 426.1212)" gradientUnits="userSpaceOnUse">

			<stop  offset="0" style="stop-color:#FFFCE1"/>

			<stop  offset="0.1203" style="stop-color:#FFFCDC"/>

			<stop  offset="0.2662" style="stop-color:#FFF9CC"/>

			<stop  offset="0.4255" style="stop-color:#FFF7B1"/>

			<stop  offset="0.5943" style="stop-color:#FFF18E"/>

			<stop  offset="0.7706" style="stop-color:#FFEA5B"/>

			<stop  offset="0.9506" style="stop-color:#FFE100"/>

			<stop  offset="1" style="stop-color:#FFDF00"/>

		</radialGradient>

		<path id="path11134_21_" fill="url(#path11134_4_)" stroke="#010101" stroke-width="0.9921" d="M332.636,222.918

			c0,4.482-3.635,8.117-8.117,8.117c-4.484,0-8.119-3.635-8.119-8.117s3.633-8.119,8.119-8.119

			C329.001,214.799,332.636,218.436,332.636,222.918z"/>

		<g>

			<path fill="#010101" d="M318.904,226.228v-5.389h0.768l1.72,2.727c0.392,0.631,0.711,1.191,0.959,1.751l0.024-0.009

				c-0.064-0.719-0.08-1.375-0.08-2.206v-2.263h0.655v5.389h-0.703l-1.712-2.734c-0.375-0.6-0.735-1.216-0.999-1.799l-0.024,0.008

				c0.04,0.68,0.049,1.327,0.049,2.223v2.303H318.904z"/>

			<path fill="#010101" d="M326.855,225.3c0,0.336,0.016,0.664,0.056,0.928h-0.632l-0.063-0.487h-0.024

				c-0.208,0.304-0.632,0.575-1.184,0.575c-0.783,0-1.183-0.552-1.183-1.111c0-0.936,0.831-1.447,2.326-1.439v-0.08

				c0-0.319-0.088-0.903-0.88-0.896c-0.367,0-0.743,0.104-1.015,0.288l-0.16-0.472c0.319-0.2,0.792-0.336,1.279-0.336

				c1.191,0,1.479,0.808,1.479,1.583V225.3z M326.168,224.253c-0.768-0.017-1.64,0.119-1.64,0.871c0,0.464,0.304,0.672,0.655,0.672

				c0.512,0,0.84-0.32,0.952-0.647c0.023-0.072,0.032-0.152,0.032-0.225V224.253z"/>

			<path fill="#010101" d="M329.249,220.584v1.316h1.266v0.336h-1.266v1.327h-0.358v-1.327h-1.266V221.9h1.266v-1.316H329.249z"/>

		</g>

	</g>

	<g>

		

			<radialGradient id="path16609_5_" cx="246.7012" cy="-270.4932" r="16.1858" gradientTransform="matrix(1.5933 0 0 0.6358 -52.354 410.2129)" gradientUnits="userSpaceOnUse">

			<stop  offset="0" style="stop-color:#ACD152"/>

			<stop  offset="0.4082" style="stop-color:#ABD152"/>

			<stop  offset="0.5552" style="stop-color:#A6CF54"/>

			<stop  offset="0.66" style="stop-color:#A0CD53"/>

			<stop  offset="0.7448" style="stop-color:#93C951"/>

			<stop  offset="0.8174" style="stop-color:#84C551"/>

			<stop  offset="0.8817" style="stop-color:#74C054"/>

			<stop  offset="0.9398" style="stop-color:#63BC54"/>

			<stop  offset="0.9915" style="stop-color:#59BA53"/>

			<stop  offset="1" style="stop-color:#57BA53"/>

		</radialGradient>

		<path id="path16609_20_" fill="url(#path16609_5_)" stroke="#010101" d="M366.03,238.232c0,5.786-11.338,10.478-25.314,10.478

			c-13.98,0-25.314-4.689-25.314-10.478s11.334-10.476,25.314-10.476C354.692,227.758,366.03,232.445,366.03,238.232z"/>

		<g>

			<path fill="#010101" d="M342.566,241.503c-0.371,0.192-1.151,0.384-2.135,0.384c-2.279,0-3.982-1.439-3.982-4.102

				c0-2.543,1.716-4.246,4.223-4.246c0.995,0,1.643,0.216,1.918,0.36l-0.264,0.852c-0.383-0.192-0.947-0.336-1.619-0.336

				c-1.895,0-3.154,1.211-3.154,3.334c0,1.991,1.14,3.25,3.095,3.25c0.647,0,1.296-0.132,1.716-0.336L342.566,241.503z"/>

			<path fill="#010101" d="M345.4,233.455c-0.275,1.008-0.791,2.303-1.115,2.854l-0.672,0.072c0.252-0.708,0.576-1.943,0.708-2.807

				L345.4,233.455z"/>

			<path fill="#010101" d="M349.396,233.455c-0.275,1.008-0.791,2.303-1.115,2.854l-0.672,0.072

				c0.252-0.708,0.576-1.943,0.707-2.807L349.396,233.455z"/>

		</g>

	</g>

</g>

<g>

	<g>

		

			<radialGradient id="path16609_8_" cx="246.7012" cy="62.541" r="10.9376" gradientTransform="matrix(1.5933 0 0 0.6358 -52.354 410.2129)" gradientUnits="userSpaceOnUse">

			<stop  offset="0" style="stop-color:#FFFCE1"/>

			<stop  offset="0.1203" style="stop-color:#FFFCDC"/>

			<stop  offset="0.2662" style="stop-color:#FFF9CC"/>

			<stop  offset="0.4255" style="stop-color:#FFF7B1"/>

			<stop  offset="0.5943" style="stop-color:#FFF18E"/>

			<stop  offset="0.7706" style="stop-color:#FFEA5B"/>

			<stop  offset="0.9506" style="stop-color:#FFE100"/>

			<stop  offset="1" style="stop-color:#FFDF00"/>

		</radialGradient>

		<path id="path16609_19_" fill="url(#path16609_8_)" stroke="#010101" d="M357.823,449.976c0,3.91-7.662,7.08-17.107,7.08

			c-9.449,0-17.107-3.168-17.107-7.08c0-3.911,7.658-7.078,17.107-7.078C350.161,442.897,357.823,446.065,357.823,449.976z"/>

		<g>

			<path fill="#010101" d="M339.244,451.498c0.315,0.202,0.77,0.355,1.256,0.355c0.721,0,1.142-0.381,1.142-0.932

				c0-0.502-0.292-0.802-1.028-1.077c-0.892-0.324-1.443-0.794-1.443-1.556c0-0.851,0.705-1.482,1.768-1.482

				c0.551,0,0.963,0.129,1.199,0.268l-0.195,0.574c-0.17-0.105-0.535-0.259-1.029-0.259c-0.745,0-1.029,0.446-1.029,0.818

				c0,0.511,0.333,0.762,1.086,1.054c0.924,0.355,1.387,0.802,1.387,1.604c0,0.843-0.617,1.58-1.904,1.58

				c-0.527,0-1.103-0.162-1.395-0.356L339.244,451.498z"/>

		</g>

	</g>

	<g>

		<g>

			

				<radialGradient id="path11134_5_" cx="909.0957" cy="-19.6592" r="22.1565" gradientTransform="matrix(0.3664 0 0 0.3664 23.9925 426.1212)" gradientUnits="userSpaceOnUse">

				<stop  offset="0" style="stop-color:#FFFCE1"/>

				<stop  offset="0.1203" style="stop-color:#FFFCDC"/>

				<stop  offset="0.2662" style="stop-color:#FFF9CC"/>

				<stop  offset="0.4255" style="stop-color:#FFF7B1"/>

				<stop  offset="0.5943" style="stop-color:#FFF18E"/>

				<stop  offset="0.7706" style="stop-color:#FFEA5B"/>

				<stop  offset="0.9506" style="stop-color:#FFE100"/>

				<stop  offset="1" style="stop-color:#FFDF00"/>

			</radialGradient>

			<path id="path11134_20_" fill="url(#path11134_5_)" stroke="#010101" stroke-width="0.9921" d="M365.203,418.919

				c0,4.482-3.635,8.117-8.117,8.117c-4.484,0-8.119-3.635-8.119-8.117s3.633-8.119,8.119-8.119

				C361.568,410.8,365.203,414.437,365.203,418.919z"/>

			<g>

				<path fill="#010101" d="M351.472,422.229v-5.389h0.768l1.72,2.727c0.392,0.631,0.711,1.191,0.959,1.751l0.024-0.009

					c-0.064-0.719-0.08-1.375-0.08-2.206v-2.263h0.655v5.389h-0.703l-1.712-2.734c-0.375-0.6-0.735-1.216-0.999-1.799l-0.024,0.008

					c0.04,0.68,0.049,1.327,0.049,2.223v2.303H351.472z"/>

				<path fill="#010101" d="M359.423,421.302c0,0.336,0.016,0.664,0.056,0.928h-0.632l-0.063-0.487h-0.024

					c-0.208,0.304-0.632,0.575-1.184,0.575c-0.783,0-1.183-0.552-1.183-1.111c0-0.936,0.831-1.447,2.326-1.439v-0.08

					c0-0.319-0.088-0.903-0.88-0.896c-0.367,0-0.743,0.104-1.015,0.288l-0.16-0.472c0.319-0.2,0.792-0.336,1.279-0.336

					c1.191,0,1.479,0.808,1.479,1.583V421.302z M358.735,420.255c-0.768-0.017-1.64,0.119-1.64,0.871

					c0,0.464,0.304,0.672,0.655,0.672c0.512,0,0.84-0.32,0.952-0.647c0.023-0.072,0.032-0.152,0.032-0.225V420.255z"/>

				<path fill="#010101" d="M361.816,416.586v1.316h1.266v0.336h-1.266v1.327h-0.358v-1.327h-1.266v-0.336h1.266v-1.316H361.816z"/>

			</g>

		</g>

		<g>

			

				<radialGradient id="path11134_6_" cx="820.2129" cy="-19.6592" r="22.157" gradientTransform="matrix(0.3664 0 0 0.3664 23.9925 426.1212)" gradientUnits="userSpaceOnUse">

				<stop  offset="0" style="stop-color:#FFFCE1"/>

				<stop  offset="0.1203" style="stop-color:#FFFCDC"/>

				<stop  offset="0.2662" style="stop-color:#FFF9CC"/>

				<stop  offset="0.4255" style="stop-color:#FFF7B1"/>

				<stop  offset="0.5943" style="stop-color:#FFF18E"/>

				<stop  offset="0.7706" style="stop-color:#FFEA5B"/>

				<stop  offset="0.9506" style="stop-color:#FFE100"/>

				<stop  offset="1" style="stop-color:#FFDF00"/>

			</radialGradient>

			<path id="path11134_19_" fill="url(#path11134_6_)" stroke="#010101" stroke-width="0.9921" d="M332.637,418.919

				c0,4.482-3.635,8.117-8.117,8.117c-4.484,0-8.119-3.635-8.119-8.117s3.633-8.119,8.119-8.119

				C329.002,410.8,332.637,414.437,332.637,418.919z"/>

			<g>

				<path fill="#010101" d="M318.904,422.229v-5.389h0.768l1.72,2.727c0.392,0.631,0.711,1.191,0.959,1.751l0.024-0.009

					c-0.064-0.719-0.08-1.375-0.08-2.206v-2.263h0.655v5.389h-0.703l-1.712-2.734c-0.375-0.6-0.735-1.216-0.999-1.799l-0.024,0.008

					c0.04,0.68,0.049,1.327,0.049,2.223v2.303H318.904z"/>

				<path fill="#010101" d="M326.855,421.302c0,0.336,0.016,0.664,0.056,0.928h-0.632l-0.063-0.487h-0.024

					c-0.208,0.304-0.632,0.575-1.184,0.575c-0.783,0-1.183-0.552-1.183-1.111c0-0.936,0.831-1.447,2.326-1.439v-0.08

					c0-0.319-0.088-0.903-0.88-0.896c-0.367,0-0.743,0.104-1.015,0.288l-0.16-0.472c0.319-0.2,0.792-0.336,1.279-0.336

					c1.191,0,1.479,0.808,1.479,1.583V421.302z M326.168,420.255c-0.768-0.017-1.64,0.119-1.64,0.871

					c0,0.464,0.304,0.672,0.655,0.672c0.512,0,0.84-0.32,0.952-0.647c0.023-0.072,0.032-0.152,0.032-0.225V420.255z"/>

				<path fill="#010101" d="M329.249,416.586v1.316h1.266v0.336h-1.266v1.327h-0.358v-1.327h-1.266v-0.336h1.266v-1.316H329.249z"/>

			</g>

		</g>

		<g>

			

				<radialGradient id="path16609_9_" cx="246.7021" cy="37.7803" r="16.1858" gradientTransform="matrix(1.5933 0 0 0.6358 -52.354 410.2129)" gradientUnits="userSpaceOnUse">

				<stop  offset="0" style="stop-color:#ACD152"/>

				<stop  offset="0.4082" style="stop-color:#ABD152"/>

				<stop  offset="0.5552" style="stop-color:#A6CF54"/>

				<stop  offset="0.66" style="stop-color:#A0CD53"/>

				<stop  offset="0.7448" style="stop-color:#93C951"/>

				<stop  offset="0.8174" style="stop-color:#84C551"/>

				<stop  offset="0.8817" style="stop-color:#74C054"/>

				<stop  offset="0.9398" style="stop-color:#63BC54"/>

				<stop  offset="0.9915" style="stop-color:#59BA53"/>

				<stop  offset="1" style="stop-color:#57BA53"/>

			</radialGradient>

			<path id="path16609_18_" fill="url(#path16609_9_)" stroke="#010101" d="M366.031,434.233c0,5.785-11.338,10.477-25.314,10.477

				c-13.982,0-25.316-4.689-25.316-10.477c0-5.789,11.334-10.477,25.316-10.477C354.693,423.759,366.031,428.446,366.031,434.233z"

				/>

			<g>

				<path fill="#010101" d="M342.566,437.505c-0.371,0.192-1.151,0.384-2.135,0.384c-2.279,0-3.982-1.439-3.982-4.102

					c0-2.543,1.716-4.246,4.223-4.246c0.995,0,1.643,0.216,1.918,0.36l-0.264,0.852c-0.383-0.192-0.947-0.336-1.619-0.336

					c-1.895,0-3.154,1.211-3.154,3.334c0,1.991,1.14,3.25,3.095,3.25c0.647,0,1.296-0.132,1.716-0.336L342.566,437.505z"/>

				<path fill="#010101" d="M345.4,429.457c-0.275,1.008-0.791,2.303-1.115,2.854l-0.672,0.072c0.252-0.708,0.576-1.943,0.708-2.807

					L345.4,429.457z"/>

				<path fill="#010101" d="M349.396,429.457c-0.275,1.008-0.791,2.303-1.115,2.854l-0.672,0.072

					c0.252-0.708,0.576-1.943,0.707-2.807L349.396,429.457z"/>

			</g>

		</g>

	</g>

</g>

<g>

	<g>

		

			<radialGradient id="path16609_10_" cx="102.2559" cy="62.541" r="10.9376" gradientTransform="matrix(1.5933 0 0 0.6358 -52.354 410.2129)" gradientUnits="userSpaceOnUse">

			<stop  offset="0" style="stop-color:#FFFCE1"/>

			<stop  offset="0.1203" style="stop-color:#FFFCDC"/>

			<stop  offset="0.2662" style="stop-color:#FFF9CC"/>

			<stop  offset="0.4255" style="stop-color:#FFF7B1"/>

			<stop  offset="0.5943" style="stop-color:#FFF18E"/>

			<stop  offset="0.7706" style="stop-color:#FFEA5B"/>

			<stop  offset="0.9506" style="stop-color:#FFE100"/>

			<stop  offset="1" style="stop-color:#FFDF00"/>

		</radialGradient>

		<path id="path16609_17_" fill="url(#path16609_10_)" stroke="#010101" d="M127.678,449.976c0,3.91-7.662,7.08-17.107,7.08

			c-9.449,0-17.107-3.168-17.107-7.08c0-3.911,7.658-7.078,17.107-7.078C120.016,442.897,127.678,446.065,127.678,449.976z"/>

		<g>

			<path fill="#010101" d="M109.099,451.496c0.316,0.203,0.77,0.357,1.256,0.357c0.721,0,1.142-0.381,1.142-0.932

				c0-0.503-0.292-0.803-1.029-1.078c-0.891-0.324-1.442-0.794-1.442-1.556c0-0.851,0.705-1.483,1.767-1.483

				c0.551,0,0.964,0.131,1.199,0.268l-0.195,0.576c-0.17-0.105-0.535-0.26-1.029-0.26c-0.746,0-1.029,0.445-1.029,0.818

				c0,0.51,0.333,0.762,1.086,1.053c0.924,0.357,1.386,0.803,1.386,1.605c0,0.842-0.616,1.58-1.904,1.58

				c-0.527,0-1.102-0.162-1.394-0.357L109.099,451.496z"/>

		</g>

	</g>

	<g>

		<g>

			

				<radialGradient id="path11134_7_" cx="280.9727" cy="-19.6592" r="22.1565" gradientTransform="matrix(0.3664 0 0 0.3664 23.9925 426.1212)" gradientUnits="userSpaceOnUse">

				<stop  offset="0" style="stop-color:#FFFCE1"/>

				<stop  offset="0.1203" style="stop-color:#FFFCDC"/>

				<stop  offset="0.2662" style="stop-color:#FFF9CC"/>

				<stop  offset="0.4255" style="stop-color:#FFF7B1"/>

				<stop  offset="0.5943" style="stop-color:#FFF18E"/>

				<stop  offset="0.7706" style="stop-color:#FFEA5B"/>

				<stop  offset="0.9506" style="stop-color:#FFE100"/>

				<stop  offset="1" style="stop-color:#FFDF00"/>

			</radialGradient>

			<path id="path11134_18_" fill="url(#path11134_7_)" stroke="#010101" stroke-width="0.9921" d="M135.059,418.919

				c0,4.482-3.635,8.117-8.117,8.117c-4.484,0-8.119-3.635-8.119-8.117s3.633-8.119,8.119-8.119

				C131.424,410.8,135.059,414.437,135.059,418.919z"/>

			<g>

				<path fill="#010101" d="M121.327,422.229v-5.389h0.768l1.72,2.727c0.392,0.631,0.711,1.191,0.959,1.751l0.024-0.009

					c-0.064-0.719-0.08-1.375-0.08-2.206v-2.263h0.655v5.389h-0.703l-1.712-2.734c-0.375-0.6-0.735-1.216-0.999-1.799l-0.024,0.008

					c0.04,0.68,0.049,1.327,0.049,2.223v2.303H121.327z"/>

				<path fill="#010101" d="M129.278,421.301c0,0.336,0.016,0.664,0.056,0.928h-0.632l-0.063-0.487h-0.024

					c-0.208,0.304-0.632,0.575-1.184,0.575c-0.783,0-1.183-0.552-1.183-1.111c0-0.936,0.831-1.447,2.326-1.439v-0.08

					c0-0.319-0.088-0.903-0.88-0.896c-0.367,0-0.743,0.104-1.015,0.288l-0.16-0.472c0.319-0.2,0.792-0.336,1.279-0.336

					c1.191,0,1.479,0.808,1.479,1.583V421.301z M128.59,420.254c-0.768-0.017-1.64,0.119-1.64,0.871

					c0,0.464,0.304,0.672,0.655,0.672c0.512,0,0.84-0.32,0.952-0.647c0.023-0.072,0.032-0.152,0.032-0.225V420.254z"/>

				<path fill="#010101" d="M131.671,416.585v1.316h1.266v0.336h-1.266v1.327h-0.358v-1.327h-1.266v-0.336h1.266v-1.316H131.671z"/>

			</g>

		</g>

		<g>

			

				<radialGradient id="path11134_8_" cx="192.0898" cy="-19.6592" r="22.1567" gradientTransform="matrix(0.3664 0 0 0.3664 23.9925 426.1212)" gradientUnits="userSpaceOnUse">

				<stop  offset="0" style="stop-color:#FFFCE1"/>

				<stop  offset="0.1203" style="stop-color:#FFFCDC"/>

				<stop  offset="0.2662" style="stop-color:#FFF9CC"/>

				<stop  offset="0.4255" style="stop-color:#FFF7B1"/>

				<stop  offset="0.5943" style="stop-color:#FFF18E"/>

				<stop  offset="0.7706" style="stop-color:#FFEA5B"/>

				<stop  offset="0.9506" style="stop-color:#FFE100"/>

				<stop  offset="1" style="stop-color:#FFDF00"/>

			</radialGradient>

			<path id="path11134_17_" fill="url(#path11134_8_)" stroke="#010101" stroke-width="0.9921" d="M102.492,418.919

				c0,4.482-3.635,8.117-8.117,8.117c-4.484,0-8.119-3.635-8.119-8.117s3.633-8.119,8.119-8.119

				C98.857,410.8,102.492,414.437,102.492,418.919z"/>

			<g>

				<path fill="#010101" d="M88.759,422.229v-5.389h0.768l1.72,2.727c0.392,0.631,0.711,1.191,0.959,1.751l0.024-0.009

					c-0.064-0.719-0.08-1.375-0.08-2.206v-2.263h0.655v5.389h-0.703l-1.712-2.734c-0.375-0.6-0.735-1.216-0.999-1.799l-0.024,0.008

					c0.04,0.68,0.049,1.327,0.049,2.223v2.303H88.759z"/>

				<path fill="#010101" d="M96.71,421.301c0,0.336,0.016,0.664,0.056,0.928h-0.632l-0.063-0.487h-0.024

					c-0.208,0.304-0.632,0.575-1.184,0.575c-0.783,0-1.183-0.552-1.183-1.111c0-0.936,0.831-1.447,2.326-1.439v-0.08

					c0-0.319-0.088-0.903-0.88-0.896c-0.367,0-0.743,0.104-1.015,0.288l-0.16-0.472c0.319-0.2,0.792-0.336,1.279-0.336

					c1.191,0,1.479,0.808,1.479,1.583V421.301z M96.023,420.254c-0.768-0.017-1.64,0.119-1.64,0.871

					c0,0.464,0.304,0.672,0.655,0.672c0.512,0,0.84-0.32,0.952-0.647c0.023-0.072,0.032-0.152,0.032-0.225V420.254z"/>

				<path fill="#010101" d="M99.104,416.585v1.316h1.266v0.336h-1.266v1.327h-0.358v-1.327H97.48v-0.336h1.266v-1.316H99.104z"/>

			</g>

		</g>

		<g>

			

				<radialGradient id="path16609_11_" cx="102.2568" cy="37.7803" r="16.1858" gradientTransform="matrix(1.5933 0 0 0.6358 -52.354 410.2129)" gradientUnits="userSpaceOnUse">

				<stop  offset="0" style="stop-color:#ACD152"/>

				<stop  offset="0.4082" style="stop-color:#ABD152"/>

				<stop  offset="0.5552" style="stop-color:#A6CF54"/>

				<stop  offset="0.66" style="stop-color:#A0CD53"/>

				<stop  offset="0.7448" style="stop-color:#93C951"/>

				<stop  offset="0.8174" style="stop-color:#84C551"/>

				<stop  offset="0.8817" style="stop-color:#74C054"/>

				<stop  offset="0.9398" style="stop-color:#63BC54"/>

				<stop  offset="0.9915" style="stop-color:#59BA53"/>

				<stop  offset="1" style="stop-color:#57BA53"/>

			</radialGradient>

			<path id="path16609_16_" fill="url(#path16609_11_)" stroke="#010101" d="M135.887,434.233c0,5.785-11.338,10.477-25.314,10.477

				c-13.982,0-25.316-4.689-25.316-10.477c0-5.789,11.334-10.477,25.316-10.477C124.549,423.759,135.887,428.446,135.887,434.233z"

				/>

			<g>

				<path fill="#010101" d="M112.421,437.504c-0.372,0.192-1.151,0.384-2.135,0.384c-2.279,0-3.982-1.439-3.982-4.102

					c0-2.543,1.715-4.246,4.222-4.246c0.996,0,1.643,0.216,1.919,0.36l-0.264,0.852c-0.384-0.192-0.948-0.336-1.619-0.336

					c-1.895,0-3.154,1.211-3.154,3.334c0,1.991,1.139,3.25,3.094,3.25c0.648,0,1.295-0.132,1.715-0.336L112.421,437.504z"/>

				<path fill="#010101" d="M115.256,429.456c-0.276,1.008-0.792,2.303-1.115,2.854l-0.672,0.072

					c0.252-0.708,0.576-1.943,0.708-2.807L115.256,429.456z"/>

			</g>

		</g>

	</g>

</g>

<g>

	

		<radialGradient id="path16609_13_" cx="285.7939" cy="-179.4775" r="16.1855" gradientTransform="matrix(1.5933 0 0 0.6358 -52.354 410.2129)" gradientUnits="userSpaceOnUse">

		<stop  offset="0" style="stop-color:#FFFCE1"/>

		<stop  offset="0.1203" style="stop-color:#FFFCDC"/>

		<stop  offset="0.2662" style="stop-color:#FFF9CC"/>

		<stop  offset="0.4255" style="stop-color:#FFF7B1"/>

		<stop  offset="0.5943" style="stop-color:#FFF18E"/>

		<stop  offset="0.7706" style="stop-color:#FFEA5B"/>

		<stop  offset="0.9506" style="stop-color:#FFE100"/>

		<stop  offset="1" style="stop-color:#FFDF00"/>

	</radialGradient>

	<path id="path16609_12_" fill="url(#path16609_13_)" stroke="#010101" d="M428.316,296.1c0,5.787-11.338,10.478-25.315,10.478

		c-13.981,0-25.315-4.688-25.315-10.478c0-5.787,11.334-10.475,25.315-10.475C416.979,285.625,428.316,290.313,428.316,296.1z"/>

	<g>

		<path fill="#010101" d="M398.171,298.352c0.468,0.299,1.14,0.527,1.858,0.527c1.068,0,1.691-0.563,1.691-1.379

			c0-0.744-0.432-1.188-1.523-1.596c-1.318-0.479-2.135-1.175-2.135-2.303c0-1.259,1.043-2.194,2.615-2.194

			c0.814,0,1.427,0.192,1.774,0.396l-0.288,0.852c-0.252-0.156-0.791-0.384-1.523-0.384c-1.103,0-1.522,0.659-1.522,1.212

			c0,0.755,0.491,1.127,1.606,1.559c1.367,0.527,2.052,1.188,2.052,2.375c0,1.247-0.911,2.338-2.819,2.338

			c-0.779,0-1.631-0.239-2.063-0.527L398.171,298.352z"/>

		<path fill="#010101" d="M405.357,291.323c-0.275,1.007-0.791,2.303-1.115,2.854l-0.672,0.072c0.252-0.708,0.576-1.943,0.708-2.807

			L405.357,291.323z"/>

		<path fill="#010101" d="M409.354,291.323c-0.275,1.007-0.791,2.303-1.115,2.854l-0.672,0.072c0.252-0.708,0.576-1.943,0.708-2.807

			L409.354,291.323z"/>

	</g>

</g>

<g>

	<g>

		<path fill="#010101" d="M72.293,91.094v-0.529l0.676-0.657c1.626-1.547,2.371-2.371,2.371-3.331c0-0.646-0.304-1.244-1.254-1.244

			c-0.578,0-1.058,0.294-1.352,0.539l-0.274-0.607c0.431-0.363,1.068-0.646,1.792-0.646c1.372,0,1.95,0.94,1.95,1.851

			c0,1.176-0.853,2.126-2.194,3.419l-0.5,0.47v0.02h2.851v0.715H72.293z"/>

	</g>

	<g>

		

			<radialGradient id="path11134_9_" cx="92.8267" cy="-897.1289" r="33.5994" gradientTransform="matrix(0.3664 0 0 0.3664 23.9925 426.1212)" gradientUnits="userSpaceOnUse">

			<stop  offset="0" style="stop-color:#FFFCE1"/>

			<stop  offset="0.1203" style="stop-color:#FFFCDC"/>

			<stop  offset="0.2662" style="stop-color:#FFF9CC"/>

			<stop  offset="0.4255" style="stop-color:#FFF7B1"/>

			<stop  offset="0.5943" style="stop-color:#FFF18E"/>

			<stop  offset="0.7706" style="stop-color:#FFEA5B"/>

			<stop  offset="0.9506" style="stop-color:#FFE100"/>

			<stop  offset="1" style="stop-color:#FFDF00"/>

		</radialGradient>

		<path id="path11134_16_" fill="url(#path11134_9_)" stroke="#010101" stroke-width="0.9921" d="M70.314,97.415

			c0,6.797-5.512,12.31-12.31,12.31c-6.801,0-12.312-5.513-12.312-12.31c0-6.797,5.511-12.313,12.312-12.313

			C64.803,85.102,70.314,90.617,70.314,97.415z"/>

		<g>

			<path fill="#010101" d="M50.072,102.013v-6.736h0.959l2.148,3.408c0.49,0.789,0.89,1.489,1.2,2.188l0.03-0.01

				c-0.08-0.899-0.1-1.719-0.1-2.759v-2.828h0.82v6.736H54.25l-2.139-3.418c-0.47-0.75-0.919-1.52-1.249-2.249l-0.03,0.01

				c0.05,0.85,0.06,1.659,0.06,2.779v2.878H50.072z"/>

			<path fill="#010101" d="M60.01,100.854c0,0.42,0.02,0.829,0.07,1.159h-0.79l-0.08-0.609h-0.03c-0.26,0.38-0.79,0.72-1.479,0.72

				c-0.979,0-1.479-0.69-1.479-1.39c0-1.169,1.04-1.809,2.909-1.799v-0.101c0-0.399-0.11-1.129-1.1-1.119

				c-0.459,0-0.929,0.13-1.269,0.36l-0.2-0.59c0.4-0.25,0.99-0.42,1.599-0.42c1.489,0,1.849,1.01,1.849,1.979V100.854z

				 M59.151,99.544c-0.959-0.02-2.049,0.15-2.049,1.09c0,0.579,0.379,0.839,0.819,0.839c0.64,0,1.049-0.399,1.189-0.81

				c0.03-0.09,0.04-0.189,0.04-0.279V99.544z"/>

			<path fill="#010101" d="M63.004,94.957v1.646h1.583v0.42h-1.583v1.66h-0.448v-1.66h-1.583v-0.42h1.583v-1.646H63.004z"/>

			<path fill="#010101" d="M66.694,95.097c-0.23,0.839-0.66,1.919-0.93,2.379l-0.56,0.06c0.21-0.59,0.479-1.619,0.59-2.339

				L66.694,95.097z"/>

		</g>

	</g>

</g>

<g>

	<g>

		<line fill="none" stroke="#010101" x1="114.388" y1="58.251" x2="114.388" y2="227.757"/>

		<polygon fill="#010101" points="118.091,61.06 114.388,59.487 110.684,61.06 114.388,52.282 		"/>

	</g>

</g>

<g>

	<g>

		<path fill="none" stroke="#010101" d="M151.5,104.848c-29.472,12.086-36.839,36.047-36.839,52.162"/>

		<polygon fill="#010101" points="150.307,109.34 150.356,105.316 147.496,102.486 157.022,102.583 		"/>

	</g>

</g>

<g>

	<g>

		<line fill="none" stroke="#010101" x1="105.571" y1="54.039" x2="105.571" y2="222.364"/>

		<polygon fill="#010101" points="101.868,219.556 105.571,221.128 109.275,219.556 105.571,228.333 		"/>

	</g>

</g>

<g>

	<g>

		<path fill="none" stroke="#010101" d="M68.459,105.349c29.472,12.086,36.839,36.047,36.839,52.162"/>

	</g>

</g>

<g>

	<g>

		<path fill="#010101" d="M182.452,91.844v-0.529l0.676-0.657c1.626-1.547,2.371-2.371,2.371-3.331c0-0.646-0.304-1.244-1.254-1.244

			c-0.578,0-1.058,0.294-1.352,0.539l-0.274-0.607c0.431-0.363,1.068-0.646,1.792-0.646c1.372,0,1.95,0.94,1.95,1.851

			c0,1.176-0.853,2.126-2.194,3.419l-0.5,0.47v0.02h2.851v0.715H182.452z"/>

	</g>

	<g>

		

			<radialGradient id="path11134_12_" cx="393.4795" cy="-895.082" r="33.5994" gradientTransform="matrix(0.3664 0 0 0.3664 23.9925 426.1212)" gradientUnits="userSpaceOnUse">

			<stop  offset="0" style="stop-color:#FFFCE1"/>

			<stop  offset="0.1203" style="stop-color:#FFFCDC"/>

			<stop  offset="0.2662" style="stop-color:#FFF9CC"/>

			<stop  offset="0.4255" style="stop-color:#FFF7B1"/>

			<stop  offset="0.5943" style="stop-color:#FFF18E"/>

			<stop  offset="0.7706" style="stop-color:#FFEA5B"/>

			<stop  offset="0.9506" style="stop-color:#FFE100"/>

			<stop  offset="1" style="stop-color:#FFDF00"/>

		</radialGradient>

		<path id="path11134_15_" fill="url(#path11134_12_)" stroke="#010101" stroke-width="0.9921" d="M180.474,98.165

			c0,6.797-5.512,12.31-12.31,12.31c-6.801,0-12.312-5.513-12.312-12.31c0-6.797,5.511-12.313,12.312-12.313

			C174.962,85.852,180.474,91.367,180.474,98.165z"/>

		<g>

			<path fill="#010101" d="M160.231,102.763v-6.736h0.959l2.148,3.408c0.49,0.789,0.89,1.489,1.2,2.188l0.03-0.01

				c-0.08-0.899-0.1-1.719-0.1-2.759v-2.828h0.82v6.736h-0.879l-2.139-3.418c-0.47-0.75-0.919-1.52-1.249-2.249l-0.03,0.01

				c0.05,0.85,0.06,1.659,0.06,2.779v2.878H160.231z"/>

			<path fill="#010101" d="M170.169,101.604c0,0.42,0.02,0.829,0.07,1.159h-0.79l-0.08-0.609h-0.03c-0.26,0.38-0.79,0.72-1.479,0.72

				c-0.979,0-1.479-0.69-1.479-1.39c0-1.169,1.04-1.809,2.909-1.799v-0.101c0-0.399-0.11-1.129-1.1-1.119

				c-0.459,0-0.929,0.13-1.269,0.36l-0.2-0.59c0.4-0.25,0.99-0.42,1.599-0.42c1.489,0,1.849,1.01,1.849,1.979V101.604z

				 M169.31,100.294c-0.959-0.02-2.049,0.15-2.049,1.09c0,0.579,0.379,0.839,0.819,0.839c0.64,0,1.049-0.399,1.189-0.81

				c0.03-0.09,0.04-0.189,0.04-0.279V100.294z"/>

			<path fill="#010101" d="M173.163,95.707v1.646h1.583v0.42h-1.583v1.66h-0.448v-1.66h-1.583v-0.42h1.583v-1.646H173.163z"/>

			<path fill="#010101" d="M176.853,95.847c-0.23,0.839-0.66,1.919-0.93,2.379l-0.56,0.06c0.21-0.59,0.479-1.619,0.59-2.339

				L176.853,95.847z"/>

		</g>

	</g>

</g>

<g>

	<g>

		<path fill="#010101" d="M294.793,90.41v-0.529l0.676-0.657c1.626-1.547,2.371-2.371,2.371-3.331c0-0.646-0.305-1.244-1.254-1.244

			c-0.578,0-1.059,0.294-1.352,0.539l-0.275-0.607c0.432-0.363,1.068-0.646,1.793-0.646c1.371,0,1.949,0.94,1.949,1.851

			c0,1.176-0.852,2.126-2.193,3.419l-0.5,0.47v0.02h2.851v0.715H294.793z"/>

	</g>

	<g>

		

			<radialGradient id="path11134_13_" cx="700.0859" cy="-898.9932" r="33.5994" gradientTransform="matrix(0.3664 0 0 0.3664 23.9925 426.1212)" gradientUnits="userSpaceOnUse">

			<stop  offset="0" style="stop-color:#FFFCE1"/>

			<stop  offset="0.1203" style="stop-color:#FFFCDC"/>

			<stop  offset="0.2662" style="stop-color:#FFF9CC"/>

			<stop  offset="0.4255" style="stop-color:#FFF7B1"/>

			<stop  offset="0.5943" style="stop-color:#FFF18E"/>

			<stop  offset="0.7706" style="stop-color:#FFEA5B"/>

			<stop  offset="0.9506" style="stop-color:#FFE100"/>

			<stop  offset="1" style="stop-color:#FFDF00"/>

		</radialGradient>

		<path id="path11134_11_" fill="url(#path11134_13_)" stroke="#010101" stroke-width="0.9921" d="M292.814,96.731

			c0,6.797-5.512,12.31-12.31,12.31c-6.801,0-12.312-5.513-12.312-12.31c0-6.797,5.511-12.313,12.312-12.313

			C287.303,84.419,292.814,89.934,292.814,96.731z"/>

		<g>

			<path fill="#010101" d="M272.572,101.33v-6.736h0.959l2.148,3.408c0.49,0.789,0.891,1.489,1.2,2.188l0.03-0.01

				c-0.08-0.899-0.101-1.719-0.101-2.759v-2.828h0.819v6.736h-0.879l-2.139-3.418c-0.471-0.75-0.92-1.52-1.25-2.249l-0.029,0.01

				c0.05,0.85,0.06,1.659,0.06,2.779v2.878H272.572z"/>

			<path fill="#010101" d="M282.51,100.171c0,0.42,0.021,0.829,0.07,1.159h-0.789l-0.08-0.609h-0.03

				c-0.26,0.38-0.79,0.72-1.479,0.72c-0.979,0-1.479-0.69-1.479-1.39c0-1.169,1.039-1.809,2.908-1.799v-0.101

				c0-0.399-0.109-1.129-1.1-1.119c-0.459,0-0.93,0.13-1.27,0.36l-0.199-0.59c0.399-0.25,0.989-0.42,1.599-0.42

				c1.489,0,1.849,1.01,1.849,1.979V100.171z M281.65,98.861c-0.959-0.02-2.049,0.15-2.049,1.09c0,0.579,0.38,0.839,0.82,0.839

				c0.639,0,1.049-0.399,1.189-0.81c0.029-0.09,0.039-0.189,0.039-0.279V98.861z"/>

			<path fill="#010101" d="M285.504,94.274v1.646h1.583v0.42h-1.583V98h-0.448v-1.66h-1.583v-0.42h1.583v-1.646H285.504z"/>

			<path fill="#010101" d="M289.193,94.414c-0.229,0.839-0.659,1.919-0.93,2.379l-0.559,0.06c0.209-0.59,0.479-1.619,0.59-2.339

				L289.193,94.414z"/>

		</g>

	</g>

</g>

<g>

	<g>

		<path fill="none" stroke="#010101" d="M297.959,104.165c29.472,12.086,36.839,36.047,36.839,52.162"/>

		<polygon fill="#010101" points="301.963,101.804 299.103,104.633 299.152,108.657 292.437,101.9 		"/>

	</g>

</g>

<g>

	<g>

		<g>

			<line fill="none" stroke="#010101" x1="335.071" y1="58.397" x2="335.071" y2="227.074"/>

			<polygon fill="#010101" points="338.774,61.206 335.071,59.633 331.367,61.206 335.071,52.428 			"/>

		</g>

	</g>

	<g>

		<g>

			<line fill="none" stroke="#010101" x1="343.888" y1="54.207" x2="343.888" y2="221.708"/>

			<polygon fill="#010101" points="340.185,218.899 343.888,220.472 347.592,218.899 343.888,227.677 			"/>

		</g>

	</g>

</g>

<g>

	<g>

		<path fill="none" stroke="#010101" d="M381,104.666c-29.472,12.086-36.839,36.047-36.839,52.162"/>

	</g>

</g>

<g>

	<g>

		<path fill="#010101" d="M404.952,91.16v-0.529l0.676-0.657c1.626-1.547,2.37-2.371,2.37-3.331c0-0.646-0.303-1.244-1.254-1.244

			c-0.577,0-1.058,0.294-1.352,0.539l-0.273-0.607c0.431-0.363,1.067-0.646,1.792-0.646c1.372,0,1.95,0.94,1.95,1.851

			c0,1.176-0.854,2.126-2.195,3.419l-0.499,0.47v0.02h2.851v0.715H404.952z"/>

	</g>

	<g>

		

			<radialGradient id="path11134_14_" cx="1000.7393" cy="-896.9463" r="33.5994" gradientTransform="matrix(0.3664 0 0 0.3664 23.9925 426.1212)" gradientUnits="userSpaceOnUse">

			<stop  offset="0" style="stop-color:#FFFCE1"/>

			<stop  offset="0.1203" style="stop-color:#FFFCDC"/>

			<stop  offset="0.2662" style="stop-color:#FFF9CC"/>

			<stop  offset="0.4255" style="stop-color:#FFF7B1"/>

			<stop  offset="0.5943" style="stop-color:#FFF18E"/>

			<stop  offset="0.7706" style="stop-color:#FFEA5B"/>

			<stop  offset="0.9506" style="stop-color:#FFE100"/>

			<stop  offset="1" style="stop-color:#FFDF00"/>

		</radialGradient>

		<path id="path11134_10_" fill="url(#path11134_14_)" stroke="#010101" stroke-width="0.9921" d="M402.974,97.481

			c0,6.797-5.512,12.31-12.31,12.31c-6.801,0-12.312-5.513-12.312-12.31c0-6.797,5.511-12.313,12.312-12.313

			C397.462,85.169,402.974,90.684,402.974,97.481z"/>

		<g>

			<path fill="#010101" d="M382.731,102.08v-6.736h0.96l2.148,3.408c0.489,0.789,0.889,1.489,1.199,2.188l0.029-0.01

				c-0.08-0.899-0.1-1.719-0.1-2.759v-2.828h0.82v6.736h-0.88l-2.14-3.418c-0.469-0.75-0.919-1.52-1.248-2.249l-0.031,0.01

				c0.051,0.85,0.061,1.659,0.061,2.779v2.878H382.731z"/>

			<path fill="#010101" d="M392.67,100.921c0,0.42,0.02,0.829,0.069,1.159h-0.79l-0.079-0.609h-0.03

				c-0.26,0.38-0.789,0.72-1.479,0.72c-0.98,0-1.48-0.69-1.48-1.39c0-1.169,1.04-1.809,2.909-1.799v-0.101

				c0-0.399-0.11-1.129-1.1-1.119c-0.46,0-0.929,0.13-1.269,0.36l-0.201-0.59c0.4-0.25,0.99-0.42,1.6-0.42

				c1.489,0,1.85,1.01,1.85,1.979V100.921z M391.811,99.611c-0.96-0.02-2.049,0.15-2.049,1.09c0,0.579,0.379,0.839,0.818,0.839

				c0.641,0,1.05-0.399,1.189-0.81c0.03-0.09,0.041-0.189,0.041-0.279V99.611z"/>

			<path fill="#010101" d="M395.663,95.024v1.646h1.583v0.42h-1.583v1.66h-0.448v-1.66h-1.582v-0.42h1.582v-1.646H395.663z"/>

			<path fill="#010101" d="M399.354,95.164c-0.23,0.839-0.66,1.919-0.93,2.379l-0.561,0.06c0.211-0.59,0.48-1.619,0.59-2.339

				L399.354,95.164z"/>

		</g>

	</g>

</g>

<g>

	<g>

		<line fill="none" stroke="#010101" x1="114.979" y1="253.717" x2="114.979" y2="423.224"/>

		<polygon fill="#010101" points="118.682,256.525 114.979,254.953 111.274,256.525 114.979,247.748 		"/>

	</g>

</g>

<g>

	<g>

		<path fill="none" stroke="#010101" d="M152.091,300.314c-29.472,12.086-36.839,36.047-36.839,52.161"/>

		<polygon fill="#010101" points="150.897,304.806 150.947,300.783 148.087,297.952 157.614,298.049 		"/>

	</g>

</g>

<g>

	<g>

		<line fill="none" stroke="#010101" x1="106.162" y1="249.506" x2="106.162" y2="417.831"/>

		<polygon fill="#010101" points="102.459,415.022 106.162,416.595 109.866,415.022 106.162,423.8 		"/>

	</g>

</g>

<g>

	<g>

		<path fill="none" stroke="#010101" d="M69.05,300.814c29.472,12.087,36.839,36.048,36.839,52.162"/>

	</g>

</g>

<g>

	<g>

		<line fill="none" stroke="#010101" x1="335.2" y1="254.021" x2="335.2" y2="423.526"/>

		<polygon fill="#010101" points="338.903,256.83 335.2,255.257 331.496,256.83 335.2,248.052 		"/>

	</g>

</g>

<g>

	<g>

		<path fill="none" stroke="#010101" d="M298.088,300.617c29.472,12.087,36.839,36.047,36.839,52.162"/>

		<polygon fill="#010101" points="302.092,298.258 299.231,301.087 299.281,305.11 292.565,298.354 		"/>

	</g>

</g>

<g>

	<g>

		<line fill="none" stroke="#010101" x1="344.017" y1="249.809" x2="344.017" y2="418.134"/>

		<polygon fill="#010101" points="340.313,415.325 344.017,416.898 347.721,415.325 344.017,424.103 		"/>

	</g>

</g>

<g>

	<g>

		<path fill="none" stroke="#010101" d="M381.129,301.118c-29.472,12.087-36.839,36.048-36.839,52.162"/>

	</g>

</g>

<g>

	

		<radialGradient id="path16609_14_" cx="148.0122" cy="-179.4785" r="16.186" gradientTransform="matrix(1.5933 0 0 0.6358 -52.354 410.2129)" gradientUnits="userSpaceOnUse">

		<stop  offset="0" style="stop-color:#FFFCE1"/>

		<stop  offset="0.1203" style="stop-color:#FFFCDC"/>

		<stop  offset="0.2662" style="stop-color:#FFF9CC"/>

		<stop  offset="0.4255" style="stop-color:#FFF7B1"/>

		<stop  offset="0.5943" style="stop-color:#FFF18E"/>

		<stop  offset="0.7706" style="stop-color:#FFEA5B"/>

		<stop  offset="0.9506" style="stop-color:#FFE100"/>

		<stop  offset="1" style="stop-color:#FFDF00"/>

	</radialGradient>

	<path id="path16609_7_" fill="url(#path16609_14_)" stroke="#010101" d="M208.789,296.1c0,5.786-11.338,10.478-25.315,10.478

		c-13.981,0-25.315-4.689-25.315-10.478s11.334-10.476,25.315-10.476C197.451,285.625,208.789,290.313,208.789,296.1z"/>

	<g>

		<path fill="#010101" d="M180.642,298.352c0.467,0.299,1.139,0.527,1.859,0.527c1.067,0,1.691-0.563,1.691-1.379

			c0-0.744-0.432-1.188-1.523-1.596c-1.319-0.479-2.135-1.175-2.135-2.303c0-1.259,1.043-2.194,2.614-2.194

			c0.815,0,1.427,0.192,1.775,0.396l-0.288,0.852c-0.252-0.156-0.792-0.384-1.523-0.384c-1.103,0-1.523,0.659-1.523,1.212

			c0,0.755,0.492,1.127,1.607,1.559c1.367,0.527,2.051,1.188,2.051,2.375c0,1.247-0.912,2.338-2.819,2.338

			c-0.779,0-1.631-0.239-2.063-0.527L180.642,298.352z"/>

		<path fill="#010101" d="M187.829,291.323c-0.276,1.007-0.792,2.303-1.115,2.854l-0.672,0.072c0.252-0.708,0.576-1.943,0.708-2.807

			L187.829,291.323z"/>

	</g>

</g>

<g>

	

		<radialGradient id="path16609_15_" cx="203.0674" cy="-184.9463" r="16.1858" gradientTransform="matrix(1.5933 0 0 0.6358 -52.354 410.2129)" gradientUnits="userSpaceOnUse">

		<stop  offset="0" style="stop-color:#FFFCE1"/>

		<stop  offset="0.1203" style="stop-color:#FFFCDC"/>

		<stop  offset="0.2662" style="stop-color:#FFF9CC"/>

		<stop  offset="0.4255" style="stop-color:#FFF7B1"/>

		<stop  offset="0.5943" style="stop-color:#FFF18E"/>

		<stop  offset="0.7706" style="stop-color:#FFEA5B"/>

		<stop  offset="0.9506" style="stop-color:#FFE100"/>

		<stop  offset="1" style="stop-color:#FFDF00"/>

	</radialGradient>

	<path id="path16609_6_" fill="url(#path16609_15_)" stroke="#010101" d="M296.509,292.623c0,5.786-11.338,10.478-25.315,10.478

		c-13.981,0-25.315-4.689-25.315-10.478s11.334-10.476,25.315-10.476C285.171,282.148,296.509,286.836,296.509,292.623z"/>

	<g>

		<path fill="#010101" d="M266.363,294.875c0.467,0.299,1.139,0.527,1.859,0.527c1.066,0,1.69-0.563,1.69-1.379

			c0-0.744-0.432-1.188-1.522-1.596c-1.32-0.479-2.135-1.175-2.135-2.303c0-1.259,1.043-2.194,2.613-2.194

			c0.816,0,1.428,0.192,1.775,0.396l-0.287,0.852c-0.252-0.156-0.792-0.384-1.523-0.384c-1.104,0-1.523,0.659-1.523,1.212

			c0,0.755,0.492,1.127,1.607,1.559c1.367,0.527,2.051,1.188,2.051,2.375c0,1.247-0.912,2.338-2.818,2.338

			c-0.779,0-1.631-0.239-2.063-0.527L266.363,294.875z"/>

		<path fill="#010101" d="M273.551,287.847c-0.276,1.007-0.792,2.303-1.115,2.854l-0.672,0.072c0.252-0.708,0.575-1.943,0.707-2.807

			L273.551,287.847z"/>

		<path fill="#010101" d="M277.547,287.847c-0.276,1.007-0.792,2.303-1.115,2.854l-0.672,0.072c0.252-0.708,0.575-1.943,0.707-2.807

			L277.547,287.847z"/>

	</g>

</g>

<g>

	<path fill="#010101" d="M336.753,16.806v8.083h-1.056v-8.083H336.753z"/>

	<path fill="#010101" d="M338.577,24.89v-8.083h1.151l2.579,4.09c0.588,0.947,1.067,1.799,1.439,2.626l0.035-0.012

		c-0.096-1.079-0.119-2.063-0.119-3.322v-3.382h0.983v8.083h-1.056l-2.566-4.102c-0.563-0.9-1.104-1.823-1.499-2.699l-0.036,0.012

		c0.06,1.019,0.071,1.991,0.071,3.334v3.454H338.577z"/>

</g>

<g>

	<path fill="#010101" d="M106.412,20.764c0,2.771-1.69,4.258-3.754,4.258c-2.146,0-3.634-1.667-3.634-4.114

		c0-2.566,1.583-4.246,3.742-4.246C104.985,16.662,106.412,18.353,106.412,20.764z M100.128,20.884c0,1.739,0.936,3.286,2.591,3.286

		s2.59-1.523,2.59-3.358c0-1.619-0.839-3.298-2.578-3.298S100.128,19.121,100.128,20.884z"/>

	<path fill="#010101" d="M108.815,16.806v4.797c0,1.799,0.804,2.566,1.883,2.566c1.188,0,1.967-0.792,1.967-2.566v-4.797h1.056

		v4.725c0,2.483-1.308,3.49-3.059,3.49c-1.655,0-2.902-0.936-2.902-3.454v-4.761H108.815z"/>

	<path fill="#010101" d="M117.07,17.693h-2.458v-0.887h5.984v0.887h-2.471v7.196h-1.056V17.693z"/>

</g>

<g>

	<g>

		<g>

			<line fill="none" stroke="#010101" x1="311.847" y1="37.581" x2="138.898" y2="37.581"/>

			<polygon fill="#010101" points="141.707,33.877 140.134,37.581 141.707,41.285 132.929,37.581 			"/>

		</g>

	</g>

	<g>

		<g>

			<line fill="none" stroke="#010101" x1="132.95" y1="45.104" x2="305.898" y2="45.104"/>

			<polygon fill="#010101" points="303.09,48.807 304.663,45.104 303.09,41.399 311.868,45.104 			"/>

		</g>

	</g>

</g>

<g>

	<g>

		<g>

			<line fill="none" stroke="#010101" x1="314.782" y1="234.581" x2="141.834" y2="234.581"/>

			<polygon fill="#010101" points="144.643,230.877 143.069,234.581 144.643,238.284 135.864,234.581 			"/>

		</g>

	</g>

	<g>

		<g>

			<line fill="none" stroke="#010101" x1="135.886" y1="242.104" x2="308.834" y2="242.104"/>

			<polygon fill="#010101" points="306.025,245.807 307.599,242.104 306.025,238.399 314.804,242.104 			"/>

		</g>

	</g>

</g>

<g>

	<g>

		<line fill="none" stroke="#010101" x1="314.782" y1="430.581" x2="141.834" y2="430.581"/>

		<polygon fill="#010101" points="144.643,426.878 143.069,430.581 144.643,434.285 135.864,430.581 		"/>

	</g>

</g>

<g>

	<g>

		<line fill="none" stroke="#010101" x1="135.886" y1="438.104" x2="308.834" y2="438.104"/>

		<polygon fill="#010101" points="306.025,441.807 307.599,438.104 306.025,434.399 314.804,438.104 		"/>

	</g>

</g>

<g>

	<path fill="#010101" d="M192.284,20.69c0.3,0.18,0.983,0.479,1.727,0.479c1.344,0,1.775-0.852,1.763-1.511

		c-0.012-1.091-0.995-1.559-2.015-1.559h-0.588v-0.792h0.588c0.768,0,1.739-0.396,1.739-1.319c0-0.624-0.396-1.175-1.367-1.175

		c-0.624,0-1.224,0.276-1.56,0.516l-0.287-0.768c0.419-0.3,1.211-0.6,2.051-0.6c1.535,0,2.23,0.912,2.23,1.859

		c0,0.816-0.492,1.5-1.439,1.847v0.024c0.96,0.18,1.728,0.899,1.739,1.991c0,1.248-0.983,2.339-2.843,2.339

		c-0.875,0-1.643-0.276-2.026-0.528L192.284,20.69z"/>

	<path fill="#010101" d="M201.654,19.179c0.024,1.427,0.924,2.015,1.991,2.015c0.756,0,1.224-0.132,1.607-0.3l0.191,0.756

		c-0.372,0.168-1.02,0.372-1.942,0.372c-1.787,0-2.854-1.188-2.854-2.938s1.031-3.118,2.723-3.118c1.906,0,2.398,1.655,2.398,2.723

		c0,0.216-0.013,0.372-0.036,0.492H201.654z M204.749,18.423c0.012-0.66-0.276-1.703-1.463-1.703c-1.08,0-1.535,0.971-1.619,1.703

		H204.749z"/>

	<path fill="#010101" d="M207.535,16.085l0.827,1.247c0.229,0.324,0.408,0.612,0.601,0.936h0.023

		c0.192-0.336,0.384-0.636,0.588-0.947l0.804-1.235h1.151l-1.979,2.806l2.027,2.999h-1.188l-0.863-1.307

		c-0.229-0.336-0.42-0.66-0.624-1.008h-0.023c-0.192,0.348-0.384,0.66-0.612,1.008l-0.839,1.307h-1.164l2.063-2.962l-1.968-2.842

		H207.535z"/>

	<path fill="#010101" d="M212.6,17.98c0-0.744-0.024-1.343-0.049-1.895h0.936l0.061,0.995h0.023c0.42-0.708,1.115-1.115,2.063-1.115

		c1.415,0,2.471,1.188,2.471,2.938c0,2.087-1.283,3.118-2.651,3.118c-0.768,0-1.438-0.336-1.786-0.912h-0.024v3.154H212.6V17.98z

		 M213.643,19.527c0,0.156,0.012,0.3,0.048,0.432c0.192,0.732,0.828,1.235,1.583,1.235c1.115,0,1.764-0.911,1.764-2.243

		c0-1.151-0.612-2.146-1.728-2.146c-0.72,0-1.403,0.503-1.595,1.295c-0.036,0.132-0.072,0.288-0.072,0.42V19.527z"/>

	<path fill="#010101" d="M224.25,13.566c-0.876,1.187-1.499,2.734-1.499,4.917c0,2.135,0.659,3.658,1.499,4.857h-0.815

		c-0.756-0.996-1.571-2.531-1.571-4.869c0.012-2.351,0.815-3.898,1.571-4.905H224.25z"/>

	<path fill="#010101" d="M227.826,18.268v0.768h-2.963v-0.768H227.826z"/>

	<path fill="#010101" d="M233.92,17.908c0,2.651-0.995,4.114-2.71,4.114c-1.523,0-2.566-1.427-2.591-4.006

		c0-2.626,1.14-4.054,2.723-4.054C232.973,13.962,233.92,15.425,233.92,17.908z M229.687,18.028c0,2.027,0.624,3.178,1.583,3.178

		c1.067,0,1.583-1.259,1.583-3.25c0-1.919-0.479-3.179-1.583-3.179C230.358,14.777,229.687,15.905,229.687,18.028z"/>

	<path fill="#010101" d="M234.968,21.266c0-0.432,0.3-0.756,0.72-0.756c0.419,0,0.707,0.312,0.707,0.756

		c0,0.432-0.288,0.755-0.731,0.755C235.255,22.021,234.968,21.698,234.968,21.266z"/>

	<path fill="#010101" d="M242.428,14.094v0.696l-3.394,7.1h-1.092l3.382-6.896v-0.024h-3.813v-0.875H242.428z"/>

	<path fill="#010101" d="M248.549,16.522v3.533c0,0.469,0.021,0.797,0.064,0.984c0.035,0.133,0.088,0.229,0.158,0.287

		s0.145,0.088,0.223,0.088c0.098,0,0.188-0.049,0.272-0.146s0.146-0.291,0.185-0.58h0.24c-0.066,0.523-0.195,0.885-0.387,1.084

		s-0.434,0.299-0.727,0.299c-0.289,0-0.52-0.088-0.691-0.264s-0.275-0.48-0.311-0.914c-0.398,0.441-0.776,0.749-1.134,0.923

		s-0.667,0.261-0.929,0.261c-0.176,0-0.348-0.034-0.516-0.103s-0.332-0.169-0.492-0.302c-0.008,0.566,0.041,1.061,0.146,1.482

		c0.074,0.301,0.111,0.512,0.111,0.633c0,0.211-0.054,0.379-0.161,0.504s-0.229,0.188-0.366,0.188c-0.141,0-0.256-0.055-0.346-0.164

		c-0.121-0.148-0.182-0.334-0.182-0.557c0-0.109,0.023-0.246,0.07-0.41c0.109-0.367,0.178-0.688,0.205-0.961

		c0.047-0.469,0.07-0.867,0.07-1.195v-4.67h0.984v3.381c0,0.398,0.033,0.686,0.1,0.861s0.186,0.314,0.357,0.416

		s0.344,0.152,0.516,0.152c0.203,0,0.443-0.061,0.721-0.182s0.559-0.316,0.844-0.586v-4.043H248.549z"/>

	<path fill="#010101" d="M250.137,23.341c0.839-1.188,1.499-2.734,1.499-4.893c0-2.159-0.647-3.682-1.499-4.881h0.815

		c0.755,0.983,1.571,2.53,1.571,4.881c-0.013,2.351-0.816,3.886-1.571,4.893H250.137z"/>

</g>

<g>

	<path fill="#010101" d="M187.97,61.669c0.3,0.18,0.983,0.479,1.727,0.479c1.344,0,1.775-0.852,1.763-1.511

		c-0.012-1.091-0.995-1.559-2.015-1.559h-0.588v-0.792h0.588c0.768,0,1.739-0.396,1.739-1.319c0-0.624-0.396-1.175-1.367-1.175

		c-0.624,0-1.224,0.276-1.56,0.516l-0.287-0.768c0.419-0.3,1.211-0.6,2.051-0.6c1.535,0,2.23,0.912,2.23,1.859

		c0,0.816-0.492,1.5-1.439,1.847v0.024c0.96,0.18,1.728,0.899,1.739,1.991c0,1.248-0.983,2.339-2.843,2.339

		c-0.875,0-1.643-0.276-2.026-0.528L187.97,61.669z"/>

	<path fill="#010101" d="M198.527,55.96h-2.975l-0.3,2.003c0.18-0.024,0.348-0.036,0.636-0.036c0.611,0,1.199,0.12,1.679,0.42

		c0.612,0.336,1.115,1.02,1.115,1.991c0,1.523-1.211,2.663-2.902,2.663c-0.852,0-1.559-0.24-1.942-0.479l0.264-0.804

		c0.324,0.192,0.959,0.432,1.679,0.432c0.983,0,1.848-0.647,1.835-1.691c0-1.007-0.684-1.715-2.23-1.715

		c-0.456,0-0.804,0.036-1.092,0.072l0.504-3.742h3.73V55.96z"/>

	<path fill="#010101" d="M205.222,58.886c0,2.651-0.995,4.114-2.71,4.114c-1.523,0-2.566-1.427-2.591-4.006

		c0-2.626,1.14-4.054,2.723-4.054C204.274,54.94,205.222,56.404,205.222,58.886z M200.988,59.006c0,2.027,0.624,3.178,1.583,3.178

		c1.067,0,1.583-1.259,1.583-3.25c0-1.919-0.479-3.179-1.583-3.179C201.66,55.756,200.988,56.883,200.988,59.006z"/>

	<path fill="#010101" d="M209.652,60.158c0.024,1.427,0.924,2.015,1.991,2.015c0.756,0,1.224-0.132,1.607-0.3l0.191,0.756

		C213.07,62.796,212.423,63,211.5,63c-1.787,0-2.854-1.188-2.854-2.938s1.031-3.118,2.723-3.118c1.906,0,2.398,1.655,2.398,2.723

		c0,0.216-0.013,0.372-0.036,0.492H209.652z M212.747,59.402c0.012-0.66-0.276-1.703-1.463-1.703c-1.08,0-1.535,0.971-1.619,1.703

		H212.747z"/>

	<path fill="#010101" d="M215.532,57.063l0.827,1.247c0.229,0.324,0.408,0.612,0.601,0.936h0.023

		c0.192-0.336,0.384-0.636,0.588-0.947l0.804-1.235h1.151l-1.979,2.806l2.027,2.999h-1.188l-0.863-1.307

		c-0.229-0.336-0.42-0.66-0.624-1.008h-0.023c-0.192,0.348-0.384,0.66-0.612,1.008l-0.839,1.307h-1.164l2.063-2.962l-1.967-2.842

		H215.532z"/>

	<path fill="#010101" d="M220.597,58.958c0-0.744-0.024-1.343-0.049-1.895h0.936l0.061,0.995h0.023

		c0.42-0.708,1.115-1.115,2.063-1.115c1.415,0,2.471,1.188,2.471,2.938c0,2.087-1.283,3.118-2.651,3.118

		c-0.768,0-1.438-0.336-1.786-0.912h-0.024v3.154h-1.043V58.958z M221.64,60.505c0,0.156,0.012,0.3,0.048,0.432

		c0.192,0.732,0.828,1.235,1.583,1.235c1.115,0,1.764-0.911,1.764-2.243c0-1.151-0.612-2.146-1.728-2.146

		c-0.72,0-1.403,0.503-1.595,1.295c-0.036,0.132-0.072,0.288-0.072,0.42V60.505z"/>

	<path fill="#010101" d="M232.247,54.545c-0.876,1.187-1.499,2.734-1.499,4.917c0,2.135,0.659,3.658,1.499,4.857h-0.815

		c-0.756-0.996-1.571-2.531-1.571-4.869c0.012-2.351,0.815-3.898,1.571-4.905H232.247z"/>

	<path fill="#010101" d="M238.233,58.886c0,2.651-0.995,4.114-2.71,4.114c-1.523,0-2.566-1.427-2.591-4.006

		c0-2.626,1.14-4.054,2.723-4.054C237.286,54.94,238.233,56.404,238.233,58.886z M234,59.006c0,2.027,0.624,3.178,1.583,3.178

		c1.067,0,1.583-1.259,1.583-3.25c0-1.919-0.479-3.179-1.583-3.179C234.672,55.756,234,56.883,234,59.006z"/>

	<path fill="#010101" d="M239.28,62.245c0-0.432,0.3-0.756,0.72-0.756c0.419,0,0.707,0.312,0.707,0.756

		c0,0.432-0.288,0.755-0.731,0.755C239.567,63,239.28,62.676,239.28,62.245z"/>

	<path fill="#010101" d="M246.741,55.072v0.696l-3.394,7.1h-1.092l3.382-6.896v-0.024h-3.813v-0.875H246.741z"/>

	<path fill="#010101" d="M252.862,57.501v3.533c0,0.469,0.021,0.797,0.064,0.984c0.035,0.133,0.088,0.229,0.158,0.287

		s0.145,0.088,0.223,0.088c0.098,0,0.188-0.049,0.272-0.146s0.146-0.291,0.185-0.58h0.24c-0.066,0.523-0.195,0.885-0.387,1.084

		s-0.434,0.299-0.727,0.299c-0.289,0-0.52-0.088-0.691-0.264s-0.275-0.48-0.311-0.914c-0.398,0.441-0.776,0.749-1.134,0.923

		s-0.667,0.261-0.929,0.261c-0.176,0-0.348-0.034-0.516-0.103s-0.332-0.169-0.492-0.302c-0.008,0.566,0.041,1.061,0.146,1.482

		c0.074,0.301,0.111,0.512,0.111,0.633c0,0.211-0.054,0.379-0.161,0.504s-0.229,0.188-0.366,0.188c-0.141,0-0.256-0.055-0.346-0.164

		c-0.121-0.148-0.182-0.334-0.182-0.557c0-0.109,0.023-0.246,0.07-0.41c0.109-0.367,0.178-0.688,0.205-0.961

		c0.047-0.469,0.07-0.867,0.07-1.195v-4.67h0.984v3.381c0,0.398,0.033,0.686,0.1,0.861s0.186,0.314,0.357,0.416

		s0.344,0.152,0.516,0.152c0.203,0,0.443-0.061,0.721-0.182s0.559-0.316,0.844-0.586v-4.043H252.862z"/>

	<path fill="#010101" d="M254.45,64.319c0.839-1.188,1.499-2.734,1.499-4.893c0-2.159-0.647-3.682-1.499-4.881h0.815

		c0.755,0.983,1.571,2.53,1.571,4.881c-0.013,2.351-0.816,3.886-1.571,4.893H254.45z"/>

</g>

<g>

	<path fill="#010101" d="M220.959,223.049c-1.523,0-2.566-1.427-2.592-4.006c0-2.626,1.141-4.054,2.723-4.054

		c1.631,0,2.578,1.463,2.578,3.946c0,2.651-0.994,4.114-2.697,4.114H220.959z M221.006,222.233c1.068,0,1.584-1.259,1.584-3.25

		c0-1.919-0.48-3.179-1.584-3.179c-0.959,0-1.582,1.224-1.582,3.179c-0.025,2.027,0.6,3.25,1.57,3.25H221.006z"/>

	<path fill="#010101" d="M225.412,223.049c-0.408,0-0.695-0.324-0.695-0.755c0-0.432,0.299-0.756,0.719-0.756

		s0.707,0.312,0.707,0.756c0,0.432-0.287,0.755-0.719,0.755H225.412z"/>

	<path fill="#010101" d="M227.367,221.718c0.301,0.18,0.984,0.479,1.727,0.479c1.344,0,1.775-0.852,1.764-1.511

		c-0.012-1.091-0.996-1.559-2.016-1.559h-0.588v-0.792h0.588c0.768,0,1.74-0.396,1.74-1.319c0-0.624-0.396-1.175-1.367-1.175

		c-0.625,0-1.225,0.276-1.561,0.516l-0.287-0.768c0.42-0.3,1.211-0.6,2.051-0.6c1.535,0,2.23,0.912,2.23,1.859

		c0,0.816-0.492,1.5-1.439,1.847v0.024c0.961,0.18,1.74,0.899,1.74,1.991c0,1.248-0.984,2.339-2.844,2.339

		c-0.875,0-1.643-0.276-2.025-0.528L227.367,221.718z"/>

</g>

<g>

	<path fill="#010101" d="M206.709,260.658c0.228,0.012,0.492,0,0.852-0.049c0.611-0.071,1.188-0.323,1.631-0.755

		c0.516-0.468,0.888-1.151,1.031-2.075h-0.035c-0.433,0.527-1.056,0.84-1.848,0.84c-1.403,0-2.303-1.055-2.303-2.398

		c0-1.463,1.08-2.759,2.675-2.759s2.578,1.283,2.578,3.286c0,1.715-0.575,2.914-1.343,3.67c-0.6,0.576-1.428,0.947-2.267,1.043

		c-0.384,0.049-0.731,0.072-0.972,0.061V260.658z M208.617,254.266c-0.888,0-1.523,0.791-1.523,1.895

		c0,0.972,0.588,1.655,1.499,1.655c0.708,0,1.26-0.348,1.547-0.815c0.049-0.096,0.084-0.216,0.084-0.384

		c0.013-1.343-0.491-2.351-1.595-2.351H208.617z"/>

	<path fill="#010101" d="M213.034,261.521c-0.408,0-0.695-0.324-0.695-0.756s0.3-0.756,0.72-0.756c0.419,0,0.707,0.313,0.707,0.756

		c0,0.432-0.288,0.756-0.72,0.756H213.034z"/>

	<path fill="#010101" d="M217.028,254.577h-0.023l-1.355,0.731l-0.204-0.803l1.703-0.912h0.899v7.796h-1.019V254.577z"/>

	<path fill="#010101" d="M221.721,255.585l0.828,1.235c0.217,0.336,0.396,0.623,0.588,0.947h0.035

		c0.193-0.336,0.385-0.636,0.588-0.947l0.805-1.235h1.15l-1.979,2.806l2.027,2.999h-1.199l-0.852-1.308

		c-0.229-0.336-0.42-0.659-0.625-1.008h-0.023c-0.191,0.349-0.396,0.66-0.611,1.008l-0.84,1.308h-1.164l2.064-2.962l-1.967-2.843

		H221.721z"/>

	<path fill="#010101" d="M228.74,254.577h-0.023l-1.355,0.731l-0.205-0.803l1.703-0.912h0.9v7.796h-1.02V254.577z"/>

	<path fill="#010101" d="M235.088,261.521c-1.523,0-2.566-1.428-2.59-4.006c0-2.627,1.139-4.054,2.723-4.054

		c1.631,0,2.578,1.464,2.578,3.946c0,2.65-0.996,4.113-2.699,4.113H235.088z M235.137,260.706c1.066,0,1.582-1.259,1.582-3.25

		c0-1.919-0.479-3.179-1.582-3.179c-0.959,0-1.584,1.224-1.584,3.179c-0.023,2.026,0.6,3.25,1.572,3.25H235.137z"/>

	<path fill="#010101" d="M240.551,254.854v0.538h-2.078v-0.538H240.551z"/>

	<path fill="#010101" d="M243.465,257.394v-1.488h-2.539v-0.479l2.439-3.497h0.799v3.405h0.764v0.571h-0.764v1.488H243.465z

		 M243.465,255.334v-1.833c0-0.286,0.01-0.571,0.025-0.858h-0.025c-0.168,0.32-0.303,0.556-0.453,0.816l-1.338,1.857v0.018H243.465z

		"/>

</g>

<g>

	<path fill="#010101" d="M224.371,448.392h-2.975l-0.299,1.979c0.18-0.024,0.348-0.049,0.635-0.049c0.611,0,1.199,0.133,1.68,0.42

		c0.611,0.336,1.115,1.02,1.115,2.027c0,1.523-1.211,2.662-2.902,2.662c-0.852,0-1.559-0.24-1.943-0.479l0.264-0.804

		c0.324,0.191,0.959,0.432,1.68,0.432c0.982,0,1.848-0.647,1.834-1.703c0-1.031-0.684-1.738-2.23-1.738

		c-0.455,0-0.803,0.035-1.092,0.084l0.504-3.719h3.73V448.392z"/>

	<path fill="#010101" d="M228.357,455.432c-1.523,0-2.566-1.428-2.592-4.006c0-2.627,1.141-4.054,2.723-4.054

		c1.631,0,2.578,1.464,2.578,3.946c0,2.65-0.994,4.113-2.697,4.113H228.357z M228.404,454.616c1.068,0,1.584-1.259,1.584-3.25

		c0-1.919-0.48-3.179-1.584-3.179c-0.959,0-1.582,1.224-1.582,3.179c-0.025,2.026,0.6,3.25,1.57,3.25H228.404z"/>

</g>

<g>

	<path fill="#010101" d="M224.371,416.892h-2.975l-0.299,1.979c0.18-0.024,0.348-0.049,0.635-0.049c0.611,0,1.199,0.133,1.68,0.42

		c0.611,0.336,1.115,1.02,1.115,2.027c0,1.523-1.211,2.662-2.902,2.662c-0.852,0-1.559-0.24-1.943-0.479l0.264-0.804

		c0.324,0.191,0.959,0.432,1.68,0.432c0.982,0,1.848-0.647,1.834-1.703c0-1.031-0.684-1.738-2.23-1.738

		c-0.455,0-0.803,0.035-1.092,0.084l0.504-3.719h3.73V416.892z"/>

	<path fill="#010101" d="M228.357,423.932c-1.523,0-2.566-1.428-2.592-4.006c0-2.627,1.141-4.054,2.723-4.054

		c1.631,0,2.578,1.464,2.578,3.946c0,2.65-0.994,4.113-2.697,4.113H228.357z M228.404,423.116c1.068,0,1.584-1.259,1.584-3.25

		c0-1.919-0.48-3.179-1.584-3.179c-0.959,0-1.582,1.224-1.582,3.179c-0.025,2.026,0.6,3.25,1.57,3.25H228.404z"/>

</g>

<g>

	<path fill="#010101" d="M9.889,173.06c-0.875-0.408-1.247-1.08-1.247-1.751c0-1.235,1.044-2.075,2.423-2.075

		c1.511,0,2.278,0.936,2.278,1.919c0,0.66-0.335,1.379-1.295,1.823v0.036c0.972,0.384,1.571,1.08,1.571,2.015

		c0,1.367-1.163,2.267-2.65,2.267c-1.632,0-2.615-0.959-2.615-2.099c0-0.983,0.588-1.691,1.548-2.099L9.889,173.06z M12.552,175.134

		c0-0.936-0.66-1.403-1.715-1.703c-0.912,0.264-1.403,0.875-1.403,1.619c-0.036,0.78,0.563,1.475,1.559,1.475

		C11.94,176.525,12.552,175.938,12.552,175.134z M9.649,171.236c-0.012,0.78,0.588,1.199,1.487,1.439

		c0.671-0.228,1.187-0.708,1.187-1.416c0-0.624-0.371-1.271-1.318-1.271C10.129,169.989,9.649,170.565,9.649,171.236z"/>

	<path fill="#010101" d="M19.799,173.179c0,2.651-0.995,4.114-2.71,4.114c-1.523,0-2.566-1.427-2.591-4.006

		c0-2.626,1.14-4.054,2.723-4.054C18.852,169.233,19.799,170.697,19.799,173.179z M15.565,173.299c0,2.027,0.624,3.178,1.583,3.178

		c1.067,0,1.583-1.259,1.583-3.25c0-1.919-0.479-3.179-1.583-3.179C16.237,170.049,15.565,171.176,15.565,173.299z"/>

	<path fill="#010101" d="M25.954,173.179c0,2.651-0.995,4.114-2.71,4.114c-1.523,0-2.566-1.427-2.591-4.006

		c0-2.626,1.14-4.054,2.723-4.054C25.007,169.233,25.954,170.697,25.954,173.179z M21.721,173.299c0,2.027,0.624,3.178,1.583,3.178

		c1.067,0,1.583-1.259,1.583-3.25c0-1.919-0.479-3.179-1.583-3.179C22.393,170.049,21.721,171.176,21.721,173.299z"/>

	<path fill="#010101" d="M32.11,173.179c0,2.651-0.995,4.114-2.71,4.114c-1.523,0-2.566-1.427-2.591-4.006

		c0-2.626,1.14-4.054,2.723-4.054C31.163,169.233,32.11,170.697,32.11,173.179z M27.877,173.299c0,2.027,0.624,3.178,1.583,3.178

		c1.067,0,1.583-1.259,1.583-3.25c0-1.919-0.479-3.179-1.583-3.179C28.549,170.049,27.877,171.176,27.877,173.299z"/>

	<path fill="#010101" d="M38.266,173.179c0,2.651-0.995,4.114-2.71,4.114c-1.523,0-2.566-1.427-2.591-4.006

		c0-2.626,1.14-4.054,2.723-4.054C37.318,169.233,38.266,170.697,38.266,173.179z M34.032,173.299c0,2.027,0.624,3.178,1.583,3.178

		c1.067,0,1.583-1.259,1.583-3.25c0-1.919-0.479-3.179-1.583-3.179C34.704,170.049,34.032,171.176,34.032,173.299z"/>

	<path fill="#010101" d="M42.696,174.451c0.024,1.427,0.924,2.015,1.991,2.015c0.756,0,1.224-0.132,1.607-0.3l0.191,0.756

		c-0.372,0.168-1.02,0.372-1.942,0.372c-1.787,0-2.854-1.188-2.854-2.938s1.031-3.118,2.723-3.118c1.906,0,2.398,1.655,2.398,2.723

		c0,0.216-0.013,0.372-0.036,0.492H42.696z M45.791,173.695c0.012-0.66-0.276-1.703-1.463-1.703c-1.08,0-1.535,0.971-1.619,1.703

		H45.791z"/>

	<path fill="#010101" d="M48.576,171.356l0.827,1.247c0.229,0.324,0.408,0.612,0.601,0.936h0.023

		c0.192-0.336,0.384-0.636,0.588-0.947l0.804-1.235h1.151l-1.979,2.806l2.027,2.999h-1.188l-0.863-1.307

		c-0.229-0.336-0.42-0.66-0.624-1.008H49.92c-0.192,0.348-0.384,0.66-0.612,1.008l-0.839,1.307h-1.164l2.063-2.962l-1.967-2.842

		H48.576z"/>

	<path fill="#010101" d="M53.641,173.251c0-0.744-0.024-1.343-0.049-1.895h0.936l0.061,0.995h0.023

		c0.42-0.708,1.115-1.115,2.063-1.115c1.415,0,2.471,1.188,2.471,2.938c0,2.087-1.283,3.118-2.651,3.118

		c-0.768,0-1.438-0.336-1.786-0.912h-0.024v3.154h-1.043V173.251z M54.684,174.798c0,0.156,0.012,0.3,0.048,0.432

		c0.192,0.732,0.828,1.235,1.583,1.235c1.115,0,1.764-0.911,1.764-2.243c0-1.151-0.612-2.146-1.728-2.146

		c-0.72,0-1.403,0.503-1.595,1.295c-0.036,0.132-0.072,0.288-0.072,0.42V174.798z"/>

	<path fill="#010101" d="M65.291,168.838c-0.876,1.187-1.499,2.734-1.499,4.917c0,2.135,0.659,3.658,1.499,4.857h-0.815

		c-0.756-0.996-1.571-2.531-1.571-4.869c0.012-2.351,0.815-3.898,1.571-4.905H65.291z"/>

	<path fill="#010101" d="M68.867,173.539v0.768h-2.963v-0.768H68.867z"/>

	<path fill="#010101" d="M74.961,173.179c0,2.651-0.995,4.114-2.71,4.114c-1.523,0-2.566-1.427-2.591-4.006

		c0-2.626,1.14-4.054,2.723-4.054C74.014,169.233,74.961,170.697,74.961,173.179z M70.728,173.299c0,2.027,0.624,3.178,1.583,3.178

		c1.067,0,1.583-1.259,1.583-3.25c0-1.919-0.479-3.179-1.583-3.179C71.399,170.049,70.728,171.176,70.728,173.299z"/>

	<path fill="#010101" d="M76.009,176.538c0-0.432,0.3-0.756,0.719-0.756c0.42,0,0.708,0.312,0.708,0.756

		c0,0.432-0.288,0.755-0.731,0.755C76.296,177.293,76.009,176.969,76.009,176.538z"/>

	<path fill="#010101" d="M78.66,175.962c0.3,0.18,0.983,0.479,1.727,0.479c1.344,0,1.775-0.852,1.763-1.511

		c-0.012-1.091-0.995-1.559-2.015-1.559h-0.588v-0.792h0.588c0.768,0,1.739-0.396,1.739-1.319c0-0.624-0.396-1.175-1.367-1.175

		c-0.624,0-1.224,0.276-1.56,0.516l-0.287-0.768c0.419-0.3,1.211-0.6,2.051-0.6c1.535,0,2.23,0.912,2.23,1.859

		c0,0.816-0.492,1.5-1.439,1.847v0.024c0.96,0.18,1.728,0.899,1.739,1.991c0,1.248-0.983,2.339-2.843,2.339

		c-0.875,0-1.643-0.276-2.026-0.528L78.66,175.962z"/>

	<path fill="#010101" d="M89.591,171.794v3.533c0,0.469,0.021,0.797,0.064,0.984c0.035,0.133,0.088,0.229,0.158,0.287

		s0.145,0.088,0.223,0.088c0.098,0,0.188-0.049,0.272-0.146s0.146-0.291,0.185-0.58h0.24c-0.066,0.523-0.195,0.885-0.387,1.084

		s-0.434,0.299-0.727,0.299c-0.289,0-0.52-0.088-0.691-0.264s-0.275-0.48-0.311-0.914c-0.398,0.441-0.776,0.749-1.134,0.923

		s-0.667,0.261-0.929,0.261c-0.176,0-0.348-0.034-0.516-0.103s-0.332-0.169-0.492-0.302c-0.008,0.566,0.041,1.061,0.146,1.482

		c0.074,0.301,0.111,0.512,0.111,0.633c0,0.211-0.054,0.379-0.161,0.504s-0.229,0.188-0.366,0.188c-0.141,0-0.256-0.055-0.346-0.164

		c-0.121-0.148-0.182-0.334-0.182-0.557c0-0.109,0.023-0.246,0.07-0.41c0.109-0.367,0.178-0.688,0.205-0.961

		c0.047-0.469,0.07-0.867,0.07-1.195v-4.67h0.984v3.381c0,0.398,0.033,0.686,0.1,0.861s0.186,0.314,0.357,0.416

		s0.344,0.152,0.516,0.152c0.203,0,0.443-0.061,0.721-0.182s0.559-0.316,0.844-0.586v-4.043H89.591z"/>

	<path fill="#010101" d="M91.179,178.612c0.839-1.188,1.499-2.734,1.499-4.893c0-2.159-0.647-3.682-1.499-4.881h0.815

		c0.755,0.983,1.571,2.53,1.571,4.881c-0.013,2.351-0.816,3.886-1.571,4.893H91.179z"/>

	<path fill="#010101" d="M35.84,187.327c0-0.611-0.024-1.091-0.049-1.571h0.924l0.048,0.947h0.036

		c0.324-0.552,0.863-1.067,1.835-1.067c0.779,0,1.379,0.48,1.631,1.164h0.024c0.18-0.336,0.42-0.576,0.659-0.756

		c0.348-0.264,0.72-0.408,1.271-0.408c0.779,0,1.919,0.504,1.919,2.519v3.406h-1.031v-3.274c0-1.127-0.42-1.787-1.26-1.787

		c-0.611,0-1.067,0.443-1.259,0.947c-0.048,0.156-0.084,0.336-0.084,0.528v3.586h-1.031v-3.478c0-0.923-0.408-1.583-1.212-1.583

		c-0.647,0-1.139,0.527-1.307,1.055c-0.061,0.144-0.084,0.336-0.084,0.516v3.49H35.84V187.327z"/>

	<path fill="#010101" d="M51.101,188.611c0,2.146-1.499,3.082-2.891,3.082c-1.56,0-2.782-1.151-2.782-2.986

		c0-1.931,1.283-3.07,2.878-3.07C49.973,185.636,51.101,186.848,51.101,188.611z M46.507,188.67c0,1.271,0.72,2.231,1.751,2.231

		c1.008,0,1.763-0.947,1.763-2.255c0-0.983-0.491-2.219-1.738-2.219C47.047,186.428,46.507,187.579,46.507,188.67z"/>

	<path fill="#010101" d="M52.436,183.046h1.055v8.515h-1.055V183.046z"/>

	<path fill="#010101" d="M55.854,188.851c0.024,1.427,0.924,2.015,1.991,2.015c0.756,0,1.224-0.132,1.607-0.3l0.191,0.756

		c-0.372,0.168-1.02,0.372-1.942,0.372c-1.787,0-2.854-1.187-2.854-2.938c0-1.751,1.031-3.118,2.723-3.118

		c1.906,0,2.398,1.655,2.398,2.723c0,0.216-0.013,0.372-0.036,0.492H55.854z M58.949,188.095c0.012-0.659-0.276-1.703-1.463-1.703

		c-1.08,0-1.535,0.971-1.619,1.703H58.949z"/>

	<path fill="#010101" d="M62.732,185.026v0.538h-2.077v-0.538H62.732z"/>

	<path fill="#010101" d="M63.36,187.565v-0.454l0.58-0.563c1.396-1.329,2.035-2.035,2.035-2.859c0-0.555-0.261-1.068-1.076-1.068

		c-0.496,0-0.908,0.252-1.16,0.462l-0.235-0.521c0.37-0.311,0.916-0.555,1.538-0.555c1.178,0,1.674,0.807,1.674,1.589

		c0,1.009-0.731,1.824-1.884,2.934l-0.429,0.404v0.017h2.446v0.614H63.36z"/>

</g>

<g>

	<path fill="#010101" d="M128.738,170.753h-2.975l-0.3,2.003c0.18-0.024,0.348-0.036,0.636-0.036c0.611,0,1.199,0.12,1.679,0.42

		c0.612,0.336,1.115,1.02,1.115,1.991c0,1.523-1.211,2.663-2.902,2.663c-0.852,0-1.559-0.24-1.942-0.479l0.264-0.804

		c0.324,0.192,0.959,0.432,1.679,0.432c0.983,0,1.848-0.647,1.835-1.691c0-1.007-0.684-1.715-2.23-1.715

		c-0.456,0-0.804,0.036-1.092,0.072l0.504-3.742h3.73V170.753z"/>

	<path fill="#010101" d="M135.434,173.679c0,2.651-0.995,4.114-2.71,4.114c-1.523,0-2.566-1.427-2.591-4.006

		c0-2.626,1.14-4.054,2.723-4.054C134.486,169.733,135.434,171.197,135.434,173.679z M131.2,173.799

		c0,2.027,0.624,3.178,1.583,3.178c1.067,0,1.583-1.259,1.583-3.25c0-1.919-0.479-3.179-1.583-3.179

		C131.872,170.549,131.2,171.676,131.2,173.799z"/>

	<path fill="#010101" d="M141.589,173.679c0,2.651-0.995,4.114-2.71,4.114c-1.523,0-2.566-1.427-2.591-4.006

		c0-2.626,1.14-4.054,2.723-4.054C140.642,169.733,141.589,171.197,141.589,173.679z M137.355,173.799

		c0,2.027,0.624,3.178,1.583,3.178c1.067,0,1.583-1.259,1.583-3.25c0-1.919-0.479-3.179-1.583-3.179

		C138.027,170.549,137.355,171.676,137.355,173.799z"/>

	<path fill="#010101" d="M146.02,174.951c0.024,1.427,0.924,2.015,1.991,2.015c0.756,0,1.224-0.132,1.607-0.3l0.191,0.756

		c-0.372,0.168-1.02,0.372-1.942,0.372c-1.787,0-2.854-1.188-2.854-2.938s1.031-3.118,2.723-3.118c1.906,0,2.398,1.655,2.398,2.723

		c0,0.216-0.013,0.372-0.036,0.492H146.02z M149.114,174.195c0.012-0.66-0.276-1.703-1.463-1.703c-1.08,0-1.535,0.971-1.619,1.703

		H149.114z"/>

	<path fill="#010101" d="M151.899,171.856l0.827,1.247c0.229,0.324,0.408,0.612,0.601,0.936h0.023

		c0.192-0.336,0.384-0.636,0.588-0.947l0.804-1.235h1.151l-1.979,2.806l2.027,2.999h-1.188l-0.863-1.307

		c-0.229-0.336-0.42-0.66-0.624-1.008h-0.023c-0.192,0.348-0.384,0.66-0.612,1.008l-0.839,1.307h-1.164l2.063-2.962l-1.967-2.842

		H151.899z"/>

	<path fill="#010101" d="M156.964,173.751c0-0.744-0.024-1.343-0.049-1.895h0.936l0.061,0.995h0.023

		c0.42-0.708,1.115-1.115,2.063-1.115c1.415,0,2.471,1.188,2.471,2.938c0,2.087-1.283,3.118-2.651,3.118

		c-0.768,0-1.438-0.336-1.786-0.912h-0.024v3.154h-1.043V173.751z M158.007,175.298c0,0.156,0.012,0.3,0.048,0.432

		c0.192,0.732,0.828,1.235,1.583,1.235c1.115,0,1.764-0.911,1.764-2.243c0-1.151-0.612-2.146-1.728-2.146

		c-0.72,0-1.403,0.503-1.595,1.295c-0.036,0.132-0.072,0.288-0.072,0.42V175.298z"/>

	<path fill="#010101" d="M168.614,169.338c-0.876,1.187-1.499,2.734-1.499,4.917c0,2.135,0.659,3.658,1.499,4.857h-0.815

		c-0.756-0.996-1.571-2.531-1.571-4.869c0.012-2.351,0.815-3.898,1.571-4.905H168.614z"/>

	<path fill="#010101" d="M174.601,173.679c0,2.651-0.995,4.114-2.71,4.114c-1.523,0-2.566-1.427-2.591-4.006

		c0-2.626,1.14-4.054,2.723-4.054C173.653,169.733,174.601,171.197,174.601,173.679z M170.367,173.799

		c0,2.027,0.624,3.178,1.583,3.178c1.067,0,1.583-1.259,1.583-3.25c0-1.919-0.479-3.179-1.583-3.179

		C171.039,170.549,170.367,171.676,170.367,173.799z"/>

	<path fill="#010101" d="M175.647,177.038c0-0.432,0.3-0.756,0.72-0.756c0.419,0,0.707,0.312,0.707,0.756

		c0,0.432-0.288,0.755-0.731,0.755C175.935,177.793,175.647,177.469,175.647,177.038z"/>

	<path fill="#010101" d="M178.3,176.462c0.3,0.18,0.983,0.479,1.727,0.479c1.344,0,1.775-0.852,1.763-1.511

		c-0.012-1.091-0.995-1.559-2.015-1.559h-0.588v-0.792h0.588c0.768,0,1.739-0.396,1.739-1.319c0-0.624-0.396-1.175-1.367-1.175

		c-0.624,0-1.224,0.276-1.56,0.516l-0.287-0.768c0.419-0.3,1.211-0.6,2.051-0.6c1.535,0,2.23,0.912,2.23,1.859

		c0,0.816-0.492,1.5-1.439,1.847v0.024c0.96,0.18,1.728,0.899,1.739,1.991c0,1.248-0.983,2.339-2.843,2.339

		c-0.875,0-1.643-0.276-2.026-0.528L178.3,176.462z"/>

	<path fill="#010101" d="M189.229,172.294v3.533c0,0.469,0.021,0.797,0.064,0.984c0.035,0.133,0.088,0.229,0.158,0.287

		s0.145,0.088,0.223,0.088c0.098,0,0.188-0.049,0.272-0.146s0.146-0.291,0.185-0.58h0.24c-0.066,0.523-0.195,0.885-0.387,1.084

		s-0.434,0.299-0.727,0.299c-0.289,0-0.52-0.088-0.691-0.264s-0.275-0.48-0.311-0.914c-0.398,0.441-0.776,0.749-1.134,0.923

		s-0.667,0.261-0.929,0.261c-0.176,0-0.348-0.034-0.516-0.103s-0.332-0.169-0.492-0.302c-0.008,0.566,0.041,1.061,0.146,1.482

		c0.074,0.301,0.111,0.512,0.111,0.633c0,0.211-0.054,0.379-0.161,0.504s-0.229,0.188-0.366,0.188c-0.141,0-0.256-0.055-0.346-0.164

		c-0.121-0.148-0.182-0.334-0.182-0.557c0-0.109,0.023-0.246,0.07-0.41c0.109-0.367,0.178-0.688,0.205-0.961

		c0.047-0.469,0.07-0.867,0.07-1.195v-4.67h0.984v3.381c0,0.398,0.033,0.686,0.1,0.861s0.186,0.314,0.357,0.416

		s0.344,0.152,0.516,0.152c0.203,0,0.443-0.061,0.721-0.182s0.559-0.316,0.844-0.586v-4.043H189.229z"/>

	<path fill="#010101" d="M190.817,179.112c0.839-1.188,1.499-2.734,1.499-4.893c0-2.159-0.647-3.682-1.499-4.881h0.815

		c0.755,0.983,1.571,2.53,1.571,4.881c-0.013,2.351-0.816,3.886-1.571,4.893H190.817z"/>

</g>

<g>

	<path fill="#010101" d="M319.175,170.348h-0.023l-1.355,0.732l-0.204-0.804l1.703-0.912h0.899v7.796h-1.02V170.348z"/>

	<path fill="#010101" d="M328.233,173.178c0,2.651-0.995,4.114-2.71,4.114c-1.523,0-2.566-1.427-2.591-4.006

		c0-2.626,1.14-4.054,2.723-4.054C327.286,169.232,328.233,170.696,328.233,173.178z M324,173.298c0,2.027,0.624,3.178,1.583,3.178

		c1.067,0,1.583-1.259,1.583-3.25c0-1.919-0.479-3.179-1.583-3.179C324.672,170.048,324,171.175,324,173.298z"/>

</g>

<g>

	<path fill="#010101" d="M349.407,177.161v-2.135h-3.622v-0.684l3.479-4.978h1.14v4.846h1.091v0.815h-1.091v2.135H349.407z

		 M349.407,174.211v-2.603c0-0.408,0.012-0.816,0.036-1.224h-0.036c-0.239,0.456-0.432,0.792-0.647,1.151l-1.907,2.65v0.024H349.407

		z"/>

	<path fill="#010101" d="M356.955,170.253h-2.975l-0.3,2.003c0.18-0.024,0.348-0.036,0.636-0.036c0.611,0,1.199,0.12,1.679,0.42

		c0.612,0.336,1.115,1.02,1.115,1.991c0,1.523-1.211,2.663-2.902,2.663c-0.852,0-1.559-0.24-1.942-0.479l0.264-0.804

		c0.324,0.192,0.96,0.432,1.679,0.432c0.983,0,1.848-0.647,1.835-1.691c0-1.007-0.684-1.715-2.23-1.715

		c-0.456,0-0.804,0.036-1.091,0.072l0.503-3.742h3.73V170.253z"/>

	<path fill="#010101" d="M363.65,173.179c0,2.651-0.995,4.114-2.71,4.114c-1.523,0-2.566-1.427-2.591-4.006

		c0-2.626,1.14-4.054,2.723-4.054C362.703,169.233,363.65,170.697,363.65,173.179z M359.417,173.299

		c0,2.027,0.624,3.178,1.583,3.178c1.067,0,1.583-1.259,1.583-3.25c0-1.919-0.479-3.179-1.583-3.179

		C360.089,170.049,359.417,171.176,359.417,173.299z"/>

	<path fill="#010101" d="M369.807,173.179c0,2.651-0.995,4.114-2.71,4.114c-1.523,0-2.566-1.427-2.591-4.006

		c0-2.626,1.14-4.054,2.723-4.054C368.859,169.233,369.807,170.697,369.807,173.179z M365.573,173.299

		c0,2.027,0.624,3.178,1.583,3.178c1.067,0,1.583-1.259,1.583-3.25c0-1.919-0.479-3.179-1.583-3.179

		C366.245,170.049,365.573,171.176,365.573,173.299z"/>

	<path fill="#010101" d="M373.65,172.927c0-0.611-0.024-1.091-0.049-1.571h0.924l0.048,0.947h0.036

		c0.324-0.552,0.863-1.067,1.835-1.067c0.779,0,1.379,0.48,1.631,1.164h0.024c0.18-0.336,0.42-0.576,0.659-0.756

		c0.348-0.264,0.72-0.408,1.271-0.408c0.779,0,1.919,0.504,1.919,2.519v3.406h-1.031v-3.274c0-1.127-0.42-1.787-1.26-1.787

		c-0.611,0-1.067,0.443-1.259,0.947c-0.048,0.156-0.084,0.336-0.084,0.528v3.586h-1.031v-3.478c0-0.923-0.408-1.583-1.212-1.583

		c-0.647,0-1.139,0.527-1.307,1.055c-0.061,0.144-0.084,0.336-0.084,0.516v3.49h-1.031V172.927z"/>

	<path fill="#010101" d="M388.911,174.211c0,2.146-1.499,3.082-2.891,3.082c-1.56,0-2.782-1.151-2.782-2.986

		c0-1.931,1.283-3.07,2.878-3.07C387.783,171.236,388.911,172.448,388.911,174.211z M384.317,174.271

		c0,1.271,0.72,2.231,1.751,2.231c1.008,0,1.763-0.947,1.763-2.255c0-0.983-0.491-2.219-1.738-2.219

		C384.857,172.028,384.317,173.179,384.317,174.271z"/>

	<path fill="#010101" d="M390.246,168.646h1.055v8.515h-1.055V168.646z"/>

	<path fill="#010101" d="M393.665,174.451c0.024,1.427,0.924,2.015,1.991,2.015c0.756,0,1.224-0.132,1.607-0.3l0.191,0.756

		c-0.372,0.168-1.02,0.372-1.942,0.372c-1.787,0-2.854-1.188-2.854-2.938s1.031-3.118,2.723-3.118c1.906,0,2.398,1.655,2.398,2.723

		c0,0.216-0.013,0.372-0.036,0.492H393.665z M396.76,173.695c0.012-0.66-0.276-1.703-1.463-1.703c-1.08,0-1.535,0.971-1.619,1.703

		H396.76z"/>

	<path fill="#010101" d="M400.541,170.626v0.538h-2.077v-0.538H400.541z"/>

	<path fill="#010101" d="M401.169,173.165v-0.454l0.58-0.563c1.396-1.329,2.035-2.035,2.035-2.859c0-0.555-0.261-1.068-1.076-1.068

		c-0.496,0-0.908,0.252-1.16,0.462l-0.235-0.521c0.37-0.311,0.916-0.555,1.538-0.555c1.178,0,1.674,0.807,1.674,1.589

		c0,1.009-0.731,1.824-1.884,2.934l-0.429,0.404v0.017h2.446v0.614H401.169z"/>

</g>

<g>

	<path fill="#010101" d="M47.231,365.815h-0.023l-1.355,0.731l-0.204-0.803l1.703-0.912h0.899v7.796h-1.02V365.815z"/>

	<path fill="#010101" d="M56.29,368.646c0,2.65-0.995,4.113-2.71,4.113c-1.523,0-2.566-1.428-2.591-4.006

		c0-2.627,1.14-4.054,2.723-4.054C55.343,364.7,56.29,366.164,56.29,368.646z M52.057,368.766c0,2.027,0.624,3.179,1.583,3.179

		c1.067,0,1.583-1.259,1.583-3.25c0-1.919-0.479-3.179-1.583-3.179C52.729,365.516,52.057,366.643,52.057,368.766z"/>

	<path fill="#010101" d="M60.354,363.789h-2.085l-0.211,1.404c0.127-0.018,0.244-0.025,0.446-0.025c0.429,0,0.841,0.084,1.177,0.295

		c0.429,0.234,0.782,0.714,0.782,1.395c0,1.068-0.85,1.867-2.035,1.867c-0.597,0-1.093-0.168-1.361-0.336l0.185-0.564

		c0.227,0.135,0.673,0.303,1.177,0.303c0.689,0,1.295-0.453,1.287-1.186c0-0.705-0.479-1.201-1.564-1.201

		c-0.319,0-0.563,0.024-0.765,0.05l0.353-2.623h2.615V363.789z"/>

	<path fill="#010101" d="M64.442,368.395c0-0.611-0.024-1.092-0.049-1.571h0.924l0.048,0.947h0.036

		c0.324-0.552,0.863-1.067,1.835-1.067c0.779,0,1.379,0.48,1.631,1.164h0.024c0.18-0.336,0.42-0.576,0.659-0.756

		c0.349-0.264,0.72-0.408,1.271-0.408c0.779,0,1.919,0.504,1.919,2.519v3.406H71.71v-3.274c0-1.127-0.42-1.787-1.26-1.787

		c-0.611,0-1.067,0.443-1.259,0.947c-0.048,0.156-0.084,0.336-0.084,0.528v3.586h-1.031v-3.478c0-0.924-0.408-1.584-1.212-1.584

		c-0.647,0-1.139,0.527-1.307,1.056c-0.061,0.144-0.084,0.336-0.084,0.516v3.49h-1.031V368.395z"/>

	<path fill="#010101" d="M79.703,369.678c0,2.146-1.499,3.082-2.891,3.082c-1.56,0-2.782-1.151-2.782-2.986

		c0-1.931,1.283-3.07,2.878-3.07C78.575,366.703,79.703,367.914,79.703,369.678z M75.109,369.737c0,1.271,0.72,2.231,1.751,2.231

		c1.008,0,1.763-0.947,1.763-2.256c0-0.982-0.491-2.219-1.738-2.219C75.649,367.494,75.109,368.646,75.109,369.737z"/>

	<path fill="#010101" d="M81.038,364.113h1.055v8.515h-1.055V364.113z"/>

	<path fill="#010101" d="M84.457,369.918c0.024,1.427,0.924,2.014,1.991,2.014c0.756,0,1.224-0.131,1.607-0.299l0.191,0.756

		c-0.372,0.168-1.02,0.371-1.942,0.371c-1.787,0-2.854-1.188-2.854-2.938s1.031-3.118,2.723-3.118c1.906,0,2.398,1.655,2.398,2.723

		c0,0.216-0.012,0.371-0.036,0.492H84.457z M87.552,369.162c0.012-0.66-0.276-1.703-1.463-1.703c-1.08,0-1.535,0.971-1.619,1.703

		H87.552z"/>

	<path fill="#010101" d="M91.335,366.093v0.538h-2.077v-0.538H91.335z"/>

	<path fill="#010101" d="M93.569,363.856h-0.017l-0.95,0.513l-0.144-0.563l1.194-0.639h0.631v5.465h-0.715V363.856z"/>

</g>

<g>

	<path fill="#010101" d="M122.538,372.628v-0.647l0.827-0.804c1.991-1.896,2.902-2.902,2.902-4.077c0-0.792-0.372-1.523-1.535-1.523

		c-0.707,0-1.295,0.359-1.655,0.659l-0.336-0.743c0.528-0.444,1.308-0.792,2.195-0.792c1.679,0,2.387,1.151,2.387,2.267

		c0,1.439-1.044,2.604-2.687,4.186l-0.611,0.576v0.023h3.489v0.876H122.538z"/>

	<path fill="#010101" d="M133.887,368.646c0,2.65-0.995,4.113-2.71,4.113c-1.523,0-2.566-1.428-2.591-4.006

		c0-2.627,1.14-4.054,2.723-4.054C132.939,364.7,133.887,366.164,133.887,368.646z M129.653,368.766

		c0,2.027,0.624,3.179,1.583,3.179c1.067,0,1.583-1.259,1.583-3.25c0-1.919-0.479-3.179-1.583-3.179

		C130.325,365.516,129.653,366.643,129.653,368.766z"/>

</g>

<g>

	<path fill="#010101" d="M312.167,368.526c-0.875-0.408-1.247-1.079-1.247-1.751c0-1.235,1.044-2.075,2.423-2.075

		c1.511,0,2.278,0.936,2.278,1.919c0,0.66-0.335,1.379-1.295,1.823v0.036c0.972,0.383,1.571,1.079,1.571,2.015

		c0,1.367-1.163,2.267-2.65,2.267c-1.632,0-2.615-0.959-2.615-2.099c0-0.983,0.588-1.691,1.548-2.099L312.167,368.526z

		 M314.83,370.602c0-0.936-0.66-1.404-1.715-1.703c-0.912,0.264-1.403,0.875-1.403,1.619c-0.036,0.779,0.563,1.475,1.559,1.475

		C314.219,371.992,314.83,371.404,314.83,370.602z M311.928,366.703c-0.012,0.779,0.588,1.199,1.487,1.439

		c0.671-0.229,1.187-0.708,1.187-1.416c0-0.623-0.371-1.271-1.318-1.271C312.407,365.456,311.928,366.031,311.928,366.703z"/>

	<path fill="#010101" d="M322.077,368.646c0,2.65-0.995,4.113-2.71,4.113c-1.523,0-2.566-1.428-2.591-4.006

		c0-2.627,1.14-4.054,2.723-4.054C321.13,364.7,322.077,366.164,322.077,368.646z M317.844,368.766c0,2.027,0.624,3.179,1.583,3.179

		c1.067,0,1.583-1.259,1.583-3.25c0-1.919-0.479-3.179-1.583-3.179C318.516,365.516,317.844,366.643,317.844,368.766z"/>

	<path fill="#010101" d="M328.233,368.646c0,2.65-0.995,4.113-2.71,4.113c-1.523,0-2.566-1.428-2.591-4.006

		c0-2.627,1.14-4.054,2.723-4.054C327.286,364.7,328.233,366.164,328.233,368.646z M324,368.766c0,2.027,0.624,3.179,1.583,3.179

		c1.067,0,1.583-1.259,1.583-3.25c0-1.919-0.479-3.179-1.583-3.179C324.672,365.516,324,366.643,324,368.766z"/>

</g>

<g>

	<path fill="#010101" d="M355.911,365.815h-0.023l-1.355,0.731l-0.204-0.803l1.703-0.912h0.899v7.796h-1.02V365.815z"/>

	<path fill="#010101" d="M359.777,372.628v-0.647l0.827-0.804c1.991-1.896,2.902-2.902,2.902-4.077c0-0.792-0.372-1.523-1.535-1.523

		c-0.707,0-1.295,0.359-1.655,0.659l-0.336-0.743c0.528-0.444,1.308-0.792,2.195-0.792c1.679,0,2.387,1.151,2.387,2.267

		c0,1.439-1.044,2.604-2.687,4.186l-0.611,0.576v0.023h3.489v0.876H359.777z"/>

	<path fill="#010101" d="M368.224,365.815H368.2l-1.355,0.731l-0.204-0.803l1.703-0.912h0.899v7.796h-1.02V365.815z"/>

	<path fill="#010101" d="M372.701,371.885c0.228,0.023,0.492,0,0.852-0.037c0.611-0.083,1.188-0.323,1.631-0.755

		c0.516-0.468,0.888-1.151,1.031-2.063h-0.035c-0.433,0.528-1.056,0.828-1.848,0.828c-1.391,0-2.29-1.055-2.29-2.387

		c0-1.475,1.067-2.771,2.662-2.771s2.578,1.283,2.578,3.298c0,1.703-0.575,2.902-1.343,3.646c-0.6,0.588-1.428,0.947-2.267,1.043

		c-0.384,0.061-0.72,0.072-0.972,0.061V371.885z M373.085,367.41c0,0.973,0.588,1.656,1.499,1.656c0.708,0,1.26-0.348,1.535-0.816

		c0.061-0.107,0.096-0.215,0.096-0.396c0-1.331-0.491-2.351-1.606-2.351C373.721,365.504,373.085,366.295,373.085,367.41z"/>

	<path fill="#010101" d="M383.438,368.646c0,2.65-0.995,4.113-2.71,4.113c-1.523,0-2.566-1.428-2.591-4.006

		c0-2.627,1.14-4.054,2.723-4.054C382.491,364.7,383.438,366.164,383.438,368.646z M379.205,368.766

		c0,2.027,0.624,3.179,1.583,3.179c1.067,0,1.583-1.259,1.583-3.25c0-1.919-0.479-3.179-1.583-3.179

		C379.877,365.516,379.205,366.643,379.205,368.766z"/>

	<path fill="#010101" d="M387.282,368.395c0-0.611-0.024-1.092-0.049-1.571h0.924l0.048,0.947h0.036

		c0.324-0.552,0.863-1.067,1.835-1.067c0.779,0,1.379,0.48,1.631,1.164h0.024c0.18-0.336,0.42-0.576,0.659-0.756

		c0.348-0.264,0.72-0.408,1.271-0.408c0.779,0,1.919,0.504,1.919,2.519v3.406h-1.031v-3.274c0-1.127-0.42-1.787-1.26-1.787

		c-0.611,0-1.067,0.443-1.259,0.947c-0.048,0.156-0.084,0.336-0.084,0.528v3.586h-1.031v-3.478c0-0.924-0.408-1.584-1.212-1.584

		c-0.647,0-1.139,0.527-1.307,1.056c-0.061,0.144-0.084,0.336-0.084,0.516v3.49h-1.031V368.395z"/>

	<path fill="#010101" d="M402.543,369.678c0,2.146-1.499,3.082-2.891,3.082c-1.56,0-2.782-1.151-2.782-2.986

		c0-1.931,1.283-3.07,2.878-3.07C401.415,366.703,402.543,367.914,402.543,369.678z M397.949,369.737

		c0,1.271,0.72,2.231,1.751,2.231c1.008,0,1.763-0.947,1.763-2.256c0-0.982-0.491-2.219-1.738-2.219

		C398.489,367.494,397.949,368.646,397.949,369.737z"/>

	<path fill="#010101" d="M403.878,364.113h1.055v8.515h-1.055V364.113z"/>

	<path fill="#010101" d="M407.297,369.918c0.024,1.427,0.924,2.014,1.991,2.014c0.756,0,1.224-0.131,1.607-0.299l0.191,0.756

		c-0.372,0.168-1.02,0.371-1.942,0.371c-1.787,0-2.854-1.188-2.854-2.938s1.031-3.118,2.723-3.118c1.906,0,2.398,1.655,2.398,2.723

		c0,0.216-0.013,0.371-0.036,0.492H407.297z M410.392,369.162c0.012-0.66-0.276-1.703-1.463-1.703c-1.08,0-1.535,0.971-1.619,1.703

		H410.392z"/>

	<path fill="#010101" d="M414.173,366.093v0.538h-2.077v-0.538H414.173z"/>

	<path fill="#010101" d="M416.407,363.856h-0.017l-0.95,0.513l-0.144-0.563l1.194-0.639h0.631v5.465h-0.715V363.856z"/>

</g>

</svg>

