<?xml version="1.0" encoding="utf-8"?>
<!-- Generator: Adobe Illustrator 14.0.0, SVG Export Plug-In . SVG Version: 6.00 Build 43363)  -->
<!DOCTYPE svg PUBLIC "-//W3C//DTD SVG 1.1//EN" "http://www.w3.org/Graphics/SVG/1.1/DTD/svg11.dtd">
<svg version="1.1" id="Layer_1" xmlns="http://www.w3.org/2000/svg" xmlns:xlink="http://www.w3.org/1999/xlink" x="0px" y="0px"
	 width="733px" height="556px" viewBox="0 0 733 556" enable-background="new 0 0 733 556" xml:space="preserve">
<rect x="-13.252" y="-22.001" fill="#FFFFFF" width="757.252" height="595"/>
<rect x="40" y="87.624" fill="none" stroke="#231F20" width="652" height="306.819"/>
<g>
	<path fill="#010101" d="M532.949,513.74c0.547,0.35,1.33,0.615,2.172,0.615c1.246,0,1.975-0.658,1.975-1.61
		c0-0.868-0.504-1.387-1.779-1.862c-1.541-0.561-2.494-1.373-2.494-2.689c0-1.471,1.219-2.564,3.055-2.564
		c0.953,0,1.666,0.225,2.072,0.463l-0.336,0.994c-0.293-0.182-0.924-0.447-1.779-0.447c-1.287,0-1.777,0.77-1.777,1.414
		c0,0.883,0.574,1.316,1.877,1.82c1.596,0.617,2.395,1.387,2.395,2.774c0,1.456-1.064,2.731-3.291,2.731
		c-0.912,0-1.906-0.28-2.41-0.617L532.949,513.74z"/>
	<path fill="#010101" d="M540.299,508.445l1.471,4.006c0.168,0.448,0.336,0.98,0.449,1.387h0.027
		c0.127-0.406,0.266-0.924,0.436-1.415l1.344-3.978h1.303l-1.85,4.832c-0.883,2.326-1.484,3.502-2.324,4.244
		c-0.617,0.519-1.205,0.729-1.514,0.785l-0.309-1.023c0.309-0.098,0.715-0.293,1.08-0.602c0.336-0.267,0.742-0.742,1.035-1.373
		c0.057-0.126,0.1-0.225,0.1-0.294c0-0.07-0.029-0.169-0.1-0.322l-2.492-6.247H540.299z"/>
	<path fill="#010101" d="M546.193,513.979c0.377,0.224,1.021,0.476,1.639,0.476c0.883,0,1.303-0.435,1.303-1.009
		c0-0.588-0.35-0.896-1.246-1.232c-1.234-0.448-1.809-1.106-1.809-1.919c0-1.093,0.896-1.989,2.34-1.989
		c0.686,0,1.289,0.182,1.652,0.42l-0.293,0.896c-0.268-0.168-0.758-0.406-1.387-0.406c-0.729,0-1.121,0.421-1.121,0.925
		c0,0.561,0.393,0.812,1.275,1.163c1.162,0.434,1.777,1.022,1.777,2.031c0,1.204-0.938,2.045-2.52,2.045
		c-0.744,0-1.43-0.196-1.906-0.477L546.193,513.979z"/>
	<path fill="#010101" d="M553.391,506.82v1.625h1.764v0.938h-1.764v3.656c0,0.841,0.236,1.316,0.924,1.316
		c0.336,0,0.531-0.027,0.715-0.084l0.055,0.939c-0.238,0.084-0.615,0.168-1.092,0.168c-0.574,0-1.037-0.196-1.33-0.519
		c-0.338-0.378-0.477-0.98-0.477-1.778v-3.699h-1.051v-0.938h1.051v-1.262L553.391,506.82z"/>
	<path fill="#010101" d="M557.141,512.059c0.029,1.667,1.078,2.354,2.326,2.354c0.883,0,1.428-0.154,1.877-0.35l0.225,0.882
		c-0.436,0.196-1.191,0.435-2.27,0.435c-2.088,0-3.334-1.387-3.334-3.432s1.205-3.643,3.18-3.643c2.227,0,2.801,1.934,2.801,3.18
		c0,0.252-0.014,0.435-0.041,0.574H557.141z M560.756,511.176c0.014-0.77-0.322-1.988-1.709-1.988c-1.262,0-1.793,1.135-1.893,1.988
		H560.756z"/>
	<path fill="#010101" d="M563.469,510.279c0-0.714-0.029-1.273-0.057-1.834h1.078l0.057,1.106h0.043
		c0.377-0.645,1.008-1.247,2.143-1.247c0.91,0,1.611,0.561,1.904,1.359h0.029c0.209-0.393,0.49-0.673,0.77-0.883
		c0.406-0.309,0.84-0.477,1.484-0.477c0.91,0,2.242,0.588,2.242,2.941v3.979h-1.205V511.4c0-1.316-0.49-2.087-1.471-2.087
		c-0.715,0-1.246,0.519-1.471,1.106c-0.057,0.182-0.098,0.393-0.098,0.616v4.188h-1.205v-4.062c0-1.078-0.477-1.849-1.414-1.849
		c-0.758,0-1.332,0.616-1.527,1.232c-0.07,0.169-0.098,0.393-0.098,0.603v4.076h-1.205V510.279z"/>
	<path fill="#010101" d="M576.518,506.54c0,0.42-0.295,0.757-0.785,0.757c-0.447,0-0.742-0.337-0.742-0.757
		c0-0.421,0.309-0.771,0.77-0.771C576.209,505.77,576.518,506.105,576.518,506.54z M575.145,515.225v-6.779h1.232v6.779H575.145z"/>
	<path fill="#010101" d="M583.254,514.986c-0.322,0.154-1.037,0.393-1.947,0.393c-2.045,0-3.377-1.387-3.377-3.46
		c0-2.087,1.43-3.614,3.643-3.614c0.729,0,1.373,0.182,1.709,0.364l-0.279,0.938c-0.295-0.154-0.758-0.322-1.43-0.322
		c-1.555,0-2.395,1.163-2.395,2.563c0,1.569,1.008,2.536,2.352,2.536c0.701,0,1.164-0.169,1.514-0.322L583.254,514.986z"/>
	<path fill="#010101" d="M587.689,505.783h1.232v8.419h4.033v1.022h-5.266V505.783z"/>
	<path fill="#010101" d="M600.209,511.779c0,2.507-1.752,3.6-3.377,3.6c-1.82,0-3.25-1.345-3.25-3.488
		c0-2.255,1.5-3.586,3.363-3.586C598.891,508.305,600.209,509.72,600.209,511.779z M594.844,511.849c0,1.485,0.84,2.605,2.045,2.605
		c1.176,0,2.059-1.106,2.059-2.634c0-1.148-0.574-2.591-2.031-2.591C595.473,509.229,594.844,510.574,594.844,511.849z"/>
	<path fill="#010101" d="M607.895,511.779c0,2.507-1.752,3.6-3.377,3.6c-1.82,0-3.25-1.345-3.25-3.488
		c0-2.255,1.5-3.586,3.363-3.586C606.576,508.305,607.895,509.72,607.895,511.779z M602.529,511.849c0,1.485,0.84,2.605,2.045,2.605
		c1.176,0,2.059-1.106,2.059-2.634c0-1.148-0.574-2.591-2.031-2.591C603.158,509.229,602.529,510.574,602.529,511.849z"/>
	<path fill="#010101" d="M609.443,510.658c0-0.869-0.027-1.568-0.055-2.213h1.092l0.07,1.162h0.027
		c0.49-0.826,1.303-1.303,2.41-1.303c1.652,0,2.885,1.387,2.885,3.432c0,2.438-1.498,3.643-3.096,3.643
		c-0.896,0-1.68-0.393-2.086-1.064h-0.029v3.684h-1.219V510.658z M610.662,512.465c0,0.183,0.014,0.351,0.057,0.504
		c0.225,0.855,0.967,1.443,1.85,1.443c1.303,0,2.059-1.064,2.059-2.619c0-1.345-0.715-2.508-2.018-2.508
		c-0.84,0-1.639,0.588-1.863,1.514c-0.041,0.153-0.084,0.336-0.084,0.49V512.465z"/>
</g>
<rect x="20" y="357.443" fill="none" stroke="#231F20" stroke-dasharray="3,3" width="692" height="182.556"/>
<g>
	<rect x="152.41" y="22.351" fill="none" stroke="#231F20" stroke-dasharray="3,3" width="375" height="160"/>
	<g>
		<g>
			<g id="XMLID_1_">
				<g>
					<polygon fill="#FFFFFF" points="416.907,72.827 416.907,102.107 395.907,87.297 					"/>
				</g>
				<g>
					<line fill="none" stroke="#231F20" x1="395.907" y1="87.297" x2="416.907" y2="102.107"/>
					<line fill="none" stroke="#231F20" x1="416.907" y1="102.107" x2="416.907" y2="72.827"/>
					<line fill="none" stroke="#231F20" x1="416.907" y1="72.827" x2="395.907" y2="87.297"/>
				</g>
			</g>
		</g>
		<line fill="none" stroke="#231F20" x1="394.41" y1="72.033" x2="394.41" y2="102.898"/>
	</g>
	<g>
		<g>
			<g id="XMLID_2_">
				<g>
					<polygon fill="#FFFFFF" points="232.409,72.818 232.409,102.098 211.409,87.289 					"/>
				</g>
				<g>
					<line fill="none" stroke="#231F20" x1="211.409" y1="87.289" x2="232.409" y2="102.098"/>
					<line fill="none" stroke="#231F20" x1="232.409" y1="102.098" x2="232.409" y2="72.818"/>
					<line fill="none" stroke="#231F20" x1="232.409" y1="72.818" x2="211.409" y2="87.289"/>
				</g>
			</g>
		</g>
		<line fill="none" stroke="#231F20" x1="209.913" y1="72.033" x2="209.913" y2="102.898"/>
	</g>
	<line fill="none" stroke="#231F20" x1="472.41" y1="87.2" x2="472.41" y2="159.351"/>
	<line fill="none" stroke="#231F20" x1="460.076" y1="159.351" x2="485.076" y2="159.351"/>
	<line fill="none" stroke="#231F20" x1="460.076" y1="123.7" x2="485.076" y2="123.7"/>
	<line fill="none" stroke="#231F20" x1="460.076" y1="131.351" x2="485.076" y2="131.351"/>
	<g>
		<g>
			<line fill="none" stroke="#010101" x1="479.256" y1="113.663" x2="465.562" y2="143.039"/>
			<polygon fill="#010101" points="481.426,117.773 478.733,114.783 474.712,114.644 481.777,108.252 			"/>
		</g>
	</g>
	<line fill="none" stroke="#231F20" x1="296.243" y1="87.624" x2="296.243" y2="159.775"/>
	<line fill="none" stroke="#231F20" x1="283.91" y1="159.775" x2="308.91" y2="159.775"/>
	<line fill="none" stroke="#231F20" x1="283.91" y1="124.124" x2="308.91" y2="124.124"/>
	<line fill="none" stroke="#231F20" x1="283.91" y1="131.775" x2="308.91" y2="131.775"/>
	<g>
		<g>
			<line fill="none" stroke="#010101" x1="303.088" y1="114.087" x2="289.396" y2="143.463"/>
			<polygon fill="#010101" points="305.258,118.197 302.566,115.207 298.544,115.068 305.61,108.677 			"/>
		</g>
	</g>
	<g>
		<path fill="#010101" d="M174.693,150.334v3.95h4.566v-3.95h1.232v9.441h-1.232v-4.426h-4.566v4.426h-1.232v-9.441H174.693z"/>
		<path fill="#010101" d="M183.247,156.61c0.028,1.667,1.078,2.353,2.325,2.353c0.883,0,1.429-0.154,1.877-0.35l0.225,0.882
			c-0.435,0.196-1.191,0.435-2.27,0.435c-2.087,0-3.334-1.387-3.334-3.432c0-2.045,1.205-3.642,3.18-3.642
			c2.228,0,2.802,1.933,2.802,3.18c0,0.252-0.015,0.435-0.042,0.575H183.247z M186.861,155.727c0.014-0.77-0.322-1.989-1.709-1.989
			c-1.261,0-1.793,1.134-1.892,1.989H186.861z"/>
		<path fill="#010101" d="M194.336,158.15c0,0.588,0.028,1.163,0.098,1.625h-1.106l-0.098-0.854h-0.042
			c-0.378,0.532-1.106,1.009-2.073,1.009c-1.373,0-2.073-0.967-2.073-1.947c0-1.639,1.457-2.535,4.076-2.521v-0.14
			c0-0.546-0.154-1.569-1.541-1.555c-0.645,0-1.303,0.182-1.778,0.504l-0.28-0.827c0.56-0.35,1.387-0.588,2.241-0.588
			c2.073,0,2.577,1.415,2.577,2.76V158.15z M193.146,156.315c-1.345-0.028-2.872,0.21-2.872,1.527c0,0.812,0.532,1.177,1.148,1.177
			c0.896,0,1.472-0.561,1.667-1.135c0.042-0.14,0.057-0.28,0.057-0.392V156.315z"/>
		<path fill="#010101" d="M196.322,155.111c0-0.798-0.014-1.485-0.056-2.115h1.078l0.057,1.345h0.042
			c0.308-0.91,1.064-1.485,1.891-1.485c0.126,0,0.225,0.014,0.336,0.028v1.163c-0.126-0.028-0.252-0.028-0.42-0.028
			c-0.868,0-1.484,0.645-1.653,1.569c-0.027,0.168-0.042,0.378-0.042,0.575v3.614h-1.232V155.111z"/>
		<path fill="#010101" d="M202.721,151.371v1.625h1.765v0.938h-1.765v3.656c0,0.84,0.237,1.316,0.924,1.316
			c0.336,0,0.532-0.028,0.715-0.084l0.056,0.938c-0.238,0.084-0.616,0.168-1.093,0.168c-0.574,0-1.036-0.196-1.33-0.519
			c-0.337-0.378-0.477-0.98-0.477-1.779v-3.698h-1.051v-0.938h1.051v-1.261L202.721,151.371z"/>
	</g>
	<g>
		<path fill="#010101" d="M221.028,58.976c-1.274-0.336-2.521-0.714-3.614-1.093c-0.21-0.07-0.392-0.14-0.574-0.14
			c-2.255-0.084-4.16-1.737-4.16-4.791c0-3.025,1.835-4.973,4.384-4.973c2.577,0,4.244,1.989,4.244,4.777
			c0,2.437-1.121,3.978-2.689,4.539v0.056c0.938,0.238,1.961,0.462,2.76,0.603L221.028,58.976z M220.02,52.826
			c0-1.905-0.98-3.852-2.983-3.852c-2.059,0-3.068,1.905-3.068,3.95c0,2.017,1.093,3.824,3.025,3.824
			C218.927,56.749,220.02,54.969,220.02,52.826z"/>
		<path fill="#010101" d="M225.193,61.304c0,0.343,0.016,0.677,0.057,0.947h-0.645l-0.057-0.498h-0.024
			c-0.22,0.31-0.645,0.588-1.208,0.588c-0.8,0-1.208-0.563-1.208-1.135c0-0.955,0.849-1.478,2.375-1.469v-0.082
			c0-0.318-0.09-0.914-0.898-0.906c-0.375,0-0.759,0.106-1.037,0.294l-0.163-0.482c0.326-0.204,0.808-0.343,1.306-0.343
			c1.208,0,1.502,0.825,1.502,1.608V61.304z M224.499,60.234c-0.784-0.016-1.674,0.123-1.674,0.89c0,0.473,0.311,0.686,0.669,0.686
			c0.522,0,0.857-0.327,0.972-0.661c0.024-0.082,0.033-0.163,0.033-0.229V60.234z"/>
		<path fill="#010101" d="M229.927,60.243c0,1.461-1.021,2.098-1.967,2.098c-1.061,0-1.894-0.784-1.894-2.033
			c0-1.314,0.874-2.09,1.959-2.09C229.16,58.218,229.927,59.043,229.927,60.243z M226.8,60.284c0,0.865,0.49,1.518,1.192,1.518
			c0.686,0,1.2-0.645,1.2-1.535c0-0.669-0.335-1.51-1.184-1.51C227.167,58.757,226.8,59.541,226.8,60.284z"/>
	</g>
	<g>
		<path fill="#010101" d="M217.057,119.405c-0.434,0.224-1.345,0.448-2.493,0.448c-2.662,0-4.65-1.681-4.65-4.791
			c0-2.969,2.003-4.958,4.931-4.958c1.163,0,1.919,0.252,2.241,0.42l-0.308,0.994c-0.448-0.224-1.107-0.392-1.891-0.392
			c-2.213,0-3.684,1.415-3.684,3.894c0,2.325,1.331,3.796,3.614,3.796c0.756,0,1.513-0.154,2.003-0.393L217.057,119.405z"/>
		<path fill="#010101" d="M220.834,119.699l-3.096-9.441h1.331l1.471,4.65c0.392,1.274,0.742,2.423,1.008,3.53h0.028
			c0.266-1.093,0.645-2.283,1.079-3.516l1.597-4.665h1.303l-3.376,9.441H220.834z"/>
		<path fill="#010101" d="M228.88,123.415c0,0.343,0.016,0.677,0.057,0.947h-0.645l-0.057-0.498h-0.024
			c-0.221,0.31-0.645,0.588-1.208,0.588c-0.8,0-1.208-0.563-1.208-1.135c0-0.955,0.849-1.478,2.375-1.469v-0.082
			c0-0.318-0.09-0.914-0.898-0.906c-0.375,0-0.759,0.106-1.037,0.294l-0.163-0.482c0.326-0.204,0.808-0.343,1.306-0.343
			c1.208,0,1.502,0.825,1.502,1.608V123.415z M228.187,122.345c-0.784-0.016-1.674,0.123-1.674,0.89
			c0,0.473,0.311,0.686,0.669,0.686c0.522,0,0.857-0.327,0.972-0.661c0.024-0.082,0.033-0.163,0.033-0.229V122.345z"/>
		<path fill="#010101" d="M233.614,122.353c0,1.461-1.021,2.098-1.967,2.098c-1.061,0-1.894-0.784-1.894-2.033
			c0-1.314,0.874-2.09,1.959-2.09C232.847,120.329,233.614,121.153,233.614,122.353z M230.488,122.394
			c0,0.865,0.49,1.518,1.192,1.518c0.686,0,1.2-0.645,1.2-1.535c0-0.669-0.335-1.51-1.184-1.51
			C230.855,120.867,230.488,121.651,230.488,122.394z"/>
	</g>
	<g>
		<path fill="#010101" d="M402.027,58.975c-1.274-0.336-2.521-0.714-3.613-1.093c-0.211-0.07-0.393-0.14-0.574-0.14
			c-2.256-0.084-4.16-1.737-4.16-4.791c0-3.025,1.834-4.973,4.384-4.973c2.577,0,4.244,1.989,4.244,4.777
			c0,2.437-1.12,3.978-2.689,4.539v0.056c0.938,0.238,1.961,0.462,2.76,0.603L402.027,58.975z M401.02,52.825
			c0-1.905-0.98-3.852-2.984-3.852c-2.059,0-3.067,1.905-3.067,3.95c0,2.017,1.093,3.824,3.025,3.824S401.02,54.968,401.02,52.825z"
			/>
		<path fill="#010101" d="M403.416,59.368c0-0.416-0.016-0.743-0.031-1.069h0.628l0.032,0.645h0.025
			c0.22-0.375,0.588-0.727,1.248-0.727c0.531,0,0.939,0.327,1.111,0.792h0.016c0.123-0.229,0.285-0.392,0.449-0.515
			c0.236-0.179,0.49-0.277,0.865-0.277c0.531,0,1.307,0.343,1.307,1.714v2.318h-0.703v-2.229c0-0.768-0.285-1.216-0.856-1.216
			c-0.417,0-0.727,0.302-0.857,0.645c-0.032,0.106-0.058,0.229-0.058,0.359v2.441h-0.701v-2.367c0-0.629-0.277-1.078-0.824-1.078
			c-0.441,0-0.776,0.359-0.891,0.718c-0.041,0.098-0.057,0.229-0.057,0.351v2.375h-0.703V59.368z"/>
		<path fill="#010101" d="M410.224,56.454h0.719v5.796h-0.719V56.454z"/>
	</g>
	<g>
		<path fill="#010101" d="M398.057,119.405c-0.434,0.224-1.344,0.448-2.492,0.448c-2.662,0-4.65-1.681-4.65-4.791
			c0-2.969,2.002-4.958,4.93-4.958c1.163,0,1.92,0.252,2.242,0.42l-0.309,0.994c-0.448-0.224-1.107-0.392-1.891-0.392
			c-2.214,0-3.685,1.415-3.685,3.894c0,2.325,1.331,3.796,3.614,3.796c0.756,0,1.513-0.154,2.003-0.393L398.057,119.405z"/>
		<path fill="#010101" d="M401.834,119.699l-3.096-9.441h1.331l1.472,4.65c0.392,1.274,0.742,2.423,1.008,3.53h0.027
			c0.267-1.093,0.645-2.283,1.079-3.516l1.597-4.665h1.303l-3.375,9.441H401.834z"/>
		<path fill="#010101" d="M407.104,121.479c0-0.416-0.017-0.743-0.032-1.069h0.629l0.032,0.645h0.024
			c0.221-0.375,0.588-0.727,1.249-0.727c0.53,0,0.938,0.327,1.11,0.792h0.016c0.123-0.229,0.286-0.392,0.449-0.515
			c0.237-0.179,0.49-0.277,0.865-0.277c0.531,0,1.307,0.343,1.307,1.714v2.318h-0.702v-2.229c0-0.768-0.286-1.216-0.856-1.216
			c-0.417,0-0.727,0.302-0.857,0.645c-0.033,0.106-0.058,0.229-0.058,0.359v2.441h-0.702v-2.367c0-0.629-0.277-1.078-0.824-1.078
			c-0.441,0-0.775,0.359-0.891,0.718c-0.04,0.098-0.057,0.229-0.057,0.351v2.375h-0.702V121.479z"/>
		<path fill="#010101" d="M413.912,118.565h0.719v5.796h-0.719V118.565z"/>
	</g>
	<g>
		<path fill="#010101" d="M291.104,63.503c0.588-0.098,1.359-0.182,2.339-0.182c1.205,0,2.087,0.28,2.647,0.785
			c0.504,0.448,0.827,1.134,0.827,1.975c0,0.854-0.252,1.527-0.729,2.017c-0.658,0.686-1.695,1.036-2.886,1.036
			c-0.364,0-0.7-0.014-0.98-0.084v3.782h-1.219V63.503z M292.323,68.056c0.266,0.07,0.603,0.098,1.009,0.098
			c1.471,0,2.367-0.728,2.367-2.003c0-1.261-0.896-1.863-2.228-1.863c-0.532,0-0.938,0.042-1.148,0.098V68.056z"/>
		<path fill="#010101" d="M298.083,71.698h0.719v5.796h-0.719V71.698z"/>
		<path fill="#010101" d="M300.287,73.543l0.775,2.212c0.131,0.367,0.237,0.694,0.318,1.021h0.024
			c0.09-0.327,0.204-0.653,0.335-1.021l0.767-2.212h0.751l-1.551,3.951h-0.686l-1.502-3.951H300.287z"/>
	</g>
	<g>
		<path fill="#010101" d="M323.254,126.924h-3.656v3.404h4.09v1.022h-5.323v-9.441h5.112v1.022h-3.88v2.983h3.656V126.924z"/>
		<path fill="#010101" d="M324.798,130.217h0.719v5.796h-0.719V130.217z"/>
		<path fill="#010101" d="M327.002,132.062l0.775,2.212c0.131,0.367,0.237,0.694,0.318,1.021h0.024
			c0.09-0.327,0.204-0.653,0.335-1.021l0.767-2.212h0.751l-1.551,3.951h-0.686l-1.502-3.951H327.002z"/>
	</g>
	<g>
		<path fill="#010101" d="M501.255,125.4h-3.656v3.404h4.091v1.022h-5.323v-9.441h5.112v1.022h-3.88v2.983h3.656V125.4z"/>
		<path fill="#010101" d="M502.799,128.692h0.719v5.796h-0.719V128.692z"/>
		<path fill="#010101" d="M507.501,133.542c0,0.343,0.017,0.677,0.058,0.947h-0.646l-0.058-0.498h-0.023
			c-0.221,0.31-0.646,0.588-1.209,0.588c-0.8,0-1.208-0.563-1.208-1.135c0-0.955,0.849-1.478,2.376-1.469v-0.082
			c0-0.318-0.09-0.914-0.898-0.906c-0.375,0-0.76,0.106-1.037,0.294l-0.162-0.482c0.326-0.204,0.808-0.343,1.306-0.343
			c1.208,0,1.502,0.825,1.502,1.608V133.542z M506.807,132.472c-0.783-0.016-1.674,0.123-1.674,0.89c0,0.473,0.311,0.686,0.67,0.686
			c0.522,0,0.857-0.327,0.972-0.661c0.024-0.082,0.032-0.163,0.032-0.229V132.472z"/>
	</g>
	<g>
		<path fill="#010101" d="M467.267,63.503c0.589-0.098,1.358-0.182,2.339-0.182c1.205,0,2.088,0.28,2.648,0.785
			c0.504,0.448,0.826,1.134,0.826,1.975c0,0.854-0.252,1.527-0.729,2.017c-0.658,0.686-1.695,1.036-2.886,1.036
			c-0.364,0-0.7-0.014-0.98-0.084v3.782h-1.219V63.503z M468.485,68.056c0.267,0.07,0.603,0.098,1.009,0.098
			c1.471,0,2.367-0.728,2.367-2.003c0-1.261-0.896-1.863-2.228-1.863c-0.532,0-0.938,0.042-1.148,0.098V68.056z"/>
		<path fill="#010101" d="M474.246,71.698h0.719v5.796h-0.719V71.698z"/>
		<path fill="#010101" d="M478.947,76.547c0,0.343,0.017,0.677,0.058,0.947h-0.646l-0.057-0.498h-0.024
			c-0.221,0.31-0.646,0.588-1.208,0.588c-0.801,0-1.209-0.563-1.209-1.135c0-0.955,0.85-1.478,2.376-1.469v-0.082
			c0-0.318-0.09-0.914-0.897-0.906c-0.376,0-0.76,0.106-1.037,0.294l-0.163-0.482c0.326-0.204,0.808-0.343,1.306-0.343
			c1.209,0,1.502,0.825,1.502,1.608V76.547z M478.254,75.478c-0.783-0.016-1.674,0.123-1.674,0.89c0,0.473,0.311,0.686,0.67,0.686
			c0.521,0,0.857-0.327,0.971-0.661c0.025-0.082,0.033-0.163,0.033-0.229V75.478z"/>
	</g>
</g>
<g>
	<path fill="#010101" d="M386.544,378.336c-1.274-0.336-2.521-0.715-3.614-1.093c-0.209-0.069-0.392-0.14-0.574-0.14
		c-2.255-0.084-4.16-1.737-4.16-4.791c0-3.025,1.836-4.973,4.385-4.973c2.577,0,4.244,1.989,4.244,4.777
		c0,2.437-1.121,3.978-2.689,4.538v0.056c0.938,0.238,1.961,0.463,2.76,0.603L386.544,378.336z M385.535,372.187
		c0-1.905-0.98-3.853-2.982-3.853c-2.06,0-3.068,1.906-3.068,3.951c0,2.017,1.093,3.824,3.025,3.824
		C384.443,376.109,385.535,374.33,385.535,372.187z"/>
	<path fill="#010101" d="M387.836,380.885c0.22,0.131,0.596,0.277,0.955,0.277c0.514,0,0.759-0.253,0.759-0.588
		c0-0.342-0.204-0.521-0.727-0.719c-0.718-0.261-1.054-0.645-1.054-1.117c0-0.637,0.523-1.16,1.363-1.16
		c0.4,0,0.752,0.106,0.964,0.245l-0.171,0.522c-0.156-0.098-0.441-0.236-0.809-0.236c-0.425,0-0.653,0.244-0.653,0.539
		c0,0.326,0.229,0.473,0.743,0.678c0.678,0.252,1.037,0.596,1.037,1.184c0,0.701-0.547,1.191-1.47,1.191
		c-0.433,0-0.833-0.114-1.11-0.277L387.836,380.885z"/>
	<path fill="#010101" d="M393.941,380.664c0,0.344,0.016,0.678,0.057,0.947h-0.645l-0.058-0.498h-0.024
		c-0.221,0.311-0.645,0.588-1.208,0.588c-0.8,0-1.208-0.563-1.208-1.135c0-0.955,0.849-1.478,2.375-1.469v-0.082
		c0-0.318-0.09-0.914-0.898-0.906c-0.375,0-0.759,0.105-1.036,0.294l-0.163-0.481c0.326-0.205,0.809-0.344,1.307-0.344
		c1.207,0,1.502,0.825,1.502,1.609V380.664z M393.247,379.595c-0.784-0.017-1.674,0.122-1.674,0.89c0,0.474,0.311,0.686,0.669,0.686
		c0.523,0,0.857-0.326,0.973-0.66c0.023-0.082,0.032-0.164,0.032-0.229V379.595z"/>
	<path fill="#010101" d="M395.932,376.713v0.947h1.029v0.547h-1.029v2.131c0,0.49,0.139,0.768,0.539,0.768
		c0.195,0,0.311-0.017,0.416-0.049l0.033,0.547c-0.139,0.049-0.359,0.098-0.637,0.098c-0.335,0-0.604-0.114-0.775-0.303
		c-0.196-0.22-0.277-0.57-0.277-1.036v-2.155h-0.613v-0.547h0.613v-0.734L395.932,376.713z"/>
</g>
<g>
	<path fill="#010101" d="M379.812,413.396c0.617-0.113,1.514-0.197,2.34-0.197c1.303,0,2.157,0.253,2.731,0.771
		c0.462,0.42,0.743,1.064,0.743,1.807c0,1.232-0.785,2.059-1.766,2.395v0.043c0.715,0.252,1.148,0.924,1.373,1.904
		c0.308,1.316,0.531,2.228,0.729,2.592h-1.262c-0.153-0.28-0.363-1.078-0.615-2.256c-0.281-1.303-0.799-1.793-1.906-1.834h-1.148
		v4.09h-1.219V413.396z M381.031,417.696h1.247c1.303,0,2.13-0.714,2.13-1.793c0-1.219-0.883-1.751-2.172-1.751
		c-0.588,0-0.994,0.042-1.205,0.098V417.696z"/>
	<path fill="#010101" d="M386.778,426.646c0.22,0.131,0.596,0.277,0.955,0.277c0.515,0,0.759-0.253,0.759-0.588
		c0-0.342-0.203-0.521-0.727-0.719c-0.718-0.261-1.053-0.645-1.053-1.117c0-0.637,0.522-1.16,1.363-1.16
		c0.4,0,0.751,0.106,0.963,0.245l-0.171,0.522c-0.155-0.098-0.44-0.236-0.808-0.236c-0.426,0-0.654,0.244-0.654,0.539
		c0,0.326,0.229,0.473,0.744,0.678c0.677,0.252,1.036,0.596,1.036,1.184c0,0.701-0.547,1.191-1.47,1.191
		c-0.433,0-0.832-0.114-1.109-0.277L386.778,426.646z"/>
	<path fill="#010101" d="M392.884,426.426c0,0.344,0.017,0.678,0.058,0.947h-0.646l-0.058-0.498h-0.023
		c-0.221,0.311-0.646,0.588-1.209,0.588c-0.8,0-1.208-0.563-1.208-1.135c0-0.955,0.849-1.478,2.376-1.469v-0.082
		c0-0.318-0.09-0.914-0.898-0.906c-0.375,0-0.76,0.105-1.037,0.294l-0.162-0.481c0.326-0.205,0.808-0.344,1.306-0.344
		c1.208,0,1.502,0.825,1.502,1.609V426.426z M392.189,425.356c-0.783-0.017-1.674,0.122-1.674,0.89c0,0.474,0.311,0.686,0.67,0.686
		c0.522,0,0.857-0.326,0.972-0.66c0.024-0.082,0.032-0.164,0.032-0.229V425.356z"/>
	<path fill="#010101" d="M394.875,422.475v0.947h1.028v0.547h-1.028v2.131c0,0.49,0.139,0.768,0.539,0.768
		c0.195,0,0.31-0.017,0.416-0.049l0.033,0.547c-0.14,0.049-0.359,0.098-0.637,0.098c-0.336,0-0.605-0.114-0.776-0.303
		c-0.196-0.22-0.277-0.57-0.277-1.036v-2.155h-0.612v-0.547h0.612v-0.734L394.875,422.475z"/>
</g>
<g>
	<path fill="#010101" d="M254.064,375.149c0.588-0.099,1.359-0.183,2.339-0.183c1.205,0,2.087,0.281,2.647,0.785
		c0.504,0.448,0.827,1.135,0.827,1.975c0,0.855-0.252,1.527-0.729,2.018c-0.658,0.686-1.695,1.036-2.886,1.036
		c-0.364,0-0.7-0.014-0.98-0.084v3.782h-1.219V375.149z M255.283,379.702c0.266,0.069,0.603,0.098,1.009,0.098
		c1.471,0,2.367-0.728,2.367-2.003c0-1.261-0.896-1.863-2.228-1.863c-0.532,0-0.938,0.043-1.148,0.098V379.702z"/>
	<path fill="#010101" d="M260.946,388.414c0.22,0.131,0.596,0.277,0.955,0.277c0.514,0,0.759-0.253,0.759-0.588
		c0-0.342-0.204-0.521-0.727-0.719c-0.718-0.261-1.053-0.645-1.053-1.117c0-0.637,0.522-1.16,1.363-1.16
		c0.4,0,0.751,0.106,0.963,0.245l-0.171,0.522c-0.155-0.098-0.441-0.236-0.808-0.236c-0.425,0-0.653,0.244-0.653,0.539
		c0,0.326,0.229,0.473,0.743,0.678c0.677,0.252,1.037,0.596,1.037,1.184c0,0.701-0.547,1.191-1.469,1.191
		c-0.433,0-0.833-0.114-1.11-0.277L260.946,388.414z"/>
	<path fill="#010101" d="M267.051,388.193c0,0.344,0.016,0.678,0.057,0.947h-0.645l-0.057-0.498h-0.024
		c-0.221,0.311-0.645,0.588-1.208,0.588c-0.8,0-1.208-0.563-1.208-1.135c0-0.955,0.849-1.478,2.375-1.469v-0.082
		c0-0.318-0.09-0.914-0.898-0.906c-0.375,0-0.759,0.105-1.037,0.294l-0.163-0.481c0.326-0.205,0.808-0.344,1.306-0.344
		c1.208,0,1.502,0.825,1.502,1.609V388.193z M266.357,387.124c-0.784-0.017-1.674,0.122-1.674,0.89c0,0.474,0.311,0.686,0.669,0.686
		c0.522,0,0.857-0.326,0.972-0.66c0.024-0.082,0.033-0.164,0.033-0.229V387.124z"/>
	<path fill="#010101" d="M269.042,384.242v0.947h1.028v0.547h-1.028v2.131c0,0.49,0.139,0.768,0.539,0.768
		c0.196,0,0.31-0.017,0.417-0.049l0.033,0.547c-0.139,0.049-0.359,0.098-0.637,0.098c-0.335,0-0.604-0.114-0.776-0.303
		c-0.196-0.22-0.277-0.57-0.277-1.036v-2.155h-0.612v-0.547h0.612v-0.734L269.042,384.242z"/>
</g>
<g>
	<path fill="#010101" d="M289.266,437.909c-0.434,0.224-1.345,0.448-2.493,0.448c-2.662,0-4.65-1.682-4.65-4.791
		c0-2.969,2.003-4.959,4.931-4.959c1.163,0,1.919,0.252,2.241,0.421l-0.308,0.994c-0.448-0.224-1.107-0.392-1.891-0.392
		c-2.213,0-3.684,1.414-3.684,3.894c0,2.325,1.331,3.796,3.614,3.796c0.756,0,1.513-0.154,2.003-0.393L289.266,437.909z"/>
	<path fill="#010101" d="M290.235,442.139c0.22,0.131,0.596,0.277,0.955,0.277c0.514,0,0.759-0.253,0.759-0.588
		c0-0.342-0.204-0.521-0.727-0.719c-0.718-0.261-1.053-0.645-1.053-1.117c0-0.637,0.522-1.16,1.363-1.16
		c0.4,0,0.751,0.106,0.963,0.245l-0.171,0.522c-0.155-0.098-0.441-0.236-0.808-0.236c-0.425,0-0.653,0.244-0.653,0.539
		c0,0.326,0.229,0.473,0.743,0.678c0.677,0.252,1.037,0.596,1.037,1.184c0,0.701-0.547,1.191-1.469,1.191
		c-0.433,0-0.833-0.114-1.11-0.277L290.235,442.139z"/>
	<path fill="#010101" d="M296.341,441.918c0,0.344,0.016,0.678,0.057,0.947h-0.645l-0.057-0.498h-0.024
		c-0.221,0.311-0.645,0.588-1.208,0.588c-0.8,0-1.208-0.563-1.208-1.135c0-0.955,0.849-1.478,2.375-1.469v-0.082
		c0-0.318-0.09-0.914-0.898-0.906c-0.375,0-0.759,0.105-1.037,0.294l-0.163-0.481c0.326-0.205,0.808-0.344,1.306-0.344
		c1.208,0,1.502,0.825,1.502,1.609V441.918z M295.647,440.849c-0.784-0.017-1.674,0.122-1.674,0.89c0,0.474,0.311,0.686,0.669,0.686
		c0.522,0,0.857-0.326,0.972-0.66c0.024-0.082,0.033-0.164,0.033-0.229V440.849z"/>
	<path fill="#010101" d="M298.332,437.967v0.947h1.028v0.547h-1.028v2.131c0,0.49,0.139,0.768,0.539,0.768
		c0.196,0,0.31-0.017,0.417-0.049l0.033,0.547c-0.139,0.049-0.359,0.098-0.637,0.098c-0.335,0-0.604-0.114-0.776-0.303
		c-0.196-0.22-0.277-0.57-0.277-1.036v-2.155h-0.612v-0.547h0.612v-0.734L298.332,437.967z"/>
</g>
<rect x="184.752" y="388.867" fill="#FFFFFF" stroke="#231F20" width="48.046" height="14.194"/>
<g>
	<path fill="#010101" d="M200.874,408.436c0.616-0.113,1.513-0.197,2.339-0.197c1.303,0,2.157,0.253,2.731,0.771
		c0.462,0.42,0.743,1.064,0.743,1.807c0,1.232-0.785,2.059-1.765,2.395v0.043c0.714,0.252,1.148,0.924,1.373,1.904
		c0.308,1.316,0.532,2.228,0.729,2.592h-1.261c-0.154-0.28-0.364-1.078-0.616-2.256c-0.28-1.303-0.798-1.793-1.905-1.834h-1.148
		v4.09h-1.219V408.436z M202.093,412.735h1.247c1.303,0,2.129-0.714,2.129-1.793c0-1.219-0.883-1.751-2.171-1.751
		c-0.588,0-0.995,0.042-1.205,0.098V412.735z"/>
	<path fill="#010101" d="M207.839,421.686c0.22,0.131,0.596,0.277,0.955,0.277c0.514,0,0.759-0.253,0.759-0.588
		c0-0.342-0.204-0.521-0.727-0.719c-0.718-0.261-1.053-0.645-1.053-1.117c0-0.637,0.522-1.16,1.363-1.16
		c0.4,0,0.751,0.106,0.963,0.245l-0.171,0.522c-0.155-0.098-0.441-0.236-0.808-0.236c-0.425,0-0.653,0.244-0.653,0.539
		c0,0.326,0.229,0.473,0.743,0.678c0.677,0.252,1.037,0.596,1.037,1.184c0,0.701-0.547,1.191-1.469,1.191
		c-0.433,0-0.833-0.114-1.11-0.277L207.839,421.686z"/>
	<path fill="#010101" d="M213.945,421.465c0,0.344,0.016,0.678,0.057,0.947h-0.645l-0.057-0.498h-0.024
		c-0.221,0.311-0.645,0.588-1.208,0.588c-0.8,0-1.208-0.563-1.208-1.135c0-0.955,0.849-1.478,2.375-1.469v-0.082
		c0-0.318-0.09-0.914-0.898-0.906c-0.375,0-0.759,0.105-1.037,0.294l-0.163-0.481c0.326-0.205,0.808-0.344,1.306-0.344
		c1.208,0,1.502,0.825,1.502,1.609V421.465z M213.251,420.396c-0.784-0.017-1.674,0.122-1.674,0.89c0,0.474,0.311,0.686,0.669,0.686
		c0.522,0,0.857-0.326,0.972-0.66c0.024-0.082,0.033-0.164,0.033-0.229V420.396z"/>
	<path fill="#010101" d="M215.005,421.686c0.22,0.131,0.596,0.277,0.955,0.277c0.514,0,0.759-0.253,0.759-0.588
		c0-0.342-0.204-0.521-0.727-0.719c-0.718-0.261-1.053-0.645-1.053-1.117c0-0.637,0.522-1.16,1.363-1.16
		c0.4,0,0.751,0.106,0.963,0.245l-0.171,0.522c-0.155-0.098-0.441-0.236-0.808-0.236c-0.425,0-0.653,0.244-0.653,0.539
		c0,0.326,0.229,0.473,0.743,0.678c0.677,0.252,1.037,0.596,1.037,1.184c0,0.701-0.547,1.191-1.469,1.191
		c-0.433,0-0.833-0.114-1.11-0.277L215.005,421.686z"/>
</g>
<g>
	<path fill="none" stroke="#231F20" d="M65.5,395.226c0,12.141,0,24.283,0,36.424"/>
	<path fill="none" stroke="#231F20" d="M65.5,439.876c0,9.142,0,18.283,0,27.424"/>
	<line fill="none" stroke="#231F20" x1="53" y1="431.649" x2="78" y2="431.649"/>
	<line fill="none" stroke="#231F20" x1="53" y1="439.3" x2="78" y2="439.3"/>
	<line fill="none" stroke="#231F20" x1="53" y1="467.3" x2="78" y2="467.3"/>
</g>
<g>
	<path fill="#010101" d="M96.438,439.581c-0.434,0.224-1.345,0.448-2.493,0.448c-2.662,0-4.65-1.682-4.65-4.791
		c0-2.969,2.003-4.959,4.931-4.959c1.163,0,1.919,0.252,2.241,0.421l-0.308,0.994c-0.448-0.224-1.107-0.392-1.891-0.392
		c-2.213,0-3.684,1.414-3.684,3.894c0,2.325,1.331,3.796,3.614,3.796c0.756,0,1.513-0.154,2.003-0.393L96.438,439.581z"/>
	<path fill="#010101" d="M97.407,443.811c0.22,0.131,0.596,0.277,0.955,0.277c0.514,0,0.759-0.253,0.759-0.588
		c0-0.342-0.204-0.521-0.727-0.719c-0.718-0.261-1.053-0.645-1.053-1.117c0-0.637,0.522-1.16,1.363-1.16
		c0.4,0,0.751,0.106,0.963,0.245l-0.171,0.522c-0.155-0.098-0.441-0.236-0.808-0.236c-0.425,0-0.653,0.244-0.653,0.539
		c0,0.326,0.229,0.473,0.743,0.678c0.677,0.252,1.037,0.596,1.037,1.184c0,0.701-0.547,1.191-1.469,1.191
		c-0.433,0-0.833-0.114-1.11-0.277L97.407,443.811z"/>
	<path fill="#010101" d="M103.513,443.59c0,0.344,0.016,0.678,0.057,0.947h-0.645l-0.057-0.498h-0.024
		c-0.221,0.311-0.645,0.588-1.208,0.588c-0.8,0-1.208-0.563-1.208-1.135c0-0.955,0.849-1.478,2.375-1.469v-0.082
		c0-0.318-0.09-0.914-0.898-0.906c-0.375,0-0.759,0.105-1.037,0.294l-0.163-0.481c0.326-0.205,0.808-0.344,1.306-0.344
		c1.208,0,1.502,0.825,1.502,1.609V443.59z M102.819,442.521c-0.784-0.017-1.674,0.122-1.674,0.89c0,0.474,0.311,0.686,0.669,0.686
		c0.522,0,0.857-0.326,0.972-0.66c0.024-0.082,0.033-0.164,0.033-0.229V442.521z"/>
	<path fill="#010101" d="M104.573,443.811c0.22,0.131,0.596,0.277,0.955,0.277c0.514,0,0.759-0.253,0.759-0.588
		c0-0.342-0.204-0.521-0.727-0.719c-0.718-0.261-1.053-0.645-1.053-1.117c0-0.637,0.522-1.16,1.363-1.16
		c0.4,0,0.751,0.106,0.963,0.245l-0.171,0.522c-0.155-0.098-0.441-0.236-0.808-0.236c-0.425,0-0.653,0.244-0.653,0.539
		c0,0.326,0.229,0.473,0.743,0.678c0.677,0.252,1.037,0.596,1.037,1.184c0,0.701-0.547,1.191-1.469,1.191
		c-0.433,0-0.833-0.114-1.11-0.277L104.573,443.811z"/>
</g>
<g>
	<path fill="none" stroke="#231F20" d="M574.057,395.331c0,12.141,0,24.283,0,36.424"/>
	<path fill="none" stroke="#231F20" d="M574.057,439.981c0,9.142,0,18.283,0,27.424"/>
	<line fill="none" stroke="#231F20" x1="561.557" y1="431.755" x2="586.557" y2="431.755"/>
	<line fill="none" stroke="#231F20" x1="561.557" y1="439.405" x2="586.557" y2="439.405"/>
	<line fill="none" stroke="#231F20" x1="561.557" y1="467.405" x2="586.557" y2="467.405"/>
</g>
<g>
	<path fill="#010101" d="M604.994,439.687c-0.434,0.224-1.345,0.448-2.493,0.448c-2.661,0-4.65-1.682-4.65-4.791
		c0-2.969,2.003-4.959,4.931-4.959c1.162,0,1.919,0.252,2.241,0.421l-0.308,0.994c-0.449-0.224-1.107-0.392-1.892-0.392
		c-2.214,0-3.685,1.414-3.685,3.894c0,2.325,1.331,3.796,3.614,3.796c0.757,0,1.513-0.154,2.003-0.393L604.994,439.687z"/>
	<path fill="#010101" d="M605.964,443.916c0.22,0.131,0.596,0.277,0.955,0.277c0.515,0,0.759-0.253,0.759-0.588
		c0-0.342-0.203-0.521-0.727-0.719c-0.718-0.261-1.053-0.645-1.053-1.117c0-0.637,0.522-1.16,1.363-1.16
		c0.4,0,0.751,0.106,0.963,0.245l-0.171,0.522c-0.155-0.098-0.44-0.236-0.808-0.236c-0.426,0-0.654,0.244-0.654,0.539
		c0,0.326,0.229,0.473,0.744,0.678c0.677,0.252,1.036,0.596,1.036,1.184c0,0.701-0.547,1.191-1.47,1.191
		c-0.433,0-0.832-0.114-1.109-0.277L605.964,443.916z"/>
	<path fill="#010101" d="M609.571,440.691l0.775,2.213c0.131,0.367,0.237,0.693,0.318,1.02h0.024c0.09-0.326,0.204-0.652,0.335-1.02
		l0.767-2.213h0.752l-1.551,3.951h-0.686l-1.503-3.951H609.571z"/>
	<path fill="#010101" d="M613.219,441.761c0-0.416-0.008-0.743-0.031-1.069h0.637l0.04,0.653h0.017
		c0.195-0.368,0.652-0.735,1.307-0.735c0.547,0,1.396,0.327,1.396,1.682v2.352h-0.719v-2.277c0-0.637-0.237-1.168-0.914-1.168
		c-0.466,0-0.833,0.335-0.964,0.734c-0.032,0.09-0.049,0.213-0.049,0.336v2.375h-0.719V441.761z"/>
</g>
<rect x="363.408" y="388.867" fill="#FFFFFF" stroke="#231F20" width="48.047" height="14.194"/>
<g>
	<path fill="#010101" d="M644.093,377.701c-1.274-0.336-2.521-0.715-3.614-1.093c-0.209-0.069-0.392-0.14-0.574-0.14
		c-2.255-0.084-4.16-1.737-4.16-4.791c0-3.025,1.836-4.973,4.385-4.973c2.577,0,4.244,1.989,4.244,4.777
		c0,2.437-1.121,3.978-2.689,4.538v0.056c0.938,0.238,1.961,0.463,2.76,0.603L644.093,377.701z M643.084,371.552
		c0-1.905-0.98-3.853-2.982-3.853c-2.06,0-3.068,1.906-3.068,3.951c0,2.017,1.093,3.824,3.025,3.824
		C641.992,375.475,643.084,373.695,643.084,371.552z"/>
	<path fill="#010101" d="M645.385,380.25c0.22,0.131,0.596,0.277,0.955,0.277c0.514,0,0.759-0.253,0.759-0.588
		c0-0.342-0.204-0.521-0.727-0.719c-0.718-0.261-1.054-0.645-1.054-1.117c0-0.637,0.523-1.16,1.363-1.16
		c0.4,0,0.752,0.106,0.964,0.245l-0.171,0.522c-0.156-0.098-0.441-0.236-0.809-0.236c-0.425,0-0.653,0.244-0.653,0.539
		c0,0.326,0.229,0.473,0.743,0.678c0.678,0.252,1.037,0.596,1.037,1.184c0,0.701-0.547,1.191-1.47,1.191
		c-0.433,0-0.833-0.114-1.11-0.277L645.385,380.25z"/>
	<path fill="#010101" d="M648.992,377.025l0.775,2.213c0.131,0.367,0.236,0.693,0.318,1.02h0.023c0.09-0.326,0.205-0.652,0.336-1.02
		l0.767-2.213h0.751l-1.551,3.951h-0.686l-1.502-3.951H648.992z"/>
	<path fill="#010101" d="M652.64,378.095c0-0.416-0.008-0.743-0.032-1.069h0.637l0.041,0.653h0.016
		c0.196-0.368,0.653-0.735,1.307-0.735c0.547,0,1.396,0.327,1.396,1.682v2.352h-0.719v-2.277c0-0.637-0.237-1.168-0.914-1.168
		c-0.466,0-0.833,0.335-0.964,0.734c-0.032,0.09-0.049,0.213-0.049,0.336v2.375h-0.719V378.095z"/>
</g>
<g>
	<path fill="#010101" d="M637.361,412.764c0.617-0.113,1.514-0.197,2.34-0.197c1.303,0,2.157,0.253,2.731,0.771
		c0.462,0.42,0.743,1.064,0.743,1.807c0,1.232-0.785,2.059-1.766,2.395v0.043c0.715,0.252,1.148,0.924,1.373,1.904
		c0.308,1.316,0.531,2.228,0.729,2.592h-1.262c-0.153-0.28-0.363-1.078-0.615-2.256c-0.281-1.303-0.799-1.793-1.906-1.834h-1.148
		v4.09h-1.219V412.764z M638.58,417.063h1.247c1.303,0,2.13-0.714,2.13-1.793c0-1.219-0.883-1.751-2.172-1.751
		c-0.588,0-0.994,0.042-1.205,0.098V417.063z"/>
	<path fill="#010101" d="M644.327,426.014c0.22,0.131,0.596,0.277,0.955,0.277c0.515,0,0.759-0.253,0.759-0.588
		c0-0.342-0.203-0.521-0.727-0.719c-0.718-0.261-1.053-0.645-1.053-1.117c0-0.637,0.522-1.16,1.363-1.16
		c0.4,0,0.751,0.106,0.963,0.245l-0.171,0.522c-0.155-0.098-0.44-0.236-0.808-0.236c-0.426,0-0.654,0.244-0.654,0.539
		c0,0.326,0.229,0.473,0.744,0.678c0.677,0.252,1.036,0.596,1.036,1.184c0,0.701-0.547,1.191-1.47,1.191
		c-0.433,0-0.832-0.114-1.109-0.277L644.327,426.014z"/>
	<path fill="#010101" d="M647.935,422.789l0.775,2.213c0.131,0.367,0.237,0.693,0.318,1.02h0.024c0.09-0.326,0.204-0.652,0.335-1.02
		l0.767-2.213h0.752l-1.551,3.951h-0.686l-1.503-3.951H647.935z"/>
	<path fill="#010101" d="M651.582,423.858c0-0.416-0.008-0.743-0.031-1.069h0.637l0.04,0.653h0.017
		c0.195-0.368,0.652-0.735,1.307-0.735c0.547,0,1.396,0.327,1.396,1.682v2.352h-0.719v-2.277c0-0.637-0.237-1.168-0.914-1.168
		c-0.466,0-0.833,0.335-0.964,0.734c-0.032,0.09-0.049,0.213-0.049,0.336v2.375h-0.719V423.858z"/>
</g>
<rect x="620.957" y="388.867" fill="#FFFFFF" stroke="#231F20" width="48.047" height="14.194"/>
<g>
	<path fill="none" stroke="#231F20" d="M257.155,395.255c0,12.141,0,24.283,0,36.424"/>
	<path fill="none" stroke="#231F20" d="M257.155,439.905c0,9.142,0,18.283,0,27.424"/>
	<line fill="none" stroke="#231F20" x1="244.655" y1="431.679" x2="269.655" y2="431.679"/>
	<line fill="none" stroke="#231F20" x1="244.655" y1="439.329" x2="269.655" y2="439.329"/>
	<line fill="none" stroke="#231F20" x1="244.655" y1="467.329" x2="269.655" y2="467.329"/>
</g>
<rect x="490.984" y="388.867" fill="#FFFFFF" stroke="#231F20" width="48.047" height="14.194"/>
<rect x="427.886" y="388.867" fill="#FFFFFF" stroke="#231F20" width="48.047" height="14.194"/>
<g>
	<path fill="#010101" d="M506.541,413.396c0.615-0.113,1.512-0.197,2.339-0.197c1.303,0,2.157,0.253,2.731,0.771
		c0.463,0.42,0.742,1.064,0.742,1.807c0,1.232-0.784,2.059-1.765,2.395v0.043c0.714,0.252,1.148,0.924,1.372,1.904
		c0.309,1.316,0.533,2.228,0.729,2.592h-1.26c-0.154-0.28-0.365-1.078-0.617-2.256c-0.279-1.303-0.798-1.793-1.904-1.834h-1.148
		v4.09h-1.219V413.396z M507.76,417.696h1.246c1.303,0,2.129-0.714,2.129-1.793c0-1.219-0.883-1.751-2.171-1.751
		c-0.589,0-0.995,0.042-1.204,0.098V417.696z"/>
	<path fill="#010101" d="M513.506,426.646c0.221,0.131,0.596,0.277,0.955,0.277c0.514,0,0.76-0.253,0.76-0.588
		c0-0.342-0.205-0.521-0.727-0.719c-0.719-0.261-1.054-0.645-1.054-1.117c0-0.637,0.522-1.16,1.363-1.16
		c0.399,0,0.751,0.106,0.964,0.245l-0.172,0.522c-0.155-0.098-0.441-0.236-0.809-0.236c-0.424,0-0.652,0.244-0.652,0.539
		c0,0.326,0.229,0.473,0.742,0.678c0.678,0.252,1.037,0.596,1.037,1.184c0,0.701-0.547,1.191-1.469,1.191
		c-0.434,0-0.834-0.114-1.111-0.277L513.506,426.646z"/>
	<path fill="#010101" d="M519.652,427.234c-0.188,0.09-0.604,0.229-1.135,0.229c-1.191,0-1.968-0.809-1.968-2.017
		c0-1.216,0.833-2.106,2.122-2.106c0.426,0,0.801,0.106,0.996,0.213l-0.162,0.547c-0.172-0.09-0.441-0.188-0.834-0.188
		c-0.906,0-1.396,0.678-1.396,1.494c0,0.914,0.588,1.477,1.372,1.477c0.408,0,0.678-0.098,0.881-0.188L519.652,427.234z"/>
	<path fill="#010101" d="M520.492,424.712c0-0.507-0.016-0.915-0.032-1.29h0.637l0.04,0.678h0.018
		c0.285-0.482,0.759-0.76,1.403-0.76c0.964,0,1.682,0.809,1.682,2c0,1.421-0.874,2.123-1.804,2.123c-0.522,0-0.98-0.229-1.217-0.621
		h-0.016v2.147h-0.711V424.712z M521.203,425.765c0,0.106,0.008,0.204,0.032,0.294c0.13,0.498,0.563,0.841,1.077,0.841
		c0.76,0,1.2-0.62,1.2-1.526c0-0.783-0.416-1.461-1.175-1.461c-0.49,0-0.955,0.342-1.086,0.881c-0.025,0.09-0.049,0.196-0.049,0.286
		V425.765z"/>
</g>
<g>
	<path fill="#010101" d="M444.291,413.396c0.615-0.113,1.512-0.197,2.339-0.197c1.303,0,2.157,0.253,2.731,0.771
		c0.463,0.42,0.742,1.064,0.742,1.807c0,1.232-0.784,2.059-1.765,2.395v0.043c0.714,0.252,1.148,0.924,1.372,1.904
		c0.309,1.316,0.533,2.228,0.729,2.592h-1.26c-0.154-0.28-0.365-1.078-0.617-2.256c-0.279-1.303-0.798-1.793-1.904-1.834h-1.148
		v4.09h-1.219V413.396z M445.51,417.696h1.246c1.303,0,2.129-0.714,2.129-1.793c0-1.219-0.883-1.751-2.171-1.751
		c-0.589,0-0.995,0.042-1.204,0.098V417.696z"/>
	<path fill="#010101" d="M451.256,426.646c0.221,0.131,0.596,0.277,0.955,0.277c0.514,0,0.76-0.253,0.76-0.588
		c0-0.342-0.205-0.521-0.727-0.719c-0.719-0.261-1.054-0.645-1.054-1.117c0-0.637,0.522-1.16,1.363-1.16
		c0.399,0,0.751,0.106,0.964,0.245l-0.172,0.522c-0.155-0.098-0.441-0.236-0.809-0.236c-0.424,0-0.652,0.244-0.652,0.539
		c0,0.326,0.229,0.473,0.742,0.678c0.678,0.252,1.037,0.596,1.037,1.184c0,0.701-0.547,1.191-1.469,1.191
		c-0.434,0-0.834-0.114-1.111-0.277L451.256,426.646z"/>
	<path fill="#010101" d="M457.361,426.426c0,0.344,0.016,0.678,0.057,0.947h-0.645l-0.057-0.498h-0.025
		c-0.221,0.311-0.645,0.588-1.207,0.588c-0.801,0-1.209-0.563-1.209-1.135c0-0.955,0.85-1.478,2.375-1.469v-0.082
		c0-0.318-0.09-0.914-0.897-0.906c-0.376,0-0.759,0.105-1.036,0.294l-0.164-0.481c0.326-0.205,0.809-0.344,1.307-0.344
		c1.208,0,1.502,0.825,1.502,1.609V426.426z M456.668,425.356c-0.784-0.017-1.674,0.122-1.674,0.89c0,0.474,0.311,0.686,0.669,0.686
		c0.522,0,0.857-0.326,0.972-0.66c0.024-0.082,0.033-0.164,0.033-0.229V425.356z"/>
	<path fill="#010101" d="M458.52,424.654c0-0.465-0.008-0.865-0.032-1.232h0.628l0.033,0.783h0.024
		c0.18-0.53,0.62-0.865,1.103-0.865c0.072,0,0.131,0.009,0.195,0.017v0.678c-0.073-0.017-0.146-0.017-0.244-0.017
		c-0.507,0-0.865,0.376-0.964,0.914c-0.017,0.099-0.024,0.221-0.024,0.336v2.105h-0.719V424.654z"/>
</g>
<g>
	<rect x="86.777" y="392.006" fill="#FFFFFF" width="69.223" height="3.958"/>
	<g>
		<g>
			<path fill="none" stroke="#231F20" d="M86.443,394.006c0-4.106,4.041-7.431,9.035-7.431"/>
			<path fill="none" stroke="#231F20" d="M103.91,394.006c0-4.106-4.041-7.431-9.035-7.431"/>
		</g>
		<g>
			<path fill="none" stroke="#231F20" d="M103.91,394.006c0-4.106,4.041-7.431,9.034-7.431"/>
			<path fill="none" stroke="#231F20" d="M121.375,394.006c0-4.106-4.041-7.431-9.034-7.431"/>
		</g>
		<g>
			<path fill="none" stroke="#231F20" d="M121.375,394.006c0-4.106,4.041-7.431,9.035-7.431"/>
			<path fill="none" stroke="#231F20" d="M138.842,394.006c0-4.106-4.041-7.431-9.034-7.431"/>
		</g>
		<g>
			<path fill="none" stroke="#231F20" d="M138.842,394.006c0-4.106,4.041-7.431,9.034-7.431"/>
			<path fill="none" stroke="#231F20" d="M156.309,394.006c0-4.106-4.041-7.431-9.034-7.431"/>
		</g>
	</g>
</g>
<g>
	<rect x="279.412" y="392.006" fill="#FFFFFF" width="69.223" height="3.958"/>
	<g>
		<g>
			<path fill="none" stroke="#231F20" d="M279.079,394.006c0-4.106,4.041-7.431,9.035-7.431"/>
			<path fill="none" stroke="#231F20" d="M296.545,394.006c0-4.106-4.041-7.431-9.035-7.431"/>
		</g>
		<g>
			<path fill="none" stroke="#231F20" d="M296.545,394.006c0-4.106,4.041-7.431,9.034-7.431"/>
			<path fill="none" stroke="#231F20" d="M314.01,394.006c0-4.106-4.04-7.431-9.034-7.431"/>
		</g>
		<g>
			<path fill="none" stroke="#231F20" d="M314.01,394.006c0-4.106,4.041-7.431,9.035-7.431"/>
			<path fill="none" stroke="#231F20" d="M331.477,394.006c0-4.106-4.04-7.431-9.033-7.431"/>
		</g>
		<g>
			<path fill="none" stroke="#231F20" d="M331.477,394.006c0-4.106,4.041-7.431,9.035-7.431"/>
			<path fill="none" stroke="#231F20" d="M348.944,394.006c0-4.106-4.041-7.431-9.034-7.431"/>
		</g>
	</g>
</g>
<g>
	<path fill="#010101" d="M113.392,401.551h1.232v8.419h4.034v1.022h-5.267V401.551z"/>
	<path fill="#010101" d="M119.447,414.928c0.22,0.131,0.596,0.277,0.955,0.277c0.514,0,0.759-0.253,0.759-0.588
		c0-0.342-0.204-0.521-0.727-0.719c-0.718-0.261-1.053-0.645-1.053-1.117c0-0.637,0.522-1.16,1.363-1.16
		c0.4,0,0.751,0.106,0.963,0.245l-0.171,0.522c-0.155-0.098-0.441-0.236-0.808-0.236c-0.425,0-0.653,0.244-0.653,0.539
		c0,0.326,0.229,0.473,0.743,0.678c0.677,0.252,1.037,0.596,1.037,1.184c0,0.701-0.547,1.191-1.469,1.191
		c-0.433,0-0.833-0.114-1.11-0.277L119.447,414.928z"/>
	<path fill="#010101" d="M125.553,414.707c0,0.344,0.016,0.678,0.057,0.947h-0.645l-0.057-0.498h-0.024
		c-0.221,0.311-0.645,0.588-1.208,0.588c-0.8,0-1.208-0.563-1.208-1.135c0-0.955,0.849-1.478,2.375-1.469v-0.082
		c0-0.318-0.09-0.914-0.898-0.906c-0.375,0-0.759,0.105-1.037,0.294l-0.163-0.481c0.326-0.205,0.808-0.344,1.306-0.344
		c1.208,0,1.502,0.825,1.502,1.609V414.707z M124.859,413.638c-0.784-0.017-1.674,0.122-1.674,0.89c0,0.474,0.311,0.686,0.669,0.686
		c0.522,0,0.857-0.326,0.972-0.66c0.024-0.082,0.033-0.164,0.033-0.229V413.638z"/>
	<path fill="#010101" d="M126.613,414.928c0.22,0.131,0.596,0.277,0.955,0.277c0.514,0,0.759-0.253,0.759-0.588
		c0-0.342-0.204-0.521-0.727-0.719c-0.718-0.261-1.053-0.645-1.053-1.117c0-0.637,0.522-1.16,1.363-1.16
		c0.4,0,0.751,0.106,0.963,0.245l-0.171,0.522c-0.155-0.098-0.441-0.236-0.808-0.236c-0.425,0-0.653,0.244-0.653,0.539
		c0,0.326,0.229,0.473,0.743,0.678c0.677,0.252,1.037,0.596,1.037,1.184c0,0.701-0.547,1.191-1.469,1.191
		c-0.433,0-0.833-0.114-1.11-0.277L126.613,414.928z"/>
</g>
<g>
	<path fill="#010101" d="M306.027,401.551h1.232v8.419h4.034v1.022h-5.267V401.551z"/>
	<path fill="#010101" d="M312.083,414.928c0.22,0.131,0.596,0.277,0.955,0.277c0.514,0,0.759-0.253,0.759-0.588
		c0-0.342-0.204-0.521-0.727-0.719c-0.718-0.261-1.053-0.645-1.053-1.117c0-0.637,0.522-1.16,1.363-1.16
		c0.4,0,0.751,0.106,0.963,0.245l-0.171,0.522c-0.155-0.098-0.441-0.236-0.808-0.236c-0.425,0-0.653,0.244-0.653,0.539
		c0,0.326,0.229,0.473,0.743,0.678c0.677,0.252,1.037,0.596,1.037,1.184c0,0.701-0.547,1.191-1.469,1.191
		c-0.433,0-0.833-0.114-1.11-0.277L312.083,414.928z"/>
	<path fill="#010101" d="M318.188,414.707c0,0.344,0.016,0.678,0.057,0.947H317.6l-0.057-0.498h-0.024
		c-0.221,0.311-0.645,0.588-1.208,0.588c-0.8,0-1.208-0.563-1.208-1.135c0-0.955,0.849-1.478,2.375-1.469v-0.082
		c0-0.318-0.09-0.914-0.898-0.906c-0.375,0-0.759,0.105-1.037,0.294l-0.163-0.481c0.326-0.205,0.808-0.344,1.306-0.344
		c1.208,0,1.502,0.825,1.502,1.609V414.707z M317.494,413.638c-0.784-0.017-1.674,0.122-1.674,0.89c0,0.474,0.311,0.686,0.669,0.686
		c0.522,0,0.857-0.326,0.972-0.66c0.024-0.082,0.033-0.164,0.033-0.229V413.638z"/>
	<path fill="#010101" d="M320.179,410.756v0.947h1.028v0.547h-1.028v2.131c0,0.49,0.139,0.768,0.539,0.768
		c0.196,0,0.31-0.017,0.417-0.049l0.033,0.547c-0.139,0.049-0.359,0.098-0.637,0.098c-0.335,0-0.604-0.114-0.776-0.303
		c-0.196-0.22-0.277-0.57-0.277-1.036v-2.155h-0.612v-0.547h0.612v-0.734L320.179,410.756z"/>
</g>
<g>
	<path fill="#010101" d="M165.161,378.146c-1.274-0.336-2.521-0.715-3.614-1.093c-0.21-0.069-0.392-0.14-0.574-0.14
		c-2.255-0.084-4.16-1.737-4.16-4.791c0-3.025,1.835-4.973,4.384-4.973c2.577,0,4.244,1.989,4.244,4.777
		c0,2.437-1.121,3.978-2.689,4.538v0.056c0.938,0.238,1.961,0.463,2.76,0.603L165.161,378.146z M164.153,371.997
		c0-1.905-0.98-3.853-2.983-3.853c-2.059,0-3.068,1.906-3.068,3.951c0,2.017,1.093,3.824,3.025,3.824
		C163.06,375.92,164.153,374.141,164.153,371.997z"/>
	<path fill="#010101" d="M166.453,380.695c0.22,0.131,0.596,0.277,0.955,0.277c0.514,0,0.759-0.253,0.759-0.588
		c0-0.342-0.204-0.521-0.727-0.719c-0.718-0.261-1.053-0.645-1.053-1.117c0-0.637,0.522-1.16,1.363-1.16
		c0.4,0,0.751,0.106,0.963,0.245l-0.171,0.522c-0.155-0.098-0.441-0.236-0.808-0.236c-0.425,0-0.653,0.244-0.653,0.539
		c0,0.326,0.229,0.473,0.743,0.678c0.677,0.252,1.037,0.596,1.037,1.184c0,0.701-0.547,1.191-1.469,1.191
		c-0.433,0-0.833-0.114-1.11-0.277L166.453,380.695z"/>
	<path fill="#010101" d="M172.558,380.475c0,0.344,0.016,0.678,0.057,0.947h-0.645l-0.057-0.498h-0.024
		c-0.221,0.311-0.645,0.588-1.208,0.588c-0.8,0-1.208-0.563-1.208-1.135c0-0.955,0.849-1.478,2.375-1.469v-0.082
		c0-0.318-0.09-0.914-0.898-0.906c-0.375,0-0.759,0.105-1.037,0.294l-0.163-0.481c0.326-0.205,0.808-0.344,1.306-0.344
		c1.208,0,1.502,0.825,1.502,1.609V380.475z M171.864,379.405c-0.784-0.017-1.674,0.122-1.674,0.89c0,0.474,0.311,0.686,0.669,0.686
		c0.522,0,0.857-0.326,0.972-0.66c0.024-0.082,0.033-0.164,0.033-0.229V379.405z"/>
	<path fill="#010101" d="M173.619,380.695c0.22,0.131,0.596,0.277,0.955,0.277c0.514,0,0.759-0.253,0.759-0.588
		c0-0.342-0.204-0.521-0.727-0.719c-0.718-0.261-1.053-0.645-1.053-1.117c0-0.637,0.522-1.16,1.363-1.16
		c0.4,0,0.751,0.106,0.963,0.245l-0.171,0.522c-0.155-0.098-0.441-0.236-0.808-0.236c-0.425,0-0.653,0.244-0.653,0.539
		c0,0.326,0.229,0.473,0.743,0.678c0.677,0.252,1.037,0.596,1.037,1.184c0,0.701-0.547,1.191-1.469,1.191
		c-0.433,0-0.833-0.114-1.11-0.277L173.619,380.695z"/>
</g>
<rect x="94.875" y="216.999" fill="none" stroke="#231F20" stroke-dasharray="3,3" width="365.717" height="114"/>
<g>
	<path fill="#010101" d="M57.305,375.149c0.588-0.099,1.359-0.183,2.339-0.183c1.205,0,2.087,0.281,2.647,0.785
		c0.504,0.448,0.827,1.135,0.827,1.975c0,0.855-0.252,1.527-0.729,2.018c-0.658,0.686-1.695,1.036-2.886,1.036
		c-0.364,0-0.7-0.014-0.98-0.084v3.782h-1.219V375.149z M58.524,379.702c0.266,0.069,0.603,0.098,1.009,0.098
		c1.471,0,2.367-0.728,2.367-2.003c0-1.261-0.896-1.863-2.228-1.863c-0.532,0-0.938,0.043-1.148,0.098V379.702z"/>
	<path fill="#010101" d="M64.187,388.414c0.22,0.131,0.596,0.277,0.955,0.277c0.514,0,0.759-0.253,0.759-0.588
		c0-0.342-0.204-0.521-0.727-0.719c-0.718-0.261-1.053-0.645-1.053-1.117c0-0.637,0.522-1.16,1.363-1.16
		c0.4,0,0.751,0.106,0.963,0.245l-0.171,0.522c-0.155-0.098-0.441-0.236-0.808-0.236c-0.425,0-0.653,0.244-0.653,0.539
		c0,0.326,0.229,0.473,0.743,0.678c0.677,0.252,1.037,0.596,1.037,1.184c0,0.701-0.547,1.191-1.469,1.191
		c-0.433,0-0.833-0.114-1.11-0.277L64.187,388.414z"/>
	<path fill="#010101" d="M70.292,388.193c0,0.344,0.016,0.678,0.057,0.947h-0.645l-0.057-0.498h-0.024
		c-0.221,0.311-0.645,0.588-1.208,0.588c-0.8,0-1.208-0.563-1.208-1.135c0-0.955,0.849-1.478,2.375-1.469v-0.082
		c0-0.318-0.09-0.914-0.898-0.906c-0.375,0-0.759,0.105-1.037,0.294l-0.163-0.481c0.326-0.205,0.808-0.344,1.306-0.344
		c1.208,0,1.502,0.825,1.502,1.609V388.193z M69.598,387.124c-0.784-0.017-1.674,0.122-1.674,0.89c0,0.474,0.311,0.686,0.669,0.686
		c0.522,0,0.857-0.326,0.972-0.66c0.024-0.082,0.033-0.164,0.033-0.229V387.124z"/>
	<path fill="#010101" d="M71.353,388.414c0.22,0.131,0.596,0.277,0.955,0.277c0.514,0,0.759-0.253,0.759-0.588
		c0-0.342-0.204-0.521-0.727-0.719c-0.718-0.261-1.053-0.645-1.053-1.117c0-0.637,0.522-1.16,1.363-1.16
		c0.4,0,0.751,0.106,0.963,0.245l-0.171,0.522c-0.155-0.098-0.441-0.236-0.808-0.236c-0.425,0-0.653,0.244-0.653,0.539
		c0,0.326,0.229,0.473,0.743,0.678c0.677,0.252,1.037,0.596,1.037,1.184c0,0.701-0.547,1.191-1.469,1.191
		c-0.433,0-0.833-0.114-1.11-0.277L71.353,388.414z"/>
</g>
<g>
	<path fill="#010101" d="M565.553,375.149c0.589-0.099,1.359-0.183,2.34-0.183c1.205,0,2.088,0.281,2.647,0.785
		c0.505,0.448,0.827,1.135,0.827,1.975c0,0.855-0.253,1.527-0.729,2.018c-0.658,0.686-1.695,1.036-2.887,1.036
		c-0.363,0-0.699-0.014-0.98-0.084v3.782h-1.219V375.149z M566.771,379.702c0.267,0.069,0.604,0.098,1.01,0.098
		c1.471,0,2.367-0.728,2.367-2.003c0-1.261-0.896-1.863-2.229-1.863c-0.531,0-0.938,0.043-1.148,0.098V379.702z"/>
	<path fill="#010101" d="M572.435,388.414c0.22,0.131,0.596,0.277,0.955,0.277c0.515,0,0.759-0.253,0.759-0.588
		c0-0.342-0.203-0.521-0.727-0.719c-0.718-0.261-1.053-0.645-1.053-1.117c0-0.637,0.522-1.16,1.363-1.16
		c0.4,0,0.751,0.106,0.963,0.245l-0.171,0.522c-0.155-0.098-0.44-0.236-0.808-0.236c-0.426,0-0.654,0.244-0.654,0.539
		c0,0.326,0.229,0.473,0.744,0.678c0.677,0.252,1.036,0.596,1.036,1.184c0,0.701-0.547,1.191-1.47,1.191
		c-0.433,0-0.832-0.114-1.109-0.277L572.435,388.414z"/>
	<path fill="#010101" d="M576.042,385.189l0.775,2.213c0.131,0.367,0.237,0.693,0.318,1.02h0.024c0.09-0.326,0.204-0.652,0.335-1.02
		l0.767-2.213h0.752l-1.551,3.951h-0.686l-1.503-3.951H576.042z"/>
	<path fill="#010101" d="M579.689,386.259c0-0.416-0.008-0.743-0.031-1.069h0.637l0.04,0.653h0.017
		c0.195-0.368,0.652-0.735,1.307-0.735c0.547,0,1.396,0.327,1.396,1.682v2.352h-0.719v-2.277c0-0.637-0.237-1.168-0.914-1.168
		c-0.466,0-0.833,0.335-0.964,0.734c-0.032,0.09-0.049,0.213-0.049,0.336v2.375h-0.719V386.259z"/>
</g>
<g>
	<path fill="#010101" d="M115.479,249.195l-3.096-9.441h1.331l1.471,4.65c0.392,1.274,0.742,2.423,1.009,3.53h0.027
		c0.267-1.093,0.645-2.283,1.079-3.516l1.597-4.665h1.303l-3.376,9.441H115.479z"/>
	<path fill="#010101" d="M121.946,246.226l-0.98,2.97h-1.261l3.222-9.441h1.456l3.222,9.441h-1.303l-1.008-2.97H121.946z
		 M125.056,245.273l-0.938-2.718c-0.21-0.616-0.351-1.177-0.49-1.723h-0.028c-0.14,0.546-0.28,1.134-0.477,1.708l-0.924,2.732
		H125.056z"/>
	<path fill="#010101" d="M128.987,239.895c0.742-0.126,1.625-0.21,2.592-0.21c1.751,0,2.997,0.42,3.824,1.177
		c0.854,0.771,1.345,1.863,1.345,3.39c0,1.541-0.49,2.802-1.359,3.67c-0.896,0.883-2.354,1.359-4.188,1.359
		c-0.882,0-1.597-0.042-2.213-0.112V239.895z M130.206,248.243c0.309,0.042,0.757,0.056,1.232,0.056c2.62,0,4.021-1.457,4.021-4.006
		c0.014-2.227-1.247-3.642-3.824-3.642c-0.63,0-1.106,0.056-1.429,0.126V248.243z"/>
</g>
<g>
	<g>
		<line fill="none" stroke="#231F20" x1="348.944" y1="87.2" x2="348.944" y2="273.999"/>
		<circle fill="#231F20" cx="348.944" cy="87.2" r="3.76"/>
	</g>
</g>
<g>
	<g>
		<line fill="none" stroke="#231F20" x1="244.655" y1="273.999" x2="244.655" y2="394.226"/>
		<circle fill="#231F20" cx="244.655" cy="394.226" r="3.76"/>
	</g>
</g>
<line fill="none" stroke="#231F20" x1="244.655" y1="273.999" x2="348.944" y2="273.999"/>
<rect x="265.187" y="242.451" fill="#FFFFFF" stroke="#231F20" width="74.322" height="74.322"/>
<g>
	<circle fill="#FFFFFF" stroke="#231F20" cx="302.348" cy="279.612" r="31.611"/>
	<g>
		<path fill="none" stroke="#231F20" d="M303.65,247.807c-9.09,10.123-9.664,24.402-1.285,31.927"/>
		<path fill="none" stroke="#231F20" d="M301.044,311.418c9.09-10.123,9.664-24.402,1.285-31.927"/>
	</g>
	<g>
		<path fill="none" stroke="#231F20" d="M334.154,280.916c-10.123-9.09-24.402-9.665-31.928-1.285"/>
		<path fill="none" stroke="#231F20" d="M270.541,278.309c10.123,9.09,24.404,9.665,31.928,1.286"/>
	</g>
	<g>
		<path fill="none" stroke="#231F20" d="M318.479,252.17c-12.786,4.647-20.021,16.973-16.173,27.558"/>
		<path fill="none" stroke="#231F20" d="M286.216,307.054c12.786-4.646,20.021-16.972,16.173-27.558"/>
	</g>
	<g>
		<path fill="none" stroke="#231F20" d="M329.287,296.57c-4.256-12.922-16.356-20.525-27.053-17.002"/>
		<path fill="none" stroke="#231F20" d="M275.408,262.654c4.256,12.922,16.358,20.527,27.055,17.003"/>
	</g>
</g>
<g>
	<path fill="#010101" d="M372.261,242.421c-1.274-0.336-2.521-0.714-3.614-1.093c-0.209-0.07-0.392-0.14-0.574-0.14
		c-2.255-0.084-4.16-1.737-4.16-4.791c0-3.025,1.835-4.973,4.384-4.973c2.577,0,4.244,1.989,4.244,4.777
		c0,2.437-1.121,3.978-2.689,4.539v0.056c0.938,0.238,1.961,0.462,2.76,0.603L372.261,242.421z M371.252,236.271
		c0-1.905-0.98-3.852-2.982-3.852c-2.06,0-3.068,1.905-3.068,3.95c0,2.017,1.093,3.824,3.025,3.824
		C370.16,240.194,371.252,238.415,371.252,236.271z"/>
	<path fill="#010101" d="M373.928,241.745l0.775,2.212c0.131,0.367,0.236,0.694,0.318,1.021h0.024
		c0.09-0.327,0.204-0.653,0.335-1.021l0.768-2.212h0.751l-1.552,3.951h-0.686l-1.502-3.951H373.928z"/>
	<path fill="#010101" d="M377.576,243.035c0-0.506-0.017-0.915-0.033-1.29h0.637l0.041,0.678h0.017
		c0.286-0.482,0.759-0.759,1.403-0.759c0.964,0,1.682,0.808,1.682,2c0,1.42-0.873,2.123-1.803,2.123
		c-0.523,0-0.98-0.229-1.217-0.621h-0.017v2.147h-0.71V243.035z M378.286,244.088c0,0.106,0.009,0.204,0.032,0.294
		c0.131,0.498,0.563,0.841,1.078,0.841c0.76,0,1.199-0.62,1.199-1.526c0-0.784-0.416-1.461-1.175-1.461
		c-0.489,0-0.955,0.343-1.086,0.882c-0.024,0.09-0.049,0.196-0.049,0.286V244.088z"/>
	<path fill="#010101" d="M382.22,239.9h0.719v5.796h-0.719V239.9z"/>
</g>
<g>
	<path fill="#010101" d="M220.262,308.441c-1.274-0.336-2.521-0.715-3.614-1.093c-0.21-0.069-0.392-0.14-0.574-0.14
		c-2.255-0.084-4.16-1.737-4.16-4.791c0-3.025,1.835-4.973,4.384-4.973c2.577,0,4.244,1.989,4.244,4.777
		c0,2.437-1.121,3.978-2.689,4.538v0.056c0.938,0.238,1.961,0.463,2.76,0.603L220.262,308.441z M219.253,302.292
		c0-1.905-0.98-3.853-2.983-3.853c-2.059,0-3.068,1.906-3.068,3.951c0,2.017,1.093,3.824,3.025,3.824
		C218.161,306.215,219.253,304.436,219.253,302.292z"/>
	<path fill="#010101" d="M221.929,307.766l0.775,2.213c0.131,0.367,0.237,0.693,0.318,1.02h0.024c0.09-0.326,0.204-0.652,0.335-1.02
		l0.767-2.213h0.751l-1.551,3.951h-0.686l-1.502-3.951H221.929z"/>
	<path fill="#010101" d="M225.577,309.056c0-0.507-0.016-0.915-0.032-1.29h0.637l0.041,0.678h0.017
		c0.286-0.482,0.759-0.76,1.404-0.76c0.963,0,1.682,0.809,1.682,2c0,1.421-0.874,2.123-1.804,2.123c-0.522,0-0.98-0.229-1.217-0.621
		h-0.016v2.147h-0.71V309.056z M226.287,310.108c0,0.106,0.008,0.204,0.033,0.294c0.13,0.498,0.563,0.841,1.078,0.841
		c0.759,0,1.2-0.62,1.2-1.526c0-0.783-0.416-1.461-1.175-1.461c-0.49,0-0.955,0.342-1.086,0.881
		c-0.024,0.09-0.049,0.196-0.049,0.286V310.108z"/>
	<path fill="#010101" d="M233.796,309.709c0,1.461-1.021,2.098-1.967,2.098c-1.061,0-1.894-0.783-1.894-2.033
		c0-1.314,0.874-2.09,1.959-2.09C233.029,307.684,233.796,308.509,233.796,309.709z M230.67,309.75c0,0.865,0.49,1.518,1.192,1.518
		c0.686,0,1.2-0.645,1.2-1.535c0-0.669-0.335-1.51-1.184-1.51C231.037,308.223,230.67,309.006,230.67,309.75z"/>
</g>
</svg>
