<?xml version="1.0" encoding="utf-8"?>
<!-- Generator: Adobe Illustrator 14.0.0, SVG Export Plug-In . SVG Version: 6.00 Build 43363)  -->
<!DOCTYPE svg PUBLIC "-//W3C//DTD SVG 1.1//EN" "http://www.w3.org/Graphics/SVG/1.1/DTD/svg11.dtd">
<svg version="1.1" id="Layer_1" xmlns="http://www.w3.org/2000/svg" xmlns:xlink="http://www.w3.org/1999/xlink" x="0px" y="0px"
	 width="246px" height="251px" viewBox="0 0 246 251" enable-background="new 0 0 246 251" xml:space="preserve">
<path fill="none" stroke="#010101" d="M56.881,128.979c0-8.333-9.333-18.333-17.667-18.333"/>
<g>
	<path fill="#010101" d="M56.912,58.6c0.792-0.144,1.945-0.252,3.007-0.252c1.674,0,2.772,0.324,3.511,0.99
		c0.594,0.54,0.955,1.368,0.955,2.323c0,1.584-1.008,2.647-2.269,3.079v0.054c0.918,0.324,1.477,1.188,1.765,2.449
		c0.396,1.692,0.684,2.863,0.937,3.331h-1.621c-0.198-0.36-0.468-1.386-0.792-2.899c-0.36-1.674-1.026-2.305-2.449-2.359h-1.476
		v5.258h-1.567V58.6z M58.479,64.127h1.602c1.675,0,2.737-0.918,2.737-2.305c0-1.566-1.135-2.251-2.791-2.251
		c-0.756,0-1.278,0.054-1.548,0.126V64.127z"/>
</g>
<g>
	<g>
		<g>
			<line fill="none" stroke="#010101" x1="56.885" y1="169.985" x2="56.885" y2="82.328"/>
			<polygon fill="#010101" points="53.182,167.177 56.885,168.75 60.589,167.177 56.885,175.955 			"/>
		</g>
	</g>
	<g>
		<g>
			<line fill="none" stroke="#010101" x1="63.885" y1="87.623" x2="63.885" y2="174.495"/>
			<polygon fill="#010101" points="67.588,90.432 63.885,88.859 60.181,90.432 63.885,81.654 			"/>
		</g>
	</g>
</g>
<g>
	<path fill="#EB2227" d="M29.905,151.441h0.028c0.168-0.238,0.393-0.532,0.588-0.771l2.003-2.339h1.471l-2.605,2.788l2.983,3.992
		h-1.513l-2.325-3.25l-0.63,0.7v2.549h-1.219v-9.945h1.219V151.441z"/>
	<path fill="#EB2227" d="M38.23,153.977v4.775c0,0.351,0.017,0.751,0.033,1.021h-0.637l-0.033-0.686h-0.024
		c-0.212,0.44-0.686,0.775-1.331,0.775c-0.955,0-1.698-0.808-1.698-2.008c-0.008-1.314,0.816-2.114,1.771-2.114
		c0.612,0,1.012,0.286,1.192,0.596h0.017v-2.359H38.23z M37.52,157.43c0-0.09-0.008-0.212-0.033-0.302
		c-0.106-0.449-0.498-0.824-1.037-0.824c-0.743,0-1.184,0.653-1.184,1.518c0,0.8,0.4,1.461,1.167,1.461
		c0.481,0,0.922-0.327,1.053-0.857c0.024-0.098,0.033-0.196,0.033-0.31V157.43z"/>
</g>
<g>
	<path fill="#010101" d="M17.618,108.668c-0.434,0.224-1.345,0.448-2.493,0.448c-2.662,0-4.65-1.681-4.65-4.791
		c0-2.969,2.003-4.958,4.931-4.958c1.163,0,1.919,0.252,2.241,0.42l-0.308,0.994c-0.448-0.224-1.107-0.392-1.891-0.392
		c-2.213,0-3.684,1.415-3.684,3.894c0,2.325,1.331,3.796,3.614,3.796c0.757,0,1.513-0.154,2.003-0.393L17.618,108.668z"/>
	<path fill="#010101" d="M23.777,107.337c0,0.588,0.028,1.163,0.098,1.625h-1.107l-0.098-0.854h-0.042
		c-0.378,0.532-1.107,1.009-2.073,1.009c-1.373,0-2.073-0.967-2.073-1.947c0-1.639,1.457-2.535,4.076-2.521v-0.14
		c0-0.546-0.154-1.569-1.541-1.555c-0.644,0-1.302,0.182-1.779,0.504l-0.28-0.827c0.561-0.35,1.387-0.588,2.241-0.588
		c2.073,0,2.578,1.415,2.578,2.76V107.337z M22.587,105.502c-1.345-0.028-2.872,0.21-2.872,1.527c0,0.812,0.532,1.177,1.148,1.177
		c0.896,0,1.471-0.561,1.667-1.135c0.042-0.14,0.056-0.28,0.056-0.392V105.502z"/>
	<path fill="#010101" d="M25.107,104.3v-0.441l0.563-0.547c1.355-1.29,1.976-1.976,1.976-2.775c0-0.539-0.253-1.037-1.045-1.037
		c-0.482,0-0.882,0.245-1.126,0.449l-0.229-0.506c0.359-0.302,0.89-0.539,1.494-0.539c1.143,0,1.625,0.784,1.625,1.543
		c0,0.979-0.71,1.771-1.829,2.849l-0.417,0.392v0.017h2.376v0.596H25.107z"/>
	<path fill="#010101" d="M31.621,99.957v1.918h1.845v0.49h-1.845v1.935h-0.522v-1.935h-1.845v-0.49h1.845v-1.918H31.621z"/>
</g>
<g>
	<path fill="#010101" d="M55.76,188.18c0.954-0.162,2.088-0.27,3.331-0.27c2.251,0,3.854,0.54,4.916,1.512
		c1.099,0.991,1.729,2.395,1.729,4.357c0,1.98-0.63,3.602-1.747,4.717c-1.152,1.135-3.025,1.747-5.383,1.747
		c-1.134,0-2.053-0.054-2.845-0.144V188.18z M57.327,198.91c0.396,0.055,0.972,0.072,1.584,0.072c3.367,0,5.167-1.872,5.167-5.149
		c0.018-2.863-1.603-4.682-4.916-4.682c-0.81,0-1.422,0.072-1.836,0.162V198.91z"/>
</g>
<g>
	<path fill="#010101" d="M184.104,54.958c0.792-0.144,1.944-0.252,3.007-0.252c1.674,0,2.772,0.324,3.511,0.99
		c0.594,0.54,0.955,1.369,0.955,2.323c0,1.584-1.008,2.646-2.269,3.079v0.054c0.918,0.324,1.477,1.188,1.765,2.449
		c0.396,1.692,0.684,2.863,0.937,3.331h-1.621c-0.198-0.36-0.468-1.386-0.792-2.899c-0.36-1.674-1.026-2.305-2.449-2.358h-1.476
		v5.257h-1.566V54.958z M185.67,60.486h1.603c1.674,0,2.736-0.918,2.736-2.305c0-1.566-1.134-2.251-2.791-2.251
		c-0.756,0-1.278,0.054-1.548,0.126V60.486z"/>
	<path fill="#010101" d="M195.883,55.353v2.467h2.373v0.63h-2.373v2.488h-0.672V58.45h-2.373v-0.63h2.373v-2.467H195.883z"/>
</g>
<g>
	<g>
		<g>
			<line fill="none" stroke="#010101" x1="165.982" y1="58.149" x2="75.155" y2="58.149"/>
			<polygon fill="#010101" points="163.173,61.853 164.747,58.149 163.173,54.445 171.952,58.149 			"/>
		</g>
	</g>
	<g>
		<g>
			<line fill="none" stroke="#010101" x1="80.642" y1="65.148" x2="170.656" y2="65.148"/>
			<polygon fill="#010101" points="83.45,61.445 81.877,65.148 83.45,68.853 74.672,65.148 			"/>
		</g>
	</g>
</g>
<g>
	<path fill="#EB2227" d="M156.778,46.703c0,0.588,0.028,1.163,0.098,1.625h-1.107l-0.098-0.854h-0.042
		c-0.378,0.532-1.107,1.009-2.073,1.009c-1.373,0-2.073-0.967-2.073-1.947c0-1.639,1.457-2.535,4.076-2.521v-0.14
		c0-0.546-0.154-1.569-1.541-1.555c-0.644,0-1.302,0.182-1.779,0.504l-0.28-0.827c0.561-0.35,1.387-0.588,2.241-0.588
		c2.073,0,2.578,1.415,2.578,2.76V46.703z M155.587,44.868c-1.345-0.028-2.872,0.21-2.872,1.527c0,0.812,0.532,1.177,1.148,1.177
		c0.896,0,1.471-0.561,1.667-1.135c0.042-0.14,0.056-0.28,0.056-0.392V44.868z"/>
</g>
<g>
	<path fill="#EB2227" d="M157.283,72.383v8.194c0,0.603,0.028,1.289,0.056,1.751h-1.093l-0.056-1.177h-0.042
		c-0.364,0.756-1.177,1.331-2.283,1.331c-1.639,0-2.914-1.387-2.914-3.446c-0.014-2.255,1.401-3.628,3.04-3.628
		c1.051,0,1.737,0.49,2.045,1.023h0.028v-4.048H157.283z M156.064,78.308c0-0.154-0.014-0.364-0.056-0.519
		c-0.182-0.771-0.854-1.415-1.779-1.415c-1.275,0-2.031,1.121-2.031,2.605c0,1.373,0.687,2.507,2.003,2.507
		c0.826,0,1.583-0.561,1.807-1.471c0.042-0.168,0.056-0.336,0.056-0.533V78.308z"/>
</g>
<path fill="none" stroke="#010101" d="M92.718,39.745c0,8.333,9.332,18.334,17.666,18.334"/>
<g>
	<path fill="#010101" d="M89.122,34.868c-0.434,0.224-1.345,0.448-2.493,0.448c-2.662,0-4.65-1.681-4.65-4.791
		c0-2.969,2.003-4.958,4.931-4.958c1.163,0,1.919,0.252,2.241,0.42l-0.308,0.994c-0.448-0.224-1.107-0.392-1.891-0.392
		c-2.213,0-3.684,1.415-3.684,3.894c0,2.325,1.331,3.796,3.614,3.796c0.757,0,1.513-0.154,2.003-0.393L89.122,34.868z"/>
	<path fill="#010101" d="M95.281,33.537c0,0.588,0.028,1.163,0.098,1.625h-1.107l-0.098-0.854h-0.042
		c-0.378,0.532-1.107,1.009-2.073,1.009c-1.373,0-2.073-0.967-2.073-1.947c0-1.639,1.457-2.535,4.076-2.521v-0.14
		c0-0.546-0.154-1.569-1.541-1.555c-0.644,0-1.302,0.182-1.779,0.504l-0.28-0.827c0.561-0.35,1.387-0.588,2.241-0.588
		c2.073,0,2.578,1.415,2.578,2.76V33.537z M94.09,31.702c-1.345-0.028-2.872,0.21-2.872,1.527c0,0.812,0.532,1.177,1.148,1.177
		c0.896,0,1.471-0.561,1.667-1.135c0.042-0.14,0.056-0.28,0.056-0.392V31.702z"/>
	<path fill="#010101" d="M96.611,30.5v-0.441l0.563-0.547c1.355-1.29,1.976-1.976,1.976-2.775c0-0.539-0.253-1.037-1.045-1.037
		c-0.482,0-0.882,0.245-1.126,0.449l-0.229-0.506c0.359-0.302,0.89-0.539,1.494-0.539c1.143,0,1.625,0.784,1.625,1.543
		c0,0.979-0.71,1.771-1.829,2.849l-0.417,0.392v0.017h2.376V30.5H96.611z"/>
	<path fill="#010101" d="M103.125,26.157v1.918h1.845v0.49h-1.845V30.5h-0.522v-1.935h-1.845v-0.49h1.845v-1.918H103.125z"/>
</g>
<g>
	<path fill="#EB2227" d="M77.396,151.441h0.028c0.168-0.238,0.393-0.532,0.588-0.771l2.003-2.339h1.471l-2.605,2.788l2.983,3.992
		h-1.513l-2.325-3.25l-0.63,0.7v2.549h-1.219v-9.945h1.219V151.441z"/>
	<path fill="#EB2227" d="M82.317,157.055c0-0.465-0.008-0.866-0.032-1.233h0.628l0.033,0.784h0.024
		c0.18-0.531,0.621-0.865,1.102-0.865c0.073,0,0.13,0.008,0.196,0.016v0.678c-0.073-0.016-0.147-0.016-0.245-0.016
		c-0.506,0-0.866,0.375-0.963,0.914c-0.017,0.098-0.024,0.221-0.024,0.335v2.106h-0.719V157.055z"/>
</g>
<g>
	<path fill="#EB2227" d="M202.657,151.44h0.028c0.168-0.238,0.393-0.532,0.588-0.771l2.003-2.339h1.471l-2.605,2.788l2.983,3.992
		h-1.513l-2.325-3.25l-0.63,0.7v2.549h-1.219v-9.945h1.219V151.44z"/>
	<path fill="#EB2227" d="M210.981,153.977v4.775c0,0.351,0.017,0.751,0.033,1.021h-0.637l-0.033-0.686h-0.024
		c-0.212,0.44-0.686,0.775-1.331,0.775c-0.955,0-1.698-0.808-1.698-2.008c-0.008-1.314,0.816-2.114,1.771-2.114
		c0.612,0,1.012,0.286,1.192,0.596h0.017v-2.359H210.981z M210.271,157.43c0-0.09-0.008-0.212-0.033-0.302
		c-0.106-0.449-0.498-0.824-1.037-0.824c-0.743,0-1.184,0.653-1.184,1.518c0,0.8,0.4,1.461,1.167,1.461
		c0.481,0,0.922-0.327,1.053-0.857c0.024-0.098,0.033-0.196,0.033-0.31V157.43z"/>
</g>
<g>
	<path fill="#010101" d="M223.355,108.668c-0.434,0.224-1.345,0.448-2.493,0.448c-2.662,0-4.65-1.681-4.65-4.791
		c0-2.969,2.003-4.958,4.931-4.958c1.163,0,1.919,0.252,2.241,0.42l-0.308,0.994c-0.448-0.224-1.107-0.392-1.891-0.392
		c-2.213,0-3.684,1.415-3.684,3.894c0,2.325,1.331,3.796,3.614,3.796c0.757,0,1.513-0.154,2.003-0.393L223.355,108.668z"/>
	<path fill="#010101" d="M229.515,107.337c0,0.588,0.028,1.163,0.098,1.625h-1.107l-0.098-0.854h-0.042
		c-0.378,0.532-1.107,1.009-2.073,1.009c-1.373,0-2.073-0.967-2.073-1.947c0-1.639,1.457-2.535,4.076-2.521v-0.14
		c0-0.546-0.154-1.569-1.541-1.555c-0.644,0-1.302,0.182-1.779,0.504l-0.28-0.827c0.561-0.35,1.387-0.588,2.241-0.588
		c2.073,0,2.578,1.415,2.578,2.76V107.337z M228.324,105.502c-1.345-0.028-2.872,0.21-2.872,1.527c0,0.812,0.532,1.177,1.148,1.177
		c0.896,0,1.471-0.561,1.667-1.135c0.042-0.14,0.056-0.28,0.056-0.392V105.502z"/>
	<path fill="#010101" d="M230.845,104.3v-0.441l0.563-0.547c1.355-1.29,1.976-1.976,1.976-2.775c0-0.539-0.253-1.037-1.045-1.037
		c-0.482,0-0.882,0.245-1.126,0.449l-0.229-0.506c0.359-0.302,0.89-0.539,1.494-0.539c1.143,0,1.625,0.784,1.625,1.543
		c0,0.979-0.71,1.771-1.829,2.849l-0.417,0.392v0.017h2.376v0.596H230.845z"/>
	<path fill="#010101" d="M237.358,99.957v1.918h1.845v0.49h-1.845v1.935h-0.522v-1.935h-1.845v-0.49h1.845v-1.918H237.358z"/>
</g>
<g>
	<g>
		<line fill="none" stroke="#010101" x1="83.777" y1="197.739" x2="174.604" y2="197.739"/>
		<polygon fill="#010101" points="171.795,201.442 173.368,197.739 171.795,194.035 180.573,197.739 		"/>
	</g>
</g>
<g>
	<g>
		<line fill="none" stroke="#010101" x1="169.118" y1="190.74" x2="79.103" y2="190.74"/>
		<polygon fill="#010101" points="81.912,187.037 80.339,190.74 81.912,194.444 73.134,190.74 		"/>
	</g>
</g>
<g>
	<path fill="#EB2227" d="M156.778,211.959c0,0.588,0.028,1.162,0.098,1.625h-1.107l-0.098-0.854h-0.042
		c-0.378,0.532-1.107,1.009-2.073,1.009c-1.373,0-2.073-0.967-2.073-1.947c0-1.639,1.457-2.535,4.076-2.521v-0.141
		c0-0.545-0.154-1.568-1.541-1.555c-0.644,0-1.302,0.183-1.779,0.505l-0.28-0.827c0.561-0.35,1.387-0.588,2.241-0.588
		c2.073,0,2.578,1.415,2.578,2.76V211.959z M155.587,210.124c-1.345-0.028-2.872,0.21-2.872,1.526c0,0.812,0.532,1.178,1.148,1.178
		c0.896,0,1.471-0.561,1.667-1.135c0.042-0.141,0.056-0.281,0.056-0.393V210.124z"/>
</g>
<g>
	<path fill="#EB2227" d="M157.283,171.833v8.194c0,0.603,0.028,1.289,0.056,1.751h-1.093l-0.056-1.177h-0.042
		c-0.364,0.756-1.177,1.331-2.283,1.331c-1.639,0-2.914-1.387-2.914-3.446c-0.014-2.255,1.401-3.628,3.04-3.628
		c1.051,0,1.737,0.49,2.045,1.023h0.028v-4.048H157.283z M156.064,177.758c0-0.154-0.014-0.364-0.056-0.519
		c-0.182-0.771-0.854-1.415-1.779-1.415c-1.275,0-2.031,1.121-2.031,2.605c0,1.373,0.687,2.507,2.003,2.507
		c0.826,0,1.583-0.561,1.807-1.471c0.042-0.168,0.056-0.336,0.056-0.533V177.758z"/>
</g>
<path fill="none" stroke="#010101" d="M92.525,216.144c0-8.333,9.536-18.334,18.053-18.334"/>
<g>
	<path fill="#EB2227" d="M172.228,151.441h0.028c0.168-0.238,0.393-0.532,0.588-0.771l2.003-2.339h1.471l-2.605,2.788l2.983,3.992
		h-1.513l-2.325-3.25l-0.63,0.7v2.549h-1.219v-9.945h1.219V151.441z"/>
	<path fill="#EB2227" d="M177.148,157.055c0-0.465-0.008-0.866-0.032-1.233h0.628l0.033,0.784h0.024
		c0.18-0.531,0.621-0.865,1.102-0.865c0.073,0,0.13,0.008,0.196,0.016v0.678c-0.073-0.016-0.147-0.016-0.245-0.016
		c-0.506,0-0.866,0.375-0.963,0.914c-0.017,0.098-0.024,0.221-0.024,0.335v2.106h-0.719V157.055z"/>
</g>
<g>
	<path fill="#010101" d="M89.122,229.671c-0.434,0.224-1.345,0.448-2.493,0.448c-2.662,0-4.65-1.682-4.65-4.791
		c0-2.969,2.003-4.959,4.931-4.959c1.163,0,1.919,0.252,2.241,0.421l-0.308,0.994c-0.448-0.224-1.107-0.392-1.891-0.392
		c-2.213,0-3.684,1.414-3.684,3.894c0,2.325,1.331,3.796,3.614,3.796c0.757,0,1.513-0.154,2.003-0.393L89.122,229.671z"/>
	<path fill="#010101" d="M95.281,228.34c0,0.588,0.028,1.162,0.098,1.625h-1.107l-0.098-0.854h-0.042
		c-0.378,0.532-1.107,1.009-2.073,1.009c-1.373,0-2.073-0.967-2.073-1.947c0-1.639,1.457-2.535,4.076-2.521v-0.141
		c0-0.545-0.154-1.568-1.541-1.555c-0.644,0-1.302,0.183-1.779,0.505l-0.28-0.827c0.561-0.35,1.387-0.588,2.241-0.588
		c2.073,0,2.578,1.415,2.578,2.76V228.34z M94.09,226.505c-1.345-0.028-2.872,0.21-2.872,1.526c0,0.812,0.532,1.178,1.148,1.178
		c0.896,0,1.471-0.561,1.667-1.135c0.042-0.141,0.056-0.281,0.056-0.393V226.505z"/>
	<path fill="#010101" d="M96.611,225.303v-0.441l0.563-0.547c1.355-1.289,1.976-1.975,1.976-2.775c0-0.539-0.253-1.037-1.045-1.037
		c-0.482,0-0.882,0.246-1.126,0.449l-0.229-0.506c0.359-0.302,0.89-0.539,1.494-0.539c1.143,0,1.625,0.784,1.625,1.543
		c0,0.98-0.71,1.771-1.829,2.85l-0.417,0.392v0.017h2.376v0.596H96.611z"/>
	<path fill="#010101" d="M103.125,220.96v1.919h1.845v0.489h-1.845v1.935h-0.522v-1.935h-1.845v-0.489h1.845v-1.919H103.125z"/>
</g>
<g>
	<path fill="#010101" d="M182.951,185.784c0.955-0.162,2.089-0.27,3.331-0.27c2.251,0,3.854,0.54,4.916,1.512
		c1.099,0.991,1.729,2.395,1.729,4.357c0,1.98-0.63,3.601-1.747,4.718c-1.152,1.135-3.025,1.746-5.383,1.746
		c-1.134,0-2.053-0.054-2.845-0.145V185.784z M184.518,196.516c0.396,0.054,0.972,0.072,1.584,0.072c3.367,0,5.167-1.873,5.167-5.15
		c0.018-2.863-1.603-4.682-4.916-4.682c-0.811,0-1.422,0.072-1.836,0.162V196.516z"/>
	<path fill="#010101" d="M197.035,186.161v2.467h2.373v0.63h-2.373v2.488h-0.672v-2.488h-2.373v-0.63h2.373v-2.467H197.035z"/>
</g>
<path fill="none" stroke="#010101" d="M193.342,128.979c0-8.333,9.333-18.333,17.666-18.333"/>
<g>
	<g>
		<g>
			<line fill="none" stroke="#010101" x1="193.338" y1="169.985" x2="193.338" y2="82.328"/>
			<polygon fill="#010101" points="189.635,167.177 193.338,168.75 197.042,167.177 193.338,175.955 			"/>
		</g>
	</g>
	<g>
		<g>
			<line fill="none" stroke="#010101" x1="186.338" y1="87.623" x2="186.338" y2="174.495"/>
			<polygon fill="#010101" points="190.042,90.432 186.338,88.859 182.634,90.432 186.338,81.654 			"/>
		</g>
	</g>
</g>
</svg>
