<?xml version="1.0" encoding="utf-8"?>
<!-- Generator: Adobe Illustrator 14.0.0, SVG Export Plug-In . SVG Version: 6.00 Build 43363)  -->
<!DOCTYPE svg PUBLIC "-//W3C//DTD SVG 1.1//EN" "http://www.w3.org/Graphics/SVG/1.1/DTD/svg11.dtd">
<svg version="1.1" id="Layer_1" xmlns="http://www.w3.org/2000/svg" xmlns:xlink="http://www.w3.org/1999/xlink" x="0px" y="0px"
	 width="548.117px" height="662.319px" viewBox="0 0 548.117 662.319" enable-background="new 0 0 548.117 662.319"
	 xml:space="preserve">
<g>
	<g>
		<path fill="none" stroke="#231F20" d="M471.298,161.967c0,245.417-56.128,444.004-125.491,444.004"/>
		<polygon fill="#231F20" points="348.615,602.268 347.043,605.971 348.615,609.675 339.838,605.971 		"/>
	</g>
</g>
<g>
	<g>
		<path fill="none" stroke="#231F20" d="M91.163,159.535c0,245.417,67.754,444.004,151.486,444.004"/>
		<polygon fill="#231F20" points="239.84,607.242 241.413,603.539 239.84,599.834 248.618,603.539 		"/>
	</g>
</g>
<g>
	<g>
		<ellipse fill="#AC5EA5" stroke="#231F20" cx="310.962" cy="464.876" rx="12.811" ry="7.851"/>
		<ellipse fill="#AC5EA5" stroke="#231F20" cx="262.463" cy="415.994" rx="12.81" ry="7.852"/>
		<ellipse fill="#AC5EA5" stroke="#231F20" cx="343.619" cy="431.13" rx="12.81" ry="7.851"/>
		<ellipse fill="#AC5EA5" stroke="#231F20" cx="259.539" cy="460.41" rx="12.81" ry="7.852"/>
		<ellipse fill="#AC5EA5" stroke="#231F20" cx="292.927" cy="405.821" rx="12.81" ry="7.851"/>
		<ellipse fill="#AC5EA5" stroke="#231F20" cx="289.271" cy="427.16" rx="12.81" ry="7.852"/>
		<ellipse fill="#AC5EA5" stroke="#231F20" cx="318.761" cy="419.964" rx="12.811" ry="7.851"/>
		<ellipse fill="#AC5EA5" stroke="#231F20" cx="316.08" cy="443.289" rx="12.81" ry="7.851"/>
		<ellipse fill="#AC5EA5" stroke="#231F20" cx="286.347" cy="450.733" rx="12.81" ry="7.851"/>
		<ellipse fill="#AC5EA5" stroke="#231F20" cx="260.513" cy="438.326" rx="12.81" ry="7.852"/>
		<ellipse fill="#AC5EA5" stroke="#231F20" cx="236.386" cy="424.926" rx="12.81" ry="7.852"/>
		<ellipse fill="#AC5EA5" stroke="#231F20" cx="268.312" cy="394.655" rx="12.81" ry="7.851"/>
		<ellipse fill="#AC5EA5" stroke="#231F20" cx="322.416" cy="400.61" rx="12.81" ry="7.851"/>
		<ellipse fill="#AC5EA5" stroke="#231F20" cx="238.254" cy="401.187" rx="12.81" ry="7.853"/>
		<ellipse fill="#AC5EA5" stroke="#231F20" cx="232.081" cy="448.5" rx="12.81" ry="7.851"/>
		<ellipse fill="#AC5EA5" stroke="#231F20" cx="346.788" cy="456.108" rx="12.811" ry="7.853"/>
		<ellipse fill="#AC5EA5" stroke="#231F20" cx="348.411" cy="411.444" rx="12.811" ry="7.853"/>
	</g>
	<g>
		<path d="M270.749,491.364c-0.059-1.12-0.129-2.479-0.129-3.468h-0.023c-0.281,0.93-0.597,1.942-0.995,3.051l-1.393,3.896h-0.772
			l-1.288-3.825c-0.375-1.145-0.679-2.169-0.901-3.122h-0.023c-0.023,1.001-0.082,2.336-0.152,3.551l-0.21,3.444h-0.972l0.55-8.032
			h1.299l1.346,3.885c0.328,0.989,0.585,1.871,0.796,2.705h0.023c0.211-0.81,0.492-1.691,0.843-2.705l1.404-3.885h1.299l0.492,8.032
			h-1.007L270.749,491.364z"/>
		<path d="M278.667,491.959c0,2.133-1.463,3.062-2.82,3.062c-1.521,0-2.715-1.144-2.715-2.967c0-1.919,1.252-3.051,2.809-3.051
			C277.567,489.004,278.667,490.208,278.667,491.959z M274.185,492.019c0,1.264,0.702,2.217,1.708,2.217
			c0.983,0,1.721-0.941,1.721-2.24c0-0.978-0.48-2.205-1.697-2.205C274.712,489.791,274.185,490.935,274.185,492.019z"/>
		<path d="M279.964,490.684c0-0.607-0.012-1.084-0.047-1.561h0.913l0.059,0.953h0.023c0.281-0.536,0.937-1.072,1.873-1.072
			c0.784,0,2.001,0.477,2.001,2.455v3.432h-1.03v-3.325c0-0.93-0.339-1.704-1.311-1.704c-0.667,0-1.194,0.489-1.381,1.073
			c-0.047,0.131-0.07,0.31-0.07,0.488v3.468h-1.03V490.684z"/>
		<path d="M291.583,491.959c0,2.133-1.463,3.062-2.82,3.062c-1.521,0-2.715-1.144-2.715-2.967c0-1.919,1.252-3.051,2.809-3.051
			C290.482,489.004,291.583,490.208,291.583,491.959z M287.1,492.019c0,1.264,0.702,2.217,1.708,2.217
			c0.983,0,1.721-0.941,1.721-2.24c0-0.978-0.48-2.205-1.697-2.205C287.627,489.791,287.1,490.935,287.1,492.019z"/>
		<path d="M296.916,494.689c-0.269,0.131-0.865,0.333-1.626,0.333c-1.709,0-2.821-1.18-2.821-2.943c0-1.775,1.194-3.074,3.043-3.074
			c0.609,0,1.147,0.154,1.428,0.31l-0.233,0.799c-0.246-0.132-0.632-0.274-1.194-0.274c-1.299,0-2.001,0.989-2.001,2.181
			c0,1.335,0.843,2.157,1.966,2.157c0.586,0,0.972-0.144,1.265-0.274L296.916,494.689z"/>
		<path d="M298.704,489.124l1.23,3.408c0.141,0.381,0.279,0.834,0.373,1.18h0.023c0.105-0.346,0.223-0.787,0.363-1.204l1.123-3.384
			h1.09l-1.545,4.111c-0.738,1.978-1.242,2.979-1.943,3.61c-0.515,0.441-1.006,0.62-1.264,0.668l-0.258-0.87
			c0.258-0.084,0.598-0.25,0.901-0.513c0.281-0.227,0.621-0.632,0.867-1.168c0.047-0.107,0.082-0.19,0.082-0.25
			s-0.023-0.143-0.082-0.274l-2.083-5.314H298.704z"/>
		<path d="M305.08,487.741v1.383h1.475v0.798h-1.475v3.11c0,0.715,0.199,1.12,0.771,1.12c0.281,0,0.445-0.023,0.598-0.071
			l0.047,0.799c-0.199,0.071-0.516,0.143-0.912,0.143c-0.48,0-0.867-0.167-1.113-0.44c-0.281-0.322-0.396-0.835-0.396-1.514v-3.146
			h-0.879v-0.798h0.879v-1.073L305.08,487.741z"/>
		<path d="M308.215,492.198c0.023,1.418,0.9,2.002,1.943,2.002c0.736,0,1.193-0.131,1.566-0.298l0.188,0.751
			c-0.361,0.167-0.994,0.369-1.895,0.369c-1.744,0-2.787-1.18-2.787-2.92c0-1.739,1.008-3.098,2.658-3.098
			c1.859,0,2.34,1.645,2.34,2.705c0,0.214-0.012,0.369-0.035,0.488H308.215z M311.234,491.447c0.012-0.655-0.27-1.692-1.428-1.692
			c-1.055,0-1.498,0.966-1.58,1.692H311.234z"/>
		<path d="M313.361,493.831c0.316,0.19,0.854,0.405,1.369,0.405c0.736,0,1.088-0.369,1.088-0.858c0-0.5-0.293-0.763-1.041-1.049
			c-1.029-0.381-1.51-0.941-1.51-1.633c0-0.929,0.748-1.691,1.955-1.691c0.572,0,1.076,0.154,1.381,0.357l-0.246,0.763
			c-0.223-0.144-0.633-0.346-1.158-0.346c-0.609,0-0.938,0.357-0.938,0.786c0,0.477,0.328,0.691,1.064,0.989
			c0.973,0.369,1.486,0.87,1.486,1.729c0,1.024-0.783,1.739-2.105,1.739c-0.621,0-1.193-0.167-1.592-0.405L313.361,493.831z"/>
	</g>
</g>
<g>
	<g id="XMLID_1_">
		<g>
			<path fill="#682814" d="M298.616,629.003c3.785,0.544,7.243,2.592,10.917,3.748l-39.535,7.806
				c3.792-6.445,10.02-10.488,17.374-11.485C291.306,628.536,294.683,628.429,298.616,629.003z"/>
			<path fill="#682814" d="M309.533,632.751c-3.674-1.156-7.132-3.204-10.917-3.748c-3.934-0.574-7.311-0.468-11.244,0.068
				c-7.354,0.997-13.582,5.04-17.374,11.485L309.533,632.751z M305.43,588.071l12.49,7.595c1.715-0.144,3.377-0.242,5.092-0.242
				c1.743,0,3.384,0.091,5.143,0.303c0.431,0.053,0.831,0.174,1.218,0.34c2.664,1.179,4.2,4.858,4.445,6.876
				c0.415,3.378,1.677,6.763,1.328,10.224c-0.334,3.461-0.742,7.141-2.13,10.314c-1.254,2.856-3.266,6.385-5.663,8.418
				c-2.701,2.297-5.744,3.778-8.698,5.659c-2.604,1.663-6.249,3.091-9.165,4.202c-3.185,1.216-5.611,3.399-8.483,5.229
				c-5.358,3.408-11.578,6.688-17.834,7.964c-6.026,1.225-15.096,0.869-19.526-4.292c-2.375-2.766-3.703-5.689-5.15-9.007
				c-1.314-3-2.887-6.808-3.177-10.088c-0.661-7.397-1.974-14.795-1.165-22.253c0.208-1.874-0.386-3.823-0.193-5.773
				c0.245-2.485,0.223-4.934,0.223-7.428c0-4.466-0.431-8.878-0.097-13.344c0.675-8.909,2.071-17.402-0.386-26.138l0.126,0.075
				c0.312,0.552,0.653,1.089,1.017,1.617c3.949,5.751,6.026,12.566,9.975,18.31c2.13,3.098,3.458,6.702,4.23,10.39
				c0.713,3.393,1.975,6.294,2.865,9.619L305.43,588.071z"/>
			<path fill="#682814" d="M305.43,588.071l-33.517,8.569c-0.891-3.325-2.152-6.227-2.865-9.619c-0.771-3.688-2.1-7.292-4.23-10.39
				c-3.949-5.743-6.026-12.559-9.975-18.31c-0.363-0.528-0.705-1.065-1.017-1.617l11.169,6.794c0.223,0.476,0.445,0.959,0.69,1.428
				l0.586-0.657L305.43,588.071z"/>
			<path fill="#682814" d="M286.526,541.501l-20.254,22.768l-1.277-0.771c-0.69-1.512-1.298-3.046-2.1-4.512
				c-0.965-1.768-2.167-2.75-2.724-4.798c-0.839-3.068-1.811-8.38,2.353-9.438C270.272,542.779,278.541,541.501,286.526,541.501z"/>
			<path fill="#682814" d="M266.272,564.269l-0.586,0.657c-0.245-0.469-0.468-0.952-0.69-1.428L266.272,564.269z"/>
			<path fill="#682814" d="M329.646,595.658l-14.599-10.042l10.02-2.562c0.007,0,0.021,0.007,0.029,0.015
				c3.979,2.434,4.564,8.252,4.564,12.597L329.646,595.658z"/>
			<path fill="#682814" d="M325.067,583.054l-10.02,2.562l-3.117-2.146c2.123-0.846,4.52-0.975,6.776-0.975
				C320.726,582.495,323.293,581.996,325.067,583.054z"/>
			<path fill="#682814" d="M305.43,588.071l-39.157-23.802l20.254-22.768c-7.986,0-16.254,1.277-24.002,3.249
				c-4.164,1.059-3.191,6.37-2.353,9.438c0.557,2.048,1.759,3.03,2.724,4.798c0.802,1.466,1.41,3,2.1,4.512l-11.169-6.794
				c-3.362-5.833-3.978-12.846,1.796-17.395c2.435-1.927,5.024-3.174,8.847-3.635c1.759-0.211,3.496,0.461,5.262,0.461
				c1.7,0,4.379-0.649,6.019-0.732c3.117-0.151,5.262-0.242,8.423-0.242c2.419,0,6.249,1.035,8.016,2.834
				c2.189,2.229,4.297,4.314,6.323,6.68c1.001,1.171,2.189,2.199,3.333,3.219c1.231,1.088,1.967,2.675,3.14,3.854
				c2.204,2.26,4.92,4.043,7.132,6.295c2.315,2.357,4.342,4.889,6.175,7.7c1.752,2.667,3.117,5.728,4.424,8.651
				c1.083,2.434,2.411,5.947,2.634,8.584l-0.281,0.076c-1.774-1.059-4.342-0.56-6.36-0.56c-2.257,0-4.653,0.129-6.776,0.975
				l3.117,2.146L305.43,588.071z"/>
			<path fill="#682814" d="M317.92,595.666l-12.49-7.595l9.618-2.455l14.599,10.042l-0.274,0.408
				c-0.387-0.166-0.787-0.287-1.218-0.34c-1.759-0.212-3.399-0.303-5.143-0.303C321.297,595.423,319.635,595.522,317.92,595.666z"/>
		</g>
		<g>
			<path fill="none" stroke="#010101" d="M325.349,582.978c-0.223-2.637-1.551-6.15-2.634-8.584
				c-1.307-2.924-2.672-5.984-4.424-8.651c-1.833-2.812-3.859-5.343-6.175-7.7c-2.212-2.252-4.928-4.035-7.132-6.295
				c-1.173-1.179-1.908-2.766-3.14-3.854c-1.144-1.02-2.331-2.048-3.333-3.219c-2.026-2.365-4.134-4.45-6.323-6.68
				c-1.767-1.799-5.596-2.834-8.016-2.834c-3.162,0-5.306,0.091-8.423,0.242c-1.64,0.083-4.319,0.732-6.019,0.732
				c-1.767,0-3.503-0.672-5.262-0.461c-3.822,0.461-6.412,1.708-8.847,3.635c-5.774,4.549-5.158,11.562-1.796,17.395"/>
			<path fill="none" stroke="#010101" d="M311.931,583.469c2.123-0.846,4.52-0.975,6.776-0.975c2.019,0,4.586-0.499,6.36,0.56
				c0.007,0,0.021,0.007,0.029,0.015c3.979,2.434,4.564,8.252,4.564,12.597"/>
			<path fill="none" stroke="#010101" d="M317.92,595.666c1.715-0.144,3.377-0.242,5.092-0.242c1.743,0,3.384,0.091,5.143,0.303
				c0.431,0.053,0.831,0.174,1.218,0.34c2.664,1.179,4.2,4.858,4.445,6.876c0.415,3.378,1.677,6.763,1.328,10.224
				c-0.334,3.461-0.742,7.141-2.13,10.314c-1.254,2.856-3.266,6.385-5.663,8.418c-2.701,2.297-5.744,3.778-8.698,5.659
				c-2.604,1.663-6.249,3.091-9.165,4.202c-3.185,1.216-5.611,3.399-8.483,5.229c-5.358,3.408-11.578,6.688-17.834,7.964
				c-6.026,1.225-15.096,0.869-19.526-4.292c-2.375-2.766-3.703-5.689-5.15-9.007c-1.314-3-2.887-6.808-3.177-10.088
				c-0.661-7.397-1.974-14.795-1.165-22.253c0.208-1.874-0.386-3.823-0.193-5.773c0.245-2.485,0.223-4.934,0.223-7.428
				c0-4.466-0.431-8.878-0.097-13.344c0.675-8.909,2.071-17.402-0.386-26.138"/>
			<path fill="none" stroke="#010101" d="M286.526,541.501c-7.986,0-16.254,1.277-24.002,3.249c-4.164,1.059-3.191,6.37-2.353,9.438
				c0.557,2.048,1.759,3.03,2.724,4.798c0.802,1.466,1.41,3,2.1,4.512c0.223,0.476,0.445,0.959,0.69,1.428"/>
			<path fill="none" stroke="#010101" d="M269.998,640.557c3.792-6.445,10.02-10.488,17.374-11.485
				c3.934-0.536,7.311-0.643,11.244-0.068c3.785,0.544,7.243,2.592,10.917,3.748"/>
		</g>
	</g>
</g>
<g>
	<path d="M398.788,369.545h0.022c0.141-0.203,0.328-0.453,0.492-0.655l1.674-1.99h1.229l-2.177,2.371l2.493,3.396h-1.265
		l-1.942-2.765l-0.526,0.596v2.169h-1.019v-8.461h1.019V369.545z"/>
	<path d="M402.928,372.667v-0.644l0.808-0.799c1.943-1.883,2.832-2.884,2.832-4.052c0-0.786-0.362-1.513-1.498-1.513
		c-0.69,0-1.264,0.357-1.614,0.655l-0.328-0.739c0.515-0.44,1.275-0.786,2.142-0.786c1.639,0,2.329,1.144,2.329,2.252
		c0,1.431-1.019,2.586-2.621,4.159l-0.598,0.572v0.023h3.406v0.87H402.928z"/>
	<path d="M379.591,382.752c0-0.607-0.023-1.084-0.047-1.561h0.901l0.047,0.941h0.035c0.315-0.549,0.842-1.061,1.79-1.061
		c0.761,0,1.346,0.477,1.592,1.155h0.023c0.176-0.333,0.41-0.571,0.644-0.75c0.34-0.263,0.702-0.405,1.241-0.405
		c0.761,0,1.872,0.5,1.872,2.502v3.385h-1.007v-3.253c0-1.121-0.409-1.776-1.229-1.776c-0.597,0-1.042,0.441-1.229,0.941
		c-0.047,0.155-0.082,0.334-0.082,0.524v3.563h-1.007v-3.456c0-0.918-0.397-1.573-1.182-1.573c-0.632,0-1.112,0.524-1.276,1.049
		c-0.059,0.144-0.081,0.334-0.081,0.513v3.468h-1.007V382.752z"/>
	<path d="M390.493,379.571c0,0.357-0.245,0.644-0.655,0.644c-0.374,0-0.62-0.286-0.62-0.644s0.258-0.655,0.644-0.655
		C390.236,378.916,390.493,379.202,390.493,379.571z M389.347,386.959v-5.768h1.029v5.768H389.347z"/>
	<path d="M396.929,386.114c0,1.334-0.269,2.133-0.808,2.646c-0.562,0.512-1.357,0.69-2.071,0.69c-0.679,0-1.428-0.166-1.884-0.477
		l0.257-0.81c0.375,0.25,0.96,0.464,1.662,0.464c1.054,0,1.826-0.56,1.826-2.025v-0.632h-0.023
		c-0.305,0.536-0.925,0.966-1.803,0.966c-1.404,0-2.411-1.216-2.411-2.812c0-1.955,1.253-3.051,2.563-3.051
		c0.983,0,1.51,0.512,1.768,0.989h0.023l0.035-0.87h0.912c-0.035,0.405-0.047,0.882-0.047,1.572V386.114z M395.899,383.467
		c0-0.179-0.012-0.333-0.059-0.464c-0.188-0.62-0.679-1.121-1.439-1.121c-0.983,0-1.686,0.847-1.686,2.182
		c0,1.132,0.573,2.073,1.674,2.073c0.644,0,1.217-0.405,1.428-1.072c0.059-0.179,0.082-0.382,0.082-0.561V383.467z"/>
	<path d="M398.553,382.991c0-0.679-0.012-1.263-0.047-1.799h0.901l0.047,1.144h0.035c0.257-0.774,0.889-1.263,1.58-1.263
		c0.104,0,0.187,0.012,0.28,0.023v0.989c-0.105-0.023-0.211-0.023-0.351-0.023c-0.726,0-1.241,0.548-1.382,1.334
		c-0.023,0.144-0.035,0.322-0.035,0.489v3.074h-1.029V382.991z"/>
	<path d="M406.299,385.577c0,0.501,0.023,0.989,0.081,1.383h-0.924l-0.082-0.727h-0.035c-0.316,0.452-0.925,0.857-1.732,0.857
		c-1.146,0-1.732-0.822-1.732-1.656c0-1.395,1.218-2.157,3.406-2.146v-0.119c0-0.465-0.129-1.334-1.287-1.322
		c-0.539,0-1.089,0.155-1.486,0.429l-0.234-0.703c0.468-0.298,1.158-0.5,1.872-0.5c1.732,0,2.154,1.203,2.154,2.348V385.577z
		 M405.304,384.016c-1.124-0.024-2.399,0.179-2.399,1.299c0,0.691,0.444,1.001,0.96,1.001c0.749,0,1.229-0.477,1.393-0.965
		c0.035-0.119,0.047-0.238,0.047-0.334V384.016z"/>
	<path d="M409.151,379.809v1.383h1.475v0.798h-1.475v3.11c0,0.715,0.199,1.12,0.772,1.12c0.281,0,0.445-0.023,0.597-0.071
		l0.047,0.799c-0.198,0.071-0.515,0.143-0.912,0.143c-0.48,0-0.866-0.167-1.112-0.44c-0.281-0.322-0.397-0.835-0.397-1.514v-3.146
		h-0.878v-0.798h0.878v-1.073L409.151,379.809z"/>
	<path d="M412.93,379.571c0,0.357-0.245,0.644-0.655,0.644c-0.374,0-0.62-0.286-0.62-0.644s0.258-0.655,0.644-0.655
		C412.673,378.916,412.93,379.202,412.93,379.571z M411.783,386.959v-5.768h1.029v5.768H411.783z"/>
	<path d="M419.646,384.028c0,2.133-1.463,3.062-2.82,3.062c-1.521,0-2.716-1.144-2.716-2.967c0-1.919,1.253-3.051,2.81-3.051
		C418.546,381.073,419.646,382.276,419.646,384.028z M415.164,384.087c0,1.264,0.702,2.217,1.709,2.217
		c0.982,0,1.72-0.941,1.72-2.24c0-0.978-0.479-2.205-1.696-2.205C415.69,381.859,415.164,383.003,415.164,384.087z"/>
	<path d="M420.942,382.752c0-0.607-0.012-1.084-0.047-1.561h0.913l0.059,0.953h0.023c0.28-0.536,0.936-1.072,1.872-1.072
		c0.784,0,2.001,0.477,2.001,2.455v3.432h-1.029v-3.325c0-0.93-0.34-1.704-1.311-1.704c-0.668,0-1.194,0.489-1.382,1.073
		c-0.047,0.131-0.07,0.31-0.07,0.488v3.468h-1.029V382.752z"/>
	<path d="M381.177,394.102v1.383h1.475v0.798h-1.475v3.11c0,0.715,0.199,1.12,0.772,1.12c0.281,0,0.445-0.023,0.597-0.071
		l0.047,0.799c-0.198,0.071-0.515,0.143-0.912,0.143c-0.48,0-0.866-0.167-1.112-0.44c-0.281-0.322-0.397-0.835-0.397-1.514v-3.146
		h-0.878v-0.798h0.878v-1.073L381.177,394.102z"/>
	<path d="M388.864,398.321c0,2.133-1.463,3.062-2.82,3.062c-1.521,0-2.716-1.144-2.716-2.967c0-1.919,1.253-3.051,2.81-3.051
		C387.764,395.366,388.864,396.569,388.864,398.321z M384.382,398.38c0,1.264,0.702,2.217,1.709,2.217c0.982,0,1.72-0.941,1.72-2.24
		c0-0.978-0.479-2.205-1.696-2.205C384.908,396.152,384.382,397.296,384.382,398.38z"/>
	<path d="M393.049,395.485l0.761,2.932c0.152,0.644,0.305,1.239,0.41,1.835h0.035c0.129-0.584,0.315-1.204,0.503-1.823l0.925-2.943
		h0.866l0.877,2.884c0.211,0.691,0.375,1.299,0.504,1.883h0.035c0.094-0.584,0.245-1.191,0.433-1.871l0.808-2.896h1.019
		l-1.826,5.768h-0.937l-0.865-2.753c-0.199-0.644-0.363-1.216-0.504-1.895h-0.023c-0.141,0.691-0.315,1.287-0.515,1.906
		l-0.913,2.741h-0.937l-1.708-5.768H393.049z"/>
	<path d="M406.258,398.321c0,2.133-1.463,3.062-2.82,3.062c-1.521,0-2.716-1.144-2.716-2.967c0-1.919,1.253-3.051,2.81-3.051
		C405.157,395.366,406.258,396.569,406.258,398.321z M401.775,398.38c0,1.264,0.702,2.217,1.709,2.217c0.982,0,1.72-0.941,1.72-2.24
		c0-0.978-0.479-2.205-1.696-2.205C402.302,396.152,401.775,397.296,401.775,398.38z"/>
	<path d="M412.294,399.667c0,0.607,0.012,1.132,0.046,1.585h-0.912l-0.059-0.941h-0.023c-0.258,0.465-0.866,1.072-1.873,1.072
		c-0.89,0-1.954-0.512-1.954-2.526v-3.372h1.03v3.182c0,1.097,0.339,1.847,1.264,1.847c0.69,0,1.17-0.488,1.357-0.965
		c0.059-0.143,0.094-0.334,0.094-0.536v-3.527h1.03V399.667z"/>
	<path d="M413.999,397.045c0-0.607-0.012-1.084-0.047-1.561h0.913l0.059,0.953h0.023c0.28-0.536,0.936-1.072,1.872-1.072
		c0.784,0,2.001,0.477,2.001,2.455v3.432h-1.029v-3.325c0-0.93-0.34-1.704-1.311-1.704c-0.668,0-1.194,0.489-1.382,1.073
		c-0.047,0.131-0.07,0.31-0.07,0.488v3.468h-1.029V397.045z"/>
	<path d="M425.371,392.792v6.972c0,0.512,0.023,1.096,0.047,1.489h-0.913l-0.046-1.001h-0.035c-0.305,0.644-0.983,1.132-1.908,1.132
		c-1.369,0-2.435-1.18-2.435-2.932c-0.012-1.918,1.171-3.086,2.54-3.086c0.878,0,1.451,0.417,1.709,0.869h0.023v-3.443H425.371z
		 M424.354,397.833c0-0.132-0.012-0.311-0.047-0.441c-0.152-0.655-0.714-1.203-1.486-1.203c-1.065,0-1.697,0.953-1.697,2.216
		c0,1.168,0.573,2.134,1.674,2.134c0.69,0,1.322-0.477,1.51-1.252c0.035-0.143,0.047-0.285,0.047-0.452V397.833z"/>
</g>
<g>
	<path d="M87.292,429.656h0.023c0.141-0.203,0.328-0.453,0.492-0.655l1.673-1.99h1.229l-2.177,2.371l2.493,3.396h-1.264
		l-1.942-2.765l-0.527,0.596v2.169h-1.018v-8.461h1.018V429.656z"/>
	<path d="M91.678,431.586c0.292,0.179,0.959,0.477,1.685,0.477c1.311,0,1.732-0.847,1.721-1.502
		c-0.012-1.084-0.972-1.549-1.966-1.549h-0.573v-0.787h0.573c0.749,0,1.697-0.393,1.697-1.311c0-0.62-0.386-1.168-1.334-1.168
		c-0.608,0-1.194,0.274-1.521,0.513l-0.281-0.763c0.41-0.298,1.182-0.596,2.001-0.596c1.498,0,2.177,0.905,2.177,1.847
		c0,0.811-0.48,1.49-1.404,1.836v0.023c0.936,0.179,1.685,0.894,1.697,1.979c0,1.239-0.959,2.323-2.774,2.323
		c-0.854,0-1.603-0.273-1.978-0.524L91.678,431.586z"/>
	<path d="M68.96,443.101c0-0.679-0.012-1.263-0.047-1.799h0.901l0.047,1.144h0.035c0.258-0.774,0.89-1.263,1.58-1.263
		c0.105,0,0.187,0.012,0.281,0.023v0.989c-0.105-0.023-0.21-0.023-0.351-0.023c-0.726,0-1.241,0.548-1.381,1.334
		c-0.023,0.144-0.035,0.322-0.035,0.489v3.074h-1.03V443.101z"/>
	<path d="M73.242,444.376c0.023,1.418,0.901,2.002,1.943,2.002c0.737,0,1.194-0.131,1.568-0.298l0.187,0.751
		c-0.363,0.167-0.995,0.369-1.896,0.369c-1.744,0-2.785-1.18-2.785-2.92c0-1.739,1.006-3.098,2.657-3.098
		c1.861,0,2.34,1.645,2.34,2.705c0,0.214-0.012,0.369-0.035,0.488H73.242z M76.261,443.625c0.012-0.655-0.269-1.692-1.428-1.692
		c-1.053,0-1.498,0.966-1.58,1.692H76.261z"/>
	<path d="M78.529,442.863c0-0.607-0.023-1.084-0.047-1.561h0.901l0.047,0.941h0.035c0.316-0.549,0.843-1.061,1.791-1.061
		c0.761,0,1.346,0.477,1.592,1.155h0.023c0.176-0.333,0.41-0.571,0.644-0.75c0.34-0.263,0.703-0.405,1.241-0.405
		c0.761,0,1.873,0.5,1.873,2.502v3.385h-1.006v-3.253c0-1.121-0.41-1.776-1.229-1.776c-0.597,0-1.042,0.441-1.229,0.941
		c-0.047,0.155-0.082,0.334-0.082,0.524v3.563h-1.007v-3.456c0-0.918-0.398-1.573-1.182-1.573c-0.632,0-1.112,0.524-1.275,1.049
		c-0.059,0.144-0.082,0.334-0.082,0.513v3.468h-1.006V442.863z"/>
	<path d="M93.412,444.138c0,2.133-1.463,3.062-2.82,3.062c-1.521,0-2.715-1.144-2.715-2.967c0-1.919,1.252-3.051,2.809-3.051
		C92.312,441.183,93.412,442.386,93.412,444.138z M88.929,444.198c0,1.264,0.702,2.217,1.708,2.217c0.983,0,1.721-0.941,1.721-2.24
		c0-0.978-0.48-2.205-1.697-2.205C89.456,441.969,88.929,443.114,88.929,444.198z"/>
	<path d="M95.024,441.302l1.112,3.229c0.187,0.536,0.339,1.013,0.456,1.489h0.035c0.129-0.477,0.293-0.953,0.48-1.489l1.1-3.229
		h1.077l-2.224,5.768h-0.983l-2.153-5.768H95.024z"/>
	<path d="M100.709,444.376c0.023,1.418,0.901,2.002,1.943,2.002c0.737,0,1.194-0.131,1.568-0.298l0.187,0.751
		c-0.363,0.167-0.995,0.369-1.896,0.369c-1.744,0-2.785-1.18-2.785-2.92c0-1.739,1.006-3.098,2.657-3.098
		c1.861,0,2.34,1.645,2.34,2.705c0,0.214-0.011,0.369-0.035,0.488H100.709z M103.729,443.625c0.012-0.655-0.269-1.692-1.428-1.692
		c-1.053,0-1.498,0.966-1.58,1.692H103.729z"/>
	<path d="M110.877,438.609v6.972c0,0.512,0.023,1.096,0.047,1.489h-0.913l-0.047-1.001h-0.035c-0.304,0.644-0.983,1.132-1.908,1.132
		c-1.369,0-2.434-1.18-2.434-2.932c-0.012-1.918,1.17-3.086,2.54-3.086c0.878,0,1.451,0.417,1.708,0.869h0.023v-3.443H110.877z
		 M109.858,443.65c0-0.132-0.012-0.311-0.046-0.441c-0.152-0.655-0.714-1.203-1.487-1.203c-1.065,0-1.697,0.953-1.697,2.216
		c0,1.168,0.574,2.134,1.674,2.134c0.69,0,1.322-0.477,1.51-1.252c0.035-0.143,0.046-0.285,0.046-0.452V443.65z"/>
	<path d="M70.774,454.212v1.383h1.475v0.798h-1.475v3.11c0,0.715,0.199,1.12,0.772,1.12c0.281,0,0.445-0.023,0.597-0.071
		l0.047,0.799c-0.199,0.071-0.515,0.143-0.913,0.143c-0.48,0-0.866-0.167-1.112-0.44c-0.281-0.322-0.398-0.835-0.398-1.514v-3.146
		H68.89v-0.798h0.878v-1.073L70.774,454.212z"/>
	<path d="M78.461,458.431c0,2.133-1.463,3.062-2.82,3.062c-1.521,0-2.715-1.144-2.715-2.967c0-1.919,1.252-3.051,2.809-3.051
		C77.361,455.476,78.461,456.679,78.461,458.431z M73.979,458.491c0,1.264,0.702,2.217,1.708,2.217c0.983,0,1.721-0.941,1.721-2.24
		c0-0.978-0.48-2.205-1.697-2.205C74.506,456.262,73.979,457.407,73.979,458.491z"/>
	<path d="M82.097,460.302c0.316,0.19,0.854,0.405,1.369,0.405c0.737,0,1.089-0.369,1.089-0.858c0-0.5-0.293-0.763-1.042-1.049
		c-1.03-0.381-1.51-0.941-1.51-1.633c0-0.929,0.749-1.691,1.955-1.691c0.574,0,1.077,0.154,1.381,0.357l-0.246,0.763
		c-0.222-0.144-0.632-0.346-1.159-0.346c-0.608,0-0.936,0.357-0.936,0.786c0,0.477,0.328,0.691,1.065,0.989
		c0.971,0.369,1.486,0.87,1.486,1.729c0,1.024-0.784,1.739-2.106,1.739c-0.621,0-1.194-0.167-1.592-0.405L82.097,460.302z"/>
	<path d="M86.87,457.478c0-0.739-0.023-1.335-0.047-1.883h0.913l0.059,0.989h0.023c0.41-0.703,1.088-1.108,2.013-1.108
		c1.381,0,2.411,1.18,2.411,2.919c0,2.074-1.252,3.099-2.586,3.099c-0.749,0-1.404-0.333-1.744-0.905h-0.023v3.134H86.87V457.478z
		 M87.888,459.015c0,0.155,0.012,0.298,0.047,0.429c0.187,0.728,0.808,1.228,1.545,1.228c1.088,0,1.72-0.905,1.72-2.229
		c0-1.144-0.597-2.133-1.685-2.133c-0.702,0-1.37,0.5-1.557,1.287c-0.035,0.131-0.07,0.286-0.07,0.417V459.015z"/>
	<path d="M93.526,452.902h1.03v8.461h-1.03V452.902z"/>
	<path d="M96.86,458.669c0.023,1.418,0.901,2.002,1.943,2.002c0.737,0,1.194-0.131,1.568-0.298l0.187,0.751
		c-0.363,0.167-0.995,0.369-1.896,0.369c-1.744,0-2.785-1.18-2.785-2.92c0-1.739,1.006-3.098,2.657-3.098
		c1.861,0,2.34,1.645,2.34,2.705c0,0.214-0.011,0.369-0.035,0.488H96.86z M99.88,457.918c0.012-0.655-0.269-1.692-1.428-1.692
		c-1.053,0-1.498,0.966-1.58,1.692H99.88z"/>
	<path d="M102.721,458.669c0.023,1.418,0.901,2.002,1.943,2.002c0.737,0,1.194-0.131,1.568-0.298l0.187,0.751
		c-0.363,0.167-0.995,0.369-1.896,0.369c-1.744,0-2.785-1.18-2.785-2.92c0-1.739,1.006-3.098,2.657-3.098
		c1.861,0,2.34,1.645,2.34,2.705c0,0.214-0.012,0.369-0.035,0.488H102.721z M105.741,457.918c0.012-0.655-0.269-1.692-1.428-1.692
		c-1.053,0-1.498,0.966-1.58,1.692H105.741z"/>
	<path d="M108.009,457.156c0-0.607-0.012-1.084-0.047-1.561h0.913l0.059,0.953h0.023c0.281-0.536,0.937-1.072,1.873-1.072
		c0.784,0,2.001,0.477,2.001,2.455v3.432h-1.03v-3.325c0-0.93-0.34-1.704-1.311-1.704c-0.667,0-1.194,0.489-1.381,1.073
		c-0.047,0.131-0.07,0.31-0.07,0.488v3.468h-1.03V457.156z"/>
</g>
<g>
	<ellipse fill="#EF3A40" stroke="#231F20" cx="143.663" cy="156.647" rx="12.811" ry="7.852"/>
	<ellipse fill="#EF3A40" stroke="#231F20" cx="95.165" cy="107.765" rx="12.811" ry="7.851"/>
	<ellipse fill="#EF3A40" stroke="#231F20" cx="176.321" cy="122.901" rx="12.81" ry="7.852"/>
	<ellipse fill="#EF3A40" stroke="#231F20" cx="92.24" cy="152.181" rx="12.81" ry="7.851"/>
	<ellipse fill="#EF3A40" stroke="#231F20" cx="125.629" cy="97.592" rx="12.81" ry="7.851"/>
	<ellipse fill="#EF3A40" stroke="#231F20" cx="121.973" cy="118.931" rx="12.81" ry="7.851"/>
	<ellipse fill="#EF3A40" stroke="#231F20" cx="151.462" cy="111.735" rx="12.811" ry="7.852"/>
	<ellipse fill="#EF3A40" stroke="#231F20" cx="148.781" cy="135.059" rx="12.81" ry="7.852"/>
	<ellipse fill="#EF3A40" stroke="#231F20" cx="119.048" cy="142.504" rx="12.81" ry="7.851"/>
	<ellipse fill="#EF3A40" stroke="#231F20" cx="93.215" cy="130.097" rx="12.81" ry="7.851"/>
	<ellipse fill="#EF3A40" stroke="#231F20" cx="69.087" cy="116.698" rx="12.81" ry="7.852"/>
	<ellipse fill="#EF3A40" stroke="#231F20" cx="101.014" cy="86.426" rx="12.81" ry="7.851"/>
	<ellipse fill="#EF3A40" stroke="#231F20" cx="155.118" cy="92.381" rx="12.81" ry="7.851"/>
	<ellipse fill="#EF3A40" stroke="#231F20" cx="70.956" cy="92.958" rx="12.81" ry="7.853"/>
	<ellipse fill="#EF3A40" stroke="#231F20" cx="64.782" cy="140.27" rx="12.81" ry="7.852"/>
	<ellipse fill="#EF3A40" stroke="#231F20" cx="179.489" cy="147.879" rx="12.81" ry="7.852"/>
	<ellipse fill="#EF3A40" stroke="#231F20" cx="181.113" cy="103.215" rx="12.81" ry="7.852"/>
</g>
<g>
	<g>
		<path d="M156.838,172.054c-0.468,0.008-0.777,0.079-0.925,0.215s-0.223,0.394-0.223,0.773v0.064
			c1.085,0.038,1.932,0.288,2.539,0.75c0.607,0.461,0.911,1.084,0.911,1.866c0,0.737-0.306,1.339-0.919,1.807
			c-0.613,0.467-1.457,0.739-2.53,0.816v0.128c0,0.36,0.08,0.61,0.24,0.748c0.16,0.137,0.463,0.21,0.908,0.218v0.238h-3.524v-0.238
			c0.453-0.008,0.76-0.082,0.92-0.224c0.16-0.142,0.24-0.4,0.24-0.776v-0.094c-1.078-0.077-1.924-0.35-2.539-0.816
			c-0.615-0.468-0.922-1.069-0.922-1.807c0-0.779,0.305-1.4,0.914-1.863c0.609-0.464,1.458-0.715,2.547-0.753v-0.064
			c0-0.384-0.074-0.643-0.223-0.776s-0.461-0.204-0.937-0.212v-0.238h3.524V172.054z M154.473,173.403
			c-0.701,0.07-1.225,0.299-1.574,0.687c-0.348,0.388-0.522,0.937-0.522,1.646c0,0.714,0.174,1.263,0.522,1.646
			c0.349,0.384,0.873,0.604,1.574,0.663V173.403z M155.69,173.403v4.642c0.689-0.051,1.208-0.27,1.557-0.657
			c0.348-0.388,0.522-0.938,0.522-1.652c0-0.709-0.172-1.258-0.517-1.646S156.387,173.473,155.69,173.403z"/>
		<path d="M161.447,171.646v8.032h-1.03v-8.032H161.447z"/>
	</g>
	<g>
		<path d="M130.201,191.967V200h-1.03v-8.032H130.201z"/>
		<path d="M132.06,195.792c0-0.607-0.012-1.084-0.047-1.561h0.913l0.059,0.953h0.023c0.281-0.536,0.937-1.072,1.873-1.072
			c0.784,0,2.001,0.477,2.001,2.455V200h-1.03v-3.325c0-0.93-0.34-1.704-1.311-1.704c-0.667,0-1.194,0.489-1.381,1.073
			c-0.047,0.131-0.07,0.31-0.07,0.488V200h-1.03V195.792z"/>
		<path d="M138.658,200v-4.97h-0.784v-0.798h0.784v-0.251c0-0.81,0.27-1.525,0.796-1.989c0.445-0.382,1.03-0.584,1.826-0.584
			c0.656,0,1.264,0.143,1.697,0.381V200h-1.03v-7.627c-0.176-0.096-0.445-0.155-0.843-0.155c-1.065,0-1.428,0.799-1.428,1.717v0.298
			h1.322v0.798h-1.322V200H138.658z"/>
		<path d="M148.65,198.617c0,0.501,0.023,0.989,0.082,1.383h-0.925l-0.082-0.727h-0.035c-0.316,0.452-0.925,0.857-1.732,0.857
			c-1.147,0-1.732-0.822-1.732-1.656c0-1.395,1.217-2.157,3.406-2.146v-0.119c0-0.465-0.129-1.334-1.288-1.322
			c-0.538,0-1.088,0.155-1.486,0.429l-0.234-0.703c0.468-0.298,1.159-0.5,1.873-0.5c1.732,0,2.153,1.203,2.153,2.348V198.617z
			 M147.655,197.056c-1.124-0.024-2.399,0.179-2.399,1.299c0,0.691,0.445,1.001,0.96,1.001c0.749,0,1.229-0.477,1.393-0.965
			c0.035-0.119,0.047-0.238,0.047-0.334V197.056z"/>
		<path d="M150.309,195.792c0-0.607-0.023-1.084-0.047-1.561h0.901l0.047,0.941h0.035c0.316-0.549,0.843-1.061,1.791-1.061
			c0.761,0,1.346,0.477,1.592,1.155h0.023c0.176-0.333,0.41-0.571,0.644-0.75c0.34-0.263,0.703-0.405,1.241-0.405
			c0.761,0,1.873,0.5,1.873,2.502V200h-1.006v-3.253c0-1.121-0.41-1.776-1.229-1.776c-0.597,0-1.042,0.441-1.229,0.941
			c-0.047,0.155-0.082,0.334-0.082,0.524V200h-1.007v-3.456c0-0.918-0.398-1.573-1.182-1.573c-0.632,0-1.112,0.524-1.275,1.049
			c-0.059,0.144-0.082,0.334-0.082,0.513V200h-1.006V195.792z"/>
		<path d="M164.044,198.617c0,0.501,0.023,0.989,0.082,1.383h-0.925l-0.082-0.727h-0.035c-0.316,0.452-0.925,0.857-1.732,0.857
			c-1.147,0-1.732-0.822-1.732-1.656c0-1.395,1.217-2.157,3.406-2.146v-0.119c0-0.465-0.129-1.334-1.288-1.322
			c-0.538,0-1.088,0.155-1.486,0.429l-0.234-0.703c0.468-0.298,1.159-0.5,1.873-0.5c1.732,0,2.153,1.203,2.153,2.348V198.617z
			 M163.05,197.056c-1.124-0.024-2.399,0.179-2.399,1.299c0,0.691,0.445,1.001,0.96,1.001c0.749,0,1.229-0.477,1.393-0.965
			c0.035-0.119,0.047-0.238,0.047-0.334V197.056z"/>
		<path d="M166.897,192.849v1.383h1.475v0.798h-1.475v3.11c0,0.715,0.199,1.12,0.772,1.12c0.281,0,0.445-0.023,0.597-0.071
			l0.047,0.799c-0.199,0.071-0.515,0.143-0.913,0.143c-0.48,0-0.866-0.167-1.112-0.44c-0.281-0.322-0.398-0.835-0.398-1.514v-3.146
			h-0.878v-0.798h0.878v-1.073L166.897,192.849z"/>
		<path d="M174.585,197.068c0,2.133-1.463,3.062-2.82,3.062c-1.521,0-2.715-1.144-2.715-2.967c0-1.919,1.252-3.051,2.809-3.051
			C173.485,194.113,174.585,195.316,174.585,197.068z M170.103,197.127c0,1.264,0.702,2.217,1.708,2.217
			c0.983,0,1.721-0.941,1.721-2.24c0-0.978-0.48-2.205-1.697-2.205C170.629,194.899,170.103,196.043,170.103,197.127z"/>
		<path d="M175.881,196.031c0-0.679-0.012-1.263-0.047-1.799h0.901l0.047,1.144h0.035c0.258-0.774,0.89-1.263,1.58-1.263
			c0.105,0,0.187,0.012,0.281,0.023v0.989c-0.105-0.023-0.21-0.023-0.351-0.023c-0.726,0-1.241,0.548-1.381,1.334
			c-0.023,0.144-0.035,0.322-0.035,0.489V200h-1.03V196.031z"/>
		<path d="M180.374,194.232l1.229,3.408c0.141,0.381,0.281,0.834,0.375,1.18H182c0.105-0.346,0.223-0.787,0.363-1.204l1.124-3.384
			h1.088l-1.544,4.111c-0.737,1.978-1.241,2.979-1.943,3.61c-0.515,0.441-1.007,0.62-1.264,0.668l-0.257-0.87
			c0.257-0.084,0.597-0.25,0.901-0.513c0.281-0.227,0.621-0.632,0.866-1.168c0.047-0.107,0.082-0.19,0.082-0.25
			s-0.023-0.143-0.082-0.274l-2.083-5.314H180.374z"/>
		<path d="M124.035,210.084c0-0.607-0.023-1.084-0.047-1.561h0.901l0.047,0.941h0.035c0.316-0.549,0.843-1.061,1.791-1.061
			c0.761,0,1.346,0.477,1.592,1.155h0.023c0.176-0.333,0.41-0.571,0.644-0.75c0.339-0.263,0.703-0.405,1.241-0.405
			c0.761,0,1.873,0.5,1.873,2.502v3.385h-1.006v-3.253c0-1.121-0.41-1.776-1.229-1.776c-0.597,0-1.042,0.441-1.229,0.941
			c-0.047,0.155-0.082,0.334-0.082,0.524v3.563h-1.007v-3.456c0-0.918-0.398-1.573-1.182-1.573c-0.632,0-1.112,0.524-1.275,1.049
			c-0.059,0.144-0.082,0.334-0.082,0.513v3.468h-1.006V210.084z"/>
		<path d="M137.771,212.909c0,0.501,0.023,0.989,0.082,1.383h-0.925l-0.082-0.727h-0.035c-0.316,0.452-0.925,0.857-1.732,0.857
			c-1.147,0-1.732-0.822-1.732-1.656c0-1.395,1.217-2.157,3.406-2.146v-0.119c0-0.465-0.129-1.334-1.288-1.322
			c-0.538,0-1.088,0.154-1.486,0.429l-0.234-0.703c0.468-0.298,1.159-0.5,1.873-0.5c1.732,0,2.153,1.203,2.153,2.348V212.909z
			 M136.776,211.348c-1.124-0.024-2.399,0.179-2.399,1.299c0,0.691,0.445,1.001,0.96,1.001c0.749,0,1.229-0.477,1.393-0.965
			c0.035-0.119,0.047-0.238,0.047-0.334V211.348z"/>
		<path d="M143.468,214.089c-0.269,0.131-0.866,0.333-1.627,0.333c-1.708,0-2.82-1.18-2.82-2.943c0-1.775,1.194-3.074,3.043-3.074
			c0.608,0,1.147,0.154,1.428,0.31l-0.234,0.799c-0.246-0.132-0.632-0.274-1.194-0.274c-1.299,0-2.001,0.989-2.001,2.181
			c0,1.335,0.843,2.157,1.966,2.157c0.585,0,0.971-0.144,1.264-0.274L143.468,214.089z"/>
		<path d="M144.671,210.323c0-0.679-0.012-1.263-0.047-1.799h0.901l0.047,1.144h0.035c0.258-0.774,0.89-1.263,1.58-1.263
			c0.105,0,0.188,0.012,0.281,0.023v0.989c-0.105-0.023-0.21-0.023-0.351-0.023c-0.726,0-1.24,0.548-1.381,1.334
			c-0.023,0.144-0.035,0.322-0.035,0.489v3.074h-1.03V210.323z"/>
		<path d="M153.505,211.36c0,2.133-1.463,3.062-2.82,3.062c-1.521,0-2.715-1.144-2.715-2.967c0-1.919,1.252-3.051,2.809-3.051
			C152.405,208.405,153.505,209.608,153.505,211.36z M149.022,211.419c0,1.264,0.702,2.217,1.708,2.217
			c0.983,0,1.721-0.941,1.721-2.24c0-0.978-0.48-2.205-1.697-2.205C149.549,209.191,149.022,210.335,149.022,211.419z"/>
		<path d="M154.801,210.407c0-0.739-0.023-1.335-0.047-1.883h0.913l0.059,0.989h0.023c0.41-0.703,1.088-1.108,2.013-1.108
			c1.381,0,2.411,1.18,2.411,2.919c0,2.074-1.252,3.099-2.586,3.099c-0.749,0-1.404-0.333-1.744-0.905h-0.023v3.134h-1.018V210.407z
			 M155.819,211.944c0,0.155,0.012,0.298,0.047,0.429c0.187,0.728,0.808,1.228,1.545,1.228c1.088,0,1.72-0.905,1.72-2.229
			c0-1.144-0.597-2.133-1.685-2.133c-0.702,0-1.37,0.5-1.557,1.287c-0.035,0.131-0.07,0.286-0.07,0.417V211.944z"/>
		<path d="M161.458,205.831h1.03v3.61h0.023c0.164-0.298,0.421-0.571,0.737-0.75c0.304-0.18,0.667-0.286,1.053-0.286
			c0.761,0,1.978,0.477,1.978,2.454v3.433h-1.03v-3.312c0-0.93-0.34-1.705-1.311-1.705c-0.667,0-1.182,0.478-1.381,1.037
			c-0.059,0.155-0.07,0.31-0.07,0.501v3.479h-1.03V205.831z"/>
		<path d="M171.929,212.909c0,0.501,0.023,0.989,0.082,1.383h-0.925l-0.082-0.727h-0.035c-0.316,0.452-0.925,0.857-1.732,0.857
			c-1.147,0-1.732-0.822-1.732-1.656c0-1.395,1.217-2.157,3.406-2.146v-0.119c0-0.465-0.129-1.334-1.288-1.322
			c-0.538,0-1.088,0.154-1.486,0.429l-0.234-0.703c0.468-0.298,1.159-0.5,1.873-0.5c1.732,0,2.153,1.203,2.153,2.348V212.909z
			 M170.934,211.348c-1.124-0.024-2.399,0.179-2.399,1.299c0,0.691,0.445,1.001,0.96,1.001c0.749,0,1.229-0.477,1.393-0.965
			c0.035-0.119,0.047-0.238,0.047-0.334V211.348z"/>
		<path d="M178.434,213.446c0,1.334-0.269,2.133-0.808,2.646c-0.562,0.512-1.357,0.69-2.072,0.69c-0.679,0-1.428-0.166-1.884-0.477
			l0.257-0.81c0.375,0.25,0.959,0.464,1.662,0.464c1.054,0,1.826-0.56,1.826-2.025v-0.632h-0.023
			c-0.305,0.536-0.925,0.966-1.803,0.966c-1.404,0-2.411-1.216-2.411-2.812c0-1.955,1.252-3.051,2.563-3.051
			c0.983,0,1.51,0.512,1.767,0.989h0.023l0.035-0.87h0.913c-0.035,0.405-0.047,0.882-0.047,1.573V213.446z M177.404,210.799
			c0-0.179-0.012-0.333-0.059-0.464c-0.188-0.62-0.679-1.121-1.439-1.121c-0.983,0-1.686,0.847-1.686,2.182
			c0,1.132,0.573,2.073,1.674,2.073c0.644,0,1.217-0.405,1.428-1.072c0.059-0.179,0.082-0.382,0.082-0.561V210.799z"/>
		<path d="M180.701,211.598c0.023,1.418,0.901,2.002,1.943,2.002c0.737,0,1.194-0.131,1.568-0.298l0.187,0.751
			c-0.363,0.167-0.995,0.369-1.896,0.369c-1.744,0-2.785-1.18-2.785-2.92c0-1.739,1.006-3.098,2.657-3.098
			c1.861,0,2.34,1.645,2.34,2.705c0,0.214-0.011,0.369-0.035,0.488H180.701z M183.72,210.847c0.012-0.655-0.269-1.692-1.428-1.692
			c-1.053,0-1.498,0.966-1.58,1.692H183.72z"/>
		<path d="M185.848,213.231c0.316,0.19,0.854,0.405,1.369,0.405c0.737,0,1.089-0.369,1.089-0.858c0-0.5-0.293-0.763-1.042-1.049
			c-1.03-0.381-1.51-0.941-1.51-1.632c0-0.93,0.749-1.692,1.955-1.692c0.574,0,1.077,0.154,1.381,0.357l-0.246,0.763
			c-0.222-0.144-0.632-0.346-1.159-0.346c-0.608,0-0.936,0.357-0.936,0.786c0,0.477,0.328,0.691,1.065,0.989
			c0.971,0.369,1.486,0.87,1.486,1.729c0,1.024-0.784,1.739-2.106,1.739c-0.621,0-1.194-0.167-1.592-0.405L185.848,213.231z"/>
	</g>
</g>
<g>
	<path fill="none" stroke="#231F20" d="M53.41,100.115c-8.334-15.409-1.062-34.983,16.257-43.763"/>
	<g>
		<g>
			<path fill="none" stroke="#231F20" d="M68.922,57.061c16.983-8.607,37.603-2.855,46.103,12.86"/>
			<polygon fill="#231F20" points="110.431,69.213 114.437,68.834 116.946,65.689 117.864,75.172 			"/>
		</g>
	</g>
</g>
<g>
	<path d="M78.102,29.274h0.023c0.141-0.203,0.328-0.453,0.492-0.656l1.673-1.99h1.229L79.342,29l2.493,3.396h-1.264l-1.942-2.765
		l-0.527,0.596v2.169h-1.018v-8.461h1.018V29.274z"/>
	<path d="M84.478,25.627h-0.023l-1.323,0.727l-0.199-0.798l1.662-0.906h0.878v7.746h-0.995V25.627z"/>
	<path d="M65.467,42.482c0-0.608-0.023-1.084-0.047-1.562h0.901l0.047,0.941h0.035c0.316-0.548,0.843-1.061,1.791-1.061
		c0.761,0,1.346,0.477,1.592,1.156h0.023c0.176-0.334,0.41-0.572,0.644-0.751c0.339-0.262,0.703-0.405,1.241-0.405
		c0.761,0,1.873,0.5,1.873,2.503v3.384H72.56v-3.253c0-1.12-0.41-1.775-1.229-1.775c-0.597,0-1.042,0.441-1.229,0.941
		c-0.047,0.155-0.082,0.333-0.082,0.524v3.563h-1.007v-3.456c0-0.917-0.398-1.573-1.182-1.573c-0.632,0-1.112,0.524-1.275,1.048
		c-0.059,0.143-0.082,0.334-0.082,0.513v3.468h-1.006V42.482z"/>
	<path d="M76.371,39.3c0,0.357-0.246,0.644-0.656,0.644c-0.375,0-0.62-0.286-0.62-0.644s0.257-0.655,0.644-0.655
		C76.113,38.645,76.371,38.931,76.371,39.3z M75.224,46.688V40.92h1.03v5.768H75.224z"/>
	<path d="M79.201,39.538v1.382h1.475v0.799h-1.475v3.11c0,0.715,0.199,1.12,0.772,1.12c0.281,0,0.445-0.024,0.597-0.072l0.047,0.799
		c-0.199,0.071-0.515,0.143-0.913,0.143c-0.48,0-0.866-0.167-1.112-0.441c-0.281-0.322-0.398-0.834-0.398-1.513v-3.146h-0.878V40.92
		h0.878v-1.072L79.201,39.538z"/>
	<path d="M86.889,43.757c0,2.133-1.463,3.062-2.82,3.062c-1.521,0-2.715-1.144-2.715-2.967c0-1.918,1.252-3.051,2.809-3.051
		C85.789,40.801,86.889,42.005,86.889,43.757z M82.406,43.816c0,1.263,0.702,2.217,1.708,2.217c0.983,0,1.721-0.941,1.721-2.241
		c0-0.977-0.48-2.205-1.697-2.205C82.933,41.588,82.406,42.732,82.406,43.816z"/>
	<path d="M88.044,45.628c0.316,0.19,0.854,0.405,1.369,0.405c0.737,0,1.089-0.37,1.089-0.858c0-0.5-0.293-0.763-1.042-1.048
		c-1.03-0.381-1.51-0.941-1.51-1.633c0-0.93,0.749-1.692,1.955-1.692c0.574,0,1.077,0.155,1.381,0.357l-0.246,0.763
		c-0.222-0.143-0.632-0.345-1.159-0.345c-0.608,0-0.936,0.357-0.936,0.787c0,0.477,0.328,0.691,1.065,0.989
		c0.971,0.37,1.486,0.87,1.486,1.728c0,1.025-0.784,1.74-2.106,1.74c-0.621,0-1.194-0.167-1.592-0.405L88.044,45.628z"/>
	<path d="M93.964,39.3c0,0.357-0.246,0.644-0.656,0.644c-0.375,0-0.62-0.286-0.62-0.644s0.257-0.655,0.644-0.655
		C93.707,38.645,93.964,38.931,93.964,39.3z M92.817,46.688V40.92h1.03v5.768H92.817z"/>
	<path d="M95.414,45.628c0.316,0.19,0.854,0.405,1.369,0.405c0.737,0,1.089-0.37,1.089-0.858c0-0.5-0.293-0.763-1.042-1.048
		c-1.03-0.381-1.51-0.941-1.51-1.633c0-0.93,0.749-1.692,1.955-1.692c0.574,0,1.077,0.155,1.381,0.357l-0.246,0.763
		c-0.222-0.143-0.632-0.345-1.159-0.345c-0.608,0-0.936,0.357-0.936,0.787c0,0.477,0.328,0.691,1.065,0.989
		c0.971,0.37,1.486,0.87,1.486,1.728c0,1.025-0.784,1.74-2.107,1.74c-0.62,0-1.193-0.167-1.591-0.405L95.414,45.628z"/>
</g>
<g>
	<path d="M78.261,62.429v2.8h2.645v0.715h-2.645v2.824h-0.749v-2.824h-2.645v-0.715h2.645v-2.8H78.261z"/>
</g>
<g>
	<g>
		<path d="M404.131,167.08c-0.469,0.008-0.777,0.079-0.926,0.215s-0.223,0.394-0.223,0.773v0.064
			c1.084,0.039,1.932,0.289,2.539,0.75s0.91,1.084,0.91,1.866c0,0.737-0.307,1.339-0.92,1.807c-0.613,0.467-1.455,0.739-2.529,0.816
			v0.128c0,0.36,0.08,0.61,0.24,0.748c0.158,0.137,0.461,0.21,0.908,0.218v0.238h-3.525v-0.238c0.453-0.008,0.76-0.082,0.92-0.224
			s0.24-0.4,0.24-0.776v-0.094c-1.078-0.077-1.924-0.35-2.539-0.816c-0.615-0.468-0.924-1.069-0.924-1.807
			c0-0.779,0.305-1.4,0.914-1.863c0.609-0.464,1.459-0.714,2.549-0.753v-0.064c0-0.384-0.074-0.643-0.223-0.776
			s-0.461-0.204-0.938-0.212v-0.239h3.525V167.08z M401.766,168.43c-0.701,0.069-1.227,0.298-1.574,0.686s-0.523,0.937-0.523,1.646
			c0,0.714,0.176,1.263,0.523,1.646s0.873,0.604,1.574,0.663V168.43z M402.982,168.43v4.641c0.689-0.051,1.207-0.27,1.557-0.657
			c0.348-0.388,0.521-0.938,0.521-1.652c0-0.709-0.172-1.258-0.516-1.646C404.199,168.728,403.678,168.499,402.982,168.43z"/>
		<path d="M407.721,166.779c0.516-0.095,1.264-0.167,1.955-0.167c1.088,0,1.803,0.214,2.281,0.655
			c0.387,0.358,0.621,0.906,0.621,1.537c0,1.049-0.656,1.752-1.475,2.038v0.036c0.598,0.214,0.959,0.786,1.146,1.62
			c0.258,1.121,0.445,1.896,0.609,2.205h-1.055c-0.127-0.238-0.303-0.918-0.514-1.919c-0.234-1.108-0.668-1.525-1.592-1.561h-0.961
			v3.479h-1.018V166.779z M408.738,170.438h1.043c1.088,0,1.779-0.607,1.779-1.525c0-1.037-0.738-1.489-1.814-1.489
			c-0.492,0-0.832,0.036-1.008,0.083V170.438z"/>
	</g>
	<g>
		<path d="M390.875,186.204c0.516-0.096,1.264-0.167,1.955-0.167c1.088,0,1.803,0.215,2.281,0.655
			c0.387,0.357,0.621,0.906,0.621,1.537c0,1.049-0.656,1.752-1.475,2.038v0.036c0.598,0.214,0.959,0.786,1.146,1.62
			c0.258,1.121,0.445,1.896,0.609,2.205h-1.055c-0.127-0.238-0.303-0.918-0.514-1.919c-0.234-1.108-0.668-1.525-1.592-1.561h-0.961
			v3.479h-1.018V186.204z M391.893,189.862h1.043c1.088,0,1.779-0.607,1.779-1.525c0-1.036-0.738-1.489-1.814-1.489
			c-0.492,0-0.832,0.035-1.008,0.083V189.862z"/>
		<path d="M397.754,191.436c0.023,1.418,0.9,2.002,1.943,2.002c0.736,0,1.193-0.131,1.566-0.298l0.188,0.751
			c-0.361,0.167-0.994,0.369-1.895,0.369c-1.744,0-2.787-1.18-2.787-2.92c0-1.739,1.008-3.098,2.658-3.098
			c1.859,0,2.34,1.645,2.34,2.705c0,0.214-0.012,0.369-0.035,0.488H397.754z M400.773,190.685c0.012-0.655-0.27-1.692-1.428-1.692
			c-1.055,0-1.498,0.966-1.58,1.692H400.773z"/>
		<path d="M403.041,190.244c0-0.739-0.023-1.335-0.047-1.883h0.914l0.059,0.989h0.023c0.408-0.703,1.088-1.108,2.012-1.108
			c1.381,0,2.412,1.18,2.412,2.919c0,2.074-1.254,3.099-2.588,3.099c-0.748,0-1.404-0.333-1.744-0.905h-0.021v3.134h-1.02V190.244z
			 M404.061,191.781c0,0.155,0.01,0.298,0.045,0.429c0.188,0.728,0.809,1.228,1.545,1.228c1.09,0,1.721-0.905,1.721-2.229
			c0-1.144-0.596-2.133-1.686-2.133c-0.701,0-1.369,0.5-1.557,1.287c-0.035,0.131-0.068,0.286-0.068,0.417V191.781z"/>
		<path d="M413.678,192.746c0,0.501,0.023,0.989,0.08,1.383h-0.924l-0.082-0.727h-0.035c-0.316,0.452-0.924,0.857-1.732,0.857
			c-1.146,0-1.732-0.822-1.732-1.656c0-1.395,1.219-2.157,3.406-2.146v-0.119c0-0.465-0.129-1.334-1.287-1.322
			c-0.539,0-1.088,0.155-1.486,0.429l-0.234-0.703c0.469-0.298,1.158-0.5,1.873-0.5c1.732,0,2.154,1.203,2.154,2.348V192.746z
			 M412.682,191.186c-1.123-0.024-2.398,0.179-2.398,1.299c0,0.691,0.443,1.001,0.959,1.001c0.75,0,1.229-0.477,1.393-0.965
			c0.035-0.119,0.047-0.238,0.047-0.334V191.186z"/>
		<path d="M416.482,186.74c0,0.357-0.244,0.644-0.654,0.644c-0.375,0-0.621-0.286-0.621-0.644s0.258-0.655,0.645-0.655
			C416.227,186.085,416.482,186.371,416.482,186.74z M415.336,194.129v-5.768h1.029v5.768H415.336z"/>
		<path d="M418.074,190.16c0-0.679-0.012-1.263-0.047-1.799h0.9l0.047,1.144h0.035c0.258-0.774,0.889-1.263,1.58-1.263
			c0.105,0,0.188,0.012,0.281,0.023v0.989c-0.105-0.023-0.211-0.023-0.352-0.023c-0.725,0-1.24,0.548-1.381,1.334
			c-0.023,0.144-0.035,0.322-0.035,0.489v3.074h-1.029V190.16z"/>
		<path d="M373.076,204.214c0-0.607-0.023-1.084-0.047-1.561h0.902l0.047,0.941h0.035c0.314-0.549,0.842-1.061,1.789-1.061
			c0.762,0,1.346,0.477,1.592,1.155h0.023c0.176-0.333,0.41-0.571,0.645-0.75c0.34-0.263,0.701-0.405,1.24-0.405
			c0.762,0,1.873,0.5,1.873,2.502v3.385h-1.008v-3.253c0-1.121-0.408-1.776-1.229-1.776c-0.596,0-1.041,0.441-1.229,0.941
			c-0.047,0.155-0.082,0.334-0.082,0.524v3.563h-1.006v-3.456c0-0.918-0.398-1.573-1.182-1.573c-0.633,0-1.113,0.524-1.277,1.049
			c-0.059,0.144-0.08,0.334-0.08,0.513v3.468h-1.008V204.214z"/>
		<path d="M386.812,207.038c0,0.501,0.023,0.989,0.08,1.383h-0.924l-0.082-0.727h-0.035c-0.316,0.452-0.924,0.857-1.732,0.857
			c-1.146,0-1.732-0.822-1.732-1.656c0-1.395,1.219-2.157,3.406-2.146v-0.119c0-0.465-0.129-1.334-1.287-1.322
			c-0.539,0-1.088,0.154-1.486,0.429l-0.234-0.703c0.469-0.298,1.158-0.5,1.873-0.5c1.732,0,2.154,1.203,2.154,2.348V207.038z
			 M385.816,205.478c-1.123-0.024-2.398,0.179-2.398,1.299c0,0.691,0.443,1.001,0.959,1.001c0.75,0,1.229-0.477,1.393-0.965
			c0.035-0.119,0.047-0.238,0.047-0.334V205.478z"/>
		<path d="M392.508,208.219c-0.268,0.131-0.865,0.333-1.625,0.333c-1.709,0-2.822-1.18-2.822-2.943c0-1.775,1.195-3.074,3.043-3.074
			c0.609,0,1.148,0.154,1.428,0.31l-0.232,0.799c-0.246-0.132-0.633-0.274-1.195-0.274c-1.299,0-2,0.989-2,2.181
			c0,1.335,0.842,2.157,1.965,2.157c0.586,0,0.973-0.144,1.266-0.274L392.508,208.219z"/>
		<path d="M393.713,204.452c0-0.679-0.012-1.263-0.047-1.799h0.9l0.047,1.144h0.035c0.258-0.774,0.889-1.263,1.58-1.263
			c0.105,0,0.188,0.012,0.281,0.023v0.989c-0.105-0.023-0.211-0.023-0.352-0.023c-0.725,0-1.24,0.548-1.381,1.334
			c-0.023,0.144-0.035,0.322-0.035,0.489v3.074h-1.029V204.452z"/>
		<path d="M402.547,205.489c0,2.133-1.463,3.062-2.82,3.062c-1.521,0-2.717-1.144-2.717-2.967c0-1.919,1.254-3.051,2.811-3.051
			C401.445,202.534,402.547,203.737,402.547,205.489z M398.064,205.549c0,1.264,0.701,2.217,1.709,2.217
			c0.982,0,1.719-0.941,1.719-2.24c0-0.978-0.479-2.205-1.695-2.205C398.59,203.32,398.064,204.465,398.064,205.549z"/>
		<path d="M403.844,204.536c0-0.739-0.023-1.335-0.047-1.883h0.912l0.059,0.989h0.023c0.41-0.703,1.088-1.108,2.014-1.108
			c1.381,0,2.41,1.18,2.41,2.919c0,2.074-1.252,3.099-2.586,3.099c-0.75,0-1.404-0.333-1.744-0.905h-0.023v3.134h-1.018V204.536z
			 M404.861,206.073c0,0.155,0.012,0.298,0.047,0.429c0.188,0.728,0.807,1.228,1.545,1.228c1.088,0,1.721-0.905,1.721-2.229
			c0-1.144-0.598-2.133-1.686-2.133c-0.703,0-1.369,0.5-1.557,1.287c-0.035,0.131-0.07,0.286-0.07,0.417V206.073z"/>
		<path d="M410.498,199.96h1.029v3.61h0.023c0.164-0.298,0.422-0.571,0.738-0.75c0.305-0.18,0.668-0.286,1.053-0.286
			c0.762,0,1.979,0.477,1.979,2.454v3.433h-1.029v-3.312c0-0.93-0.34-1.705-1.311-1.705c-0.668,0-1.184,0.478-1.383,1.037
			c-0.059,0.155-0.07,0.31-0.07,0.501v3.479h-1.029V199.96z"/>
		<path d="M420.971,207.038c0,0.501,0.023,0.989,0.082,1.383h-0.924l-0.082-0.727h-0.035c-0.316,0.452-0.926,0.857-1.732,0.857
			c-1.146,0-1.732-0.822-1.732-1.656c0-1.395,1.217-2.157,3.406-2.146v-0.119c0-0.465-0.129-1.334-1.287-1.322
			c-0.539,0-1.09,0.154-1.486,0.429l-0.234-0.703c0.467-0.298,1.158-0.5,1.871-0.5c1.732,0,2.154,1.203,2.154,2.348V207.038z
			 M419.977,205.478c-1.125-0.024-2.4,0.179-2.4,1.299c0,0.691,0.445,1.001,0.961,1.001c0.748,0,1.229-0.477,1.393-0.965
			c0.035-0.119,0.047-0.238,0.047-0.334V205.478z"/>
		<path d="M427.475,207.575c0,1.334-0.268,2.133-0.807,2.646c-0.562,0.512-1.357,0.69-2.072,0.69c-0.678,0-1.428-0.166-1.883-0.477
			l0.256-0.81c0.375,0.25,0.961,0.464,1.662,0.464c1.055,0,1.826-0.56,1.826-2.025v-0.632h-0.023
			c-0.305,0.536-0.924,0.966-1.803,0.966c-1.404,0-2.41-1.216-2.41-2.812c0-1.955,1.252-3.051,2.562-3.051
			c0.984,0,1.51,0.512,1.768,0.989h0.023l0.035-0.87h0.912c-0.035,0.405-0.047,0.882-0.047,1.573V207.575z M426.445,204.929
			c0-0.179-0.012-0.333-0.059-0.464c-0.188-0.62-0.678-1.121-1.439-1.121c-0.982,0-1.686,0.847-1.686,2.182
			c0,1.132,0.574,2.073,1.674,2.073c0.645,0,1.217-0.405,1.428-1.072c0.059-0.179,0.082-0.382,0.082-0.561V204.929z"/>
		<path d="M429.742,205.728c0.023,1.418,0.902,2.002,1.943,2.002c0.738,0,1.193-0.131,1.568-0.298l0.188,0.751
			c-0.363,0.167-0.996,0.369-1.896,0.369c-1.744,0-2.785-1.18-2.785-2.92c0-1.739,1.006-3.098,2.656-3.098
			c1.861,0,2.342,1.645,2.342,2.705c0,0.214-0.012,0.369-0.035,0.488H429.742z M432.762,204.977c0.012-0.655-0.27-1.692-1.428-1.692
			c-1.053,0-1.498,0.966-1.58,1.692H432.762z"/>
		<path d="M434.889,207.36c0.316,0.19,0.855,0.405,1.369,0.405c0.738,0,1.09-0.369,1.09-0.858c0-0.5-0.293-0.763-1.043-1.049
			c-1.029-0.381-1.51-0.941-1.51-1.632c0-0.93,0.75-1.692,1.955-1.692c0.574,0,1.076,0.154,1.381,0.357l-0.246,0.763
			c-0.223-0.144-0.631-0.346-1.158-0.346c-0.609,0-0.936,0.357-0.936,0.786c0,0.477,0.326,0.691,1.064,0.989
			c0.971,0.369,1.486,0.87,1.486,1.729c0,1.024-0.785,1.739-2.107,1.739c-0.619,0-1.193-0.167-1.592-0.405L434.889,207.36z"/>
	</g>
</g>
<g>
	<g>
		<ellipse fill="#D6562B" stroke="#231F20" cx="465.975" cy="155.406" rx="12.811" ry="7.852"/>
		<ellipse fill="#D6562B" stroke="#231F20" cx="417.476" cy="106.524" rx="12.81" ry="7.851"/>
		<ellipse fill="#D6562B" stroke="#231F20" cx="498.632" cy="121.66" rx="12.81" ry="7.851"/>
		<ellipse fill="#D6562B" stroke="#231F20" cx="414.551" cy="150.94" rx="12.81" ry="7.851"/>
		<ellipse fill="#D6562B" stroke="#231F20" cx="447.94" cy="96.351" rx="12.81" ry="7.851"/>
		<ellipse fill="#D6562B" stroke="#231F20" cx="444.284" cy="117.69" rx="12.811" ry="7.851"/>
		<ellipse fill="#D6562B" stroke="#231F20" cx="473.773" cy="110.494" rx="12.811" ry="7.851"/>
		<ellipse fill="#D6562B" stroke="#231F20" cx="471.092" cy="133.819" rx="12.81" ry="7.851"/>
		<ellipse fill="#D6562B" stroke="#231F20" cx="441.36" cy="141.263" rx="12.81" ry="7.851"/>
		<ellipse fill="#D6562B" stroke="#231F20" cx="415.526" cy="128.856" rx="12.81" ry="7.851"/>
		<ellipse fill="#D6562B" stroke="#231F20" cx="391.399" cy="115.457" rx="12.81" ry="7.851"/>
		<ellipse fill="#D6562B" stroke="#231F20" cx="423.325" cy="85.185" rx="12.81" ry="7.851"/>
		<ellipse fill="#D6562B" stroke="#231F20" cx="477.429" cy="91.14" rx="12.81" ry="7.851"/>
		<ellipse fill="#D6562B" stroke="#231F20" cx="393.267" cy="91.717" rx="12.81" ry="7.852"/>
		<ellipse fill="#D6562B" stroke="#231F20" cx="387.093" cy="139.029" rx="12.811" ry="7.851"/>
		<ellipse fill="#D6562B" stroke="#231F20" cx="501.8" cy="146.638" rx="12.81" ry="7.853"/>
		<ellipse fill="#D6562B" stroke="#231F20" cx="503.424" cy="101.974" rx="12.81" ry="7.852"/>
	</g>
	<g>
		<path fill="none" stroke="#231F20" d="M526.284,106.779c7.924-15.41,1.01-34.983-15.459-43.762"/>
		<g>
			<g>
				<path fill="none" stroke="#231F20" d="M511.534,63.726c-16.148-8.608-35.755-2.856-43.836,12.86"/>
				<polygon fill="#231F20" points="465.689,72.395 468.264,75.487 472.277,75.782 464.969,81.895 				"/>
			</g>
		</g>
	</g>
	<g>
		<path d="M490.099,33.722h0.023c0.141-0.203,0.328-0.453,0.492-0.656l1.674-1.99h1.229l-2.177,2.372l2.493,3.396h-1.265
			l-1.942-2.765l-0.527,0.596v2.169h-1.018v-8.461h1.018V33.722z"/>
		<path d="M496.475,30.075h-0.023l-1.322,0.727l-0.199-0.798l1.662-0.906h0.878v7.746h-0.995V30.075z"/>
		<path d="M477.465,46.93c0-0.608-0.023-1.084-0.047-1.562h0.901l0.047,0.941h0.035c0.315-0.548,0.842-1.061,1.79-1.061
			c0.761,0,1.346,0.477,1.592,1.156h0.023c0.176-0.334,0.41-0.572,0.644-0.751c0.34-0.262,0.702-0.405,1.241-0.405
			c0.761,0,1.872,0.5,1.872,2.503v3.384h-1.007v-3.253c0-1.12-0.409-1.775-1.229-1.775c-0.597,0-1.042,0.441-1.229,0.941
			c-0.047,0.155-0.082,0.333-0.082,0.524v3.563h-1.007V47.68c0-0.917-0.397-1.573-1.182-1.573c-0.632,0-1.112,0.524-1.276,1.048
			c-0.059,0.143-0.081,0.334-0.081,0.513v3.468h-1.007V46.93z"/>
		<path d="M488.367,43.748c0,0.357-0.245,0.644-0.655,0.644c-0.374,0-0.62-0.286-0.62-0.644s0.258-0.655,0.644-0.655
			C488.11,43.092,488.367,43.378,488.367,43.748z M487.221,51.136v-5.768h1.029v5.768H487.221z"/>
		<path d="M491.198,43.986v1.382h1.475v0.799h-1.475v3.11c0,0.715,0.199,1.12,0.772,1.12c0.281,0,0.445-0.024,0.597-0.072
			l0.047,0.799c-0.198,0.071-0.515,0.143-0.912,0.143c-0.48,0-0.866-0.167-1.112-0.441c-0.281-0.322-0.397-0.834-0.397-1.513v-3.146
			h-0.878v-0.799h0.878v-1.072L491.198,43.986z"/>
		<path d="M498.887,48.205c0,2.133-1.463,3.062-2.82,3.062c-1.521,0-2.716-1.144-2.716-2.967c0-1.918,1.253-3.051,2.81-3.051
			C497.786,45.249,498.887,46.453,498.887,48.205z M494.404,48.264c0,1.263,0.702,2.217,1.709,2.217c0.982,0,1.72-0.941,1.72-2.241
			c0-0.977-0.479-2.205-1.696-2.205C494.931,46.036,494.404,47.18,494.404,48.264z"/>
		<path d="M500.042,50.076c0.316,0.19,0.854,0.405,1.369,0.405c0.737,0,1.089-0.37,1.089-0.858c0-0.5-0.293-0.763-1.042-1.048
			c-1.029-0.381-1.51-0.941-1.51-1.633c0-0.93,0.749-1.692,1.955-1.692c0.573,0,1.076,0.155,1.381,0.357l-0.246,0.763
			c-0.223-0.143-0.632-0.345-1.158-0.345c-0.609,0-0.937,0.357-0.937,0.787c0,0.477,0.327,0.691,1.064,0.989
			c0.972,0.37,1.486,0.87,1.486,1.728c0,1.025-0.784,1.74-2.106,1.74c-0.62,0-1.193-0.167-1.592-0.405L500.042,50.076z"/>
		<path d="M505.962,43.748c0,0.357-0.245,0.644-0.655,0.644c-0.374,0-0.62-0.286-0.62-0.644s0.258-0.655,0.644-0.655
			C505.705,43.092,505.962,43.378,505.962,43.748z M504.815,51.136v-5.768h1.029v5.768H504.815z"/>
		<path d="M507.412,50.076c0.316,0.19,0.854,0.405,1.369,0.405c0.737,0,1.089-0.37,1.089-0.858c0-0.5-0.293-0.763-1.042-1.048
			c-1.029-0.381-1.51-0.941-1.51-1.633c0-0.93,0.749-1.692,1.955-1.692c0.573,0,1.076,0.155,1.381,0.357l-0.246,0.763
			c-0.223-0.143-0.632-0.345-1.158-0.345c-0.609,0-0.937,0.357-0.937,0.787c0,0.477,0.327,0.691,1.064,0.989
			c0.972,0.37,1.486,0.87,1.486,1.728c0,1.025-0.784,1.74-2.106,1.74c-0.62,0-1.193-0.167-1.592-0.405L507.412,50.076z"/>
	</g>
</g>
<g>
	<path d="M494.347,70.994v2.8h2.645v0.715h-2.645v2.824h-0.749v-2.824h-2.646v-0.715h2.646v-2.8H494.347z"/>
</g>
<g>
	<g>
		<line fill="none" stroke="#231F20" x1="357.222" y1="404.505" x2="448.097" y2="194.249"/>
		<polygon fill="#231F20" points="450.382,198.296 447.606,195.383 443.582,195.357 450.465,188.769 		"/>
	</g>
</g>
<g>
	<g>
		<line fill="none" stroke="#231F20" x1="233.399" y1="389.018" x2="112.011" y2="202.746"/>
		<polygon fill="#231F20" points="116.647,203.077 112.686,203.781 110.441,207.122 108.752,197.745 		"/>
	</g>
</g>
<g>
	<g>
		<line fill="none" stroke="#231F20" x1="320.796" y1="285.421" x2="375.426" y2="321.74"/>
		<polygon fill="#231F20" points="371.037,323.269 374.396,321.056 375.138,317.101 380.396,325.045 		"/>
	</g>
</g>
<g>
	<g>
		<line fill="none" stroke="#231F20" x1="266.701" y1="274.588" x2="212.071" y2="310.907"/>
		<polygon fill="#231F20" points="212.359,306.269 213.1,310.223 216.46,312.437 207.1,314.212 		"/>
	</g>
</g>
<g>
	
		<radialGradient id="path16609_1_" cx="249.9351" cy="-303.2446" r="24.58" gradientTransform="matrix(1.5532 0 0 0.6311 -97.9521 467.658)" gradientUnits="userSpaceOnUse">
		<stop  offset="0" style="stop-color:#C2DA65"/>
		<stop  offset="0.4082" style="stop-color:#C2DA65"/>
		<stop  offset="0.5552" style="stop-color:#BDD967"/>
		<stop  offset="0.66" style="stop-color:#B9D766"/>
		<stop  offset="0.7448" style="stop-color:#B1D466"/>
		<stop  offset="0.8174" style="stop-color:#A8D166"/>
		<stop  offset="0.8817" style="stop-color:#9DCE66"/>
		<stop  offset="0.9398" style="stop-color:#93CA65"/>
		<stop  offset="0.9915" style="stop-color:#89C762"/>
		<stop  offset="1" style="stop-color:#87C763"/>
	</radialGradient>
	<path id="path16609" fill="url(#path16609_1_)" stroke="#010101" d="M327.727,276.278c0,8.723-16.787,15.793-37.48,15.793
		c-20.699,0-37.479-7.067-37.479-15.793c0-8.724,16.78-15.789,37.479-15.789C310.939,260.49,327.727,267.556,327.727,276.278z"/>
	<g>
		<path d="M280.053,265.736h-2.399v-0.882h5.84v0.882h-2.411v7.15h-1.03V265.736z"/>
		<path d="M290.069,272.529c-0.457,0.179-1.37,0.44-2.435,0.44c-1.194,0-2.177-0.31-2.949-1.061c-0.679-0.667-1.1-1.739-1.1-2.991
			c0-2.395,1.627-4.146,4.271-4.146c0.913,0,1.639,0.202,1.978,0.369l-0.257,0.846c-0.421-0.202-0.948-0.345-1.744-0.345
			c-1.919,0-3.172,1.215-3.172,3.229c0,2.037,1.194,3.241,3.043,3.241c0.667,0,1.124-0.096,1.357-0.215v-2.396h-1.592v-0.834h2.599
			V272.529z"/>
		<path d="M291.599,264.854h4.249v0.87h-3.219v2.669h2.973v0.858h-2.973v3.635h-1.03V264.854z"/>
		<path d="M298.793,271.932c0.054,0.222,0.181,0.403,0.382,0.547c0.203,0.144,0.434,0.215,0.691,0.215
			c0.4,0,0.717-0.181,0.949-0.543c0.232-0.363,0.348-0.856,0.348-1.48c0-0.628-0.111-1.138-0.334-1.529s-0.555-0.659-0.996-0.803
			c-0.027,0.008-0.066,0.023-0.115,0.047c-0.289,0.128-0.508,0.191-0.656,0.191c-0.111,0-0.196-0.032-0.254-0.099
			c-0.06-0.065-0.089-0.161-0.089-0.285c0-0.12,0.03-0.207,0.092-0.262c0.061-0.054,0.156-0.081,0.285-0.081
			c0.104,0,0.311,0.058,0.623,0.174c0.068,0.027,0.123,0.049,0.16,0.064c0.252-0.108,0.439-0.283,0.562-0.523
			s0.186-0.551,0.186-0.931c0-0.496-0.105-0.889-0.32-1.178c-0.213-0.288-0.5-0.433-0.861-0.433c-0.432,0-0.741,0.171-0.931,0.515
			c-0.19,0.343-0.286,0.922-0.286,1.735v8.137H297.2v-7.025c0-1.183,0.211-2.096,0.632-2.739c0.42-0.644,1.018-0.966,1.79-0.966
			c0.621,0,1.125,0.165,1.51,0.494c0.383,0.33,0.576,0.765,0.576,1.303c0,0.381-0.135,0.718-0.402,1.013
			c-0.27,0.294-0.658,0.529-1.168,0.703c0.711,0.179,1.248,0.462,1.609,0.85c0.363,0.388,0.543,0.87,0.543,1.447
			c0,0.733-0.215,1.335-0.648,1.807c-0.432,0.471-0.971,0.706-1.619,0.706c-0.422,0-0.773-0.098-1.053-0.294
			c-0.28-0.195-0.441-0.454-0.483-0.776H298.793z"/>
		<path d="M286.469,278.908c-0.854,1.18-1.463,2.717-1.463,4.886c0,2.121,0.644,3.635,1.463,4.827h-0.796
			c-0.737-0.989-1.533-2.515-1.533-4.839c0.012-2.336,0.796-3.873,1.533-4.874H286.469z"/>
		<path d="M289.663,280.028h-2.399v-0.882h5.84v0.882h-2.411v7.15h-1.03V280.028z"/>
		<path d="M294.025,288.621c0.819-1.181,1.463-2.718,1.463-4.862c0-2.146-0.632-3.659-1.463-4.851h0.796
			c0.737,0.978,1.533,2.515,1.533,4.851c-0.012,2.336-0.796,3.861-1.533,4.862H294.025z"/>
	</g>
</g>
<g>
	<g>
		<line fill="none" stroke="#231F20" stroke-dasharray="3,3" x1="167.596" y1="162.822" x2="255.502" y2="253.625"/>
		<polygon fill="#231F20" points="250.888,254.182 254.643,252.737 256.21,249.03 259.654,257.913 		"/>
	</g>
</g>
<g>
	<path d="M214.686,200.749c0.316,0.19,0.854,0.405,1.369,0.405c0.737,0,1.089-0.37,1.089-0.858c0-0.5-0.293-0.763-1.042-1.048
		c-1.03-0.381-1.51-0.941-1.51-1.633c0-0.93,0.749-1.692,1.955-1.692c0.574,0,1.077,0.155,1.381,0.358l-0.246,0.763
		c-0.222-0.143-0.632-0.346-1.159-0.346c-0.608,0-0.936,0.357-0.936,0.787c0,0.477,0.328,0.691,1.065,0.989
		c0.971,0.37,1.486,0.87,1.486,1.728c0,1.025-0.784,1.74-2.106,1.74c-0.621,0-1.194-0.167-1.592-0.405L214.686,200.749z"/>
	<path d="M220.032,199.116c0.023,1.418,0.901,2.002,1.943,2.002c0.737,0,1.194-0.131,1.568-0.298l0.187,0.751
		c-0.363,0.167-0.995,0.369-1.896,0.369c-1.744,0-2.785-1.18-2.785-2.919s1.006-3.099,2.657-3.099c1.861,0,2.34,1.645,2.34,2.706
		c0,0.214-0.011,0.369-0.035,0.488H220.032z M223.052,198.365c0.012-0.656-0.269-1.692-1.428-1.692c-1.053,0-1.498,0.965-1.58,1.692
		H223.052z"/>
	<path d="M229.357,201.606c-0.269,0.131-0.866,0.333-1.627,0.333c-1.708,0-2.82-1.18-2.82-2.943c0-1.775,1.194-3.075,3.043-3.075
		c0.608,0,1.147,0.155,1.428,0.31l-0.234,0.798c-0.246-0.131-0.632-0.274-1.193-0.274c-1.299,0-2.001,0.989-2.001,2.181
		c0,1.335,0.843,2.157,1.966,2.157c0.585,0,0.971-0.143,1.264-0.274L229.357,201.606z"/>
	<path d="M230.561,197.841c0-0.679-0.012-1.263-0.047-1.8h0.901l0.047,1.144h0.035c0.258-0.774,0.89-1.263,1.58-1.263
		c0.105,0,0.187,0.012,0.281,0.024v0.989c-0.105-0.024-0.21-0.024-0.351-0.024c-0.726,0-1.241,0.548-1.381,1.335
		c-0.023,0.143-0.035,0.322-0.035,0.488v3.075h-1.03V197.841z"/>
	<path d="M234.842,199.116c0.023,1.418,0.901,2.002,1.943,2.002c0.737,0,1.194-0.131,1.568-0.298l0.187,0.751
		c-0.363,0.167-0.995,0.369-1.896,0.369c-1.744,0-2.785-1.18-2.785-2.919s1.006-3.099,2.657-3.099c1.861,0,2.34,1.645,2.34,2.706
		c0,0.214-0.012,0.369-0.035,0.488H234.842z M237.862,198.365c0.012-0.656-0.269-1.692-1.428-1.692c-1.053,0-1.498,0.965-1.58,1.692
		H237.862z"/>
	<path d="M241.37,194.659v1.382h1.475v0.799h-1.475v3.11c0,0.715,0.199,1.12,0.772,1.12c0.281,0,0.445-0.024,0.597-0.072
		l0.047,0.799c-0.199,0.071-0.515,0.143-0.913,0.143c-0.48,0-0.866-0.167-1.112-0.441c-0.281-0.322-0.398-0.834-0.398-1.513v-3.146
		h-0.878v-0.799h0.878v-1.072L241.37,194.659z"/>
	<path d="M245.149,194.42c0,0.357-0.246,0.644-0.656,0.644c-0.375,0-0.62-0.286-0.62-0.644s0.257-0.655,0.644-0.655
		C244.891,193.765,245.149,194.051,245.149,194.42z M244.002,201.809v-5.768h1.03v5.768H244.002z"/>
	<path d="M251.865,198.877c0,2.133-1.463,3.062-2.82,3.062c-1.521,0-2.715-1.144-2.715-2.967c0-1.918,1.252-3.051,2.809-3.051
		C250.765,195.922,251.865,197.125,251.865,198.877z M247.383,198.937c0,1.263,0.702,2.217,1.708,2.217
		c0.983,0,1.72-0.941,1.72-2.241c0-0.977-0.479-2.205-1.697-2.205C247.91,196.708,247.383,197.853,247.383,198.937z"/>
	<path d="M253.161,197.603c0-0.608-0.012-1.084-0.047-1.562h0.913l0.059,0.954h0.023c0.28-0.536,0.936-1.073,1.872-1.073
		c0.784,0,2.001,0.477,2.001,2.455v3.432h-1.029v-3.325c0-0.93-0.34-1.704-1.311-1.704c-0.668,0-1.194,0.488-1.382,1.072
		c-0.047,0.131-0.07,0.31-0.07,0.489v3.468h-1.029V197.603z"/>
</g>
<g>
	<path d="M187.056,366.125h0.022c0.141-0.203,0.328-0.453,0.492-0.655l1.674-1.99h1.229l-2.177,2.371l2.493,3.396h-1.265
		l-1.942-2.765l-0.526,0.596v2.169h-1.019v-8.461h1.019V366.125z"/>
	<path d="M191.195,369.248v-0.644l0.808-0.799c1.943-1.883,2.832-2.884,2.832-4.052c0-0.786-0.362-1.513-1.498-1.513
		c-0.69,0-1.264,0.357-1.614,0.655l-0.328-0.739c0.515-0.44,1.275-0.786,2.142-0.786c1.639,0,2.329,1.144,2.329,2.252
		c0,1.431-1.019,2.586-2.621,4.159l-0.598,0.572v0.023h3.406v0.87H191.195z"/>
	<path d="M167.858,379.333c0-0.607-0.023-1.084-0.047-1.561h0.901l0.047,0.941h0.035c0.315-0.549,0.842-1.061,1.79-1.061
		c0.761,0,1.346,0.477,1.592,1.155h0.023c0.176-0.333,0.41-0.571,0.644-0.75c0.34-0.263,0.702-0.405,1.241-0.405
		c0.761,0,1.872,0.5,1.872,2.502v3.385h-1.007v-3.253c0-1.121-0.409-1.776-1.229-1.776c-0.597,0-1.042,0.441-1.229,0.941
		c-0.047,0.155-0.082,0.334-0.082,0.524v3.563h-1.007v-3.456c0-0.918-0.397-1.573-1.182-1.573c-0.632,0-1.112,0.524-1.276,1.049
		c-0.059,0.144-0.081,0.334-0.081,0.513v3.468h-1.007V379.333z"/>
	<path d="M178.761,376.151c0,0.357-0.245,0.644-0.655,0.644c-0.374,0-0.62-0.286-0.62-0.644s0.258-0.655,0.644-0.655
		C178.504,375.496,178.761,375.782,178.761,376.151z M177.614,383.54v-5.768h1.029v5.768H177.614z"/>
	<path d="M185.196,382.694c0,1.334-0.269,2.133-0.808,2.646c-0.562,0.512-1.357,0.69-2.071,0.69c-0.679,0-1.428-0.166-1.884-0.477
		l0.257-0.81c0.375,0.25,0.96,0.464,1.662,0.464c1.054,0,1.826-0.56,1.826-2.025v-0.632h-0.023
		c-0.305,0.536-0.925,0.966-1.803,0.966c-1.404,0-2.411-1.216-2.411-2.812c0-1.955,1.253-3.051,2.563-3.051
		c0.983,0,1.51,0.512,1.768,0.989h0.023l0.035-0.87h0.912c-0.035,0.405-0.047,0.882-0.047,1.572V382.694z M184.167,380.047
		c0-0.179-0.012-0.333-0.059-0.464c-0.188-0.62-0.679-1.121-1.439-1.121c-0.983,0-1.686,0.847-1.686,2.182
		c0,1.132,0.573,2.073,1.674,2.073c0.644,0,1.217-0.405,1.428-1.072c0.059-0.179,0.082-0.382,0.082-0.561V380.047z"/>
	<path d="M186.82,379.571c0-0.679-0.012-1.263-0.047-1.799h0.901l0.047,1.144h0.035c0.257-0.774,0.889-1.263,1.58-1.263
		c0.104,0,0.187,0.012,0.28,0.023v0.989c-0.105-0.023-0.211-0.023-0.351-0.023c-0.726,0-1.241,0.548-1.382,1.334
		c-0.023,0.144-0.035,0.322-0.035,0.489v3.074h-1.029V379.571z"/>
	<path d="M194.566,382.157c0,0.501,0.023,0.989,0.081,1.383h-0.924l-0.082-0.727h-0.035c-0.316,0.452-0.925,0.857-1.732,0.857
		c-1.146,0-1.732-0.822-1.732-1.656c0-1.395,1.218-2.157,3.406-2.146v-0.119c0-0.465-0.129-1.334-1.287-1.322
		c-0.539,0-1.089,0.155-1.486,0.429l-0.234-0.703c0.468-0.298,1.158-0.5,1.872-0.5c1.732,0,2.154,1.203,2.154,2.348V382.157z
		 M193.571,380.596c-1.124-0.024-2.399,0.179-2.399,1.299c0,0.691,0.444,1.001,0.96,1.001c0.749,0,1.229-0.477,1.393-0.965
		c0.035-0.119,0.047-0.238,0.047-0.334V380.596z"/>
	<path d="M197.419,376.389v1.383h1.475v0.798h-1.475v3.11c0,0.715,0.199,1.12,0.772,1.12c0.281,0,0.445-0.023,0.597-0.071
		l0.047,0.799c-0.198,0.071-0.515,0.143-0.912,0.143c-0.48,0-0.866-0.167-1.112-0.44c-0.281-0.322-0.397-0.835-0.397-1.514v-3.146
		h-0.878v-0.798h0.878v-1.073L197.419,376.389z"/>
	<path d="M201.197,376.151c0,0.357-0.245,0.644-0.655,0.644c-0.374,0-0.62-0.286-0.62-0.644s0.258-0.655,0.644-0.655
		C200.94,375.496,201.197,375.782,201.197,376.151z M200.051,383.54v-5.768h1.029v5.768H200.051z"/>
	<path d="M207.914,380.608c0,2.133-1.463,3.062-2.82,3.062c-1.521,0-2.716-1.144-2.716-2.967c0-1.919,1.253-3.051,2.81-3.051
		C206.813,377.653,207.914,378.856,207.914,380.608z M203.432,380.667c0,1.264,0.702,2.217,1.709,2.217
		c0.982,0,1.72-0.941,1.72-2.24c0-0.978-0.479-2.205-1.696-2.205C203.958,378.439,203.432,379.583,203.432,380.667z"/>
	<path d="M209.21,379.333c0-0.607-0.012-1.084-0.047-1.561h0.913l0.059,0.953h0.023c0.28-0.536,0.936-1.072,1.872-1.072
		c0.784,0,2.001,0.477,2.001,2.455v3.432h-1.029v-3.325c0-0.93-0.34-1.704-1.311-1.704c-0.668,0-1.194,0.489-1.382,1.073
		c-0.047,0.131-0.07,0.31-0.07,0.488v3.468h-1.029V379.333z"/>
	<path d="M169.444,390.682v1.383h1.475v0.798h-1.475v3.11c0,0.715,0.199,1.12,0.772,1.12c0.281,0,0.445-0.023,0.597-0.071
		l0.047,0.799c-0.198,0.071-0.515,0.143-0.912,0.143c-0.48,0-0.866-0.167-1.112-0.44c-0.281-0.322-0.397-0.835-0.397-1.514v-3.146
		h-0.878v-0.798h0.878v-1.073L169.444,390.682z"/>
	<path d="M177.132,394.901c0,2.133-1.463,3.062-2.82,3.062c-1.521,0-2.716-1.144-2.716-2.967c0-1.919,1.253-3.051,2.81-3.051
		C176.031,391.946,177.132,393.149,177.132,394.901z M172.649,394.96c0,1.264,0.702,2.217,1.709,2.217c0.982,0,1.72-0.941,1.72-2.24
		c0-0.978-0.479-2.205-1.696-2.205C173.176,392.732,172.649,393.876,172.649,394.96z"/>
	<path d="M181.316,392.065l0.761,2.932c0.152,0.644,0.305,1.239,0.41,1.835h0.035c0.129-0.584,0.315-1.204,0.503-1.823l0.925-2.943
		h0.866l0.877,2.884c0.211,0.691,0.375,1.299,0.504,1.883h0.035c0.094-0.584,0.245-1.191,0.433-1.871l0.808-2.896h1.019
		l-1.826,5.768h-0.937l-0.865-2.753c-0.199-0.644-0.363-1.216-0.504-1.895h-0.023c-0.141,0.691-0.315,1.287-0.515,1.906
		l-0.913,2.741h-0.937l-1.708-5.768H181.316z"/>
	<path d="M194.525,394.901c0,2.133-1.463,3.062-2.82,3.062c-1.521,0-2.716-1.144-2.716-2.967c0-1.919,1.253-3.051,2.81-3.051
		C193.425,391.946,194.525,393.149,194.525,394.901z M190.043,394.96c0,1.264,0.702,2.217,1.709,2.217c0.982,0,1.72-0.941,1.72-2.24
		c0-0.978-0.479-2.205-1.696-2.205C190.569,392.732,190.043,393.876,190.043,394.96z"/>
	<path d="M200.562,396.248c0,0.607,0.012,1.132,0.046,1.585h-0.912l-0.059-0.941h-0.023c-0.258,0.465-0.866,1.072-1.873,1.072
		c-0.89,0-1.954-0.512-1.954-2.526v-3.372h1.03v3.182c0,1.097,0.339,1.847,1.264,1.847c0.69,0,1.17-0.488,1.357-0.965
		c0.059-0.143,0.094-0.334,0.094-0.536v-3.527h1.03V396.248z"/>
	<path d="M202.267,393.625c0-0.607-0.012-1.084-0.047-1.561h0.913l0.059,0.953h0.023c0.28-0.536,0.936-1.072,1.872-1.072
		c0.784,0,2.001,0.477,2.001,2.455v3.432h-1.029v-3.325c0-0.93-0.34-1.704-1.311-1.704c-0.668,0-1.194,0.489-1.382,1.073
		c-0.047,0.131-0.07,0.31-0.07,0.488v3.468h-1.029V393.625z"/>
	<path d="M213.639,389.372v6.972c0,0.512,0.023,1.096,0.047,1.489h-0.913l-0.046-1.001h-0.035c-0.305,0.644-0.983,1.132-1.908,1.132
		c-1.369,0-2.435-1.18-2.435-2.932c-0.012-1.918,1.171-3.086,2.54-3.086c0.878,0,1.451,0.417,1.709,0.869h0.023v-3.443H213.639z
		 M212.621,394.413c0-0.132-0.012-0.311-0.047-0.441c-0.152-0.655-0.714-1.203-1.486-1.203c-1.065,0-1.697,0.953-1.697,2.216
		c0,1.168,0.573,2.134,1.674,2.134c0.69,0,1.322-0.477,1.51-1.252c0.035-0.143,0.047-0.285,0.047-0.452V394.413z"/>
</g>
<g>
	<path d="M352.805,281.423v2.801h2.645v0.715h-2.645v2.824h-0.749v-2.824h-2.646v-0.715h2.646v-2.801H352.805z"/>
</g>
<g>
	<path d="M222.819,281.423v2.801h2.645v0.715h-2.645v2.824h-0.749v-2.824h-2.646v-0.715h2.646v-2.801H222.819z"/>
</g>
<g>
	<path d="M100.197,412.338v0.597h-5.852v-0.597H100.197z"/>
</g>
<g>
	<path d="M470.869,415.317v0.596h-5.852v-0.596H470.869z"/>
</g>
<g>
	<path d="M471.11,431.889h0.023c0.141-0.203,0.327-0.453,0.491-0.655l1.674-1.99h1.229l-2.176,2.371l2.492,3.396h-1.264
		l-1.943-2.765l-0.526,0.596v2.169h-1.019v-8.461h1.019V431.889z"/>
	<path d="M475.496,433.82c0.293,0.179,0.96,0.477,1.686,0.477c1.311,0,1.732-0.847,1.721-1.502
		c-0.012-1.084-0.972-1.549-1.967-1.549h-0.572v-0.787h0.572c0.75,0,1.697-0.393,1.697-1.311c0-0.62-0.386-1.168-1.334-1.168
		c-0.608,0-1.193,0.274-1.521,0.513l-0.281-0.763c0.41-0.298,1.183-0.596,2.002-0.596c1.498,0,2.177,0.905,2.177,1.847
		c0,0.811-0.479,1.49-1.404,1.836v0.023c0.937,0.179,1.685,0.894,1.696,1.979c0,1.239-0.959,2.323-2.773,2.323
		c-0.854,0-1.604-0.273-1.978-0.524L475.496,433.82z"/>
	<path d="M452.779,445.334c0-0.679-0.012-1.263-0.047-1.799h0.9l0.047,1.144h0.035c0.258-0.774,0.89-1.263,1.58-1.263
		c0.105,0,0.188,0.012,0.281,0.023v0.989c-0.105-0.023-0.211-0.023-0.352-0.023c-0.726,0-1.24,0.548-1.381,1.334
		c-0.023,0.144-0.035,0.322-0.035,0.489v3.074h-1.029V445.334z"/>
	<path d="M457.061,446.61c0.023,1.418,0.901,2.002,1.943,2.002c0.736,0,1.193-0.131,1.568-0.298l0.187,0.751
		c-0.362,0.167-0.995,0.369-1.896,0.369c-1.744,0-2.785-1.18-2.785-2.92c0-1.739,1.006-3.098,2.656-3.098
		c1.861,0,2.34,1.645,2.34,2.705c0,0.214-0.012,0.369-0.034,0.488H457.061z M460.08,445.859c0.012-0.655-0.27-1.692-1.428-1.692
		c-1.053,0-1.498,0.966-1.58,1.692H460.08z"/>
	<path d="M462.348,445.096c0-0.607-0.023-1.084-0.047-1.561h0.901l0.047,0.941h0.035c0.315-0.549,0.843-1.061,1.79-1.061
		c0.762,0,1.347,0.477,1.592,1.155h0.023c0.176-0.333,0.41-0.571,0.645-0.75c0.34-0.263,0.702-0.405,1.24-0.405
		c0.761,0,1.873,0.5,1.873,2.502v3.385h-1.007v-3.253c0-1.121-0.409-1.776-1.229-1.776c-0.596,0-1.041,0.441-1.229,0.941
		c-0.047,0.155-0.082,0.334-0.082,0.524v3.563h-1.006v-3.456c0-0.918-0.398-1.573-1.183-1.573c-0.632,0-1.112,0.524-1.275,1.049
		c-0.059,0.144-0.082,0.334-0.082,0.513v3.468h-1.007V445.096z"/>
	<path d="M477.23,446.372c0,2.133-1.463,3.062-2.82,3.062c-1.521,0-2.715-1.144-2.715-2.967c0-1.919,1.252-3.051,2.809-3.051
		C476.131,443.417,477.23,444.62,477.23,446.372z M472.748,446.431c0,1.264,0.702,2.217,1.709,2.217c0.982,0,1.721-0.941,1.721-2.24
		c0-0.978-0.48-2.205-1.697-2.205C473.275,444.203,472.748,445.347,472.748,446.431z"/>
	<path d="M478.843,443.536l1.112,3.229c0.187,0.536,0.339,1.013,0.455,1.489h0.035c0.129-0.477,0.293-0.953,0.48-1.489l1.1-3.229
		h1.077l-2.224,5.768h-0.982l-2.154-5.768H478.843z"/>
	<path d="M484.527,446.61c0.023,1.418,0.902,2.002,1.943,2.002c0.737,0,1.193-0.131,1.568-0.298l0.188,0.751
		c-0.363,0.167-0.995,0.369-1.896,0.369c-1.744,0-2.785-1.18-2.785-2.92c0-1.739,1.006-3.098,2.656-3.098
		c1.861,0,2.341,1.645,2.341,2.705c0,0.214-0.011,0.369-0.034,0.488H484.527z M487.547,445.859c0.012-0.655-0.269-1.692-1.428-1.692
		c-1.053,0-1.498,0.966-1.58,1.692H487.547z"/>
	<path d="M494.695,440.842v6.972c0,0.512,0.023,1.096,0.047,1.489h-0.912l-0.047-1.001h-0.035c-0.305,0.644-0.983,1.132-1.908,1.132
		c-1.369,0-2.434-1.18-2.434-2.932c-0.012-1.918,1.17-3.086,2.539-3.086c0.878,0,1.451,0.417,1.709,0.869h0.023v-3.443H494.695z
		 M493.678,445.883c0-0.132-0.012-0.311-0.047-0.441c-0.152-0.655-0.715-1.203-1.486-1.203c-1.065,0-1.697,0.953-1.697,2.216
		c0,1.168,0.574,2.134,1.674,2.134c0.69,0,1.322-0.477,1.51-1.252c0.035-0.143,0.047-0.285,0.047-0.452V445.883z"/>
	<path d="M454.593,456.446v1.383h1.475v0.798h-1.475v3.11c0,0.715,0.199,1.12,0.772,1.12c0.281,0,0.445-0.023,0.598-0.071
		l0.047,0.799c-0.199,0.071-0.516,0.143-0.914,0.143c-0.479,0-0.865-0.167-1.111-0.44c-0.281-0.322-0.398-0.835-0.398-1.514v-3.146
		h-0.877v-0.798h0.877v-1.073L454.593,456.446z"/>
	<path d="M462.28,460.665c0,2.133-1.463,3.062-2.82,3.062c-1.521,0-2.716-1.144-2.716-2.967c0-1.919,1.252-3.051,2.809-3.051
		C461.18,457.709,462.28,458.913,462.28,460.665z M457.798,460.724c0,1.264,0.702,2.217,1.708,2.217c0.984,0,1.721-0.941,1.721-2.24
		c0-0.978-0.479-2.205-1.697-2.205C458.324,458.496,457.798,459.64,457.798,460.724z"/>
	<path d="M465.916,462.536c0.316,0.19,0.854,0.405,1.369,0.405c0.737,0,1.089-0.369,1.089-0.858c0-0.5-0.293-0.763-1.042-1.049
		c-1.029-0.381-1.51-0.941-1.51-1.633c0-0.929,0.749-1.691,1.955-1.691c0.573,0,1.076,0.154,1.381,0.357l-0.246,0.763
		c-0.223-0.144-0.632-0.346-1.158-0.346c-0.609,0-0.937,0.357-0.937,0.786c0,0.477,0.327,0.691,1.065,0.989
		c0.971,0.369,1.486,0.87,1.486,1.729c0,1.024-0.785,1.739-2.107,1.739c-0.62,0-1.193-0.167-1.592-0.405L465.916,462.536z"/>
	<path d="M470.689,459.711c0-0.739-0.023-1.335-0.047-1.883h0.912l0.059,0.989h0.023c0.41-0.703,1.088-1.108,2.014-1.108
		c1.381,0,2.41,1.18,2.41,2.919c0,2.074-1.252,3.099-2.586,3.099c-0.75,0-1.404-0.333-1.744-0.905h-0.023v3.134h-1.018V459.711z
		 M471.707,461.249c0,0.155,0.012,0.298,0.047,0.429c0.188,0.728,0.808,1.228,1.545,1.228c1.088,0,1.721-0.905,1.721-2.229
		c0-1.144-0.598-2.133-1.686-2.133c-0.702,0-1.369,0.5-1.557,1.287c-0.035,0.131-0.07,0.286-0.07,0.417V461.249z"/>
	<path d="M477.346,455.135h1.029v8.461h-1.029V455.135z"/>
	<path d="M480.68,460.903c0.023,1.418,0.9,2.002,1.942,2.002c0.737,0,1.194-0.131,1.568-0.298l0.187,0.751
		c-0.362,0.167-0.994,0.369-1.896,0.369c-1.743,0-2.785-1.18-2.785-2.92c0-1.739,1.007-3.098,2.657-3.098
		c1.86,0,2.34,1.645,2.34,2.705c0,0.214-0.012,0.369-0.035,0.488H480.68z M483.699,460.152c0.012-0.655-0.27-1.692-1.428-1.692
		c-1.054,0-1.498,0.966-1.58,1.692H483.699z"/>
	<path d="M486.54,460.903c0.023,1.418,0.901,2.002,1.942,2.002c0.738,0,1.194-0.131,1.568-0.298l0.188,0.751
		c-0.363,0.167-0.994,0.369-1.896,0.369c-1.743,0-2.785-1.18-2.785-2.92c0-1.739,1.007-3.098,2.657-3.098
		c1.86,0,2.341,1.645,2.341,2.705c0,0.214-0.012,0.369-0.035,0.488H486.54z M489.56,460.152c0.012-0.655-0.269-1.692-1.428-1.692
		c-1.054,0-1.498,0.966-1.58,1.692H489.56z"/>
	<path d="M491.828,459.389c0-0.607-0.012-1.084-0.047-1.561h0.912l0.059,0.953h0.023c0.281-0.536,0.937-1.072,1.873-1.072
		c0.783,0,2.001,0.477,2.001,2.455v3.432h-1.03v-3.325c0-0.93-0.34-1.704-1.311-1.704c-0.667,0-1.193,0.489-1.381,1.073
		c-0.047,0.131-0.07,0.31-0.07,0.488v3.468h-1.029V459.389z"/>
</g>
<g>
	<path d="M200.167,219.506v2.801h2.645v0.715h-2.645v2.824h-0.749v-2.824h-2.646v-0.715h2.646v-2.801H200.167z"/>
	<path d="M195.92,237.016h0.022c0.141-0.203,0.328-0.453,0.492-0.655l1.674-1.99h1.229l-2.177,2.371l2.493,3.396h-1.265
		l-1.942-2.765l-0.526,0.596v2.169h-1.019v-8.461h1.019V237.016z"/>
	<path d="M203.244,240.138v-2.121h-3.534v-0.68l3.394-4.945h1.112v4.814h1.064v0.811h-1.064v2.121H203.244z M203.244,237.207v-2.586
		c0-0.405,0.012-0.811,0.035-1.216h-0.035c-0.234,0.453-0.421,0.787-0.632,1.145l-1.861,2.634v0.023H203.244z"/>
</g>
<g>
	<path d="M154.684,285.731v2.801h2.645v0.715h-2.645v2.824h-0.749v-2.824h-2.646v-0.715h2.646v-2.801H154.684z"/>
</g>
<g>
	<path d="M415.048,293.038v2.801h2.645v0.715h-2.645v2.824h-0.749v-2.824h-2.646v-0.715h2.646v-2.801H415.048z"/>
</g>
<g>
	<g>
		<line fill="none" stroke="#231F20" x1="290.246" y1="260.489" x2="290.246" y2="169.445"/>
		<polygon fill="#231F20" points="293.949,172.254 290.246,170.681 286.542,172.254 290.246,163.476 		"/>
	</g>
</g>
<g>
	<path d="M304.508,226.649v7.016c0,0.516,0.023,1.103,0.047,1.499h-0.936l-0.047-1.007h-0.037c-0.312,0.647-1.007,1.139-1.955,1.139
		c-1.402,0-2.494-1.188-2.494-2.95c-0.012-1.931,1.199-3.106,2.603-3.106c0.899,0,1.487,0.42,1.751,0.875h0.024v-3.466H304.508z
		 M303.464,231.723c0-0.132-0.013-0.312-0.048-0.444c-0.156-0.66-0.732-1.211-1.523-1.211c-1.092,0-1.739,0.959-1.739,2.231
		c0,1.175,0.588,2.146,1.716,2.146c0.707,0,1.354-0.479,1.547-1.259c0.035-0.144,0.048-0.288,0.048-0.456V231.723z"/>
	<path d="M305.938,235.165v-0.647l0.828-0.804c1.991-1.895,2.902-2.902,2.902-4.078c0-0.792-0.371-1.523-1.535-1.523
		c-0.707,0-1.295,0.36-1.654,0.66l-0.336-0.744c0.527-0.444,1.307-0.792,2.194-0.792c1.679,0,2.387,1.151,2.387,2.267
		c0,1.439-1.044,2.603-2.687,4.186l-0.611,0.576v0.024h3.49v0.875H305.938z"/>
</g>
<g>
	<path d="M278.565,145.105c0.636-0.108,1.391-0.18,2.219-0.18c1.499,0,2.566,0.36,3.274,1.007c0.732,0.66,1.151,1.595,1.151,2.902
		c0,1.319-0.419,2.399-1.163,3.143c-0.768,0.755-2.015,1.163-3.586,1.163c-0.756,0-1.367-0.036-1.895-0.096V145.105z
		 M279.609,152.253c0.264,0.036,0.647,0.048,1.055,0.048c2.243,0,3.442-1.248,3.442-3.43c0.012-1.907-1.067-3.118-3.274-3.118
		c-0.54,0-0.947,0.048-1.223,0.108V152.253z"/>
	<path d="M287.157,150.358c0.024,1.427,0.923,2.015,1.991,2.015c0.755,0,1.223-0.132,1.607-0.3l0.192,0.756
		c-0.372,0.168-1.019,0.372-1.943,0.372c-1.787,0-2.854-1.187-2.854-2.938c0-1.751,1.032-3.118,2.723-3.118
		c1.907,0,2.399,1.655,2.399,2.723c0,0.216-0.012,0.372-0.036,0.492H287.157z M290.251,149.602c0.012-0.659-0.276-1.703-1.463-1.703
		c-1.079,0-1.535,0.971-1.619,1.703H290.251z"/>
	<path d="M296.718,152.864c-0.276,0.132-0.888,0.336-1.667,0.336c-1.751,0-2.891-1.187-2.891-2.962c0-1.787,1.224-3.094,3.119-3.094
		c0.624,0,1.175,0.156,1.463,0.312l-0.24,0.803c-0.252-0.132-0.647-0.276-1.223-0.276c-1.332,0-2.051,0.996-2.051,2.195
		c0,1.343,0.864,2.171,2.015,2.171c0.6,0,0.996-0.144,1.295-0.276L296.718,152.864z"/>
	<path d="M302.034,151.677c0,0.503,0.024,0.995,0.084,1.391h-0.947l-0.084-0.731h-0.036c-0.324,0.456-0.947,0.863-1.775,0.863
		c-1.175,0-1.774-0.828-1.774-1.667c0-1.403,1.247-2.171,3.489-2.159v-0.12c0-0.468-0.131-1.343-1.318-1.331
		c-0.552,0-1.116,0.156-1.523,0.432l-0.24-0.708c0.479-0.3,1.187-0.504,1.919-0.504c1.774,0,2.206,1.211,2.206,2.363V151.677z
		 M301.016,150.106c-1.152-0.024-2.459,0.18-2.459,1.307c0,0.696,0.456,1.008,0.983,1.008c0.768,0,1.26-0.48,1.428-0.972
		c0.036-0.12,0.049-0.24,0.049-0.336V150.106z"/>
	<path d="M304.028,147.264l1.259,3.43c0.145,0.384,0.289,0.839,0.385,1.187h0.023c0.107-0.348,0.229-0.792,0.372-1.211l1.151-3.406
		h1.115l-1.583,4.138c-0.756,1.991-1.271,2.998-1.991,3.634c-0.527,0.444-1.031,0.624-1.295,0.672l-0.264-0.875
		c0.264-0.084,0.611-0.252,0.924-0.516c0.287-0.228,0.635-0.636,0.887-1.176c0.048-0.108,0.084-0.192,0.084-0.251
		c0-0.06-0.023-0.144-0.084-0.276l-2.135-5.349H304.028z"/>
</g>
<radialGradient id="path16609_2_" cx="249.3062" cy="-551.5015" r="27.2669" gradientTransform="matrix(1.5532 0 0 0.6311 -97.9521 467.658)" gradientUnits="userSpaceOnUse">
	<stop  offset="0" style="stop-color:#C2DA65"/>
	<stop  offset="0.4082" style="stop-color:#C2DA65"/>
	<stop  offset="0.5552" style="stop-color:#BDD967"/>
	<stop  offset="0.66" style="stop-color:#B9D766"/>
	<stop  offset="0.7448" style="stop-color:#B1D466"/>
	<stop  offset="0.8174" style="stop-color:#A8D166"/>
	<stop  offset="0.8817" style="stop-color:#9DCE66"/>
	<stop  offset="0.9398" style="stop-color:#93CA65"/>
	<stop  offset="0.9915" style="stop-color:#89C762"/>
	<stop  offset="1" style="stop-color:#87C763"/>
</radialGradient>
<path id="path16609_4_" fill="url(#path16609_2_)" stroke="#010101" d="M326.75,121.176c0-4.445-1.865-11.729-5.117,7.971
	c-1.627-11.071-3.602-10.408-5.863,3.196c-2.26,4.625-4.809-10.258-7.586,2.47c-2.775-8.595-5.779-3.611-8.953-2.323
	c-3.171,5.229-6.512,4.79-9.96,4.479c-3.45-2.526-6.791-14.286-9.964,1.619c-3.172-12.428-6.176-15.254-8.952-3.774
	c-2.776-6.449-5.325,9.515-7.585-9.762c-2.262-5.315-4.234-5.067-5.86,4.096c-3.253,1.901-5.117-19.312-5.117-7.972
	c0,9.869,1.864-0.642,5.117-7.972c1.626,1.819,3.599,1.092,5.86-0.435c2.26-3.568,4.809-7.234,7.585-5.229
	c2.776-9.502,5.78,7.933,8.952-3.506c3.173,15.761,6.514-14.536,9.964,1.351c3.448-9.906,6.789,6.519,9.96,0.564
	c3.174-2.133,6.178-9.753,8.953,1.592c5.553,10.68,10.195,13.356,13.449,5.664C324.885,105.536,326.75,106.214,326.75,121.176z"/>
</svg>
