<?xml version="1.0" encoding="utf-8"?>
<!-- Generator: Adobe Illustrator 12.0.1, SVG Export Plug-In . SVG Version: 6.00 Build 51448)  -->
<!DOCTYPE svg PUBLIC "-//W3C//DTD SVG 1.1//EN" "http://www.w3.org/Graphics/SVG/1.1/DTD/svg11.dtd" [
	<!ENTITY ns_svg "http://www.w3.org/2000/svg">
	<!ENTITY ns_xlink "http://www.w3.org/1999/xlink">
]>
<svg  version="1.1" id="Layer_1" xmlns="&ns_svg;" xmlns:xlink="&ns_xlink;" width="477" height="360" viewBox="0 0 477 360"
	 overflow="visible" enable-background="new 0 0 477 360" xml:space="preserve">
<g>
	<defs>
		<rect id="XMLID_1_" x="-83" y="-92" width="612" height="792"/>
	</defs>
	<clipPath id="XMLID_3_">
		<use xlink:href="#XMLID_1_" />
	</clipPath>
	<path clip-path="url(#XMLID_3_)" fill="none" stroke="#000000" d="M115.667,297.667C58.333,268.334,48.333,160,109,122"/>
	<polygon clip-path="url(#XMLID_3_)" points="108.585,126.629 107.953,122.656 104.653,120.352 114.059,118.832 	"/>
	<path clip-path="url(#XMLID_3_)" fill="#6AACC5" d="M301.132,214.951c0,2.6-2.537,4.705-5.668,4.705h-57.287
		c-3.133,0-5.67-2.105-5.67-4.705v-19.902c0-2.6,2.537-4.707,5.67-4.707h57.287c3.131,0,5.668,2.107,5.668,4.707V214.951z"/>
	<path clip-path="url(#XMLID_3_)" fill="none" stroke="#231F20" d="M301.132,214.951c0,2.6-2.537,4.705-5.668,4.705h-57.287
		c-3.133,0-5.67-2.105-5.67-4.705v-19.902c0-2.6,2.537-4.707,5.67-4.707h57.287c3.131,0,5.668,2.107,5.668,4.707V214.951z"/>
	<g clip-path="url(#XMLID_3_)">
		<path d="M261.401,200.542c0.456-0.096,1.176-0.168,1.908-0.168c1.044,0,1.716,0.18,2.22,0.588c0.42,0.312,0.672,0.792,0.672,1.428
			c0,0.78-0.516,1.464-1.368,1.776v0.024c0.769,0.192,1.668,0.828,1.668,2.028c0,0.696-0.275,1.224-0.684,1.62
			c-0.564,0.516-1.477,0.756-2.796,0.756c-0.721,0-1.272-0.048-1.62-0.096V200.542z M262.445,203.854h0.948
			c1.104,0,1.752-0.576,1.752-1.356c0-0.948-0.721-1.32-1.776-1.32c-0.479,0-0.756,0.036-0.924,0.072V203.854z M262.445,207.729
			c0.204,0.036,0.504,0.048,0.876,0.048c1.08,0,2.076-0.396,2.076-1.572c0-1.104-0.948-1.56-2.088-1.56h-0.864V207.729z"/>
		<path d="M267.533,208.521v-0.648l0.828-0.804c1.992-1.896,2.892-2.904,2.904-4.08c0-0.792-0.385-1.524-1.549-1.524
			c-0.708,0-1.296,0.36-1.655,0.66l-0.336-0.744c0.54-0.456,1.308-0.792,2.208-0.792c1.68,0,2.388,1.152,2.388,2.268
			c0,1.44-1.044,2.604-2.688,4.188l-0.624,0.576v0.024h3.505v0.876H267.533z"/>
	</g>
	<path clip-path="url(#XMLID_3_)" fill="#6AACC5" d="M183.647,124.338c0,2.6-2.537,4.705-5.668,4.705h-57.287
		c-3.132,0-5.67-2.105-5.67-4.705v-19.902c0-2.6,2.538-4.707,5.67-4.707h57.287c3.131,0,5.668,2.107,5.668,4.707V124.338z"/>
	<path clip-path="url(#XMLID_3_)" fill="none" stroke="#231F20" d="M183.647,124.338c0,2.6-2.537,4.705-5.668,4.705h-57.287
		c-3.132,0-5.67-2.105-5.67-4.705v-19.902c0-2.6,2.538-4.707,5.67-4.707h57.287c3.131,0,5.668,2.107,5.668,4.707V124.338z"/>
	<g clip-path="url(#XMLID_3_)">
		<path d="M147.409,109.819v4.788c0,1.812,0.804,2.58,1.884,2.58c1.2,0,1.968-0.792,1.968-2.58v-4.788h1.056v4.716
			c0,2.484-1.308,3.504-3.06,3.504c-1.656,0-2.904-0.948-2.904-3.456v-4.764H147.409z"/>
	</g>
	<path clip-path="url(#XMLID_3_)" fill="#6AACC5" d="M425.145,124.338c0,2.6-2.537,4.705-5.668,4.705h-57.287
		c-3.133,0-5.67-2.105-5.67-4.705v-19.902c0-2.6,2.537-4.707,5.67-4.707h57.287c3.131,0,5.668,2.107,5.668,4.707V124.338z"/>
	<path clip-path="url(#XMLID_3_)" fill="none" stroke="#231F20" d="M425.145,124.338c0,2.6-2.537,4.705-5.668,4.705h-57.287
		c-3.133,0-5.67-2.105-5.67-4.705v-19.902c0-2.6,2.537-4.707,5.67-4.707h57.287c3.131,0,5.668,2.107,5.668,4.707V124.338z"/>
	<g clip-path="url(#XMLID_3_)">
		<path d="M385.414,109.928c0.456-0.096,1.176-0.168,1.908-0.168c1.044,0,1.716,0.18,2.22,0.588c0.42,0.312,0.672,0.792,0.672,1.428
			c0,0.78-0.516,1.464-1.368,1.776v0.024c0.769,0.192,1.668,0.828,1.668,2.028c0,0.696-0.275,1.224-0.684,1.62
			c-0.564,0.516-1.477,0.756-2.796,0.756c-0.72,0-1.272-0.048-1.62-0.096V109.928z M386.458,113.24h0.948
			c1.104,0,1.752-0.576,1.752-1.356c0-0.948-0.721-1.32-1.776-1.32c-0.479,0-0.756,0.036-0.924,0.072V113.24z M386.458,117.116
			c0.204,0.036,0.504,0.048,0.876,0.048c1.08,0,2.076-0.396,2.076-1.572c0-1.104-0.948-1.56-2.088-1.56h-0.864V117.116z"/>
		<path d="M393.838,111.092h-0.024l-1.355,0.732l-0.204-0.804l1.704-0.912h0.899v7.8h-1.02V111.092z"/>
	</g>
	<path clip-path="url(#XMLID_3_)" fill="#6AACC5" d="M183.647,309.908c0,2.6-2.537,4.705-5.668,4.705h-57.287
		c-3.132,0-5.67-2.105-5.67-4.705v-19.902c0-2.6,2.538-4.707,5.67-4.707h57.287c3.131,0,5.668,2.107,5.668,4.707V309.908z"/>
	<path clip-path="url(#XMLID_3_)" fill="none" stroke="#231F20" d="M183.647,309.908c0,2.6-2.537,4.705-5.668,4.705h-57.287
		c-3.132,0-5.67-2.105-5.67-4.705v-19.902c0-2.6,2.538-4.707,5.67-4.707h57.287c3.131,0,5.668,2.107,5.668,4.707V309.908z"/>
	<g clip-path="url(#XMLID_3_)">
		<path d="M147.019,295.498c0.528-0.108,1.284-0.168,2.004-0.168c1.116,0,1.836,0.204,2.34,0.66c0.408,0.36,0.636,0.912,0.636,1.536
			c0,1.068-0.672,1.776-1.524,2.064v0.036c0.624,0.216,0.996,0.792,1.188,1.632c0.264,1.128,0.456,1.908,0.624,2.22h-1.08
			c-0.132-0.24-0.312-0.924-0.54-1.932c-0.24-1.116-0.672-1.536-1.62-1.572h-0.984v3.504h-1.044V295.498z M148.063,299.182h1.068
			c1.116,0,1.824-0.612,1.824-1.536c0-1.044-0.756-1.5-1.86-1.512c-0.504,0-0.864,0.048-1.032,0.096V299.182z"/>
	</g>
	<path clip-path="url(#XMLID_3_)" fill="#6AACC5" d="M284.82,22.406c0,9.941-8.059,18-18,18s-18.002-8.059-18.002-18
		s8.061-18,18.002-18S284.82,12.465,284.82,22.406"/>
	<circle clip-path="url(#XMLID_3_)" fill="none" stroke="#231F20" cx="266.819" cy="22.406" r="18.001"/>
	<g clip-path="url(#XMLID_3_)">
		<path d="M264.539,17.935c0.504-0.084,1.164-0.156,2.004-0.156c1.032,0,1.788,0.24,2.268,0.672
			c0.444,0.384,0.708,0.972,0.708,1.692c0,0.732-0.216,1.308-0.624,1.728c-0.552,0.588-1.451,0.888-2.472,0.888
			c-0.312,0-0.6-0.012-0.84-0.072v3.24h-1.044V17.935z M265.583,21.835c0.228,0.06,0.516,0.084,0.864,0.084
			c1.26,0,2.027-0.612,2.027-1.728c0-1.068-0.756-1.584-1.907-1.584c-0.456,0-0.805,0.036-0.984,0.084V21.835z"/>
	</g>
	<line clip-path="url(#XMLID_3_)" fill="none" stroke="#000000" x1="197.833" y1="113.386" x2="341.334" y2="113.386"/>
	<polygon clip-path="url(#XMLID_3_)" points="338.524,117.089 340.098,113.386 338.524,109.682 347.303,113.386 	"/>
	<polygon clip-path="url(#XMLID_3_)" points="200.642,109.683 199.069,113.386 200.642,117.09 191.864,113.386 	"/>
	<path clip-path="url(#XMLID_3_)" fill="none" stroke="#000000" d="M341.688,106.479c-27.697,0-72.085-27.984-72.084-57.083"/>
	<polygon clip-path="url(#XMLID_3_)" points="273.307,52.205 269.604,50.632 265.899,52.205 269.604,43.427 	"/>
	<polygon clip-path="url(#XMLID_3_)" points="338.879,110.183 340.451,106.479 338.879,102.775 347.656,106.479 	"/>
	<path clip-path="url(#XMLID_3_)" fill="none" stroke="#000000" d="M341.444,122.389c-25.444,0-68.351,29.861-68.351,55.822"/>
	<polygon clip-path="url(#XMLID_3_)" points="269.391,175.402 273.094,176.975 276.798,175.402 273.094,184.18 	"/>
	<polygon clip-path="url(#XMLID_3_)" points="338.636,126.092 340.209,122.389 338.636,118.685 347.414,122.389 	"/>
	<path clip-path="url(#XMLID_3_)" fill="none" stroke="#000000" d="M197.095,122.389c25.155,0,68.351,29.611,68.351,55.822"/>
	<polygon clip-path="url(#XMLID_3_)" points="261.742,175.402 265.445,176.975 269.149,175.402 265.445,184.18 	"/>
	<polygon clip-path="url(#XMLID_3_)" points="199.903,118.686 198.33,122.389 199.903,126.092 191.125,122.389 	"/>
	<path clip-path="url(#XMLID_3_)" fill="none" stroke="#000000" d="M227.333,206c-30.772,0-77,37.937-77,69.333"/>
	<polygon clip-path="url(#XMLID_3_)" points="146.63,272.525 150.333,274.098 154.038,272.525 150.333,281.303 	"/>
	<g clip-path="url(#XMLID_3_)">
		<path fill="#006838" d="M310.623,318.579v4.788c0,1.812,0.804,2.58,1.884,2.58c1.2,0,1.968-0.792,1.968-2.58v-4.788h1.057v4.716
			c0,2.484-1.309,3.504-3.061,3.504c-1.655,0-2.903-0.948-2.903-3.456v-4.764H310.623z"/>
		<path fill="#006838" d="M317.307,322.755c0-0.744-0.024-1.344-0.048-1.896h0.948l0.048,0.995h0.023
			c0.433-0.708,1.116-1.128,2.064-1.128c1.404,0,2.46,1.188,2.46,2.952c0,2.088-1.272,3.12-2.64,3.12
			c-0.769,0-1.44-0.336-1.788-0.912h-0.024v3.156h-1.044V322.755z M318.351,324.303c0,0.156,0.024,0.3,0.048,0.433
			c0.192,0.731,0.828,1.235,1.584,1.235c1.116,0,1.765-0.912,1.765-2.244c0-1.164-0.612-2.159-1.729-2.159
			c-0.72,0-1.392,0.516-1.596,1.308c-0.036,0.132-0.072,0.288-0.072,0.432V324.303z"/>
		<path fill="#006838" d="M326.763,323.031v0.779h-2.964v-0.779H326.763z"/>
		<path fill="#006838" d="M327.998,322.671c0-0.684-0.012-1.271-0.048-1.812h0.924l0.036,1.14h0.048
			c0.264-0.78,0.9-1.272,1.608-1.272c0.12,0,0.204,0.013,0.3,0.036v0.996c-0.108-0.023-0.216-0.036-0.36-0.036
			c-0.744,0-1.271,0.564-1.416,1.356c-0.023,0.144-0.048,0.312-0.048,0.492v3.096h-1.044V322.671z"/>
		<path fill="#006838" d="M332.402,323.955c0.024,1.428,0.937,2.016,1.992,2.016c0.756,0,1.212-0.132,1.608-0.3l0.18,0.756
			c-0.372,0.168-1.008,0.372-1.933,0.372c-1.787,0-2.855-1.188-2.855-2.939s1.032-3.133,2.724-3.133c1.896,0,2.4,1.668,2.4,2.736
			c0,0.216-0.024,0.384-0.036,0.492H332.402z M335.498,323.199c0.013-0.672-0.275-1.716-1.464-1.716
			c-1.067,0-1.536,0.983-1.62,1.716H335.498z"/>
		<path fill="#006838" d="M342.782,325.827c0,1.332-0.264,2.147-0.828,2.651c-0.563,0.528-1.38,0.696-2.112,0.696
			c-0.695,0-1.464-0.168-1.932-0.479l0.264-0.805c0.385,0.24,0.984,0.456,1.704,0.456c1.08,0,1.872-0.563,1.872-2.027v-0.648h-0.023
			c-0.324,0.54-0.948,0.972-1.849,0.972c-1.439,0-2.472-1.224-2.472-2.832c0-1.968,1.284-3.084,2.616-3.084
			c1.008,0,1.56,0.528,1.812,1.009h0.024l0.048-0.876h0.924c-0.023,0.42-0.048,0.888-0.048,1.596V325.827z M341.738,323.151
			c0-0.181-0.012-0.336-0.061-0.48c-0.191-0.612-0.707-1.116-1.476-1.116c-1.008,0-1.728,0.853-1.728,2.196
			c0,1.14,0.575,2.088,1.716,2.088c0.647,0,1.235-0.408,1.464-1.08c0.06-0.18,0.084-0.384,0.084-0.563V323.151z"/>
		<path fill="#006838" d="M349.395,325.083c0,0.6,0.012,1.128,0.048,1.584h-0.937l-0.06-0.948h-0.024
			c-0.275,0.468-0.888,1.08-1.92,1.08c-0.912,0-2.004-0.504-2.004-2.544v-3.396h1.057v3.216c0,1.104,0.336,1.848,1.296,1.848
			c0.708,0,1.199-0.492,1.392-0.96c0.06-0.156,0.096-0.348,0.096-0.54v-3.563h1.057V325.083z"/>
		<path fill="#006838" d="M351.146,318.146h1.056v8.521h-1.056V318.146z"/>
		<path fill="#006838" d="M358.059,325.275c0,0.504,0.024,0.995,0.096,1.392h-0.96l-0.084-0.732h-0.036
			c-0.323,0.456-0.947,0.864-1.775,0.864c-1.177,0-1.776-0.828-1.776-1.668c0-1.404,1.248-2.172,3.492-2.16v-0.12
			c0-0.479-0.132-1.344-1.32-1.344c-0.54,0-1.104,0.168-1.512,0.432l-0.24-0.695c0.48-0.313,1.176-0.517,1.908-0.517
			c1.776,0,2.208,1.212,2.208,2.376V325.275z M357.038,323.703c-1.151-0.024-2.46,0.18-2.46,1.308c0,0.685,0.456,1.008,0.996,1.008
			c0.756,0,1.236-0.479,1.404-0.972c0.036-0.107,0.06-0.228,0.06-0.336V323.703z"/>
		<path fill="#006838" d="M360.987,319.467v1.393h1.512v0.804h-1.512v3.132c0,0.72,0.203,1.128,0.792,1.128
			c0.287,0,0.456-0.023,0.611-0.072l0.048,0.792c-0.203,0.084-0.527,0.156-0.936,0.156c-0.492,0-0.888-0.168-1.14-0.456
			c-0.301-0.312-0.408-0.828-0.408-1.512v-3.168h-0.9v-0.804h0.9v-1.068L360.987,319.467z"/>
		<path fill="#006838" d="M364.862,319.227c0.013,0.36-0.252,0.648-0.672,0.648c-0.372,0-0.636-0.288-0.636-0.648
			c0-0.372,0.275-0.659,0.66-0.659C364.61,318.567,364.862,318.854,364.862,319.227z M363.687,326.667v-5.808h1.056v5.808H363.687z"
			/>
		<path fill="#006838" d="M371.75,323.715c0,2.148-1.488,3.084-2.892,3.084c-1.572,0-2.784-1.152-2.784-2.988
			c0-1.943,1.271-3.084,2.88-3.084C370.622,320.727,371.75,321.938,371.75,323.715z M367.143,323.775
			c0,1.271,0.731,2.231,1.764,2.231c1.008,0,1.764-0.948,1.764-2.256c0-0.984-0.492-2.232-1.74-2.232
			C367.683,321.519,367.143,322.671,367.143,323.775z"/>
		<path fill="#006838" d="M373.082,322.431c0-0.6-0.012-1.092-0.048-1.571h0.936l0.061,0.96h0.023
			c0.288-0.553,0.96-1.093,1.92-1.093c0.805,0,2.053,0.48,2.053,2.473v3.468h-1.057v-3.348c0-0.937-0.348-1.717-1.344-1.717
			c-0.696,0-1.236,0.492-1.416,1.08c-0.048,0.133-0.072,0.313-0.072,0.492v3.492h-1.056V322.431z"/>
	</g>
	<path clip-path="url(#XMLID_3_)" fill="none" stroke="#000000" stroke-dasharray="3 3" d="M291,22.5C494,25,519,137,389,308"/>
	<polygon clip-path="url(#XMLID_3_)" points="387.752,303.523 389.748,307.017 393.648,308.006 385.388,312.752 	"/>
	
		<line clip-path="url(#XMLID_3_)" fill="none" stroke="#000000" stroke-dasharray="3 3" x1="327" y1="307" x2="299.667" y2="223.333"/>
	<polygon clip-path="url(#XMLID_3_)" points="322.607,305.48 326.616,305.825 329.648,303.181 328.854,312.674 	"/>
	<g clip-path="url(#XMLID_3_)">
		<path fill="#006838" d="M246.71,117.354c0.528-0.108,1.284-0.168,2.004-0.168c1.116,0,1.836,0.204,2.34,0.66
			c0.408,0.36,0.636,0.912,0.636,1.536c0,1.068-0.672,1.776-1.523,2.064v0.036c0.624,0.216,0.996,0.792,1.188,1.632
			c0.265,1.128,0.456,1.908,0.624,2.22h-1.08c-0.132-0.24-0.312-0.924-0.54-1.932c-0.239-1.116-0.672-1.536-1.619-1.572h-0.984
			v3.504h-1.044V117.354z M247.754,121.038h1.068c1.115,0,1.823-0.612,1.823-1.536c0-1.044-0.756-1.5-1.859-1.512
			c-0.504,0-0.864,0.048-1.032,0.096V121.038z"/>
		<path fill="#006838" d="M253.766,122.622c0.024,1.428,0.937,2.016,1.992,2.016c0.756,0,1.212-0.132,1.608-0.3l0.18,0.756
			c-0.372,0.168-1.008,0.372-1.933,0.372c-1.787,0-2.855-1.188-2.855-2.94s1.032-3.132,2.724-3.132c1.896,0,2.4,1.668,2.4,2.736
			c0,0.216-0.024,0.384-0.036,0.492H253.766z M256.861,121.865c0.013-0.672-0.275-1.716-1.464-1.716
			c-1.067,0-1.536,0.984-1.62,1.716H256.861z"/>
		<path fill="#006838" d="M263.329,125.118c-0.275,0.144-0.888,0.348-1.668,0.348c-1.752,0-2.892-1.2-2.892-2.976
			c0-1.788,1.224-3.084,3.12-3.084c0.624,0,1.176,0.156,1.464,0.3l-0.24,0.816c-0.252-0.144-0.647-0.276-1.224-0.276
			c-1.332,0-2.052,0.984-2.052,2.196c0,1.344,0.863,2.172,2.016,2.172c0.6,0,0.996-0.156,1.296-0.288L263.329,125.118z"/>
		<path fill="#006838" d="M265.094,122.622c0.024,1.428,0.937,2.016,1.992,2.016c0.756,0,1.212-0.132,1.608-0.3l0.18,0.756
			c-0.372,0.168-1.008,0.372-1.933,0.372c-1.787,0-2.855-1.188-2.855-2.94s1.032-3.132,2.724-3.132c1.896,0,2.4,1.668,2.4,2.736
			c0,0.216-0.024,0.384-0.036,0.492H265.094z M268.189,121.865c0.013-0.672-0.275-1.716-1.464-1.716
			c-1.067,0-1.536,0.984-1.62,1.716H268.189z"/>
		<path fill="#006838" d="M270.518,121.421c0-0.744-0.024-1.344-0.048-1.896h0.948l0.048,0.996h0.023
			c0.433-0.708,1.116-1.128,2.064-1.128c1.404,0,2.46,1.188,2.46,2.952c0,2.088-1.272,3.12-2.64,3.12
			c-0.769,0-1.44-0.336-1.788-0.912h-0.024v3.156h-1.044V121.421z M271.562,122.969c0,0.156,0.024,0.3,0.048,0.432
			c0.192,0.732,0.828,1.236,1.584,1.236c1.116,0,1.765-0.912,1.765-2.244c0-1.164-0.612-2.16-1.729-2.16
			c-0.72,0-1.392,0.516-1.596,1.308c-0.036,0.132-0.072,0.288-0.072,0.432V122.969z"/>
		<path fill="#006838" d="M278.618,118.133v1.392h1.512v0.804h-1.512v3.132c0,0.72,0.203,1.128,0.792,1.128
			c0.287,0,0.456-0.024,0.611-0.072l0.048,0.792c-0.203,0.084-0.527,0.156-0.936,0.156c-0.492,0-0.888-0.168-1.14-0.456
			c-0.301-0.312-0.408-0.828-0.408-1.512v-3.168h-0.9v-0.804h0.9v-1.068L278.618,118.133z"/>
		<path fill="#006838" d="M286.501,122.381c0,2.148-1.488,3.084-2.892,3.084c-1.572,0-2.784-1.152-2.784-2.988
			c0-1.944,1.271-3.084,2.88-3.084C285.373,119.394,286.501,120.605,286.501,122.381z M281.894,122.441
			c0,1.272,0.731,2.232,1.764,2.232c1.008,0,1.764-0.948,1.764-2.256c0-0.984-0.492-2.232-1.739-2.232
			C282.434,120.186,281.894,121.337,281.894,122.441z"/>
		<path fill="#006838" d="M287.833,121.337c0-0.684-0.012-1.272-0.048-1.812h0.924l0.036,1.14h0.048
			c0.264-0.78,0.9-1.272,1.608-1.272c0.12,0,0.204,0.012,0.3,0.036v0.996c-0.108-0.024-0.216-0.036-0.36-0.036
			c-0.744,0-1.271,0.564-1.416,1.356c-0.023,0.144-0.048,0.312-0.048,0.492v3.096h-1.044V121.337z"/>
	</g>
	<g clip-path="url(#XMLID_3_)">
		<path fill="#006838" d="M248.498,138.341c0,0.504,0.024,0.996,0.096,1.392h-0.96l-0.084-0.732h-0.036
			c-0.323,0.456-0.947,0.864-1.775,0.864c-1.177,0-1.776-0.828-1.776-1.668c0-1.404,1.248-2.172,3.492-2.16v-0.12
			c0-0.48-0.132-1.344-1.32-1.344c-0.54,0-1.104,0.168-1.512,0.432l-0.24-0.696c0.48-0.312,1.176-0.516,1.908-0.516
			c1.776,0,2.208,1.212,2.208,2.376V138.341z M247.478,136.77c-1.151-0.024-2.46,0.18-2.46,1.308c0,0.684,0.456,1.008,0.996,1.008
			c0.756,0,1.236-0.48,1.404-0.972c0.036-0.108,0.06-0.228,0.06-0.336V136.77z"/>
		<path fill="#006838" d="M254.342,139.518c-0.275,0.144-0.888,0.348-1.668,0.348c-1.752,0-2.892-1.2-2.892-2.976
			c0-1.788,1.224-3.084,3.12-3.084c0.624,0,1.176,0.156,1.464,0.3l-0.24,0.816c-0.252-0.144-0.647-0.276-1.224-0.276
			c-1.332,0-2.052,0.984-2.052,2.196c0,1.344,0.863,2.172,2.016,2.172c0.6,0,0.996-0.156,1.296-0.288L254.342,139.518z"/>
		<path fill="#006838" d="M257.007,132.533v1.392h1.512v0.804h-1.512v3.132c0,0.72,0.203,1.128,0.792,1.128
			c0.287,0,0.456-0.024,0.611-0.072l0.048,0.792c-0.203,0.084-0.527,0.156-0.936,0.156c-0.492,0-0.888-0.168-1.14-0.456
			c-0.301-0.312-0.408-0.828-0.408-1.512v-3.168h-0.9v-0.804h0.9v-1.068L257.007,132.533z"/>
		<path fill="#006838" d="M260.882,132.293c0.013,0.36-0.252,0.648-0.672,0.648c-0.372,0-0.636-0.288-0.636-0.648
			c0-0.372,0.275-0.66,0.66-0.66C260.63,131.633,260.882,131.921,260.882,132.293z M259.706,139.733v-5.808h1.056v5.808H259.706z"/>
		<path fill="#006838" d="M262.922,133.925l1.14,3.264c0.192,0.528,0.349,1.008,0.468,1.488h0.036c0.132-0.48,0.3-0.96,0.492-1.488
			l1.128-3.264h1.104l-2.28,5.808h-1.008l-2.208-5.808H262.922z"/>
		<path fill="#006838" d="M272.329,138.341c0,0.504,0.024,0.996,0.096,1.392h-0.96l-0.084-0.732h-0.036
			c-0.323,0.456-0.947,0.864-1.775,0.864c-1.177,0-1.776-0.828-1.776-1.668c0-1.404,1.248-2.172,3.492-2.16v-0.12
			c0-0.48-0.132-1.344-1.32-1.344c-0.54,0-1.104,0.168-1.512,0.432l-0.24-0.696c0.48-0.312,1.176-0.516,1.908-0.516
			c1.776,0,2.208,1.212,2.208,2.376V138.341z M271.309,136.77c-1.151-0.024-2.46,0.18-2.46,1.308c0,0.684,0.456,1.008,0.996,1.008
			c0.756,0,1.236-0.48,1.404-0.972c0.036-0.108,0.06-0.228,0.06-0.336V136.77z"/>
		<path fill="#006838" d="M275.258,132.533v1.392h1.512v0.804h-1.512v3.132c0,0.72,0.203,1.128,0.792,1.128
			c0.287,0,0.456-0.024,0.611-0.072l0.048,0.792c-0.203,0.084-0.527,0.156-0.936,0.156c-0.492,0-0.888-0.168-1.14-0.456
			c-0.301-0.312-0.408-0.828-0.408-1.512v-3.168h-0.9v-0.804h0.9v-1.068L275.258,132.533z"/>
		<path fill="#006838" d="M279.133,132.293c0.013,0.36-0.252,0.648-0.672,0.648c-0.372,0-0.636-0.288-0.636-0.648
			c0-0.372,0.275-0.66,0.66-0.66C278.881,131.633,279.133,131.921,279.133,132.293z M277.957,139.733v-5.808h1.056v5.808H277.957z"
			/>
		<path fill="#006838" d="M286.021,136.781c0,2.148-1.488,3.084-2.892,3.084c-1.572,0-2.784-1.152-2.784-2.988
			c0-1.944,1.271-3.084,2.88-3.084C284.893,133.793,286.021,135.005,286.021,136.781z M281.413,136.841
			c0,1.272,0.731,2.232,1.764,2.232c1.008,0,1.764-0.948,1.764-2.256c0-0.984-0.492-2.232-1.739-2.232
			C281.953,134.585,281.413,135.737,281.413,136.841z"/>
		<path fill="#006838" d="M287.353,135.498c0-0.6-0.012-1.092-0.048-1.572h0.936l0.061,0.96h0.023
			c0.288-0.552,0.96-1.092,1.92-1.092c0.805,0,2.053,0.48,2.053,2.472v3.468h-1.057v-3.348c0-0.936-0.348-1.716-1.344-1.716
			c-0.696,0-1.236,0.492-1.416,1.08c-0.048,0.132-0.072,0.312-0.072,0.492v3.492h-1.056V135.498z"/>
	</g>
	<g clip-path="url(#XMLID_3_)">
		<path fill="#006838" d="M88.574,213.689c0.636-0.096,1.392-0.168,2.22-0.168c1.5,0,2.568,0.348,3.276,1.008
			c0.72,0.66,1.14,1.596,1.14,2.904c0,1.32-0.408,2.4-1.164,3.144c-0.756,0.756-2.004,1.164-3.576,1.164
			c-0.744,0-1.368-0.036-1.896-0.096V213.689z M89.618,220.841c0.264,0.048,0.648,0.06,1.056,0.06c2.232,0,3.444-1.248,3.444-3.432
			c0.012-1.908-1.068-3.12-3.276-3.12c-0.54,0-0.948,0.048-1.224,0.108V220.841z"/>
		<path fill="#006838" d="M101.833,218.717c0,2.148-1.488,3.084-2.892,3.084c-1.572,0-2.784-1.152-2.784-2.988
			c0-1.944,1.272-3.084,2.88-3.084C100.706,215.729,101.833,216.941,101.833,218.717z M97.226,218.777
			c0,1.272,0.732,2.232,1.764,2.232c1.008,0,1.764-0.948,1.764-2.256c0-0.984-0.492-2.232-1.74-2.232S97.226,217.673,97.226,218.777
			z"/>
		<path fill="#006838" d="M103.514,215.861l0.768,2.952c0.168,0.648,0.324,1.248,0.432,1.848h0.036
			c0.132-0.588,0.324-1.212,0.516-1.848l0.948-2.952h0.888l0.9,2.904c0.216,0.696,0.384,1.308,0.516,1.896h0.036
			c0.096-0.588,0.252-1.2,0.444-1.884l0.828-2.916h1.044l-1.872,5.808h-0.96l-0.888-2.772c-0.204-0.648-0.372-1.224-0.516-1.908
			h-0.024c-0.144,0.696-0.324,1.296-0.528,1.92l-0.936,2.76h-0.96l-1.752-5.808H103.514z"/>
		<path fill="#006838" d="M111.926,217.434c0-0.6-0.012-1.092-0.048-1.572h0.936l0.06,0.96h0.024c0.288-0.552,0.96-1.092,1.92-1.092
			c0.804,0,2.052,0.48,2.052,2.472v3.468h-1.056v-3.348c0-0.936-0.348-1.716-1.344-1.716c-0.696,0-1.236,0.492-1.416,1.08
			c-0.048,0.132-0.072,0.312-0.072,0.492v3.492h-1.056V217.434z"/>
		<path fill="#006838" d="M121.034,218.033v0.78h-2.964v-0.78H121.034z"/>
		<path fill="#006838" d="M122.27,217.673c0-0.684-0.012-1.272-0.048-1.812h0.924l0.036,1.14h0.048
			c0.264-0.78,0.9-1.272,1.608-1.272c0.12,0,0.204,0.012,0.3,0.036v0.996c-0.108-0.024-0.216-0.036-0.36-0.036
			c-0.744,0-1.272,0.564-1.416,1.356c-0.024,0.144-0.048,0.312-0.048,0.492v3.096h-1.044V217.673z"/>
		<path fill="#006838" d="M126.661,218.958c0.024,1.428,0.936,2.016,1.992,2.016c0.756,0,1.212-0.132,1.608-0.3l0.18,0.756
			c-0.372,0.168-1.008,0.372-1.932,0.372c-1.788,0-2.856-1.188-2.856-2.94s1.032-3.132,2.724-3.132c1.896,0,2.4,1.668,2.4,2.736
			c0,0.216-0.024,0.384-0.036,0.492H126.661z M129.757,218.201c0.012-0.672-0.276-1.716-1.464-1.716
			c-1.068,0-1.536,0.984-1.62,1.716H129.757z"/>
		<path fill="#006838" d="M137.041,220.83c0,1.332-0.264,2.148-0.828,2.652c-0.564,0.528-1.38,0.696-2.112,0.696
			c-0.696,0-1.464-0.168-1.932-0.48l0.264-0.804c0.384,0.24,0.984,0.456,1.704,0.456c1.08,0,1.872-0.564,1.872-2.028v-0.648h-0.024
			c-0.324,0.54-0.948,0.972-1.848,0.972c-1.44,0-2.472-1.224-2.472-2.832c0-1.968,1.284-3.084,2.616-3.084
			c1.008,0,1.56,0.528,1.812,1.008h0.024l0.048-0.876h0.924c-0.024,0.42-0.048,0.888-0.048,1.596V220.83z M135.997,218.153
			c0-0.18-0.012-0.336-0.06-0.48c-0.192-0.612-0.708-1.116-1.476-1.116c-1.008,0-1.728,0.852-1.728,2.196
			c0,1.14,0.576,2.088,1.716,2.088c0.648,0,1.236-0.408,1.464-1.08c0.06-0.18,0.084-0.384,0.084-0.564V218.153z"/>
		<path fill="#006838" d="M143.653,220.085c0,0.6,0.012,1.128,0.048,1.584h-0.936l-0.06-0.948h-0.024
			c-0.276,0.468-0.888,1.08-1.92,1.08c-0.912,0-2.004-0.504-2.004-2.544v-3.396h1.056v3.216c0,1.104,0.336,1.848,1.296,1.848
			c0.708,0,1.2-0.492,1.392-0.96c0.06-0.156,0.096-0.348,0.096-0.54v-3.564h1.056V220.085z"/>
		<path fill="#006838" d="M145.405,213.149h1.056v8.52h-1.056V213.149z"/>
		<path fill="#006838" d="M152.317,220.277c0,0.504,0.024,0.996,0.096,1.392h-0.96l-0.084-0.732h-0.036
			c-0.324,0.456-0.948,0.864-1.776,0.864c-1.176,0-1.776-0.828-1.776-1.668c0-1.404,1.248-2.172,3.492-2.16v-0.12
			c0-0.48-0.132-1.344-1.32-1.344c-0.54,0-1.104,0.168-1.512,0.432l-0.24-0.696c0.48-0.312,1.176-0.516,1.908-0.516
			c1.776,0,2.208,1.212,2.208,2.376V220.277z M151.297,218.706c-1.152-0.024-2.46,0.18-2.46,1.308c0,0.684,0.456,1.008,0.996,1.008
			c0.756,0,1.236-0.48,1.404-0.972c0.036-0.108,0.06-0.228,0.06-0.336V218.706z"/>
		<path fill="#006838" d="M155.245,214.469v1.392h1.512v0.804h-1.512v3.132c0,0.72,0.204,1.128,0.792,1.128
			c0.288,0,0.456-0.024,0.612-0.072l0.048,0.792c-0.204,0.084-0.528,0.156-0.936,0.156c-0.492,0-0.888-0.168-1.14-0.456
			c-0.3-0.312-0.408-0.828-0.408-1.512v-3.168h-0.9v-0.804h0.9v-1.068L155.245,214.469z"/>
		<path fill="#006838" d="M159.121,214.229c0.012,0.36-0.252,0.648-0.672,0.648c-0.372,0-0.636-0.288-0.636-0.648
			c0-0.372,0.276-0.66,0.66-0.66C158.869,213.569,159.121,213.857,159.121,214.229z M157.945,221.669v-5.808h1.056v5.808H157.945z"
			/>
		<path fill="#006838" d="M166.009,218.717c0,2.148-1.488,3.084-2.892,3.084c-1.572,0-2.784-1.152-2.784-2.988
			c0-1.944,1.272-3.084,2.88-3.084C164.881,215.729,166.009,216.941,166.009,218.717z M161.401,218.777
			c0,1.272,0.732,2.232,1.764,2.232c1.008,0,1.764-0.948,1.764-2.256c0-0.984-0.492-2.232-1.74-2.232
			S161.401,217.673,161.401,218.777z"/>
		<path fill="#006838" d="M167.341,217.434c0-0.6-0.012-1.092-0.048-1.572h0.936l0.06,0.96h0.024c0.288-0.552,0.96-1.092,1.92-1.092
			c0.804,0,2.052,0.48,2.052,2.472v3.468h-1.056v-3.348c0-0.936-0.348-1.716-1.344-1.716c-0.696,0-1.236,0.492-1.416,1.08
			c-0.048,0.132-0.072,0.312-0.072,0.492v3.492h-1.056V217.434z"/>
	</g>
	<g clip-path="url(#XMLID_3_)">
		<path fill="#006838" d="M208.106,277.469h-2.46v-0.888h5.988v0.888h-2.472v7.2h-1.056V277.469z"/>
		<path fill="#006838" d="M211.958,280.673c0-0.684-0.012-1.272-0.048-1.812h0.924l0.036,1.14h0.048
			c0.264-0.78,0.9-1.272,1.608-1.272c0.12,0,0.204,0.012,0.3,0.036v0.996c-0.108-0.024-0.216-0.036-0.36-0.036
			c-0.744,0-1.272,0.564-1.416,1.356c-0.024,0.144-0.048,0.312-0.048,0.492v3.096h-1.044V280.673z"/>
		<path fill="#006838" d="M219.914,283.277c0,0.504,0.024,0.996,0.096,1.392h-0.96l-0.084-0.732h-0.036
			c-0.324,0.456-0.948,0.864-1.776,0.864c-1.176,0-1.776-0.828-1.776-1.668c0-1.404,1.248-2.172,3.492-2.16v-0.12
			c0-0.48-0.132-1.344-1.32-1.344c-0.54,0-1.104,0.168-1.512,0.432l-0.24-0.696c0.48-0.312,1.176-0.516,1.908-0.516
			c1.776,0,2.208,1.212,2.208,2.376V283.277z M218.894,281.706c-1.152-0.024-2.46,0.18-2.46,1.308c0,0.684,0.456,1.008,0.996,1.008
			c0.756,0,1.236-0.48,1.404-0.972c0.036-0.108,0.06-0.228,0.06-0.336V281.706z"/>
		<path fill="#006838" d="M221.617,280.434c0-0.6-0.012-1.092-0.048-1.572h0.936l0.06,0.96h0.024
			c0.288-0.552,0.96-1.092,1.919-1.092c0.805,0,2.053,0.48,2.053,2.472v3.468h-1.057v-3.348c0-0.936-0.348-1.716-1.344-1.716
			c-0.696,0-1.236,0.492-1.416,1.08c-0.048,0.132-0.072,0.312-0.072,0.492v3.492h-1.056V280.434z"/>
		<path fill="#006838" d="M228.134,283.589c0.312,0.204,0.863,0.42,1.392,0.42c0.768,0,1.128-0.384,1.128-0.864
			c0-0.504-0.3-0.78-1.08-1.068c-1.044-0.372-1.536-0.948-1.536-1.644c0-0.936,0.756-1.704,2.004-1.704
			c0.588,0,1.104,0.168,1.429,0.36l-0.265,0.768c-0.228-0.144-0.647-0.336-1.188-0.336c-0.624,0-0.973,0.36-0.973,0.792
			c0,0.48,0.349,0.696,1.104,0.984c1.008,0.384,1.524,0.888,1.524,1.752c0,1.02-0.792,1.752-2.173,1.752
			c-0.636,0-1.224-0.168-1.632-0.408L228.134,283.589z"/>
		<path fill="#006838" d="M237.169,284.454c-0.275,0.144-0.888,0.348-1.668,0.348c-1.752,0-2.892-1.2-2.892-2.976
			c0-1.788,1.224-3.084,3.12-3.084c0.624,0,1.176,0.156,1.464,0.3l-0.24,0.816c-0.252-0.144-0.647-0.276-1.224-0.276
			c-1.332,0-2.052,0.984-2.052,2.196c0,1.344,0.863,2.172,2.016,2.172c0.6,0,0.996-0.156,1.296-0.288L237.169,284.454z"/>
		<path fill="#006838" d="M238.405,280.673c0-0.684-0.012-1.272-0.048-1.812h0.924l0.036,1.14h0.048
			c0.264-0.78,0.9-1.272,1.608-1.272c0.12,0,0.204,0.012,0.3,0.036v0.996c-0.108-0.024-0.216-0.036-0.36-0.036
			c-0.744,0-1.271,0.564-1.416,1.356c-0.023,0.144-0.048,0.312-0.048,0.492v3.096h-1.044V280.673z"/>
		<path fill="#006838" d="M243.553,277.229c0.013,0.36-0.252,0.648-0.672,0.648c-0.372,0-0.636-0.288-0.636-0.648
			c0-0.372,0.275-0.66,0.66-0.66C243.301,276.569,243.553,276.857,243.553,277.229z M242.377,284.669v-5.808h1.056v5.808H242.377z"
			/>
		<path fill="#006838" d="M245.185,280.757c0-0.744-0.024-1.344-0.048-1.896h0.948l0.048,0.996h0.023
			c0.433-0.708,1.116-1.128,2.064-1.128c1.404,0,2.46,1.188,2.46,2.952c0,2.088-1.272,3.12-2.64,3.12
			c-0.769,0-1.44-0.336-1.788-0.912h-0.024v3.156h-1.044V280.757z M246.229,282.305c0,0.156,0.024,0.3,0.048,0.432
			c0.192,0.732,0.828,1.236,1.584,1.236c1.116,0,1.765-0.912,1.765-2.244c0-1.164-0.612-2.16-1.729-2.16
			c-0.72,0-1.392,0.516-1.596,1.308c-0.036,0.132-0.072,0.288-0.072,0.432V282.305z"/>
		<path fill="#006838" d="M253.285,277.469v1.392h1.512v0.804h-1.512v3.132c0,0.72,0.203,1.128,0.792,1.128
			c0.287,0,0.456-0.024,0.611-0.072l0.048,0.792c-0.203,0.084-0.527,0.156-0.936,0.156c-0.492,0-0.888-0.168-1.14-0.456
			c-0.301-0.312-0.408-0.828-0.408-1.512v-3.168h-0.9v-0.804h0.9v-1.068L253.285,277.469z"/>
		<path fill="#006838" d="M257.16,277.229c0.013,0.36-0.252,0.648-0.672,0.648c-0.372,0-0.636-0.288-0.636-0.648
			c0-0.372,0.275-0.66,0.66-0.66C256.908,276.569,257.16,276.857,257.16,277.229z M255.984,284.669v-5.808h1.056v5.808H255.984z"/>
		<path fill="#006838" d="M264.048,281.717c0,2.148-1.488,3.084-2.892,3.084c-1.572,0-2.784-1.152-2.784-2.988
			c0-1.944,1.271-3.084,2.88-3.084C262.92,278.729,264.048,279.941,264.048,281.717z M259.44,281.777
			c0,1.272,0.731,2.232,1.764,2.232c1.008,0,1.764-0.948,1.764-2.256c0-0.984-0.492-2.232-1.739-2.232
			C259.98,279.521,259.44,280.673,259.44,281.777z"/>
		<path fill="#006838" d="M265.38,280.434c0-0.6-0.012-1.092-0.048-1.572h0.936l0.061,0.96h0.023c0.288-0.552,0.96-1.092,1.92-1.092
			c0.805,0,2.053,0.48,2.053,2.472v3.468h-1.057v-3.348c0-0.936-0.348-1.716-1.344-1.716c-0.696,0-1.236,0.492-1.416,1.08
			c-0.048,0.132-0.072,0.312-0.072,0.492v3.492h-1.056V280.434z"/>
	</g>
	<path clip-path="url(#XMLID_3_)" fill="none" stroke="#000000" d="M322,335.912c-28.08,28.081-130.667,22.422-151.333-14.245"/>
	<polygon clip-path="url(#XMLID_3_)" points="175.272,322.296 171.274,322.743 168.819,325.933 167.736,316.467 	"/>
</g>
<g>
	<path fill="#006838" d="M8.11,197.425H5.65v-0.888h5.988v0.888H9.166v7.2H8.11V197.425z"/>
	<path fill="#006838" d="M12.55,200.629c0-0.684-0.012-1.272-0.048-1.812h0.924l0.036,1.14h0.048c0.264-0.78,0.9-1.272,1.608-1.272
		c0.12,0,0.204,0.012,0.3,0.036v0.996c-0.108-0.024-0.216-0.036-0.36-0.036c-0.744,0-1.272,0.564-1.416,1.356
		c-0.024,0.144-0.048,0.312-0.048,0.492v3.096H12.55V200.629z"/>
	<path fill="#006838" d="M20.602,203.233c0,0.504,0.024,0.996,0.096,1.392h-0.96l-0.084-0.732h-0.036
		c-0.324,0.456-0.948,0.864-1.776,0.864c-1.176,0-1.776-0.828-1.776-1.668c0-1.404,1.248-2.172,3.492-2.16v-0.12
		c0-0.48-0.132-1.344-1.32-1.344c-0.54,0-1.104,0.168-1.512,0.432l-0.24-0.696c0.48-0.312,1.176-0.516,1.908-0.516
		c1.776,0,2.208,1.212,2.208,2.376V203.233z M19.582,201.662c-1.152-0.024-2.46,0.18-2.46,1.308c0,0.684,0.456,1.008,0.996,1.008
		c0.756,0,1.236-0.48,1.404-0.972c0.036-0.108,0.06-0.228,0.06-0.336V201.662z"/>
	<path fill="#006838" d="M22.354,200.39c0-0.6-0.012-1.092-0.048-1.572h0.936l0.06,0.96h0.024c0.288-0.552,0.96-1.092,1.92-1.092
		c0.804,0,2.052,0.48,2.052,2.472v3.468h-1.056v-3.348c0-0.936-0.348-1.716-1.344-1.716c-0.696,0-1.236,0.492-1.416,1.08
		c-0.048,0.132-0.072,0.312-0.072,0.492v3.492h-1.056V200.39z"/>
	<path fill="#006838" d="M28.918,203.545c0.312,0.204,0.864,0.42,1.392,0.42c0.768,0,1.128-0.384,1.128-0.864
		c0-0.504-0.3-0.78-1.08-1.068c-1.044-0.372-1.536-0.948-1.536-1.644c0-0.936,0.756-1.704,2.004-1.704
		c0.588,0,1.104,0.168,1.428,0.36l-0.264,0.768c-0.228-0.144-0.648-0.336-1.188-0.336c-0.624,0-0.972,0.36-0.972,0.792
		c0,0.48,0.348,0.696,1.104,0.984c1.008,0.384,1.524,0.888,1.524,1.752c0,1.02-0.792,1.752-2.172,1.752
		c-0.636,0-1.224-0.168-1.632-0.408L28.918,203.545z"/>
	<path fill="#006838" d="M33.862,196.105h1.056v8.52h-1.056V196.105z"/>
	<path fill="#006838" d="M40.822,203.233c0,0.504,0.024,0.996,0.096,1.392h-0.96l-0.084-0.732h-0.036
		c-0.324,0.456-0.948,0.864-1.776,0.864c-1.176,0-1.776-0.828-1.776-1.668c0-1.404,1.248-2.172,3.492-2.16v-0.12
		c0-0.48-0.132-1.344-1.32-1.344c-0.54,0-1.104,0.168-1.512,0.432l-0.24-0.696c0.48-0.312,1.176-0.516,1.908-0.516
		c1.776,0,2.208,1.212,2.208,2.376V203.233z M39.802,201.662c-1.152-0.024-2.46,0.18-2.46,1.308c0,0.684,0.456,1.008,0.996,1.008
		c0.756,0,1.236-0.48,1.404-0.972c0.036-0.108,0.06-0.228,0.06-0.336V201.662z"/>
	<path fill="#006838" d="M43.846,197.425v1.392h1.512v0.804h-1.512v3.132c0,0.72,0.204,1.128,0.792,1.128
		c0.288,0,0.456-0.024,0.612-0.072l0.048,0.792c-0.204,0.084-0.528,0.156-0.936,0.156c-0.492,0-0.888-0.168-1.14-0.456
		c-0.3-0.312-0.408-0.828-0.408-1.512v-3.168h-0.9v-0.804h0.9v-1.068L43.846,197.425z"/>
	<path fill="#006838" d="M47.77,197.186c0.012,0.36-0.252,0.648-0.672,0.648c-0.372,0-0.636-0.288-0.636-0.648
		c0-0.372,0.276-0.66,0.66-0.66C47.518,196.525,47.77,196.813,47.77,197.186z M46.594,204.625v-5.808h1.056v5.808H46.594z"/>
	<path fill="#006838" d="M54.706,201.673c0,2.148-1.488,3.084-2.892,3.084c-1.572,0-2.784-1.152-2.784-2.988
		c0-1.944,1.272-3.084,2.88-3.084C53.578,198.686,54.706,199.897,54.706,201.673z M50.098,201.733c0,1.272,0.732,2.232,1.764,2.232
		c1.008,0,1.764-0.948,1.764-2.256c0-0.984-0.492-2.232-1.74-2.232S50.098,200.629,50.098,201.733z"/>
	<path fill="#006838" d="M56.086,200.39c0-0.6-0.012-1.092-0.048-1.572h0.936l0.06,0.96h0.024c0.288-0.552,0.96-1.092,1.92-1.092
		c0.804,0,2.052,0.48,2.052,2.472v3.468h-1.056v-3.348c0-0.936-0.348-1.716-1.344-1.716c-0.696,0-1.236,0.492-1.416,1.08
		c-0.048,0.132-0.072,0.312-0.072,0.492v3.492h-1.056V200.39z"/>
</g>
</svg>
