<?xml version="1.0" encoding="utf-8"?>
<!-- Generator: Adobe Illustrator 14.0.0, SVG Export Plug-In . SVG Version: 6.00 Build 43363)  -->
<!DOCTYPE svg PUBLIC "-//W3C//DTD SVG 1.1//EN" "http://www.w3.org/Graphics/SVG/1.1/DTD/svg11.dtd">
<svg version="1.1" id="Layer_1" xmlns="http://www.w3.org/2000/svg" xmlns:xlink="http://www.w3.org/1999/xlink" x="0px" y="0px"
	 width="595.28px" height="467.568px" viewBox="0 0 595.28 467.568" enable-background="new 0 0 595.28 467.568"
	 xml:space="preserve">
<line fill="none" stroke="#231F20" x1="412.451" y1="481.656" x2="422.482" y2="491.688"/>
<rect x="58.083" y="56.653" fill="none" stroke="#010101" width="138.439" height="42.708"/>
<rect x="136.277" y="47.133" fill="#FFFFFF" stroke="#FFFFFF" width="46.544" height="20.189"/>
<rect x="73.059" y="47.91" fill="#FFFFFF" stroke="#010101" width="41.154" height="22.519"/>
<g>
	<line fill="none" stroke="#231F20" x1="126.828" y1="56.815" x2="138.643" y2="56.815"/>
	<line fill="none" stroke="#231F20" x1="138.643" y1="56.815" x2="143.187" y2="48.834"/>
	<line fill="none" stroke="#231F20" x1="143.187" y1="48.834" x2="151.368" y2="69.584"/>
	<line fill="none" stroke="#231F20" x1="159.548" y1="48.674" x2="151.368" y2="69.424"/>
	<line fill="none" stroke="#231F20" x1="192.269" y1="56.895" x2="180.453" y2="56.895"/>
	<line fill="none" stroke="#231F20" x1="180.453" y1="56.895" x2="175.909" y2="48.914"/>
	<line fill="none" stroke="#231F20" x1="175.909" y1="48.914" x2="167.728" y2="69.664"/>
	<line fill="none" stroke="#231F20" x1="159.548" y1="48.754" x2="167.728" y2="69.504"/>
</g>
<rect x="95.109" y="88.096" fill="#FFFFFF" stroke="#FFFFFF" width="46.543" height="20.189"/>
<g>
	<line fill="none" stroke="#231F20" x1="83.464" y1="99.562" x2="95.28" y2="99.562"/>
	<line fill="none" stroke="#231F20" x1="95.28" y1="99.562" x2="99.825" y2="91.581"/>
	<line fill="none" stroke="#231F20" x1="99.825" y1="91.581" x2="108.004" y2="112.331"/>
	<line fill="none" stroke="#231F20" x1="116.185" y1="91.421" x2="108.004" y2="112.171"/>
	<line fill="none" stroke="#231F20" x1="148.906" y1="99.642" x2="137.09" y2="99.642"/>
	<line fill="none" stroke="#231F20" x1="137.09" y1="99.642" x2="132.545" y2="91.66"/>
	<line fill="none" stroke="#231F20" x1="132.545" y1="91.66" x2="124.366" y2="112.41"/>
	<line fill="none" stroke="#231F20" x1="116.185" y1="91.501" x2="124.366" y2="112.251"/>
</g>
<line fill="none" stroke="#231F20" x1="26.033" y1="78.007" x2="58.083" y2="78.007"/>
<line fill="none" stroke="#231F20" x1="197.235" y1="78.007" x2="229.285" y2="78.007"/>
<text transform="matrix(1 0 0 1 85.4043 62.6904)" font-family="'MyriadPro-Regular'" font-size="12">C C</text>
<rect x="364.566" y="56.5" fill="none" stroke="#010101" width="138.439" height="42.708"/>
<rect x="379.542" y="47.757" fill="#FFFFFF" stroke="#010101" width="41.154" height="22.519"/>
<rect x="401.592" y="87.943" fill="#FFFFFF" stroke="#FFFFFF" width="46.543" height="20.189"/>
<g>
	<line fill="none" stroke="#231F20" x1="389.947" y1="99.409" x2="401.763" y2="99.409"/>
	<line fill="none" stroke="#231F20" x1="401.763" y1="99.409" x2="406.308" y2="91.428"/>
	<line fill="none" stroke="#231F20" x1="406.308" y1="91.428" x2="414.487" y2="112.178"/>
	<line fill="none" stroke="#231F20" x1="422.668" y1="91.269" x2="414.487" y2="112.019"/>
	<line fill="none" stroke="#231F20" x1="455.389" y1="99.489" x2="443.573" y2="99.489"/>
	<line fill="none" stroke="#231F20" x1="443.573" y1="99.489" x2="439.028" y2="91.507"/>
	<line fill="none" stroke="#231F20" x1="439.028" y1="91.507" x2="430.849" y2="112.257"/>
	<line fill="none" stroke="#231F20" x1="422.668" y1="91.348" x2="430.849" y2="112.098"/>
</g>
<line fill="none" stroke="#231F20" x1="332.516" y1="77.854" x2="364.566" y2="77.854"/>
<text transform="matrix(1 0 0 1 391.8867 62.5381)" font-family="'MyriadPro-Regular'" font-size="12">C C</text>
<g>
	<line fill="none" stroke="#231F20" x1="503.742" y1="78.528" x2="515.558" y2="78.528"/>
	<line fill="none" stroke="#231F20" x1="515.558" y1="78.528" x2="520.103" y2="70.547"/>
	<line fill="none" stroke="#231F20" x1="520.103" y1="70.547" x2="528.282" y2="91.297"/>
	<line fill="none" stroke="#231F20" x1="536.463" y1="70.388" x2="528.282" y2="91.138"/>
	<line fill="none" stroke="#231F20" x1="569.184" y1="78.608" x2="557.368" y2="78.608"/>
	<line fill="none" stroke="#231F20" x1="557.368" y1="78.608" x2="552.823" y2="70.626"/>
	<line fill="none" stroke="#231F20" x1="552.823" y1="70.626" x2="544.644" y2="91.376"/>
	<line fill="none" stroke="#231F20" x1="536.463" y1="70.467" x2="544.644" y2="91.217"/>
</g>
<text transform="matrix(1 0 0 1 148.9058 40.0537)" font-family="'MyriadPro-Regular'" font-size="12">SEC</text>
<text transform="matrix(1 0 0 1 103.9146 130.5312)" font-family="'MyriadPro-Regular'" font-size="12">PEC</text>
<text transform="matrix(1 0 0 1 412.4512 134.0537)" font-family="'MyriadPro-Regular'" font-size="12">PEC</text>
<text transform="matrix(1 0 0 1 528.2822 56.501)" font-family="'MyriadPro-Regular'" font-size="12">SEC</text>
<g>
	<text transform="matrix(1 0 0 1 248 152.4878)" font-family="'MyriadPro-Regular'" font-size="12">Force [F</text>
	<text transform="matrix(0.583 0 0 0.583 287.5396 156.4839)" font-family="'MyriadPro-Regular'" font-size="12">im </text>
	<text transform="matrix(1 0 0 1 296.4941 152.4878)" font-family="'MyriadPro-Regular'" font-size="12">]</text>
	<g>
		<line fill="none" stroke="#000000" x1="16" y1="372.054" x2="569.184" y2="372.054"/>
		<g>
			<g>
				<line fill="none" stroke="#000000" x1="274" y1="372.054" x2="274" y2="164.888"/>
				<polygon points="277.703,167.697 274,166.124 270.296,167.697 274,158.919 				"/>
			</g>
		</g>
		<line fill="none" stroke="#000000" stroke-dasharray="3,3" x1="128.456" y1="372.054" x2="128.456" y2="256.054"/>
		<line fill="none" stroke="#000000" stroke-dasharray="3,3" x1="426.758" y1="372.054" x2="426.758" y2="218.054"/>
		<line fill="none" stroke="#000000" x1="16" y1="372.054" x2="128.456" y2="256.054"/>
		<line fill="none" stroke="#000000" x1="128.456" y1="256.054" x2="274" y2="178.41"/>
		<line fill="none" stroke="#000000" x1="274" y1="178.41" x2="426.758" y2="218.054"/>
		<line fill="none" stroke="#000000" x1="426.758" y1="218.054" x2="569.184" y2="372.054"/>
		<line fill="none" stroke="#000000" stroke-dasharray="3,3" x1="128.456" y1="256.054" x2="274" y2="256.054"/>
		<text transform="matrix(1 0 0 1 16 387.9297)" font-family="'MyriadPro-Regular'" font-size="12">l</text>
		<text transform="matrix(0.583 0 0 0.583 18.832 391.9258)" font-family="'MyriadPro-Regular'" font-size="12">2</text>
		<text transform="matrix(1 0 0 1 126.8276 387.9297)" font-family="'MyriadPro-Regular'" font-size="12">l</text>
		<text transform="matrix(0.583 0 0 0.583 129.6597 391.9258)" font-family="'MyriadPro-Regular'" font-size="12">2</text>
		<text transform="matrix(1 0 0 1 426.7578 387.9297)" font-family="'MyriadPro-Regular'" font-size="12">l</text>
		<text transform="matrix(0.583 0 0 0.583 429.5898 391.9258)" font-family="'MyriadPro-Regular'" font-size="12">3</text>
		<text transform="matrix(1 0 0 1 569.1836 387.9297)" font-family="'MyriadPro-Regular'" font-size="12">l</text>
		<text transform="matrix(0.583 0 0 0.583 572.0156 391.9258)" font-family="'MyriadPro-Regular'" font-size="12">4</text>
		<text transform="matrix(1 0 0 1 272 389.9277)" font-family="'MyriadPro-Regular'" font-size="12">O</text>
		<text transform="matrix(1 0 0 1 489 410.0537)" font-family="'MyriadPro-Regular'" font-size="12">l</text>
		<text transform="matrix(0.583 0 0 0.583 491.832 414.0498)" font-family="'MyriadPro-Regular'" font-size="12">cc </text>
		<text transform="matrix(1 0 0 1 499.584 410.0537)" font-family="'MyriadPro-Regular'" font-size="12">[mm]</text>
	</g>
</g>
<text transform="matrix(1 0 0 1 73.0591 18.0537)" font-family="'MyriadPro-Regular'" font-size="12">Model [cc + SEC]</text>
<text transform="matrix(1 0 0 1 408.3516 18.0537)" font-family="'MyriadPro-Regular'" font-size="12">Model [cc]</text>
<text transform="matrix(1 0 0 1 93 454.0537)" font-family="'MyriadPro-Regular'" font-size="12">Two forms of Hill muscle Model. Isometric force defined by piecewise equation.</text>
</svg>
