<?xml version="1.0" encoding="utf-8"?>
<!-- Generator: Adobe Illustrator 14.0.0, SVG Export Plug-In . SVG Version: 6.00 Build 43363)  -->
<!DOCTYPE svg PUBLIC "-//W3C//DTD SVG 1.1//EN" "http://www.w3.org/Graphics/SVG/1.1/DTD/svg11.dtd">
<svg version="1.1" id="Layer_1" xmlns="http://www.w3.org/2000/svg" xmlns:xlink="http://www.w3.org/1999/xlink" x="0px" y="0px"
	 width="575px" height="381px" viewBox="0 0 575 381" enable-background="new 0 0 575 381" xml:space="preserve">
<g>
	
		<radialGradient id="path16609_9_" cx="375.9458" cy="-265.1514" r="16.186" gradientTransform="matrix(1.5933 0 0 0.6358 -95.6651 329.7249)" gradientUnits="userSpaceOnUse">
		<stop  offset="0" style="stop-color:#C0FF6C"/>
		<stop  offset="0.4082" style="stop-color:#BFFF6C"/>
		<stop  offset="0.5552" style="stop-color:#BAFC6C"/>
		<stop  offset="0.66" style="stop-color:#B4FA6B"/>
		<stop  offset="0.7448" style="stop-color:#AAF76A"/>
		<stop  offset="0.8174" style="stop-color:#9EF269"/>
		<stop  offset="0.8817" style="stop-color:#91EC68"/>
		<stop  offset="0.9398" style="stop-color:#86E666"/>
		<stop  offset="0.9915" style="stop-color:#7EDE64"/>
		<stop  offset="1" style="stop-color:#7DDD64"/>
	</radialGradient>
	<path id="path16609_8_" fill="url(#path16609_9_)" stroke="#000000" d="M528.645,161.141c0,5.786-11.338,10.478-25.315,10.478
		c-13.981,0-25.315-4.689-25.315-10.478s11.334-10.476,25.315-10.476C517.307,150.666,528.645,155.354,528.645,161.141z"/>
	<g>
		<path d="M503.85,156.58v8.084h-1.056v-8.084H503.85z"/>
	</g>
</g>
<g>
	<g>
		<path fill="none" stroke="#000000" d="M166.462,203.9c0-3.359,5.392-20.166,30.917-20.166"/>
		<polygon points="162.759,201.092 166.462,202.665 170.166,201.092 166.462,209.87 		"/>
	</g>
</g>
<g>
	
		<radialGradient id="path16609_10_" cx="224.5806" cy="-475.8696" r="16.1858" gradientTransform="matrix(1.5933 0 0 0.6358 -95.6651 329.7249)" gradientUnits="userSpaceOnUse">
		<stop  offset="0" style="stop-color:#C0FF6C"/>
		<stop  offset="0.4082" style="stop-color:#BFFF6C"/>
		<stop  offset="0.5552" style="stop-color:#BAFC6C"/>
		<stop  offset="0.66" style="stop-color:#B4FA6B"/>
		<stop  offset="0.7448" style="stop-color:#AAF76A"/>
		<stop  offset="0.8174" style="stop-color:#9EF269"/>
		<stop  offset="0.8817" style="stop-color:#91EC68"/>
		<stop  offset="0.9398" style="stop-color:#86E666"/>
		<stop  offset="0.9915" style="stop-color:#7EDE64"/>
		<stop  offset="1" style="stop-color:#7DDD64"/>
	</radialGradient>
	<path id="path16609" fill="url(#path16609_10_)" stroke="#000000" d="M287.475,27.166c0,5.786-11.338,10.478-25.315,10.478
		c-13.981,0-25.315-4.689-25.315-10.478S248.178,16.69,262.16,16.69C276.137,16.691,287.475,21.379,287.475,27.166z"/>
	<g>
		<path d="M256.942,30.438c-0.372,0.192-1.151,0.384-2.135,0.384c-2.279,0-3.982-1.439-3.982-4.102c0-2.543,1.715-4.246,4.222-4.246
			c0.996,0,1.643,0.216,1.919,0.36l-0.264,0.852c-0.384-0.192-0.948-0.336-1.619-0.336c-1.895,0-3.154,1.211-3.154,3.334
			c0,1.991,1.139,3.25,3.094,3.25c0.648,0,1.295-0.132,1.715-0.336L256.942,30.438z"/>
		<path d="M258.373,24.885l1.259,3.43c0.144,0.384,0.288,0.84,0.384,1.188h0.024c0.108-0.348,0.228-0.791,0.372-1.211l1.151-3.406
			h1.115l-1.583,4.138c-0.756,1.991-1.271,2.998-1.991,3.634c-0.527,0.444-1.031,0.624-1.295,0.672l-0.264-0.876
			c0.264-0.084,0.612-0.252,0.924-0.516c0.288-0.228,0.635-0.636,0.887-1.175c0.048-0.108,0.084-0.192,0.084-0.252
			c0-0.061-0.024-0.145-0.084-0.276l-2.135-5.349H258.373z"/>
		<path d="M267.659,30.485c-0.276,0.132-0.887,0.336-1.667,0.336c-1.751,0-2.891-1.188-2.891-2.962c0-1.787,1.224-3.095,3.119-3.095
			c0.624,0,1.175,0.156,1.463,0.312l-0.24,0.804c-0.252-0.132-0.647-0.275-1.223-0.275c-1.332,0-2.051,0.995-2.051,2.194
			c0,1.344,0.864,2.171,2.015,2.171c0.6,0,0.996-0.144,1.295-0.275L267.659,30.485z"/>
		<path d="M273.106,26.899h-3.13v2.914h3.502v0.876h-4.558v-8.084h4.378v0.876h-3.322v2.555h3.13V26.899z"/>
	</g>
</g>
<g>
	
		<radialGradient id="path16609_11_" cx="117.1655" cy="-290.3457" r="16.186" gradientTransform="matrix(1.5933 0 0 0.6358 -95.6651 329.7249)" gradientUnits="userSpaceOnUse">
		<stop  offset="0" style="stop-color:#C0FF6C"/>
		<stop  offset="0.4082" style="stop-color:#BFFF6C"/>
		<stop  offset="0.5552" style="stop-color:#BAFC6C"/>
		<stop  offset="0.66" style="stop-color:#B4FA6B"/>
		<stop  offset="0.7448" style="stop-color:#AAF76A"/>
		<stop  offset="0.8174" style="stop-color:#9EF269"/>
		<stop  offset="0.8817" style="stop-color:#91EC68"/>
		<stop  offset="0.9398" style="stop-color:#86E666"/>
		<stop  offset="0.9915" style="stop-color:#7EDE64"/>
		<stop  offset="1" style="stop-color:#7DDD64"/>
	</radialGradient>
	<path id="path16609_1_" fill="url(#path16609_11_)" stroke="#000000" d="M116.33,145.122c0,5.786-11.338,10.478-25.315,10.478
		c-13.981,0-25.315-4.689-25.315-10.478s11.334-10.476,25.315-10.476C104.992,134.647,116.33,139.335,116.33,145.122z"/>
	<g>
		<path d="M85.797,148.394c-0.372,0.192-1.151,0.384-2.135,0.384c-2.279,0-3.982-1.439-3.982-4.102c0-2.543,1.715-4.246,4.222-4.246
			c0.996,0,1.643,0.216,1.919,0.36l-0.264,0.852c-0.384-0.192-0.948-0.336-1.619-0.336c-1.895,0-3.154,1.211-3.154,3.334
			c0,1.991,1.139,3.25,3.094,3.25c0.648,0,1.295-0.132,1.715-0.336L85.797,148.394z"/>
		<path d="M87.228,142.841l1.259,3.43c0.144,0.384,0.288,0.84,0.384,1.188h0.024c0.108-0.348,0.228-0.791,0.372-1.211l1.151-3.406
			h1.115l-1.583,4.138c-0.756,1.991-1.271,2.998-1.991,3.634c-0.527,0.444-1.031,0.624-1.295,0.672l-0.264-0.876
			c0.264-0.084,0.612-0.252,0.924-0.516c0.288-0.228,0.635-0.636,0.887-1.175c0.048-0.108,0.084-0.192,0.084-0.252
			c0-0.061-0.024-0.145-0.084-0.276l-2.135-5.349H87.228z"/>
		<path d="M96.514,148.441c-0.276,0.132-0.887,0.336-1.667,0.336c-1.751,0-2.891-1.188-2.891-2.962c0-1.787,1.224-3.095,3.119-3.095
			c0.624,0,1.175,0.156,1.463,0.312l-0.24,0.804c-0.252-0.132-0.647-0.275-1.223-0.275c-1.332,0-2.051,0.995-2.051,2.194
			c0,1.344,0.864,2.171,2.015,2.171c0.6,0,0.996-0.144,1.295-0.275L96.514,148.441z"/>
		<path d="M101.961,144.855h-3.13v2.914h3.502v0.876h-4.558v-8.084h4.378v0.876h-3.322v2.555h3.13V144.855z"/>
	</g>
</g>
<g>
	
		<radialGradient id="path16609_12_" cx="223.3413" cy="-290.3457" r="16.186" gradientTransform="matrix(1.5933 0 0 0.6358 -95.6651 329.7249)" gradientUnits="userSpaceOnUse">
		<stop  offset="0" style="stop-color:#C0FF6C"/>
		<stop  offset="0.4082" style="stop-color:#BFFF6C"/>
		<stop  offset="0.5552" style="stop-color:#BAFC6C"/>
		<stop  offset="0.66" style="stop-color:#B4FA6B"/>
		<stop  offset="0.7448" style="stop-color:#AAF76A"/>
		<stop  offset="0.8174" style="stop-color:#9EF269"/>
		<stop  offset="0.8817" style="stop-color:#91EC68"/>
		<stop  offset="0.9398" style="stop-color:#86E666"/>
		<stop  offset="0.9915" style="stop-color:#7EDE64"/>
		<stop  offset="1" style="stop-color:#7DDD64"/>
	</radialGradient>
	<path id="path16609_2_" fill="url(#path16609_12_)" stroke="#000000" d="M285.5,145.122c0,5.786-11.338,10.478-25.315,10.478
		c-13.981,0-25.315-4.689-25.315-10.478s11.334-10.476,25.315-10.476C274.162,134.647,285.5,139.335,285.5,145.122z"/>
	<g>
		<path d="M254.967,148.394c-0.372,0.192-1.151,0.384-2.135,0.384c-2.279,0-3.982-1.439-3.982-4.102
			c0-2.543,1.715-4.246,4.222-4.246c0.996,0,1.643,0.216,1.919,0.36l-0.264,0.852c-0.384-0.192-0.948-0.336-1.619-0.336
			c-1.895,0-3.154,1.211-3.154,3.334c0,1.991,1.139,3.25,3.094,3.25c0.648,0,1.295-0.132,1.715-0.336L254.967,148.394z"/>
		<path d="M256.398,142.841l1.259,3.43c0.144,0.384,0.288,0.84,0.384,1.188h0.024c0.108-0.348,0.228-0.791,0.372-1.211l1.151-3.406
			h1.115l-1.583,4.138c-0.756,1.991-1.271,2.998-1.991,3.634c-0.527,0.444-1.031,0.624-1.295,0.672l-0.264-0.876
			c0.264-0.084,0.612-0.252,0.924-0.516c0.288-0.228,0.635-0.636,0.887-1.175c0.048-0.108,0.084-0.192,0.084-0.252
			c0-0.061-0.024-0.145-0.084-0.276l-2.135-5.349H256.398z"/>
		<path d="M265.684,148.441c-0.276,0.132-0.887,0.336-1.667,0.336c-1.751,0-2.891-1.188-2.891-2.962
			c0-1.787,1.224-3.095,3.119-3.095c0.624,0,1.175,0.156,1.463,0.312l-0.24,0.804c-0.252-0.132-0.647-0.275-1.223-0.275
			c-1.332,0-2.051,0.995-2.051,2.194c0,1.344,0.864,2.171,2.015,2.171c0.6,0,0.996-0.144,1.295-0.275L265.684,148.441z"/>
		<path d="M271.131,144.855h-3.13v2.914h3.502v0.876h-4.558v-8.084h4.378v0.876h-3.322v2.555h3.13V144.855z"/>
	</g>
</g>
<g>
	
		<radialGradient id="path16609_13_" cx="360.0581" cy="-290.3457" r="16.1856" gradientTransform="matrix(1.5933 0 0 0.6358 -95.6651 329.7249)" gradientUnits="userSpaceOnUse">
		<stop  offset="0" style="stop-color:#C0FF6C"/>
		<stop  offset="0.4082" style="stop-color:#BFFF6C"/>
		<stop  offset="0.5552" style="stop-color:#BAFC6C"/>
		<stop  offset="0.66" style="stop-color:#B4FA6B"/>
		<stop  offset="0.7448" style="stop-color:#AAF76A"/>
		<stop  offset="0.8174" style="stop-color:#9EF269"/>
		<stop  offset="0.8817" style="stop-color:#91EC68"/>
		<stop  offset="0.9398" style="stop-color:#86E666"/>
		<stop  offset="0.9915" style="stop-color:#7EDE64"/>
		<stop  offset="1" style="stop-color:#7DDD64"/>
	</radialGradient>
	<path id="path16609_3_" fill="url(#path16609_13_)" stroke="#000000" d="M503.33,145.122c0,5.786-11.338,10.478-25.314,10.478
		c-13.982,0-25.315-4.689-25.315-10.478s11.333-10.476,25.315-10.476C491.992,134.647,503.33,139.335,503.33,145.122z"/>
	<g>
		<path d="M472.796,148.394c-0.371,0.192-1.15,0.384-2.135,0.384c-2.278,0-3.981-1.439-3.981-4.102c0-2.543,1.716-4.246,4.222-4.246
			c0.996,0,1.643,0.216,1.919,0.36l-0.264,0.852c-0.384-0.192-0.948-0.336-1.619-0.336c-1.896,0-3.154,1.211-3.154,3.334
			c0,1.991,1.14,3.25,3.095,3.25c0.647,0,1.295-0.132,1.715-0.336L472.796,148.394z"/>
		<path d="M474.228,142.841l1.259,3.43c0.144,0.384,0.288,0.84,0.384,1.188h0.023c0.108-0.348,0.229-0.791,0.373-1.211l1.15-3.406
			h1.115l-1.582,4.138c-0.756,1.991-1.271,2.998-1.992,3.634c-0.527,0.444-1.031,0.624-1.295,0.672l-0.264-0.876
			c0.264-0.084,0.611-0.252,0.924-0.516c0.287-0.228,0.635-0.636,0.887-1.175c0.049-0.108,0.084-0.192,0.084-0.252
			c0-0.061-0.023-0.145-0.084-0.276l-2.135-5.349H474.228z"/>
		<path d="M483.513,148.441c-0.275,0.132-0.887,0.336-1.666,0.336c-1.752,0-2.891-1.188-2.891-2.962
			c0-1.787,1.223-3.095,3.118-3.095c0.624,0,1.175,0.156,1.463,0.312l-0.239,0.804c-0.252-0.132-0.648-0.275-1.224-0.275
			c-1.331,0-2.052,0.995-2.052,2.194c0,1.344,0.864,2.171,2.016,2.171c0.6,0,0.996-0.144,1.295-0.275L483.513,148.441z"/>
		<path d="M488.961,144.855h-3.13v2.914h3.502v0.876h-4.558v-8.084h4.378v0.876h-3.322v2.555h3.13V144.855z"/>
	</g>
</g>
<g>
	
		<radialGradient id="path31151_4_" cx="16.2524" cy="120.0137" r="16.6903" gradientTransform="matrix(1 0 0 -1 126.311 265.1367)" gradientUnits="userSpaceOnUse">
		<stop  offset="0" style="stop-color:#FFDD9E"/>
		<stop  offset="0.2912" style="stop-color:#FFDA9C"/>
		<stop  offset="0.4343" style="stop-color:#FFD297"/>
		<stop  offset="0.545" style="stop-color:#FCC58E"/>
		<stop  offset="0.6392" style="stop-color:#F9B180"/>
		<stop  offset="0.7229" style="stop-color:#F69971"/>
		<stop  offset="0.799" style="stop-color:#F37B5C"/>
		<stop  offset="0.8695" style="stop-color:#F05B45"/>
		<stop  offset="0.9348" style="stop-color:#EE392D"/>
		<stop  offset="0.9951" style="stop-color:#EC2224"/>
		<stop  offset="1" style="stop-color:#EC2224"/>
	</radialGradient>
	<path id="path31151_3_" fill="url(#path31151_4_)" stroke="#000000" d="M154.967,138.011l8.24,7.041l-7.393,6.469
		c-3.332,3.045-8.97,5.047-15.367,5.047c-10.23,0-18.527-5.127-18.527-11.443c0-6.324,8.295-11.445,18.527-11.445
		C146.329,133.677,151.573,135.37,154.967,138.011z"/>
	<g>
		<path d="M135.306,148.393c-0.372,0.192-1.151,0.384-2.135,0.384c-2.279,0-3.982-1.439-3.982-4.102
			c0-2.543,1.715-4.246,4.222-4.246c0.996,0,1.643,0.216,1.919,0.36l-0.264,0.852c-0.384-0.192-0.948-0.336-1.619-0.336
			c-1.895,0-3.154,1.211-3.154,3.334c0,1.991,1.139,3.25,3.094,3.25c0.648,0,1.295-0.132,1.715-0.336L135.306,148.393z"/>
		<path d="M136.629,140.681c0.636-0.107,1.391-0.18,2.219-0.18c1.499,0,2.566,0.359,3.274,1.008
			c0.732,0.659,1.151,1.595,1.151,2.902c0,1.319-0.419,2.398-1.163,3.142c-0.768,0.756-2.015,1.164-3.586,1.164
			c-0.756,0-1.367-0.036-1.895-0.097V140.681z M137.672,147.829c0.264,0.036,0.647,0.048,1.055,0.048
			c2.243,0,3.442-1.247,3.442-3.43c0.012-1.907-1.067-3.119-3.274-3.119c-0.54,0-0.947,0.049-1.223,0.108V147.829z"/>
		<path d="M144.621,140.561h1.043v3.898h0.036c0.216-0.312,0.432-0.6,0.636-0.863l2.471-3.035h1.295l-2.926,3.431l3.154,4.653
			h-1.235l-2.651-3.97l-0.779,0.888v3.082h-1.043V140.561z"/>
		<path d="M150.752,148.645v-0.647l0.828-0.804c1.991-1.895,2.902-2.902,2.902-4.078c0-0.791-0.372-1.522-1.535-1.522
			c-0.708,0-1.295,0.359-1.655,0.659l-0.336-0.743c0.528-0.444,1.307-0.792,2.195-0.792c1.679,0,2.387,1.151,2.387,2.267
			c0,1.439-1.043,2.603-2.687,4.186l-0.612,0.576v0.023h3.49v0.876H150.752z"/>
	</g>
</g>
<g>
	
		<radialGradient id="path31151_5_" cx="177.4038" cy="120.0137" r="16.69" gradientTransform="matrix(1 0 0 -1 126.311 265.1367)" gradientUnits="userSpaceOnUse">
		<stop  offset="0" style="stop-color:#FFDD9E"/>
		<stop  offset="0.2912" style="stop-color:#FFDA9C"/>
		<stop  offset="0.4343" style="stop-color:#FFD297"/>
		<stop  offset="0.545" style="stop-color:#FCC58E"/>
		<stop  offset="0.6392" style="stop-color:#F9B180"/>
		<stop  offset="0.7229" style="stop-color:#F69971"/>
		<stop  offset="0.799" style="stop-color:#F37B5C"/>
		<stop  offset="0.8695" style="stop-color:#F05B45"/>
		<stop  offset="0.9348" style="stop-color:#EE392D"/>
		<stop  offset="0.9951" style="stop-color:#EC2224"/>
		<stop  offset="1" style="stop-color:#EC2224"/>
	</radialGradient>
	<path id="path31151_1_" fill="url(#path31151_5_)" stroke="#000000" d="M316.119,138.011l8.239,7.041l-7.392,6.469
		c-3.333,3.045-8.971,5.047-15.367,5.047c-10.23,0-18.528-5.127-18.528-11.443c0-6.324,8.294-11.445,18.528-11.445
		C307.48,133.677,312.724,135.37,316.119,138.011z"/>
	<g>
		<path d="M296.457,148.393c-0.371,0.192-1.15,0.384-2.135,0.384c-2.278,0-3.981-1.439-3.981-4.102c0-2.543,1.716-4.246,4.222-4.246
			c0.996,0,1.643,0.216,1.919,0.36l-0.264,0.852c-0.384-0.192-0.948-0.336-1.619-0.336c-1.896,0-3.154,1.211-3.154,3.334
			c0,1.991,1.14,3.25,3.095,3.25c0.647,0,1.295-0.132,1.715-0.336L296.457,148.393z"/>
		<path d="M297.781,140.681c0.635-0.107,1.391-0.18,2.219-0.18c1.498,0,2.566,0.359,3.273,1.008
			c0.732,0.659,1.151,1.595,1.151,2.902c0,1.319-0.419,2.398-1.163,3.142c-0.768,0.756-2.016,1.164-3.586,1.164
			c-0.756,0-1.367-0.036-1.895-0.097V140.681z M298.824,147.829c0.264,0.036,0.647,0.048,1.055,0.048
			c2.243,0,3.443-1.247,3.443-3.43c0.012-1.907-1.068-3.119-3.275-3.119c-0.539,0-0.947,0.049-1.223,0.108V147.829z"/>
		<path d="M305.772,140.561h1.044v3.898h0.035c0.216-0.312,0.432-0.6,0.636-0.863l2.471-3.035h1.296l-2.927,3.431l3.154,4.653
			h-1.235l-2.65-3.97l-0.779,0.888v3.082h-1.044V140.561z"/>
		<path d="M311.904,148.645v-0.647l0.828-0.804c1.99-1.895,2.902-2.902,2.902-4.078c0-0.791-0.372-1.522-1.535-1.522
			c-0.708,0-1.296,0.359-1.655,0.659l-0.336-0.743c0.528-0.444,1.308-0.792,2.194-0.792c1.68,0,2.387,1.151,2.387,2.267
			c0,1.439-1.043,2.603-2.686,4.186l-0.612,0.576v0.023h3.49v0.876H311.904z"/>
	</g>
</g>
<g>
	
		<radialGradient id="path31151_6_" cx="397.6626" cy="120.0137" r="16.6903" gradientTransform="matrix(1 0 0 -1 126.311 265.1367)" gradientUnits="userSpaceOnUse">
		<stop  offset="0" style="stop-color:#FFDD9E"/>
		<stop  offset="0.2912" style="stop-color:#FFDA9C"/>
		<stop  offset="0.4343" style="stop-color:#FFD297"/>
		<stop  offset="0.545" style="stop-color:#FCC58E"/>
		<stop  offset="0.6392" style="stop-color:#F9B180"/>
		<stop  offset="0.7229" style="stop-color:#F69971"/>
		<stop  offset="0.799" style="stop-color:#F37B5C"/>
		<stop  offset="0.8695" style="stop-color:#F05B45"/>
		<stop  offset="0.9348" style="stop-color:#EE392D"/>
		<stop  offset="0.9951" style="stop-color:#EC2224"/>
		<stop  offset="1" style="stop-color:#EC2224"/>
	</radialGradient>
	<path id="path31151_2_" fill="url(#path31151_6_)" stroke="#000000" d="M536.376,138.011l8.24,7.041l-7.393,6.469
		c-3.332,3.045-8.969,5.047-15.366,5.047c-10.231,0-18.528-5.127-18.528-11.443c0-6.324,8.295-11.445,18.528-11.445
		C527.74,133.677,532.983,135.37,536.376,138.011z"/>
	<g>
		<path d="M516.716,148.393c-0.372,0.192-1.152,0.384-2.135,0.384c-2.279,0-3.982-1.439-3.982-4.102
			c0-2.543,1.715-4.246,4.222-4.246c0.995,0,1.644,0.216,1.919,0.36l-0.264,0.852c-0.384-0.192-0.947-0.336-1.619-0.336
			c-1.895,0-3.154,1.211-3.154,3.334c0,1.991,1.139,3.25,3.094,3.25c0.648,0,1.296-0.132,1.716-0.336L516.716,148.393z"/>
		<path d="M518.039,140.681c0.637-0.107,1.392-0.18,2.219-0.18c1.5,0,2.566,0.359,3.274,1.008c0.731,0.659,1.151,1.595,1.151,2.902
			c0,1.319-0.42,2.398-1.163,3.142c-0.768,0.756-2.015,1.164-3.586,1.164c-0.756,0-1.367-0.036-1.896-0.097V140.681z
			 M519.083,147.829c0.264,0.036,0.647,0.048,1.056,0.048c2.242,0,3.441-1.247,3.441-3.43c0.012-1.907-1.066-3.119-3.273-3.119
			c-0.54,0-0.947,0.049-1.224,0.108V147.829z"/>
		<path d="M526.031,140.561h1.043v3.898h0.036c0.216-0.312,0.433-0.6,0.636-0.863l2.471-3.035h1.295l-2.926,3.431l3.154,4.653
			h-1.235l-2.651-3.97l-0.779,0.888v3.082h-1.043V140.561z"/>
		<path d="M532.163,148.645v-0.647l0.827-0.804c1.991-1.895,2.902-2.902,2.902-4.078c0-0.791-0.371-1.522-1.535-1.522
			c-0.707,0-1.295,0.359-1.654,0.659l-0.336-0.743c0.527-0.444,1.307-0.792,2.195-0.792c1.679,0,2.387,1.151,2.387,2.267
			c0,1.439-1.044,2.603-2.688,4.186l-0.611,0.576v0.023h3.49v0.876H532.163z"/>
	</g>
</g>
<g>
	<path id="path19818" fill="#FFFF00" stroke="#000000" d="M329.038,145.123c0,2.68-2.097,4.854-4.681,4.854
		c-2.586,0-4.679-2.174-4.679-4.854s2.093-4.854,4.679-4.854C326.941,140.27,329.038,142.443,329.038,145.123z"/>
	<g enable-background="new    ">
		<path fill="#FF3399" d="M322.902,142.177c0.322-0.063,0.744-0.111,1.279-0.111c0.659,0,1.142,0.159,1.448,0.444
			c0.283,0.254,0.46,0.643,0.46,1.119c0,0.483-0.139,0.864-0.406,1.143c-0.353,0.389-0.927,0.587-1.578,0.587
			c-0.199,0-0.383-0.008-0.536-0.048v2.143h-0.667V142.177z M323.569,144.747c0.146,0.04,0.337,0.056,0.552,0.056
			c0.812,0,1.295-0.412,1.295-1.135c0-0.714-0.483-1.055-1.219-1.055c-0.291,0-0.514,0.031-0.628,0.056V144.747z"/>
	</g>
</g>
<g>
	<path id="path19818_1_" fill="#FFFF00" stroke="#000000" d="M549.298,145.123c0,2.68-2.099,4.854-4.683,4.854
		c-2.585,0-4.679-2.174-4.679-4.854s2.094-4.854,4.679-4.854C547.2,140.27,549.298,142.443,549.298,145.123z"/>
	<g enable-background="new    ">
		<path fill="#FF3399" d="M543.162,142.177c0.322-0.063,0.744-0.111,1.279-0.111c0.659,0,1.142,0.159,1.448,0.444
			c0.283,0.254,0.46,0.643,0.46,1.119c0,0.483-0.139,0.864-0.406,1.143c-0.353,0.389-0.927,0.587-1.578,0.587
			c-0.199,0-0.383-0.008-0.536-0.048v2.143h-0.667V142.177z M543.829,144.747c0.146,0.04,0.337,0.056,0.552,0.056
			c0.812,0,1.295-0.412,1.295-1.135c0-0.714-0.483-1.055-1.219-1.055c-0.291,0-0.514,0.031-0.628,0.056V144.747z"/>
	</g>
</g>
<g>
	<path id="path19818_2_" fill="#FFFF00" stroke="#000000" d="M171.661,73.514c0,2.681-2.098,4.854-4.682,4.854
		c-2.584,0-4.679-2.173-4.679-4.854c0-2.68,2.095-4.853,4.679-4.853C169.563,68.661,171.661,70.834,171.661,73.514z"/>
	<g enable-background="new    ">
		<path fill="#FF3399" d="M165.525,70.567c0.322-0.063,0.743-0.111,1.279-0.111c0.659,0,1.141,0.159,1.448,0.444
			c0.283,0.254,0.459,0.643,0.459,1.119c0,0.483-0.138,0.864-0.406,1.143c-0.353,0.389-0.927,0.587-1.578,0.587
			c-0.199,0-0.383-0.008-0.536-0.048v2.143h-0.667V70.567z M166.192,73.138c0.146,0.04,0.337,0.056,0.552,0.056
			c0.812,0,1.294-0.412,1.294-1.135c0-0.714-0.483-1.055-1.218-1.055c-0.291,0-0.513,0.031-0.628,0.056V73.138z"/>
	</g>
</g>
<g>
	<path id="path19818_3_" fill="#FFFF00" stroke="#000000" d="M170.624,217.9c0,2.681-2.098,4.854-4.682,4.854
		c-2.584,0-4.679-2.173-4.679-4.854c0-2.68,2.095-4.853,4.679-4.853C168.526,213.048,170.624,215.221,170.624,217.9z"/>
	<g enable-background="new    ">
		<path fill="#FF3399" d="M164.488,214.954c0.322-0.063,0.743-0.111,1.279-0.111c0.659,0,1.141,0.159,1.448,0.444
			c0.283,0.254,0.459,0.643,0.459,1.119c0,0.483-0.138,0.864-0.406,1.143c-0.353,0.389-0.927,0.587-1.578,0.587
			c-0.199,0-0.383-0.008-0.536-0.048v2.143h-0.667V214.954z M165.155,217.524c0.146,0.04,0.337,0.056,0.552,0.056
			c0.812,0,1.294-0.412,1.294-1.135c0-0.714-0.483-1.055-1.218-1.055c-0.291,0-0.513,0.031-0.628,0.056V217.524z"/>
	</g>
</g>
<g>
	<path id="path19818_4_" fill="#FFFF00" stroke="#000000" d="M315.616,339c0,2.681-2.097,4.854-4.681,4.854
		c-2.586,0-4.679-2.173-4.679-4.854c0-2.68,2.093-4.853,4.679-4.853C313.519,334.147,315.616,336.32,315.616,339z"/>
	<g enable-background="new    ">
		<path fill="#FF3399" d="M309.48,336.054c0.322-0.063,0.744-0.111,1.279-0.111c0.659,0,1.142,0.159,1.448,0.444
			c0.283,0.254,0.46,0.643,0.46,1.119c0,0.483-0.139,0.864-0.406,1.143c-0.353,0.389-0.927,0.587-1.578,0.587
			c-0.199,0-0.383-0.008-0.536-0.048v2.143h-0.667V336.054z M310.147,338.624c0.146,0.04,0.337,0.056,0.552,0.056
			c0.812,0,1.295-0.412,1.295-1.135c0-0.714-0.483-1.055-1.219-1.055c-0.291,0-0.514,0.031-0.628,0.056V338.624z"/>
	</g>
</g>
<g>
	<path id="path19818_5_" fill="#FFFF00" stroke="#000000" d="M223.091,192.816c0,2.681-2.098,4.854-4.682,4.854
		c-2.584,0-4.679-2.173-4.679-4.854c0-2.68,2.095-4.853,4.679-4.853C220.993,187.964,223.091,190.137,223.091,192.816z"/>
	<g enable-background="new    ">
		<path fill="#FF3399" d="M216.955,189.87c0.322-0.063,0.743-0.111,1.279-0.111c0.659,0,1.141,0.159,1.448,0.444
			c0.283,0.254,0.459,0.643,0.459,1.119c0,0.483-0.138,0.864-0.406,1.143c-0.353,0.389-0.927,0.587-1.578,0.587
			c-0.199,0-0.383-0.008-0.536-0.048v2.143h-0.667V189.87z M217.622,192.44c0.146,0.04,0.337,0.056,0.552,0.056
			c0.812,0,1.294-0.412,1.294-1.135c0-0.714-0.483-1.055-1.218-1.055c-0.291,0-0.513,0.031-0.628,0.056V192.44z"/>
	</g>
</g>
<g>
	<g>
		
			<radialGradient id="path32439_4_" cx="-194.5156" cy="-146.6592" r="14.7098" gradientTransform="matrix(1 0 0 -1 330.6191 101.6816)" gradientUnits="userSpaceOnUse">
			<stop  offset="0" style="stop-color:#ADD153"/>
			<stop  offset="0.4082" style="stop-color:#AAD051"/>
			<stop  offset="0.5552" style="stop-color:#A6CF52"/>
			<stop  offset="0.66" style="stop-color:#9ECC52"/>
			<stop  offset="0.7448" style="stop-color:#93C850"/>
			<stop  offset="0.8174" style="stop-color:#84C450"/>
			<stop  offset="0.8817" style="stop-color:#76C052"/>
			<stop  offset="0.9398" style="stop-color:#64BB52"/>
			<stop  offset="0.9915" style="stop-color:#58B953"/>
			<stop  offset="1" style="stop-color:#58B953"/>
		</radialGradient>
		<path id="path32439_1_" fill="url(#path32439_4_)" stroke="#000000" stroke-miterlimit="3.8637" d="M118.686,248.437
			c0-6.334,7.801-11.471,17.418-11.471c9.619,0,17.518,5.138,17.416,11.471c-0.021,1.307-1.021,2.557-1.898,3.082
			c0,0-12.318-3.891-16.582,0c-2.361,2.154,0,8.197,0,8.197C126.948,258.726,118.686,254.052,118.686,248.437z"/>
	</g>
	<g enable-background="new    ">
		<path d="M131.881,245.118h-2.609v2.429h2.918v0.729h-3.798v-6.736h3.648v0.729h-2.769v2.129h2.609V245.118z"/>
		<path d="M133.013,248.276v-0.54l0.689-0.669c1.659-1.579,2.419-2.419,2.419-3.398c0-0.66-0.31-1.27-1.279-1.27
			c-0.59,0-1.08,0.3-1.379,0.55l-0.28-0.619c0.44-0.37,1.089-0.66,1.839-0.66c1.389,0,1.979,0.96,1.979,1.889
			c0,1.2-0.87,2.169-2.239,3.488l-0.51,0.479v0.021h2.909v0.729H133.013z"/>
		<path d="M138.442,241.54h3.628v0.729h-2.749v2.239h2.539v0.72h-2.539v3.048h-0.879V241.54z"/>
	</g>
</g>
<g>
	
		<radialGradient id="path16609_14_" cx="158.3315" cy="-111.5249" r="16.1858" gradientTransform="matrix(1.5933 0 0 0.6358 -95.6651 329.7249)" gradientUnits="userSpaceOnUse">
		<stop  offset="0" style="stop-color:#C0FF6C"/>
		<stop  offset="0.4082" style="stop-color:#BFFF6C"/>
		<stop  offset="0.5552" style="stop-color:#BAFC6C"/>
		<stop  offset="0.66" style="stop-color:#B4FA6B"/>
		<stop  offset="0.7448" style="stop-color:#AAF76A"/>
		<stop  offset="0.8174" style="stop-color:#9EF269"/>
		<stop  offset="0.8817" style="stop-color:#91EC68"/>
		<stop  offset="0.9398" style="stop-color:#86E666"/>
		<stop  offset="0.9915" style="stop-color:#7EDE64"/>
		<stop  offset="1" style="stop-color:#7DDD64"/>
	</radialGradient>
	<path id="path16609_4_" fill="url(#path16609_14_)" stroke="#000000" d="M181.92,258.816c0,5.786-11.338,10.478-25.315,10.478
		c-13.981,0-25.315-4.689-25.315-10.478s11.334-10.476,25.315-10.476C170.583,248.342,181.92,253.029,181.92,258.816z"/>
	<g>
		<path d="M150.82,254.364c0.528-0.096,1.296-0.168,2.003-0.168c1.115,0,1.848,0.216,2.339,0.659
			c0.396,0.36,0.636,0.912,0.636,1.548c0,1.056-0.672,1.763-1.511,2.051v0.036c0.611,0.216,0.983,0.791,1.175,1.631
			c0.264,1.127,0.456,1.907,0.624,2.219h-1.079c-0.133-0.24-0.312-0.924-0.528-1.931c-0.239-1.115-0.684-1.535-1.631-1.571h-0.983
			v3.502h-1.044V254.364z M151.864,258.046h1.067c1.115,0,1.823-0.611,1.823-1.535c0-1.043-0.756-1.499-1.859-1.499
			c-0.504,0-0.852,0.036-1.031,0.084V258.046z"/>
		<path d="M157.348,253.824h1.043v3.646h0.024c0.371-0.647,1.043-1.056,1.979-1.056c1.451,0,2.459,1.199,2.459,2.95
			c0,2.075-1.319,3.106-2.615,3.106c-0.839,0-1.511-0.323-1.955-1.079h-0.023l-0.06,0.947h-0.9c0.024-0.396,0.049-0.983,0.049-1.499
			V253.824z M158.391,260.013c0,0.133,0.012,0.265,0.048,0.384c0.192,0.732,0.815,1.235,1.583,1.235c1.115,0,1.764-0.899,1.764-2.23
			c0-1.163-0.6-2.159-1.739-2.159c-0.708,0-1.38,0.504-1.596,1.296c-0.035,0.132-0.06,0.275-0.06,0.443V260.013z"/>
	</g>
</g>
<g>
	<g>
		
			<radialGradient id="path32439_5_" cx="-73.439" cy="-148.7969" r="14.7098" gradientTransform="matrix(1 0 0 -1 330.6191 101.6816)" gradientUnits="userSpaceOnUse">
			<stop  offset="0" style="stop-color:#ADD153"/>
			<stop  offset="0.4082" style="stop-color:#AAD051"/>
			<stop  offset="0.5552" style="stop-color:#A6CF52"/>
			<stop  offset="0.66" style="stop-color:#9ECC52"/>
			<stop  offset="0.7448" style="stop-color:#93C850"/>
			<stop  offset="0.8174" style="stop-color:#84C450"/>
			<stop  offset="0.8817" style="stop-color:#76C052"/>
			<stop  offset="0.9398" style="stop-color:#64BB52"/>
			<stop  offset="0.9915" style="stop-color:#58B953"/>
			<stop  offset="1" style="stop-color:#58B953"/>
		</radialGradient>
		<path id="path32439_2_" fill="url(#path32439_5_)" stroke="#000000" stroke-miterlimit="3.8637" d="M239.763,250.574
			c0-6.334,7.801-11.471,17.418-11.471c9.619,0,17.517,5.138,17.416,11.471c-0.021,1.307-1.021,2.557-1.898,3.082
			c0,0-12.318-3.891-16.582,0c-2.361,2.154,0,8.197,0,8.197C248.025,260.863,239.763,256.189,239.763,250.574z"/>
	</g>
	<g enable-background="new    ">
		<path d="M252.958,247.256h-2.609v2.429h2.918v0.729h-3.798v-6.736h3.648v0.729h-2.769v2.129h2.609V247.256z"/>
		<path d="M254.09,250.414v-0.54l0.689-0.669c1.659-1.579,2.419-2.419,2.419-3.398c0-0.66-0.31-1.27-1.279-1.27
			c-0.59,0-1.08,0.3-1.379,0.55l-0.28-0.619c0.44-0.37,1.089-0.66,1.839-0.66c1.389,0,1.979,0.96,1.979,1.889
			c0,1.2-0.87,2.169-2.239,3.488l-0.51,0.479v0.021h2.909v0.729H254.09z"/>
		<path d="M259.52,243.678h3.628v0.729h-2.749v2.239h2.539v0.72h-2.539v3.048h-0.879V243.678z"/>
	</g>
</g>
<g>
	
		<radialGradient id="path16609_15_" cx="238.4688" cy="-95.3018" r="16.1858" gradientTransform="matrix(1.5933 0 0 0.6358 -95.6651 329.7249)" gradientUnits="userSpaceOnUse">
		<stop  offset="0" style="stop-color:#C0FF6C"/>
		<stop  offset="0.4082" style="stop-color:#BFFF6C"/>
		<stop  offset="0.5552" style="stop-color:#BAFC6C"/>
		<stop  offset="0.66" style="stop-color:#B4FA6B"/>
		<stop  offset="0.7448" style="stop-color:#AAF76A"/>
		<stop  offset="0.8174" style="stop-color:#9EF269"/>
		<stop  offset="0.8817" style="stop-color:#91EC68"/>
		<stop  offset="0.9398" style="stop-color:#86E666"/>
		<stop  offset="0.9915" style="stop-color:#7EDE64"/>
		<stop  offset="1" style="stop-color:#7DDD64"/>
	</radialGradient>
	<path id="path16609_5_" fill="url(#path16609_15_)" stroke="#000000" d="M309.602,269.131c0,5.786-11.338,10.478-25.314,10.478
		c-13.982,0-25.316-4.689-25.316-10.478s11.334-10.476,25.316-10.476C298.264,258.656,309.602,263.344,309.602,269.131z"/>
	<g>
		<path d="M278.502,264.679c0.528-0.096,1.296-0.168,2.003-0.168c1.115,0,1.848,0.216,2.339,0.659
			c0.396,0.36,0.636,0.912,0.636,1.548c0,1.056-0.672,1.763-1.511,2.051v0.036c0.611,0.216,0.983,0.791,1.175,1.631
			c0.264,1.127,0.456,1.907,0.624,2.219h-1.079c-0.133-0.24-0.312-0.924-0.528-1.931c-0.239-1.115-0.684-1.535-1.631-1.571h-0.983
			v3.502h-1.044V264.679z M279.546,268.36h1.067c1.115,0,1.823-0.611,1.823-1.535c0-1.043-0.756-1.499-1.859-1.499
			c-0.504,0-0.852,0.036-1.031,0.084V268.36z"/>
		<path d="M285.031,264.139h1.043v3.646h0.024c0.371-0.647,1.043-1.056,1.979-1.056c1.451,0,2.459,1.199,2.459,2.95
			c0,2.075-1.319,3.106-2.615,3.106c-0.839,0-1.511-0.323-1.955-1.079h-0.023l-0.06,0.947h-0.9c0.024-0.396,0.049-0.983,0.049-1.499
			V264.139z M286.074,270.327c0,0.133,0.012,0.265,0.048,0.384c0.192,0.732,0.815,1.235,1.583,1.235c1.115,0,1.764-0.899,1.764-2.23
			c0-1.163-0.6-2.159-1.739-2.159c-0.708,0-1.38,0.504-1.596,1.296c-0.035,0.132-0.06,0.275-0.06,0.443V270.327z"/>
	</g>
</g>
<g>
	<g>
		
			<radialGradient id="path32439_6_" cx="56.7227" cy="-158.0342" r="14.7098" gradientTransform="matrix(1 0 0 -1 330.6191 101.6816)" gradientUnits="userSpaceOnUse">
			<stop  offset="0" style="stop-color:#ADD153"/>
			<stop  offset="0.4082" style="stop-color:#AAD051"/>
			<stop  offset="0.5552" style="stop-color:#A6CF52"/>
			<stop  offset="0.66" style="stop-color:#9ECC52"/>
			<stop  offset="0.7448" style="stop-color:#93C850"/>
			<stop  offset="0.8174" style="stop-color:#84C450"/>
			<stop  offset="0.8817" style="stop-color:#76C052"/>
			<stop  offset="0.9398" style="stop-color:#64BB52"/>
			<stop  offset="0.9915" style="stop-color:#58B953"/>
			<stop  offset="1" style="stop-color:#58B953"/>
		</radialGradient>
		<path id="path32439_3_" fill="url(#path32439_6_)" stroke="#000000" stroke-miterlimit="3.8637" d="M369.924,259.812
			c0-6.334,7.801-11.471,17.419-11.471s17.518,5.138,17.415,11.471c-0.021,1.307-1.021,2.557-1.897,3.082c0,0-12.319-3.891-16.583,0
			c-2.361,2.154,0,8.197,0,8.197C378.186,270.101,369.924,265.427,369.924,259.812z"/>
	</g>
	<g enable-background="new    ">
		<path d="M383.121,256.493h-2.609v2.429h2.918v0.729h-3.797v-6.736h3.647v0.729h-2.769v2.129h2.609V256.493z"/>
		<path d="M384.251,259.651v-0.54l0.689-0.669c1.66-1.579,2.42-2.419,2.42-3.398c0-0.66-0.311-1.27-1.279-1.27
			c-0.59,0-1.08,0.3-1.38,0.55l-0.28-0.619c0.44-0.37,1.09-0.66,1.84-0.66c1.389,0,1.979,0.96,1.979,1.889
			c0,1.2-0.869,2.169-2.238,3.488l-0.51,0.479v0.021h2.908v0.729H384.251z"/>
		<path d="M389.681,252.915h3.629v0.729h-2.749v2.239h2.538v0.72h-2.538v3.048h-0.88V252.915z"/>
	</g>
</g>
<g>
	
		<radialGradient id="path16609_16_" cx="328.0649" cy="-87.5132" r="16.1858" gradientTransform="matrix(1.5933 0 0 0.6358 -95.6651 329.7249)" gradientUnits="userSpaceOnUse">
		<stop  offset="0" style="stop-color:#C0FF6C"/>
		<stop  offset="0.4082" style="stop-color:#BFFF6C"/>
		<stop  offset="0.5552" style="stop-color:#BAFC6C"/>
		<stop  offset="0.66" style="stop-color:#B4FA6B"/>
		<stop  offset="0.7448" style="stop-color:#AAF76A"/>
		<stop  offset="0.8174" style="stop-color:#9EF269"/>
		<stop  offset="0.8817" style="stop-color:#91EC68"/>
		<stop  offset="0.9398" style="stop-color:#86E666"/>
		<stop  offset="0.9915" style="stop-color:#7EDE64"/>
		<stop  offset="1" style="stop-color:#7DDD64"/>
	</radialGradient>
	<path id="path16609_6_" fill="url(#path16609_16_)" stroke="#000000" d="M452.357,274.083c0,5.786-11.339,10.478-25.315,10.478
		c-13.982,0-25.316-4.689-25.316-10.478s11.334-10.476,25.316-10.476C441.018,263.608,452.357,268.296,452.357,274.083z"/>
	<g>
		<path d="M421.256,269.631c0.528-0.096,1.296-0.168,2.003-0.168c1.115,0,1.848,0.216,2.339,0.659
			c0.396,0.36,0.636,0.912,0.636,1.548c0,1.056-0.672,1.763-1.511,2.051v0.036c0.611,0.216,0.983,0.791,1.175,1.631
			c0.264,1.127,0.456,1.907,0.624,2.219h-1.079c-0.133-0.24-0.312-0.924-0.528-1.931c-0.239-1.115-0.684-1.535-1.631-1.571H422.3
			v3.502h-1.044V269.631z M422.3,273.312h1.067c1.115,0,1.823-0.611,1.823-1.535c0-1.043-0.756-1.499-1.859-1.499
			c-0.504,0-0.852,0.036-1.031,0.084V273.312z"/>
		<path d="M427.785,269.091h1.043v3.646h0.024c0.371-0.647,1.043-1.056,1.979-1.056c1.451,0,2.459,1.199,2.459,2.95
			c0,2.075-1.319,3.106-2.615,3.106c-0.839,0-1.511-0.323-1.955-1.079h-0.023l-0.06,0.947h-0.9c0.024-0.396,0.049-0.983,0.049-1.499
			V269.091z M428.828,275.279c0,0.133,0.012,0.265,0.048,0.384c0.192,0.732,0.815,1.235,1.583,1.235c1.115,0,1.764-0.899,1.764-2.23
			c0-1.163-0.6-2.159-1.739-2.159c-0.708,0-1.38,0.504-1.596,1.296c-0.035,0.132-0.06,0.275-0.06,0.443V275.279z"/>
	</g>
</g>
<g>
	<path id="path19818_6_" fill="#FFFF00" stroke="#000000" d="M457.038,274.021c0,2.681-2.099,4.854-4.683,4.854
		s-4.68-2.173-4.68-4.854c0-2.68,2.096-4.853,4.68-4.853S457.038,271.341,457.038,274.021z"/>
	<g enable-background="new    ">
		<path fill="#FF3399" d="M450.901,271.074c0.321-0.063,0.743-0.111,1.279-0.111c0.659,0,1.142,0.159,1.448,0.444
			c0.283,0.254,0.459,0.643,0.459,1.119c0,0.483-0.138,0.864-0.406,1.143c-0.352,0.389-0.926,0.587-1.578,0.587
			c-0.199,0-0.383-0.008-0.535-0.048v2.143h-0.667V271.074z M451.568,273.645c0.145,0.04,0.336,0.056,0.551,0.056
			c0.812,0,1.295-0.412,1.295-1.135c0-0.714-0.482-1.055-1.219-1.055c-0.291,0-0.513,0.031-0.627,0.056V273.645z"/>
	</g>
</g>
<g>
	<g>
		<g id="g22085_59_" transform="translate(17.00007,-71.31057)">
			
				<radialGradient id="path20137_1_" cx="-34.606" cy="-855.1562" r="17.8359" gradientTransform="matrix(0 0.3111 -0.2958 0 147.3199 97.5713)" gradientUnits="userSpaceOnUse">
				<stop  offset="0" style="stop-color:#ACD151"/>
				<stop  offset="0.4082" style="stop-color:#AAD051"/>
				<stop  offset="0.5552" style="stop-color:#A5CE52"/>
				<stop  offset="0.66" style="stop-color:#9FCC52"/>
				<stop  offset="0.7448" style="stop-color:#93C851"/>
				<stop  offset="0.8174" style="stop-color:#84C451"/>
				<stop  offset="0.8817" style="stop-color:#75BF50"/>
				<stop  offset="0.9398" style="stop-color:#64BB52"/>
				<stop  offset="0.9915" style="stop-color:#58B953"/>
				<stop  offset="1" style="stop-color:#57B953"/>
			</radialGradient>
			<path id="path20137_59_" fill="url(#path20137_1_)" stroke="#000000" d="M400.275,92.355c-2.913,0-5.275-2.485-5.275-5.549
				c0-3.066,2.362-5.55,5.275-5.55c2.914,0,5.275,2.483,5.275,5.55C405.55,89.869,403.189,92.355,400.275,92.355z"/>
		</g>
		<g id="g22085_58_" transform="translate(17.00007,-71.31057)">
			
				<radialGradient id="path20137_2_" cx="5.8539" cy="-877.4902" r="17.8374" gradientTransform="matrix(0 0.3111 -0.2958 0 147.3199 97.5713)" gradientUnits="userSpaceOnUse">
				<stop  offset="0" style="stop-color:#ACD151"/>
				<stop  offset="0.4082" style="stop-color:#AAD051"/>
				<stop  offset="0.5552" style="stop-color:#A5CE52"/>
				<stop  offset="0.66" style="stop-color:#9FCC52"/>
				<stop  offset="0.7448" style="stop-color:#93C851"/>
				<stop  offset="0.8174" style="stop-color:#84C451"/>
				<stop  offset="0.8817" style="stop-color:#75BF50"/>
				<stop  offset="0.9398" style="stop-color:#64BB52"/>
				<stop  offset="0.9915" style="stop-color:#58B953"/>
				<stop  offset="1" style="stop-color:#57B953"/>
			</radialGradient>
			<path id="path20137_58_" fill="url(#path20137_2_)" stroke="#000000" d="M406.881,104.941c-2.913,0-5.276-2.485-5.276-5.549
				c0-3.065,2.363-5.55,5.276-5.55c2.914,0,5.276,2.484,5.276,5.55C412.158,102.456,409.795,104.941,406.881,104.941z"/>
		</g>
		<g id="g22085_57_" transform="translate(17.00007,-71.31057)">
			
				<radialGradient id="path20137_3_" cx="5.8539" cy="-832.5029" r="17.835" gradientTransform="matrix(0 0.3111 -0.2958 0 147.3199 97.5713)" gradientUnits="userSpaceOnUse">
				<stop  offset="0" style="stop-color:#ACD151"/>
				<stop  offset="0.4082" style="stop-color:#AAD051"/>
				<stop  offset="0.5552" style="stop-color:#A5CE52"/>
				<stop  offset="0.66" style="stop-color:#9FCC52"/>
				<stop  offset="0.7448" style="stop-color:#93C851"/>
				<stop  offset="0.8174" style="stop-color:#84C451"/>
				<stop  offset="0.8817" style="stop-color:#75BF50"/>
				<stop  offset="0.9398" style="stop-color:#64BB52"/>
				<stop  offset="0.9915" style="stop-color:#58B953"/>
				<stop  offset="1" style="stop-color:#57B953"/>
			</radialGradient>
			<path id="path20137_57_" fill="url(#path20137_3_)" stroke="#000000" d="M393.575,104.941c-2.915,0-5.275-2.485-5.275-5.549
				c0-3.065,2.36-5.55,5.275-5.55c2.913,0,5.274,2.484,5.274,5.55C398.849,102.456,396.488,104.941,393.575,104.941z"/>
		</g>
		<g id="g22085_56_" transform="translate(17.00007,-71.31057)">
			
				<radialGradient id="path20137_4_" cx="44.7319" cy="-855.1562" r="17.8359" gradientTransform="matrix(0 0.3111 -0.2958 0 147.3199 97.5713)" gradientUnits="userSpaceOnUse">
				<stop  offset="0" style="stop-color:#ACD151"/>
				<stop  offset="0.4082" style="stop-color:#AAD051"/>
				<stop  offset="0.5552" style="stop-color:#A5CE52"/>
				<stop  offset="0.66" style="stop-color:#9FCC52"/>
				<stop  offset="0.7448" style="stop-color:#93C851"/>
				<stop  offset="0.8174" style="stop-color:#84C451"/>
				<stop  offset="0.8817" style="stop-color:#75BF50"/>
				<stop  offset="0.9398" style="stop-color:#64BB52"/>
				<stop  offset="0.9915" style="stop-color:#58B953"/>
				<stop  offset="1" style="stop-color:#57B953"/>
			</radialGradient>
			<path id="path20137_56_" fill="url(#path20137_4_)" stroke="#000000" d="M400.275,117.036c-2.913,0-5.275-2.485-5.275-5.549
				c0-3.065,2.362-5.55,5.275-5.55c2.914,0,5.275,2.484,5.275,5.55C405.55,114.551,403.189,117.036,400.275,117.036z"/>
		</g>
		<g id="g22085_55_" transform="translate(17.00007,-71.31057)">
			
				<radialGradient id="path20137_5_" cx="-35.9634" cy="-304.3379" r="17.8369" gradientTransform="matrix(0 0.3111 0.2958 0 478.2737 97.5713)" gradientUnits="userSpaceOnUse">
				<stop  offset="0" style="stop-color:#ACD151"/>
				<stop  offset="0.4082" style="stop-color:#AAD051"/>
				<stop  offset="0.5552" style="stop-color:#A5CE52"/>
				<stop  offset="0.66" style="stop-color:#9FCC52"/>
				<stop  offset="0.7448" style="stop-color:#93C851"/>
				<stop  offset="0.8174" style="stop-color:#84C451"/>
				<stop  offset="0.8817" style="stop-color:#75BF50"/>
				<stop  offset="0.9398" style="stop-color:#64BB52"/>
				<stop  offset="0.9915" style="stop-color:#58B953"/>
				<stop  offset="1" style="stop-color:#57B953"/>
			</radialGradient>
			<path id="path20137_55_" fill="url(#path20137_5_)" stroke="#000000" d="M388.251,91.932c2.915,0,5.275-2.484,5.275-5.548
				c0-3.066-2.36-5.55-5.275-5.55c-2.914,0-5.277,2.483-5.277,5.55C382.974,89.447,385.337,91.932,388.251,91.932z"/>
		</g>
		<g id="g22085_54_" transform="translate(17.00007,-71.31057)">
			
				<radialGradient id="path20137_6_" cx="4.4975" cy="-326.6689" r="17.8374" gradientTransform="matrix(0 0.3111 0.2958 0 478.2737 97.5713)" gradientUnits="userSpaceOnUse">
				<stop  offset="0" style="stop-color:#ACD151"/>
				<stop  offset="0.4082" style="stop-color:#AAD051"/>
				<stop  offset="0.5552" style="stop-color:#A5CE52"/>
				<stop  offset="0.66" style="stop-color:#9FCC52"/>
				<stop  offset="0.7448" style="stop-color:#93C851"/>
				<stop  offset="0.8174" style="stop-color:#84C451"/>
				<stop  offset="0.8817" style="stop-color:#75BF50"/>
				<stop  offset="0.9398" style="stop-color:#64BB52"/>
				<stop  offset="0.9915" style="stop-color:#58B953"/>
				<stop  offset="1" style="stop-color:#57B953"/>
			</radialGradient>
			<path id="path20137_54_" fill="url(#path20137_6_)" stroke="#000000" d="M381.645,104.52c2.913,0,5.276-2.485,5.276-5.549
				c0-3.065-2.363-5.55-5.276-5.55c-2.915,0-5.276,2.484-5.276,5.55C376.369,102.034,378.733,104.52,381.645,104.52z"/>
		</g>
		<g id="g22085_53_" transform="translate(17.00007,-71.31057)">
			
				<radialGradient id="path20137_7_" cx="4.4975" cy="-286.1836" r="17.8359" gradientTransform="matrix(0 0.3111 0.2958 0 478.2737 97.5713)" gradientUnits="userSpaceOnUse">
				<stop  offset="0" style="stop-color:#ACD151"/>
				<stop  offset="0.4082" style="stop-color:#AAD051"/>
				<stop  offset="0.5552" style="stop-color:#A5CE52"/>
				<stop  offset="0.66" style="stop-color:#9FCC52"/>
				<stop  offset="0.7448" style="stop-color:#93C851"/>
				<stop  offset="0.8174" style="stop-color:#84C451"/>
				<stop  offset="0.8817" style="stop-color:#75BF50"/>
				<stop  offset="0.9398" style="stop-color:#64BB52"/>
				<stop  offset="0.9915" style="stop-color:#58B953"/>
				<stop  offset="1" style="stop-color:#57B953"/>
			</radialGradient>
			<path id="path20137_53_" fill="url(#path20137_7_)" stroke="#000000" d="M393.621,104.52c2.914,0,5.275-2.485,5.275-5.549
				c0-3.065-2.361-5.55-5.275-5.55c-2.913,0-5.275,2.484-5.275,5.55C388.345,102.034,390.708,104.52,393.621,104.52z"/>
		</g>
		<g id="g22085_52_" transform="translate(17.00007,-71.31057)">
			
				<radialGradient id="path20137_8_" cx="43.3744" cy="-304.3379" r="17.8379" gradientTransform="matrix(0 0.3111 0.2958 0 478.2737 97.5713)" gradientUnits="userSpaceOnUse">
				<stop  offset="0" style="stop-color:#ACD151"/>
				<stop  offset="0.4082" style="stop-color:#AAD051"/>
				<stop  offset="0.5552" style="stop-color:#A5CE52"/>
				<stop  offset="0.66" style="stop-color:#9FCC52"/>
				<stop  offset="0.7448" style="stop-color:#93C851"/>
				<stop  offset="0.8174" style="stop-color:#84C451"/>
				<stop  offset="0.8817" style="stop-color:#75BF50"/>
				<stop  offset="0.9398" style="stop-color:#64BB52"/>
				<stop  offset="0.9915" style="stop-color:#58B953"/>
				<stop  offset="1" style="stop-color:#57B953"/>
			</radialGradient>
			<path id="path20137_52_" fill="url(#path20137_8_)" stroke="#000000" d="M388.251,116.614c2.915,0,5.275-2.485,5.275-5.549
				c0-3.065-2.36-5.55-5.275-5.55c-2.914,0-5.277,2.484-5.277,5.55C382.974,114.129,385.337,116.614,388.251,116.614z"/>
		</g>
	</g>
	<g>
		<g id="g22085_51_" transform="translate(17.00007,-71.31057)">
			
				<radialGradient id="path20137_9_" cx="-34.606" cy="-855.9092" r="17.8364" gradientTransform="matrix(0 0.3111 -0.2958 0 147.3199 97.5713)" gradientUnits="userSpaceOnUse">
				<stop  offset="0" style="stop-color:#ACD151"/>
				<stop  offset="0.4082" style="stop-color:#AAD051"/>
				<stop  offset="0.5552" style="stop-color:#A5CE52"/>
				<stop  offset="0.66" style="stop-color:#9FCC52"/>
				<stop  offset="0.7448" style="stop-color:#93C851"/>
				<stop  offset="0.8174" style="stop-color:#84C451"/>
				<stop  offset="0.8817" style="stop-color:#75BF50"/>
				<stop  offset="0.9398" style="stop-color:#64BB52"/>
				<stop  offset="0.9915" style="stop-color:#58B953"/>
				<stop  offset="1" style="stop-color:#57B953"/>
			</radialGradient>
			<path id="path20137_51_" fill="url(#path20137_9_)" stroke="#000000" d="M400.497,92.355c-2.914,0-5.275-2.485-5.275-5.549
				c0-3.066,2.361-5.55,5.275-5.55s5.275,2.483,5.275,5.55C405.773,89.869,403.412,92.355,400.497,92.355z"/>
		</g>
		<g id="g22085_50_" transform="translate(17.00007,-71.31057)">
			
				<radialGradient id="path20137_10_" cx="5.8539" cy="-878.2461" r="17.8374" gradientTransform="matrix(0 0.3111 -0.2958 0 147.3199 97.5713)" gradientUnits="userSpaceOnUse">
				<stop  offset="0" style="stop-color:#ACD151"/>
				<stop  offset="0.4082" style="stop-color:#AAD051"/>
				<stop  offset="0.5552" style="stop-color:#A5CE52"/>
				<stop  offset="0.66" style="stop-color:#9FCC52"/>
				<stop  offset="0.7448" style="stop-color:#93C851"/>
				<stop  offset="0.8174" style="stop-color:#84C451"/>
				<stop  offset="0.8817" style="stop-color:#75BF50"/>
				<stop  offset="0.9398" style="stop-color:#64BB52"/>
				<stop  offset="0.9915" style="stop-color:#58B953"/>
				<stop  offset="1" style="stop-color:#57B953"/>
			</radialGradient>
			<path id="path20137_50_" fill="url(#path20137_10_)" stroke="#000000" d="M407.104,104.941c-2.913,0-5.275-2.485-5.275-5.549
				c0-3.065,2.362-5.55,5.275-5.55s5.277,2.484,5.277,5.55C412.381,102.456,410.017,104.941,407.104,104.941z"/>
		</g>
		<g id="g22085_49_" transform="translate(17.00007,-71.31057)">
			
				<radialGradient id="path20137_11_" cx="5.8539" cy="-833.2539" r="17.8354" gradientTransform="matrix(0 0.3111 -0.2958 0 147.3199 97.5713)" gradientUnits="userSpaceOnUse">
				<stop  offset="0" style="stop-color:#ACD151"/>
				<stop  offset="0.4082" style="stop-color:#AAD051"/>
				<stop  offset="0.5552" style="stop-color:#A5CE52"/>
				<stop  offset="0.66" style="stop-color:#9FCC52"/>
				<stop  offset="0.7448" style="stop-color:#93C851"/>
				<stop  offset="0.8174" style="stop-color:#84C451"/>
				<stop  offset="0.8817" style="stop-color:#75BF50"/>
				<stop  offset="0.9398" style="stop-color:#64BB52"/>
				<stop  offset="0.9915" style="stop-color:#58B953"/>
				<stop  offset="1" style="stop-color:#57B953"/>
			</radialGradient>
			<path id="path20137_49_" fill="url(#path20137_11_)" stroke="#000000" d="M393.796,104.941c-2.914,0-5.275-2.485-5.275-5.549
				c0-3.065,2.361-5.55,5.275-5.55s5.275,2.484,5.275,5.55C399.072,102.456,396.71,104.941,393.796,104.941z"/>
		</g>
		<g id="g22085_48_" transform="translate(17.00007,-71.31057)">
			
				<radialGradient id="path20137_12_" cx="44.7319" cy="-855.9092" r="17.8364" gradientTransform="matrix(0 0.3111 -0.2958 0 147.3199 97.5713)" gradientUnits="userSpaceOnUse">
				<stop  offset="0" style="stop-color:#ACD151"/>
				<stop  offset="0.4082" style="stop-color:#AAD051"/>
				<stop  offset="0.5552" style="stop-color:#A5CE52"/>
				<stop  offset="0.66" style="stop-color:#9FCC52"/>
				<stop  offset="0.7448" style="stop-color:#93C851"/>
				<stop  offset="0.8174" style="stop-color:#84C451"/>
				<stop  offset="0.8817" style="stop-color:#75BF50"/>
				<stop  offset="0.9398" style="stop-color:#64BB52"/>
				<stop  offset="0.9915" style="stop-color:#58B953"/>
				<stop  offset="1" style="stop-color:#57B953"/>
			</radialGradient>
			<path id="path20137_48_" fill="url(#path20137_12_)" stroke="#000000" d="M400.497,117.036c-2.914,0-5.275-2.485-5.275-5.549
				c0-3.065,2.361-5.55,5.275-5.55s5.275,2.484,5.275,5.55C405.773,114.551,403.412,117.036,400.497,117.036z"/>
		</g>
		<g id="g22085_47_" transform="translate(17.00007,-71.31057)">
			
				<radialGradient id="path20137_13_" cx="-35.9634" cy="-303.5859" r="17.8369" gradientTransform="matrix(0 0.3111 0.2958 0 478.2737 97.5713)" gradientUnits="userSpaceOnUse">
				<stop  offset="0" style="stop-color:#ACD151"/>
				<stop  offset="0.4082" style="stop-color:#AAD051"/>
				<stop  offset="0.5552" style="stop-color:#A5CE52"/>
				<stop  offset="0.66" style="stop-color:#9FCC52"/>
				<stop  offset="0.7448" style="stop-color:#93C851"/>
				<stop  offset="0.8174" style="stop-color:#84C451"/>
				<stop  offset="0.8817" style="stop-color:#75BF50"/>
				<stop  offset="0.9398" style="stop-color:#64BB52"/>
				<stop  offset="0.9915" style="stop-color:#58B953"/>
				<stop  offset="1" style="stop-color:#57B953"/>
			</radialGradient>
			<path id="path20137_47_" fill="url(#path20137_13_)" stroke="#000000" d="M388.474,91.932c2.914,0,5.275-2.484,5.275-5.548
				c0-3.066-2.361-5.55-5.275-5.55s-5.277,2.483-5.277,5.55C383.197,89.447,385.56,91.932,388.474,91.932z"/>
		</g>
		<g id="g22085_46_" transform="translate(17.00007,-71.31057)">
			
				<radialGradient id="path20137_14_" cx="4.4975" cy="-325.915" r="17.8384" gradientTransform="matrix(0 0.3111 0.2958 0 478.2737 97.5713)" gradientUnits="userSpaceOnUse">
				<stop  offset="0" style="stop-color:#ACD151"/>
				<stop  offset="0.4082" style="stop-color:#AAD051"/>
				<stop  offset="0.5552" style="stop-color:#A5CE52"/>
				<stop  offset="0.66" style="stop-color:#9FCC52"/>
				<stop  offset="0.7448" style="stop-color:#93C851"/>
				<stop  offset="0.8174" style="stop-color:#84C451"/>
				<stop  offset="0.8817" style="stop-color:#75BF50"/>
				<stop  offset="0.9398" style="stop-color:#64BB52"/>
				<stop  offset="0.9915" style="stop-color:#58B953"/>
				<stop  offset="1" style="stop-color:#57B953"/>
			</radialGradient>
			<path id="path20137_46_" fill="url(#path20137_14_)" stroke="#000000" d="M381.867,104.52c2.914,0,5.278-2.485,5.278-5.549
				c0-3.065-2.364-5.55-5.278-5.55c-2.913,0-5.275,2.484-5.275,5.55C376.591,102.034,378.955,104.52,381.867,104.52z"/>
		</g>
		<g id="g22085_45_" transform="translate(17.00007,-71.31057)">
			
				<radialGradient id="path20137_15_" cx="4.4975" cy="-285.4306" r="17.8364" gradientTransform="matrix(0 0.3111 0.2958 0 478.2737 97.5713)" gradientUnits="userSpaceOnUse">
				<stop  offset="0" style="stop-color:#ACD151"/>
				<stop  offset="0.4082" style="stop-color:#AAD051"/>
				<stop  offset="0.5552" style="stop-color:#A5CE52"/>
				<stop  offset="0.66" style="stop-color:#9FCC52"/>
				<stop  offset="0.7448" style="stop-color:#93C851"/>
				<stop  offset="0.8174" style="stop-color:#84C451"/>
				<stop  offset="0.8817" style="stop-color:#75BF50"/>
				<stop  offset="0.9398" style="stop-color:#64BB52"/>
				<stop  offset="0.9915" style="stop-color:#58B953"/>
				<stop  offset="1" style="stop-color:#57B953"/>
			</radialGradient>
			<path id="path20137_45_" fill="url(#path20137_15_)" stroke="#000000" d="M393.843,104.52c2.914,0,5.275-2.485,5.275-5.549
				c0-3.065-2.361-5.55-5.275-5.55s-5.275,2.484-5.275,5.55C388.568,102.034,390.931,104.52,393.843,104.52z"/>
		</g>
		<g id="g22085_23_" transform="translate(17.00007,-71.31057)">
			
				<radialGradient id="path20137_16_" cx="43.3744" cy="-303.5859" r="17.8379" gradientTransform="matrix(0 0.3111 0.2958 0 478.2737 97.5713)" gradientUnits="userSpaceOnUse">
				<stop  offset="0" style="stop-color:#ACD151"/>
				<stop  offset="0.4082" style="stop-color:#AAD051"/>
				<stop  offset="0.5552" style="stop-color:#A5CE52"/>
				<stop  offset="0.66" style="stop-color:#9FCC52"/>
				<stop  offset="0.7448" style="stop-color:#93C851"/>
				<stop  offset="0.8174" style="stop-color:#84C451"/>
				<stop  offset="0.8817" style="stop-color:#75BF50"/>
				<stop  offset="0.9398" style="stop-color:#64BB52"/>
				<stop  offset="0.9915" style="stop-color:#58B953"/>
				<stop  offset="1" style="stop-color:#57B953"/>
			</radialGradient>
			<path id="path20137_23_" fill="url(#path20137_16_)" stroke="#000000" d="M388.474,116.614c2.914,0,5.275-2.485,5.275-5.549
				c0-3.065-2.361-5.55-5.275-5.55s-5.277,2.484-5.277,5.55C383.197,114.129,385.56,116.614,388.474,116.614z"/>
		</g>
	</g>
</g>
<g>
	<g>
		<line fill="none" stroke="#000000" x1="360.32" y1="27.167" x2="312.32" y2="27.167"/>
		<polygon points="357.512,30.87 359.083,27.167 357.512,23.463 366.289,27.167 		"/>
	</g>
</g>
<g>
	<g>
		<line fill="none" stroke="#000000" x1="210" y1="27.167" x2="161.999" y2="27.167"/>
		<polygon points="207.191,30.87 208.764,27.167 207.191,23.463 215.969,27.167 		"/>
	</g>
</g>
<g>
	<g>
		<path fill="none" stroke="#000000" d="M257.973,125.413c-35.738-35.738-127.909-23.216-143.947-7.178"/>
		<polygon points="253.369,126.046 257.099,124.539 258.606,120.808 262.194,129.634 		"/>
	</g>
</g>
<g>
	<g>
		<path fill="none" stroke="#000000" d="M114.026,161.142c35.737,35.738,127.908,23.216,143.947,7.178"/>
		<polygon points="118.63,160.51 114.9,162.016 113.393,165.746 109.805,156.921 		"/>
	</g>
</g>
<path fill="none" stroke="#000000" d="M166.462,81.829c0,3.359,5.392,20.166,30.916,20.166"/>
<g>
	<g>
		<g>
			<line fill="none" stroke="#000000" x1="404.117" y1="150.307" x2="444.833" y2="150.307"/>
			<polygon points="406.925,146.604 405.354,150.307 406.925,154.011 398.149,150.307 			"/>
		</g>
	</g>
	<g>
		<g>
			<line fill="none" stroke="#000000" x1="442.037" y1="139.939" x2="401.32" y2="139.939"/>
			<polygon points="439.229,143.643 440.8,139.939 439.229,136.235 448.006,139.939 			"/>
		</g>
	</g>
</g>
<g>
	<g>
		<line fill="none" stroke="#000000" stroke-dasharray="3" x1="302.906" y1="208.817" x2="302.906" y2="160.817"/>
		<polygon points="299.204,206.009 302.906,207.582 306.611,206.009 302.906,214.787 		"/>
	</g>
</g>
<g>
	<g>
		<path fill="none" stroke="#000000" d="M392.619,243.492c-58.527-35.738-209.48-23.216-235.748-7.178"/>
		<polygon points="388.292,245.189 391.564,242.848 392.152,238.867 397.714,246.604 		"/>
	</g>
</g>
<g>
	<path d="M88.779,29.418c0.467,0.3,1.139,0.528,1.859,0.528c1.067,0,1.691-0.564,1.691-1.38c0-0.743-0.432-1.188-1.523-1.595
		c-1.319-0.479-2.135-1.176-2.135-2.303c0-1.26,1.043-2.195,2.614-2.195c0.815,0,1.427,0.192,1.775,0.396l-0.288,0.852
		c-0.252-0.156-0.792-0.384-1.523-0.384c-1.103,0-1.523,0.659-1.523,1.211c0,0.756,0.492,1.127,1.607,1.56
		c1.367,0.527,2.051,1.187,2.051,2.374c0,1.248-0.912,2.339-2.819,2.339c-0.779,0-1.631-0.24-2.062-0.527L88.779,29.418z"/>
	<path d="M95.079,24.885l1.259,3.43c0.144,0.384,0.288,0.84,0.384,1.188h0.024c0.108-0.348,0.228-0.791,0.372-1.211l1.151-3.406
		h1.115l-1.583,4.138c-0.756,1.991-1.271,2.998-1.991,3.634c-0.527,0.444-1.031,0.624-1.295,0.672l-0.264-0.876
		c0.264-0.084,0.612-0.252,0.924-0.516c0.288-0.228,0.635-0.636,0.887-1.175c0.048-0.108,0.084-0.192,0.084-0.252
		c0-0.061-0.024-0.145-0.084-0.276l-2.135-5.349H95.079z"/>
	<path d="M100.347,26.456c0-0.612-0.012-1.092-0.048-1.571h0.936l0.06,0.959h0.024c0.288-0.539,0.959-1.079,1.919-1.079
		c0.803,0,2.051,0.479,2.051,2.471v3.454h-1.056v-3.346c0-0.936-0.348-1.716-1.343-1.716c-0.684,0-1.223,0.492-1.415,1.08
		c-0.048,0.132-0.072,0.312-0.072,0.491v3.49h-1.056V26.456z"/>
	<path d="M108.23,23.493v1.392h1.511v0.804h-1.511v3.13c0,0.72,0.204,1.128,0.792,1.128c0.288,0,0.456-0.024,0.612-0.072
		l0.048,0.804c-0.204,0.071-0.528,0.144-0.936,0.144c-0.492,0-0.888-0.168-1.14-0.443c-0.288-0.324-0.408-0.84-0.408-1.523v-3.166
		h-0.899v-0.804h0.899v-1.079L108.23,23.493z"/>
	<path d="M110.93,22.174h1.056v3.635h0.024c0.168-0.301,0.432-0.576,0.755-0.756c0.312-0.18,0.684-0.288,1.08-0.288
		c0.779,0,2.027,0.479,2.027,2.471v3.454h-1.056v-3.334c0-0.936-0.348-1.715-1.343-1.715c-0.684,0-1.211,0.479-1.415,1.043
		c-0.06,0.156-0.072,0.312-0.072,0.504v3.502h-1.056V22.174z"/>
	<path d="M118.178,27.979c0.024,1.428,0.923,2.016,1.991,2.016c0.755,0,1.223-0.132,1.607-0.3l0.192,0.755
		c-0.372,0.168-1.019,0.372-1.943,0.372c-1.787,0-2.854-1.188-2.854-2.938s1.032-3.118,2.723-3.118c1.907,0,2.399,1.655,2.399,2.723
		c0,0.216-0.012,0.372-0.036,0.491H118.178z M121.272,27.224c0.012-0.66-0.276-1.703-1.463-1.703c-1.079,0-1.535,0.972-1.619,1.703
		H121.272z"/>
	<path d="M123.458,29.622c0.324,0.191,0.875,0.408,1.403,0.408c0.756,0,1.115-0.372,1.115-0.864c0-0.504-0.3-0.768-1.067-1.055
		c-1.055-0.384-1.547-0.948-1.547-1.644c0-0.936,0.768-1.703,2.003-1.703c0.587,0,1.103,0.156,1.415,0.36l-0.252,0.768
		c-0.228-0.145-0.647-0.349-1.187-0.349c-0.624,0-0.959,0.36-0.959,0.792c0,0.479,0.335,0.695,1.091,0.995
		c0.995,0.372,1.523,0.876,1.523,1.739c0,1.031-0.803,1.751-2.159,1.751c-0.636,0-1.223-0.168-1.631-0.407L123.458,29.622z"/>
	<path d="M129.529,23.254c0,0.359-0.252,0.647-0.671,0.647c-0.384,0-0.636-0.288-0.636-0.647c0-0.36,0.264-0.66,0.66-0.66
		C129.266,22.594,129.529,22.882,129.529,23.254z M128.354,30.689v-5.805h1.056v5.805H128.354z"/>
	<path d="M131.018,29.622c0.324,0.191,0.875,0.408,1.403,0.408c0.756,0,1.115-0.372,1.115-0.864c0-0.504-0.3-0.768-1.067-1.055
		c-1.055-0.384-1.547-0.948-1.547-1.644c0-0.936,0.768-1.703,2.003-1.703c0.587,0,1.104,0.156,1.415,0.36l-0.252,0.768
		c-0.228-0.145-0.647-0.349-1.187-0.349c-0.624,0-0.959,0.36-0.959,0.792c0,0.479,0.335,0.695,1.091,0.995
		c0.996,0.372,1.523,0.876,1.523,1.739c0,1.031-0.803,1.751-2.159,1.751c-0.636,0-1.223-0.168-1.631-0.407L131.018,29.622z"/>
</g>
<g>
</g>
<g>
	<g>
		<g>
			<line fill="none" stroke="#000000" x1="191.04" y1="269.132" x2="231.757" y2="269.132"/>
			<polygon points="193.849,265.429 192.276,269.132 193.849,272.836 185.071,269.132 			"/>
		</g>
	</g>
	<g>
		<g>
			<line fill="none" stroke="#000000" x1="228.96" y1="258.765" x2="188.243" y2="258.765"/>
			<polygon points="226.151,262.468 227.724,258.765 226.151,255.061 234.929,258.765 			"/>
		</g>
	</g>
</g>
<path fill="none" stroke="#000000" d="M216.411,200.817c0,3.359,5.392,20.166,30.917,20.166"/>
<g>
	<g>
		<g>
			<path fill="none" stroke="#000000" d="M274.625,287.272c33.912,33.266,113.442,14.666,126.233-2.391"/>
			<polygon points="279.223,286.596 275.507,288.138 274.036,291.884 270.364,283.093 			"/>
		</g>
	</g>
	<g>
		<g>
			<path fill="none" stroke="#000000" d="M310.935,325.883c0-3.359,5.394-20.166,30.918-20.166"/>
			<polygon points="307.233,323.074 310.935,324.647 314.64,323.074 310.935,331.853 			"/>
		</g>
	</g>
</g>
<g>
	<path d="M330.686,297l-2.65-8.084h1.14l1.259,3.982c0.336,1.091,0.636,2.074,0.863,3.022h0.024
		c0.228-0.936,0.552-1.955,0.924-3.011l1.367-3.994h1.115L331.837,297H330.686z"/>
	<path d="M336.912,300.996v-1.244H334.8v-0.398l2.027-2.9h0.664v2.824h0.636v0.475h-0.636v1.244H336.912z M336.912,299.277v-1.517
		c0-0.238,0.007-0.476,0.021-0.713h-0.021c-0.141,0.266-0.252,0.461-0.378,0.671l-1.111,1.544v0.015H336.912z"/>
</g>
<g>
	<path d="M205.686,247.492l-2.65-8.084h1.14l1.259,3.982c0.336,1.091,0.636,2.074,0.863,3.022h0.024
		c0.228-0.936,0.552-1.955,0.924-3.011l1.367-3.994h1.115l-2.891,8.084H205.686z"/>
	<path d="M212.722,247.463h-1.733l-0.175,1.167c0.104-0.014,0.203-0.021,0.37-0.021c0.356,0,0.699,0.069,0.979,0.244
		c0.356,0.195,0.65,0.594,0.65,1.16c0,0.888-0.706,1.552-1.691,1.552c-0.496,0-0.908-0.14-1.132-0.28l0.153-0.468
		c0.188,0.112,0.56,0.252,0.979,0.252c0.573,0,1.076-0.378,1.069-0.985c0-0.588-0.398-1-1.3-1c-0.266,0-0.469,0.021-0.636,0.042
		l0.293-2.181h2.174V247.463z"/>
</g>
<g>
	<path d="M423.163,123.768l-2.65-8.084h1.14l1.259,3.982c0.336,1.091,0.636,2.074,0.863,3.022h0.024
		c0.228-0.936,0.552-1.955,0.924-3.011l1.367-3.994h1.115l-2.891,8.084H423.163z"/>
	<path d="M430.08,123.654c-0.126-0.007-0.286,0.007-0.461,0.035c-0.972,0.153-1.475,0.853-1.58,1.607h0.015
		c0.217-0.294,0.601-0.531,1.104-0.531c0.804,0,1.37,0.587,1.37,1.468c0,0.839-0.566,1.607-1.517,1.607
		c-0.964,0-1.601-0.755-1.601-1.937c0-0.895,0.314-1.6,0.77-2.047c0.377-0.371,0.88-0.602,1.453-0.671
		c0.182-0.028,0.336-0.035,0.447-0.035V123.654z M429.905,126.275c0-0.65-0.37-1.042-0.937-1.042c-0.37,0-0.72,0.224-0.888,0.56
		c-0.034,0.07-0.062,0.153-0.062,0.266c0.007,0.748,0.356,1.307,1.006,1.307C429.548,127.365,429.905,126.925,429.905,126.275z"/>
</g>
<g>
	<path d="M277.431,210.9l-2.65-8.084h1.14l1.259,3.982c0.336,1.091,0.636,2.074,0.863,3.022h0.024
		c0.228-0.936,0.552-1.955,0.924-3.011l1.367-3.994h1.115l-2.891,8.084H277.431z"/>
	<path d="M281.902,214.197c0.175,0.105,0.573,0.28,1.007,0.28c0.782,0,1.034-0.496,1.027-0.881c-0.007-0.636-0.58-0.908-1.174-0.908
		h-0.343v-0.462h0.343c0.447,0,1.013-0.23,1.013-0.769c0-0.363-0.23-0.685-0.797-0.685c-0.363,0-0.713,0.16-0.908,0.301
		l-0.168-0.447c0.245-0.175,0.706-0.35,1.195-0.35c0.895,0,1.3,0.531,1.3,1.083c0,0.476-0.286,0.873-0.839,1.076v0.014
		c0.56,0.105,1.007,0.524,1.014,1.16c0,0.728-0.573,1.363-1.656,1.363c-0.51,0-0.957-0.161-1.181-0.308L281.902,214.197z"/>
</g>
<g>
	<path d="M184.606,120.768l-2.65-8.084h1.14l1.259,3.982c0.336,1.091,0.636,2.074,0.863,3.022h0.024
		c0.228-0.936,0.552-1.955,0.924-3.011l1.367-3.994h1.115l-2.891,8.084H184.606z"/>
	<path d="M190.266,120.794h-0.014l-0.79,0.427l-0.119-0.469l0.992-0.531h0.524v4.543h-0.594V120.794z"/>
</g>
<g>
	<path d="M184.606,166.67l-2.65-8.084h1.14l1.259,3.982c0.336,1.091,0.636,2.074,0.863,3.022h0.024
		c0.228-0.936,0.552-1.955,0.924-3.011l1.367-3.994h1.115l-2.891,8.084H184.606z"/>
	<path d="M188.931,170.666v-0.377l0.482-0.469c1.16-1.104,1.691-1.691,1.691-2.376c0-0.461-0.217-0.888-0.895-0.888
		c-0.413,0-0.755,0.21-0.965,0.385l-0.195-0.434c0.308-0.259,0.762-0.461,1.278-0.461c0.979,0,1.391,0.671,1.391,1.32
		c0,0.839-0.607,1.517-1.565,2.439l-0.356,0.335v0.015h2.034v0.51H188.931z"/>
</g>
<g>
	<path d="M318.958,183.619v2.818h2.71v0.72h-2.71V190h-0.768v-2.843h-2.711v-0.72h2.711v-2.818H318.958z"/>
</g>
<line fill="none" stroke="#000000" stroke-dasharray="3" x1="562" y1="360" x2="562" y2="91.912"/>
<line fill="none" stroke="#000000" stroke-dasharray="3" x1="562" y1="91" x2="337.741" y2="91"/>
<g>
	<g>
		<line fill="none" stroke="#000000" stroke-dasharray="3" x1="337.741" y1="89" x2="337.741" y2="37.644"/>
		<polygon points="341.444,40.452 337.741,38.879 334.037,40.452 337.741,31.674 		"/>
	</g>
</g>
<line fill="none" stroke="#000000" stroke-dasharray="3" x1="421.928" y1="295.477" x2="421.928" y2="360"/>
<line fill="none" stroke="#000000" stroke-dasharray="3" x1="421.928" y1="361.333" x2="562" y2="361.333"/>
<g>
	<line fill="none" stroke="#000000" stroke-dasharray="3" x1="21.144" y1="59.69" x2="184.418" y2="59.69"/>
	<g>
		<g>
			<line fill="none" stroke="#000000" stroke-dasharray="3" x1="184.418" y1="58.448" x2="184.418" y2="35.648"/>
			<polygon points="188.121,38.457 184.418,36.884 180.714,38.457 184.418,29.679 			"/>
		</g>
	</g>
</g>
<line fill="none" stroke="#000000" stroke-dasharray="3" x1="21.144" y1="360" x2="21.144" y2="62.856"/>
<line fill="none" stroke="#000000" stroke-dasharray="3" x1="411.597" y1="361.333" x2="21.144" y2="361.333"/>
<line fill="none" stroke="#000000" stroke-dasharray="3" x1="411.597" y1="295.477" x2="411.597" y2="360"/>
<g>
	<path d="M338.278,142.264v2.818h2.71v0.72h-2.71v2.843h-0.768v-2.843h-2.711v-0.72h2.711v-2.818H338.278z"/>
</g>
<g>
	
		<radialGradient id="path16609_17_" cx="292.2173" cy="-290.3442" r="16.1858" gradientTransform="matrix(1.5933 0 0 0.6358 -95.6651 329.7249)" gradientUnits="userSpaceOnUse">
		<stop  offset="0" style="stop-color:#C0FF6C"/>
		<stop  offset="0.4082" style="stop-color:#BFFF6C"/>
		<stop  offset="0.5552" style="stop-color:#BAFC6C"/>
		<stop  offset="0.66" style="stop-color:#B4FA6B"/>
		<stop  offset="0.7448" style="stop-color:#AAF76A"/>
		<stop  offset="0.8174" style="stop-color:#9EF269"/>
		<stop  offset="0.8817" style="stop-color:#91EC68"/>
		<stop  offset="0.9398" style="stop-color:#86E666"/>
		<stop  offset="0.9915" style="stop-color:#7EDE64"/>
		<stop  offset="1" style="stop-color:#7DDD64"/>
	</radialGradient>
	<path id="path16609_7_" fill="url(#path16609_17_)" stroke="#000000" d="M395.24,145.123c0,5.786-11.338,10.478-25.315,10.478
		c-13.981,0-25.315-4.689-25.315-10.478s11.334-10.476,25.315-10.476C383.902,134.648,395.24,139.336,395.24,145.123z"/>
	<g>
		<path d="M370.445,140.562v8.084h-1.056v-8.084H370.445z"/>
	</g>
</g>
<g>
	<path d="M184.606,15.881l-2.65-8.084h1.14l1.259,3.982c0.336,1.091,0.636,2.074,0.863,3.022h0.024
		c0.228-0.936,0.552-1.955,0.924-3.011l1.367-3.994h1.115l-2.891,8.084H184.606z"/>
	<path d="M189.909,18.396l-0.489,1.481h-0.629l1.607-4.71h0.727l1.607,4.71h-0.65l-0.503-1.481H189.909z M191.461,17.92
		l-0.469-1.355c-0.104-0.308-0.175-0.587-0.244-0.859h-0.015c-0.069,0.272-0.14,0.565-0.237,0.853l-0.461,1.362H191.461z"/>
</g>
<g>
	<path d="M340.583,15.882l-2.65-8.084h1.139l1.26,3.982c0.336,1.091,0.635,2.074,0.863,3.022h0.023
		c0.229-0.936,0.553-1.955,0.924-3.011l1.367-3.994h1.115l-2.891,8.084H340.583z"/>
	<path d="M345.125,15.237c0.369-0.062,0.811-0.104,1.293-0.104c0.873,0,1.494,0.21,1.906,0.587c0.428,0.385,0.672,0.93,0.672,1.691
		c0,0.769-0.244,1.397-0.678,1.831c-0.447,0.44-1.174,0.678-2.09,0.678c-0.439,0-0.797-0.021-1.104-0.056V15.237z M345.732,19.402
		c0.154,0.021,0.377,0.028,0.615,0.028c1.307,0,2.006-0.727,2.006-1.999c0.006-1.111-0.623-1.816-1.908-1.816
		c-0.314,0-0.553,0.027-0.713,0.062V19.402z"/>
</g>
<g>
	<path d="M160.829,38.923v2.818h2.71v0.72h-2.71v2.843h-0.768v-2.843h-2.711v-0.72h2.711v-2.818H160.829z"/>
</g>
<g>
	<path d="M353.209,62.28v2.818h2.71v0.72h-2.71v2.843h-0.768v-2.843h-2.711v-0.72h2.711V62.28H353.209z"/>
</g>
</svg>
