<?xml version="1.0" encoding="utf-8"?>
<!-- Generator: Adobe Illustrator 14.0.0, SVG Export Plug-In . SVG Version: 6.00 Build 43363)  -->
<!DOCTYPE svg PUBLIC "-//W3C//DTD SVG 1.1//EN" "http://www.w3.org/Graphics/SVG/1.1/DTD/svg11.dtd">
<svg version="1.1" id="Layer_1" xmlns="http://www.w3.org/2000/svg" xmlns:xlink="http://www.w3.org/1999/xlink" x="0px" y="0px"
	 width="488.976px" height="676.465px" viewBox="0 0 488.976 676.465" enable-background="new 0 0 488.976 676.465"
	 xml:space="preserve">
<rect x="19.394" y="15.393" fill="#D6CBE2" width="451" height="461"/>
<g id="Cgen_B">
	<polygon id="Cgen_B_path1" fill="none" stroke="#272525" points="38.06,35.393 451.394,35.393 451.394,453.393 405.394,453.393 
		405.394,69.393 78.727,69.393 78.727,453.393 37.394,453.393 	"/>
	<g>
		<g>
			<path d="M222.522,58.199c-0.768,0.384-2.304,0.792-4.271,0.792c-4.562,0-7.993-2.904-7.993-8.209
				c0-5.064,3.432-8.497,8.449-8.497c2.016,0,3.288,0.432,3.84,0.72l-0.504,1.704c-0.792-0.384-1.92-0.672-3.265-0.672
				c-3.792,0-6.312,2.424-6.312,6.673c0,3.96,2.28,6.504,6.216,6.504c1.272,0,2.568-0.264,3.409-0.672L222.522,58.199z"/>
		</g>
		<g>
			<path d="M234.868,45.08c0,1.555-0.309,2.507-0.967,3.096c-0.658,0.616-1.61,0.813-2.465,0.813c-0.812,0-1.709-0.196-2.255-0.562
				l0.309-0.938c0.447,0.28,1.147,0.532,1.988,0.532c1.262,0,2.186-0.658,2.186-2.367v-0.756h-0.028
				c-0.378,0.63-1.107,1.135-2.157,1.135c-1.681,0-2.886-1.429-2.886-3.306c0-2.297,1.499-3.6,3.054-3.6
				c1.178,0,1.821,0.616,2.115,1.176h0.028l0.056-1.022h1.079c-0.028,0.49-0.056,1.037-0.056,1.863L234.868,45.08L234.868,45.08z
				 M233.649,41.956c0-0.21-0.014-0.393-0.069-0.561c-0.225-0.714-0.827-1.303-1.724-1.303c-1.176,0-2.017,0.995-2.017,2.563
				c0,1.331,0.672,2.438,2.003,2.438c0.756,0,1.442-0.477,1.709-1.261c0.07-0.21,0.098-0.448,0.098-0.659V41.956z"/>
			<path d="M237.595,42.895c0.028,1.667,1.092,2.353,2.325,2.353c0.882,0,1.415-0.154,1.877-0.35l0.21,0.882
				c-0.434,0.196-1.176,0.435-2.255,0.435c-2.087,0-3.334-1.387-3.334-3.432s1.205-3.656,3.18-3.656
				c2.213,0,2.802,1.947,2.802,3.193c0,0.252-0.027,0.448-0.042,0.575H237.595z M241.208,42.012
				c0.014-0.784-0.322-2.003-1.709-2.003c-1.247,0-1.793,1.148-1.892,2.003H241.208z"/>
			<path d="M243.922,41.115c0-0.7-0.014-1.274-0.056-1.835h1.093l0.069,1.121h0.028c0.336-0.644,1.121-1.274,2.241-1.274
				c0.938,0,2.395,0.56,2.395,2.885v4.048h-1.231v-3.908c0-1.092-0.406-2.003-1.569-2.003c-0.812,0-1.442,0.574-1.652,1.261
				c-0.057,0.154-0.085,0.364-0.085,0.574v4.076h-1.232V41.115L243.922,41.115z"/>
		</g>
		<g>
			<path d="M229.083,53.448h1.219v4.258h0.028c0.435-0.756,1.219-1.247,2.312-1.247c1.681,0,2.872,1.4,2.857,3.46
				c0,2.423-1.527,3.628-3.04,3.628c-0.98,0-1.766-0.378-2.271-1.275h-0.042l-0.056,1.121h-1.065
				c0.028-0.462,0.057-1.148,0.057-1.751L229.083,53.448L229.083,53.448z M230.301,60.676c0,0.154,0.028,0.308,0.056,0.448
				c0.238,0.854,0.953,1.442,1.85,1.442c1.289,0,2.059-1.05,2.059-2.605c0-1.359-0.701-2.521-2.017-2.521
				c-0.841,0-1.625,0.574-1.877,1.513c-0.028,0.14-0.07,0.308-0.07,0.504V60.676z"/>
		</g>
	</g>
</g>
<g id="Cgen_rp">
	<rect id="Cgen_rp_path1" x="184.046" y="186.005" fill="none" stroke="#272525" width="92.667" height="46.667"/>
	<g>
		<g>
			<path d="M222.87,216.92c-0.769,0.384-2.305,0.792-4.272,0.792c-4.561,0-7.993-2.904-7.993-8.209c0-5.064,3.433-8.497,8.449-8.497
				c2.016,0,3.288,0.432,3.84,0.72l-0.504,1.704c-0.792-0.384-1.92-0.672-3.264-0.672c-3.792,0-6.313,2.424-6.313,6.673
				c0,3.96,2.28,6.504,6.216,6.504c1.272,0,2.568-0.264,3.409-0.672L222.87,216.92z"/>
		</g>
		<g>
			<path d="M235.215,203.801c0,1.555-0.308,2.507-0.966,3.096c-0.659,0.616-1.611,0.813-2.465,0.813
				c-0.813,0-1.709-0.196-2.256-0.561l0.309-0.938c0.448,0.28,1.147,0.532,1.989,0.532c1.261,0,2.185-0.658,2.185-2.367v-0.756
				h-0.028c-0.378,0.63-1.106,1.135-2.156,1.135c-1.682,0-2.887-1.429-2.887-3.306c0-2.297,1.499-3.6,3.055-3.6
				c1.177,0,1.82,0.616,2.114,1.176h0.028l0.056-1.022h1.079c-0.027,0.49-0.056,1.037-0.056,1.863L235.215,203.801L235.215,203.801z
				 M233.997,200.677c0-0.21-0.015-0.393-0.07-0.561c-0.224-0.714-0.827-1.303-1.723-1.303c-1.177,0-2.018,0.995-2.018,2.563
				c0,1.331,0.672,2.438,2.003,2.438c0.756,0,1.442-0.477,1.709-1.261c0.07-0.21,0.099-0.448,0.099-0.659V200.677z"/>
			<path d="M237.942,201.616c0.028,1.667,1.093,2.353,2.325,2.353c0.882,0,1.415-0.154,1.877-0.35l0.21,0.882
				c-0.434,0.196-1.176,0.435-2.255,0.435c-2.087,0-3.334-1.387-3.334-3.432s1.205-3.656,3.18-3.656
				c2.214,0,2.803,1.947,2.803,3.193c0,0.252-0.028,0.448-0.042,0.575H237.942z M241.556,200.733
				c0.014-0.784-0.322-2.003-1.709-2.003c-1.247,0-1.793,1.148-1.891,2.003H241.556z"/>
			<path d="M244.27,199.836c0-0.7-0.014-1.274-0.056-1.835h1.093l0.07,1.121h0.027c0.337-0.644,1.121-1.274,2.241-1.274
				c0.938,0,2.396,0.56,2.396,2.885v4.048h-1.232v-3.908c0-1.092-0.406-2.003-1.568-2.003c-0.813,0-1.443,0.574-1.653,1.261
				c-0.056,0.154-0.084,0.364-0.084,0.574v4.076h-1.233V199.836L244.27,199.836z"/>
		</g>
		<g>
			<path d="M229.43,217.45c0-0.798-0.014-1.485-0.056-2.115h1.079l0.042,1.331h0.056c0.308-0.911,1.051-1.485,1.877-1.485
				c0.14,0,0.238,0.014,0.35,0.042v1.163c-0.126-0.028-0.252-0.042-0.42-0.042c-0.869,0-1.484,0.658-1.652,1.583
				c-0.028,0.168-0.057,0.364-0.057,0.575v3.614h-1.219V217.45L229.43,217.45z"/>
			<path d="M234.064,217.548c0-0.869-0.027-1.569-0.056-2.213h1.107l0.056,1.163h0.028c0.504-0.826,1.303-1.316,2.408-1.316
				c1.64,0,2.872,1.387,2.872,3.446c0,2.437-1.484,3.642-3.082,3.642c-0.896,0-1.681-0.393-2.087-1.065h-0.027v3.684h-1.22V217.548
				L234.064,217.548z M235.283,219.355c0,0.182,0.027,0.35,0.056,0.504c0.224,0.854,0.966,1.443,1.849,1.443
				c1.303,0,2.06-1.064,2.06-2.619c0-1.359-0.714-2.521-2.018-2.521c-0.841,0-1.625,0.602-1.862,1.527
				c-0.042,0.154-0.084,0.336-0.084,0.504V219.355z"/>
		</g>
	</g>
</g>
<g id="Cgen_pp">
	<rect id="Cgen_pp_path1" x="184.712" y="272.338" fill="none" stroke="#272525" width="92.667" height="46.667"/>
	<g>
		<g>
			<path d="M223.536,303.253c-0.769,0.384-2.305,0.792-4.272,0.792c-4.561,0-7.993-2.904-7.993-8.209
				c0-5.064,3.433-8.497,8.449-8.497c2.016,0,3.288,0.432,3.84,0.72l-0.504,1.704c-0.792-0.384-1.92-0.672-3.264-0.672
				c-3.792,0-6.313,2.424-6.313,6.673c0,3.96,2.28,6.504,6.216,6.504c1.272,0,2.568-0.264,3.409-0.672L223.536,303.253z"/>
		</g>
		<g>
			<path d="M235.881,290.134c0,1.555-0.308,2.507-0.966,3.096c-0.659,0.616-1.611,0.813-2.465,0.813
				c-0.813,0-1.709-0.196-2.256-0.561l0.309-0.938c0.448,0.28,1.147,0.532,1.989,0.532c1.261,0,2.185-0.658,2.185-2.367v-0.756
				h-0.028c-0.378,0.63-1.106,1.135-2.156,1.135c-1.682,0-2.887-1.429-2.887-3.306c0-2.297,1.499-3.6,3.055-3.6
				c1.177,0,1.82,0.616,2.114,1.176h0.028l0.056-1.022h1.079c-0.027,0.49-0.056,1.037-0.056,1.863L235.881,290.134L235.881,290.134z
				 M234.663,287.01c0-0.21-0.015-0.393-0.07-0.561c-0.224-0.714-0.827-1.303-1.723-1.303c-1.177,0-2.018,0.995-2.018,2.563
				c0,1.331,0.672,2.438,2.003,2.438c0.756,0,1.442-0.477,1.709-1.261c0.07-0.21,0.099-0.448,0.099-0.659V287.01z"/>
			<path d="M238.608,287.949c0.028,1.667,1.093,2.353,2.325,2.353c0.882,0,1.415-0.154,1.877-0.35l0.21,0.882
				c-0.434,0.196-1.176,0.435-2.255,0.435c-2.087,0-3.334-1.387-3.334-3.432s1.205-3.656,3.18-3.656
				c2.214,0,2.803,1.947,2.803,3.193c0,0.252-0.028,0.448-0.042,0.575H238.608z M242.222,287.066
				c0.014-0.784-0.322-2.003-1.709-2.003c-1.247,0-1.793,1.148-1.891,2.003H242.222z"/>
			<path d="M244.936,286.169c0-0.7-0.014-1.274-0.056-1.835h1.093l0.07,1.121h0.027c0.337-0.644,1.121-1.274,2.241-1.274
				c0.938,0,2.396,0.56,2.396,2.885v4.048h-1.232v-3.908c0-1.092-0.406-2.003-1.568-2.003c-0.813,0-1.443,0.574-1.653,1.261
				c-0.056,0.154-0.084,0.364-0.084,0.574v4.076h-1.233V286.169L244.936,286.169z"/>
		</g>
		<g>
			<path d="M230.096,303.881c0-0.869-0.028-1.569-0.056-2.213h1.106l0.057,1.163h0.027c0.504-0.826,1.304-1.316,2.409-1.316
				c1.639,0,2.872,1.387,2.872,3.446c0,2.437-1.485,3.642-3.082,3.642c-0.896,0-1.681-0.393-2.087-1.065h-0.028v3.684h-1.219
				V303.881L230.096,303.881z M231.315,305.688c0,0.182,0.028,0.35,0.057,0.504c0.224,0.854,0.966,1.443,1.849,1.443
				c1.302,0,2.059-1.064,2.059-2.619c0-1.359-0.714-2.521-2.017-2.521c-0.841,0-1.625,0.602-1.863,1.527
				c-0.042,0.154-0.084,0.336-0.084,0.504V305.688z"/>
			<path d="M238.062,303.881c0-0.869-0.027-1.569-0.056-2.213h1.106l0.057,1.163h0.027c0.505-0.826,1.304-1.316,2.409-1.316
				c1.64,0,2.872,1.387,2.872,3.446c0,2.437-1.484,3.642-3.082,3.642c-0.896,0-1.681-0.393-2.087-1.065h-0.028v3.684h-1.219V303.881
				L238.062,303.881z M239.281,305.688c0,0.182,0.027,0.35,0.056,0.504c0.224,0.854,0.966,1.443,1.849,1.443
				c1.302,0,2.06-1.064,2.06-2.619c0-1.359-0.714-2.521-2.018-2.521c-0.841,0-1.625,0.602-1.862,1.527
				c-0.042,0.154-0.084,0.336-0.084,0.504V305.688z"/>
		</g>
	</g>
</g>
<g id="Cgen_x5F_l">
	<rect id="Cgen_x5F_l_path1" x="184.046" y="349.004" fill="none" stroke="#272525" width="92.667" height="46.668"/>
	<g>
		<g>
			<path d="M222.87,379.92c-0.769,0.383-2.305,0.791-4.272,0.791c-4.561,0-7.993-2.904-7.993-8.209c0-5.064,3.433-8.496,8.449-8.496
				c2.016,0,3.288,0.432,3.84,0.721l-0.504,1.703c-0.792-0.385-1.92-0.672-3.264-0.672c-3.792,0-6.313,2.424-6.313,6.673
				c0,3.96,2.28,6.505,6.216,6.505c1.272,0,2.568-0.266,3.409-0.672L222.87,379.92z"/>
		</g>
		<g>
			<path d="M235.215,366.801c0,1.555-0.308,2.507-0.966,3.096c-0.659,0.615-1.611,0.812-2.465,0.812
				c-0.813,0-1.709-0.196-2.256-0.561l0.309-0.939c0.448,0.281,1.147,0.533,1.989,0.533c1.261,0,2.185-0.658,2.185-2.367v-0.756
				h-0.028c-0.378,0.629-1.106,1.135-2.156,1.135c-1.682,0-2.887-1.43-2.887-3.307c0-2.297,1.499-3.6,3.055-3.6
				c1.177,0,1.82,0.615,2.114,1.176h0.028l0.056-1.021h1.079c-0.027,0.49-0.056,1.035-0.056,1.863L235.215,366.801L235.215,366.801z
				 M233.997,363.676c0-0.209-0.015-0.393-0.07-0.561c-0.224-0.714-0.827-1.303-1.723-1.303c-1.177,0-2.018,0.995-2.018,2.562
				c0,1.33,0.672,2.438,2.003,2.438c0.756,0,1.442-0.478,1.709-1.261c0.07-0.211,0.099-0.448,0.099-0.659V363.676z"/>
			<path d="M237.942,364.616c0.028,1.666,1.093,2.354,2.325,2.354c0.882,0,1.415-0.154,1.877-0.351l0.21,0.881
				c-0.434,0.197-1.176,0.437-2.255,0.437c-2.087,0-3.334-1.388-3.334-3.433s1.205-3.655,3.18-3.655
				c2.214,0,2.803,1.946,2.803,3.192c0,0.252-0.028,0.447-0.042,0.574H237.942L237.942,364.616z M241.556,363.733
				c0.014-0.783-0.322-2.003-1.709-2.003c-1.247,0-1.793,1.147-1.891,2.003H241.556z"/>
			<path d="M244.27,362.836c0-0.701-0.014-1.274-0.056-1.836h1.093l0.07,1.121h0.027c0.337-0.645,1.121-1.273,2.241-1.273
				c0.938,0,2.396,0.561,2.396,2.885v4.049h-1.232v-3.908c0-1.092-0.406-2.004-1.568-2.004c-0.813,0-1.443,0.574-1.653,1.262
				c-0.056,0.154-0.084,0.363-0.084,0.574v4.076h-1.233V362.836L244.27,362.836z"/>
		</g>
		<g>
			<path d="M229.43,375.168h1.233v9.944h-1.233V375.168z"/>
		</g>
	</g>
</g>
<g id="Cgen_x5F_Gl">
	<rect id="Cgen_x5F_Gl_path1" x="278.045" y="407.672" fill="none" stroke="#272525" width="92.667" height="46.666"/>
	<g>
		<g>
			<path d="M316.87,438.586c-0.769,0.385-2.304,0.793-4.272,0.793c-4.561,0-7.992-2.904-7.992-8.209
				c0-5.064,3.432-8.498,8.448-8.498c2.017,0,3.288,0.434,3.84,0.721l-0.504,1.705c-0.792-0.385-1.92-0.674-3.264-0.674
				c-3.792,0-6.313,2.426-6.313,6.674c0,3.961,2.28,6.504,6.217,6.504c1.271,0,2.567-0.264,3.408-0.672L316.87,438.586z"/>
		</g>
		<g>
			<path d="M329.215,425.467c0,1.555-0.308,2.508-0.966,3.096c-0.659,0.617-1.611,0.812-2.465,0.812
				c-0.813,0-1.709-0.195-2.255-0.561l0.308-0.938c0.448,0.279,1.148,0.531,1.989,0.531c1.261,0,2.185-0.658,2.185-2.367v-0.756
				h-0.027c-0.378,0.631-1.107,1.135-2.157,1.135c-1.682,0-2.886-1.43-2.886-3.307c0-2.298,1.499-3.601,3.054-3.601
				c1.177,0,1.821,0.616,2.115,1.177h0.027l0.057-1.021h1.079c-0.028,0.49-0.057,1.037-0.057,1.863L329.215,425.467L329.215,425.467
				z M327.996,422.344c0-0.211-0.014-0.393-0.07-0.561c-0.224-0.716-0.827-1.304-1.723-1.304c-1.176,0-2.018,0.994-2.018,2.563
				c0,1.33,0.673,2.438,2.004,2.438c0.756,0,1.441-0.477,1.709-1.262c0.069-0.211,0.098-0.447,0.098-0.658V422.344z"/>
			<path d="M331.943,423.284c0.027,1.666,1.092,2.352,2.324,2.352c0.883,0,1.415-0.152,1.877-0.35l0.21,0.883
				c-0.434,0.195-1.176,0.434-2.255,0.434c-2.087,0-3.334-1.387-3.334-3.432s1.205-3.655,3.181-3.655
				c2.213,0,2.802,1.946,2.802,3.192c0,0.254-0.028,0.449-0.042,0.576H331.943L331.943,423.284z M335.556,422.401
				c0.015-0.785-0.321-2.004-1.709-2.004c-1.247,0-1.793,1.148-1.891,2.004H335.556z"/>
			<path d="M338.27,421.502c0-0.699-0.014-1.273-0.056-1.834h1.093l0.07,1.121h0.028c0.336-0.646,1.121-1.275,2.241-1.275
				c0.938,0,2.395,0.561,2.395,2.887v4.047h-1.232v-3.908c0-1.092-0.405-2.002-1.568-2.002c-0.813,0-1.443,0.574-1.653,1.26
				c-0.056,0.154-0.084,0.365-0.084,0.574v4.076h-1.233V421.502L338.27,421.502z"/>
		</g>
		<g>
			<path d="M330.658,443.362c-0.546,0.195-1.625,0.518-2.899,0.518c-1.429,0-2.604-0.363-3.53-1.246
				c-0.812-0.785-1.315-2.045-1.315-3.516c0.014-2.816,1.947-4.875,5.113-4.875c1.092,0,1.946,0.238,2.353,0.434l-0.294,0.994
				c-0.504-0.223-1.135-0.406-2.087-0.406c-2.297,0-3.796,1.432-3.796,3.797c0,2.396,1.442,3.811,3.642,3.811
				c0.798,0,1.346-0.111,1.625-0.252v-2.814h-1.919v-0.98h3.11v4.537H330.658z"/>
			<path d="M333.735,434.34v9.441h-1.22v-9.441H333.735z"/>
		</g>
	</g>
</g>
<g id="Ccon_x5F_l">
	<rect id="Ccon_x5F_l_path1" x="184.046" y="512.338" fill="none" stroke="#272525" width="92.667" height="46.666"/>
	<g>
		<g>
			<path d="M222.87,543.252c-0.769,0.385-2.305,0.793-4.272,0.793c-4.561,0-7.993-2.904-7.993-8.209
				c0-5.064,3.433-8.498,8.449-8.498c2.016,0,3.288,0.434,3.84,0.721l-0.504,1.705c-0.792-0.385-1.92-0.674-3.264-0.674
				c-3.792,0-6.313,2.426-6.313,6.674c0,3.961,2.28,6.504,6.216,6.504c1.272,0,2.568-0.264,3.409-0.672L222.87,543.252z"/>
		</g>
		<g>
			<path d="M234.263,530.862c-0.322,0.168-1.037,0.406-1.947,0.406c-2.045,0-3.376-1.4-3.376-3.475c0-2.086,1.43-3.6,3.643-3.6
				c0.729,0,1.373,0.182,1.709,0.352l-0.28,0.951c-0.294-0.168-0.756-0.322-1.429-0.322c-1.556,0-2.396,1.148-2.396,2.564
				c0,1.566,1.009,2.535,2.354,2.535c0.7,0,1.163-0.184,1.513-0.338L234.263,530.862z"/>
			<path d="M241.753,527.668c0,2.508-1.737,3.6-3.375,3.6c-1.835,0-3.25-1.344-3.25-3.488c0-2.27,1.484-3.6,3.362-3.6
				C240.437,524.18,241.753,525.594,241.753,527.668z M236.375,527.739c0,1.484,0.854,2.605,2.059,2.605
				c1.177,0,2.06-1.107,2.06-2.635c0-1.146-0.574-2.604-2.031-2.604S236.375,526.45,236.375,527.739z"/>
			<path d="M243.304,526.168c0-0.699-0.014-1.273-0.056-1.834h1.093l0.07,1.121h0.027c0.336-0.646,1.121-1.275,2.241-1.275
				c0.938,0,2.396,0.561,2.396,2.887v4.047h-1.232v-3.908c0-1.092-0.406-2.002-1.569-2.002c-0.812,0-1.442,0.574-1.652,1.26
				c-0.057,0.154-0.084,0.365-0.084,0.574v4.076h-1.233V526.168L243.304,526.168z"/>
		</g>
		<g>
			<path d="M229.43,538.502h1.233v9.945h-1.233V538.502z"/>
		</g>
	</g>
</g>
<g id="Acon_x5F_b">
	<rect id="Acon_x5F_b_path1" x="352.712" y="512.338" fill="none" stroke="#272525" width="92.668" height="46.666"/>
	<g>
		<g>
			<path d="M382.849,538.692l-1.681,5.09h-2.16l5.497-16.178h2.521l5.521,16.178h-2.23l-1.729-5.09H382.849z M388.153,537.059
				l-1.584-4.654c-0.36-1.057-0.602-2.018-0.841-2.953h-0.048c-0.239,0.961-0.504,1.943-0.815,2.928l-1.584,4.682h4.872V537.059z"/>
		</g>
		<g>
			<path d="M402.929,530.862c-0.32,0.168-1.036,0.406-1.945,0.406c-2.047,0-3.376-1.4-3.376-3.475c0-2.086,1.429-3.6,3.643-3.6
				c0.729,0,1.372,0.182,1.709,0.352l-0.281,0.951c-0.293-0.168-0.756-0.322-1.428-0.322c-1.555,0-2.396,1.148-2.396,2.564
				c0,1.566,1.011,2.535,2.354,2.535c0.701,0,1.163-0.184,1.514-0.338L402.929,530.862z"/>
			<path d="M410.42,527.668c0,2.508-1.737,3.6-3.376,3.6c-1.834,0-3.25-1.344-3.25-3.488c0-2.27,1.485-3.6,3.362-3.6
				C409.104,524.18,410.42,525.594,410.42,527.668z M405.041,527.739c0,1.484,0.854,2.605,2.06,2.605c1.177,0,2.06-1.107,2.06-2.635
				c0-1.146-0.574-2.604-2.031-2.604S405.041,526.45,405.041,527.739z"/>
			<path d="M411.971,526.168c0-0.699-0.014-1.273-0.056-1.834h1.092l0.07,1.121h0.028c0.336-0.646,1.119-1.275,2.24-1.275
				c0.938,0,2.396,0.561,2.396,2.887v4.047h-1.232v-3.908c0-1.092-0.405-2.002-1.567-2.002c-0.813,0-1.443,0.574-1.652,1.26
				c-0.057,0.154-0.084,0.365-0.084,0.574v4.076h-1.233L411.971,526.168L411.971,526.168z"/>
		</g>
		<g>
			<path d="M398.097,538.502h1.22v4.258h0.026c0.437-0.756,1.219-1.246,2.313-1.246c1.68,0,2.871,1.4,2.856,3.459
				c0,2.424-1.526,3.629-3.04,3.629c-0.979,0-1.765-0.379-2.27-1.275h-0.042l-0.056,1.121h-1.065
				c0.029-0.463,0.057-1.148,0.057-1.752V538.502z M399.316,545.731c0,0.152,0.026,0.307,0.057,0.447
				c0.237,0.854,0.952,1.441,1.849,1.441c1.288,0,2.061-1.049,2.061-2.604c0-1.359-0.701-2.521-2.019-2.521
				c-0.841,0-1.625,0.574-1.877,1.512c-0.027,0.143-0.069,0.311-0.069,0.506L399.316,545.731L399.316,545.731z"/>
		</g>
	</g>
</g>
<g id="Ccon_x5F_ROB">
	<rect id="Ccon_x5F_ROB_path1" x="183.379" y="616.338" fill="none" stroke="#272525" width="92.667" height="46.666"/>
	<g>
		<g>
			<path d="M222.204,647.252c-0.769,0.385-2.305,0.793-4.272,0.793c-4.561,0-7.993-2.904-7.993-8.209
				c0-5.064,3.433-8.498,8.449-8.498c2.016,0,3.288,0.434,3.84,0.721l-0.504,1.705c-0.792-0.385-1.92-0.674-3.264-0.674
				c-3.792,0-6.313,2.426-6.313,6.674c0,3.961,2.28,6.504,6.216,6.504c1.272,0,2.568-0.264,3.409-0.672L222.204,647.252z"/>
		</g>
		<g>
			<path d="M233.596,634.862c-0.322,0.168-1.037,0.406-1.947,0.406c-2.045,0-3.376-1.4-3.376-3.475c0-2.086,1.43-3.6,3.643-3.6
				c0.729,0,1.373,0.182,1.709,0.352l-0.28,0.951c-0.294-0.168-0.756-0.322-1.429-0.322c-1.556,0-2.396,1.148-2.396,2.564
				c0,1.566,1.009,2.535,2.354,2.535c0.699,0,1.163-0.184,1.513-0.338L233.596,634.862z"/>
			<path d="M241.087,631.668c0,2.508-1.737,3.6-3.375,3.6c-1.835,0-3.25-1.344-3.25-3.488c0-2.27,1.484-3.6,3.362-3.6
				C239.771,628.18,241.087,629.594,241.087,631.668z M235.708,631.739c0,1.484,0.854,2.605,2.059,2.605
				c1.177,0,2.06-1.107,2.06-2.635c0-1.146-0.574-2.604-2.031-2.604S235.708,630.45,235.708,631.739z"/>
			<path d="M242.638,630.168c0-0.699-0.014-1.273-0.056-1.834h1.093l0.07,1.121h0.027c0.336-0.646,1.121-1.275,2.241-1.275
				c0.938,0,2.396,0.561,2.396,2.887v4.047h-1.232v-3.908c0-1.092-0.406-2.002-1.569-2.002c-0.812,0-1.442,0.574-1.652,1.26
				c-0.057,0.154-0.084,0.365-0.084,0.574v4.076h-1.233V630.168L242.638,630.168z"/>
		</g>
		<g>
			<path d="M228.806,643.131c0.616-0.125,1.499-0.195,2.339-0.195c1.304,0,2.144,0.238,2.731,0.771
				c0.476,0.42,0.743,1.064,0.743,1.793c0,1.246-0.785,2.072-1.779,2.408v0.043c0.729,0.252,1.163,0.924,1.387,1.904
				c0.309,1.316,0.532,2.227,0.729,2.592h-1.262c-0.153-0.281-0.363-1.078-0.63-2.256c-0.279-1.303-0.784-1.793-1.891-1.834h-1.148
				v4.09h-1.219L228.806,643.131L228.806,643.131z M230.024,647.432h1.247c1.304,0,2.129-0.715,2.129-1.793
				c0-1.219-0.883-1.75-2.171-1.766c-0.588,0-1.008,0.057-1.205,0.113V647.432L230.024,647.432z"/>
			<path d="M244.448,647.629c0,3.248-1.976,4.973-4.385,4.973c-2.493,0-4.244-1.934-4.244-4.791c0-2.998,1.863-4.959,4.385-4.959
				C242.781,642.852,244.448,644.827,244.448,647.629z M237.122,647.784c0,2.016,1.092,3.824,3.012,3.824
				c1.933,0,3.025-1.779,3.025-3.924c0-1.877-0.98-3.838-3.013-3.838C238.13,643.846,237.122,645.709,237.122,647.784z"/>
			<path d="M246.025,643.131c0.532-0.111,1.373-0.195,2.229-0.195c1.218,0,2.003,0.211,2.591,0.688
				c0.49,0.363,0.784,0.924,0.784,1.666c0,0.91-0.603,1.709-1.598,2.072v0.029c0.896,0.225,1.947,0.967,1.947,2.367
				c0,0.812-0.322,1.428-0.798,1.891c-0.658,0.602-1.723,0.883-3.264,0.883c-0.84,0-1.485-0.057-1.892-0.111V643.131
				L246.025,643.131z M247.244,646.999h1.105c1.289,0,2.045-0.672,2.045-1.582c0-1.107-0.84-1.541-2.073-1.541
				c-0.56,0-0.882,0.041-1.078,0.084L247.244,646.999L247.244,646.999z M247.244,651.524c0.237,0.041,0.588,0.055,1.021,0.055
				c1.261,0,2.423-0.461,2.423-1.834c0-1.289-1.105-1.822-2.437-1.822h-1.009L247.244,651.524L247.244,651.524z"/>
		</g>
	</g>
</g>
<g>
	<path d="M56.406,124.726l-5.279-16.177h2.257l2.52,7.969c0.696,2.184,1.298,4.152,1.729,6.048h0.048
		c0.456-1.872,1.128-3.913,1.849-6.024l2.736-7.993h2.231l-5.784,16.177H56.406z"/>
	<path d="M54.644,145.302c0.048,2.856,1.872,4.032,3.983,4.032c1.513,0,2.425-0.264,3.217-0.6l0.36,1.512
		c-0.744,0.336-2.018,0.744-3.864,0.744c-3.577,0-5.713-2.376-5.713-5.881c0-3.504,2.063-6.264,5.448-6.264
		c3.793,0,4.801,3.336,4.801,5.472c0,0.432-0.048,0.768-0.072,0.984L54.644,145.302L54.644,145.302z M60.836,143.79
		c0.022-1.344-0.553-3.432-2.929-3.432c-2.137,0-3.072,1.968-3.24,3.432H60.836z"/>
	<path d="M52.818,168.253c0-1.2-0.022-2.184-0.096-3.145h1.872l0.12,1.92h0.048c0.576-1.104,1.92-2.184,3.841-2.184
		c1.607,0,4.104,0.96,4.104,4.944v6.937h-2.111v-6.697c0-1.872-0.696-3.432-2.688-3.432c-1.394,0-2.474,0.984-2.832,2.16
		c-0.098,0.264-0.146,0.624-0.146,0.984v6.984h-2.112L52.818,168.253L52.818,168.253z"/>
	<path d="M63.403,196.822c0,4.296-2.976,6.168-5.783,6.168c-3.146,0-5.568-2.304-5.568-5.977c0-3.889,2.544-6.168,5.761-6.168
		C61.147,190.845,63.403,193.269,63.403,196.822z M54.187,196.941c0,2.544,1.465,4.464,3.528,4.464c2.017,0,3.528-1.896,3.528-4.512
		c0-1.968-0.983-4.464-3.479-4.464C55.267,192.429,54.187,194.733,54.187,196.941z"/>
	<path d="M62.587,225.558c0,1.2,0.023,2.256,0.097,3.168h-1.872l-0.12-1.896h-0.048c-0.553,0.936-1.775,2.16-3.841,2.16
		c-1.824,0-4.009-1.008-4.009-5.088v-6.793h2.111v6.433c0,2.208,0.674,3.696,2.594,3.696c1.416,0,2.399-0.984,2.784-1.92
		c0.119-0.312,0.19-0.696,0.19-1.08v-7.129h2.112L62.587,225.558L62.587,225.558z"/>
	<path d="M54.438,252.566c0.624,0.408,1.729,0.84,2.784,0.84c1.536,0,2.257-0.768,2.257-1.729c0-1.008-0.601-1.56-2.16-2.136
		c-2.089-0.744-3.071-1.896-3.071-3.288c0-1.872,1.512-3.408,4.008-3.408c1.177,0,2.208,0.336,2.855,0.72l-0.527,1.536
		c-0.456-0.288-1.296-0.672-2.376-0.672c-1.248,0-1.944,0.72-1.944,1.584c0,0.96,0.696,1.392,2.208,1.968
		c2.017,0.768,3.049,1.776,3.049,3.504c0,2.04-1.584,3.504-4.345,3.504c-1.271,0-2.448-0.336-3.264-0.816L54.438,252.566z"/>
	<path d="M53.047,290.765c0.912-0.192,2.353-0.336,3.815-0.336c2.089,0,3.434,0.36,4.44,1.176c0.84,0.624,1.344,1.584,1.344,2.856
		c0,1.56-1.031,2.928-2.735,3.552v0.048c1.535,0.384,3.337,1.656,3.337,4.056c0,1.392-0.554,2.448-1.368,3.24
		c-1.128,1.032-2.952,1.512-5.593,1.512c-1.44,0-2.544-0.096-3.24-0.192V290.765z M55.135,297.389h1.896
		c2.208,0,3.505-1.152,3.505-2.712c0-1.896-1.439-2.641-3.553-2.641c-0.96,0-1.513,0.072-1.849,0.144L55.135,297.389L55.135,297.389
		z M55.135,305.142c0.408,0.072,1.009,0.096,1.752,0.096c2.16,0,4.152-0.792,4.152-3.145c0-2.208-1.896-3.12-4.177-3.12h-1.729
		L55.135,305.142L55.135,305.142z"/>
	<path d="M56.646,315.685h2.112v17.042h-2.112V315.685z"/>
	<path d="M63.403,352.823c0,4.295-2.976,6.168-5.783,6.168c-3.146,0-5.568-2.305-5.568-5.977c0-3.889,2.544-6.168,5.761-6.168
		C61.147,346.846,63.403,349.27,63.403,352.823z M54.187,352.942c0,2.545,1.465,4.465,3.528,4.465c2.017,0,3.528-1.896,3.528-4.512
		c0-1.969-0.983-4.465-3.479-4.465C55.267,348.43,54.187,350.733,54.187,352.942z"/>
	<path d="M63.403,378.823c0,4.295-2.976,6.168-5.783,6.168c-3.146,0-5.568-2.305-5.568-5.977c0-3.889,2.544-6.168,5.761-6.168
		C61.147,372.846,63.403,375.27,63.403,378.823z M54.187,378.942c0,2.545,1.465,4.465,3.528,4.465c2.017,0,3.528-1.896,3.528-4.512
		c0-1.969-0.983-4.465-3.479-4.465C55.267,374.43,54.187,376.733,54.187,378.942z"/>
	<path d="M62.744,393.686v14.041c0,1.031,0.022,2.207,0.096,3h-1.896l-0.096-2.018H60.8c-0.648,1.297-2.064,2.281-3.96,2.281
		c-2.81,0-4.969-2.378-4.969-5.904c-0.024-3.865,2.376-6.24,5.208-6.24c1.775,0,2.977,0.84,3.505,1.775h0.048v-6.937L62.744,393.686
		L62.744,393.686z M60.632,403.838c0-0.264-0.024-0.625-0.096-0.889c-0.313-1.345-1.466-2.447-3.05-2.447
		c-2.184,0-3.479,1.92-3.479,4.488c0,2.352,1.152,4.295,3.433,4.295c1.416,0,2.712-0.937,3.098-2.521
		c0.07-0.287,0.096-0.576,0.096-0.912L60.632,403.838L60.632,403.838z"/>
</g>
<g>
	<path d="M424.824,93.639l-1.682,5.088h-2.159l5.497-16.177h2.521l5.521,16.177h-2.232l-1.729-5.088H424.824z M430.129,92.006
		l-1.584-4.656c-0.36-1.056-0.601-2.016-0.841-2.952h-0.048c-0.24,0.96-0.504,1.944-0.815,2.928l-1.585,4.68H430.129z"/>
	<path d="M425.556,116.734c0-1.368-0.022-2.544-0.096-3.625h1.848l0.072,2.28h0.096c0.528-1.56,1.802-2.544,3.218-2.544
		c0.239,0,0.407,0.024,0.6,0.072v1.992c-0.216-0.048-0.432-0.072-0.72-0.072c-1.488,0-2.544,1.128-2.832,2.712
		c-0.048,0.288-0.098,0.624-0.098,0.984v6.192h-2.088V116.734z"/>
	<path d="M428.052,136.326v2.784h3.024v1.608h-3.024v6.265c0,1.44,0.408,2.256,1.585,2.256c0.576,0,0.912-0.048,1.225-0.145
		l0.096,1.584c-0.407,0.168-1.056,0.312-1.872,0.312c-0.983,0-1.775-0.336-2.28-0.912c-0.6-0.624-0.814-1.656-0.814-3.024v-6.336
		h-1.801v-1.608h1.801v-2.136L428.052,136.326z"/>
	<path d="M424.645,171.303c0.049,2.856,1.872,4.032,3.983,4.032c1.513,0,2.425-0.264,3.217-0.6l0.36,1.512
		c-0.744,0.336-2.018,0.744-3.864,0.744c-3.577,0-5.713-2.376-5.713-5.881c0-3.504,2.064-6.264,5.448-6.264
		c3.793,0,4.801,3.336,4.801,5.472c0,0.432-0.048,0.768-0.072,0.984L424.645,171.303L424.645,171.303z M430.837,169.791
		c0.023-1.344-0.553-3.432-2.929-3.432c-2.136,0-3.072,1.968-3.24,3.432H430.837z"/>
	<path d="M425.556,194.734c0-1.368-0.022-2.544-0.096-3.625h1.848l0.072,2.28h0.096c0.528-1.56,1.802-2.544,3.218-2.544
		c0.239,0,0.407,0.024,0.6,0.072v1.992c-0.216-0.048-0.432-0.072-0.72-0.072c-1.488,0-2.544,1.128-2.832,2.712
		c-0.048,0.288-0.098,0.624-0.098,0.984v6.192h-2.088V194.734z"/>
	<path d="M429.025,213.846c0.022,0.72-0.505,1.296-1.346,1.296c-0.743,0-1.271-0.576-1.271-1.296c0-0.744,0.552-1.32,1.319-1.32
		C428.522,212.526,429.025,213.102,429.025,213.846z M426.672,228.727V217.11h2.112v11.617H426.672z"/>
	<path d="M431.857,251.943c0,1.008,0.048,1.992,0.19,2.784h-1.92l-0.168-1.464h-0.072c-0.646,0.912-1.896,1.729-3.552,1.729
		c-2.353,0-3.553-1.656-3.553-3.336c0-2.808,2.496-4.344,6.983-4.32v-0.24c0-0.96-0.264-2.688-2.64-2.688
		c-1.08,0-2.208,0.336-3.024,0.864l-0.479-1.392c0.961-0.624,2.353-1.032,3.815-1.032c3.554,0,4.418,2.424,4.418,4.752
		L431.857,251.943L431.857,251.943z M429.817,248.798c-2.306-0.048-4.922,0.36-4.922,2.616c0,1.368,0.912,2.017,1.992,2.017
		c1.514,0,2.474-0.96,2.81-1.944c0.07-0.216,0.12-0.456,0.12-0.672V248.798z"/>
	<path d="M426.648,263.686h2.111v17.042h-2.111V263.686z"/>
	<path d="M423.048,316.766c0.912-0.192,2.354-0.336,3.816-0.336c2.088,0,3.433,0.36,4.439,1.176c0.84,0.624,1.345,1.584,1.345,2.856
		c0,1.56-1.032,2.928-2.736,3.552v0.048c1.536,0.385,3.337,1.656,3.337,4.057c0,1.393-0.553,2.448-1.368,3.241
		c-1.128,1.031-2.952,1.512-5.593,1.512c-1.44,0-2.544-0.096-3.24-0.191V316.766L423.048,316.766z M425.136,323.391h1.896
		c2.208,0,3.504-1.152,3.504-2.712c0-1.896-1.439-2.641-3.552-2.641c-0.96,0-1.514,0.072-1.85,0.144L425.136,323.391
		L425.136,323.391z M425.136,331.143c0.408,0.072,1.009,0.096,1.752,0.096c2.16,0,4.152-0.791,4.152-3.145
		c0-2.208-1.896-3.12-4.176-3.12h-1.729L425.136,331.143L425.136,331.143z"/>
	<path d="M426.648,341.686h2.111v17.041h-2.111V341.686z"/>
	<path d="M433.405,378.823c0,4.297-2.977,6.168-5.784,6.168c-3.146,0-5.568-2.303-5.568-5.977c0-3.887,2.544-6.168,5.761-6.168
		C431.149,372.846,433.405,375.27,433.405,378.823z M424.188,378.944c0,2.543,1.466,4.463,3.528,4.463
		c2.018,0,3.528-1.895,3.528-4.512c0-1.969-0.983-4.465-3.479-4.465C425.268,374.43,424.188,376.735,424.188,378.944z"/>
	<path d="M433.405,404.823c0,4.297-2.977,6.168-5.784,6.168c-3.146,0-5.568-2.303-5.568-5.977c0-3.887,2.544-6.168,5.761-6.168
		C431.149,398.846,433.405,401.27,433.405,404.823z M424.188,404.944c0,2.543,1.466,4.463,3.528,4.463
		c2.018,0,3.528-1.895,3.528-4.512c0-1.969-0.983-4.465-3.479-4.465C425.268,400.43,424.188,402.735,424.188,404.944z"/>
	<path d="M432.745,419.686v14.041c0,1.033,0.022,2.209,0.096,3h-1.896l-0.097-2.016h-0.048c-0.647,1.297-2.063,2.279-3.96,2.279
		c-2.809,0-4.969-2.375-4.969-5.904c-0.024-3.863,2.376-6.24,5.208-6.24c1.776,0,2.977,0.84,3.505,1.777h0.048v-6.938
		L432.745,419.686L432.745,419.686z M430.633,429.838c0-0.264-0.023-0.623-0.096-0.887c-0.313-1.346-1.465-2.449-3.049-2.449
		c-2.185,0-3.48,1.92-3.48,4.488c0,2.352,1.152,4.297,3.434,4.297c1.416,0,2.712-0.938,3.097-2.521
		c0.071-0.287,0.096-0.574,0.096-0.91L430.633,429.838L430.633,429.838z"/>
</g>
<g>
	<g>
		<line fill="none" stroke="#272525" x1="404.865" y1="208.727" x2="283.031" y2="208.727"/>
		<polygon fill="#272525" points="285.84,205.023 284.267,208.727 285.84,212.431 277.062,208.727 		"/>
	</g>
</g>
<g>
	<path d="M325.602,183.181c0.925-0.189,2.247-0.294,3.507-0.294c1.952,0,3.212,0.357,4.094,1.155
		c0.714,0.63,1.112,1.596,1.112,2.688c0,1.869-1.177,3.107-2.666,3.611v0.063c1.092,0.378,1.741,1.386,2.077,2.855
		c0.464,1.974,0.8,3.338,1.093,3.884h-1.89c-0.23-0.42-0.547-1.617-0.944-3.38c-0.42-1.953-1.177-2.688-2.834-2.75h-1.723v6.131
		h-1.827L325.602,183.181L325.602,183.181z M327.428,189.626h1.869c1.953,0,3.191-1.071,3.191-2.688
		c0-1.827-1.323-2.625-3.254-2.646c-0.883,0-1.513,0.084-1.807,0.168V189.626z"/>
	<path d="M336.198,195.448h1.077v8.688h-1.077V195.448z"/>
	<path d="M340.286,196.549c0.012,0.367-0.257,0.661-0.687,0.661c-0.379,0-0.647-0.294-0.647-0.661c0-0.379,0.281-0.673,0.673-0.673
		C340.03,195.876,340.286,196.169,340.286,196.549z M339.087,204.136v-5.923h1.077v5.923H339.087z"/>
	<path d="M341.951,199.816c0-0.612-0.014-1.114-0.049-1.603h0.954l0.062,0.979h0.024c0.294-0.563,0.979-1.114,1.958-1.114
		c0.818,0,2.093,0.49,2.093,2.521v3.537h-1.077v-3.414c0-0.955-0.355-1.75-1.371-1.75c-0.709,0-1.26,0.501-1.443,1.101
		c-0.049,0.135-0.072,0.318-0.072,0.502v3.561h-1.077L341.951,199.816L341.951,199.816z"/>
	<path d="M349.346,201.371c0.024,1.456,0.954,2.056,2.031,2.056c0.771,0,1.236-0.134,1.64-0.306l0.185,0.771
		c-0.379,0.171-1.027,0.379-1.97,0.379c-1.824,0-2.913-1.212-2.913-2.999s1.053-3.194,2.777-3.194c1.935,0,2.447,1.701,2.447,2.79
		c0,0.22-0.023,0.392-0.037,0.502L349.346,201.371L349.346,201.371z M352.503,200.6c0.012-0.686-0.281-1.75-1.493-1.75
		c-1.089,0-1.565,1.003-1.651,1.75H352.503z"/>
	<path d="M359.04,202.717c0,0.514,0.024,1.016,0.099,1.419h-0.979l-0.086-0.747h-0.036c-0.33,0.465-0.967,0.881-1.812,0.881
		c-1.198,0-1.811-0.845-1.811-1.701c0-1.432,1.271-2.215,3.561-2.203v-0.123c0-0.489-0.135-1.371-1.346-1.371
		c-0.551,0-1.126,0.171-1.542,0.44l-0.245-0.709c0.489-0.318,1.199-0.526,1.946-0.526c1.811,0,2.251,1.236,2.251,2.423V202.717z
		 M358,201.114c-1.175-0.025-2.509,0.184-2.509,1.333c0,0.698,0.466,1.028,1.016,1.028c0.771,0,1.261-0.49,1.434-0.991
		c0.035-0.11,0.061-0.233,0.061-0.343L358,201.114L358,201.114z"/>
	<path d="M360.781,200.061c0-0.697-0.014-1.297-0.049-1.848h0.941l0.036,1.163h0.049c0.271-0.795,0.918-1.297,1.641-1.297
		c0.123,0,0.208,0.012,0.307,0.037v1.016c-0.11-0.024-0.221-0.037-0.367-0.037c-0.759,0-1.298,0.575-1.444,1.383
		c-0.023,0.147-0.049,0.318-0.049,0.502v3.157h-1.063L360.781,200.061L360.781,200.061z"/>
</g>
<g>
	<g>
		<line fill="none" stroke="#272525" x1="405.865" y1="295.727" x2="284.031" y2="295.727"/>
		<polygon fill="#272525" points="286.84,292.024 285.267,295.727 286.84,299.43 278.062,295.727 		"/>
	</g>
</g>
<g>
	<path d="M326.602,270.181c0.925-0.189,2.247-0.294,3.507-0.294c1.952,0,3.212,0.357,4.094,1.155
		c0.714,0.63,1.112,1.596,1.112,2.688c0,1.869-1.177,3.107-2.666,3.611v0.063c1.092,0.378,1.741,1.386,2.077,2.855
		c0.464,1.974,0.8,3.338,1.093,3.884h-1.89c-0.23-0.42-0.547-1.617-0.944-3.38c-0.42-1.953-1.177-2.688-2.834-2.75h-1.723v6.131
		h-1.827L326.602,270.181L326.602,270.181z M328.428,276.626h1.869c1.953,0,3.191-1.071,3.191-2.688
		c0-1.827-1.323-2.625-3.254-2.646c-0.883,0-1.513,0.084-1.807,0.168V276.626z"/>
	<path d="M337.198,282.448h1.077v8.688h-1.077V282.448z"/>
	<path d="M341.286,283.549c0.012,0.367-0.257,0.661-0.687,0.661c-0.379,0-0.647-0.294-0.647-0.661c0-0.379,0.281-0.673,0.673-0.673
		C341.03,282.876,341.286,283.169,341.286,283.549z M340.087,291.136v-5.923h1.077v5.923H340.087z"/>
	<path d="M342.951,286.816c0-0.612-0.014-1.114-0.049-1.603h0.954l0.062,0.979h0.024c0.294-0.563,0.979-1.114,1.958-1.114
		c0.818,0,2.093,0.49,2.093,2.521v3.537h-1.077v-3.414c0-0.955-0.355-1.75-1.371-1.75c-0.709,0-1.26,0.501-1.443,1.101
		c-0.049,0.135-0.072,0.318-0.072,0.502v3.561h-1.077L342.951,286.816L342.951,286.816z"/>
	<path d="M350.346,288.371c0.024,1.456,0.954,2.056,2.031,2.056c0.771,0,1.236-0.134,1.64-0.306l0.185,0.771
		c-0.379,0.171-1.027,0.379-1.97,0.379c-1.824,0-2.913-1.212-2.913-2.999s1.053-3.194,2.777-3.194c1.935,0,2.447,1.701,2.447,2.79
		c0,0.22-0.023,0.392-0.037,0.502L350.346,288.371L350.346,288.371z M353.503,287.6c0.012-0.686-0.281-1.75-1.493-1.75
		c-1.089,0-1.565,1.003-1.651,1.75H353.503z"/>
	<path d="M360.04,289.717c0,0.514,0.024,1.016,0.099,1.419h-0.979l-0.086-0.747h-0.036c-0.33,0.465-0.967,0.881-1.812,0.881
		c-1.198,0-1.811-0.845-1.811-1.701c0-1.432,1.271-2.215,3.561-2.203v-0.123c0-0.489-0.135-1.371-1.346-1.371
		c-0.551,0-1.126,0.171-1.542,0.44l-0.245-0.709c0.489-0.318,1.199-0.526,1.946-0.526c1.811,0,2.251,1.236,2.251,2.423V289.717z
		 M359,288.114c-1.175-0.025-2.509,0.184-2.509,1.333c0,0.698,0.466,1.028,1.016,1.028c0.771,0,1.261-0.49,1.434-0.991
		c0.035-0.11,0.061-0.233,0.061-0.343L359,288.114L359,288.114z"/>
	<path d="M361.781,287.061c0-0.697-0.014-1.297-0.049-1.848h0.941l0.036,1.163h0.049c0.271-0.795,0.918-1.297,1.641-1.297
		c0.123,0,0.208,0.012,0.307,0.037v1.016c-0.11-0.024-0.221-0.037-0.367-0.037c-0.759,0-1.298,0.575-1.444,1.383
		c-0.023,0.147-0.049,0.318-0.049,0.502v3.157h-1.063L361.781,287.061L361.781,287.061z"/>
</g>
<g>
	<g>
		<line fill="none" stroke="#272525" x1="403.865" y1="372.727" x2="282.031" y2="372.727"/>
		<polygon fill="#272525" points="284.84,369.024 283.267,372.727 284.84,376.43 276.062,372.727 		"/>
	</g>
</g>
<g>
	<path d="M324.602,347.18c0.925-0.188,2.247-0.293,3.507-0.293c1.952,0,3.212,0.355,4.094,1.154
		c0.714,0.629,1.112,1.596,1.112,2.688c0,1.869-1.177,3.107-2.666,3.611v0.062c1.092,0.379,1.741,1.387,2.077,2.855
		c0.464,1.975,0.8,3.339,1.093,3.885h-1.89c-0.23-0.42-0.547-1.617-0.944-3.381c-0.42-1.952-1.177-2.688-2.834-2.75h-1.723v6.131
		h-1.827L324.602,347.18L324.602,347.18z M326.428,353.625h1.869c1.953,0,3.191-1.07,3.191-2.688c0-1.827-1.323-2.624-3.254-2.646
		c-0.883,0-1.513,0.084-1.807,0.168V353.625z"/>
	<path d="M335.198,359.448h1.077v8.688h-1.077V359.448z"/>
	<path d="M339.286,360.549c0.012,0.367-0.257,0.66-0.687,0.66c-0.379,0-0.647-0.293-0.647-0.66c0-0.381,0.281-0.674,0.673-0.674
		C339.03,359.875,339.286,360.168,339.286,360.549z M338.087,368.135v-5.922h1.077v5.922H338.087z"/>
	<path d="M340.951,363.817c0-0.611-0.014-1.113-0.049-1.604h0.954l0.062,0.979h0.024c0.294-0.562,0.979-1.113,1.958-1.113
		c0.818,0,2.093,0.49,2.093,2.521v3.535h-1.077v-3.413c0-0.954-0.355-1.75-1.371-1.75c-0.709,0-1.26,0.501-1.443,1.101
		c-0.049,0.135-0.072,0.318-0.072,0.502v3.562h-1.077L340.951,363.817L340.951,363.817z"/>
	<path d="M348.346,365.372c0.024,1.455,0.954,2.055,2.031,2.055c0.771,0,1.236-0.135,1.64-0.305l0.185,0.771
		c-0.379,0.172-1.027,0.38-1.97,0.38c-1.824,0-2.913-1.212-2.913-2.999c0-1.786,1.053-3.192,2.777-3.192
		c1.935,0,2.447,1.701,2.447,2.789c0,0.221-0.023,0.393-0.037,0.502H348.346L348.346,365.372z M351.503,364.6
		c0.012-0.686-0.281-1.75-1.493-1.75c-1.089,0-1.565,1.003-1.651,1.75H351.503z"/>
	<path d="M358.04,366.717c0,0.514,0.024,1.016,0.099,1.419h-0.979l-0.086-0.747h-0.036c-0.33,0.466-0.967,0.882-1.812,0.882
		c-1.198,0-1.811-0.845-1.811-1.701c0-1.432,1.271-2.215,3.561-2.202v-0.123c0-0.488-0.135-1.371-1.346-1.371
		c-0.551,0-1.126,0.172-1.542,0.441l-0.245-0.71c0.489-0.317,1.199-0.526,1.946-0.526c1.811,0,2.251,1.236,2.251,2.424V366.717z
		 M357,365.114c-1.175-0.025-2.509,0.184-2.509,1.334c0,0.697,0.466,1.027,1.016,1.027c0.771,0,1.261-0.489,1.434-0.99
		c0.035-0.111,0.061-0.232,0.061-0.344L357,365.114L357,365.114z"/>
	<path d="M359.781,364.061c0-0.697-0.014-1.297-0.049-1.848h0.941l0.036,1.162h0.049c0.271-0.795,0.918-1.297,1.641-1.297
		c0.123,0,0.208,0.012,0.307,0.037v1.016c-0.11-0.025-0.221-0.037-0.367-0.037c-0.759,0-1.298,0.574-1.444,1.383
		c-0.023,0.146-0.049,0.318-0.049,0.502v3.157h-1.063L359.781,364.061L359.781,364.061z"/>
</g>
<g>
	<g>
		<line fill="none" stroke="#272525" x1="184.719" y1="209.727" x2="85.843" y2="209.727"/>
		<polygon fill="#272525" points="88.651,206.023 87.079,209.727 88.651,213.431 79.874,209.727 		"/>
	</g>
</g>
<g>
	<path d="M116.934,184.181c0.924-0.189,2.247-0.294,3.506-0.294c1.953,0,3.212,0.357,4.095,1.155
		c0.714,0.63,1.111,1.596,1.111,2.688c0,1.869-1.176,3.107-2.666,3.611v0.063c1.092,0.378,1.742,1.386,2.078,2.855
		c0.463,1.974,0.799,3.338,1.092,3.884h-1.889c-0.231-0.42-0.547-1.617-0.945-3.38c-0.42-1.953-1.176-2.688-2.834-2.75h-1.722v6.131
		h-1.827L116.934,184.181L116.934,184.181z M118.761,190.626h1.869c1.953,0,3.19-1.071,3.19-2.688c0-1.827-1.322-2.625-3.254-2.646
		c-0.882,0-1.512,0.084-1.806,0.168V190.626z"/>
	<path d="M127.53,196.448h1.077v8.688h-1.077V196.448z"/>
	<path d="M131.619,197.549c0.012,0.367-0.258,0.661-0.687,0.661c-0.379,0-0.647-0.294-0.647-0.661c0-0.379,0.28-0.673,0.673-0.673
		C131.362,196.876,131.619,197.169,131.619,197.549z M130.419,205.136v-5.923h1.077v5.923H130.419z"/>
	<path d="M133.284,200.816c0-0.612-0.014-1.114-0.05-1.603h0.954l0.062,0.979h0.023c0.294-0.563,0.979-1.114,1.958-1.114
		c0.819,0,2.094,0.49,2.094,2.521v3.537h-1.077v-3.414c0-0.955-0.355-1.75-1.371-1.75c-0.709,0-1.26,0.501-1.443,1.101
		c-0.049,0.135-0.073,0.318-0.073,0.502v3.561h-1.076L133.284,200.816L133.284,200.816z"/>
	<path d="M140.678,202.371c0.024,1.456,0.954,2.056,2.031,2.056c0.771,0,1.235-0.134,1.64-0.306l0.185,0.771
		c-0.38,0.171-1.027,0.379-1.971,0.379c-1.824,0-2.913-1.212-2.913-2.999s1.054-3.194,2.778-3.194c1.934,0,2.447,1.701,2.447,2.79
		c0,0.22-0.024,0.392-0.037,0.502L140.678,202.371L140.678,202.371z M143.835,201.6c0.012-0.686-0.281-1.75-1.493-1.75
		c-1.089,0-1.566,1.003-1.652,1.75H143.835z"/>
	<path d="M150.373,203.717c0,0.514,0.023,1.016,0.099,1.419h-0.979l-0.086-0.747h-0.036c-0.33,0.465-0.968,0.881-1.812,0.881
		c-1.199,0-1.811-0.845-1.811-1.701c0-1.432,1.271-2.215,3.561-2.203v-0.123c0-0.489-0.135-1.371-1.346-1.371
		c-0.551,0-1.126,0.171-1.542,0.44l-0.245-0.709c0.489-0.318,1.199-0.526,1.946-0.526c1.811,0,2.251,1.236,2.251,2.423V203.717
		L150.373,203.717z M149.333,202.114c-1.175-0.025-2.509,0.184-2.509,1.333c0,0.698,0.466,1.028,1.016,1.028
		c0.771,0,1.261-0.49,1.433-0.991c0.036-0.11,0.062-0.233,0.062-0.343L149.333,202.114L149.333,202.114z"/>
	<path d="M152.114,201.061c0-0.697-0.013-1.297-0.049-1.848h0.942l0.036,1.163h0.049c0.27-0.795,0.918-1.297,1.64-1.297
		c0.123,0,0.208,0.012,0.308,0.037v1.016c-0.11-0.024-0.222-0.037-0.367-0.037c-0.759,0-1.298,0.575-1.444,1.383
		c-0.023,0.147-0.049,0.318-0.049,0.502v3.157h-1.063v-4.076H152.114z"/>
</g>
<g>
	<g>
		<line fill="none" stroke="#272525" x1="184.719" y1="296.727" x2="85.843" y2="296.727"/>
		<polygon fill="#272525" points="88.651,293.024 87.079,296.727 88.651,300.431 79.874,296.727 		"/>
	</g>
</g>
<g>
	<path d="M116.934,271.181c0.924-0.189,2.247-0.294,3.506-0.294c1.953,0,3.212,0.357,4.095,1.155
		c0.714,0.63,1.111,1.596,1.111,2.688c0,1.869-1.176,3.107-2.666,3.611v0.063c1.092,0.378,1.742,1.386,2.078,2.855
		c0.463,1.974,0.799,3.338,1.092,3.884h-1.889c-0.231-0.42-0.547-1.617-0.945-3.38c-0.42-1.953-1.176-2.688-2.834-2.75h-1.722v6.131
		h-1.827L116.934,271.181L116.934,271.181z M118.761,277.626h1.869c1.953,0,3.19-1.071,3.19-2.688c0-1.827-1.322-2.625-3.254-2.646
		c-0.882,0-1.512,0.084-1.806,0.168V277.626z"/>
	<path d="M127.53,283.448h1.077v8.688h-1.077V283.448z"/>
	<path d="M131.619,284.549c0.012,0.367-0.258,0.661-0.687,0.661c-0.379,0-0.647-0.294-0.647-0.661c0-0.379,0.28-0.673,0.673-0.673
		C131.362,283.876,131.619,284.169,131.619,284.549z M130.419,292.136v-5.923h1.077v5.923H130.419z"/>
	<path d="M133.284,287.816c0-0.612-0.014-1.114-0.05-1.603h0.954l0.062,0.979h0.023c0.294-0.563,0.979-1.114,1.958-1.114
		c0.819,0,2.094,0.49,2.094,2.521v3.537h-1.077v-3.414c0-0.955-0.355-1.75-1.371-1.75c-0.709,0-1.26,0.501-1.443,1.101
		c-0.049,0.135-0.073,0.318-0.073,0.502v3.561h-1.076L133.284,287.816L133.284,287.816z"/>
	<path d="M140.678,289.371c0.024,1.456,0.954,2.056,2.031,2.056c0.771,0,1.235-0.134,1.64-0.306l0.185,0.771
		c-0.38,0.171-1.027,0.379-1.971,0.379c-1.824,0-2.913-1.212-2.913-2.999s1.054-3.194,2.778-3.194c1.934,0,2.447,1.701,2.447,2.79
		c0,0.22-0.024,0.392-0.037,0.502L140.678,289.371L140.678,289.371z M143.835,288.6c0.012-0.686-0.281-1.75-1.493-1.75
		c-1.089,0-1.566,1.003-1.652,1.75H143.835z"/>
	<path d="M150.373,290.717c0,0.514,0.023,1.016,0.099,1.419h-0.979l-0.086-0.747h-0.036c-0.33,0.465-0.968,0.881-1.812,0.881
		c-1.199,0-1.811-0.845-1.811-1.701c0-1.432,1.271-2.215,3.561-2.203v-0.123c0-0.489-0.135-1.371-1.346-1.371
		c-0.551,0-1.126,0.171-1.542,0.44l-0.245-0.709c0.489-0.318,1.199-0.526,1.946-0.526c1.811,0,2.251,1.236,2.251,2.423V290.717
		L150.373,290.717z M149.333,289.114c-1.175-0.025-2.509,0.184-2.509,1.333c0,0.698,0.466,1.028,1.016,1.028
		c0.771,0,1.261-0.49,1.433-0.991c0.036-0.11,0.062-0.233,0.062-0.343L149.333,289.114L149.333,289.114z"/>
	<path d="M152.114,288.061c0-0.697-0.013-1.297-0.049-1.848h0.942l0.036,1.163h0.049c0.27-0.795,0.918-1.297,1.64-1.297
		c0.123,0,0.208,0.012,0.308,0.037v1.016c-0.11-0.024-0.222-0.037-0.367-0.037c-0.759,0-1.298,0.575-1.444,1.383
		c-0.023,0.147-0.049,0.318-0.049,0.502v3.157h-1.063v-4.076H152.114z"/>
</g>
<g>
	<g>
		<line fill="none" stroke="#272525" x1="184.719" y1="373.727" x2="85.843" y2="373.727"/>
		<polygon fill="#272525" points="88.651,370.024 87.079,373.727 88.651,377.431 79.874,373.727 		"/>
	</g>
</g>
<g>
	<path d="M116.934,348.18c0.924-0.188,2.247-0.293,3.506-0.293c1.953,0,3.212,0.355,4.095,1.154
		c0.714,0.629,1.111,1.596,1.111,2.688c0,1.869-1.176,3.107-2.666,3.611v0.062c1.092,0.379,1.742,1.387,2.078,2.855
		c0.463,1.975,0.799,3.339,1.092,3.885h-1.889c-0.231-0.42-0.547-1.617-0.945-3.381c-0.42-1.952-1.176-2.688-2.834-2.75h-1.722
		v6.131h-1.827L116.934,348.18L116.934,348.18z M118.761,354.625h1.869c1.953,0,3.19-1.07,3.19-2.688
		c0-1.827-1.322-2.624-3.254-2.646c-0.882,0-1.512,0.084-1.806,0.168V354.625z"/>
	<path d="M127.53,360.448h1.077v8.688h-1.077V360.448z"/>
	<path d="M131.619,361.549c0.012,0.367-0.258,0.66-0.687,0.66c-0.379,0-0.647-0.293-0.647-0.66c0-0.381,0.28-0.674,0.673-0.674
		C131.362,360.875,131.619,361.168,131.619,361.549z M130.419,369.135v-5.922h1.077v5.922H130.419z"/>
	<path d="M133.284,364.817c0-0.611-0.014-1.113-0.05-1.604h0.954l0.062,0.979h0.023c0.294-0.562,0.979-1.113,1.958-1.113
		c0.819,0,2.094,0.49,2.094,2.521v3.535h-1.077v-3.413c0-0.954-0.355-1.75-1.371-1.75c-0.709,0-1.26,0.501-1.443,1.101
		c-0.049,0.135-0.073,0.318-0.073,0.502v3.562h-1.076L133.284,364.817L133.284,364.817z"/>
	<path d="M140.678,366.372c0.024,1.455,0.954,2.055,2.031,2.055c0.771,0,1.235-0.135,1.64-0.305l0.185,0.771
		c-0.38,0.172-1.027,0.38-1.971,0.38c-1.824,0-2.913-1.212-2.913-2.999c0-1.786,1.054-3.192,2.778-3.192
		c1.934,0,2.447,1.701,2.447,2.789c0,0.221-0.024,0.393-0.037,0.502H140.678L140.678,366.372z M143.835,365.6
		c0.012-0.686-0.281-1.75-1.493-1.75c-1.089,0-1.566,1.003-1.652,1.75H143.835z"/>
	<path d="M150.373,367.717c0,0.514,0.023,1.016,0.099,1.419h-0.979l-0.086-0.747h-0.036c-0.33,0.466-0.968,0.882-1.812,0.882
		c-1.199,0-1.811-0.845-1.811-1.701c0-1.432,1.271-2.215,3.561-2.202v-0.123c0-0.488-0.135-1.371-1.346-1.371
		c-0.551,0-1.126,0.172-1.542,0.441l-0.245-0.71c0.489-0.317,1.199-0.526,1.946-0.526c1.811,0,2.251,1.236,2.251,2.424V367.717
		L150.373,367.717z M149.333,366.114c-1.175-0.025-2.509,0.184-2.509,1.334c0,0.697,0.466,1.027,1.016,1.027
		c0.771,0,1.261-0.489,1.433-0.99c0.036-0.111,0.062-0.232,0.062-0.344L149.333,366.114L149.333,366.114z"/>
	<path d="M152.114,365.061c0-0.697-0.013-1.297-0.049-1.848h0.942l0.036,1.162h0.049c0.27-0.795,0.918-1.297,1.64-1.297
		c0.123,0,0.208,0.012,0.308,0.037v1.016c-0.11-0.025-0.222-0.037-0.367-0.037c-0.759,0-1.298,0.574-1.444,1.383
		c-0.023,0.146-0.049,0.318-0.049,0.502v3.157h-1.063v-4.075H152.114z"/>
</g>
<g>
	<path d="M244.602,137.181c0.924-0.189,2.247-0.294,3.506-0.294c1.953,0,3.212,0.357,4.095,1.155
		c0.714,0.63,1.111,1.596,1.111,2.688c0,1.869-1.176,3.107-2.666,3.611v0.063c1.093,0.378,1.742,1.386,2.078,2.855
		c0.463,1.974,0.799,3.338,1.092,3.884h-1.889c-0.231-0.42-0.547-1.617-0.945-3.38c-0.42-1.953-1.176-2.688-2.834-2.75h-1.722v6.131
		h-1.827L244.602,137.181L244.602,137.181z M246.428,143.626h1.869c1.953,0,3.19-1.071,3.19-2.688c0-1.827-1.322-2.625-3.254-2.646
		c-0.882,0-1.512,0.084-1.806,0.168V143.626z"/>
	<path d="M255.197,149.448h1.077v8.688h-1.076L255.197,149.448L255.197,149.448z"/>
	<path d="M259.286,150.549c0.012,0.367-0.258,0.661-0.687,0.661c-0.379,0-0.647-0.294-0.647-0.661c0-0.379,0.28-0.673,0.673-0.673
		C259.029,149.876,259.286,150.169,259.286,150.549z M258.087,158.136v-5.923h1.077v5.923H258.087z"/>
	<path d="M260.951,153.816c0-0.612-0.014-1.114-0.05-1.603h0.954l0.062,0.979h0.023c0.294-0.563,0.979-1.114,1.958-1.114
		c0.819,0,2.094,0.49,2.094,2.521v3.537h-1.077v-3.414c0-0.955-0.355-1.75-1.371-1.75c-0.709,0-1.26,0.501-1.443,1.101
		c-0.049,0.135-0.073,0.318-0.073,0.502v3.561h-1.076L260.951,153.816L260.951,153.816z"/>
	<path d="M268.346,155.371c0.024,1.456,0.954,2.056,2.031,2.056c0.771,0,1.235-0.134,1.64-0.306l0.185,0.771
		c-0.379,0.171-1.027,0.379-1.971,0.379c-1.823,0-2.913-1.212-2.913-2.999s1.054-3.194,2.778-3.194c1.935,0,2.447,1.701,2.447,2.79
		c0,0.22-0.024,0.392-0.037,0.502L268.346,155.371L268.346,155.371z M271.503,154.6c0.012-0.686-0.281-1.75-1.493-1.75
		c-1.089,0-1.566,1.003-1.652,1.75H271.503z"/>
	<path d="M278.04,156.717c0,0.514,0.023,1.016,0.099,1.419h-0.979l-0.086-0.747h-0.036c-0.33,0.465-0.968,0.881-1.812,0.881
		c-1.199,0-1.811-0.845-1.811-1.701c0-1.432,1.271-2.215,3.561-2.203v-0.123c0-0.489-0.135-1.371-1.346-1.371
		c-0.551,0-1.126,0.171-1.542,0.44l-0.245-0.709c0.489-0.318,1.199-0.526,1.946-0.526c1.811,0,2.251,1.236,2.251,2.423V156.717z
		 M277,155.114c-1.175-0.025-2.509,0.184-2.509,1.333c0,0.698,0.466,1.028,1.016,1.028c0.771,0,1.261-0.49,1.433-0.991
		c0.036-0.11,0.062-0.233,0.062-0.343L277,155.114L277,155.114z"/>
	<path d="M279.781,154.061c0-0.697-0.014-1.297-0.05-1.848h0.942l0.036,1.163h0.049c0.27-0.795,0.918-1.297,1.64-1.297
		c0.123,0,0.208,0.012,0.308,0.037v1.016c-0.11-0.024-0.222-0.037-0.367-0.037c-0.759,0-1.298,0.575-1.444,1.383
		c-0.023,0.147-0.049,0.318-0.049,0.502v3.157h-1.063L279.781,154.061L279.781,154.061z"/>
</g>
<g>
	<g>
		<line fill="none" stroke="#272525" x1="230.281" y1="186.666" x2="230.281" y2="122.393"/>
		<polygon fill="#272525" points="233.984,125.202 230.281,123.629 226.577,125.202 230.281,116.424 		"/>
	</g>
</g>
<g>
	<path d="M221.602,434.68c0.924-0.188,2.247-0.293,3.506-0.293c1.953,0,3.212,0.355,4.095,1.154
		c0.714,0.629,1.111,1.596,1.111,2.688c0,1.869-1.176,3.107-2.666,3.611v0.062c1.093,0.379,1.742,1.387,2.078,2.855
		c0.463,1.975,0.799,3.338,1.092,3.885h-1.889c-0.231-0.42-0.547-1.617-0.945-3.381c-0.42-1.953-1.176-2.688-2.834-2.75h-1.722
		v6.131h-1.827L221.602,434.68L221.602,434.68z M223.428,441.125h1.869c1.953,0,3.19-1.07,3.19-2.688
		c0-1.826-1.322-2.623-3.254-2.646c-0.882,0-1.512,0.084-1.806,0.168V441.125z"/>
	<path d="M232.197,446.948h1.077v8.688h-1.077V446.948z"/>
	<path d="M236.286,448.049c0.012,0.367-0.258,0.66-0.687,0.66c-0.379,0-0.647-0.293-0.647-0.66c0-0.381,0.28-0.674,0.673-0.674
		C236.029,447.375,236.286,447.668,236.286,448.049z M235.087,455.635v-5.922h1.077v5.922H235.087z"/>
	<path d="M237.951,451.317c0-0.611-0.014-1.113-0.05-1.604h0.954l0.062,0.979h0.023c0.294-0.562,0.979-1.113,1.958-1.113
		c0.819,0,2.094,0.49,2.094,2.521v3.535h-1.077v-3.414c0-0.953-0.355-1.75-1.371-1.75c-0.709,0-1.26,0.502-1.443,1.102
		c-0.049,0.135-0.073,0.318-0.073,0.502v3.562h-1.076L237.951,451.317L237.951,451.317z"/>
	<path d="M245.346,452.872c0.024,1.455,0.954,2.055,2.031,2.055c0.771,0,1.235-0.135,1.64-0.305l0.185,0.77
		c-0.38,0.174-1.027,0.381-1.971,0.381c-1.823,0-2.913-1.213-2.913-2.998c0-1.787,1.054-3.193,2.778-3.193
		c1.934,0,2.447,1.701,2.447,2.789c0,0.221-0.024,0.393-0.037,0.502H245.346L245.346,452.872z M248.503,452.1
		c0.012-0.686-0.281-1.75-1.493-1.75c-1.089,0-1.566,1.002-1.652,1.75H248.503z"/>
	<path d="M255.04,454.217c0,0.514,0.023,1.016,0.099,1.418h-0.979l-0.086-0.746h-0.036c-0.33,0.467-0.968,0.883-1.812,0.883
		c-1.199,0-1.811-0.846-1.811-1.701c0-1.434,1.271-2.215,3.561-2.203v-0.123c0-0.488-0.135-1.371-1.346-1.371
		c-0.551,0-1.126,0.172-1.542,0.441l-0.245-0.709c0.489-0.318,1.199-0.527,1.946-0.527c1.811,0,2.251,1.236,2.251,2.424V454.217
		L255.04,454.217z M254,452.614c-1.175-0.025-2.509,0.184-2.509,1.334c0,0.697,0.466,1.027,1.016,1.027
		c0.771,0,1.261-0.488,1.433-0.99c0.036-0.111,0.062-0.232,0.062-0.344L254,452.614L254,452.614z"/>
	<path d="M256.781,451.561c0-0.697-0.014-1.297-0.05-1.848h0.942l0.036,1.162h0.049c0.27-0.795,0.918-1.297,1.64-1.297
		c0.123,0,0.208,0.012,0.308,0.037v1.016c-0.11-0.025-0.222-0.037-0.367-0.037c-0.759,0-1.298,0.574-1.444,1.383
		c-0.023,0.146-0.049,0.318-0.049,0.502v3.156h-1.063L256.781,451.561L256.781,451.561z"/>
</g>
<g>
	<g>
		<polyline fill="none" stroke="#000000" points="276.894,430.893 241.894,430.893 241.894,403.393 		"/>
		<polygon points="245.597,406.202 241.894,404.629 238.189,406.202 241.894,397.424 		"/>
	</g>
</g>
<g>
	<path d="M104.208,415.523c0-1.116-0.036-2.017-0.072-2.845h1.423l0.071,1.494h0.036c0.647-1.062,1.675-1.692,3.098-1.692
		c2.106,0,3.69,1.783,3.69,4.431c0,3.133-1.908,4.682-3.961,4.682c-1.152,0-2.16-0.504-2.684-1.368h-0.036v4.735h-1.565V415.523z
		 M105.774,417.846c0,0.234,0.036,0.449,0.072,0.648c0.288,1.098,1.242,1.854,2.377,1.854c1.674,0,2.646-1.369,2.646-3.367
		c0-1.747-0.918-3.24-2.594-3.24c-1.08,0-2.089,0.773-2.395,1.963c-0.055,0.197-0.108,0.432-0.108,0.647L105.774,417.846
		L105.774,417.846z"/>
	<path d="M122.337,416.963c0,3.224-2.233,4.627-4.34,4.627c-2.358,0-4.178-1.729-4.178-4.482c0-2.917,1.908-4.628,4.321-4.628
		C120.644,412.48,122.337,414.299,122.337,416.963z M115.423,417.054c0,1.907,1.098,3.349,2.646,3.349
		c1.514,0,2.646-1.423,2.646-3.385c0-1.477-0.738-3.35-2.61-3.35C116.232,413.668,115.423,415.397,115.423,417.054z"/>
	<path d="M124.332,415.397c0-1.025-0.02-1.908-0.072-2.719h1.387l0.055,1.711h0.071c0.396-1.172,1.352-1.909,2.413-1.909
		c0.181,0,0.307,0.019,0.45,0.056v1.493c-0.162-0.036-0.324-0.054-0.541-0.054c-1.116,0-1.908,0.846-2.124,2.033
		c-0.036,0.217-0.072,0.47-0.072,0.738v4.646h-1.565L124.332,415.397L124.332,415.397z"/>
	<path d="M132.558,410.59v2.088h2.27v1.207h-2.27v4.699c0,1.08,0.308,1.691,1.188,1.691c0.433,0,0.685-0.035,0.919-0.107l0.07,1.188
		c-0.306,0.126-0.792,0.234-1.403,0.234c-0.738,0-1.332-0.252-1.71-0.686c-0.45-0.468-0.612-1.242-0.612-2.27v-4.752h-1.351v-1.207
		h1.351v-1.604L132.558,410.59z"/>
	<path d="M142.729,419.304c0,0.757,0.036,1.495,0.145,2.089h-1.44l-0.126-1.1h-0.054c-0.486,0.686-1.423,1.297-2.665,1.297
		c-1.765,0-2.665-1.241-2.665-2.502c0-2.106,1.873-3.26,5.24-3.241v-0.181c0-0.721-0.198-2.017-1.98-2.017
		c-0.811,0-1.657,0.252-2.27,0.647l-0.359-1.045c0.72-0.467,1.764-0.773,2.862-0.773c2.665,0,3.312,1.818,3.312,3.564V419.304
		L142.729,419.304z M141.198,416.946c-1.729-0.035-3.69,0.27-3.69,1.963c0,1.026,0.684,1.512,1.494,1.512
		c1.135,0,1.854-0.719,2.105-1.457c0.056-0.162,0.091-0.342,0.091-0.504V416.946z"/>
	<path d="M145.283,408.609h1.584v12.784h-1.584V408.609z"/>
	<path d="M104.82,438.678l1.71,4.896c0.288,0.793,0.522,1.514,0.702,2.232h0.056c0.197-0.721,0.449-1.439,0.737-2.232l1.692-4.896
		h1.656l-3.421,8.715h-1.514l-3.312-8.715H104.82z"/>
	<path d="M113.567,443.325c0.036,2.143,1.404,3.023,2.989,3.023c1.135,0,1.818-0.197,2.413-0.449l0.27,1.135
		c-0.558,0.252-1.513,0.559-2.897,0.559c-2.683,0-4.285-1.783-4.285-4.412s1.548-4.699,4.087-4.699c2.845,0,3.602,2.504,3.602,4.105
		c0,0.324-0.035,0.576-0.055,0.738H113.567L113.567,443.325z M118.213,442.19c0.019-1.01-0.414-2.574-2.196-2.574
		c-1.603,0-2.305,1.477-2.431,2.574H118.213z"/>
	<path d="M123.469,436.231c0.018,0.539-0.378,0.971-1.009,0.971c-0.559,0-0.954-0.432-0.954-0.971c0-0.561,0.414-0.99,0.99-0.99
		C123.091,435.241,123.469,435.67,123.469,436.231z M121.704,447.393v-8.715h1.584v8.715H121.704z"/>
	<path d="M125.916,441.038c0-0.9-0.02-1.639-0.072-2.359h1.404l0.091,1.441h0.035c0.433-0.828,1.439-1.639,2.881-1.639
		c1.207,0,3.079,0.721,3.079,3.709v5.203h-1.584v-5.023c0-1.404-0.522-2.574-2.018-2.574c-1.045,0-1.854,0.738-2.125,1.621
		c-0.071,0.197-0.107,0.467-0.107,0.738v5.238h-1.584V441.038z"/>
	<path d="M141.486,436.231c0.019,0.539-0.378,0.971-1.009,0.971c-0.558,0-0.954-0.432-0.954-0.971c0-0.561,0.414-0.99,0.99-0.99
		C141.108,435.241,141.486,435.67,141.486,436.231z M139.722,447.393v-8.715h1.584v8.715H139.722z"/>
	<path d="M143.934,441.038c0-0.9-0.019-1.639-0.072-2.359h1.404l0.091,1.441h0.035c0.434-0.828,1.44-1.639,2.881-1.639
		c1.207,0,3.079,0.721,3.079,3.709v5.203h-1.584v-5.023c0-1.404-0.521-2.574-2.017-2.574c-1.045,0-1.854,0.738-2.125,1.621
		c-0.072,0.197-0.108,0.467-0.108,0.738v5.238h-1.584V441.038z"/>
	<path d="M154.085,447.393v-7.508h-1.226v-1.207h1.226v-0.414c0-1.225,0.27-2.342,1.008-3.043c0.595-0.576,1.387-0.811,2.125-0.811
		c0.559,0,1.044,0.127,1.351,0.252l-0.216,1.225c-0.233-0.107-0.559-0.197-1.009-0.197c-1.351,0-1.692,1.188-1.692,2.521v0.467
		h2.106v1.207h-2.106v7.508H154.085L154.085,447.393z"/>
	<path d="M166.471,445.016c0,0.9,0.02,1.691,0.072,2.377h-1.404l-0.09-1.424h-0.036c-0.414,0.703-1.333,1.621-2.881,1.621
		c-1.369,0-3.007-0.756-3.007-3.816v-5.096h1.584v4.826c0,1.656,0.504,2.771,1.943,2.771c1.063,0,1.802-0.738,2.09-1.439
		c0.09-0.234,0.145-0.521,0.145-0.811v-5.35h1.584V445.016L166.471,445.016z"/>
	<path d="M168.881,445.774c0.468,0.305,1.296,0.629,2.088,0.629c1.152,0,1.693-0.576,1.693-1.297c0-0.756-0.45-1.17-1.621-1.602
		c-1.566-0.559-2.306-1.424-2.306-2.467c0-1.406,1.136-2.559,3.008-2.559c0.883,0,1.655,0.254,2.143,0.541l-0.396,1.152
		c-0.344-0.217-0.974-0.506-1.783-0.506c-0.937,0-1.458,0.541-1.458,1.189c0,0.721,0.521,1.045,1.655,1.477
		c1.514,0.576,2.287,1.332,2.287,2.629c0,1.529-1.188,2.629-3.259,2.629c-0.955,0-1.837-0.252-2.449-0.613L168.881,445.774z"/>
	<path d="M177.989,436.231c0.019,0.539-0.378,0.971-1.009,0.971c-0.558,0-0.954-0.432-0.954-0.971c0-0.561,0.414-0.99,0.99-0.99
		C177.611,435.241,177.989,435.67,177.989,436.231z M176.225,447.393v-8.715h1.584v8.715H176.225z"/>
	<path d="M188.323,442.963c0,3.225-2.233,4.627-4.341,4.627c-2.357,0-4.177-1.729-4.177-4.482c0-2.916,1.908-4.627,4.321-4.627
		C186.63,438.481,188.323,440.299,188.323,442.963z M181.409,443.053c0,1.908,1.098,3.35,2.646,3.35
		c1.513,0,2.646-1.422,2.646-3.385c0-1.477-0.738-3.35-2.61-3.35S181.409,441.397,181.409,443.053z"/>
	<path d="M190.318,441.038c0-0.9-0.019-1.639-0.071-2.359h1.403l0.092,1.441h0.034c0.434-0.828,1.44-1.639,2.882-1.639
		c1.206,0,3.078,0.721,3.078,3.709v5.203h-1.584v-5.023c0-1.404-0.521-2.574-2.017-2.574c-1.045,0-1.854,0.738-2.125,1.621
		c-0.072,0.197-0.108,0.467-0.108,0.738v5.238h-1.584V441.038z"/>
</g>
<g>
	<g>
		<line fill="none" stroke="#000000" x1="153.394" y1="424.893" x2="179.561" y2="399.726"/>
		<polygon points="180.104,404.342 178.67,400.583 174.969,399.002 183.863,395.588 		"/>
	</g>
</g>
<g>
	<g>
		<line fill="none" stroke="#000000" x1="206.394" y1="396.06" x2="206.394" y2="506.059"/>
		<polygon points="202.69,503.25 206.394,504.825 210.098,503.25 206.394,512.03 		"/>
	</g>
</g>
<g>
	<path d="M220.602,486.348c0.924-0.189,2.247-0.295,3.506-0.295c1.953,0,3.212,0.357,4.095,1.154
		c0.714,0.631,1.111,1.596,1.111,2.688c0,1.869-1.176,3.107-2.666,3.611v0.064c1.093,0.377,1.742,1.385,2.078,2.854
		c0.463,1.975,0.799,3.338,1.092,3.885h-1.889c-0.231-0.42-0.547-1.615-0.945-3.381c-0.42-1.953-1.176-2.688-2.834-2.75h-1.722
		v6.131h-1.827L220.602,486.348L220.602,486.348z M222.428,492.793h1.869c1.953,0,3.19-1.07,3.19-2.688
		c0-1.826-1.322-2.625-3.254-2.646c-0.882,0-1.512,0.084-1.806,0.168V492.793z"/>
	<path d="M238.185,503.68c-0.062-1.148-0.135-2.531-0.122-3.561h-0.037c-0.28,0.967-0.624,2.008-1.04,3.133l-1.456,4.002h-0.808
		l-1.334-3.928c-0.392-1.164-0.722-2.23-0.955-3.207h-0.023c-0.024,1.027-0.085,2.41-0.159,3.645l-0.221,3.537h-1.016l0.575-8.248
		h1.357l1.407,3.99c0.343,1.016,0.624,1.92,0.832,2.777h0.037c0.208-0.832,0.501-1.738,0.868-2.777l1.469-3.99h1.358l0.514,8.248
		h-1.04L238.185,503.68z"/>
	<path d="M243.61,503.594v0.797h-3.021v-0.797H243.61z"/>
	<path d="M251.859,503.68c-0.062-1.148-0.135-2.531-0.122-3.561H251.7c-0.281,0.967-0.624,2.008-1.04,3.133l-1.456,4.002h-0.809
		l-1.334-3.928c-0.392-1.164-0.722-2.23-0.955-3.207h-0.023c-0.024,1.027-0.085,2.41-0.159,3.645l-0.22,3.537h-1.017l0.575-8.248
		h1.358l1.406,3.99c0.344,1.016,0.624,1.92,0.832,2.777h0.037c0.208-0.832,0.501-1.738,0.868-2.777l1.469-3.99h1.358l0.514,8.248
		h-1.04L251.859,503.68z"/>
</g>
<g>
	<g>
		<line fill="none" stroke="#272525" x1="277.365" y1="535.061" x2="347.061" y2="535.061"/>
		<polygon fill="#272525" points="344.252,538.764 345.825,535.061 344.252,531.358 353.031,535.061 		"/>
	</g>
</g>
<g>
	<path d="M289.602,509.514c0.924-0.189,2.247-0.295,3.506-0.295c1.953,0,3.212,0.357,4.095,1.154
		c0.714,0.631,1.112,1.596,1.112,2.689c0,1.867-1.177,3.105-2.667,3.609v0.064c1.093,0.377,1.742,1.385,2.078,2.854
		c0.464,1.975,0.8,3.338,1.093,3.885h-1.89c-0.23-0.42-0.547-1.615-0.945-3.381c-0.42-1.953-1.176-2.688-2.834-2.75h-1.722v6.131
		h-1.827L289.602,509.514L289.602,509.514z M291.428,515.959h1.869c1.953,0,3.19-1.07,3.19-2.688c0-1.826-1.322-2.625-3.254-2.646
		c-0.882,0-1.512,0.084-1.806,0.168V515.959z"/>
	<path d="M300.198,521.782h1.077v8.688h-1.077V521.782z"/>
	<path d="M304.286,522.881c0.012,0.367-0.257,0.662-0.687,0.662c-0.379,0-0.647-0.295-0.647-0.662c0-0.379,0.281-0.672,0.673-0.672
		C304.03,522.209,304.286,522.502,304.286,522.881z M303.087,530.469v-5.924h1.077v5.924H303.087z"/>
	<path d="M305.951,526.149c0-0.611-0.014-1.113-0.049-1.604h0.954l0.062,0.98h0.024c0.294-0.564,0.979-1.115,1.958-1.115
		c0.818,0,2.093,0.49,2.093,2.521v3.537h-1.077v-3.414c0-0.955-0.355-1.75-1.371-1.75c-0.709,0-1.26,0.502-1.443,1.102
		c-0.049,0.135-0.072,0.318-0.072,0.502v3.561h-1.077L305.951,526.149L305.951,526.149z"/>
	<path d="M313.346,527.704c0.024,1.457,0.954,2.057,2.031,2.057c0.771,0,1.236-0.135,1.64-0.307l0.185,0.771
		c-0.379,0.172-1.027,0.379-1.97,0.379c-1.824,0-2.913-1.213-2.913-2.998c0-1.787,1.053-3.193,2.777-3.193
		c1.935,0,2.447,1.701,2.447,2.789c0,0.221-0.023,0.393-0.037,0.502H313.346L313.346,527.704z M316.503,526.932
		c0.012-0.686-0.281-1.75-1.493-1.75c-1.089,0-1.565,1.004-1.651,1.75H316.503z"/>
	<path d="M323.04,529.049c0,0.514,0.024,1.016,0.099,1.42h-0.979l-0.086-0.746h-0.036c-0.33,0.465-0.967,0.881-1.812,0.881
		c-1.198,0-1.811-0.846-1.811-1.701c0-1.432,1.271-2.215,3.561-2.203v-0.121c0-0.49-0.135-1.371-1.346-1.371
		c-0.551,0-1.126,0.172-1.542,0.439l-0.245-0.709c0.489-0.318,1.199-0.525,1.946-0.525c1.811,0,2.251,1.234,2.251,2.422V529.049z
		 M322,527.448c-1.175-0.025-2.509,0.184-2.509,1.332c0,0.699,0.466,1.029,1.016,1.029c0.771,0,1.261-0.49,1.434-0.992
		c0.035-0.109,0.061-0.232,0.061-0.342L322,527.448L322,527.448z"/>
	<path d="M324.781,526.393c0-0.695-0.014-1.297-0.049-1.848h0.941l0.036,1.164h0.049c0.271-0.797,0.918-1.299,1.641-1.299
		c0.123,0,0.208,0.014,0.307,0.037v1.016c-0.11-0.023-0.221-0.037-0.367-0.037c-0.759,0-1.298,0.576-1.444,1.383
		c-0.023,0.148-0.049,0.318-0.049,0.504v3.156h-1.063L324.781,526.393L324.781,526.393z"/>
</g>
<g>
	<g>
		<line fill="none" stroke="#272525" x1="184.052" y1="640.059" x2="85.176" y2="640.059"/>
		<polygon fill="#272525" points="87.984,636.358 86.412,640.059 87.984,643.764 79.207,640.059 		"/>
	</g>
</g>
<g>
	<path d="M116.267,614.514c0.924-0.189,2.247-0.295,3.506-0.295c1.953,0,3.212,0.357,4.095,1.154
		c0.714,0.631,1.111,1.596,1.111,2.689c0,1.867-1.176,3.105-2.666,3.609v0.064c1.092,0.377,1.742,1.385,2.078,2.854
		c0.463,1.975,0.799,3.338,1.092,3.885h-1.889c-0.231-0.42-0.547-1.615-0.945-3.381c-0.42-1.953-1.176-2.688-2.834-2.75h-1.722
		v6.131h-1.827L116.267,614.514L116.267,614.514z M118.094,620.959h1.869c1.953,0,3.19-1.07,3.19-2.688
		c0-1.826-1.322-2.625-3.254-2.646c-0.882,0-1.512,0.084-1.806,0.168V620.959z"/>
	<path d="M126.863,626.782h1.077v8.688h-1.077V626.782z"/>
	<path d="M130.952,627.881c0.012,0.367-0.258,0.662-0.687,0.662c-0.379,0-0.647-0.295-0.647-0.662c0-0.379,0.28-0.672,0.673-0.672
		C130.695,627.209,130.952,627.502,130.952,627.881z M129.752,635.469v-5.924h1.077v5.924H129.752z"/>
	<path d="M132.617,631.149c0-0.611-0.014-1.113-0.05-1.604h0.954l0.062,0.98h0.023c0.294-0.564,0.979-1.115,1.958-1.115
		c0.819,0,2.094,0.49,2.094,2.521v3.537h-1.077v-3.414c0-0.955-0.355-1.75-1.371-1.75c-0.709,0-1.26,0.502-1.443,1.102
		c-0.049,0.135-0.073,0.318-0.073,0.502v3.561h-1.076L132.617,631.149L132.617,631.149z"/>
	<path d="M140.011,632.704c0.024,1.457,0.954,2.057,2.031,2.057c0.771,0,1.235-0.135,1.64-0.307l0.185,0.771
		c-0.38,0.172-1.027,0.379-1.971,0.379c-1.824,0-2.913-1.213-2.913-2.998c0-1.787,1.054-3.193,2.778-3.193
		c1.934,0,2.447,1.701,2.447,2.789c0,0.221-0.024,0.393-0.037,0.502H140.011L140.011,632.704z M143.168,631.932
		c0.012-0.686-0.281-1.75-1.493-1.75c-1.089,0-1.566,1.004-1.652,1.75H143.168z"/>
	<path d="M149.706,634.049c0,0.514,0.023,1.016,0.099,1.42h-0.979l-0.086-0.746h-0.036c-0.33,0.465-0.968,0.881-1.812,0.881
		c-1.199,0-1.811-0.846-1.811-1.701c0-1.432,1.271-2.215,3.561-2.203v-0.121c0-0.49-0.135-1.371-1.346-1.371
		c-0.551,0-1.126,0.172-1.542,0.439l-0.245-0.709c0.489-0.318,1.199-0.525,1.946-0.525c1.811,0,2.251,1.234,2.251,2.422V634.049
		L149.706,634.049z M148.666,632.448c-1.175-0.025-2.509,0.184-2.509,1.332c0,0.699,0.466,1.029,1.016,1.029
		c0.771,0,1.261-0.49,1.433-0.992c0.036-0.109,0.062-0.232,0.062-0.342L148.666,632.448L148.666,632.448z"/>
	<path d="M151.447,631.393c0-0.695-0.013-1.297-0.049-1.848h0.942l0.036,1.164h0.049c0.27-0.797,0.918-1.299,1.64-1.299
		c0.123,0,0.208,0.014,0.308,0.037v1.016c-0.11-0.023-0.222-0.037-0.367-0.037c-0.759,0-1.298,0.576-1.444,1.383
		c-0.023,0.148-0.049,0.318-0.049,0.504v3.156h-1.063v-4.076H151.447z"/>
</g>
<g>
	<path d="M237.934,579.514c0.924-0.189,2.247-0.295,3.506-0.295c1.953,0,3.212,0.357,4.095,1.154
		c0.714,0.631,1.111,1.596,1.111,2.689c0,1.867-1.176,3.105-2.666,3.609v0.064c1.092,0.377,1.742,1.385,2.078,2.854
		c0.463,1.975,0.799,3.338,1.092,3.885h-1.889c-0.231-0.42-0.547-1.615-0.945-3.381c-0.42-1.953-1.176-2.688-2.834-2.75h-1.722
		v6.131h-1.827L237.934,579.514L237.934,579.514z M239.76,585.959h1.869c1.953,0,3.19-1.07,3.19-2.688
		c0-1.826-1.322-2.625-3.254-2.646c-0.882,0-1.512,0.084-1.806,0.168V585.959z"/>
	<path d="M248.529,591.782h1.077v8.688h-1.077V591.782z"/>
	<path d="M252.618,592.881c0.012,0.367-0.258,0.662-0.687,0.662c-0.379,0-0.647-0.295-0.647-0.662c0-0.379,0.28-0.672,0.673-0.672
		C252.361,592.209,252.618,592.502,252.618,592.881z M251.419,600.469v-5.924h1.077v5.924H251.419z"/>
	<path d="M254.283,596.149c0-0.611-0.014-1.113-0.05-1.604h0.954l0.062,0.98h0.023c0.294-0.564,0.979-1.115,1.958-1.115
		c0.819,0,2.094,0.49,2.094,2.521v3.537h-1.077v-3.414c0-0.955-0.355-1.75-1.371-1.75c-0.709,0-1.26,0.502-1.443,1.102
		c-0.049,0.135-0.073,0.318-0.073,0.502v3.561h-1.076L254.283,596.149L254.283,596.149z"/>
	<path d="M261.678,597.704c0.024,1.457,0.954,2.057,2.031,2.057c0.771,0,1.235-0.135,1.64-0.307l0.185,0.771
		c-0.38,0.172-1.027,0.379-1.971,0.379c-1.823,0-2.913-1.213-2.913-2.998c0-1.787,1.054-3.193,2.778-3.193
		c1.934,0,2.447,1.701,2.447,2.789c0,0.221-0.024,0.393-0.037,0.502H261.678L261.678,597.704z M264.835,596.932
		c0.012-0.686-0.281-1.75-1.493-1.75c-1.089,0-1.566,1.004-1.652,1.75H264.835z"/>
	<path d="M271.372,599.049c0,0.514,0.023,1.016,0.099,1.42h-0.979l-0.086-0.746h-0.036c-0.33,0.465-0.968,0.881-1.812,0.881
		c-1.199,0-1.811-0.846-1.811-1.701c0-1.432,1.271-2.215,3.561-2.203v-0.121c0-0.49-0.135-1.371-1.346-1.371
		c-0.551,0-1.126,0.172-1.542,0.439l-0.245-0.709c0.489-0.318,1.199-0.525,1.946-0.525c1.811,0,2.251,1.234,2.251,2.422V599.049z
		 M270.332,597.448c-1.175-0.025-2.509,0.184-2.509,1.332c0,0.699,0.466,1.029,1.016,1.029c0.771,0,1.261-0.49,1.433-0.992
		c0.036-0.109,0.062-0.232,0.062-0.342L270.332,597.448L270.332,597.448z"/>
	<path d="M273.113,596.393c0-0.695-0.013-1.297-0.049-1.848h0.942l0.036,1.164h0.049c0.27-0.797,0.918-1.299,1.64-1.299
		c0.123,0,0.208,0.014,0.308,0.037v1.016c-0.11-0.023-0.222-0.037-0.367-0.037c-0.759,0-1.298,0.576-1.444,1.383
		c-0.023,0.148-0.049,0.318-0.049,0.504v3.156h-1.063v-4.076H273.113z"/>
</g>
<g>
	<g>
		<line fill="none" stroke="#272525" x1="229.894" y1="564.393" x2="229.894" y2="610.143"/>
		<polygon fill="#272525" points="226.19,607.334 229.894,608.907 233.598,607.334 229.894,616.112 		"/>
		<polygon fill="#272525" points="233.597,567.202 229.894,565.629 226.189,567.202 229.894,558.424 		"/>
	</g>
</g>
<g>
	<g>
		<line fill="none" stroke="#272525" x1="405.227" y1="430.727" x2="376.227" y2="430.727"/>
		<polygon fill="#272525" points="379.035,427.024 377.462,430.727 379.035,434.43 370.257,430.727 		"/>
	</g>
</g>
<g>
	<path d="M29.879,531.819c0.702,0.432,1.729,0.791,2.809,0.791c1.603,0,2.539-0.848,2.539-2.07c0-1.135-0.647-1.783-2.287-2.412
		c-1.979-0.703-3.205-1.729-3.205-3.439c0-1.891,1.566-3.295,3.926-3.295c1.241,0,2.143,0.287,2.683,0.596l-0.432,1.277
		c-0.396-0.217-1.206-0.576-2.306-0.576c-1.655,0-2.287,0.99-2.287,1.818c0,1.135,0.738,1.691,2.413,2.34
		c2.054,0.793,3.098,1.783,3.098,3.566c0,1.871-1.388,3.51-4.25,3.51c-1.17,0-2.449-0.359-3.098-0.791L29.879,531.819z"/>
	<path d="M39.348,525.01l1.909,5.15c0.198,0.576,0.414,1.26,0.558,1.783h0.036c0.162-0.523,0.342-1.189,0.559-1.82l1.729-5.113
		h1.674l-2.377,6.213c-1.134,2.988-1.908,4.52-2.989,5.455c-0.773,0.686-1.548,0.955-1.943,1.027l-0.396-1.334
		c0.396-0.125,0.918-0.377,1.387-0.773c0.432-0.342,0.972-0.955,1.333-1.764c0.071-0.162,0.126-0.289,0.126-0.379
		s-0.036-0.217-0.108-0.414l-3.223-8.031H39.348L39.348,525.01z"/>
	<path d="M46.925,532.106c0.468,0.307,1.296,0.631,2.089,0.631c1.152,0,1.692-0.576,1.692-1.297c0-0.758-0.45-1.17-1.621-1.604
		c-1.566-0.559-2.306-1.422-2.306-2.467c0-1.404,1.136-2.557,3.008-2.557c0.882,0,1.656,0.252,2.143,0.541l-0.396,1.15
		c-0.343-0.217-0.973-0.504-1.782-0.504c-0.938,0-1.458,0.539-1.458,1.188c0,0.721,0.521,1.045,1.656,1.477
		c1.513,0.576,2.286,1.332,2.286,2.629c0,1.531-1.188,2.629-3.259,2.629c-0.954,0-1.836-0.252-2.449-0.611L46.925,532.106z"/>
	<path d="M56.178,522.922v2.088h2.269v1.207h-2.269v4.699c0,1.08,0.306,1.693,1.188,1.693c0.432,0,0.685-0.037,0.918-0.109
		l0.071,1.189c-0.306,0.125-0.792,0.232-1.403,0.232c-0.738,0-1.332-0.252-1.71-0.684c-0.45-0.469-0.612-1.242-0.612-2.27v-4.754
		H53.28v-1.207h1.351v-1.602L56.178,522.922z"/>
	<path d="M61.001,529.657c0.036,2.143,1.403,3.025,2.989,3.025c1.134,0,1.817-0.197,2.412-0.449l0.271,1.133
		c-0.558,0.252-1.512,0.559-2.898,0.559c-2.683,0-4.286-1.781-4.286-4.41s1.549-4.699,4.088-4.699c2.845,0,3.601,2.502,3.601,4.104
		c0,0.324-0.036,0.576-0.054,0.738H61.001L61.001,529.657z M65.646,528.524c0.019-1.01-0.414-2.576-2.195-2.576
		c-1.604,0-2.306,1.477-2.432,2.576H65.646z"/>
	<path d="M69.137,527.372c0-0.9-0.018-1.639-0.072-2.359h1.388l0.071,1.404h0.055c0.485-0.828,1.296-1.604,2.736-1.604
		c1.188,0,2.088,0.721,2.468,1.746h0.035c0.271-0.484,0.612-0.863,0.973-1.135c0.521-0.395,1.098-0.611,1.926-0.611
		c1.152,0,2.863,0.758,2.863,3.781v5.131h-1.55v-4.934c0-1.674-0.611-2.682-1.891-2.682c-0.9,0-1.603,0.666-1.873,1.439
		c-0.072,0.215-0.126,0.504-0.126,0.791v5.385h-1.548v-5.223c0-1.387-0.612-2.395-1.818-2.395c-0.989,0-1.711,0.793-1.963,1.584
		c-0.09,0.234-0.126,0.506-0.126,0.773v5.258h-1.548V527.372z"/>
	<path d="M85.914,522.563c0.018,0.539-0.378,0.973-1.009,0.973c-0.558,0-0.954-0.434-0.954-0.973c0-0.559,0.414-0.99,0.989-0.99
		C85.536,521.573,85.914,522.004,85.914,522.563z M84.149,533.725v-8.715h1.584v8.715H84.149z"/>
	<path d="M94.573,533.403c-0.414,0.215-1.333,0.521-2.504,0.521c-2.629,0-4.339-1.801-4.339-4.467c0-2.682,1.837-4.627,4.683-4.627
		c0.936,0,1.765,0.234,2.195,0.451l-0.359,1.225c-0.378-0.217-0.973-0.416-1.836-0.416c-1.999,0-3.079,1.479-3.079,3.297
		c0,2.018,1.296,3.258,3.024,3.258c0.9,0,1.495-0.232,1.945-0.432L94.573,533.403z"/>
	<path d="M39.332,559.186c-0.702,0.252-2.088,0.666-3.728,0.666c-1.836,0-3.349-0.469-4.537-1.604
		c-1.044-1.008-1.692-2.629-1.692-4.52c0.018-3.619,2.503-6.266,6.571-6.266c1.404,0,2.504,0.307,3.025,0.559l-0.378,1.277
		c-0.648-0.287-1.458-0.521-2.683-0.521c-2.953,0-4.879,1.838-4.879,4.881c0,3.078,1.854,4.896,4.681,4.896
		c1.025,0,1.729-0.145,2.089-0.324v-3.619h-2.467v-1.262h3.997V559.186z"/>
	<path d="M42.642,555.657c0.036,2.143,1.404,3.025,2.989,3.025c1.134,0,1.818-0.197,2.413-0.449l0.27,1.133
		c-0.558,0.252-1.512,0.559-2.898,0.559c-2.684,0-4.285-1.781-4.285-4.41s1.549-4.699,4.087-4.699c2.845,0,3.601,2.502,3.601,4.104
		c0,0.324-0.035,0.576-0.054,0.738H42.642L42.642,555.657z M47.287,554.524c0.018-1.01-0.415-2.576-2.197-2.576
		c-1.604,0-2.305,1.477-2.431,2.576H47.287z"/>
	<path d="M50.777,553.372c0-0.9-0.018-1.639-0.071-2.359h1.404l0.091,1.439h0.035c0.433-0.828,1.44-1.639,2.882-1.639
		c1.206,0,3.078,0.721,3.078,3.711v5.201h-1.584v-5.021c0-1.404-0.521-2.576-2.017-2.576c-1.044,0-1.854,0.738-2.125,1.621
		c-0.072,0.199-0.108,0.469-0.108,0.738v5.238h-1.584L50.777,553.372L50.777,553.372z"/>
	<path d="M62.532,548.563c0.018,0.539-0.379,0.973-1.009,0.973c-0.559,0-0.955-0.434-0.955-0.973c0-0.559,0.414-0.99,0.99-0.99
		C62.153,547.573,62.532,548.004,62.532,548.563z M60.767,559.725v-8.715h1.584v8.715H60.767z"/>
	<path d="M64.763,558.106c0.468,0.307,1.296,0.631,2.089,0.631c1.152,0,1.692-0.576,1.692-1.297c0-0.758-0.45-1.17-1.621-1.604
		c-1.566-0.559-2.305-1.422-2.305-2.467c0-1.404,1.134-2.557,3.007-2.557c0.882,0,1.655,0.252,2.143,0.541l-0.396,1.15
		C69.03,552.288,68.4,552,67.59,552c-0.938,0-1.458,0.539-1.458,1.188c0,0.721,0.521,1.045,1.656,1.477
		c1.513,0.576,2.287,1.332,2.287,2.629c0,1.531-1.188,2.629-3.26,2.629c-0.954,0-1.836-0.252-2.448-0.611L64.763,558.106z"/>
	<path d="M74.016,548.922v2.088h2.27v1.207h-2.27v4.699c0,1.08,0.306,1.693,1.188,1.693c0.432,0,0.685-0.037,0.918-0.109
		l0.071,1.189c-0.306,0.125-0.792,0.232-1.404,0.232c-0.738,0-1.333-0.252-1.71-0.684c-0.45-0.469-0.612-1.242-0.612-2.27v-4.754
		h-1.35v-1.207h1.35v-1.602L74.016,548.922z"/>
	<path d="M78.839,555.657c0.036,2.143,1.404,3.025,2.989,3.025c1.134,0,1.817-0.197,2.413-0.449l0.27,1.133
		c-0.558,0.252-1.512,0.559-2.899,0.559c-2.683,0-4.284-1.781-4.284-4.41s1.549-4.699,4.087-4.699c2.845,0,3.601,2.502,3.601,4.104
		c0,0.324-0.036,0.576-0.054,0.738H78.839L78.839,555.657z M83.484,554.524c0.019-1.01-0.415-2.576-2.196-2.576
		c-1.604,0-2.306,1.477-2.432,2.576H83.484z"/>
	<path d="M88.739,548.563c0.019,0.539-0.378,0.973-1.008,0.973c-0.558,0-0.955-0.434-0.955-0.973c0-0.559,0.414-0.99,0.99-0.99
		C88.361,547.573,88.739,548.004,88.739,548.563z M86.975,559.725v-8.715h1.584v8.715H86.975z"/>
	<path d="M91.187,553.372c0-0.9-0.018-1.639-0.071-2.359h1.404l0.09,1.439h0.036c0.433-0.828,1.44-1.639,2.881-1.639
		c1.206,0,3.079,0.721,3.079,3.711v5.201H97.02v-5.021c0-1.404-0.521-2.576-2.017-2.576c-1.044,0-1.854,0.738-2.125,1.621
		c-0.072,0.199-0.108,0.469-0.108,0.738v5.238h-1.584L91.187,553.372L91.187,553.372z"/>
</g>
<g>
	<g>
		<line fill="none" stroke="#272525" stroke-dasharray="3,3" x1="66.727" y1="517.333" x2="66.727" y2="466.393"/>
		<polygon fill="#272525" points="70.43,469.202 66.727,467.629 63.023,469.202 66.727,460.424 		"/>
	</g>
</g>
</svg>
