<?xml version="1.0" encoding="utf-8"?>

<!-- Generator: Adobe Illustrator 14.0.0, SVG Export Plug-In . SVG Version: 6.00 Build 43363)  -->

<!DOCTYPE svg PUBLIC "-//W3C//DTD SVG 1.1//EN" "http://www.w3.org/Graphics/SVG/1.1/DTD/svg11.dtd">

<svg version="1.1" id="Layer_1" xmlns="http://www.w3.org/2000/svg" xmlns:xlink="http://www.w3.org/1999/xlink" x="0px" y="0px"

	 width="434.667px" height="472px" viewBox="0 0 434.667 472" enable-background="new 0 0 434.667 472" xml:space="preserve">

<g>

	

		<radialGradient id="path11134_1_" cx="282.3184" cy="-554.5986" r="22.1563" gradientTransform="matrix(0.3664 0 0 0.3664 23.9925 426.1212)" gradientUnits="userSpaceOnUse">

		<stop  offset="0" style="stop-color:#FFFCE1"/>

		<stop  offset="0.1203" style="stop-color:#FFFCDC"/>

		<stop  offset="0.2662" style="stop-color:#FFF9CC"/>

		<stop  offset="0.4255" style="stop-color:#FFF7B1"/>

		<stop  offset="0.5943" style="stop-color:#FFF18E"/>

		<stop  offset="0.7706" style="stop-color:#FFEA5B"/>

		<stop  offset="0.9506" style="stop-color:#FFE100"/>

		<stop  offset="1" style="stop-color:#FFDF00"/>

	</radialGradient>

	<path id="path11134_24_" fill="url(#path11134_1_)" stroke="#010101" stroke-width="0.9921" d="M135.552,222.917

		c0,4.482-3.635,8.117-8.117,8.117c-4.484,0-8.119-3.635-8.119-8.117s3.635-8.119,8.119-8.119

		C131.917,214.798,135.552,218.435,135.552,222.917z"/>

	<g>

		<path fill="#010101" d="M121.82,226.228v-5.389h0.768l1.72,2.727c0.392,0.631,0.711,1.191,0.959,1.751l0.024-0.009

			c-0.064-0.719-0.08-1.375-0.08-2.206v-2.263h0.655v5.389h-0.703l-1.712-2.734c-0.375-0.6-0.735-1.216-0.999-1.799l-0.024,0.008

			c0.04,0.68,0.049,1.327,0.049,2.223v2.303H121.82z"/>

		<path fill="#010101" d="M129.771,225.3c0,0.336,0.016,0.664,0.056,0.928h-0.632l-0.063-0.487h-0.024

			c-0.208,0.304-0.632,0.575-1.184,0.575c-0.783,0-1.183-0.552-1.183-1.111c0-0.936,0.831-1.447,2.326-1.439v-0.08

			c0-0.319-0.088-0.903-0.88-0.896c-0.367,0-0.743,0.104-1.015,0.288l-0.16-0.472c0.319-0.2,0.792-0.336,1.279-0.336

			c1.191,0,1.479,0.808,1.479,1.583V225.3z M129.084,224.253c-0.768-0.017-1.64,0.119-1.64,0.871c0,0.464,0.304,0.672,0.655,0.672

			c0.512,0,0.84-0.32,0.952-0.647c0.023-0.072,0.032-0.152,0.032-0.225V224.253z"/>

		<path fill="#010101" d="M132.165,220.584v1.316h1.266v0.336h-1.266v1.327h-0.358v-1.327h-1.266V221.9h1.266v-1.316H132.165z"/>

	</g>

</g>

<g>

	

		<radialGradient id="path16609_1_" cx="102.2568" cy="-270.4951" r="16.1856" gradientTransform="matrix(1.5933 0 0 0.6358 -52.354 410.2129)" gradientUnits="userSpaceOnUse">

		<stop  offset="0" style="stop-color:#ACD152"/>

		<stop  offset="0.4082" style="stop-color:#ABD152"/>

		<stop  offset="0.5552" style="stop-color:#A6CF54"/>

		<stop  offset="0.66" style="stop-color:#A0CD53"/>

		<stop  offset="0.7448" style="stop-color:#93C951"/>

		<stop  offset="0.8174" style="stop-color:#84C551"/>

		<stop  offset="0.8817" style="stop-color:#74C054"/>

		<stop  offset="0.9398" style="stop-color:#63BC54"/>

		<stop  offset="0.9915" style="stop-color:#59BA53"/>

		<stop  offset="1" style="stop-color:#57BA53"/>

	</radialGradient>

	<path id="path16609_24_" fill="url(#path16609_1_)" stroke="#010101" d="M135.886,238.231c0,5.786-11.338,10.478-25.314,10.478

		c-13.98,0-25.314-4.689-25.314-10.478s11.334-10.476,25.314-10.476C124.548,227.757,135.886,232.444,135.886,238.231z"/>

	<g>

		<path fill="#010101" d="M112.421,241.502c-0.372,0.192-1.151,0.384-2.135,0.384c-2.279,0-3.982-1.439-3.982-4.102

			c0-2.543,1.715-4.246,4.222-4.246c0.996,0,1.643,0.216,1.919,0.36l-0.264,0.852c-0.384-0.192-0.948-0.336-1.619-0.336

			c-1.895,0-3.154,1.211-3.154,3.334c0,1.991,1.139,3.25,3.094,3.25c0.648,0,1.295-0.132,1.715-0.336L112.421,241.502z"/>

		<path fill="#010101" d="M115.255,233.454c-0.276,1.008-0.792,2.303-1.115,2.854l-0.672,0.072c0.252-0.708,0.576-1.943,0.708-2.807

			L115.255,233.454z"/>

	</g>

</g>

<g>

	

		<radialGradient id="path16609_2_" cx="246.6348" cy="-579.7949" r="16.186" gradientTransform="matrix(1.5933 0 0 0.6358 -52.354 410.2129)" gradientUnits="userSpaceOnUse">

		<stop  offset="0" style="stop-color:#ACD152"/>

		<stop  offset="0.4082" style="stop-color:#ABD152"/>

		<stop  offset="0.5552" style="stop-color:#A6CF54"/>

		<stop  offset="0.66" style="stop-color:#A0CD53"/>

		<stop  offset="0.7448" style="stop-color:#93C951"/>

		<stop  offset="0.8174" style="stop-color:#84C551"/>

		<stop  offset="0.8817" style="stop-color:#74C054"/>

		<stop  offset="0.9398" style="stop-color:#63BC54"/>

		<stop  offset="0.9915" style="stop-color:#59BA53"/>

		<stop  offset="1" style="stop-color:#57BA53"/>

	</radialGradient>

	<path id="path16609_23_" fill="url(#path16609_2_)" stroke="#010101" d="M365.924,41.579c0,5.786-11.338,10.478-25.316,10.478

		c-13.98,0-25.314-4.689-25.314-10.478c0-5.788,11.334-10.476,25.314-10.476C354.586,31.104,365.924,35.792,365.924,41.579z"/>

	<g>

		<path fill="#010101" d="M341.564,44.85c-0.371,0.192-1.151,0.384-2.135,0.384c-2.279,0-3.982-1.439-3.982-4.102

			c0-2.543,1.716-4.246,4.223-4.246c0.995,0,1.643,0.216,1.918,0.36l-0.264,0.852c-0.383-0.192-0.947-0.336-1.619-0.336

			c-1.895,0-3.154,1.211-3.154,3.334c0,1.991,1.14,3.25,3.095,3.25c0.647,0,1.296-0.132,1.716-0.336L341.564,44.85z"/>

		<path fill="#010101" d="M344.398,36.802c-0.275,1.008-0.791,2.303-1.115,2.854l-0.672,0.072c0.252-0.708,0.576-1.943,0.708-2.807

			L344.398,36.802z"/>

		<path fill="#010101" d="M346.187,36.802c-0.276,1.008-0.792,2.303-1.115,2.854l-0.672,0.072c0.252-0.708,0.575-1.943,0.708-2.807

			L346.187,36.802z"/>

	</g>

</g>

<g>

	

		<radialGradient id="path16609_3_" cx="64.5547" cy="-184.1978" r="16.1855" gradientTransform="matrix(1.5933 0 0 0.6358 -52.354 410.2129)" gradientUnits="userSpaceOnUse">

		<stop  offset="0" style="stop-color:#FFFCE1"/>

		<stop  offset="0.1203" style="stop-color:#FFFCDC"/>

		<stop  offset="0.2662" style="stop-color:#FFF9CC"/>

		<stop  offset="0.4255" style="stop-color:#FFF7B1"/>

		<stop  offset="0.5943" style="stop-color:#FFF18E"/>

		<stop  offset="0.7706" style="stop-color:#FFEA5B"/>

		<stop  offset="0.9506" style="stop-color:#FFE100"/>

		<stop  offset="1" style="stop-color:#FFDF00"/>

	</radialGradient>

	<path id="path16609_22_" fill="url(#path16609_3_)" stroke="#010101" d="M75.816,293.099c0,5.787-11.338,10.478-25.315,10.478

		c-13.981,0-25.315-4.688-25.315-10.478c0-5.787,11.334-10.475,25.315-10.475C64.479,282.624,75.816,287.312,75.816,293.099z"/>

	<g>

		<path fill="#010101" d="M47.668,295.35c0.467,0.301,1.139,0.528,1.859,0.528c1.067,0,1.691-0.563,1.691-1.38

			c0-0.742-0.432-1.187-1.523-1.594c-1.319-0.48-2.135-1.176-2.135-2.303c0-1.26,1.043-2.195,2.614-2.195

			c0.815,0,1.427,0.191,1.775,0.396l-0.288,0.852c-0.252-0.155-0.792-0.384-1.523-0.384c-1.103,0-1.523,0.66-1.523,1.211

			c0,0.756,0.492,1.128,1.607,1.56c1.367,0.528,2.051,1.188,2.051,2.375c0,1.247-0.912,2.339-2.819,2.339

			c-0.779,0-1.631-0.24-2.063-0.528L47.668,295.35z"/>

		<path fill="#010101" d="M54.855,288.322c-0.276,1.008-0.792,2.303-1.115,2.854l-0.672,0.071c0.252-0.707,0.576-1.942,0.708-2.807

			L54.855,288.322z"/>

	</g>

</g>

<g>

	

		<radialGradient id="path16609_4_" cx="102.2568" cy="-579.7949" r="16.1856" gradientTransform="matrix(1.5933 0 0 0.6358 -52.354 410.2129)" gradientUnits="userSpaceOnUse">

		<stop  offset="0" style="stop-color:#ACD152"/>

		<stop  offset="0.4082" style="stop-color:#ABD152"/>

		<stop  offset="0.5552" style="stop-color:#A6CF54"/>

		<stop  offset="0.66" style="stop-color:#A0CD53"/>

		<stop  offset="0.7448" style="stop-color:#93C951"/>

		<stop  offset="0.8174" style="stop-color:#84C551"/>

		<stop  offset="0.8817" style="stop-color:#74C054"/>

		<stop  offset="0.9398" style="stop-color:#63BC54"/>

		<stop  offset="0.9915" style="stop-color:#59BA53"/>

		<stop  offset="1" style="stop-color:#57BA53"/>

	</radialGradient>

	<path id="path16609_21_" fill="url(#path16609_4_)" stroke="#010101" d="M135.886,41.579c0,5.786-11.337,10.478-25.314,10.478

		c-13.98,0-25.314-4.689-25.314-10.478c0-5.788,11.334-10.476,25.314-10.476C124.549,31.104,135.886,35.792,135.886,41.579z"/>

	<g>

		<path fill="#010101" d="M112.421,44.851c-0.372,0.192-1.151,0.384-2.135,0.384c-2.279,0-3.982-1.439-3.982-4.102

			c0-2.543,1.715-4.246,4.222-4.246c0.996,0,1.643,0.216,1.919,0.36l-0.264,0.852c-0.384-0.192-0.948-0.336-1.619-0.336

			c-1.895,0-3.154,1.211-3.154,3.334c0,1.991,1.139,3.25,3.094,3.25c0.648,0,1.295-0.132,1.715-0.336L112.421,44.851z"/>

		<path fill="#010101" d="M115.256,36.803c-0.276,1.008-0.792,2.303-1.115,2.854l-0.672,0.072c0.252-0.708,0.576-1.943,0.708-2.807

			L115.256,36.803z"/>

	</g>

</g>

<g>

	

		<radialGradient id="path11134_2_" cx="820.2109" cy="-554.5986" r="22.1563" gradientTransform="matrix(0.3664 0 0 0.3664 23.9925 426.1212)" gradientUnits="userSpaceOnUse">

		<stop  offset="0" style="stop-color:#FFFCE1"/>

		<stop  offset="0.1203" style="stop-color:#FFFCDC"/>

		<stop  offset="0.2662" style="stop-color:#FFF9CC"/>

		<stop  offset="0.4255" style="stop-color:#FFF7B1"/>

		<stop  offset="0.5943" style="stop-color:#FFF18E"/>

		<stop  offset="0.7706" style="stop-color:#FFEA5B"/>

		<stop  offset="0.9506" style="stop-color:#FFE100"/>

		<stop  offset="1" style="stop-color:#FFDF00"/>

	</radialGradient>

	<path id="path11134_21_" fill="url(#path11134_2_)" stroke="#010101" stroke-width="0.9921" d="M332.636,222.917

		c0,4.482-3.635,8.117-8.117,8.117c-4.484,0-8.119-3.635-8.119-8.117s3.633-8.119,8.119-8.119

		C329.001,214.798,332.636,218.435,332.636,222.917z"/>

	<g>

		<path fill="#010101" d="M318.904,226.227v-5.389h0.768l1.719,2.727c0.393,0.631,0.711,1.191,0.959,1.751l0.025-0.009

			c-0.064-0.719-0.08-1.375-0.08-2.206v-2.263h0.654v5.389h-0.703l-1.711-2.734c-0.375-0.6-0.736-1.216-1-1.799l-0.023,0.008

			c0.039,0.68,0.049,1.327,0.049,2.223v2.303H318.904z"/>

		<path fill="#010101" d="M326.855,225.299c0,0.336,0.016,0.664,0.055,0.928h-0.631l-0.064-0.487h-0.023

			c-0.209,0.304-0.633,0.575-1.184,0.575c-0.783,0-1.184-0.552-1.184-1.111c0-0.936,0.832-1.447,2.326-1.439v-0.08

			c0-0.319-0.088-0.903-0.879-0.896c-0.367,0-0.744,0.104-1.016,0.288l-0.16-0.472c0.32-0.2,0.793-0.336,1.279-0.336

			c1.191,0,1.48,0.808,1.48,1.583V225.299z M326.168,224.252c-0.768-0.017-1.641,0.119-1.641,0.871c0,0.464,0.305,0.672,0.656,0.672

			c0.512,0,0.84-0.32,0.951-0.647c0.023-0.072,0.033-0.152,0.033-0.225V224.252z"/>

		<path fill="#010101" d="M329.248,220.583v1.316h1.266v0.336h-1.266v1.327h-0.357v-1.327h-1.266v-0.336h1.266v-1.316H329.248z"/>

	</g>

</g>

<g>

	

		<radialGradient id="path16609_5_" cx="246.7012" cy="-270.4951" r="16.186" gradientTransform="matrix(1.5933 0 0 0.6358 -52.354 410.2129)" gradientUnits="userSpaceOnUse">

		<stop  offset="0" style="stop-color:#ACD152"/>

		<stop  offset="0.4082" style="stop-color:#ABD152"/>

		<stop  offset="0.5552" style="stop-color:#A6CF54"/>

		<stop  offset="0.66" style="stop-color:#A0CD53"/>

		<stop  offset="0.7448" style="stop-color:#93C951"/>

		<stop  offset="0.8174" style="stop-color:#84C551"/>

		<stop  offset="0.8817" style="stop-color:#74C054"/>

		<stop  offset="0.9398" style="stop-color:#63BC54"/>

		<stop  offset="0.9915" style="stop-color:#59BA53"/>

		<stop  offset="1" style="stop-color:#57BA53"/>

	</radialGradient>

	<path id="path16609_20_" fill="url(#path16609_5_)" stroke="#010101" d="M366.03,238.231c0,5.786-11.338,10.478-25.314,10.478

		c-13.98,0-25.314-4.689-25.314-10.478s11.334-10.476,25.314-10.476C354.692,227.757,366.03,232.444,366.03,238.231z"/>

	<g>

		<path fill="#010101" d="M342.566,241.502c-0.372,0.192-1.152,0.384-2.135,0.384c-2.279,0-3.982-1.439-3.982-4.102

			c0-2.543,1.715-4.246,4.222-4.246c0.995,0,1.644,0.216,1.919,0.36l-0.264,0.852c-0.384-0.192-0.947-0.336-1.619-0.336

			c-1.895,0-3.154,1.211-3.154,3.334c0,1.991,1.139,3.25,3.094,3.25c0.648,0,1.296-0.132,1.716-0.336L342.566,241.502z"/>

		<path fill="#010101" d="M345.4,233.454c-0.275,1.008-0.791,2.303-1.115,2.854l-0.672,0.072c0.252-0.708,0.576-1.943,0.707-2.807

			L345.4,233.454z"/>

		<path fill="#010101" d="M349.396,233.454c-0.276,1.008-0.792,2.303-1.115,2.854l-0.672,0.072c0.252-0.708,0.575-1.943,0.707-2.807

			L349.396,233.454z"/>

	</g>

</g>

<g>

	

		<radialGradient id="path16609_6_" cx="246.7012" cy="62.5396" r="10.9376" gradientTransform="matrix(1.5933 0 0 0.6358 -52.354 410.2129)" gradientUnits="userSpaceOnUse">

		<stop  offset="0" style="stop-color:#FFFCE1"/>

		<stop  offset="0.1203" style="stop-color:#FFFCDC"/>

		<stop  offset="0.2662" style="stop-color:#FFF9CC"/>

		<stop  offset="0.4255" style="stop-color:#FFF7B1"/>

		<stop  offset="0.5943" style="stop-color:#FFF18E"/>

		<stop  offset="0.7706" style="stop-color:#FFEA5B"/>

		<stop  offset="0.9506" style="stop-color:#FFE100"/>

		<stop  offset="1" style="stop-color:#FFDF00"/>

	</radialGradient>

	<path id="path16609_19_" fill="url(#path16609_6_)" stroke="#010101" d="M357.823,449.975c0,3.91-7.662,7.08-17.107,7.08

		c-9.449,0-17.107-3.168-17.107-7.08c0-3.911,7.658-7.078,17.107-7.078C350.161,442.896,357.823,446.064,357.823,449.975z"/>

	<g>

		<path fill="#010101" d="M339.243,451.496c0.315,0.203,0.77,0.357,1.256,0.357c0.721,0,1.142-0.381,1.142-0.932

			c0-0.503-0.291-0.803-1.028-1.078c-0.892-0.324-1.442-0.794-1.442-1.556c0-0.851,0.705-1.483,1.767-1.483

			c0.551,0,0.964,0.131,1.199,0.268l-0.194,0.576c-0.17-0.105-0.535-0.26-1.029-0.26c-0.746,0-1.029,0.445-1.029,0.818

			c0,0.51,0.332,0.762,1.086,1.053c0.924,0.357,1.386,0.803,1.386,1.605c0,0.842-0.616,1.58-1.904,1.58

			c-0.526,0-1.103-0.162-1.394-0.357L339.243,451.496z"/>

	</g>

</g>

<g>

	

		<radialGradient id="path11134_3_" cx="820.2129" cy="-19.6621" r="22.157" gradientTransform="matrix(0.3664 0 0 0.3664 23.9925 426.1212)" gradientUnits="userSpaceOnUse">

		<stop  offset="0" style="stop-color:#FFFCE1"/>

		<stop  offset="0.1203" style="stop-color:#FFFCDC"/>

		<stop  offset="0.2662" style="stop-color:#FFF9CC"/>

		<stop  offset="0.4255" style="stop-color:#FFF7B1"/>

		<stop  offset="0.5943" style="stop-color:#FFF18E"/>

		<stop  offset="0.7706" style="stop-color:#FFEA5B"/>

		<stop  offset="0.9506" style="stop-color:#FFE100"/>

		<stop  offset="1" style="stop-color:#FFDF00"/>

	</radialGradient>

	<path id="path11134_19_" fill="url(#path11134_3_)" stroke="#010101" stroke-width="0.9921" d="M332.637,418.918

		c0,4.482-3.635,8.117-8.117,8.117c-4.484,0-8.119-3.635-8.119-8.117s3.633-8.119,8.119-8.119

		C329.002,410.799,332.637,414.436,332.637,418.918z"/>

	<g>

		<path fill="#010101" d="M318.904,422.229v-5.389h0.768l1.719,2.727c0.393,0.631,0.711,1.191,0.959,1.751l0.025-0.009

			c-0.064-0.719-0.08-1.375-0.08-2.206v-2.263h0.654v5.389h-0.703l-1.711-2.734c-0.375-0.6-0.736-1.216-1-1.799l-0.023,0.008

			c0.039,0.68,0.049,1.327,0.049,2.223v2.303H318.904z"/>

		<path fill="#010101" d="M326.855,421.301c0,0.336,0.016,0.664,0.055,0.928h-0.631l-0.064-0.487h-0.023

			c-0.209,0.304-0.633,0.575-1.184,0.575c-0.783,0-1.184-0.552-1.184-1.111c0-0.936,0.832-1.447,2.326-1.439v-0.08

			c0-0.319-0.088-0.903-0.879-0.896c-0.367,0-0.744,0.104-1.016,0.288l-0.16-0.472c0.32-0.2,0.793-0.336,1.279-0.336

			c1.191,0,1.48,0.808,1.48,1.583V421.301z M326.168,420.254c-0.768-0.017-1.641,0.119-1.641,0.871c0,0.464,0.305,0.672,0.656,0.672

			c0.512,0,0.84-0.32,0.951-0.647c0.023-0.072,0.033-0.152,0.033-0.225V420.254z"/>

		<path fill="#010101" d="M329.248,416.585v1.316h1.266v0.336h-1.266v1.327h-0.357v-1.327h-1.266v-0.336h1.266v-1.316H329.248z"/>

	</g>

</g>

<g>

	

		<radialGradient id="path16609_7_" cx="246.7021" cy="37.7783" r="16.1858" gradientTransform="matrix(1.5933 0 0 0.6358 -52.354 410.2129)" gradientUnits="userSpaceOnUse">

		<stop  offset="0" style="stop-color:#ACD152"/>

		<stop  offset="0.4082" style="stop-color:#ABD152"/>

		<stop  offset="0.5552" style="stop-color:#A6CF54"/>

		<stop  offset="0.66" style="stop-color:#A0CD53"/>

		<stop  offset="0.7448" style="stop-color:#93C951"/>

		<stop  offset="0.8174" style="stop-color:#84C551"/>

		<stop  offset="0.8817" style="stop-color:#74C054"/>

		<stop  offset="0.9398" style="stop-color:#63BC54"/>

		<stop  offset="0.9915" style="stop-color:#59BA53"/>

		<stop  offset="1" style="stop-color:#57BA53"/>

	</radialGradient>

	<path id="path16609_18_" fill="url(#path16609_7_)" stroke="#010101" d="M366.031,434.232c0,5.785-11.338,10.477-25.314,10.477

		c-13.982,0-25.316-4.689-25.316-10.477c0-5.789,11.334-10.477,25.316-10.477C354.693,423.758,366.031,428.445,366.031,434.232z"/>

	<g>

		<path fill="#010101" d="M342.566,437.504c-0.372,0.192-1.152,0.384-2.135,0.384c-2.279,0-3.982-1.439-3.982-4.102

			c0-2.543,1.715-4.246,4.222-4.246c0.995,0,1.644,0.216,1.919,0.36l-0.264,0.852c-0.384-0.192-0.947-0.336-1.619-0.336

			c-1.895,0-3.154,1.211-3.154,3.334c0,1.991,1.139,3.25,3.094,3.25c0.648,0,1.296-0.132,1.716-0.336L342.566,437.504z"/>

		<path fill="#010101" d="M345.4,429.456c-0.275,1.008-0.791,2.303-1.115,2.854l-0.672,0.072c0.252-0.708,0.576-1.943,0.707-2.807

			L345.4,429.456z"/>

		<path fill="#010101" d="M349.396,429.456c-0.276,1.008-0.792,2.303-1.115,2.854l-0.672,0.072c0.252-0.708,0.575-1.943,0.707-2.807

			L349.396,429.456z"/>

	</g>

</g>

<g>

	

		<radialGradient id="path16609_8_" cx="102.2559" cy="62.5396" r="10.9376" gradientTransform="matrix(1.5933 0 0 0.6358 -52.354 410.2129)" gradientUnits="userSpaceOnUse">

		<stop  offset="0" style="stop-color:#FFFCE1"/>

		<stop  offset="0.1203" style="stop-color:#FFFCDC"/>

		<stop  offset="0.2662" style="stop-color:#FFF9CC"/>

		<stop  offset="0.4255" style="stop-color:#FFF7B1"/>

		<stop  offset="0.5943" style="stop-color:#FFF18E"/>

		<stop  offset="0.7706" style="stop-color:#FFEA5B"/>

		<stop  offset="0.9506" style="stop-color:#FFE100"/>

		<stop  offset="1" style="stop-color:#FFDF00"/>

	</radialGradient>

	<path id="path16609_17_" fill="url(#path16609_8_)" stroke="#010101" d="M127.678,449.975c0,3.91-7.662,7.08-17.107,7.08

		c-9.449,0-17.107-3.168-17.107-7.08c0-3.911,7.658-7.078,17.107-7.078C120.016,442.896,127.678,446.064,127.678,449.975z"/>

	<g>

		<path fill="#010101" d="M109.098,451.496c0.316,0.202,0.77,0.355,1.256,0.355c0.721,0,1.142-0.381,1.142-0.932

			c0-0.502-0.292-0.802-1.029-1.077c-0.891-0.324-1.442-0.794-1.442-1.556c0-0.851,0.705-1.482,1.767-1.482

			c0.551,0,0.964,0.129,1.199,0.268l-0.195,0.574c-0.17-0.105-0.535-0.259-1.029-0.259c-0.746,0-1.029,0.446-1.029,0.818

			c0,0.511,0.333,0.762,1.086,1.054c0.924,0.355,1.386,0.802,1.386,1.604c0,0.843-0.616,1.58-1.904,1.58

			c-0.527,0-1.102-0.162-1.394-0.356L109.098,451.496z"/>

	</g>

</g>

<g>

	

		<radialGradient id="path11134_4_" cx="280.9727" cy="-19.6621" r="22.1565" gradientTransform="matrix(0.3664 0 0 0.3664 23.9925 426.1212)" gradientUnits="userSpaceOnUse">

		<stop  offset="0" style="stop-color:#FFFCE1"/>

		<stop  offset="0.1203" style="stop-color:#FFFCDC"/>

		<stop  offset="0.2662" style="stop-color:#FFF9CC"/>

		<stop  offset="0.4255" style="stop-color:#FFF7B1"/>

		<stop  offset="0.5943" style="stop-color:#FFF18E"/>

		<stop  offset="0.7706" style="stop-color:#FFEA5B"/>

		<stop  offset="0.9506" style="stop-color:#FFE100"/>

		<stop  offset="1" style="stop-color:#FFDF00"/>

	</radialGradient>

	<path id="path11134_18_" fill="url(#path11134_4_)" stroke="#010101" stroke-width="0.9921" d="M135.059,418.918

		c0,4.482-3.635,8.117-8.117,8.117c-4.484,0-8.119-3.635-8.119-8.117s3.633-8.119,8.119-8.119

		C131.424,410.799,135.059,414.436,135.059,418.918z"/>

	<g>

		<path fill="#010101" d="M121.326,422.228v-5.389h0.768l1.72,2.727c0.392,0.631,0.711,1.191,0.959,1.751l0.024-0.009

			c-0.064-0.719-0.08-1.375-0.08-2.206v-2.263h0.655v5.389h-0.703l-1.712-2.734c-0.375-0.6-0.735-1.216-0.999-1.799l-0.024,0.008

			c0.04,0.68,0.049,1.327,0.049,2.223v2.303H121.326z"/>

		<path fill="#010101" d="M129.277,421.3c0,0.336,0.016,0.664,0.056,0.928h-0.632l-0.063-0.487h-0.024

			c-0.208,0.304-0.632,0.575-1.184,0.575c-0.783,0-1.183-0.552-1.183-1.111c0-0.936,0.831-1.447,2.326-1.439v-0.08

			c0-0.319-0.088-0.903-0.88-0.896c-0.367,0-0.743,0.104-1.015,0.288l-0.16-0.472c0.319-0.2,0.792-0.336,1.279-0.336

			c1.191,0,1.479,0.808,1.479,1.583V421.3z M128.59,420.253c-0.768-0.017-1.64,0.119-1.64,0.871c0,0.464,0.304,0.672,0.655,0.672

			c0.512,0,0.84-0.32,0.952-0.647c0.023-0.072,0.032-0.152,0.032-0.225V420.253z"/>

		<path fill="#010101" d="M131.671,416.584v1.316h1.266v0.336h-1.266v1.327h-0.358v-1.327h-1.266V417.9h1.266v-1.316H131.671z"/>

	</g>

</g>

<g>

	

		<radialGradient id="path16609_9_" cx="102.2568" cy="37.7783" r="16.1858" gradientTransform="matrix(1.5933 0 0 0.6358 -52.354 410.2129)" gradientUnits="userSpaceOnUse">

		<stop  offset="0" style="stop-color:#ACD152"/>

		<stop  offset="0.4082" style="stop-color:#ABD152"/>

		<stop  offset="0.5552" style="stop-color:#A6CF54"/>

		<stop  offset="0.66" style="stop-color:#A0CD53"/>

		<stop  offset="0.7448" style="stop-color:#93C951"/>

		<stop  offset="0.8174" style="stop-color:#84C551"/>

		<stop  offset="0.8817" style="stop-color:#74C054"/>

		<stop  offset="0.9398" style="stop-color:#63BC54"/>

		<stop  offset="0.9915" style="stop-color:#59BA53"/>

		<stop  offset="1" style="stop-color:#57BA53"/>

	</radialGradient>

	<path id="path16609_16_" fill="url(#path16609_9_)" stroke="#010101" d="M135.887,434.232c0,5.785-11.338,10.477-25.314,10.477

		c-13.982,0-25.316-4.689-25.316-10.477c0-5.789,11.334-10.477,25.316-10.477C124.549,423.758,135.887,428.445,135.887,434.232z"/>

	<g>

		<path fill="#010101" d="M112.421,437.503c-0.372,0.192-1.151,0.384-2.135,0.384c-2.279,0-3.982-1.439-3.982-4.102

			c0-2.543,1.715-4.246,4.222-4.246c0.996,0,1.643,0.216,1.919,0.36l-0.264,0.852c-0.384-0.192-0.948-0.336-1.619-0.336

			c-1.895,0-3.154,1.211-3.154,3.334c0,1.991,1.139,3.25,3.094,3.25c0.648,0,1.295-0.132,1.715-0.336L112.421,437.503z"/>

		<path fill="#010101" d="M115.255,429.455c-0.276,1.008-0.792,2.303-1.115,2.854l-0.672,0.072c0.252-0.708,0.576-1.943,0.708-2.807

			L115.255,429.455z"/>

	</g>

</g>

<g>

	

		<radialGradient id="path16609_10_" cx="285.7939" cy="-179.4795" r="16.1855" gradientTransform="matrix(1.5933 0 0 0.6358 -52.354 410.2129)" gradientUnits="userSpaceOnUse">

		<stop  offset="0" style="stop-color:#FFFCE1"/>

		<stop  offset="0.1203" style="stop-color:#FFFCDC"/>

		<stop  offset="0.2662" style="stop-color:#FFF9CC"/>

		<stop  offset="0.4255" style="stop-color:#FFF7B1"/>

		<stop  offset="0.5943" style="stop-color:#FFF18E"/>

		<stop  offset="0.7706" style="stop-color:#FFEA5B"/>

		<stop  offset="0.9506" style="stop-color:#FFE100"/>

		<stop  offset="1" style="stop-color:#FFDF00"/>

	</radialGradient>

	<path id="path16609_12_" fill="url(#path16609_10_)" stroke="#010101" d="M428.316,296.099c0,5.787-11.338,10.478-25.315,10.478

		c-13.981,0-25.315-4.688-25.315-10.478c0-5.787,11.334-10.475,25.315-10.475C416.979,285.624,428.316,290.312,428.316,296.099z"/>

	<g>

		<path fill="#010101" d="M398.17,298.35c0.468,0.301,1.14,0.528,1.859,0.528c1.067,0,1.691-0.563,1.691-1.38

			c0-0.742-0.432-1.187-1.523-1.594c-1.319-0.48-2.135-1.176-2.135-2.303c0-1.26,1.043-2.195,2.614-2.195

			c0.815,0,1.427,0.191,1.774,0.396l-0.287,0.852c-0.252-0.155-0.791-0.384-1.523-0.384c-1.104,0-1.523,0.66-1.523,1.211

			c0,0.756,0.492,1.128,1.607,1.56c1.367,0.528,2.051,1.188,2.051,2.375c0,1.247-0.911,2.339-2.818,2.339

			c-0.779,0-1.631-0.24-2.063-0.528L398.17,298.35z"/>

		<path fill="#010101" d="M405.357,291.322c-0.275,1.008-0.791,2.303-1.115,2.854l-0.672,0.071c0.252-0.707,0.576-1.942,0.707-2.807

			L405.357,291.322z"/>

		<path fill="#010101" d="M409.354,291.322c-0.275,1.008-0.791,2.303-1.115,2.854l-0.672,0.071c0.252-0.707,0.576-1.942,0.707-2.807

			L409.354,291.322z"/>

	</g>

</g>

<g>

	

		<radialGradient id="path11134_5_" cx="92.8267" cy="-897.1318" r="33.5994" gradientTransform="matrix(0.3664 0 0 0.3664 23.9925 426.1212)" gradientUnits="userSpaceOnUse">

		<stop  offset="0" style="stop-color:#FFFCE1"/>

		<stop  offset="0.1203" style="stop-color:#FFFCDC"/>

		<stop  offset="0.2662" style="stop-color:#FFF9CC"/>

		<stop  offset="0.4255" style="stop-color:#FFF7B1"/>

		<stop  offset="0.5943" style="stop-color:#FFF18E"/>

		<stop  offset="0.7706" style="stop-color:#FFEA5B"/>

		<stop  offset="0.9506" style="stop-color:#FFE100"/>

		<stop  offset="1" style="stop-color:#FFDF00"/>

	</radialGradient>

	<path id="path11134_16_" fill="url(#path11134_5_)" stroke="#010101" stroke-width="0.9921" d="M70.314,97.414

		c0,6.797-5.512,12.31-12.31,12.31c-6.801,0-12.312-5.513-12.312-12.31c0-6.797,5.511-12.313,12.312-12.313

		C64.803,85.101,70.314,90.616,70.314,97.414z"/>

	<g>

		<path fill="#010101" d="M50.072,102.012v-6.736h0.959l2.148,3.408c0.49,0.789,0.89,1.489,1.2,2.188l0.03-0.01

			c-0.08-0.899-0.1-1.719-0.1-2.759v-2.828h0.82v6.736H54.25l-2.139-3.418c-0.47-0.75-0.919-1.52-1.249-2.249l-0.03,0.01

			c0.05,0.85,0.06,1.659,0.06,2.779v2.878H50.072z"/>

		<path fill="#010101" d="M60.01,100.853c0,0.42,0.02,0.829,0.07,1.159h-0.79l-0.08-0.609h-0.03c-0.26,0.38-0.79,0.72-1.479,0.72

			c-0.979,0-1.479-0.69-1.479-1.39c0-1.169,1.04-1.809,2.909-1.799v-0.101c0-0.399-0.11-1.129-1.1-1.119

			c-0.459,0-0.929,0.13-1.269,0.36l-0.2-0.59c0.4-0.25,0.99-0.42,1.599-0.42c1.489,0,1.849,1.01,1.849,1.979V100.853z M59.15,99.543

			c-0.959-0.02-2.049,0.15-2.049,1.09c0,0.579,0.379,0.839,0.819,0.839c0.64,0,1.049-0.399,1.189-0.81

			c0.03-0.09,0.04-0.189,0.04-0.279V99.543z"/>

		<path fill="#010101" d="M63.003,94.956v1.646h1.583v0.42h-1.583v1.66h-0.448v-1.66h-1.583v-0.42h1.583v-1.646H63.003z"/>

		<path fill="#010101" d="M66.693,95.096c-0.23,0.839-0.66,1.919-0.93,2.379l-0.56,0.06c0.21-0.59,0.479-1.619,0.59-2.339

			L66.693,95.096z"/>

	</g>

</g>

<g>

	<g>

		<line fill="none" stroke="#010101" x1="114.388" y1="58.25" x2="114.388" y2="227.756"/>

		<polygon fill="#010101" points="118.091,61.059 114.388,59.486 110.684,61.059 114.388,52.281 		"/>

	</g>

</g>

<g>

	<g>

		<line fill="none" stroke="#010101" x1="105.571" y1="54.038" x2="105.571" y2="222.363"/>

		<polygon fill="#010101" points="101.868,219.555 105.571,221.127 109.275,219.555 105.571,228.333 		"/>

	</g>

</g>

<g>

	<g>

		<path fill="none" stroke="#010101" d="M68.459,105.348c29.472,12.086,36.839,36.047,36.839,52.162"/>

	</g>

</g>

<g>

	<g>

		<g>

			<line fill="none" stroke="#010101" x1="335.071" y1="58.396" x2="335.071" y2="227.073"/>

			<polygon fill="#010101" points="338.774,61.205 335.071,59.632 331.367,61.205 335.071,52.427 			"/>

		</g>

	</g>

	<g>

		<g>

			<line fill="none" stroke="#010101" x1="343.888" y1="54.206" x2="343.888" y2="221.707"/>

			<polygon fill="#010101" points="340.185,218.898 343.888,220.471 347.592,218.898 343.888,227.676 			"/>

		</g>

	</g>

</g>

<g>

	<g>

		<path fill="none" stroke="#010101" d="M381,104.665c-29.472,12.086-36.839,36.047-36.839,52.162"/>

	</g>

</g>

<g>

	

		<radialGradient id="path11134_6_" cx="1000.7393" cy="-896.9492" r="33.5994" gradientTransform="matrix(0.3664 0 0 0.3664 23.9925 426.1212)" gradientUnits="userSpaceOnUse">

		<stop  offset="0" style="stop-color:#FFFCE1"/>

		<stop  offset="0.1203" style="stop-color:#FFFCDC"/>

		<stop  offset="0.2662" style="stop-color:#FFF9CC"/>

		<stop  offset="0.4255" style="stop-color:#FFF7B1"/>

		<stop  offset="0.5943" style="stop-color:#FFF18E"/>

		<stop  offset="0.7706" style="stop-color:#FFEA5B"/>

		<stop  offset="0.9506" style="stop-color:#FFE100"/>

		<stop  offset="1" style="stop-color:#FFDF00"/>

	</radialGradient>

	<path id="path11134_10_" fill="url(#path11134_6_)" stroke="#010101" stroke-width="0.9921" d="M402.974,97.48

		c0,6.797-5.512,12.31-12.31,12.31c-6.801,0-12.312-5.513-12.312-12.31c0-6.797,5.511-12.313,12.312-12.313

		C397.462,85.168,402.974,90.683,402.974,97.48z"/>

	<g>

		<path fill="#010101" d="M382.73,102.079v-6.736h0.96l2.148,3.408c0.489,0.789,0.89,1.489,1.2,2.188l0.029-0.01

			c-0.08-0.899-0.1-1.719-0.1-2.759v-2.828h0.819v6.736h-0.88l-2.139-3.418c-0.47-0.75-0.92-1.52-1.249-2.249l-0.03,0.01

			c0.051,0.85,0.061,1.659,0.061,2.779v2.878H382.73z"/>

		<path fill="#010101" d="M392.669,100.92c0,0.42,0.021,0.829,0.069,1.159h-0.789l-0.08-0.609h-0.029

			c-0.26,0.38-0.79,0.72-1.479,0.72c-0.979,0-1.479-0.69-1.479-1.39c0-1.169,1.039-1.809,2.908-1.799V98.9

			c0-0.399-0.109-1.129-1.1-1.119c-0.459,0-0.929,0.13-1.269,0.36l-0.2-0.59c0.4-0.25,0.99-0.42,1.6-0.42

			c1.488,0,1.849,1.01,1.849,1.979V100.92z M391.81,99.61c-0.96-0.02-2.049,0.15-2.049,1.09c0,0.579,0.38,0.839,0.819,0.839

			c0.64,0,1.049-0.399,1.189-0.81c0.029-0.09,0.04-0.189,0.04-0.279V99.61z"/>

		<path fill="#010101" d="M395.662,95.023v1.646h1.584v0.42h-1.584v1.66h-0.447v-1.66h-1.583v-0.42h1.583v-1.646H395.662z"/>

		<path fill="#010101" d="M399.353,95.163c-0.229,0.839-0.659,1.919-0.93,2.379l-0.56,0.06c0.21-0.59,0.479-1.619,0.59-2.339

			L399.353,95.163z"/>

	</g>

</g>

<g>

	<g>

		<line fill="none" stroke="#010101" x1="114.979" y1="253.716" x2="114.979" y2="423.223"/>

		<polygon fill="#010101" points="118.682,256.524 114.979,254.952 111.274,256.524 114.979,247.747 		"/>

	</g>

</g>

<g>

	<g>

		<line fill="none" stroke="#010101" x1="106.162" y1="249.505" x2="106.162" y2="417.83"/>

		<polygon fill="#010101" points="102.459,415.021 106.162,416.594 109.866,415.021 106.162,423.799 		"/>

	</g>

</g>

<g>

	<g>

		<path fill="none" stroke="#010101" d="M69.05,300.813c29.472,12.087,36.839,36.048,36.839,52.162"/>

	</g>

</g>

<g>

	<g>

		<line fill="none" stroke="#010101" x1="335.2" y1="254.021" x2="335.2" y2="423.525"/>

		<polygon fill="#010101" points="338.903,256.829 335.2,255.256 331.496,256.829 335.2,248.051 		"/>

	</g>

</g>

<g>

	<g>

		<line fill="none" stroke="#010101" x1="344.017" y1="249.808" x2="344.017" y2="418.133"/>

		<polygon fill="#010101" points="340.313,415.324 344.017,416.897 347.721,415.324 344.017,424.102 		"/>

	</g>

</g>

<g>

	<g>

		<path fill="none" stroke="#010101" d="M381.129,301.117c-29.472,12.087-36.839,36.048-36.839,52.162"/>

	</g>

</g>

<g>

	<path fill="#010101" d="M336.752,16.805v8.083h-1.055v-8.083H336.752z"/>

	<path fill="#010101" d="M338.576,24.889v-8.083h1.152l2.578,4.09c0.588,0.947,1.068,1.799,1.439,2.626l0.035-0.012

		c-0.096-1.079-0.119-2.063-0.119-3.322v-3.382h0.984v8.083h-1.057l-2.566-4.102c-0.563-0.9-1.104-1.823-1.498-2.699l-0.037,0.012

		c0.061,1.019,0.072,1.991,0.072,3.334v3.454H338.576z"/>

</g>

<g>

	<path fill="#010101" d="M106.412,20.763c0,2.771-1.69,4.258-3.754,4.258c-2.146,0-3.634-1.667-3.634-4.114

		c0-2.566,1.583-4.246,3.742-4.246C104.985,16.661,106.412,18.352,106.412,20.763z M100.127,20.883c0,1.739,0.936,3.286,2.591,3.286

		s2.59-1.523,2.59-3.358c0-1.619-0.839-3.298-2.578-3.298S100.127,19.12,100.127,20.883z"/>

	<path fill="#010101" d="M108.815,16.805v4.797c0,1.799,0.804,2.566,1.883,2.566c1.188,0,1.967-0.792,1.967-2.566v-4.797h1.056

		v4.725c0,2.483-1.308,3.49-3.059,3.49c-1.655,0-2.902-0.936-2.902-3.454v-4.761H108.815z"/>

	<path fill="#010101" d="M117.07,17.692h-2.458v-0.887h5.984v0.887h-2.471v7.196h-1.056V17.692z"/>

</g>

<g>

	<g>

		<g>

			<line fill="none" stroke="#010101" x1="311.847" y1="37.58" x2="138.898" y2="37.58"/>

			<polygon fill="#010101" points="141.707,33.876 140.134,37.58 141.707,41.284 132.929,37.58 			"/>

		</g>

	</g>

	<g>

		<g>

			<line fill="none" stroke="#010101" x1="132.95" y1="45.103" x2="305.898" y2="45.103"/>

			<polygon fill="#010101" points="303.09,48.806 304.663,45.103 303.09,41.398 311.868,45.103 			"/>

		</g>

	</g>

</g>

<g>

	<g>

		<g>

			<line fill="none" stroke="#010101" x1="314.782" y1="234.58" x2="141.834" y2="234.58"/>

			<polygon fill="#010101" points="144.643,230.876 143.069,234.58 144.643,238.283 135.864,234.58 			"/>

		</g>

	</g>

	<g>

		<g>

			<line fill="none" stroke="#010101" x1="135.886" y1="242.103" x2="308.834" y2="242.103"/>

			<polygon fill="#010101" points="306.025,245.806 307.599,242.103 306.025,238.398 314.804,242.103 			"/>

		</g>

	</g>

</g>

<g>

	<g>

		<line fill="none" stroke="#010101" x1="314.782" y1="430.58" x2="141.834" y2="430.58"/>

		<polygon fill="#010101" points="144.643,426.877 143.069,430.58 144.643,434.284 135.864,430.58 		"/>

	</g>

</g>

<g>

	<g>

		<line fill="none" stroke="#010101" x1="135.886" y1="438.103" x2="308.834" y2="438.103"/>

		<polygon fill="#010101" points="306.025,441.806 307.599,438.103 306.025,434.398 314.804,438.103 		"/>

	</g>

</g>

<g>

	<path fill="#010101" d="M184.539,20.689c0.3,0.18,0.983,0.479,1.727,0.479c1.344,0,1.775-0.852,1.763-1.511

		c-0.012-1.091-0.995-1.559-2.015-1.559h-0.588v-0.792h0.588c0.768,0,1.739-0.396,1.739-1.319c0-0.624-0.396-1.175-1.367-1.175

		c-0.624,0-1.224,0.276-1.56,0.516l-0.287-0.768c0.419-0.3,1.211-0.6,2.051-0.6c1.535,0,2.23,0.912,2.23,1.859

		c0,0.816-0.492,1.5-1.439,1.847v0.024c0.96,0.18,1.728,0.899,1.739,1.991c0,1.248-0.983,2.339-2.843,2.339

		c-0.875,0-1.643-0.276-2.026-0.528L184.539,20.689z"/>

	<path fill="#010101" d="M195.097,14.98h-2.975l-0.3,2.003c0.18-0.024,0.348-0.036,0.636-0.036c0.611,0,1.199,0.12,1.679,0.42

		c0.612,0.336,1.115,1.02,1.115,1.991c0,1.523-1.211,2.663-2.902,2.663c-0.852,0-1.559-0.24-1.942-0.479l0.264-0.804

		c0.324,0.192,0.96,0.432,1.679,0.432c0.983,0,1.848-0.647,1.835-1.691c0-1.007-0.684-1.715-2.23-1.715

		c-0.456,0-0.804,0.036-1.091,0.072l0.503-3.742h3.73V14.98z"/>

	<path fill="#010101" d="M200.065,19.178c0.024,1.427,0.924,2.015,1.991,2.015c0.756,0,1.224-0.132,1.607-0.3l0.191,0.756

		c-0.372,0.168-1.02,0.372-1.942,0.372c-1.787,0-2.854-1.188-2.854-2.938s1.031-3.118,2.723-3.118c1.906,0,2.398,1.655,2.398,2.723

		c0,0.216-0.012,0.372-0.036,0.492H200.065z M203.16,18.422c0.012-0.66-0.276-1.703-1.463-1.703c-1.08,0-1.535,0.971-1.619,1.703

		H203.16z"/>

	<path fill="#010101" d="M205.945,16.084l0.827,1.247c0.229,0.324,0.408,0.612,0.601,0.936h0.023

		c0.192-0.336,0.384-0.636,0.588-0.947l0.804-1.235h1.151l-1.979,2.806l2.027,2.999H208.8l-0.863-1.307

		c-0.229-0.336-0.42-0.66-0.624-1.008h-0.023c-0.192,0.348-0.384,0.66-0.612,1.008l-0.839,1.307h-1.164l2.063-2.962l-1.968-2.842

		H205.945z"/>

	<path fill="#010101" d="M211.011,17.979c0-0.744-0.024-1.343-0.049-1.895h0.936l0.061,0.995h0.023

		c0.42-0.708,1.115-1.115,2.063-1.115c1.415,0,2.471,1.188,2.471,2.938c0,2.087-1.283,3.118-2.651,3.118

		c-0.768,0-1.438-0.336-1.786-0.912h-0.024v3.154h-1.043V17.979z M212.054,19.526c0,0.156,0.012,0.3,0.048,0.432

		c0.192,0.732,0.828,1.235,1.583,1.235c1.115,0,1.764-0.911,1.764-2.243c0-1.151-0.612-2.146-1.728-2.146

		c-0.72,0-1.403,0.503-1.595,1.295c-0.036,0.132-0.072,0.288-0.072,0.42V19.526z"/>

	<path fill="#010101" d="M222.66,13.565c-0.876,1.187-1.499,2.734-1.499,4.917c0,2.135,0.659,3.658,1.499,4.857h-0.815

		c-0.756-0.996-1.571-2.531-1.571-4.869c0.012-2.351,0.815-3.898,1.571-4.905H222.66z"/>

	<path fill="#010101" d="M226.236,18.267v0.768h-2.963v-0.768H226.236z"/>

	<path fill="#010101" d="M232.33,17.907c0,2.651-0.995,4.114-2.71,4.114c-1.523,0-2.566-1.427-2.591-4.006

		c0-2.626,1.14-4.054,2.723-4.054C231.383,13.961,232.33,15.424,232.33,17.907z M228.097,18.027c0,2.027,0.624,3.178,1.583,3.178

		c1.067,0,1.583-1.259,1.583-3.25c0-1.919-0.479-3.179-1.583-3.179C228.769,14.776,228.097,15.904,228.097,18.027z"/>

	<path fill="#010101" d="M233.378,21.265c0-0.432,0.3-0.756,0.72-0.756c0.419,0,0.707,0.312,0.707,0.756

		c0,0.432-0.288,0.755-0.731,0.755C233.665,22.021,233.378,21.697,233.378,21.265z"/>

	<path fill="#010101" d="M240.839,14.093v0.696l-3.394,7.1h-1.092l3.382-6.896v-0.024h-3.813v-0.875H240.839z"/>

	<path fill="#010101" d="M246.96,16.521v3.533c0,0.469,0.021,0.797,0.064,0.984c0.035,0.133,0.088,0.229,0.158,0.287

		s0.145,0.088,0.223,0.088c0.098,0,0.188-0.049,0.272-0.146s0.146-0.291,0.185-0.58h0.24c-0.066,0.523-0.195,0.885-0.387,1.084

		s-0.434,0.299-0.727,0.299c-0.289,0-0.52-0.088-0.691-0.264s-0.275-0.48-0.311-0.914c-0.398,0.441-0.776,0.749-1.134,0.923

		s-0.667,0.261-0.929,0.261c-0.176,0-0.348-0.034-0.516-0.103s-0.332-0.169-0.492-0.302c-0.008,0.566,0.041,1.061,0.146,1.482

		c0.074,0.301,0.111,0.512,0.111,0.633c0,0.211-0.054,0.379-0.161,0.504s-0.229,0.188-0.366,0.188c-0.141,0-0.256-0.055-0.346-0.164

		c-0.121-0.148-0.182-0.334-0.182-0.557c0-0.109,0.023-0.246,0.07-0.41c0.109-0.367,0.178-0.688,0.205-0.961

		c0.047-0.469,0.07-0.867,0.07-1.195v-4.67h0.984v3.381c0,0.398,0.033,0.686,0.1,0.861s0.186,0.314,0.357,0.416

		s0.344,0.152,0.516,0.152c0.203,0,0.443-0.061,0.721-0.182s0.559-0.316,0.844-0.586v-4.043H246.96z"/>

	<path fill="#010101" d="M251.647,13.557l-2.877,8.496h-0.469l2.877-8.496H251.647z"/>

	<path fill="#010101" d="M257.144,20.359l-0.557,1.529h-4.688v-0.246c1.613-1.457,2.691-2.643,3.234-3.557

		c0.348-0.586,0.521-1.146,0.521-1.682c0-0.504-0.154-0.918-0.463-1.242s-0.678-0.486-1.107-0.486c-0.391,0-0.741,0.114-1.052,0.343

		s-0.54,0.563-0.688,1.005h-0.217c0.098-0.723,0.35-1.277,0.756-1.664s0.91-0.58,1.512-0.58c0.645,0,1.183,0.207,1.614,0.621

		s0.647,0.906,0.647,1.477c0,0.398-0.098,0.805-0.293,1.219c-0.289,0.625-0.762,1.295-1.418,2.01

		c-0.957,1.047-1.557,1.68-1.799,1.898h2.074c0.57,0,0.962-0.047,1.175-0.141s0.39-0.262,0.53-0.504H257.144z"/>

	<path fill="#010101" d="M257.882,23.34c0.839-1.188,1.499-2.734,1.499-4.893c0-2.159-0.647-3.682-1.499-4.881h0.815

		c0.755,0.983,1.571,2.53,1.571,4.881c-0.013,2.351-0.816,3.886-1.571,4.893H257.882z"/>

</g>

<g>

	<path fill="#010101" d="M185.341,56.055h-0.023l-1.355,0.732l-0.204-0.804l1.703-0.912h0.899v7.796h-1.02V56.055z"/>

	<path fill="#010101" d="M194.399,58.885c0,2.651-0.995,4.114-2.71,4.114c-1.523,0-2.566-1.427-2.591-4.006

		c0-2.626,1.14-4.054,2.723-4.054C193.452,54.939,194.399,56.403,194.399,58.885z M190.166,59.005c0,2.027,0.624,3.178,1.583,3.178

		c1.067,0,1.583-1.259,1.583-3.25c0-1.919-0.479-3.179-1.583-3.179C190.838,55.755,190.166,56.882,190.166,59.005z"/>

	<path fill="#010101" d="M200.555,58.885c0,2.651-0.995,4.114-2.71,4.114c-1.523,0-2.566-1.427-2.591-4.006

		c0-2.626,1.14-4.054,2.723-4.054C199.607,54.939,200.555,56.403,200.555,58.885z M196.321,59.005c0,2.027,0.624,3.178,1.583,3.178

		c1.067,0,1.583-1.259,1.583-3.25c0-1.919-0.479-3.179-1.583-3.179C196.993,55.755,196.321,56.882,196.321,59.005z"/>

	<path fill="#010101" d="M204.985,60.157c0.024,1.427,0.924,2.015,1.991,2.015c0.756,0,1.224-0.132,1.607-0.3l0.191,0.756

		c-0.372,0.168-1.02,0.372-1.942,0.372c-1.787,0-2.854-1.188-2.854-2.938s1.031-3.118,2.723-3.118c1.906,0,2.398,1.655,2.398,2.723

		c0,0.216-0.012,0.372-0.036,0.492H204.985z M208.08,59.401c0.012-0.66-0.276-1.703-1.463-1.703c-1.08,0-1.535,0.971-1.619,1.703

		H208.08z"/>

	<path fill="#010101" d="M210.865,57.063l0.827,1.247c0.229,0.324,0.408,0.612,0.601,0.936h0.023

		c0.192-0.336,0.384-0.636,0.588-0.947l0.804-1.235h1.151l-1.979,2.806l2.027,2.999h-1.188l-0.863-1.307

		c-0.229-0.336-0.42-0.66-0.624-1.008h-0.023c-0.192,0.348-0.384,0.66-0.612,1.008l-0.839,1.307h-1.164l2.063-2.962l-1.968-2.842

		H210.865z"/>

	<path fill="#010101" d="M215.93,58.958c0-0.744-0.024-1.343-0.049-1.895h0.936l0.061,0.995h0.023

		c0.42-0.708,1.115-1.115,2.063-1.115c1.415,0,2.471,1.188,2.471,2.938c0,2.087-1.283,3.118-2.651,3.118

		c-0.768,0-1.438-0.336-1.786-0.912h-0.024v3.154h-1.043V58.958z M216.973,60.504c0,0.156,0.012,0.3,0.048,0.432

		c0.192,0.732,0.828,1.235,1.583,1.235c1.115,0,1.764-0.911,1.764-2.243c0-1.151-0.612-2.146-1.728-2.146

		c-0.72,0-1.403,0.503-1.595,1.295c-0.036,0.132-0.072,0.288-0.072,0.42V60.504z"/>

	<path fill="#010101" d="M227.58,54.544c-0.876,1.187-1.499,2.734-1.499,4.917c0,2.135,0.659,3.658,1.499,4.857h-0.815

		c-0.756-0.996-1.571-2.531-1.571-4.869c0.012-2.351,0.815-3.898,1.571-4.905H227.58z"/>

	<path fill="#010101" d="M233.566,58.885c0,2.651-0.995,4.114-2.71,4.114c-1.523,0-2.566-1.427-2.591-4.006

		c0-2.626,1.14-4.054,2.723-4.054C232.619,54.939,233.566,56.403,233.566,58.885z M229.333,59.005c0,2.027,0.624,3.178,1.583,3.178

		c1.067,0,1.583-1.259,1.583-3.25c0-1.919-0.479-3.179-1.583-3.179C230.005,55.755,229.333,56.882,229.333,59.005z"/>

	<path fill="#010101" d="M234.613,62.244c0-0.432,0.3-0.756,0.719-0.756c0.42,0,0.708,0.312,0.708,0.756

		c0,0.432-0.288,0.755-0.731,0.755C234.9,62.999,234.613,62.675,234.613,62.244z"/>

	<path fill="#010101" d="M242.074,55.071v0.696l-3.394,7.1h-1.092l3.382-6.896v-0.024h-3.813v-0.875H242.074z"/>

	<path fill="#010101" d="M248.195,57.5v3.533c0,0.469,0.021,0.797,0.064,0.984c0.035,0.133,0.088,0.229,0.158,0.287

		s0.145,0.088,0.223,0.088c0.098,0,0.188-0.049,0.272-0.146s0.146-0.291,0.185-0.58h0.24c-0.066,0.523-0.195,0.885-0.387,1.084

		s-0.434,0.299-0.727,0.299c-0.289,0-0.52-0.088-0.691-0.264s-0.275-0.48-0.311-0.914c-0.398,0.441-0.776,0.749-1.134,0.923

		s-0.667,0.261-0.929,0.261c-0.176,0-0.348-0.034-0.516-0.103s-0.332-0.169-0.492-0.302c-0.008,0.566,0.041,1.061,0.146,1.482

		c0.074,0.301,0.111,0.512,0.111,0.633c0,0.211-0.054,0.379-0.161,0.504s-0.229,0.188-0.366,0.188c-0.141,0-0.256-0.055-0.346-0.164

		c-0.121-0.148-0.182-0.334-0.182-0.557c0-0.109,0.023-0.246,0.07-0.41c0.109-0.367,0.178-0.688,0.205-0.961

		c0.047-0.469,0.07-0.867,0.07-1.195V57.5h0.984v3.381c0,0.398,0.033,0.686,0.1,0.861s0.186,0.314,0.357,0.416

		s0.344,0.152,0.516,0.152c0.203,0,0.443-0.061,0.721-0.182s0.559-0.316,0.844-0.586V57.5H248.195z"/>

	<path fill="#010101" d="M252.883,54.535l-2.877,8.496h-0.469l2.877-8.496H252.883z"/>

	<path fill="#010101" d="M258.379,61.338l-0.557,1.529h-4.688v-0.246c1.613-1.457,2.691-2.643,3.234-3.557

		c0.348-0.586,0.521-1.146,0.521-1.682c0-0.504-0.154-0.918-0.463-1.242s-0.678-0.486-1.107-0.486c-0.391,0-0.741,0.114-1.052,0.343

		s-0.54,0.563-0.688,1.005h-0.217c0.098-0.723,0.35-1.277,0.756-1.664s0.91-0.58,1.512-0.58c0.645,0,1.183,0.207,1.614,0.621

		s0.647,0.906,0.647,1.477c0,0.398-0.098,0.805-0.293,1.219c-0.289,0.625-0.762,1.295-1.418,2.01

		c-0.957,1.047-1.557,1.68-1.799,1.898h2.074c0.57,0,0.962-0.047,1.175-0.141s0.39-0.262,0.53-0.504H258.379z"/>

	<path fill="#010101" d="M259.117,64.318c0.839-1.188,1.499-2.734,1.499-4.893c0-2.159-0.647-3.682-1.499-4.881h0.815

		c0.755,0.983,1.571,2.53,1.571,4.881c-0.013,2.351-0.816,3.886-1.571,4.893H259.117z"/>

</g>

<g>

	<path fill="#010101" d="M217.88,223.048c-1.523,0-2.566-1.427-2.591-4.006c0-2.626,1.14-4.054,2.723-4.054

		c1.631,0,2.578,1.463,2.578,3.946c0,2.651-0.995,4.114-2.698,4.114H217.88z M217.928,222.232c1.067,0,1.583-1.259,1.583-3.25

		c0-1.919-0.479-3.179-1.583-3.179c-0.96,0-1.583,1.224-1.583,3.179c-0.024,2.027,0.6,3.25,1.571,3.25H217.928z"/>

	<path fill="#010101" d="M222.333,223.048c-0.408,0-0.695-0.324-0.695-0.755c0-0.432,0.3-0.756,0.719-0.756

		c0.42,0,0.708,0.312,0.708,0.756c0,0.432-0.288,0.755-0.72,0.755H222.333z"/>

	<path fill="#010101" d="M226.52,223.048c-1.523,0-2.566-1.427-2.591-4.006c0-2.626,1.14-4.054,2.723-4.054

		c1.631,0,2.578,1.463,2.578,3.946c0,2.651-0.995,4.114-2.698,4.114H226.52z M226.567,222.232c1.067,0,1.583-1.259,1.583-3.25

		c0-1.919-0.479-3.179-1.583-3.179c-0.959,0-1.583,1.224-1.583,3.179c-0.024,2.027,0.6,3.25,1.571,3.25H226.567z"/>

	<path fill="#010101" d="M232.483,216.104h-0.023l-1.355,0.732l-0.204-0.804l1.703-0.912h0.899v7.796h-1.02V216.104z"/>

</g>

<g>

	<path fill="#010101" d="M217.88,261.521c-1.523,0-2.566-1.427-2.591-4.006c0-2.626,1.14-4.054,2.723-4.054

		c1.631,0,2.578,1.463,2.578,3.945c0,2.651-0.995,4.114-2.698,4.114H217.88z M217.928,260.705c1.067,0,1.583-1.26,1.583-3.25

		c0-1.919-0.479-3.179-1.583-3.179c-0.96,0-1.583,1.224-1.583,3.179c-0.024,2.027,0.6,3.25,1.571,3.25H217.928z"/>

	<path fill="#010101" d="M222.333,261.521c-0.408,0-0.695-0.323-0.695-0.755c0-0.433,0.3-0.756,0.719-0.756

		c0.42,0,0.708,0.312,0.708,0.756c0,0.432-0.288,0.755-0.72,0.755H222.333z"/>

	<path fill="#010101" d="M226.327,254.576h-0.023l-1.355,0.732l-0.204-0.805l1.703-0.911h0.899v7.796h-1.02V254.576z"/>

	<path fill="#010101" d="M235.254,253.593v0.696l-3.394,7.1h-1.08l3.37-6.896v-0.023h-3.813v-0.876H235.254z"/>

</g>

<g>

	<path fill="#010101" d="M224.371,448.391h-2.975l-0.3,1.979c0.18-0.023,0.348-0.047,0.636-0.047c0.611,0,1.199,0.131,1.679,0.419

		c0.612,0.336,1.115,1.02,1.115,2.026c0,1.523-1.211,2.663-2.902,2.663c-0.852,0-1.559-0.239-1.942-0.479l0.264-0.804

		c0.324,0.192,0.959,0.432,1.679,0.432c0.983,0,1.848-0.647,1.835-1.703c0-1.031-0.684-1.739-2.23-1.739

		c-0.456,0-0.804,0.036-1.092,0.084l0.504-3.718h3.73V448.391z"/>

	<path fill="#010101" d="M228.356,455.431c-1.523,0-2.566-1.427-2.591-4.006c0-2.626,1.14-4.054,2.723-4.054

		c1.631,0,2.578,1.463,2.578,3.945c0,2.651-0.995,4.114-2.698,4.114H228.356z M228.404,454.615c1.067,0,1.583-1.26,1.583-3.25

		c0-1.919-0.479-3.179-1.583-3.179c-0.959,0-1.583,1.224-1.583,3.179c-0.024,2.027,0.6,3.25,1.571,3.25H228.404z"/>

</g>

<g>

	<path fill="#010101" d="M224.371,416.891h-2.975l-0.3,1.979c0.18-0.023,0.348-0.047,0.636-0.047c0.611,0,1.199,0.131,1.679,0.419

		c0.612,0.336,1.115,1.02,1.115,2.026c0,1.523-1.211,2.663-2.902,2.663c-0.852,0-1.559-0.239-1.942-0.479l0.264-0.804

		c0.324,0.192,0.959,0.432,1.679,0.432c0.983,0,1.848-0.647,1.835-1.703c0-1.031-0.684-1.739-2.23-1.739

		c-0.456,0-0.804,0.036-1.092,0.084l0.504-3.718h3.73V416.891z"/>

	<path fill="#010101" d="M228.356,423.931c-1.523,0-2.566-1.427-2.591-4.006c0-2.626,1.14-4.054,2.723-4.054

		c1.631,0,2.578,1.463,2.578,3.945c0,2.651-0.995,4.114-2.698,4.114H228.356z M228.404,423.115c1.067,0,1.583-1.26,1.583-3.25

		c0-1.919-0.479-3.179-1.583-3.179c-0.959,0-1.583,1.224-1.583,3.179c-0.024,2.027,0.6,3.25,1.571,3.25H228.404z"/>

</g>

<g>

	<path fill="#010101" d="M3.782,177.16v-0.647l0.827-0.804c1.991-1.895,2.902-2.902,2.902-4.078c0-0.792-0.372-1.523-1.535-1.523

		c-0.707,0-1.295,0.36-1.655,0.66l-0.336-0.744c0.528-0.444,1.308-0.792,2.195-0.792c1.679,0,2.387,1.151,2.387,2.267

		c0,1.439-1.044,2.603-2.687,4.186l-0.611,0.576v0.024h3.489v0.875H3.782z"/>

	<path fill="#010101" d="M15.131,173.178c0,2.651-0.995,4.114-2.71,4.114c-1.523,0-2.566-1.427-2.591-4.006

		c0-2.626,1.14-4.054,2.723-4.054C14.184,169.232,15.131,170.696,15.131,173.178z M10.897,173.298c0,2.027,0.624,3.178,1.583,3.178

		c1.067,0,1.583-1.259,1.583-3.25c0-1.919-0.479-3.179-1.583-3.179C11.569,170.048,10.897,171.175,10.897,173.298z"/>

	<path fill="#010101" d="M21.286,173.178c0,2.651-0.995,4.114-2.71,4.114c-1.523,0-2.566-1.427-2.591-4.006

		c0-2.626,1.14-4.054,2.723-4.054C20.339,169.232,21.286,170.696,21.286,173.178z M17.053,173.298c0,2.027,0.624,3.178,1.583,3.178

		c1.067,0,1.583-1.259,1.583-3.25c0-1.919-0.479-3.179-1.583-3.179C17.725,170.048,17.053,171.175,17.053,173.298z"/>

	<path fill="#010101" d="M27.442,173.178c0,2.651-0.995,4.114-2.71,4.114c-1.523,0-2.566-1.427-2.591-4.006

		c0-2.626,1.14-4.054,2.723-4.054C26.495,169.232,27.442,170.696,27.442,173.178z M23.209,173.298c0,2.027,0.624,3.178,1.583,3.178

		c1.067,0,1.583-1.259,1.583-3.25c0-1.919-0.479-3.179-1.583-3.179C23.881,170.048,23.209,171.175,23.209,173.298z"/>

	<path fill="#010101" d="M33.598,173.178c0,2.651-0.995,4.114-2.71,4.114c-1.523,0-2.566-1.427-2.591-4.006

		c0-2.626,1.14-4.054,2.723-4.054C32.65,169.232,33.598,170.696,33.598,173.178z M29.364,173.298c0,2.027,0.624,3.178,1.583,3.178

		c1.067,0,1.583-1.259,1.583-3.25c0-1.919-0.479-3.179-1.583-3.179C30.036,170.048,29.364,171.175,29.364,173.298z"/>

	<path fill="#010101" d="M38.028,174.45c0.024,1.427,0.924,2.015,1.991,2.015c0.756,0,1.224-0.132,1.607-0.3l0.191,0.756

		c-0.372,0.168-1.02,0.372-1.942,0.372c-1.787,0-2.854-1.188-2.854-2.938s1.031-3.118,2.723-3.118c1.906,0,2.398,1.655,2.398,2.723

		c0,0.216-0.012,0.372-0.036,0.492H38.028z M41.123,173.694c0.012-0.66-0.276-1.703-1.463-1.703c-1.08,0-1.535,0.971-1.619,1.703

		H41.123z"/>

	<path fill="#010101" d="M43.908,171.355l0.827,1.247c0.229,0.324,0.408,0.612,0.601,0.936h0.023

		c0.192-0.336,0.384-0.636,0.588-0.947l0.804-1.235h1.151l-1.979,2.806l2.027,2.999h-1.188l-0.863-1.307

		c-0.229-0.336-0.42-0.66-0.624-1.008h-0.023c-0.192,0.348-0.384,0.66-0.612,1.008l-0.839,1.307h-1.164l2.063-2.962l-1.968-2.842

		H43.908z"/>

	<path fill="#010101" d="M48.974,173.25c0-0.744-0.024-1.343-0.049-1.895h0.936l0.061,0.995h0.023

		c0.42-0.708,1.115-1.115,2.063-1.115c1.415,0,2.471,1.188,2.471,2.938c0,2.087-1.283,3.118-2.651,3.118

		c-0.768,0-1.438-0.336-1.786-0.912h-0.024v3.154h-1.043V173.25z M50.017,174.797c0,0.156,0.012,0.3,0.048,0.432

		c0.192,0.732,0.828,1.235,1.583,1.235c1.115,0,1.764-0.911,1.764-2.243c0-1.151-0.612-2.146-1.728-2.146

		c-0.72,0-1.403,0.503-1.595,1.295c-0.036,0.132-0.072,0.288-0.072,0.42V174.797z"/>

	<path fill="#010101" d="M60.623,168.837c-0.876,1.187-1.499,2.734-1.499,4.917c0,2.135,0.659,3.658,1.499,4.857h-0.815

		c-0.756-0.996-1.571-2.531-1.571-4.869c0.012-2.351,0.815-3.898,1.571-4.905H60.623z"/>

	<path fill="#010101" d="M64.199,173.538v0.768h-2.963v-0.768H64.199z"/>

	<path fill="#010101" d="M70.293,173.178c0,2.651-0.995,4.114-2.71,4.114c-1.523,0-2.566-1.427-2.591-4.006

		c0-2.626,1.14-4.054,2.723-4.054C69.346,169.232,70.293,170.696,70.293,173.178z M66.06,173.298c0,2.027,0.624,3.178,1.583,3.178

		c1.067,0,1.583-1.259,1.583-3.25c0-1.919-0.479-3.179-1.583-3.179C66.731,170.048,66.06,171.175,66.06,173.298z"/>

	<path fill="#010101" d="M71.341,176.537c0-0.432,0.3-0.756,0.72-0.756c0.419,0,0.707,0.312,0.707,0.756

		c0,0.432-0.288,0.755-0.731,0.755C71.628,177.292,71.341,176.968,71.341,176.537z"/>

	<path fill="#010101" d="M73.992,175.961c0.3,0.18,0.983,0.479,1.727,0.479c1.344,0,1.775-0.852,1.763-1.511

		c-0.012-1.091-0.995-1.559-2.015-1.559h-0.588v-0.792h0.588c0.768,0,1.739-0.396,1.739-1.319c0-0.624-0.396-1.175-1.367-1.175

		c-0.624,0-1.224,0.276-1.56,0.516l-0.287-0.768c0.419-0.3,1.211-0.6,2.051-0.6c1.535,0,2.23,0.912,2.23,1.859

		c0,0.816-0.492,1.5-1.439,1.847v0.024c0.96,0.18,1.728,0.899,1.739,1.991c0,1.248-0.983,2.339-2.843,2.339

		c-0.875,0-1.643-0.276-2.026-0.528L73.992,175.961z"/>

	<path fill="#010101" d="M84.923,171.793v3.533c0,0.469,0.021,0.797,0.064,0.984c0.035,0.133,0.088,0.229,0.158,0.287

		s0.145,0.088,0.223,0.088c0.098,0,0.188-0.049,0.272-0.146s0.146-0.291,0.185-0.58h0.24c-0.066,0.523-0.195,0.885-0.387,1.084

		s-0.434,0.299-0.727,0.299c-0.289,0-0.52-0.088-0.691-0.264s-0.275-0.48-0.311-0.914c-0.398,0.441-0.776,0.749-1.134,0.923

		s-0.667,0.261-0.929,0.261c-0.176,0-0.348-0.034-0.516-0.103s-0.332-0.169-0.492-0.302c-0.008,0.566,0.041,1.061,0.146,1.482

		c0.074,0.301,0.111,0.512,0.111,0.633c0,0.211-0.054,0.379-0.161,0.504s-0.229,0.188-0.366,0.188c-0.141,0-0.256-0.055-0.346-0.164

		c-0.121-0.148-0.182-0.334-0.182-0.557c0-0.109,0.023-0.246,0.07-0.41c0.109-0.367,0.178-0.688,0.205-0.961

		c0.047-0.469,0.07-0.867,0.07-1.195v-4.67h0.984v3.381c0,0.398,0.033,0.686,0.1,0.861s0.186,0.314,0.357,0.416

		s0.344,0.152,0.516,0.152c0.203,0,0.443-0.061,0.721-0.182s0.559-0.316,0.844-0.586v-4.043H84.923z"/>

	<path fill="#010101" d="M89.61,168.828l-2.877,8.496h-0.469l2.877-8.496H89.61z"/>

	<path fill="#010101" d="M95.106,175.631l-0.557,1.529h-4.688v-0.246c1.613-1.457,2.691-2.643,3.234-3.557

		c0.348-0.586,0.521-1.146,0.521-1.682c0-0.504-0.154-0.918-0.463-1.242s-0.678-0.486-1.107-0.486c-0.391,0-0.741,0.114-1.052,0.343

		s-0.54,0.563-0.688,1.005h-0.217c0.098-0.723,0.35-1.277,0.756-1.664s0.91-0.58,1.512-0.58c0.645,0,1.183,0.207,1.614,0.621

		s0.647,0.906,0.647,1.477c0,0.398-0.098,0.805-0.293,1.219c-0.289,0.625-0.762,1.295-1.418,2.01

		c-0.957,1.047-1.557,1.68-1.799,1.898h2.074c0.57,0,0.962-0.047,1.175-0.141s0.39-0.262,0.53-0.504H95.106z"/>

	<path fill="#010101" d="M95.845,178.611c0.839-1.188,1.499-2.734,1.499-4.893c0-2.159-0.647-3.682-1.499-4.881h0.815

		c0.755,0.983,1.571,2.53,1.571,4.881c-0.013,2.351-0.816,3.886-1.571,4.893H95.845z"/>

	<path fill="#010101" d="M35.839,187.326c0-0.611-0.024-1.091-0.049-1.571h0.924l0.048,0.947h0.036

		c0.324-0.552,0.863-1.067,1.835-1.067c0.779,0,1.379,0.48,1.631,1.164h0.024c0.18-0.336,0.42-0.576,0.659-0.756

		c0.348-0.264,0.72-0.408,1.271-0.408c0.779,0,1.919,0.504,1.919,2.519v3.406h-1.031v-3.274c0-1.127-0.42-1.787-1.26-1.787

		c-0.611,0-1.067,0.443-1.259,0.947c-0.048,0.156-0.084,0.336-0.084,0.528v3.586h-1.031v-3.478c0-0.923-0.408-1.583-1.212-1.583

		c-0.647,0-1.139,0.527-1.307,1.055c-0.061,0.144-0.084,0.336-0.084,0.516v3.49h-1.031V187.326z"/>

	<path fill="#010101" d="M51.1,188.61c0,2.146-1.499,3.082-2.891,3.082c-1.56,0-2.782-1.151-2.782-2.986

		c0-1.931,1.283-3.07,2.878-3.07C49.972,185.635,51.1,186.847,51.1,188.61z M46.506,188.669c0,1.271,0.72,2.231,1.751,2.231

		c1.008,0,1.763-0.947,1.763-2.255c0-0.983-0.491-2.219-1.738-2.219C47.046,186.427,46.506,187.578,46.506,188.669z"/>

	<path fill="#010101" d="M52.435,183.045h1.055v8.515h-1.055V183.045z"/>

	<path fill="#010101" d="M55.854,188.85c0.024,1.427,0.924,2.015,1.991,2.015c0.756,0,1.224-0.132,1.607-0.3l0.191,0.756

		c-0.372,0.168-1.02,0.372-1.942,0.372c-1.787,0-2.854-1.187-2.854-2.938c0-1.751,1.031-3.118,2.723-3.118

		c1.906,0,2.398,1.655,2.398,2.723c0,0.216-0.013,0.372-0.036,0.492H55.854z M58.948,188.094c0.012-0.659-0.276-1.703-1.463-1.703

		c-1.08,0-1.535,0.971-1.619,1.703H58.948z"/>

	<path fill="#010101" d="M62.731,185.025v0.538h-2.077v-0.538H62.731z"/>

	<path fill="#010101" d="M63.359,187.564v-0.454l0.58-0.563c1.396-1.329,2.035-2.035,2.035-2.859c0-0.555-0.261-1.068-1.076-1.068

		c-0.496,0-0.908,0.252-1.16,0.462l-0.235-0.521c0.37-0.311,0.916-0.555,1.538-0.555c1.178,0,1.674,0.807,1.674,1.589

		c0,1.009-0.731,1.824-1.884,2.934l-0.429,0.404v0.017h2.446v0.614H63.359z"/>

</g>

<g>

	<path fill="#010101" d="M122.68,177.66v-2.135h-3.622v-0.684l3.479-4.978h1.14v4.846h1.091v0.815h-1.091v2.135H122.68z

		 M122.68,174.71v-2.603c0-0.408,0.012-0.816,0.036-1.224h-0.036c-0.239,0.456-0.432,0.792-0.647,1.151l-1.907,2.65v0.024H122.68z"

		/>

	<path fill="#010101" d="M130.767,173.678c0,2.651-0.995,4.114-2.71,4.114c-1.523,0-2.566-1.427-2.591-4.006

		c0-2.626,1.14-4.054,2.723-4.054C129.819,169.732,130.767,171.196,130.767,173.678z M126.533,173.798

		c0,2.027,0.624,3.178,1.583,3.178c1.067,0,1.583-1.259,1.583-3.25c0-1.919-0.479-3.179-1.583-3.179

		C127.205,170.548,126.533,171.675,126.533,173.798z"/>

	<path fill="#010101" d="M136.922,173.678c0,2.651-0.995,4.114-2.71,4.114c-1.523,0-2.566-1.427-2.591-4.006

		c0-2.626,1.14-4.054,2.723-4.054C135.975,169.732,136.922,171.196,136.922,173.678z M132.688,173.798

		c0,2.027,0.624,3.178,1.583,3.178c1.067,0,1.583-1.259,1.583-3.25c0-1.919-0.479-3.179-1.583-3.179

		C133.36,170.548,132.688,171.675,132.688,173.798z"/>

	<path fill="#010101" d="M141.353,174.95c0.024,1.427,0.924,2.015,1.991,2.015c0.756,0,1.224-0.132,1.607-0.3l0.191,0.756

		c-0.372,0.168-1.02,0.372-1.942,0.372c-1.787,0-2.854-1.188-2.854-2.938s1.031-3.118,2.723-3.118c1.906,0,2.398,1.655,2.398,2.723

		c0,0.216-0.012,0.372-0.036,0.492H141.353z M144.447,174.194c0.012-0.66-0.276-1.703-1.463-1.703c-1.08,0-1.535,0.971-1.619,1.703

		H144.447z"/>

	<path fill="#010101" d="M147.232,171.855l0.827,1.247c0.229,0.324,0.408,0.612,0.601,0.936h0.023

		c0.192-0.336,0.384-0.636,0.588-0.947l0.804-1.235h1.151l-1.979,2.806l2.027,2.999h-1.188l-0.863-1.307

		c-0.229-0.336-0.42-0.66-0.624-1.008h-0.023c-0.192,0.348-0.384,0.66-0.612,1.008l-0.839,1.307h-1.164l2.063-2.962l-1.968-2.842

		H147.232z"/>

	<path fill="#010101" d="M152.297,173.75c0-0.744-0.024-1.343-0.049-1.895h0.936l0.061,0.995h0.023

		c0.42-0.708,1.115-1.115,2.063-1.115c1.415,0,2.471,1.188,2.471,2.938c0,2.087-1.283,3.118-2.651,3.118

		c-0.768,0-1.438-0.336-1.786-0.912h-0.024v3.154h-1.043V173.75z M153.34,175.297c0,0.156,0.012,0.3,0.048,0.432

		c0.192,0.732,0.828,1.235,1.583,1.235c1.115,0,1.764-0.911,1.764-2.243c0-1.151-0.612-2.146-1.728-2.146

		c-0.72,0-1.403,0.503-1.595,1.295c-0.036,0.132-0.072,0.288-0.072,0.42V175.297z"/>

	<path fill="#010101" d="M163.947,169.337c-0.876,1.187-1.499,2.734-1.499,4.917c0,2.135,0.659,3.658,1.499,4.857h-0.815

		c-0.756-0.996-1.571-2.531-1.571-4.869c0.012-2.351,0.815-3.898,1.571-4.905H163.947z"/>

	<path fill="#010101" d="M169.934,173.678c0,2.651-0.995,4.114-2.71,4.114c-1.523,0-2.566-1.427-2.591-4.006

		c0-2.626,1.14-4.054,2.723-4.054C168.986,169.732,169.934,171.196,169.934,173.678z M165.7,173.798

		c0,2.027,0.624,3.178,1.583,3.178c1.067,0,1.583-1.259,1.583-3.25c0-1.919-0.479-3.179-1.583-3.179

		C166.372,170.548,165.7,171.675,165.7,173.798z"/>

	<path fill="#010101" d="M170.98,177.037c0-0.432,0.3-0.756,0.719-0.756c0.42,0,0.708,0.312,0.708,0.756

		c0,0.432-0.288,0.755-0.731,0.755C171.268,177.792,170.98,177.468,170.98,177.037z"/>

	<path fill="#010101" d="M173.633,176.461c0.3,0.18,0.983,0.479,1.727,0.479c1.344,0,1.775-0.852,1.763-1.511

		c-0.012-1.091-0.995-1.559-2.015-1.559h-0.588v-0.792h0.588c0.768,0,1.739-0.396,1.739-1.319c0-0.624-0.396-1.175-1.367-1.175

		c-0.624,0-1.224,0.276-1.56,0.516l-0.287-0.768c0.419-0.3,1.211-0.6,2.051-0.6c1.535,0,2.23,0.912,2.23,1.859

		c0,0.816-0.492,1.5-1.439,1.847v0.024c0.96,0.18,1.728,0.899,1.739,1.991c0,1.248-0.983,2.339-2.843,2.339

		c-0.875,0-1.643-0.276-2.026-0.528L173.633,176.461z"/>

	<path fill="#010101" d="M184.563,172.293v3.533c0,0.469,0.021,0.797,0.064,0.984c0.035,0.133,0.088,0.229,0.158,0.287

		s0.145,0.088,0.223,0.088c0.098,0,0.188-0.049,0.272-0.146s0.146-0.291,0.185-0.58h0.24c-0.066,0.523-0.195,0.885-0.387,1.084

		s-0.434,0.299-0.727,0.299c-0.289,0-0.52-0.088-0.691-0.264s-0.275-0.48-0.311-0.914c-0.398,0.441-0.776,0.749-1.134,0.923

		s-0.667,0.261-0.929,0.261c-0.176,0-0.348-0.034-0.516-0.103s-0.332-0.169-0.492-0.302c-0.008,0.566,0.041,1.061,0.146,1.482

		c0.074,0.301,0.111,0.512,0.111,0.633c0,0.211-0.054,0.379-0.161,0.504s-0.229,0.188-0.366,0.188c-0.141,0-0.256-0.055-0.346-0.164

		c-0.121-0.148-0.182-0.334-0.182-0.557c0-0.109,0.023-0.246,0.07-0.41c0.109-0.367,0.178-0.688,0.205-0.961

		c0.047-0.469,0.07-0.867,0.07-1.195v-4.67h0.984v3.381c0,0.398,0.033,0.686,0.1,0.861s0.186,0.314,0.357,0.416

		s0.344,0.152,0.516,0.152c0.203,0,0.443-0.061,0.721-0.182s0.559-0.316,0.844-0.586v-4.043H184.563z"/>

	<path fill="#010101" d="M189.25,169.328l-2.877,8.496h-0.469l2.877-8.496H189.25z"/>

	<path fill="#010101" d="M194.746,176.131l-0.557,1.529h-4.688v-0.246c1.613-1.457,2.691-2.643,3.234-3.557

		c0.348-0.586,0.521-1.146,0.521-1.682c0-0.504-0.154-0.918-0.463-1.242s-0.678-0.486-1.107-0.486c-0.391,0-0.741,0.114-1.052,0.343

		s-0.54,0.563-0.688,1.005h-0.217c0.098-0.723,0.35-1.277,0.756-1.664s0.91-0.58,1.512-0.58c0.645,0,1.183,0.207,1.614,0.621

		s0.647,0.906,0.647,1.477c0,0.398-0.098,0.805-0.293,1.219c-0.289,0.625-0.762,1.295-1.418,2.01

		c-0.957,1.047-1.557,1.68-1.799,1.898h2.074c0.57,0,0.962-0.047,1.175-0.141s0.39-0.262,0.53-0.504H194.746z"/>

	<path fill="#010101" d="M195.484,179.111c0.839-1.188,1.499-2.734,1.499-4.893c0-2.159-0.647-3.682-1.499-4.881h0.815

		c0.755,0.983,1.571,2.53,1.571,4.881c-0.013,2.351-0.816,3.886-1.571,4.893H195.484z"/>

</g>

<g>

	<path fill="#010101" d="M320.146,177.159v-2.135h-3.622v-0.684l3.479-4.978h1.139v4.846h1.092v0.815h-1.092v2.135H320.146z

		 M320.146,174.209v-2.603c0-0.408,0.012-0.816,0.036-1.224h-0.036c-0.239,0.456-0.432,0.792-0.647,1.151l-1.907,2.65v0.024H320.146

		z"/>

	<path fill="#010101" d="M324.479,173.058c-0.875-0.408-1.247-1.08-1.247-1.751c0-1.235,1.044-2.075,2.423-2.075

		c1.511,0,2.278,0.936,2.278,1.919c0,0.66-0.335,1.379-1.295,1.823v0.036c0.972,0.384,1.571,1.08,1.571,2.015

		c0,1.367-1.163,2.267-2.65,2.267c-1.632,0-2.615-0.959-2.615-2.099c0-0.983,0.588-1.691,1.548-2.099L324.479,173.058z

		 M327.142,175.132c0-0.936-0.66-1.403-1.715-1.703c-0.912,0.264-1.403,0.875-1.403,1.619c-0.036,0.78,0.563,1.475,1.559,1.475

		C326.529,176.523,327.142,175.936,327.142,175.132z M324.239,171.234c-0.013,0.78,0.588,1.199,1.487,1.439

		c0.671-0.228,1.188-0.708,1.188-1.416c0-0.624-0.372-1.271-1.319-1.271C324.719,169.987,324.239,170.563,324.239,171.234z"/>

</g>

<g>

	<path fill="#010101" d="M356.953,170.252h-2.975l-0.3,2.003c0.18-0.024,0.348-0.036,0.636-0.036c0.611,0,1.199,0.12,1.679,0.42

		c0.612,0.336,1.115,1.02,1.115,1.991c0,1.523-1.211,2.663-2.902,2.663c-0.852,0-1.559-0.24-1.942-0.479l0.264-0.804

		c0.324,0.192,0.959,0.432,1.679,0.432c0.983,0,1.848-0.647,1.835-1.691c0-1.007-0.684-1.715-2.23-1.715

		c-0.456,0-0.804,0.036-1.092,0.072l0.504-3.742h3.73V170.252z"/>

	<path fill="#010101" d="M363.648,173.178c0,2.651-0.995,4.114-2.71,4.114c-1.523,0-2.566-1.427-2.591-4.006

		c0-2.626,1.14-4.054,2.723-4.054C362.701,169.232,363.648,170.696,363.648,173.178z M359.415,173.298

		c0,2.027,0.624,3.178,1.583,3.178c1.067,0,1.583-1.259,1.583-3.25c0-1.919-0.479-3.179-1.583-3.179

		C360.087,170.048,359.415,171.175,359.415,173.298z"/>

	<path fill="#010101" d="M367.492,172.926c0-0.611-0.024-1.091-0.049-1.571h0.924l0.048,0.947h0.036

		c0.324-0.552,0.863-1.067,1.835-1.067c0.779,0,1.379,0.48,1.631,1.164h0.024c0.18-0.336,0.42-0.576,0.659-0.756

		c0.349-0.264,0.72-0.408,1.271-0.408c0.779,0,1.919,0.504,1.919,2.519v3.406h-1.031v-3.274c0-1.127-0.42-1.787-1.26-1.787

		c-0.611,0-1.067,0.443-1.259,0.947c-0.048,0.156-0.084,0.336-0.084,0.528v3.586h-1.031v-3.478c0-0.923-0.408-1.583-1.212-1.583

		c-0.647,0-1.139,0.527-1.307,1.055c-0.061,0.144-0.084,0.336-0.084,0.516v3.49h-1.031V172.926z"/>

	<path fill="#010101" d="M382.753,174.21c0,2.146-1.499,3.082-2.891,3.082c-1.56,0-2.782-1.151-2.782-2.986

		c0-1.931,1.283-3.07,2.878-3.07C381.625,171.235,382.753,172.447,382.753,174.21z M378.159,174.27c0,1.271,0.72,2.231,1.751,2.231

		c1.008,0,1.763-0.947,1.763-2.255c0-0.983-0.491-2.219-1.738-2.219C378.699,172.027,378.159,173.178,378.159,174.27z"/>

	<path fill="#010101" d="M384.088,168.645h1.055v8.515h-1.055V168.645z"/>

	<path fill="#010101" d="M387.507,174.45c0.024,1.427,0.924,2.015,1.991,2.015c0.756,0,1.224-0.132,1.607-0.3l0.191,0.756

		c-0.372,0.168-1.02,0.372-1.942,0.372c-1.787,0-2.854-1.188-2.854-2.938s1.031-3.118,2.723-3.118c1.906,0,2.398,1.655,2.398,2.723

		c0,0.216-0.012,0.372-0.036,0.492H387.507z M390.602,173.694c0.012-0.66-0.276-1.703-1.463-1.703c-1.08,0-1.535,0.971-1.619,1.703

		H390.602z"/>

	<path fill="#010101" d="M394.385,170.625v0.538h-2.077v-0.538H394.385z"/>

	<path fill="#010101" d="M395.013,173.164v-0.454l0.58-0.563c1.396-1.329,2.035-2.035,2.035-2.859c0-0.555-0.261-1.068-1.076-1.068

		c-0.496,0-0.908,0.252-1.16,0.462l-0.235-0.521c0.37-0.311,0.916-0.555,1.538-0.555c1.178,0,1.674,0.807,1.674,1.589

		c0,1.009-0.731,1.824-1.884,2.934l-0.429,0.404v0.017h2.446v0.614H395.013z"/>

</g>

<g>

	<path fill="#010101" d="M40.151,365.814h-0.023l-1.355,0.732l-0.204-0.805l1.703-0.911h0.899v7.796h-1.02V365.814z"/>

	<path fill="#010101" d="M49.21,368.645c0,2.651-0.995,4.114-2.71,4.114c-1.523,0-2.566-1.427-2.591-4.006

		c0-2.626,1.14-4.054,2.723-4.054C48.263,364.699,49.21,366.162,49.21,368.645z M44.977,368.766c0,2.026,0.624,3.178,1.583,3.178

		c1.067,0,1.583-1.26,1.583-3.25c0-1.919-0.479-3.179-1.583-3.179C45.648,365.515,44.977,366.643,44.977,368.766z"/>

	<path fill="#010101" d="M55.366,368.645c0,2.651-0.995,4.114-2.71,4.114c-1.523,0-2.566-1.427-2.591-4.006

		c0-2.626,1.14-4.054,2.723-4.054C54.419,364.699,55.366,366.162,55.366,368.645z M51.133,368.766c0,2.026,0.624,3.178,1.583,3.178

		c1.067,0,1.583-1.26,1.583-3.25c0-1.919-0.479-3.179-1.583-3.179C51.805,365.515,51.133,366.643,51.133,368.766z"/>

	<path fill="#010101" d="M61.522,368.645c0,2.651-0.995,4.114-2.71,4.114c-1.523,0-2.566-1.427-2.591-4.006

		c0-2.626,1.14-4.054,2.723-4.054C60.575,364.699,61.522,366.162,61.522,368.645z M57.289,368.766c0,2.026,0.624,3.178,1.583,3.178

		c1.067,0,1.583-1.26,1.583-3.25c0-1.919-0.479-3.179-1.583-3.179C57.961,365.515,57.289,366.643,57.289,368.766z"/>

	<path fill="#010101" d="M67.679,368.645c0,2.651-0.995,4.114-2.71,4.114c-1.523,0-2.566-1.427-2.591-4.006

		c0-2.626,1.14-4.054,2.723-4.054C66.731,364.699,67.679,366.162,67.679,368.645z M63.445,368.766c0,2.026,0.624,3.178,1.583,3.178

		c1.067,0,1.583-1.26,1.583-3.25c0-1.919-0.479-3.179-1.583-3.179C64.117,365.515,63.445,366.643,63.445,368.766z"/>

	<path fill="#010101" d="M71.522,368.393c0-0.611-0.024-1.091-0.049-1.57h0.924l0.048,0.947h0.036

		c0.324-0.552,0.863-1.067,1.835-1.067c0.779,0,1.379,0.479,1.631,1.163h0.024c0.18-0.336,0.42-0.575,0.659-0.756

		c0.348-0.264,0.72-0.407,1.271-0.407c0.779,0,1.919,0.504,1.919,2.519v3.406H78.79v-3.274c0-1.127-0.42-1.786-1.26-1.786

		c-0.611,0-1.067,0.443-1.259,0.947c-0.048,0.155-0.084,0.336-0.084,0.527v3.586h-1.031v-3.479c0-0.923-0.408-1.582-1.212-1.582

		c-0.647,0-1.139,0.527-1.307,1.055c-0.061,0.145-0.084,0.336-0.084,0.516v3.49h-1.031V368.393z"/>

	<path fill="#010101" d="M86.783,369.677c0,2.146-1.499,3.082-2.891,3.082c-1.56,0-2.782-1.151-2.782-2.986

		c0-1.931,1.283-3.07,2.878-3.07C85.655,366.702,86.783,367.914,86.783,369.677z M82.189,369.736c0,1.271,0.72,2.23,1.751,2.23

		c1.008,0,1.763-0.947,1.763-2.254c0-0.984-0.491-2.219-1.738-2.219C82.729,367.494,82.189,368.645,82.189,369.736z"/>

	<path fill="#010101" d="M88.118,364.111h1.055v8.516h-1.055V364.111z"/>

	<path fill="#010101" d="M91.537,369.916c0.024,1.428,0.924,2.016,1.991,2.016c0.756,0,1.224-0.133,1.607-0.301l0.191,0.756

		c-0.372,0.168-1.02,0.372-1.942,0.372c-1.787,0-2.854-1.188-2.854-2.938s1.031-3.118,2.723-3.118c1.906,0,2.398,1.655,2.398,2.723

		c0,0.216-0.013,0.372-0.036,0.491H91.537z M94.632,369.16c0.012-0.659-0.276-1.702-1.463-1.702c-1.08,0-1.535,0.972-1.619,1.702

		H94.632z"/>

	<path fill="#010101" d="M98.413,366.092v0.538h-2.077v-0.538H98.413z"/>

	<path fill="#010101" d="M100.647,363.855h-0.017l-0.95,0.513l-0.144-0.563l1.194-0.639h0.631v5.465h-0.715V363.855z"/>

</g>

<g>

	<path fill="#010101" d="M122.538,372.627v-0.647l0.827-0.804c1.991-1.895,2.902-2.902,2.902-4.078c0-0.791-0.372-1.523-1.535-1.523

		c-0.707,0-1.295,0.36-1.655,0.66l-0.336-0.744c0.528-0.443,1.308-0.791,2.195-0.791c1.679,0,2.387,1.151,2.387,2.267

		c0,1.439-1.044,2.603-2.687,4.187l-0.611,0.575v0.024h3.489v0.875H122.538z"/>

	<path fill="#010101" d="M133.887,368.645c0,2.651-0.995,4.114-2.71,4.114c-1.523,0-2.566-1.427-2.591-4.006

		c0-2.626,1.14-4.054,2.723-4.054C132.939,364.699,133.887,366.162,133.887,368.645z M129.653,368.766

		c0,2.026,0.624,3.178,1.583,3.178c1.067,0,1.583-1.26,1.583-3.25c0-1.919-0.479-3.179-1.583-3.179

		C130.325,365.515,129.653,366.643,129.653,368.766z"/>

</g>

<g>

	<path fill="#010101" d="M312.167,368.525c-0.875-0.408-1.247-1.08-1.247-1.751c0-1.235,1.044-2.075,2.423-2.075

		c1.511,0,2.278,0.936,2.278,1.919c0,0.659-0.335,1.38-1.295,1.823v0.035c0.972,0.385,1.571,1.08,1.571,2.016

		c0,1.367-1.163,2.267-2.65,2.267c-1.632,0-2.615-0.96-2.615-2.099c0-0.983,0.588-1.691,1.548-2.1L312.167,368.525z M314.83,370.6

		c0-0.936-0.66-1.402-1.715-1.703c-0.912,0.264-1.403,0.876-1.403,1.619c-0.036,0.78,0.563,1.476,1.559,1.476

		C314.219,371.991,314.83,371.404,314.83,370.6z M311.928,366.702c-0.012,0.78,0.588,1.199,1.487,1.439

		c0.671-0.228,1.187-0.708,1.187-1.415c0-0.624-0.371-1.271-1.318-1.271C312.407,365.455,311.928,366.031,311.928,366.702z"/>

	<path fill="#010101" d="M322.077,368.645c0,2.651-0.995,4.114-2.71,4.114c-1.523,0-2.566-1.427-2.591-4.006

		c0-2.626,1.14-4.054,2.723-4.054C321.13,364.699,322.077,366.162,322.077,368.645z M317.844,368.766

		c0,2.026,0.624,3.178,1.583,3.178c1.067,0,1.583-1.26,1.583-3.25c0-1.919-0.479-3.179-1.583-3.179

		C318.516,365.515,317.844,366.643,317.844,368.766z"/>

	<path fill="#010101" d="M328.233,368.645c0,2.651-0.995,4.114-2.71,4.114c-1.523,0-2.566-1.427-2.591-4.006

		c0-2.626,1.14-4.054,2.723-4.054C327.286,364.699,328.233,366.162,328.233,368.645z M324,368.766c0,2.026,0.624,3.178,1.583,3.178

		c1.067,0,1.583-1.26,1.583-3.25c0-1.919-0.479-3.179-1.583-3.179C324.672,365.515,324,366.643,324,368.766z"/>

</g>

<g>

	<path fill="#010101" d="M352.43,365.574c-0.216-0.012-0.492,0.013-0.792,0.061c-1.667,0.264-2.53,1.463-2.71,2.758h0.023

		c0.372-0.503,1.032-0.91,1.896-0.91c1.379,0,2.351,1.007,2.351,2.518c0,1.439-0.972,2.759-2.603,2.759

		c-1.655,0-2.746-1.296-2.746-3.322c0-1.535,0.539-2.746,1.319-3.514c0.647-0.636,1.511-1.032,2.494-1.151

		c0.312-0.049,0.576-0.061,0.768-0.061V365.574z M352.13,370.072c0-1.115-0.636-1.787-1.607-1.787c-0.636,0-1.235,0.384-1.522,0.959

		c-0.061,0.121-0.108,0.265-0.108,0.457c0.012,1.283,0.611,2.242,1.728,2.242C351.519,371.943,352.13,371.188,352.13,370.072z"/>

	<path fill="#010101" d="M354.221,372.004c0-0.433,0.3-0.756,0.719-0.756c0.42,0,0.708,0.312,0.708,0.756

		c0,0.432-0.288,0.755-0.731,0.755C354.508,372.759,354.221,372.436,354.221,372.004z"/>

	<path fill="#010101" d="M361.681,364.831v0.696l-3.394,7.1h-1.092l3.382-6.896v-0.023h-3.813v-0.876H361.681z"/>

	<path fill="#010101" d="M366.147,366.822l0.827,1.247c0.229,0.323,0.408,0.612,0.601,0.936h0.023

		c0.192-0.336,0.384-0.636,0.588-0.947l0.804-1.235h1.151l-1.979,2.807l2.027,2.998h-1.188l-0.863-1.307

		c-0.229-0.336-0.42-0.66-0.624-1.008h-0.023c-0.192,0.348-0.384,0.659-0.612,1.008l-0.839,1.307h-1.164l2.063-2.963l-1.967-2.842

		H366.147z"/>

	<path fill="#010101" d="M375.71,365.814h-0.023l-1.355,0.732l-0.204-0.805l1.703-0.911h0.899v7.796h-1.02V365.814z"/>

	<path fill="#010101" d="M384.769,368.645c0,2.651-0.995,4.114-2.71,4.114c-1.523,0-2.566-1.427-2.591-4.006

		c0-2.626,1.14-4.054,2.723-4.054C383.821,364.699,384.769,366.162,384.769,368.645z M380.535,368.766

		c0,2.026,0.624,3.178,1.583,3.178c1.067,0,1.583-1.26,1.583-3.25c0-1.919-0.479-3.179-1.583-3.179

		C381.207,365.515,380.535,366.643,380.535,368.766z"/>

	<path fill="#010101" d="M388.689,363.688c-0.151-0.009-0.345,0.008-0.556,0.041c-1.168,0.186-1.773,1.026-1.899,1.935h0.017

		c0.261-0.353,0.723-0.64,1.328-0.64c0.967,0,1.647,0.707,1.647,1.766c0,1.01-0.681,1.934-1.824,1.934

		c-1.16,0-1.925-0.907-1.925-2.328c0-1.076,0.378-1.926,0.925-2.463c0.454-0.446,1.06-0.724,1.748-0.808

		c0.219-0.034,0.404-0.042,0.539-0.042V363.688z M388.479,366.84c0-0.781-0.445-1.252-1.126-1.252c-0.446,0-0.866,0.269-1.068,0.672

		c-0.042,0.084-0.075,0.186-0.075,0.32c0.008,0.898,0.429,1.572,1.21,1.572C388.05,368.152,388.479,367.622,388.479,366.84z"/>

	<path fill="#010101" d="M392.921,368.393c0-0.611-0.024-1.091-0.049-1.57h0.924l0.048,0.947h0.036

		c0.324-0.552,0.863-1.067,1.835-1.067c0.779,0,1.379,0.479,1.631,1.163h0.024c0.18-0.336,0.42-0.575,0.659-0.756

		c0.348-0.264,0.72-0.407,1.271-0.407c0.779,0,1.919,0.504,1.919,2.519v3.406h-1.031v-3.274c0-1.127-0.42-1.786-1.26-1.786

		c-0.611,0-1.067,0.443-1.259,0.947c-0.048,0.155-0.084,0.336-0.084,0.527v3.586h-1.031v-3.479c0-0.923-0.408-1.582-1.212-1.582

		c-0.647,0-1.139,0.527-1.307,1.055c-0.061,0.145-0.084,0.336-0.084,0.516v3.49h-1.031V368.393z"/>

	<path fill="#010101" d="M408.182,369.677c0,2.146-1.499,3.082-2.891,3.082c-1.56,0-2.782-1.151-2.782-2.986

		c0-1.931,1.283-3.07,2.878-3.07C407.054,366.702,408.182,367.914,408.182,369.677z M403.588,369.736c0,1.271,0.72,2.23,1.751,2.23

		c1.008,0,1.763-0.947,1.763-2.254c0-0.984-0.491-2.219-1.738-2.219C404.128,367.494,403.588,368.645,403.588,369.736z"/>

	<path fill="#010101" d="M409.517,364.111h1.055v8.516h-1.055V364.111z"/>

	<path fill="#010101" d="M412.936,369.916c0.024,1.428,0.924,2.016,1.991,2.016c0.756,0,1.224-0.133,1.607-0.301l0.191,0.756

		c-0.372,0.168-1.02,0.372-1.942,0.372c-1.787,0-2.854-1.188-2.854-2.938s1.031-3.118,2.723-3.118c1.906,0,2.398,1.655,2.398,2.723

		c0,0.216-0.013,0.372-0.036,0.491H412.936z M416.03,369.16c0.012-0.659-0.276-1.702-1.463-1.702c-1.08,0-1.535,0.972-1.619,1.702

		H416.03z"/>

	<path fill="#010101" d="M419.813,366.092v0.538h-2.077v-0.538H419.813z"/>

	<path fill="#010101" d="M422.048,363.855h-0.017l-0.95,0.513l-0.144-0.563l1.194-0.639h0.631v5.465h-0.715V363.855z"/>

</g>

</svg>

