<?xml version="1.0" encoding="utf-8"?>
<!-- Generator: Adobe Illustrator 13.0.0, SVG Export Plug-In . SVG Version: 6.00 Build 14948)  -->
<!DOCTYPE svg PUBLIC "-//W3C//DTD SVG 1.1//EN" "http://www.w3.org/Graphics/SVG/1.1/DTD/svg11.dtd">
<svg version="1.1" id="Layer_1" xmlns="http://www.w3.org/2000/svg" xmlns:xlink="http://www.w3.org/1999/xlink" x="0px" y="0px"
	 width="461.333px" height="298.667px" viewBox="0 0 461.333 298.667" enable-background="new 0 0 461.333 298.667"
	 xml:space="preserve">
<g>
	<g>
		<line fill="none" stroke="#000000" x1="43.351" y1="273.833" x2="43.351" y2="217.645"/>
		<polygon points="39.648,271.024 43.351,272.598 47.055,271.024 43.351,279.803 		"/>
	</g>
</g>
<path id="path11218" sodipodi:cy="567.10571" sodipodi:cx="663.41638" sodipodi:type="arc" sodipodi:ry="70.471161" sodipodi:rx="95.158508" fill="#BFDDFF" stroke="#0092DF" stroke-width="4.6459" d="
	M412.511,95.47c0,42.504-51.012,76.959-113.936,76.959c-62.925,0-113.936-34.455-113.936-76.959l0,0
	c0-42.504,51.011-76.96,113.936-76.96C361.5,18.51,412.511,52.966,412.511,95.47z"/>
<g enable-background="new    ">
	<path d="M195.061,92.474c0-0.62-0.01-1.12-0.04-1.579h0.789l0.051,0.829h0.02c0.35-0.6,0.93-0.939,1.709-0.939
		c1.18,0,2.059,0.989,2.059,2.459c0,1.738-1.068,2.599-2.198,2.599c-0.649,0-1.199-0.28-1.489-0.76h-0.02v2.628h-0.88V92.474z
		 M195.941,93.763c0,0.12,0.01,0.25,0.039,0.359c0.15,0.61,0.69,1.029,1.311,1.029c0.929,0,1.469-0.759,1.469-1.868
		c0-0.97-0.5-1.8-1.43-1.8c-0.6,0-1.169,0.42-1.339,1.08c-0.021,0.12-0.05,0.25-0.05,0.359V93.763z"/>
	<path d="M201.261,93.463c0.02,1.189,0.77,1.679,1.648,1.679c0.63,0,1.02-0.109,1.34-0.239l0.159,0.619
		c-0.31,0.14-0.85,0.31-1.619,0.31c-1.479,0-2.378-0.989-2.378-2.438c0-1.469,0.869-2.618,2.278-2.618
		c1.579,0,1.989,1.389,1.989,2.278c0,0.18-0.011,0.32-0.03,0.42L201.261,93.463z M203.83,92.833c0.01-0.55-0.23-1.429-1.21-1.429
		c-0.899,0-1.279,0.819-1.349,1.429H203.83z"/>
	<path d="M205.781,92.403c0-0.569-0.01-1.06-0.04-1.509h0.77l0.04,0.949h0.029c0.221-0.649,0.76-1.06,1.35-1.06
		c0.09,0,0.16,0.01,0.24,0.03v0.819c-0.1-0.01-0.189-0.021-0.311-0.021c-0.619,0-1.059,0.47-1.179,1.12
		c-0.021,0.13-0.03,0.27-0.03,0.42v2.578h-0.879L205.781,92.403z"/>
	<path d="M212.22,89.734v1.16h1.26v0.669h-1.26v2.608c0,0.601,0.17,0.939,0.66,0.939c0.239,0,0.379-0.02,0.51-0.06l0.039,0.67
		c-0.17,0.06-0.439,0.12-0.779,0.12c-0.41,0-0.74-0.141-0.949-0.37c-0.24-0.27-0.34-0.699-0.34-1.27v-2.639h-0.75v-0.669h0.75v-0.89
		L212.22,89.734z"/>
	<path d="M214.481,92.403c0-0.569-0.011-1.06-0.04-1.509h0.77l0.04,0.949h0.03c0.22-0.649,0.76-1.06,1.349-1.06
		c0.091,0,0.16,0.01,0.24,0.03v0.819c-0.101-0.01-0.19-0.021-0.31-0.021c-0.62,0-1.06,0.47-1.18,1.12
		c-0.02,0.13-0.03,0.27-0.03,0.42v2.578h-0.88L214.481,92.403z"/>
	<path d="M221.089,94.572c0,0.42,0.02,0.829,0.07,1.159h-0.79l-0.079-0.609h-0.031c-0.26,0.38-0.789,0.72-1.479,0.72
		c-0.979,0-1.479-0.69-1.479-1.39c0-1.169,1.04-1.809,2.909-1.799v-0.101c0-0.399-0.11-1.129-1.1-1.119c-0.46,0-0.93,0.13-1.27,0.36
		l-0.2-0.59c0.399-0.25,0.989-0.42,1.599-0.42c1.49,0,1.85,1.01,1.85,1.979V94.572z M220.23,93.263
		c-0.959-0.02-2.049,0.15-2.049,1.09c0,0.579,0.379,0.839,0.819,0.839c0.64,0,1.05-0.399,1.189-0.81
		c0.03-0.09,0.04-0.189,0.04-0.279V93.263z"/>
	<path d="M222.5,92.203c0-0.51-0.01-0.909-0.04-1.309h0.779l0.051,0.789h0.02c0.24-0.449,0.8-0.899,1.6-0.899
		c0.67,0,1.709,0.399,1.709,2.059v2.889h-0.88v-2.788c0-0.78-0.29-1.439-1.119-1.439c-0.569,0-1.02,0.409-1.18,0.899
		c-0.04,0.11-0.06,0.27-0.06,0.41v2.918h-0.88V92.203z"/>
	<path d="M227.931,94.842c0.27,0.16,0.729,0.34,1.168,0.34c0.631,0,0.93-0.31,0.93-0.72c0-0.42-0.25-0.649-0.889-0.89
		c-0.88-0.319-1.289-0.789-1.289-1.369c0-0.779,0.639-1.419,1.668-1.419c0.49,0,0.92,0.13,1.18,0.3l-0.209,0.63
		c-0.19-0.11-0.541-0.28-0.99-0.28c-0.52,0-0.799,0.3-0.799,0.66c0,0.409,0.279,0.59,0.908,0.829c0.83,0.31,1.27,0.729,1.27,1.459
		c0,0.86-0.67,1.46-1.799,1.46c-0.529,0-1.02-0.141-1.359-0.34L227.931,94.842z"/>
	<path d="M235.458,95.562c-0.23,0.11-0.74,0.28-1.389,0.28c-1.46,0-2.409-0.99-2.409-2.479c0-1.488,1.02-2.578,2.599-2.578
		c0.52,0,0.979,0.13,1.219,0.26l-0.199,0.67c-0.21-0.11-0.54-0.23-1.02-0.23c-1.109,0-1.709,0.83-1.709,1.84
		c0,1.119,0.719,1.809,1.679,1.809c0.5,0,0.829-0.12,1.079-0.229L235.458,95.562z"/>
	<path d="M236.501,92.403c0-0.569-0.011-1.06-0.041-1.509h0.77l0.041,0.949h0.029c0.22-0.649,0.76-1.06,1.35-1.06
		c0.09,0,0.16,0.01,0.24,0.03v0.819c-0.101-0.01-0.19-0.021-0.311-0.021c-0.619,0-1.06,0.47-1.18,1.12
		c-0.02,0.13-0.029,0.27-0.029,0.42v2.578h-0.88L236.501,92.403z"/>
	<path d="M240.22,90.005c-0.33,0-0.55-0.26-0.55-0.57c0-0.31,0.229-0.56,0.569-0.56s0.561,0.25,0.561,0.56
		c0,0.311-0.221,0.57-0.57,0.57H240.22z M239.8,95.731v-4.837h0.879v4.837H239.8z"/>
	<path d="M242.14,92.474c0-0.62-0.01-1.12-0.04-1.579h0.79l0.05,0.829h0.021c0.35-0.6,0.929-0.939,1.709-0.939
		c1.179,0,2.059,0.989,2.059,2.459c0,1.738-1.07,2.599-2.199,2.599c-0.649,0-1.199-0.28-1.489-0.76h-0.021v2.628h-0.879V92.474z
		 M243.019,93.763c0,0.12,0.011,0.25,0.041,0.359c0.149,0.61,0.689,1.029,1.309,1.029c0.93,0,1.47-0.759,1.47-1.868
		c0-0.97-0.5-1.8-1.429-1.8c-0.601,0-1.17,0.42-1.34,1.08c-0.02,0.12-0.051,0.25-0.051,0.359V93.763z"/>
	<path d="M248.89,89.734v1.16h1.259v0.669h-1.259v2.608c0,0.601,0.17,0.939,0.659,0.939c0.239,0,0.38-0.02,0.51-0.06l0.04,0.67
		c-0.17,0.06-0.439,0.12-0.779,0.12c-0.41,0-0.74-0.141-0.949-0.37c-0.24-0.27-0.34-0.699-0.34-1.27v-2.639h-0.75v-0.669h0.75v-0.89
		L248.89,89.734z"/>
	<path d="M251.56,90.005c-0.33,0-0.55-0.26-0.55-0.57c0-0.31,0.229-0.56,0.569-0.56s0.561,0.25,0.561,0.56
		c0,0.311-0.221,0.57-0.57,0.57H251.56z M251.14,95.731v-4.837h0.879v4.837H251.14z"/>
	<path d="M255.449,95.842c-1.299,0-2.318-0.96-2.318-2.489c0-1.619,1.069-2.568,2.398-2.568c1.389,0,2.329,1.01,2.329,2.479
		c0,1.799-1.249,2.579-2.399,2.579H255.449z M255.479,95.182c0.839,0,1.47-0.789,1.47-1.889c0-0.819-0.41-1.85-1.449-1.85
		c-1.029,0-1.479,0.96-1.479,1.88c0,1.059,0.6,1.858,1.449,1.858H255.479z"/>
	<path d="M258.97,92.203c0-0.51-0.01-0.909-0.041-1.309h0.78l0.05,0.789h0.02c0.24-0.449,0.801-0.899,1.6-0.899
		c0.67,0,1.709,0.399,1.709,2.059v2.889h-0.879v-2.788c0-0.78-0.29-1.439-1.119-1.439c-0.57,0-1.02,0.409-1.18,0.899
		c-0.041,0.11-0.061,0.27-0.061,0.41v2.918h-0.879V92.203z"/>
</g>
<g id="g3189" transform="translate(17.17704,243.1136)">
	
		<radialGradient id="path3191_1_" cx="-73.6609" cy="-425.2474" r="16.1855" gradientTransform="matrix(0.9269 0 0 0.6352 224.1156 244.1546)" gradientUnits="userSpaceOnUse">
		<stop  offset="0" style="stop-color:#A2FF5F"/>
		<stop  offset="0.4082" style="stop-color:#A0FF5F"/>
		<stop  offset="0.5552" style="stop-color:#99FD5F"/>
		<stop  offset="0.66" style="stop-color:#8EFB5E"/>
		<stop  offset="0.7448" style="stop-color:#7DF85E"/>
		<stop  offset="0.8174" style="stop-color:#67F35D"/>
		<stop  offset="0.8817" style="stop-color:#4BEE5C"/>
		<stop  offset="0.9398" style="stop-color:#2BE85B"/>
		<stop  offset="0.9915" style="stop-color:#07E05A"/>
		<stop  offset="1" style="stop-color:#00DF5A"/>
	</radialGradient>
	<path id="path3191" fill="url(#path3191_1_)" stroke="#000000" d="M170.567-25.963c0,5.78-6.596,10.467-14.727,10.467
		c-8.134,0-14.728-4.685-14.728-10.467s6.594-10.466,14.728-10.466C163.971-36.428,170.567-31.744,170.567-25.963z"/>
	<g enable-background="new    ">
		<path d="M146.784-29.174c0.419-0.08,0.969-0.14,1.669-0.14c0.859,0,1.489,0.2,1.889,0.56c0.37,0.319,0.6,0.81,0.6,1.409
			c0,0.609-0.18,1.09-0.53,1.439c-0.46,0.489-1.209,0.739-2.059,0.739c-0.26,0-0.5-0.01-0.7-0.06v2.698h-0.869V-29.174z
			 M147.653-25.936c0.19,0.05,0.44,0.07,0.72,0.07c1.06,0,1.689-0.52,1.689-1.43c0-0.899-0.629-1.329-1.589-1.329
			c-0.38,0-0.67,0.04-0.82,0.07V-25.936z"/>
		<path d="M155.582-25.686h-2.609v2.429h2.918v0.729h-3.798v-6.736h3.648v0.729h-2.769v2.129h2.609V-25.686z"/>
		<path d="M157.024-29.164c0.439-0.09,1.079-0.149,1.669-0.149c0.929,0,1.539,0.18,1.959,0.56c0.329,0.29,0.53,0.75,0.53,1.279
			c0,0.88-0.57,1.469-1.27,1.709v0.03c0.51,0.18,0.819,0.659,0.988,1.359c0.221,0.939,0.381,1.589,0.51,1.849h-0.898
			c-0.11-0.189-0.26-0.77-0.439-1.609c-0.201-0.93-0.57-1.279-1.359-1.309h-0.82v2.918h-0.869V-29.164z M157.893-26.106h0.89
			c0.93,0,1.519-0.51,1.519-1.279c0-0.869-0.629-1.249-1.549-1.249c-0.42,0-0.709,0.04-0.859,0.08V-26.106z"/>
		<path d="M163.408-19.12c-0.889,0-1.498-0.834-1.513-2.34c0-1.533,0.665-2.367,1.59-2.367c0.952,0,1.506,0.854,1.506,2.305
			c0,1.548-0.581,2.402-1.575,2.402H163.408z M163.437-19.597c0.624,0,0.925-0.735,0.925-1.897c0-1.121-0.28-1.856-0.925-1.856
			c-0.56,0-0.925,0.715-0.925,1.856c-0.014,1.184,0.351,1.897,0.918,1.897H163.437z"/>
	</g>
</g>
<g id="g3197" transform="translate(115.3315,243.1136)">
	
		<radialGradient id="path3199_1_" cx="-171.8144" cy="-425.2474" r="16.1858" gradientTransform="matrix(0.9269 0 0 0.6352 315.0953 244.1546)" gradientUnits="userSpaceOnUse">
		<stop  offset="0" style="stop-color:#A2FF5F"/>
		<stop  offset="0.4082" style="stop-color:#A0FF5F"/>
		<stop  offset="0.5552" style="stop-color:#99FD5F"/>
		<stop  offset="0.66" style="stop-color:#8EFB5E"/>
		<stop  offset="0.7448" style="stop-color:#7DF85E"/>
		<stop  offset="0.8174" style="stop-color:#67F35D"/>
		<stop  offset="0.8817" style="stop-color:#4BEE5C"/>
		<stop  offset="0.9398" style="stop-color:#2BE85B"/>
		<stop  offset="0.9915" style="stop-color:#07E05A"/>
		<stop  offset="1" style="stop-color:#00DF5A"/>
	</radialGradient>
	<path id="path3199" fill="url(#path3199_1_)" stroke="#000000" d="M170.568-25.963c0,5.78-6.596,10.467-14.729,10.467
		s-14.727-4.685-14.727-10.467s6.594-10.466,14.727-10.466C163.973-36.428,170.568-31.744,170.568-25.963z"/>
	<g enable-background="new    ">
		<path d="M146.784-29.174c0.419-0.08,0.97-0.14,1.669-0.14c0.859,0,1.489,0.2,1.889,0.56c0.37,0.319,0.6,0.81,0.6,1.409
			c0,0.609-0.18,1.09-0.529,1.439c-0.46,0.489-1.209,0.739-2.059,0.739c-0.26,0-0.5-0.01-0.7-0.06v2.698h-0.869V-29.174z
			 M147.653-25.936c0.19,0.05,0.44,0.07,0.72,0.07c1.06,0,1.689-0.52,1.689-1.43c0-0.899-0.63-1.329-1.59-1.329
			c-0.379,0-0.67,0.04-0.819,0.07V-25.936z"/>
		<path d="M155.582-25.686h-2.609v2.429h2.919v0.729h-3.798v-6.736h3.648v0.729h-2.77v2.129h2.609V-25.686z"/>
		<path d="M157.023-29.164c0.439-0.09,1.08-0.149,1.67-0.149c0.929,0,1.539,0.18,1.959,0.56c0.329,0.29,0.529,0.75,0.529,1.279
			c0,0.88-0.57,1.469-1.27,1.709v0.03c0.51,0.18,0.82,0.659,0.989,1.359c0.22,0.939,0.38,1.589,0.51,1.849h-0.899
			c-0.109-0.189-0.26-0.77-0.439-1.609c-0.2-0.93-0.57-1.279-1.359-1.309h-0.82v2.918h-0.869V-29.164z M157.893-26.106h0.891
			c0.93,0,1.519-0.51,1.519-1.279c0-0.869-0.63-1.249-1.549-1.249c-0.42,0-0.71,0.04-0.86,0.08V-26.106z"/>
		<path d="M163.297-23.176h-0.014l-0.791,0.428l-0.119-0.47l0.994-0.532h0.525v4.553h-0.596V-23.176z"/>
	</g>
</g>
<g id="g3205" transform="translate(213.4860,243.1136)">
	
		<radialGradient id="path3207_1_" cx="-273.2057" cy="-425.2474" r="16.1858" gradientTransform="matrix(0.9269 0 0 0.6352 406.075 244.1546)" gradientUnits="userSpaceOnUse">
		<stop  offset="0" style="stop-color:#A2FF5F"/>
		<stop  offset="0.4082" style="stop-color:#A0FF5F"/>
		<stop  offset="0.5552" style="stop-color:#99FD5F"/>
		<stop  offset="0.66" style="stop-color:#8EFB5E"/>
		<stop  offset="0.7448" style="stop-color:#7DF85E"/>
		<stop  offset="0.8174" style="stop-color:#67F35D"/>
		<stop  offset="0.8817" style="stop-color:#4BEE5C"/>
		<stop  offset="0.9398" style="stop-color:#2BE85B"/>
		<stop  offset="0.9915" style="stop-color:#07E05A"/>
		<stop  offset="1" style="stop-color:#00DF5A"/>
	</radialGradient>
	<path id="path3207" fill="url(#path3207_1_)" stroke="#000000" d="M167.568-25.963c0,5.78-6.596,10.467-14.729,10.467
		s-14.727-4.685-14.727-10.467s6.594-10.466,14.727-10.466C160.973-36.428,167.568-31.744,167.568-25.963z"/>
	<g enable-background="new    ">
		<path d="M143.784-29.174c0.419-0.08,0.97-0.14,1.669-0.14c0.859,0,1.489,0.2,1.889,0.56c0.37,0.319,0.6,0.81,0.6,1.409
			c0,0.609-0.18,1.09-0.529,1.439c-0.46,0.489-1.209,0.739-2.059,0.739c-0.26,0-0.5-0.01-0.7-0.06v2.698h-0.869V-29.174z
			 M144.653-25.936c0.19,0.05,0.44,0.07,0.72,0.07c1.06,0,1.689-0.52,1.689-1.43c0-0.899-0.63-1.329-1.59-1.329
			c-0.379,0-0.67,0.04-0.819,0.07V-25.936z"/>
		<path d="M152.582-25.686h-2.609v2.429h2.919v0.729h-3.798v-6.736h3.648v0.729h-2.77v2.129h2.609V-25.686z"/>
		<path d="M154.023-29.164c0.439-0.09,1.08-0.149,1.67-0.149c0.929,0,1.539,0.18,1.959,0.56c0.329,0.29,0.529,0.75,0.529,1.279
			c0,0.88-0.57,1.469-1.27,1.709v0.03c0.51,0.18,0.82,0.659,0.989,1.359c0.22,0.939,0.38,1.589,0.51,1.849h-0.899
			c-0.109-0.189-0.26-0.77-0.439-1.609c-0.2-0.93-0.57-1.279-1.359-1.309h-0.82v2.918h-0.869V-29.164z M154.892-26.106h0.891
			c0.93,0,1.519-0.51,1.519-1.279c0-0.869-0.63-1.249-1.549-1.249c-0.42,0-0.71,0.04-0.86,0.08V-26.106z"/>
		<path d="M158.959-19.198v-0.378l0.483-0.47c1.163-1.106,1.694-1.694,1.694-2.381c0-0.463-0.217-0.89-0.896-0.89
			c-0.412,0-0.756,0.21-0.966,0.385l-0.196-0.434c0.309-0.26,0.764-0.463,1.289-0.463c0.973,0,1.387,0.673,1.387,1.324
			c0,0.841-0.609,1.52-1.568,2.444l-0.357,0.336v0.014h2.037v0.512H158.959z"/>
	</g>
</g>
<path id="path3270" sodipodi:nodetypes="cc" d="M257.533,215.11"/>
<path id="path3276" sodipodi:nodetypes="cc" d="M184.652,194.305"/>
<g>
	<g>
		<g>
			<path fill="none" stroke="#000000" d="M364.765,227.196c-22.877,29.042-61.215,31.351-86.986,4.942"/>
			<polygon points="282.391,231.562 278.642,233.023 277.089,236.735 273.61,227.866 			"/>
		</g>
	</g>
	<g>
		<g>
			<path fill="none" stroke="#000000" d="M273.734,206.942c23.238-27.796,61.521-30.348,86.959-4.659"/>
			<polygon points="356.085,202.894 359.824,201.405 361.348,197.682 364.893,206.524 			"/>
		</g>
	</g>
</g>
<g>
	<g>
		<g>
			<path fill="none" stroke="#000000" d="M267.611,227.196c-22.877,29.042-61.216,31.351-86.987,4.942"/>
			<polygon points="185.236,231.562 181.487,233.023 179.935,236.735 176.455,227.866 			"/>
		</g>
	</g>
	<g>
		<g>
			<path fill="none" stroke="#000000" d="M176.579,206.942c23.238-27.796,61.522-30.348,86.96-4.659"/>
			<polygon points="258.93,202.894 262.669,201.405 264.194,197.682 267.739,206.524 			"/>
		</g>
	</g>
</g>
<g>
	<g>
		<line fill="none" stroke="#000000" x1="432.013" y1="217.025" x2="384.013" y2="217.025"/>
		<polygon points="429.205,220.729 430.777,217.025 429.205,213.321 437.982,217.025 		"/>
	</g>
</g>
<g>
	<g>
		<line fill="none" stroke="#000000" x1="152.04" y1="217.508" x2="70" y2="217.508"/>
		<polygon points="149.231,221.211 150.804,217.508 149.231,213.804 158.009,217.508 		"/>
	</g>
</g>
<g id="g3138" transform="translate(17.66781,-104.7056)">
	
		<radialGradient id="path3107_1_" cx="-52.6483" cy="-76.5601" r="16.1858" gradientTransform="matrix(1.5933 0 0 0.6358 110.2777 370.8905)" gradientUnits="userSpaceOnUse">
		<stop  offset="0" style="stop-color:#A2FF5F"/>
		<stop  offset="0.4082" style="stop-color:#A0FF5F"/>
		<stop  offset="0.5552" style="stop-color:#99FD5F"/>
		<stop  offset="0.66" style="stop-color:#8EFB5E"/>
		<stop  offset="0.7448" style="stop-color:#7DF85E"/>
		<stop  offset="0.8174" style="stop-color:#67F35D"/>
		<stop  offset="0.8817" style="stop-color:#4BEE5C"/>
		<stop  offset="0.9398" style="stop-color:#2BE85B"/>
		<stop  offset="0.9915" style="stop-color:#07E05A"/>
		<stop  offset="1" style="stop-color:#00DF5A"/>
	</radialGradient>
	<path id="path3107" fill="url(#path3107_1_)" stroke="#000000" d="M51.709,322.212c0,5.786-11.338,10.478-25.316,10.478
		c-13.981,0-25.315-4.689-25.315-10.478s11.334-10.476,25.315-10.476C40.37,311.738,51.709,316.425,51.709,322.212z"/>
	<g enable-background="new    ">
		<path d="M6.675,322.039c0-0.62-0.01-1.12-0.04-1.579h0.79l0.05,0.829h0.02c0.35-0.6,0.929-0.939,1.709-0.939
			c1.179,0,2.059,0.989,2.059,2.459c0,1.738-1.069,2.599-2.199,2.599c-0.649,0-1.199-0.28-1.489-0.76h-0.02v2.628H6.675V322.039z
			 M7.555,323.328c0,0.12,0.01,0.25,0.04,0.359c0.15,0.61,0.69,1.029,1.31,1.029c0.929,0,1.469-0.759,1.469-1.868
			c0-0.97-0.5-1.8-1.429-1.8c-0.6,0-1.169,0.42-1.339,1.08c-0.02,0.12-0.05,0.25-0.05,0.359V323.328z"/>
		<path d="M12.875,323.028c0.02,1.189,0.77,1.679,1.649,1.679c0.63,0,1.02-0.109,1.339-0.239l0.16,0.619
			c-0.31,0.14-0.85,0.31-1.619,0.31c-1.479,0-2.378-0.989-2.378-2.438c0-1.469,0.87-2.618,2.279-2.618
			c1.579,0,1.989,1.389,1.989,2.278c0,0.18-0.01,0.32-0.03,0.42L12.875,323.028z M15.444,322.398c0.01-0.55-0.23-1.429-1.209-1.429
			c-0.899,0-1.279,0.819-1.349,1.429H15.444z"/>
		<path d="M17.395,321.968c0-0.569-0.01-1.06-0.04-1.509h0.77l0.04,0.949h0.03c0.22-0.649,0.76-1.06,1.349-1.06
			c0.09,0,0.16,0.01,0.24,0.03v0.819c-0.1-0.01-0.19-0.021-0.31-0.021c-0.62,0-1.059,0.47-1.179,1.12
			c-0.02,0.13-0.03,0.27-0.03,0.42v2.578h-0.879L17.395,321.968z"/>
		<path d="M22.775,321.768c0-0.51-0.02-0.909-0.04-1.309h0.77l0.04,0.779h0.03c0.27-0.46,0.719-0.89,1.529-0.89
			c0.65,0,1.149,0.399,1.359,0.97h0.02c0.15-0.28,0.35-0.48,0.55-0.63c0.29-0.22,0.6-0.34,1.06-0.34c0.649,0,1.599,0.42,1.599,2.099
			v2.849h-0.86v-2.738c0-0.939-0.35-1.489-1.049-1.489c-0.51,0-0.89,0.37-1.049,0.789c-0.04,0.13-0.07,0.29-0.07,0.44v2.998h-0.86
			v-2.898c0-0.779-0.34-1.329-1.009-1.329c-0.54,0-0.95,0.439-1.089,0.879c-0.05,0.131-0.07,0.28-0.07,0.431v2.918h-0.86V321.768z"
			/>
		<path d="M31.145,318.66c0.439-0.09,1.079-0.149,1.669-0.149c0.93,0,1.539,0.18,1.959,0.56c0.33,0.29,0.53,0.75,0.53,1.279
			c0,0.88-0.57,1.469-1.27,1.709v0.03c0.51,0.18,0.82,0.659,0.99,1.359c0.22,0.939,0.379,1.589,0.509,1.849h-0.899
			c-0.11-0.189-0.26-0.77-0.439-1.609c-0.2-0.93-0.57-1.279-1.359-1.309h-0.82v2.918h-0.869V318.66z M32.014,321.718h0.89
			c0.93,0,1.519-0.51,1.519-1.279c0-0.869-0.629-1.249-1.549-1.249c-0.42,0-0.71,0.04-0.86,0.08V321.718z"/>
		<path d="M36.525,325.296v-6.736h0.959l2.148,3.408c0.49,0.789,0.89,1.489,1.2,2.188l0.03-0.01c-0.08-0.899-0.1-1.719-0.1-2.759
			v-2.828h0.82v6.736h-0.879l-2.139-3.418c-0.47-0.75-0.919-1.52-1.249-2.249l-0.03,0.01c0.05,0.85,0.06,1.659,0.06,2.778v2.879
			H36.525z"/>
		<path d="M44.195,323.177l-0.7,2.119h-0.899l2.289-6.736h1.049l2.299,6.736h-0.93l-0.719-2.119H44.195z M46.403,322.498
			l-0.669-1.938c-0.14-0.439-0.24-0.84-0.34-1.229h-0.03c-0.09,0.39-0.2,0.81-0.33,1.22l-0.66,1.948H46.403z"/>
	</g>
</g>
<g>
	
		<radialGradient id="path16609_1_" cx="247.1324" cy="-432.2197" r="18.2633" gradientTransform="matrix(1.5933 0 0 0.6358 -26.2486 367.6014)" gradientUnits="userSpaceOnUse">
		<stop  offset="0" style="stop-color:#A2FF5F"/>
		<stop  offset="0.4082" style="stop-color:#A0FF5F"/>
		<stop  offset="0.5552" style="stop-color:#99FD5F"/>
		<stop  offset="0.66" style="stop-color:#8EFB5E"/>
		<stop  offset="0.7448" style="stop-color:#7DF85E"/>
		<stop  offset="0.8174" style="stop-color:#67F35D"/>
		<stop  offset="0.8817" style="stop-color:#4BEE5C"/>
		<stop  offset="0.9398" style="stop-color:#2BE85B"/>
		<stop  offset="0.9915" style="stop-color:#07E05A"/>
		<stop  offset="1" style="stop-color:#00DF5A"/>
	</radialGradient>
	<path id="path16609" fill="url(#path16609_1_)" stroke="#000000" d="M396.072,92.795c0,6.529-12.793,11.823-28.566,11.823
		c-15.775,0-28.564-5.292-28.564-11.823s12.789-11.82,28.564-11.82C383.279,80.976,396.072,86.265,396.072,92.795z"/>
	<g>
		<path d="M343.876,92.203c0-0.51-0.01-0.91-0.041-1.31h0.779l0.051,0.79h0.02c0.24-0.45,0.801-0.899,1.6-0.899
			c0.67,0,1.709,0.4,1.709,2.059v2.888h-0.879v-2.789c0-0.779-0.291-1.439-1.119-1.439c-0.57,0-1.02,0.41-1.18,0.899
			c-0.041,0.11-0.061,0.27-0.061,0.41v2.918h-0.879V92.203z"/>
		<path d="M353.474,94.412c0,0.5,0.01,0.939,0.039,1.319h-0.779l-0.049-0.79h-0.021c-0.219,0.39-0.738,0.899-1.598,0.899
			c-0.76,0-1.67-0.43-1.67-2.119v-2.829h0.879v2.668c0,0.919,0.291,1.549,1.08,1.549c0.59,0,1-0.41,1.16-0.81
			c0.049-0.12,0.078-0.28,0.078-0.45v-2.958h0.881V94.412z"/>
		<path d="M358.384,95.561c-0.23,0.11-0.74,0.28-1.391,0.28c-1.459,0-2.408-0.989-2.408-2.479s1.02-2.579,2.6-2.579
			c0.52,0,0.979,0.13,1.219,0.26l-0.199,0.67c-0.211-0.11-0.541-0.23-1.02-0.23c-1.109,0-1.709,0.83-1.709,1.839
			c0,1.12,0.719,1.809,1.678,1.809c0.5,0,0.83-0.12,1.08-0.23L358.384,95.561z"/>
		<path d="M359.416,88.635h0.879v7.096h-0.879V88.635z"/>
		<path d="M362.255,93.462c0.02,1.189,0.77,1.679,1.648,1.679c0.629,0,1.02-0.11,1.34-0.24l0.16,0.62
			c-0.311,0.14-0.85,0.31-1.619,0.31c-1.48,0-2.379-0.99-2.379-2.439c0-1.469,0.869-2.619,2.277-2.619c1.58,0,1.99,1.39,1.99,2.279
			c0,0.18-0.01,0.32-0.031,0.42L362.255,93.462z M364.824,92.833c0.01-0.55-0.23-1.429-1.209-1.429c-0.9,0-1.279,0.819-1.35,1.429
			H364.824z"/>
		<path d="M370.173,94.572c0,0.419,0.02,0.83,0.07,1.159h-0.791l-0.08-0.61h-0.029c-0.26,0.38-0.789,0.72-1.479,0.72
			c-0.98,0-1.48-0.689-1.48-1.389c0-1.169,1.041-1.809,2.908-1.799v-0.1c0-0.4-0.109-1.129-1.098-1.12c-0.461,0-0.93,0.13-1.27,0.36
			l-0.201-0.589c0.4-0.25,0.99-0.42,1.6-0.42c1.49,0,1.85,1.009,1.85,1.979V94.572z M369.314,93.262
			c-0.961-0.02-2.049,0.15-2.049,1.089c0,0.58,0.379,0.84,0.818,0.84c0.641,0,1.051-0.4,1.189-0.81
			c0.031-0.09,0.041-0.19,0.041-0.28V93.262z"/>
		<path d="M371.595,92.403c0-0.57-0.01-1.06-0.041-1.509h0.77l0.041,0.95h0.029c0.221-0.65,0.76-1.06,1.35-1.06
			c0.09,0,0.16,0.01,0.24,0.03v0.82c-0.1-0.01-0.189-0.02-0.311-0.02c-0.619,0-1.059,0.47-1.18,1.119
			c-0.02,0.13-0.029,0.27-0.029,0.42v2.579h-0.879L371.595,92.403z"/>
		<path d="M377.005,89.084c0.42-0.08,0.969-0.14,1.668-0.14c0.859,0,1.49,0.2,1.889,0.56c0.371,0.32,0.6,0.81,0.6,1.409
			c0,0.61-0.18,1.089-0.529,1.439c-0.459,0.49-1.209,0.739-2.059,0.739c-0.26,0-0.5-0.01-0.699-0.06v2.699h-0.869V89.084z
			 M377.875,92.323c0.189,0.05,0.439,0.07,0.719,0.07c1.061,0,1.689-0.52,1.689-1.429c0-0.899-0.629-1.329-1.59-1.329
			c-0.379,0-0.668,0.04-0.818,0.07V92.323z"/>
		<path d="M385.802,92.573h-2.607v2.429h2.918v0.729h-3.797v-6.736h3.646v0.729h-2.768v2.129h2.607V92.573z"/>
		<path d="M387.246,89.095c0.439-0.09,1.078-0.15,1.668-0.15c0.93,0,1.539,0.18,1.959,0.56c0.33,0.29,0.529,0.75,0.529,1.279
			c0,0.879-0.568,1.469-1.268,1.709v0.03c0.508,0.18,0.818,0.659,0.988,1.359c0.221,0.939,0.381,1.589,0.51,1.849h-0.898
			c-0.111-0.19-0.26-0.77-0.441-1.609c-0.199-0.93-0.568-1.279-1.359-1.31h-0.818v2.918h-0.869V89.095z M388.115,92.153h0.889
			c0.93,0,1.52-0.51,1.52-1.279c0-0.87-0.629-1.249-1.549-1.249c-0.42,0-0.709,0.04-0.859,0.08V92.153z"/>
	</g>
</g>
<g>
	<g>
		<line fill="none" stroke="#000000" x1="368.667" y1="200.5" x2="368.667" y2="111.114"/>
		<polygon points="372.37,113.923 368.667,112.35 364.962,113.923 368.667,105.145 		"/>
		<polygon points="364.963,197.691 368.667,199.264 372.371,197.691 368.667,206.469 		"/>
	</g>
</g>
<g>
	<path d="M278.729,40.756V34.02h0.959l2.149,3.408c0.489,0.789,0.89,1.489,1.199,2.188l0.03-0.01
		c-0.08-0.899-0.101-1.719-0.101-2.759V34.02h0.819v6.736h-0.879l-2.139-3.418c-0.47-0.75-0.92-1.52-1.25-2.249l-0.029,0.01
		c0.05,0.85,0.06,1.659,0.06,2.778v2.879H278.729z"/>
	<path d="M289.317,39.437c0,0.5,0.01,0.939,0.04,1.319h-0.779l-0.05-0.79h-0.021c-0.22,0.391-0.739,0.9-1.599,0.9
		c-0.76,0-1.67-0.431-1.67-2.119v-2.828h0.88v2.668c0,0.92,0.29,1.549,1.079,1.549c0.59,0,1-0.409,1.16-0.81
		c0.05-0.119,0.079-0.279,0.079-0.449v-2.958h0.88V39.437z"/>
	<path d="M294.227,40.586c-0.229,0.11-0.739,0.28-1.39,0.28c-1.459,0-2.408-0.99-2.408-2.479c0-1.488,1.02-2.578,2.599-2.578
		c0.52,0,0.979,0.13,1.219,0.26l-0.199,0.67c-0.21-0.11-0.54-0.23-1.02-0.23c-1.109,0-1.709,0.83-1.709,1.84
		c0,1.119,0.72,1.809,1.679,1.809c0.5,0,0.83-0.12,1.079-0.229L294.227,40.586z"/>
	<path d="M295.259,33.66h0.88v7.096h-0.88V33.66z"/>
	<path d="M298.099,38.487c0.02,1.189,0.77,1.679,1.649,1.679c0.629,0,1.019-0.109,1.339-0.239l0.16,0.619
		c-0.311,0.14-0.85,0.31-1.619,0.31c-1.479,0-2.379-0.989-2.379-2.438c0-1.469,0.869-2.618,2.278-2.618
		c1.579,0,1.989,1.389,1.989,2.278c0,0.18-0.01,0.32-0.03,0.42L298.099,38.487z M300.668,37.857c0.01-0.55-0.229-1.429-1.209-1.429
		c-0.899,0-1.279,0.819-1.35,1.429H300.668z"/>
	<path d="M306.657,39.437c0,0.5,0.01,0.939,0.04,1.319h-0.779l-0.05-0.79h-0.021c-0.22,0.391-0.739,0.9-1.599,0.9
		c-0.76,0-1.67-0.431-1.67-2.119v-2.828h0.88v2.668c0,0.92,0.29,1.549,1.079,1.549c0.59,0,1-0.409,1.16-0.81
		c0.05-0.119,0.079-0.279,0.079-0.449v-2.958h0.88V39.437z"/>
	<path d="M307.999,39.866c0.271,0.16,0.729,0.34,1.17,0.34c0.629,0,0.93-0.31,0.93-0.72c0-0.42-0.25-0.649-0.89-0.89
		c-0.88-0.319-1.29-0.789-1.29-1.369c0-0.779,0.64-1.419,1.67-1.419c0.489,0,0.919,0.13,1.179,0.3l-0.21,0.63
		c-0.189-0.11-0.539-0.28-0.989-0.28c-0.52,0-0.8,0.3-0.8,0.66c0,0.409,0.28,0.59,0.91,0.829c0.829,0.31,1.269,0.729,1.269,1.459
		c0,0.86-0.669,1.46-1.799,1.46c-0.529,0-1.02-0.141-1.359-0.34L307.999,39.866z"/>
</g>
<g>
	<path d="M106.957,40.546c-0.31,0.16-0.959,0.32-1.779,0.32c-1.899,0-3.318-1.2-3.318-3.419c0-2.118,1.429-3.538,3.518-3.538
		c0.83,0,1.369,0.181,1.599,0.3l-0.22,0.71c-0.32-0.16-0.79-0.279-1.35-0.279c-1.579,0-2.628,1.009-2.628,2.778
		c0,1.659,0.95,2.708,2.579,2.708c0.54,0,1.08-0.109,1.429-0.279L106.957,40.546z"/>
	<path d="M108.149,35.919l1.05,2.858c0.12,0.319,0.239,0.699,0.319,0.989h0.021c0.09-0.29,0.189-0.66,0.31-1.01l0.959-2.838h0.93
		l-1.319,3.447c-0.629,1.659-1.06,2.509-1.659,3.039c-0.439,0.369-0.859,0.52-1.079,0.56l-0.22-0.74c0.22-0.06,0.51-0.199,0.77-0.43
		c0.24-0.189,0.529-0.529,0.739-0.979c0.04-0.09,0.07-0.149,0.07-0.21c0-0.05-0.02-0.119-0.07-0.22l-1.779-4.467H108.149z"/>
	<path d="M113.598,34.759v1.16h1.259v0.669h-1.259v2.608c0,0.601,0.17,0.939,0.659,0.939c0.24,0,0.38-0.02,0.51-0.06l0.04,0.67
		c-0.17,0.06-0.439,0.12-0.779,0.12c-0.41,0-0.739-0.141-0.949-0.37c-0.24-0.27-0.34-0.699-0.34-1.27v-2.639h-0.75v-0.669h0.75
		v-0.89L113.598,34.759z"/>
	<path d="M117.757,40.866c-1.299,0-2.318-0.96-2.318-2.489c0-1.619,1.069-2.568,2.398-2.568c1.39,0,2.329,1.01,2.329,2.479
		c0,1.799-1.25,2.579-2.398,2.579H117.757z M117.788,40.206c0.84,0,1.469-0.789,1.469-1.889c0-0.819-0.409-1.85-1.449-1.85
		c-1.029,0-1.479,0.96-1.479,1.88c0,1.059,0.6,1.858,1.449,1.858H117.788z"/>
	<path d="M121.279,37.498c0-0.62-0.01-1.12-0.04-1.579h0.79l0.05,0.829h0.02c0.351-0.6,0.93-0.939,1.709-0.939
		c1.18,0,2.06,0.989,2.06,2.459c0,1.738-1.069,2.599-2.199,2.599c-0.649,0-1.199-0.28-1.489-0.76h-0.02v2.628h-0.88V37.498z
		 M122.159,38.787c0,0.12,0.01,0.25,0.04,0.359c0.149,0.61,0.689,1.029,1.309,1.029c0.93,0,1.47-0.759,1.47-1.868
		c0-0.97-0.5-1.8-1.43-1.8c-0.6,0-1.169,0.42-1.339,1.08c-0.021,0.12-0.05,0.25-0.05,0.359V38.787z"/>
	<path d="M126.968,33.66h0.88v7.096h-0.88V33.66z"/>
	<path d="M132.716,39.597c0,0.42,0.02,0.829,0.07,1.159h-0.79l-0.08-0.609h-0.029c-0.261,0.38-0.79,0.72-1.479,0.72
		c-0.979,0-1.479-0.69-1.479-1.39c0-1.169,1.04-1.809,2.908-1.799v-0.101c0-0.399-0.109-1.129-1.099-1.119
		c-0.46,0-0.93,0.13-1.27,0.36l-0.2-0.59c0.4-0.25,0.989-0.42,1.6-0.42c1.489,0,1.849,1.01,1.849,1.979V39.597z M131.857,38.287
		c-0.96-0.02-2.049,0.15-2.049,1.09c0,0.579,0.38,0.839,0.819,0.839c0.64,0,1.05-0.399,1.189-0.81c0.03-0.09,0.04-0.189,0.04-0.279
		V38.287z"/>
	<path d="M134.008,39.866c0.271,0.16,0.729,0.34,1.17,0.34c0.629,0,0.93-0.31,0.93-0.72c0-0.42-0.25-0.649-0.89-0.89
		c-0.88-0.319-1.29-0.789-1.29-1.369c0-0.779,0.64-1.419,1.67-1.419c0.489,0,0.919,0.13,1.179,0.3l-0.21,0.63
		c-0.189-0.11-0.539-0.28-0.989-0.28c-0.52,0-0.8,0.3-0.8,0.66c0,0.409,0.28,0.59,0.91,0.829c0.829,0.31,1.269,0.729,1.269,1.459
		c0,0.86-0.669,1.46-1.799,1.46c-0.529,0-1.02-0.141-1.359-0.34L134.008,39.866z"/>
	<path d="M138.088,37.228c0-0.51-0.02-0.909-0.04-1.309h0.77l0.04,0.779h0.03c0.27-0.46,0.72-0.89,1.529-0.89
		c0.649,0,1.149,0.399,1.359,0.97h0.02c0.15-0.28,0.35-0.48,0.55-0.63c0.29-0.22,0.6-0.34,1.06-0.34c0.649,0,1.599,0.42,1.599,2.099
		v2.849h-0.859v-2.738c0-0.939-0.35-1.489-1.049-1.489c-0.51,0-0.89,0.37-1.05,0.789c-0.04,0.13-0.07,0.29-0.07,0.44v2.998h-0.859
		v-2.898c0-0.779-0.34-1.329-1.01-1.329c-0.539,0-0.949,0.439-1.089,0.879c-0.05,0.131-0.07,0.28-0.07,0.431v2.918h-0.859V37.228z"
		/>
</g>
<path d="M190,92.5"/>
<g>
	<g>
		<g>
			<line fill="none" stroke="#000000" x1="43.429" y1="201" x2="43.429" y2="92.5"/>
			<polygon points="39.726,198.191 43.429,199.764 47.133,198.191 43.429,206.969 			"/>
		</g>
	</g>
	<g>
		<g>
			<line fill="none" stroke="#000000" x1="43.063" y1="92.5" x2="192.001" y2="92.5"/>
		</g>
	</g>
</g>
<line fill="#FF0000" stroke="#FF0000" x1="266.5" y1="92.578" x2="336" y2="92.578"/>
<path id="path33139_1_" fill="none" stroke="#000000" d="M266.397,94.839l0.024-4.521"/>
</svg>
