<?xml version="1.0" encoding="utf-8"?>
<!-- Generator: Adobe Illustrator 14.0.0, SVG Export Plug-In . SVG Version: 6.00 Build 43363)  -->
<!DOCTYPE svg PUBLIC "-//W3C//DTD SVG 1.1//EN" "http://www.w3.org/Graphics/SVG/1.1/DTD/svg11.dtd">
<svg version="1.1" id="Layer_1" xmlns="http://www.w3.org/2000/svg" xmlns:xlink="http://www.w3.org/1999/xlink" x="0px" y="0px"
	 width="246px" height="228px" viewBox="0 0 246 228" enable-background="new 0 0 246 228" xml:space="preserve">
<g>
	<g>
		<line fill="none" stroke="#000000" stroke-dasharray="3,3" x1="57.002" y1="64.391" x2="57.002" y2="116.27"/>
		<polygon points="53.298,113.461 57.002,115.034 60.706,113.461 57.002,122.239 		"/>
	</g>
</g>
<g>
	<g>
		<line fill="none" stroke="#000000" stroke-dasharray="3,3" x1="182.298" y1="61.725" x2="182.298" y2="114.938"/>
		<polygon points="178.594,112.128 182.298,113.701 186.002,112.128 182.298,120.906 		"/>
	</g>
</g>
<g id="g59398" transform="translate(21.16987,-31.23187)">
	<g id="g7045">
		<g id="g7047">
			<path id="path7049" fill="#BFDDFF" stroke="#0092DF" d="M89.031,227.894c1.288,0,2.333-1.045,2.333-2.333
				s-1.045-2.333-2.333-2.333c-1.288,0-2.333,1.045-2.333,2.333S87.743,227.894,89.031,227.894z"/>
			<path id="path7051" fill="none" stroke="#0092DF" d="M91.364,225.561h16.333"/>
		</g>
		<g id="g7053">
			<path id="path7055" fill="#BFDDFF" stroke="#0092DF" d="M89.031,222.544c1.288,0,2.333-1.045,2.333-2.334
				c0-1.287-1.045-2.332-2.333-2.332c-1.288,0-2.333,1.045-2.333,2.332C86.698,221.499,87.743,222.544,89.031,222.544z"/>
			<path id="path7057" fill="none" stroke="#0092DF" d="M91.364,220.21h16.333"/>
		</g>
		<g id="g7059">
			<path id="path7061" fill="#BFDDFF" stroke="#0092DF" d="M89.031,217.195c1.288,0,2.333-1.045,2.333-2.334
				c0-1.287-1.045-2.332-2.333-2.332c-1.288,0-2.333,1.045-2.333,2.332C86.698,216.15,87.743,217.195,89.031,217.195z"/>
			<path id="path7063" fill="none" stroke="#0092DF" d="M91.364,214.861h16.333"/>
		</g>
		<g id="g7065">
			<path id="path7067" fill="#BFDDFF" stroke="#0092DF" d="M89.031,243.947c1.288,0,2.333-1.045,2.333-2.334
				c0-1.287-1.045-2.332-2.333-2.332c-1.288,0-2.333,1.045-2.333,2.332C86.698,242.902,87.743,243.947,89.031,243.947z"/>
			<path id="path7069" fill="none" stroke="#0092DF" d="M91.364,241.613h16.333"/>
		</g>
		<g id="g7071">
			<path id="path7073" fill="#BFDDFF" stroke="#0092DF" d="M89.031,238.595c1.288,0,2.333-1.045,2.333-2.333
				s-1.045-2.333-2.333-2.333c-1.288,0-2.333,1.045-2.333,2.333S87.743,238.595,89.031,238.595z"/>
			<path id="path7075" fill="none" stroke="#0092DF" d="M91.364,236.262h16.333"/>
		</g>
		<g id="g7077">
			<path id="path7079" fill="#BFDDFF" stroke="#0092DF" d="M89.031,233.246c1.288,0,2.333-1.045,2.333-2.334
				c0-1.287-1.045-2.332-2.333-2.332c-1.288,0-2.333,1.045-2.333,2.332C86.698,232.201,87.743,233.246,89.031,233.246z"/>
			<path id="path7081" fill="none" stroke="#0092DF" d="M91.364,230.912h16.333"/>
		</g>
		<g id="g7083">
			<path id="path7085" fill="#BFDDFF" stroke="#0092DF" d="M111.932,230.57c-1.287,0-2.332-1.045-2.332-2.332
				c0-1.289,1.045-2.334,2.332-2.334c1.288,0,2.334,1.045,2.334,2.334C114.266,229.525,113.219,230.57,111.932,230.57z"/>
			<path id="path7087" fill="none" stroke="#0092DF" d="M109.6,228.238H93.265"/>
		</g>
		<g id="g7089">
			<path id="path7091" fill="#BFDDFF" stroke="#0092DF" d="M111.932,225.219c-1.287,0-2.332-1.045-2.332-2.333
				s1.045-2.333,2.332-2.333c1.288,0,2.334,1.045,2.334,2.333S113.219,225.219,111.932,225.219z"/>
			<path id="path7093" fill="none" stroke="#0092DF" d="M109.6,222.886H93.265"/>
		</g>
		<g id="g7095">
			<path id="path7097" fill="#BFDDFF" stroke="#0092DF" d="M111.932,219.869c-1.287,0-2.332-1.045-2.332-2.332
				c0-1.289,1.045-2.334,2.332-2.334c1.288,0,2.334,1.045,2.334,2.334C114.266,218.824,113.219,219.869,111.932,219.869z"/>
			<path id="path7099" fill="none" stroke="#0092DF" d="M109.6,217.537H93.265"/>
		</g>
		<g id="g7101">
			<path id="path7103" fill="#BFDDFF" stroke="#0092DF" d="M111.932,246.621c-1.287,0-2.332-1.045-2.332-2.332
				c0-1.289,1.045-2.334,2.332-2.334c1.288,0,2.334,1.045,2.334,2.334C114.266,245.576,113.219,246.621,111.932,246.621z"/>
			<path id="path7105" fill="none" stroke="#0092DF" d="M109.6,244.289H93.265"/>
		</g>
		<g id="g7107">
			<path id="path7109" fill="#BFDDFF" stroke="#0092DF" d="M111.932,241.271c-1.287,0-2.332-1.045-2.332-2.333
				s1.045-2.333,2.332-2.333c1.288,0,2.334,1.045,2.334,2.333S113.219,241.271,111.932,241.271z"/>
			<path id="path7111" fill="none" stroke="#0092DF" d="M109.6,238.938H93.265"/>
		</g>
		<g id="g7113">
			<path id="path7115" fill="#BFDDFF" stroke="#0092DF" d="M111.932,235.919c-1.287,0-2.332-1.045-2.332-2.332
				c0-1.288,1.045-2.334,2.332-2.334c1.288,0,2.334,1.046,2.334,2.334C114.266,234.874,113.219,235.919,111.932,235.919z"/>
			<path id="path7117" fill="none" stroke="#0092DF" d="M109.6,233.587H93.265"/>
		</g>
	</g>
	<g id="g7119">
		<g id="g7121">
			<path id="path7123" fill="#BFDDFF" stroke="#0092DF" d="M89.031,195.898c1.288,0,2.333-1.045,2.333-2.332
				c0-1.289-1.045-2.334-2.333-2.334c-1.288,0-2.333,1.045-2.333,2.334C86.698,194.853,87.743,195.898,89.031,195.898z"/>
			<path id="path7125" fill="none" stroke="#0092DF" d="M91.364,193.566h16.333"/>
		</g>
		<g id="g7127">
			<path id="path7129" fill="#BFDDFF" stroke="#0092DF" d="M89.031,190.548c1.288,0,2.333-1.045,2.333-2.333
				s-1.045-2.333-2.333-2.333c-1.288,0-2.333,1.045-2.333,2.333C86.698,189.501,87.743,190.548,89.031,190.548z"/>
			<path id="path7131" fill="none" stroke="#0092DF" d="M91.364,188.215h16.333"/>
		</g>
		<g id="g7133">
			<path id="path7135" fill="#BFDDFF" stroke="#0092DF" d="M89.031,185.197c1.288,0,2.333-1.045,2.333-2.332
				c0-1.289-1.045-2.334-2.333-2.334c-1.288,0-2.333,1.045-2.333,2.334C86.698,184.152,87.743,185.197,89.031,185.197z"/>
			<path id="path7137" fill="none" stroke="#0092DF" d="M91.364,182.865h16.333"/>
		</g>
		<g id="g7139">
			<path id="path7141" fill="#BFDDFF" stroke="#0092DF" d="M89.031,211.949c1.288,0,2.333-1.045,2.333-2.332
				c0-1.289-1.045-2.334-2.333-2.334c-1.288,0-2.333,1.045-2.333,2.334C86.698,210.904,87.743,211.949,89.031,211.949z"/>
			<path id="path7143" fill="none" stroke="#0092DF" d="M91.364,209.617h16.333"/>
		</g>
		<g id="g7145">
			<path id="path7147" fill="#BFDDFF" stroke="#0092DF" d="M89.031,206.599c1.288,0,2.333-1.045,2.333-2.333
				s-1.045-2.333-2.333-2.333c-1.288,0-2.333,1.045-2.333,2.333S87.743,206.599,89.031,206.599z"/>
			<path id="path7149" fill="none" stroke="#0092DF" d="M91.364,204.266h16.333"/>
		</g>
		<g id="g7151">
			<path id="path7153" fill="#BFDDFF" stroke="#0092DF" d="M89.031,201.247c1.288,0,2.333-1.045,2.333-2.332
				c0-1.289-1.045-2.334-2.333-2.334c-1.288,0-2.333,1.045-2.333,2.334C86.698,200.203,87.743,201.247,89.031,201.247z"/>
			<path id="path7155" fill="none" stroke="#0092DF" d="M91.364,198.915h16.333"/>
		</g>
		<g id="g7157">
			<path id="path7159" fill="#BFDDFF" stroke="#0092DF" d="M111.932,198.574c-1.287,0-2.332-1.045-2.332-2.334
				c0-1.287,1.045-2.332,2.332-2.332c1.288,0,2.334,1.045,2.334,2.332C114.266,197.529,113.219,198.574,111.932,198.574z"/>
			<path id="path7161" fill="none" stroke="#0092DF" d="M109.6,196.24H93.265"/>
		</g>
		<g id="g7163">
			<path id="path7165" fill="#BFDDFF" stroke="#0092DF" d="M111.932,193.222c-1.287,0-2.332-1.045-2.332-2.333
				s1.045-2.333,2.332-2.333c1.288,0,2.334,1.045,2.334,2.333S113.219,193.222,111.932,193.222z"/>
			<path id="path7167" fill="none" stroke="#0092DF" d="M109.6,190.89H93.265"/>
		</g>
		<g id="g7169">
			<path id="path7171" fill="#BFDDFF" stroke="#0092DF" d="M111.932,187.872c-1.287,0-2.332-1.045-2.332-2.334
				c0-1.287,1.045-2.332,2.332-2.332c1.288,0,2.334,1.045,2.334,2.332C114.266,186.828,113.219,187.872,111.932,187.872z"/>
			<path id="path7173" fill="none" stroke="#0092DF" d="M109.6,185.539H93.265"/>
		</g>
		<g id="g7175">
			<path id="path7177" fill="#BFDDFF" stroke="#0092DF" d="M111.932,214.624c-1.287,0-2.332-1.045-2.332-2.334
				c0-1.287,1.045-2.332,2.332-2.332c1.288,0,2.334,1.045,2.334,2.332C114.266,213.58,113.219,214.624,111.932,214.624z"/>
			<path id="path7179" fill="none" stroke="#0092DF" d="M109.6,212.292H93.265"/>
		</g>
		<g id="g7181">
			<path id="path7183" fill="#BFDDFF" stroke="#0092DF" d="M111.932,209.275c-1.287,0-2.332-1.046-2.332-2.334
				c0-1.287,1.045-2.332,2.332-2.332c1.288,0,2.334,1.045,2.334,2.332C114.266,208.229,113.219,209.275,111.932,209.275z"/>
			<path id="path7185" fill="none" stroke="#0092DF" d="M109.6,206.941H93.265"/>
		</g>
		<g id="g7187">
			<path id="path7189" fill="#BFDDFF" stroke="#0092DF" d="M111.932,203.924c-1.287,0-2.332-1.046-2.332-2.333
				c0-1.288,1.045-2.333,2.332-2.333c1.288,0,2.334,1.045,2.334,2.333C114.266,202.878,113.219,203.924,111.932,203.924z"/>
			<path id="path7191" fill="none" stroke="#0092DF" d="M109.6,201.591H93.265"/>
		</g>
	</g>
	<g id="g7193">
		<g id="g7195">
			<path id="path7197" fill="#BFDDFF" stroke="#0092DF" d="M89.031,163.902c1.288,0,2.333-1.046,2.333-2.334
				c0-1.287-1.045-2.332-2.333-2.332c-1.288,0-2.333,1.045-2.333,2.332C86.698,162.856,87.743,163.902,89.031,163.902z"/>
			<path id="path7199" fill="none" stroke="#0092DF" d="M91.364,161.568h16.333"/>
		</g>
		<g id="g7201">
			<path id="path7203" fill="#BFDDFF" stroke="#0092DF" d="M89.031,158.551c1.288,0,2.333-1.046,2.333-2.333
				c0-1.288-1.045-2.333-2.333-2.333c-1.288,0-2.333,1.045-2.333,2.333C86.698,157.505,87.743,158.551,89.031,158.551z"/>
			<path id="path7205" fill="none" stroke="#0092DF" d="M91.364,156.218h16.333"/>
		</g>
		<g id="g7207">
			<path id="path7209" fill="#BFDDFF" stroke="#0092DF" d="M89.031,153.201c1.288,0,2.333-1.045,2.333-2.334
				c0-1.287-1.045-2.332-2.333-2.332c-1.288,0-2.333,1.045-2.333,2.332C86.698,152.156,87.743,153.201,89.031,153.201z"/>
			<path id="path7211" fill="none" stroke="#0092DF" d="M91.364,150.867h16.333"/>
		</g>
		<g id="g7213">
			<path id="path7215" fill="#BFDDFF" stroke="#0092DF" d="M89.031,179.953c1.288,0,2.333-1.045,2.333-2.332
				c0-1.289-1.045-2.334-2.333-2.334c-1.288,0-2.333,1.045-2.333,2.334C86.698,178.908,87.743,179.953,89.031,179.953z"/>
			<path id="path7217" fill="none" stroke="#0092DF" d="M91.364,177.621h16.333"/>
		</g>
		<g id="g7219">
			<path id="path7221" fill="#BFDDFF" stroke="#0092DF" d="M89.031,174.602c1.288,0,2.333-1.045,2.333-2.333
				s-1.045-2.333-2.333-2.333c-1.288,0-2.333,1.045-2.333,2.333S87.743,174.602,89.031,174.602z"/>
			<path id="path7223" fill="none" stroke="#0092DF" d="M91.364,172.269h16.333"/>
		</g>
		<g id="g7225">
			<path id="path7227" fill="#BFDDFF" stroke="#0092DF" d="M89.031,169.251c1.288,0,2.333-1.045,2.333-2.332
				c0-1.288-1.045-2.334-2.333-2.334c-1.288,0-2.333,1.046-2.333,2.334C86.698,168.206,87.743,169.251,89.031,169.251z"/>
			<path id="path7229" fill="none" stroke="#0092DF" d="M91.364,166.919h16.333"/>
		</g>
		<g id="g7231">
			<path id="path7233" fill="#BFDDFF" stroke="#0092DF" d="M111.932,166.576c-1.287,0-2.332-1.045-2.332-2.332
				c0-1.289,1.045-2.334,2.332-2.334c1.288,0,2.334,1.045,2.334,2.334C114.266,165.531,113.219,166.576,111.932,166.576z"/>
			<path id="path7235" fill="none" stroke="#0092DF" d="M109.6,164.244H93.265"/>
		</g>
		<g id="g7237">
			<path id="path7239" fill="#BFDDFF" stroke="#0092DF" d="M111.932,161.226c-1.287,0-2.332-1.045-2.332-2.333
				s1.045-2.333,2.332-2.333c1.288,0,2.334,1.045,2.334,2.333S113.219,161.226,111.932,161.226z"/>
			<path id="path7241" fill="none" stroke="#0092DF" d="M109.6,158.893H93.265"/>
		</g>
		<g id="g7243">
			<path id="path7245" fill="#BFDDFF" stroke="#0092DF" d="M111.932,155.876c-1.287,0-2.332-1.045-2.332-2.334
				c0-1.287,1.045-2.332,2.332-2.332c1.288,0,2.334,1.045,2.334,2.332C114.266,154.831,113.219,155.876,111.932,155.876z"/>
			<path id="path7247" fill="none" stroke="#0092DF" d="M109.6,153.542H93.265"/>
		</g>
		<g id="g7249">
			<path id="path7251" fill="#BFDDFF" stroke="#0092DF" d="M111.932,182.628c-1.287,0-2.332-1.045-2.332-2.334
				c0-1.287,1.045-2.332,2.332-2.332c1.288,0,2.334,1.045,2.334,2.332C114.266,181.583,113.219,182.628,111.932,182.628z"/>
			<path id="path7253" fill="none" stroke="#0092DF" d="M109.6,180.294H93.265"/>
		</g>
		<g id="g7255">
			<path id="path7257" fill="#BFDDFF" stroke="#0092DF" d="M111.932,177.279c-1.287,0-2.332-1.045-2.332-2.334
				c0-1.287,1.045-2.332,2.332-2.332c1.288,0,2.334,1.045,2.334,2.332C114.266,176.234,113.219,177.279,111.932,177.279z"/>
			<path id="path7259" fill="none" stroke="#0092DF" d="M109.6,174.945H93.265"/>
		</g>
		<g id="g7261">
			<path id="path7263" fill="#BFDDFF" stroke="#0092DF" d="M111.932,171.927c-1.287,0-2.332-1.045-2.332-2.333
				s1.045-2.333,2.332-2.333c1.288,0,2.334,1.045,2.334,2.333S113.219,171.927,111.932,171.927z"/>
			<path id="path7265" fill="none" stroke="#0092DF" d="M109.6,169.594H93.265"/>
		</g>
	</g>
	<g id="g7267">
		<g id="g7269">
			<path id="path7271" fill="#BFDDFF" stroke="#0092DF" d="M89.031,131.905c1.288,0,2.333-1.045,2.333-2.333
				c0-1.288-1.045-2.333-2.333-2.333c-1.288,0-2.333,1.045-2.333,2.333C86.698,130.86,87.743,131.905,89.031,131.905z"/>
			<path id="path7273" fill="none" stroke="#0092DF" d="M91.364,129.572h16.333"/>
		</g>
		<g id="g7275">
			<path id="path7277" fill="#BFDDFF" stroke="#0092DF" d="M89.031,126.554c1.288,0,2.333-1.045,2.333-2.333
				s-1.045-2.333-2.333-2.333c-1.288,0-2.333,1.045-2.333,2.333S87.743,126.554,89.031,126.554z"/>
			<path id="path7279" fill="none" stroke="#0092DF" d="M91.364,124.221h16.333"/>
		</g>
		<g id="g7281">
			<path id="path7283" fill="#BFDDFF" stroke="#0092DF" d="M89.031,121.204c1.288,0,2.333-1.045,2.333-2.333
				s-1.045-2.333-2.333-2.333c-1.288,0-2.333,1.045-2.333,2.333S87.743,121.204,89.031,121.204z"/>
			<path id="path7285" fill="none" stroke="#0092DF" d="M91.364,118.871h16.333"/>
		</g>
		<g id="g7287">
			<path id="path7289" fill="#BFDDFF" stroke="#0092DF" d="M89.031,147.956c1.288,0,2.333-1.045,2.333-2.333
				c0-1.288-1.045-2.333-2.333-2.333c-1.288,0-2.333,1.045-2.333,2.333C86.698,146.912,87.743,147.956,89.031,147.956z"/>
			<path id="path7291" fill="none" stroke="#0092DF" d="M91.364,145.623h16.333"/>
		</g>
		<g id="g7293">
			<path id="path7295" fill="#BFDDFF" stroke="#0092DF" d="M89.031,142.606c1.288,0,2.333-1.045,2.333-2.333
				s-1.045-2.333-2.333-2.333c-1.288,0-2.333,1.045-2.333,2.333S87.743,142.606,89.031,142.606z"/>
			<path id="path7297" fill="none" stroke="#0092DF" d="M91.364,140.273h16.333"/>
		</g>
		<g id="g7299">
			<path id="path7301" fill="#BFDDFF" stroke="#0092DF" d="M89.031,137.255c1.288,0,2.333-1.045,2.333-2.333
				c0-1.288-1.045-2.333-2.333-2.333c-1.288,0-2.333,1.045-2.333,2.333C86.698,136.21,87.743,137.255,89.031,137.255z"/>
			<path id="path7303" fill="none" stroke="#0092DF" d="M91.364,134.922h16.333"/>
		</g>
		<g id="g7305">
			<path id="path7307" fill="#BFDDFF" stroke="#0092DF" d="M111.932,134.58c-1.287,0-2.332-1.045-2.332-2.333
				s1.045-2.333,2.332-2.333c1.288,0,2.334,1.045,2.334,2.333S113.219,134.58,111.932,134.58z"/>
			<path id="path7309" fill="none" stroke="#0092DF" d="M109.6,132.247H93.265"/>
		</g>
		<g id="g7311">
			<path id="path7313" fill="#BFDDFF" stroke="#0092DF" d="M111.932,129.229c-1.287,0-2.332-1.045-2.332-2.333
				s1.045-2.333,2.332-2.333c1.288,0,2.334,1.045,2.334,2.333S113.219,129.229,111.932,129.229z"/>
			<path id="path7315" fill="none" stroke="#0092DF" d="M109.6,126.896H93.265"/>
		</g>
		<g id="g7317">
			<path id="path7319" fill="#BFDDFF" stroke="#0092DF" d="M111.932,123.879c-1.287,0-2.332-1.045-2.332-2.333
				c0-1.288,1.045-2.333,2.332-2.333c1.288,0,2.334,1.045,2.334,2.333C114.266,122.834,113.219,123.879,111.932,123.879z"/>
			<path id="path7321" fill="none" stroke="#0092DF" d="M109.6,121.546H93.265"/>
		</g>
		<g id="g7323">
			<path id="path7325" fill="#BFDDFF" stroke="#0092DF" d="M111.932,150.63c-1.287,0-2.332-1.045-2.332-2.332
				c0-1.288,1.045-2.333,2.332-2.333c1.288,0,2.334,1.045,2.334,2.333C114.266,149.585,113.219,150.63,111.932,150.63z"/>
			<path id="path7327" fill="none" stroke="#0092DF" d="M109.6,148.299H93.265"/>
		</g>
		<g id="g7329">
			<path id="path7331" fill="#BFDDFF" stroke="#0092DF" d="M111.932,145.281c-1.287,0-2.332-1.045-2.332-2.333
				c0-1.288,1.045-2.333,2.332-2.333c1.288,0,2.334,1.045,2.334,2.333C114.266,144.236,113.219,145.281,111.932,145.281z"/>
			<path id="path7333" fill="none" stroke="#0092DF" d="M109.6,142.948H93.265"/>
		</g>
		<g id="g7335">
			<path id="path7337" fill="#BFDDFF" stroke="#0092DF" d="M111.932,139.93c-1.287,0-2.332-1.045-2.332-2.333
				s1.045-2.333,2.332-2.333c1.288,0,2.334,1.045,2.334,2.333S113.219,139.93,111.932,139.93z"/>
			<path id="path7339" fill="none" stroke="#0092DF" d="M109.6,137.597H93.265"/>
		</g>
	</g>
	<g id="g7341">
		<g id="g7343">
			<path id="path7345" fill="#BFDDFF" stroke="#0092DF" d="M89.031,99.908c1.288,0,2.333-1.045,2.333-2.333
				c0-1.288-1.045-2.333-2.333-2.333c-1.288,0-2.333,1.045-2.333,2.333C86.698,98.863,87.743,99.908,89.031,99.908z"/>
			<path id="path7347" fill="none" stroke="#0092DF" d="M91.364,97.575h16.333"/>
		</g>
		<g id="g7349">
			<path id="path7351" fill="#BFDDFF" stroke="#0092DF" d="M89.031,94.558c1.288,0,2.333-1.045,2.333-2.333
				s-1.045-2.333-2.333-2.333c-1.288,0-2.333,1.045-2.333,2.333C86.698,93.512,87.743,94.558,89.031,94.558z"/>
			<path id="path7353" fill="none" stroke="#0092DF" d="M91.364,92.225h16.333"/>
		</g>
		<g id="g7355">
			<path id="path7357" fill="#BFDDFF" stroke="#0092DF" d="M89.031,89.207c1.288,0,2.333-1.045,2.333-2.333
				s-1.045-2.333-2.333-2.333c-1.288,0-2.333,1.045-2.333,2.333S87.743,89.207,89.031,89.207z"/>
			<path id="path7359" fill="none" stroke="#0092DF" d="M91.364,86.874h16.333"/>
		</g>
		<g id="g7361">
			<path id="path7363" fill="#BFDDFF" stroke="#0092DF" d="M89.031,115.96c1.288,0,2.333-1.045,2.333-2.333
				s-1.045-2.333-2.333-2.333c-1.288,0-2.333,1.045-2.333,2.333S87.743,115.96,89.031,115.96z"/>
			<path id="path7365" fill="none" stroke="#0092DF" d="M91.364,113.627h16.333"/>
		</g>
		<g id="g7367">
			<path id="path7369" fill="#BFDDFF" stroke="#0092DF" d="M89.031,110.609c1.288,0,2.333-1.045,2.333-2.333
				s-1.045-2.333-2.333-2.333c-1.288,0-2.333,1.045-2.333,2.333S87.743,110.609,89.031,110.609z"/>
			<path id="path7371" fill="none" stroke="#0092DF" d="M91.364,108.276h16.333"/>
		</g>
		<g id="g7373">
			<path id="path7375" fill="#BFDDFF" stroke="#0092DF" d="M89.031,105.259c1.288,0,2.333-1.045,2.333-2.333
				c0-1.288-1.045-2.333-2.333-2.333c-1.288,0-2.333,1.045-2.333,2.333C86.698,104.214,87.743,105.259,89.031,105.259z"/>
			<path id="path7377" fill="none" stroke="#0092DF" d="M91.364,102.926h16.333"/>
		</g>
		<g id="g7379">
			<path id="path7381" fill="#BFDDFF" stroke="#0092DF" d="M111.932,102.583c-1.287,0-2.332-1.045-2.332-2.333
				s1.045-2.333,2.332-2.333c1.288,0,2.334,1.045,2.334,2.333S113.219,102.583,111.932,102.583z"/>
			<path id="path7383" fill="none" stroke="#0092DF" d="M109.6,100.25H93.265"/>
		</g>
		<g id="g7385">
			<path id="path7387" fill="#BFDDFF" stroke="#0092DF" d="M111.932,97.233c-1.287,0-2.332-1.045-2.332-2.333
				s1.045-2.333,2.332-2.333c1.288,0,2.334,1.045,2.334,2.333S113.219,97.233,111.932,97.233z"/>
			<path id="path7389" fill="none" stroke="#0092DF" d="M109.6,94.9H93.265"/>
		</g>
		<g id="g7391">
			<path id="path7393" fill="#BFDDFF" stroke="#0092DF" d="M111.932,91.883c-1.287,0-2.332-1.045-2.332-2.333
				c0-1.288,1.045-2.333,2.332-2.333c1.288,0,2.334,1.045,2.334,2.333C114.266,90.838,113.219,91.883,111.932,91.883z"/>
			<path id="path7395" fill="none" stroke="#0092DF" d="M109.6,89.55H93.265"/>
		</g>
		<g id="g7397">
			<path id="path7399" fill="#BFDDFF" stroke="#0092DF" d="M111.932,118.635c-1.287,0-2.332-1.045-2.332-2.333
				s1.045-2.333,2.332-2.333c1.288,0,2.334,1.045,2.334,2.333S113.219,118.635,111.932,118.635z"/>
			<path id="path7401" fill="none" stroke="#0092DF" d="M109.6,116.302H93.265"/>
		</g>
		<g id="g7403">
			<path id="path7405" fill="#BFDDFF" stroke="#0092DF" d="M111.932,113.284c-1.287,0-2.332-1.045-2.332-2.333
				s1.045-2.333,2.332-2.333c1.288,0,2.334,1.045,2.334,2.333S113.219,113.284,111.932,113.284z"/>
			<path id="path7407" fill="none" stroke="#0092DF" d="M109.6,110.951H93.265"/>
		</g>
		<g id="g7409">
			<path id="path7411" fill="#BFDDFF" stroke="#0092DF" d="M111.932,107.934c-1.287,0-2.332-1.045-2.332-2.333
				s1.045-2.333,2.332-2.333c1.288,0,2.334,1.045,2.334,2.333S113.219,107.934,111.932,107.934z"/>
			<path id="path7413" fill="none" stroke="#0092DF" d="M109.6,105.601H93.265"/>
		</g>
	</g>
	<g id="g7415">
		<g id="g7417">
			<path id="path7419" fill="#BFDDFF" stroke="#0092DF" d="M89.031,67.911c1.288,0,2.333-1.045,2.333-2.333
				s-1.045-2.333-2.333-2.333c-1.288,0-2.333,1.045-2.333,2.333S87.743,67.911,89.031,67.911z"/>
			<path id="path7421" fill="none" stroke="#0092DF" d="M91.364,65.578h16.333"/>
		</g>
		<g id="g7423">
			<path id="path7425" fill="#BFDDFF" stroke="#0092DF" d="M89.031,62.561c1.288,0,2.333-1.045,2.333-2.333
				s-1.045-2.333-2.333-2.333c-1.288,0-2.333,1.045-2.333,2.333S87.743,62.561,89.031,62.561z"/>
			<path id="path7427" fill="none" stroke="#0092DF" d="M91.364,60.228h16.333"/>
		</g>
		<g id="g7429">
			<path id="path7431" fill="#BFDDFF" stroke="#0092DF" d="M89.031,57.211c1.288,0,2.333-1.045,2.333-2.333
				c0-1.288-1.045-2.333-2.333-2.333c-1.288,0-2.333,1.045-2.333,2.333C86.698,56.166,87.743,57.211,89.031,57.211z"/>
			<path id="path7433" fill="none" stroke="#0092DF" d="M91.364,54.878h16.333"/>
		</g>
		<g id="g7435">
			<path id="path7437" fill="#BFDDFF" stroke="#0092DF" d="M89.031,83.963c1.288,0,2.333-1.045,2.333-2.333
				c0-1.288-1.045-2.333-2.333-2.333c-1.288,0-2.333,1.045-2.333,2.333C86.698,82.918,87.743,83.963,89.031,83.963z"/>
			<path id="path7439" fill="none" stroke="#0092DF" d="M91.364,81.63h16.333"/>
		</g>
		<g id="g7441">
			<path id="path7443" fill="#BFDDFF" stroke="#0092DF" d="M89.031,78.613c1.288,0,2.333-1.045,2.333-2.333
				c0-1.288-1.045-2.333-2.333-2.333c-1.288,0-2.333,1.045-2.333,2.333C86.698,77.568,87.743,78.613,89.031,78.613z"/>
			<path id="path7445" fill="none" stroke="#0092DF" d="M91.364,76.28h16.333"/>
		</g>
		<g id="g7447">
			<path id="path7449" fill="#BFDDFF" stroke="#0092DF" d="M89.031,73.262c1.288,0,2.333-1.045,2.333-2.333
				s-1.045-2.333-2.333-2.333c-1.288,0-2.333,1.045-2.333,2.333S87.743,73.262,89.031,73.262z"/>
			<path id="path7451" fill="none" stroke="#0092DF" d="M91.364,70.929h16.333"/>
		</g>
		<g id="g7453">
			<path id="path7455" fill="#BFDDFF" stroke="#0092DF" d="M111.932,70.587c-1.287,0-2.332-1.045-2.332-2.333
				c0-1.288,1.045-2.333,2.332-2.333c1.288,0,2.334,1.045,2.334,2.333C114.266,69.542,113.219,70.587,111.932,70.587z"/>
			<path id="path7457" fill="none" stroke="#0092DF" d="M109.6,68.254H93.265"/>
		</g>
		<g id="g7459">
			<path id="path7461" fill="#BFDDFF" stroke="#0092DF" d="M111.932,65.236c-1.287,0-2.332-1.045-2.332-2.333
				c0-1.288,1.045-2.333,2.332-2.333c1.288,0,2.334,1.045,2.334,2.333C114.266,64.191,113.219,65.236,111.932,65.236z"/>
			<path id="path7463" fill="none" stroke="#0092DF" d="M109.6,62.903H93.265"/>
		</g>
		<g id="g7465">
			<path id="path7467" fill="#BFDDFF" stroke="#0092DF" d="M111.932,59.886c-1.287,0-2.332-1.045-2.332-2.333
				s1.045-2.333,2.332-2.333c1.288,0,2.334,1.045,2.334,2.333S113.219,59.886,111.932,59.886z"/>
			<path id="path7469" fill="none" stroke="#0092DF" d="M109.6,57.553H93.265"/>
		</g>
		<g id="g7471">
			<path id="path7473" fill="#BFDDFF" stroke="#0092DF" d="M111.932,86.638c-1.287,0-2.332-1.045-2.332-2.333
				s1.045-2.333,2.332-2.333c1.288,0,2.334,1.045,2.334,2.333S113.219,86.638,111.932,86.638z"/>
			<path id="path7475" fill="none" stroke="#0092DF" d="M109.6,84.305H93.265"/>
		</g>
		<g id="g7477">
			<path id="path7479" fill="#BFDDFF" stroke="#0092DF" d="M111.932,81.288c-1.287,0-2.332-1.045-2.332-2.333
				s1.045-2.333,2.332-2.333c1.288,0,2.334,1.045,2.334,2.333S113.219,81.288,111.932,81.288z"/>
			<path id="path7481" fill="none" stroke="#0092DF" d="M109.6,78.955H93.265"/>
		</g>
		<g id="g7483">
			<path id="path7485" fill="#BFDDFF" stroke="#0092DF" d="M111.932,75.937c-1.287,0-2.332-1.045-2.332-2.333
				s1.045-2.333,2.332-2.333c1.288,0,2.334,1.045,2.334,2.333S113.219,75.937,111.932,75.937z"/>
			<path id="path7487" fill="none" stroke="#0092DF" d="M109.6,73.604H93.265"/>
		</g>
	</g>
</g>
<g>
	<g>
		
			<radialGradient id="path11134_1_" cx="443.3633" cy="286.6875" r="30.189" gradientTransform="matrix(0.3664 0 0 -0.3664 -139.847 230.5867)" gradientUnits="userSpaceOnUse">
			<stop  offset="0" style="stop-color:#FFFCDF"/>
			<stop  offset="0.1203" style="stop-color:#FFFBDA"/>
			<stop  offset="0.2662" style="stop-color:#FFF9CB"/>
			<stop  offset="0.4255" style="stop-color:#FFF6B2"/>
			<stop  offset="0.5943" style="stop-color:#FFF090"/>
			<stop  offset="0.7706" style="stop-color:#FFEA64"/>
			<stop  offset="0.9506" style="stop-color:#FFE22F"/>
			<stop  offset="1" style="stop-color:#FFE01F"/>
		</radialGradient>
		<path id="path11134_3_" fill="url(#path11134_1_)" stroke="#000000" stroke-width="0.9921" d="M33.662,125.546
			c0,6.106-4.952,11.06-11.06,11.06c-6.11,0-11.062-4.953-11.062-11.06s4.951-11.063,11.062-11.063
			C28.71,114.483,33.662,119.438,33.662,125.546z"/>
		<g>
			<path d="M18.57,129.828c-0.338,0.174-1.046,0.35-1.939,0.35c-2.07,0-3.617-1.309-3.617-3.727c0-2.311,1.558-3.857,3.835-3.857
				c0.904,0,1.493,0.197,1.743,0.328l-0.24,0.773c-0.349-0.176-0.86-0.307-1.471-0.307c-1.721,0-2.865,1.102-2.865,3.028
				c0,1.81,1.035,2.953,2.811,2.953c0.588,0,1.176-0.121,1.558-0.306L18.57,129.828z"/>
			<path d="M23.377,128.793c0,0.457,0.022,0.904,0.077,1.264h-0.861l-0.087-0.664h-0.033c-0.283,0.414-0.86,0.785-1.612,0.785
				c-1.067,0-1.612-0.752-1.612-1.516c0-1.273,1.133-1.971,3.17-1.961v-0.109c0-0.436-0.12-1.23-1.198-1.219
				c-0.501,0-1.014,0.141-1.384,0.391l-0.218-0.643c0.436-0.271,1.078-0.457,1.743-0.457c1.623,0,2.015,1.1,2.015,2.158V128.793z
				 M22.44,127.365c-1.046-0.021-2.233,0.164-2.233,1.188c0,0.633,0.414,0.916,0.894,0.916c0.697,0,1.144-0.436,1.296-0.883
				c0.033-0.098,0.043-0.207,0.043-0.305V127.365z"/>
			<path d="M24.464,126.428v-0.412l0.526-0.512c1.267-1.205,1.847-1.846,1.847-2.594c0-0.504-0.237-0.969-0.977-0.969
				c-0.45,0-0.824,0.229-1.053,0.42l-0.213-0.473c0.335-0.283,0.832-0.505,1.404-0.505c1.061,0,1.51,0.732,1.51,1.441
				c0,0.916-0.664,1.655-1.709,2.661l-0.389,0.367v0.017h2.22v0.557L24.464,126.428L24.464,126.428z"/>
			<path d="M30.552,122.369v1.793h1.724v0.457h-1.724v1.809h-0.488v-1.809H28.34v-0.457h1.724v-1.793H30.552z"/>
		</g>
	</g>
	<g>
		<path d="M31.587,137.262c-0.264,0-0.44-0.207-0.44-0.455s0.184-0.449,0.456-0.449s0.448,0.201,0.448,0.449
			s-0.176,0.455-0.456,0.455H31.587z M31.251,141.844v-3.871h0.704v3.871H31.251z"/>
	</g>
</g>
<g>
	<g>
		<g>
			<line fill="none" stroke="#000000" x1="195.85" y1="124.941" x2="147.85" y2="124.941"/>
			<polygon points="193.041,128.646 194.613,124.941 193.041,121.238 201.818,124.941 			"/>
		</g>
	</g>
	<g>
		<g>
			<line fill="none" stroke="#000000" x1="150.85" y1="133.385" x2="198.85" y2="133.385"/>
			<polygon points="153.658,129.682 152.085,133.385 153.658,137.088 144.88,133.385 			"/>
		</g>
	</g>
</g>
<g>
	<g>
		
			<radialGradient id="path11134_2_" cx="982.2832" cy="286.2832" r="30.189" gradientTransform="matrix(0.3664 0 0 -0.3664 -139.847 230.5867)" gradientUnits="userSpaceOnUse">
			<stop  offset="0" style="stop-color:#FFFCDF"/>
			<stop  offset="0.1203" style="stop-color:#FFFBDA"/>
			<stop  offset="0.2662" style="stop-color:#FFF9CB"/>
			<stop  offset="0.4255" style="stop-color:#FFF6B2"/>
			<stop  offset="0.5943" style="stop-color:#FFF090"/>
			<stop  offset="0.7706" style="stop-color:#FFEA64"/>
			<stop  offset="0.9506" style="stop-color:#FFE22F"/>
			<stop  offset="1" style="stop-color:#FFE01F"/>
		</radialGradient>
		<path id="path11134_4_" fill="url(#path11134_2_)" stroke="#000000" stroke-width="0.9921" d="M231.122,125.693
			c0,6.106-4.952,11.061-11.06,11.061c-6.11,0-11.062-4.953-11.062-11.061c0-6.108,4.951-11.062,11.062-11.062
			C226.17,114.631,231.122,119.586,231.122,125.693z"/>
		<g>
			<path d="M216.029,129.979c-0.338,0.174-1.045,0.349-1.938,0.349c-2.069,0-3.616-1.308-3.616-3.728
				c0-2.31,1.558-3.855,3.834-3.855c0.904,0,1.492,0.195,1.743,0.326l-0.239,0.773c-0.35-0.175-0.86-0.306-1.471-0.306
				c-1.722,0-2.865,1.101-2.865,3.028c0,1.81,1.035,2.953,2.812,2.953c0.588,0,1.176-0.121,1.558-0.306L216.029,129.979z"/>
			<path d="M220.838,128.941c0,0.457,0.021,0.904,0.076,1.265h-0.861l-0.087-0.665h-0.032c-0.283,0.414-0.86,0.785-1.613,0.785
				c-1.065,0-1.61-0.752-1.61-1.516c0-1.273,1.133-1.972,3.17-1.961v-0.108c0-0.437-0.12-1.23-1.198-1.22
				c-0.5,0-1.014,0.142-1.384,0.392l-0.218-0.644c0.436-0.271,1.078-0.457,1.743-0.457c1.622,0,2.016,1.101,2.016,2.158
				L220.838,128.941L220.838,128.941z M219.9,127.516c-1.047-0.021-2.233,0.164-2.233,1.188c0,0.632,0.414,0.916,0.894,0.916
				c0.697,0,1.146-0.438,1.297-0.883c0.033-0.1,0.043-0.207,0.043-0.305V127.516L219.9,127.516z"/>
			<path d="M221.924,126.576v-0.412l0.526-0.512c1.267-1.205,1.847-1.846,1.847-2.594c0-0.504-0.236-0.97-0.977-0.97
				c-0.45,0-0.824,0.229-1.053,0.42l-0.215-0.473c0.336-0.283,0.831-0.504,1.403-0.504c1.062,0,1.511,0.731,1.511,1.44
				c0,0.916-0.662,1.656-1.709,2.663l-0.389,0.366v0.016h2.22v0.558L221.924,126.576L221.924,126.576z"/>
			<path d="M228.012,122.518v1.793h1.725v0.457h-1.725v1.81h-0.488v-1.81H225.8v-0.457h1.724v-1.793H228.012z"/>
		</g>
	</g>
	<g>
		<path d="M228.275,141.695v-5.389h0.768l1.719,2.727c0.393,0.631,0.711,1.191,0.959,1.75l0.024-0.008
			c-0.063-0.719-0.079-1.375-0.079-2.207v-2.262h0.654v5.389h-0.703l-1.711-2.734c-0.377-0.6-0.736-1.217-1-1.799l-0.023,0.008
			c0.04,0.68,0.049,1.326,0.049,2.223v2.304L228.275,141.695L228.275,141.695z"/>
		<path d="M233.451,140.848c0.312,0.199,0.76,0.353,1.238,0.353c0.713,0,1.127-0.367,1.127-0.92c0-0.496-0.287-0.791-1.014-1.063
			c-0.882-0.32-1.425-0.783-1.425-1.535c0-0.84,0.695-1.463,1.743-1.463c0.544,0,0.951,0.127,1.184,0.264l-0.191,0.566
			c-0.168-0.104-0.527-0.256-1.016-0.256c-0.736,0-1.017,0.439-1.017,0.809c0,0.504,0.328,0.752,1.071,1.039
			c0.912,0.359,1.367,0.791,1.367,1.584c0,0.83-0.606,1.56-1.879,1.56c-0.52,0-1.088-0.16-1.375-0.353L233.451,140.848z"/>
		<path d="M237.482,136.387c0.353-0.072,0.863-0.121,1.336-0.121c0.744,0,1.23,0.146,1.566,0.447c0.264,0.232,0.424,0.6,0.424,1.023
			c0,0.705-0.455,1.176-1.016,1.367v0.024c0.407,0.144,0.655,0.526,0.792,1.086c0.177,0.752,0.304,1.271,0.407,1.479h-0.721
			c-0.088-0.151-0.207-0.614-0.352-1.286c-0.16-0.744-0.455-1.023-1.088-1.05h-0.655v2.336h-0.696v-5.307H237.482z M238.18,138.832
			h0.711c0.743,0,1.215-0.408,1.215-1.023c0-0.694-0.504-1-1.238-1c-0.335,0-0.567,0.033-0.688,0.064V138.832z"/>
	</g>
</g>
<g>
	<path d="M54.512,40.222c-0.23,0.11-0.74,0.28-1.389,0.28c-1.459,0-2.409-0.989-2.409-2.479c0-1.49,1.02-2.579,2.599-2.579
		c0.52,0,0.979,0.13,1.219,0.26l-0.2,0.67c-0.209-0.11-0.54-0.23-1.019-0.23c-1.109,0-1.709,0.83-1.709,1.839
		c0,1.12,0.719,1.809,1.679,1.809c0.5,0,0.83-0.12,1.08-0.23L54.512,40.222z"/>
	<path d="M56.043,35.554l1.049,2.858c0.12,0.32,0.24,0.7,0.32,0.99h0.02c0.09-0.29,0.19-0.66,0.31-1.01l0.959-2.838h0.93
		l-1.319,3.448c-0.63,1.659-1.06,2.508-1.659,3.038c-0.44,0.37-0.859,0.52-1.08,0.56l-0.22-0.74c0.22-0.06,0.51-0.2,0.77-0.43
		c0.24-0.19,0.53-0.53,0.74-0.979c0.04-0.09,0.07-0.15,0.07-0.21c0-0.05-0.02-0.12-0.07-0.22l-1.779-4.468h0.959V35.554z"/>
	<path d="M61.493,34.395v1.159h1.259v0.67h-1.259v2.608c0,0.6,0.17,0.939,0.66,0.939c0.24,0,0.38-0.02,0.51-0.06l0.04,0.67
		c-0.17,0.06-0.44,0.12-0.78,0.12c-0.41,0-0.74-0.14-0.949-0.37c-0.24-0.27-0.34-0.7-0.34-1.27v-2.638h-0.75v-0.67h0.75v-0.89
		L61.493,34.395z"/>
	<path d="M65.652,40.501c-1.299,0-2.319-0.959-2.319-2.489c0-1.619,1.069-2.568,2.398-2.568c1.389,0,2.329,1.009,2.329,2.479
		c0,1.799-1.25,2.579-2.399,2.579L65.652,40.501L65.652,40.501z M65.682,39.842c0.839,0,1.469-0.79,1.469-1.889
		c0-0.82-0.41-1.849-1.449-1.849c-1.029,0-1.479,0.959-1.479,1.879c0,1.06,0.6,1.859,1.449,1.859H65.682z"/>
	<path d="M69.054,39.502c0.27,0.16,0.729,0.34,1.169,0.34c0.63,0,0.93-0.31,0.93-0.72c0-0.419-0.25-0.649-0.89-0.889
		c-0.879-0.32-1.289-0.79-1.289-1.369c0-0.78,0.64-1.419,1.669-1.419c0.49,0,0.919,0.13,1.179,0.3l-0.209,0.63
		c-0.19-0.11-0.54-0.28-0.99-0.28c-0.52,0-0.799,0.3-0.799,0.66c0,0.41,0.28,0.59,0.909,0.83c0.83,0.31,1.27,0.729,1.27,1.459
		c0,0.859-0.67,1.459-1.799,1.459c-0.529,0-1.019-0.14-1.359-0.34L69.054,39.502z"/>
	<path d="M75.103,40.501c-1.299,0-2.319-0.959-2.319-2.489c0-1.619,1.069-2.568,2.398-2.568c1.389,0,2.329,1.009,2.329,2.479
		c0,1.799-1.25,2.579-2.399,2.579L75.103,40.501L75.103,40.501z M75.132,39.842c0.839,0,1.469-0.79,1.469-1.889
		c0-0.82-0.41-1.849-1.449-1.849c-1.029,0-1.479,0.959-1.479,1.879c0,1.06,0.6,1.859,1.449,1.859H75.132z"/>
	<path d="M78.623,33.295h0.879v7.096h-0.879V33.295z"/>
</g>
<g>
	<path d="M167.982,38.999c0.391,0.25,0.951,0.44,1.551,0.44c0.889,0,1.408-0.46,1.408-1.149c0-0.62-0.359-0.989-1.27-1.329
		c-1.1-0.4-1.779-0.979-1.779-1.919c0-1.05,0.871-1.829,2.18-1.829c0.68,0,1.189,0.16,1.479,0.33l-0.238,0.71
		c-0.211-0.13-0.66-0.32-1.271-0.32c-0.92,0-1.271,0.549-1.271,1.009c0,0.63,0.41,0.939,1.34,1.299
		c1.14,0.45,1.709,0.989,1.709,1.979c0,1.039-0.76,1.949-2.35,1.949c-0.648,0-1.359-0.2-1.719-0.439L167.982,38.999z"/>
	<path d="M173.023,33.422c0.438-0.09,1.08-0.15,1.67-0.15c0.93,0,1.539,0.18,1.959,0.56c0.328,0.29,0.529,0.75,0.529,1.279
		c0,0.879-0.57,1.469-1.271,1.709v0.03c0.51,0.18,0.819,0.659,0.989,1.359c0.22,0.939,0.379,1.589,0.51,1.849h-0.898
		c-0.109-0.19-0.261-0.77-0.439-1.609c-0.2-0.93-0.57-1.279-1.359-1.31h-0.82v2.918h-0.869V33.422L173.023,33.422z M173.893,36.48
		h0.892c0.93,0,1.519-0.51,1.519-1.279c0-0.87-0.63-1.249-1.549-1.249c-0.42,0-0.71,0.04-0.859,0.08v2.448H173.893z"/>
</g>
<g>
	
		<radialGradient id="path31151_1_" cx="41.2349" cy="407.9727" r="16.6899" gradientTransform="matrix(1 0 0 1 134.811 -347.8633)" gradientUnits="userSpaceOnUse">
		<stop  offset="0" style="stop-color:#FFDD9E"/>
		<stop  offset="0.2912" style="stop-color:#FFDA9C"/>
		<stop  offset="0.4343" style="stop-color:#FFD297"/>
		<stop  offset="0.545" style="stop-color:#FCC58E"/>
		<stop  offset="0.6392" style="stop-color:#F9B180"/>
		<stop  offset="0.7229" style="stop-color:#F69971"/>
		<stop  offset="0.799" style="stop-color:#F37B5C"/>
		<stop  offset="0.8695" style="stop-color:#F05B45"/>
		<stop  offset="0.9348" style="stop-color:#EE392D"/>
		<stop  offset="0.9951" style="stop-color:#EC2224"/>
		<stop  offset="1" style="stop-color:#EC2224"/>
	</radialGradient>
	<path id="path31151_2_" fill="url(#path31151_1_)" stroke="#000000" d="M188.45,52.996l8.239,7.041l-7.393,6.469
		c-3.332,3.045-8.97,5.047-15.367,5.047c-10.229,0-18.527-5.127-18.527-11.443c0-6.324,8.295-11.445,18.527-11.445
		C179.812,48.662,185.057,50.355,188.45,52.996z"/>
	<g>
		<path d="M167.109,62.833c-0.312,0.16-0.961,0.32-1.779,0.32c-1.898,0-3.318-1.2-3.318-3.419c0-2.118,1.43-3.538,3.518-3.538
			c0.83,0,1.369,0.181,1.601,0.3l-0.22,0.71c-0.319-0.16-0.79-0.279-1.35-0.279c-1.58,0-2.629,1.009-2.629,2.778
			c0,1.659,0.949,2.708,2.578,2.708c0.539,0,1.08-0.109,1.43-0.279L167.109,62.833z"/>
		<path d="M171.52,61.883c0,0.42,0.021,0.829,0.07,1.159h-0.79l-0.079-0.609h-0.031c-0.26,0.38-0.789,0.72-1.479,0.72
			c-0.979,0-1.479-0.69-1.479-1.39c0-1.169,1.039-1.809,2.908-1.799v-0.101c0-0.399-0.109-1.129-1.1-1.119
			c-0.46,0-0.93,0.13-1.27,0.36l-0.201-0.59c0.4-0.25,0.99-0.42,1.6-0.42c1.49,0,1.85,1.01,1.85,1.979V61.883z M170.66,60.574
			c-0.959-0.02-2.049,0.15-2.049,1.09c0,0.579,0.379,0.839,0.818,0.839c0.641,0,1.051-0.399,1.189-0.81
			c0.029-0.09,0.04-0.189,0.04-0.279L170.66,60.574L170.66,60.574z"/>
		<path d="M178.639,60.084c-0.051-0.939-0.109-2.079-0.109-2.909h-0.021c-0.238,0.78-0.51,1.63-0.85,2.559l-1.189,3.269h-0.658
			l-1.1-3.208c-0.32-0.96-0.58-1.819-0.77-2.619h-0.021c-0.021,0.84-0.07,1.959-0.13,2.979l-0.181,2.889h-0.83l0.471-6.736h1.109
			l1.148,3.258c0.279,0.83,0.5,1.569,0.68,2.27h0.021c0.181-0.68,0.42-1.42,0.722-2.27l1.198-3.258h1.108l0.421,6.736h-0.86
			L178.639,60.084z"/>
		<path d="M181.002,56.306h0.869v3.248h0.029c0.18-0.26,0.359-0.5,0.529-0.72l2.06-2.528h1.079l-2.438,2.858l2.629,3.878h-1.03
			l-2.207-3.309l-0.649,0.74v2.568h-0.869L181.002,56.306L181.002,56.306z"/>
		<path d="M187.291,56.306v6.736h-0.88v-6.736H187.291z"/>
		<path d="M189.682,56.306v6.736h-0.881v-6.736H189.682z"/>
	</g>
</g>
<g>
	
		<radialGradient id="path16609_1_" cx="2.0737" cy="359.9717" r="16.186" gradientTransform="matrix(1.5933 0 0 -0.6358 117.5231 384.131)" gradientUnits="userSpaceOnUse">
		<stop  offset="0" style="stop-color:#C0FF6C"/>
		<stop  offset="0.4082" style="stop-color:#BFFF6C"/>
		<stop  offset="0.5552" style="stop-color:#BAFC6C"/>
		<stop  offset="0.66" style="stop-color:#B4FA6B"/>
		<stop  offset="0.7448" style="stop-color:#AAF76A"/>
		<stop  offset="0.8174" style="stop-color:#9EF269"/>
		<stop  offset="0.8817" style="stop-color:#91EC68"/>
		<stop  offset="0.9398" style="stop-color:#86E666"/>
		<stop  offset="0.9915" style="stop-color:#7EDE64"/>
		<stop  offset="1" style="stop-color:#7DDD64"/>
	</radialGradient>
	<path id="path16609_2_" fill="url(#path16609_1_)" stroke="#000000" d="M146.143,155.261c0,5.785-11.338,10.478-25.314,10.478
		c-13.981,0-25.315-4.689-25.315-10.478s11.334-10.477,25.315-10.477C134.805,144.786,146.143,149.475,146.143,155.261z"/>
	<g>
		<path d="M113.857,151.55c0.419-0.08,0.969-0.14,1.669-0.14c0.859,0,1.489,0.199,1.889,0.56c0.37,0.319,0.6,0.811,0.6,1.409
			c0,0.609-0.18,1.09-0.53,1.439c-0.46,0.488-1.209,0.738-2.059,0.738c-0.26,0-0.5-0.01-0.7-0.06v2.698h-0.869V151.55z
			 M114.727,154.788c0.19,0.05,0.44,0.069,0.72,0.069c1.06,0,1.689-0.52,1.689-1.43c0-0.898-0.629-1.328-1.589-1.328
			c-0.38,0-0.67,0.039-0.82,0.069V154.788z"/>
		<path d="M119.167,151.46h0.879v6.007h2.878v0.729h-3.758L119.167,151.46L119.167,151.46z"/>
		<path d="M123.896,151.561c0.379-0.091,0.99-0.149,1.59-0.149c0.869,0,1.429,0.149,1.839,0.489c0.35,0.26,0.569,0.66,0.569,1.188
			c0,0.66-0.438,1.229-1.139,1.479v0.029c0.641,0.149,1.389,0.68,1.389,1.68c0,0.58-0.229,1.02-0.58,1.35
			c-0.459,0.43-1.219,0.629-2.318,0.629c-0.6,0-1.061-0.04-1.35-0.079V151.561z M124.768,154.318h0.789
			c0.91,0,1.449-0.489,1.449-1.141c0-0.779-0.589-1.099-1.469-1.099c-0.4,0-0.63,0.028-0.77,0.06V154.318z M124.768,157.537
			c0.18,0.029,0.42,0.039,0.729,0.039c0.899,0,1.729-0.329,1.729-1.309c0-0.91-0.791-1.301-1.74-1.301h-0.719V157.537z"/>
	</g>
</g>
<g>
	<g>
		<g>
			<line fill="none" stroke="#000000" x1="92.849" y1="124.941" x2="44.849" y2="124.941"/>
			<polygon points="90.041,128.646 91.613,124.941 90.041,121.238 98.818,124.941 			"/>
		</g>
	</g>
	<g>
		<g>
			<line fill="none" stroke="#000000" x1="47.849" y1="133.384" x2="95.849" y2="133.384"/>
			<polygon points="50.658,129.68 49.085,133.384 50.658,137.088 41.88,133.384 			"/>
		</g>
	</g>
</g>
<g>
	
		<radialGradient id="path21243_2_" cx="-759.7441" cy="442.7344" r="17.835" gradientTransform="matrix(0 -1 -1 0 563.5625 -630.5811)" gradientUnits="userSpaceOnUse">
		<stop  offset="0" style="stop-color:#FFFCDF"/>
		<stop  offset="0.1203" style="stop-color:#FFFBDA"/>
		<stop  offset="0.2662" style="stop-color:#FFF9CB"/>
		<stop  offset="0.4255" style="stop-color:#FFF6B2"/>
		<stop  offset="0.5943" style="stop-color:#FFF090"/>
		<stop  offset="0.7706" style="stop-color:#FFEA64"/>
		<stop  offset="0.9506" style="stop-color:#FFE22F"/>
		<stop  offset="1" style="stop-color:#FFE01F"/>
	</radialGradient>
	<path id="path21243_1_" fill="url(#path21243_2_)" stroke="#000000" d="M120.828,111.328c9.85,0,17.834,7.986,17.834,17.834
		c0,9.854-7.984,17.836-17.834,17.836c-9.852,0-17.835-7.982-17.835-17.836C102.994,119.314,110.977,111.328,120.828,111.328z"/>
	<g>
		<path d="M111.482,130.223c-0.31,0.16-0.959,0.32-1.779,0.32c-1.899,0-3.318-1.2-3.318-3.419c0-2.118,1.429-3.538,3.518-3.538
			c0.83,0,1.369,0.182,1.599,0.3l-0.22,0.71c-0.32-0.16-0.79-0.279-1.35-0.279c-1.579,0-2.628,1.01-2.628,2.779
			c0,1.658,0.95,2.707,2.579,2.707c0.54,0,1.08-0.109,1.429-0.279L111.482,130.223z"/>
		<path d="M115.893,129.273c0,0.42,0.02,0.828,0.07,1.158h-0.79l-0.08-0.608h-0.03c-0.26,0.38-0.79,0.72-1.479,0.72
			c-0.979,0-1.479-0.689-1.479-1.391c0-1.168,1.04-1.809,2.909-1.799v-0.101c0-0.399-0.11-1.129-1.1-1.119
			c-0.459,0-0.929,0.13-1.269,0.36l-0.2-0.59c0.4-0.25,0.99-0.42,1.599-0.42c1.489,0,1.849,1.01,1.849,1.979V129.273z
			 M115.033,127.964c-0.959-0.021-2.049,0.15-2.049,1.091c0,0.578,0.379,0.838,0.819,0.838c0.64,0,1.049-0.398,1.189-0.81
			c0.03-0.09,0.04-0.188,0.04-0.278L115.033,127.964L115.033,127.964z"/>
		<path d="M117.03,133.021c0.273,0.174,0.666,0.308,1.086,0.308c0.623,0,0.987-0.322,0.987-0.806c0-0.435-0.252-0.692-0.89-0.932
			c-0.77-0.279-1.247-0.687-1.247-1.345c0-0.735,0.609-1.282,1.527-1.282c0.477,0,0.833,0.112,1.037,0.23l-0.168,0.498
			c-0.147-0.092-0.462-0.225-0.89-0.225c-0.644,0-0.89,0.385-0.89,0.707c0,0.441,0.288,0.658,0.939,0.91
			c0.798,0.314,1.197,0.693,1.197,1.387c0,0.729-0.532,1.366-1.646,1.366c-0.456,0-0.953-0.141-1.205-0.31L117.03,133.021z"/>
		<path d="M122.996,131.55h-1.828v1.701h2.045v0.513h-2.661v-4.722h2.556v0.513h-1.94v1.49h1.828V131.55z"/>
		<path d="M124.002,129.111c0.309-0.062,0.756-0.104,1.17-0.104c0.651,0,1.078,0.126,1.373,0.394
			c0.23,0.203,0.371,0.524,0.371,0.896c0,0.616-0.398,1.029-0.891,1.197v0.021c0.357,0.127,0.576,0.463,0.695,0.952
			c0.153,0.658,0.266,1.114,0.356,1.296h-0.63c-0.077-0.133-0.182-0.539-0.309-1.128c-0.14-0.651-0.398-0.896-0.953-0.917h-0.574
			v2.045h-0.608L124.002,129.111L124.002,129.111z M124.611,131.255h0.623c0.652,0,1.064-0.356,1.064-0.896
			c0-0.608-0.441-0.875-1.085-0.875c-0.294,0-0.498,0.027-0.603,0.056V131.255L124.611,131.255z"/>
		<path d="M131.081,133.615c-0.218,0.111-0.673,0.225-1.247,0.225c-1.331,0-2.325-0.841-2.325-2.396
			c0-1.483,1.003-2.479,2.466-2.479c0.582,0,0.959,0.126,1.121,0.21l-0.154,0.498c-0.225-0.112-0.553-0.196-0.945-0.196
			c-1.105,0-1.842,0.707-1.842,1.947c0,1.162,0.666,1.897,1.808,1.897c0.377,0,0.756-0.077,1.001-0.196L131.081,133.615z"/>
		<path d="M132.641,132.277l-0.49,1.484h-0.631l1.604-4.721h0.735l1.611,4.721h-0.652l-0.504-1.484H132.641z M134.188,131.802
			l-0.47-1.358c-0.098-0.309-0.168-0.588-0.237-0.861h-0.021c-0.062,0.273-0.141,0.566-0.23,0.854l-0.463,1.366H134.188z"/>
	</g>
</g>
<g>
	<g>
		<path fill="none" stroke="#000000" stroke-dasharray="3,3" d="M76.687,69.059c11.114-15.35,67.529,2.063,97.2,43.672"/>
		<polygon points="169.24,112.595 173.17,111.725 175.271,108.294 177.354,117.591 		"/>
	</g>
</g>
<g>
	<g>
		<path fill="none" stroke="#000000" stroke-dasharray="3,3" d="M163.15,69.755c-11.114-15.35-67.529,2.063-97.201,43.672"/>
		<polygon points="64.564,108.989 66.667,112.421 70.596,113.29 62.484,118.287 		"/>
	</g>
</g>
<g>
	
		<radialGradient id="path31151_3_" cx="-67.5547" cy="407.9727" r="16.6899" gradientTransform="matrix(1 0 0 1 134.811 -347.8633)" gradientUnits="userSpaceOnUse">
		<stop  offset="0" style="stop-color:#FFDD9E"/>
		<stop  offset="0.2912" style="stop-color:#FFDA9C"/>
		<stop  offset="0.4343" style="stop-color:#FFD297"/>
		<stop  offset="0.545" style="stop-color:#FCC58E"/>
		<stop  offset="0.6392" style="stop-color:#F9B180"/>
		<stop  offset="0.7229" style="stop-color:#F69971"/>
		<stop  offset="0.799" style="stop-color:#F37B5C"/>
		<stop  offset="0.8695" style="stop-color:#F05B45"/>
		<stop  offset="0.9348" style="stop-color:#EE392D"/>
		<stop  offset="0.9951" style="stop-color:#EC2224"/>
		<stop  offset="1" style="stop-color:#EC2224"/>
	</radialGradient>
	<path id="path31151_4_" fill="url(#path31151_3_)" stroke="#000000" d="M79.66,52.996l8.24,7.041l-7.393,6.469
		c-3.332,3.045-8.97,5.047-15.367,5.047c-10.23,0-18.527-5.127-18.527-11.443c0-6.324,8.295-11.445,18.527-11.445
		C71.022,48.662,76.266,50.355,79.66,52.996z"/>
	<g>
		<path d="M59.537,56.396c0.419-0.08,0.969-0.14,1.669-0.14c0.859,0,1.489,0.2,1.889,0.56c0.37,0.319,0.6,0.81,0.6,1.409
			c0,0.609-0.18,1.09-0.53,1.439c-0.46,0.489-1.209,0.739-2.059,0.739c-0.26,0-0.5-0.01-0.7-0.06v2.698h-0.869V56.396z
			 M60.406,59.635c0.19,0.05,0.44,0.07,0.72,0.07c1.06,0,1.689-0.52,1.689-1.43c0-0.899-0.629-1.329-1.589-1.329
			c-0.38,0-0.67,0.04-0.82,0.07V59.635z"/>
		<path d="M64.856,56.307h0.869v3.248h0.03c0.18-0.26,0.36-0.5,0.53-0.72l2.059-2.528h1.08l-2.439,2.858l2.629,3.878h-1.03
			l-2.208-3.309l-0.65,0.74v2.568h-0.869L64.856,56.307L64.856,56.307z"/>
		<path d="M71.466,60.924l-0.7,2.119h-0.899l2.289-6.736h1.049l2.299,6.736h-0.929l-0.72-2.119H71.466z M73.674,60.244l-0.669-1.938
			c-0.14-0.439-0.24-0.84-0.34-1.229h-0.03c-0.09,0.39-0.2,0.81-0.33,1.22l-0.66,1.948L73.674,60.244L73.674,60.244z"/>
	</g>
</g>
</svg>
