<?xml version="1.0" encoding="utf-8"?>
<!-- Generator: Adobe Illustrator 14.0.0, SVG Export Plug-In . SVG Version: 6.00 Build 43363)  -->
<!DOCTYPE svg PUBLIC "-//W3C//DTD SVG 1.1//EN" "http://www.w3.org/Graphics/SVG/1.1/DTD/svg11.dtd">
<svg version="1.1" id="Layer_1" xmlns="http://www.w3.org/2000/svg" xmlns:xlink="http://www.w3.org/1999/xlink" x="0px" y="0px"
	 width="450.806px" height="440.25px" viewBox="0 0 450.806 440.25" enable-background="new 0 0 450.806 440.25"
	 xml:space="preserve">
<circle fill="#2D419A" stroke="#4056A6" cx="133.89" cy="350.201" r="66.438"/>
<circle fill="#68CCE2" stroke="#4056A6" cx="133.89" cy="350.201" r="47.26"/>
<line fill="none" stroke="#2B1C5C" stroke-width="2" x1="133.89" y1="283.764" x2="133.89" y2="416.641"/>
<line fill="none" stroke="#2B1C5C" stroke-width="2" x1="200.382" y1="350.201" x2="67.506" y2="350.201"/>
<circle fill="#FFFFFF" stroke="#FFFFFF" cx="133.89" cy="350.201" r="18.494"/>
<g>
	<g id="XMLID_50_">
		<g>
			<polygon fill="#FFFFFF" points="94.495,281.582 128.296,271.92 118.701,298.941 			"/>
		</g>
		<g>
			<line fill="none" stroke="#FFFFFF" x1="118.701" y1="298.941" x2="128.296" y2="271.92"/>
			<line fill="none" stroke="#FFFFFF" x1="128.296" y1="271.92" x2="94.495" y2="281.582"/>
			<line fill="none" stroke="#FFFFFF" x1="118.701" y1="298.941" x2="94.495" y2="281.582"/>
		</g>
	</g>
</g>
<g>
	<g id="XMLID_49_">
		<g>
			<polygon fill="#FFFFFF" points="70.77,302.566 99.021,281.646 99.53,310.312 			"/>
		</g>
		<g>
			<line fill="none" stroke="#FFFFFF" x1="99.53" y1="310.312" x2="99.021" y2="281.646"/>
			<line fill="none" stroke="#FFFFFF" x1="99.021" y1="281.646" x2="70.77" y2="302.566"/>
			<line fill="none" stroke="#FFFFFF" x1="99.53" y1="310.312" x2="70.77" y2="302.566"/>
		</g>
	</g>
</g>
<g>
	<g id="XMLID_48_">
		<g>
			<polygon fill="#FFFFFF" points="204.714,312.964 210.332,347.668 184.619,334.964 			"/>
		</g>
		<g>
			<line fill="none" stroke="#FFFFFF" x1="184.619" y1="334.964" x2="210.332" y2="347.668"/>
			<line fill="none" stroke="#FFFFFF" x1="210.332" y1="347.668" x2="204.714" y2="312.964"/>
			<line fill="none" stroke="#FFFFFF" x1="184.619" y1="334.964" x2="204.714" y2="312.964"/>
		</g>
	</g>
</g>
<g>
	<g id="XMLID_47_">
		<g>
			<polygon fill="#FFFFFF" points="182.541,288.647 204.687,315.948 176.068,317.724 			"/>
		</g>
		<g>
			<line fill="none" stroke="#FFFFFF" x1="176.068" y1="317.724" x2="204.687" y2="315.948"/>
			<line fill="none" stroke="#FFFFFF" x1="204.687" y1="315.948" x2="182.541" y2="288.647"/>
			<line fill="none" stroke="#FFFFFF" x1="176.068" y1="317.724" x2="182.541" y2="288.647"/>
		</g>
	</g>
</g>
<g>
	<g id="XMLID_46_">
		<g>
			<polygon fill="#FFFFFF" points="195.416,404.441 163.896,420.017 168.488,391.713 			"/>
		</g>
		<g>
			<line fill="none" stroke="#FFFFFF" x1="168.488" y1="391.713" x2="163.896" y2="420.017"/>
			<line fill="none" stroke="#FFFFFF" x1="163.896" y1="420.017" x2="195.416" y2="404.441"/>
			<line fill="none" stroke="#FFFFFF" x1="168.488" y1="391.713" x2="195.416" y2="404.441"/>
		</g>
	</g>
</g>
<g>
	<g id="XMLID_45_">
		<g>
			<polygon fill="#FFFFFF" points="167.209,416.491 134.19,428.568 141.81,400.923 			"/>
		</g>
		<g>
			<line fill="none" stroke="#FFFFFF" x1="141.81" y1="400.923" x2="134.19" y2="428.568"/>
			<line fill="none" stroke="#FFFFFF" x1="134.19" y1="428.568" x2="167.209" y2="416.491"/>
			<line fill="none" stroke="#FFFFFF" x1="141.81" y1="400.923" x2="167.209" y2="416.491"/>
		</g>
	</g>
</g>
<g>
	<g id="XMLID_44_">
		<g>
			<polygon fill="#FFFFFF" points="65.274,385.439 54.904,351.848 82.117,360.872 			"/>
		</g>
		<g>
			<line fill="none" stroke="#FFFFFF" x1="82.117" y1="360.872" x2="54.904" y2="351.848"/>
			<line fill="none" stroke="#FFFFFF" x1="54.904" y1="351.848" x2="65.274" y2="385.439"/>
			<line fill="none" stroke="#FFFFFF" x1="82.117" y1="360.872" x2="65.274" y2="385.439"/>
		</g>
	</g>
</g>
<g>
	<g id="XMLID_43_">
		<g>
			<polygon fill="#FFFFFF" points="82.005,410.8 62.914,381.276 91.559,382.583 			"/>
		</g>
		<g>
			<line fill="none" stroke="#FFFFFF" x1="91.559" y1="382.583" x2="62.914" y2="381.276"/>
			<line fill="none" stroke="#FFFFFF" x1="62.914" y1="381.276" x2="82.005" y2="410.8"/>
			<line fill="none" stroke="#FFFFFF" x1="91.559" y1="382.583" x2="82.005" y2="410.8"/>
		</g>
	</g>
</g>
<circle fill="#FFFFFF" stroke="#FFFFFF" cx="118.7" cy="310.311" r="4.51"/>
<circle fill="#FFFFFF" stroke="#FFFFFF" cx="93.495" cy="360.876" r="4.51"/>
<circle fill="#FFFFFF" stroke="#FFFFFF" cx="148.368" cy="390.137" r="4.51"/>
<circle fill="#FFFFFF" stroke="#FFFFFF" cx="174.735" cy="338.744" r="4.51"/>
<circle fill="#2D419A" stroke="#4056A6" cx="133.894" cy="80.855" r="66.438"/>
<circle fill="#68CCE2" stroke="#4056A6" cx="133.894" cy="80.855" r="47.26"/>
<line fill="none" stroke="#2B1C5C" stroke-width="2" x1="134.949" y1="14.418" x2="134.949" y2="147.295"/>
<line fill="none" stroke="#2B1C5C" stroke-width="2" x1="200.386" y1="80.855" x2="67.51" y2="80.855"/>
<circle fill="#FFFFFF" stroke="#FFFFFF" cx="134.948" cy="80.856" r="9.945"/>
<g>
	<g id="XMLID_58_">
		<g>
			<polygon fill="#FFFFFF" points="94.498,12.236 128.3,2.574 118.705,29.596 			"/>
		</g>
		<g>
			<line fill="none" stroke="#FFFFFF" x1="118.705" y1="29.596" x2="128.3" y2="2.574"/>
			<line fill="none" stroke="#FFFFFF" x1="128.3" y1="2.574" x2="94.498" y2="12.236"/>
			<line fill="none" stroke="#FFFFFF" x1="118.705" y1="29.596" x2="94.498" y2="12.236"/>
		</g>
	</g>
</g>
<g>
	<g id="XMLID_57_">
		<g>
			<polygon fill="#FFFFFF" points="70.772,33.22 99.023,12.301 99.532,40.967 			"/>
		</g>
		<g>
			<line fill="none" stroke="#FFFFFF" x1="99.532" y1="40.967" x2="99.023" y2="12.301"/>
			<line fill="none" stroke="#FFFFFF" x1="99.023" y1="12.301" x2="70.772" y2="33.22"/>
			<line fill="none" stroke="#FFFFFF" x1="99.532" y1="40.967" x2="70.772" y2="33.22"/>
		</g>
	</g>
</g>
<g>
	<g id="XMLID_56_">
		<g>
			<polygon fill="#FFFFFF" points="204.716,43.619 210.333,78.323 184.625,65.617 			"/>
		</g>
		<g>
			<line fill="none" stroke="#FFFFFF" x1="184.625" y1="65.617" x2="210.333" y2="78.323"/>
			<line fill="none" stroke="#FFFFFF" x1="210.333" y1="78.323" x2="204.716" y2="43.619"/>
			<line fill="none" stroke="#FFFFFF" x1="184.625" y1="65.617" x2="204.716" y2="43.619"/>
		</g>
	</g>
</g>
<g>
	<g id="XMLID_55_">
		<g>
			<polygon fill="#FFFFFF" points="182.545,19.302 204.691,46.602 176.073,48.378 			"/>
		</g>
		<g>
			<line fill="none" stroke="#FFFFFF" x1="176.073" y1="48.378" x2="204.691" y2="46.602"/>
			<line fill="none" stroke="#FFFFFF" x1="204.691" y1="46.602" x2="182.545" y2="19.302"/>
			<line fill="none" stroke="#FFFFFF" x1="176.073" y1="48.378" x2="182.545" y2="19.302"/>
		</g>
	</g>
</g>
<g>
	<g id="XMLID_54_">
		<g>
			<polygon fill="#FFFFFF" points="195.42,135.096 163.902,150.669 168.492,122.367 			"/>
		</g>
		<g>
			<line fill="none" stroke="#FFFFFF" x1="168.492" y1="122.367" x2="163.902" y2="150.669"/>
			<line fill="none" stroke="#FFFFFF" x1="163.902" y1="150.669" x2="195.42" y2="135.096"/>
			<line fill="none" stroke="#FFFFFF" x1="168.492" y1="122.367" x2="195.42" y2="135.096"/>
		</g>
	</g>
</g>
<g>
	<g id="XMLID_53_">
		<g>
			<polygon fill="#FFFFFF" points="167.212,147.148 134.195,159.224 141.813,131.579 			"/>
		</g>
		<g>
			<line fill="none" stroke="#FFFFFF" x1="141.813" y1="131.579" x2="134.195" y2="159.224"/>
			<line fill="none" stroke="#FFFFFF" x1="134.195" y1="159.224" x2="167.212" y2="147.148"/>
			<line fill="none" stroke="#FFFFFF" x1="141.813" y1="131.579" x2="167.212" y2="147.148"/>
		</g>
	</g>
</g>
<g>
	<g id="XMLID_52_">
		<g>
			<polygon fill="#FFFFFF" points="65.279,116.094 54.904,82.501 82.118,91.528 			"/>
		</g>
		<g>
			<line fill="none" stroke="#FFFFFF" x1="82.118" y1="91.528" x2="54.904" y2="82.501"/>
			<line fill="none" stroke="#FFFFFF" x1="54.904" y1="82.501" x2="65.279" y2="116.094"/>
			<line fill="none" stroke="#FFFFFF" x1="82.118" y1="91.528" x2="65.279" y2="116.094"/>
		</g>
	</g>
</g>
<g>
	<g id="XMLID_51_">
		<g>
			<polygon fill="#FFFFFF" points="82.008,141.454 62.917,111.933 91.562,113.238 			"/>
		</g>
		<g>
			<line fill="none" stroke="#FFFFFF" x1="91.562" y1="113.238" x2="62.917" y2="111.933"/>
			<line fill="none" stroke="#FFFFFF" x1="62.917" y1="111.933" x2="82.008" y2="141.454"/>
			<line fill="none" stroke="#FFFFFF" x1="91.562" y1="113.238" x2="82.008" y2="141.454"/>
		</g>
	</g>
</g>
<circle fill="#FFFFFF" stroke="#FFFFFF" cx="118.704" cy="40.965" r="4.51"/>
<circle fill="#FFFFFF" stroke="#FFFFFF" cx="93.499" cy="91.53" r="4.51"/>
<circle fill="#FFFFFF" stroke="#FFFFFF" cx="148.372" cy="120.791" r="4.51"/>
<circle fill="#FFFFFF" stroke="#FFFFFF" cx="174.739" cy="69.398" r="4.51"/>
<circle fill="#2D419A" stroke="#4056A6" cx="370.767" cy="78.28" r="66.438"/>
<circle fill="#68CCE2" stroke="#4056A6" cx="370.767" cy="78.28" r="47.26"/>
<line fill="none" stroke="#2B1C5C" stroke-width="2" x1="370.767" y1="11.843" x2="370.767" y2="144.72"/>
<line fill="none" stroke="#2B1C5C" stroke-width="2" x1="437.259" y1="78.28" x2="304.383" y2="78.28"/>
<g>
	<g id="XMLID_66_">
		<g>
			<polygon fill="#FFFFFF" points="331.372,9.661 365.173,-0.001 355.578,27.021 			"/>
		</g>
		<g>
			<line fill="none" stroke="#FFFFFF" x1="355.578" y1="27.021" x2="365.173" y2="-0.001"/>
			<line fill="none" stroke="#FFFFFF" x1="365.173" y1="-0.001" x2="331.372" y2="9.661"/>
			<line fill="none" stroke="#FFFFFF" x1="355.578" y1="27.021" x2="331.372" y2="9.661"/>
		</g>
	</g>
</g>
<g>
	<g id="XMLID_65_">
		<g>
			<polygon fill="#FFFFFF" points="307.645,30.645 335.896,9.726 336.405,38.392 			"/>
		</g>
		<g>
			<line fill="none" stroke="#FFFFFF" x1="336.405" y1="38.392" x2="335.896" y2="9.726"/>
			<line fill="none" stroke="#FFFFFF" x1="335.896" y1="9.726" x2="307.645" y2="30.645"/>
			<line fill="none" stroke="#FFFFFF" x1="336.405" y1="38.392" x2="307.645" y2="30.645"/>
		</g>
	</g>
</g>
<g>
	<g id="XMLID_64_">
		<g>
			<polygon fill="#FFFFFF" points="441.589,41.043 447.207,75.748 421.498,63.042 			"/>
		</g>
		<g>
			<line fill="none" stroke="#FFFFFF" x1="421.498" y1="63.042" x2="447.207" y2="75.748"/>
			<line fill="none" stroke="#FFFFFF" x1="447.207" y1="75.748" x2="441.589" y2="41.043"/>
			<line fill="none" stroke="#FFFFFF" x1="421.498" y1="63.042" x2="441.589" y2="41.043"/>
		</g>
	</g>
</g>
<g>
	<g id="XMLID_63_">
		<g>
			<polygon fill="#FFFFFF" points="419.418,16.727 441.564,44.026 412.946,45.803 			"/>
		</g>
		<g>
			<line fill="none" stroke="#FFFFFF" x1="412.946" y1="45.803" x2="441.564" y2="44.026"/>
			<line fill="none" stroke="#FFFFFF" x1="441.564" y1="44.026" x2="419.418" y2="16.727"/>
			<line fill="none" stroke="#FFFFFF" x1="412.946" y1="45.803" x2="419.418" y2="16.727"/>
		</g>
	</g>
</g>
<g>
	<g id="XMLID_62_">
		<g>
			<polygon fill="#FFFFFF" points="432.293,132.521 400.775,148.094 405.366,119.792 			"/>
		</g>
		<g>
			<line fill="none" stroke="#FFFFFF" x1="405.366" y1="119.792" x2="400.775" y2="148.094"/>
			<line fill="none" stroke="#FFFFFF" x1="400.775" y1="148.094" x2="432.293" y2="132.521"/>
			<line fill="none" stroke="#FFFFFF" x1="405.366" y1="119.792" x2="432.293" y2="132.521"/>
		</g>
	</g>
</g>
<g>
	<g id="XMLID_61_">
		<g>
			<polygon fill="#FFFFFF" points="404.085,144.573 371.069,156.648 378.686,129.004 			"/>
		</g>
		<g>
			<line fill="none" stroke="#FFFFFF" x1="378.686" y1="129.004" x2="371.069" y2="156.648"/>
			<line fill="none" stroke="#FFFFFF" x1="371.069" y1="156.648" x2="404.085" y2="144.573"/>
			<line fill="none" stroke="#FFFFFF" x1="378.686" y1="129.004" x2="404.085" y2="144.573"/>
		</g>
	</g>
</g>
<g>
	<g id="XMLID_60_">
		<g>
			<polygon fill="#FFFFFF" points="302.152,113.519 291.777,79.926 318.991,88.953 			"/>
		</g>
		<g>
			<line fill="none" stroke="#FFFFFF" x1="318.991" y1="88.953" x2="291.777" y2="79.926"/>
			<line fill="none" stroke="#FFFFFF" x1="291.777" y1="79.926" x2="302.152" y2="113.519"/>
			<line fill="none" stroke="#FFFFFF" x1="318.991" y1="88.953" x2="302.152" y2="113.519"/>
		</g>
	</g>
</g>
<g>
	<g id="XMLID_59_">
		<g>
			<polygon fill="#FFFFFF" points="318.881,138.879 299.791,109.358 328.434,110.663 			"/>
		</g>
		<g>
			<line fill="none" stroke="#FFFFFF" x1="328.434" y1="110.663" x2="299.791" y2="109.358"/>
			<line fill="none" stroke="#FFFFFF" x1="299.791" y1="109.358" x2="318.881" y2="138.879"/>
			<line fill="none" stroke="#FFFFFF" x1="328.434" y1="110.663" x2="318.881" y2="138.879"/>
		</g>
	</g>
</g>
<circle fill="#CE5BA2" stroke="#FFFFFF" cx="355.577" cy="38.39" r="4.51"/>
<circle fill="#FFFFFF" stroke="#FFFFFF" cx="330.372" cy="88.955" r="4.51"/>
<circle fill="#FFFFFF" stroke="#FFFFFF" cx="385.245" cy="118.216" r="4.51"/>
<circle fill="#FFFFFF" stroke="#FFFFFF" cx="411.612" cy="66.823" r="4.51"/>
<circle fill="#2D419A" stroke="#4056A6" cx="374.367" cy="347.626" r="66.438"/>
<circle fill="#68CCE2" stroke="#4056A6" cx="374.368" cy="347.626" r="47.26"/>
<line fill="none" stroke="#2B1C5C" stroke-width="2" x1="374.368" y1="281.188" x2="374.368" y2="414.065"/>
<line fill="none" stroke="#2B1C5C" stroke-width="2" x1="440.86" y1="347.626" x2="307.984" y2="347.626"/>
<g>
	<g id="XMLID_74_">
		<g>
			<polygon fill="#FFFFFF" points="334.972,279.007 368.774,269.345 359.178,296.367 			"/>
		</g>
		<g>
			<line fill="none" stroke="#FFFFFF" x1="359.178" y1="296.367" x2="368.774" y2="269.345"/>
			<line fill="none" stroke="#FFFFFF" x1="368.774" y1="269.345" x2="334.972" y2="279.007"/>
			<line fill="none" stroke="#FFFFFF" x1="359.178" y1="296.367" x2="334.972" y2="279.007"/>
		</g>
	</g>
</g>
<g>
	<g id="XMLID_73_">
		<g>
			<polygon fill="#FFFFFF" points="311.246,299.991 339.497,279.072 340.005,307.737 			"/>
		</g>
		<g>
			<line fill="none" stroke="#FFFFFF" x1="340.005" y1="307.737" x2="339.497" y2="279.072"/>
			<line fill="none" stroke="#FFFFFF" x1="339.497" y1="279.072" x2="311.246" y2="299.991"/>
			<line fill="none" stroke="#FFFFFF" x1="340.005" y1="307.737" x2="311.246" y2="299.991"/>
		</g>
	</g>
</g>
<g>
	<g id="XMLID_72_">
		<g>
			<polygon fill="#FFFFFF" points="445.19,310.389 450.807,345.093 425.098,332.388 			"/>
		</g>
		<g>
			<line fill="none" stroke="#FFFFFF" x1="425.098" y1="332.388" x2="450.807" y2="345.093"/>
			<line fill="none" stroke="#FFFFFF" x1="450.807" y1="345.093" x2="445.19" y2="310.389"/>
			<line fill="none" stroke="#FFFFFF" x1="425.098" y1="332.388" x2="445.19" y2="310.389"/>
		</g>
	</g>
</g>
<g>
	<g id="XMLID_71_">
		<g>
			<polygon fill="#FFFFFF" points="423.019,286.072 445.165,313.372 416.546,315.148 			"/>
		</g>
		<g>
			<line fill="none" stroke="#FFFFFF" x1="416.546" y1="315.148" x2="445.165" y2="313.372"/>
			<line fill="none" stroke="#FFFFFF" x1="445.165" y1="313.372" x2="423.019" y2="286.072"/>
			<line fill="none" stroke="#FFFFFF" x1="416.546" y1="315.148" x2="423.019" y2="286.072"/>
		</g>
	</g>
</g>
<g>
	<g id="XMLID_70_">
		<g>
			<polygon fill="#FFFFFF" points="435.894,401.866 404.375,417.44 408.966,389.138 			"/>
		</g>
		<g>
			<line fill="none" stroke="#FFFFFF" x1="408.966" y1="389.138" x2="404.375" y2="417.44"/>
			<line fill="none" stroke="#FFFFFF" x1="404.375" y1="417.44" x2="435.894" y2="401.866"/>
			<line fill="none" stroke="#FFFFFF" x1="408.966" y1="389.138" x2="435.894" y2="401.866"/>
		</g>
	</g>
</g>
<g>
	<g id="XMLID_69_">
		<g>
			<polygon fill="#FFFFFF" points="407.686,413.918 374.669,425.994 382.287,398.35 			"/>
		</g>
		<g>
			<line fill="none" stroke="#FFFFFF" x1="382.287" y1="398.35" x2="374.669" y2="425.994"/>
			<line fill="none" stroke="#FFFFFF" x1="374.669" y1="425.994" x2="407.686" y2="413.918"/>
			<line fill="none" stroke="#FFFFFF" x1="382.287" y1="398.35" x2="407.686" y2="413.918"/>
		</g>
	</g>
</g>
<g>
	<g id="XMLID_68_">
		<g>
			<polygon fill="#FFFFFF" points="305.752,382.864 295.377,349.271 322.591,358.298 			"/>
		</g>
		<g>
			<line fill="none" stroke="#FFFFFF" x1="322.591" y1="358.298" x2="295.377" y2="349.271"/>
			<line fill="none" stroke="#FFFFFF" x1="295.377" y1="349.271" x2="305.752" y2="382.864"/>
			<line fill="none" stroke="#FFFFFF" x1="322.591" y1="358.298" x2="305.752" y2="382.864"/>
		</g>
	</g>
</g>
<g>
	<g id="XMLID_67_">
		<g>
			<polygon fill="#FFFFFF" points="322.482,408.225 303.391,378.704 332.035,380.008 			"/>
		</g>
		<g>
			<line fill="none" stroke="#FFFFFF" x1="332.035" y1="380.008" x2="303.391" y2="378.704"/>
			<line fill="none" stroke="#FFFFFF" x1="303.391" y1="378.704" x2="322.482" y2="408.225"/>
			<line fill="none" stroke="#FFFFFF" x1="332.035" y1="380.008" x2="322.482" y2="408.225"/>
		</g>
	</g>
</g>
<circle fill="#CE5BA2" stroke="#FFFFFF" cx="359.178" cy="307.735" r="4.51"/>
<circle fill="#FFFFFF" stroke="#FFFFFF" cx="333.973" cy="358.301" r="4.51"/>
<circle fill="#FFFFFF" stroke="#FFFFFF" cx="388.846" cy="387.562" r="4.51"/>
<circle fill="#FFFFFF" stroke="#FFFFFF" cx="415.213" cy="336.169" r="4.51"/>
<g>
	<circle fill="#CE5BA2" stroke="#FFFFFF" cx="223.261" cy="77.215" r="4.51"/>
	<g>
		<g>
			<line fill="none" stroke="#010101" x1="285.583" y1="77.215" x2="237.583" y2="77.215"/>
			<polygon fill="#010101" points="282.775,80.918 284.347,77.215 282.775,73.511 291.552,77.215 			"/>
		</g>
	</g>
	<g>
		<path d="M217.469,60.5l-0.84,2.543h-1.079l2.759-8.084h1.247l2.759,8.084H221.2l-0.864-2.543H217.469z M220.131,59.685
			l-0.803-2.326c-0.181-0.528-0.3-1.008-0.42-1.476h-0.024c-0.12,0.468-0.239,0.972-0.407,1.463l-0.792,2.339H220.131z"/>
		<path d="M224.117,55.847h-2.458v-0.888h5.984v0.888h-2.471v7.196h-1.056V55.847z"/>
		<path d="M228.545,55.056c0.504-0.084,1.164-0.156,2.003-0.156c1.032,0,1.787,0.24,2.267,0.672c0.433,0.384,0.708,0.972,0.708,1.69
			c0,0.732-0.216,1.308-0.624,1.728c-0.563,0.588-1.451,0.888-2.47,0.888c-0.312,0-0.601-0.013-0.84-0.072v3.238h-1.044V55.056z
			 M229.589,58.953c0.228,0.061,0.516,0.084,0.863,0.084c1.26,0,2.027-0.624,2.027-1.715c0-1.079-0.768-1.596-1.907-1.596
			c-0.456,0-0.804,0.036-0.983,0.084V58.953z"/>
	</g>
</g>
<g>
	<circle fill="#CE5BA2" stroke="#FFFFFF" cx="226.021" cy="346.617" r="4.51"/>
	<g>
		<g>
			<line fill="none" stroke="#010101" x1="288.344" y1="346.617" x2="240.344" y2="346.617"/>
			<polygon fill="#010101" points="285.536,350.32 287.108,346.617 285.536,342.913 294.313,346.617 			"/>
		</g>
	</g>
	<g>
		<path d="M220.23,329.902l-0.84,2.543h-1.079l2.759-8.084h1.247l2.759,8.084h-1.115l-0.864-2.543H220.23z M222.892,329.087
			l-0.803-2.326c-0.181-0.528-0.3-1.008-0.42-1.476h-0.024c-0.12,0.468-0.239,0.972-0.407,1.463l-0.792,2.339H222.892z"/>
		<path d="M226.877,325.249h-2.458v-0.888h5.984v0.888h-2.471v7.196h-1.056V325.249z"/>
		<path d="M231.306,324.458c0.504-0.084,1.164-0.156,2.003-0.156c1.032,0,1.787,0.24,2.267,0.672
			c0.433,0.384,0.708,0.972,0.708,1.69c0,0.732-0.216,1.308-0.624,1.728c-0.563,0.588-1.451,0.888-2.47,0.888
			c-0.312,0-0.601-0.013-0.84-0.072v3.238h-1.044V324.458z M232.35,328.355c0.228,0.061,0.516,0.084,0.863,0.084
			c1.26,0,2.027-0.624,2.027-1.715c0-1.079-0.768-1.596-1.907-1.596c-0.456,0-0.804,0.036-0.983,0.084V328.355z"/>
	</g>
</g>
<g>
	<g>
		<line fill="none" stroke="#010101" x1="134.676" y1="265.558" x2="134.676" y2="217.558"/>
		<polygon fill="#010101" points="130.973,262.749 134.676,264.322 138.38,262.749 134.676,271.527 		"/>
	</g>
</g>
<g>
	<g id="XMLID_75_">
		<g>
			<polygon fill="#7764AC" points="199.801,407.025 169.708,425.207 171.895,396.612 			"/>
		</g>
		<g>
			<line fill="none" stroke="#FFFFFF" x1="171.895" y1="396.612" x2="169.708" y2="425.207"/>
			<line fill="none" stroke="#FFFFFF" x1="169.708" y1="425.207" x2="199.801" y2="407.025"/>
			<line fill="none" stroke="#FFFFFF" x1="171.895" y1="396.612" x2="199.801" y2="407.025"/>
		</g>
	</g>
</g>
<g>
	<g id="XMLID_76_">
		<g>
			<polygon fill="#7764AC" points="168.483,421.273 135.464,433.351 143.087,405.712 			"/>
		</g>
		<g>
			<line fill="none" stroke="#FFFFFF" x1="143.087" y1="405.712" x2="135.464" y2="433.351"/>
			<line fill="none" stroke="#FFFFFF" x1="135.464" y1="433.351" x2="168.483" y2="421.273"/>
			<line fill="none" stroke="#FFFFFF" x1="143.087" y1="405.712" x2="168.483" y2="421.273"/>
		</g>
	</g>
</g>
<g>
	<g id="XMLID_77_">
		<g>
			<polygon fill="#7764AC" points="409.867,417.856 376.847,429.934 384.47,402.295 			"/>
		</g>
		<g>
			<line fill="none" stroke="#FFFFFF" x1="384.47" y1="402.295" x2="376.847" y2="429.934"/>
			<line fill="none" stroke="#FFFFFF" x1="376.847" y1="429.934" x2="409.867" y2="417.856"/>
			<line fill="none" stroke="#FFFFFF" x1="384.47" y1="402.295" x2="409.867" y2="417.856"/>
		</g>
	</g>
</g>
<g>
	<g id="XMLID_78_">
		<g>
			<polygon fill="#7764AC" points="439.293,405.031 409.439,423.601 411.254,394.984 			"/>
		</g>
		<g>
			<line fill="none" stroke="#FFFFFF" x1="411.254" y1="394.984" x2="409.439" y2="423.601"/>
			<line fill="none" stroke="#FFFFFF" x1="409.439" y1="423.601" x2="439.293" y2="405.031"/>
			<line fill="none" stroke="#FFFFFF" x1="411.254" y1="394.984" x2="439.293" y2="405.031"/>
		</g>
	</g>
</g>
<g>
	<g id="XMLID_79_">
		<g>
			<polygon fill="#7764AC" points="171.519,208.88 136.365,209.479 152.618,185.859 			"/>
		</g>
		<g>
			<line fill="none" stroke="#FFFFFF" x1="152.618" y1="185.859" x2="136.365" y2="209.479"/>
			<line fill="none" stroke="#FFFFFF" x1="136.365" y1="209.479" x2="171.519" y2="208.88"/>
			<line fill="none" stroke="#FFFFFF" x1="152.618" y1="185.859" x2="171.519" y2="208.88"/>
		</g>
	</g>
</g>
<g>
	<g id="XMLID_80_">
		<g>
			<polygon fill="#7764AC" points="131.417,208.284 96.261,208.883 112.52,185.262 			"/>
		</g>
		<g>
			<line fill="none" stroke="#FFFFFF" x1="112.52" y1="185.262" x2="96.261" y2="208.883"/>
			<line fill="none" stroke="#FFFFFF" x1="96.261" y1="208.883" x2="131.417" y2="208.284"/>
			<line fill="none" stroke="#FFFFFF" x1="112.52" y1="185.262" x2="131.417" y2="208.284"/>
		</g>
	</g>
</g>
<g>
	<path d="M109.907,176.713v-0.647l0.827-0.804c1.991-1.895,2.902-2.902,2.902-4.078c0-0.791-0.372-1.522-1.535-1.522
		c-0.707,0-1.295,0.359-1.655,0.659l-0.336-0.743c0.528-0.444,1.308-0.792,2.195-0.792c1.679,0,2.387,1.151,2.387,2.267
		c0,1.439-1.044,2.603-2.687,4.186l-0.611,0.576v0.023h3.489v0.876H109.907z"/>
	<path d="M123.247,173.163c-0.06-1.128-0.132-2.495-0.132-3.49h-0.024c-0.287,0.936-0.611,1.955-1.019,3.07l-1.428,3.922h-0.791
		l-1.319-3.85c-0.384-1.151-0.696-2.184-0.924-3.143h-0.024c-0.023,1.008-0.084,2.351-0.155,3.574l-0.216,3.466h-0.996l0.564-8.084
		h1.331l1.379,3.91c0.336,0.995,0.6,1.883,0.815,2.723h0.024c0.216-0.815,0.504-1.703,0.863-2.723l1.439-3.91h1.331l0.504,8.084
		h-1.031L123.247,173.163z"/>
	<path d="M131.011,175.861c0,1.344-0.275,2.146-0.827,2.662c-0.576,0.517-1.392,0.696-2.123,0.696c-0.696,0-1.464-0.168-1.931-0.479
		l0.264-0.816c0.384,0.252,0.983,0.468,1.703,0.468c1.079,0,1.871-0.563,1.871-2.038v-0.636h-0.024
		c-0.312,0.539-0.947,0.971-1.847,0.971c-1.439,0-2.471-1.223-2.471-2.83c0-1.967,1.283-3.07,2.626-3.07
		c1.008,0,1.548,0.516,1.812,0.995h0.023l0.036-0.875h0.936c-0.036,0.407-0.048,0.888-0.048,1.583V175.861z M129.956,173.199
		c0-0.181-0.012-0.336-0.06-0.468c-0.192-0.624-0.695-1.128-1.476-1.128c-1.007,0-1.727,0.852-1.727,2.195
		c0,1.139,0.587,2.087,1.715,2.087c0.659,0,1.247-0.408,1.463-1.08c0.061-0.18,0.084-0.384,0.084-0.563V173.199z"/>
	<path d="M134.097,174.17l-0.84,2.543h-1.079l2.759-8.084h1.247l2.759,8.084h-1.115l-0.864-2.543H134.097z M136.759,173.354
		l-0.803-2.326c-0.181-0.528-0.3-1.008-0.42-1.476h-0.024c-0.12,0.468-0.239,0.972-0.407,1.463l-0.792,2.339H136.759z"/>
	<path d="M140.133,168.749c0.636-0.107,1.392-0.18,2.219-0.18c1.5,0,2.567,0.359,3.274,1.008c0.731,0.659,1.151,1.595,1.151,2.902
		c0,1.319-0.42,2.398-1.163,3.142c-0.768,0.756-2.015,1.164-3.586,1.164c-0.756,0-1.367-0.036-1.896-0.097V168.749z
		 M141.177,175.897c0.264,0.036,0.647,0.048,1.056,0.048c2.242,0,3.441-1.247,3.441-3.43c0.013-1.907-1.067-3.119-3.273-3.119
		c-0.54,0-0.948,0.049-1.224,0.108V175.897z"/>
	<path d="M148.125,168.726c0.504-0.084,1.164-0.156,2.003-0.156c1.032,0,1.787,0.24,2.268,0.672c0.432,0.384,0.707,0.972,0.707,1.69
		c0,0.732-0.216,1.308-0.624,1.728c-0.563,0.588-1.451,0.888-2.47,0.888c-0.312,0-0.601-0.013-0.84-0.072v3.238h-1.044V168.726z
		 M149.169,172.623c0.228,0.061,0.516,0.084,0.863,0.084c1.26,0,2.027-0.624,2.027-1.715c0-1.079-0.768-1.596-1.907-1.596
		c-0.456,0-0.804,0.036-0.983,0.084V172.623z"/>
</g>
<g>
	<path d="M13.712,16.905c0,1.344-0.276,2.146-0.827,2.662c-0.576,0.517-1.392,0.696-2.123,0.696c-0.696,0-1.464-0.168-1.932-0.479
		l0.265-0.816c0.384,0.252,0.983,0.468,1.703,0.468c1.079,0,1.87-0.563,1.87-2.038v-0.636h-0.023
		c-0.312,0.539-0.947,0.971-1.847,0.971c-1.439,0-2.471-1.223-2.471-2.83c0-1.967,1.283-3.07,2.626-3.07
		c1.008,0,1.548,0.516,1.812,0.995h0.023l0.036-0.875h0.936c-0.036,0.407-0.048,0.888-0.048,1.583V16.905z M12.657,14.243
		c0-0.181-0.012-0.336-0.06-0.468c-0.192-0.624-0.696-1.128-1.476-1.128c-1.007,0-1.727,0.852-1.727,2.195
		c0,1.139,0.588,2.087,1.715,2.087c0.659,0,1.247-0.408,1.463-1.08c0.061-0.18,0.084-0.384,0.084-0.563V14.243z"/>
	<path d="M18.875,19.685c0,1.505-1.051,2.161-2.025,2.161c-1.094,0-1.951-0.808-1.951-2.094c0-1.354,0.899-2.152,2.018-2.152
		C18.085,17.6,18.875,18.449,18.875,19.685z M15.656,19.727c0,0.892,0.505,1.563,1.228,1.563c0.706,0,1.236-0.664,1.236-1.58
		c0-0.689-0.345-1.556-1.22-1.556C16.034,18.154,15.656,18.962,15.656,19.727z"/>
	<path d="M22.323,15.238c-0.036-1.199,0.6-1.812,1.427-1.812c0.504,0,0.888,0.156,1.703,0.54c0.6,0.288,1.044,0.504,1.487,0.504
		c0.432,0,0.636-0.348,0.647-1.008h0.708c0.06,1.332-0.624,1.812-1.367,1.812c-0.479,0-0.912-0.145-1.739-0.528
		c-0.563-0.275-1.008-0.527-1.439-0.527s-0.695,0.3-0.707,1.02H22.323z"/>
	<path d="M37.164,13.775c0,2.65-0.995,4.113-2.71,4.113c-1.523,0-2.566-1.427-2.591-4.006c0-2.626,1.14-4.054,2.723-4.054
		C36.216,9.829,37.164,11.292,37.164,13.775z M32.93,13.895c0,2.027,0.624,3.179,1.583,3.179c1.067,0,1.583-1.26,1.583-3.25
		c0-1.919-0.479-3.179-1.583-3.179C33.602,10.645,32.93,11.772,32.93,13.895z"/>
	<path d="M38.21,17.133c0-0.432,0.3-0.755,0.72-0.755c0.419,0,0.707,0.312,0.707,0.755c0,0.433-0.288,0.756-0.731,0.756
		C38.498,17.889,38.21,17.565,38.21,17.133z"/>
	<path d="M45.803,13.775c0,2.65-0.995,4.113-2.71,4.113c-1.523,0-2.566-1.427-2.591-4.006c0-2.626,1.14-4.054,2.723-4.054
		C44.856,9.829,45.803,11.292,45.803,13.775z M41.57,13.895c0,2.027,0.624,3.179,1.583,3.179c1.067,0,1.583-1.26,1.583-3.25
		c0-1.919-0.479-3.179-1.583-3.179C42.242,10.645,41.57,11.772,41.57,13.895z"/>
	<path d="M48.205,13.655c-0.875-0.408-1.247-1.08-1.247-1.751c0-1.235,1.044-2.075,2.423-2.075c1.511,0,2.278,0.936,2.278,1.919
		c0,0.66-0.335,1.379-1.295,1.823v0.036c0.972,0.384,1.571,1.079,1.571,2.015c0,1.367-1.163,2.267-2.65,2.267
		c-1.632,0-2.615-0.959-2.615-2.099c0-0.983,0.588-1.691,1.548-2.099L48.205,13.655z M50.868,15.729c0-0.935-0.66-1.402-1.715-1.702
		c-0.912,0.264-1.403,0.875-1.403,1.618c-0.036,0.78,0.563,1.476,1.559,1.476C50.256,17.121,50.868,16.533,50.868,15.729z
		 M47.965,11.832c-0.012,0.779,0.588,1.199,1.487,1.439c0.671-0.229,1.187-0.708,1.187-1.415c0-0.624-0.371-1.271-1.318-1.271
		C48.445,10.585,47.965,11.16,47.965,11.832z"/>
</g>
<g>
	<path d="M13.65,268.901c0,1.344-0.276,2.146-0.827,2.662c-0.576,0.517-1.392,0.696-2.123,0.696c-0.696,0-1.464-0.168-1.932-0.479
		l0.265-0.816c0.384,0.252,0.983,0.468,1.703,0.468c1.079,0,1.87-0.563,1.87-2.038v-0.636h-0.023
		c-0.312,0.539-0.947,0.971-1.847,0.971c-1.439,0-2.471-1.223-2.471-2.83c0-1.967,1.283-3.07,2.626-3.07
		c1.008,0,1.548,0.516,1.812,0.995h0.023l0.036-0.875h0.936c-0.036,0.407-0.048,0.888-0.048,1.583V268.901z M12.594,266.239
		c0-0.181-0.012-0.336-0.06-0.468c-0.192-0.624-0.696-1.128-1.476-1.128c-1.007,0-1.727,0.852-1.727,2.195
		c0,1.139,0.588,2.087,1.715,2.087c0.659,0,1.247-0.408,1.463-1.08c0.061-0.18,0.084-0.384,0.084-0.563V266.239z"/>
	<path d="M18.637,267.779v4.919c0,0.361,0.017,0.773,0.033,1.051h-0.656l-0.033-0.706h-0.025c-0.219,0.454-0.706,0.799-1.37,0.799
		c-0.983,0-1.749-0.833-1.749-2.068c-0.008-1.354,0.841-2.178,1.824-2.178c0.631,0,1.043,0.294,1.228,0.613h0.018v-2.43H18.637z
		 M17.906,271.336c0-0.093-0.009-0.219-0.034-0.311c-0.109-0.463-0.513-0.85-1.067-0.85c-0.766,0-1.22,0.673-1.22,1.563
		c0,0.824,0.412,1.505,1.203,1.505c0.495,0,0.949-0.336,1.084-0.883c0.025-0.101,0.034-0.201,0.034-0.319V271.336z"/>
	<path d="M22.386,267.234c-0.036-1.199,0.6-1.812,1.427-1.812c0.504,0,0.888,0.156,1.703,0.54c0.6,0.288,1.044,0.504,1.487,0.504
		c0.432,0,0.636-0.348,0.647-1.008h0.708c0.06,1.332-0.624,1.812-1.367,1.812c-0.479,0-0.912-0.145-1.739-0.528
		c-0.563-0.275-1.008-0.527-1.439-0.527s-0.695,0.3-0.707,1.02H22.386z"/>
	<path d="M37.227,265.771c0,2.65-0.995,4.113-2.71,4.113c-1.523,0-2.566-1.427-2.591-4.006c0-2.626,1.14-4.054,2.723-4.054
		C36.28,261.825,37.227,263.288,37.227,265.771z M32.994,265.891c0,2.027,0.624,3.179,1.583,3.179c1.067,0,1.583-1.26,1.583-3.25
		c0-1.919-0.479-3.179-1.583-3.179C33.666,262.641,32.994,263.769,32.994,265.891z"/>
	<path d="M38.274,269.129c0-0.432,0.3-0.755,0.719-0.755c0.42,0,0.708,0.312,0.708,0.755c0,0.433-0.288,0.756-0.731,0.756
		C38.561,269.885,38.274,269.562,38.274,269.129z"/>
	<path d="M42.113,265.651c-0.875-0.408-1.247-1.08-1.247-1.751c0-1.235,1.044-2.075,2.423-2.075c1.511,0,2.278,0.936,2.278,1.919
		c0,0.66-0.335,1.379-1.295,1.823v0.036c0.972,0.384,1.571,1.079,1.571,2.015c0,1.367-1.163,2.267-2.65,2.267
		c-1.632,0-2.615-0.959-2.615-2.099c0-0.983,0.588-1.691,1.548-2.099L42.113,265.651z M44.776,267.726
		c0-0.935-0.66-1.402-1.715-1.702c-0.912,0.264-1.403,0.875-1.403,1.618c-0.036,0.78,0.563,1.476,1.559,1.476
		C44.165,269.117,44.776,268.529,44.776,267.726z M41.874,263.828c-0.012,0.779,0.588,1.199,1.487,1.439
		c0.671-0.229,1.187-0.708,1.187-1.415c0-0.624-0.371-1.271-1.318-1.271C42.353,262.581,41.874,263.156,41.874,263.828z"/>
	<path d="M47.441,269.01c0.228,0.023,0.492,0,0.852-0.036c0.611-0.084,1.188-0.324,1.631-0.756c0.516-0.468,0.888-1.151,1.031-2.062
		h-0.035c-0.433,0.527-1.056,0.827-1.848,0.827c-1.391,0-2.29-1.056-2.29-2.387c0-1.476,1.067-2.771,2.662-2.771
		s2.578,1.283,2.578,3.298c0,1.703-0.575,2.903-1.343,3.646c-0.6,0.588-1.428,0.947-2.267,1.043
		c-0.384,0.061-0.72,0.072-0.972,0.061V269.01z M47.825,264.536c0,0.971,0.588,1.654,1.499,1.654c0.708,0,1.26-0.348,1.535-0.815
		c0.061-0.107,0.096-0.216,0.096-0.396c0-1.331-0.491-2.351-1.606-2.351C48.46,262.629,47.825,263.421,47.825,264.536z"/>
</g>
</svg>
