<?xml version="1.0" encoding="utf-8"?>
<!-- Generator: Adobe Illustrator 13.0.0, SVG Export Plug-In . SVG Version: 6.00 Build 14948)  -->
<!DOCTYPE svg PUBLIC "-//W3C//DTD SVG 1.1//EN" "http://www.w3.org/Graphics/SVG/1.1/DTD/svg11.dtd">
<svg version="1.1"
	 id="svg8554" xmlns:rdf="http://www.w3.org/1999/02/22-rdf-syntax-ns#" xmlns:sodipodi="http://inkscape.sourceforge.net/DTD/sodipodi-0.dtd" xmlns:cc="http://web.resource.org/cc/" xmlns:xml="http://www.w3.org/XML/1998/namespace" xmlns:inkscape="http://www.inkscape.org/namespaces/inkscape" xmlns:svg="http://www.w3.org/2000/svg" xmlns:dc="http://purl.org/dc/elements/1.1/" sodipodi:docbase="C:\DOCUME~1\pvil005\Desktop\REPOSI~1\SIGNAL~1" sodipodi:version="0.32" sodipodi:docname="SPIRO_~1.SVG" inkscape:version="0.40+cvs"
	 xmlns="http://www.w3.org/2000/svg" xmlns:xlink="http://www.w3.org/1999/xlink" x="0px" y="0px" width="426px" height="336px"
	 viewBox="143.445 86.138 426 336" enable-background="new 143.445 86.138 426 336" xml:space="preserve">
<g>
	<g>
		<path fill="none" stroke="#000000" d="M375.695,254.138c-33.846,27.931-86.288,33.274-124.544,7.376"/>
		<polygon points="255.553,260.021 252.174,262.207 251.4,266.155 246.208,258.167 		"/>
	</g>
</g>
<g>
	<g>
		<path fill="none" stroke="#000000" d="M248.069,248.27c29.158-12.771,88.793-16.004,119.408-5.373"/>
		<polygon points="363.609,245.475 366.31,242.492 366.039,238.478 373.116,244.855 		"/>
	</g>
</g>
<g>
	<g>
		<path fill="none" stroke="#000000" d="M392.392,274.464c13.555-14.712,36.673-16.825,52.456-4.648"/>
		<polygon points="440.361,271.033 443.869,269.061 444.886,265.167 449.574,273.462 		"/>
	</g>
</g>
<line fill="none" stroke="#FF0000" x1="218.695" y1="260.138" x2="199.945" y2="285.626"/>
<sodipodi:namedview  pagecolor="#ffffff" inkscape:cx="340.33166" bordercolor="#666666" borderopacity="1.0" inkscape:zoom="2.0694196" inkscape:cy="732.84338" id="base" inkscape:current-layer="layer1" inkscape:window-x="28" inkscape:window-width="1225" inkscape:window-height="918" inkscape:pageshadow="2" inkscape:pageopacity="0.0" inkscape:window-y="13" inkscape:document-units="px">
	</sodipodi:namedview>
<path id="path13633" sodipodi:nodetypes="cc" d="M234.684,332.318"/>
<g id="g25066" transform="translate(-12.13319,35.73111)">
	<g id="g59398" transform="translate(156.3508,80.45991)">
		<g id="g7045">
			<g id="g7047">
				<path id="path7049" fill="#BFDDFF" stroke="#0092DF" d="M194.016,117.547c0-1.288-1.045-2.333-2.333-2.333
					s-2.333,1.045-2.333,2.333s1.045,2.333,2.333,2.333S194.016,118.835,194.016,117.547z"/>
				<path id="path7051" fill="none" stroke="#0092DF" d="M191.683,115.214V98.88"/>
			</g>
			<g id="g7053">
				<path id="path7055" fill="#BFDDFF" stroke="#0092DF" d="M188.666,117.547c0-1.288-1.045-2.333-2.333-2.333
					c-1.288,0-2.333,1.045-2.333,2.333s1.045,2.333,2.333,2.333C187.621,119.88,188.666,118.835,188.666,117.547z"/>
				<path id="path7057" fill="none" stroke="#0092DF" d="M186.333,115.214V98.88"/>
			</g>
			<g id="g7059">
				<path id="path7061" fill="#BFDDFF" stroke="#0092DF" d="M183.316,117.547c0-1.288-1.045-2.333-2.333-2.333
					c-1.288,0-2.333,1.045-2.333,2.333s1.045,2.333,2.333,2.333C182.271,119.88,183.316,118.835,183.316,117.547z"/>
				<path id="path7063" fill="none" stroke="#0092DF" d="M180.983,115.214V98.88"/>
			</g>
			<g id="g7065">
				<path id="path7067" fill="#BFDDFF" stroke="#0092DF" d="M210.068,117.547c0-1.288-1.045-2.333-2.333-2.333
					c-1.288,0-2.333,1.045-2.333,2.333s1.045,2.333,2.333,2.333C209.023,119.88,210.068,118.835,210.068,117.547z"/>
				<path id="path7069" fill="none" stroke="#0092DF" d="M207.735,115.214V98.88"/>
			</g>
			<g id="g7071">
				<path id="path7073" fill="#BFDDFF" stroke="#0092DF" d="M204.717,117.547c0-1.288-1.045-2.333-2.333-2.333
					s-2.333,1.045-2.333,2.333s1.045,2.333,2.333,2.333S204.717,118.835,204.717,117.547z"/>
				<path id="path7075" fill="none" stroke="#0092DF" d="M202.384,115.214V98.88"/>
			</g>
			<g id="g7077">
				<path id="path7079" fill="#BFDDFF" stroke="#0092DF" d="M199.367,117.547c0-1.288-1.045-2.333-2.333-2.333
					s-2.333,1.045-2.333,2.333s1.045,2.333,2.333,2.333S199.367,118.835,199.367,117.547z"/>
				<path id="path7081" fill="none" stroke="#0092DF" d="M197.034,115.214V98.88"/>
			</g>
			<g id="g7083">
				<path id="path7085" fill="#BFDDFF" stroke="#0092DF" d="M196.692,94.646c0,1.288-1.045,2.333-2.333,2.333
					c-1.288,0-2.333-1.045-2.333-2.333c0-1.288,1.045-2.333,2.333-2.333C195.647,92.313,196.692,93.359,196.692,94.646z"/>
				<path id="path7087" fill="none" stroke="#0092DF" d="M194.359,96.979v16.334"/>
			</g>
			<g id="g7089">
				<path id="path7091" fill="#BFDDFF" stroke="#0092DF" d="M191.341,94.646c0,1.288-1.045,2.333-2.333,2.333
					s-2.333-1.045-2.333-2.333c0-1.288,1.045-2.333,2.333-2.333S191.341,93.359,191.341,94.646z"/>
				<path id="path7093" fill="none" stroke="#0092DF" d="M189.008,96.979v16.334"/>
			</g>
			<g id="g7095">
				<path id="path7097" fill="#BFDDFF" stroke="#0092DF" d="M185.991,94.646c0,1.288-1.045,2.333-2.333,2.333
					s-2.333-1.045-2.333-2.333c0-1.288,1.045-2.333,2.333-2.333S185.991,93.359,185.991,94.646z"/>
				<path id="path7099" fill="none" stroke="#0092DF" d="M183.658,96.979v16.334"/>
			</g>
			<g id="g7101">
				<path id="path7103" fill="#BFDDFF" stroke="#0092DF" d="M212.743,94.646c0,1.288-1.045,2.333-2.333,2.333
					s-2.333-1.045-2.333-2.333c0-1.288,1.045-2.333,2.333-2.333S212.743,93.359,212.743,94.646z"/>
				<path id="path7105" fill="none" stroke="#0092DF" d="M210.41,96.979v16.334"/>
			</g>
			<g id="g7107">
				<path id="path7109" fill="#BFDDFF" stroke="#0092DF" d="M207.393,94.646c0,1.288-1.045,2.333-2.333,2.333
					s-2.333-1.045-2.333-2.333c0-1.288,1.045-2.333,2.333-2.333S207.393,93.359,207.393,94.646z"/>
				<path id="path7111" fill="none" stroke="#0092DF" d="M205.06,96.979v16.334"/>
			</g>
			<g id="g7113">
				<path id="path7115" fill="#BFDDFF" stroke="#0092DF" d="M202.042,94.646c0,1.288-1.045,2.333-2.333,2.333
					c-1.288,0-2.333-1.045-2.333-2.333c0-1.288,1.045-2.333,2.333-2.333C200.997,92.313,202.042,93.359,202.042,94.646z"/>
				<path id="path7117" fill="none" stroke="#0092DF" d="M199.709,96.979v16.334"/>
			</g>
		</g>
		<g id="g7119">
			<g id="g7121">
				<path id="path7123" fill="#BFDDFF" stroke="#0092DF" d="M162.02,117.547c0-1.288-1.045-2.333-2.333-2.333
					s-2.333,1.045-2.333,2.333s1.045,2.333,2.333,2.333S162.02,118.835,162.02,117.547z"/>
				<path id="path7125" fill="none" stroke="#0092DF" d="M159.687,115.214V98.88"/>
			</g>
			<g id="g7127">
				<path id="path7129" fill="#BFDDFF" stroke="#0092DF" d="M156.67,117.547c0-1.288-1.045-2.333-2.333-2.333
					c-1.288,0-2.333,1.045-2.333,2.333s1.045,2.333,2.333,2.333C155.624,119.88,156.67,118.835,156.67,117.547z"/>
				<path id="path7131" fill="none" stroke="#0092DF" d="M154.337,115.214V98.88"/>
			</g>
			<g id="g7133">
				<path id="path7135" fill="#BFDDFF" stroke="#0092DF" d="M151.319,117.547c0-1.288-1.045-2.333-2.333-2.333
					c-1.288,0-2.333,1.045-2.333,2.333s1.045,2.333,2.333,2.333C150.274,119.88,151.319,118.835,151.319,117.547z"/>
				<path id="path7137" fill="none" stroke="#0092DF" d="M148.986,115.214V98.88"/>
			</g>
			<g id="g7139">
				<path id="path7141" fill="#BFDDFF" stroke="#0092DF" d="M178.071,117.547c0-1.288-1.045-2.333-2.333-2.333
					c-1.288,0-2.333,1.045-2.333,2.333s1.045,2.333,2.333,2.333C177.026,119.88,178.071,118.835,178.071,117.547z"/>
				<path id="path7143" fill="none" stroke="#0092DF" d="M175.738,115.214V98.88"/>
			</g>
			<g id="g7145">
				<path id="path7147" fill="#BFDDFF" stroke="#0092DF" d="M172.721,117.547c0-1.288-1.045-2.333-2.333-2.333
					s-2.333,1.045-2.333,2.333s1.045,2.333,2.333,2.333S172.721,118.835,172.721,117.547z"/>
				<path id="path7149" fill="none" stroke="#0092DF" d="M170.388,115.214V98.88"/>
			</g>
			<g id="g7151">
				<path id="path7153" fill="#BFDDFF" stroke="#0092DF" d="M167.37,117.547c0-1.288-1.045-2.333-2.333-2.333
					s-2.333,1.045-2.333,2.333s1.045,2.333,2.333,2.333S167.37,118.835,167.37,117.547z"/>
				<path id="path7155" fill="none" stroke="#0092DF" d="M165.037,115.214V98.88"/>
			</g>
			<g id="g7157">
				<path id="path7159" fill="#BFDDFF" stroke="#0092DF" d="M164.695,94.646c0,1.288-1.045,2.333-2.333,2.333
					c-1.288,0-2.333-1.045-2.333-2.333c0-1.288,1.045-2.333,2.333-2.333C163.65,92.313,164.695,93.359,164.695,94.646z"/>
				<path id="path7161" fill="none" stroke="#0092DF" d="M162.362,96.979v16.334"/>
			</g>
			<g id="g7163">
				<path id="path7165" fill="#BFDDFF" stroke="#0092DF" d="M159.344,94.646c0,1.288-1.045,2.333-2.333,2.333
					s-2.333-1.045-2.333-2.333c0-1.288,1.045-2.333,2.333-2.333S159.344,93.359,159.344,94.646z"/>
				<path id="path7167" fill="none" stroke="#0092DF" d="M157.012,96.979v16.334"/>
			</g>
			<g id="g7169">
				<path id="path7171" fill="#BFDDFF" stroke="#0092DF" d="M153.994,94.646c0,1.288-1.045,2.333-2.333,2.333
					s-2.333-1.045-2.333-2.333c0-1.288,1.045-2.333,2.333-2.333S153.994,93.359,153.994,94.646z"/>
				<path id="path7173" fill="none" stroke="#0092DF" d="M151.661,96.979v16.334"/>
			</g>
			<g id="g7175">
				<path id="path7177" fill="#BFDDFF" stroke="#0092DF" d="M180.746,94.646c0,1.288-1.045,2.333-2.333,2.333
					s-2.333-1.045-2.333-2.333c0-1.288,1.045-2.333,2.333-2.333S180.746,93.359,180.746,94.646z"/>
				<path id="path7179" fill="none" stroke="#0092DF" d="M178.414,96.979v16.334"/>
			</g>
			<g id="g7181">
				<path id="path7183" fill="#BFDDFF" stroke="#0092DF" d="M175.396,94.646c0,1.288-1.045,2.333-2.333,2.333
					s-2.333-1.045-2.333-2.333c0-1.288,1.045-2.333,2.333-2.333S175.396,93.359,175.396,94.646z"/>
				<path id="path7185" fill="none" stroke="#0092DF" d="M173.063,96.979v16.334"/>
			</g>
			<g id="g7187">
				<path id="path7189" fill="#BFDDFF" stroke="#0092DF" d="M170.046,94.646c0,1.288-1.045,2.333-2.333,2.333
					c-1.288,0-2.333-1.045-2.333-2.333c0-1.288,1.045-2.333,2.333-2.333C169.001,92.313,170.046,93.359,170.046,94.646z"/>
				<path id="path7191" fill="none" stroke="#0092DF" d="M167.713,96.979v16.334"/>
			</g>
		</g>
		<g id="g7193">
			<g id="g7195">
				<path id="path7197" fill="#BFDDFF" stroke="#0092DF" d="M130.023,117.547c0-1.288-1.045-2.333-2.333-2.333
					c-1.288,0-2.333,1.045-2.333,2.333s1.045,2.333,2.333,2.333C128.978,119.88,130.023,118.835,130.023,117.547z"/>
				<path id="path7199" fill="none" stroke="#0092DF" d="M127.69,115.214V98.88"/>
			</g>
			<g id="g7201">
				<path id="path7203" fill="#BFDDFF" stroke="#0092DF" d="M124.673,117.547c0-1.288-1.045-2.333-2.333-2.333
					c-1.288,0-2.333,1.045-2.333,2.333s1.045,2.333,2.333,2.333C123.628,119.88,124.673,118.835,124.673,117.547z"/>
				<path id="path7205" fill="none" stroke="#0092DF" d="M122.34,115.214V98.88"/>
			</g>
			<g id="g7207">
				<path id="path7209" fill="#BFDDFF" stroke="#0092DF" d="M119.322,117.547c0-1.288-1.045-2.333-2.333-2.333
					s-2.333,1.045-2.333,2.333s1.045,2.333,2.333,2.333S119.322,118.835,119.322,117.547z"/>
				<path id="path7211" fill="none" stroke="#0092DF" d="M116.989,115.214V98.88"/>
			</g>
			<g id="g7213">
				<path id="path7215" fill="#BFDDFF" stroke="#0092DF" d="M146.075,117.547c0-1.288-1.045-2.333-2.333-2.333
					s-2.333,1.045-2.333,2.333s1.045,2.333,2.333,2.333C145.029,119.88,146.075,118.835,146.075,117.547z"/>
				<path id="path7217" fill="none" stroke="#0092DF" d="M143.742,115.214V98.88"/>
			</g>
			<g id="g7219">
				<path id="path7221" fill="#BFDDFF" stroke="#0092DF" d="M140.724,117.547c0-1.288-1.045-2.333-2.333-2.333
					s-2.333,1.045-2.333,2.333s1.045,2.333,2.333,2.333S140.724,118.835,140.724,117.547z"/>
				<path id="path7223" fill="none" stroke="#0092DF" d="M138.391,115.214V98.88"/>
			</g>
			<g id="g7225">
				<path id="path7227" fill="#BFDDFF" stroke="#0092DF" d="M135.374,117.547c0-1.288-1.045-2.333-2.333-2.333
					s-2.333,1.045-2.333,2.333s1.045,2.333,2.333,2.333S135.374,118.835,135.374,117.547z"/>
				<path id="path7229" fill="none" stroke="#0092DF" d="M133.041,115.214V98.88"/>
			</g>
			<g id="g7231">
				<path id="path7233" fill="#BFDDFF" stroke="#0092DF" d="M132.698,94.646c0,1.288-1.045,2.333-2.333,2.333
					s-2.333-1.045-2.333-2.333c0-1.288,1.045-2.333,2.333-2.333S132.698,93.359,132.698,94.646z"/>
				<path id="path7235" fill="none" stroke="#0092DF" d="M130.365,96.979v16.334"/>
			</g>
			<g id="g7237">
				<path id="path7239" fill="#BFDDFF" stroke="#0092DF" d="M127.348,94.646c0,1.288-1.045,2.333-2.333,2.333
					s-2.333-1.045-2.333-2.333c0-1.288,1.045-2.333,2.333-2.333S127.348,93.359,127.348,94.646z"/>
				<path id="path7241" fill="none" stroke="#0092DF" d="M125.015,96.979v16.334"/>
			</g>
			<g id="g7243">
				<path id="path7245" fill="#BFDDFF" stroke="#0092DF" d="M121.998,94.646c0,1.288-1.045,2.333-2.333,2.333
					s-2.333-1.045-2.333-2.333c0-1.288,1.045-2.333,2.333-2.333S121.998,93.359,121.998,94.646z"/>
				<path id="path7247" fill="none" stroke="#0092DF" d="M119.665,96.979v16.334"/>
			</g>
			<g id="g7249">
				<path id="path7251" fill="#BFDDFF" stroke="#0092DF" d="M148.75,94.646c0,1.288-1.045,2.333-2.333,2.333
					c-1.288,0-2.333-1.045-2.333-2.333c0-1.288,1.045-2.333,2.333-2.333C147.705,92.313,148.75,93.359,148.75,94.646z"/>
				<path id="path7253" fill="none" stroke="#0092DF" d="M146.417,96.979v16.334"/>
			</g>
			<g id="g7255">
				<path id="path7257" fill="#BFDDFF" stroke="#0092DF" d="M143.4,94.646c0,1.288-1.045,2.333-2.333,2.333
					c-1.288,0-2.333-1.045-2.333-2.333c0-1.288,1.045-2.333,2.333-2.333C142.355,92.313,143.4,93.359,143.4,94.646z"/>
				<path id="path7259" fill="none" stroke="#0092DF" d="M141.067,96.979v16.334"/>
			</g>
			<g id="g7261">
				<path id="path7263" fill="#BFDDFF" stroke="#0092DF" d="M138.049,94.646c0,1.288-1.045,2.333-2.333,2.333
					s-2.333-1.045-2.333-2.333c0-1.288,1.045-2.333,2.333-2.333S138.049,93.359,138.049,94.646z"/>
				<path id="path7265" fill="none" stroke="#0092DF" d="M135.716,96.979v16.334"/>
			</g>
		</g>
		<g id="g7267">
			<g id="g7269">
				<path id="path7271" fill="#BFDDFF" stroke="#0092DF" d="M98.027,117.547c0-1.288-1.045-2.333-2.333-2.333
					c-1.288,0-2.333,1.045-2.333,2.333s1.045,2.333,2.333,2.333C96.982,119.88,98.027,118.835,98.027,117.547z"/>
				<path id="path7273" fill="none" stroke="#0092DF" d="M95.694,115.214V98.88"/>
			</g>
			<g id="g7275">
				<path id="path7277" fill="#BFDDFF" stroke="#0092DF" d="M92.676,117.547c0-1.288-1.045-2.333-2.333-2.333
					s-2.333,1.045-2.333,2.333s1.045,2.333,2.333,2.333S92.676,118.835,92.676,117.547z"/>
				<path id="path7279" fill="none" stroke="#0092DF" d="M90.343,115.214V98.88"/>
			</g>
			<g id="g7281">
				<path id="path7283" fill="#BFDDFF" stroke="#0092DF" d="M87.326,117.547c0-1.288-1.045-2.333-2.333-2.333
					s-2.333,1.045-2.333,2.333s1.045,2.333,2.333,2.333S87.326,118.835,87.326,117.547z"/>
				<path id="path7285" fill="none" stroke="#0092DF" d="M84.993,115.214V98.88"/>
			</g>
			<g id="g7287">
				<path id="path7289" fill="#BFDDFF" stroke="#0092DF" d="M114.078,117.547c0-1.288-1.045-2.333-2.333-2.333
					s-2.333,1.045-2.333,2.333s1.045,2.333,2.333,2.333S114.078,118.835,114.078,117.547z"/>
				<path id="path7291" fill="none" stroke="#0092DF" d="M111.745,115.214V98.88"/>
			</g>
			<g id="g7293">
				<path id="path7295" fill="#BFDDFF" stroke="#0092DF" d="M108.728,117.547c0-1.288-1.045-2.333-2.333-2.333
					s-2.333,1.045-2.333,2.333s1.045,2.333,2.333,2.333S108.728,118.835,108.728,117.547z"/>
				<path id="path7297" fill="none" stroke="#0092DF" d="M106.395,115.214V98.88"/>
			</g>
			<g id="g7299">
				<path id="path7301" fill="#BFDDFF" stroke="#0092DF" d="M103.377,117.547c0-1.288-1.045-2.333-2.333-2.333
					c-1.288,0-2.333,1.045-2.333,2.333s1.045,2.333,2.333,2.333C102.332,119.88,103.377,118.835,103.377,117.547z"/>
				<path id="path7303" fill="none" stroke="#0092DF" d="M101.044,115.214V98.88"/>
			</g>
			<g id="g7305">
				<path id="path7307" fill="#BFDDFF" stroke="#0092DF" d="M100.702,94.646c0,1.288-1.045,2.333-2.333,2.333
					s-2.333-1.045-2.333-2.333c0-1.288,1.045-2.333,2.333-2.333S100.702,93.359,100.702,94.646z"/>
				<path id="path7309" fill="none" stroke="#0092DF" d="M98.369,96.979v16.334"/>
			</g>
			<g id="g7311">
				<path id="path7313" fill="#BFDDFF" stroke="#0092DF" d="M95.351,94.646c0,1.288-1.045,2.333-2.333,2.333
					s-2.333-1.045-2.333-2.333c0-1.288,1.045-2.333,2.333-2.333S95.351,93.359,95.351,94.646z"/>
				<path id="path7315" fill="none" stroke="#0092DF" d="M93.018,96.979v16.334"/>
			</g>
			<g id="g7317">
				<path id="path7319" fill="#BFDDFF" stroke="#0092DF" d="M90.001,94.646c0,1.288-1.045,2.333-2.333,2.333
					c-1.288,0-2.333-1.045-2.333-2.333c0-1.288,1.045-2.333,2.333-2.333C88.956,92.313,90.001,93.359,90.001,94.646z"/>
				<path id="path7321" fill="none" stroke="#0092DF" d="M87.668,96.979v16.334"/>
			</g>
			<g id="g7323">
				<path id="path7325" fill="#BFDDFF" stroke="#0092DF" d="M116.753,94.646c0,1.288-1.045,2.333-2.333,2.333
					c-1.288,0-2.333-1.045-2.333-2.333c0-1.288,1.045-2.333,2.333-2.333C115.708,92.313,116.753,93.359,116.753,94.646z"/>
				<path id="path7327" fill="none" stroke="#0092DF" d="M114.421,96.979v16.334"/>
			</g>
			<g id="g7329">
				<path id="path7331" fill="#BFDDFF" stroke="#0092DF" d="M111.403,94.646c0,1.288-1.045,2.333-2.333,2.333
					c-1.288,0-2.333-1.045-2.333-2.333c0-1.288,1.045-2.333,2.333-2.333C110.358,92.313,111.403,93.359,111.403,94.646z"/>
				<path id="path7333" fill="none" stroke="#0092DF" d="M109.07,96.979v16.334"/>
			</g>
			<g id="g7335">
				<path id="path7337" fill="#BFDDFF" stroke="#0092DF" d="M106.052,94.646c0,1.288-1.045,2.333-2.333,2.333
					s-2.333-1.045-2.333-2.333c0-1.288,1.045-2.333,2.333-2.333S106.052,93.359,106.052,94.646z"/>
				<path id="path7339" fill="none" stroke="#0092DF" d="M103.719,96.979v16.334"/>
			</g>
		</g>
		<g id="g7341">
			<g id="g7343">
				<path id="path7345" fill="#BFDDFF" stroke="#0092DF" d="M66.03,117.547c0-1.288-1.045-2.333-2.333-2.333
					s-2.333,1.045-2.333,2.333s1.045,2.333,2.333,2.333S66.03,118.835,66.03,117.547z"/>
				<path id="path7347" fill="none" stroke="#0092DF" d="M63.697,115.214V98.88"/>
			</g>
			<g id="g7349">
				<path id="path7351" fill="#BFDDFF" stroke="#0092DF" d="M60.68,117.547c0-1.288-1.045-2.333-2.333-2.333
					s-2.333,1.045-2.333,2.333s1.045,2.333,2.333,2.333C59.634,119.88,60.68,118.835,60.68,117.547z"/>
				<path id="path7353" fill="none" stroke="#0092DF" d="M58.347,115.214V98.88"/>
			</g>
			<g id="g7355">
				<path id="path7357" fill="#BFDDFF" stroke="#0092DF" d="M55.329,117.547c0-1.288-1.045-2.333-2.333-2.333
					s-2.333,1.045-2.333,2.333s1.045,2.333,2.333,2.333S55.329,118.835,55.329,117.547z"/>
				<path id="path7359" fill="none" stroke="#0092DF" d="M52.996,115.214V98.88"/>
			</g>
			<g id="g7361">
				<path id="path7363" fill="#BFDDFF" stroke="#0092DF" d="M82.082,117.547c0-1.288-1.045-2.333-2.333-2.333
					s-2.333,1.045-2.333,2.333s1.045,2.333,2.333,2.333S82.082,118.835,82.082,117.547z"/>
				<path id="path7365" fill="none" stroke="#0092DF" d="M79.749,115.214V98.88"/>
			</g>
			<g id="g7367">
				<path id="path7369" fill="#BFDDFF" stroke="#0092DF" d="M76.731,117.547c0-1.288-1.045-2.333-2.333-2.333
					c-1.288,0-2.333,1.045-2.333,2.333s1.045,2.333,2.333,2.333C75.686,119.88,76.731,118.835,76.731,117.547z"/>
				<path id="path7371" fill="none" stroke="#0092DF" d="M74.398,115.214V98.88"/>
			</g>
			<g id="g7373">
				<path id="path7375" fill="#BFDDFF" stroke="#0092DF" d="M71.381,117.547c0-1.288-1.045-2.333-2.333-2.333
					c-1.288,0-2.333,1.045-2.333,2.333s1.045,2.333,2.333,2.333C70.336,119.88,71.381,118.835,71.381,117.547z"/>
				<path id="path7377" fill="none" stroke="#0092DF" d="M69.048,115.214V98.88"/>
			</g>
			<g id="g7379">
				<path id="path7381" fill="#BFDDFF" stroke="#0092DF" d="M68.705,94.646c0,1.288-1.045,2.333-2.333,2.333
					s-2.333-1.045-2.333-2.333c0-1.288,1.045-2.333,2.333-2.333S68.705,93.359,68.705,94.646z"/>
				<path id="path7383" fill="none" stroke="#0092DF" d="M66.372,96.979v16.334"/>
			</g>
			<g id="g7385">
				<path id="path7387" fill="#BFDDFF" stroke="#0092DF" d="M63.355,94.646c0,1.288-1.045,2.333-2.333,2.333
					c-1.288,0-2.333-1.045-2.333-2.333c0-1.288,1.045-2.333,2.333-2.333C62.31,92.313,63.355,93.359,63.355,94.646z"/>
				<path id="path7389" fill="none" stroke="#0092DF" d="M61.022,96.979v16.334"/>
			</g>
			<g id="g7391">
				<path id="path7393" fill="#BFDDFF" stroke="#0092DF" d="M58.005,94.646c0,1.288-1.045,2.333-2.333,2.333
					c-1.288,0-2.333-1.045-2.333-2.333c0-1.288,1.045-2.333,2.333-2.333C56.96,92.313,58.005,93.359,58.005,94.646z"/>
				<path id="path7395" fill="none" stroke="#0092DF" d="M55.672,96.979v16.334"/>
			</g>
			<g id="g7397">
				<path id="path7399" fill="#BFDDFF" stroke="#0092DF" d="M84.757,94.646c0,1.288-1.045,2.333-2.333,2.333
					c-1.288,0-2.333-1.045-2.333-2.333c0-1.288,1.045-2.333,2.333-2.333C83.712,92.313,84.757,93.359,84.757,94.646z"/>
				<path id="path7401" fill="none" stroke="#0092DF" d="M82.424,96.979v16.334"/>
			</g>
			<g id="g7403">
				<path id="path7405" fill="#BFDDFF" stroke="#0092DF" d="M79.406,94.646c0,1.288-1.045,2.333-2.333,2.333
					s-2.333-1.045-2.333-2.333c0-1.288,1.045-2.333,2.333-2.333S79.406,93.359,79.406,94.646z"/>
				<path id="path7407" fill="none" stroke="#0092DF" d="M77.073,96.979v16.334"/>
			</g>
			<g id="g7409">
				<path id="path7411" fill="#BFDDFF" stroke="#0092DF" d="M74.056,94.646c0,1.288-1.045,2.333-2.333,2.333
					s-2.333-1.045-2.333-2.333c0-1.288,1.045-2.333,2.333-2.333S74.056,93.359,74.056,94.646z"/>
				<path id="path7413" fill="none" stroke="#0092DF" d="M71.723,96.979v16.334"/>
			</g>
		</g>
		<g id="g7415">
			<g id="g7417">
				<path id="path7419" fill="#BFDDFF" stroke="#0092DF" d="M34.033,117.547c0-1.288-1.045-2.333-2.333-2.333
					s-2.333,1.045-2.333,2.333s1.045,2.333,2.333,2.333S34.033,118.835,34.033,117.547z"/>
				<path id="path7421" fill="none" stroke="#0092DF" d="M31.7,115.214V98.88"/>
			</g>
			<g id="g7423">
				<path id="path7425" fill="#BFDDFF" stroke="#0092DF" d="M28.683,117.547c0-1.288-1.045-2.333-2.333-2.333
					s-2.333,1.045-2.333,2.333s1.045,2.333,2.333,2.333S28.683,118.835,28.683,117.547z"/>
				<path id="path7427" fill="none" stroke="#0092DF" d="M26.35,115.214V98.88"/>
			</g>
			<g id="g7429">
				<path id="path7431" fill="#BFDDFF" stroke="#0092DF" d="M23.333,117.547c0-1.288-1.045-2.333-2.333-2.333
					s-2.333,1.045-2.333,2.333s1.045,2.333,2.333,2.333S23.333,118.835,23.333,117.547z"/>
				<path id="path7433" fill="none" stroke="#0092DF" d="M21,115.214V98.88"/>
			</g>
			<g id="g7435">
				<path id="path7437" fill="#BFDDFF" stroke="#0092DF" d="M50.085,117.547c0-1.288-1.045-2.333-2.333-2.333
					c-1.288,0-2.333,1.045-2.333,2.333s1.045,2.333,2.333,2.333C49.04,119.88,50.085,118.835,50.085,117.547z"/>
				<path id="path7439" fill="none" stroke="#0092DF" d="M47.752,115.214V98.88"/>
			</g>
			<g id="g7441">
				<path id="path7443" fill="#BFDDFF" stroke="#0092DF" d="M44.735,117.547c0-1.288-1.045-2.333-2.333-2.333
					c-1.288,0-2.333,1.045-2.333,2.333s1.045,2.333,2.333,2.333C43.69,119.88,44.735,118.835,44.735,117.547z"/>
				<path id="path7445" fill="none" stroke="#0092DF" d="M42.402,115.214V98.88"/>
			</g>
			<g id="g7447">
				<path id="path7449" fill="#BFDDFF" stroke="#0092DF" d="M39.384,117.547c0-1.288-1.045-2.333-2.333-2.333
					s-2.333,1.045-2.333,2.333s1.045,2.333,2.333,2.333S39.384,118.835,39.384,117.547z"/>
				<path id="path7451" fill="none" stroke="#0092DF" d="M37.051,115.214V98.88"/>
			</g>
			<g id="g7453">
				<path id="path7455" fill="#BFDDFF" stroke="#0092DF" d="M36.709,94.646c0,1.288-1.045,2.333-2.333,2.333
					c-1.288,0-2.333-1.045-2.333-2.333c0-1.288,1.045-2.333,2.333-2.333C35.664,92.313,36.709,93.359,36.709,94.646z"/>
				<path id="path7457" fill="none" stroke="#0092DF" d="M34.376,96.979v16.334"/>
			</g>
			<g id="g7459">
				<path id="path7461" fill="#BFDDFF" stroke="#0092DF" d="M31.358,94.646c0,1.288-1.045,2.333-2.333,2.333
					c-1.288,0-2.333-1.045-2.333-2.333c0-1.288,1.045-2.333,2.333-2.333C30.313,92.313,31.358,93.359,31.358,94.646z"/>
				<path id="path7463" fill="none" stroke="#0092DF" d="M29.025,96.979v16.334"/>
			</g>
			<g id="g7465">
				<path id="path7467" fill="#BFDDFF" stroke="#0092DF" d="M26.008,94.646c0,1.288-1.045,2.333-2.333,2.333
					s-2.333-1.045-2.333-2.333c0-1.288,1.045-2.333,2.333-2.333S26.008,93.359,26.008,94.646z"/>
				<path id="path7469" fill="none" stroke="#0092DF" d="M23.675,96.979v16.334"/>
			</g>
			<g id="g7471">
				<path id="path7473" fill="#BFDDFF" stroke="#0092DF" d="M52.76,94.646c0,1.288-1.045,2.333-2.333,2.333
					s-2.333-1.045-2.333-2.333c0-1.288,1.045-2.333,2.333-2.333S52.76,93.359,52.76,94.646z"/>
				<path id="path7475" fill="none" stroke="#0092DF" d="M50.427,96.979v16.334"/>
			</g>
			<g id="g7477">
				<path id="path7479" fill="#BFDDFF" stroke="#0092DF" d="M47.41,94.646c0,1.288-1.045,2.333-2.333,2.333
					s-2.333-1.045-2.333-2.333c0-1.288,1.045-2.333,2.333-2.333S47.41,93.359,47.41,94.646z"/>
				<path id="path7481" fill="none" stroke="#0092DF" d="M45.077,96.979v16.334"/>
			</g>
			<g id="g7483">
				<path id="path7485" fill="#BFDDFF" stroke="#0092DF" d="M42.059,94.646c0,1.288-1.045,2.333-2.333,2.333
					s-2.333-1.045-2.333-2.333c0-1.288,1.045-2.333,2.333-2.333S42.059,93.359,42.059,94.646z"/>
				<path id="path7487" fill="none" stroke="#0092DF" d="M39.726,96.979v16.334"/>
			</g>
		</g>
	</g>
	<g id="g10441" transform="translate(348.4133,80.45994)">
		<g id="g10443">
			<g id="g10445">
				<path id="path10447" fill="#BFDDFF" stroke="#0092DF" d="M194.016,117.547c0-1.288-1.045-2.333-2.334-2.333
					c-1.287,0-2.332,1.045-2.332,2.333s1.045,2.333,2.332,2.333C192.971,119.88,194.016,118.835,194.016,117.547z"/>
				<path id="path10449" fill="none" stroke="#0092DF" d="M191.682,115.214V98.88"/>
			</g>
			<g id="g10451">
				<path id="path10453" fill="#BFDDFF" stroke="#0092DF" d="M188.667,117.547c0-1.288-1.045-2.333-2.334-2.333
					c-1.287,0-2.332,1.045-2.332,2.333s1.045,2.333,2.332,2.333C187.622,119.88,188.667,118.835,188.667,117.547z"/>
				<path id="path10455" fill="none" stroke="#0092DF" d="M186.333,115.214V98.88"/>
			</g>
			<g id="g10457">
				<path id="path10459" fill="#BFDDFF" stroke="#0092DF" d="M183.315,117.547c0-1.288-1.045-2.333-2.332-2.333
					c-1.289,0-2.334,1.045-2.334,2.333s1.045,2.333,2.334,2.333C182.27,119.88,183.315,118.835,183.315,117.547z"/>
				<path id="path10461" fill="none" stroke="#0092DF" d="M180.983,115.214V98.88"/>
			</g>
			<g id="g10463">
				<path id="path10465" fill="#BFDDFF" stroke="#0092DF" d="M210.067,117.547c0-1.288-1.045-2.333-2.332-2.333
					c-1.289,0-2.334,1.045-2.334,2.333s1.045,2.333,2.334,2.333C209.022,119.88,210.067,118.835,210.067,117.547z"/>
				<path id="path10467" fill="none" stroke="#0092DF" d="M207.735,115.214V98.88"/>
			</g>
			<g id="g10469">
				<path id="path10471" fill="#BFDDFF" stroke="#0092DF" d="M204.717,117.547c0-1.288-1.045-2.333-2.334-2.333
					c-1.287,0-2.332,1.045-2.332,2.333s1.045,2.333,2.332,2.333C203.673,119.88,204.717,118.835,204.717,117.547z"/>
				<path id="path10473" fill="none" stroke="#0092DF" d="M202.383,115.214V98.88"/>
			</g>
			<g id="g10475">
				<path id="path10477" fill="#BFDDFF" stroke="#0092DF" d="M199.366,117.547c0-1.288-1.045-2.333-2.332-2.333
					s-2.334,1.045-2.334,2.333s1.047,2.333,2.334,2.333S199.366,118.835,199.366,117.547z"/>
				<path id="path10479" fill="none" stroke="#0092DF" d="M197.034,115.214V98.88"/>
			</g>
			<g id="g10481">
				<path id="path10483" fill="#BFDDFF" stroke="#0092DF" d="M196.692,94.646c0,1.288-1.045,2.333-2.334,2.333
					c-1.287,0-2.332-1.045-2.332-2.333c0-1.288,1.045-2.333,2.332-2.333C195.647,92.313,196.692,93.359,196.692,94.646z"/>
				<path id="path10485" fill="none" stroke="#0092DF" d="M194.358,96.979v16.334"/>
			</g>
			<g id="g10487">
				<path id="path10489" fill="#BFDDFF" stroke="#0092DF" d="M191.341,94.646c0,1.288-1.045,2.333-2.332,2.333
					c-1.289,0-2.334-1.045-2.334-2.333c0-1.288,1.045-2.333,2.334-2.333C190.296,92.313,191.341,93.359,191.341,94.646z"/>
				<path id="path10491" fill="none" stroke="#0092DF" d="M189.008,96.979v16.334"/>
			</g>
			<g id="g10493">
				<path id="path10495" fill="#BFDDFF" stroke="#0092DF" d="M185.991,94.646c0,1.288-1.045,2.333-2.334,2.333
					c-1.287,0-2.332-1.045-2.332-2.333c0-1.288,1.045-2.333,2.332-2.333C184.946,92.313,185.991,93.359,185.991,94.646z"/>
				<path id="path10497" fill="none" stroke="#0092DF" d="M183.657,96.979v16.334"/>
			</g>
			<g id="g10499">
				<path id="path10501" fill="#BFDDFF" stroke="#0092DF" d="M212.743,94.646c0,1.288-1.045,2.333-2.334,2.333
					c-1.287,0-2.332-1.045-2.332-2.333c0-1.288,1.045-2.333,2.332-2.333C211.698,92.313,212.743,93.359,212.743,94.646z"/>
				<path id="path10503" fill="none" stroke="#0092DF" d="M210.409,96.979v16.334"/>
			</g>
			<g id="g10505">
				<path id="path10507" fill="#BFDDFF" stroke="#0092DF" d="M207.393,94.646c0,1.288-1.045,2.333-2.334,2.333
					c-1.287,0-2.332-1.045-2.332-2.333c0-1.288,1.045-2.333,2.332-2.333C206.348,92.313,207.393,93.359,207.393,94.646z"/>
				<path id="path10509" fill="none" stroke="#0092DF" d="M205.059,96.979v16.334"/>
			</g>
			<g id="g10511">
				<path id="path10513" fill="#BFDDFF" stroke="#0092DF" d="M202.042,94.646c0,1.288-1.045,2.333-2.332,2.333
					c-1.289,0-2.334-1.045-2.334-2.333c0-1.288,1.045-2.333,2.334-2.333C200.997,92.313,202.042,93.359,202.042,94.646z"/>
				<path id="path10515" fill="none" stroke="#0092DF" d="M199.71,96.979v16.334"/>
			</g>
		</g>
		<g id="g10517">
			<g id="g10519">
				<path id="path10521" fill="#BFDDFF" stroke="#0092DF" d="M162.02,117.547c0-1.288-1.045-2.333-2.334-2.333
					c-1.287,0-2.332,1.045-2.332,2.333s1.045,2.333,2.332,2.333C160.975,119.88,162.02,118.835,162.02,117.547z"/>
				<path id="path10523" fill="none" stroke="#0092DF" d="M159.686,115.214V98.88"/>
			</g>
			<g id="g10525">
				<path id="path10527" fill="#BFDDFF" stroke="#0092DF" d="M156.671,117.547c0-1.288-1.045-2.333-2.334-2.333
					c-1.287,0-2.332,1.045-2.332,2.333s1.045,2.333,2.332,2.333S156.671,118.835,156.671,117.547z"/>
				<path id="path10529" fill="none" stroke="#0092DF" d="M154.337,115.214V98.88"/>
			</g>
			<g id="g10531">
				<path id="path10533" fill="#BFDDFF" stroke="#0092DF" d="M151.319,117.547c0-1.288-1.045-2.333-2.334-2.333
					c-1.287,0-2.332,1.045-2.332,2.333s1.045,2.333,2.332,2.333C150.274,119.88,151.319,118.835,151.319,117.547z"/>
				<path id="path10535" fill="none" stroke="#0092DF" d="M148.985,115.214V98.88"/>
			</g>
			<g id="g10537">
				<path id="path10539" fill="#BFDDFF" stroke="#0092DF" d="M178.071,117.547c0-1.288-1.045-2.333-2.334-2.333
					c-1.287,0-2.332,1.045-2.332,2.333s1.045,2.333,2.332,2.333C177.026,119.88,178.071,118.835,178.071,117.547z"/>
				<path id="path10541" fill="none" stroke="#0092DF" d="M175.737,115.214V98.88"/>
			</g>
			<g id="g10543">
				<path id="path10545" fill="#BFDDFF" stroke="#0092DF" d="M172.721,117.547c0-1.288-1.045-2.333-2.334-2.333
					c-1.287,0-2.332,1.045-2.332,2.333s1.045,2.333,2.332,2.333C171.676,119.88,172.721,118.835,172.721,117.547z"/>
				<path id="path10547" fill="none" stroke="#0092DF" d="M170.387,115.214V98.88"/>
			</g>
			<g id="g10549">
				<path id="path10551" fill="#BFDDFF" stroke="#0092DF" d="M167.37,117.547c0-1.288-1.045-2.333-2.332-2.333
					c-1.289,0-2.334,1.045-2.334,2.333s1.045,2.333,2.334,2.333C166.325,119.88,167.37,118.835,167.37,117.547z"/>
				<path id="path10553" fill="none" stroke="#0092DF" d="M165.038,115.214V98.88"/>
			</g>
			<g id="g10555">
				<path id="path10557" fill="#BFDDFF" stroke="#0092DF" d="M164.694,94.646c0,1.288-1.045,2.333-2.332,2.333
					c-1.289,0-2.334-1.045-2.334-2.333c0-1.288,1.045-2.333,2.334-2.333C163.649,92.313,164.694,93.359,164.694,94.646z"/>
				<path id="path10559" fill="none" stroke="#0092DF" d="M162.362,96.979v16.334"/>
			</g>
			<g id="g10561">
				<path id="path10563" fill="#BFDDFF" stroke="#0092DF" d="M159.344,94.646c0,1.288-1.045,2.333-2.334,2.333
					c-1.287,0-2.332-1.045-2.332-2.333c0-1.288,1.045-2.333,2.332-2.333C158.299,92.313,159.344,93.359,159.344,94.646z"/>
				<path id="path10565" fill="none" stroke="#0092DF" d="M157.012,96.979v16.334"/>
			</g>
			<g id="g10567">
				<path id="path10569" fill="#BFDDFF" stroke="#0092DF" d="M153.993,94.646c0,1.288-1.045,2.333-2.332,2.333
					s-2.332-1.045-2.332-2.333c0-1.288,1.045-2.333,2.332-2.333S153.993,93.359,153.993,94.646z"/>
				<path id="path10571" fill="none" stroke="#0092DF" d="M151.661,96.979v16.334"/>
			</g>
			<g id="g10573">
				<path id="path10575" fill="#BFDDFF" stroke="#0092DF" d="M180.747,94.646c0,1.288-1.047,2.333-2.334,2.333
					s-2.332-1.045-2.332-2.333c0-1.288,1.045-2.333,2.332-2.333S180.747,93.359,180.747,94.646z"/>
				<path id="path10577" fill="none" stroke="#0092DF" d="M178.415,96.979v16.334"/>
			</g>
			<g id="g10579">
				<path id="path10581" fill="#BFDDFF" stroke="#0092DF" d="M175.395,94.646c0,1.288-1.045,2.333-2.332,2.333
					c-1.289,0-2.334-1.045-2.334-2.333c0-1.288,1.045-2.333,2.334-2.333C174.35,92.313,175.395,93.359,175.395,94.646z"/>
				<path id="path10583" fill="none" stroke="#0092DF" d="M173.063,96.979v16.334"/>
			</g>
			<g id="g10585">
				<path id="path10587" fill="#BFDDFF" stroke="#0092DF" d="M170.046,94.646c0,1.288-1.045,2.333-2.332,2.333
					c-1.289,0-2.334-1.045-2.334-2.333c0-1.288,1.045-2.333,2.334-2.333C169.001,92.313,170.046,93.359,170.046,94.646z"/>
				<path id="path10589" fill="none" stroke="#0092DF" d="M167.714,96.979v16.334"/>
			</g>
		</g>
		<g id="g10591">
			<g id="g10593">
				<path id="path10595" fill="#BFDDFF" stroke="#0092DF" d="M130.022,117.547c0-1.288-1.045-2.333-2.332-2.333
					c-1.289,0-2.334,1.045-2.334,2.333s1.045,2.333,2.334,2.333C128.977,119.88,130.022,118.835,130.022,117.547z"/>
				<path id="path10597" fill="none" stroke="#0092DF" d="M127.69,115.214V98.88"/>
			</g>
			<g id="g10599">
				<path id="path10601" fill="#BFDDFF" stroke="#0092DF" d="M124.673,117.547c0-1.288-1.045-2.333-2.332-2.333
					c-1.289,0-2.334,1.045-2.334,2.333s1.045,2.333,2.334,2.333C123.628,119.88,124.673,118.835,124.673,117.547z"/>
				<path id="path10603" fill="none" stroke="#0092DF" d="M122.341,115.214V98.88"/>
			</g>
			<g id="g10605">
				<path id="path10607" fill="#BFDDFF" stroke="#0092DF" d="M119.321,117.547c0-1.288-1.045-2.333-2.332-2.333
					c-1.289,0-2.334,1.045-2.334,2.333s1.045,2.333,2.334,2.333C118.276,119.88,119.321,118.835,119.321,117.547z"/>
				<path id="path10609" fill="none" stroke="#0092DF" d="M116.989,115.214V98.88"/>
			</g>
			<g id="g10611">
				<path id="path10613" fill="#BFDDFF" stroke="#0092DF" d="M146.075,117.547c0-1.288-1.045-2.333-2.334-2.333
					c-1.287,0-2.332,1.045-2.332,2.333s1.045,2.333,2.332,2.333S146.075,118.835,146.075,117.547z"/>
				<path id="path10615" fill="none" stroke="#0092DF" d="M143.741,115.214V98.88"/>
			</g>
			<g id="g10617">
				<path id="path10619" fill="#BFDDFF" stroke="#0092DF" d="M140.723,117.547c0-1.288-1.045-2.333-2.332-2.333
					c-1.289,0-2.334,1.045-2.334,2.333s1.045,2.333,2.334,2.333C139.678,119.88,140.723,118.835,140.723,117.547z"/>
				<path id="path10621" fill="none" stroke="#0092DF" d="M138.391,115.214V98.88"/>
			</g>
			<g id="g10623">
				<path id="path10625" fill="#BFDDFF" stroke="#0092DF" d="M135.374,117.547c0-1.288-1.045-2.333-2.332-2.333
					c-1.289,0-2.334,1.045-2.334,2.333s1.045,2.333,2.334,2.333C134.329,119.88,135.374,118.835,135.374,117.547z"/>
				<path id="path10627" fill="none" stroke="#0092DF" d="M133.042,115.214V98.88"/>
			</g>
			<g id="g10629">
				<path id="path10631" fill="#BFDDFF" stroke="#0092DF" d="M132.698,94.646c0,1.288-1.045,2.333-2.334,2.333
					c-1.287,0-2.332-1.045-2.332-2.333c0-1.288,1.045-2.333,2.332-2.333C131.653,92.313,132.698,93.359,132.698,94.646z"/>
				<path id="path10633" fill="none" stroke="#0092DF" d="M130.364,96.979v16.334"/>
			</g>
			<g id="g10635">
				<path id="path10637" fill="#BFDDFF" stroke="#0092DF" d="M127.348,94.646c0,1.288-1.045,2.333-2.334,2.333
					c-1.287,0-2.332-1.045-2.332-2.333c0-1.288,1.045-2.333,2.332-2.333C126.303,92.313,127.348,93.359,127.348,94.646z"/>
				<path id="path10639" fill="none" stroke="#0092DF" d="M125.014,96.979v16.334"/>
			</g>
			<g id="g10641">
				<path id="path10643" fill="#BFDDFF" stroke="#0092DF" d="M121.999,94.646c0,1.288-1.045,2.333-2.334,2.333
					c-1.287,0-2.332-1.045-2.332-2.333c0-1.288,1.045-2.333,2.332-2.333C120.954,92.313,121.999,93.359,121.999,94.646z"/>
				<path id="path10645" fill="none" stroke="#0092DF" d="M119.665,96.979v16.334"/>
			</g>
			<g id="g10647">
				<path id="path10649" fill="#BFDDFF" stroke="#0092DF" d="M148.751,94.646c0,1.288-1.045,2.333-2.334,2.333
					c-1.287,0-2.332-1.045-2.332-2.333c0-1.288,1.045-2.333,2.332-2.333C147.706,92.313,148.751,93.359,148.751,94.646z"/>
				<path id="path10651" fill="none" stroke="#0092DF" d="M146.417,96.979v16.334"/>
			</g>
			<g id="g10653">
				<path id="path10655" fill="#BFDDFF" stroke="#0092DF" d="M143.399,94.646c0,1.288-1.045,2.333-2.332,2.333
					c-1.289,0-2.334-1.045-2.334-2.333c0-1.288,1.045-2.333,2.334-2.333C142.354,92.313,143.399,93.359,143.399,94.646z"/>
				<path id="path10657" fill="none" stroke="#0092DF" d="M141.067,96.979v16.334"/>
			</g>
			<g id="g10659">
				<path id="path10661" fill="#BFDDFF" stroke="#0092DF" d="M138.049,94.646c0,1.288-1.045,2.333-2.334,2.333
					c-1.287,0-2.332-1.045-2.332-2.333c0-1.288,1.045-2.333,2.332-2.333C137.005,92.313,138.049,93.359,138.049,94.646z"/>
				<path id="path10663" fill="none" stroke="#0092DF" d="M135.716,96.979v16.334"/>
			</g>
		</g>
		<g id="g10665">
			<g id="g10667">
				<path id="path10669" fill="#BFDDFF" stroke="#0092DF" d="M98.026,117.547c0-1.288-1.045-2.333-2.332-2.333
					c-1.289,0-2.334,1.045-2.334,2.333s1.045,2.333,2.334,2.333C96.981,119.88,98.026,118.835,98.026,117.547z"/>
				<path id="path10671" fill="none" stroke="#0092DF" d="M95.694,115.214V98.88"/>
			</g>
			<g id="g10673">
				<path id="path10675" fill="#BFDDFF" stroke="#0092DF" d="M92.676,117.547c0-1.288-1.045-2.333-2.334-2.333
					c-1.287,0-2.332,1.045-2.332,2.333s1.045,2.333,2.332,2.333C91.632,119.88,92.676,118.835,92.676,117.547z"/>
				<path id="path10677" fill="none" stroke="#0092DF" d="M90.342,115.214V98.88"/>
			</g>
			<g id="g10679">
				<path id="path10681" fill="#BFDDFF" stroke="#0092DF" d="M87.325,117.547c0-1.288-1.045-2.333-2.332-2.333
					c-1.288,0-2.333,1.045-2.333,2.333s1.045,2.333,2.333,2.333C86.28,119.88,87.325,118.835,87.325,117.547z"/>
				<path id="path10683" fill="none" stroke="#0092DF" d="M84.993,115.214V98.88"/>
			</g>
			<g id="g10685">
				<path id="path10687" fill="#BFDDFF" stroke="#0092DF" d="M114.079,117.547c0-1.288-1.047-2.333-2.334-2.333
					s-2.332,1.045-2.332,2.333s1.045,2.333,2.332,2.333S114.079,118.835,114.079,117.547z"/>
				<path id="path10689" fill="none" stroke="#0092DF" d="M111.745,115.214V98.88"/>
			</g>
			<g id="g10691">
				<path id="path10693" fill="#BFDDFF" stroke="#0092DF" d="M108.727,117.547c0-1.288-1.045-2.333-2.332-2.333
					c-1.289,0-2.334,1.045-2.334,2.333s1.045,2.333,2.334,2.333C107.682,119.88,108.727,118.835,108.727,117.547z"/>
				<path id="path10695" fill="none" stroke="#0092DF" d="M106.395,115.214V98.88"/>
			</g>
			<g id="g10697">
				<path id="path10699" fill="#BFDDFF" stroke="#0092DF" d="M103.378,117.547c0-1.288-1.045-2.333-2.334-2.333
					c-1.287,0-2.332,1.045-2.332,2.333s1.045,2.333,2.332,2.333C102.333,119.88,103.378,118.835,103.378,117.547z"/>
				<path id="path10701" fill="none" stroke="#0092DF" d="M101.044,115.214V98.88"/>
			</g>
			<g id="g10703">
				<path id="path10705" fill="#BFDDFF" stroke="#0092DF" d="M100.702,94.646c0,1.288-1.045,2.333-2.332,2.333
					c-1.289,0-2.334-1.045-2.334-2.333c0-1.288,1.045-2.333,2.334-2.333C99.657,92.313,100.702,93.359,100.702,94.646z"/>
				<path id="path10707" fill="none" stroke="#0092DF" d="M98.37,96.979v16.334"/>
			</g>
			<g id="g10709">
				<path id="path10711" fill="#BFDDFF" stroke="#0092DF" d="M95.35,94.646c0,1.288-1.045,2.333-2.332,2.333
					c-1.289,0-2.334-1.045-2.334-2.333c0-1.288,1.045-2.333,2.334-2.333C94.305,92.313,95.35,93.359,95.35,94.646z"/>
				<path id="path10713" fill="none" stroke="#0092DF" d="M93.018,96.979v16.334"/>
			</g>
			<g id="g10715">
				<path id="path10717" fill="#BFDDFF" stroke="#0092DF" d="M90.001,94.646c0,1.288-1.045,2.333-2.332,2.333
					c-1.289,0-2.334-1.045-2.334-2.333c0-1.288,1.045-2.333,2.334-2.333C88.956,92.313,90.001,93.359,90.001,94.646z"/>
				<path id="path10719" fill="none" stroke="#0092DF" d="M87.669,96.979v16.334"/>
			</g>
			<g id="g10721">
				<path id="path10723" fill="#BFDDFF" stroke="#0092DF" d="M116.753,94.646c0,1.288-1.045,2.333-2.332,2.333
					c-1.289,0-2.334-1.045-2.334-2.333c0-1.288,1.045-2.333,2.334-2.333C115.708,92.313,116.753,93.359,116.753,94.646z"/>
				<path id="path10725" fill="none" stroke="#0092DF" d="M114.421,96.979v16.334"/>
			</g>
			<g id="g10727">
				<path id="path10729" fill="#BFDDFF" stroke="#0092DF" d="M111.403,94.646c0,1.288-1.045,2.333-2.334,2.333
					c-1.287,0-2.332-1.045-2.332-2.333c0-1.288,1.045-2.333,2.332-2.333C110.358,92.313,111.403,93.359,111.403,94.646z"/>
				<path id="path10731" fill="none" stroke="#0092DF" d="M109.069,96.979v16.334"/>
			</g>
			<g id="g10733">
				<path id="path10735" fill="#BFDDFF" stroke="#0092DF" d="M106.051,94.646c0,1.288-1.045,2.333-2.332,2.333
					c-1.289,0-2.334-1.045-2.334-2.333c0-1.288,1.045-2.333,2.334-2.333C105.007,92.313,106.051,93.359,106.051,94.646z"/>
				<path id="path10737" fill="none" stroke="#0092DF" d="M103.719,96.979v16.334"/>
			</g>
		</g>
		<g id="g10739">
			<g id="g10741">
				<path id="path10743" fill="#BFDDFF" stroke="#0092DF" d="M66.03,117.547c0-1.288-1.045-2.333-2.333-2.333
					s-2.333,1.045-2.333,2.333s1.045,2.333,2.333,2.333S66.03,118.835,66.03,117.547z"/>
				<path id="path10745" fill="none" stroke="#0092DF" d="M63.697,115.214V98.88"/>
			</g>
			<g id="g10747">
				<path id="path10749" fill="#BFDDFF" stroke="#0092DF" d="M60.68,117.547c0-1.288-1.045-2.333-2.333-2.333
					s-2.333,1.045-2.333,2.333s1.045,2.333,2.333,2.333C59.634,119.88,60.68,118.835,60.68,117.547z"/>
				<path id="path10751" fill="none" stroke="#0092DF" d="M58.347,115.214V98.88"/>
			</g>
			<g id="g10753">
				<path id="path10755" fill="#BFDDFF" stroke="#0092DF" d="M55.329,117.547c0-1.288-1.045-2.333-2.333-2.333
					s-2.333,1.045-2.333,2.333s1.045,2.333,2.333,2.333S55.329,118.835,55.329,117.547z"/>
				<path id="path10757" fill="none" stroke="#0092DF" d="M52.996,115.214V98.88"/>
			</g>
			<g id="g10759">
				<path id="path10761" fill="#BFDDFF" stroke="#0092DF" d="M82.082,117.547c0-1.288-1.045-2.333-2.333-2.333
					s-2.333,1.045-2.333,2.333s1.045,2.333,2.333,2.333S82.082,118.835,82.082,117.547z"/>
				<path id="path10763" fill="none" stroke="#0092DF" d="M79.749,115.214V98.88"/>
			</g>
			<g id="g10765">
				<path id="path10767" fill="#BFDDFF" stroke="#0092DF" d="M76.731,117.547c0-1.288-1.045-2.333-2.333-2.333
					c-1.288,0-2.333,1.045-2.333,2.333s1.045,2.333,2.333,2.333C75.686,119.88,76.731,118.835,76.731,117.547z"/>
				<path id="path10769" fill="none" stroke="#0092DF" d="M74.398,115.214V98.88"/>
			</g>
			<g id="g10771">
				<path id="path10773" fill="#BFDDFF" stroke="#0092DF" d="M71.381,117.547c0-1.288-1.045-2.333-2.333-2.333
					c-1.288,0-2.333,1.045-2.333,2.333s1.045,2.333,2.333,2.333C70.336,119.88,71.381,118.835,71.381,117.547z"/>
				<path id="path10775" fill="none" stroke="#0092DF" d="M69.048,115.214V98.88"/>
			</g>
			<g id="g10777">
				<path id="path10779" fill="#BFDDFF" stroke="#0092DF" d="M68.705,94.646c0,1.288-1.045,2.333-2.333,2.333
					s-2.333-1.045-2.333-2.333c0-1.288,1.045-2.333,2.333-2.333S68.705,93.359,68.705,94.646z"/>
				<path id="path10781" fill="none" stroke="#0092DF" d="M66.372,96.979v16.334"/>
			</g>
			<g id="g10783">
				<path id="path10785" fill="#BFDDFF" stroke="#0092DF" d="M63.355,94.646c0,1.288-1.045,2.333-2.333,2.333
					c-1.288,0-2.333-1.045-2.333-2.333c0-1.288,1.045-2.333,2.333-2.333C62.31,92.313,63.355,93.359,63.355,94.646z"/>
				<path id="path10787" fill="none" stroke="#0092DF" d="M61.022,96.979v16.334"/>
			</g>
			<g id="g10789">
				<path id="path10791" fill="#BFDDFF" stroke="#0092DF" d="M58.005,94.646c0,1.288-1.045,2.333-2.333,2.333
					c-1.288,0-2.333-1.045-2.333-2.333c0-1.288,1.045-2.333,2.333-2.333C56.96,92.313,58.005,93.359,58.005,94.646z"/>
				<path id="path10793" fill="none" stroke="#0092DF" d="M55.672,96.979v16.334"/>
			</g>
			<g id="g10795">
				<path id="path10797" fill="#BFDDFF" stroke="#0092DF" d="M84.757,94.646c0,1.288-1.045,2.333-2.333,2.333
					s-2.333-1.045-2.333-2.333c0-1.288,1.045-2.333,2.333-2.333S84.757,93.359,84.757,94.646z"/>
				<path id="path10799" fill="none" stroke="#0092DF" d="M82.424,96.979v16.334"/>
			</g>
			<g id="g10801">
				<path id="path10803" fill="#BFDDFF" stroke="#0092DF" d="M79.406,94.646c0,1.288-1.045,2.333-2.333,2.333
					s-2.333-1.045-2.333-2.333c0-1.288,1.045-2.333,2.333-2.333S79.406,93.359,79.406,94.646z"/>
				<path id="path10805" fill="none" stroke="#0092DF" d="M77.073,96.979v16.334"/>
			</g>
			<g id="g10807">
				<path id="path10809" fill="#BFDDFF" stroke="#0092DF" d="M74.056,94.646c0,1.288-1.045,2.333-2.333,2.333
					s-2.333-1.045-2.333-2.333c0-1.288,1.045-2.333,2.333-2.333S74.056,93.359,74.056,94.646z"/>
				<path id="path10811" fill="none" stroke="#0092DF" d="M71.723,96.979v16.334"/>
			</g>
		</g>
		<g id="g10813">
			<g id="g10815">
				<path id="path10817" fill="#BFDDFF" stroke="#0092DF" d="M34.033,117.547c0-1.288-1.045-2.333-2.333-2.333
					s-2.333,1.045-2.333,2.333s1.045,2.333,2.333,2.333S34.033,118.835,34.033,117.547z"/>
				<path id="path10819" fill="none" stroke="#0092DF" d="M31.7,115.214V98.88"/>
			</g>
			<g id="g10821">
				<path id="path10823" fill="#BFDDFF" stroke="#0092DF" d="M28.683,117.547c0-1.288-1.045-2.333-2.333-2.333
					s-2.333,1.045-2.333,2.333s1.045,2.333,2.333,2.333S28.683,118.835,28.683,117.547z"/>
				<path id="path10825" fill="none" stroke="#0092DF" d="M26.35,115.214V98.88"/>
			</g>
			<g id="g10827">
				<path id="path10829" fill="#BFDDFF" stroke="#0092DF" d="M23.333,117.547c0-1.288-1.045-2.333-2.333-2.333
					c-1.288,0-2.333,1.045-2.333,2.333s1.045,2.333,2.333,2.333C22.288,119.88,23.333,118.835,23.333,117.547z"/>
				<path id="path10831" fill="none" stroke="#0092DF" d="M21,115.214V98.88"/>
			</g>
			<g id="g10833">
				<path id="path10835" fill="#BFDDFF" stroke="#0092DF" d="M50.085,117.547c0-1.288-1.045-2.333-2.333-2.333
					c-1.288,0-2.333,1.045-2.333,2.333s1.045,2.333,2.333,2.333C49.04,119.88,50.085,118.835,50.085,117.547z"/>
				<path id="path10837" fill="none" stroke="#0092DF" d="M47.752,115.214V98.88"/>
			</g>
			<g id="g10839">
				<path id="path10841" fill="#BFDDFF" stroke="#0092DF" d="M44.735,117.547c0-1.288-1.045-2.333-2.333-2.333
					c-1.288,0-2.333,1.045-2.333,2.333s1.045,2.333,2.333,2.333C43.69,119.88,44.735,118.835,44.735,117.547z"/>
				<path id="path10843" fill="none" stroke="#0092DF" d="M42.402,115.214V98.88"/>
			</g>
			<g id="g10845">
				<path id="path10847" fill="#BFDDFF" stroke="#0092DF" d="M39.384,117.547c0-1.288-1.045-2.333-2.333-2.333
					s-2.333,1.045-2.333,2.333s1.045,2.333,2.333,2.333S39.384,118.835,39.384,117.547z"/>
				<path id="path10849" fill="none" stroke="#0092DF" d="M37.051,115.214V98.88"/>
			</g>
			<g id="g10851">
				<path id="path10853" fill="#BFDDFF" stroke="#0092DF" d="M36.709,94.646c0,1.288-1.045,2.333-2.333,2.333
					c-1.288,0-2.333-1.045-2.333-2.333c0-1.288,1.045-2.333,2.333-2.333C35.664,92.313,36.709,93.359,36.709,94.646z"/>
				<path id="path10855" fill="none" stroke="#0092DF" d="M34.376,96.979v16.334"/>
			</g>
			<g id="g10857">
				<path id="path10859" fill="#BFDDFF" stroke="#0092DF" d="M31.358,94.646c0,1.288-1.045,2.333-2.333,2.333
					c-1.288,0-2.333-1.045-2.333-2.333c0-1.288,1.045-2.333,2.333-2.333C30.313,92.313,31.358,93.359,31.358,94.646z"/>
				<path id="path10861" fill="none" stroke="#0092DF" d="M29.025,96.979v16.334"/>
			</g>
			<g id="g10863">
				<path id="path10865" fill="#BFDDFF" stroke="#0092DF" d="M26.008,94.646c0,1.288-1.045,2.333-2.333,2.333
					s-2.333-1.045-2.333-2.333c0-1.288,1.045-2.333,2.333-2.333S26.008,93.359,26.008,94.646z"/>
				<path id="path10867" fill="none" stroke="#0092DF" d="M23.675,96.979v16.334"/>
			</g>
			<g id="g10869">
				<path id="path10871" fill="#BFDDFF" stroke="#0092DF" d="M52.76,94.646c0,1.288-1.045,2.333-2.333,2.333
					s-2.333-1.045-2.333-2.333c0-1.288,1.045-2.333,2.333-2.333S52.76,93.359,52.76,94.646z"/>
				<path id="path10873" fill="none" stroke="#0092DF" d="M50.427,96.979v16.334"/>
			</g>
			<g id="g10875">
				<path id="path10877" fill="#BFDDFF" stroke="#0092DF" d="M47.41,94.646c0,1.288-1.045,2.333-2.333,2.333
					s-2.333-1.045-2.333-2.333c0-1.288,1.045-2.333,2.333-2.333S47.41,93.359,47.41,94.646z"/>
				<path id="path10879" fill="none" stroke="#0092DF" d="M45.077,96.979v16.334"/>
			</g>
			<g id="g10881">
				<path id="path10883" fill="#BFDDFF" stroke="#0092DF" d="M42.059,94.646c0,1.288-1.045,2.333-2.333,2.333
					s-2.333-1.045-2.333-2.333c0-1.288,1.045-2.333,2.333-2.333S42.059,93.359,42.059,94.646z"/>
				<path id="path10885" fill="none" stroke="#0092DF" d="M39.726,96.979v16.334"/>
			</g>
		</g>
	</g>
</g>
<g enable-background="new    ">
	<path d="M241.632,202.804c-0.05-0.939-0.11-2.079-0.11-2.909h-0.02c-0.24,0.78-0.51,1.63-0.85,2.559l-1.189,3.269h-0.66
		l-1.099-3.208c-0.32-0.96-0.58-1.819-0.77-2.619h-0.02c-0.02,0.84-0.07,1.959-0.13,2.979l-0.18,2.889h-0.83l0.47-6.736h1.109
		l1.149,3.258c0.28,0.83,0.5,1.569,0.68,2.27h0.02c0.18-0.68,0.42-1.42,0.72-2.27l1.199-3.258h1.109l0.42,6.736h-0.86
		L241.632,202.804z"/>
	<path d="M248.693,205.552c-0.31,0.16-0.959,0.32-1.779,0.32c-1.899,0-3.318-1.2-3.318-3.419c0-2.118,1.429-3.538,3.518-3.538
		c0.83,0,1.369,0.181,1.599,0.3l-0.22,0.71c-0.32-0.16-0.79-0.279-1.35-0.279c-1.579,0-2.628,1.009-2.628,2.778
		c0,1.659,0.95,2.708,2.579,2.708c0.54,0,1.08-0.109,1.429-0.279L248.693,205.552z"/>
	<path d="M249.795,199.115c0.419-0.08,0.969-0.14,1.669-0.14c0.859,0,1.489,0.2,1.889,0.56c0.37,0.319,0.6,0.81,0.6,1.409
		c0,0.609-0.18,1.09-0.53,1.439c-0.46,0.489-1.209,0.739-2.059,0.739c-0.26,0-0.5-0.01-0.7-0.06v2.698h-0.869V199.115z
		 M250.665,202.354c0.19,0.05,0.44,0.07,0.72,0.07c1.06,0,1.689-0.52,1.689-1.43c0-0.899-0.629-1.329-1.589-1.329
		c-0.38,0-0.67,0.04-0.82,0.07V202.354z"/>
	<path d="M254.766,204.872c0.27,0.16,0.729,0.34,1.169,0.34c0.63,0,0.93-0.31,0.93-0.72c0-0.42-0.25-0.649-0.89-0.89
		c-0.879-0.319-1.289-0.789-1.289-1.369c0-0.779,0.64-1.419,1.669-1.419c0.49,0,0.919,0.13,1.179,0.3l-0.209,0.63
		c-0.19-0.11-0.54-0.28-0.99-0.28c-0.52,0-0.799,0.3-0.799,0.66c0,0.409,0.28,0.59,0.909,0.829c0.83,0.31,1.27,0.729,1.27,1.459
		c0,0.86-0.67,1.46-1.799,1.46c-0.529,0-1.019-0.141-1.359-0.34L254.766,204.872z"/>
</g>
<g>
	<g id="g6443" transform="matrix(0.000000,1.000000,-1.000000,0.000000,310.0083,-150.5756)">
		<g id="g6445">
			
				<radialGradient id="path6471_7_" cx="581.5395" cy="-321.2217" r="15.25" gradientTransform="matrix(-0.5774 0 0 1.1127 733.9898 467.1038)" gradientUnits="userSpaceOnUse">
				<stop  offset="0" style="stop-color:#6EFF5F"/>
				<stop  offset="0.4404" style="stop-color:#6CFD5D"/>
				<stop  offset="0.599" style="stop-color:#65F658"/>
				<stop  offset="0.7121" style="stop-color:#5AEB4D"/>
				<stop  offset="0.8035" style="stop-color:#49DA3F"/>
				<stop  offset="0.8818" style="stop-color:#33C42C"/>
				<stop  offset="0.95" style="stop-color:#19A915"/>
				<stop  offset="1" style="stop-color:#009000"/>
			</radialGradient>
			<path id="path6471" fill="url(#path6471_7_)" stroke="#000000" d="M398.208,92.713c4.864,0,8.807,7.595,8.807,16.968
				c0,9.369-3.943,16.968-8.807,16.968c-4.861,0-8.805-7.599-8.805-16.968C389.404,100.308,393.347,92.713,398.208,92.713z"/>
		</g>
	</g>
	<g enable-background="new    ">
		<path d="M193.39,250.359c-0.31,0.16-0.959,0.32-1.779,0.32c-1.899,0-3.318-1.2-3.318-3.419c0-2.118,1.429-3.538,3.518-3.538
			c0.83,0,1.369,0.181,1.599,0.3l-0.22,0.71c-0.32-0.16-0.79-0.279-1.35-0.279c-1.579,0-2.628,1.009-2.628,2.778
			c0,1.659,0.95,2.708,2.579,2.708c0.54,0,1.08-0.109,1.429-0.279L193.39,250.359z"/>
		<path d="M194.432,243.474h0.879v3.018h0.02c0.14-0.249,0.36-0.479,0.63-0.619c0.26-0.16,0.57-0.25,0.899-0.25
			c0.65,0,1.689,0.399,1.689,2.068v2.879h-0.879v-2.778c0-0.79-0.29-1.439-1.119-1.439c-0.57,0-1.01,0.399-1.18,0.88
			c-0.05,0.12-0.06,0.25-0.06,0.42v2.918h-0.879V243.474z"/>
		<path d="M200.482,248.301c0.02,1.189,0.77,1.679,1.649,1.679c0.63,0,1.02-0.109,1.339-0.239l0.16,0.619
			c-0.31,0.14-0.85,0.31-1.619,0.31c-1.479,0-2.378-0.989-2.378-2.438c0-1.469,0.87-2.618,2.279-2.618
			c1.579,0,1.989,1.389,1.989,2.278c0,0.18-0.01,0.32-0.03,0.42L200.482,248.301z M203.05,247.671c0.01-0.55-0.23-1.429-1.209-1.429
			c-0.899,0-1.279,0.819-1.349,1.429H203.05z"/>
		<path d="M206.121,250.569l-1.709-6.736h0.919l0.8,3.408c0.2,0.85,0.379,1.679,0.5,2.329h0.02c0.11-0.67,0.32-1.47,0.55-2.339
			l0.899-3.398h0.91l0.819,3.418c0.19,0.81,0.37,1.6,0.47,2.309h0.02c0.14-0.739,0.33-1.489,0.54-2.328l0.89-3.398h0.89
			l-1.909,6.736h-0.909l-0.85-3.498c-0.21-0.869-0.35-1.529-0.44-2.209h-0.02c-0.11,0.68-0.27,1.329-0.52,2.199l-0.959,3.508
			H206.121z"/>
	</g>
</g>
<g id="g6443_1_" transform="matrix(0.000000,1.000000,-1.000000,0.000000,310.0083,-150.5756)">
	<g id="g6445_1_">
		
			<radialGradient id="path6471_8_" cx="573.8373" cy="-351.1162" r="15.25" gradientTransform="matrix(-0.5774 0 0 1.1127 733.9898 467.1038)" gradientUnits="userSpaceOnUse">
			<stop  offset="0" style="stop-color:#6EFF5F"/>
			<stop  offset="0.4404" style="stop-color:#6CFD5D"/>
			<stop  offset="0.599" style="stop-color:#65F658"/>
			<stop  offset="0.7121" style="stop-color:#5AEB4D"/>
			<stop  offset="0.8035" style="stop-color:#49DA3F"/>
			<stop  offset="0.8818" style="stop-color:#33C42C"/>
			<stop  offset="0.95" style="stop-color:#19A915"/>
			<stop  offset="1" style="stop-color:#009000"/>
		</radialGradient>
		<path id="path6471_1_" fill="url(#path6471_8_)" stroke="#000000" d="M402.655,59.449c4.864,0,8.807,7.595,8.807,16.968
			c0,9.369-3.943,16.968-8.807,16.968c-4.861,0-8.805-7.599-8.805-16.968C393.851,67.044,397.794,59.449,402.655,59.449z"/>
	</g>
</g>
<g enable-background="new    ">
	<path d="M227.823,254.806c-0.31,0.16-0.959,0.32-1.779,0.32c-1.899,0-3.318-1.2-3.318-3.419c0-2.118,1.429-3.538,3.518-3.538
		c0.83,0,1.369,0.181,1.599,0.3l-0.22,0.71c-0.32-0.16-0.79-0.279-1.35-0.279c-1.579,0-2.628,1.009-2.628,2.778
		c0,1.659,0.95,2.708,2.579,2.708c0.54,0,1.08-0.109,1.429-0.279L227.823,254.806z"/>
	<path d="M228.866,247.92h0.879v3.018h0.02c0.14-0.249,0.36-0.479,0.63-0.619c0.26-0.16,0.57-0.25,0.899-0.25
		c0.65,0,1.689,0.399,1.689,2.068v2.879h-0.879v-2.778c0-0.79-0.29-1.439-1.119-1.439c-0.57,0-1.01,0.399-1.18,0.88
		c-0.05,0.12-0.06,0.25-0.06,0.42v2.918h-0.879V247.92z"/>
	<path d="M234.916,252.747c0.02,1.189,0.77,1.679,1.649,1.679c0.63,0,1.02-0.109,1.339-0.239l0.16,0.619
		c-0.31,0.14-0.85,0.31-1.619,0.31c-1.479,0-2.378-0.989-2.378-2.438c0-1.469,0.87-2.618,2.279-2.618
		c1.579,0,1.989,1.389,1.989,2.278c0,0.18-0.01,0.32-0.03,0.42L234.916,252.747z M237.484,252.117c0.01-0.55-0.23-1.429-1.209-1.429
		c-0.899,0-1.279,0.819-1.349,1.429H237.484z"/>
	<path d="M240.545,252.896l-0.7,2.119h-0.899l2.289-6.736h1.049l2.299,6.736h-0.929l-0.72-2.119H240.545z M242.753,252.217
		l-0.669-1.938c-0.14-0.439-0.24-0.84-0.34-1.229h-0.03c-0.09,0.39-0.2,0.81-0.33,1.22l-0.66,1.948H242.753z"/>
</g>
<g>
	<g id="g13574" transform="translate(-15.51018,156.4711)">
		
			<radialGradient id="path13576_1_" cx="295.1552" cy="176.6012" r="10.1783" gradientTransform="matrix(0.8546 0 0 -0.7426 287.6578 330.0518)" gradientUnits="userSpaceOnUse">
			<stop  offset="0" style="stop-color:#FFFCDF"/>
			<stop  offset="0.1203" style="stop-color:#FFFBDA"/>
			<stop  offset="0.2662" style="stop-color:#FFF9CB"/>
			<stop  offset="0.4255" style="stop-color:#FFF6B2"/>
			<stop  offset="0.5943" style="stop-color:#FFF090"/>
			<stop  offset="0.7706" style="stop-color:#FFEA64"/>
			<stop  offset="0.9506" style="stop-color:#FFE22F"/>
			<stop  offset="1" style="stop-color:#FFE01F"/>
		</radialGradient>
		<path id="path13576" fill="url(#path13576_1_)" stroke="#000000" d="M548.198,200.211c0,3.236-2.621,5.858-5.857,5.858h-4.885
			c-3.236,0-5.859-2.622-5.859-5.858v-2.604c0-3.236,2.623-5.859,5.859-5.859h4.885c3.236,0,5.857,2.623,5.857,5.859V200.211z"/>
	</g>
	<g enable-background="new    ">
		<path d="M521.923,357.805l3.737-5.467v-0.03h-3.418v-0.729h4.548v0.529l-3.719,5.447v0.03h3.769v0.729h-4.917V357.805z"/>
	</g>
</g>
<g enable-background="new    ">
	<path d="M260.822,344.314c0.419-0.08,0.969-0.14,1.669-0.14c0.859,0,1.489,0.2,1.889,0.56c0.37,0.319,0.6,0.81,0.6,1.409
		c0,0.609-0.18,1.09-0.53,1.439c-0.46,0.489-1.209,0.739-2.059,0.739c-0.26,0-0.5-0.01-0.7-0.06v2.698h-0.869V344.314z
		 M261.691,347.553c0.19,0.05,0.44,0.07,0.72,0.07c1.06,0,1.689-0.52,1.689-1.43c0-0.899-0.629-1.329-1.589-1.329
		c-0.38,0-0.67,0.04-0.82,0.07V347.553z"/>
	<path d="M266.188,350.278c-0.231,0-0.385-0.183-0.385-0.399c0-0.218,0.161-0.393,0.399-0.393c0.238,0,0.392,0.175,0.392,0.393
		c0,0.217-0.154,0.399-0.399,0.399H266.188z M265.893,354.291v-3.39h0.616v3.39H265.893z"/>
</g>
<g enable-background="new    ">
	<path d="M530.798,382.321c0.42-0.08,0.97-0.14,1.67-0.14c0.859,0,1.488,0.2,1.889,0.56c0.369,0.319,0.6,0.81,0.6,1.409
		c0,0.609-0.18,1.09-0.529,1.439c-0.461,0.489-1.21,0.739-2.06,0.739c-0.26,0-0.499-0.01-0.7-0.06v2.698h-0.869V382.321z
		 M531.667,385.56c0.19,0.05,0.44,0.07,0.721,0.07c1.059,0,1.688-0.52,1.688-1.43c0-0.899-0.63-1.329-1.589-1.329
		c-0.38,0-0.67,0.04-0.82,0.07V385.56z"/>
	<path d="M536.165,388.285c-0.231,0-0.386-0.183-0.386-0.399c0-0.218,0.162-0.393,0.399-0.393c0.238,0,0.392,0.175,0.392,0.393
		c0,0.217-0.153,0.399-0.398,0.399H536.165z M535.871,392.298v-3.39h0.615v3.39H535.871z"/>
</g>
<g enable-background="new    ">
	<path d="M511.918,294.678c-0.311,0.16-0.96,0.32-1.779,0.32c-1.899,0-3.318-1.2-3.318-3.419c0-2.118,1.43-3.538,3.518-3.538
		c0.83,0,1.369,0.181,1.6,0.3l-0.22,0.71c-0.319-0.16-0.79-0.279-1.35-0.279c-1.579,0-2.628,1.009-2.628,2.778
		c0,1.659,0.949,2.708,2.578,2.708c0.539,0,1.08-0.109,1.43-0.279L511.918,294.678z"/>
	<path d="M514.119,294.888l-1.709-6.736h0.92l0.799,3.408c0.2,0.85,0.38,1.679,0.5,2.329h0.02c0.11-0.67,0.32-1.47,0.551-2.339
		l0.898-3.398h0.91l0.819,3.418c0.19,0.81,0.37,1.6,0.47,2.309h0.02c0.141-0.739,0.33-1.489,0.54-2.328l0.89-3.398h0.89
		l-1.909,6.736h-0.909l-0.85-3.498c-0.21-0.869-0.351-1.529-0.44-2.209h-0.02c-0.109,0.68-0.27,1.329-0.52,2.199l-0.959,3.508
		H514.119z"/>
</g>
<path id="path13627" sodipodi:nodetypes="cc" d="M429.867,273.661"/>
<path id="path13629" sodipodi:nodetypes="cc" d="M462.767,231.7"/>
<path id="path13635" sodipodi:nodetypes="cc" d="M356.94,347.781"/>
<path id="path13639" sodipodi:nodetypes="cc" d="M414.377,257.069"/>
<path id="path13643" sodipodi:nodetypes="cc" d="M266.577,264.183"/>
<path id="path13645" sodipodi:nodetypes="cc" d="M473.398,223.109"/>
<path id="path33139" fill="none" stroke="#000000" d="M220.753,261.256l-3.706-2.588"/>
<path id="path34811" sodipodi:nodetypes="cc" fill="none" stroke="#000000" d="M218.095,333.95"/>
<radialGradient id="path35873_1_" cx="29.4527" cy="-151.835" r="15.0739" gradientTransform="matrix(1 0 0 1 479.3311 371.7344)" gradientUnits="userSpaceOnUse">
	<stop  offset="0" style="stop-color:#FFFCDF"/>
	<stop  offset="0.1203" style="stop-color:#FFFBDA"/>
	<stop  offset="0.2662" style="stop-color:#FFF9CB"/>
	<stop  offset="0.4255" style="stop-color:#FFF6B2"/>
	<stop  offset="0.5943" style="stop-color:#FFF090"/>
	<stop  offset="0.7706" style="stop-color:#FFEA64"/>
	<stop  offset="0.9506" style="stop-color:#FFE22F"/>
	<stop  offset="1" style="stop-color:#FFE01F"/>
</radialGradient>
<path id="path35873" fill="url(#path35873_1_)" stroke="#9F8900" d="M512.451,237.232c0,2.023-1.643,3.667-3.668,3.667
	s-3.666-1.644-3.666-3.667v-34.667c0-2.025,1.641-3.666,3.666-3.666s3.668,1.641,3.668,3.666V237.232z"/>
<path id="path17168" sodipodi:nodetypes="cc" d="M518.439,393.688"/>
<g>
	
		<radialGradient id="path12666_3_" cx="152.9258" cy="195.8213" r="16.1865" gradientTransform="matrix(1.0057 0 0 0.5335 37.9986 187.5241)" gradientUnits="userSpaceOnUse">
		<stop  offset="0" style="stop-color:#A2FF5F"/>
		<stop  offset="0.4082" style="stop-color:#A0FF5F"/>
		<stop  offset="0.5552" style="stop-color:#99FD5F"/>
		<stop  offset="0.66" style="stop-color:#8EFB5E"/>
		<stop  offset="0.7448" style="stop-color:#7DF85E"/>
		<stop  offset="0.8174" style="stop-color:#67F35D"/>
		<stop  offset="0.8817" style="stop-color:#4BEE5C"/>
		<stop  offset="0.9398" style="stop-color:#2BE85B"/>
		<stop  offset="0.9915" style="stop-color:#07E05A"/>
		<stop  offset="1" style="stop-color:#00DF5A"/>
	</radialGradient>
	<path id="path12666" fill="url(#path12666_3_)" stroke="#000000" d="M207.776,291.994c0,4.855-7.156,8.792-15.979,8.792
		c-8.825,0-15.979-3.935-15.979-8.792s7.154-8.791,15.979-8.791C200.62,283.204,207.776,287.138,207.776,291.994z"/>
	<g enable-background="new    ">
		<path d="M185.835,292.812l-0.7,2.119h-0.899l2.289-6.736h1.049l2.299,6.736h-0.93l-0.719-2.119H185.835z M188.044,292.132
			l-0.669-1.938c-0.14-0.439-0.24-0.84-0.34-1.229h-0.03c-0.09,0.39-0.2,0.81-0.33,1.22l-0.66,1.948H188.044z"/>
		<path d="M191.355,288.934h-2.049v-0.739h4.987v0.739h-2.059v5.997h-0.879V288.934z"/>
		<path d="M195.046,288.284c0.419-0.08,0.969-0.14,1.669-0.14c0.859,0,1.489,0.2,1.889,0.56c0.37,0.319,0.6,0.81,0.6,1.409
			c0,0.609-0.18,1.09-0.53,1.439c-0.46,0.489-1.209,0.739-2.059,0.739c-0.26,0-0.5-0.01-0.7-0.06v2.698h-0.869V288.284z
			 M195.915,291.522c0.19,0.05,0.44,0.07,0.72,0.07c1.06,0,1.689-0.52,1.689-1.43c0-0.899-0.629-1.329-1.589-1.329
			c-0.38,0-0.67,0.04-0.82,0.07V291.522z"/>
	</g>
</g>
<g enable-background="new    ">
	<path d="M427.965,202.804c-0.05-0.939-0.11-2.079-0.11-2.909h-0.02c-0.24,0.78-0.51,1.63-0.85,2.559l-1.189,3.269h-0.66
		l-1.099-3.208c-0.319-0.96-0.58-1.819-0.77-2.619h-0.021c-0.02,0.84-0.07,1.959-0.129,2.979l-0.181,2.889h-0.829l0.469-6.736h1.109
		l1.15,3.258c0.279,0.83,0.5,1.569,0.68,2.27h0.02c0.18-0.68,0.42-1.42,0.72-2.27l1.199-3.258h1.109l0.42,6.736h-0.86
		L427.965,202.804z"/>
	<path d="M435.026,205.552c-0.31,0.16-0.96,0.32-1.779,0.32c-1.899,0-3.317-1.2-3.317-3.419c0-2.118,1.429-3.538,3.518-3.538
		c0.83,0,1.369,0.181,1.6,0.3l-0.221,0.71c-0.319-0.16-0.789-0.279-1.35-0.279c-1.578,0-2.628,1.009-2.628,2.778
		c0,1.659,0.95,2.708,2.579,2.708c0.539,0,1.079-0.109,1.429-0.279L435.026,205.552z"/>
	<path d="M436.128,199.115c0.42-0.08,0.969-0.14,1.669-0.14c0.859,0,1.489,0.2,1.889,0.56c0.37,0.319,0.601,0.81,0.601,1.409
		c0,0.609-0.181,1.09-0.53,1.439c-0.46,0.489-1.21,0.739-2.06,0.739c-0.26,0-0.499-0.01-0.699-0.06v2.698h-0.869V199.115z
		 M436.998,202.354c0.189,0.05,0.439,0.07,0.72,0.07c1.06,0,1.688-0.52,1.688-1.43c0-0.899-0.629-1.329-1.588-1.329
		c-0.381,0-0.67,0.04-0.82,0.07V202.354z"/>
	<path d="M441.099,204.872c0.27,0.16,0.729,0.34,1.168,0.34c0.631,0,0.93-0.31,0.93-0.72c0-0.42-0.25-0.649-0.889-0.89
		c-0.88-0.319-1.289-0.789-1.289-1.369c0-0.779,0.639-1.419,1.668-1.419c0.49,0,0.92,0.13,1.18,0.3l-0.209,0.63
		c-0.19-0.11-0.541-0.28-0.99-0.28c-0.52,0-0.799,0.3-0.799,0.66c0,0.409,0.279,0.59,0.908,0.829c0.83,0.31,1.27,0.729,1.27,1.459
		c0,0.86-0.67,1.46-1.799,1.46c-0.529,0-1.02-0.141-1.359-0.34L441.099,204.872z"/>
</g>
<g>
	<g id="g6443_4_" transform="matrix(0.000000,1.000000,-1.000000,0.000000,310.0083,-150.5756)">
		<g id="g6445_4_">
			
				<radialGradient id="path6471_9_" cx="579.8071" cy="-490.1797" r="15.25" gradientTransform="matrix(-0.5774 0 0 1.1127 733.9898 467.1038)" gradientUnits="userSpaceOnUse">
				<stop  offset="0" style="stop-color:#6EFF5F"/>
				<stop  offset="0.4404" style="stop-color:#6CFD5D"/>
				<stop  offset="0.599" style="stop-color:#65F658"/>
				<stop  offset="0.7121" style="stop-color:#5AEB4D"/>
				<stop  offset="0.8035" style="stop-color:#49DA3F"/>
				<stop  offset="0.8818" style="stop-color:#33C42C"/>
				<stop  offset="0.95" style="stop-color:#19A915"/>
				<stop  offset="1" style="stop-color:#009000"/>
			</radialGradient>
			<path id="path6471_4_" fill="url(#path6471_9_)" stroke="#000000" d="M399.208-95.287c4.864,0,8.807,7.595,8.807,16.968
				c0,9.369-3.943,16.968-8.807,16.968c-4.861,0-8.805-7.599-8.805-16.968C390.404-87.692,394.347-95.287,399.208-95.287z"/>
		</g>
	</g>
	<g enable-background="new    ">
		<path d="M381.39,251.359c-0.31,0.16-0.959,0.32-1.779,0.32c-1.899,0-3.318-1.2-3.318-3.419c0-2.118,1.429-3.538,3.518-3.538
			c0.83,0,1.369,0.181,1.599,0.3l-0.22,0.71c-0.32-0.16-0.79-0.279-1.35-0.279c-1.579,0-2.628,1.009-2.628,2.778
			c0,1.659,0.95,2.708,2.579,2.708c0.54,0,1.08-0.109,1.429-0.279L381.39,251.359z"/>
		<path d="M382.432,244.474h0.879v3.018h0.02c0.14-0.249,0.36-0.479,0.63-0.619c0.26-0.16,0.57-0.25,0.899-0.25
			c0.65,0,1.689,0.399,1.689,2.068v2.879h-0.879v-2.778c0-0.79-0.29-1.439-1.119-1.439c-0.57,0-1.01,0.399-1.18,0.88
			c-0.05,0.12-0.06,0.25-0.06,0.42v2.918h-0.879V244.474z"/>
		<path d="M388.482,249.301c0.02,1.189,0.77,1.679,1.649,1.679c0.63,0,1.02-0.109,1.339-0.239l0.16,0.619
			c-0.31,0.14-0.85,0.31-1.619,0.31c-1.479,0-2.378-0.989-2.378-2.438c0-1.469,0.87-2.618,2.279-2.618
			c1.579,0,1.989,1.389,1.989,2.278c0,0.18-0.01,0.32-0.03,0.42L388.482,249.301z M391.05,248.671c0.01-0.55-0.23-1.429-1.209-1.429
			c-0.899,0-1.279,0.819-1.349,1.429H391.05z"/>
		<path d="M394.121,251.569l-1.709-6.736h0.919l0.8,3.408c0.2,0.85,0.379,1.679,0.5,2.329h0.02c0.11-0.67,0.32-1.47,0.55-2.339
			l0.899-3.398h0.91l0.819,3.418c0.19,0.81,0.37,1.6,0.47,2.309h0.02c0.14-0.739,0.33-1.489,0.54-2.328l0.89-3.398h0.89
			l-1.909,6.736h-0.909l-0.85-3.498c-0.21-0.869-0.35-1.529-0.44-2.209h-0.02c-0.11,0.68-0.27,1.329-0.52,2.199l-0.959,3.508
			H394.121z"/>
	</g>
</g>
<g>
	<g id="g19816" transform="translate(26.43287,199.1969)">
		<path id="path19818" fill="#FFFF00" stroke="#000000" d="M399.567,68.078c0,2.681-2.096,4.854-4.68,4.854
			c-2.585,0-4.681-2.173-4.681-4.854c0-2.68,2.095-4.853,4.681-4.853C397.471,63.225,399.567,65.398,399.567,68.078z"/>
		<g enable-background="new    ">
			<path fill="#FF3399" d="M393.582,65.78c0.322-0.063,0.743-0.111,1.279-0.111c0.658,0,1.142,0.159,1.447,0.444
				c0.283,0.254,0.46,0.643,0.46,1.119c0,0.483-0.138,0.864-0.405,1.143c-0.354,0.389-0.928,0.587-1.579,0.587
				c-0.199,0-0.383-0.008-0.536-0.048v2.143h-0.667V65.78z M394.249,68.35c0.146,0.04,0.337,0.056,0.552,0.056
				c0.811,0,1.294-0.412,1.294-1.135c0-0.714-0.483-1.055-1.218-1.055c-0.291,0-0.513,0.031-0.628,0.056V68.35z"/>
		</g>
	</g>
	<g>
		<g id="g6445_3_">
			
				<radialGradient id="path6471_10_" cx="829.9741" cy="421.5303" r="15.2495" gradientTransform="matrix(1.1127 0 0 -0.5774 -502.0417 496.4719)" gradientUnits="userSpaceOnUse">
				<stop  offset="0" style="stop-color:#6EFF5F"/>
				<stop  offset="0.4404" style="stop-color:#6CFD5D"/>
				<stop  offset="0.599" style="stop-color:#65F658"/>
				<stop  offset="0.7121" style="stop-color:#5AEB4D"/>
				<stop  offset="0.8035" style="stop-color:#49DA3F"/>
				<stop  offset="0.8818" style="stop-color:#33C42C"/>
				<stop  offset="0.95" style="stop-color:#19A915"/>
				<stop  offset="1" style="stop-color:#009000"/>
			</radialGradient>
			<path id="path6471_3_" fill="url(#path6471_10_)" stroke="#000000" d="M438.437,253.08c0,4.864-7.595,8.807-16.968,8.807
				c-9.368,0-16.967-3.943-16.967-8.807c0-4.861,7.599-8.805,16.967-8.805C430.842,244.275,438.437,248.218,438.437,253.08z"/>
		</g>
		<g enable-background="new    ">
			<path d="M415.702,255.806c-0.31,0.16-0.959,0.32-1.779,0.32c-1.899,0-3.318-1.2-3.318-3.419c0-2.118,1.429-3.538,3.518-3.538
				c0.83,0,1.369,0.181,1.599,0.3l-0.22,0.71c-0.32-0.16-0.79-0.279-1.35-0.279c-1.579,0-2.628,1.009-2.628,2.778
				c0,1.659,0.95,2.708,2.579,2.708c0.54,0,1.08-0.109,1.429-0.279L415.702,255.806z"/>
			<path d="M416.745,248.92h0.879v3.018h0.02c0.14-0.249,0.36-0.479,0.63-0.619c0.26-0.16,0.57-0.25,0.899-0.25
				c0.65,0,1.689,0.399,1.689,2.068v2.879h-0.879v-2.778c0-0.79-0.29-1.439-1.119-1.439c-0.57,0-1.01,0.399-1.18,0.88
				c-0.05,0.12-0.06,0.25-0.06,0.42v2.918h-0.879V248.92z"/>
			<path d="M422.794,253.747c0.02,1.189,0.77,1.679,1.648,1.679c0.631,0,1.02-0.109,1.34-0.239l0.16,0.619
				c-0.311,0.14-0.85,0.31-1.619,0.31c-1.479,0-2.379-0.989-2.379-2.438c0-1.469,0.869-2.618,2.279-2.618
				c1.578,0,1.988,1.389,1.988,2.278c0,0.18-0.01,0.32-0.029,0.42L422.794,253.747z M425.363,253.117
				c0.01-0.55-0.23-1.429-1.209-1.429c-0.9,0-1.279,0.819-1.35,1.429H425.363z"/>
			<path d="M428.423,253.896l-0.699,2.119h-0.899l2.288-6.736h1.05l2.299,6.736h-0.929l-0.721-2.119H428.423z M430.632,253.217
				l-0.67-1.938c-0.14-0.439-0.239-0.84-0.34-1.229h-0.029c-0.09,0.39-0.2,0.81-0.33,1.22l-0.66,1.948H430.632z"/>
		</g>
	</g>
</g>
<g id="g1177_1_">
	<path id="path30085_1_" fill="none" stroke="#000000" stroke-width="2" stroke-linecap="round" stroke-linejoin="round" d="
		M418.505,198.424l-9.637,9.64l-0.08,0.842v35.364"/>
	<path id="path84039_1_" fill="none" stroke="#000000" stroke-width="2" stroke-linecap="round" stroke-linejoin="round" d="
		M394.751,198.229l9.637,9.639l0.082,0.844v35.365"/>
</g>
<g>
	
		<radialGradient id="path12666_4_" cx="346.5723" cy="176.6094" r="16.1865" gradientTransform="matrix(1.0057 0 0 0.5335 37.9986 187.5241)" gradientUnits="userSpaceOnUse">
		<stop  offset="0" style="stop-color:#A2FF5F"/>
		<stop  offset="0.4082" style="stop-color:#A0FF5F"/>
		<stop  offset="0.5552" style="stop-color:#99FD5F"/>
		<stop  offset="0.66" style="stop-color:#8EFB5E"/>
		<stop  offset="0.7448" style="stop-color:#7DF85E"/>
		<stop  offset="0.8174" style="stop-color:#67F35D"/>
		<stop  offset="0.8817" style="stop-color:#4BEE5C"/>
		<stop  offset="0.9398" style="stop-color:#2BE85B"/>
		<stop  offset="0.9915" style="stop-color:#07E05A"/>
		<stop  offset="1" style="stop-color:#00DF5A"/>
	</radialGradient>
	<path id="path12666_1_" fill="url(#path12666_4_)" stroke="#000000" d="M402.526,281.745c0,4.854-7.156,8.792-15.979,8.792
		c-8.825,0-15.979-3.936-15.979-8.792s7.154-8.791,15.979-8.791C395.37,272.955,402.526,276.888,402.526,281.745z"/>
	<g enable-background="new    ">
		<path d="M380.585,282.562l-0.7,2.119h-0.899l2.289-6.736h1.049l2.299,6.736h-0.93l-0.719-2.119H380.585z M382.794,281.882
			l-0.669-1.938c-0.14-0.439-0.24-0.84-0.34-1.229h-0.03c-0.09,0.39-0.2,0.81-0.33,1.22l-0.66,1.948H382.794z"/>
		<path d="M386.105,278.684h-2.049v-0.739h4.987v0.739h-2.059v5.997h-0.879V278.684z"/>
		<path d="M389.796,278.034c0.419-0.08,0.969-0.14,1.669-0.14c0.859,0,1.489,0.2,1.889,0.56c0.37,0.319,0.6,0.81,0.6,1.409
			c0,0.609-0.18,1.09-0.53,1.439c-0.46,0.489-1.209,0.739-2.059,0.739c-0.26,0-0.5-0.01-0.7-0.06v2.698h-0.869V278.034z
			 M390.665,281.272c0.19,0.05,0.44,0.07,0.72,0.07c1.06,0,1.689-0.52,1.689-1.43c0-0.899-0.629-1.329-1.589-1.329
			c-0.38,0-0.67,0.04-0.82,0.07V281.272z"/>
	</g>
</g>
<g>
	
		<radialGradient id="path12666_5_" cx="416.0454" cy="176.6094" r="16.1865" gradientTransform="matrix(1.0057 0 0 0.5335 37.9986 187.5241)" gradientUnits="userSpaceOnUse">
		<stop  offset="0" style="stop-color:#A2FF5F"/>
		<stop  offset="0.4082" style="stop-color:#A0FF5F"/>
		<stop  offset="0.5552" style="stop-color:#99FD5F"/>
		<stop  offset="0.66" style="stop-color:#8EFB5E"/>
		<stop  offset="0.7448" style="stop-color:#7DF85E"/>
		<stop  offset="0.8174" style="stop-color:#67F35D"/>
		<stop  offset="0.8817" style="stop-color:#4BEE5C"/>
		<stop  offset="0.9398" style="stop-color:#2BE85B"/>
		<stop  offset="0.9915" style="stop-color:#07E05A"/>
		<stop  offset="1" style="stop-color:#00DF5A"/>
	</radialGradient>
	<path id="path12666_2_" fill="url(#path12666_5_)" stroke="#000000" d="M472.395,281.745c0,4.854-7.156,8.792-15.979,8.792
		c-8.824,0-15.979-3.936-15.979-8.792s7.154-8.791,15.979-8.791C465.239,272.955,472.395,276.888,472.395,281.745z"/>
	<g enable-background="new    ">
		<path d="M449.216,282.562l-0.7,2.119h-0.899l2.289-6.736h1.049l2.299,6.736h-0.93l-0.719-2.119H449.216z M451.424,281.882
			l-0.669-1.938c-0.141-0.439-0.24-0.84-0.34-1.229h-0.03c-0.091,0.39-0.2,0.81-0.33,1.22l-0.659,1.948H451.424z"/>
		<path d="M454.236,278.034c0.54-0.08,1.17-0.14,1.859-0.14c1.25,0,2.139,0.279,2.729,0.829c0.609,0.55,0.959,1.34,0.959,2.429
			c0,1.1-0.35,1.999-0.969,2.619c-0.64,0.629-1.68,0.969-2.988,0.969c-0.63,0-1.14-0.02-1.59-0.079V278.034z M455.116,284.001
			c0.22,0.04,0.54,0.04,0.88,0.04c1.859,0.01,2.868-1.039,2.868-2.858c0.011-1.609-0.89-2.599-2.729-2.599
			c-0.45,0-0.79,0.04-1.02,0.09V284.001z"/>
		<path d="M460.906,278.034c0.42-0.08,0.97-0.14,1.67-0.14c0.859,0,1.488,0.2,1.889,0.56c0.369,0.319,0.6,0.81,0.6,1.409
			c0,0.609-0.18,1.09-0.529,1.439c-0.461,0.489-1.21,0.739-2.06,0.739c-0.26,0-0.499-0.01-0.7-0.06v2.698h-0.869V278.034z
			 M461.775,281.272c0.19,0.05,0.44,0.07,0.721,0.07c1.059,0,1.688-0.52,1.688-1.43c0-0.899-0.63-1.329-1.589-1.329
			c-0.38,0-0.67,0.04-0.82,0.07V281.272z"/>
	</g>
</g>
<g>
	<g id="g13078" transform="matrix(0.000000,1.000000,-1.000000,0.000000,402.6072,-91.12095)">
		<g id="g13080">
			
				<radialGradient id="path13106_1_" cx="485.7557" cy="-244.1287" r="10.0352" gradientTransform="matrix(-0.7498 0 0 1.3082 809.0037 409.7325)" gradientUnits="userSpaceOnUse">
				<stop  offset="0" style="stop-color:#6EFF5F"/>
				<stop  offset="0.4404" style="stop-color:#6CFD5D"/>
				<stop  offset="0.599" style="stop-color:#65F658"/>
				<stop  offset="0.7121" style="stop-color:#5AEB4D"/>
				<stop  offset="0.8035" style="stop-color:#49DA3F"/>
				<stop  offset="0.8818" style="stop-color:#33C42C"/>
				<stop  offset="0.95" style="stop-color:#19A915"/>
				<stop  offset="1" style="stop-color:#009000"/>
			</radialGradient>
			<path id="path13106" fill="url(#path13106_1_)" stroke="#000000" d="M444.784,77.235c4.156,0,7.525,5.876,7.525,13.128
				c0,7.25-3.369,13.128-7.525,13.128c-4.154,0-7.523-5.879-7.523-13.128C437.261,83.111,440.63,77.235,444.784,77.235z"/>
		</g>
	</g>
	<g id="g13108" transform="translate(0.341693,1.025080)">
		<g enable-background="new    ">
			<path d="M306.484,355.365c-0.31,0.16-0.959,0.32-1.779,0.32c-1.899,0-3.318-1.2-3.318-3.419c0-2.118,1.429-3.538,3.518-3.538
				c0.83,0,1.369,0.181,1.599,0.3l-0.22,0.71c-0.32-0.16-0.79-0.279-1.35-0.279c-1.579,0-2.628,1.009-2.628,2.778
				c0,1.659,0.95,2.708,2.579,2.708c0.54,0,1.08-0.109,1.429-0.279L306.484,355.365z"/>
			<path d="M307.527,348.479h0.879v3.018h0.02c0.14-0.249,0.36-0.479,0.63-0.619c0.26-0.16,0.57-0.25,0.899-0.25
				c0.65,0,1.689,0.399,1.689,2.068v2.879h-0.879v-2.778c0-0.79-0.29-1.439-1.119-1.439c-0.57,0-1.01,0.399-1.18,0.88
				c-0.05,0.12-0.06,0.25-0.06,0.42v2.918h-0.879V348.479z"/>
			<path d="M313.577,353.306c0.02,1.189,0.77,1.679,1.649,1.679c0.63,0,1.02-0.109,1.339-0.239l0.16,0.619
				c-0.31,0.14-0.85,0.31-1.619,0.31c-1.479,0-2.378-0.989-2.378-2.438c0-1.469,0.87-2.618,2.279-2.618
				c1.579,0,1.989,1.389,1.989,2.278c0,0.18-0.01,0.32-0.03,0.42L313.577,353.306z M316.145,352.676
				c0.01-0.55-0.23-1.429-1.209-1.429c-0.899,0-1.279,0.819-1.349,1.429H316.145z"/>
			<path d="M318.117,348.938c0.379-0.09,0.989-0.149,1.589-0.149c0.87,0,1.429,0.149,1.839,0.489c0.35,0.26,0.57,0.66,0.57,1.189
				c0,0.66-0.439,1.229-1.139,1.479v0.03c0.64,0.149,1.389,0.68,1.389,1.679c0,0.58-0.23,1.02-0.58,1.35
				c-0.46,0.43-1.22,0.629-2.319,0.629c-0.6,0-1.06-0.04-1.349-0.079V348.938z M318.986,351.697h0.79c0.91,0,1.449-0.489,1.449-1.14
				c0-0.779-0.589-1.099-1.469-1.099c-0.4,0-0.63,0.029-0.77,0.06V351.697z M318.986,354.915c0.18,0.029,0.42,0.039,0.73,0.039
				c0.899,0,1.729-0.329,1.729-1.309c0-0.91-0.79-1.3-1.739-1.3h-0.72V354.915z"/>
		</g>
	</g>
</g>
<g id="g13602" transform="translate(0.400318,-19.41789)">
	<g enable-background="new    ">
		<path d="M279.98,266.363v2.349h2.259v0.6h-2.259v2.369h-0.64v-2.369h-2.259v-0.6h2.259v-2.349H279.98z"/>
		<path d="M288.099,271.471c-0.31,0.16-0.959,0.32-1.779,0.32c-1.899,0-3.318-1.2-3.318-3.419c0-2.118,1.429-3.538,3.518-3.538
			c0.83,0,1.369,0.181,1.599,0.3l-0.22,0.71c-0.32-0.16-0.79-0.279-1.35-0.279c-1.579,0-2.628,1.009-2.628,2.778
			c0,1.659,0.95,2.708,2.579,2.708c0.54,0,1.08-0.109,1.429-0.279L288.099,271.471z"/>
		<path d="M290.07,264.944v2.818h3.258v-2.818h0.879v6.736h-0.879v-3.158h-3.258v3.158h-0.879v-6.736H290.07z"/>
		<path d="M295.424,274.31c0.175,0.104,0.574,0.28,1.008,0.28c0.785,0,1.037-0.498,1.03-0.883c-0.007-0.638-0.582-0.91-1.177-0.91
			h-0.343v-0.463h0.343c0.448,0,1.016-0.23,1.016-0.771c0-0.364-0.231-0.686-0.798-0.686c-0.364,0-0.714,0.161-0.911,0.301
			l-0.168-0.448c0.245-0.175,0.707-0.351,1.197-0.351c0.896,0,1.303,0.532,1.303,1.086c0,0.477-0.287,0.876-0.84,1.079v0.014
			c0.561,0.104,1.016,0.525,1.016,1.162c0,0.729-0.574,1.366-1.66,1.366c-0.512,0-0.96-0.161-1.184-0.309L295.424,274.31z"/>
	</g>
	<g enable-background="new    ">
	</g>
</g>
<g id="g13608" transform="translate(55.73971,14.54868)">
	<g enable-background="new    ">
		<path d="M284.45,267.662v0.64h-2.469v-0.64H284.45z"/>
		<path d="M290.209,270.471c-0.31,0.16-0.959,0.32-1.779,0.32c-1.899,0-3.318-1.2-3.318-3.419c0-2.118,1.429-3.538,3.518-3.538
			c0.83,0,1.369,0.181,1.599,0.3l-0.22,0.71c-0.32-0.16-0.79-0.279-1.35-0.279c-1.579,0-2.628,1.009-2.628,2.778
			c0,1.659,0.95,2.708,2.579,2.708c0.54,0,1.08-0.109,1.429-0.279L290.209,270.471z"/>
		<path d="M292.18,263.944v2.818h3.258v-2.818h0.879v6.736h-0.879v-3.158h-3.258v3.158h-0.879v-6.736H292.18z"/>
		<path d="M297.534,273.311c0.175,0.104,0.574,0.28,1.008,0.28c0.785,0,1.037-0.498,1.03-0.883c-0.007-0.638-0.582-0.91-1.177-0.91
			h-0.343v-0.463h0.343c0.448,0,1.016-0.23,1.016-0.771c0-0.364-0.231-0.686-0.798-0.686c-0.364,0-0.714,0.161-0.911,0.301
			l-0.168-0.448c0.245-0.175,0.707-0.351,1.197-0.351c0.896,0,1.303,0.532,1.303,1.086c0,0.477-0.287,0.876-0.84,1.079v0.014
			c0.561,0.104,1.016,0.525,1.016,1.162c0,0.729-0.574,1.366-1.66,1.366c-0.512,0-0.96-0.161-1.184-0.309L297.534,273.311z"/>
	</g>
	<g enable-background="new    ">
	</g>
</g>
<path id="path87172" sodipodi:nodetypes="cc" d="M295.769,268.52"/>
<path id="path13625" sodipodi:nodetypes="cc" d="M325.139,299.808"/>
<g id="g6493" transform="translate(69.52078,-140.0592)">
	<g id="g5646" transform="translate(-15.51018,156.4711)">
		
			<radialGradient id="path5648_1_" cx="191.403" cy="332.9768" r="10.1792" gradientTransform="matrix(0.8546 0 0 -0.7426 94.0651 474.8651)" gradientUnits="userSpaceOnUse">
			<stop  offset="0" style="stop-color:#FFFCDF"/>
			<stop  offset="0.1203" style="stop-color:#FFFBDA"/>
			<stop  offset="0.2662" style="stop-color:#FFF9CB"/>
			<stop  offset="0.4255" style="stop-color:#FFF6B2"/>
			<stop  offset="0.5943" style="stop-color:#FFF090"/>
			<stop  offset="0.7706" style="stop-color:#FFEA64"/>
			<stop  offset="0.9506" style="stop-color:#FFE22F"/>
			<stop  offset="1" style="stop-color:#FFE01F"/>
		</radialGradient>
		<path id="path5648" fill="url(#path5648_1_)" stroke="#000000" d="M265.939,228.899c0,3.236-2.622,5.858-5.858,5.858h-4.884
			c-3.236,0-5.859-2.623-5.859-5.858v-2.604c0-3.236,2.623-5.859,5.859-5.859h4.884c3.236,0,5.858,2.623,5.858,5.859V228.899z"/>
	</g>
	<g enable-background="new    ">
		<path d="M239.967,380.6c0.439-0.09,1.079-0.149,1.669-0.149c0.93,0,1.539,0.18,1.959,0.56c0.33,0.29,0.53,0.75,0.53,1.279
			c0,0.88-0.57,1.469-1.27,1.709v0.03c0.51,0.18,0.82,0.659,0.99,1.359c0.22,0.939,0.379,1.589,0.509,1.849h-0.899
			c-0.11-0.189-0.26-0.77-0.439-1.609c-0.2-0.93-0.57-1.279-1.359-1.309h-0.82v2.918h-0.869V380.6z M240.836,383.659h0.89
			c0.93,0,1.519-0.51,1.519-1.279c0-0.869-0.629-1.249-1.549-1.249c-0.42,0-0.71,0.04-0.86,0.08V383.659z"/>
	</g>
</g>
<path id="path13637" sodipodi:nodetypes="cc" d="M339.014,273.365"/>
<g>
	<g id="g6443_2_" transform="matrix(0.000000,1.000000,-1.000000,0.000000,310.0083,-150.5756)">
		<g id="g6445_2_">
			
				<radialGradient id="path6471_11_" cx="512.4672" cy="-420.9034" r="15.25" gradientTransform="matrix(-0.5774 0 0 1.1127 733.9898 467.1038)" gradientUnits="userSpaceOnUse">
				<stop  offset="0" style="stop-color:#6EFF5F"/>
				<stop  offset="0.4404" style="stop-color:#6CFD5D"/>
				<stop  offset="0.599" style="stop-color:#65F658"/>
				<stop  offset="0.7121" style="stop-color:#5AEB4D"/>
				<stop  offset="0.8035" style="stop-color:#49DA3F"/>
				<stop  offset="0.8818" style="stop-color:#33C42C"/>
				<stop  offset="0.95" style="stop-color:#19A915"/>
				<stop  offset="1" style="stop-color:#009000"/>
			</radialGradient>
			<path id="path6471_2_" fill="url(#path6471_11_)" stroke="#000000" d="M438.09-18.204c4.865,0,8.808,7.595,8.808,16.968
				c0,9.369-3.942,16.968-8.808,16.968c-4.86,0-8.804-7.599-8.804-16.968C429.287-10.609,433.23-18.204,438.09-18.204z"/>
		</g>
	</g>
	<g>
		<path d="M301.446,290.242c-0.31,0.16-0.959,0.32-1.779,0.32c-1.899,0-3.318-1.2-3.318-3.419c0-2.118,1.429-3.538,3.518-3.538
			c0.83,0,1.369,0.181,1.599,0.3l-0.22,0.71c-0.32-0.16-0.79-0.279-1.35-0.279c-1.579,0-2.628,1.009-2.628,2.778
			c0,1.659,0.95,2.708,2.579,2.708c0.54,0,1.08-0.109,1.429-0.279L301.446,290.242z"/>
		<path d="M302.488,283.356h0.879v3.018h0.02c0.14-0.249,0.36-0.479,0.63-0.619c0.26-0.16,0.57-0.25,0.899-0.25
			c0.65,0,1.689,0.399,1.689,2.068v2.879h-0.879v-2.778c0-0.79-0.29-1.439-1.119-1.439c-0.57,0-1.01,0.399-1.18,0.88
			c-0.05,0.12-0.06,0.25-0.06,0.42v2.918h-0.879V283.356z"/>
		<path d="M308.538,288.184c0.02,1.189,0.77,1.679,1.649,1.679c0.63,0,1.02-0.109,1.339-0.239l0.16,0.619
			c-0.31,0.14-0.85,0.31-1.619,0.31c-1.479,0-2.378-0.989-2.378-2.438c0-1.469,0.87-2.618,2.279-2.618
			c1.579,0,1.989,1.389,1.989,2.278c0,0.18-0.01,0.32-0.03,0.42L308.538,288.184z M311.106,287.554
			c0.01-0.55-0.23-1.429-1.209-1.429c-0.899,0-1.279,0.819-1.349,1.429H311.106z"/>
		<path d="M313.078,283.815c0.379-0.09,0.989-0.149,1.589-0.149c0.87,0,1.429,0.149,1.839,0.489c0.35,0.26,0.57,0.66,0.57,1.189
			c0,0.66-0.439,1.229-1.139,1.479v0.03c0.64,0.149,1.389,0.68,1.389,1.679c0,0.58-0.23,1.02-0.58,1.35
			c-0.46,0.43-1.22,0.629-2.319,0.629c-0.6,0-1.06-0.04-1.349-0.079V283.815z M313.947,286.574h0.79c0.91,0,1.449-0.489,1.449-1.14
			c0-0.779-0.589-1.099-1.469-1.099c-0.4,0-0.63,0.029-0.77,0.06V286.574z M313.947,289.793c0.18,0.029,0.42,0.039,0.73,0.039
			c0.899,0,1.729-0.329,1.729-1.309c0-0.91-0.79-1.3-1.739-1.3h-0.72V289.793z"/>
		<path d="M320.507,287.434v0.64h-2.469v-0.64H320.507z"/>
		<path d="M321.538,287.194c0-0.62-0.01-1.12-0.04-1.579h0.79l0.05,0.829h0.02c0.35-0.6,0.929-0.939,1.709-0.939
			c1.179,0,2.059,0.989,2.059,2.459c0,1.738-1.069,2.599-2.199,2.599c-0.649,0-1.199-0.28-1.489-0.76h-0.02v2.628h-0.879V287.194z
			 M322.417,288.483c0,0.12,0.01,0.25,0.04,0.359c0.15,0.61,0.69,1.029,1.31,1.029c0.929,0,1.469-0.759,1.469-1.868
			c0-0.97-0.5-1.8-1.429-1.8c-0.6,0-1.169,0.42-1.339,1.08c-0.02,0.12-0.05,0.25-0.05,0.359V288.483z"/>
	</g>
</g>
<g>
	<g>
		<g>
			<path fill="none" stroke="#000000" d="M302.445,295.304c-27.795,12.916-29.701,35.265-4.013,49.402"/>
			<polygon points="294.185,346.597 297.349,344.11 297.757,340.107 303.661,347.584 			"/>
		</g>
	</g>
	<g>
		<g>
			<path fill="none" stroke="#000000" d="M320.445,347.64c29.041-12.714,30.25-34.69,3.842-49.014"/>
			<polygon points="328.522,296.709 325.374,299.215 324.99,303.221 319.04,295.78 			"/>
		</g>
	</g>
</g>
<g>
	<g id="path5958_2_" sodipodi:nodetypes="cc">
		<g>
			<path fill="none" stroke="#000000" d="M421.597,272.288c0,54.712,7.498,68.431,22.001,78.768"/>
			<polygon points="439.162,352.441 442.591,350.339 443.46,346.409 448.46,354.521 			"/>
		</g>
	</g>
	<g id="path5958_3_" sodipodi:nodetypes="cc">
		<g>
			<path fill="none" stroke="#000000" d="M421.407,272.379c-0.159,67.65-62.576,63.217-73.462,59.01"/>
			<polygon points="351.899,328.947 349.097,331.835 349.229,335.856 342.376,329.238 			"/>
		</g>
	</g>
</g>
<path id="path13641" sodipodi:nodetypes="cc" d="M501.442,350.164"/>
<g>
	<g id="g6443_3_" transform="matrix(0.000000,1.000000,-1.000000,0.000000,310.0083,-150.5756)">
		<g id="g6445_5_">
			
				<radialGradient id="path6471_12_" cx="451.2719" cy="-574.0557" r="15.2495" gradientTransform="matrix(-0.5774 0 0 1.1127 733.9898 467.1038)" gradientUnits="userSpaceOnUse">
				<stop  offset="0" style="stop-color:#6EFF5F"/>
				<stop  offset="0.4404" style="stop-color:#6CFD5D"/>
				<stop  offset="0.599" style="stop-color:#65F658"/>
				<stop  offset="0.7121" style="stop-color:#5AEB4D"/>
				<stop  offset="0.8035" style="stop-color:#49DA3F"/>
				<stop  offset="0.8818" style="stop-color:#33C42C"/>
				<stop  offset="0.95" style="stop-color:#19A915"/>
				<stop  offset="1" style="stop-color:#009000"/>
			</radialGradient>
			<path id="path6471_5_" fill="url(#path6471_12_)" stroke="#000000" d="M473.424-188.615c4.865,0,8.808,7.595,8.808,16.968
				c0,9.369-3.942,16.968-8.808,16.968c-4.86,0-8.804-7.599-8.804-16.968C464.621-181.021,468.564-188.615,473.424-188.615z"/>
		</g>
	</g>
	<g>
		<path d="M471.863,325.576c-0.31,0.16-0.959,0.32-1.779,0.32c-1.898,0-3.317-1.2-3.317-3.419c0-2.118,1.429-3.538,3.519-3.538
			c0.829,0,1.369,0.181,1.599,0.3l-0.22,0.71c-0.32-0.16-0.789-0.279-1.35-0.279c-1.579,0-2.629,1.009-2.629,2.778
			c0,1.659,0.95,2.708,2.579,2.708c0.54,0,1.079-0.109,1.429-0.279L471.863,325.576z"/>
		<path d="M472.906,318.69h0.879v3.018h0.021c0.14-0.249,0.36-0.479,0.63-0.619c0.26-0.16,0.57-0.25,0.899-0.25
			c0.649,0,1.688,0.399,1.688,2.068v2.879h-0.879v-2.778c0-0.79-0.289-1.439-1.119-1.439c-0.57,0-1.01,0.399-1.18,0.88
			c-0.05,0.12-0.061,0.25-0.061,0.42v2.918h-0.879V318.69z"/>
		<path d="M478.956,323.518c0.021,1.189,0.77,1.679,1.649,1.679c0.629,0,1.02-0.109,1.339-0.239l0.159,0.619
			c-0.309,0.14-0.85,0.31-1.619,0.31c-1.479,0-2.378-0.989-2.378-2.438c0-1.469,0.87-2.618,2.278-2.618
			c1.58,0,1.989,1.389,1.989,2.278c0,0.18-0.011,0.32-0.03,0.42L478.956,323.518z M481.524,322.888
			c0.011-0.55-0.229-1.429-1.21-1.429c-0.898,0-1.279,0.819-1.349,1.429H481.524z"/>
		<path d="M484.995,325.786v-2.858l-2.139-3.878h0.999l0.949,1.859c0.25,0.51,0.461,0.919,0.67,1.389h0.02
			c0.181-0.439,0.42-0.879,0.68-1.389l0.971-1.859h0.979l-2.248,3.868v2.868H484.995z"/>
		<path d="M490.914,322.768v0.64h-2.469v-0.64H490.914z"/>
		<path d="M491.945,322.528c0-0.62-0.01-1.12-0.04-1.579h0.79l0.05,0.829h0.021c0.35-0.6,0.929-0.939,1.709-0.939
			c1.179,0,2.059,0.989,2.059,2.459c0,1.738-1.07,2.599-2.199,2.599c-0.649,0-1.199-0.28-1.489-0.76h-0.021v2.628h-0.879V322.528z
			 M492.824,323.817c0,0.12,0.011,0.25,0.041,0.359c0.149,0.61,0.689,1.029,1.309,1.029c0.93,0,1.47-0.759,1.47-1.868
			c0-0.97-0.5-1.8-1.429-1.8c-0.6,0-1.17,0.42-1.34,1.08c-0.02,0.12-0.051,0.25-0.051,0.359V323.817z"/>
	</g>
</g>
<g>
	<g id="g6445_6_">
		
			<radialGradient id="path6471_13_" cx="884.064" cy="182.8682" r="15.2502" gradientTransform="matrix(1.1127 0 0 -0.5774 -502.0417 496.4719)" gradientUnits="userSpaceOnUse">
			<stop  offset="0" style="stop-color:#6EFF5F"/>
			<stop  offset="0.4404" style="stop-color:#6CFD5D"/>
			<stop  offset="0.599" style="stop-color:#65F658"/>
			<stop  offset="0.7121" style="stop-color:#5AEB4D"/>
			<stop  offset="0.8035" style="stop-color:#49DA3F"/>
			<stop  offset="0.8818" style="stop-color:#33C42C"/>
			<stop  offset="0.95" style="stop-color:#19A915"/>
			<stop  offset="1" style="stop-color:#009000"/>
		</radialGradient>
		<path id="path6471_6_" fill="url(#path6471_13_)" stroke="#000000" d="M498.624,390.883c0,4.864-7.595,8.808-16.968,8.808
			c-9.369,0-16.968-3.943-16.968-8.808c0-4.861,7.599-8.805,16.968-8.805C491.029,382.078,498.624,386.021,498.624,390.883z"/>
	</g>
	<g enable-background="new    ">
		<path d="M476.244,393.609c-0.311,0.16-0.96,0.32-1.779,0.32c-1.899,0-3.318-1.2-3.318-3.419c0-2.118,1.43-3.538,3.518-3.538
			c0.83,0,1.369,0.181,1.6,0.3l-0.22,0.71c-0.319-0.16-0.79-0.279-1.35-0.279c-1.579,0-2.628,1.009-2.628,2.778
			c0,1.659,0.949,2.708,2.578,2.708c0.539,0,1.08-0.109,1.43-0.279L476.244,393.609z"/>
		<path d="M477.286,386.724h0.88v3.018h0.02c0.141-0.249,0.359-0.479,0.63-0.619c0.26-0.16,0.569-0.25,0.899-0.25
			c0.65,0,1.689,0.399,1.689,2.068v2.879h-0.88v-2.778c0-0.79-0.29-1.439-1.119-1.439c-0.569,0-1.01,0.399-1.18,0.88
			c-0.05,0.12-0.06,0.25-0.06,0.42v2.918h-0.88V386.724z"/>
		<path d="M483.335,391.551c0.02,1.189,0.77,1.679,1.648,1.679c0.631,0,1.02-0.109,1.34-0.239l0.16,0.619
			c-0.311,0.14-0.85,0.31-1.619,0.31c-1.479,0-2.379-0.989-2.379-2.438c0-1.469,0.869-2.618,2.279-2.618
			c1.578,0,1.988,1.389,1.988,2.278c0,0.18-0.01,0.32-0.029,0.42L483.335,391.551z M485.904,390.921
			c0.01-0.55-0.23-1.429-1.209-1.429c-0.9,0-1.279,0.819-1.35,1.429H485.904z"/>
		<path d="M489.375,393.819v-2.858l-2.139-3.878h1l0.949,1.859c0.25,0.51,0.459,0.919,0.669,1.389h0.021
			c0.18-0.439,0.42-0.879,0.68-1.389l0.969-1.859h0.98l-2.25,3.868v2.868H489.375z"/>
	</g>
</g>
<g>
	<g>
		<path fill="none" stroke="#000000" d="M471.613,383.138c-27.795-12.916-31.354-36.197-5.667-50.334"/>
		<polygon points="465.271,337.403 464.863,333.399 461.7,330.913 471.175,329.926 		"/>
	</g>
</g>
<g>
	<g>
		<path fill="none" stroke="#000000" d="M493.279,329.138c29.041,12.714,30.075,36.843,3.667,51.166"/>
		<polygon points="497.649,375.709 498.032,379.715 501.18,382.221 491.699,383.149 		"/>
	</g>
</g>
<g>
	<g>
		<path fill="none" stroke="#000000" d="M525.369,377.287c-8.584-8.658-9.518-18.108-9.259-24.69"/>
		<polygon points="520.761,377.9 524.499,376.409 526.021,372.685 529.572,381.526 		"/>
	</g>
</g>
<g>
	<g>
		<path fill="none" stroke="#000000" d="M499.195,203.138c-46.25-10.749,68.315-9.854,22.607-0.692"/>
		<polygon points="523.828,198.262 523.014,202.203 525.284,205.525 515.95,203.619 		"/>
	</g>
</g>
<g>
	<g>
		<line fill="none" stroke="#000000" x1="490.695" y1="315.638" x2="505.945" y2="246.938"/>
		<polygon points="508.953,250.483 505.677,248.145 501.72,248.878 507.239,241.111 		"/>
	</g>
</g>
<g>
	<g>
		<path fill="none" stroke="#000000" d="M271.324,342.787c8.584-8.658,8.858-16.858,9.121-23.649"/>
		<polygon points="270.671,338.185 272.194,341.909 275.931,343.4 267.121,347.026 		"/>
	</g>
</g>
<g>
	<path d="M494.08,167.901h3.628v0.729h-2.749v2.239h2.539v0.72h-2.539v3.048h-0.879V167.901z"/>
	<path d="M498.759,167.542h0.88v7.096h-0.88V167.542z"/>
	<path d="M504.507,173.479c0,0.419,0.02,0.83,0.07,1.159h-0.79l-0.08-0.61h-0.029c-0.261,0.38-0.79,0.72-1.479,0.72
		c-0.979,0-1.479-0.689-1.479-1.389c0-1.169,1.04-1.809,2.908-1.799v-0.1c0-0.4-0.109-1.129-1.099-1.12c-0.46,0-0.93,0.13-1.27,0.36
		l-0.2-0.589c0.4-0.25,0.989-0.42,1.6-0.42c1.489,0,1.849,1.009,1.849,1.979V173.479z M503.648,172.169
		c-0.96-0.02-2.049,0.15-2.049,1.089c0,0.58,0.38,0.84,0.819,0.84c0.64,0,1.05-0.4,1.189-0.81c0.03-0.09,0.04-0.19,0.04-0.28
		V172.169z"/>
	<path d="M510.057,173.928c0,1.119-0.229,1.789-0.689,2.219c-0.479,0.43-1.159,0.58-1.77,0.58c-0.579,0-1.219-0.14-1.608-0.4
		l0.22-0.68c0.319,0.21,0.819,0.39,1.419,0.39c0.899,0,1.56-0.47,1.56-1.699v-0.53h-0.021c-0.26,0.45-0.789,0.81-1.539,0.81
		c-1.199,0-2.059-1.02-2.059-2.369c0-1.639,1.069-2.559,2.188-2.559c0.84,0,1.289,0.43,1.51,0.83h0.02l0.03-0.72h0.779
		c-0.03,0.34-0.04,0.729-0.04,1.319V173.928z M509.178,171.699c0-0.14-0.011-0.27-0.051-0.39c-0.159-0.52-0.579-0.939-1.229-0.939
		c-0.84,0-1.439,0.709-1.439,1.839c0,0.939,0.489,1.739,1.429,1.739c0.55,0,1.04-0.34,1.22-0.91c0.05-0.14,0.07-0.31,0.07-0.47
		V171.699z"/>
	<path d="M512.009,172.369c0.02,1.189,0.77,1.679,1.648,1.679c0.63,0,1.02-0.11,1.34-0.24l0.16,0.62
		c-0.311,0.14-0.85,0.31-1.619,0.31c-1.479,0-2.379-0.99-2.379-2.439c0-1.469,0.869-2.618,2.278-2.618
		c1.579,0,1.989,1.389,1.989,2.278c0,0.18-0.01,0.32-0.03,0.42L512.009,172.369z M514.578,171.739
		c0.01-0.55-0.229-1.429-1.209-1.429c-0.899,0-1.279,0.819-1.35,1.429H514.578z"/>
	<path d="M516.519,167.542h0.88v7.096h-0.88V167.542z"/>
	<path d="M518.859,167.542h0.88v7.096h-0.88V167.542z"/>
	<path d="M524.607,173.479c0,0.419,0.02,0.83,0.07,1.159h-0.79l-0.08-0.61h-0.029c-0.261,0.38-0.79,0.72-1.479,0.72
		c-0.979,0-1.479-0.689-1.479-1.389c0-1.169,1.04-1.809,2.908-1.799v-0.1c0-0.4-0.109-1.129-1.099-1.12c-0.46,0-0.93,0.13-1.27,0.36
		l-0.2-0.589c0.4-0.25,0.989-0.42,1.6-0.42c1.489,0,1.849,1.009,1.849,1.979V173.479z M523.748,172.169
		c-0.96-0.02-2.049,0.15-2.049,1.089c0,0.58,0.38,0.84,0.819,0.84c0.64,0,1.05-0.4,1.189-0.81c0.03-0.09,0.04-0.19,0.04-0.28
		V172.169z"/>
	<path d="M526.029,171.31c0-0.57-0.01-1.06-0.04-1.509h0.77l0.04,0.95h0.03c0.22-0.65,0.76-1.06,1.35-1.06
		c0.09,0,0.159,0.01,0.239,0.03v0.82c-0.1-0.01-0.189-0.02-0.31-0.02c-0.619,0-1.06,0.47-1.18,1.119
		c-0.02,0.13-0.029,0.27-0.029,0.42v2.579h-0.88L526.029,171.31z"/>
	<path d="M504.586,183.679c-0.05-0.939-0.11-2.079-0.11-2.908h-0.02c-0.24,0.779-0.51,1.629-0.85,2.559l-1.189,3.268h-0.659
		l-1.1-3.208c-0.32-0.959-0.58-1.819-0.77-2.619h-0.021c-0.02,0.839-0.069,1.959-0.13,2.979l-0.18,2.888h-0.829l0.47-6.736h1.109
		l1.149,3.258c0.279,0.83,0.499,1.569,0.68,2.269h0.02c0.18-0.68,0.42-1.419,0.72-2.269l1.199-3.258h1.109l0.42,6.736h-0.859
		L504.586,183.679z"/>
	<path d="M508.938,186.748c-1.299,0-2.318-0.959-2.318-2.489c0-1.619,1.069-2.568,2.398-2.568c1.39,0,2.329,1.009,2.329,2.479
		c0,1.799-1.25,2.579-2.398,2.579H508.938z M508.968,186.088c0.84,0,1.469-0.79,1.469-1.889c0-0.82-0.409-1.849-1.449-1.849
		c-1.029,0-1.479,0.959-1.479,1.879c0,1.06,0.6,1.859,1.449,1.859H508.968z"/>
	<path d="M513.519,180.641v1.159h1.259v0.67h-1.259v2.608c0,0.6,0.17,0.939,0.659,0.939c0.24,0,0.38-0.02,0.51-0.06l0.04,0.67
		c-0.17,0.06-0.439,0.12-0.779,0.12c-0.41,0-0.739-0.14-0.949-0.37c-0.24-0.27-0.34-0.7-0.34-1.27v-2.638h-0.75v-0.67h0.75v-0.89
		L513.519,180.641z"/>
	<path d="M517.678,186.748c-1.299,0-2.318-0.959-2.318-2.489c0-1.619,1.069-2.568,2.398-2.568c1.39,0,2.329,1.009,2.329,2.479
		c0,1.799-1.25,2.579-2.398,2.579H517.678z M517.708,186.088c0.84,0,1.469-0.79,1.469-1.889c0-0.82-0.409-1.849-1.449-1.849
		c-1.029,0-1.479,0.959-1.479,1.879c0,1.06,0.6,1.859,1.449,1.859H517.708z"/>
	<path d="M521.209,183.31c0-0.57-0.01-1.06-0.04-1.509h0.77l0.04,0.95h0.03c0.22-0.65,0.76-1.06,1.35-1.06
		c0.09,0,0.159,0.01,0.239,0.03v0.82c-0.1-0.01-0.189-0.02-0.31-0.02c-0.619,0-1.06,0.47-1.18,1.119
		c-0.02,0.13-0.029,0.27-0.029,0.42v2.579h-0.88L521.209,183.31z"/>
</g>
<g id="g1181_1_">
	
		<radialGradient id="rect78407_2_" cx="0.9742" cy="-269.5635" r="13.8289" gradientTransform="matrix(0.7055 0.7087 -0.7087 0.7055 -4.668 319.9307)" gradientUnits="userSpaceOnUse">
		<stop  offset="0" style="stop-color:#D0C4E0"/>
		<stop  offset="0.3949" style="stop-color:#C1D1EB"/>
		<stop  offset="0.5372" style="stop-color:#B9CCE9"/>
		<stop  offset="0.6386" style="stop-color:#AEC3E5"/>
		<stop  offset="0.7206" style="stop-color:#9FB9E0"/>
		<stop  offset="0.7909" style="stop-color:#8DABD9"/>
		<stop  offset="0.8531" style="stop-color:#7596CD"/>
		<stop  offset="0.9093" style="stop-color:#5C80C0"/>
		<stop  offset="0.9593" style="stop-color:#476FB5"/>
		<stop  offset="1" style="stop-color:#4165AE"/>
	</radialGradient>
	<path id="rect78407_1_" fill="url(#rect78407_2_)" stroke="#000000" d="M189.999,114.959l12.557,12.611
		c1.602,1.609,1.598,4.212-0.014,5.813L189.93,145.94c-1.607,1.602-4.213,1.596-5.814-0.014l-12.553-12.611
		c-1.6-1.607-1.596-4.211,0.014-5.813l12.611-12.555C185.795,113.346,188.399,113.35,189.999,114.959z"/>
</g>
<g id="g1181_2_">
	
		<radialGradient id="rect78407_5_" cx="69.314" cy="-300.46" r="13.8289" gradientTransform="matrix(0.7055 0.7087 -0.7087 0.7055 -4.668 319.9307)" gradientUnits="userSpaceOnUse">
		<stop  offset="0" style="stop-color:#D0C4E0"/>
		<stop  offset="0.3949" style="stop-color:#C1D1EB"/>
		<stop  offset="0.5372" style="stop-color:#B9CCE9"/>
		<stop  offset="0.6386" style="stop-color:#AEC3E5"/>
		<stop  offset="0.7206" style="stop-color:#9FB9E0"/>
		<stop  offset="0.7909" style="stop-color:#8DABD9"/>
		<stop  offset="0.8531" style="stop-color:#7596CD"/>
		<stop  offset="0.9093" style="stop-color:#5C80C0"/>
		<stop  offset="0.9593" style="stop-color:#476FB5"/>
		<stop  offset="1" style="stop-color:#4165AE"/>
	</radialGradient>
	<path id="rect78407_3_" fill="url(#rect78407_5_)" stroke="#000000" d="M260.108,141.595l12.557,12.611
		c1.602,1.609,1.598,4.212-0.014,5.813l-12.611,12.556c-1.607,1.602-4.213,1.596-5.814-0.014l-12.553-12.611
		c-1.6-1.607-1.596-4.211,0.014-5.813l12.611-12.555C255.905,139.981,258.509,139.985,260.108,141.595z"/>
</g>
<g>
	<g id="g1177_2_">
		<path id="path30085_3_" fill="none" stroke="#000000" stroke-width="2" stroke-linecap="round" stroke-linejoin="round" d="
			M233.172,198.09l-9.637,9.64l-0.08,0.842v35.364"/>
		<path id="path84039_3_" fill="none" stroke="#000000" stroke-width="2" stroke-linecap="round" stroke-linejoin="round" d="
			M209.418,197.896l9.637,9.639l0.082,0.844v35.365"/>
	</g>
	<g id="g1181_3_">
		
			<radialGradient id="rect78407_6_" cx="66.1636" cy="-252.9775" r="13.8289" gradientTransform="matrix(0.7055 0.7087 -0.7087 0.7055 -4.668 319.9307)" gradientUnits="userSpaceOnUse">
			<stop  offset="0" style="stop-color:#D0C4E0"/>
			<stop  offset="0.3949" style="stop-color:#C1D1EB"/>
			<stop  offset="0.5372" style="stop-color:#B9CCE9"/>
			<stop  offset="0.6386" style="stop-color:#AEC3E5"/>
			<stop  offset="0.7206" style="stop-color:#9FB9E0"/>
			<stop  offset="0.7909" style="stop-color:#8DABD9"/>
			<stop  offset="0.8531" style="stop-color:#7596CD"/>
			<stop  offset="0.9093" style="stop-color:#5C80C0"/>
			<stop  offset="0.9593" style="stop-color:#476FB5"/>
			<stop  offset="1" style="stop-color:#4165AE"/>
		</radialGradient>
		<path id="rect78407_4_" fill="url(#rect78407_6_)" stroke="#000000" d="M224.235,172.861l12.557,12.611
			c1.602,1.609,1.598,4.212-0.014,5.813l-12.611,12.556c-1.607,1.602-4.213,1.596-5.814-0.014l-12.553-12.611
			c-1.6-1.607-1.596-4.211,0.014-5.813l12.611-12.555C220.032,171.248,222.635,171.251,224.235,172.861z"/>
	</g>
</g>
<g>
	<path id="path19818_2_" fill="#FFFF00" stroke="#000000" d="M315.456,272.682c0,2.681-2.096,4.854-4.68,4.854
		c-2.585,0-4.68-2.173-4.68-4.854c0-2.68,2.095-4.853,4.68-4.853C313.36,267.83,315.456,270.002,315.456,272.682z"/>
	<g enable-background="new    ">
		<path fill="#FF3399" d="M309.321,269.736c0.322-0.063,0.743-0.111,1.279-0.111c0.659,0,1.142,0.159,1.448,0.444
			c0.283,0.254,0.459,0.643,0.459,1.119c0,0.483-0.138,0.864-0.406,1.143c-0.353,0.389-0.927,0.587-1.578,0.587
			c-0.199,0-0.383-0.008-0.536-0.048v2.143h-0.667V269.736z M309.988,272.307c0.146,0.04,0.337,0.056,0.552,0.056
			c0.812,0,1.294-0.412,1.294-1.135c0-0.714-0.483-1.055-1.218-1.055c-0.291,0-0.513,0.031-0.628,0.056V272.307z"/>
	</g>
</g>
</svg>
