<?xml version="1.0" encoding="utf-8"?>
<!-- Generator: Adobe Illustrator 14.0.0, SVG Export Plug-In . SVG Version: 6.00 Build 43363)  -->
<!DOCTYPE svg PUBLIC "-//W3C//DTD SVG 1.1//EN" "http://www.w3.org/Graphics/SVG/1.1/DTD/svg11.dtd">
<svg version="1.1" id="Layer_1" xmlns="http://www.w3.org/2000/svg" xmlns:xlink="http://www.w3.org/1999/xlink" x="0px" y="0px"
	 width="521.622px" height="379.73px" viewBox="0 0 521.622 379.73" enable-background="new 0 0 521.622 379.73"
	 xml:space="preserve">
<g>
	<g>
		<line fill="none" stroke="#010101" x1="321.72" y1="78.845" x2="273.72" y2="78.845"/>
		<polygon fill="#010101" points="318.911,82.548 320.483,78.845 318.911,75.141 327.688,78.845 		"/>
	</g>
</g>
<g>
	<g>
		<g>
			<line fill="none" stroke="#010101" x1="161.829" y1="321.754" x2="222.247" y2="321.754"/>
			<polygon fill="#010101" points="219.438,325.457 221.01,321.754 219.438,318.05 228.215,321.754 			"/>
		</g>
	</g>
	<g>
		<g>
			<path fill="none" stroke="#010101" d="M183.606,321.754c28.209,0,28.209,28.622,28.209,28.622"/>
			<polygon fill="#010101" points="208.112,347.567 211.815,349.141 215.518,347.567 211.815,356.346 			"/>
		</g>
	</g>
</g>
<ellipse fill="#C2DAF2" stroke="#1683B0" stroke-width="5" cx="131.381" cy="205.986" rx="114.5" ry="82"/>
<g id="M_T">
	
		<radialGradient id="M_T_path1_1_" cx="90.4448" cy="499.5059" r="16.186" gradientTransform="matrix(1.8941 0 0 -0.6358 -39.9297 639.86)" gradientUnits="userSpaceOnUse">
		<stop  offset="0" style="stop-color:#C2DA68"/>
		<stop  offset="0.4082" style="stop-color:#C2DA68"/>
		<stop  offset="0.5552" style="stop-color:#BDD969"/>
		<stop  offset="0.66" style="stop-color:#B9D766"/>
		<stop  offset="0.7448" style="stop-color:#B1D466"/>
		<stop  offset="0.8174" style="stop-color:#A8D167"/>
		<stop  offset="0.8817" style="stop-color:#9DCE67"/>
		<stop  offset="0.9398" style="stop-color:#93CA66"/>
		<stop  offset="0.9915" style="stop-color:#89C763"/>
		<stop  offset="1" style="stop-color:#87C764"/>
	</radialGradient>
	<path id="M_T_path1" fill="url(#M_T_path1_1_)" stroke="#020202" d="M161.477,322.272c0,5.786-13.48,10.479-30.098,10.479
		c-16.619,0-30.094-4.689-30.094-10.479s13.475-10.475,30.094-10.475C147.997,311.798,161.477,316.485,161.477,322.272z"/>
	<g>
		<path fill="#010101" d="M108.01,318.6v1.392h1.512v0.805h-1.512v3.129c0,0.721,0.205,1.129,0.793,1.129
			c0.287,0,0.455-0.023,0.609-0.072l0.049,0.805c-0.203,0.068-0.527,0.142-0.936,0.142c-0.492,0-0.887-0.168-1.139-0.443
			c-0.289-0.323-0.408-0.84-0.408-1.522v-3.166h-0.9v-0.805h0.9v-1.078L108.01,318.6z"/>
		<path fill="#010101" d="M111.887,318.359c0,0.359-0.252,0.647-0.672,0.647c-0.385,0-0.637-0.288-0.637-0.647
			c0-0.36,0.266-0.659,0.66-0.659C111.622,317.7,111.887,317.987,111.887,318.359z M110.709,325.796v-5.805h1.057v5.805H110.709z"/>
		<path fill="#010101" d="M113.518,321.562c0-0.611-0.023-1.092-0.047-1.57h0.922l0.049,0.946h0.035
			c0.324-0.552,0.865-1.067,1.836-1.067c0.779,0,1.379,0.479,1.631,1.164h0.023c0.18-0.336,0.42-0.576,0.66-0.756
			c0.348-0.265,0.719-0.408,1.271-0.408c0.779,0,1.918,0.504,1.918,2.52v3.406h-1.031v-3.274c0-1.127-0.42-1.787-1.258-1.787
			c-0.613,0-1.068,0.444-1.26,0.948c-0.047,0.154-0.084,0.335-0.084,0.527v3.586h-1.031v-3.479c0-0.923-0.408-1.583-1.211-1.583
			c-0.648,0-1.141,0.528-1.309,1.057c-0.061,0.144-0.084,0.336-0.084,0.516v3.49h-1.031V321.562z"/>
		<path fill="#010101" d="M126.071,321.562c0-0.611-0.025-1.092-0.049-1.57h0.924l0.047,0.946h0.037
			c0.324-0.552,0.863-1.067,1.834-1.067c0.781,0,1.379,0.479,1.631,1.164h0.025c0.18-0.336,0.418-0.576,0.66-0.756
			c0.348-0.265,0.719-0.408,1.27-0.408c0.781,0,1.92,0.504,1.92,2.52v3.406h-1.031v-3.274c0-1.127-0.42-1.787-1.26-1.787
			c-0.611,0-1.066,0.444-1.258,0.948c-0.049,0.154-0.084,0.335-0.084,0.527v3.586h-1.033v-3.479c0-0.923-0.408-1.583-1.211-1.583
			c-0.646,0-1.139,0.528-1.307,1.057c-0.061,0.144-0.084,0.336-0.084,0.516v3.49h-1.031V321.562z"/>
		<path fill="#010101" d="M136.116,317.819c0.527-0.096,1.295-0.168,2.002-0.168c1.115,0,1.848,0.217,2.338,0.659
			c0.396,0.36,0.637,0.912,0.637,1.548c0,1.057-0.672,1.764-1.512,2.051v0.037c0.613,0.215,0.984,0.791,1.176,1.631
			c0.264,1.127,0.455,1.906,0.623,2.219h-1.078c-0.133-0.24-0.312-0.924-0.529-1.932c-0.24-1.115-0.684-1.535-1.631-1.57h-0.982
			v3.502h-1.043V317.819z M137.159,321.501h1.066c1.115,0,1.824-0.61,1.824-1.535c0-1.043-0.756-1.498-1.859-1.498
			c-0.504,0-0.854,0.035-1.031,0.084V321.501z"/>
		<path fill="#010101" d="M142.571,325.796v-8.084h1.152l2.578,4.09c0.588,0.947,1.066,1.8,1.439,2.627l0.035-0.012
			c-0.096-1.08-0.119-2.063-0.119-3.322v-3.383h0.982v8.084h-1.055l-2.566-4.103c-0.564-0.899-1.104-1.823-1.5-2.698l-0.035,0.012
			c0.059,1.021,0.072,1.992,0.072,3.334v3.455H142.571z"/>
		<path fill="#010101" d="M151.774,323.253l-0.84,2.543h-1.08l2.758-8.084h1.248l2.758,8.084h-1.115l-0.863-2.543H151.774z
			 M154.436,322.437l-0.803-2.326c-0.182-0.527-0.301-1.008-0.42-1.476h-0.023c-0.121,0.468-0.24,0.972-0.408,1.463l-0.793,2.339
			H154.436z"/>
	</g>
</g>
<g id="M_P">
	
		<radialGradient id="M_P_path1_1_" cx="90.4448" cy="882.377" r="16.186" gradientTransform="matrix(1.8941 0 0 -0.6358 -39.9297 639.86)" gradientUnits="userSpaceOnUse">
		<stop  offset="0" style="stop-color:#C2DA68"/>
		<stop  offset="0.4082" style="stop-color:#C2DA68"/>
		<stop  offset="0.5552" style="stop-color:#BDD969"/>
		<stop  offset="0.66" style="stop-color:#B9D766"/>
		<stop  offset="0.7448" style="stop-color:#B1D466"/>
		<stop  offset="0.8174" style="stop-color:#A8D167"/>
		<stop  offset="0.8817" style="stop-color:#9DCE67"/>
		<stop  offset="0.9398" style="stop-color:#93CA66"/>
		<stop  offset="0.9915" style="stop-color:#89C763"/>
		<stop  offset="1" style="stop-color:#87C764"/>
	</radialGradient>
	<path id="M_P_path1" fill="url(#M_P_path1_1_)" stroke="#020202" d="M161.477,78.844c0,5.786-13.48,10.478-30.098,10.478
		c-16.619,0-30.094-4.689-30.094-10.478c0-5.789,13.475-10.476,30.094-10.476C147.997,68.37,161.477,73.057,161.477,78.844z"/>
	<g>
		<path fill="#010101" d="M106.739,78.456c0-0.742-0.025-1.343-0.049-1.895h0.936l0.061,0.995h0.023
			c0.42-0.707,1.115-1.115,2.062-1.115c1.416,0,2.471,1.188,2.471,2.938c0,2.086-1.283,3.117-2.648,3.117
			c-0.77,0-1.439-0.336-1.787-0.91h-0.025v3.154h-1.043V78.456L106.739,78.456z M107.782,80.003c0,0.156,0.012,0.301,0.049,0.433
			c0.191,0.731,0.828,1.235,1.582,1.235c1.117,0,1.764-0.912,1.764-2.243c0-1.151-0.611-2.146-1.727-2.146
			c-0.721,0-1.404,0.505-1.596,1.296c-0.035,0.131-0.072,0.287-0.072,0.42V80.003z"/>
		<path fill="#010101" d="M114.155,79.655c0.023,1.428,0.922,2.016,1.99,2.016c0.756,0,1.223-0.131,1.607-0.299l0.191,0.754
			c-0.371,0.168-1.018,0.373-1.943,0.373c-1.787,0-2.854-1.188-2.854-2.938s1.033-3.118,2.723-3.118c1.908,0,2.4,1.655,2.4,2.723
			c0,0.217-0.012,0.373-0.037,0.492h-4.078V79.655z M117.249,78.9c0.012-0.659-0.275-1.703-1.463-1.703
			c-1.08,0-1.535,0.972-1.619,1.703H117.249z"/>
		<path fill="#010101" d="M119.579,78.372c0-0.684-0.012-1.271-0.049-1.811h0.924l0.047,1.15h0.037
			c0.264-0.778,0.912-1.271,1.619-1.271c0.107,0,0.191,0.013,0.287,0.024v0.994c-0.107-0.023-0.215-0.023-0.359-0.023
			c-0.744,0-1.271,0.552-1.416,1.344c-0.023,0.145-0.035,0.324-0.035,0.491v3.095h-1.057v-3.994H119.579z"/>
		<path fill="#010101" d="M126.045,78.132c0-0.611-0.023-1.092-0.047-1.57h0.922l0.049,0.947h0.035
			c0.324-0.553,0.865-1.067,1.836-1.067c0.779,0,1.379,0.479,1.631,1.163h0.023c0.182-0.336,0.42-0.575,0.66-0.755
			c0.348-0.265,0.719-0.408,1.271-0.408c0.779,0,1.92,0.504,1.92,2.519v3.406h-1.031v-3.273c0-1.127-0.42-1.787-1.26-1.787
			c-0.611,0-1.066,0.443-1.26,0.947c-0.047,0.156-0.084,0.336-0.084,0.527v3.586h-1.029v-3.479c0-0.924-0.408-1.583-1.211-1.583
			c-0.648,0-1.141,0.528-1.309,1.056c-0.061,0.145-0.084,0.336-0.084,0.516v3.49h-1.031v-4.234H126.045z"/>
		<path fill="#010101" d="M136.09,74.391c0.527-0.097,1.295-0.168,2.004-0.168c1.113,0,1.846,0.216,2.338,0.659
			c0.395,0.359,0.635,0.912,0.635,1.548c0,1.056-0.67,1.763-1.51,2.051v0.036c0.611,0.216,0.982,0.791,1.174,1.631
			c0.264,1.127,0.457,1.907,0.625,2.219h-1.08c-0.133-0.24-0.312-0.924-0.529-1.931c-0.238-1.115-0.684-1.535-1.631-1.571h-0.982
			v3.502h-1.043V74.391z M137.133,78.072h1.066c1.115,0,1.824-0.61,1.824-1.534c0-1.043-0.756-1.5-1.859-1.5
			c-0.504,0-0.852,0.037-1.031,0.084V78.072z"/>
		<path fill="#010101" d="M142.545,82.366v-8.084h1.152l2.578,4.09c0.588,0.948,1.068,1.801,1.439,2.627l0.035-0.012
			c-0.096-1.08-0.119-2.062-0.119-3.322v-3.383h0.982v8.084h-1.055l-2.566-4.102c-0.562-0.898-1.104-1.823-1.5-2.698l-0.035,0.013
			c0.061,1.02,0.072,1.99,0.072,3.334v3.453H142.545L142.545,82.366z"/>
		<path fill="#010101" d="M151.749,79.823l-0.838,2.543h-1.08l2.758-8.084h1.248l2.758,8.084h-1.115l-0.863-2.543H151.749z
			 M154.413,79.007l-0.805-2.325c-0.18-0.528-0.299-1.009-0.418-1.476h-0.025c-0.119,0.467-0.238,0.972-0.406,1.463l-0.793,2.338
			H154.413z"/>
	</g>
</g>
<g>
	<g>
		<path fill="none" stroke="#231F20" d="M36.875,214.935c0,0,2.304-6.018,5.12-13.371c2.816-7.354,7.532-7.067,10.48,0.638
			l2.979,7.789c2.948,7.705,7.799,7.716,10.778,0.022l3.119-8.052c2.979-7.693,7.778-7.663,10.663,0.065l2.957,7.921
			c2.885,7.729,7.645,7.743,10.577,0.032l3.036-7.985c2.933-7.711,7.655-7.872,10.494-0.357s5.162,13.663,5.162,13.663"/>
	</g>
	<g>
		<path fill="none" stroke="#231F20" d="M110.975,197.021c0,0-2.209,6.021-4.908,13.38c-2.7,7.359-7.321,7.075-10.27-0.63
			l-2.979-7.788c-2.948-7.705-7.799-7.716-10.778-0.022l-3.119,8.052c-2.979,7.693-7.778,7.663-10.663-0.065l-2.957-7.921
			c-2.885-7.729-7.645-7.743-10.577-0.032l-3.037,7.985c-2.933,7.711-7.607,7.909-10.388,0.439c-2.78-7.469-5.056-13.58-5.056-13.58
			"/>
	</g>
</g>
<g>
	<path fill="#010101" d="M121.898,202.832c0.636-0.107,1.392-0.18,2.219-0.18c1.5,0,2.567,0.359,3.274,1.008
		c0.731,0.659,1.151,1.595,1.151,2.902c0,1.319-0.42,2.398-1.163,3.142c-0.768,0.756-2.015,1.164-3.586,1.164
		c-0.756,0-1.367-0.036-1.896-0.097V202.832z M122.942,209.98c0.264,0.036,0.647,0.048,1.056,0.048c2.242,0,3.441-1.247,3.441-3.43
		c0.013-1.907-1.067-3.119-3.273-3.119c-0.54,0-0.948,0.049-1.224,0.108V209.98z"/>
	<path fill="#010101" d="M129.89,210.796v-8.084h1.151l2.579,4.09c0.588,0.948,1.067,1.8,1.439,2.627l0.035-0.012
		c-0.096-1.08-0.119-2.063-0.119-3.322v-3.383h0.983v8.084h-1.056l-2.566-4.102c-0.563-0.899-1.104-1.823-1.499-2.698l-0.036,0.012
		c0.06,1.02,0.071,1.991,0.071,3.334v3.454H129.89z"/>
	<path fill="#010101" d="M139.093,208.253l-0.84,2.543h-1.079l2.759-8.084h1.247l2.759,8.084h-1.116l-0.863-2.543H139.093z
		 M141.755,207.438l-0.803-2.326c-0.181-0.528-0.3-1.008-0.42-1.476h-0.024c-0.12,0.468-0.239,0.972-0.407,1.463l-0.792,2.339
		H141.755z"/>
</g>
<g>
	
		<radialGradient id="path16609_1_" cx="168.623" cy="-359.3291" r="16.186" gradientTransform="matrix(1.5933 0 0 0.6358 -81.8746 396.1371)" gradientUnits="userSpaceOnUse">
		<stop  offset="0" style="stop-color:#C1DA68"/>
		<stop  offset="0.4082" style="stop-color:#C1DA68"/>
		<stop  offset="0.5552" style="stop-color:#BCD767"/>
		<stop  offset="0.66" style="stop-color:#B8D665"/>
		<stop  offset="0.7448" style="stop-color:#B0D465"/>
		<stop  offset="0.8174" style="stop-color:#A8D066"/>
		<stop  offset="0.8817" style="stop-color:#9CCC67"/>
		<stop  offset="0.9398" style="stop-color:#92CA65"/>
		<stop  offset="0.9915" style="stop-color:#89C663"/>
		<stop  offset="1" style="stop-color:#87C564"/>
	</radialGradient>
	<path id="path16609_4_" fill="url(#path16609_1_)" stroke="#010101" d="M212.108,167.675c0,5.786-11.338,10.478-25.315,10.478
		c-13.981,0-25.315-4.689-25.315-10.478s11.334-10.476,25.315-10.476C200.77,157.2,212.108,161.888,212.108,167.675z"/>
	<g>
		<path fill="#010101" d="M178.332,163.211c0.503-0.084,1.163-0.156,2.003-0.156c1.031,0,1.787,0.24,2.267,0.672
			c0.432,0.384,0.708,0.972,0.708,1.69c0,0.732-0.216,1.308-0.624,1.728c-0.564,0.588-1.451,0.888-2.471,0.888
			c-0.312,0-0.6-0.013-0.839-0.072v3.238h-1.043V163.211z M179.375,167.108c0.228,0.061,0.516,0.084,0.863,0.084
			c1.259,0,2.027-0.624,2.027-1.715c0-1.079-0.768-1.596-1.907-1.596c-0.456,0-0.804,0.036-0.983,0.084V167.108z"/>
		<path fill="#010101" d="M188.889,167.408h-3.13v2.914h3.502v0.876h-4.558v-8.084h4.378v0.876h-3.322v2.555h3.13V167.408z"/>
		<path fill="#010101" d="M190.62,163.223c0.528-0.096,1.295-0.168,2.003-0.168c1.115,0,1.847,0.216,2.338,0.659
			c0.396,0.36,0.636,0.912,0.636,1.548c0,1.056-0.671,1.763-1.511,2.051v0.036c0.612,0.216,0.983,0.791,1.175,1.631
			c0.264,1.127,0.456,1.907,0.624,2.219h-1.08c-0.132-0.24-0.312-0.924-0.528-1.931c-0.24-1.115-0.684-1.535-1.631-1.571h-0.983
			v3.502h-1.043V163.223z M191.664,166.904h1.067c1.115,0,1.823-0.611,1.823-1.535c0-1.043-0.755-1.499-1.859-1.499
			c-0.504,0-0.852,0.036-1.031,0.084V166.904z"/>
	</g>
</g>
<g>
	
		<radialGradient id="path16609_2_" cx="168.623" cy="-244.811" r="16.1858" gradientTransform="matrix(1.5933 0 0 0.6358 -81.8746 396.1371)" gradientUnits="userSpaceOnUse">
		<stop  offset="0" style="stop-color:#C1DA68"/>
		<stop  offset="0.4082" style="stop-color:#C1DA68"/>
		<stop  offset="0.5552" style="stop-color:#BCD767"/>
		<stop  offset="0.66" style="stop-color:#B8D665"/>
		<stop  offset="0.7448" style="stop-color:#B0D465"/>
		<stop  offset="0.8174" style="stop-color:#A8D066"/>
		<stop  offset="0.8817" style="stop-color:#9CCC67"/>
		<stop  offset="0.9398" style="stop-color:#92CA65"/>
		<stop  offset="0.9915" style="stop-color:#89C663"/>
		<stop  offset="1" style="stop-color:#87C564"/>
	</radialGradient>
	<path id="path16609_5_" fill="url(#path16609_2_)" stroke="#010101" d="M212.108,240.485c0,5.786-11.338,10.478-25.316,10.478
		c-13.98,0-25.314-4.689-25.314-10.478s11.334-10.476,25.314-10.476C200.77,230.011,212.108,234.698,212.108,240.485z"/>
	<g>
		<path fill="#010101" d="M180.005,236.812h-2.459v-0.888h5.985v0.888h-2.471v7.196h-1.055V236.812z"/>
		<path fill="#010101" d="M185.477,235.925v8.084h-1.056v-8.084H185.477z"/>
		<path fill="#010101" d="M194.114,240.459c-0.06-1.128-0.132-2.495-0.132-3.49h-0.024c-0.288,0.936-0.612,1.955-1.02,3.07
			l-1.427,3.922h-0.792l-1.319-3.85c-0.384-1.151-0.695-2.184-0.923-3.143h-0.024c-0.024,1.008-0.084,2.351-0.156,3.574
			l-0.216,3.466h-0.995l0.563-8.084h1.332l1.379,3.91c0.336,0.995,0.6,1.883,0.815,2.723h0.024c0.216-0.815,0.503-1.703,0.863-2.723
			l1.439-3.91h1.331l0.504,8.084h-1.032L194.114,240.459z"/>
	</g>
</g>
<g>
	
		<radialGradient id="path16609_3_" cx="168.623" cy="-325.8481" r="16.1858" gradientTransform="matrix(1.5933 0 0 0.6358 -81.8746 396.1371)" gradientUnits="userSpaceOnUse">
		<stop  offset="0" style="stop-color:#C1DA68"/>
		<stop  offset="0.4082" style="stop-color:#C1DA68"/>
		<stop  offset="0.5552" style="stop-color:#BCD767"/>
		<stop  offset="0.66" style="stop-color:#B8D665"/>
		<stop  offset="0.7448" style="stop-color:#B0D465"/>
		<stop  offset="0.8174" style="stop-color:#A8D066"/>
		<stop  offset="0.8817" style="stop-color:#9CCC67"/>
		<stop  offset="0.9398" style="stop-color:#92CA65"/>
		<stop  offset="0.9915" style="stop-color:#89C663"/>
		<stop  offset="1" style="stop-color:#87C564"/>
	</radialGradient>
	<path id="path16609_7_" fill="url(#path16609_3_)" stroke="#010101" d="M212.108,188.962c0,5.786-11.338,10.478-25.315,10.478
		c-13.981,0-25.315-4.689-25.315-10.478s11.334-10.476,25.315-10.476C200.77,178.487,212.108,183.175,212.108,188.962z"/>
	<g>
		<path fill="#010101" d="M178.332,184.498c0.503-0.084,1.163-0.156,2.003-0.156c1.031,0,1.787,0.24,2.267,0.672
			c0.432,0.384,0.708,0.972,0.708,1.69c0,0.732-0.216,1.308-0.624,1.728c-0.564,0.588-1.451,0.888-2.471,0.888
			c-0.312,0-0.6-0.013-0.839-0.072v3.238h-1.043V184.498z M179.375,188.396c0.228,0.061,0.516,0.084,0.863,0.084
			c1.259,0,2.027-0.624,2.027-1.715c0-1.079-0.768-1.596-1.907-1.596c-0.456,0-0.804,0.036-0.983,0.084V188.396z"/>
		<path fill="#010101" d="M188.889,188.695h-3.13v2.914h3.502v0.876h-4.558v-8.084h4.378v0.876h-3.322v2.555h3.13V188.695z"/>
		<path fill="#010101" d="M190.62,184.51c0.528-0.096,1.295-0.168,2.003-0.168c1.115,0,1.847,0.216,2.338,0.659
			c0.396,0.36,0.636,0.912,0.636,1.548c0,1.056-0.671,1.763-1.511,2.051v0.036c0.612,0.216,0.983,0.791,1.175,1.631
			c0.264,1.127,0.456,1.907,0.624,2.219h-1.08c-0.132-0.24-0.312-0.924-0.528-1.931c-0.24-1.115-0.684-1.535-1.631-1.571h-0.983
			v3.502h-1.043V184.51z M191.664,188.191h1.067c1.115,0,1.823-0.611,1.823-1.535c0-1.043-0.755-1.499-1.859-1.499
			c-0.504,0-0.852,0.036-1.031,0.084V188.191z"/>
	</g>
</g>
<g>
	
		<radialGradient id="path16609_6_" cx="210.769" cy="-116.9917" r="16.1855" gradientTransform="matrix(1.5933 0 0 0.6358 -81.8746 396.1371)" gradientUnits="userSpaceOnUse">
		<stop  offset="0" style="stop-color:#C1DA68"/>
		<stop  offset="0.4082" style="stop-color:#C1DA68"/>
		<stop  offset="0.5552" style="stop-color:#BCD767"/>
		<stop  offset="0.66" style="stop-color:#B8D665"/>
		<stop  offset="0.7448" style="stop-color:#B0D465"/>
		<stop  offset="0.8174" style="stop-color:#A8D066"/>
		<stop  offset="0.8817" style="stop-color:#9CCC67"/>
		<stop  offset="0.9398" style="stop-color:#92CA65"/>
		<stop  offset="0.9915" style="stop-color:#89C663"/>
		<stop  offset="1" style="stop-color:#87C564"/>
	</radialGradient>
	<path id="path16609_8_" fill="url(#path16609_6_)" stroke="#010101" d="M279.259,321.753c0,5.786-11.338,10.478-25.316,10.478
		c-13.98,0-25.314-4.689-25.314-10.478s11.334-10.476,25.314-10.476C267.921,311.278,279.259,315.966,279.259,321.753z"/>
	<g>
		<path fill="#010101" d="M247.156,318.08h-2.459v-0.888h5.985v0.888h-2.471v7.196h-1.055V318.08z"/>
		<path fill="#010101" d="M252.628,317.192v8.084h-1.056v-8.084H252.628z"/>
		<path fill="#010101" d="M261.265,321.727c-0.06-1.128-0.132-2.495-0.132-3.49h-0.024c-0.288,0.936-0.612,1.955-1.02,3.07
			l-1.427,3.922h-0.792l-1.319-3.85c-0.384-1.151-0.695-2.184-0.923-3.143h-0.024c-0.024,1.008-0.084,2.351-0.156,3.574
			l-0.216,3.466h-0.995l0.563-8.084h1.332l1.379,3.91c0.336,0.995,0.6,1.883,0.815,2.723h0.024c0.216-0.815,0.503-1.703,0.863-2.723
			l1.439-3.91h1.331l0.504,8.084h-1.032L261.265,321.727z"/>
	</g>
</g>
<g>
	<path fill="#010101" d="M181.808,361.631c0.636-0.107,1.392-0.18,2.219-0.18c1.5,0,2.567,0.359,3.274,1.008
		c0.731,0.659,1.151,1.595,1.151,2.902c0,1.319-0.42,2.398-1.163,3.142c-0.768,0.756-2.015,1.164-3.586,1.164
		c-0.756,0-1.367-0.036-1.896-0.097V361.631z M182.852,368.779c0.264,0.036,0.647,0.048,1.056,0.048c2.242,0,3.441-1.247,3.441-3.43
		c0.013-1.907-1.067-3.119-3.273-3.119c-0.54,0-0.948,0.049-1.224,0.108V368.779z"/>
	<path fill="#010101" d="M190.4,366.884c0.024,1.428,0.924,2.016,1.991,2.016c0.756,0,1.224-0.132,1.607-0.3l0.191,0.755
		c-0.372,0.168-1.02,0.372-1.942,0.372c-1.787,0-2.854-1.188-2.854-2.938s1.031-3.118,2.723-3.118c1.906,0,2.398,1.655,2.398,2.723
		c0,0.216-0.012,0.372-0.036,0.491H190.4z M193.495,366.129c0.012-0.66-0.276-1.703-1.463-1.703c-1.08,0-1.535,0.972-1.619,1.703
		H193.495z"/>
	<path fill="#010101" d="M200.79,368.743c0,1.344-0.275,2.146-0.827,2.662c-0.576,0.517-1.392,0.696-2.123,0.696
		c-0.696,0-1.464-0.168-1.931-0.479l0.264-0.816c0.384,0.252,0.983,0.468,1.703,0.468c1.079,0,1.871-0.563,1.871-2.038V368.6h-0.024
		c-0.312,0.539-0.947,0.971-1.847,0.971c-1.439,0-2.471-1.223-2.471-2.83c0-1.967,1.283-3.07,2.626-3.07
		c1.008,0,1.548,0.516,1.812,0.995h0.023l0.036-0.875h0.936c-0.036,0.407-0.048,0.888-0.048,1.583V368.743z M199.734,366.081
		c0-0.181-0.012-0.336-0.06-0.468c-0.192-0.624-0.695-1.128-1.476-1.128c-1.007,0-1.727,0.852-1.727,2.195
		c0,1.139,0.587,2.087,1.715,2.087c0.659,0,1.247-0.408,1.463-1.08c0.061-0.18,0.084-0.384,0.084-0.563V366.081z"/>
	<path fill="#010101" d="M202.46,365.601c0-0.684-0.013-1.271-0.049-1.811h0.924l0.048,1.151h0.036
		c0.264-0.779,0.911-1.271,1.619-1.271c0.108,0,0.192,0.012,0.288,0.024v0.995c-0.108-0.024-0.216-0.024-0.36-0.024
		c-0.743,0-1.271,0.552-1.415,1.344c-0.023,0.144-0.036,0.324-0.036,0.491v3.095h-1.055V365.601z"/>
	<path fill="#010101" d="M210.402,368.203c0,0.504,0.024,0.996,0.084,1.392h-0.947l-0.084-0.731h-0.036
		c-0.324,0.456-0.947,0.863-1.775,0.863c-1.175,0-1.774-0.827-1.774-1.667c0-1.403,1.247-2.171,3.49-2.159v-0.119
		c0-0.468-0.132-1.344-1.319-1.332c-0.552,0-1.115,0.156-1.523,0.432l-0.24-0.707c0.48-0.3,1.188-0.504,1.919-0.504
		c1.775,0,2.207,1.211,2.207,2.362V368.203z M209.382,366.633c-1.151-0.024-2.458,0.18-2.458,1.307c0,0.696,0.455,1.008,0.983,1.008
		c0.768,0,1.259-0.479,1.427-0.972c0.036-0.12,0.048-0.24,0.048-0.336V366.633z"/>
	<path fill="#010101" d="M217.11,361.079v7.017c0,0.516,0.023,1.104,0.048,1.499h-0.936l-0.048-1.008h-0.036
		c-0.312,0.648-1.008,1.14-1.955,1.14c-1.403,0-2.494-1.188-2.494-2.95c-0.013-1.931,1.199-3.106,2.603-3.106
		c0.899,0,1.487,0.42,1.751,0.876h0.023v-3.467H217.11z M216.066,366.152c0-0.132-0.012-0.312-0.048-0.443
		c-0.155-0.66-0.731-1.212-1.523-1.212c-1.091,0-1.738,0.96-1.738,2.231c0,1.175,0.588,2.146,1.715,2.146
		c0.708,0,1.355-0.479,1.547-1.259c0.036-0.145,0.048-0.288,0.048-0.456V366.152z"/>
	<path fill="#010101" d="M222.954,368.203c0,0.504,0.024,0.996,0.084,1.392h-0.947l-0.084-0.731h-0.036
		c-0.323,0.456-0.947,0.863-1.775,0.863c-1.175,0-1.774-0.827-1.774-1.667c0-1.403,1.247-2.171,3.49-2.159v-0.119
		c0-0.468-0.132-1.344-1.319-1.332c-0.552,0-1.115,0.156-1.523,0.432l-0.24-0.707c0.48-0.3,1.188-0.504,1.919-0.504
		c1.775,0,2.207,1.211,2.207,2.362V368.203z M221.934,366.633c-1.151-0.024-2.458,0.18-2.458,1.307c0,0.696,0.455,1.008,0.983,1.008
		c0.768,0,1.259-0.479,1.427-0.972c0.036-0.12,0.048-0.24,0.048-0.336V366.633z"/>
	<path fill="#010101" d="M225.883,362.398v1.392h1.512v0.804h-1.512v3.13c0,0.72,0.204,1.128,0.792,1.128
		c0.288,0,0.456-0.024,0.611-0.072l0.048,0.804c-0.203,0.071-0.527,0.144-0.936,0.144c-0.491,0-0.887-0.168-1.139-0.443
		c-0.288-0.324-0.408-0.84-0.408-1.523v-3.166h-0.899v-0.804h0.899v-1.079L225.883,362.398z"/>
	<path fill="#010101" d="M229.759,362.159c0,0.359-0.252,0.647-0.672,0.647c-0.384,0-0.636-0.288-0.636-0.647
		c0-0.36,0.265-0.66,0.66-0.66C229.496,361.499,229.759,361.787,229.759,362.159z M228.584,369.595v-5.805h1.055v5.805H228.584z"/>
	<path fill="#010101" d="M236.645,366.645c0,2.146-1.499,3.082-2.891,3.082c-1.56,0-2.782-1.151-2.782-2.986
		c0-1.931,1.283-3.07,2.878-3.07C235.517,363.67,236.645,364.881,236.645,366.645z M232.051,366.704c0,1.271,0.72,2.231,1.751,2.231
		c1.008,0,1.763-0.948,1.763-2.255c0-0.983-0.491-2.219-1.738-2.219C232.591,364.462,232.051,365.613,232.051,366.704z"/>
	<path fill="#010101" d="M237.98,365.361c0-0.612-0.013-1.092-0.049-1.571h0.936l0.061,0.959h0.023
		c0.288-0.539,0.96-1.079,1.919-1.079c0.804,0,2.051,0.479,2.051,2.471v3.454h-1.055v-3.346c0-0.936-0.348-1.716-1.344-1.716
		c-0.684,0-1.224,0.492-1.415,1.08c-0.048,0.132-0.072,0.312-0.072,0.491v3.49h-1.055V365.361z"/>
</g>
<g>
	<g>
		<g>
			<line fill="none" stroke="#010101" x1="161.829" y1="77.17" x2="222.247" y2="77.17"/>
			<polygon fill="#010101" points="219.438,80.873 221.01,77.17 219.438,73.466 228.215,77.17 			"/>
		</g>
	</g>
	<g>
		<g>
			<path fill="none" stroke="#010101" d="M183.606,77.17c28.209,0,28.209-28.622,28.209-28.622"/>
			<polygon fill="#010101" points="215.518,51.356 211.815,49.784 208.111,51.356 211.815,42.579 			"/>
		</g>
	</g>
</g>
<g>
	
		<radialGradient id="path16609_19_" cx="210.769" cy="-499.0444" r="16.1855" gradientTransform="matrix(1.5933 0 0 0.6358 -81.8746 396.1371)" gradientUnits="userSpaceOnUse">
		<stop  offset="0" style="stop-color:#C1DA68"/>
		<stop  offset="0.4082" style="stop-color:#C1DA68"/>
		<stop  offset="0.5552" style="stop-color:#BCD767"/>
		<stop  offset="0.66" style="stop-color:#B8D665"/>
		<stop  offset="0.7448" style="stop-color:#B0D465"/>
		<stop  offset="0.8174" style="stop-color:#A8D066"/>
		<stop  offset="0.8817" style="stop-color:#9CCC67"/>
		<stop  offset="0.9398" style="stop-color:#92CA65"/>
		<stop  offset="0.9915" style="stop-color:#89C663"/>
		<stop  offset="1" style="stop-color:#87C564"/>
	</radialGradient>
	<path id="path16609_9_" fill="url(#path16609_19_)" stroke="#010101" d="M279.259,78.844c0,5.786-11.338,10.478-25.315,10.478
		c-13.981,0-25.315-4.689-25.315-10.478s11.334-10.476,25.315-10.476C267.921,68.369,279.259,73.057,279.259,78.844z"/>
	<g>
		<path fill="#010101" d="M245.483,74.38c0.503-0.084,1.163-0.156,2.003-0.156c1.031,0,1.787,0.24,2.267,0.672
			c0.432,0.384,0.708,0.972,0.708,1.69c0,0.732-0.216,1.308-0.624,1.728c-0.564,0.588-1.451,0.888-2.471,0.888
			c-0.312,0-0.6-0.013-0.839-0.072v3.238h-1.043V74.38z M246.527,78.277c0.228,0.061,0.516,0.084,0.863,0.084
			c1.259,0,2.027-0.624,2.027-1.715c0-1.079-0.768-1.596-1.907-1.596c-0.456,0-0.804,0.036-0.983,0.084V78.277z"/>
		<path fill="#010101" d="M256.041,78.577h-3.13v2.914h3.502v0.876h-4.558v-8.084h4.378v0.876h-3.322v2.555h3.13V78.577z"/>
		<path fill="#010101" d="M257.771,74.392c0.528-0.096,1.295-0.168,2.003-0.168c1.115,0,1.847,0.216,2.338,0.659
			c0.396,0.36,0.636,0.912,0.636,1.548c0,1.056-0.671,1.763-1.511,2.051v0.036c0.612,0.216,0.983,0.791,1.175,1.631
			c0.264,1.127,0.456,1.907,0.624,2.219h-1.08c-0.132-0.24-0.312-0.924-0.528-1.931c-0.24-1.115-0.684-1.535-1.631-1.571h-0.983
			v3.502h-1.043V74.392z M258.815,78.073h1.067c1.115,0,1.823-0.611,1.823-1.535c0-1.043-0.755-1.499-1.859-1.499
			c-0.504,0-0.852,0.036-1.031,0.084V78.073z"/>
	</g>
</g>
<g>
	<g>
		<path fill="none" stroke="#010101" d="M278.827,321.591c28.209,0,28.209,28.622,28.209,28.622"/>
		<polygon fill="#010101" points="303.333,347.404 307.036,348.978 310.741,347.404 307.036,356.183 		"/>
	</g>
</g>
<g>
	<g>
		<path fill="none" stroke="#010101" d="M278.827,321.856c28.209,0,37.457-91.035,37.457-91.035"/>
		<polygon fill="#010101" points="319.685,233.989 316.159,232.051 312.315,233.241 316.888,224.883 		"/>
	</g>
</g>
<g>
	<path fill="#010101" d="M280.464,361.631c0.637-0.107,1.393-0.18,2.219-0.18c1.5,0,2.568,0.359,3.275,1.008
		c0.73,0.659,1.15,1.595,1.15,2.902c0,1.319-0.42,2.398-1.162,3.142c-0.768,0.756-2.016,1.164-3.586,1.164
		c-0.756,0-1.367-0.036-1.896-0.097V361.631z M281.509,368.779c0.264,0.036,0.646,0.048,1.055,0.048c2.242,0,3.441-1.247,3.441-3.43
		c0.014-1.907-1.066-3.119-3.273-3.119c-0.539,0-0.947,0.049-1.223,0.108V368.779z"/>
	<path fill="#010101" d="M289.056,366.884c0.025,1.428,0.924,2.016,1.992,2.016c0.756,0,1.223-0.132,1.607-0.3l0.191,0.755
		c-0.373,0.168-1.02,0.372-1.943,0.372c-1.787,0-2.854-1.188-2.854-2.938s1.031-3.118,2.723-3.118c1.906,0,2.398,1.655,2.398,2.723
		c0,0.216-0.012,0.372-0.037,0.491H289.056z M292.151,366.129c0.012-0.66-0.277-1.703-1.463-1.703c-1.08,0-1.535,0.972-1.619,1.703
		H292.151z"/>
	<path fill="#010101" d="M299.446,368.743c0,1.344-0.275,2.146-0.828,2.662c-0.576,0.517-1.391,0.696-2.123,0.696
		c-0.695,0-1.463-0.168-1.93-0.479l0.264-0.816c0.383,0.252,0.982,0.468,1.703,0.468c1.078,0,1.871-0.563,1.871-2.038V368.6h-0.025
		c-0.311,0.539-0.947,0.971-1.846,0.971c-1.439,0-2.471-1.223-2.471-2.83c0-1.967,1.283-3.07,2.625-3.07
		c1.008,0,1.549,0.516,1.812,0.995h0.023l0.035-0.875h0.936c-0.035,0.407-0.047,0.888-0.047,1.583V368.743z M298.39,366.081
		c0-0.181-0.012-0.336-0.059-0.468c-0.193-0.624-0.695-1.128-1.477-1.128c-1.006,0-1.727,0.852-1.727,2.195
		c0,1.139,0.588,2.087,1.715,2.087c0.66,0,1.248-0.408,1.463-1.08c0.061-0.18,0.084-0.384,0.084-0.563V366.081z"/>
	<path fill="#010101" d="M301.116,365.601c0-0.684-0.012-1.271-0.049-1.811h0.924l0.049,1.151h0.035
		c0.264-0.779,0.912-1.271,1.619-1.271c0.109,0,0.193,0.012,0.289,0.024v0.995c-0.109-0.024-0.217-0.024-0.361-0.024
		c-0.742,0-1.27,0.552-1.414,1.344c-0.023,0.144-0.037,0.324-0.037,0.491v3.095h-1.055V365.601z"/>
	<path fill="#010101" d="M309.058,368.203c0,0.504,0.025,0.996,0.084,1.392h-0.947l-0.084-0.731h-0.035
		c-0.324,0.456-0.947,0.863-1.775,0.863c-1.176,0-1.775-0.827-1.775-1.667c0-1.403,1.248-2.171,3.49-2.159v-0.119
		c0-0.468-0.131-1.344-1.318-1.332c-0.553,0-1.115,0.156-1.523,0.432l-0.24-0.707c0.48-0.3,1.188-0.504,1.918-0.504
		c1.775,0,2.207,1.211,2.207,2.362V368.203z M308.038,366.633c-1.15-0.024-2.457,0.18-2.457,1.307c0,0.696,0.455,1.008,0.982,1.008
		c0.768,0,1.26-0.479,1.428-0.972c0.035-0.12,0.047-0.24,0.047-0.336V366.633z"/>
	<path fill="#010101" d="M315.767,361.079v7.017c0,0.516,0.023,1.104,0.047,1.499h-0.936l-0.047-1.008h-0.037
		c-0.311,0.648-1.008,1.14-1.955,1.14c-1.402,0-2.494-1.188-2.494-2.95c-0.012-1.931,1.199-3.106,2.604-3.106
		c0.898,0,1.486,0.42,1.75,0.876h0.023v-3.467H315.767z M314.722,366.152c0-0.132-0.012-0.312-0.047-0.443
		c-0.156-0.66-0.732-1.212-1.523-1.212c-1.092,0-1.738,0.96-1.738,2.231c0,1.175,0.588,2.146,1.715,2.146
		c0.707,0,1.355-0.479,1.547-1.259c0.035-0.145,0.047-0.288,0.047-0.456V366.152z"/>
	<path fill="#010101" d="M321.61,368.203c0,0.504,0.023,0.996,0.084,1.392h-0.947l-0.084-0.731h-0.037
		c-0.322,0.456-0.947,0.863-1.775,0.863c-1.174,0-1.773-0.827-1.773-1.667c0-1.403,1.246-2.171,3.49-2.159v-0.119
		c0-0.468-0.133-1.344-1.32-1.332c-0.551,0-1.115,0.156-1.523,0.432l-0.24-0.707c0.48-0.3,1.188-0.504,1.92-0.504
		c1.775,0,2.207,1.211,2.207,2.362V368.203z M320.591,366.633c-1.152-0.024-2.459,0.18-2.459,1.307c0,0.696,0.455,1.008,0.984,1.008
		c0.768,0,1.258-0.479,1.426-0.972c0.037-0.12,0.049-0.24,0.049-0.336V366.633z"/>
	<path fill="#010101" d="M324.54,362.398v1.392h1.512v0.804h-1.512v3.13c0,0.72,0.203,1.128,0.791,1.128
		c0.289,0,0.457-0.024,0.611-0.072l0.049,0.804c-0.203,0.071-0.527,0.144-0.936,0.144c-0.492,0-0.887-0.168-1.139-0.443
		c-0.289-0.324-0.408-0.84-0.408-1.523v-3.166h-0.9v-0.804h0.9v-1.079L324.54,362.398z"/>
	<path fill="#010101" d="M328.415,362.159c0,0.359-0.252,0.647-0.672,0.647c-0.383,0-0.635-0.288-0.635-0.647
		c0-0.36,0.264-0.66,0.66-0.66C328.151,361.499,328.415,361.787,328.415,362.159z M327.241,369.595v-5.805h1.055v5.805H327.241z"/>
	<path fill="#010101" d="M335.302,366.645c0,2.146-1.5,3.082-2.891,3.082c-1.561,0-2.783-1.151-2.783-2.986
		c0-1.931,1.283-3.07,2.879-3.07C334.173,363.67,335.302,364.881,335.302,366.645z M330.708,366.704c0,1.271,0.719,2.231,1.75,2.231
		c1.008,0,1.764-0.948,1.764-2.255c0-0.983-0.492-2.219-1.738-2.219C331.247,364.462,330.708,365.613,330.708,366.704z"/>
	<path fill="#010101" d="M336.636,365.361c0-0.612-0.012-1.092-0.049-1.571h0.936l0.061,0.959h0.023
		c0.289-0.539,0.961-1.079,1.92-1.079c0.803,0,2.051,0.479,2.051,2.471v3.454h-1.055v-3.346c0-0.936-0.348-1.716-1.344-1.716
		c-0.684,0-1.225,0.492-1.416,1.08c-0.047,0.132-0.072,0.312-0.072,0.491v3.49h-1.055V365.361z"/>
</g>
<g>
	
		<radialGradient id="path16609_20_" cx="248.7314" cy="-321.3926" r="16.186" gradientTransform="matrix(1.5933 0 0 0.6358 -81.8746 396.1371)" gradientUnits="userSpaceOnUse">
		<stop  offset="0" style="stop-color:#C1DA68"/>
		<stop  offset="0.4082" style="stop-color:#C1DA68"/>
		<stop  offset="0.5552" style="stop-color:#BCD767"/>
		<stop  offset="0.66" style="stop-color:#B8D665"/>
		<stop  offset="0.7448" style="stop-color:#B0D465"/>
		<stop  offset="0.8174" style="stop-color:#A8D066"/>
		<stop  offset="0.8817" style="stop-color:#9CCC67"/>
		<stop  offset="0.9398" style="stop-color:#92CA65"/>
		<stop  offset="0.9915" style="stop-color:#89C663"/>
		<stop  offset="1" style="stop-color:#87C564"/>
	</radialGradient>
	<path id="path16609_11_" fill="url(#path16609_20_)" stroke="#010101" d="M339.745,191.795c0,5.786-11.338,10.478-25.314,10.478
		c-13.982,0-25.316-4.689-25.316-10.478s11.334-10.476,25.316-10.476C328.407,181.32,339.745,186.008,339.745,191.795z"/>
	<g>
		<path fill="#010101" d="M305.97,187.331c0.504-0.084,1.163-0.156,2.003-0.156c1.031,0,1.786,0.24,2.267,0.672
			c0.432,0.384,0.707,0.972,0.707,1.69c0,0.732-0.215,1.308-0.623,1.728c-0.564,0.588-1.451,0.888-2.471,0.888
			c-0.312,0-0.6-0.013-0.84-0.072v3.238h-1.043V187.331z M307.013,191.229c0.229,0.061,0.516,0.084,0.863,0.084
			c1.26,0,2.027-0.624,2.027-1.715c0-1.079-0.768-1.596-1.906-1.596c-0.457,0-0.805,0.036-0.984,0.084V191.229z"/>
		<path fill="#010101" d="M316.526,191.528h-3.129v2.914h3.502v0.876h-4.559v-8.084h4.379v0.876h-3.322v2.555h3.129V191.528z"/>
		<path fill="#010101" d="M318.258,187.343c0.528-0.096,1.296-0.168,2.003-0.168c1.115,0,1.847,0.216,2.338,0.659
			c0.396,0.36,0.637,0.912,0.637,1.548c0,1.056-0.672,1.763-1.512,2.051v0.036c0.611,0.216,0.983,0.791,1.176,1.631
			c0.264,1.127,0.455,1.907,0.623,2.219h-1.079c-0.132-0.24-0.312-0.924-0.528-1.931c-0.239-1.115-0.684-1.535-1.631-1.571h-0.982
			v3.502h-1.044V187.343z M319.302,191.024h1.066c1.115,0,1.823-0.611,1.823-1.535c0-1.043-0.755-1.499-1.858-1.499
			c-0.504,0-0.852,0.036-1.031,0.084V191.024z"/>
	</g>
</g>
<g>
	
		<radialGradient id="path16609_21_" cx="248.7314" cy="-287.9116" r="16.1858" gradientTransform="matrix(1.5933 0 0 0.6358 -81.8746 396.1371)" gradientUnits="userSpaceOnUse">
		<stop  offset="0" style="stop-color:#C1DA68"/>
		<stop  offset="0.4082" style="stop-color:#C1DA68"/>
		<stop  offset="0.5552" style="stop-color:#BCD767"/>
		<stop  offset="0.66" style="stop-color:#B8D665"/>
		<stop  offset="0.7448" style="stop-color:#B0D465"/>
		<stop  offset="0.8174" style="stop-color:#A8D066"/>
		<stop  offset="0.8817" style="stop-color:#9CCC67"/>
		<stop  offset="0.9398" style="stop-color:#92CA65"/>
		<stop  offset="0.9915" style="stop-color:#89C663"/>
		<stop  offset="1" style="stop-color:#87C564"/>
	</radialGradient>
	<path id="path16609_10_" fill="url(#path16609_21_)" stroke="#010101" d="M339.745,213.082c0,5.786-11.338,10.478-25.314,10.478
		c-13.982,0-25.316-4.689-25.316-10.478s11.334-10.476,25.316-10.476C328.407,202.607,339.745,207.295,339.745,213.082z"/>
	<g>
		<path fill="#010101" d="M305.97,208.618c0.504-0.084,1.163-0.156,2.003-0.156c1.031,0,1.786,0.24,2.267,0.672
			c0.432,0.384,0.707,0.972,0.707,1.69c0,0.732-0.215,1.308-0.623,1.728c-0.564,0.588-1.451,0.888-2.471,0.888
			c-0.312,0-0.6-0.013-0.84-0.072v3.238h-1.043V208.618z M307.013,212.516c0.229,0.061,0.516,0.084,0.863,0.084
			c1.26,0,2.027-0.624,2.027-1.715c0-1.079-0.768-1.596-1.906-1.596c-0.457,0-0.805,0.036-0.984,0.084V212.516z"/>
		<path fill="#010101" d="M316.526,212.815h-3.129v2.914h3.502v0.876h-4.559v-8.084h4.379v0.876h-3.322v2.555h3.129V212.815z"/>
		<path fill="#010101" d="M318.258,208.63c0.528-0.096,1.296-0.168,2.003-0.168c1.115,0,1.847,0.216,2.338,0.659
			c0.396,0.36,0.637,0.912,0.637,1.548c0,1.056-0.672,1.763-1.512,2.051v0.036c0.611,0.216,0.983,0.791,1.176,1.631
			c0.264,1.127,0.455,1.907,0.623,2.219h-1.079c-0.132-0.24-0.312-0.924-0.528-1.931c-0.239-1.115-0.684-1.535-1.631-1.571h-0.982
			v3.502h-1.044V208.63z M319.302,212.312h1.066c1.115,0,1.823-0.611,1.823-1.535c0-1.043-0.755-1.499-1.858-1.499
			c-0.504,0-0.852,0.036-1.031,0.084V212.312z"/>
	</g>
</g>
<g>
	
		<radialGradient id="path16609_22_" cx="154.3491" cy="-144.2446" r="16.1863" gradientTransform="matrix(-6.964535e-08 1.5933 -0.6358 -2.779170e-08 187.5568 -43.4839)" gradientUnits="userSpaceOnUse">
		<stop  offset="0" style="stop-color:#C1DA68"/>
		<stop  offset="0.4082" style="stop-color:#C1DA68"/>
		<stop  offset="0.5552" style="stop-color:#BCD767"/>
		<stop  offset="0.66" style="stop-color:#B8D665"/>
		<stop  offset="0.7448" style="stop-color:#B0D465"/>
		<stop  offset="0.8174" style="stop-color:#A8D066"/>
		<stop  offset="0.8817" style="stop-color:#9CCC67"/>
		<stop  offset="0.9398" style="stop-color:#92CA65"/>
		<stop  offset="0.9915" style="stop-color:#89C663"/>
		<stop  offset="1" style="stop-color:#87C564"/>
	</radialGradient>
	<path id="path16609_12_" fill="url(#path16609_22_)" stroke="#010101" d="M279.267,227.755c-5.785,0-10.477-11.338-10.477-25.316
		c0-13.98,4.689-25.314,10.477-25.314c5.789,0,10.477,11.334,10.477,25.314C289.741,216.417,285.054,227.755,279.267,227.755z"/>
	<g>
		<path fill="#010101" d="M282.941,195.651v-2.459h0.888v5.985h-0.888v-2.471h-7.196v-1.055H282.941z"/>
		<path fill="#010101" d="M283.829,201.123h-8.084v-1.055h8.084V201.123z"/>
		<path fill="#010101" d="M279.295,209.76c1.128-0.06,2.495-0.131,3.49-0.131v-0.024c-0.936-0.288-1.955-0.612-3.07-1.02
			l-3.922-1.427v-0.792l3.85-1.319c1.151-0.384,2.184-0.695,3.143-0.924V204.1c-1.008-0.023-2.351-0.084-3.574-0.156l-3.466-0.216
			v-0.995l8.084,0.563v1.331l-3.91,1.379c-0.995,0.336-1.883,0.6-2.723,0.816v0.023c0.815,0.217,1.703,0.504,2.723,0.863l3.91,1.439
			v1.332l-8.084,0.504v-1.032L279.295,209.76z"/>
	</g>
</g>
<g>
	
		<radialGradient id="path16609_23_" cx="153.29" cy="-255.1621" r="16.1858" gradientTransform="matrix(-6.964535e-08 1.5933 -0.6358 -2.779170e-08 187.5568 -43.4839)" gradientUnits="userSpaceOnUse">
		<stop  offset="0" style="stop-color:#C1DA68"/>
		<stop  offset="0.4082" style="stop-color:#C1DA68"/>
		<stop  offset="0.5552" style="stop-color:#BCD767"/>
		<stop  offset="0.66" style="stop-color:#B8D665"/>
		<stop  offset="0.7448" style="stop-color:#B0D465"/>
		<stop  offset="0.8174" style="stop-color:#A8D066"/>
		<stop  offset="0.8817" style="stop-color:#9CCC67"/>
		<stop  offset="0.9398" style="stop-color:#92CA65"/>
		<stop  offset="0.9915" style="stop-color:#89C663"/>
		<stop  offset="1" style="stop-color:#87C564"/>
	</radialGradient>
	<path id="path16609_13_" fill="url(#path16609_23_)" stroke="#010101" d="M349.79,226.067c-5.787,0-10.479-11.338-10.479-25.316
		c0-13.98,4.689-25.314,10.479-25.314c5.787,0,10.475,11.334,10.475,25.314C360.265,214.729,355.577,226.067,349.79,226.067z"/>
	<g>
		<path fill="#010101" d="M353.463,193.964v-2.459h0.888v5.985h-0.888v-2.471h-7.196v-1.055H353.463z"/>
		<path fill="#010101" d="M354.351,199.436h-8.084v-1.055h8.084V199.436z"/>
		<path fill="#010101" d="M349.816,208.072c1.128-0.06,2.495-0.131,3.49-0.131v-0.024c-0.936-0.288-1.955-0.612-3.07-1.02
			l-3.922-1.427v-0.792l3.85-1.319c1.151-0.384,2.184-0.695,3.143-0.924v-0.023c-1.008-0.023-2.351-0.084-3.574-0.156l-3.466-0.216
			v-0.995l8.084,0.563v1.331l-3.91,1.379c-0.995,0.336-1.883,0.6-2.723,0.816v0.023c0.815,0.217,1.703,0.504,2.723,0.863l3.91,1.439
			v1.332l-8.084,0.504v-1.032L349.816,208.072z"/>
	</g>
</g>
<g>
	<g>
		
			<radialGradient id="path16609_24_" cx="277.0205" cy="-432.9893" r="16.186" gradientTransform="matrix(1.5933 0 0 0.6358 -81.8746 396.1371)" gradientUnits="userSpaceOnUse">
			<stop  offset="0" style="stop-color:#C1DA68"/>
			<stop  offset="0.4082" style="stop-color:#C1DA68"/>
			<stop  offset="0.5552" style="stop-color:#BCD767"/>
			<stop  offset="0.66" style="stop-color:#B8D665"/>
			<stop  offset="0.7448" style="stop-color:#B0D465"/>
			<stop  offset="0.8174" style="stop-color:#A8D066"/>
			<stop  offset="0.8817" style="stop-color:#9CCC67"/>
			<stop  offset="0.9398" style="stop-color:#92CA65"/>
			<stop  offset="0.9915" style="stop-color:#89C663"/>
			<stop  offset="1" style="stop-color:#87C564"/>
		</radialGradient>
		<path id="path16609_15_" fill="url(#path16609_24_)" stroke="#010101" d="M384.817,120.842c0,5.786-11.338,10.478-25.316,10.478
			c-13.98,0-25.314-4.689-25.314-10.478s11.334-10.476,25.314-10.476C373.479,110.367,384.817,115.055,384.817,120.842z"/>
		<g>
			<path fill="#010101" d="M351.04,116.378c0.504-0.084,1.164-0.156,2.004-0.156c1.031,0,1.786,0.24,2.266,0.672
				c0.432,0.384,0.708,0.972,0.708,1.69c0,0.732-0.216,1.308-0.624,1.728c-0.563,0.588-1.451,0.888-2.471,0.888
				c-0.312,0-0.6-0.013-0.839-0.072v3.238h-1.044V116.378z M352.084,120.275c0.228,0.061,0.516,0.084,0.863,0.084
				c1.259,0,2.026-0.624,2.026-1.715c0-1.079-0.768-1.596-1.906-1.596c-0.456,0-0.804,0.036-0.983,0.084V120.275z"/>
			<path fill="#010101" d="M361.598,120.575h-3.13v2.914h3.502v0.876h-4.558v-8.084h4.378v0.876h-3.322v2.555h3.13V120.575z"/>
			<path fill="#010101" d="M363.329,116.39c0.527-0.096,1.295-0.168,2.002-0.168c1.115,0,1.848,0.216,2.339,0.659
				c0.396,0.36,0.636,0.912,0.636,1.548c0,1.056-0.672,1.763-1.512,2.051v0.036c0.612,0.216,0.984,0.791,1.176,1.631
				c0.264,1.127,0.456,1.907,0.624,2.219h-1.079c-0.133-0.24-0.312-0.924-0.528-1.931c-0.239-1.115-0.684-1.535-1.631-1.571h-0.983
				v3.502h-1.043V116.39z M364.372,120.071h1.067c1.115,0,1.823-0.611,1.823-1.535c0-1.043-0.756-1.499-1.859-1.499
				c-0.504,0-0.852,0.036-1.031,0.084V120.071z"/>
		</g>
	</g>
	<g>
		
			<radialGradient id="path16609_25_" cx="277.0205" cy="-399.5083" r="16.1858" gradientTransform="matrix(1.5933 0 0 0.6358 -81.8746 396.1371)" gradientUnits="userSpaceOnUse">
			<stop  offset="0" style="stop-color:#C1DA68"/>
			<stop  offset="0.4082" style="stop-color:#C1DA68"/>
			<stop  offset="0.5552" style="stop-color:#BCD767"/>
			<stop  offset="0.66" style="stop-color:#B8D665"/>
			<stop  offset="0.7448" style="stop-color:#B0D465"/>
			<stop  offset="0.8174" style="stop-color:#A8D066"/>
			<stop  offset="0.8817" style="stop-color:#9CCC67"/>
			<stop  offset="0.9398" style="stop-color:#92CA65"/>
			<stop  offset="0.9915" style="stop-color:#89C663"/>
			<stop  offset="1" style="stop-color:#87C564"/>
		</radialGradient>
		<path id="path16609_14_" fill="url(#path16609_25_)" stroke="#010101" d="M384.817,142.129c0,5.786-11.338,10.478-25.316,10.478
			c-13.98,0-25.314-4.689-25.314-10.478s11.334-10.476,25.314-10.476C373.479,131.654,384.817,136.342,384.817,142.129z"/>
		<g>
			<path fill="#010101" d="M351.04,137.665c0.504-0.084,1.164-0.156,2.004-0.156c1.031,0,1.786,0.24,2.266,0.672
				c0.432,0.384,0.708,0.972,0.708,1.69c0,0.732-0.216,1.308-0.624,1.728c-0.563,0.588-1.451,0.888-2.471,0.888
				c-0.312,0-0.6-0.013-0.839-0.072v3.238h-1.044V137.665z M352.084,141.562c0.228,0.061,0.516,0.084,0.863,0.084
				c1.259,0,2.026-0.624,2.026-1.715c0-1.079-0.768-1.596-1.906-1.596c-0.456,0-0.804,0.036-0.983,0.084V141.562z"/>
			<path fill="#010101" d="M361.598,141.862h-3.13v2.914h3.502v0.876h-4.558v-8.084h4.378v0.876h-3.322v2.555h3.13V141.862z"/>
			<path fill="#010101" d="M363.329,137.677c0.527-0.096,1.295-0.168,2.002-0.168c1.115,0,1.848,0.216,2.339,0.659
				c0.396,0.36,0.636,0.912,0.636,1.548c0,1.056-0.672,1.763-1.512,2.051v0.036c0.612,0.216,0.984,0.791,1.176,1.631
				c0.264,1.127,0.456,1.907,0.624,2.219h-1.079c-0.133-0.24-0.312-0.924-0.528-1.931c-0.239-1.115-0.684-1.535-1.631-1.571h-0.983
				v3.502h-1.043V137.677z M364.372,141.358h1.067c1.115,0,1.823-0.611,1.823-1.535c0-1.043-0.756-1.499-1.859-1.499
				c-0.504,0-0.852,0.036-1.031,0.084V141.358z"/>
		</g>
	</g>
</g>
<g>
	<g>
		<path id="path19818" fill="#F5EB0E" stroke="#010101" d="M389.491,78.633c0.121,2.678-1.875,4.942-4.457,5.06
			c-2.58,0.117-4.773-1.958-4.895-4.636c-0.121-2.677,1.875-4.942,4.455-5.06C387.177,73.88,389.37,75.956,389.491,78.633z"/>
		<g enable-background="new    ">
			<path fill="#EC3F94" d="M383.229,75.968c0.319-0.078,0.737-0.145,1.273-0.169c0.658-0.03,1.147,0.107,1.466,0.377
				c0.295,0.241,0.488,0.622,0.51,1.098c0.022,0.483-0.099,0.869-0.354,1.16c-0.334,0.405-0.898,0.628-1.55,0.658
				c-0.198,0.009-0.383,0.009-0.538-0.023l0.098,2.14l-0.666,0.03L383.229,75.968z M384.012,78.505
				c0.147,0.034,0.34,0.041,0.554,0.031c0.812-0.037,1.275-0.471,1.242-1.192c-0.032-0.713-0.53-1.032-1.265-0.999
				c-0.291,0.013-0.512,0.055-0.625,0.084L384.012,78.505z"/>
		</g>
	</g>
	<g>
		
			<radialGradient id="path16609_26_" cx="274.082" cy="-499.0444" r="16.1858" gradientTransform="matrix(1.5933 0 0 0.6358 -81.8746 396.1371)" gradientUnits="userSpaceOnUse">
			<stop  offset="0" style="stop-color:#C1DA68"/>
			<stop  offset="0.4082" style="stop-color:#C1DA68"/>
			<stop  offset="0.5552" style="stop-color:#BCD767"/>
			<stop  offset="0.66" style="stop-color:#B8D665"/>
			<stop  offset="0.7448" style="stop-color:#B0D465"/>
			<stop  offset="0.8174" style="stop-color:#A8D066"/>
			<stop  offset="0.8817" style="stop-color:#9CCC67"/>
			<stop  offset="0.9398" style="stop-color:#92CA65"/>
			<stop  offset="0.9915" style="stop-color:#89C663"/>
			<stop  offset="1" style="stop-color:#87C564"/>
		</radialGradient>
		<path id="path16609_16_" fill="url(#path16609_26_)" stroke="#010101" d="M380.136,78.844c0,5.786-11.338,10.478-25.314,10.478
			c-13.982,0-25.316-4.689-25.316-10.478s11.334-10.476,25.316-10.476C368.798,68.369,380.136,73.057,380.136,78.844z"/>
		<g>
			<path fill="#010101" d="M346.36,74.38c0.504-0.084,1.163-0.156,2.003-0.156c1.031,0,1.786,0.24,2.267,0.672
				c0.432,0.384,0.707,0.972,0.707,1.69c0,0.732-0.215,1.308-0.623,1.728c-0.564,0.588-1.451,0.888-2.471,0.888
				c-0.312,0-0.6-0.013-0.84-0.072v3.238h-1.043V74.38z M347.403,78.277c0.229,0.061,0.516,0.084,0.863,0.084
				c1.26,0,2.027-0.624,2.027-1.715c0-1.079-0.768-1.596-1.906-1.596c-0.457,0-0.805,0.036-0.984,0.084V78.277z"/>
			<path fill="#010101" d="M356.917,78.577h-3.129v2.914h3.502v0.876h-4.559v-8.084h4.379v0.876h-3.322v2.555h3.129V78.577z"/>
			<path fill="#010101" d="M358.648,74.392c0.528-0.096,1.296-0.168,2.003-0.168c1.115,0,1.847,0.216,2.338,0.659
				c0.396,0.36,0.637,0.912,0.637,1.548c0,1.056-0.672,1.763-1.512,2.051v0.036c0.611,0.216,0.983,0.791,1.176,1.631
				c0.264,1.127,0.455,1.907,0.623,2.219h-1.079c-0.132-0.24-0.312-0.924-0.528-1.931c-0.239-1.115-0.684-1.535-1.631-1.571h-0.982
				v3.502h-1.044V74.392z M359.692,78.073h1.066c1.115,0,1.823-0.611,1.823-1.535c0-1.043-0.755-1.499-1.858-1.499
				c-0.504,0-0.852,0.036-1.031,0.084V78.073z"/>
		</g>
	</g>
</g>
<g>
	<g>
		<line fill="none" stroke="#010101" x1="437.497" y1="78.845" x2="389.497" y2="78.845"/>
		<polygon fill="#010101" points="434.688,82.548 436.261,78.845 434.688,75.141 443.466,78.845 		"/>
	</g>
</g>
<g>
	<path fill="#010101" d="M449.948,74.402c0.637-0.107,1.393-0.18,2.219-0.18c1.5,0,2.568,0.359,3.275,1.008
		c0.73,0.659,1.15,1.595,1.15,2.902c0,1.319-0.42,2.398-1.162,3.142c-0.768,0.756-2.016,1.164-3.586,1.164
		c-0.756,0-1.367-0.036-1.896-0.097V74.402z M450.993,81.551c0.264,0.036,0.646,0.048,1.055,0.048c2.242,0,3.441-1.247,3.441-3.43
		c0.014-1.907-1.066-3.119-3.273-3.119c-0.539,0-0.947,0.049-1.223,0.108V81.551z"/>
	<path fill="#010101" d="M458.54,79.655c0.025,1.428,0.924,2.016,1.992,2.016c0.756,0,1.223-0.132,1.607-0.3l0.191,0.755
		c-0.373,0.168-1.02,0.372-1.943,0.372c-1.787,0-2.854-1.188-2.854-2.938s1.031-3.118,2.723-3.118c1.906,0,2.398,1.655,2.398,2.723
		c0,0.216-0.012,0.372-0.037,0.491H458.54z M461.636,78.9c0.012-0.66-0.277-1.703-1.463-1.703c-1.08,0-1.535,0.972-1.619,1.703
		H461.636z"/>
	<path fill="#010101" d="M468.931,81.515c0,1.344-0.275,2.146-0.828,2.662c-0.576,0.517-1.391,0.696-2.123,0.696
		c-0.695,0-1.463-0.168-1.93-0.479l0.264-0.816c0.383,0.252,0.982,0.468,1.703,0.468c1.078,0,1.871-0.563,1.871-2.038v-0.636h-0.025
		c-0.311,0.539-0.947,0.971-1.846,0.971c-1.439,0-2.471-1.223-2.471-2.83c0-1.967,1.283-3.07,2.625-3.07
		c1.008,0,1.549,0.516,1.812,0.995h0.023l0.035-0.875h0.936c-0.035,0.407-0.047,0.888-0.047,1.583V81.515z M467.874,78.853
		c0-0.181-0.012-0.336-0.059-0.468c-0.193-0.624-0.695-1.128-1.477-1.128c-1.006,0-1.727,0.852-1.727,2.195
		c0,1.139,0.588,2.087,1.715,2.087c0.66,0,1.248-0.408,1.463-1.08c0.061-0.18,0.084-0.384,0.084-0.563V78.853z"/>
	<path fill="#010101" d="M470.601,78.372c0-0.684-0.012-1.271-0.049-1.811h0.924l0.049,1.151h0.035
		c0.264-0.779,0.912-1.271,1.619-1.271c0.109,0,0.193,0.012,0.289,0.024v0.995c-0.109-0.024-0.217-0.024-0.361-0.024
		c-0.742,0-1.27,0.552-1.414,1.344c-0.023,0.144-0.037,0.324-0.037,0.491v3.095h-1.055V78.372z"/>
	<path fill="#010101" d="M478.542,80.975c0,0.504,0.025,0.996,0.084,1.392h-0.947l-0.084-0.731h-0.035
		c-0.324,0.456-0.947,0.863-1.775,0.863c-1.176,0-1.775-0.827-1.775-1.667c0-1.403,1.248-2.171,3.49-2.159v-0.119
		c0-0.468-0.131-1.344-1.318-1.332c-0.553,0-1.115,0.156-1.523,0.432l-0.24-0.707c0.48-0.3,1.188-0.504,1.918-0.504
		c1.775,0,2.207,1.211,2.207,2.362V80.975z M477.522,79.404c-1.15-0.024-2.457,0.18-2.457,1.307c0,0.696,0.455,1.008,0.982,1.008
		c0.768,0,1.26-0.479,1.428-0.972c0.035-0.12,0.047-0.24,0.047-0.336V79.404z"/>
	<path fill="#010101" d="M485.251,73.851v7.017c0,0.516,0.023,1.104,0.047,1.499h-0.936l-0.047-1.008h-0.037
		c-0.311,0.648-1.008,1.14-1.955,1.14c-1.402,0-2.494-1.188-2.494-2.95c-0.012-1.931,1.199-3.106,2.604-3.106
		c0.898,0,1.486,0.42,1.75,0.876h0.023v-3.467H485.251z M484.206,78.924c0-0.132-0.012-0.312-0.047-0.443
		c-0.156-0.66-0.732-1.212-1.523-1.212c-1.092,0-1.738,0.96-1.738,2.231c0,1.175,0.588,2.146,1.715,2.146
		c0.707,0,1.355-0.479,1.547-1.259c0.035-0.145,0.047-0.288,0.047-0.456V78.924z"/>
	<path fill="#010101" d="M491.095,80.975c0,0.504,0.023,0.996,0.084,1.392h-0.947l-0.084-0.731h-0.037
		c-0.322,0.456-0.947,0.863-1.775,0.863c-1.174,0-1.773-0.827-1.773-1.667c0-1.403,1.246-2.171,3.49-2.159v-0.119
		c0-0.468-0.133-1.344-1.32-1.332c-0.551,0-1.115,0.156-1.523,0.432l-0.24-0.707c0.48-0.3,1.188-0.504,1.92-0.504
		c1.775,0,2.207,1.211,2.207,2.362V80.975z M490.075,79.404c-1.152-0.024-2.459,0.18-2.459,1.307c0,0.696,0.455,1.008,0.984,1.008
		c0.768,0,1.258-0.479,1.426-0.972c0.037-0.12,0.049-0.24,0.049-0.336V79.404z"/>
	<path fill="#010101" d="M494.024,75.17v1.392h1.512v0.804h-1.512v3.13c0,0.72,0.203,1.128,0.791,1.128
		c0.289,0,0.457-0.024,0.611-0.072l0.049,0.804c-0.203,0.071-0.527,0.144-0.936,0.144c-0.492,0-0.887-0.168-1.139-0.443
		c-0.289-0.324-0.408-0.84-0.408-1.523v-3.166h-0.9v-0.804h0.9v-1.079L494.024,75.17z"/>
	<path fill="#010101" d="M497.899,74.931c0,0.359-0.252,0.647-0.672,0.647c-0.383,0-0.635-0.288-0.635-0.647
		c0-0.36,0.264-0.66,0.66-0.66C497.636,74.271,497.899,74.559,497.899,74.931z M496.726,82.366v-5.805h1.055v5.805H496.726z"/>
	<path fill="#010101" d="M504.786,79.416c0,2.146-1.5,3.082-2.891,3.082c-1.561,0-2.783-1.151-2.783-2.986
		c0-1.931,1.283-3.07,2.879-3.07C503.657,76.441,504.786,77.652,504.786,79.416z M500.192,79.476c0,1.271,0.719,2.231,1.75,2.231
		c1.008,0,1.764-0.948,1.764-2.255c0-0.983-0.492-2.219-1.738-2.219C500.731,77.233,500.192,78.385,500.192,79.476z"/>
	<path fill="#010101" d="M506.12,78.133c0-0.612-0.012-1.092-0.049-1.571h0.936l0.061,0.959h0.023
		c0.289-0.539,0.961-1.079,1.92-1.079c0.803,0,2.051,0.479,2.051,2.471v3.454h-1.055v-3.346c0-0.936-0.348-1.716-1.344-1.716
		c-0.684,0-1.225,0.492-1.416,1.08c-0.047,0.132-0.072,0.312-0.072,0.491v3.49h-1.055V78.133z"/>
</g>
<g>
	<g>
		<line fill="none" stroke="#010101" x1="437.497" y1="131.95" x2="368.872" y2="131.95"/>
		<polygon fill="#010101" points="434.688,135.653 436.261,131.95 434.688,128.246 443.466,131.95 		"/>
	</g>
</g>
<g>
	<g>
		<line fill="none" stroke="#010101" x1="471.819" y1="92.583" x2="471.819" y2="117.556"/>
		<polygon fill="#010101" points="475.522,95.392 471.819,93.819 468.116,95.392 471.819,86.614 		"/>
	</g>
</g>
<g>
	<g>
		<g>
			<path id="path19818_1_" fill="#F5EB0E" stroke="#010101" d="M503.972,120.334c0.121,2.678-1.877,4.942-4.457,5.06
				c-2.582,0.117-4.773-1.958-4.895-4.636c-0.121-2.677,1.873-4.942,4.455-5.06C501.655,115.581,503.851,117.657,503.972,120.334z"
				/>
			<g enable-background="new    ">
				<path fill="#EC3F94" d="M497.709,117.669c0.319-0.078,0.737-0.145,1.273-0.169c0.658-0.03,1.147,0.107,1.466,0.377
					c0.295,0.241,0.488,0.622,0.51,1.098c0.022,0.483-0.099,0.869-0.354,1.16c-0.334,0.405-0.898,0.628-1.55,0.658
					c-0.198,0.009-0.383,0.009-0.538-0.023l0.098,2.14l-0.666,0.03L497.709,117.669z M498.491,120.207
					c0.147,0.034,0.34,0.041,0.554,0.031c0.812-0.037,1.275-0.471,1.242-1.192c-0.032-0.713-0.53-1.032-1.265-0.999
					c-0.291,0.013-0.512,0.055-0.625,0.084L498.491,120.207z"/>
			</g>
		</g>
		<g>
			
				<radialGradient id="path16609_27_" cx="345.9336" cy="-433.4561" r="16.186" gradientTransform="matrix(1.5933 0 0 0.6358 -81.8746 396.1371)" gradientUnits="userSpaceOnUse">
				<stop  offset="0" style="stop-color:#C1DA68"/>
				<stop  offset="0.4082" style="stop-color:#C1DA68"/>
				<stop  offset="0.5552" style="stop-color:#BCD767"/>
				<stop  offset="0.66" style="stop-color:#B8D665"/>
				<stop  offset="0.7448" style="stop-color:#B0D465"/>
				<stop  offset="0.8174" style="stop-color:#A8D066"/>
				<stop  offset="0.8817" style="stop-color:#9CCC67"/>
				<stop  offset="0.9398" style="stop-color:#92CA65"/>
				<stop  offset="0.9915" style="stop-color:#89C663"/>
				<stop  offset="1" style="stop-color:#87C564"/>
			</radialGradient>
			<path id="path16609_17_" fill="url(#path16609_27_)" stroke="#010101" d="M494.616,120.545c0,5.786-11.338,10.478-25.316,10.478
				c-13.98,0-25.314-4.689-25.314-10.478s11.334-10.476,25.314-10.476C483.278,110.07,494.616,114.758,494.616,120.545z"/>
			<g>
				<path fill="#010101" d="M460.84,116.081c0.503-0.084,1.163-0.156,2.003-0.156c1.031,0,1.787,0.24,2.267,0.672
					c0.432,0.384,0.708,0.972,0.708,1.69c0,0.732-0.217,1.308-0.624,1.728c-0.563,0.588-1.451,0.888-2.471,0.888
					c-0.312,0-0.6-0.013-0.839-0.072v3.238h-1.044V116.081z M461.884,119.979c0.227,0.061,0.516,0.084,0.863,0.084
					c1.259,0,2.026-0.624,2.026-1.715c0-1.079-0.768-1.596-1.907-1.596c-0.455,0-0.803,0.036-0.982,0.084V119.979z"/>
				<path fill="#010101" d="M471.397,120.278h-3.131v2.914h3.502v0.876h-4.557v-8.084h4.377v0.876h-3.322v2.555h3.131V120.278z"/>
				<path fill="#010101" d="M473.128,116.093c0.527-0.096,1.295-0.168,2.003-0.168c1.115,0,1.847,0.216,2.339,0.659
					c0.396,0.36,0.635,0.912,0.635,1.548c0,1.056-0.671,1.763-1.511,2.051v0.036c0.612,0.216,0.983,0.791,1.175,1.631
					c0.265,1.127,0.457,1.907,0.625,2.219h-1.08c-0.132-0.24-0.312-0.924-0.527-1.931c-0.24-1.115-0.684-1.535-1.631-1.571h-0.984
					v3.502h-1.043V116.093z M474.171,119.774h1.068c1.115,0,1.822-0.611,1.822-1.535c0-1.043-0.756-1.499-1.859-1.499
					c-0.504,0-0.852,0.036-1.031,0.084V119.774z"/>
			</g>
		</g>
	</g>
	<g>
		<g>
			<path id="path19818_2_" fill="#F5EB0E" stroke="#010101" d="M503.972,142.215c0.121,2.678-1.877,4.942-4.457,5.06
				c-2.582,0.117-4.773-1.958-4.895-4.636c-0.121-2.677,1.873-4.942,4.455-5.06C501.655,137.462,503.851,139.538,503.972,142.215z"
				/>
			<g enable-background="new    ">
				<path fill="#EC3F94" d="M497.709,139.55c0.319-0.078,0.737-0.145,1.273-0.169c0.658-0.03,1.147,0.107,1.466,0.377
					c0.295,0.241,0.488,0.622,0.51,1.098c0.022,0.483-0.099,0.869-0.354,1.16c-0.334,0.405-0.898,0.628-1.55,0.658
					c-0.198,0.009-0.383,0.009-0.538-0.023l0.098,2.14l-0.666,0.03L497.709,139.55z M498.491,142.087
					c0.147,0.034,0.34,0.041,0.554,0.031c0.812-0.037,1.275-0.471,1.242-1.192c-0.032-0.713-0.53-1.032-1.265-0.999
					c-0.291,0.013-0.512,0.055-0.625,0.084L498.491,142.087z"/>
			</g>
		</g>
		<g>
			
				<radialGradient id="path16609_28_" cx="345.9336" cy="-399.0415" r="16.1858" gradientTransform="matrix(1.5933 0 0 0.6358 -81.8746 396.1371)" gradientUnits="userSpaceOnUse">
				<stop  offset="0" style="stop-color:#C1DA68"/>
				<stop  offset="0.4082" style="stop-color:#C1DA68"/>
				<stop  offset="0.5552" style="stop-color:#BCD767"/>
				<stop  offset="0.66" style="stop-color:#B8D665"/>
				<stop  offset="0.7448" style="stop-color:#B0D465"/>
				<stop  offset="0.8174" style="stop-color:#A8D066"/>
				<stop  offset="0.8817" style="stop-color:#9CCC67"/>
				<stop  offset="0.9398" style="stop-color:#92CA65"/>
				<stop  offset="0.9915" style="stop-color:#89C663"/>
				<stop  offset="1" style="stop-color:#87C564"/>
			</radialGradient>
			<path id="path16609_18_" fill="url(#path16609_28_)" stroke="#010101" d="M494.616,142.426c0,5.786-11.338,10.478-25.316,10.478
				c-13.98,0-25.314-4.689-25.314-10.478s11.334-10.476,25.314-10.476C483.278,131.951,494.616,136.639,494.616,142.426z"/>
			<g>
				<path fill="#010101" d="M460.84,137.962c0.503-0.084,1.163-0.156,2.003-0.156c1.031,0,1.787,0.24,2.267,0.672
					c0.432,0.384,0.708,0.972,0.708,1.69c0,0.732-0.217,1.308-0.624,1.728c-0.563,0.588-1.451,0.888-2.471,0.888
					c-0.312,0-0.6-0.013-0.839-0.072v3.238h-1.044V137.962z M461.884,141.859c0.227,0.061,0.516,0.084,0.863,0.084
					c1.259,0,2.026-0.624,2.026-1.715c0-1.079-0.768-1.596-1.907-1.596c-0.455,0-0.803,0.036-0.982,0.084V141.859z"/>
				<path fill="#010101" d="M471.397,142.159h-3.131v2.914h3.502v0.876h-4.557v-8.084h4.377v0.876h-3.322v2.555h3.131V142.159z"/>
				<path fill="#010101" d="M473.128,137.974c0.527-0.096,1.295-0.168,2.003-0.168c1.115,0,1.847,0.216,2.339,0.659
					c0.396,0.36,0.635,0.912,0.635,1.548c0,1.056-0.671,1.763-1.511,2.051v0.036c0.612,0.216,0.983,0.791,1.175,1.631
					c0.265,1.127,0.457,1.907,0.625,2.219h-1.08c-0.132-0.24-0.312-0.924-0.527-1.931c-0.24-1.115-0.684-1.535-1.631-1.571h-0.984
					v3.502h-1.043V137.974z M474.171,141.655h1.068c1.115,0,1.822-0.611,1.822-1.535c0-1.043-0.756-1.499-1.859-1.499
					c-0.504,0-0.852,0.036-1.031,0.084V141.655z"/>
			</g>
		</g>
	</g>
</g>
<g>
	<g>
		<path fill="none" stroke="#010101" d="M382.587,145.95c16.311,31.944-14.502,52.486-15.617,53.128"/>
		<polygon fill="#010101" points="367.558,194.468 368.042,198.462 371.251,200.889 361.796,202.055 		"/>
	</g>
</g>
<g>
	<g>
		<line fill="none" stroke="#010101" x1="329.505" y1="114.321" x2="280.528" y2="89.085"/>
		<polygon fill="#010101" points="284.722,87.079 281.626,89.651 281.327,93.664 275.222,86.351 		"/>
		<polygon fill="#010101" points="325.313,116.327 328.407,113.755 328.706,109.742 334.812,117.056 		"/>
	</g>
</g>
<g>
	<path fill="#010101" d="M181.808,24.631c0.636-0.107,1.392-0.18,2.219-0.18c1.5,0,2.567,0.359,3.274,1.008
		c0.731,0.659,1.151,1.595,1.151,2.902c0,1.319-0.42,2.398-1.163,3.142c-0.768,0.756-2.015,1.164-3.586,1.164
		c-0.756,0-1.367-0.036-1.896-0.097V24.631z M182.852,31.779c0.264,0.036,0.647,0.048,1.056,0.048c2.242,0,3.441-1.247,3.441-3.43
		c0.013-1.907-1.067-3.119-3.273-3.119c-0.54,0-0.948,0.049-1.224,0.108V31.779z"/>
	<path fill="#010101" d="M190.4,29.884c0.024,1.428,0.924,2.016,1.991,2.016c0.756,0,1.224-0.132,1.607-0.3l0.191,0.755
		c-0.372,0.168-1.02,0.372-1.942,0.372c-1.787,0-2.854-1.188-2.854-2.938s1.031-3.118,2.723-3.118c1.906,0,2.398,1.655,2.398,2.723
		c0,0.216-0.012,0.372-0.036,0.491H190.4z M193.495,29.129c0.012-0.66-0.276-1.703-1.463-1.703c-1.08,0-1.535,0.972-1.619,1.703
		H193.495z"/>
	<path fill="#010101" d="M200.79,31.743c0,1.344-0.275,2.146-0.827,2.662c-0.576,0.517-1.392,0.696-2.123,0.696
		c-0.696,0-1.464-0.168-1.931-0.479l0.264-0.816c0.384,0.252,0.983,0.468,1.703,0.468c1.079,0,1.871-0.563,1.871-2.038V31.6h-0.024
		c-0.312,0.539-0.947,0.971-1.847,0.971c-1.439,0-2.471-1.223-2.471-2.83c0-1.967,1.283-3.07,2.626-3.07
		c1.008,0,1.548,0.516,1.812,0.995h0.023l0.036-0.875h0.936c-0.036,0.407-0.048,0.888-0.048,1.583V31.743z M199.734,29.081
		c0-0.181-0.012-0.336-0.06-0.468c-0.192-0.624-0.695-1.128-1.476-1.128c-1.007,0-1.727,0.852-1.727,2.195
		c0,1.139,0.587,2.087,1.715,2.087c0.659,0,1.247-0.408,1.463-1.08c0.061-0.18,0.084-0.384,0.084-0.563V29.081z"/>
	<path fill="#010101" d="M202.46,28.601c0-0.684-0.013-1.271-0.049-1.811h0.924l0.048,1.151h0.036
		c0.264-0.779,0.911-1.271,1.619-1.271c0.108,0,0.192,0.012,0.288,0.024v0.995c-0.108-0.024-0.216-0.024-0.36-0.024
		c-0.743,0-1.271,0.552-1.415,1.344c-0.023,0.144-0.036,0.324-0.036,0.491v3.095h-1.055V28.601z"/>
	<path fill="#010101" d="M210.402,31.203c0,0.504,0.024,0.996,0.084,1.392h-0.947l-0.084-0.731h-0.036
		c-0.324,0.456-0.947,0.863-1.775,0.863c-1.175,0-1.774-0.827-1.774-1.667c0-1.403,1.247-2.171,3.49-2.159v-0.119
		c0-0.468-0.132-1.344-1.319-1.332c-0.552,0-1.115,0.156-1.523,0.432l-0.24-0.707c0.48-0.3,1.188-0.504,1.919-0.504
		c1.775,0,2.207,1.211,2.207,2.362V31.203z M209.382,29.633c-1.151-0.024-2.458,0.18-2.458,1.307c0,0.696,0.455,1.008,0.983,1.008
		c0.768,0,1.259-0.479,1.427-0.972c0.036-0.12,0.048-0.24,0.048-0.336V29.633z"/>
	<path fill="#010101" d="M217.11,24.079v7.017c0,0.516,0.023,1.104,0.048,1.499h-0.936l-0.048-1.008h-0.036
		c-0.312,0.648-1.008,1.14-1.955,1.14c-1.403,0-2.494-1.188-2.494-2.95c-0.013-1.931,1.199-3.106,2.603-3.106
		c0.899,0,1.487,0.42,1.751,0.876h0.023v-3.467H217.11z M216.066,29.152c0-0.132-0.012-0.312-0.048-0.443
		c-0.155-0.66-0.731-1.212-1.523-1.212c-1.091,0-1.738,0.96-1.738,2.231c0,1.175,0.588,2.146,1.715,2.146
		c0.708,0,1.355-0.479,1.547-1.259c0.036-0.145,0.048-0.288,0.048-0.456V29.152z"/>
	<path fill="#010101" d="M222.954,31.203c0,0.504,0.024,0.996,0.084,1.392h-0.947l-0.084-0.731h-0.036
		c-0.323,0.456-0.947,0.863-1.775,0.863c-1.175,0-1.774-0.827-1.774-1.667c0-1.403,1.247-2.171,3.49-2.159v-0.119
		c0-0.468-0.132-1.344-1.319-1.332c-0.552,0-1.115,0.156-1.523,0.432l-0.24-0.707c0.48-0.3,1.188-0.504,1.919-0.504
		c1.775,0,2.207,1.211,2.207,2.362V31.203z M221.934,29.633c-1.151-0.024-2.458,0.18-2.458,1.307c0,0.696,0.455,1.008,0.983,1.008
		c0.768,0,1.259-0.479,1.427-0.972c0.036-0.12,0.048-0.24,0.048-0.336V29.633z"/>
	<path fill="#010101" d="M225.883,25.398v1.392h1.512v0.804h-1.512v3.13c0,0.72,0.204,1.128,0.792,1.128
		c0.288,0,0.456-0.024,0.611-0.072l0.048,0.804c-0.203,0.071-0.527,0.144-0.936,0.144c-0.491,0-0.887-0.168-1.139-0.443
		c-0.288-0.324-0.408-0.84-0.408-1.523v-3.166h-0.899V26.79h0.899v-1.079L225.883,25.398z"/>
	<path fill="#010101" d="M229.759,25.159c0,0.359-0.252,0.647-0.672,0.647c-0.384,0-0.636-0.288-0.636-0.647
		c0-0.36,0.265-0.66,0.66-0.66C229.496,24.499,229.759,24.787,229.759,25.159z M228.584,32.595V26.79h1.055v5.805H228.584z"/>
	<path fill="#010101" d="M236.645,29.645c0,2.146-1.499,3.082-2.891,3.082c-1.56,0-2.782-1.151-2.782-2.986
		c0-1.931,1.283-3.07,2.878-3.07C235.517,26.67,236.645,27.881,236.645,29.645z M232.051,29.704c0,1.271,0.72,2.231,1.751,2.231
		c1.008,0,1.763-0.948,1.763-2.255c0-0.983-0.491-2.219-1.738-2.219C232.591,27.462,232.051,28.613,232.051,29.704z"/>
	<path fill="#010101" d="M237.98,28.361c0-0.612-0.013-1.092-0.049-1.571h0.936l0.061,0.959h0.023
		c0.288-0.539,0.96-1.079,1.919-1.079c0.804,0,2.051,0.479,2.051,2.471v3.454h-1.055v-3.346c0-0.936-0.348-1.716-1.344-1.716
		c-0.684,0-1.224,0.492-1.415,1.08c-0.048,0.132-0.072,0.312-0.072,0.491v3.49h-1.055V28.361z"/>
</g>
<g>
	<g>
		<line fill="none" stroke="#010101" x1="132.602" y1="302.241" x2="132.602" y2="225.486"/>
		<polygon fill="#010101" points="128.899,299.433 132.602,301.005 136.306,299.433 132.602,308.21 		"/>
	</g>
</g>
<g>
	<g>
		<line fill="none" stroke="#010101" x1="132.602" y1="96.608" x2="132.602" y2="187.974"/>
		<polygon fill="#010101" points="136.305,99.417 132.602,97.845 128.898,99.417 132.602,90.64 		"/>
	</g>
</g>
<g>
	<g>
		<path fill="none" stroke="#010101" d="M267.866,202.284c-28.208,0-52.2-21.132-52.2-21.132"/>
		<polygon fill="#010101" points="220.222,180.229 216.594,181.969 215.326,185.788 211.187,177.207 		"/>
	</g>
</g>
<g>
	<g>
		<path fill="none" stroke="#010101" d="M266.566,202.474c-28.209,0-52.2,21.132-52.2,21.132"/>
		<polygon fill="#010101" points="214.026,218.97 215.293,222.789 218.921,224.528 209.886,227.551 		"/>
	</g>
</g>
<g>
	<path d="M75.471,152.903v-8.083h1.151l2.579,4.09c0.587,0.947,1.067,1.799,1.439,2.626l0.036-0.012
		c-0.096-1.079-0.12-2.062-0.12-3.322v-3.382h0.983v8.083h-1.055l-2.566-4.102c-0.564-0.9-1.104-1.823-1.5-2.699l-0.036,0.012
		c0.06,1.019,0.072,1.991,0.072,3.334v3.454H75.471z"/>
	<path d="M88.188,151.308c0,0.612,0.012,1.14,0.048,1.595H87.3l-0.06-0.947h-0.024c-0.264,0.467-0.887,1.079-1.919,1.079
		c-0.911,0-2.003-0.516-2.003-2.542v-3.394h1.056v3.202c0,1.104,0.348,1.859,1.295,1.859c0.708,0,1.199-0.492,1.391-0.971
		c0.06-0.144,0.096-0.336,0.096-0.54v-3.55h1.056V151.308z"/>
	<path d="M94.08,152.699c-0.276,0.132-0.887,0.336-1.667,0.336c-1.751,0-2.891-1.187-2.891-2.962c0-1.787,1.224-3.094,3.119-3.094
		c0.624,0,1.175,0.156,1.463,0.312l-0.24,0.803c-0.252-0.132-0.647-0.276-1.223-0.276c-1.332,0-2.051,0.996-2.051,2.195
		c0,1.343,0.864,2.171,2.015,2.171c0.6,0,0.996-0.144,1.295-0.276L94.08,152.699z"/>
	<path d="M95.318,144.388h1.056v8.515h-1.056V144.388z"/>
	<path d="M98.738,150.193c0.024,1.427,0.923,2.015,1.991,2.015c0.755,0,1.223-0.132,1.607-0.3l0.192,0.756
		c-0.372,0.168-1.019,0.372-1.943,0.372c-1.787,0-2.854-1.187-2.854-2.938c0-1.751,1.032-3.118,2.723-3.118
		c1.907,0,2.399,1.655,2.399,2.723c0,0.216-0.012,0.372-0.036,0.492H98.738z M101.833,149.437c0.012-0.659-0.276-1.703-1.463-1.703
		c-1.08,0-1.535,0.971-1.619,1.703H101.833z"/>
	<path d="M109.02,151.308c0,0.612,0.012,1.14,0.048,1.595h-0.936l-0.06-0.947h-0.024c-0.264,0.467-0.887,1.079-1.919,1.079
		c-0.911,0-2.003-0.516-2.003-2.542v-3.394h1.056v3.202c0,1.104,0.348,1.859,1.295,1.859c0.708,0,1.199-0.492,1.391-0.971
		c0.06-0.144,0.096-0.336,0.096-0.54v-3.55h1.056V151.308z"/>
	<path d="M110.63,151.836c0.324,0.192,0.875,0.408,1.403,0.408c0.756,0,1.115-0.372,1.115-0.863c0-0.504-0.3-0.768-1.067-1.056
		c-1.055-0.384-1.547-0.947-1.547-1.643c0-0.936,0.768-1.703,2.003-1.703c0.587,0,1.103,0.156,1.415,0.36l-0.252,0.768
		c-0.228-0.144-0.647-0.348-1.187-0.348c-0.624,0-0.959,0.36-0.959,0.792c0,0.479,0.335,0.695,1.091,0.996
		c0.995,0.372,1.523,0.875,1.523,1.739c0,1.031-0.803,1.751-2.159,1.751c-0.636,0-1.223-0.168-1.631-0.408L110.63,151.836z"/>
</g>
<g>
	<path d="M69.373,117.303c-0.372,0.192-1.151,0.384-2.135,0.384c-2.279,0-3.982-1.439-3.982-4.102c0-2.543,1.715-4.246,4.222-4.246
		c0.996,0,1.643,0.216,1.919,0.36l-0.264,0.852c-0.384-0.192-0.948-0.336-1.619-0.336c-1.895,0-3.154,1.211-3.154,3.334
		c0,1.991,1.139,3.25,3.094,3.25c0.647,0,1.295-0.132,1.715-0.336L69.373,117.303z"/>
	<path d="M70.804,111.75l1.259,3.43c0.144,0.384,0.288,0.84,0.384,1.188h0.024c0.108-0.348,0.228-0.791,0.372-1.211l1.151-3.406
		h1.115l-1.583,4.138c-0.756,1.991-1.271,2.998-1.991,3.634c-0.527,0.444-1.031,0.624-1.295,0.672l-0.264-0.876
		c0.264-0.084,0.612-0.252,0.924-0.516c0.288-0.228,0.635-0.636,0.887-1.175c0.048-0.108,0.084-0.192,0.084-0.252
		c0-0.061-0.024-0.145-0.084-0.276l-2.135-5.349H70.804z"/>
	<path d="M77.343,110.359v1.392h1.511v0.804h-1.511v3.13c0,0.72,0.204,1.128,0.792,1.128c0.288,0,0.456-0.024,0.612-0.072
		l0.048,0.804c-0.204,0.071-0.528,0.144-0.936,0.144c-0.492,0-0.888-0.168-1.14-0.443c-0.288-0.324-0.408-0.84-0.408-1.523v-3.166
		h-0.899v-0.804h0.899v-1.079L77.343,110.359z"/>
	<path d="M85.225,114.605c0,2.146-1.499,3.082-2.89,3.082c-1.559,0-2.783-1.151-2.783-2.986c0-1.931,1.284-3.07,2.878-3.07
		C84.098,111.63,85.225,112.841,85.225,114.605z M80.631,114.665c0,1.271,0.72,2.231,1.751,2.231c1.007,0,1.763-0.948,1.763-2.255
		c0-0.983-0.492-2.219-1.739-2.219C81.171,112.422,80.631,113.574,80.631,114.665z"/>
	<path d="M86.56,113.645c0-0.743-0.024-1.343-0.048-1.895h0.936l0.06,0.995h0.024c0.419-0.707,1.115-1.115,2.062-1.115
		c1.416,0,2.471,1.188,2.471,2.938c0,2.087-1.283,3.118-2.65,3.118c-0.768,0-1.439-0.336-1.787-0.911h-0.024v3.154H86.56V113.645z
		 M87.603,115.193c0,0.155,0.012,0.3,0.048,0.432c0.192,0.731,0.828,1.235,1.583,1.235c1.116,0,1.763-0.912,1.763-2.243
		c0-1.151-0.612-2.146-1.727-2.146c-0.72,0-1.403,0.504-1.595,1.295c-0.036,0.132-0.072,0.288-0.072,0.42V115.193z"/>
	<path d="M93.387,109.04h1.056v8.516h-1.056V109.04z"/>
	<path d="M100.297,116.164c0,0.504,0.024,0.996,0.084,1.392h-0.947l-0.084-0.731h-0.036c-0.324,0.456-0.947,0.863-1.775,0.863
		c-1.175,0-1.775-0.827-1.775-1.667c0-1.403,1.247-2.171,3.49-2.159v-0.119c0-0.468-0.132-1.344-1.319-1.332
		c-0.551,0-1.115,0.156-1.523,0.432l-0.24-0.707c0.479-0.3,1.188-0.504,1.919-0.504c1.775,0,2.207,1.211,2.207,2.362V116.164z
		 M99.278,114.593c-1.151-0.024-2.459,0.18-2.459,1.307c0,0.696,0.456,1.008,0.983,1.008c0.768,0,1.259-0.479,1.427-0.972
		c0.036-0.12,0.048-0.24,0.048-0.336V114.593z"/>
	<path d="M101.859,116.488c0.324,0.191,0.875,0.408,1.403,0.408c0.756,0,1.115-0.372,1.115-0.864c0-0.504-0.3-0.768-1.067-1.055
		c-1.055-0.384-1.547-0.948-1.547-1.644c0-0.936,0.768-1.703,2.003-1.703c0.587,0,1.104,0.156,1.415,0.36l-0.252,0.768
		c-0.228-0.145-0.647-0.349-1.187-0.349c-0.624,0-0.959,0.36-0.959,0.792c0,0.479,0.335,0.695,1.091,0.995
		c0.996,0.372,1.523,0.876,1.523,1.739c0,1.031-0.803,1.751-2.159,1.751c-0.636,0-1.223-0.168-1.631-0.407L101.859,116.488z"/>
	<path d="M106.755,113.322c0-0.612-0.024-1.092-0.048-1.571h0.923l0.048,0.947h0.036c0.324-0.552,0.864-1.067,1.835-1.067
		c0.78,0,1.379,0.479,1.631,1.163h0.024c0.18-0.336,0.419-0.575,0.66-0.755c0.348-0.265,0.719-0.408,1.271-0.408
		c0.78,0,1.919,0.504,1.919,2.519v3.406h-1.031v-3.274c0-1.127-0.42-1.787-1.259-1.787c-0.612,0-1.067,0.444-1.259,0.948
		c-0.048,0.155-0.084,0.335-0.084,0.527v3.586h-1.031v-3.479c0-0.923-0.408-1.583-1.211-1.583c-0.648,0-1.14,0.528-1.308,1.056
		c-0.06,0.144-0.084,0.336-0.084,0.516v3.49h-1.031V113.322z"/>
</g>
</svg>
