<?xml version="1.0" encoding="utf-8"?>
<!-- Generator: Adobe Illustrator 12.0.1, SVG Export Plug-In . SVG Version: 6.00 Build 51448)  -->
<!DOCTYPE svg PUBLIC "-//W3C//DTD SVG 1.1//EN" "http://www.w3.org/Graphics/SVG/1.1/DTD/svg11.dtd" [
	<!ENTITY ns_svg "http://www.w3.org/2000/svg">
	<!ENTITY ns_xlink "http://www.w3.org/1999/xlink">
]>
<svg  version="1.1" id="Layer_1" xmlns="&ns_svg;" xmlns:xlink="&ns_xlink;" width="558" height="437" viewBox="0 0 558 437"
	 overflow="visible" enable-background="new 0 0 558 437" xml:space="preserve">
<path fill="none" stroke="#000000" d="M134.333,80.333"/>
<path fill="none" stroke="#FF0000" d="M134,375V82c21.846,5.188,35.375,12.366,52.333,43.333
	C201.667,153.333,201,245.729,201,375.25h29.5"/>
<path fill="none" stroke="#000000" d="M33,374"/>
<path fill="none" stroke="#000000" d="M33,81"/>
<path fill="none" stroke="#FF0000" d="M46.869,85.15c14.368,5.586,25.398,15.323,38.465,39.184C100.667,152.333,100,244.729,100,375
	h33.75"/>
<path fill="none" stroke="#FF0000" d="M231.25,374.584v-293c20.324,5.188,32.911,12.366,48.689,43.333
	c14.264,28,13.645,120.396,13.645,250.667H326.5"/>
<path fill="none" stroke="#FF0000" d="M336.496,85.154c-3.197-1.059-6.567-1.967-10.163-2.821v293"/>
<path fill="none" stroke="#000000" d="M393.334,376.334"/>
<path fill="none" stroke="#2210D2" d="M47,95.109c8.333-27.333,30-83,52-68c0,0,1.92,101.125,11.333,104.891
	C117,134.667,135,134.333,135,134.333c16.181-78.555,42.003-120.645,64.333-107.304c0,0,2.666,92.304,9.333,100.97
	S229,134.333,229,134.333c16.181-78.555,42.003-120.645,64.333-107.304c0,0-0.145,96.02,9.667,102.97c8,5.667,18,4.667,23,4
	c0,0,7.333-35.667,12-44.333"/>
<g>
	<path fill="none" stroke="#00A33D" d="M46.667,126.333c0,0,3.563-1.087,7.917-2.417c4.354-1.33,11.14-4.48,15.079-7.001
		l2.342-1.499c3.939-2.521,9.563-7.134,12.496-10.25c2.934-3.117,7.021-8.629,9.083-12.25c2.063-3.621,4.2-7.708,4.75-9.083
		s1.15-0.85,1.333,1.167c0.183,2.017,0.633,5.804,1,8.417c0.366,2.612,1.671,8.443,2.898,12.956l0.704,2.588
		c1.228,4.513,4.369,10.269,6.981,12.79s7.862,5.258,11.667,6.083c3.804,0.825,10.726,1.13,15.381,0.678l0.238-0.023
		c4.655-0.452,11.995-2.297,16.31-4.101l6.641-2.775c4.315-1.803,10.693-5.836,14.172-8.962l8.682-7.8
		c3.479-3.126,8.125-8.721,10.326-12.434s4.188-7.763,4.417-9s0.754-0.6,1.167,1.417c0.413,2.017,1.184,7.469,1.714,12.116
		l0.239,2.102c0.53,4.647,2.164,11.112,3.63,14.366c1.466,3.254,6.012,7.775,10.1,10.046l1.633,0.907
		c4.088,2.271,10.434,3.98,14.101,3.797c3.667-0.184,10.242-1.698,14.611-3.367l2.444-0.934c4.369-1.668,11.062-5.252,14.873-7.964
		l4.644-3.305c3.811-2.712,9.139-8.055,11.84-11.873l5.509-7.784c2.702-3.818,5.175-7.917,5.496-9.108
		c0.321-1.191,0.846-0.779,1.167,0.917c0.321,1.696,1.141,6.87,1.823,11.497l0.688,4.674c0.682,4.627,2.102,10.438,3.156,12.913
		c1.054,2.475,3.454,5.887,5.333,7.583c1.879,1.695,6.229,3.983,9.667,5.083s10,1.775,14.583,1.5s8.333-0.5,8.333-0.5"/>
</g>
<line fill="none" stroke="#000000" x1="47" y1="134.5" x2="335" y2="134.5"/>
<polyline fill="none" stroke="#000000" points="46.5,14 46.5,375.5 337.5,375.5 "/>
<line fill="none" stroke="#000000" x1="46.375" y1="194.625" x2="55" y2="194.625"/>
<line fill="none" stroke="#000000" x1="163.188" y1="366.188" x2="163.188" y2="374.813"/>
<line fill="none" stroke="#000000" x1="279.563" y1="366.188" x2="279.563" y2="374.813"/>
<line fill="none" stroke="#000000" x1="337.688" y1="366.188" x2="337.688" y2="374.813"/>
<line fill="none" stroke="#000000" x1="221.313" y1="366.188" x2="221.313" y2="374.813"/>
<line fill="none" stroke="#000000" x1="104.938" y1="366.188" x2="104.938" y2="374.813"/>
<line fill="none" stroke="#000000" x1="46.375" y1="315.291" x2="55" y2="315.291"/>
<line fill="none" stroke="#000000" x1="46.375" y1="255.291" x2="55" y2="255.291"/>
<line fill="none" stroke="#000000" x1="46.375" y1="74.625" x2="55" y2="74.625"/>
<line fill="none" stroke="#000000" x1="46.375" y1="14" x2="55" y2="14"/>
<g>
	<path d="M16.14,21v-3.186h-5.437v-1.026L15.924,9.3h1.71v7.29h1.638v1.224h-1.638V21H16.14z M16.14,16.59v-3.924
		c0-0.612,0.018-1.224,0.054-1.836H16.14c-0.36,0.684-0.648,1.188-0.972,1.746l-2.862,3.978v0.036H16.14z"/>
	<path d="M24.203,21.198c-2.286,0-3.853-2.142-3.888-6.012c0-3.942,1.71-6.084,4.086-6.084c2.447,0,3.87,2.196,3.87,5.922
		c0,3.978-1.494,6.174-4.051,6.174H24.203z M24.275,19.974c1.602,0,2.376-1.89,2.376-4.878c0-2.88-0.721-4.77-2.376-4.77
		c-1.44,0-2.376,1.836-2.376,4.77c-0.036,3.042,0.899,4.878,2.357,4.878H24.275z"/>
</g>
<g>
	<path d="M12.576,80.889v-0.972l1.242-1.206c2.988-2.844,4.356-4.356,4.356-6.12c0-1.188-0.559-2.286-2.304-2.286
		c-1.063,0-1.944,0.54-2.484,0.99l-0.504-1.116c0.792-0.666,1.962-1.188,3.312-1.188c2.502,0,3.564,1.728,3.564,3.402
		c0,2.16-1.566,3.906-4.032,6.282l-0.918,0.864v0.036h5.238v1.314H12.576z"/>
	<path d="M25.536,81.087c-2.286,0-3.853-2.142-3.888-6.012c0-3.942,1.71-6.084,4.086-6.084c2.447,0,3.87,2.196,3.87,5.922
		c0,3.978-1.494,6.174-4.051,6.174H25.536z M25.608,79.863c1.602,0,2.376-1.89,2.376-4.878c0-2.88-0.721-4.77-2.376-4.77
		c-1.44,0-2.376,1.836-2.376,4.77c-0.036,3.042,0.899,4.878,2.357,4.878H25.608z"/>
</g>
<g>
	<path d="M26.919,140.977c-2.286,0-3.853-2.143-3.888-6.013c0-3.941,1.71-6.084,4.086-6.084c2.447,0,3.87,2.196,3.87,5.923
		c0,3.978-1.494,6.174-4.051,6.174H26.919z M26.991,139.752c1.602,0,2.376-1.89,2.376-4.878c0-2.88-0.721-4.77-2.376-4.77
		c-1.44,0-2.376,1.836-2.376,4.77c-0.036,3.042,0.899,4.878,2.357,4.878H26.991z"/>
</g>
<g>
	<path d="M10.656,195.23v1.152H6.209v-1.152H10.656z"/>
	<path d="M12.004,200.667v-0.972l1.242-1.206c2.988-2.845,4.356-4.356,4.356-6.12c0-1.188-0.559-2.286-2.304-2.286
		c-1.063,0-1.944,0.54-2.484,0.99l-0.504-1.116c0.792-0.666,1.962-1.188,3.312-1.188c2.502,0,3.564,1.729,3.564,3.402
		c0,2.16-1.566,3.906-4.032,6.282l-0.918,0.864v0.035h5.238v1.314H12.004z"/>
	<path d="M24.965,200.865c-2.286,0-3.853-2.143-3.888-6.013c0-3.941,1.71-6.084,4.086-6.084c2.447,0,3.87,2.196,3.87,5.923
		c0,3.978-1.494,6.174-4.051,6.174H24.965z M25.038,199.641c1.602,0,2.376-1.89,2.376-4.878c0-2.88-0.721-4.77-2.376-4.77
		c-1.44,0-2.376,1.836-2.376,4.77c-0.036,3.042,0.899,4.878,2.357,4.878H25.038z"/>
</g>
<g>
	<path d="M9.323,255.119v1.152H4.876v-1.152H9.323z"/>
	<path d="M15.568,260.556v-3.186h-5.437v-1.026l5.221-7.488h1.71v7.29H18.7v1.225h-1.638v3.186H15.568z M15.568,256.146v-3.924
		c0-0.612,0.018-1.224,0.054-1.836h-0.054c-0.36,0.684-0.648,1.188-0.972,1.746l-2.862,3.978v0.036H15.568z"/>
	<path d="M23.632,260.754c-2.286,0-3.853-2.143-3.888-6.013c0-3.941,1.71-6.084,4.086-6.084c2.447,0,3.87,2.196,3.87,5.923
		c0,3.978-1.494,6.174-4.051,6.174H23.632z M23.705,259.529c1.602,0,2.376-1.89,2.376-4.878c0-2.88-0.721-4.77-2.376-4.77
		c-1.44,0-2.376,1.836-2.376,4.77c-0.036,3.042,0.899,4.878,2.357,4.878H23.705z"/>
</g>
<g>
	<path d="M11.989,315.009v1.152H7.542v-1.152H11.989z"/>
	<path d="M20.016,309.843c-0.324-0.018-0.738,0.019-1.188,0.091c-2.502,0.396-3.798,2.214-4.067,4.157h0.035
		c0.559-0.756,1.549-1.367,2.845-1.367c2.069,0,3.527,1.512,3.527,3.779c0,2.16-1.458,4.141-3.905,4.141
		c-2.484,0-4.122-1.944-4.122-4.986c0-2.304,0.81-4.122,1.979-5.292c0.973-0.954,2.269-1.548,3.744-1.728
		c0.468-0.072,0.864-0.091,1.152-0.091V309.843z M17.298,319.419c1.35,0,2.268-1.134,2.268-2.808s-0.954-2.682-2.412-2.682
		c-0.954,0-1.854,0.575-2.286,1.439c-0.09,0.18-0.162,0.396-0.162,0.685c0.019,1.926,0.918,3.365,2.574,3.365H17.298z"/>
	<path d="M26.298,320.644c-2.286,0-3.853-2.143-3.888-6.013c0-3.941,1.71-6.084,4.086-6.084c2.447,0,3.87,2.196,3.87,5.923
		c0,3.978-1.494,6.174-4.051,6.174H26.298z M26.371,319.419c1.602,0,2.376-1.89,2.376-4.878c0-2.88-0.721-4.77-2.376-4.77
		c-1.44,0-2.376,1.836-2.376,4.77c-0.036,3.042,0.899,4.878,2.357,4.878H26.371z"/>
</g>
<g>
	<path d="M11.99,374.897v1.152H7.544v-1.152H11.99z"/>
	<path d="M17.264,368.436c2.268,0,3.42,1.404,3.42,2.88c0,0.99-0.504,2.07-1.944,2.736v0.054c1.458,0.576,2.358,1.62,2.358,3.024
		c0,2.052-1.746,3.402-3.979,3.402c-2.448,0-3.924-1.44-3.924-3.15c0-1.476,0.882-2.538,2.304-3.15v-0.054
		c-1.313-0.611-1.872-1.62-1.872-2.628c0-1.854,1.566-3.114,3.618-3.114H17.264z M17.173,379.38c1.423,0,2.341-0.882,2.341-2.088
		c0-1.404-0.99-2.106-2.574-2.556c-1.368,0.396-2.106,1.313-2.106,2.43c-0.054,1.17,0.847,2.214,2.322,2.214H17.173z M17.209,369.57
		c-1.313,0-2.033,0.863-2.033,1.872c-0.019,1.17,0.882,1.8,2.231,2.159c1.008-0.342,1.782-1.062,1.782-2.124
		c0-0.936-0.559-1.907-1.962-1.907H17.209z"/>
	<path d="M26.3,380.532c-2.286,0-3.853-2.143-3.888-6.013c0-3.941,1.71-6.084,4.086-6.084c2.447,0,3.87,2.196,3.87,5.923
		c0,3.978-1.494,6.174-4.051,6.174H26.3z M26.372,379.308c1.602,0,2.376-1.89,2.376-4.878c0-2.88-0.721-4.77-2.376-4.77
		c-1.44,0-2.376,1.836-2.376,4.77c-0.036,3.042,0.899,4.878,2.357,4.878H26.372z"/>
</g>
<g>
	<path d="M29.055,399.2c0.449,0.27,1.476,0.72,2.592,0.72c2.016,0,2.664-1.278,2.646-2.268c-0.018-1.639-1.494-2.341-3.023-2.341
		h-0.883v-1.188h0.883c1.151,0,2.609-0.594,2.609-1.98c0-0.936-0.594-1.764-2.052-1.764c-0.936,0-1.836,0.414-2.34,0.774
		l-0.432-1.152c0.63-0.45,1.817-0.9,3.077-0.9c2.305,0,3.349,1.368,3.349,2.79c0,1.225-0.738,2.25-2.16,2.772v0.036
		c1.439,0.27,2.61,1.35,2.61,2.987c0,1.872-1.477,3.511-4.267,3.511c-1.313,0-2.466-0.414-3.042-0.792L29.055,399.2z"/>
	<path d="M41.636,401.198c-2.286,0-3.853-2.143-3.888-6.013c0-3.941,1.71-6.084,4.086-6.084c2.447,0,3.87,2.196,3.87,5.923
		c0,3.978-1.494,6.174-4.051,6.174H41.636z M41.708,399.974c1.602,0,2.376-1.89,2.376-4.878c0-2.88-0.721-4.77-2.376-4.77
		c-1.44,0-2.376,1.836-2.376,4.77c-0.036,3.042,0.899,4.878,2.357,4.878H41.708z"/>
	<path d="M50.87,401.198c-2.286,0-3.853-2.143-3.888-6.013c0-3.941,1.71-6.084,4.086-6.084c2.447,0,3.87,2.196,3.87,5.923
		c0,3.978-1.494,6.174-4.051,6.174H50.87z M50.942,399.974c1.602,0,2.376-1.89,2.376-4.878c0-2.88-0.721-4.77-2.376-4.77
		c-1.44,0-2.376,1.836-2.376,4.77c-0.036,3.042,0.899,4.878,2.357,4.878H50.942z"/>
	<path d="M60.104,401.198c-2.286,0-3.853-2.143-3.888-6.013c0-3.941,1.71-6.084,4.086-6.084c2.447,0,3.87,2.196,3.87,5.923
		c0,3.978-1.494,6.174-4.051,6.174H60.104z M60.176,399.974c1.602,0,2.376-1.89,2.376-4.878c0-2.88-0.721-4.77-2.376-4.77
		c-1.44,0-2.376,1.836-2.376,4.77c-0.036,3.042,0.899,4.878,2.357,4.878H60.176z"/>
</g>
<g>
	<path d="M88.054,399.2c0.449,0.27,1.476,0.72,2.592,0.72c2.016,0,2.664-1.278,2.646-2.268c-0.018-1.639-1.494-2.341-3.023-2.341
		h-0.883v-1.188h0.883c1.151,0,2.609-0.594,2.609-1.98c0-0.936-0.594-1.764-2.052-1.764c-0.936,0-1.836,0.414-2.34,0.774
		l-0.432-1.152c0.63-0.45,1.817-0.9,3.077-0.9c2.305,0,3.349,1.368,3.349,2.79c0,1.225-0.738,2.25-2.16,2.772v0.036
		c1.439,0.27,2.61,1.35,2.61,2.987c0,1.872-1.477,3.511-4.267,3.511c-1.313,0-2.466-0.414-3.042-0.792L88.054,399.2z"/>
	<path d="M96.909,401v-0.972l1.242-1.206c2.988-2.845,4.356-4.356,4.356-6.12c0-1.188-0.559-2.286-2.304-2.286
		c-1.063,0-1.944,0.54-2.484,0.99l-0.504-1.116c0.792-0.666,1.962-1.188,3.312-1.188c2.502,0,3.564,1.729,3.564,3.402
		c0,2.16-1.566,3.906-4.032,6.282l-0.918,0.864v0.035h5.238V401H96.909z"/>
	<path d="M109.87,401.198c-2.286,0-3.853-2.143-3.888-6.013c0-3.941,1.71-6.084,4.086-6.084c2.447,0,3.87,2.196,3.87,5.923
		c0,3.978-1.494,6.174-4.051,6.174H109.87z M109.942,399.974c1.602,0,2.376-1.89,2.376-4.878c0-2.88-0.721-4.77-2.376-4.77
		c-1.44,0-2.376,1.836-2.376,4.77c-0.036,3.042,0.899,4.878,2.357,4.878H109.942z"/>
	<path d="M119.103,401.198c-2.286,0-3.853-2.143-3.888-6.013c0-3.941,1.71-6.084,4.086-6.084c2.447,0,3.87,2.196,3.87,5.923
		c0,3.978-1.494,6.174-4.051,6.174H119.103z M119.175,399.974c1.602,0,2.376-1.89,2.376-4.878c0-2.88-0.721-4.77-2.376-4.77
		c-1.44,0-2.376,1.836-2.376,4.77c-0.036,3.042,0.899,4.878,2.357,4.878H119.175z"/>
</g>
<g>
	<path d="M145.721,399.2c0.449,0.27,1.476,0.72,2.592,0.72c2.016,0,2.664-1.278,2.646-2.268c-0.018-1.639-1.494-2.341-3.023-2.341
		h-0.883v-1.188h0.883c1.151,0,2.609-0.594,2.609-1.98c0-0.936-0.594-1.764-2.052-1.764c-0.936,0-1.836,0.414-2.34,0.774
		l-0.432-1.152c0.63-0.45,1.817-0.9,3.077-0.9c2.305,0,3.349,1.368,3.349,2.79c0,1.225-0.738,2.25-2.16,2.772v0.036
		c1.439,0.27,2.61,1.35,2.61,2.987c0,1.872-1.477,3.511-4.267,3.511c-1.313,0-2.466-0.414-3.042-0.792L145.721,399.2z"/>
	<path d="M159.472,401v-3.186h-5.437v-1.026l5.221-7.488h1.71v7.29h1.638v1.225h-1.638V401H159.472z M159.472,396.59v-3.924
		c0-0.612,0.018-1.224,0.054-1.836h-0.054c-0.36,0.684-0.648,1.188-0.972,1.746l-2.862,3.978v0.036H159.472z"/>
	<path d="M167.536,401.198c-2.286,0-3.853-2.143-3.888-6.013c0-3.941,1.71-6.084,4.086-6.084c2.447,0,3.87,2.196,3.87,5.923
		c0,3.978-1.494,6.174-4.051,6.174H167.536z M167.608,399.974c1.602,0,2.376-1.89,2.376-4.878c0-2.88-0.721-4.77-2.376-4.77
		c-1.44,0-2.376,1.836-2.376,4.77c-0.036,3.042,0.899,4.878,2.357,4.878H167.608z"/>
	<path d="M176.77,401.198c-2.286,0-3.853-2.143-3.888-6.013c0-3.941,1.71-6.084,4.086-6.084c2.447,0,3.87,2.196,3.87,5.923
		c0,3.978-1.494,6.174-4.051,6.174H176.77z M176.842,399.974c1.602,0,2.376-1.89,2.376-4.878c0-2.88-0.721-4.77-2.376-4.77
		c-1.44,0-2.376,1.836-2.376,4.77c-0.036,3.042,0.899,4.878,2.357,4.878H176.842z"/>
</g>
<g>
	<path d="M203.972,399.2c0.449,0.27,1.476,0.72,2.592,0.72c2.016,0,2.664-1.278,2.646-2.268c-0.018-1.639-1.494-2.341-3.023-2.341
		h-0.883v-1.188h0.883c1.151,0,2.609-0.594,2.609-1.98c0-0.936-0.594-1.764-2.052-1.764c-0.936,0-1.836,0.414-2.34,0.774
		l-0.432-1.152c0.63-0.45,1.817-0.9,3.077-0.9c2.305,0,3.349,1.368,3.349,2.79c0,1.225-0.738,2.25-2.16,2.772v0.036
		c1.439,0.27,2.61,1.35,2.61,2.987c0,1.872-1.477,3.511-4.267,3.511c-1.313,0-2.466-0.414-3.042-0.792L203.972,399.2z"/>
	<path d="M219.505,390.397c-0.324-0.018-0.738,0.019-1.188,0.091c-2.502,0.396-3.798,2.214-4.067,4.157h0.035
		c0.559-0.756,1.549-1.367,2.845-1.367c2.069,0,3.527,1.512,3.527,3.779c0,2.16-1.458,4.141-3.905,4.141
		c-2.484,0-4.122-1.944-4.122-4.986c0-2.304,0.81-4.122,1.979-5.292c0.973-0.954,2.269-1.548,3.744-1.728
		c0.468-0.072,0.864-0.091,1.152-0.091V390.397z M216.786,399.974c1.351,0,2.269-1.134,2.269-2.808s-0.954-2.682-2.412-2.682
		c-0.954,0-1.854,0.575-2.286,1.439c-0.09,0.18-0.162,0.396-0.162,0.685c0.019,1.926,0.918,3.365,2.574,3.365H216.786z"/>
	<path d="M225.787,401.198c-2.286,0-3.853-2.143-3.888-6.013c0-3.941,1.71-6.084,4.086-6.084c2.447,0,3.87,2.196,3.87,5.923
		c0,3.978-1.494,6.174-4.051,6.174H225.787z M225.859,399.974c1.602,0,2.376-1.89,2.376-4.878c0-2.88-0.721-4.77-2.376-4.77
		c-1.44,0-2.376,1.836-2.376,4.77c-0.036,3.042,0.899,4.878,2.357,4.878H225.859z"/>
	<path d="M235.021,401.198c-2.286,0-3.853-2.143-3.888-6.013c0-3.941,1.71-6.084,4.086-6.084c2.447,0,3.87,2.196,3.87,5.923
		c0,3.978-1.494,6.174-4.051,6.174H235.021z M235.093,399.974c1.602,0,2.376-1.89,2.376-4.878c0-2.88-0.721-4.77-2.376-4.77
		c-1.44,0-2.376,1.836-2.376,4.77c-0.036,3.042,0.899,4.878,2.357,4.878H235.093z"/>
</g>
<g>
	<path d="M261.138,399.2c0.449,0.27,1.476,0.72,2.592,0.72c2.016,0,2.664-1.278,2.646-2.268c-0.018-1.639-1.494-2.341-3.023-2.341
		h-0.883v-1.188h0.883c1.151,0,2.609-0.594,2.609-1.98c0-0.936-0.594-1.764-2.052-1.764c-0.936,0-1.836,0.414-2.34,0.774
		l-0.432-1.152c0.63-0.45,1.817-0.9,3.077-0.9c2.305,0,3.349,1.368,3.349,2.79c0,1.225-0.738,2.25-2.16,2.772v0.036
		c1.439,0.27,2.61,1.35,2.61,2.987c0,1.872-1.477,3.511-4.267,3.511c-1.313,0-2.466-0.414-3.042-0.792L261.138,399.2z"/>
	<path d="M273.917,389.102c2.268,0,3.42,1.404,3.42,2.881c0,0.989-0.504,2.069-1.944,2.735v0.054
		c1.458,0.576,2.358,1.62,2.358,3.024c0,2.052-1.746,3.402-3.979,3.402c-2.448,0-3.924-1.44-3.924-3.15
		c0-1.476,0.882-2.538,2.304-3.149v-0.055c-1.313-0.611-1.872-1.62-1.872-2.628c0-1.854,1.566-3.114,3.618-3.114H273.917z
		 M273.826,400.046c1.423,0,2.341-0.882,2.341-2.088c0-1.404-0.99-2.106-2.574-2.556c-1.368,0.396-2.106,1.313-2.106,2.43
		c-0.054,1.17,0.847,2.214,2.322,2.214H273.826z M273.862,390.236c-1.313,0-2.033,0.863-2.033,1.872
		c-0.019,1.17,0.882,1.8,2.231,2.159c1.008-0.342,1.782-1.062,1.782-2.124c0-0.936-0.559-1.907-1.962-1.907H273.862z"/>
	<path d="M282.953,401.198c-2.286,0-3.853-2.143-3.888-6.013c0-3.941,1.71-6.084,4.086-6.084c2.447,0,3.87,2.196,3.87,5.923
		c0,3.978-1.494,6.174-4.051,6.174H282.953z M283.025,399.974c1.602,0,2.376-1.89,2.376-4.878c0-2.88-0.721-4.77-2.376-4.77
		c-1.44,0-2.376,1.836-2.376,4.77c-0.036,3.042,0.899,4.878,2.357,4.878H283.025z"/>
	<path d="M292.187,401.198c-2.286,0-3.853-2.143-3.888-6.013c0-3.941,1.71-6.084,4.086-6.084c2.447,0,3.87,2.196,3.87,5.923
		c0,3.978-1.494,6.174-4.051,6.174H292.187z M292.259,399.974c1.602,0,2.376-1.89,2.376-4.878c0-2.88-0.721-4.77-2.376-4.77
		c-1.44,0-2.376,1.836-2.376,4.77c-0.036,3.042,0.899,4.878,2.357,4.878H292.259z"/>
</g>
<g>
	<path d="M325.572,401v-3.187h-5.437v-1.025l5.221-7.488h1.71v7.29h1.638v1.224h-1.638V401H325.572z M325.572,396.59v-3.924
		c0-0.612,0.018-1.224,0.054-1.836h-0.054c-0.36,0.684-0.648,1.188-0.972,1.746l-2.862,3.978v0.036H325.572z"/>
	<path d="M333.636,401.198c-2.286,0-3.853-2.143-3.888-6.013c0-3.941,1.71-6.084,4.086-6.084c2.447,0,3.87,2.196,3.87,5.923
		c0,3.978-1.494,6.174-4.051,6.174H333.636z M333.708,399.974c1.602,0,2.376-1.89,2.376-4.878c0-2.88-0.721-4.77-2.376-4.77
		c-1.44,0-2.376,1.836-2.376,4.77c-0.036,3.042,0.899,4.878,2.357,4.878H333.708z"/>
	<path d="M342.87,401.198c-2.286,0-3.853-2.143-3.888-6.013c0-3.941,1.71-6.084,4.086-6.084c2.447,0,3.87,2.196,3.87,5.923
		c0,3.978-1.494,6.174-4.051,6.174H342.87z M342.942,399.974c1.602,0,2.376-1.89,2.376-4.878c0-2.88-0.721-4.77-2.376-4.77
		c-1.44,0-2.376,1.836-2.376,4.77c-0.036,3.042,0.899,4.878,2.357,4.878H342.942z"/>
	<path d="M352.104,401.198c-2.286,0-3.853-2.143-3.888-6.013c0-3.941,1.71-6.084,4.086-6.084c2.447,0,3.87,2.196,3.87,5.923
		c0,3.978-1.494,6.174-4.051,6.174H352.104z M352.176,399.974c1.602,0,2.376-1.89,2.376-4.878c0-2.88-0.721-4.77-2.376-4.77
		c-1.44,0-2.376,1.836-2.376,4.77c-0.036,3.042,0.899,4.878,2.357,4.878H352.176z"/>
</g>
<g>
	<path d="M154.619,418.199h-3.69v-1.332h8.982v1.332h-3.708V429h-1.584V418.199z"/>
	<path d="M162.035,418.686c-0.594,0-0.99-0.468-0.99-1.025c0-0.559,0.414-1.008,1.026-1.008s1.008,0.449,1.008,1.008
		c0,0.558-0.396,1.025-1.026,1.025H162.035z M161.279,429v-8.712h1.584V429H161.279z"/>
	<path d="M165.491,422.646c0-0.918-0.036-1.639-0.072-2.358h1.386l0.072,1.403h0.054c0.486-0.828,1.296-1.602,2.754-1.602
		c1.17,0,2.07,0.721,2.448,1.746h0.036c0.27-0.504,0.63-0.863,0.99-1.134c0.522-0.396,1.08-0.612,1.908-0.612
		c1.17,0,2.88,0.756,2.88,3.78V429h-1.548v-4.932c0-1.692-0.63-2.683-1.89-2.683c-0.918,0-1.602,0.666-1.89,1.423
		c-0.072,0.233-0.126,0.521-0.126,0.791v5.4h-1.548v-5.221c0-1.403-0.612-2.394-1.818-2.394c-0.972,0-1.71,0.792-1.962,1.584
		c-0.09,0.234-0.126,0.505-0.126,0.774V429h-1.548V422.646z"/>
	<path d="M181.402,424.914c0.036,2.143,1.386,3.023,2.97,3.023c1.134,0,1.836-0.197,2.412-0.432l0.288,1.116
		c-0.558,0.252-1.53,0.558-2.916,0.558c-2.664,0-4.284-1.781-4.284-4.392c0-2.646,1.566-4.716,4.104-4.716
		c2.844,0,3.582,2.502,3.582,4.104c0,0.324-0.018,0.576-0.054,0.756L181.402,424.914z M186.028,423.779
		c0.018-0.989-0.414-2.573-2.178-2.573c-1.62,0-2.304,1.476-2.43,2.573H186.028z"/>
	<path d="M196.756,416.508c-1.314,1.782-2.25,4.104-2.25,7.381c0,3.203,0.99,5.489,2.25,7.289h-1.224
		c-1.134-1.494-2.358-3.798-2.358-7.308c0.018-3.528,1.224-5.851,2.358-7.362H196.756z"/>
	<path d="M198.448,422.646c0-0.918-0.036-1.639-0.072-2.358h1.386l0.072,1.403h0.054c0.486-0.828,1.296-1.602,2.754-1.602
		c1.17,0,2.07,0.721,2.448,1.746h0.036c0.27-0.504,0.63-0.863,0.99-1.134c0.522-0.396,1.08-0.612,1.908-0.612
		c1.17,0,2.88,0.756,2.88,3.78V429h-1.548v-4.932c0-1.692-0.63-2.683-1.89-2.683c-0.918,0-1.602,0.666-1.89,1.423
		c-0.072,0.233-0.126,0.521-0.126,0.791v5.4h-1.548v-5.221c0-1.403-0.612-2.394-1.818-2.394c-0.972,0-1.71,0.792-1.962,1.584
		c-0.09,0.234-0.126,0.505-0.126,0.774V429h-1.548V422.646z"/>
	<path d="M213.244,427.398c0.486,0.287,1.314,0.611,2.106,0.611c1.134,0,1.674-0.558,1.674-1.296c0-0.756-0.45-1.17-1.602-1.603
		c-1.584-0.575-2.322-1.422-2.322-2.465c0-1.404,1.152-2.557,3.006-2.557c0.882,0,1.656,0.234,2.124,0.54l-0.378,1.134
		c-0.342-0.197-0.972-0.504-1.782-0.504c-0.936,0-1.44,0.54-1.44,1.188c0,0.738,0.504,1.063,1.638,1.494
		c1.494,0.559,2.286,1.314,2.286,2.629c0,1.548-1.206,2.628-3.24,2.628c-0.954,0-1.836-0.253-2.448-0.612L213.244,427.398z"/>
	<path d="M219.634,431.178c1.26-1.781,2.25-4.104,2.25-7.344s-0.972-5.525-2.25-7.326h1.224c1.134,1.477,2.358,3.799,2.358,7.326
		c-0.018,3.527-1.224,5.814-2.358,7.344H219.634z"/>
</g>
<g>
	<path fill="#FF0000" d="M421.189,37.143l-3.979-12.132h1.71l1.891,5.976c0.504,1.638,0.954,3.132,1.296,4.536h0.036
		c0.342-1.404,0.828-2.934,1.386-4.518l2.052-5.994h1.674l-4.338,12.132H421.189z"/>
	<path fill="#FF0000" d="M427.967,39.432c0-0.535-0.021-0.955-0.042-1.375h0.809l0.042,0.818h0.031
		c0.283-0.482,0.756-0.934,1.605-0.934c0.683,0,1.207,0.419,1.428,1.018h0.021c0.157-0.293,0.367-0.503,0.577-0.661
		c0.305-0.231,0.63-0.356,1.112-0.356c0.683,0,1.68,0.44,1.68,2.204v2.991h-0.903v-2.875c0-0.986-0.367-1.563-1.102-1.563
		c-0.535,0-0.934,0.388-1.102,0.829c-0.042,0.136-0.073,0.304-0.073,0.461v3.148h-0.903v-3.043c0-0.818-0.356-1.396-1.06-1.396
		c-0.566,0-0.997,0.462-1.144,0.923c-0.053,0.137-0.073,0.294-0.073,0.451v3.064h-0.903V39.432z"/>
	<path fill="#FF0000" d="M444.503,24.65c-1.314,1.782-2.25,4.104-2.25,7.38c0,3.204,0.989,5.49,2.25,7.29h-1.225
		c-1.134-1.494-2.357-3.798-2.357-7.308c0.018-3.528,1.224-5.85,2.357-7.362H444.503z"/>
	<path fill="#FF0000" d="M449.957,37.143l-3.979-12.132h1.71l1.891,5.976c0.504,1.638,0.954,3.132,1.296,4.536h0.036
		c0.342-1.404,0.828-2.934,1.386-4.518l2.052-5.994h1.674l-4.338,12.132H449.957z"/>
	<path fill="#FF0000" d="M457.463,39.321c1.26-1.782,2.25-4.104,2.25-7.344c0-3.24-0.973-5.526-2.25-7.326h1.224
		c1.134,1.476,2.358,3.798,2.358,7.326c-0.019,3.528-1.225,5.814-2.358,7.344H457.463z"/>
</g>
<g>
	<path fill="#00A33D" d="M390.451,53.481c0-1.026-0.019-1.908-0.072-2.718h1.386l0.072,1.71h0.054
		c0.396-1.17,1.368-1.908,2.43-1.908c0.162,0,0.288,0.018,0.433,0.054v1.476c-0.181-0.018-0.342-0.036-0.559-0.036
		c-1.116,0-1.907,0.846-2.124,2.016c-0.035,0.234-0.054,0.486-0.054,0.756v4.644h-1.584L390.451,53.481z"/>
	<path fill="#00A33D" d="M400.927,47.775l-1.71,2.232v0.036l2.718-0.36v1.224l-2.718-0.324v0.036l1.729,2.178l-1.135,0.63
		l-1.098-2.52h-0.036l-1.152,2.538l-1.025-0.648l1.71-2.196v-0.036l-2.664,0.342v-1.224l2.646,0.342v-0.036l-1.691-2.214
		l1.098-0.612l1.116,2.484h0.036l1.098-2.502L400.927,47.775z"/>
	<path fill="#00A33D" d="M406.723,49.251h-0.036l-2.034,1.098l-0.306-1.206l2.556-1.368h1.351v11.7h-1.53V49.251z"/>
	<path fill="#00A33D" d="M416.244,59.673c-2.286,0-3.853-2.142-3.888-6.012c0-3.942,1.71-6.084,4.086-6.084
		c2.447,0,3.87,2.196,3.87,5.922c0,3.978-1.494,6.174-4.051,6.174H416.244z M416.316,58.449c1.602,0,2.376-1.89,2.376-4.878
		c0-2.88-0.721-4.771-2.376-4.771c-1.44,0-2.376,1.836-2.376,4.771c-0.036,3.042,0.899,4.878,2.357,4.878H416.316z"/>
	<path fill="#00A33D" d="M429.492,46.983c-1.314,1.782-2.25,4.104-2.25,7.38c0,3.204,0.989,5.49,2.25,7.29h-1.225
		c-1.134-1.494-2.357-3.798-2.357-7.308c0.018-3.528,1.224-5.85,2.357-7.362H429.492z"/>
	<path fill="#00A33D" d="M431.185,53.121c0-0.918-0.019-1.638-0.072-2.358h1.404l0.09,1.422h0.036c0.432-0.81,1.439-1.62,2.88-1.62
		c1.206,0,3.078,0.72,3.078,3.708v5.202h-1.584v-5.022c0-1.404-0.522-2.592-2.017-2.592c-1.025,0-1.836,0.738-2.124,1.62
		c-0.072,0.198-0.107,0.486-0.107,0.738v5.256h-1.584V53.121z"/>
	<path fill="#00A33D" d="M441.84,59.673c-0.612,0-1.045-0.486-1.045-1.134s0.45-1.134,1.08-1.134c0.631,0,1.063,0.468,1.063,1.134
		c0,0.648-0.432,1.134-1.08,1.134H441.84z"/>
	<path fill="#00A33D" d="M452.423,46.695v10.53c0,0.774,0.019,1.656,0.072,2.25h-1.422l-0.072-1.512h-0.036
		c-0.485,0.972-1.53,1.71-2.952,1.71c-2.105,0-3.744-1.782-3.744-4.428c-0.018-2.916,1.801-4.68,3.906-4.68
		c1.351,0,2.25,0.63,2.628,1.314h0.036v-5.184H452.423z M450.839,54.309c0-0.216-0.018-0.468-0.072-0.684
		c-0.233-0.99-1.098-1.818-2.285-1.818c-1.639,0-2.61,1.44-2.61,3.348c0,1.782,0.882,3.24,2.574,3.24c1.062,0,2.034-0.72,2.321-1.89
		c0.055-0.216,0.072-0.432,0.072-0.684V54.309z"/>
	<path fill="#00A33D" d="M455.357,59.673c-0.612,0-1.045-0.486-1.045-1.134s0.45-1.134,1.08-1.134c0.631,0,1.063,0.468,1.063,1.134
		c0,0.648-0.432,1.134-1.08,1.134H455.357z"/>
	<path fill="#00A33D" d="M457.464,61.653c1.26-1.782,2.25-4.104,2.25-7.344c0-3.24-0.973-5.526-2.25-7.326h1.224
		c1.134,1.476,2.358,3.798,2.358,7.326c-0.019,3.528-1.225,5.814-2.358,7.344H457.464z"/>
</g>
<g>
	<path fill="#2210D2" d="M409.097,70.674h-3.689v-1.332h8.981v1.332h-3.708v10.8h-1.584V70.674z"/>
	<path fill="#2210D2" d="M420.725,79.387c0,0.756,0.036,1.494,0.126,2.088h-1.422l-0.145-1.098h-0.054
		c-0.468,0.684-1.422,1.296-2.664,1.296c-1.764,0-2.664-1.242-2.664-2.502c0-2.106,1.872-3.258,5.238-3.24v-0.18
		c0-0.72-0.198-2.034-1.98-2.016c-0.828,0-1.674,0.234-2.286,0.648l-0.359-1.062c0.72-0.45,1.782-0.756,2.88-0.756
		c2.682,0,3.33,1.818,3.33,3.564V79.387z M419.177,77.029c-1.729-0.036-3.69,0.27-3.69,1.962c0,1.044,0.685,1.512,1.477,1.512
		c1.151,0,1.89-0.72,2.142-1.458c0.054-0.162,0.072-0.342,0.072-0.504V77.029z"/>
	<path fill="#2210D2" d="M430.499,68.982c-1.314,1.782-2.25,4.104-2.25,7.38c0,3.204,0.989,5.49,2.25,7.29h-1.225
		c-1.134-1.494-2.357-3.798-2.357-7.308c0.018-3.528,1.224-5.85,2.357-7.362H430.499z"/>
	<path fill="#2210D2" d="M433.775,76.759h0.035c0.217-0.306,0.505-0.702,0.757-0.99l2.573-3.006h1.891l-3.366,3.582l3.834,5.13
		h-1.926l-2.988-4.194l-0.81,0.918v3.276h-1.584v-12.78h1.584V76.759z"/>
	<path fill="#2210D2" d="M440.687,69.504c0.756-0.144,1.746-0.252,3.006-0.252c1.548,0,2.682,0.36,3.402,1.008
		c0.666,0.576,1.08,1.458,1.08,2.538c0,1.098-0.324,1.962-0.954,2.592c-0.828,0.882-2.179,1.332-3.708,1.332
		c-0.469,0-0.9-0.018-1.261-0.108v4.86h-1.565V69.504z M442.252,75.336c0.343,0.09,0.792,0.126,1.297,0.126
		c1.907,0,3.042-0.936,3.042-2.574c0-1.62-1.135-2.394-2.862-2.394c-0.685,0-1.206,0.072-1.477,0.126V75.336z"/>
	<path fill="#2210D2" d="M455.879,79.387c0,0.756,0.036,1.494,0.126,2.088h-1.422l-0.145-1.098h-0.054
		c-0.468,0.684-1.422,1.296-2.664,1.296c-1.764,0-2.664-1.242-2.664-2.502c0-2.106,1.872-3.258,5.238-3.24v-0.18
		c0-0.72-0.198-2.034-1.98-2.016c-0.828,0-1.674,0.234-2.286,0.648l-0.359-1.062c0.72-0.45,1.782-0.756,2.88-0.756
		c2.682,0,3.33,1.818,3.33,3.564V79.387z M454.331,77.029c-1.729-0.036-3.69,0.27-3.69,1.962c0,1.044,0.685,1.512,1.477,1.512
		c1.151,0,1.89-0.72,2.142-1.458c0.054-0.162,0.072-0.342,0.072-0.504V77.029z"/>
	<path fill="#2210D2" d="M457.463,83.653c1.26-1.782,2.25-4.104,2.25-7.344c0-3.24-0.973-5.526-2.25-7.326h1.224
		c1.134,1.476,2.358,3.798,2.358,7.326c-0.019,3.528-1.225,5.814-2.358,7.344H457.463z"/>
</g>
<line fill="none" stroke="#FF0000" x1="478.334" y1="34.857" x2="545" y2="34.857"/>
<line fill="none" stroke="#00A33D" x1="478.334" y1="54.192" x2="545" y2="54.192"/>
<line fill="none" stroke="#2210D2" x1="478.334" y1="76.192" x2="545" y2="76.192"/>
</svg>
