<?xml version="1.0" encoding="utf-8"?>
<!-- Generator: Adobe Illustrator 14.0.0, SVG Export Plug-In . SVG Version: 6.00 Build 43363)  -->
<!DOCTYPE svg PUBLIC "-//W3C//DTD SVG 1.1//EN" "http://www.w3.org/Graphics/SVG/1.1/DTD/svg11.dtd">
<svg version="1.1" id="Layer_1" xmlns="http://www.w3.org/2000/svg" xmlns:xlink="http://www.w3.org/1999/xlink" x="0px" y="0px"
	 width="841.89px" height="595.28px" viewBox="0 0 841.89 595.28" enable-background="new 0 0 841.89 595.28" xml:space="preserve">
<g>
	<g>
		<g>
			<path fill="#71C05B" stroke="#010101" stroke-width="0.9714" d="M599.084,59.813H252.495
				c-96.038,0-173.894,106.926-173.894,238.827s77.856,238.827,173.894,238.827h347.788"/>
			<path fill="#71C05B" stroke="#010101" stroke-width="0.9714" d="M597.891,59.811c96.04,0,173.894,106.926,173.894,238.827
				c0,131.901-77.854,238.823-173.895,238.823"/>
		</g>
		<g>
			<path fill="#C0DD97" stroke="#010101" stroke-width="0.9714" d="M584.81,86.042H266.674c-88.156,0-159.62,95.183-159.62,212.598
				c0,117.414,71.463,212.599,159.62,212.599H585.91"/>
			<path fill="#C0DD97" stroke="#010101" stroke-width="0.9714" d="M583.714,86.04c88.155,0,159.618,95.183,159.618,212.598
				c0,117.415-71.463,212.595-159.619,212.595"/>
		</g>
	</g>
	
		<radialGradient id="path21243_1_" cx="-2055.9336" cy="955.3369" r="26.1592" gradientTransform="matrix(1 0 0 1 2356.3779 -885.8555)" gradientUnits="userSpaceOnUse">
		<stop  offset="0" style="stop-color:#FCFADF"/>
		<stop  offset="0.1203" style="stop-color:#FCF9D9"/>
		<stop  offset="0.2662" style="stop-color:#FDF7C9"/>
		<stop  offset="0.4255" style="stop-color:#FCF5B1"/>
		<stop  offset="0.5943" style="stop-color:#FDEE8E"/>
		<stop  offset="0.7706" style="stop-color:#FCE766"/>
		<stop  offset="0.9506" style="stop-color:#FCDF2E"/>
		<stop  offset="1" style="stop-color:#FDDE18"/>
	</radialGradient>
	<path id="path21243_4_" fill="url(#path21243_1_)" stroke="#010101" stroke-width="0.9714" d="M326.604,69.482
		c0,14.446-11.716,26.158-26.161,26.158c-14.451,0-26.158-11.712-26.158-26.158c0-14.45,11.708-26.161,26.158-26.161
		C314.888,43.324,326.604,55.032,326.604,69.482z"/>
	<g>
		<g>
			<g>
				<path fill="none" stroke="#010101" stroke-width="0.9714" d="M274.397,22.916c51.603,40.135,18.859,91.343-22.961,94.979"/>
				<polygon fill="#010101" points="253.843,114.075 252.632,117.791 254.466,121.243 245.66,118.397 				"/>
			</g>
		</g>
	</g>
	<g>
		
			<radialGradient id="path16609_10_" cx="269.0137" cy="-646.0757" r="12.6701" gradientTransform="matrix(1.5933 0 0 0.6358 -173.5678 432.6823)" gradientUnits="userSpaceOnUse">
			<stop  offset="0" style="stop-color:#FDFBE1"/>
			<stop  offset="0.1203" style="stop-color:#FFFAD9"/>
			<stop  offset="0.2662" style="stop-color:#FFF8CA"/>
			<stop  offset="0.4255" style="stop-color:#FEF6B1"/>
			<stop  offset="0.5943" style="stop-color:#FEEF8B"/>
			<stop  offset="0.7706" style="stop-color:#FDE958"/>
			<stop  offset="0.9506" style="stop-color:#FEE200"/>
			<stop  offset="1" style="stop-color:#FEE000"/>
		</radialGradient>
		<path id="path16609_5_" fill="url(#path16609_10_)" stroke="#010101" stroke-width="0.9714" d="M274.868,21.907
			c0,4.529-8.875,8.201-19.817,8.201c-10.943,0-19.815-3.671-19.815-8.201c0-4.531,8.872-8.201,19.815-8.201
			C265.994,13.708,274.868,17.377,274.868,21.907z"/>
		<text transform="matrix(1 0 0 1 246.5503 24.6636)" fill="#010101" font-family="'MyriadPro-Regular'" font-size="9.3935">ADP</text>
	</g>
	<g>
		
			<radialGradient id="path16609_27_" cx="251.396" cy="-235.7607" r="12.6706" gradientTransform="matrix(1.5933 0 0 0.6358 -173.5678 432.6823)" gradientUnits="userSpaceOnUse">
			<stop  offset="0" style="stop-color:#FDFBE1"/>
			<stop  offset="0.1203" style="stop-color:#FFFAD9"/>
			<stop  offset="0.2662" style="stop-color:#FFF8CA"/>
			<stop  offset="0.4255" style="stop-color:#FEF6B1"/>
			<stop  offset="0.5943" style="stop-color:#FEEF8B"/>
			<stop  offset="0.7706" style="stop-color:#FDE958"/>
			<stop  offset="0.9506" style="stop-color:#FEE200"/>
			<stop  offset="1" style="stop-color:#FEE000"/>
		</radialGradient>
		<path id="path16609_3_" fill="url(#path16609_27_)" stroke="#010101" stroke-width="0.9714" d="M246.798,282.785
			c0,4.529-8.876,8.202-19.817,8.202c-10.944,0-19.816-3.671-19.816-8.202s8.873-8.2,19.816-8.2
			C237.922,274.584,246.798,278.254,246.798,282.785z"/>
		<text transform="matrix(1 0 0 1 219.2729 285.5415)" fill="#010101" font-family="'MyriadPro-Regular'" font-size="9.3935">ATP</text>
	</g>
	<g>
		
			<radialGradient id="path16609_28_" cx="345.6201" cy="-646.0757" r="12.6701" gradientTransform="matrix(1.5933 0 0 0.6358 -173.5678 432.6823)" gradientUnits="userSpaceOnUse">
			<stop  offset="0" style="stop-color:#FDFBE1"/>
			<stop  offset="0.1203" style="stop-color:#FFFAD9"/>
			<stop  offset="0.2662" style="stop-color:#FFF8CA"/>
			<stop  offset="0.4255" style="stop-color:#FEF6B1"/>
			<stop  offset="0.5943" style="stop-color:#FEEF8B"/>
			<stop  offset="0.7706" style="stop-color:#FDE958"/>
			<stop  offset="0.9506" style="stop-color:#FEE200"/>
			<stop  offset="1" style="stop-color:#FEE000"/>
		</radialGradient>
		<path id="path16609_4_" fill="url(#path16609_28_)" stroke="#010101" stroke-width="0.9714" d="M396.925,21.906
			c0,4.53-8.875,8.202-19.817,8.202c-10.944,0-19.816-3.671-19.816-8.202c0-4.53,8.873-8.2,19.816-8.2
			C388.05,13.708,396.925,17.377,396.925,21.906z"/>
		<text transform="matrix(1 0 0 1 369.4004 24.6626)" fill="#010101" font-family="'MyriadPro-Regular'" font-size="9.3935">ATP</text>
	</g>
	<g>
		<g>
			<path fill="none" stroke="#010101" stroke-width="0.9545" d="M215.689,225.893c-80.938-10.77-141.066,48.523-14.744,58.458"/>
			<polygon fill="#010101" points="197.996,287.664 199.77,284.258 198.55,280.616 206.626,284.797 			"/>
		</g>
	</g>
	<path fill="none" stroke="#010101" stroke-width="0.9714" d="M367.606,295.311"/>
	<g>
		<path fill="none" stroke="#010101" stroke-width="0.9714" d="M367.792,301.476"/>
	</g>
	<path fill="none" stroke="#010101" stroke-width="0.9714" d="M468.628,396.33"/>
	<g>
		<path fill="none" stroke="#010101" stroke-width="0.9714" d="M555.404,347.061"/>
	</g>
	<path fill="none" stroke="#010101" stroke-width="0.9714" d="M569.649,295.311"/>
	<g>
		<path fill="none" stroke="#010101" stroke-width="0.9714" d="M569.289,286.724"/>
	</g>
	<path fill="none" stroke="#010101" stroke-width="0.9714" d="M468.628,194.288"/>
	<g>
		<g>
			<path fill="none" stroke="#010101" stroke-width="0.9714" d="M484.6,177.028c61.535-2.458,131.477-0.516,145.23,24.94"/>
			<polygon fill="#010101" points="625.368,201.277 629.26,200.912 631.699,197.857 632.587,207.069 			"/>
		</g>
	</g>
	<text transform="matrix(1 0 0 1 579.1621 572.7422)" fill="#010101" font-family="'MyriadPro-Regular'" font-size="11.657">cytosol</text>
	<text transform="matrix(1 0 0 1 566.0674 458.1152)"><tspan x="0" y="0" fill="#010101" font-family="'MyriadPro-Regular'" font-size="11.657">Mitochondrial </tspan><tspan x="20.044" y="13.988" fill="#010101" font-family="'MyriadPro-Regular'" font-size="11.657">Matrix</tspan></text>
	<text transform="matrix(1 0 0 1 521.3828 521.2568)"><tspan x="0" y="0" fill="#010101" font-family="'MyriadPro-Regular'" font-size="11.657">Mitochondrial </tspan><tspan x="8.783" y="13.988" fill="#010101" font-family="'MyriadPro-Regular'" font-size="11.657">Membrane</tspan></text>
	<g>
		<g>
			<g>
				<line fill="none" stroke="#010101" stroke-width="0.9714" x1="130.846" y1="362.996" x2="71.282" y2="362.996"/>
				<polygon fill="#010101" points="128.118,366.594 129.646,362.996 128.118,359.397 136.645,362.996 				"/>
			</g>
		</g>
		<g>
			<g>
				
					<radialGradient id="SVGID_1_" cx="1315.8086" cy="-822.4092" r="17.6988" gradientTransform="matrix(-4.371139e-08 -1 1 -4.371139e-08 923.4736 1678.8042)" gradientUnits="userSpaceOnUse">
					<stop  offset="0" style="stop-color:#FDFBE1"/>
					<stop  offset="0.1203" style="stop-color:#FEFBDC"/>
					<stop  offset="0.2662" style="stop-color:#FFFACC"/>
					<stop  offset="0.4255" style="stop-color:#FEF6B3"/>
					<stop  offset="0.5943" style="stop-color:#FEF091"/>
					<stop  offset="0.7706" style="stop-color:#FEEA64"/>
					<stop  offset="0.9506" style="stop-color:#FEE22D"/>
					<stop  offset="1" style="stop-color:#FEE01B"/>
				</radialGradient>
				<path fill="url(#SVGID_1_)" d="M119.17,362.996c2.74-0.899,4.641-2.775,4.641-4.938c0-3.027-3.717-5.506-8.261-5.506H86.578
					c-4.544,0-8.261,2.479-8.261,5.506c0,2.162,1.901,4.038,4.641,4.938c-2.74,0.898-4.641,2.774-4.641,4.937
					c0,3.028,3.717,5.506,8.261,5.506h28.972c4.544,0,8.261-2.478,8.261-5.506C123.811,365.771,121.91,363.895,119.17,362.996z"/>
			</g>
			<g>
				<path fill="none" stroke="#010101" stroke-width="0.9714" d="M119.17,362.996c2.74-0.899,4.641-2.775,4.641-4.938
					c0-3.027-3.717-5.506-8.261-5.506H86.578c-4.544,0-8.261,2.479-8.261,5.506c0,2.162,1.901,4.038,4.641,4.938
					c-2.74,0.898-4.641,2.774-4.641,4.937c0,3.028,3.717,5.506,8.261,5.506h28.972c4.544,0,8.261-2.478,8.261-5.506
					C123.811,365.771,121.91,363.895,119.17,362.996z"/>
			</g>
		</g>
		<text transform="matrix(1 -0.0054 0.0054 1 95.894 367.5146)" fill="#010101" font-family="'Myriad-Roman'" font-size="9.7142">H</text>
		
			<text transform="matrix(0.7 -0.0037 0.0037 0.7 102.2104 364.2461)" fill="#010101" font-family="'Myriad-Roman'" font-size="9.7142">+</text>
	</g>
	<g>
		<g>
			
				<radialGradient id="path16609_29_" cx="251.3965" cy="-326.7529" r="12.6703" gradientTransform="matrix(1.5933 0 0 0.6358 -173.5678 432.6823)" gradientUnits="userSpaceOnUse">
				<stop  offset="0" style="stop-color:#FDFBE1"/>
				<stop  offset="0.1203" style="stop-color:#FFFAD9"/>
				<stop  offset="0.2662" style="stop-color:#FFF8CA"/>
				<stop  offset="0.4255" style="stop-color:#FEF6B1"/>
				<stop  offset="0.5943" style="stop-color:#FEEF8B"/>
				<stop  offset="0.7706" style="stop-color:#FDE958"/>
				<stop  offset="0.9506" style="stop-color:#FEE200"/>
				<stop  offset="1" style="stop-color:#FEE000"/>
			</radialGradient>
			<path id="path16609_2_" fill="url(#path16609_29_)" stroke="#010101" stroke-width="0.9714" d="M246.798,224.933
				c0,4.529-8.875,8.201-19.817,8.201c-10.944,0-19.815-3.67-19.815-8.201c0-4.532,8.872-8.201,19.815-8.201
				C237.923,216.734,246.798,220.403,246.798,224.933z"/>
			<text transform="matrix(1 0 0 1 218.4795 227.6899)" fill="#010101" font-family="'MyriadPro-Regular'" font-size="9.3935">ADP</text>
		</g>
		<g>
			<path id="path19818" fill="#F6EB16" stroke="#010101" stroke-width="0.9714" d="M268.785,224.933
				c0,2.603-2.037,4.715-4.547,4.715c-2.511,0-4.546-2.112-4.546-4.715s2.035-4.715,4.546-4.715
				C266.748,220.218,268.785,222.33,268.785,224.933z"/>
			<text transform="matrix(0.9643 0 0 1 262.2588 227.1958)" fill="#EE3E96" font-family="'Myriad-Roman'" font-size="7.7132">P</text>
		</g>
		<text transform="matrix(1 0 0 1 249.8516 228.354)" font-family="'MyriadPro-Regular'" font-size="11.657">+</text>
	</g>
	
		<radialGradient id="path21243_2_" cx="-2254.3643" cy="1138.6895" r="27.3337" gradientTransform="matrix(1 0 0 1 2356.3779 -885.8555)" gradientUnits="userSpaceOnUse">
		<stop  offset="0" style="stop-color:#FCFADF"/>
		<stop  offset="0.1203" style="stop-color:#FCF9D9"/>
		<stop  offset="0.2662" style="stop-color:#FDF7C9"/>
		<stop  offset="0.4255" style="stop-color:#FCF5B1"/>
		<stop  offset="0.5943" style="stop-color:#FDEE8E"/>
		<stop  offset="0.7706" style="stop-color:#FCE766"/>
		<stop  offset="0.9506" style="stop-color:#FCDF2E"/>
		<stop  offset="1" style="stop-color:#FDDE18"/>
	</radialGradient>
	<path id="path21243_3_" fill="url(#path21243_2_)" stroke="#010101" stroke-width="0.9714" d="M129.347,252.836
		c0,15.093-12.242,27.332-27.336,27.332c-15.099,0-27.331-12.239-27.331-27.332c0-15.099,12.232-27.335,27.331-27.335
		C117.105,225.501,129.347,237.737,129.347,252.836z"/>
	<g>
		<g>
			<line fill="none" stroke="#010101" stroke-width="0.9714" x1="55.21" y1="254.409" x2="171.063" y2="254.409"/>
			<polygon fill="#010101" points="168.334,258.006 169.862,254.409 168.334,250.811 176.862,254.409 			"/>
		</g>
	</g>
	<text transform="matrix(1 0 0 1 29.8325 259.7705)" fill="#010101" font-family="'Myriad-Roman'" font-size="11.657">3H</text>
	<text transform="matrix(0.7 0 0 0.7 43.4126 255.8887)" fill="#010101" font-family="'Myriad-Roman'" font-size="11.657">+</text>
	<text transform="matrix(1 0 0 1 193.0308 259.7705)" fill="#010101" font-family="'Myriad-Roman'" font-size="11.657">3H</text>
	<text transform="matrix(0.7 0 0 0.7 206.6108 255.8887)" fill="#010101" font-family="'Myriad-Roman'" font-size="11.657">+</text>
	<text transform="matrix(1 0 0 1 265.4082 591.9951)" fill="#010101" font-family="'Myriad-Roman'" font-size="11.657">10H</text>
	<text transform="matrix(0.7 0 0 0.7 284.9683 588.1133)" fill="#010101" font-family="'Myriad-Roman'" font-size="11.657">+</text>
	<g>
		<g>
			<g>
				<path fill="none" stroke="#010101" stroke-width="0.9714" d="M328.404,117.896c-51.603-40.135-18.859-91.343,22.961-94.979"/>
				<polygon fill="#010101" points="348.959,26.736 350.169,23.021 348.335,19.568 357.142,22.414 				"/>
			</g>
		</g>
	</g>
	<g>
		
			<radialGradient id="path16609_30_" cx="249.5039" cy="-493.2886" r="12.6701" gradientTransform="matrix(1.5933 0 0 0.6358 -173.5678 432.6823)" gradientUnits="userSpaceOnUse">
			<stop  offset="0" style="stop-color:#FDFBE1"/>
			<stop  offset="0.1203" style="stop-color:#FFFAD9"/>
			<stop  offset="0.2662" style="stop-color:#FFF8CA"/>
			<stop  offset="0.4255" style="stop-color:#FEF6B1"/>
			<stop  offset="0.5943" style="stop-color:#FEEF8B"/>
			<stop  offset="0.7706" style="stop-color:#FDE958"/>
			<stop  offset="0.9506" style="stop-color:#FEE200"/>
			<stop  offset="1" style="stop-color:#FEE000"/>
		</radialGradient>
		<path id="path16609_7_" fill="url(#path16609_30_)" stroke="#010101" stroke-width="0.9714" d="M243.783,119.049
			c0,4.529-8.875,8.202-19.817,8.202c-10.943,0-19.815-3.671-19.815-8.202s8.872-8.2,19.815-8.2
			C234.908,110.849,243.783,114.518,243.783,119.049z"/>
		<text transform="matrix(1 0 0 1 215.4648 121.8057)" fill="#010101" font-family="'MyriadPro-Regular'" font-size="9.3935">ADP</text>
	</g>
	<g>
		
			<radialGradient id="path16609_31_" cx="326.1099" cy="-493.2886" r="12.6703" gradientTransform="matrix(1.5933 0 0 0.6358 -173.5678 432.6823)" gradientUnits="userSpaceOnUse">
			<stop  offset="0" style="stop-color:#FDFBE1"/>
			<stop  offset="0.1203" style="stop-color:#FFFAD9"/>
			<stop  offset="0.2662" style="stop-color:#FFF8CA"/>
			<stop  offset="0.4255" style="stop-color:#FEF6B1"/>
			<stop  offset="0.5943" style="stop-color:#FEEF8B"/>
			<stop  offset="0.7706" style="stop-color:#FDE958"/>
			<stop  offset="0.9506" style="stop-color:#FEE200"/>
			<stop  offset="1" style="stop-color:#FEE000"/>
		</radialGradient>
		<path id="path16609_6_" fill="url(#path16609_31_)" stroke="#010101" stroke-width="0.9714" d="M365.84,119.049
			c0,4.529-8.875,8.202-19.817,8.202c-10.943,0-19.816-3.671-19.816-8.202s8.873-8.2,19.816-8.2
			C356.964,110.849,365.84,114.518,365.84,119.049z"/>
		<text transform="matrix(1 0 0 1 338.3149 121.8042)" fill="#010101" font-family="'MyriadPro-Regular'" font-size="9.3935">ATP</text>
	</g>
	
		<radialGradient id="path21243_6_" cx="-1574.833" cy="608.8965" r="27.3335" gradientTransform="matrix(-4.371139e-08 -1 1 -4.371139e-08 -332.8496 -1050.0874)" gradientUnits="userSpaceOnUse">
		<stop  offset="0" style="stop-color:#FCFADF"/>
		<stop  offset="0.1203" style="stop-color:#FCF9D9"/>
		<stop  offset="0.2662" style="stop-color:#FDF7C9"/>
		<stop  offset="0.4255" style="stop-color:#FCF5B1"/>
		<stop  offset="0.5943" style="stop-color:#FDEE8E"/>
		<stop  offset="0.7706" style="stop-color:#FCE766"/>
		<stop  offset="0.9506" style="stop-color:#FCDF2E"/>
		<stop  offset="1" style="stop-color:#FDDE18"/>
	</radialGradient>
	<path id="path21243_5_" fill="url(#path21243_6_)" stroke="#010101" stroke-width="0.9714" d="M276.047,497.412
		c15.093,0,27.332,12.242,27.332,27.336c0,15.099-12.239,27.332-27.332,27.332c-15.099,0-27.335-12.233-27.335-27.332
		C248.713,509.654,260.949,497.412,276.047,497.412z"/>
	<g>
		<g>
			<line fill="none" stroke="#010101" stroke-width="0.9714" x1="277.62" y1="571.549" x2="277.62" y2="455.696"/>
			<polygon fill="#010101" points="281.217,458.425 277.62,456.896 274.022,458.425 277.62,449.897 			"/>
		</g>
	</g>
	<g>
		<g>
			<g>
				<path fill="none" stroke="#010101" stroke-width="0.9545" d="M247.295,411.125c-7.479,81.308,54.202,138.982,59.008,12.36"/>
				<polygon fill="#010101" points="309.733,426.299 306.258,424.664 302.668,426.03 306.519,417.792 				"/>
			</g>
		</g>
		<g>
			
				<radialGradient id="path16609_32_" cx="303.3008" cy="-40.3379" r="15.7236" gradientTransform="matrix(1.5933 0 0 0.6358 -173.5678 432.6823)" gradientUnits="userSpaceOnUse">
				<stop  offset="0" style="stop-color:#FDFBE1"/>
				<stop  offset="0.1203" style="stop-color:#FEFBDC"/>
				<stop  offset="0.2662" style="stop-color:#FFFACC"/>
				<stop  offset="0.4255" style="stop-color:#FEF6B3"/>
				<stop  offset="0.5943" style="stop-color:#FEF091"/>
				<stop  offset="0.7706" style="stop-color:#FEEA64"/>
				<stop  offset="0.9506" style="stop-color:#FEE22D"/>
				<stop  offset="1" style="stop-color:#FEE01B"/>
			</radialGradient>
			<path id="path16609_8_" fill="url(#path16609_32_)" stroke="#010101" stroke-width="0.9714" d="M334.273,407.035
				c0,5.62-11.014,10.178-24.593,10.178c-13.581,0-24.591-4.556-24.591-10.178c0-5.623,11.01-10.177,24.591-10.177
				C323.26,396.859,334.273,401.413,334.273,407.035z"/>
			<text transform="matrix(1 0 0 1 294.5962 410.4561)" font-family="'MyriadPro-Regular'" font-size="11.657">NADH</text>
		</g>
		<g>
			
				<radialGradient id="path16609_33_" cx="267.3564" cy="-40.3379" r="15.7236" gradientTransform="matrix(1.5933 0 0 0.6358 -173.5678 432.6823)" gradientUnits="userSpaceOnUse">
				<stop  offset="0" style="stop-color:#FDFBE1"/>
				<stop  offset="0.1203" style="stop-color:#FEFBDC"/>
				<stop  offset="0.2662" style="stop-color:#FFFACC"/>
				<stop  offset="0.4255" style="stop-color:#FEF6B3"/>
				<stop  offset="0.5943" style="stop-color:#FEF091"/>
				<stop  offset="0.7706" style="stop-color:#FEEA64"/>
				<stop  offset="0.9506" style="stop-color:#FEE22D"/>
				<stop  offset="1" style="stop-color:#FEE01B"/>
			</radialGradient>
			<path id="path16609_9_" fill="url(#path16609_33_)" stroke="#010101" stroke-width="0.9714" d="M277.002,407.035
				c0,5.62-11.014,10.178-24.593,10.178c-13.581,0-24.591-4.556-24.591-10.178c0-5.623,11.01-10.177,24.591-10.177
				C265.989,396.859,277.002,401.413,277.002,407.035z"/>
			<text transform="matrix(1 0 0 1 241.1255 410.4561)" font-family="'MyriadPro-Regular'" font-size="11.657">NAD</text>
		</g>
	</g>
	<text transform="matrix(1 0 0 1 265.4082 442.3965)" fill="#010101" font-family="'Myriad-Roman'" font-size="11.657">10H</text>
	<text transform="matrix(0.7 0 0 0.7 284.9683 438.5146)" fill="#010101" font-family="'Myriad-Roman'" font-size="11.657">+</text>
	<g>
		
			<radialGradient id="path16609_34_" cx="372.4824" cy="-231.3208" r="15.7233" gradientTransform="matrix(2.1084 0 0 0.6358 -387.4526 432.6823)" gradientUnits="userSpaceOnUse">
			<stop  offset="0" style="stop-color:#FDFBE1"/>
			<stop  offset="0.1203" style="stop-color:#FEFBDC"/>
			<stop  offset="0.2662" style="stop-color:#FFFACC"/>
			<stop  offset="0.4255" style="stop-color:#FEF6B3"/>
			<stop  offset="0.5943" style="stop-color:#FEF091"/>
			<stop  offset="0.7706" style="stop-color:#FEEA64"/>
			<stop  offset="0.9506" style="stop-color:#FEE22D"/>
			<stop  offset="1" style="stop-color:#FEE01B"/>
		</radialGradient>
		<path id="path16609_11_" fill="url(#path16609_34_)" stroke="#010101" stroke-width="1.1175" d="M430.439,285.608
			c0,5.621-14.575,10.178-32.544,10.178c-17.971,0-32.542-4.555-32.542-10.178s14.57-10.176,32.542-10.176
			C415.865,275.433,430.439,279.986,430.439,285.608z"/>
		<text transform="matrix(1 0 0 1 368.8008 289.0288)" font-family="'MyriadPro-Regular'" font-size="11.657">Oxalocetate</text>
	</g>
	<g>
		
			<radialGradient id="path16609_35_" cx="422.2559" cy="-83.1172" r="15.7236" gradientTransform="matrix(3.1813 0 0 0.6358 -807.3335 432.6823)" gradientUnits="userSpaceOnUse">
			<stop  offset="0" style="stop-color:#FDFBE1"/>
			<stop  offset="0.1203" style="stop-color:#FEFBDC"/>
			<stop  offset="0.2662" style="stop-color:#FFFACC"/>
			<stop  offset="0.4255" style="stop-color:#FEF6B3"/>
			<stop  offset="0.5943" style="stop-color:#FEF091"/>
			<stop  offset="0.7706" style="stop-color:#FEEA64"/>
			<stop  offset="0.9506" style="stop-color:#FEE22D"/>
			<stop  offset="1" style="stop-color:#FEE01B"/>
		</radialGradient>
		<path id="path16609_12_" fill="url(#path16609_35_)" stroke="#010101" stroke-width="1.3726" d="M585.081,379.835
			c0,5.621-21.99,10.179-49.103,10.179c-27.117,0-49.101-4.556-49.101-10.179c0-5.622,21.983-10.176,49.101-10.176
			C563.091,369.66,585.081,374.214,585.081,379.835z"/>
		<text transform="matrix(1 0 0 1 496.4697 383.2559)" font-family="'MyriadPro-Regular'" font-size="11.657">α - Ketoglutarate</text>
	</g>
	<g>
		
			<radialGradient id="path16609_36_" cx="525.5566" cy="-231.3208" r="15.7233" gradientTransform="matrix(1.5933 0 0 0.6358 -173.5678 432.6823)" gradientUnits="userSpaceOnUse">
			<stop  offset="0" style="stop-color:#FDFBE1"/>
			<stop  offset="0.1203" style="stop-color:#FEFBDC"/>
			<stop  offset="0.2662" style="stop-color:#FFFACC"/>
			<stop  offset="0.4255" style="stop-color:#FEF6B3"/>
			<stop  offset="0.5943" style="stop-color:#FEF091"/>
			<stop  offset="0.7706" style="stop-color:#FEEA64"/>
			<stop  offset="0.9506" style="stop-color:#FEE22D"/>
			<stop  offset="1" style="stop-color:#FEE01B"/>
		</radialGradient>
		<path id="path16609_14_" fill="url(#path16609_36_)" stroke="#010101" stroke-width="0.9714" d="M688.394,285.608
			c0,5.621-11.014,10.178-24.593,10.178c-13.58,0-24.591-4.555-24.591-10.178s11.011-10.176,24.591-10.176
			C677.38,275.433,688.394,279.986,688.394,285.608z"/>
		<text transform="matrix(1 0 0 1 647.668 289.0288)" font-family="'MyriadPro-Regular'" font-size="11.657">Citrate</text>
	</g>
	<g>
		<g>
			<line fill="none" stroke="#010101" stroke-width="0.923" x1="465.664" y1="0" x2="465.664" y2="156.112"/>
			<polygon fill="#010101" points="462.246,153.52 465.664,154.972 469.083,153.52 465.664,161.622 			"/>
		</g>
	</g>
	<g>
		<g>
			<g>
				<path fill="none" stroke="#010101" stroke-width="0.9714" d="M514.435,130.385c-3.743,41.499,60.302,73.986,59.319,9.049"/>
				<polygon fill="#010101" points="577.393,142.107 573.772,140.634 570.197,142.216 573.666,133.636 				"/>
			</g>
		</g>
		<g>
			
				<radialGradient id="path16609_37_" cx="470.9658" cy="-484.9463" r="15.7236" gradientTransform="matrix(1.5933 0 0 0.6358 -173.5678 432.6823)" gradientUnits="userSpaceOnUse">
				<stop  offset="0" style="stop-color:#FDFBE1"/>
				<stop  offset="0.1203" style="stop-color:#FEFBDC"/>
				<stop  offset="0.2662" style="stop-color:#FFFACC"/>
				<stop  offset="0.4255" style="stop-color:#FEF6B3"/>
				<stop  offset="0.5943" style="stop-color:#FEF091"/>
				<stop  offset="0.7706" style="stop-color:#FEEA64"/>
				<stop  offset="0.9506" style="stop-color:#FEE22D"/>
				<stop  offset="1" style="stop-color:#FEE01B"/>
			</radialGradient>
			<path id="path16609_16_" fill="url(#path16609_37_)" stroke="#010101" stroke-width="0.9714" d="M601.413,124.353
				c0,5.621-11.014,10.178-24.593,10.178c-13.581,0-24.591-4.556-24.591-10.178s11.01-10.176,24.591-10.176
				C590.399,114.177,601.413,118.731,601.413,124.353z"/>
			<text transform="matrix(1 0 0 1 561.7363 127.7734)" font-family="'MyriadPro-Regular'" font-size="11.657">NADH</text>
		</g>
		<g>
			
				<radialGradient id="path16609_38_" cx="435.0215" cy="-484.9463" r="15.7231" gradientTransform="matrix(1.5933 0 0 0.6358 -173.5678 432.6823)" gradientUnits="userSpaceOnUse">
				<stop  offset="0" style="stop-color:#FDFBE1"/>
				<stop  offset="0.1203" style="stop-color:#FEFBDC"/>
				<stop  offset="0.2662" style="stop-color:#FFFACC"/>
				<stop  offset="0.4255" style="stop-color:#FEF6B3"/>
				<stop  offset="0.5943" style="stop-color:#FEF091"/>
				<stop  offset="0.7706" style="stop-color:#FEEA64"/>
				<stop  offset="0.9506" style="stop-color:#FEE22D"/>
				<stop  offset="1" style="stop-color:#FEE01B"/>
			</radialGradient>
			<path id="path16609_15_" fill="url(#path16609_38_)" stroke="#010101" stroke-width="0.9714" d="M544.143,124.353
				c0,5.621-11.014,10.178-24.593,10.178c-13.581,0-24.591-4.556-24.591-10.178s11.01-10.176,24.591-10.176
				C533.129,114.177,544.143,118.731,544.143,124.353z"/>
			<text transform="matrix(1 0 0 1 508.2656 127.7734)" font-family="'MyriadPro-Regular'" font-size="11.657">NAD</text>
		</g>
	</g>
	<g>
		<g>
			<path fill="none" stroke="#010101" stroke-width="0.9714" d="M447.718,178.699c-39.524,30.842-37.582,60.956-42.374,88.861"/>
			<polygon fill="#010101" points="402.26,264.262 405.547,266.376 409.352,265.479 404.362,273.274 			"/>
		</g>
	</g>
	<g>
		
			<radialGradient id="path16609_39_" cx="399.9805" cy="-402.4414" r="15.7236" gradientTransform="matrix(1.5933 0 0 0.6358 -173.5678 432.6823)" gradientUnits="userSpaceOnUse">
			<stop  offset="0" style="stop-color:#FDFBE1"/>
			<stop  offset="0.1203" style="stop-color:#FEFBDC"/>
			<stop  offset="0.2662" style="stop-color:#FFFACC"/>
			<stop  offset="0.4255" style="stop-color:#FEF6B3"/>
			<stop  offset="0.5943" style="stop-color:#FEF091"/>
			<stop  offset="0.7706" style="stop-color:#FEEA64"/>
			<stop  offset="0.9506" style="stop-color:#FEE22D"/>
			<stop  offset="1" style="stop-color:#FEE01B"/>
		</radialGradient>
		<path id="path16609_1_" fill="url(#path16609_39_)" stroke="#010101" stroke-width="0.9714" d="M488.312,176.809
			c0,5.621-11.014,10.178-24.593,10.178c-13.581,0-24.591-4.556-24.591-10.178s11.01-10.176,24.591-10.176
			C477.299,166.634,488.312,171.188,488.312,176.809z"/>
		<text transform="matrix(1 0 0 1 442.3535 180.2305)" font-family="'MyriadPro-Regular'" font-size="11.657">Pyruvate</text>
	</g>
	<g>
		
			<radialGradient id="path16609_40_" cx="326.249" cy="-304.2744" r="12.6703" gradientTransform="matrix(1.5933 0 0 0.6358 -173.5678 432.6823)" gradientUnits="userSpaceOnUse">
			<stop  offset="0" style="stop-color:#FDFBE1"/>
			<stop  offset="0.1203" style="stop-color:#FFFAD9"/>
			<stop  offset="0.2662" style="stop-color:#FFF8CA"/>
			<stop  offset="0.4255" style="stop-color:#FEF6B1"/>
			<stop  offset="0.5943" style="stop-color:#FEEF8B"/>
			<stop  offset="0.7706" style="stop-color:#FDE958"/>
			<stop  offset="0.9506" style="stop-color:#FEE200"/>
			<stop  offset="1" style="stop-color:#FEE000"/>
		</radialGradient>
		<path id="path16609_18_" fill="url(#path16609_40_)" stroke="#010101" stroke-width="0.9714" d="M366.061,239.224
			c0,4.529-8.875,8.202-19.817,8.202c-10.944,0-19.816-3.671-19.816-8.202s8.873-8.2,19.816-8.2
			C357.186,231.023,366.061,234.693,366.061,239.224z"/>
		<text transform="matrix(1 0 0 1 338.5361 241.9805)" fill="#010101" font-family="'MyriadPro-Regular'" font-size="9.3935">ATP</text>
	</g>
	<g>
		<g>
			<path fill="none" stroke="#010101" stroke-width="0.9714" d="M360.594,185.255c51.266-6.542,85.931,51.57,12.708,53.971"/>
			<polygon fill="#010101" points="375.911,235.541 374.501,239.186 376.146,242.732 367.506,239.416 			"/>
		</g>
	</g>
	<g>
		<g>
			
				<radialGradient id="path16609_41_" cx="326.249" cy="-389.3955" r="12.6703" gradientTransform="matrix(1.5933 0 0 0.6358 -173.5678 432.6823)" gradientUnits="userSpaceOnUse">
				<stop  offset="0" style="stop-color:#FDFBE1"/>
				<stop  offset="0.1203" style="stop-color:#FFFAD9"/>
				<stop  offset="0.2662" style="stop-color:#FFF8CA"/>
				<stop  offset="0.4255" style="stop-color:#FEF6B1"/>
				<stop  offset="0.5943" style="stop-color:#FEEF8B"/>
				<stop  offset="0.7706" style="stop-color:#FDE958"/>
				<stop  offset="0.9506" style="stop-color:#FEE200"/>
				<stop  offset="1" style="stop-color:#FEE000"/>
			</radialGradient>
			<path id="path16609_17_" fill="url(#path16609_41_)" stroke="#010101" stroke-width="0.9714" d="M366.061,185.105
				c0,4.529-8.875,8.201-19.817,8.201c-10.944,0-19.815-3.67-19.815-8.201c0-4.532,8.872-8.201,19.815-8.201
				C357.187,176.906,366.061,180.575,366.061,185.105z"/>
			<text transform="matrix(1 0 0 1 337.7432 187.8618)" fill="#010101" font-family="'MyriadPro-Regular'" font-size="9.3935">ADP</text>
		</g>
	</g>
	<g>
		<g>
			<line fill="none" stroke="#010101" stroke-width="0.9714" x1="430.439" y1="285.608" x2="632.591" y2="285.608"/>
			<polygon fill="#010101" points="629.862,289.205 631.391,285.608 629.862,282.01 638.39,285.608 			"/>
		</g>
	</g>
	<g>
		<g>
			<line fill="none" stroke="#010101" stroke-width="0.9714" x1="492.706" y1="368.853" x2="422.279" y2="298.425"/>
			<polygon fill="#010101" points="426.752,297.811 423.128,299.273 421.664,302.898 418.179,294.325 			"/>
			<polygon fill="#010101" points="488.233,369.467 491.857,368.004 493.321,364.379 496.807,372.953 			"/>
		</g>
	</g>
	<g>
		<g>
			
				<radialGradient id="path16609_42_" cx="307.8193" cy="-185.2246" r="15.7236" gradientTransform="matrix(1.5933 0 0 0.6358 -173.5678 432.6823)" gradientUnits="userSpaceOnUse">
				<stop  offset="0" style="stop-color:#FDFBE1"/>
				<stop  offset="0.1203" style="stop-color:#FEFBDC"/>
				<stop  offset="0.2662" style="stop-color:#FFFACC"/>
				<stop  offset="0.4255" style="stop-color:#FEF6B3"/>
				<stop  offset="0.5943" style="stop-color:#FEF091"/>
				<stop  offset="0.7706" style="stop-color:#FEEA64"/>
				<stop  offset="0.9506" style="stop-color:#FEE22D"/>
				<stop  offset="1" style="stop-color:#FEE01B"/>
			</radialGradient>
			<path id="path16609_20_" fill="url(#path16609_42_)" stroke="#010101" stroke-width="0.9714" d="M341.473,314.915
				c0,5.621-11.014,10.179-24.593,10.179c-13.581,0-24.591-4.556-24.591-10.179c0-5.622,11.01-10.176,24.591-10.176
				C330.459,304.74,341.473,309.294,341.473,314.915z"/>
			<text transform="matrix(1 0 0 1 301.7954 318.3359)" font-family="'MyriadPro-Regular'" font-size="11.657">NADH</text>
		</g>
		<g>
			
				<radialGradient id="path16609_43_" cx="307.8193" cy="-151.6118" r="15.7233" gradientTransform="matrix(1.5933 0 0 0.6358 -173.5678 432.6823)" gradientUnits="userSpaceOnUse">
				<stop  offset="0" style="stop-color:#FDFBE1"/>
				<stop  offset="0.1203" style="stop-color:#FEFBDC"/>
				<stop  offset="0.2662" style="stop-color:#FFFACC"/>
				<stop  offset="0.4255" style="stop-color:#FEF6B3"/>
				<stop  offset="0.5943" style="stop-color:#FEF091"/>
				<stop  offset="0.7706" style="stop-color:#FEEA64"/>
				<stop  offset="0.9506" style="stop-color:#FEE22D"/>
				<stop  offset="1" style="stop-color:#FEE01B"/>
			</radialGradient>
			<path id="path16609_21_" fill="url(#path16609_43_)" stroke="#010101" stroke-width="0.9714" d="M341.473,336.286
				c0,5.621-11.014,10.179-24.593,10.179c-13.581,0-24.591-4.556-24.591-10.179c0-5.622,11.01-10.176,24.591-10.176
				C330.459,326.111,341.473,330.665,341.473,336.286z"/>
			<text transform="matrix(1 0 0 1 301.7954 339.708)" font-family="'MyriadPro-Regular'" font-size="11.657">NADH</text>
		</g>
		<g>
			<g>
				
					<radialGradient id="path16609_44_" cx="331.3774" cy="-167.5952" r="12.6698" gradientTransform="matrix(1.5933 0 0 0.6358 -173.5678 432.6823)" gradientUnits="userSpaceOnUse">
					<stop  offset="0" style="stop-color:#FDFBE1"/>
					<stop  offset="0.1203" style="stop-color:#FFFAD9"/>
					<stop  offset="0.2662" style="stop-color:#FFF8CA"/>
					<stop  offset="0.4255" style="stop-color:#FEF6B1"/>
					<stop  offset="0.5943" style="stop-color:#FEEF8B"/>
					<stop  offset="0.7706" style="stop-color:#FDE958"/>
					<stop  offset="0.9506" style="stop-color:#FEE200"/>
					<stop  offset="1" style="stop-color:#FEE000"/>
				</radialGradient>
				<path id="path16609_22_" fill="url(#path16609_44_)" stroke="#010101" stroke-width="0.9714" d="M374.231,326.126
					c0,4.528-8.875,8.2-19.817,8.2c-10.943,0-19.815-3.67-19.815-8.2c0-4.532,8.872-8.201,19.815-8.201
					C365.357,317.927,374.231,321.596,374.231,326.126z"/>
				<text transform="matrix(1 0 0 1 345.9136 328.8818)" fill="#010101" font-family="'MyriadPro-Regular'" font-size="9.3935">ADP</text>
			</g>
		</g>
	</g>
	<g>
		<g>
			<path fill="none" stroke="#010101" stroke-width="0.9714" d="M486.878,379.835c-72.856-30.41-68.971-47.896-78.685-75.096"/>
			<polygon fill="#010101" points="412.499,306.099 408.597,305.87 405.722,308.519 406.243,299.278 			"/>
		</g>
	</g>
	<g>
		<g>
			<path fill="none" stroke="#010101" stroke-width="0.9714" d="M461.474,400.699c-33.442-71.517-50.75-66.9-78.333-75.465"/>
			<polygon fill="#010101" points="386.813,322.608 384.288,325.591 384.68,329.479 377.604,323.515 			"/>
		</g>
	</g>
	<g>
		<g>
			
				<radialGradient id="path16609_45_" cx="383.502" cy="-54.0874" r="15.7233" gradientTransform="matrix(1.5933 0 0 0.6358 -173.5678 432.6823)" gradientUnits="userSpaceOnUse">
				<stop  offset="0" style="stop-color:#FDFBE1"/>
				<stop  offset="0.1203" style="stop-color:#FEFBDC"/>
				<stop  offset="0.2662" style="stop-color:#FFFACC"/>
				<stop  offset="0.4255" style="stop-color:#FEF6B3"/>
				<stop  offset="0.5943" style="stop-color:#FEF091"/>
				<stop  offset="0.7706" style="stop-color:#FEEA64"/>
				<stop  offset="0.9506" style="stop-color:#FEE22D"/>
				<stop  offset="1" style="stop-color:#FEE01B"/>
			</radialGradient>
			<path id="path16609_19_" fill="url(#path16609_45_)" stroke="#010101" stroke-width="0.9714" d="M462.058,398.292
				c0,5.621-11.014,10.179-24.593,10.179c-13.581,0-24.591-4.556-24.591-10.179c0-5.622,11.01-10.176,24.591-10.176
				C451.044,388.117,462.058,392.671,462.058,398.292z"/>
			<text transform="matrix(1 0 0 1 426.1807 401.7129)" font-family="'MyriadPro-Regular'" font-size="11.657">NAD</text>
		</g>
		<g>
			
				<radialGradient id="path16609_46_" cx="383.502" cy="-22.0029" r="15.7236" gradientTransform="matrix(1.5933 0 0 0.6358 -173.5678 432.6823)" gradientUnits="userSpaceOnUse">
				<stop  offset="0" style="stop-color:#FDFBE1"/>
				<stop  offset="0.1203" style="stop-color:#FEFBDC"/>
				<stop  offset="0.2662" style="stop-color:#FFFACC"/>
				<stop  offset="0.4255" style="stop-color:#FEF6B3"/>
				<stop  offset="0.5943" style="stop-color:#FEF091"/>
				<stop  offset="0.7706" style="stop-color:#FEEA64"/>
				<stop  offset="0.9506" style="stop-color:#FEE22D"/>
				<stop  offset="1" style="stop-color:#FEE01B"/>
			</radialGradient>
			<path id="path16609_23_" fill="url(#path16609_46_)" stroke="#010101" stroke-width="0.9714" d="M462.058,418.692
				c0,5.62-11.014,10.178-24.593,10.178c-13.581,0-24.591-4.556-24.591-10.178c0-5.623,11.01-10.177,24.591-10.177
				C451.044,408.517,462.058,413.07,462.058,418.692z"/>
			<text transform="matrix(1 0 0 1 426.1807 422.1133)" font-family="'MyriadPro-Regular'" font-size="11.657">NAD</text>
		</g>
		<g>
			
				<radialGradient id="path16609_47_" cx="406.8037" cy="-37.9839" r="12.6706" gradientTransform="matrix(1.5933 0 0 0.6358 -173.5678 432.6823)" gradientUnits="userSpaceOnUse">
				<stop  offset="0" style="stop-color:#FDFBE1"/>
				<stop  offset="0.1203" style="stop-color:#FFFAD9"/>
				<stop  offset="0.2662" style="stop-color:#FFF8CA"/>
				<stop  offset="0.4255" style="stop-color:#FEF6B1"/>
				<stop  offset="0.5943" style="stop-color:#FEEF8B"/>
				<stop  offset="0.7706" style="stop-color:#FDE958"/>
				<stop  offset="0.9506" style="stop-color:#FEE200"/>
				<stop  offset="1" style="stop-color:#FEE000"/>
			</radialGradient>
			<path id="path16609_24_" fill="url(#path16609_47_)" stroke="#010101" stroke-width="0.9714" d="M494.408,408.531
				c0,4.528-8.874,8.202-19.817,8.202s-19.815-3.672-19.815-8.202c0-4.531,8.872-8.2,19.815-8.2S494.408,404,494.408,408.531z"/>
			<text transform="matrix(1 0 0 1 466.0908 411.2881)" fill="#010101" font-family="'MyriadPro-Regular'" font-size="9.3935">ADP</text>
		</g>
	</g>
	<g>
		<g>
			<path fill="none" stroke="#010101" stroke-width="0.9714" d="M677.538,347.291c-24.306-33.842-94.004-16.538-50.793,31.946"/>
			<polygon fill="#010101" points="622.244,379.594 625.946,378.341 627.616,374.807 630.604,383.566 			"/>
		</g>
	</g>
	<g>
		
			<radialGradient id="path16609_48_" cx="517.3018" cy="-63.2559" r="15.7236" gradientTransform="matrix(1.5933 0 0 0.6358 -173.5678 432.6823)" gradientUnits="userSpaceOnUse">
			<stop  offset="0" style="stop-color:#FDFBE1"/>
			<stop  offset="0.1203" style="stop-color:#FEFBDC"/>
			<stop  offset="0.2662" style="stop-color:#FFFACC"/>
			<stop  offset="0.4255" style="stop-color:#FEF6B3"/>
			<stop  offset="0.5943" style="stop-color:#FEF091"/>
			<stop  offset="0.7706" style="stop-color:#FEEA64"/>
			<stop  offset="0.9506" style="stop-color:#FEE22D"/>
			<stop  offset="1" style="stop-color:#FEE01B"/>
		</radialGradient>
		<path id="path16609_26_" fill="url(#path16609_48_)" stroke="#010101" stroke-width="0.9714" d="M675.241,392.464
			c0,5.62-11.015,10.178-24.593,10.178c-13.581,0-24.591-4.556-24.591-10.178c0-5.623,11.01-10.177,24.591-10.177
			C664.227,382.288,675.241,386.842,675.241,392.464z"/>
		<text transform="matrix(1 0 0 1 635.5635 395.8848)" font-family="'MyriadPro-Regular'" font-size="11.657">NADH</text>
	</g>
	<g>
		
			<radialGradient id="path16609_49_" cx="541.7168" cy="-125.8984" r="15.7236" gradientTransform="matrix(1.5933 0 0 0.6358 -173.5678 432.6823)" gradientUnits="userSpaceOnUse">
			<stop  offset="0" style="stop-color:#FDFBE1"/>
			<stop  offset="0.1203" style="stop-color:#FEFBDC"/>
			<stop  offset="0.2662" style="stop-color:#FFFACC"/>
			<stop  offset="0.4255" style="stop-color:#FEF6B3"/>
			<stop  offset="0.5943" style="stop-color:#FEF091"/>
			<stop  offset="0.7706" style="stop-color:#FEEA64"/>
			<stop  offset="0.9506" style="stop-color:#FEE22D"/>
			<stop  offset="1" style="stop-color:#FEE01B"/>
		</radialGradient>
		<path id="path16609_25_" fill="url(#path16609_49_)" stroke="#010101" stroke-width="0.9714" d="M714.141,352.636
			c0,5.62-11.014,10.178-24.593,10.178c-13.581,0-24.591-4.556-24.591-10.178c0-5.623,11.01-10.177,24.591-10.177
			C703.127,342.46,714.141,347.014,714.141,352.636z"/>
		<text transform="matrix(1 0 0 1 678.2637 356.0566)" font-family="'MyriadPro-Regular'" font-size="11.657">NAD</text>
	</g>
	<g>
		<g>
			<path fill="none" stroke="#010101" stroke-width="0.9714" d="M641.707,221.79c8.592,14.867,12.979,31.304,13.477,48.009"/>
			<polygon fill="#010101" points="651.507,267.18 655.147,268.6 658.699,266.965 655.356,275.595 			"/>
		</g>
	</g>
	<g>
		<g>
			<path fill="none" stroke="#010101" stroke-width="0.9714" d="M646.049,293.405c-17.159,30.007-37.165,56.056-58.298,77.004"/>
			<polygon fill="#010101" points="587.156,365.934 588.604,369.564 592.222,371.044 583.633,374.491 			"/>
		</g>
	</g>
	<g>
		
			<radialGradient id="path16609_50_" cx="482.7793" cy="-339.7993" r="15.7238" gradientTransform="matrix(2.1714 0 0 0.6358 -426.8694 432.6823)" gradientUnits="userSpaceOnUse">
			<stop  offset="0" style="stop-color:#FDFBE1"/>
			<stop  offset="0.1203" style="stop-color:#FEFBDC"/>
			<stop  offset="0.2662" style="stop-color:#FFFACC"/>
			<stop  offset="0.4255" style="stop-color:#FEF6B3"/>
			<stop  offset="0.5943" style="stop-color:#FEF091"/>
			<stop  offset="0.7706" style="stop-color:#FEEA64"/>
			<stop  offset="0.9506" style="stop-color:#FEE22D"/>
			<stop  offset="1" style="stop-color:#FEE01B"/>
		</radialGradient>
		<path id="path16609_13_" fill="url(#path16609_50_)" stroke="#010101" stroke-width="1.134" d="M654.934,216.637
			c0,5.621-15.01,10.178-33.517,10.178s-33.512-4.556-33.512-10.178s15.005-10.176,33.512-10.176
			C639.924,206.462,654.934,211.016,654.934,216.637z"/>
		<text transform="matrix(1 0 0 1 592.4443 220.0581)" font-family="'MyriadPro-Regular'" font-size="11.657">Acetyl - CoA</text>
	</g>
</g>
</svg>
