<?xml version="1.0" encoding="utf-8"?>
<!-- Generator: Adobe Illustrator 13.0.0, SVG Export Plug-In . SVG Version: 6.00 Build 14948)  -->
<!DOCTYPE svg PUBLIC "-//W3C//DTD SVG 1.1//EN" "http://www.w3.org/Graphics/SVG/1.1/DTD/svg11.dtd">
<svg version="1.1"
	 id="svg5960" xmlns:rdf="http://www.w3.org/1999/02/22-rdf-syntax-ns#" xmlns:sodipodi="http://inkscape.sourceforge.net/DTD/sodipodi-0.dtd" xmlns:cc="http://web.resource.org/cc/" xmlns:xml="http://www.w3.org/XML/1998/namespace" xmlns:inkscape="http://www.inkscape.org/namespaces/inkscape" xmlns:svg="http://www.w3.org/2000/svg" xmlns:dc="http://purl.org/dc/elements/1.1/" sodipodi:docbase="C:\Documents and Settings\pvil005\Desktop\Repository_diagrams\Signal_Transduction_Pathways" sodipodi:version="0.32" sodipodi:docname="bhalla_iyengar_PLC_beta_1999.svg" inkscape:version="0.40+cvs" xmlns:ns1="http://ns.adobe.com/Flows/1.0/"
	 xmlns="http://www.w3.org/2000/svg" xmlns:xlink="http://www.w3.org/1999/xlink" x="0px" y="0px" width="600px" height="220px"
	 viewBox="71.445 234.138 600 220" enable-background="new 71.445 234.138 600 220" xml:space="preserve">
<g>
	<g>
		<line fill="none" stroke="#000000" x1="528.945" y1="312.974" x2="605.695" y2="312.97"/>
		<polygon points="602.886,316.674 604.458,312.97 602.886,309.267 611.664,312.97 		"/>
	</g>
</g>
<sodipodi:namedview  pagecolor="#ffffff" inkscape:cx="370.17966" bordercolor="#666666" borderopacity="1.0" inkscape:zoom="2.0735109" inkscape:cy="704.79659" id="base" inkscape:current-layer="layer1" inkscape:window-x="8" inkscape:window-width="1237" inkscape:window-height="930" inkscape:pageshadow="2" inkscape:pageopacity="0.0" inkscape:window-y="5" inkscape:document-units="px">
	</sodipodi:namedview>
<g>
	
		<radialGradient id="path10300_1_" cx="101.5239" cy="401.499" r="9.1881" gradientTransform="matrix(1.3465 0 0 -1.3639 275.7927 893.4337)" gradientUnits="userSpaceOnUse">
		<stop  offset="0" style="stop-color:#A2FF5F"/>
		<stop  offset="0.3165" style="stop-color:#A0FF5F"/>
		<stop  offset="0.472" style="stop-color:#98FD5F"/>
		<stop  offset="0.5923" style="stop-color:#8BFA5E"/>
		<stop  offset="0.6947" style="stop-color:#78F75E"/>
		<stop  offset="0.7855" style="stop-color:#60F25D"/>
		<stop  offset="0.8682" style="stop-color:#42EC5C"/>
		<stop  offset="0.9432" style="stop-color:#20E55B"/>
		<stop  offset="1" style="stop-color:#00DF5A"/>
	</radialGradient>
	<path id="path10300" fill="url(#path10300_1_)" stroke="#000000" d="M427.754,345.829c0,4.787-6.829,8.671-15.258,8.671
		s-15.261-3.885-15.261-8.671c0-4.79,6.832-8.671,15.261-8.671S427.754,341.039,427.754,345.829"/>
	<g id="g10302">
		<g id="g10696">
			<g enable-background="new    ">
				<path d="M404.944,340.453c0.419-0.08,0.969-0.14,1.669-0.14c0.859,0,1.489,0.2,1.889,0.56c0.37,0.319,0.6,0.81,0.6,1.409
					c0,0.609-0.18,1.09-0.53,1.439c-0.46,0.489-1.209,0.739-2.059,0.739c-0.26,0-0.5-0.01-0.7-0.06v2.698h-0.869V340.453z
					 M405.813,343.691c0.19,0.05,0.44,0.07,0.72,0.07c1.06,0,1.689-0.52,1.689-1.43c0-0.899-0.629-1.329-1.589-1.329
					c-0.38,0-0.67,0.04-0.82,0.07V343.691z"/>
				<path d="M411.133,340.363v6.736h-0.879v-6.736H411.133z"/>
				<path d="M412.654,340.453c0.419-0.08,0.969-0.14,1.669-0.14c0.859,0,1.489,0.2,1.889,0.56c0.37,0.319,0.6,0.81,0.6,1.409
					c0,0.609-0.18,1.09-0.53,1.439c-0.46,0.489-1.209,0.739-2.059,0.739c-0.26,0-0.5-0.01-0.7-0.06v2.698h-0.869V340.453z
					 M413.523,343.691c0.19,0.05,0.44,0.07,0.72,0.07c1.06,0,1.689-0.52,1.689-1.43c0-0.899-0.629-1.329-1.589-1.329
					c-0.38,0-0.67,0.04-0.82,0.07V343.691z"/>
				<path d="M417.529,350.43v-0.378l0.483-0.47c1.163-1.106,1.695-1.694,1.695-2.381c0-0.463-0.217-0.89-0.896-0.89
					c-0.413,0-0.756,0.21-0.966,0.385l-0.196-0.434c0.308-0.26,0.764-0.463,1.289-0.463c0.973,0,1.387,0.673,1.387,1.324
					c0,0.841-0.609,1.52-1.569,2.444l-0.357,0.336v0.014h2.038v0.512H417.529z"/>
			</g>
			<g enable-background="new    ">
			</g>
		</g>
	</g>
</g>
<radialGradient id="path10881_1_" cx="100.5776" cy="402.1084" r="9.1884" gradientTransform="matrix(1.3465 0 0 -1.3639 379.5651 861.2638)" gradientUnits="userSpaceOnUse">
	<stop  offset="0" style="stop-color:#A2FF5F"/>
	<stop  offset="0.3165" style="stop-color:#A0FF5F"/>
	<stop  offset="0.472" style="stop-color:#98FD5F"/>
	<stop  offset="0.5923" style="stop-color:#8BFA5E"/>
	<stop  offset="0.6947" style="stop-color:#78F75E"/>
	<stop  offset="0.7855" style="stop-color:#60F25D"/>
	<stop  offset="0.8682" style="stop-color:#42EC5C"/>
	<stop  offset="0.9432" style="stop-color:#20E55B"/>
	<stop  offset="1" style="stop-color:#00DF5A"/>
</radialGradient>
<path id="path10881" fill="url(#path10881_1_)" stroke="#000000" d="M530.253,312.826c0,4.788-6.83,8.671-15.258,8.671
	c-8.43,0-15.262-3.885-15.262-8.671c0-4.79,6.832-8.67,15.262-8.67C523.423,304.156,530.253,308.036,530.253,312.826"/>
<g id="g10883">
	<g enable-background="new    ">
		<path d="M506.199,309.115c0.539-0.08,1.169-0.14,1.858-0.14c1.249,0,2.14,0.279,2.729,0.829c0.61,0.55,0.96,1.34,0.96,2.429
			c0,1.1-0.35,1.999-0.97,2.619c-0.64,0.629-1.679,0.969-2.988,0.969c-0.63,0-1.14-0.02-1.589-0.079V309.115z M507.078,315.082
			c0.221,0.04,0.54,0.04,0.88,0.04c1.858,0.01,2.868-1.039,2.868-2.858c0.01-1.609-0.89-2.599-2.729-2.599
			c-0.449,0-0.789,0.04-1.02,0.09V315.082z"/>
		<path d="M513.958,313.643l-0.7,2.119h-0.898l2.288-6.736h1.05l2.299,6.736h-0.93l-0.72-2.119H513.958z M516.166,312.963
			l-0.669-1.938c-0.14-0.439-0.239-0.84-0.34-1.229h-0.03c-0.09,0.39-0.199,0.81-0.33,1.22l-0.659,1.948H516.166z"/>
		<path d="M523.976,315.462c-0.391,0.149-1.17,0.37-2.08,0.37c-1.02,0-1.858-0.26-2.518-0.89c-0.58-0.56-0.939-1.459-0.939-2.509
			c0-2.009,1.389-3.479,3.647-3.479c0.78,0,1.399,0.17,1.688,0.311l-0.219,0.709c-0.36-0.17-0.811-0.289-1.49-0.289
			c-1.639,0-2.708,1.019-2.708,2.708c0,1.709,1.02,2.719,2.599,2.719c0.57,0,0.959-0.08,1.159-0.18v-2.01h-1.359v-0.699h2.22
			V315.462z"/>
	</g>
</g>
<g>
	
		<radialGradient id="path2136_1_" cx="101.5376" cy="401.5361" r="9.1881" gradientTransform="matrix(1.3465 0 0 -1.3639 379.5651 925.6036)" gradientUnits="userSpaceOnUse">
		<stop  offset="0" style="stop-color:#A2FF5F"/>
		<stop  offset="0.3165" style="stop-color:#A0FF5F"/>
		<stop  offset="0.472" style="stop-color:#98FD5F"/>
		<stop  offset="0.5923" style="stop-color:#8BFA5E"/>
		<stop  offset="0.6947" style="stop-color:#78F75E"/>
		<stop  offset="0.7855" style="stop-color:#60F25D"/>
		<stop  offset="0.8682" style="stop-color:#42EC5C"/>
		<stop  offset="0.9432" style="stop-color:#20E55B"/>
		<stop  offset="1" style="stop-color:#00DF5A"/>
	</radialGradient>
	<path id="path2136" fill="url(#path2136_1_)" stroke="#000000" d="M531.545,377.948c0,4.787-6.83,8.67-15.258,8.67
		c-8.43,0-15.262-3.885-15.262-8.67c0-4.79,6.832-8.671,15.262-8.671C524.715,369.277,531.545,373.158,531.545,377.948"/>
	<g id="g5685">
		<g id="g2138" transform="translate(328.4903,-101.7244)">
			<g id="g2140">
				<g enable-background="new    ">
				</g>
			</g>
		</g>
		<g enable-background="new    ">
			<path d="M512.263,372.481v6.736h-0.879v-6.736H512.263z"/>
			<path d="M513.785,372.571c0.42-0.08,0.969-0.14,1.669-0.14c0.859,0,1.489,0.2,1.89,0.56c0.369,0.319,0.6,0.81,0.6,1.409
				c0,0.609-0.181,1.09-0.53,1.439c-0.46,0.489-1.21,0.739-2.06,0.739c-0.26,0-0.499-0.01-0.699-0.06v2.698h-0.869V372.571z
				 M514.654,375.81c0.189,0.05,0.439,0.07,0.72,0.07c1.06,0,1.688-0.52,1.688-1.43c0-0.899-0.629-1.329-1.588-1.329
				c-0.381,0-0.67,0.04-0.82,0.07V375.81z"/>
			<path d="M518.807,381.848c0.175,0.104,0.574,0.28,1.009,0.28c0.784,0,1.036-0.498,1.029-0.883
				c-0.008-0.638-0.582-0.91-1.177-0.91h-0.343v-0.463h0.343c0.448,0,1.016-0.23,1.016-0.771c0-0.364-0.231-0.686-0.798-0.686
				c-0.365,0-0.715,0.161-0.911,0.301l-0.168-0.448c0.245-0.175,0.707-0.351,1.197-0.351c0.896,0,1.303,0.532,1.303,1.086
				c0,0.477-0.287,0.876-0.841,1.079v0.014c0.561,0.104,1.016,0.525,1.016,1.162c0,0.729-0.574,1.366-1.659,1.366
				c-0.512,0-0.96-0.161-1.185-0.309L518.807,381.848z"/>
		</g>
	</g>
</g>
<path id="path11157" sodipodi:nodetypes="cc" d="M283.129,315.158"/>
<path id="path5944" sodipodi:nodetypes="cc" d="M283.129,189.298"/>
<path id="path8581_2_" sodipodi:nodetypes="cccc" d="M300.14,295.345l2.411-6.556l2.411,6.556
	C303.538,294.297,301.591,294.303,300.14,295.345z"/>
<path id="path88042_2_" sodipodi:nodetypes="cccc" d="M304.98,390.618l-2.411,6.556l-2.411-6.556
	C301.582,391.665,303.529,391.659,304.98,390.618z"/>
<path id="path5946" sodipodi:nodetypes="cc" d="M302.505,202.564"/>
<path id="path5951" sodipodi:nodetypes="cc" d="M502.054,271.821"/>
<path id="path5953" sodipodi:nodetypes="cc" d="M505.511,226.602"/>
<path id="path5956" sodipodi:nodetypes="cc" fill="none" stroke="#000000" stroke-dasharray="3,1" d="M319.528,280.305
	c95.059,0.338,134.702,61.532,134.702,61.532"/>
<path id="path5958" sodipodi:nodetypes="cc" fill="none" stroke="#000000" stroke-dasharray="3,1" d="M319.939,406.929
	c94.972-0.34,134.578-57.121,134.578-57.121"/>
<g>
	
		<radialGradient id="path6206_1_" cx="101.0161" cy="400.6436" r="9.1878" gradientTransform="matrix(1.3465 0 0 -1.3639 -25.7249 826.6876)" gradientUnits="userSpaceOnUse">
		<stop  offset="0" style="stop-color:#A2FF5F"/>
		<stop  offset="0.3165" style="stop-color:#A0FF5F"/>
		<stop  offset="0.472" style="stop-color:#98FD5F"/>
		<stop  offset="0.5923" style="stop-color:#8BFA5E"/>
		<stop  offset="0.6947" style="stop-color:#78F75E"/>
		<stop  offset="0.7855" style="stop-color:#60F25D"/>
		<stop  offset="0.8682" style="stop-color:#42EC5C"/>
		<stop  offset="0.9432" style="stop-color:#20E55B"/>
		<stop  offset="1" style="stop-color:#00DF5A"/>
	</radialGradient>
	<path id="path6206" fill="url(#path6206_1_)" stroke="#000000" d="M125.553,280.25c0,4.788-6.829,8.671-15.258,8.671
		s-15.261-3.885-15.261-8.671c0-4.79,6.832-8.67,15.261-8.67S125.553,275.46,125.553,280.25"/>
	<g id="g6208">
		<g enable-background="new    ">
			<path d="M103.329,276.539c0.419-0.08,0.969-0.14,1.669-0.14c0.859,0,1.489,0.2,1.889,0.56c0.37,0.319,0.6,0.81,0.6,1.409
				c0,0.609-0.18,1.09-0.53,1.439c-0.46,0.489-1.209,0.739-2.059,0.739c-0.26,0-0.5-0.01-0.7-0.06v2.698h-0.869V276.539z
				 M104.198,279.777c0.19,0.05,0.44,0.07,0.72,0.07c1.06,0,1.689-0.52,1.689-1.43c0-0.899-0.629-1.329-1.589-1.329
				c-0.38,0-0.67,0.04-0.82,0.07V279.777z"/>
			<path d="M108.638,276.449h0.879v6.007h2.878v0.729h-3.758V276.449z"/>
			<path d="M117.676,282.976c-0.31,0.16-0.959,0.32-1.779,0.32c-1.899,0-3.318-1.2-3.318-3.419c0-2.118,1.429-3.538,3.518-3.538
				c0.83,0,1.369,0.181,1.599,0.3l-0.22,0.71c-0.32-0.16-0.79-0.279-1.35-0.279c-1.579,0-2.628,1.009-2.628,2.778
				c0,1.659,0.95,2.708,2.579,2.708c0.54,0,1.08-0.109,1.429-0.279L117.676,282.976z"/>
		</g>
	</g>
</g>
<g>
	
		<radialGradient id="path6230_1_" cx="100.7671" cy="401.1357" r="9.1878" gradientTransform="matrix(1.8367 0 0 -1.4372 443.4904 954.1925)" gradientUnits="userSpaceOnUse">
		<stop  offset="0" style="stop-color:#A2FF5F"/>
		<stop  offset="0.3165" style="stop-color:#A0FF5F"/>
		<stop  offset="0.472" style="stop-color:#98FD5F"/>
		<stop  offset="0.5923" style="stop-color:#8BFA5E"/>
		<stop  offset="0.6947" style="stop-color:#78F75E"/>
		<stop  offset="0.7855" style="stop-color:#60F25D"/>
		<stop  offset="0.8682" style="stop-color:#42EC5C"/>
		<stop  offset="0.9432" style="stop-color:#20E55B"/>
		<stop  offset="1" style="stop-color:#00DF5A"/>
	</radialGradient>
	<path id="path6230" fill="url(#path6230_1_)" stroke="#000000" d="M649.384,377.68c0,5.045-9.315,9.137-20.813,9.137
		c-11.499,0-20.817-4.093-20.817-9.137c0-5.047,9.318-9.136,20.817-9.136C640.069,368.544,649.384,372.633,649.384,377.68"/>
	<g id="g6232">
		<g enable-background="new    ">
			<path d="M613.644,373.879v6.736h-0.88v-6.736H613.644z"/>
			<path d="M615.134,377.087c0-0.51-0.01-0.909-0.04-1.309h0.78l0.049,0.789h0.021c0.239-0.449,0.8-0.899,1.599-0.899
				c0.67,0,1.709,0.399,1.709,2.059v2.889h-0.879v-2.788c0-0.78-0.289-1.439-1.119-1.439c-0.57,0-1.02,0.409-1.18,0.899
				c-0.04,0.11-0.061,0.27-0.061,0.41v2.918h-0.879V377.087z"/>
			<path d="M622.654,380.726c-1.3,0-2.319-0.96-2.319-2.489c0-1.619,1.069-2.568,2.398-2.568c1.39,0,2.329,1.01,2.329,2.479
				c0,1.799-1.25,2.579-2.398,2.579H622.654z M622.683,380.065c0.84,0,1.469-0.789,1.469-1.889c0-0.819-0.409-1.85-1.449-1.85
				c-1.029,0-1.479,0.96-1.479,1.88c0,1.059,0.6,1.858,1.449,1.858H622.683z"/>
			<path d="M626.054,379.726c0.27,0.16,0.729,0.34,1.169,0.34c0.63,0,0.93-0.31,0.93-0.72c0-0.42-0.25-0.649-0.89-0.89
				c-0.879-0.319-1.289-0.789-1.289-1.369c0-0.779,0.64-1.419,1.669-1.419c0.489,0,0.919,0.13,1.179,0.3l-0.209,0.63
				c-0.189-0.11-0.54-0.28-0.99-0.28c-0.52,0-0.799,0.3-0.799,0.66c0,0.409,0.279,0.59,0.909,0.829
				c0.829,0.31,1.27,0.729,1.27,1.459c0,0.86-0.67,1.46-1.8,1.46c-0.529,0-1.019-0.141-1.358-0.34L626.054,379.726z"/>
			<path d="M630.554,374.889c-0.33,0-0.551-0.26-0.551-0.57c0-0.31,0.23-0.56,0.57-0.56s0.56,0.25,0.56,0.56
				c0,0.311-0.22,0.57-0.569,0.57H630.554z M630.134,380.615v-4.837h0.879v4.837H630.134z"/>
			<path d="M632.474,377.087c0-0.51-0.01-0.909-0.041-1.309h0.78l0.05,0.789h0.02c0.24-0.449,0.801-0.899,1.6-0.899
				c0.67,0,1.709,0.399,1.709,2.059v2.889h-0.879v-2.788c0-0.78-0.291-1.439-1.119-1.439c-0.57,0-1.02,0.409-1.18,0.899
				c-0.041,0.11-0.061,0.27-0.061,0.41v2.918h-0.879V377.087z"/>
			<path d="M639.993,380.726c-1.3,0-2.319-0.96-2.319-2.489c0-1.619,1.07-2.568,2.398-2.568c1.39,0,2.33,1.01,2.33,2.479
				c0,1.799-1.25,2.579-2.399,2.579H639.993z M640.023,380.065c0.839,0,1.469-0.789,1.469-1.889c0-0.819-0.41-1.85-1.449-1.85
				c-1.029,0-1.479,0.96-1.479,1.88c0,1.059,0.6,1.858,1.449,1.858H640.023z"/>
			<path d="M643.513,373.52h0.879v7.096h-0.879V373.52z"/>
		</g>
	</g>
</g>
<g>
	<g>
		
			<radialGradient id="path6282_3_" cx="101.3877" cy="400.6426" r="9.1881" gradientTransform="matrix(1.3465 0 0 -1.3639 -26.598 952.7111)" gradientUnits="userSpaceOnUse">
			<stop  offset="0" style="stop-color:#A2FF5F"/>
			<stop  offset="0.3165" style="stop-color:#A0FF5F"/>
			<stop  offset="0.472" style="stop-color:#98FD5F"/>
			<stop  offset="0.5923" style="stop-color:#8BFA5E"/>
			<stop  offset="0.6947" style="stop-color:#78F75E"/>
			<stop  offset="0.7855" style="stop-color:#60F25D"/>
			<stop  offset="0.8682" style="stop-color:#42EC5C"/>
			<stop  offset="0.9432" style="stop-color:#20E55B"/>
			<stop  offset="1" style="stop-color:#00DF5A"/>
		</radialGradient>
		<path id="path6282" fill="url(#path6282_3_)" stroke="#000000" d="M125.18,406.275c0,4.787-6.829,8.67-15.258,8.67
			c-8.429,0-15.261-3.884-15.261-8.67c0-4.79,6.832-8.671,15.261-8.671C118.351,397.604,125.18,401.485,125.18,406.275"/>
		<g id="g6284">
			<g enable-background="new    ">
				<path d="M102.956,402.563c0.419-0.08,0.969-0.14,1.669-0.14c0.859,0,1.489,0.2,1.889,0.56c0.37,0.319,0.6,0.81,0.6,1.409
					c0,0.609-0.18,1.09-0.53,1.439c-0.46,0.489-1.209,0.739-2.059,0.739c-0.26,0-0.5-0.01-0.7-0.06v2.698h-0.869V402.563z
					 M103.825,405.802c0.19,0.05,0.44,0.07,0.72,0.07c1.06,0,1.689-0.52,1.689-1.43c0-0.899-0.629-1.329-1.589-1.329
					c-0.38,0-0.67,0.04-0.82,0.07V405.802z"/>
				<path d="M108.266,402.474h0.879v6.007h2.878v0.729h-3.758V402.474z"/>
				<path d="M117.303,409c-0.31,0.16-0.959,0.32-1.779,0.32c-1.899,0-3.318-1.2-3.318-3.419c0-2.118,1.429-3.538,3.518-3.538
					c0.83,0,1.369,0.181,1.599,0.3l-0.22,0.71c-0.32-0.16-0.79-0.279-1.35-0.279c-1.579,0-2.628,1.009-2.628,2.778
					c0,1.659,0.95,2.708,2.579,2.708c0.54,0,1.08-0.109,1.429-0.279L117.303,409z"/>
			</g>
		</g>
	</g>
	<g>
		
			<radialGradient id="path6292_3_" cx="101.9575" cy="401.293" r="9.1881" gradientTransform="matrix(1.3465 0 0 -1.3639 -12.7884 968.9357)" gradientUnits="userSpaceOnUse">
			<stop  offset="0" style="stop-color:#A2FF5F"/>
			<stop  offset="0.3165" style="stop-color:#A0FF5F"/>
			<stop  offset="0.472" style="stop-color:#98FD5F"/>
			<stop  offset="0.5923" style="stop-color:#8BFA5E"/>
			<stop  offset="0.6947" style="stop-color:#78F75E"/>
			<stop  offset="0.7855" style="stop-color:#60F25D"/>
			<stop  offset="0.8682" style="stop-color:#42EC5C"/>
			<stop  offset="0.9432" style="stop-color:#20E55B"/>
			<stop  offset="1" style="stop-color:#00DF5A"/>
		</radialGradient>
		<path id="path6292" fill="url(#path6292_3_)" stroke="#000000" d="M139.756,421.611c0,4.787-6.829,8.672-15.258,8.672
			s-15.261-3.885-15.261-8.672c0-4.789,6.832-8.67,15.261-8.67S139.756,416.822,139.756,421.611"/>
		<g id="g6294">
			<g id="g6296" transform="translate(328.4903,-101.7244)">
				<g id="g6298">
					<g enable-background="new    ">
					</g>
				</g>
			</g>
			<g enable-background="new    ">
				<path d="M124.947,422.582c-0.39,0.149-1.169,0.37-2.079,0.37c-1.02,0-1.859-0.26-2.519-0.89c-0.58-0.56-0.939-1.459-0.939-2.509
					c0-2.009,1.389-3.479,3.648-3.479c0.78,0,1.399,0.17,1.689,0.311l-0.22,0.709c-0.36-0.17-0.81-0.289-1.489-0.289
					c-1.639,0-2.708,1.019-2.708,2.708c0,1.709,1.02,2.719,2.599,2.719c0.57,0,0.959-0.08,1.159-0.18v-2.01h-1.359v-0.699h2.219
					V422.582z"/>
				<path d="M128.333,425.693h-0.014c-0.182,0.329-0.561,0.596-1.106,0.596c-0.792,0-1.436-0.68-1.436-1.716
					c0-1.268,0.819-1.828,1.534-1.828c0.525,0,0.875,0.259,1.044,0.588h0.014l0.021-0.511h0.588
					c-0.021,0.28-0.028,0.574-0.028,0.932v3.845h-0.616V425.693z M128.333,424.194c0-0.091-0.007-0.182-0.028-0.259
					c-0.098-0.378-0.42-0.7-0.882-0.7c-0.637,0-1.022,0.539-1.022,1.303c0,0.68,0.322,1.261,1.001,1.261
					c0.399,0,0.742-0.245,0.882-0.673c0.028-0.084,0.049-0.203,0.049-0.294V424.194z"/>
			</g>
		</g>
	</g>
</g>
<g>
	
		<radialGradient id="path6334_1_" cx="102.0698" cy="399.6162" r="9.1881" gradientTransform="matrix(1.7042 0 0 -1.4006 171.2606 882.6078)" gradientUnits="userSpaceOnUse">
		<stop  offset="0" style="stop-color:#A2FF5F"/>
		<stop  offset="0.3165" style="stop-color:#A0FF5F"/>
		<stop  offset="0.472" style="stop-color:#98FD5F"/>
		<stop  offset="0.5923" style="stop-color:#8BFA5E"/>
		<stop  offset="0.6947" style="stop-color:#78F75E"/>
		<stop  offset="0.7855" style="stop-color:#60F25D"/>
		<stop  offset="0.8682" style="stop-color:#42EC5C"/>
		<stop  offset="0.9432" style="stop-color:#20E55B"/>
		<stop  offset="1" style="stop-color:#00DF5A"/>
	</radialGradient>
	<path id="path6334" fill="url(#path6334_1_)" stroke="#000000" d="M364.522,322.904c0,4.916-8.644,8.904-19.312,8.904
		c-10.668,0-19.315-3.99-19.315-8.904c0-4.918,8.647-8.902,19.315-8.902C355.878,314.002,364.522,317.986,364.522,322.904"/>
	<g id="g6336">
		<g enable-background="new    ">
			<path d="M336.581,325.54c-0.39,0.149-1.169,0.37-2.079,0.37c-1.02,0-1.859-0.26-2.519-0.89c-0.58-0.56-0.939-1.459-0.939-2.509
				c0-2.009,1.389-3.479,3.648-3.479c0.78,0,1.399,0.17,1.689,0.311l-0.22,0.709c-0.36-0.17-0.81-0.289-1.489-0.289
				c-1.639,0-2.708,1.019-2.708,2.708c0,1.709,1.02,2.719,2.599,2.719c0.57,0,0.959-0.08,1.159-0.18v-2.01h-1.359v-0.699h2.219
				V325.54z"/>
			<path d="M340.432,319.344l-0.949,1.239v0.02l1.509-0.2v0.68l-1.509-0.18v0.021l0.959,1.209l-0.63,0.35l-0.609-1.399h-0.02
				l-0.64,1.409l-0.57-0.359l0.949-1.22v-0.02l-1.479,0.189v-0.68l1.469,0.19v-0.021l-0.939-1.229l0.61-0.34l0.62,1.379h0.02
				l0.609-1.39L340.432,319.344z"/>
			<path d="M347.19,325.54c-0.39,0.149-1.169,0.37-2.079,0.37c-1.02,0-1.859-0.26-2.519-0.89c-0.58-0.56-0.939-1.459-0.939-2.509
				c0-2.009,1.389-3.479,3.648-3.479c0.78,0,1.399,0.17,1.689,0.311l-0.22,0.709c-0.36-0.17-0.81-0.289-1.489-0.289
				c-1.639,0-2.708,1.019-2.708,2.708c0,1.709,1.02,2.719,2.599,2.719c0.57,0,0.959-0.08,1.159-0.18v-2.01h-1.359v-0.699h2.219
				V325.54z"/>
			<path d="M348.503,319.193c0.54-0.08,1.169-0.14,1.859-0.14c1.25,0,2.139,0.279,2.729,0.829c0.61,0.55,0.959,1.34,0.959,2.429
				c0,1.1-0.35,1.999-0.969,2.619c-0.64,0.629-1.679,0.969-2.988,0.969c-0.63,0-1.14-0.02-1.589-0.079V319.193z M349.382,325.16
				c0.22,0.04,0.54,0.04,0.88,0.04c1.859,0.01,2.868-1.039,2.868-2.858c0.01-1.609-0.89-2.599-2.729-2.599
				c-0.45,0-0.79,0.04-1.02,0.09V325.16z"/>
			<path d="M355.173,319.193c0.419-0.08,0.969-0.14,1.669-0.14c0.859,0,1.489,0.2,1.889,0.56c0.37,0.319,0.6,0.81,0.6,1.409
				c0,0.609-0.18,1.09-0.53,1.439c-0.46,0.489-1.209,0.739-2.059,0.739c-0.26,0-0.5-0.01-0.7-0.06v2.698h-0.869V319.193z
				 M356.042,322.432c0.19,0.05,0.44,0.07,0.72,0.07c1.06,0,1.689-0.52,1.689-1.43c0-0.899-0.629-1.329-1.589-1.329
				c-0.38,0-0.67,0.04-0.82,0.07V322.432z"/>
		</g>
	</g>
</g>
<path id="path6344" sodipodi:nodetypes="cc" d="M110.228,201.87"/>
<g>
	<g id="g6216" transform="translate(426.8954,-107.1291)">
		
			<radialGradient id="path6218_1_" cx="-325.9164" cy="508.3019" r="9.1881" gradientTransform="matrix(1.3465 0 0 -1.3639 638.9063 1113.4847)" gradientUnits="userSpaceOnUse">
			<stop  offset="0" style="stop-color:#A2FF5F"/>
			<stop  offset="0.3165" style="stop-color:#A0FF5F"/>
			<stop  offset="0.472" style="stop-color:#98FD5F"/>
			<stop  offset="0.5923" style="stop-color:#8BFA5E"/>
			<stop  offset="0.6947" style="stop-color:#78F75E"/>
			<stop  offset="0.7855" style="stop-color:#60F25D"/>
			<stop  offset="0.8682" style="stop-color:#42EC5C"/>
			<stop  offset="0.9432" style="stop-color:#20E55B"/>
			<stop  offset="1" style="stop-color:#00DF5A"/>
		</radialGradient>
		<path id="path6218" fill="url(#path6218_1_)" stroke="#000000" d="M215.32,420.212c0,4.787-6.83,8.67-15.258,8.67
			c-8.43,0-15.262-3.885-15.262-8.67c0-4.791,6.832-8.67,15.262-8.67C208.49,411.542,215.32,415.421,215.32,420.212"/>
		<g id="g6220">
		</g>
	</g>
	<g enable-background="new    ">
		<path d="M622.156,309.371c0.419-0.08,0.969-0.14,1.668-0.14c0.859,0,1.49,0.2,1.889,0.56c0.371,0.319,0.601,0.81,0.601,1.409
			c0,0.609-0.181,1.09-0.53,1.439c-0.459,0.489-1.209,0.739-2.059,0.739c-0.26,0-0.5-0.01-0.699-0.06v2.698h-0.869V309.371z
			 M623.025,312.609c0.189,0.05,0.439,0.07,0.719,0.07c1.061,0,1.689-0.52,1.689-1.43c0-0.899-0.629-1.329-1.589-1.329
			c-0.38,0-0.67,0.04-0.819,0.07V312.609z"/>
		<path d="M632.172,315.808c-0.31,0.16-0.96,0.32-1.778,0.32c-1.9,0-3.318-1.2-3.318-3.419c0-2.118,1.429-3.538,3.518-3.538
			c0.83,0,1.369,0.181,1.6,0.3l-0.221,0.71c-0.319-0.16-0.789-0.279-1.35-0.279c-1.578,0-2.628,1.009-2.628,2.778
			c0,1.659,0.95,2.708,2.579,2.708c0.539,0,1.079-0.109,1.429-0.279L632.172,315.808z"/>
	</g>
</g>
<path id="path10993" sodipodi:nodetypes="cc" d="M607.636,280.8"/>
<path id="path6351" sodipodi:nodetypes="cc" d="M604.681,216.272"/>
<path id="path6353" sodipodi:nodetypes="cc" d="M322.401,267.54"/>
<path id="path11176" sodipodi:nodetypes="cc" d="M194.225,261.914"/>
<path id="path5949" sodipodi:nodetypes="cc" d="M195.08,283.978"/>
<path id="path6359" sodipodi:nodetypes="cc" d="M154.028,244.013"/>
<path id="path6361" sodipodi:nodetypes="cc" d="M193.014,245.146"/>
<g>
	<g>
		<line fill="none" stroke="#000000" x1="110.278" y1="391.388" x2="110.278" y2="295.388"/>
		<polygon points="113.982,298.196 110.278,296.624 106.574,298.196 110.278,289.418 		"/>
		<polygon points="106.574,388.579 110.278,390.152 113.981,388.579 110.278,397.357 		"/>
	</g>
</g>
<g>
	<g>
		<line fill="none" stroke="#000000" x1="280.945" y1="405.971" x2="131.445" y2="405.971"/>
		<polygon points="134.253,402.267 132.681,405.971 134.253,409.675 125.476,405.971 		"/>
		<polygon points="278.136,409.675 279.709,405.971 278.136,402.267 286.914,405.971 		"/>
	</g>
</g>
<g>
	<g>
		<line fill="none" stroke="#000000" x1="279.945" y1="280.304" x2="133.278" y2="280.304"/>
		<polygon points="136.086,276.6 134.514,280.304 136.086,284.008 127.309,280.304 		"/>
		<polygon points="277.136,284.008 278.709,280.304 277.136,276.601 285.914,280.304 		"/>
	</g>
</g>
<g>
	<g>
		<line fill="none" stroke="#000000" x1="302.528" y1="390.138" x2="302.528" y2="296.263"/>
		<polygon points="306.232,299.071 302.528,297.499 298.824,299.071 302.528,290.294 		"/>
		<polygon points="298.824,387.329 302.528,388.902 306.231,387.329 302.528,396.107 		"/>
	</g>
</g>
<g>
	<g>
		<path fill="none" stroke="#000000" d="M151.405,351.691c-20.088-0.512-20.885,0.338-26.859,2.499
			c-4.05,1.466-12.778,6.262-14.422,19.113"/>
		<polygon points="148.503,355.323 150.169,351.66 148.691,347.917 157.372,351.844 		"/>
	</g>
</g>
<g>
	<g>
		<path fill="none" stroke="#000000" d="M193.111,306.472c0.353-12.796,0.879-13.322,2.348-17.176
			c0.996-2.613,4.107-8.277,11.737-9.593"/>
		<polygon points="189.485,303.563 193.145,305.236 196.891,303.767 192.946,312.438 		"/>
	</g>
</g>
<g>
	<g>
		<path fill="none" stroke="#000000" d="M195.075,351.378c43.627,1.068,44.037,1.427,58.87,3.51
			c10.205,1.433,48.734,10.711,48.625,28.875"/>
		<polygon points="197.974,347.744 196.311,351.408 197.792,355.149 189.108,351.231 		"/>
	</g>
</g>
<g>
	<g>
		<path fill="none" stroke="#000000" d="M197.195,335.638c9.691,39.143,12.399,40.74,19.935,51.322
			c5.109,7.177,19.16,19.046,46.183,19.081"/>
		<polygon points="201.465,337.474 197.492,336.837 194.275,339.254 195.76,329.844 		"/>
	</g>
</g>
<g>
	<g>
		<path fill="none" stroke="#000000" d="M322.278,329.586c-7.673,3.36-8.129,4.019-10.813,6.418
			c-1.82,1.624-6.026,6.116-8.893,14.183"/>
		<polygon points="321.191,334.105 321.146,330.082 318.219,327.32 327.746,327.191 		"/>
	</g>
</g>
<g>
	<g>
		<line fill="none" stroke="#000000" x1="531.32" y1="377.847" x2="601.695" y2="377.847"/>
		<polygon points="598.886,381.551 600.458,377.847 598.886,374.144 607.664,377.847 		"/>
	</g>
</g>
<g>
	<g id="path5958_2_" sodipodi:nodetypes="cc">
		<g>
			<path fill="none" stroke="#000000" d="M427.846,345.782c50.645-0.132,71.767-22.229,71.767-22.229"/>
			<polygon points="500.35,328.143 498.759,324.446 494.995,323.024 503.738,319.237 			"/>
		</g>
	</g>
	<g id="path5958_3_" sodipodi:nodetypes="cc">
		<g>
			<path fill="none" stroke="#000000" d="M427.929,345.976c50.645,0.132,71.767,22.23,71.767,22.23"/>
			<polygon points="495.078,368.735 498.842,367.313 500.432,363.616 503.82,372.521 			"/>
		</g>
	</g>
</g>
<g>
	
		<radialGradient id="path6292_4_" cx="138.1621" cy="452.4326" r="9.1881" gradientTransform="matrix(1.3465 0 0 -1.3639 -12.7884 968.9357)" gradientUnits="userSpaceOnUse">
		<stop  offset="0" style="stop-color:#A2FF5F"/>
		<stop  offset="0.3165" style="stop-color:#A0FF5F"/>
		<stop  offset="0.472" style="stop-color:#98FD5F"/>
		<stop  offset="0.5923" style="stop-color:#8BFA5E"/>
		<stop  offset="0.6947" style="stop-color:#78F75E"/>
		<stop  offset="0.7855" style="stop-color:#60F25D"/>
		<stop  offset="0.8682" style="stop-color:#42EC5C"/>
		<stop  offset="0.9432" style="stop-color:#20E55B"/>
		<stop  offset="1" style="stop-color:#00DF5A"/>
	</radialGradient>
	<path id="path6292_1_" fill="url(#path6292_4_)" stroke="#000000" d="M188.506,351.861c0,4.787-6.829,8.672-15.258,8.672
		s-15.261-3.885-15.261-8.672c0-4.789,6.832-8.67,15.261-8.67S188.506,347.072,188.506,351.861"/>
	<g id="g6294_1_">
		<g id="g6296_1_" transform="translate(328.4903,-101.7244)">
			<g id="g6298_1_">
				<g enable-background="new    ">
				</g>
			</g>
		</g>
		<g enable-background="new    ">
			<path d="M173.697,352.832c-0.39,0.149-1.169,0.37-2.079,0.37c-1.02,0-1.859-0.26-2.519-0.89c-0.58-0.56-0.939-1.459-0.939-2.509
				c0-2.009,1.389-3.479,3.648-3.479c0.78,0,1.399,0.17,1.689,0.311l-0.22,0.709c-0.36-0.17-0.81-0.289-1.489-0.289
				c-1.639,0-2.708,1.019-2.708,2.708c0,1.709,1.02,2.719,2.599,2.719c0.57,0,0.959-0.08,1.159-0.18v-2.01h-1.359v-0.699h2.219
				V352.832z"/>
			<path d="M177.083,355.943h-0.014c-0.182,0.329-0.561,0.596-1.106,0.596c-0.792,0-1.436-0.68-1.436-1.716
				c0-1.268,0.819-1.828,1.534-1.828c0.525,0,0.875,0.259,1.044,0.588h0.014l0.021-0.511h0.588c-0.021,0.28-0.028,0.574-0.028,0.932
				v3.845h-0.616V355.943z M177.083,354.444c0-0.091-0.007-0.182-0.028-0.259c-0.098-0.378-0.42-0.7-0.882-0.7
				c-0.637,0-1.022,0.539-1.022,1.303c0,0.68,0.322,1.261,1.001,1.261c0.399,0,0.742-0.245,0.882-0.673
				c0.028-0.084,0.049-0.203,0.049-0.294V354.444z"/>
		</g>
	</g>
</g>
<g>
	
		<radialGradient id="path6292_5_" cx="245.106" cy="401.3545" r="9.1884" gradientTransform="matrix(1.3465 0 0 -1.3639 -12.7884 968.9357)" gradientUnits="userSpaceOnUse">
		<stop  offset="0" style="stop-color:#A2FF5F"/>
		<stop  offset="0.3165" style="stop-color:#A0FF5F"/>
		<stop  offset="0.472" style="stop-color:#98FD5F"/>
		<stop  offset="0.5923" style="stop-color:#8BFA5E"/>
		<stop  offset="0.6947" style="stop-color:#78F75E"/>
		<stop  offset="0.7855" style="stop-color:#60F25D"/>
		<stop  offset="0.8682" style="stop-color:#42EC5C"/>
		<stop  offset="0.9432" style="stop-color:#20E55B"/>
		<stop  offset="1" style="stop-color:#00DF5A"/>
	</radialGradient>
	<path id="path6292_2_" fill="url(#path6292_5_)" stroke="#000000" d="M332.506,421.527c0,4.787-6.829,8.672-15.258,8.672
		s-15.261-3.885-15.261-8.672c0-4.789,6.832-8.67,15.261-8.67S332.506,416.738,332.506,421.527"/>
	<g id="g6294_2_">
		<g id="g6296_2_" transform="translate(328.4903,-101.7244)">
			<g id="g6298_2_">
				<g enable-background="new    ">
				</g>
			</g>
		</g>
		<g enable-background="new    ">
			<path d="M317.697,422.498c-0.39,0.149-1.169,0.37-2.079,0.37c-1.02,0-1.859-0.26-2.519-0.89c-0.58-0.56-0.939-1.459-0.939-2.509
				c0-2.009,1.389-3.479,3.648-3.479c0.78,0,1.399,0.17,1.689,0.311l-0.22,0.709c-0.36-0.17-0.81-0.289-1.489-0.289
				c-1.639,0-2.708,1.019-2.708,2.708c0,1.709,1.02,2.719,2.599,2.719c0.57,0,0.959-0.08,1.159-0.18v-2.01h-1.359v-0.699h2.219
				V422.498z"/>
			<path d="M321.083,425.609h-0.014c-0.182,0.329-0.561,0.596-1.106,0.596c-0.792,0-1.436-0.68-1.436-1.716
				c0-1.268,0.819-1.828,1.534-1.828c0.525,0,0.875,0.259,1.044,0.588h0.014l0.021-0.511h0.588c-0.021,0.28-0.028,0.574-0.028,0.932
				v3.845h-0.616V425.609z M321.083,424.11c0-0.091-0.007-0.182-0.028-0.259c-0.098-0.378-0.42-0.7-0.882-0.7
				c-0.637,0-1.022,0.539-1.022,1.303c0,0.68,0.322,1.261,1.001,1.261c0.399,0,0.742-0.245,0.882-0.673
				c0.028-0.084,0.049-0.203,0.049-0.294V424.11z"/>
		</g>
	</g>
</g>
<g>
	
		<radialGradient id="path6282_4_" cx="244.5366" cy="400.7041" r="9.1881" gradientTransform="matrix(1.3465 0 0 -1.3639 -26.598 952.7111)" gradientUnits="userSpaceOnUse">
		<stop  offset="0" style="stop-color:#A2FF5F"/>
		<stop  offset="0.3165" style="stop-color:#A0FF5F"/>
		<stop  offset="0.472" style="stop-color:#98FD5F"/>
		<stop  offset="0.5923" style="stop-color:#8BFA5E"/>
		<stop  offset="0.6947" style="stop-color:#78F75E"/>
		<stop  offset="0.7855" style="stop-color:#60F25D"/>
		<stop  offset="0.8682" style="stop-color:#42EC5C"/>
		<stop  offset="0.9432" style="stop-color:#20E55B"/>
		<stop  offset="1" style="stop-color:#00DF5A"/>
	</radialGradient>
	<path id="path6282_1_" fill="url(#path6282_4_)" stroke="#000000" d="M317.93,406.191c0,4.787-6.829,8.67-15.258,8.67
		c-8.429,0-15.261-3.884-15.261-8.67c0-4.79,6.832-8.671,15.261-8.671C311.101,397.521,317.93,401.401,317.93,406.191"/>
	<g id="g6284_1_">
		<g enable-background="new    ">
			<path d="M295.706,402.479c0.419-0.08,0.969-0.14,1.669-0.14c0.859,0,1.489,0.2,1.889,0.56c0.37,0.319,0.6,0.81,0.6,1.409
				c0,0.609-0.18,1.09-0.53,1.439c-0.46,0.489-1.209,0.739-2.059,0.739c-0.26,0-0.5-0.01-0.7-0.06v2.698h-0.869V402.479z
				 M296.575,405.718c0.19,0.05,0.44,0.07,0.72,0.07c1.06,0,1.689-0.52,1.689-1.43c0-0.899-0.629-1.329-1.589-1.329
				c-0.38,0-0.67,0.04-0.82,0.07V405.718z"/>
			<path d="M301.016,402.39h0.879v6.007h2.878v0.729h-3.758V402.39z"/>
			<path d="M310.053,408.916c-0.31,0.16-0.959,0.32-1.779,0.32c-1.899,0-3.318-1.2-3.318-3.419c0-2.118,1.429-3.538,3.518-3.538
				c0.83,0,1.369,0.181,1.599,0.3l-0.22,0.71c-0.32-0.16-0.79-0.279-1.35-0.279c-1.579,0-2.628,1.009-2.628,2.778
				c0,1.659,0.95,2.708,2.579,2.708c0.54,0,1.08-0.109,1.429-0.279L310.053,408.916z"/>
		</g>
	</g>
</g>
<g>
	
		<radialGradient id="path6282_5_" cx="244.4131" cy="493.4521" r="9.1881" gradientTransform="matrix(1.3465 0 0 -1.3639 -26.598 952.7111)" gradientUnits="userSpaceOnUse">
		<stop  offset="0" style="stop-color:#A2FF5F"/>
		<stop  offset="0.3165" style="stop-color:#A0FF5F"/>
		<stop  offset="0.472" style="stop-color:#98FD5F"/>
		<stop  offset="0.5923" style="stop-color:#8BFA5E"/>
		<stop  offset="0.6947" style="stop-color:#78F75E"/>
		<stop  offset="0.7855" style="stop-color:#60F25D"/>
		<stop  offset="0.8682" style="stop-color:#42EC5C"/>
		<stop  offset="0.9432" style="stop-color:#20E55B"/>
		<stop  offset="1" style="stop-color:#00DF5A"/>
	</radialGradient>
	<path id="path6282_2_" fill="url(#path6282_5_)" stroke="#000000" d="M317.764,279.692c0,4.787-6.829,8.67-15.258,8.67
		c-8.429,0-15.261-3.884-15.261-8.67c0-4.79,6.832-8.671,15.261-8.671C310.935,271.021,317.764,274.902,317.764,279.692"/>
	<g id="g6284_2_">
		<g enable-background="new    ">
			<path d="M295.54,275.979c0.419-0.08,0.969-0.14,1.669-0.14c0.859,0,1.489,0.2,1.889,0.56c0.37,0.319,0.6,0.81,0.6,1.409
				c0,0.609-0.18,1.09-0.53,1.439c-0.46,0.489-1.209,0.739-2.059,0.739c-0.26,0-0.5-0.01-0.7-0.06v2.698h-0.869V275.979z
				 M296.409,279.218c0.19,0.05,0.44,0.07,0.72,0.07c1.06,0,1.689-0.52,1.689-1.43c0-0.899-0.629-1.329-1.589-1.329
				c-0.38,0-0.67,0.04-0.82,0.07V279.218z"/>
			<path d="M300.849,275.89h0.879v6.007h2.878v0.729h-3.758V275.89z"/>
			<path d="M309.887,282.416c-0.31,0.16-0.959,0.32-1.779,0.32c-1.899,0-3.318-1.2-3.318-3.419c0-2.118,1.429-3.538,3.518-3.538
				c0.83,0,1.369,0.181,1.599,0.3l-0.22,0.71c-0.32-0.16-0.79-0.279-1.35-0.279c-1.579,0-2.628,1.009-2.628,2.778
				c0,1.659,0.95,2.708,2.579,2.708c0.54,0,1.08-0.109,1.429-0.279L309.887,282.416z"/>
		</g>
	</g>
</g>
<g>
	
		<radialGradient id="path11134_1_" cx="366.7134" cy="-543.2583" r="22.1567" gradientTransform="matrix(0.3664 0 0 0.3664 152.8951 464.858)" gradientUnits="userSpaceOnUse">
		<stop  offset="0" style="stop-color:#FFFCDF"/>
		<stop  offset="0.1203" style="stop-color:#FFFBDA"/>
		<stop  offset="0.2662" style="stop-color:#FFF9CB"/>
		<stop  offset="0.4255" style="stop-color:#FFF6B2"/>
		<stop  offset="0.5943" style="stop-color:#FFF090"/>
		<stop  offset="0.7706" style="stop-color:#FFEA64"/>
		<stop  offset="0.9506" style="stop-color:#FFE22F"/>
		<stop  offset="1" style="stop-color:#FFE01F"/>
	</radialGradient>
	<path id="path11134_4_" fill="url(#path11134_1_)" stroke="#000000" stroke-width="0.9921" d="M295.377,265.809
		c0,4.482-3.635,8.117-8.117,8.117c-4.484,0-8.119-3.635-8.119-8.117s3.634-8.119,8.119-8.119
		C291.742,257.69,295.377,261.327,295.377,265.809z"/>
	<g>
		<path d="M284.601,268.969c-0.224,0.115-0.691,0.23-1.282,0.23c-1.368,0-2.391-0.864-2.391-2.463c0-1.527,1.029-2.55,2.535-2.55
			c0.598,0,0.986,0.13,1.152,0.216l-0.159,0.512c-0.23-0.115-0.568-0.202-0.972-0.202c-1.139,0-1.895,0.728-1.895,2.003
			c0,1.195,0.685,1.951,1.858,1.951c0.389,0,0.777-0.079,1.029-0.201L284.601,268.969z"/>
		<path d="M287.772,268.284c0,0.303,0.015,0.599,0.051,0.836h-0.569l-0.058-0.439h-0.021c-0.188,0.273-0.569,0.519-1.065,0.519
			c-0.706,0-1.066-0.497-1.066-1.001c0-0.843,0.749-1.304,2.096-1.297v-0.071c0-0.288-0.079-0.814-0.792-0.807
			c-0.331,0-0.67,0.094-0.915,0.259l-0.144-0.425c0.288-0.18,0.713-0.303,1.152-0.303c1.073,0,1.332,0.728,1.332,1.427V268.284z
			 M287.153,267.341c-0.691-0.014-1.477,0.108-1.477,0.785c0,0.418,0.273,0.605,0.591,0.605c0.461,0,0.756-0.288,0.857-0.584
			c0.021-0.064,0.028-0.137,0.028-0.201V267.341z"/>
		<path d="M288.487,266.724v-0.271l0.348-0.338c0.836-0.796,1.219-1.219,1.219-1.712c0-0.332-0.156-0.64-0.645-0.64
			c-0.298,0-0.544,0.151-0.695,0.277l-0.141-0.313c0.222-0.187,0.549-0.332,0.926-0.332c0.7,0,0.997,0.483,0.997,0.951
			c0,0.604-0.438,1.093-1.128,1.758l-0.257,0.241v0.011h1.466v0.367H288.487z"/>
		<path d="M292.507,264.045v1.184h1.138v0.302h-1.138v1.193h-0.322v-1.193h-1.139v-0.302h1.139v-1.184H292.507z"/>
	</g>
</g>
<g>
	
		<radialGradient id="path11134_2_" cx="364.8945" cy="-195.7324" r="22.1567" gradientTransform="matrix(0.3664 0 0 0.3664 152.8951 464.858)" gradientUnits="userSpaceOnUse">
		<stop  offset="0" style="stop-color:#FFFCDF"/>
		<stop  offset="0.1203" style="stop-color:#FFFBDA"/>
		<stop  offset="0.2662" style="stop-color:#FFF9CB"/>
		<stop  offset="0.4255" style="stop-color:#FFF6B2"/>
		<stop  offset="0.5943" style="stop-color:#FFF090"/>
		<stop  offset="0.7706" style="stop-color:#FFEA64"/>
		<stop  offset="0.9506" style="stop-color:#FFE22F"/>
		<stop  offset="1" style="stop-color:#FFE01F"/>
	</radialGradient>
	<path id="path11134_5_" fill="url(#path11134_2_)" stroke="#000000" stroke-width="0.9921" d="M294.71,393.143
		c0,4.482-3.635,8.117-8.117,8.117c-4.484,0-8.119-3.635-8.119-8.117s3.634-8.119,8.119-8.119
		C291.076,385.023,294.71,388.66,294.71,393.143z"/>
	<g>
		<path d="M283.934,396.302c-0.224,0.115-0.691,0.23-1.282,0.23c-1.368,0-2.391-0.864-2.391-2.463c0-1.527,1.029-2.55,2.535-2.55
			c0.598,0,0.986,0.13,1.152,0.216l-0.159,0.512c-0.23-0.115-0.568-0.202-0.972-0.202c-1.139,0-1.895,0.728-1.895,2.003
			c0,1.195,0.685,1.951,1.858,1.951c0.389,0,0.777-0.079,1.029-0.201L283.934,396.302z"/>
		<path d="M287.106,395.617c0,0.303,0.015,0.599,0.051,0.836h-0.569l-0.058-0.439h-0.021c-0.188,0.273-0.569,0.519-1.065,0.519
			c-0.706,0-1.066-0.497-1.066-1.001c0-0.843,0.749-1.304,2.096-1.297v-0.071c0-0.288-0.079-0.814-0.792-0.807
			c-0.331,0-0.67,0.094-0.915,0.259l-0.144-0.425c0.288-0.18,0.713-0.303,1.152-0.303c1.073,0,1.332,0.728,1.332,1.427V395.617z
			 M286.487,394.674c-0.691-0.014-1.477,0.108-1.477,0.785c0,0.418,0.273,0.605,0.591,0.605c0.461,0,0.756-0.288,0.857-0.584
			c0.021-0.064,0.028-0.137,0.028-0.201V394.674z"/>
		<path d="M287.821,394.057v-0.271l0.348-0.338c0.836-0.796,1.219-1.219,1.219-1.712c0-0.332-0.156-0.64-0.645-0.64
			c-0.298,0-0.544,0.151-0.695,0.277l-0.141-0.313c0.222-0.187,0.549-0.332,0.926-0.332c0.7,0,0.997,0.483,0.997,0.951
			c0,0.604-0.438,1.093-1.128,1.758l-0.257,0.241v0.011h1.466v0.367H287.821z"/>
		<path d="M291.84,391.378v1.184h1.138v0.302h-1.138v1.193h-0.322v-1.193h-1.139v-0.302h1.139v-1.184H291.84z"/>
	</g>
</g>
<g>
	
		<radialGradient id="path11134_3_" cx="113.8013" cy="-392.2393" r="22.1567" gradientTransform="matrix(0.3664 0 0 0.3664 152.8951 464.858)" gradientUnits="userSpaceOnUse">
		<stop  offset="0" style="stop-color:#FFFCDF"/>
		<stop  offset="0.1203" style="stop-color:#FFFBDA"/>
		<stop  offset="0.2662" style="stop-color:#FFF9CB"/>
		<stop  offset="0.4255" style="stop-color:#FFF6B2"/>
		<stop  offset="0.5943" style="stop-color:#FFF090"/>
		<stop  offset="0.7706" style="stop-color:#FFEA64"/>
		<stop  offset="0.9506" style="stop-color:#FFE22F"/>
		<stop  offset="1" style="stop-color:#FFE01F"/>
	</radialGradient>
	<path id="path11134_6_" fill="url(#path11134_3_)" stroke="#000000" stroke-width="0.9921" d="M202.71,321.143
		c0,4.482-3.635,8.117-8.117,8.117c-4.484,0-8.119-3.635-8.119-8.117s3.634-8.119,8.119-8.119
		C199.075,313.023,202.71,316.66,202.71,321.143z"/>
	<g>
		<path d="M191.934,324.302c-0.224,0.115-0.691,0.23-1.282,0.23c-1.368,0-2.391-0.864-2.391-2.463c0-1.527,1.029-2.55,2.535-2.55
			c0.598,0,0.986,0.13,1.152,0.216l-0.159,0.512c-0.23-0.115-0.568-0.202-0.972-0.202c-1.139,0-1.895,0.728-1.895,2.003
			c0,1.195,0.685,1.951,1.858,1.951c0.389,0,0.777-0.079,1.029-0.201L191.934,324.302z"/>
		<path d="M195.105,323.617c0,0.303,0.015,0.599,0.051,0.836h-0.569l-0.058-0.439h-0.021c-0.188,0.273-0.569,0.519-1.065,0.519
			c-0.706,0-1.066-0.497-1.066-1.001c0-0.843,0.749-1.304,2.096-1.297v-0.071c0-0.288-0.079-0.814-0.792-0.807
			c-0.331,0-0.67,0.094-0.915,0.259l-0.144-0.425c0.288-0.18,0.713-0.303,1.152-0.303c1.073,0,1.332,0.728,1.332,1.427V323.617z
			 M194.486,322.674c-0.691-0.014-1.477,0.108-1.477,0.785c0,0.418,0.273,0.605,0.591,0.605c0.461,0,0.756-0.288,0.857-0.584
			c0.021-0.064,0.028-0.137,0.028-0.201V322.674z"/>
		<path d="M195.82,322.057v-0.271l0.348-0.338c0.836-0.796,1.219-1.219,1.219-1.712c0-0.332-0.156-0.64-0.645-0.64
			c-0.298,0-0.544,0.151-0.695,0.277l-0.141-0.313c0.222-0.187,0.549-0.332,0.926-0.332c0.7,0,0.997,0.483,0.997,0.951
			c0,0.604-0.438,1.093-1.128,1.758l-0.257,0.241v0.011h1.466v0.367H195.82z"/>
		<path d="M199.84,319.378v1.184h1.138v0.302h-1.138v1.193h-0.322v-1.193h-1.139v-0.302h1.139v-1.184H199.84z"/>
	</g>
</g>
</svg>
