<?xml version="1.0" encoding="utf-8"?>
<!-- Generator: Adobe Illustrator 13.0.0, SVG Export Plug-In . SVG Version: 6.00 Build 14948)  -->
<!DOCTYPE svg PUBLIC "-//W3C//DTD SVG 1.1//EN" "http://www.w3.org/Graphics/SVG/1.1/DTD/svg11.dtd">
<svg version="1.1"
	 id="svg12593" xmlns:rdf="http://www.w3.org/1999/02/22-rdf-syntax-ns#" xmlns:sodipodi="http://inkscape.sourceforge.net/DTD/sodipodi-0.dtd" xmlns:cc="http://web.resource.org/cc/" xmlns:xml="http://www.w3.org/XML/1998/namespace" xmlns:inkscape="http://www.inkscape.org/namespaces/inkscape" xmlns:svg="http://www.w3.org/2000/svg" xmlns:dc="http://purl.org/dc/elements/1.1/" sodipodi:docbase="C:\Documents and Settings\pvil005\Desktop\Repository_diagrams" sodipodi:version="0.32" sodipodi:docname="bhalla_iyengar_adenylyl_cyclase_1999.svg" inkscape:version="0.40+cvs"
	 xmlns="http://www.w3.org/2000/svg" xmlns:xlink="http://www.w3.org/1999/xlink" x="0px" y="0px" width="629.968px"
	 height="493.476px" viewBox="115.424 46.13 629.968 493.476" enable-background="new 115.424 46.13 629.968 493.476"
	 xml:space="preserve">
<sodipodi:namedview  pagecolor="#ffffff" inkscape:cx="500.40310" bordercolor="#666666" borderopacity="1.0" inkscape:zoom="1.0159482" inkscape:cy="596.82426" id="base" inkscape:current-layer="layer1" inkscape:window-x="13" inkscape:window-width="1223" inkscape:window-height="935" inkscape:pageshadow="2" inkscape:pageopacity="0.0" inkscape:window-y="7" inkscape:document-units="px">
	</sodipodi:namedview>
<path id="path16173" sodipodi:nodetypes="cc" d="M237.314-121.367"/>
<path id="path16175" sodipodi:nodetypes="cc" d="M533.814-121.019"/>
<path id="path16966" sodipodi:nodetypes="cc" d="M462.861-80.68"/>
<path id="path16970" sodipodi:nodetypes="cc" d="M92.026-166.823"/>
<path id="path16973" sodipodi:nodetypes="cc" d="M332.688-172.729"/>
<path id="path16975" sodipodi:nodetypes="cc" d="M312.302-171.745"/>
<path id="path16977" sodipodi:nodetypes="cc" d="M626.787-171.253"/>
<g>
	<g id="g12717" transform="matrix(0.778790,0.000000,0.000000,0.969011,-32.50401,-249.2769)">
		<g id="g12719" transform="matrix(1.228309,0.000000,0.000000,1.000000,87.81894,114.4454)">
			
				<radialGradient id="path12721_1_" cx="150.5188" cy="144.0818" r="16.1853" gradientTransform="matrix(1.9238 0 0 0.6358 -110.0759 176.3769)" gradientUnits="userSpaceOnUse">
				<stop  offset="0" style="stop-color:#A2FF5F"/>
				<stop  offset="0.4082" style="stop-color:#A0FF5F"/>
				<stop  offset="0.5552" style="stop-color:#99FD5F"/>
				<stop  offset="0.66" style="stop-color:#8EFB5E"/>
				<stop  offset="0.7448" style="stop-color:#7DF85E"/>
				<stop  offset="0.8174" style="stop-color:#67F35D"/>
				<stop  offset="0.8817" style="stop-color:#4BEE5C"/>
				<stop  offset="0.9398" style="stop-color:#2BE85B"/>
				<stop  offset="0.9915" style="stop-color:#07E05A"/>
				<stop  offset="1" style="stop-color:#00DF5A"/>
			</radialGradient>
			<path id="path12721" fill="url(#path12721_1_)" stroke="#000000" d="M211.446,267.983c0,5.971-14.311,10.812-31.954,10.812
				c-17.647,0-31.953-4.838-31.953-10.812c0-5.973,14.306-10.81,31.953-10.81C197.135,257.174,211.446,262.012,211.446,267.983z"/>
		</g>
	</g>
	<g enable-background="new    ">
		<path d="M192.477,123.937c-0.39,0.149-1.169,0.37-2.079,0.37c-1.02,0-1.859-0.26-2.519-0.89c-0.58-0.56-0.939-1.459-0.939-2.509
			c0-2.009,1.389-3.479,3.648-3.479c0.78,0,1.399,0.17,1.689,0.311l-0.22,0.709c-0.36-0.17-0.81-0.289-1.489-0.289
			c-1.639,0-2.708,1.019-2.708,2.708c0,1.709,1.02,2.719,2.599,2.719c0.57,0,0.959-0.08,1.159-0.18v-2.01h-1.359v-0.699h2.219
			V123.937z"/>
		<path d="M195.809,121.218v0.64h-2.469v-0.64H195.809z"/>
		<path d="M196.72,123.347c0.27,0.16,0.729,0.34,1.169,0.34c0.63,0,0.93-0.31,0.93-0.72c0-0.42-0.25-0.649-0.89-0.89
			c-0.879-0.319-1.289-0.789-1.289-1.369c0-0.779,0.64-1.419,1.669-1.419c0.49,0,0.919,0.13,1.179,0.3l-0.209,0.63
			c-0.19-0.11-0.54-0.28-0.99-0.28c-0.52,0-0.799,0.3-0.799,0.66c0,0.409,0.28,0.59,0.909,0.829c0.83,0.31,1.27,0.729,1.27,1.459
			c0,0.86-0.67,1.46-1.799,1.46c-0.53,0-1.02-0.141-1.359-0.34L196.72,123.347z"/>
		<path d="M202.838,121.218v0.64h-2.469v-0.64H202.838z"/>
		<path d="M204.989,122.117l-0.7,2.119h-0.899l2.289-6.736h1.049l2.299,6.736h-0.93l-0.719-2.119H204.989z M207.197,121.438
			l-0.669-1.938c-0.14-0.439-0.24-0.84-0.34-1.229h-0.03c-0.09,0.39-0.2,0.81-0.33,1.22l-0.66,1.948H207.197z"/>
		<path d="M214.567,124.026c-0.31,0.16-0.959,0.32-1.779,0.32c-1.899,0-3.318-1.2-3.318-3.419c0-2.118,1.429-3.538,3.518-3.538
			c0.83,0,1.369,0.181,1.599,0.3l-0.22,0.71c-0.32-0.16-0.79-0.279-1.35-0.279c-1.579,0-2.628,1.009-2.628,2.778
			c0,1.659,0.95,2.708,2.579,2.708c0.54,0,1.08-0.109,1.429-0.279L214.567,124.026z"/>
		<path d="M217.269,118.56h-0.02l-1.129,0.609l-0.17-0.67l1.419-0.759h0.75v6.496h-0.849V118.56z"/>
		<path d="M220.03,124.636l2.778-7.246h0.689l-2.798,7.246H220.03z"/>
		<path d="M226.098,117.63c1.259,0,1.899,0.779,1.899,1.6c0,0.549-0.28,1.149-1.079,1.519v0.03c0.81,0.319,1.309,0.899,1.309,1.679
			c0,1.14-0.969,1.89-2.208,1.89c-1.359,0-2.179-0.8-2.179-1.749c0-0.82,0.49-1.409,1.279-1.749v-0.03
			c-0.729-0.34-1.039-0.899-1.039-1.459c0-1.03,0.869-1.729,2.009-1.729H226.098z M226.048,123.707c0.79,0,1.299-0.49,1.299-1.16
			c0-0.779-0.55-1.169-1.429-1.419c-0.76,0.22-1.169,0.729-1.169,1.35c-0.03,0.649,0.47,1.229,1.289,1.229H226.048z M226.068,118.26
			c-0.729,0-1.129,0.479-1.129,1.039c-0.01,0.649,0.49,1,1.239,1.199c0.56-0.189,0.989-0.589,0.989-1.179
			c0-0.521-0.31-1.06-1.089-1.06H226.068z"/>
	</g>
</g>
<g>
	<g id="g12731" transform="matrix(0.778790,0.000000,0.000000,0.969011,-32.50401,-249.2769)">
		<g id="g12733" transform="matrix(1.228309,0.000000,0.000000,1.000000,87.81894,114.4454)">
			
				<radialGradient id="path12735_1_" cx="149.9221" cy="144.0818" r="16.1853" gradientTransform="matrix(1.9238 0 0 0.6358 117.7484 176.3769)" gradientUnits="userSpaceOnUse">
				<stop  offset="0" style="stop-color:#A2FF5F"/>
				<stop  offset="0.4082" style="stop-color:#A0FF5F"/>
				<stop  offset="0.5552" style="stop-color:#99FD5F"/>
				<stop  offset="0.66" style="stop-color:#8EFB5E"/>
				<stop  offset="0.7448" style="stop-color:#7DF85E"/>
				<stop  offset="0.8174" style="stop-color:#67F35D"/>
				<stop  offset="0.8817" style="stop-color:#4BEE5C"/>
				<stop  offset="0.9398" style="stop-color:#2BE85B"/>
				<stop  offset="0.9915" style="stop-color:#07E05A"/>
				<stop  offset="1" style="stop-color:#00DF5A"/>
			</radialGradient>
			<path id="path12735" fill="url(#path12735_1_)" stroke="#000000" d="M438.123,267.983c0,5.971-14.311,10.812-31.954,10.812
				c-17.647,0-31.953-4.838-31.953-10.812c0-5.973,14.306-10.81,31.953-10.81C423.812,257.174,438.123,262.012,438.123,267.983z"/>
		</g>
	</g>
	<g enable-background="new    ">
		<path d="M413.547,122.117l-0.7,2.119h-0.899l2.289-6.736h1.049l2.299,6.736h-0.93l-0.719-2.119H413.547z M415.756,121.438
			l-0.669-1.938c-0.14-0.439-0.24-0.84-0.34-1.229h-0.03c-0.09,0.39-0.2,0.81-0.33,1.22l-0.66,1.948H415.756z"/>
		<path d="M423.125,124.026c-0.31,0.16-0.96,0.32-1.779,0.32c-1.899,0-3.318-1.2-3.318-3.419c0-2.118,1.429-3.538,3.518-3.538
			c0.83,0,1.369,0.181,1.6,0.3l-0.221,0.71c-0.319-0.16-0.789-0.279-1.35-0.279c-1.579,0-2.628,1.009-2.628,2.778
			c0,1.659,0.95,2.708,2.579,2.708c0.539,0,1.079-0.109,1.429-0.279L423.125,124.026z"/>
		<path d="M425.828,118.56h-0.021l-1.13,0.609l-0.17-0.67l1.42-0.759h0.749v6.496h-0.849V118.56z"/>
		<path d="M428.588,124.636l2.778-7.246h0.689l-2.799,7.246H428.588z"/>
		<path d="M434.656,117.63c1.26,0,1.899,0.779,1.899,1.6c0,0.549-0.28,1.149-1.079,1.519v0.03c0.81,0.319,1.309,0.899,1.309,1.679
			c0,1.14-0.969,1.89-2.208,1.89c-1.359,0-2.179-0.8-2.179-1.749c0-0.82,0.489-1.409,1.279-1.749v-0.03
			c-0.73-0.34-1.039-0.899-1.039-1.459c0-1.03,0.869-1.729,2.008-1.729H434.656z M434.607,123.707c0.789,0,1.299-0.49,1.299-1.16
			c0-0.779-0.55-1.169-1.43-1.419c-0.76,0.22-1.169,0.729-1.169,1.35c-0.03,0.649,0.47,1.229,1.289,1.229H434.607z M434.626,118.26
			c-0.729,0-1.129,0.479-1.129,1.039c-0.011,0.649,0.489,1,1.238,1.199c0.561-0.189,0.99-0.589,0.99-1.179
			c0-0.521-0.311-1.06-1.09-1.06H434.626z"/>
	</g>
</g>
<path id="path8581_8_" sodipodi:nodetypes="cccc" d="M455.809,121.357"/>
<path id="path8581_7_" sodipodi:nodetypes="cccc" d="M462.366,123.768"/>
<path id="path8590_8_" sodipodi:nodetypes="cccc" d="M605.631,123.61"/>
<path id="path8590_7_" sodipodi:nodetypes="cccc" d="M612.184,121.192"/>
<path id="path16167" sodipodi:nodetypes="cc" d="M358.287,93.56"/>
<path id="path16169" sodipodi:nodetypes="cc" d="M491.572,93.908"/>
<path id="path16171" sodipodi:nodetypes="cc" d="M629.034,93.908"/>
<path id="path16184" sodipodi:nodetypes="cc" d="M306.344,133.944"/>
<path id="path16186" sodipodi:nodetypes="cc" d="M568.868,133.944"/>
<path id="path16188" sodipodi:nodetypes="cc" d="M159.152,47.801"/>
<path id="path16190" sodipodi:nodetypes="cc" d="M614.883,47.801"/>
<path id="path16192" sodipodi:nodetypes="cc" d="M596.467,44.848"/>
<path id="path9200_8_" fill="none" stroke="#000000" stroke-width="1.2427" d="M243.146,121.173"/>
<g>
	<g>
		<line fill="none" stroke="#000000" x1="245" y1="121.064" x2="386.333" y2="121.052"/>
		<polygon points="383.525,124.756 385.098,121.052 383.524,117.349 392.303,121.052 		"/>
		<polygon points="247.808,117.359 246.236,121.064 247.809,124.768 239.031,121.064 		"/>
	</g>
</g>
<g>
	<g>
		<line fill="none" stroke="#000000" x1="462.417" y1="120.808" x2="604.75" y2="120.808"/>
		<polygon points="601.942,124.512 603.515,120.808 601.942,117.104 610.72,120.808 		"/>
		<polygon points="465.226,117.104 463.654,120.808 465.226,124.512 456.449,120.808 		"/>
	</g>
</g>
<path fill="none" stroke="#000000" d="M488.75,203.059"/>
<g>
	
		<radialGradient id="path4128_4_" cx="217.2661" cy="-19.7368" r="16.1863" gradientTransform="matrix(1.0057 0 0 0.5335 -63.6181 187.5241)" gradientUnits="userSpaceOnUse">
		<stop  offset="0" style="stop-color:#A2FF5F"/>
		<stop  offset="0.4082" style="stop-color:#A0FF5F"/>
		<stop  offset="0.5552" style="stop-color:#99FD5F"/>
		<stop  offset="0.66" style="stop-color:#8EFB5E"/>
		<stop  offset="0.7448" style="stop-color:#7DF85E"/>
		<stop  offset="0.8174" style="stop-color:#67F35D"/>
		<stop  offset="0.8817" style="stop-color:#4BEE5C"/>
		<stop  offset="0.9398" style="stop-color:#2BE85B"/>
		<stop  offset="0.9915" style="stop-color:#07E05A"/>
		<stop  offset="1" style="stop-color:#00DF5A"/>
	</radialGradient>
	<path id="path4128" fill="url(#path4128_4_)" stroke="#000000" d="M170.866,176.994c0,4.855-7.157,8.792-15.979,8.792
		c-8.825,0-15.979-3.935-15.979-8.792s7.154-8.791,15.979-8.791C163.709,168.204,170.866,172.138,170.866,176.994z"/>
	<g enable-background="new    ">
		<path d="M147.085,179.759c-0.23,0.11-0.74,0.28-1.389,0.28c-1.459,0-2.409-0.99-2.409-2.479c0-1.488,1.02-2.578,2.599-2.578
			c0.52,0,0.979,0.13,1.219,0.26l-0.2,0.67c-0.21-0.11-0.54-0.23-1.02-0.23c-1.109,0-1.709,0.83-1.709,1.84
			c0,1.119,0.719,1.809,1.679,1.809c0.5,0,0.83-0.12,1.08-0.229L147.085,179.759z"/>
		<path d="M149.236,177.81l-0.7,2.119h-0.899l2.289-6.736h1.049l2.299,6.736h-0.929l-0.72-2.119H149.236z M151.445,177.13
			l-0.669-1.938c-0.14-0.439-0.24-0.84-0.34-1.229h-0.03c-0.09,0.39-0.2,0.81-0.33,1.22l-0.66,1.948H151.445z"/>
		<path d="M159.944,176.971c-0.05-0.939-0.11-2.079-0.11-2.909h-0.02c-0.24,0.78-0.51,1.63-0.85,2.559l-1.189,3.269h-0.66
			l-1.099-3.208c-0.32-0.96-0.58-1.819-0.77-2.619h-0.02c-0.02,0.84-0.07,1.959-0.13,2.979l-0.18,2.889h-0.83l0.47-6.736h1.109
			l1.149,3.258c0.28,0.83,0.5,1.569,0.68,2.27h0.02c0.18-0.68,0.42-1.42,0.72-2.27l1.199-3.258h1.109l0.42,6.736h-0.86
			L159.944,176.971z"/>
		<path d="M162.307,173.282c0.419-0.08,0.969-0.14,1.669-0.14c0.859,0,1.489,0.2,1.889,0.56c0.37,0.319,0.6,0.81,0.6,1.409
			c0,0.609-0.18,1.09-0.53,1.439c-0.46,0.489-1.209,0.739-2.059,0.739c-0.26,0-0.5-0.01-0.7-0.06v2.698h-0.869V173.282z
			 M163.176,176.521c0.19,0.05,0.44,0.07,0.72,0.07c1.06,0,1.689-0.52,1.689-1.43c0-0.899-0.629-1.329-1.589-1.329
			c-0.38,0-0.67,0.04-0.82,0.07V176.521z"/>
	</g>
</g>
<g>
	
		<radialGradient id="path12666_4_" cx="220.5405" cy="-19.7368" r="16.1863" gradientTransform="matrix(1.0057 0 0 0.5335 37.9986 187.5241)" gradientUnits="userSpaceOnUse">
		<stop  offset="0" style="stop-color:#A2FF5F"/>
		<stop  offset="0.4082" style="stop-color:#A0FF5F"/>
		<stop  offset="0.5552" style="stop-color:#99FD5F"/>
		<stop  offset="0.66" style="stop-color:#8EFB5E"/>
		<stop  offset="0.7448" style="stop-color:#7DF85E"/>
		<stop  offset="0.8174" style="stop-color:#67F35D"/>
		<stop  offset="0.8817" style="stop-color:#4BEE5C"/>
		<stop  offset="0.9398" style="stop-color:#2BE85B"/>
		<stop  offset="0.9915" style="stop-color:#07E05A"/>
		<stop  offset="1" style="stop-color:#00DF5A"/>
	</radialGradient>
	<path id="path12666" fill="url(#path12666_4_)" stroke="#000000" d="M275.776,176.994c0,4.855-7.156,8.792-15.979,8.792
		c-8.825,0-15.979-3.935-15.979-8.792s7.154-8.791,15.979-8.791C268.62,168.204,275.776,172.138,275.776,176.994z"/>
	<g enable-background="new    ">
		<path d="M253.835,177.812l-0.7,2.119h-0.899l2.289-6.736h1.049l2.299,6.736h-0.93l-0.719-2.119H253.835z M256.044,177.132
			l-0.669-1.938c-0.14-0.439-0.24-0.84-0.34-1.229h-0.03c-0.09,0.39-0.2,0.81-0.33,1.22l-0.66,1.948H256.044z"/>
		<path d="M259.355,173.934h-2.049v-0.739h4.987v0.739h-2.059v5.997h-0.879V173.934z"/>
		<path d="M263.046,173.284c0.419-0.08,0.969-0.14,1.669-0.14c0.859,0,1.489,0.2,1.889,0.56c0.37,0.319,0.6,0.81,0.6,1.409
			c0,0.609-0.18,1.09-0.53,1.439c-0.46,0.489-1.209,0.739-2.059,0.739c-0.26,0-0.5-0.01-0.7-0.06v2.698h-0.869V173.284z
			 M263.915,176.522c0.19,0.05,0.44,0.07,0.72,0.07c1.06,0,1.689-0.52,1.689-1.43c0-0.899-0.629-1.329-1.589-1.329
			c-0.38,0-0.67,0.04-0.82,0.07V176.522z"/>
	</g>
</g>
<g>
	<g>
		<path fill="none" stroke="#000000" d="M258.343,167.933c-13.055-22.442-30.574-34.375-48.62-35.535
			c-18.503-1.189-37.562,8.947-52.929,30.694"/>
		<polygon points="155.39,158.661 157.507,162.083 161.439,162.936 153.349,167.967 		"/>
	</g>
</g>
<g>
	<g id="g12745" transform="matrix(0.778790,0.000000,0.000000,0.969011,-32.50401,-249.2769)">
		<g id="g12747" transform="matrix(1.228309,0.000000,0.000000,1.000000,87.81894,114.4454)">
			
				<radialGradient id="path12749_1_" cx="139.7787" cy="153.3822" r="16.1865" gradientTransform="matrix(2.6138 0 0 0.6963 280.3362 161.1849)" gradientUnits="userSpaceOnUse">
				<stop  offset="0" style="stop-color:#A2FF5F"/>
				<stop  offset="0.4082" style="stop-color:#A0FF5F"/>
				<stop  offset="0.5552" style="stop-color:#99FD5F"/>
				<stop  offset="0.66" style="stop-color:#8EFB5E"/>
				<stop  offset="0.7448" style="stop-color:#7DF85E"/>
				<stop  offset="0.8174" style="stop-color:#67F35D"/>
				<stop  offset="0.8817" style="stop-color:#4BEE5C"/>
				<stop  offset="0.9398" style="stop-color:#2BE85B"/>
				<stop  offset="0.9915" style="stop-color:#07E05A"/>
				<stop  offset="1" style="stop-color:#00DF5A"/>
			</radialGradient>
			<path id="path12749" fill="url(#path12749_1_)" stroke="#000000" d="M689.104,267.984c0,6.54-19.446,11.842-43.416,11.842
				c-23.976,0-43.414-5.299-43.414-11.842c0-6.542,19.437-11.841,43.414-11.841C669.658,256.145,689.104,261.443,689.104,267.984z"
				/>
		</g>
	</g>
	<g enable-background="new    ">
		<path d="M626.074,124.026c-0.31,0.16-0.959,0.32-1.779,0.32c-1.898,0-3.317-1.2-3.317-3.419c0-2.118,1.429-3.538,3.519-3.538
			c0.829,0,1.369,0.181,1.599,0.3l-0.22,0.71c-0.32-0.16-0.789-0.279-1.35-0.279c-1.579,0-2.629,1.009-2.629,2.778
			c0,1.659,0.95,2.708,2.579,2.708c0.54,0,1.079-0.109,1.429-0.279L626.074,124.026z"/>
		<path d="M630.485,123.077c0,0.42,0.021,0.829,0.069,1.159h-0.789l-0.08-0.609h-0.029c-0.26,0.38-0.79,0.72-1.479,0.72
			c-0.979,0-1.479-0.69-1.479-1.39c0-1.169,1.039-1.809,2.908-1.799v-0.101c0-0.399-0.109-1.129-1.1-1.119
			c-0.459,0-0.929,0.13-1.269,0.36l-0.2-0.59c0.4-0.25,0.99-0.42,1.6-0.42c1.488,0,1.849,1.01,1.849,1.979V123.077z
			 M629.625,121.768c-0.96-0.02-2.049,0.15-2.049,1.09c0,0.579,0.38,0.839,0.819,0.839c0.64,0,1.049-0.399,1.189-0.81
			c0.029-0.09,0.04-0.189,0.04-0.279V121.768z"/>
		<path d="M634.335,124.236v-1.769h-3.019v-0.57l2.898-4.157h0.95v4.048h0.908v0.68h-0.908v1.769H634.335z M634.335,121.788v-2.18
			c0-0.339,0.01-0.679,0.029-1.019h-0.029c-0.2,0.379-0.359,0.659-0.54,0.969l-1.589,2.209v0.021H634.335z"/>
		<path d="M639.066,121.218v0.64h-2.469v-0.64H639.066z"/>
		<path d="M644.824,124.026c-0.311,0.16-0.959,0.32-1.779,0.32c-1.898,0-3.318-1.2-3.318-3.419c0-2.118,1.43-3.538,3.519-3.538
			c0.829,0,1.369,0.181,1.599,0.3l-0.219,0.71c-0.32-0.16-0.79-0.279-1.35-0.279c-1.58,0-2.629,1.009-2.629,2.778
			c0,1.659,0.949,2.708,2.578,2.708c0.54,0,1.08-0.109,1.43-0.279L644.824,124.026z"/>
		<path d="M649.234,123.077c0,0.42,0.021,0.829,0.07,1.159h-0.789l-0.08-0.609h-0.03c-0.26,0.38-0.79,0.72-1.479,0.72
			c-0.979,0-1.479-0.69-1.479-1.39c0-1.169,1.039-1.809,2.908-1.799v-0.101c0-0.399-0.109-1.129-1.1-1.119
			c-0.459,0-0.93,0.13-1.27,0.36l-0.199-0.59c0.399-0.25,0.989-0.42,1.599-0.42c1.489,0,1.849,1.01,1.849,1.979V123.077z
			 M648.375,121.768c-0.959-0.02-2.049,0.15-2.049,1.09c0,0.579,0.38,0.839,0.82,0.839c0.639,0,1.049-0.399,1.189-0.81
			c0.029-0.09,0.039-0.189,0.039-0.279V121.768z"/>
		<path d="M656.353,121.278c-0.05-0.939-0.109-2.079-0.109-2.909h-0.021c-0.239,0.78-0.51,1.63-0.85,2.559l-1.189,3.269h-0.659
			l-1.1-3.208c-0.32-0.96-0.58-1.819-0.77-2.619h-0.02c-0.021,0.84-0.07,1.959-0.131,2.979l-0.18,2.889h-0.83l0.471-6.736h1.109
			l1.148,3.258c0.28,0.83,0.5,1.569,0.68,2.27h0.021c0.18-0.68,0.42-1.42,0.72-2.27l1.199-3.258h1.109l0.42,6.736h-0.859
			L656.353,121.278z"/>
		<path d="M660.725,121.218v0.64h-2.469v-0.64H660.725z"/>
		<path d="M662.875,122.117l-0.7,2.119h-0.898l2.288-6.736h1.05l2.299,6.736h-0.93l-0.72-2.119H662.875z M665.083,121.438
			l-0.669-1.938c-0.14-0.439-0.239-0.84-0.34-1.229h-0.03c-0.09,0.39-0.199,0.81-0.33,1.22l-0.659,1.948H665.083z"/>
		<path d="M672.454,124.026c-0.31,0.16-0.96,0.32-1.778,0.32c-1.9,0-3.318-1.2-3.318-3.419c0-2.118,1.429-3.538,3.518-3.538
			c0.83,0,1.369,0.181,1.6,0.3l-0.221,0.71c-0.319-0.16-0.789-0.279-1.35-0.279c-1.578,0-2.628,1.009-2.628,2.778
			c0,1.659,0.95,2.708,2.579,2.708c0.539,0,1.079-0.109,1.429-0.279L672.454,124.026z"/>
		<path d="M675.156,118.56h-0.021l-1.13,0.609l-0.17-0.67l1.42-0.759h0.749v6.496h-0.849V118.56z"/>
		<path d="M677.917,124.636l2.778-7.246h0.689l-2.799,7.246H677.917z"/>
		<path d="M683.984,117.63c1.26,0,1.899,0.779,1.899,1.6c0,0.549-0.28,1.149-1.079,1.519v0.03c0.81,0.319,1.309,0.899,1.309,1.679
			c0,1.14-0.969,1.89-2.208,1.89c-1.359,0-2.179-0.8-2.179-1.749c0-0.82,0.489-1.409,1.279-1.749v-0.03
			c-0.73-0.34-1.039-0.899-1.039-1.459c0-1.03,0.869-1.729,2.008-1.729H683.984z M683.935,123.707c0.789,0,1.299-0.49,1.299-1.16
			c0-0.779-0.55-1.169-1.43-1.419c-0.76,0.22-1.169,0.729-1.169,1.35c-0.03,0.649,0.47,1.229,1.289,1.229H683.935z M683.955,118.26
			c-0.729,0-1.129,0.479-1.129,1.039c-0.011,0.649,0.489,1,1.238,1.199c0.561-0.189,0.99-0.589,0.99-1.179
			c0-0.521-0.311-1.06-1.09-1.06H683.955z"/>
	</g>
</g>
<g>
	<g>
		
			<radialGradient id="path4128_5_" cx="660.9458" cy="-18.4873" r="16.1863" gradientTransform="matrix(1.0057 0 0 0.5335 -63.618 187.5241)" gradientUnits="userSpaceOnUse">
			<stop  offset="0" style="stop-color:#A2FF5F"/>
			<stop  offset="0.4082" style="stop-color:#A0FF5F"/>
			<stop  offset="0.5552" style="stop-color:#99FD5F"/>
			<stop  offset="0.66" style="stop-color:#8EFB5E"/>
			<stop  offset="0.7448" style="stop-color:#7DF85E"/>
			<stop  offset="0.8174" style="stop-color:#67F35D"/>
			<stop  offset="0.8817" style="stop-color:#4BEE5C"/>
			<stop  offset="0.9398" style="stop-color:#2BE85B"/>
			<stop  offset="0.9915" style="stop-color:#07E05A"/>
			<stop  offset="1" style="stop-color:#00DF5A"/>
		</radialGradient>
		<path id="path4128_1_" fill="url(#path4128_5_)" stroke="#000000" d="M617.075,177.661c0,4.855-7.156,8.792-15.979,8.792
			c-8.826,0-15.979-3.935-15.979-8.792s7.153-8.791,15.979-8.791C609.918,168.871,617.075,172.805,617.075,177.661z"/>
		<g enable-background="new    ">
			<path d="M593.294,180.426c-0.23,0.11-0.74,0.28-1.39,0.28c-1.46,0-2.409-0.99-2.409-2.479c0-1.488,1.02-2.578,2.6-2.578
				c0.52,0,0.979,0.13,1.219,0.26l-0.199,0.67c-0.211-0.11-0.541-0.23-1.02-0.23c-1.109,0-1.709,0.83-1.709,1.84
				c0,1.119,0.719,1.809,1.678,1.809c0.5,0,0.83-0.12,1.08-0.229L593.294,180.426z"/>
			<path d="M595.445,178.477l-0.699,2.119h-0.899l2.288-6.736h1.05l2.299,6.736h-0.929l-0.721-2.119H595.445z M597.654,177.797
				l-0.67-1.938c-0.14-0.439-0.239-0.84-0.34-1.229h-0.029c-0.09,0.39-0.2,0.81-0.33,1.22l-0.66,1.948H597.654z"/>
			<path d="M606.153,177.638c-0.05-0.939-0.11-2.079-0.11-2.909h-0.02c-0.24,0.78-0.51,1.63-0.85,2.559l-1.189,3.269h-0.66
				l-1.099-3.208c-0.319-0.96-0.58-1.819-0.77-2.619h-0.021c-0.02,0.84-0.07,1.959-0.129,2.979l-0.181,2.889h-0.829l0.469-6.736
				h1.109l1.15,3.258c0.279,0.83,0.5,1.569,0.68,2.27h0.02c0.18-0.68,0.42-1.42,0.72-2.27l1.199-3.258h1.109l0.42,6.736h-0.86
				L606.153,177.638z"/>
			<path d="M608.516,173.949c0.419-0.08,0.97-0.14,1.669-0.14c0.859,0,1.489,0.2,1.889,0.56c0.37,0.319,0.6,0.81,0.6,1.409
				c0,0.609-0.18,1.09-0.529,1.439c-0.46,0.489-1.209,0.739-2.059,0.739c-0.26,0-0.5-0.01-0.7-0.06v2.698h-0.869V173.949z
				 M609.385,177.188c0.19,0.05,0.44,0.07,0.72,0.07c1.06,0,1.689-0.52,1.689-1.43c0-0.899-0.63-1.329-1.59-1.329
				c-0.379,0-0.67,0.04-0.819,0.07V177.188z"/>
		</g>
	</g>
	<g>
		
			<radialGradient id="path12666_5_" cx="664.2202" cy="-18.4873" r="16.1863" gradientTransform="matrix(1.0057 0 0 0.5335 37.9986 187.5241)" gradientUnits="userSpaceOnUse">
			<stop  offset="0" style="stop-color:#A2FF5F"/>
			<stop  offset="0.4082" style="stop-color:#A0FF5F"/>
			<stop  offset="0.5552" style="stop-color:#99FD5F"/>
			<stop  offset="0.66" style="stop-color:#8EFB5E"/>
			<stop  offset="0.7448" style="stop-color:#7DF85E"/>
			<stop  offset="0.8174" style="stop-color:#67F35D"/>
			<stop  offset="0.8817" style="stop-color:#4BEE5C"/>
			<stop  offset="0.9398" style="stop-color:#2BE85B"/>
			<stop  offset="0.9915" style="stop-color:#07E05A"/>
			<stop  offset="1" style="stop-color:#00DF5A"/>
		</radialGradient>
		<path id="path12666_1_" fill="url(#path12666_5_)" stroke="#000000" d="M721.985,177.661c0,4.855-7.156,8.792-15.979,8.792
			c-8.825,0-15.979-3.935-15.979-8.792s7.154-8.791,15.979-8.791C714.829,168.871,721.985,172.805,721.985,177.661z"/>
		<g enable-background="new    ">
			<path d="M700.044,178.478l-0.699,2.119h-0.9l2.289-6.736h1.049l2.299,6.736h-0.93l-0.719-2.119H700.044z M702.253,177.798
				l-0.67-1.938c-0.141-0.439-0.24-0.84-0.34-1.229h-0.029c-0.091,0.39-0.201,0.81-0.33,1.22l-0.66,1.948H702.253z"/>
			<path d="M705.564,174.6h-2.049v-0.739h4.987v0.739h-2.059v5.997h-0.88V174.6z"/>
			<path d="M709.255,173.95c0.419-0.08,0.969-0.14,1.668-0.14c0.859,0,1.49,0.2,1.889,0.56c0.371,0.319,0.601,0.81,0.601,1.409
				c0,0.609-0.181,1.09-0.53,1.439c-0.459,0.489-1.209,0.739-2.059,0.739c-0.26,0-0.5-0.01-0.699-0.06v2.698h-0.869V173.95z
				 M710.125,177.188c0.189,0.05,0.439,0.07,0.719,0.07c1.061,0,1.689-0.52,1.689-1.43c0-0.899-0.629-1.329-1.589-1.329
				c-0.38,0-0.67,0.04-0.819,0.07V177.188z"/>
		</g>
	</g>
	<g>
		<g>
			<path fill="none" stroke="#000000" d="M704.551,168.599c-13.055-22.442-30.574-34.375-48.619-35.535
				c-18.503-1.189-37.562,8.947-52.93,30.694"/>
			<polygon points="601.598,159.328 603.715,162.75 607.648,163.603 599.557,168.634 			"/>
		</g>
	</g>
</g>
<g>
	<g id="g4067" transform="matrix(0.778790,0.000000,0.000000,0.969011,-32.50401,-249.2769)">
		<g id="g4069" transform="matrix(1.228309,0.000000,0.000000,1.000000,87.81894,114.4454)">
			
				<radialGradient id="path4071_2_" cx="151.3299" cy="157.8573" r="16.1858" gradientTransform="matrix(1.9238 0 0 0.6358 234.7998 119.6099)" gradientUnits="userSpaceOnUse">
				<stop  offset="0" style="stop-color:#A2FF5F"/>
				<stop  offset="0.4082" style="stop-color:#A0FF5F"/>
				<stop  offset="0.5552" style="stop-color:#99FD5F"/>
				<stop  offset="0.66" style="stop-color:#8EFB5E"/>
				<stop  offset="0.7448" style="stop-color:#7DF85E"/>
				<stop  offset="0.8174" style="stop-color:#67F35D"/>
				<stop  offset="0.8817" style="stop-color:#4BEE5C"/>
				<stop  offset="0.9398" style="stop-color:#2BE85B"/>
				<stop  offset="0.9915" style="stop-color:#07E05A"/>
				<stop  offset="1" style="stop-color:#00DF5A"/>
			</radialGradient>
			<path id="path4071" fill="url(#path4071_2_)" stroke="#000000" d="M557.884,219.975c0,5.97-14.311,10.812-31.955,10.812
				c-17.647,0-31.953-4.839-31.953-10.812c0-5.973,14.307-10.811,31.953-10.811C543.573,209.166,557.884,214.003,557.884,219.975z"
				/>
		</g>
	</g>
	<g enable-background="new    ">
		<path d="M525.777,77.506c-0.311,0.16-0.959,0.32-1.779,0.32c-1.898,0-3.318-1.2-3.318-3.419c0-2.118,1.43-3.538,3.519-3.538
			c0.829,0,1.369,0.181,1.599,0.3l-0.219,0.71c-0.32-0.16-0.79-0.279-1.35-0.279c-1.58,0-2.629,1.009-2.629,2.778
			c0,1.659,0.949,2.708,2.578,2.708c0.54,0,1.08-0.109,1.43-0.279L525.777,77.506z"/>
		<path d="M530.187,76.557c0,0.42,0.021,0.829,0.07,1.159h-0.789l-0.08-0.609h-0.03c-0.26,0.38-0.79,0.72-1.479,0.72
			c-0.979,0-1.479-0.69-1.479-1.39c0-1.169,1.039-1.809,2.908-1.799v-0.101c0-0.399-0.109-1.129-1.1-1.119
			c-0.459,0-0.93,0.13-1.27,0.36l-0.199-0.59c0.399-0.25,0.989-0.42,1.599-0.42c1.489,0,1.849,1.01,1.849,1.979V76.557z
			 M529.328,75.247c-0.959-0.02-2.049,0.15-2.049,1.09c0,0.579,0.38,0.839,0.82,0.839c0.639,0,1.049-0.399,1.189-0.81
			c0.029-0.09,0.039-0.189,0.039-0.279V75.247z"/>
		<path d="M534.039,77.716v-1.769h-3.02v-0.57l2.898-4.157h0.95v4.048h0.909v0.68h-0.909v1.769H534.039z M534.039,75.268v-2.18
			c0-0.339,0.01-0.679,0.029-1.019h-0.029c-0.201,0.379-0.36,0.659-0.541,0.969l-1.588,2.209v0.021H534.039z"/>
		<path d="M538.768,74.697v0.64h-2.469v-0.64H538.768z"/>
		<path d="M544.527,77.506c-0.311,0.16-0.96,0.32-1.779,0.32c-1.899,0-3.318-1.2-3.318-3.419c0-2.118,1.43-3.538,3.518-3.538
			c0.83,0,1.369,0.181,1.6,0.3l-0.22,0.71c-0.319-0.16-0.79-0.279-1.35-0.279c-1.579,0-2.628,1.009-2.628,2.778
			c0,1.659,0.949,2.708,2.578,2.708c0.539,0,1.08-0.109,1.43-0.279L544.527,77.506z"/>
		<path d="M548.937,76.557c0,0.42,0.02,0.829,0.07,1.159h-0.79l-0.079-0.609h-0.031c-0.26,0.38-0.789,0.72-1.479,0.72
			c-0.979,0-1.479-0.69-1.479-1.39c0-1.169,1.04-1.809,2.909-1.799v-0.101c0-0.399-0.11-1.129-1.1-1.119
			c-0.46,0-0.93,0.13-1.27,0.36l-0.2-0.59c0.399-0.25,0.989-0.42,1.599-0.42c1.49,0,1.85,1.01,1.85,1.979V76.557z M548.078,75.247
			c-0.959-0.02-2.049,0.15-2.049,1.09c0,0.579,0.379,0.839,0.819,0.839c0.64,0,1.05-0.399,1.189-0.81
			c0.03-0.09,0.04-0.189,0.04-0.279V75.247z"/>
		<path d="M556.056,74.758c-0.051-0.939-0.11-2.079-0.11-2.909h-0.021c-0.239,0.78-0.51,1.63-0.85,2.559l-1.189,3.269h-0.659
			l-1.099-3.208c-0.32-0.96-0.58-1.819-0.77-2.619h-0.021c-0.021,0.84-0.07,1.959-0.13,2.979l-0.18,2.889h-0.83l0.47-6.736h1.109
			l1.149,3.258c0.279,0.83,0.5,1.569,0.68,2.27h0.02c0.18-0.68,0.42-1.42,0.721-2.27l1.199-3.258h1.109l0.42,6.736h-0.86
			L556.056,74.758z"/>
	</g>
</g>
<g>
	<g>
		<path fill="none" stroke="#000000" d="M566.96,120.801c-28.207,0-28.207-29.289-28.207-29.289"/>
		<polygon points="542.458,94.321 538.753,92.749 535.05,94.321 538.753,85.543 		"/>
	</g>
</g>
<g>
	<g id="g12703" transform="matrix(0.778790,0.000000,0.000000,0.969011,-32.50401,-249.2769)">
		<g id="g12705" transform="matrix(1.228309,0.000000,0.000000,1.000000,87.81894,114.4454)">
			
				<radialGradient id="path12707_2_" cx="153.4589" cy="158.2634" r="16.1855" gradientTransform="matrix(1.9238 0 0 0.6358 -2.3941 119.6099)" gradientUnits="userSpaceOnUse">
				<stop  offset="0" style="stop-color:#A2FF5F"/>
				<stop  offset="0.4082" style="stop-color:#A0FF5F"/>
				<stop  offset="0.5552" style="stop-color:#99FD5F"/>
				<stop  offset="0.66" style="stop-color:#8EFB5E"/>
				<stop  offset="0.7448" style="stop-color:#7DF85E"/>
				<stop  offset="0.8174" style="stop-color:#67F35D"/>
				<stop  offset="0.8817" style="stop-color:#4BEE5C"/>
				<stop  offset="0.9398" style="stop-color:#2BE85B"/>
				<stop  offset="0.9915" style="stop-color:#07E05A"/>
				<stop  offset="1" style="stop-color:#00DF5A"/>
			</radialGradient>
			<path id="path12707" fill="url(#path12707_2_)" stroke="#000000" d="M324.785,220.233c0,5.97-14.311,10.812-31.954,10.812
				c-17.647,0-31.953-4.839-31.953-10.812c0-5.973,14.306-10.811,31.953-10.811C310.473,209.424,324.785,214.261,324.785,220.233z"
				/>
		</g>
	</g>
	<g enable-background="new    ">
		<path d="M310.472,77.881c-0.39,0.149-1.169,0.37-2.079,0.37c-1.02,0-1.859-0.26-2.519-0.89c-0.58-0.56-0.939-1.459-0.939-2.509
			c0-2.009,1.389-3.479,3.648-3.479c0.78,0,1.399,0.17,1.689,0.311l-0.22,0.709c-0.36-0.17-0.81-0.289-1.489-0.289
			c-1.639,0-2.708,1.019-2.708,2.708c0,1.709,1.02,2.719,2.599,2.719c0.57,0,0.959-0.08,1.159-0.18v-2.01h-1.359v-0.699h2.219
			V77.881z"/>
		<path d="M313.804,75.162v0.64h-2.469v-0.64H313.804z"/>
		<path d="M314.715,77.291c0.27,0.16,0.729,0.34,1.169,0.34c0.63,0,0.93-0.31,0.93-0.72c0-0.42-0.25-0.649-0.89-0.89
			c-0.879-0.319-1.289-0.789-1.289-1.369c0-0.779,0.64-1.419,1.669-1.419c0.49,0,0.919,0.13,1.179,0.3l-0.209,0.63
			c-0.19-0.11-0.54-0.28-0.99-0.28c-0.52,0-0.799,0.3-0.799,0.66c0,0.409,0.28,0.59,0.909,0.829c0.83,0.31,1.27,0.729,1.27,1.459
			c0,0.86-0.67,1.46-1.799,1.46c-0.53,0-1.02-0.141-1.359-0.34L314.715,77.291z"/>
		<path d="M320.833,75.162v0.64h-2.469v-0.64H320.833z"/>
		<path d="M325.71,73.708h0.811l-0.635,2.222c-0.042,0.14-0.109,0.359-0.2,0.659c0.124,0.501,0.216,0.801,0.278,0.898
			c0.117,0.179,0.265,0.269,0.444,0.269c0.13,0,0.25-0.054,0.361-0.161s0.184-0.275,0.22-0.503h0.195
			c-0.045,0.469-0.144,0.793-0.295,0.972s-0.326,0.269-0.525,0.269c-0.186,0-0.354-0.078-0.505-0.234s-0.287-0.491-0.408-1.006
			c-0.143,0.283-0.283,0.498-0.42,0.645c-0.192,0.202-0.4,0.353-0.625,0.452c-0.225,0.099-0.48,0.148-0.767,0.148
			c-0.719,0-1.249-0.239-1.587-0.718s-0.508-1.023-0.508-1.636c0-0.716,0.199-1.297,0.596-1.74c0.397-0.445,0.863-0.667,1.396-0.667
			c0.371,0,0.698,0.113,0.981,0.339c0.283,0.227,0.541,0.647,0.771,1.263L325.71,73.708z M325.119,75.725
			c-0.176-0.671-0.402-1.139-0.679-1.403c-0.277-0.266-0.558-0.398-0.845-0.398c-0.319,0-0.584,0.175-0.796,0.525
			c-0.211,0.35-0.317,0.907-0.317,1.672c0,0.452,0.045,0.809,0.137,1.066c0.091,0.26,0.229,0.459,0.413,0.602
			c0.184,0.141,0.378,0.212,0.583,0.212c0.25,0,0.48-0.115,0.688-0.347C324.587,77.341,324.859,76.698,325.119,75.725z"/>
	</g>
</g>
<g>
	<g>
		<path fill="none" stroke="#000000" d="M287.442,121.051c28.208,0,28.208-29.289,28.208-29.289"/>
		<polygon points="319.354,94.571 315.65,92.999 311.946,94.571 315.65,85.793 		"/>
	</g>
</g>
<g>
	<g>
		<path fill="none" stroke="#000000" d="M706.173,344.907c-13.188-23.064-30.883-35.33-49.105-36.525
			c-18.688-1.227-37.934,9.186-53.449,31.533"/>
		<polygon points="602.177,335.495 604.324,338.899 608.263,339.72 600.214,344.818 		"/>
	</g>
</g>
<g>
	<g>
		<path fill="none" stroke="#000000" d="M471.13,345.302c14.35-23.729,33.598-36.348,53.42-37.584
			c20.324-1.268,41.254,9.439,58.123,32.42"/>
		<polygon points="578.025,340.065 581.942,339.142 583.997,335.682 586.206,344.949 		"/>
	</g>
</g>
<g>
	
		<radialGradient id="path1336_2_" cx="348.6816" cy="-186.2822" r="15.5573" gradientTransform="matrix(0.9108 0 0 0.8738 127.319 420.5229)" gradientUnits="userSpaceOnUse">
		<stop  offset="0" style="stop-color:#FFDD9F"/>
		<stop  offset="0.2912" style="stop-color:#FFDB9D"/>
		<stop  offset="0.4343" style="stop-color:#FFD398"/>
		<stop  offset="0.545" style="stop-color:#FFC68E"/>
		<stop  offset="0.6392" style="stop-color:#FFB381"/>
		<stop  offset="0.7229" style="stop-color:#FF9B70"/>
		<stop  offset="0.799" style="stop-color:#FF7D5A"/>
		<stop  offset="0.8695" style="stop-color:#FF5A41"/>
		<stop  offset="0.9348" style="stop-color:#FF3123"/>
		<stop  offset="0.9951" style="stop-color:#FF0403"/>
		<stop  offset="1" style="stop-color:#FF0000"/>
	</radialGradient>
	<path id="path1336" fill="url(#path1336_2_)" stroke="#000000" d="M456.014,252.295l6.409,5.398l-5.674,4.938l-0.604,0.329
		c-2.826,2.48-7.613,4.11-13.045,4.11c-8.686,0-15.729-4.174-15.729-9.321c0-5.149,7.042-9.322,15.729-9.322
		c4.994,0,9.443,1.379,12.324,3.529L456.014,252.295z"/>
	<g enable-background="new    ">
		<path d="M437.498,254.272c0.42-0.08,0.97-0.14,1.67-0.14c0.859,0,1.488,0.2,1.889,0.56c0.369,0.319,0.6,0.81,0.6,1.409
			c0,0.609-0.18,1.09-0.529,1.439c-0.461,0.489-1.21,0.739-2.06,0.739c-0.26,0-0.499-0.01-0.7-0.06v2.698h-0.869V254.272z
			 M438.367,257.511c0.19,0.05,0.44,0.07,0.721,0.07c1.059,0,1.688-0.52,1.688-1.43c0-0.899-0.63-1.329-1.589-1.329
			c-0.38,0-0.67,0.04-0.82,0.07V257.511z"/>
		<path d="M442.818,254.183h0.869v3.248h0.03c0.18-0.26,0.36-0.5,0.53-0.72l2.059-2.528h1.079l-2.438,2.858l2.629,3.878h-1.03
			l-2.208-3.309l-0.65,0.74v2.568h-0.869V254.183z"/>
		<path d="M452.715,260.709c-0.31,0.16-0.96,0.32-1.778,0.32c-1.9,0-3.318-1.2-3.318-3.419c0-2.118,1.429-3.538,3.518-3.538
			c0.83,0,1.369,0.181,1.6,0.3l-0.221,0.71c-0.319-0.16-0.789-0.279-1.35-0.279c-1.578,0-2.628,1.009-2.628,2.778
			c0,1.659,0.95,2.708,2.579,2.708c0.539,0,1.079-0.109,1.429-0.279L452.715,260.709z"/>
	</g>
</g>
<g>
	<g id="g12827" transform="matrix(1.228309,0.000000,0.000000,1.000000,87.81894,114.4454)">
		
			<radialGradient id="path12829_1_" cx="74.7112" cy="-245.0685" r="16.1858" gradientTransform="matrix(1.9238 0 0 0.6358 -45.3753 338.7684)" gradientUnits="userSpaceOnUse">
			<stop  offset="0" style="stop-color:#A2FF5F"/>
			<stop  offset="0.4082" style="stop-color:#A0FF5F"/>
			<stop  offset="0.5552" style="stop-color:#99FD5F"/>
			<stop  offset="0.66" style="stop-color:#8EFB5E"/>
			<stop  offset="0.7448" style="stop-color:#7DF85E"/>
			<stop  offset="0.8174" style="stop-color:#67F35D"/>
			<stop  offset="0.8817" style="stop-color:#4BEE5C"/>
			<stop  offset="0.9398" style="stop-color:#2BE85B"/>
			<stop  offset="0.9915" style="stop-color:#07E05A"/>
			<stop  offset="1" style="stop-color:#00DF5A"/>
		</radialGradient>
		<path id="path12829" fill="url(#path12829_1_)" stroke="#000000" d="M123.239,182.953c0,5.786-11.145,10.478-24.886,10.478
			c-13.744,0-24.885-4.689-24.885-10.478c0-5.787,11.141-10.476,24.885-10.476C112.094,172.478,123.239,177.167,123.239,182.953z"/>
	</g>
	<g enable-background="new    ">
		<path d="M197.795,300.035c-0.39,0.149-1.169,0.37-2.079,0.37c-1.02,0-1.859-0.26-2.519-0.89c-0.58-0.56-0.939-1.459-0.939-2.509
			c0-2.009,1.389-3.479,3.648-3.479c0.78,0,1.399,0.17,1.689,0.311l-0.22,0.709c-0.36-0.17-0.81-0.289-1.489-0.289
			c-1.639,0-2.708,1.019-2.708,2.708c0,1.709,1.02,2.719,2.599,2.719c0.57,0,0.959-0.08,1.159-0.18v-2.01h-1.359v-0.699h2.219
			V300.035z"/>
		<path d="M201.127,297.316v0.64h-2.469v-0.64H201.127z"/>
		<path d="M202.038,299.445c0.27,0.16,0.729,0.34,1.169,0.34c0.63,0,0.93-0.31,0.93-0.72c0-0.42-0.25-0.649-0.89-0.89
			c-0.879-0.319-1.289-0.789-1.289-1.369c0-0.779,0.64-1.419,1.669-1.419c0.49,0,0.919,0.13,1.179,0.3l-0.209,0.63
			c-0.19-0.11-0.54-0.28-0.99-0.28c-0.52,0-0.799,0.3-0.799,0.66c0,0.409,0.28,0.59,0.909,0.829c0.83,0.31,1.27,0.729,1.27,1.459
			c0,0.86-0.67,1.46-1.799,1.46c-0.53,0-1.02-0.141-1.359-0.34L202.038,299.445z"/>
		<path d="M208.157,297.316v0.64h-2.469v-0.64H208.157z"/>
		<path d="M210.307,298.216l-0.7,2.119h-0.899l2.289-6.736h1.049l2.299,6.736h-0.93l-0.719-2.119H210.307z M212.516,297.536
			l-0.669-1.938c-0.14-0.439-0.24-0.84-0.34-1.229h-0.03c-0.09,0.39-0.2,0.81-0.33,1.22l-0.66,1.948H212.516z"/>
		<path d="M219.885,300.125c-0.31,0.16-0.959,0.32-1.779,0.32c-1.899,0-3.318-1.2-3.318-3.419c0-2.118,1.429-3.538,3.518-3.538
			c0.83,0,1.369,0.181,1.599,0.3l-0.22,0.71c-0.32-0.16-0.79-0.279-1.35-0.279c-1.579,0-2.628,1.009-2.628,2.778
			c0,1.659,0.95,2.708,2.579,2.708c0.54,0,1.08-0.109,1.429-0.279L219.885,300.125z"/>
		<path d="M220.678,300.335v-0.54l0.689-0.669c1.659-1.579,2.419-2.419,2.419-3.398c0-0.66-0.31-1.27-1.279-1.27
			c-0.59,0-1.08,0.3-1.379,0.55l-0.28-0.619c0.44-0.37,1.089-0.66,1.839-0.66c1.389,0,1.979,0.96,1.979,1.889
			c0,1.2-0.87,2.169-2.239,3.488l-0.51,0.479v0.021h2.909v0.729H220.678z"/>
	</g>
</g>
<g>
	<g id="g12839" transform="matrix(0.778790,0.000000,0.000000,0.969011,-32.50401,-249.2769)">
		<g id="g12841" transform="matrix(1.228309,0.000000,0.000000,1.000000,87.81894,114.4454)">
			
				<radialGradient id="path12843_1_" cx="171.9781" cy="8.003" r="16.1858" gradientTransform="matrix(1.2338 0 0 0.6358 149.4544 444.6252)" gradientUnits="userSpaceOnUse">
				<stop  offset="0" style="stop-color:#A2FF5F"/>
				<stop  offset="0.4082" style="stop-color:#A0FF5F"/>
				<stop  offset="0.5552" style="stop-color:#99FD5F"/>
				<stop  offset="0.66" style="stop-color:#8EFB5E"/>
				<stop  offset="0.7448" style="stop-color:#7DF85E"/>
				<stop  offset="0.8174" style="stop-color:#67F35D"/>
				<stop  offset="0.8817" style="stop-color:#4BEE5C"/>
				<stop  offset="0.9398" style="stop-color:#2BE85B"/>
				<stop  offset="0.9915" style="stop-color:#07E05A"/>
				<stop  offset="1" style="stop-color:#00DF5A"/>
			</radialGradient>
			<path id="path12843" fill="url(#path12843_1_)" stroke="#000000" d="M382.134,449.713c0,5.971-9.178,10.813-20.494,10.813
				c-11.317,0-20.492-4.839-20.492-10.813c0-5.972,9.175-10.811,20.492-10.811C372.955,438.903,382.134,443.741,382.134,449.713z"/>
		</g>
	</g>
	<g enable-background="new    ">
		<path d="M375.231,298.216l-0.7,2.119h-0.899l2.289-6.736h1.049l2.299,6.736h-0.93l-0.719-2.119H375.231z M377.44,297.536
			l-0.669-1.938c-0.14-0.439-0.24-0.84-0.34-1.229h-0.03c-0.09,0.39-0.2,0.81-0.33,1.22l-0.66,1.948H377.44z"/>
		<path d="M384.81,300.125c-0.31,0.16-0.959,0.32-1.779,0.32c-1.899,0-3.318-1.2-3.318-3.419c0-2.118,1.429-3.538,3.518-3.538
			c0.83,0,1.369,0.181,1.599,0.3l-0.22,0.71c-0.32-0.16-0.79-0.279-1.35-0.279c-1.579,0-2.628,1.009-2.628,2.778
			c0,1.659,0.95,2.708,2.579,2.708c0.54,0,1.08-0.109,1.429-0.279L384.81,300.125z"/>
		<path d="M385.602,300.335v-0.54l0.689-0.669c1.659-1.579,2.419-2.419,2.419-3.398c0-0.66-0.31-1.27-1.279-1.27
			c-0.59,0-1.08,0.3-1.379,0.55l-0.28-0.619c0.44-0.37,1.089-0.66,1.839-0.66c1.389,0,1.979,0.96,1.979,1.889
			c0,1.2-0.87,2.169-2.239,3.488l-0.51,0.479v0.021h2.909v0.729H385.602z"/>
	</g>
</g>
<g>
	<g id="g12867" transform="matrix(0.778790,0.000000,0.000000,0.969011,-32.50401,-249.2769)">
		<g id="g12869" transform="matrix(1.228309,0.000000,0.000000,1.000000,87.81894,114.4454)">
			
				<radialGradient id="path12871_1_" cx="172.2685" cy="8.003" r="16.1858" gradientTransform="matrix(1.2338 0 0 0.6358 289.1518 444.6252)" gradientUnits="userSpaceOnUse">
				<stop  offset="0" style="stop-color:#A2FF5F"/>
				<stop  offset="0.4082" style="stop-color:#A0FF5F"/>
				<stop  offset="0.5552" style="stop-color:#99FD5F"/>
				<stop  offset="0.66" style="stop-color:#8EFB5E"/>
				<stop  offset="0.7448" style="stop-color:#7DF85E"/>
				<stop  offset="0.8174" style="stop-color:#67F35D"/>
				<stop  offset="0.8817" style="stop-color:#4BEE5C"/>
				<stop  offset="0.9398" style="stop-color:#2BE85B"/>
				<stop  offset="0.9915" style="stop-color:#07E05A"/>
				<stop  offset="1" style="stop-color:#00DF5A"/>
			</radialGradient>
			<path id="path12871" fill="url(#path12871_1_)" stroke="#000000" d="M522.189,449.713c0,5.971-9.18,10.813-20.493,10.813
				c-11.319,0-20.493-4.839-20.493-10.813c0-5.972,9.174-10.811,20.493-10.811C513.009,438.903,522.189,443.741,522.189,449.713z"/>
		</g>
	</g>
	<g enable-background="new    ">
		<path d="M507.131,298.216l-0.7,2.119h-0.898l2.288-6.736h1.05l2.299,6.736h-0.93l-0.72-2.119H507.131z M509.339,297.536
			l-0.669-1.938c-0.14-0.439-0.239-0.84-0.34-1.229h-0.03c-0.09,0.39-0.199,0.81-0.33,1.22l-0.659,1.948H509.339z"/>
		<path d="M516.709,300.125c-0.31,0.16-0.96,0.32-1.778,0.32c-1.9,0-3.318-1.2-3.318-3.419c0-2.118,1.429-3.538,3.518-3.538
			c0.83,0,1.369,0.181,1.6,0.3l-0.221,0.71c-0.319-0.16-0.789-0.279-1.35-0.279c-1.578,0-2.628,1.009-2.628,2.778
			c0,1.659,0.95,2.708,2.579,2.708c0.539,0,1.079-0.109,1.429-0.279L516.709,300.125z"/>
		<path d="M517.501,300.335v-0.54l0.689-0.669c1.66-1.579,2.42-2.419,2.42-3.398c0-0.66-0.311-1.27-1.279-1.27
			c-0.59,0-1.08,0.3-1.38,0.55l-0.28-0.619c0.44-0.37,1.09-0.66,1.84-0.66c1.389,0,1.979,0.96,1.979,1.889
			c0,1.2-0.869,2.169-2.238,3.488l-0.51,0.479v0.021h2.908v0.729H517.501z"/>
		<path d="M525.47,293.839l-0.949,1.239v0.02l1.509-0.2v0.68l-1.509-0.18v0.021l0.959,1.209l-0.629,0.35l-0.609-1.399h-0.021
			l-0.64,1.409l-0.57-0.359l0.949-1.22v-0.02l-1.479,0.189v-0.68l1.469,0.19v-0.021l-0.939-1.229l0.609-0.34l0.621,1.379h0.02
			l0.609-1.39L525.47,293.839z"/>
	</g>
</g>
<g>
	<g id="g12881" transform="matrix(0.778790,0.000000,0.000000,0.969011,-32.50401,-249.2769)">
		<g id="g12883" transform="matrix(1.228309,0.000000,0.000000,1.000000,87.81894,114.4454)">
			
				<radialGradient id="path12885_1_" cx="149.9517" cy="8.003" r="16.186" gradientTransform="matrix(1.9238 0 0 0.6358 367.4276 444.6252)" gradientUnits="userSpaceOnUse">
				<stop  offset="0" style="stop-color:#A2FF5F"/>
				<stop  offset="0.4082" style="stop-color:#A0FF5F"/>
				<stop  offset="0.5552" style="stop-color:#99FD5F"/>
				<stop  offset="0.66" style="stop-color:#8EFB5E"/>
				<stop  offset="0.7448" style="stop-color:#7DF85E"/>
				<stop  offset="0.8174" style="stop-color:#67F35D"/>
				<stop  offset="0.8817" style="stop-color:#4BEE5C"/>
				<stop  offset="0.9398" style="stop-color:#2BE85B"/>
				<stop  offset="0.9915" style="stop-color:#07E05A"/>
				<stop  offset="1" style="stop-color:#00DF5A"/>
			</radialGradient>
			<path id="path12885" fill="url(#path12885_1_)" stroke="#000000" d="M687.86,449.713c0,5.971-14.313,10.813-31.955,10.813
				c-17.647,0-31.953-4.839-31.953-10.813c0-5.972,14.307-10.811,31.953-10.811C673.548,438.903,687.86,443.741,687.86,449.713z"/>
		</g>
	</g>
	<g enable-background="new    ">
		<path d="M650.417,300.035c-0.39,0.149-1.169,0.37-2.079,0.37c-1.02,0-1.859-0.26-2.519-0.89c-0.579-0.56-0.939-1.459-0.939-2.509
			c0-2.009,1.39-3.479,3.647-3.479c0.78,0,1.4,0.17,1.689,0.311l-0.22,0.709c-0.36-0.17-0.81-0.289-1.489-0.289
			c-1.639,0-2.709,1.019-2.709,2.708c0,1.709,1.02,2.719,2.6,2.719c0.569,0,0.959-0.08,1.158-0.18v-2.01h-1.359v-0.699h2.22V300.035
			z"/>
		<path d="M653.748,297.316v0.64h-2.469v-0.64H653.748z"/>
		<path d="M654.66,299.445c0.27,0.16,0.729,0.34,1.168,0.34c0.631,0,0.93-0.31,0.93-0.72c0-0.42-0.25-0.649-0.889-0.89
			c-0.88-0.319-1.289-0.789-1.289-1.369c0-0.779,0.639-1.419,1.668-1.419c0.49,0,0.92,0.13,1.18,0.3l-0.209,0.63
			c-0.19-0.11-0.541-0.28-0.99-0.28c-0.52,0-0.799,0.3-0.799,0.66c0,0.409,0.279,0.59,0.908,0.829c0.83,0.31,1.27,0.729,1.27,1.459
			c0,0.86-0.67,1.46-1.799,1.46c-0.529,0-1.02-0.141-1.359-0.34L654.66,299.445z"/>
		<path d="M660.778,297.316v0.64h-2.469v-0.64H660.778z"/>
		<path d="M662.928,298.216l-0.7,2.119h-0.898l2.288-6.736h1.05l2.299,6.736h-0.93l-0.72-2.119H662.928z M665.136,297.536
			l-0.669-1.938c-0.14-0.439-0.239-0.84-0.34-1.229h-0.03c-0.09,0.39-0.199,0.81-0.33,1.22l-0.659,1.948H665.136z"/>
		<path d="M672.506,300.125c-0.31,0.16-0.96,0.32-1.778,0.32c-1.9,0-3.318-1.2-3.318-3.419c0-2.118,1.429-3.538,3.518-3.538
			c0.83,0,1.369,0.181,1.6,0.3l-0.221,0.71c-0.319-0.16-0.789-0.279-1.35-0.279c-1.578,0-2.628,1.009-2.628,2.778
			c0,1.659,0.95,2.708,2.579,2.708c0.539,0,1.079-0.109,1.429-0.279L672.506,300.125z"/>
		<path d="M673.298,300.335v-0.54l0.689-0.669c1.66-1.579,2.42-2.419,2.42-3.398c0-0.66-0.311-1.27-1.279-1.27
			c-0.59,0-1.08,0.3-1.38,0.55l-0.28-0.619c0.44-0.37,1.09-0.66,1.84-0.66c1.389,0,1.979,0.96,1.979,1.889
			c0,1.2-0.869,2.169-2.238,3.488l-0.51,0.479v0.021h2.908v0.729H673.298z"/>
		<path d="M681.267,293.839l-0.949,1.239v0.02l1.509-0.2v0.68l-1.509-0.18v0.021l0.959,1.209l-0.629,0.35l-0.609-1.399h-0.021
			l-0.64,1.409l-0.57-0.359l0.949-1.22v-0.02l-1.479,0.189v-0.68l1.469,0.19v-0.021l-0.939-1.229l0.609-0.34l0.621,1.379h0.02
			l0.609-1.39L681.267,293.839z"/>
	</g>
</g>
<g>
	
		<radialGradient id="path12915_1_" cx="232.2895" cy="-180.8257" r="16.187" gradientTransform="matrix(1.0057 0 0 0.5335 237.6622 448.3181)" gradientUnits="userSpaceOnUse">
		<stop  offset="0" style="stop-color:#A2FF5F"/>
		<stop  offset="0.4082" style="stop-color:#A0FF5F"/>
		<stop  offset="0.5552" style="stop-color:#99FD5F"/>
		<stop  offset="0.66" style="stop-color:#8EFB5E"/>
		<stop  offset="0.7448" style="stop-color:#7DF85E"/>
		<stop  offset="0.8174" style="stop-color:#67F35D"/>
		<stop  offset="0.8817" style="stop-color:#4BEE5C"/>
		<stop  offset="0.9398" style="stop-color:#2BE85B"/>
		<stop  offset="0.9915" style="stop-color:#07E05A"/>
		<stop  offset="1" style="stop-color:#00DF5A"/>
	</radialGradient>
	<path id="path12915" fill="url(#path12915_1_)" stroke="#000000" d="M487.255,351.847c0,4.855-7.156,8.793-15.98,8.793
		s-15.979-3.936-15.979-8.793c0-4.855,7.154-8.791,15.979-8.791C480.099,343.058,487.255,346.991,487.255,351.847z"/>
	<g enable-background="new    ">
		<path d="M465.314,352.663l-0.699,2.119h-0.899l2.288-6.736h1.05l2.299,6.736h-0.93l-0.72-2.119H465.314z M467.523,351.983
			l-0.67-1.938c-0.14-0.439-0.239-0.84-0.34-1.229h-0.029c-0.09,0.39-0.2,0.81-0.33,1.22l-0.66,1.948H467.523z"/>
		<path d="M470.834,348.785h-2.049v-0.739h4.987v0.739h-2.059v5.997h-0.88V348.785z"/>
		<path d="M474.525,348.136c0.42-0.08,0.969-0.14,1.669-0.14c0.859,0,1.489,0.2,1.889,0.56c0.37,0.319,0.601,0.81,0.601,1.409
			c0,0.609-0.181,1.09-0.53,1.439c-0.46,0.489-1.21,0.739-2.06,0.739c-0.26,0-0.499-0.01-0.699-0.06v2.698h-0.869V348.136z
			 M475.394,351.374c0.189,0.05,0.439,0.07,0.72,0.07c1.06,0,1.688-0.52,1.688-1.43c0-0.899-0.629-1.329-1.588-1.329
			c-0.381,0-0.67,0.04-0.82,0.07V351.374z"/>
	</g>
</g>
<path id="path10200" sodipodi:nodetypes="cc" d="M390.104,270.086"/>
<path id="path16165" sodipodi:nodetypes="cc" d="M607.955,270.086"/>
<path id="path3268" sodipodi:nodetypes="cc" d="M137.301,223.747"/>
<path id="path16178" sodipodi:nodetypes="cc" d="M587.621,223.528"/>
<path id="path16180" sodipodi:nodetypes="cc" d="M534.812,310.147"/>
<path id="path16182" sodipodi:nodetypes="cc" d="M309.199,310.165"/>
<path id="path9200_9_" fill="none" stroke="#000000" stroke-width="1.2427" d="M358.524,297.546"/>
<path id="path9200_2_" fill="none" stroke="#000000" stroke-width="1.2427" d="M244.128,297.546"/>
<g>
	<g>
		<line fill="none" stroke="#000000" x1="245.945" y1="297.68" x2="355.945" y2="297.68"/>
		<polygon points="353.136,301.384 354.709,297.68 353.136,293.976 361.914,297.68 		"/>
		<polygon points="248.753,293.976 247.181,297.68 248.753,301.384 239.976,297.68 		"/>
	</g>
</g>
<g>
	<g>
		<line fill="none" stroke="#000000" x1="408.195" y1="297.43" x2="489.945" y2="297.43"/>
		<polygon points="487.136,301.134 488.708,297.43 487.136,293.726 495.914,297.43 		"/>
		<polygon points="411.003,293.726 409.431,297.43 411.003,301.134 402.226,297.43 		"/>
	</g>
</g>
<g>
	<g>
		<line fill="none" stroke="#000000" x1="541.945" y1="297.43" x2="626.695" y2="297.43"/>
		<polygon points="623.886,301.134 625.458,297.43 623.886,293.726 632.664,297.43 		"/>
		<polygon points="544.753,293.726 543.181,297.43 544.753,301.134 535.976,297.43 		"/>
	</g>
</g>
<g>
	
		<radialGradient id="path4128_6_" cx="218.5449" cy="309.9219" r="16.1868" gradientTransform="matrix(1.0057 0 0 0.5335 -63.618 187.5241)" gradientUnits="userSpaceOnUse">
		<stop  offset="0" style="stop-color:#A2FF5F"/>
		<stop  offset="0.4082" style="stop-color:#A0FF5F"/>
		<stop  offset="0.5552" style="stop-color:#99FD5F"/>
		<stop  offset="0.66" style="stop-color:#8EFB5E"/>
		<stop  offset="0.7448" style="stop-color:#7DF85E"/>
		<stop  offset="0.8174" style="stop-color:#67F35D"/>
		<stop  offset="0.8817" style="stop-color:#4BEE5C"/>
		<stop  offset="0.9398" style="stop-color:#2BE85B"/>
		<stop  offset="0.9915" style="stop-color:#07E05A"/>
		<stop  offset="1" style="stop-color:#00DF5A"/>
	</radialGradient>
	<path id="path4128_2_" fill="url(#path4128_6_)" stroke="#000000" d="M172.152,352.866c0,4.855-7.157,8.793-15.979,8.793
		c-8.825,0-15.979-3.936-15.979-8.793c0-4.855,7.154-8.791,15.979-8.791C164.996,344.077,172.152,348.011,172.152,352.866z"/>
	<g enable-background="new    ">
		<path d="M148.371,355.632c-0.23,0.11-0.74,0.28-1.389,0.28c-1.459,0-2.409-0.99-2.409-2.479c0-1.488,1.02-2.578,2.599-2.578
			c0.52,0,0.979,0.13,1.219,0.26l-0.2,0.67c-0.21-0.11-0.54-0.23-1.02-0.23c-1.109,0-1.709,0.83-1.709,1.84
			c0,1.119,0.719,1.809,1.679,1.809c0.5,0,0.83-0.12,1.08-0.229L148.371,355.632z"/>
		<path d="M150.522,353.683l-0.7,2.119h-0.899l2.289-6.736h1.049l2.299,6.736h-0.929l-0.72-2.119H150.522z M152.731,353.003
			l-0.669-1.938c-0.14-0.439-0.24-0.84-0.34-1.229h-0.03c-0.09,0.39-0.2,0.81-0.33,1.22l-0.66,1.948H152.731z"/>
		<path d="M161.23,352.844c-0.05-0.939-0.11-2.079-0.11-2.909h-0.02c-0.24,0.78-0.51,1.63-0.85,2.559l-1.189,3.269h-0.66
			l-1.099-3.208c-0.32-0.96-0.58-1.819-0.77-2.619h-0.02c-0.02,0.84-0.07,1.959-0.13,2.979l-0.18,2.889h-0.83l0.47-6.736h1.109
			l1.149,3.258c0.28,0.83,0.5,1.569,0.68,2.27h0.02c0.18-0.68,0.42-1.42,0.72-2.27l1.199-3.258h1.109l0.42,6.736h-0.86
			L161.23,352.844z"/>
		<path d="M163.593,349.155c0.419-0.08,0.969-0.14,1.669-0.14c0.859,0,1.489,0.2,1.889,0.56c0.37,0.319,0.6,0.81,0.6,1.409
			c0,0.609-0.18,1.09-0.53,1.439c-0.46,0.489-1.209,0.739-2.059,0.739c-0.26,0-0.5-0.01-0.7-0.06v2.698h-0.869V349.155z
			 M164.462,352.394c0.19,0.05,0.44,0.07,0.72,0.07c1.06,0,1.689-0.52,1.689-1.43c0-0.899-0.629-1.329-1.589-1.329
			c-0.38,0-0.67,0.04-0.82,0.07V352.394z"/>
	</g>
</g>
<g>
	
		<radialGradient id="path12666_6_" cx="221.8193" cy="309.9219" r="16.1868" gradientTransform="matrix(1.0057 0 0 0.5335 37.9986 187.5241)" gradientUnits="userSpaceOnUse">
		<stop  offset="0" style="stop-color:#A2FF5F"/>
		<stop  offset="0.4082" style="stop-color:#A0FF5F"/>
		<stop  offset="0.5552" style="stop-color:#99FD5F"/>
		<stop  offset="0.66" style="stop-color:#8EFB5E"/>
		<stop  offset="0.7448" style="stop-color:#7DF85E"/>
		<stop  offset="0.8174" style="stop-color:#67F35D"/>
		<stop  offset="0.8817" style="stop-color:#4BEE5C"/>
		<stop  offset="0.9398" style="stop-color:#2BE85B"/>
		<stop  offset="0.9915" style="stop-color:#07E05A"/>
		<stop  offset="1" style="stop-color:#00DF5A"/>
	</radialGradient>
	<path id="path12666_2_" fill="url(#path12666_6_)" stroke="#000000" d="M277.062,352.866c0,4.855-7.156,8.793-15.979,8.793
		c-8.825,0-15.979-3.936-15.979-8.793c0-4.855,7.154-8.791,15.979-8.791C269.906,344.077,277.062,348.011,277.062,352.866z"/>
	<g enable-background="new    ">
		<path d="M255.122,353.684l-0.7,2.119h-0.899l2.289-6.736h1.049l2.299,6.736h-0.93l-0.719-2.119H255.122z M257.33,353.004
			l-0.669-1.938c-0.14-0.439-0.24-0.84-0.34-1.229h-0.03c-0.09,0.39-0.2,0.81-0.33,1.22l-0.66,1.948H257.33z"/>
		<path d="M260.642,349.806h-2.049v-0.739h4.987v0.739h-2.059v5.997h-0.879V349.806z"/>
		<path d="M264.332,349.156c0.419-0.08,0.969-0.14,1.669-0.14c0.859,0,1.489,0.2,1.889,0.56c0.37,0.319,0.6,0.81,0.6,1.409
			c0,0.609-0.18,1.09-0.53,1.439c-0.46,0.489-1.209,0.739-2.059,0.739c-0.26,0-0.5-0.01-0.7-0.06v2.698h-0.869V349.156z
			 M265.201,352.395c0.19,0.05,0.44,0.07,0.72,0.07c1.06,0,1.689-0.52,1.689-1.43c0-0.899-0.629-1.329-1.589-1.329
			c-0.38,0-0.67,0.04-0.82,0.07V352.395z"/>
	</g>
</g>
<g>
	<g>
		<path fill="none" stroke="#000000" d="M259.629,343.806c-13.055-22.443-30.574-34.375-48.62-35.535
			c-18.503-1.189-37.562,8.947-52.929,30.695"/>
		<polygon points="156.676,334.534 158.793,337.956 162.726,338.81 154.635,343.841 		"/>
	</g>
</g>
<g>
	
		<radialGradient id="path4128_7_" cx="653.8345" cy="309.9219" r="16.1868" gradientTransform="matrix(1.0057 0 0 0.5335 -63.618 187.5241)" gradientUnits="userSpaceOnUse">
		<stop  offset="0" style="stop-color:#A2FF5F"/>
		<stop  offset="0.4082" style="stop-color:#A0FF5F"/>
		<stop  offset="0.5552" style="stop-color:#99FD5F"/>
		<stop  offset="0.66" style="stop-color:#8EFB5E"/>
		<stop  offset="0.7448" style="stop-color:#7DF85E"/>
		<stop  offset="0.8174" style="stop-color:#67F35D"/>
		<stop  offset="0.8817" style="stop-color:#4BEE5C"/>
		<stop  offset="0.9398" style="stop-color:#2BE85B"/>
		<stop  offset="0.9915" style="stop-color:#07E05A"/>
		<stop  offset="1" style="stop-color:#00DF5A"/>
	</radialGradient>
	<path id="path4128_3_" fill="url(#path4128_7_)" stroke="#000000" d="M609.923,352.866c0,4.855-7.156,8.793-15.98,8.793
		s-15.979-3.936-15.979-8.793c0-4.855,7.154-8.791,15.979-8.791C602.767,344.077,609.923,348.011,609.923,352.866z"/>
	<g enable-background="new    ">
		<path d="M586.142,355.632c-0.23,0.11-0.74,0.28-1.389,0.28c-1.46,0-2.409-0.99-2.409-2.479c0-1.488,1.02-2.578,2.599-2.578
			c0.52,0,0.979,0.13,1.219,0.26l-0.199,0.67c-0.21-0.11-0.54-0.23-1.02-0.23c-1.109,0-1.709,0.83-1.709,1.84
			c0,1.119,0.719,1.809,1.679,1.809c0.5,0,0.829-0.12,1.079-0.229L586.142,355.632z"/>
		<path d="M588.293,353.683l-0.7,2.119h-0.898l2.288-6.736h1.05l2.299,6.736h-0.93l-0.72-2.119H588.293z M590.501,353.003
			l-0.669-1.938c-0.14-0.439-0.239-0.84-0.34-1.229h-0.03c-0.09,0.39-0.199,0.81-0.33,1.22l-0.659,1.948H590.501z"/>
		<path d="M599.001,352.844c-0.051-0.939-0.11-2.079-0.11-2.909h-0.021c-0.239,0.78-0.51,1.63-0.85,2.559l-1.189,3.269h-0.659
			l-1.099-3.208c-0.32-0.96-0.58-1.819-0.77-2.619h-0.021c-0.021,0.84-0.07,1.959-0.13,2.979l-0.18,2.889h-0.83l0.47-6.736h1.109
			l1.149,3.258c0.279,0.83,0.5,1.569,0.68,2.27h0.02c0.18-0.68,0.42-1.42,0.721-2.27l1.199-3.258h1.109l0.42,6.736h-0.86
			L599.001,352.844z"/>
		<path d="M601.365,349.155c0.419-0.08,0.969-0.14,1.668-0.14c0.859,0,1.49,0.2,1.89,0.56c0.37,0.319,0.6,0.81,0.6,1.409
			c0,0.609-0.181,1.09-0.53,1.439c-0.459,0.489-1.209,0.739-2.059,0.739c-0.26,0-0.5-0.01-0.699-0.06v2.698h-0.869V349.155z
			 M602.234,352.394c0.189,0.05,0.439,0.07,0.719,0.07c1.061,0,1.689-0.52,1.689-1.43c0-0.899-0.629-1.329-1.589-1.329
			c-0.38,0-0.67,0.04-0.819,0.07V352.394z"/>
	</g>
</g>
<g>
	
		<radialGradient id="path12666_7_" cx="665.8179" cy="309.8857" r="16.1868" gradientTransform="matrix(1.0057 0 0 0.5335 37.9986 187.5241)" gradientUnits="userSpaceOnUse">
		<stop  offset="0" style="stop-color:#A2FF5F"/>
		<stop  offset="0.4082" style="stop-color:#A0FF5F"/>
		<stop  offset="0.5552" style="stop-color:#99FD5F"/>
		<stop  offset="0.66" style="stop-color:#8EFB5E"/>
		<stop  offset="0.7448" style="stop-color:#7DF85E"/>
		<stop  offset="0.8174" style="stop-color:#67F35D"/>
		<stop  offset="0.8817" style="stop-color:#4BEE5C"/>
		<stop  offset="0.9398" style="stop-color:#2BE85B"/>
		<stop  offset="0.9915" style="stop-color:#07E05A"/>
		<stop  offset="1" style="stop-color:#00DF5A"/>
	</radialGradient>
	<path id="path12666_3_" fill="url(#path12666_7_)" stroke="#000000" d="M723.591,352.847c0,4.855-7.156,8.793-15.979,8.793
		c-8.826,0-15.98-3.936-15.98-8.793c0-4.855,7.154-8.791,15.98-8.791C716.435,344.058,723.591,347.991,723.591,352.847z"/>
	<g enable-background="new    ">
		<path d="M701.652,353.664l-0.7,2.119h-0.899l2.289-6.736h1.049l2.299,6.736h-0.93l-0.719-2.119H701.652z M703.86,352.984
			l-0.669-1.938c-0.141-0.439-0.24-0.84-0.34-1.229h-0.03c-0.091,0.39-0.2,0.81-0.33,1.22l-0.659,1.948H703.86z"/>
		<path d="M707.171,349.786h-2.049v-0.739h4.986v0.739h-2.059v5.997h-0.879V349.786z"/>
		<path d="M710.862,349.137c0.419-0.08,0.97-0.14,1.669-0.14c0.859,0,1.489,0.2,1.889,0.56c0.37,0.319,0.6,0.81,0.6,1.409
			c0,0.609-0.18,1.09-0.529,1.439c-0.46,0.489-1.209,0.739-2.059,0.739c-0.26,0-0.5-0.01-0.7-0.06v2.698h-0.869V349.137z
			 M711.731,352.375c0.19,0.05,0.44,0.07,0.72,0.07c1.06,0,1.689-0.52,1.689-1.43c0-0.899-0.63-1.329-1.59-1.329
			c-0.379,0-0.67,0.04-0.819,0.07V352.375z"/>
	</g>
</g>
<g id="g12759" transform="matrix(0.778790,0.000000,0.000000,0.969011,-32.50401,-249.2769)">
	<g id="g12761" transform="matrix(1.228309,0.000000,0.000000,1.000000,87.81894,114.4454)">
		
			<radialGradient id="path12763_1_" cx="146.6375" cy="23.6933" r="16.1858" gradientTransform="matrix(1.9238 0 0 0.6358 -4.5461 387.317)" gradientUnits="userSpaceOnUse">
			<stop  offset="0" style="stop-color:#A2FF5F"/>
			<stop  offset="0.4082" style="stop-color:#A0FF5F"/>
			<stop  offset="0.5552" style="stop-color:#99FD5F"/>
			<stop  offset="0.66" style="stop-color:#8EFB5E"/>
			<stop  offset="0.7448" style="stop-color:#7DF85E"/>
			<stop  offset="0.8174" style="stop-color:#67F35D"/>
			<stop  offset="0.8817" style="stop-color:#4BEE5C"/>
			<stop  offset="0.9398" style="stop-color:#2BE85B"/>
			<stop  offset="0.9915" style="stop-color:#07E05A"/>
			<stop  offset="1" style="stop-color:#00DF5A"/>
		</radialGradient>
		<path id="path12763" fill="url(#path12763_1_)" stroke="#000000" d="M309.509,402.381c0,5.97-14.311,10.812-31.954,10.812
			c-17.647,0-31.953-4.839-31.953-10.812c0-5.972,14.306-10.812,31.953-10.812C295.199,391.572,309.509,396.409,309.509,402.381z"/>
	</g>
</g>
<g enable-background="new    ">
	<path d="M296.604,254.17c-0.39,0.149-1.169,0.37-2.079,0.37c-1.02,0-1.859-0.26-2.519-0.89c-0.58-0.56-0.939-1.459-0.939-2.509
		c0-2.009,1.389-3.479,3.648-3.479c0.78,0,1.399,0.17,1.689,0.311l-0.22,0.709c-0.36-0.17-0.81-0.289-1.489-0.289
		c-1.639,0-2.708,1.019-2.708,2.708c0,1.709,1.02,2.719,2.599,2.719c0.57,0,0.959-0.08,1.159-0.18v-2.01h-1.359v-0.699h2.219V254.17
		z"/>
	<path d="M299.935,251.451v0.64h-2.469v-0.64H299.935z"/>
	<path d="M300.846,253.58c0.27,0.16,0.729,0.34,1.169,0.34c0.63,0,0.93-0.31,0.93-0.72c0-0.42-0.25-0.649-0.89-0.89
		c-0.879-0.319-1.289-0.789-1.289-1.369c0-0.779,0.64-1.419,1.669-1.419c0.49,0,0.919,0.13,1.179,0.3l-0.209,0.63
		c-0.19-0.11-0.54-0.28-0.99-0.28c-0.52,0-0.799,0.3-0.799,0.66c0,0.409,0.28,0.59,0.909,0.829c0.83,0.31,1.27,0.729,1.27,1.459
		c0,0.86-0.67,1.46-1.799,1.46c-0.53,0-1.02-0.141-1.359-0.34L300.846,253.58z"/>
	<path d="M306.965,251.451v0.64h-2.469v-0.64H306.965z"/>
	<path d="M311.841,249.997h0.811l-0.635,2.222c-0.042,0.14-0.109,0.359-0.2,0.659c0.124,0.501,0.216,0.801,0.278,0.898
		c0.117,0.179,0.265,0.269,0.444,0.269c0.13,0,0.25-0.054,0.361-0.161s0.184-0.275,0.22-0.503h0.195
		c-0.045,0.469-0.144,0.793-0.295,0.972s-0.326,0.269-0.525,0.269c-0.186,0-0.354-0.078-0.505-0.234s-0.287-0.491-0.408-1.006
		c-0.143,0.283-0.283,0.498-0.42,0.645c-0.192,0.202-0.4,0.353-0.625,0.452c-0.225,0.099-0.48,0.148-0.767,0.148
		c-0.719,0-1.249-0.239-1.587-0.718s-0.508-1.023-0.508-1.636c0-0.716,0.199-1.297,0.596-1.74c0.397-0.445,0.863-0.667,1.396-0.667
		c0.371,0,0.698,0.113,0.981,0.339c0.283,0.227,0.541,0.647,0.771,1.263L311.841,249.997z M311.25,252.014
		c-0.176-0.671-0.402-1.139-0.679-1.403c-0.277-0.266-0.558-0.398-0.845-0.398c-0.319,0-0.584,0.175-0.796,0.525
		c-0.211,0.35-0.317,0.907-0.317,1.672c0,0.452,0.045,0.809,0.137,1.066c0.091,0.26,0.229,0.459,0.413,0.602
		c0.184,0.141,0.378,0.212,0.583,0.212c0.25,0,0.48-0.115,0.688-0.347C310.718,253.63,310.99,252.987,311.25,252.014z"/>
</g>
<g>
	<g>
		<path fill="none" stroke="#000000" d="M273.997,297.645c28.208,0,28.208-29.288,28.208-29.288"/>
		<polygon points="305.908,271.165 302.204,269.592 298.5,271.165 302.204,262.387 		"/>
	</g>
</g>
<g>
	<g>
		<path fill="none" stroke="#000000" stroke-dasharray="3,3" d="M471.71,297.396c-28.207,0-28.207-29.289-28.207-29.289"/>
	</g>
</g>
<g>
	<g>
		<path fill="none" stroke="#000000" d="M612.085,297.396c-28.207,0-28.207-29.289-28.207-29.289"/>
		<polygon points="587.583,270.915 583.878,269.342 580.175,270.915 583.878,262.137 		"/>
	</g>
</g>
<g>
	<g>
		<g>
			<path fill="none" stroke="#000000" d="M511.625,506.002c-13.675-23.721-32.304-36.494-51.663-37.981
				c-19.85-1.526-40.471,8.809-57.305,31.373"/>
			<polygon points="401.368,494.928 403.396,498.403 407.305,499.357 399.088,504.178 			"/>
		</g>
	</g>
	<g>
		<g>
			<path fill="none" stroke="#000000" d="M279.855,505.326c12.958-23.056,30.557-35.429,48.81-36.81
				c18.716-1.42,38.125,8.721,53.927,30.755"/>
			<polygon points="377.945,499.147 381.872,498.268 383.965,494.831 386.071,504.122 			"/>
		</g>
	</g>
	<g>
		<g id="g16046" transform="matrix(0.778790,0.000000,0.000000,0.969011,-32.50401,-249.2769)">
			<g id="g16048" transform="matrix(1.228309,0.000000,0.000000,1.000000,87.81894,114.4454)">
				
					<radialGradient id="path16050_1_" cx="171.874" cy="-178.4367" r="16.1858" gradientTransform="matrix(1.2338 0 0 0.6358 -28.8055 728.5427)" gradientUnits="userSpaceOnUse">
					<stop  offset="0" style="stop-color:#A2FF5F"/>
					<stop  offset="0.4082" style="stop-color:#A0FF5F"/>
					<stop  offset="0.5552" style="stop-color:#99FD5F"/>
					<stop  offset="0.66" style="stop-color:#8EFB5E"/>
					<stop  offset="0.7448" style="stop-color:#7DF85E"/>
					<stop  offset="0.8174" style="stop-color:#67F35D"/>
					<stop  offset="0.8817" style="stop-color:#4BEE5C"/>
					<stop  offset="0.9398" style="stop-color:#2BE85B"/>
					<stop  offset="0.9915" style="stop-color:#07E05A"/>
					<stop  offset="1" style="stop-color:#00DF5A"/>
				</radialGradient>
				<path id="path16050" fill="url(#path16050_1_)" stroke="#000000" d="M203.746,615.092c0,5.97-9.178,10.812-20.494,10.812
					c-11.317,0-20.493-4.839-20.493-10.812c0-5.973,9.175-10.811,20.493-10.811C194.568,604.283,203.746,609.12,203.746,615.092z"/>
			</g>
		</g>
		<g enable-background="new    ">
			<path d="M203.497,453.942c0.419-0.08,0.969-0.14,1.669-0.14c0.859,0,1.489,0.2,1.889,0.56c0.37,0.319,0.6,0.81,0.6,1.409
				c0,0.609-0.18,1.09-0.53,1.439c-0.46,0.489-1.209,0.739-2.059,0.739c-0.26,0-0.5-0.01-0.7-0.06v2.698h-0.869V453.942z
				 M204.366,457.181c0.19,0.05,0.44,0.07,0.72,0.07c1.06,0,1.689-0.52,1.689-1.43c0-0.899-0.629-1.329-1.589-1.329
				c-0.38,0-0.67,0.04-0.82,0.07V457.181z"/>
			<path d="M208.807,453.942c0.54-0.08,1.169-0.14,1.859-0.14c1.25,0,2.139,0.279,2.729,0.829c0.61,0.55,0.959,1.34,0.959,2.429
				c0,1.1-0.35,1.999-0.969,2.619c-0.64,0.629-1.679,0.969-2.988,0.969c-0.63,0-1.14-0.02-1.589-0.079V453.942z M209.686,459.909
				c0.22,0.04,0.54,0.04,0.88,0.04c1.859,0.01,2.868-1.039,2.868-2.858c0.01-1.609-0.89-2.599-2.729-2.599
				c-0.45,0-0.79,0.04-1.02,0.09V459.909z"/>
			<path d="M218.955,457.431h-2.609v2.429h2.918v0.729h-3.798v-6.736h3.648v0.729h-2.769v2.129h2.609V457.431z"/>
		</g>
	</g>
	<g>
		<g id="g16060" transform="matrix(0.778790,0.000000,0.000000,0.969011,-32.50401,-249.2769)">
			<g id="g16062" transform="matrix(1.228309,0.000000,0.000000,1.000000,87.81894,114.4454)">
				
					<radialGradient id="path16064_1_" cx="172.2313" cy="-178.4367" r="16.1855" gradientTransform="matrix(1.2338 0 0 0.6358 98.523 728.5427)" gradientUnits="userSpaceOnUse">
					<stop  offset="0" style="stop-color:#A2FF5F"/>
					<stop  offset="0.4082" style="stop-color:#A0FF5F"/>
					<stop  offset="0.5552" style="stop-color:#99FD5F"/>
					<stop  offset="0.66" style="stop-color:#8EFB5E"/>
					<stop  offset="0.7448" style="stop-color:#7DF85E"/>
					<stop  offset="0.8174" style="stop-color:#67F35D"/>
					<stop  offset="0.8817" style="stop-color:#4BEE5C"/>
					<stop  offset="0.9398" style="stop-color:#2BE85B"/>
					<stop  offset="0.9915" style="stop-color:#07E05A"/>
					<stop  offset="1" style="stop-color:#00DF5A"/>
				</radialGradient>
				<path id="path16064" fill="url(#path16064_1_)" stroke="#000000" d="M331.515,615.092c0,5.97-9.178,10.812-20.493,10.812
					c-11.317,0-20.492-4.839-20.492-10.812c0-5.973,9.175-10.811,20.492-10.811C322.337,604.283,331.515,609.12,331.515,615.092z"/>
			</g>
		</g>
		<g enable-background="new    ">
			<path d="M323.646,453.942c0.419-0.08,0.969-0.14,1.669-0.14c0.859,0,1.489,0.2,1.889,0.56c0.37,0.319,0.6,0.81,0.6,1.409
				c0,0.609-0.18,1.09-0.53,1.439c-0.46,0.489-1.209,0.739-2.059,0.739c-0.26,0-0.5-0.01-0.7-0.06v2.698h-0.869V453.942z
				 M324.515,457.181c0.19,0.05,0.44,0.07,0.72,0.07c1.06,0,1.689-0.52,1.689-1.43c0-0.899-0.629-1.329-1.589-1.329
				c-0.38,0-0.67,0.04-0.82,0.07V457.181z"/>
			<path d="M328.955,453.942c0.54-0.08,1.169-0.14,1.859-0.14c1.25,0,2.139,0.279,2.729,0.829c0.61,0.55,0.959,1.34,0.959,2.429
				c0,1.1-0.35,1.999-0.969,2.619c-0.64,0.629-1.679,0.969-2.988,0.969c-0.63,0-1.14-0.02-1.589-0.079V453.942z M329.834,459.909
				c0.22,0.04,0.54,0.04,0.88,0.04c1.859,0.01,2.868-1.039,2.868-2.858c0.01-1.609-0.89-2.599-2.729-2.599
				c-0.45,0-0.79,0.04-1.02,0.09V459.909z"/>
			<path d="M339.103,457.431h-2.609v2.429h2.918v0.729h-3.798v-6.736h3.648v0.729h-2.769v2.129h2.609V457.431z"/>
			<path d="M343.073,454.093l-0.949,1.239v0.02l1.509-0.2v0.68l-1.509-0.18v0.021l0.959,1.209l-0.63,0.35l-0.609-1.399h-0.02
				l-0.64,1.409l-0.57-0.359l0.949-1.22v-0.02l-1.479,0.189v-0.68l1.469,0.19v-0.021l-0.939-1.229l0.61-0.34l0.62,1.379h0.02
				l0.609-1.39L343.073,454.093z"/>
		</g>
	</g>
	<g>
		<g id="g16074" transform="matrix(0.778790,0.000000,0.000000,0.969011,-32.50401,-249.2769)">
			<g id="g16076" transform="matrix(1.228309,0.000000,0.000000,1.000000,87.81894,114.4454)">
				
					<radialGradient id="path16078_1_" cx="172.6662" cy="-178.4367" r="16.1855" gradientTransform="matrix(1.2338 0 0 0.6358 236.7646 728.5427)" gradientUnits="userSpaceOnUse">
					<stop  offset="0" style="stop-color:#A2FF5F"/>
					<stop  offset="0.4082" style="stop-color:#A0FF5F"/>
					<stop  offset="0.5552" style="stop-color:#99FD5F"/>
					<stop  offset="0.66" style="stop-color:#8EFB5E"/>
					<stop  offset="0.7448" style="stop-color:#7DF85E"/>
					<stop  offset="0.8174" style="stop-color:#67F35D"/>
					<stop  offset="0.8817" style="stop-color:#4BEE5C"/>
					<stop  offset="0.9398" style="stop-color:#2BE85B"/>
					<stop  offset="0.9915" style="stop-color:#07E05A"/>
					<stop  offset="1" style="stop-color:#00DF5A"/>
				</radialGradient>
				<path id="path16078" fill="url(#path16078_1_)" stroke="#000000" d="M470.293,615.092c0,5.97-9.179,10.812-20.494,10.812
					c-11.317,0-20.492-4.839-20.492-10.812c0-5.973,9.175-10.811,20.492-10.811C461.114,604.283,470.293,609.12,470.293,615.092z"/>
			</g>
		</g>
		<g enable-background="new    ">
			<path d="M455.91,453.942c0.42-0.08,0.969-0.14,1.669-0.14c0.859,0,1.489,0.2,1.889,0.56c0.37,0.319,0.601,0.81,0.601,1.409
				c0,0.609-0.181,1.09-0.53,1.439c-0.46,0.489-1.21,0.739-2.06,0.739c-0.26,0-0.499-0.01-0.699-0.06v2.698h-0.869V453.942z
				 M456.779,457.181c0.189,0.05,0.439,0.07,0.72,0.07c1.06,0,1.688-0.52,1.688-1.43c0-0.899-0.629-1.329-1.588-1.329
				c-0.381,0-0.67,0.04-0.82,0.07V457.181z"/>
			<path d="M461.219,453.942c0.54-0.08,1.169-0.14,1.858-0.14c1.25,0,2.14,0.279,2.729,0.829c0.61,0.55,0.96,1.34,0.96,2.429
				c0,1.1-0.35,1.999-0.97,2.619c-0.639,0.629-1.679,0.969-2.988,0.969c-0.629,0-1.139-0.02-1.589-0.079V453.942z M462.099,459.909
				c0.22,0.04,0.539,0.04,0.879,0.04c1.859,0.01,2.869-1.039,2.869-2.858c0.01-1.609-0.891-2.599-2.729-2.599
				c-0.45,0-0.79,0.04-1.02,0.09V459.909z"/>
			<path d="M471.367,457.431h-2.608v2.429h2.919v0.729h-3.799v-6.736h3.648v0.729h-2.769v2.129h2.608V457.431z"/>
			<path d="M474.408,454.912h-0.02l-1.129,0.609l-0.17-0.67l1.418-0.759h0.75v6.496h-0.85V454.912z"/>
		</g>
	</g>
	<g>
		
			<radialGradient id="path16102_3_" cx="211.5718" cy="-393.8901" r="16.1858" gradientTransform="matrix(1.0057 0 0 0.5335 57.5157 722.8474)" gradientUnits="userSpaceOnUse">
			<stop  offset="0" style="stop-color:#A2FF5F"/>
			<stop  offset="0.4082" style="stop-color:#A0FF5F"/>
			<stop  offset="0.5552" style="stop-color:#99FD5F"/>
			<stop  offset="0.66" style="stop-color:#8EFB5E"/>
			<stop  offset="0.7448" style="stop-color:#7DF85E"/>
			<stop  offset="0.8174" style="stop-color:#67F35D"/>
			<stop  offset="0.8817" style="stop-color:#4BEE5C"/>
			<stop  offset="0.9398" style="stop-color:#2BE85B"/>
			<stop  offset="0.9915" style="stop-color:#07E05A"/>
			<stop  offset="1" style="stop-color:#00DF5A"/>
		</radialGradient>
		<path id="path16102" fill="url(#path16102_3_)" stroke="#000000" d="M286.272,512.706c0,4.855-7.156,8.792-15.979,8.792
			c-8.825,0-15.979-3.935-15.979-8.792c0-4.856,7.153-8.79,15.979-8.79C279.116,503.916,286.272,507.851,286.272,512.706z"/>
		<g enable-background="new    ">
			<path d="M262.491,515.472c-0.23,0.11-0.74,0.28-1.389,0.28c-1.459,0-2.409-0.99-2.409-2.479c0-1.488,1.02-2.578,2.599-2.578
				c0.52,0,0.979,0.13,1.219,0.26l-0.2,0.67c-0.21-0.11-0.54-0.23-1.02-0.23c-1.109,0-1.709,0.83-1.709,1.84
				c0,1.119,0.719,1.809,1.679,1.809c0.5,0,0.83-0.12,1.08-0.229L262.491,515.472z"/>
			<path d="M264.642,513.522l-0.7,2.119h-0.899l2.289-6.736h1.049l2.299,6.736h-0.929l-0.72-2.119H264.642z M266.851,512.843
				l-0.669-1.938c-0.14-0.439-0.24-0.84-0.34-1.229h-0.03c-0.09,0.39-0.2,0.81-0.33,1.22l-0.66,1.948H266.851z"/>
			<path d="M275.35,512.684c-0.05-0.939-0.11-2.079-0.11-2.909h-0.02c-0.24,0.78-0.51,1.63-0.85,2.559l-1.189,3.269h-0.66
				l-1.099-3.208c-0.32-0.96-0.58-1.819-0.77-2.619h-0.02c-0.02,0.84-0.07,1.959-0.13,2.979l-0.18,2.889h-0.83l0.47-6.736h1.109
				l1.149,3.258c0.28,0.83,0.5,1.569,0.68,2.27h0.02c0.18-0.68,0.42-1.42,0.72-2.27l1.199-3.258h1.109l0.42,6.736h-0.86
				L275.35,512.684z"/>
			<path d="M277.713,508.995c0.419-0.08,0.969-0.14,1.669-0.14c0.859,0,1.489,0.2,1.889,0.56c0.37,0.319,0.6,0.81,0.6,1.409
				c0,0.609-0.18,1.09-0.53,1.439c-0.46,0.489-1.209,0.739-2.059,0.739c-0.26,0-0.5-0.01-0.7-0.06v2.698h-0.869V508.995z
				 M278.582,512.233c0.19,0.05,0.44,0.07,0.72,0.07c1.06,0,1.689-0.52,1.689-1.43c0-0.899-0.629-1.329-1.589-1.329
				c-0.38,0-0.67,0.04-0.82,0.07V512.233z"/>
		</g>
	</g>
	<g>
		
			<radialGradient id="path16132_1_" cx="209.9106" cy="-393.8901" r="16.1858" gradientTransform="matrix(1.0057 0 0 0.5335 -59.0258 722.8474)" gradientUnits="userSpaceOnUse">
			<stop  offset="0" style="stop-color:#A2FF5F"/>
			<stop  offset="0.4082" style="stop-color:#A0FF5F"/>
			<stop  offset="0.5552" style="stop-color:#99FD5F"/>
			<stop  offset="0.66" style="stop-color:#8EFB5E"/>
			<stop  offset="0.7448" style="stop-color:#7DF85E"/>
			<stop  offset="0.8174" style="stop-color:#67F35D"/>
			<stop  offset="0.8817" style="stop-color:#4BEE5C"/>
			<stop  offset="0.9398" style="stop-color:#2BE85B"/>
			<stop  offset="0.9915" style="stop-color:#07E05A"/>
			<stop  offset="1" style="stop-color:#00DF5A"/>
		</radialGradient>
		<path id="path16132" fill="url(#path16132_1_)" stroke="#000000" d="M168.061,512.706c0,4.855-7.156,8.792-15.979,8.792
			c-8.825,0-15.979-3.935-15.979-8.792c0-4.856,7.153-8.79,15.979-8.79C160.904,503.916,168.061,507.851,168.061,512.706z"/>
		<g enable-background="new    ">
			<path d="M144.19,513.522l-0.7,2.119h-0.899l2.289-6.736h1.049l2.299,6.736h-0.93l-0.719-2.119H144.19z M146.399,512.843
				l-0.669-1.938c-0.14-0.439-0.24-0.84-0.34-1.229h-0.03c-0.09,0.39-0.2,0.81-0.33,1.22l-0.66,1.948H146.399z"/>
			<path d="M154.898,512.684c-0.05-0.939-0.11-2.079-0.11-2.909h-0.02c-0.24,0.78-0.51,1.63-0.85,2.559l-1.189,3.269h-0.66
				l-1.099-3.208c-0.32-0.96-0.58-1.819-0.77-2.619h-0.02c-0.02,0.84-0.07,1.959-0.13,2.979l-0.18,2.889h-0.83l0.47-6.736h1.109
				l1.149,3.258c0.28,0.83,0.5,1.569,0.68,2.27h0.02c0.18-0.68,0.42-1.42,0.72-2.27l1.199-3.258h1.109l0.42,6.736h-0.86
				L154.898,512.684z"/>
			<path d="M157.261,508.995c0.419-0.08,0.969-0.14,1.669-0.14c0.859,0,1.489,0.2,1.889,0.56c0.37,0.319,0.6,0.81,0.6,1.409
				c0,0.609-0.18,1.09-0.53,1.439c-0.46,0.489-1.209,0.739-2.059,0.739c-0.26,0-0.5-0.01-0.7-0.06v2.698h-0.869V508.995z
				 M158.13,512.233c0.19,0.05,0.44,0.07,0.72,0.07c1.06,0,1.689-0.52,1.689-1.43c0-0.899-0.629-1.329-1.589-1.329
				c-0.38,0-0.67,0.04-0.82,0.07V512.233z"/>
		</g>
	</g>
	<g>
		
			<radialGradient id="path16142_2_" cx="213.8872" cy="-402.1938" r="16.1865" gradientTransform="matrix(1.0057 0 0 0.5335 177.3981 727.277)" gradientUnits="userSpaceOnUse">
			<stop  offset="0" style="stop-color:#A2FF5F"/>
			<stop  offset="0.4082" style="stop-color:#A0FF5F"/>
			<stop  offset="0.5552" style="stop-color:#99FD5F"/>
			<stop  offset="0.66" style="stop-color:#8EFB5E"/>
			<stop  offset="0.7448" style="stop-color:#7DF85E"/>
			<stop  offset="0.8174" style="stop-color:#67F35D"/>
			<stop  offset="0.8817" style="stop-color:#4BEE5C"/>
			<stop  offset="0.9398" style="stop-color:#2BE85B"/>
			<stop  offset="0.9915" style="stop-color:#07E05A"/>
			<stop  offset="1" style="stop-color:#00DF5A"/>
		</radialGradient>
		<path id="path16142" fill="url(#path16142_2_)" stroke="#000000" d="M408.484,512.706c0,4.855-7.156,8.792-15.979,8.792
			c-8.825,0-15.979-3.935-15.979-8.792c0-4.856,7.153-8.791,15.979-8.791C401.328,503.916,408.484,507.85,408.484,512.706z"/>
		<g enable-background="new    ">
			<path d="M384.614,513.522l-0.7,2.119h-0.899l2.289-6.736h1.049l2.299,6.736h-0.93l-0.719-2.119H384.614z M386.823,512.843
				l-0.669-1.938c-0.14-0.439-0.24-0.84-0.34-1.229h-0.03c-0.09,0.39-0.2,0.81-0.33,1.22l-0.66,1.948H386.823z"/>
			<path d="M395.322,512.684c-0.05-0.939-0.11-2.079-0.11-2.909h-0.02c-0.24,0.78-0.51,1.63-0.85,2.559l-1.189,3.269h-0.66
				l-1.099-3.208c-0.32-0.96-0.58-1.819-0.77-2.619h-0.02c-0.02,0.84-0.07,1.959-0.13,2.979l-0.18,2.889h-0.83l0.47-6.736h1.109
				l1.149,3.258c0.28,0.83,0.5,1.569,0.68,2.27h0.02c0.18-0.68,0.42-1.42,0.72-2.27l1.199-3.258h1.109l0.42,6.736h-0.86
				L395.322,512.684z"/>
			<path d="M397.685,508.995c0.419-0.08,0.969-0.14,1.669-0.14c0.859,0,1.489,0.2,1.889,0.56c0.37,0.319,0.6,0.81,0.6,1.409
				c0,0.609-0.18,1.09-0.53,1.439c-0.46,0.489-1.209,0.739-2.059,0.739c-0.26,0-0.5-0.01-0.7-0.06v2.698h-0.869V508.995z
				 M398.554,512.233c0.19,0.05,0.44,0.07,0.72,0.07c1.06,0,1.689-0.52,1.689-1.43c0-0.899-0.629-1.329-1.589-1.329
				c-0.38,0-0.67,0.04-0.82,0.07V512.233z"/>
		</g>
	</g>
	<g>
		<g>
			<line fill="none" stroke="#000000" x1="236.913" y1="457.064" x2="307.445" y2="457.064"/>
			<polygon points="304.636,460.769 306.209,457.064 304.636,453.36 313.414,457.064 			"/>
			<polygon points="239.721,453.36 238.148,457.064 239.721,460.768 230.943,457.064 			"/>
		</g>
	</g>
	<g>
		<g>
			<line fill="none" stroke="#000000" x1="492.112" y1="456.814" x2="604.093" y2="456.814"/>
			<polygon points="601.285,460.519 602.857,456.814 601.285,453.11 610.062,456.814 			"/>
			<polygon points="494.92,453.11 493.348,456.814 494.92,460.518 486.143,456.814 			"/>
		</g>
	</g>
	<g>
		<g>
			<path fill="none" stroke="#000000" d="M261.627,505.752c-12.73-23.096-30.075-35.529-48.102-36.977
				c-18.483-1.484-37.687,8.583-53.366,30.555"/>
			<polygon points="158.775,494.893 160.876,498.324 164.805,499.195 156.691,504.188 			"/>
		</g>
	</g>
	<g>
		
			<radialGradient id="path16102_4_" cx="460.1538" cy="-393.8901" r="16.186" gradientTransform="matrix(1.0057 0 0 0.5335 57.5157 722.8474)" gradientUnits="userSpaceOnUse">
			<stop  offset="0" style="stop-color:#A2FF5F"/>
			<stop  offset="0.4082" style="stop-color:#A0FF5F"/>
			<stop  offset="0.5552" style="stop-color:#99FD5F"/>
			<stop  offset="0.66" style="stop-color:#8EFB5E"/>
			<stop  offset="0.7448" style="stop-color:#7DF85E"/>
			<stop  offset="0.8174" style="stop-color:#67F35D"/>
			<stop  offset="0.8817" style="stop-color:#4BEE5C"/>
			<stop  offset="0.9398" style="stop-color:#2BE85B"/>
			<stop  offset="0.9915" style="stop-color:#07E05A"/>
			<stop  offset="1" style="stop-color:#00DF5A"/>
		</radialGradient>
		<path id="path16102_1_" fill="url(#path16102_4_)" stroke="#000000" d="M536.272,512.706c0,4.855-7.156,8.792-15.979,8.792
			c-8.825,0-15.979-3.935-15.979-8.792c0-4.856,7.153-8.79,15.979-8.79C529.116,503.916,536.272,507.851,536.272,512.706z"/>
		<g enable-background="new    ">
			<path d="M512.491,515.472c-0.229,0.11-0.739,0.28-1.39,0.28c-1.459,0-2.408-0.99-2.408-2.479c0-1.488,1.02-2.578,2.599-2.578
				c0.52,0,0.979,0.13,1.22,0.26l-0.2,0.67c-0.21-0.11-0.54-0.23-1.02-0.23c-1.109,0-1.709,0.83-1.709,1.84
				c0,1.119,0.72,1.809,1.679,1.809c0.5,0,0.83-0.12,1.08-0.229L512.491,515.472z"/>
			<path d="M514.642,513.522l-0.699,2.119h-0.9l2.289-6.736h1.049l2.299,6.736h-0.929l-0.72-2.119H514.642z M516.851,512.843
				l-0.67-1.938c-0.141-0.439-0.24-0.84-0.34-1.229h-0.029c-0.091,0.39-0.201,0.81-0.33,1.22l-0.66,1.948H516.851z"/>
			<path d="M525.349,512.684c-0.049-0.939-0.109-2.079-0.109-2.909h-0.02c-0.24,0.78-0.51,1.63-0.85,2.559l-1.189,3.269h-0.66
				l-1.1-3.208c-0.319-0.96-0.58-1.819-0.77-2.619h-0.02c-0.02,0.84-0.07,1.959-0.13,2.979l-0.181,2.889h-0.829l0.47-6.736h1.109
				l1.149,3.258c0.28,0.83,0.5,1.569,0.68,2.27h0.021c0.18-0.68,0.42-1.42,0.719-2.27l1.199-3.258h1.109l0.42,6.736h-0.859
				L525.349,512.684z"/>
			<path d="M527.712,508.995c0.42-0.08,0.97-0.14,1.67-0.14c0.859,0,1.488,0.2,1.889,0.56c0.369,0.319,0.6,0.81,0.6,1.409
				c0,0.609-0.18,1.09-0.529,1.439c-0.461,0.489-1.21,0.739-2.06,0.739c-0.26,0-0.499-0.01-0.7-0.06v2.698h-0.869V508.995z
				 M528.582,512.233c0.19,0.05,0.44,0.07,0.721,0.07c1.059,0,1.688-0.52,1.688-1.43c0-0.899-0.63-1.329-1.589-1.329
				c-0.38,0-0.67,0.04-0.82,0.07V512.233z"/>
		</g>
	</g>
	<g>
		<g id="g16088" transform="matrix(0.778790,0.000000,0.000000,0.969011,-32.50401,-249.2769)">
			<g id="g16090" transform="matrix(1.228309,0.000000,0.000000,1.000000,87.81894,114.4454)">
				
					<radialGradient id="path16092_1_" cx="140.0748" cy="-141.8891" r="16.186" gradientTransform="matrix(2.6138 0 0 0.6963 277.6329 713.3517)" gradientUnits="userSpaceOnUse">
					<stop  offset="0" style="stop-color:#A2FF5F"/>
					<stop  offset="0.4082" style="stop-color:#A0FF5F"/>
					<stop  offset="0.5552" style="stop-color:#99FD5F"/>
					<stop  offset="0.66" style="stop-color:#8EFB5E"/>
					<stop  offset="0.7448" style="stop-color:#7DF85E"/>
					<stop  offset="0.8174" style="stop-color:#67F35D"/>
					<stop  offset="0.8817" style="stop-color:#4BEE5C"/>
					<stop  offset="0.9398" style="stop-color:#2BE85B"/>
					<stop  offset="0.9915" style="stop-color:#07E05A"/>
					<stop  offset="1" style="stop-color:#00DF5A"/>
				</radialGradient>
				<path id="path16092" fill="url(#path16092_1_)" stroke="#000000" d="M687.173,614.553c0,6.541-19.446,11.842-43.416,11.842
					c-23.978,0-43.414-5.299-43.414-11.842c0-6.543,19.435-11.84,43.414-11.84C667.728,602.714,687.173,608.013,687.173,614.553z"/>
			</g>
		</g>
		<g enable-background="new    ">
			<path d="M625.943,459.856c-0.31,0.16-0.959,0.32-1.779,0.32c-1.898,0-3.317-1.2-3.317-3.419c0-2.118,1.429-3.538,3.519-3.538
				c0.829,0,1.369,0.181,1.599,0.3l-0.22,0.71c-0.32-0.16-0.789-0.279-1.35-0.279c-1.579,0-2.629,1.009-2.629,2.778
				c0,1.659,0.95,2.708,2.579,2.708c0.54,0,1.079-0.109,1.429-0.279L625.943,459.856z"/>
			<path d="M630.354,458.907c0,0.42,0.021,0.829,0.069,1.159h-0.789l-0.08-0.609h-0.029c-0.26,0.38-0.79,0.72-1.479,0.72
				c-0.979,0-1.479-0.69-1.479-1.39c0-1.169,1.039-1.809,2.908-1.799v-0.101c0-0.399-0.109-1.129-1.1-1.119
				c-0.459,0-0.929,0.13-1.269,0.36l-0.2-0.59c0.4-0.25,0.99-0.42,1.6-0.42c1.488,0,1.849,1.01,1.849,1.979V458.907z
				 M629.495,457.598c-0.96-0.02-2.049,0.15-2.049,1.09c0,0.579,0.38,0.839,0.819,0.839c0.64,0,1.049-0.399,1.189-0.81
				c0.029-0.09,0.04-0.189,0.04-0.279V457.598z"/>
			<path d="M634.205,460.066v-1.769h-3.019v-0.57l2.898-4.157h0.95v4.048h0.908v0.68h-0.908v1.769H634.205z M634.205,457.618v-2.18
				c0-0.339,0.01-0.679,0.029-1.019h-0.029c-0.2,0.379-0.359,0.659-0.54,0.969l-1.589,2.209v0.021H634.205z"/>
			<path d="M638.935,457.048v0.64h-2.469v-0.64H638.935z"/>
			<path d="M644.693,459.856c-0.311,0.16-0.959,0.32-1.779,0.32c-1.898,0-3.318-1.2-3.318-3.419c0-2.118,1.43-3.538,3.519-3.538
				c0.829,0,1.369,0.181,1.599,0.3l-0.219,0.71c-0.32-0.16-0.79-0.279-1.35-0.279c-1.58,0-2.629,1.009-2.629,2.778
				c0,1.659,0.949,2.708,2.578,2.708c0.54,0,1.08-0.109,1.43-0.279L644.693,459.856z"/>
			<path d="M649.103,458.907c0,0.42,0.021,0.829,0.07,1.159h-0.789l-0.08-0.609h-0.03c-0.26,0.38-0.79,0.72-1.479,0.72
				c-0.979,0-1.479-0.69-1.479-1.39c0-1.169,1.039-1.809,2.908-1.799v-0.101c0-0.399-0.109-1.129-1.1-1.119
				c-0.459,0-0.93,0.13-1.27,0.36l-0.199-0.59c0.399-0.25,0.989-0.42,1.599-0.42c1.489,0,1.849,1.01,1.849,1.979V458.907z
				 M648.244,457.598c-0.959-0.02-2.049,0.15-2.049,1.09c0,0.579,0.38,0.839,0.82,0.839c0.639,0,1.049-0.399,1.189-0.81
				c0.029-0.09,0.039-0.189,0.039-0.279V457.598z"/>
			<path d="M656.222,457.108c-0.05-0.939-0.109-2.079-0.109-2.909h-0.021c-0.239,0.78-0.51,1.63-0.85,2.559l-1.189,3.269h-0.659
				l-1.1-3.208c-0.32-0.96-0.58-1.819-0.77-2.619h-0.02c-0.021,0.84-0.07,1.959-0.131,2.979l-0.18,2.889h-0.83l0.471-6.736h1.109
				l1.148,3.258c0.28,0.83,0.5,1.569,0.68,2.27h0.021c0.18-0.68,0.42-1.42,0.72-2.27l1.199-3.258h1.109l0.42,6.736h-0.859
				L656.222,457.108z"/>
			<path d="M660.594,457.048v0.64h-2.469v-0.64H660.594z"/>
			<path d="M661.656,453.42c0.419-0.08,0.969-0.14,1.668-0.14c0.859,0,1.49,0.2,1.889,0.56c0.371,0.319,0.601,0.81,0.601,1.409
				c0,0.609-0.181,1.09-0.53,1.439c-0.459,0.489-1.209,0.739-2.059,0.739c-0.26,0-0.5-0.01-0.699-0.06v2.698h-0.869V453.42z
				 M662.525,456.658c0.189,0.05,0.439,0.07,0.719,0.07c1.061,0,1.689-0.52,1.689-1.43c0-0.899-0.629-1.329-1.589-1.329
				c-0.38,0-0.67,0.04-0.819,0.07V456.658z"/>
			<path d="M666.964,453.42c0.54-0.08,1.17-0.14,1.859-0.14c1.25,0,2.139,0.279,2.729,0.829c0.609,0.55,0.959,1.34,0.959,2.429
				c0,1.1-0.35,1.999-0.969,2.619c-0.64,0.629-1.68,0.969-2.988,0.969c-0.63,0-1.14-0.02-1.59-0.079V453.42z M667.844,459.387
				c0.22,0.04,0.54,0.04,0.88,0.04c1.859,0.01,2.868-1.039,2.868-2.858c0.011-1.609-0.89-2.599-2.729-2.599
				c-0.45,0-0.79,0.04-1.02,0.09V459.387z"/>
			<path d="M677.113,456.908h-2.609v2.429h2.919v0.729h-3.798v-6.736h3.648v0.729h-2.77v2.129h2.609V456.908z"/>
			<path d="M680.154,454.39h-0.02l-1.13,0.609l-0.17-0.67l1.419-0.759h0.75v6.496h-0.85V454.39z"/>
		</g>
	</g>
	<g>
		<g>
			<g>
				<path fill="none" stroke="#000000" d="M596.161,505.993c12.959-23.056,30.557-35.429,48.811-36.81
					c18.715-1.42,38.125,8.721,53.928,30.755"/>
				<polygon points="694.252,499.814 698.179,498.935 700.272,495.498 702.377,504.789 				"/>
			</g>
		</g>
		<g>
			
				<radialGradient id="path16102_5_" cx="526.0845" cy="-392.6401" r="16.186" gradientTransform="matrix(1.0057 0 0 0.5335 57.5157 722.8474)" gradientUnits="userSpaceOnUse">
				<stop  offset="0" style="stop-color:#A2FF5F"/>
				<stop  offset="0.4082" style="stop-color:#A0FF5F"/>
				<stop  offset="0.5552" style="stop-color:#99FD5F"/>
				<stop  offset="0.66" style="stop-color:#8EFB5E"/>
				<stop  offset="0.7448" style="stop-color:#7DF85E"/>
				<stop  offset="0.8174" style="stop-color:#67F35D"/>
				<stop  offset="0.8817" style="stop-color:#4BEE5C"/>
				<stop  offset="0.9398" style="stop-color:#2BE85B"/>
				<stop  offset="0.9915" style="stop-color:#07E05A"/>
				<stop  offset="1" style="stop-color:#00DF5A"/>
			</radialGradient>
			<path id="path16102_2_" fill="url(#path16102_5_)" stroke="#000000" d="M602.579,513.373c0,4.855-7.156,8.792-15.98,8.792
				s-15.979-3.935-15.979-8.792c0-4.856,7.154-8.79,15.979-8.79S602.579,508.518,602.579,513.373z"/>
			<g enable-background="new    ">
				<path d="M578.796,516.139c-0.229,0.11-0.739,0.28-1.389,0.28c-1.459,0-2.408-0.99-2.408-2.479c0-1.488,1.02-2.578,2.598-2.578
					c0.52,0,0.98,0.13,1.22,0.26l-0.2,0.67c-0.209-0.11-0.539-0.23-1.02-0.23c-1.109,0-1.709,0.83-1.709,1.84
					c0,1.119,0.72,1.809,1.68,1.809c0.5,0,0.829-0.12,1.079-0.229L578.796,516.139z"/>
				<path d="M580.949,514.189l-0.7,2.119h-0.899l2.289-6.736h1.049l2.299,6.736h-0.93l-0.719-2.119H580.949z M583.157,513.51
					l-0.669-1.938c-0.141-0.439-0.24-0.84-0.34-1.229h-0.03c-0.091,0.39-0.2,0.81-0.33,1.22l-0.659,1.948H583.157z"/>
				<path d="M591.656,513.351c-0.05-0.939-0.109-2.079-0.109-2.909h-0.021c-0.239,0.78-0.51,1.63-0.85,2.559l-1.189,3.269h-0.659
					l-1.1-3.208c-0.32-0.96-0.58-1.819-0.77-2.619h-0.02c-0.021,0.84-0.07,1.959-0.131,2.979l-0.18,2.889h-0.83l0.471-6.736h1.109
					l1.148,3.258c0.28,0.83,0.5,1.569,0.68,2.27h0.021c0.18-0.68,0.42-1.42,0.72-2.27l1.199-3.258h1.109l0.42,6.736h-0.859
					L591.656,513.351z"/>
				<path d="M594.019,509.662c0.42-0.08,0.969-0.14,1.669-0.14c0.859,0,1.489,0.2,1.89,0.56c0.369,0.319,0.6,0.81,0.6,1.409
					c0,0.609-0.181,1.09-0.53,1.439c-0.46,0.489-1.21,0.739-2.06,0.739c-0.26,0-0.499-0.01-0.699-0.06v2.698h-0.869V509.662z
					 M594.888,512.9c0.189,0.05,0.439,0.07,0.72,0.07c1.06,0,1.688-0.52,1.688-1.43c0-0.899-0.629-1.329-1.588-1.329
					c-0.381,0-0.67,0.04-0.82,0.07V512.9z"/>
			</g>
		</g>
		<g>
			
				<radialGradient id="path16142_3_" cx="528.3999" cy="-400.9434" r="16.1863" gradientTransform="matrix(1.0057 0 0 0.5335 177.3981 727.277)" gradientUnits="userSpaceOnUse">
				<stop  offset="0" style="stop-color:#A2FF5F"/>
				<stop  offset="0.4082" style="stop-color:#A0FF5F"/>
				<stop  offset="0.5552" style="stop-color:#99FD5F"/>
				<stop  offset="0.66" style="stop-color:#8EFB5E"/>
				<stop  offset="0.7448" style="stop-color:#7DF85E"/>
				<stop  offset="0.8174" style="stop-color:#67F35D"/>
				<stop  offset="0.8817" style="stop-color:#4BEE5C"/>
				<stop  offset="0.9398" style="stop-color:#2BE85B"/>
				<stop  offset="0.9915" style="stop-color:#07E05A"/>
				<stop  offset="1" style="stop-color:#00DF5A"/>
			</radialGradient>
			<path id="path16142_1_" fill="url(#path16142_3_)" stroke="#000000" d="M724.79,513.373c0,4.855-7.156,8.792-15.979,8.792
				c-8.826,0-15.979-3.935-15.979-8.792c0-4.856,7.152-8.791,15.979-8.791C717.633,504.583,724.79,508.517,724.79,513.373z"/>
			<g enable-background="new    ">
				<path d="M700.92,514.189l-0.7,2.119h-0.898l2.288-6.736h1.05l2.299,6.736h-0.93l-0.72-2.119H700.92z M703.128,513.51
					l-0.669-1.938c-0.14-0.439-0.239-0.84-0.34-1.229h-0.03c-0.09,0.39-0.199,0.81-0.33,1.22l-0.659,1.948H703.128z"/>
				<path d="M711.628,513.351c-0.051-0.939-0.11-2.079-0.11-2.909h-0.021c-0.239,0.78-0.51,1.63-0.85,2.559l-1.189,3.269h-0.659
					l-1.099-3.208c-0.32-0.96-0.58-1.819-0.77-2.619h-0.021c-0.021,0.84-0.07,1.959-0.13,2.979l-0.18,2.889h-0.83l0.47-6.736h1.109
					l1.149,3.258c0.279,0.83,0.5,1.569,0.68,2.27h0.02c0.18-0.68,0.42-1.42,0.721-2.27l1.199-3.258h1.109l0.42,6.736h-0.86
					L711.628,513.351z"/>
				<path d="M713.992,509.662c0.419-0.08,0.969-0.14,1.668-0.14c0.859,0,1.49,0.2,1.889,0.56c0.371,0.319,0.601,0.81,0.601,1.409
					c0,0.609-0.181,1.09-0.53,1.439c-0.459,0.489-1.209,0.739-2.059,0.739c-0.26,0-0.5-0.01-0.699-0.06v2.698h-0.869V509.662z
					 M714.861,512.9c0.189,0.05,0.439,0.07,0.719,0.07c1.061,0,1.689-0.52,1.689-1.43c0-0.899-0.629-1.329-1.589-1.329
					c-0.38,0-0.67,0.04-0.819,0.07V512.9z"/>
			</g>
		</g>
	</g>
	<g>
		<g>
			
				<radialGradient id="path1336_3_" cx="153.7978" cy="-3.5674" r="15.5573" gradientTransform="matrix(0.9108 0 0 0.8738 127.319 420.5229)" gradientUnits="userSpaceOnUse">
				<stop  offset="0" style="stop-color:#FFDD9F"/>
				<stop  offset="0.2912" style="stop-color:#FFDB9D"/>
				<stop  offset="0.4343" style="stop-color:#FFD398"/>
				<stop  offset="0.545" style="stop-color:#FFC68E"/>
				<stop  offset="0.6392" style="stop-color:#FFB381"/>
				<stop  offset="0.7229" style="stop-color:#FF9B70"/>
				<stop  offset="0.799" style="stop-color:#FF7D5A"/>
				<stop  offset="0.8695" style="stop-color:#FF5A41"/>
				<stop  offset="0.9348" style="stop-color:#FF3123"/>
				<stop  offset="0.9951" style="stop-color:#FF0403"/>
				<stop  offset="1" style="stop-color:#FF0000"/>
			</radialGradient>
			<path id="path1336_1_" fill="url(#path1336_3_)" stroke="#000000" d="M278.514,411.951l6.409,5.398l-5.674,4.938l-0.604,0.329
				c-2.826,2.48-7.613,4.11-13.045,4.11c-8.686,0-15.729-4.174-15.729-9.321c0-5.149,7.042-9.322,15.729-9.322
				c4.994,0,9.443,1.379,12.324,3.529L278.514,411.951z"/>
			<g enable-background="new    ">
				<path d="M259.998,413.929c0.419-0.08,0.969-0.14,1.669-0.14c0.859,0,1.489,0.2,1.889,0.56c0.37,0.319,0.6,0.81,0.6,1.409
					c0,0.609-0.18,1.09-0.53,1.439c-0.46,0.489-1.209,0.739-2.059,0.739c-0.26,0-0.5-0.01-0.7-0.06v2.698h-0.869V413.929z
					 M260.867,417.167c0.19,0.05,0.44,0.07,0.72,0.07c1.06,0,1.689-0.52,1.689-1.43c0-0.899-0.629-1.329-1.589-1.329
					c-0.38,0-0.67,0.04-0.82,0.07V417.167z"/>
				<path d="M265.318,413.839h0.869v3.248h0.03c0.18-0.26,0.36-0.5,0.53-0.72l2.059-2.528h1.08l-2.439,2.858l2.629,3.878h-1.03
					l-2.208-3.309l-0.65,0.74v2.568h-0.869V413.839z"/>
				<path d="M271.927,418.456l-0.7,2.119h-0.899l2.289-6.736h1.049l2.299,6.736h-0.93l-0.719-2.119H271.927z M274.136,417.776
					l-0.669-1.938c-0.14-0.439-0.24-0.84-0.34-1.229h-0.03c-0.09,0.39-0.2,0.81-0.33,1.22l-0.66,1.948H274.136z"/>
			</g>
		</g>
		<g>
			<g>
				<path fill="none" stroke="#000000" stroke-dasharray="3,3" d="M294.21,457.052c-28.207,0-28.207-29.289-28.207-29.289"/>
			</g>
		</g>
	</g>
	<g>
		<g>
			<g id="g4067_1_" transform="matrix(0.778790,0.000000,0.000000,0.969011,-32.50401,-249.2769)">
				<g id="g4069_1_" transform="matrix(1.228309,0.000000,0.000000,1.000000,87.81894,114.4454)">
					
						<radialGradient id="path4071_3_" cx="157.3076" cy="703.224" r="16.186" gradientTransform="matrix(1.9238 0 0 0.6358 234.7998 119.6099)" gradientUnits="userSpaceOnUse">
						<stop  offset="0" style="stop-color:#A2FF5F"/>
						<stop  offset="0.4082" style="stop-color:#A0FF5F"/>
						<stop  offset="0.5552" style="stop-color:#99FD5F"/>
						<stop  offset="0.66" style="stop-color:#8EFB5E"/>
						<stop  offset="0.7448" style="stop-color:#7DF85E"/>
						<stop  offset="0.8174" style="stop-color:#67F35D"/>
						<stop  offset="0.8817" style="stop-color:#4BEE5C"/>
						<stop  offset="0.9398" style="stop-color:#2BE85B"/>
						<stop  offset="0.9915" style="stop-color:#07E05A"/>
						<stop  offset="1" style="stop-color:#00DF5A"/>
					</radialGradient>
					<path id="path4071_1_" fill="url(#path4071_3_)" stroke="#000000" d="M569.383,566.719c0,5.97-14.311,10.812-31.955,10.812
						c-17.647,0-31.953-4.839-31.953-10.812c0-5.973,14.306-10.811,31.953-10.811C555.072,555.91,569.383,560.747,569.383,566.719z"
						/>
				</g>
			</g>
			<g enable-background="new    ">
				<path d="M536.777,413.505c-0.311,0.16-0.959,0.32-1.779,0.32c-1.898,0-3.318-1.2-3.318-3.419c0-2.118,1.43-3.538,3.519-3.538
					c0.829,0,1.369,0.181,1.599,0.3l-0.219,0.71c-0.32-0.16-0.79-0.279-1.35-0.279c-1.58,0-2.629,1.009-2.629,2.778
					c0,1.659,0.949,2.708,2.578,2.708c0.54,0,1.08-0.109,1.43-0.279L536.777,413.505z"/>
				<path d="M541.187,412.556c0,0.42,0.021,0.829,0.07,1.159h-0.789l-0.08-0.609h-0.03c-0.26,0.38-0.79,0.72-1.479,0.72
					c-0.979,0-1.479-0.69-1.479-1.39c0-1.169,1.039-1.809,2.908-1.799v-0.101c0-0.399-0.109-1.129-1.1-1.119
					c-0.459,0-0.93,0.13-1.27,0.36l-0.199-0.59c0.399-0.25,0.989-0.42,1.599-0.42c1.489,0,1.849,1.01,1.849,1.979V412.556z
					 M540.328,411.246c-0.959-0.02-2.049,0.15-2.049,1.09c0,0.579,0.38,0.839,0.82,0.839c0.639,0,1.049-0.399,1.189-0.81
					c0.029-0.09,0.039-0.189,0.039-0.279V411.246z"/>
				<path d="M545.039,413.715v-1.769h-3.02v-0.57l2.898-4.157h0.95v4.048h0.909v0.68h-0.909v1.769H545.039z M545.039,411.267v-2.18
					c0-0.339,0.01-0.679,0.029-1.019h-0.029c-0.201,0.379-0.36,0.659-0.541,0.969l-1.588,2.209v0.021H545.039z"/>
				<path d="M549.768,410.696v0.64h-2.469v-0.64H549.768z"/>
				<path d="M555.527,413.505c-0.311,0.16-0.96,0.32-1.779,0.32c-1.899,0-3.318-1.2-3.318-3.419c0-2.118,1.43-3.538,3.518-3.538
					c0.83,0,1.369,0.181,1.6,0.3l-0.22,0.71c-0.319-0.16-0.79-0.279-1.35-0.279c-1.579,0-2.628,1.009-2.628,2.778
					c0,1.659,0.949,2.708,2.578,2.708c0.539,0,1.08-0.109,1.43-0.279L555.527,413.505z"/>
				<path d="M559.937,412.556c0,0.42,0.02,0.829,0.07,1.159h-0.79l-0.079-0.609h-0.031c-0.26,0.38-0.789,0.72-1.479,0.72
					c-0.979,0-1.479-0.69-1.479-1.39c0-1.169,1.04-1.809,2.909-1.799v-0.101c0-0.399-0.11-1.129-1.1-1.119
					c-0.46,0-0.93,0.13-1.27,0.36l-0.2-0.59c0.399-0.25,0.989-0.42,1.599-0.42c1.49,0,1.85,1.01,1.85,1.979V412.556z
					 M559.078,411.246c-0.959-0.02-2.049,0.15-2.049,1.09c0,0.579,0.379,0.839,0.819,0.839c0.64,0,1.05-0.399,1.189-0.81
					c0.03-0.09,0.04-0.189,0.04-0.279V411.246z"/>
				<path d="M567.056,410.757c-0.051-0.939-0.11-2.079-0.11-2.909h-0.021c-0.239,0.78-0.51,1.63-0.85,2.559l-1.189,3.269h-0.659
					l-1.099-3.208c-0.32-0.96-0.58-1.819-0.77-2.619h-0.021c-0.021,0.84-0.07,1.959-0.13,2.979l-0.18,2.889h-0.83l0.47-6.736h1.109
					l1.149,3.258c0.279,0.83,0.5,1.569,0.68,2.27h0.02c0.18-0.68,0.42-1.42,0.721-2.27l1.199-3.258h1.109l0.42,6.736h-0.86
					L567.056,410.757z"/>
			</g>
		</g>
		<g>
			<g>
				<path fill="none" stroke="#000000" d="M577.96,456.801c-28.207,0-28.207-29.289-28.207-29.289"/>
				<polygon points="553.458,430.32 549.753,428.747 546.05,430.32 549.753,421.542 				"/>
			</g>
		</g>
	</g>
</g>
<g>
	<g id="g12703_1_" transform="matrix(0.778790,0.000000,0.000000,0.969011,-32.50401,-249.2769)">
		<g id="g12705_1_" transform="matrix(1.228309,0.000000,0.000000,1.000000,87.81894,114.4454)">
			
				<radialGradient id="path12707_3_" cx="299.0876" cy="445.555" r="16.1855" gradientTransform="matrix(1.9238 0 0 0.6358 -2.3941 119.6099)" gradientUnits="userSpaceOnUse">
				<stop  offset="0" style="stop-color:#A2FF5F"/>
				<stop  offset="0.4082" style="stop-color:#A0FF5F"/>
				<stop  offset="0.5552" style="stop-color:#99FD5F"/>
				<stop  offset="0.66" style="stop-color:#8EFB5E"/>
				<stop  offset="0.7448" style="stop-color:#7DF85E"/>
				<stop  offset="0.8174" style="stop-color:#67F35D"/>
				<stop  offset="0.8817" style="stop-color:#4BEE5C"/>
				<stop  offset="0.9398" style="stop-color:#2BE85B"/>
				<stop  offset="0.9915" style="stop-color:#07E05A"/>
				<stop  offset="1" style="stop-color:#00DF5A"/>
			</radialGradient>
			<path id="path12707_1_" fill="url(#path12707_3_)" stroke="#000000" d="M604.945,402.893c0,5.97-14.311,10.812-31.954,10.812
				c-17.647,0-31.952-4.839-31.952-10.812c0-5.973,14.305-10.811,31.952-10.811C590.634,392.083,604.945,396.921,604.945,402.893z"
				/>
		</g>
	</g>
	<g enable-background="new    ">
		<path d="M578.472,254.881c-0.391,0.149-1.17,0.37-2.079,0.37c-1.02,0-1.858-0.26-2.519-0.89c-0.58-0.56-0.939-1.459-0.939-2.509
			c0-2.009,1.389-3.479,3.648-3.479c0.779,0,1.398,0.17,1.688,0.311l-0.22,0.709c-0.359-0.17-0.81-0.289-1.489-0.289
			c-1.64,0-2.708,1.019-2.708,2.708c0,1.709,1.02,2.719,2.598,2.719c0.57,0,0.96-0.08,1.16-0.18v-2.01h-1.359v-0.699h2.219V254.881z
			"/>
		<path d="M581.804,252.162v0.64h-2.469v-0.64H581.804z"/>
		<path d="M582.714,254.291c0.27,0.16,0.73,0.34,1.17,0.34c0.629,0,0.93-0.31,0.93-0.72c0-0.42-0.25-0.649-0.891-0.89
			c-0.879-0.319-1.289-0.789-1.289-1.369c0-0.779,0.641-1.419,1.67-1.419c0.489,0,0.919,0.13,1.179,0.3l-0.21,0.63
			c-0.189-0.11-0.539-0.28-0.989-0.28c-0.52,0-0.8,0.3-0.8,0.66c0,0.409,0.28,0.59,0.91,0.829c0.829,0.31,1.27,0.729,1.27,1.459
			c0,0.86-0.67,1.46-1.799,1.46c-0.53,0-1.02-0.141-1.359-0.34L582.714,254.291z"/>
		<path d="M588.833,252.162v0.64h-2.469v-0.64H588.833z"/>
		<path d="M593.71,250.708h0.811l-0.635,2.222c-0.043,0.14-0.109,0.359-0.201,0.659c0.124,0.501,0.217,0.801,0.279,0.898
			c0.117,0.179,0.265,0.269,0.443,0.269c0.131,0,0.251-0.054,0.361-0.161c0.111-0.107,0.185-0.275,0.221-0.503h0.195
			c-0.046,0.469-0.145,0.793-0.296,0.972s-0.326,0.269-0.524,0.269c-0.186,0-0.354-0.078-0.506-0.234s-0.287-0.491-0.408-1.006
			c-0.143,0.283-0.283,0.498-0.42,0.645c-0.191,0.202-0.4,0.353-0.625,0.452c-0.225,0.099-0.479,0.148-0.766,0.148
			c-0.72,0-1.249-0.239-1.588-0.718c-0.338-0.479-0.508-1.023-0.508-1.636c0-0.716,0.199-1.297,0.596-1.74
			c0.397-0.445,0.863-0.667,1.396-0.667c0.371,0,0.699,0.113,0.982,0.339c0.283,0.227,0.54,0.647,0.771,1.263L593.71,250.708z
			 M593.119,252.725c-0.176-0.671-0.401-1.139-0.678-1.403c-0.277-0.266-0.559-0.398-0.846-0.398c-0.318,0-0.584,0.175-0.795,0.525
			c-0.212,0.35-0.318,0.907-0.318,1.672c0,0.452,0.046,0.809,0.137,1.066c0.092,0.26,0.229,0.459,0.413,0.602
			c0.185,0.141,0.378,0.212,0.583,0.212c0.251,0,0.48-0.115,0.689-0.347C592.587,254.341,592.859,253.698,593.119,252.725z"/>
	</g>
</g>
<g>
</g>
</svg>
