<?xml version="1.0" encoding="utf-8"?>
<!-- Generator: Adobe Illustrator 13.0.0, SVG Export Plug-In . SVG Version: 6.00 Build 14948)  -->
<!DOCTYPE svg PUBLIC "-//W3C//DTD SVG 1.1//EN" "http://www.w3.org/Graphics/SVG/1.1/DTD/svg11.dtd">
<svg version="1.1"
	 id="svg7069" xmlns:rdf="http://www.w3.org/1999/02/22-rdf-syntax-ns#" xmlns:sodipodi="http://inkscape.sourceforge.net/DTD/sodipodi-0.dtd" xmlns:cc="http://web.resource.org/cc/" xmlns:xml="http://www.w3.org/XML/1998/namespace" xmlns:inkscape="http://www.inkscape.org/namespaces/inkscape" xmlns:svg="http://www.w3.org/2000/svg" xmlns:dc="http://purl.org/dc/elements/1.1/" sodipodi:docbase="C:\DOCUME~1\pvil005\Desktop\REPOSI~1\SIGNAL~1" sodipodi:version="0.32" sodipodi:docname="BH823B~1.SVG" inkscape:version="0.40+cvs"
	 xmlns="http://www.w3.org/2000/svg" xmlns:xlink="http://www.w3.org/1999/xlink" x="0px" y="0px" width="435px" height="423.275px"
	 viewBox="206.445 171.138 435 423.275" enable-background="new 206.445 171.138 435 423.275" xml:space="preserve">
<path id="path5889" sodipodi:nodetypes="cc" fill="none" stroke="#000000" stroke-dasharray="3,3" d="M271.532,304.039
	c39.661-6.937,49.844,29.827,49.844,29.827"/>
<sodipodi:namedview  pagecolor="#ffffff" inkscape:cx="418.69048" bordercolor="#666666" borderopacity="1.0" inkscape:zoom="1.4416253" inkscape:cy="647.58631" id="base" inkscape:current-layer="layer1" inkscape:window-x="-3" inkscape:window-width="1268" inkscape:window-height="952" inkscape:pageshadow="2" inkscape:pageopacity="0.0" inkscape:window-y="8" inkscape:document-units="px">
	</sodipodi:namedview>
<g>
	
		<radialGradient id="path31151_3_" cx="273.3311" cy="-39.9536" r="15.5565" gradientTransform="matrix(1.1111 0 0 0.9011 18.8416 233.0469)" gradientUnits="userSpaceOnUse">
		<stop  offset="0" style="stop-color:#FFDD9F"/>
		<stop  offset="0.2912" style="stop-color:#FFDB9D"/>
		<stop  offset="0.4343" style="stop-color:#FFD398"/>
		<stop  offset="0.545" style="stop-color:#FFC68E"/>
		<stop  offset="0.6392" style="stop-color:#FFB381"/>
		<stop  offset="0.7229" style="stop-color:#FF9B70"/>
		<stop  offset="0.799" style="stop-color:#FF7D5A"/>
		<stop  offset="0.8695" style="stop-color:#FF5A41"/>
		<stop  offset="0.9348" style="stop-color:#FF3123"/>
		<stop  offset="0.9951" style="stop-color:#FF0403"/>
		<stop  offset="1" style="stop-color:#FF0000"/>
	</radialGradient>
	<path id="path31151" fill="url(#path31151_3_)" stroke="#000000" d="M336.099,191.419l7.818,5.567l-6.922,5.092l-0.734,0.339
		c-3.45,2.558-9.288,4.239-15.914,4.239c-10.595,0-19.187-4.305-19.187-9.612c0-5.311,8.591-9.613,19.187-9.613
		c6.092,0,11.519,1.422,15.034,3.64L336.099,191.419z"/>
	<g enable-background="new    ">
		<path d="M313.602,199.77c-0.31,0.16-0.959,0.32-1.779,0.32c-1.899,0-3.318-1.2-3.318-3.419c0-2.118,1.429-3.538,3.518-3.538
			c0.83,0,1.369,0.181,1.599,0.3l-0.22,0.71c-0.32-0.16-0.79-0.279-1.35-0.279c-1.579,0-2.628,1.009-2.628,2.778
			c0,1.659,0.95,2.708,2.579,2.708c0.54,0,1.08-0.109,1.429-0.279L313.602,199.77z"/>
		<path d="M318.012,198.82c0,0.42,0.02,0.829,0.07,1.159h-0.79l-0.08-0.609h-0.03c-0.26,0.38-0.79,0.72-1.479,0.72
			c-0.979,0-1.479-0.69-1.479-1.39c0-1.169,1.04-1.809,2.909-1.799v-0.101c0-0.399-0.11-1.129-1.1-1.119
			c-0.459,0-0.929,0.13-1.269,0.36l-0.2-0.59c0.4-0.25,0.99-0.42,1.599-0.42c1.489,0,1.849,1.01,1.849,1.979V198.82z
			 M317.153,197.511c-0.959-0.02-2.049,0.15-2.049,1.09c0,0.579,0.379,0.839,0.819,0.839c0.64,0,1.049-0.399,1.189-0.81
			c0.03-0.09,0.04-0.189,0.04-0.279V197.511z"/>
		<path d="M325.131,197.021c-0.05-0.939-0.11-2.079-0.11-2.909h-0.02c-0.24,0.78-0.51,1.63-0.85,2.559l-1.189,3.269h-0.66
			l-1.099-3.208c-0.32-0.96-0.58-1.819-0.77-2.619h-0.02c-0.02,0.84-0.07,1.959-0.13,2.979l-0.18,2.889h-0.83l0.47-6.736h1.109
			l1.149,3.258c0.28,0.83,0.5,1.569,0.68,2.27h0.02c0.18-0.68,0.42-1.42,0.72-2.27l1.199-3.258h1.109l0.42,6.736h-0.86
			L325.131,197.021z"/>
		<path d="M327.494,193.243h0.869v3.248h0.03c0.18-0.26,0.36-0.5,0.53-0.72l2.059-2.528h1.08l-2.439,2.858l2.629,3.878h-1.03
			l-2.208-3.309l-0.65,0.74v2.568h-0.869V193.243z"/>
		<path d="M333.783,193.243v6.736h-0.879v-6.736H333.783z"/>
		<path d="M336.173,193.243v6.736h-0.879v-6.736H336.173z"/>
	</g>
</g>
<g id="g7153" transform="translate(100.7769,218.8409)">
	
		<radialGradient id="path7155_1_" cx="174.9663" cy="-258.7481" r="15.557" gradientTransform="matrix(1.2024 0 0 0.9885 9.3253 569.533)" gradientUnits="userSpaceOnUse">
		<stop  offset="0" style="stop-color:#FFDD9F"/>
		<stop  offset="0.2912" style="stop-color:#FFDB9D"/>
		<stop  offset="0.4343" style="stop-color:#FFD398"/>
		<stop  offset="0.545" style="stop-color:#FFC68E"/>
		<stop  offset="0.6392" style="stop-color:#FFB381"/>
		<stop  offset="0.7229" style="stop-color:#FF9B70"/>
		<stop  offset="0.799" style="stop-color:#FF7D5A"/>
		<stop  offset="0.8695" style="stop-color:#FF5A41"/>
		<stop  offset="0.9348" style="stop-color:#FF3123"/>
		<stop  offset="0.9951" style="stop-color:#FF0403"/>
		<stop  offset="1" style="stop-color:#FF0000"/>
	</radialGradient>
	<path id="path7155" fill="url(#path7155_1_)" stroke="#000000" d="M234.38,307.59l8.461,6.107l-7.491,5.586l-0.796,0.373
		c-3.732,2.805-10.051,4.649-17.222,4.649c-11.466,0-20.764-4.722-20.764-10.544c0-5.826,9.297-10.546,20.764-10.546
		c6.593,0,12.466,1.56,16.271,3.992L234.38,307.59z"/>
	<g enable-background="new    ">
		<path d="M206.811,316.904c-0.31,0.16-0.959,0.32-1.779,0.32c-1.899,0-3.318-1.2-3.318-3.419c0-2.118,1.429-3.538,3.518-3.538
			c0.83,0,1.369,0.181,1.599,0.3l-0.22,0.71c-0.32-0.16-0.79-0.279-1.35-0.279c-1.579,0-2.628,1.009-2.628,2.778
			c0,1.659,0.95,2.708,2.579,2.708c0.54,0,1.08-0.109,1.429-0.279L206.811,316.904z"/>
		<path d="M211.222,315.955c0,0.42,0.02,0.829,0.07,1.159h-0.79l-0.08-0.609h-0.03c-0.26,0.38-0.79,0.72-1.479,0.72
			c-0.979,0-1.479-0.69-1.479-1.39c0-1.169,1.04-1.809,2.909-1.799v-0.101c0-0.399-0.11-1.129-1.1-1.119
			c-0.459,0-0.929,0.13-1.269,0.36l-0.2-0.59c0.4-0.25,0.99-0.42,1.599-0.42c1.489,0,1.849,1.01,1.849,1.979V315.955z
			 M210.362,314.645c-0.959-0.02-2.049,0.15-2.049,1.09c0,0.579,0.379,0.839,0.819,0.839c0.64,0,1.049-0.399,1.189-0.81
			c0.03-0.09,0.04-0.189,0.04-0.279V314.645z"/>
		<path d="M218.34,314.156c-0.05-0.939-0.11-2.079-0.11-2.909h-0.02c-0.24,0.78-0.51,1.63-0.85,2.559l-1.189,3.269h-0.66
			l-1.099-3.208c-0.32-0.96-0.58-1.819-0.77-2.619h-0.02c-0.02,0.84-0.07,1.959-0.13,2.979l-0.18,2.889h-0.83l0.47-6.736h1.109
			l1.149,3.258c0.28,0.83,0.5,1.569,0.68,2.27h0.02c0.18-0.68,0.42-1.42,0.72-2.27l1.199-3.258h1.109l0.42,6.736h-0.86
			L218.34,314.156z"/>
		<path d="M220.704,310.378h0.869v3.248h0.03c0.18-0.26,0.36-0.5,0.53-0.72l2.059-2.528h1.08l-2.439,2.858l2.629,3.878h-1.03
			l-2.208-3.309l-0.65,0.74v2.568h-0.869V310.378z"/>
		<path d="M226.993,310.378v6.736h-0.879v-6.736H226.993z"/>
		<path d="M229.383,310.378v6.736h-0.879v-6.736H229.383z"/>
		<path d="M233.432,310.618l-0.949,1.239v0.02l1.509-0.2v0.68l-1.509-0.18v0.021l0.959,1.209l-0.63,0.35l-0.609-1.399h-0.02
			l-0.64,1.409l-0.57-0.359l0.949-1.22v-0.02l-1.479,0.189v-0.68l1.469,0.19v-0.021l-0.939-1.229l0.61-0.34l0.62,1.379h0.02
			l0.609-1.39L233.432,310.618z"/>
		<path d="M237.582,310.618l-0.949,1.239v0.02l1.509-0.2v0.68l-1.509-0.18v0.021l0.959,1.209l-0.63,0.35l-0.609-1.399h-0.02
			l-0.64,1.409l-0.57-0.359l0.949-1.22v-0.02l-1.479,0.189v-0.68l1.469,0.19v-0.021l-0.939-1.229l0.609-0.34l0.62,1.379h0.02
			l0.61-1.39L237.582,310.618z"/>
	</g>
</g>
<g>
	
		<radialGradient id="path7165_2_" cx="278.6245" cy="-40.4395" r="15.5567" gradientTransform="matrix(1.2893 0 0 0.9885 33.4168 357.1259)" gradientUnits="userSpaceOnUse">
		<stop  offset="0" style="stop-color:#FFDD9F"/>
		<stop  offset="0.2912" style="stop-color:#FFDB9D"/>
		<stop  offset="0.4343" style="stop-color:#FFD398"/>
		<stop  offset="0.545" style="stop-color:#FFC68E"/>
		<stop  offset="0.6392" style="stop-color:#FFB381"/>
		<stop  offset="0.7229" style="stop-color:#FF9B70"/>
		<stop  offset="0.799" style="stop-color:#FF7D5A"/>
		<stop  offset="0.8695" style="stop-color:#FF5A41"/>
		<stop  offset="0.9348" style="stop-color:#FF3123"/>
		<stop  offset="0.9951" style="stop-color:#FF0403"/>
		<stop  offset="1" style="stop-color:#FF0000"/>
	</radialGradient>
	<path id="path7165" fill="url(#path7165_2_)" stroke="#000000" d="M408.383,310.979l9.073,6.107l-8.032,5.586l-0.854,0.373
		c-4.002,2.807-10.777,4.65-18.466,4.65c-12.294,0-22.264-4.723-22.264-10.545c0-5.824,9.968-10.545,22.264-10.545
		c7.069,0,13.367,1.559,17.446,3.992L408.383,310.979z"/>
	<g enable-background="new    ">
		<path d="M379.765,319.877c-0.31,0.16-0.959,0.32-1.779,0.32c-1.899,0-3.318-1.2-3.318-3.419c0-2.118,1.429-3.538,3.518-3.538
			c0.83,0,1.369,0.181,1.599,0.3l-0.22,0.71c-0.32-0.16-0.79-0.279-1.35-0.279c-1.579,0-2.628,1.009-2.628,2.778
			c0,1.659,0.95,2.708,2.579,2.708c0.54,0,1.08-0.109,1.429-0.279L379.765,319.877z"/>
		<path d="M384.175,318.928c0,0.42,0.02,0.829,0.07,1.159h-0.79l-0.08-0.609h-0.03c-0.26,0.38-0.79,0.72-1.479,0.72
			c-0.979,0-1.479-0.69-1.479-1.39c0-1.169,1.04-1.809,2.909-1.799v-0.101c0-0.399-0.11-1.129-1.1-1.119
			c-0.459,0-0.929,0.13-1.269,0.36l-0.2-0.59c0.4-0.25,0.99-0.42,1.599-0.42c1.489,0,1.849,1.01,1.849,1.979V318.928z
			 M383.316,317.618c-0.959-0.02-2.049,0.15-2.049,1.09c0,0.579,0.379,0.839,0.819,0.839c0.64,0,1.049-0.399,1.189-0.81
			c0.03-0.09,0.04-0.189,0.04-0.279V317.618z"/>
		<path d="M391.294,317.129c-0.05-0.939-0.11-2.079-0.11-2.909h-0.02c-0.24,0.78-0.51,1.63-0.85,2.559l-1.189,3.269h-0.66
			l-1.099-3.208c-0.32-0.96-0.58-1.819-0.77-2.619h-0.02c-0.02,0.84-0.07,1.959-0.13,2.979l-0.18,2.889h-0.83l0.47-6.736h1.109
			l1.149,3.258c0.28,0.83,0.5,1.569,0.68,2.27h0.02c0.18-0.68,0.42-1.42,0.72-2.27l1.199-3.258h1.109l0.42,6.736h-0.86
			L391.294,317.129z"/>
		<path d="M393.657,313.351h0.869v3.248h0.03c0.18-0.26,0.36-0.5,0.53-0.72l2.059-2.528h1.08l-2.439,2.858l2.629,3.878h-1.03
			l-2.208-3.309l-0.65,0.74v2.568h-0.869V313.351z"/>
		<path d="M399.946,313.351v6.736h-0.879v-6.736H399.946z"/>
		<path d="M402.336,313.351v6.736h-0.879v-6.736H402.336z"/>
		<path d="M405.866,317.068v0.64h-2.469v-0.64H405.866z"/>
		<path d="M410.305,318.928c0,0.42,0.02,0.829,0.07,1.159h-0.79l-0.08-0.609h-0.03c-0.26,0.38-0.79,0.72-1.479,0.72
			c-0.979,0-1.479-0.69-1.479-1.39c0-1.169,1.04-1.809,2.909-1.799v-0.101c0-0.399-0.11-1.129-1.1-1.119
			c-0.459,0-0.929,0.13-1.269,0.36l-0.2-0.59c0.4-0.25,0.99-0.42,1.599-0.42c1.489,0,1.849,1.01,1.849,1.979V318.928z
			 M409.446,317.618c-0.959-0.02-2.049,0.15-2.049,1.09c0,0.579,0.379,0.839,0.819,0.839c0.64,0,1.049-0.399,1.189-0.81
			c0.03-0.09,0.04-0.189,0.04-0.279V317.618z"/>
	</g>
</g>
<g>
	
		<radialGradient id="path1434_1_" cx="276.1294" cy="-40.584" r="15.557" gradientTransform="matrix(1.5375 0 0 1.1634 -102.0099 490.5294)" gradientUnits="userSpaceOnUse">
		<stop  offset="0" style="stop-color:#FFDD9F"/>
		<stop  offset="0.2912" style="stop-color:#FFDB9D"/>
		<stop  offset="0.4343" style="stop-color:#FFD398"/>
		<stop  offset="0.545" style="stop-color:#FFC68E"/>
		<stop  offset="0.6392" style="stop-color:#FFB381"/>
		<stop  offset="0.7229" style="stop-color:#FF9B70"/>
		<stop  offset="0.799" style="stop-color:#FF7D5A"/>
		<stop  offset="0.8695" style="stop-color:#FF5A41"/>
		<stop  offset="0.9348" style="stop-color:#FF3123"/>
		<stop  offset="0.9951" style="stop-color:#FF0403"/>
		<stop  offset="1" style="stop-color:#FF0000"/>
	</radialGradient>
	<path id="path1434" fill="url(#path1434_1_)" stroke="#000000" d="M341.304,436.052l10.819,7.188l-9.578,6.574l-1.019,0.438
		c-4.772,3.302-12.852,5.473-22.021,5.473c-14.661,0-26.551-5.558-26.551-12.409c0-6.856,11.888-12.411,26.551-12.411
		c8.431,0,15.941,1.836,20.806,4.699L341.304,436.052z"/>
	<g enable-background="new    ">
		<path d="M302.533,445.478c-0.31,0.16-0.959,0.32-1.779,0.32c-1.899,0-3.318-1.2-3.318-3.419c0-2.118,1.429-3.538,3.518-3.538
			c0.83,0,1.369,0.181,1.599,0.3l-0.22,0.71c-0.32-0.16-0.79-0.279-1.35-0.279c-1.579,0-2.628,1.009-2.628,2.778
			c0,1.659,0.95,2.708,2.579,2.708c0.54,0,1.08-0.109,1.429-0.279L302.533,445.478z"/>
		<path d="M306.944,444.528c0,0.42,0.02,0.829,0.07,1.159h-0.79l-0.08-0.609h-0.03c-0.26,0.38-0.79,0.72-1.479,0.72
			c-0.979,0-1.479-0.69-1.479-1.39c0-1.169,1.04-1.809,2.909-1.799v-0.101c0-0.399-0.11-1.129-1.1-1.119
			c-0.459,0-0.929,0.13-1.269,0.36l-0.2-0.59c0.4-0.25,0.99-0.42,1.599-0.42c1.489,0,1.849,1.01,1.849,1.979V444.528z
			 M306.084,443.219c-0.959-0.02-2.049,0.15-2.049,1.09c0,0.579,0.379,0.839,0.819,0.839c0.64,0,1.049-0.399,1.189-0.81
			c0.03-0.09,0.04-0.189,0.04-0.279V443.219z"/>
		<path d="M314.063,442.729c-0.05-0.939-0.11-2.079-0.11-2.909h-0.02c-0.24,0.78-0.51,1.63-0.85,2.559l-1.189,3.269h-0.66
			l-1.099-3.208c-0.32-0.96-0.58-1.819-0.77-2.619h-0.02c-0.02,0.84-0.07,1.959-0.13,2.979l-0.18,2.889h-0.83l0.47-6.736h1.109
			l1.149,3.258c0.28,0.83,0.5,1.569,0.68,2.27h0.02c0.18-0.68,0.42-1.42,0.72-2.27l1.199-3.258h1.109l0.42,6.736h-0.86
			L314.063,442.729z"/>
		<path d="M316.426,438.951h0.869v3.248h0.03c0.18-0.26,0.36-0.5,0.53-0.72l2.059-2.528h1.08l-2.439,2.858l2.629,3.878h-1.03
			l-2.208-3.309l-0.65,0.74v2.568h-0.869V438.951z"/>
		<path d="M322.715,438.951v6.736h-0.879v-6.736H322.715z"/>
		<path d="M325.105,438.951v6.736h-0.879v-6.736H325.105z"/>
		<path d="M329.154,439.191l-0.949,1.239v0.02l1.509-0.2v0.68l-1.509-0.18v0.021l0.959,1.209l-0.63,0.35l-0.609-1.399h-0.02
			l-0.64,1.409l-0.57-0.359l0.949-1.22v-0.02l-1.479,0.189v-0.68l1.469,0.19v-0.021l-0.939-1.229l0.61-0.34l0.62,1.379h0.02
			l0.609-1.39L329.154,439.191z"/>
		<path d="M330.466,445.688v-0.54l0.689-0.669c1.659-1.579,2.419-2.419,2.419-3.398c0-0.66-0.31-1.27-1.279-1.27
			c-0.59,0-1.08,0.3-1.379,0.55l-0.28-0.619c0.44-0.37,1.089-0.66,1.839-0.66c1.389,0,1.979,0.96,1.979,1.889
			c0,1.2-0.87,2.169-2.239,3.488l-0.51,0.479v0.021h2.909v0.729H330.466z"/>
		<path d="M337.774,439.081c1.259,0,1.899,0.779,1.899,1.6c0,0.549-0.28,1.149-1.079,1.519v0.03c0.81,0.319,1.309,0.899,1.309,1.679
			c0,1.14-0.969,1.89-2.208,1.89c-1.359,0-2.179-0.8-2.179-1.749c0-0.82,0.49-1.409,1.279-1.749v-0.03
			c-0.729-0.34-1.039-0.899-1.039-1.459c0-1.03,0.869-1.729,2.009-1.729H337.774z M337.725,445.158c0.79,0,1.299-0.49,1.299-1.16
			c0-0.779-0.55-1.169-1.429-1.419c-0.76,0.22-1.169,0.729-1.169,1.35c-0.03,0.649,0.47,1.229,1.289,1.229H337.725z
			 M337.745,439.711c-0.729,0-1.129,0.479-1.129,1.039c-0.01,0.649,0.49,1,1.239,1.199c0.56-0.189,0.989-0.589,0.989-1.179
			c0-0.521-0.31-1.06-1.089-1.06H337.745z"/>
		<path d="M344.434,439.801c-0.18-0.01-0.41,0.01-0.66,0.05c-1.389,0.22-2.109,1.229-2.259,2.309h0.02
			c0.31-0.42,0.859-0.76,1.579-0.76c1.149,0,1.959,0.84,1.959,2.1c0,1.199-0.81,2.299-2.169,2.299c-1.379,0-2.289-1.08-2.289-2.769
			c0-1.279,0.45-2.289,1.099-2.938c0.54-0.53,1.26-0.859,2.079-0.96c0.26-0.04,0.479-0.05,0.64-0.05V439.801z M342.924,445.118
			c0.75,0,1.259-0.63,1.259-1.56s-0.53-1.489-1.339-1.489c-0.529,0-1.029,0.32-1.269,0.8c-0.05,0.1-0.09,0.22-0.09,0.38
			c0.01,1.069,0.51,1.869,1.429,1.869H342.924z"/>
	</g>
</g>
<g>
	
		<radialGradient id="path7135_1_" cx="276.1294" cy="-40.8252" r="15.5568" gradientTransform="matrix(1.5375 0 0 1.1634 -102.0099 406.0822)" gradientUnits="userSpaceOnUse">
		<stop  offset="0" style="stop-color:#FFDD9F"/>
		<stop  offset="0.2912" style="stop-color:#FFDB9D"/>
		<stop  offset="0.4343" style="stop-color:#FFD398"/>
		<stop  offset="0.545" style="stop-color:#FFC68E"/>
		<stop  offset="0.6392" style="stop-color:#FFB381"/>
		<stop  offset="0.7229" style="stop-color:#FF9B70"/>
		<stop  offset="0.799" style="stop-color:#FF7D5A"/>
		<stop  offset="0.8695" style="stop-color:#FF5A41"/>
		<stop  offset="0.9348" style="stop-color:#FF3123"/>
		<stop  offset="0.9951" style="stop-color:#FF0403"/>
		<stop  offset="1" style="stop-color:#FF0000"/>
	</radialGradient>
	<path id="path7135" fill="url(#path7135_1_)" stroke="#000000" d="M341.304,351.324l10.819,7.188l-9.578,6.574l-1.019,0.438
		c-4.772,3.301-12.852,5.472-22.021,5.472c-14.661,0-26.551-5.557-26.551-12.409c0-6.855,11.888-12.411,26.551-12.411
		c8.431,0,15.941,1.836,20.806,4.699L341.304,351.324z"/>
	<g enable-background="new    ">
		<path d="M303.832,361.312c-0.31,0.16-0.959,0.32-1.779,0.32c-1.899,0-3.318-1.2-3.318-3.419c0-2.118,1.429-3.538,3.518-3.538
			c0.83,0,1.369,0.181,1.599,0.3l-0.22,0.71c-0.32-0.16-0.79-0.279-1.35-0.279c-1.579,0-2.628,1.009-2.628,2.778
			c0,1.659,0.95,2.708,2.579,2.708c0.54,0,1.08-0.109,1.429-0.279L303.832,361.312z"/>
		<path d="M308.243,360.362c0,0.42,0.02,0.829,0.07,1.159h-0.79l-0.08-0.609h-0.03c-0.26,0.38-0.79,0.72-1.479,0.72
			c-0.979,0-1.479-0.69-1.479-1.39c0-1.169,1.04-1.809,2.909-1.799v-0.101c0-0.399-0.11-1.129-1.1-1.119
			c-0.459,0-0.929,0.13-1.269,0.36l-0.2-0.59c0.4-0.25,0.99-0.42,1.599-0.42c1.489,0,1.849,1.01,1.849,1.979V360.362z
			 M307.383,359.053c-0.959-0.02-2.049,0.15-2.049,1.09c0,0.579,0.379,0.839,0.819,0.839c0.64,0,1.049-0.399,1.189-0.81
			c0.03-0.09,0.04-0.189,0.04-0.279V359.053z"/>
		<path d="M315.361,358.563c-0.05-0.939-0.11-2.079-0.11-2.909h-0.02c-0.24,0.78-0.51,1.63-0.85,2.559l-1.189,3.269h-0.66
			l-1.099-3.208c-0.32-0.96-0.58-1.819-0.77-2.619h-0.02c-0.02,0.84-0.07,1.959-0.13,2.979l-0.18,2.889h-0.83l0.47-6.736h1.109
			l1.149,3.258c0.28,0.83,0.5,1.569,0.68,2.27h0.02c0.18-0.68,0.42-1.42,0.72-2.27l1.199-3.258h1.109l0.42,6.736h-0.86
			L315.361,358.563z"/>
		<path d="M317.725,354.785h0.869v3.248h0.03c0.18-0.26,0.36-0.5,0.53-0.72l2.059-2.528h1.08l-2.439,2.858l2.629,3.878h-1.03
			l-2.208-3.309l-0.65,0.74v2.568h-0.869V354.785z"/>
		<path d="M324.014,354.785v6.736h-0.879v-6.736H324.014z"/>
		<path d="M326.404,354.785v6.736h-0.879v-6.736H326.404z"/>
		<path d="M330.453,355.025l-0.949,1.239v0.02l1.509-0.2v0.68l-1.509-0.18v0.021l0.959,1.209l-0.63,0.35l-0.609-1.399h-0.02
			l-0.64,1.409l-0.57-0.359l0.949-1.22v-0.02l-1.479,0.189v-0.68l1.469,0.19v-0.021l-0.939-1.229l0.61-0.34l0.62,1.379h0.02
			l0.609-1.39L330.453,355.025z"/>
		<path d="M331.765,361.521v-0.54l0.689-0.669c1.659-1.579,2.419-2.419,2.419-3.398c0-0.66-0.31-1.27-1.279-1.27
			c-0.59,0-1.08,0.3-1.379,0.55l-0.28-0.619c0.44-0.37,1.089-0.66,1.839-0.66c1.389,0,1.979,0.96,1.979,1.889
			c0,1.2-0.87,2.169-2.239,3.488l-0.51,0.479v0.021h2.909v0.729H331.765z"/>
		<path d="M339.073,354.915c1.259,0,1.899,0.779,1.899,1.6c0,0.549-0.28,1.149-1.079,1.519v0.03c0.81,0.319,1.309,0.899,1.309,1.679
			c0,1.14-0.969,1.89-2.208,1.89c-1.359,0-2.179-0.8-2.179-1.749c0-0.82,0.49-1.409,1.279-1.749v-0.03
			c-0.729-0.34-1.039-0.899-1.039-1.459c0-1.03,0.869-1.729,2.009-1.729H339.073z M339.023,360.992c0.79,0,1.299-0.49,1.299-1.16
			c0-0.779-0.55-1.169-1.429-1.419c-0.76,0.22-1.169,0.729-1.169,1.35c-0.03,0.649,0.47,1.229,1.289,1.229H339.023z
			 M339.043,355.545c-0.729,0-1.129,0.479-1.129,1.039c-0.01,0.649,0.49,1,1.239,1.199c0.56-0.189,0.989-0.589,0.989-1.179
			c0-0.521-0.31-1.06-1.089-1.06H339.043z"/>
		<path d="M345.732,355.635c-0.18-0.01-0.41,0.01-0.66,0.05c-1.389,0.22-2.109,1.229-2.259,2.309h0.02
			c0.31-0.42,0.859-0.76,1.579-0.76c1.149,0,1.959,0.84,1.959,2.1c0,1.199-0.81,2.299-2.169,2.299c-1.379,0-2.289-1.08-2.289-2.769
			c0-1.279,0.45-2.289,1.099-2.938c0.54-0.53,1.26-0.859,2.079-0.96c0.26-0.04,0.479-0.05,0.64-0.05V355.635z M344.223,360.952
			c0.75,0,1.259-0.63,1.259-1.56s-0.53-1.489-1.339-1.489c-0.529,0-1.029,0.32-1.269,0.8c-0.05,0.1-0.09,0.22-0.09,0.38
			c0.01,1.069,0.51,1.869,1.429,1.869H344.223z"/>
	</g>
</g>
<g>
	
		<radialGradient id="path16609_1_" cx="141.9077" cy="97.6309" r="16.1875" gradientTransform="matrix(0.9424 0 0 0.4795 153.1185 298.7671)" gradientUnits="userSpaceOnUse">
		<stop  offset="0" style="stop-color:#A2FF5F"/>
		<stop  offset="0.4082" style="stop-color:#A0FF5F"/>
		<stop  offset="0.5552" style="stop-color:#99FD5F"/>
		<stop  offset="0.66" style="stop-color:#8EFB5E"/>
		<stop  offset="0.7448" style="stop-color:#7DF85E"/>
		<stop  offset="0.8174" style="stop-color:#67F35D"/>
		<stop  offset="0.8817" style="stop-color:#4BEE5C"/>
		<stop  offset="0.9398" style="stop-color:#2BE85B"/>
		<stop  offset="0.9915" style="stop-color:#07E05A"/>
		<stop  offset="1" style="stop-color:#00DF5A"/>
	</radialGradient>
	<path id="path16609" fill="url(#path16609_1_)" stroke="#000000" d="M301.826,345.581c0,4.363-6.706,7.902-14.974,7.902
		c-8.271,0-14.975-3.537-14.975-7.902s6.704-7.902,14.975-7.902C295.12,337.681,301.826,341.216,301.826,345.581z"/>
	<g enable-background="new    ">
		<path d="M283.014,348.306c-0.31,0.16-0.959,0.32-1.779,0.32c-1.899,0-3.318-1.2-3.318-3.419c0-2.118,1.429-3.538,3.518-3.538
			c0.83,0,1.369,0.181,1.599,0.3l-0.22,0.71c-0.32-0.16-0.79-0.279-1.35-0.279c-1.579,0-2.628,1.009-2.628,2.778
			c0,1.659,0.95,2.708,2.579,2.708c0.54,0,1.08-0.109,1.429-0.279L283.014,348.306z"/>
		<path d="M287.424,347.356c0,0.42,0.02,0.829,0.07,1.159h-0.79l-0.08-0.609h-0.03c-0.26,0.38-0.79,0.72-1.479,0.72
			c-0.979,0-1.479-0.69-1.479-1.39c0-1.169,1.04-1.809,2.909-1.799v-0.101c0-0.399-0.11-1.129-1.1-1.119
			c-0.459,0-0.929,0.13-1.269,0.36l-0.2-0.59c0.4-0.25,0.99-0.42,1.599-0.42c1.489,0,1.849,1.01,1.849,1.979V347.356z
			 M286.565,346.047c-0.959-0.02-2.049,0.15-2.049,1.09c0,0.579,0.379,0.839,0.819,0.839c0.64,0,1.049-0.399,1.189-0.81
			c0.03-0.09,0.04-0.189,0.04-0.279V346.047z"/>
		<path d="M294.543,345.558c-0.05-0.939-0.11-2.079-0.11-2.909h-0.02c-0.24,0.78-0.51,1.63-0.85,2.559l-1.189,3.269h-0.66
			l-1.099-3.208c-0.32-0.96-0.58-1.819-0.77-2.619h-0.02c-0.02,0.84-0.07,1.959-0.13,2.979l-0.18,2.889h-0.83l0.47-6.736h1.109
			l1.149,3.258c0.28,0.83,0.5,1.569,0.68,2.27h0.02c0.18-0.68,0.42-1.42,0.72-2.27l1.199-3.258h1.109l0.42,6.736h-0.86
			L294.543,345.558z"/>
	</g>
</g>
<radialGradient id="path5039_1_" cx="147.2134" cy="97.6309" r="16.1868" gradientTransform="matrix(0.9424 0 0 0.4795 121.5238 176.8516)" gradientUnits="userSpaceOnUse">
	<stop  offset="0" style="stop-color:#A2FF5F"/>
	<stop  offset="0.4082" style="stop-color:#A0FF5F"/>
	<stop  offset="0.5552" style="stop-color:#99FD5F"/>
	<stop  offset="0.66" style="stop-color:#8EFB5E"/>
	<stop  offset="0.7448" style="stop-color:#7DF85E"/>
	<stop  offset="0.8174" style="stop-color:#67F35D"/>
	<stop  offset="0.8817" style="stop-color:#4BEE5C"/>
	<stop  offset="0.9398" style="stop-color:#2BE85B"/>
	<stop  offset="0.9915" style="stop-color:#07E05A"/>
	<stop  offset="1" style="stop-color:#00DF5A"/>
</radialGradient>
<path id="path5039" fill="url(#path5039_1_)" stroke="#000000" d="M275.231,223.666c0,4.364-6.707,7.902-14.975,7.902
	c-8.27,0-14.974-3.537-14.974-7.902s6.704-7.901,14.974-7.901C268.525,215.765,275.231,219.301,275.231,223.666z"/>
<g enable-background="new    ">
	<path d="M256.419,226.391c-0.31,0.16-0.959,0.32-1.779,0.32c-1.899,0-3.318-1.2-3.318-3.419c0-2.118,1.429-3.538,3.518-3.538
		c0.83,0,1.369,0.181,1.599,0.3l-0.22,0.71c-0.32-0.16-0.79-0.279-1.35-0.279c-1.579,0-2.628,1.009-2.628,2.778
		c0,1.659,0.95,2.708,2.579,2.708c0.54,0,1.08-0.109,1.429-0.279L256.419,226.391z"/>
	<path d="M260.83,225.441c0,0.42,0.02,0.829,0.07,1.159h-0.79l-0.08-0.609H260c-0.26,0.38-0.79,0.72-1.479,0.72
		c-0.979,0-1.479-0.69-1.479-1.39c0-1.169,1.04-1.809,2.909-1.799v-0.101c0-0.399-0.11-1.129-1.1-1.119
		c-0.459,0-0.929,0.13-1.269,0.36l-0.2-0.59c0.4-0.25,0.99-0.42,1.599-0.42c1.489,0,1.849,1.01,1.849,1.979V225.441z
		 M259.971,224.132c-0.959-0.02-2.049,0.15-2.049,1.09c0,0.579,0.379,0.839,0.819,0.839c0.64,0,1.049-0.399,1.189-0.81
		c0.03-0.09,0.04-0.189,0.04-0.279V224.132z"/>
	<path d="M267.949,223.643c-0.05-0.939-0.11-2.079-0.11-2.909h-0.02c-0.24,0.78-0.51,1.63-0.85,2.559l-1.189,3.269h-0.66
		l-1.099-3.208c-0.32-0.96-0.58-1.819-0.77-2.619h-0.02c-0.02,0.84-0.07,1.959-0.13,2.979l-0.18,2.889h-0.83l0.47-6.736h1.109
		l1.149,3.258c0.28,0.83,0.5,1.569,0.68,2.27h0.02c0.18-0.68,0.42-1.42,0.72-2.27l1.199-3.258h1.109l0.42,6.736h-0.86
		L267.949,223.643z"/>
</g>
<g id="g5047" transform="translate(68.66906,-44.63502)">
	
		<radialGradient id="path5049_1_" cx="75.3744" cy="142.0012" r="16.1865" gradientTransform="matrix(0.9424 0 0 0.4795 121.4503 395.5739)" gradientUnits="userSpaceOnUse">
		<stop  offset="0" style="stop-color:#A2FF5F"/>
		<stop  offset="0.4082" style="stop-color:#A0FF5F"/>
		<stop  offset="0.5552" style="stop-color:#99FD5F"/>
		<stop  offset="0.66" style="stop-color:#8EFB5E"/>
		<stop  offset="0.7448" style="stop-color:#7DF85E"/>
		<stop  offset="0.8174" style="stop-color:#67F35D"/>
		<stop  offset="0.8817" style="stop-color:#4BEE5C"/>
		<stop  offset="0.9398" style="stop-color:#2BE85B"/>
		<stop  offset="0.9915" style="stop-color:#07E05A"/>
		<stop  offset="1" style="stop-color:#00DF5A"/>
	</radialGradient>
	<path id="path5049" fill="url(#path5049_1_)" stroke="#000000" d="M207.456,463.663c0,4.363-6.707,7.901-14.975,7.901
		c-8.27,0-14.974-3.536-14.974-7.901s6.704-7.901,14.974-7.901C200.75,455.763,207.456,459.298,207.456,463.663z"/>
	<g enable-background="new    ">
		<path d="M188.62,466.642c-0.31,0.16-0.959,0.32-1.779,0.32c-1.899,0-3.318-1.2-3.318-3.419c0-2.118,1.429-3.538,3.518-3.538
			c0.83,0,1.369,0.181,1.599,0.3l-0.22,0.71c-0.32-0.16-0.79-0.279-1.35-0.279c-1.579,0-2.628,1.009-2.628,2.778
			c0,1.659,0.95,2.708,2.579,2.708c0.54,0,1.08-0.109,1.429-0.279L188.62,466.642z"/>
		<path d="M193.031,465.693c0,0.42,0.02,0.829,0.07,1.159h-0.79l-0.08-0.609h-0.03c-0.26,0.38-0.79,0.72-1.479,0.72
			c-0.979,0-1.479-0.69-1.479-1.39c0-1.169,1.04-1.809,2.909-1.799v-0.101c0-0.399-0.11-1.129-1.1-1.119
			c-0.459,0-0.929,0.13-1.269,0.36l-0.2-0.59c0.4-0.25,0.99-0.42,1.599-0.42c1.489,0,1.849,1.01,1.849,1.979V465.693z
			 M192.171,464.383c-0.959-0.02-2.049,0.15-2.049,1.09c0,0.579,0.379,0.839,0.819,0.839c0.64,0,1.049-0.399,1.189-0.81
			c0.03-0.09,0.04-0.189,0.04-0.279V464.383z"/>
		<path d="M200.149,463.894c-0.05-0.939-0.11-2.079-0.11-2.909h-0.02c-0.24,0.78-0.51,1.63-0.85,2.559l-1.189,3.269h-0.66
			l-1.099-3.208c-0.32-0.96-0.58-1.819-0.77-2.619h-0.02c-0.02,0.84-0.07,1.959-0.13,2.979l-0.18,2.889h-0.83l0.47-6.736h1.109
			l1.149,3.258c0.28,0.83,0.5,1.569,0.68,2.27h0.02c0.18-0.68,0.42-1.42,0.72-2.27l1.199-3.258h1.109l0.42,6.736h-0.86
			L200.149,463.894z"/>
	</g>
</g>
<g>
	
		<radialGradient id="path5063_1_" cx="151.7471" cy="91.374" r="16.1868" gradientTransform="matrix(0.9424 0 0 0.4795 94.5467 169.0044)" gradientUnits="userSpaceOnUse">
		<stop  offset="0" style="stop-color:#A2FF5F"/>
		<stop  offset="0.4082" style="stop-color:#A0FF5F"/>
		<stop  offset="0.5552" style="stop-color:#99FD5F"/>
		<stop  offset="0.66" style="stop-color:#8EFB5E"/>
		<stop  offset="0.7448" style="stop-color:#7DF85E"/>
		<stop  offset="0.8174" style="stop-color:#67F35D"/>
		<stop  offset="0.8817" style="stop-color:#4BEE5C"/>
		<stop  offset="0.9398" style="stop-color:#2BE85B"/>
		<stop  offset="0.9915" style="stop-color:#07E05A"/>
		<stop  offset="1" style="stop-color:#00DF5A"/>
	</radialGradient>
	<path id="path5063" fill="url(#path5063_1_)" stroke="#000000" d="M252.527,212.818c0,4.364-6.707,7.902-14.975,7.902
		c-8.27,0-14.974-3.537-14.974-7.902c0-4.366,6.704-7.901,14.974-7.901C245.82,204.917,252.527,208.453,252.527,212.818z"/>
	<g enable-background="new    ">
		<path d="M235.17,215.543c-0.31,0.16-0.959,0.32-1.779,0.32c-1.899,0-3.318-1.2-3.318-3.419c0-2.118,1.429-3.538,3.518-3.538
			c0.83,0,1.369,0.181,1.599,0.3l-0.22,0.71c-0.32-0.16-0.79-0.279-1.35-0.279c-1.579,0-2.628,1.009-2.628,2.778
			c0,1.659,0.95,2.708,2.579,2.708c0.54,0,1.08-0.109,1.429-0.279L235.17,215.543z"/>
		<path d="M239.581,214.594c0,0.42,0.02,0.829,0.07,1.159h-0.79l-0.08-0.609h-0.03c-0.26,0.38-0.79,0.72-1.479,0.72
			c-0.979,0-1.479-0.69-1.479-1.39c0-1.169,1.04-1.809,2.909-1.799v-0.101c0-0.399-0.11-1.129-1.1-1.119
			c-0.459,0-0.929,0.13-1.269,0.36l-0.2-0.59c0.4-0.25,0.99-0.42,1.599-0.42c1.489,0,1.849,1.01,1.849,1.979V214.594z
			 M238.721,213.284c-0.959-0.02-2.049,0.15-2.049,1.09c0,0.579,0.379,0.839,0.819,0.839c0.64,0,1.049-0.399,1.189-0.81
			c0.03-0.09,0.04-0.189,0.04-0.279V213.284z"/>
		<path d="M243.431,215.753v-1.769h-3.019v-0.57l2.898-4.157h0.95v4.048h0.909v0.68h-0.909v1.769H243.431z M243.431,213.305v-2.18
			c0-0.339,0.01-0.679,0.03-1.019h-0.03c-0.2,0.379-0.36,0.659-0.54,0.969l-1.589,2.209v0.021H243.431z"/>
	</g>
</g>
<g id="g5071" transform="translate(45.61590,-54.93536)">
	
		<radialGradient id="path5073_1_" cx="98.4276" cy="152.3026" r="16.187" gradientTransform="matrix(0.9424 0 0 0.4795 99.7249 390.6344)" gradientUnits="userSpaceOnUse">
		<stop  offset="0" style="stop-color:#A2FF5F"/>
		<stop  offset="0.4082" style="stop-color:#A0FF5F"/>
		<stop  offset="0.5552" style="stop-color:#99FD5F"/>
		<stop  offset="0.66" style="stop-color:#8EFB5E"/>
		<stop  offset="0.7448" style="stop-color:#7DF85E"/>
		<stop  offset="0.8174" style="stop-color:#67F35D"/>
		<stop  offset="0.8817" style="stop-color:#4BEE5C"/>
		<stop  offset="0.9398" style="stop-color:#2BE85B"/>
		<stop  offset="0.9915" style="stop-color:#07E05A"/>
		<stop  offset="1" style="stop-color:#00DF5A"/>
	</radialGradient>
	<path id="path5073" fill="url(#path5073_1_)" stroke="#000000" d="M207.456,463.663c0,4.364-6.707,7.902-14.975,7.902
		c-8.27,0-14.974-3.537-14.974-7.902s6.704-7.901,14.974-7.901C200.75,455.763,207.456,459.299,207.456,463.663z"/>
	<g enable-background="new    ">
		<path d="M188.62,466.641c-0.31,0.16-0.959,0.32-1.779,0.32c-1.899,0-3.318-1.2-3.318-3.419c0-2.118,1.429-3.538,3.518-3.538
			c0.83,0,1.369,0.181,1.599,0.3l-0.22,0.71c-0.32-0.16-0.79-0.279-1.35-0.279c-1.579,0-2.628,1.009-2.628,2.778
			c0,1.659,0.95,2.708,2.579,2.708c0.54,0,1.08-0.109,1.429-0.279L188.62,466.641z"/>
		<path d="M193.031,465.692c0,0.42,0.02,0.829,0.07,1.159h-0.79l-0.08-0.609h-0.03c-0.26,0.38-0.79,0.72-1.479,0.72
			c-0.979,0-1.479-0.69-1.479-1.39c0-1.169,1.04-1.809,2.909-1.799v-0.101c0-0.399-0.11-1.129-1.1-1.119
			c-0.459,0-0.929,0.13-1.269,0.36l-0.2-0.59c0.4-0.25,0.99-0.42,1.599-0.42c1.489,0,1.849,1.01,1.849,1.979V465.692z
			 M192.171,464.383c-0.959-0.02-2.049,0.15-2.049,1.09c0,0.579,0.379,0.839,0.819,0.839c0.64,0,1.049-0.399,1.189-0.81
			c0.03-0.09,0.04-0.189,0.04-0.279V464.383z"/>
		<path d="M196.881,466.851v-1.769h-3.019v-0.57l2.898-4.157h0.95v4.048h0.909v0.68h-0.909v1.769H196.881z M196.881,464.403v-2.18
			c0-0.339,0.01-0.679,0.03-1.019h-0.03c-0.2,0.379-0.36,0.659-0.54,0.969l-1.589,2.209v0.021H196.881z"/>
	</g>
</g>
<g id="g5081" transform="translate(252.4060,5.467045)">
	
		<radialGradient id="path5083_1_" cx="-109.8928" cy="91.9001" r="16.1865" gradientTransform="matrix(1.555 0 0 0.4795 372.4247 419.5973)" gradientUnits="userSpaceOnUse">
		<stop  offset="0" style="stop-color:#A2FF5F"/>
		<stop  offset="0.4082" style="stop-color:#A0FF5F"/>
		<stop  offset="0.5552" style="stop-color:#99FD5F"/>
		<stop  offset="0.66" style="stop-color:#8EFB5E"/>
		<stop  offset="0.7448" style="stop-color:#7DF85E"/>
		<stop  offset="0.8174" style="stop-color:#67F35D"/>
		<stop  offset="0.8817" style="stop-color:#4BEE5C"/>
		<stop  offset="0.9398" style="stop-color:#2BE85B"/>
		<stop  offset="0.9915" style="stop-color:#07E05A"/>
		<stop  offset="1" style="stop-color:#00DF5A"/>
	</radialGradient>
	<path id="path5083" fill="url(#path5083_1_)" stroke="#000000" d="M226.248,463.663c0,4.364-11.066,7.902-24.709,7.902
		c-13.645,0-24.705-3.536-24.705-7.902c0-4.365,11.061-7.901,24.705-7.901C215.181,455.762,226.248,459.299,226.248,463.663z"/>
	<g enable-background="new    ">
		<path d="M182.923,460.215c0.38-0.09,0.989-0.149,1.589-0.149c0.869,0,1.43,0.149,1.839,0.489c0.351,0.26,0.569,0.66,0.569,1.189
			c0,0.66-0.439,1.229-1.139,1.479v0.03c0.64,0.149,1.389,0.68,1.389,1.679c0,0.58-0.229,1.02-0.579,1.35
			c-0.46,0.43-1.22,0.629-2.319,0.629c-0.6,0-1.059-0.04-1.349-0.079V460.215z M183.792,462.973h0.79
			c0.909,0,1.449-0.489,1.449-1.14c0-0.779-0.59-1.099-1.47-1.099c-0.399,0-0.63,0.029-0.77,0.06V462.973z M183.792,466.192
			c0.181,0.029,0.42,0.039,0.729,0.039c0.9,0,1.729-0.329,1.729-1.309c0-0.91-0.79-1.3-1.739-1.3h-0.72V466.192z"/>
		<path d="M191.74,465.692c0,0.42,0.021,0.829,0.07,1.159h-0.789l-0.08-0.609h-0.03c-0.26,0.38-0.79,0.72-1.479,0.72
			c-0.979,0-1.479-0.69-1.479-1.39c0-1.169,1.039-1.809,2.908-1.799v-0.101c0-0.399-0.109-1.129-1.1-1.119
			c-0.459,0-0.93,0.13-1.27,0.36l-0.199-0.59c0.399-0.25,0.989-0.42,1.599-0.42c1.489,0,1.849,1.01,1.849,1.979V465.692z
			 M190.881,464.383c-0.959-0.02-2.049,0.15-2.049,1.09c0,0.579,0.38,0.839,0.82,0.839c0.639,0,1.049-0.399,1.189-0.81
			c0.029-0.09,0.039-0.189,0.039-0.279V464.383z"/>
		<path d="M193.033,465.962c0.27,0.16,0.729,0.34,1.168,0.34c0.631,0,0.93-0.31,0.93-0.72c0-0.42-0.25-0.649-0.889-0.89
			c-0.88-0.319-1.289-0.789-1.289-1.369c0-0.779,0.639-1.419,1.668-1.419c0.49,0,0.92,0.13,1.18,0.3l-0.209,0.63
			c-0.19-0.11-0.541-0.28-0.99-0.28c-0.52,0-0.799,0.3-0.799,0.66c0,0.409,0.279,0.59,0.908,0.829c0.83,0.31,1.27,0.729,1.27,1.459
			c0,0.86-0.67,1.46-1.799,1.46c-0.529,0-1.02-0.141-1.359-0.34L193.033,465.962z"/>
		<path d="M200.52,465.692c0,0.42,0.021,0.829,0.069,1.159h-0.789l-0.08-0.609h-0.029c-0.26,0.38-0.79,0.72-1.479,0.72
			c-0.979,0-1.479-0.69-1.479-1.39c0-1.169,1.039-1.809,2.908-1.799v-0.101c0-0.399-0.109-1.129-1.1-1.119
			c-0.459,0-0.929,0.13-1.269,0.36l-0.2-0.59c0.4-0.25,0.99-0.42,1.6-0.42c1.488,0,1.849,1.01,1.849,1.979V465.692z
			 M199.661,464.383c-0.96-0.02-2.049,0.15-2.049,1.09c0,0.579,0.38,0.839,0.819,0.839c0.64,0,1.049-0.399,1.189-0.81
			c0.029-0.09,0.04-0.189,0.04-0.279V464.383z"/>
		<path d="M201.931,459.756h0.88v7.096h-0.88V459.756z"/>
		<path d="M206.31,463.833v0.64h-2.469v-0.64H206.31z"/>
		<path d="M210.75,465.692c0,0.42,0.02,0.829,0.07,1.159h-0.79l-0.079-0.609h-0.031c-0.26,0.38-0.789,0.72-1.479,0.72
			c-0.979,0-1.479-0.69-1.479-1.39c0-1.169,1.04-1.809,2.909-1.799v-0.101c0-0.399-0.11-1.129-1.1-1.119
			c-0.46,0-0.93,0.13-1.27,0.36l-0.2-0.59c0.399-0.25,0.989-0.42,1.599-0.42c1.49,0,1.85,1.01,1.85,1.979V465.692z M209.89,464.383
			c-0.959-0.02-2.049,0.15-2.049,1.09c0,0.579,0.379,0.839,0.819,0.839c0.64,0,1.05-0.399,1.189-0.81
			c0.03-0.09,0.04-0.189,0.04-0.279V464.383z"/>
		<path d="M215.609,466.681c-0.229,0.11-0.739,0.28-1.389,0.28c-1.459,0-2.408-0.99-2.408-2.479c0-1.488,1.02-2.578,2.598-2.578
			c0.52,0,0.98,0.13,1.22,0.26l-0.2,0.67c-0.209-0.11-0.539-0.23-1.02-0.23c-1.109,0-1.709,0.83-1.709,1.84
			c0,1.119,0.72,1.809,1.68,1.809c0.5,0,0.829-0.12,1.079-0.229L215.609,466.681z"/>
		<path d="M217.831,460.854v1.16h1.259v0.669h-1.259v2.608c0,0.601,0.17,0.939,0.659,0.939c0.24,0,0.381-0.02,0.51-0.06l0.041,0.67
			c-0.17,0.06-0.44,0.12-0.78,0.12c-0.409,0-0.739-0.141-0.949-0.37c-0.24-0.27-0.34-0.699-0.34-1.27v-2.639h-0.75v-0.669h0.75
			v-0.89L217.831,460.854z"/>
	</g>
</g>
<path id="path10200" sodipodi:nodetypes="cc" d="M319.667,332.438"/>
<path id="path5096" sodipodi:nodetypes="cc" d="M319.667,253.361"/>
<path id="path87172" sodipodi:nodetypes="cc" d="M276.115,371.663"/>
<path id="path5113" sodipodi:nodetypes="cc" fill="none" stroke="#000000" stroke-dasharray="3,3" d="M321.723,301.265
	c9.711,26.359,46.476,16.647,46.476,16.647"/>
<path id="path5891" sodipodi:nodetypes="cc" fill="none" stroke="#000000" stroke-dasharray="3,3" d="M273.513,503.813
	c29.134-0.693,47.863-26.359,47.863-26.359"/>
<path id="path5893" sodipodi:nodetypes="cc" fill="none" stroke="#000000" stroke-dasharray="3,3" d="M402.615,443.465
	c24.279,8.324,31.908,20.116,31.908,20.116"/>
<path id="path5895" sodipodi:nodetypes="cc" fill="none" stroke="#000000" stroke-dasharray="3,3" d="M321.376,502.426
	c23.584-14.566,49.25-6.937,49.25-6.937"/>
<path id="path5899" sodipodi:nodetypes="cc" fill="none" stroke="#000000" stroke-dasharray="3,3" d="M544.816,473.292
	c3.469,31.909,48.557,34.684,48.557,34.684"/>
<g>
	<g>
		<line fill="none" stroke="#000000" x1="321.945" y1="260.471" x2="321.945" y2="213.388"/>
		<polygon points="325.649,216.196 321.945,214.624 318.241,216.196 321.945,207.418 		"/>
		<polygon points="318.241,257.662 321.945,259.235 325.648,257.662 321.945,266.44 		"/>
	</g>
</g>
<g>
	<g>
		<line fill="none" stroke="#000000" x1="321.945" y1="424.388" x2="321.945" y2="377.638"/>
		<polygon points="325.649,380.446 321.945,378.874 318.241,380.446 321.945,371.669 		"/>
		<polygon points="318.241,421.579 321.945,423.152 325.648,421.579 321.945,430.357 		"/>
	</g>
</g>
<g>
	<g>
		<line fill="none" stroke="#000000" x1="321.278" y1="516.138" x2="321.278" y2="462.138"/>
		<polygon points="324.982,464.946 321.278,463.374 317.574,464.946 321.278,456.169 		"/>
		<polygon points="317.574,513.329 321.278,514.902 324.981,513.329 321.278,522.107 		"/>
	</g>
</g>
<g>
	<g>
		<line fill="none" stroke="#000000" x1="508.362" y1="532.34" x2="350.695" y2="532.259"/>
		<polygon points="353.505,528.556 351.931,532.26 353.501,535.964 344.726,532.256 		"/>
		<polygon points="505.551,536.043 507.126,532.339 505.555,528.635 514.332,532.343 		"/>
	</g>
</g>
<g>
	<g>
		<path fill="none" stroke="#000000" d="M281.615,224.648c19.601-0.141,20.394,0.757,26.266,3.125
			c3.979,1.605,14.37,7.057,14.064,20.364"/>
		<polygon points="284.397,220.924 282.851,224.64 284.45,228.332 275.646,224.691 		"/>
	</g>
</g>
<g>
	<g>
		<line fill="none" stroke="#000000" x1="321.695" y1="339.888" x2="321.695" y2="292.888"/>
		<polygon points="325.399,295.696 321.695,294.124 317.992,295.696 321.695,286.918 		"/>
		<polygon points="317.991,337.079 321.695,338.652 325.399,337.079 321.695,345.857 		"/>
	</g>
</g>
<g>
	<g>
		<path fill="none" stroke="#000000" d="M282.424,418.446c18.304-1.126,19.102-2.058,24.735-4.754
			c3.818-1.827,12.183-7.434,14.739-20.677"/>
		<polygon points="285,414.577 283.658,418.37 285.455,421.971 276.466,418.813 		"/>
	</g>
</g>
<g>
	<g>
		<line fill="none" stroke="#000000" x1="516.445" y1="443.339" x2="359.32" y2="443.258"/>
		<polygon points="362.13,439.555 360.556,443.259 362.126,446.963 353.351,443.255 		"/>
		<polygon points="513.634,447.042 515.208,443.338 513.638,439.634 522.414,443.342 		"/>
	</g>
</g>
<g>
	<g>
		<line fill="none" stroke="#000000" x1="544.528" y1="519.805" x2="544.528" y2="459.472"/>
		<polygon points="548.232,462.28 544.528,460.708 540.824,462.28 544.528,453.503 		"/>
	</g>
</g>
<g>
	
		<radialGradient id="path5029_1_" cx="141.9077" cy="97.6299" r="16.187" gradientTransform="matrix(0.9424 0 0 0.4795 159.7401 218.8169)" gradientUnits="userSpaceOnUse">
		<stop  offset="0" style="stop-color:#A2FF5F"/>
		<stop  offset="0.4082" style="stop-color:#A0FF5F"/>
		<stop  offset="0.5552" style="stop-color:#99FD5F"/>
		<stop  offset="0.66" style="stop-color:#8EFB5E"/>
		<stop  offset="0.7448" style="stop-color:#7DF85E"/>
		<stop  offset="0.8174" style="stop-color:#67F35D"/>
		<stop  offset="0.8817" style="stop-color:#4BEE5C"/>
		<stop  offset="0.9398" style="stop-color:#2BE85B"/>
		<stop  offset="0.9915" style="stop-color:#07E05A"/>
		<stop  offset="1" style="stop-color:#00DF5A"/>
	</radialGradient>
	<path id="path5029" fill="url(#path5029_1_)" stroke="#000000" d="M308.448,265.63c0,4.364-6.707,7.902-14.975,7.902
		c-8.27,0-14.974-3.537-14.974-7.902c0-4.366,6.704-7.901,14.974-7.901C301.741,257.729,308.448,261.266,308.448,265.63z"/>
	<g enable-background="new    ">
		<path d="M289.636,268.355c-0.31,0.16-0.959,0.32-1.779,0.32c-1.899,0-3.318-1.2-3.318-3.419c0-2.118,1.429-3.538,3.518-3.538
			c0.83,0,1.369,0.181,1.599,0.3l-0.22,0.71c-0.32-0.16-0.79-0.279-1.35-0.279c-1.579,0-2.628,1.009-2.628,2.778
			c0,1.659,0.95,2.708,2.579,2.708c0.54,0,1.08-0.109,1.429-0.279L289.636,268.355z"/>
		<path d="M294.046,267.406c0,0.42,0.02,0.829,0.07,1.159h-0.79l-0.08-0.609h-0.03c-0.26,0.38-0.79,0.72-1.479,0.72
			c-0.979,0-1.479-0.69-1.479-1.39c0-1.169,1.04-1.809,2.909-1.799v-0.101c0-0.399-0.11-1.129-1.1-1.119
			c-0.459,0-0.929,0.13-1.269,0.36l-0.2-0.59c0.4-0.25,0.99-0.42,1.599-0.42c1.489,0,1.849,1.01,1.849,1.979V267.406z
			 M293.187,266.097c-0.959-0.02-2.049,0.15-2.049,1.09c0,0.579,0.379,0.839,0.819,0.839c0.64,0,1.049-0.399,1.189-0.81
			c0.03-0.09,0.04-0.189,0.04-0.279V266.097z"/>
		<path d="M301.165,265.607c-0.05-0.939-0.11-2.079-0.11-2.909h-0.02c-0.24,0.78-0.51,1.63-0.85,2.559l-1.189,3.269h-0.66
			l-1.099-3.208c-0.32-0.96-0.58-1.819-0.77-2.619h-0.02c-0.02,0.84-0.07,1.959-0.13,2.979l-0.18,2.889h-0.83l0.47-6.736h1.109
			l1.149,3.258c0.28,0.83,0.5,1.569,0.68,2.27h0.02c0.18-0.68,0.42-1.42,0.72-2.27l1.199-3.258h1.109l0.42,6.736h-0.86
			L301.165,265.607z"/>
	</g>
</g>
<g>
	
		<radialGradient id="path31151_4_" cx="273.3311" cy="48.4565" r="15.5565" gradientTransform="matrix(1.1111 0 0 0.9011 18.8416 233.0469)" gradientUnits="userSpaceOnUse">
		<stop  offset="0" style="stop-color:#FFDD9F"/>
		<stop  offset="0.2912" style="stop-color:#FFDB9D"/>
		<stop  offset="0.4343" style="stop-color:#FFD398"/>
		<stop  offset="0.545" style="stop-color:#FFC68E"/>
		<stop  offset="0.6392" style="stop-color:#FFB381"/>
		<stop  offset="0.7229" style="stop-color:#FF9B70"/>
		<stop  offset="0.799" style="stop-color:#FF7D5A"/>
		<stop  offset="0.8695" style="stop-color:#FF5A41"/>
		<stop  offset="0.9348" style="stop-color:#FF3123"/>
		<stop  offset="0.9951" style="stop-color:#FF0403"/>
		<stop  offset="1" style="stop-color:#FF0000"/>
	</radialGradient>
	<path id="path31151_1_" fill="url(#path31151_4_)" stroke="#000000" d="M336.099,271.085l7.818,5.567l-6.922,5.092l-0.734,0.339
		c-3.45,2.558-9.288,4.239-15.914,4.239c-10.595,0-19.187-4.305-19.187-9.612c0-5.311,8.591-9.613,19.187-9.613
		c6.092,0,11.519,1.422,15.034,3.64L336.099,271.085z"/>
	<g enable-background="new    ">
		<path d="M313.602,279.436c-0.31,0.16-0.959,0.32-1.779,0.32c-1.899,0-3.318-1.2-3.318-3.419c0-2.118,1.429-3.538,3.518-3.538
			c0.83,0,1.369,0.181,1.599,0.3l-0.22,0.71c-0.32-0.16-0.79-0.279-1.35-0.279c-1.579,0-2.628,1.009-2.628,2.778
			c0,1.659,0.95,2.708,2.579,2.708c0.54,0,1.08-0.109,1.429-0.279L313.602,279.436z"/>
		<path d="M318.012,278.486c0,0.42,0.02,0.829,0.07,1.159h-0.79l-0.08-0.609h-0.03c-0.26,0.38-0.79,0.72-1.479,0.72
			c-0.979,0-1.479-0.69-1.479-1.39c0-1.169,1.04-1.809,2.909-1.799v-0.101c0-0.399-0.11-1.129-1.1-1.119
			c-0.459,0-0.929,0.13-1.269,0.36l-0.2-0.59c0.4-0.25,0.99-0.42,1.599-0.42c1.489,0,1.849,1.01,1.849,1.979V278.486z
			 M317.153,277.177c-0.959-0.02-2.049,0.15-2.049,1.09c0,0.579,0.379,0.839,0.819,0.839c0.64,0,1.049-0.399,1.189-0.81
			c0.03-0.09,0.04-0.189,0.04-0.279V277.177z"/>
		<path d="M325.131,276.688c-0.05-0.939-0.11-2.079-0.11-2.909h-0.02c-0.24,0.78-0.51,1.63-0.85,2.559l-1.189,3.269h-0.66
			l-1.099-3.208c-0.32-0.96-0.58-1.819-0.77-2.619h-0.02c-0.02,0.84-0.07,1.959-0.13,2.979l-0.18,2.889h-0.83l0.47-6.736h1.109
			l1.149,3.258c0.28,0.83,0.5,1.569,0.68,2.27h0.02c0.18-0.68,0.42-1.42,0.72-2.27l1.199-3.258h1.109l0.42,6.736h-0.86
			L325.131,276.688z"/>
		<path d="M327.494,272.909h0.869v3.248h0.03c0.18-0.26,0.36-0.5,0.53-0.72l2.059-2.528h1.08l-2.439,2.858l2.629,3.878h-1.03
			l-2.208-3.309l-0.65,0.74v2.568h-0.869V272.909z"/>
		<path d="M333.783,272.909v6.736h-0.879v-6.736H333.783z"/>
		<path d="M336.173,272.909v6.736h-0.879v-6.736H336.173z"/>
	</g>
</g>
<g enable-background="new    ">
</g>
<g>
	
		<radialGradient id="path7165_3_" cx="280.4341" cy="141.9912" r="15.557" gradientTransform="matrix(1.2893 0 0 0.9885 33.4168 357.1259)" gradientUnits="userSpaceOnUse">
		<stop  offset="0" style="stop-color:#FFDD9F"/>
		<stop  offset="0.2912" style="stop-color:#FFDB9D"/>
		<stop  offset="0.4343" style="stop-color:#FFD398"/>
		<stop  offset="0.545" style="stop-color:#FFC68E"/>
		<stop  offset="0.6392" style="stop-color:#FFB381"/>
		<stop  offset="0.7229" style="stop-color:#FF9B70"/>
		<stop  offset="0.799" style="stop-color:#FF7D5A"/>
		<stop  offset="0.8695" style="stop-color:#FF5A41"/>
		<stop  offset="0.9348" style="stop-color:#FF3123"/>
		<stop  offset="0.9951" style="stop-color:#FF0403"/>
		<stop  offset="1" style="stop-color:#FF0000"/>
	</radialGradient>
	<path id="path7165_1_" fill="url(#path7165_3_)" stroke="#000000" d="M410.716,491.313l9.073,6.107l-8.032,5.586l-0.854,0.373
		c-4.002,2.807-10.777,4.65-18.466,4.65c-12.294,0-22.264-4.723-22.264-10.545c0-5.824,9.968-10.545,22.264-10.545
		c7.069,0,13.367,1.559,17.446,3.992L410.716,491.313z"/>
	<g enable-background="new    ">
		<path d="M382.098,500.21c-0.31,0.16-0.959,0.32-1.779,0.32c-1.899,0-3.318-1.2-3.318-3.419c0-2.118,1.429-3.538,3.518-3.538
			c0.83,0,1.369,0.181,1.599,0.3l-0.22,0.71c-0.32-0.16-0.79-0.279-1.35-0.279c-1.579,0-2.628,1.009-2.628,2.778
			c0,1.659,0.95,2.708,2.579,2.708c0.54,0,1.08-0.109,1.429-0.279L382.098,500.21z"/>
		<path d="M386.509,499.261c0,0.42,0.02,0.829,0.07,1.159h-0.79l-0.08-0.609h-0.03c-0.26,0.38-0.79,0.72-1.479,0.72
			c-0.979,0-1.479-0.69-1.479-1.39c0-1.169,1.04-1.809,2.909-1.799v-0.101c0-0.399-0.11-1.129-1.1-1.119
			c-0.459,0-0.929,0.13-1.269,0.36l-0.2-0.59c0.4-0.25,0.99-0.42,1.599-0.42c1.489,0,1.849,1.01,1.849,1.979V499.261z
			 M385.649,497.951c-0.959-0.02-2.049,0.15-2.049,1.09c0,0.579,0.379,0.839,0.819,0.839c0.64,0,1.049-0.399,1.189-0.81
			c0.03-0.09,0.04-0.189,0.04-0.279V497.951z"/>
		<path d="M393.627,497.462c-0.05-0.939-0.11-2.079-0.11-2.909h-0.02c-0.24,0.78-0.51,1.63-0.85,2.559l-1.189,3.269h-0.66
			l-1.099-3.208c-0.32-0.96-0.58-1.819-0.77-2.619h-0.02c-0.02,0.84-0.07,1.959-0.13,2.979l-0.18,2.889h-0.83l0.47-6.736h1.109
			l1.149,3.258c0.28,0.83,0.5,1.569,0.68,2.27h0.02c0.18-0.68,0.42-1.42,0.72-2.27l1.199-3.258h1.109l0.42,6.736h-0.86
			L393.627,497.462z"/>
		<path d="M395.991,493.684h0.869v3.248h0.03c0.18-0.26,0.36-0.5,0.53-0.72l2.059-2.528h1.08l-2.439,2.858l2.629,3.878h-1.03
			l-2.208-3.309l-0.65,0.74v2.568h-0.869V493.684z"/>
		<path d="M402.28,493.684v6.736H401.4v-6.736H402.28z"/>
		<path d="M404.67,493.684v6.736h-0.879v-6.736H404.67z"/>
		<path d="M408.2,497.401v0.64h-2.469v-0.64H408.2z"/>
		<path d="M412.639,499.261c0,0.42,0.02,0.829,0.07,1.159h-0.79l-0.08-0.609h-0.03c-0.26,0.38-0.79,0.72-1.479,0.72
			c-0.979,0-1.479-0.69-1.479-1.39c0-1.169,1.04-1.809,2.909-1.799v-0.101c0-0.399-0.11-1.129-1.1-1.119
			c-0.459,0-0.929,0.13-1.269,0.36l-0.2-0.59c0.4-0.25,0.99-0.42,1.599-0.42c1.489,0,1.849,1.01,1.849,1.979V499.261z
			 M411.779,497.951c-0.959-0.02-2.049,0.15-2.049,1.09c0,0.579,0.379,0.839,0.819,0.839c0.64,0,1.049-0.399,1.189-0.81
			c0.03-0.09,0.04-0.189,0.04-0.279V497.951z"/>
	</g>
</g>
<path id="path5901" sodipodi:nodetypes="cc" fill="none" stroke="#000000" stroke-dasharray="3,3" d="M456.72,442.771
	c-25.664-1.388-33.988-29.828-33.988-29.828"/>
<path id="path5901_1_" sodipodi:nodetypes="cc" fill="none" stroke="#000000" stroke-dasharray="3,3" d="M455.22,532.443
	c-25.664,1.388-33.988,29.828-33.988,29.828"/>
<g>
	
		<radialGradient id="path31151_5_" cx="473.2827" cy="233.6006" r="15.5568" gradientTransform="matrix(1.1111 0 0 0.9011 18.8416 233.0469)" gradientUnits="userSpaceOnUse">
		<stop  offset="0" style="stop-color:#FFDD9F"/>
		<stop  offset="0.2912" style="stop-color:#FFDB9D"/>
		<stop  offset="0.4343" style="stop-color:#FFD398"/>
		<stop  offset="0.545" style="stop-color:#FFC68E"/>
		<stop  offset="0.6392" style="stop-color:#FFB381"/>
		<stop  offset="0.7229" style="stop-color:#FF9B70"/>
		<stop  offset="0.799" style="stop-color:#FF7D5A"/>
		<stop  offset="0.8695" style="stop-color:#FF5A41"/>
		<stop  offset="0.9348" style="stop-color:#FF3123"/>
		<stop  offset="0.9951" style="stop-color:#FF0403"/>
		<stop  offset="1" style="stop-color:#FF0000"/>
	</radialGradient>
	<path id="path31151_2_" fill="url(#path31151_5_)" stroke="#000000" d="M558.266,437.919l7.818,5.567l-6.922,5.093l-0.734,0.339
		c-3.45,2.558-9.288,4.239-15.914,4.239c-10.595,0-19.187-4.305-19.187-9.612c0-5.311,8.591-9.613,19.187-9.613
		c6.092,0,11.519,1.422,15.034,3.64L558.266,437.919z"/>
	<g enable-background="new    ">
		<path d="M535.769,446.27c-0.311,0.16-0.96,0.32-1.779,0.32c-1.899,0-3.318-1.2-3.318-3.419c0-2.118,1.43-3.538,3.518-3.538
			c0.83,0,1.369,0.181,1.6,0.3l-0.22,0.71c-0.319-0.16-0.79-0.279-1.35-0.279c-1.579,0-2.628,1.009-2.628,2.778
			c0,1.659,0.949,2.708,2.578,2.708c0.539,0,1.08-0.109,1.43-0.279L535.769,446.27z"/>
		<path d="M540.179,445.32c0,0.42,0.02,0.829,0.07,1.159h-0.79l-0.079-0.609h-0.031c-0.26,0.38-0.789,0.72-1.479,0.72
			c-0.979,0-1.479-0.69-1.479-1.39c0-1.169,1.04-1.809,2.909-1.799v-0.101c0-0.399-0.11-1.129-1.1-1.119
			c-0.46,0-0.93,0.13-1.27,0.36l-0.2-0.59c0.399-0.25,0.989-0.42,1.599-0.42c1.49,0,1.85,1.01,1.85,1.979V445.32z M539.32,444.011
			c-0.959-0.02-2.049,0.15-2.049,1.09c0,0.579,0.379,0.839,0.819,0.839c0.64,0,1.05-0.399,1.189-0.81
			c0.03-0.09,0.04-0.189,0.04-0.279V444.011z"/>
		<path d="M547.298,443.521c-0.051-0.939-0.11-2.079-0.11-2.909h-0.021c-0.239,0.78-0.51,1.63-0.85,2.559l-1.189,3.269h-0.659
			l-1.099-3.208c-0.32-0.96-0.58-1.819-0.77-2.619h-0.021c-0.021,0.84-0.07,1.959-0.13,2.979l-0.18,2.889h-0.83l0.47-6.736h1.109
			l1.149,3.258c0.279,0.83,0.5,1.569,0.68,2.27h0.02c0.18-0.68,0.42-1.42,0.721-2.27l1.199-3.258h1.109l0.42,6.736h-0.86
			L547.298,443.521z"/>
		<path d="M549.662,439.743h0.869v3.248h0.029c0.18-0.26,0.36-0.5,0.53-0.72l2.059-2.528h1.079l-2.438,2.858l2.629,3.878h-1.03
			l-2.208-3.309l-0.649,0.74v2.568h-0.869V439.743z"/>
		<path d="M555.951,439.743v6.736h-0.88v-6.736H555.951z"/>
		<path d="M558.34,439.743v6.736h-0.88v-6.736H558.34z"/>
	</g>
</g>
<g>
	<rect x="549.779" y="538.139" fill="none" width="5.666" height="0"/>
</g>
<g>
</g>
<g>
	<g id="g8433_1_" transform="matrix(0.774250,0.000000,0.000000,0.947290,-135.8265,-192.5482)">
		
			<radialGradient id="path8425_3_" cx="667.8008" cy="437.6107" r="10.1258" gradientTransform="matrix(1.2294 0 0 1.0675 -311.7257 263.4755)" gradientUnits="userSpaceOnUse">
			<stop  offset="0" style="stop-color:#9FFFFD"/>
			<stop  offset="0.3652" style="stop-color:#9FFDFD"/>
			<stop  offset="0.5444" style="stop-color:#9FF5FD"/>
			<stop  offset="0.6833" style="stop-color:#9FE8FD"/>
			<stop  offset="0.8013" style="stop-color:#9FD5FE"/>
			<stop  offset="0.905" style="stop-color:#9FBEFE"/>
			<stop  offset="0.9991" style="stop-color:#9FA0FF"/>
			<stop  offset="1" style="stop-color:#9FA0FF"/>
		</radialGradient>
		<path id="path8425_1_" fill="url(#path8425_3_)" stroke="#000000" d="M527.731,735.235l-0.772,0.311
			c-3.612,2.342-9.722,3.884-16.657,3.884c-11.096,0-20.089-3.942-20.089-8.808c0-4.864,8.993-8.804,20.089-8.804
			c6.377,0,12.058,1.303,15.737,3.334l0.754,0.318l0.643,0.54l-6.324,4.748l7.21,3.849L527.731,735.235z"/>
	</g>
	<g>
		<path d="M251.349,495.854c0.419-0.08,0.969-0.14,1.669-0.14c0.859,0,1.489,0.2,1.889,0.56c0.37,0.319,0.6,0.81,0.6,1.409
			c0,0.609-0.18,1.09-0.53,1.439c-0.46,0.489-1.209,0.739-2.059,0.739c-0.26,0-0.5-0.01-0.7-0.06v2.698h-0.869V495.854z
			 M252.218,499.092c0.19,0.05,0.44,0.07,0.72,0.07c1.06,0,1.689-0.52,1.689-1.43c0-0.899-0.629-1.329-1.589-1.329
			c-0.38,0-0.67,0.04-0.82,0.07V499.092z"/>
		<path d="M256.669,495.854c0.419-0.08,0.969-0.14,1.669-0.14c0.859,0,1.489,0.2,1.889,0.56c0.37,0.319,0.6,0.81,0.6,1.409
			c0,0.609-0.18,1.09-0.53,1.439c-0.46,0.489-1.209,0.739-2.059,0.739c-0.26,0-0.5-0.01-0.7-0.06v2.698h-0.869V495.854z
			 M257.538,499.092c0.19,0.05,0.44,0.07,0.72,0.07c1.06,0,1.689-0.52,1.689-1.43c0-0.899-0.629-1.329-1.589-1.329
			c-0.38,0-0.67,0.04-0.82,0.07V499.092z"/>
		<path d="M263.588,496.823h-0.02l-1.129,0.609l-0.17-0.67l1.419-0.759h0.75v6.496h-0.849V496.823z"/>
	</g>
</g>
<g>
	<g id="g8433_5_" transform="matrix(0.774250,0.000000,0.000000,0.947290,-135.8265,-192.5482)">
		
			<radialGradient id="path8425_7_" cx="666.7502" cy="248.4022" r="10.1257" gradientTransform="matrix(1.2294 0 0 1.0675 -311.7257 263.4755)" gradientUnits="userSpaceOnUse">
			<stop  offset="0" style="stop-color:#9FFFFD"/>
			<stop  offset="0.3652" style="stop-color:#9FFDFD"/>
			<stop  offset="0.5444" style="stop-color:#9FF5FD"/>
			<stop  offset="0.6833" style="stop-color:#9FE8FD"/>
			<stop  offset="0.8013" style="stop-color:#9FD5FE"/>
			<stop  offset="0.905" style="stop-color:#9FBEFE"/>
			<stop  offset="0.9991" style="stop-color:#9FA0FF"/>
			<stop  offset="1" style="stop-color:#9FA0FF"/>
		</radialGradient>
		<path id="path8425_5_" fill="url(#path8425_7_)" stroke="#000000" d="M526.44,533.255l-0.772,0.311
			c-3.612,2.342-9.722,3.884-16.657,3.884c-11.096,0-20.089-3.942-20.089-8.808c0-4.864,8.993-8.804,20.089-8.804
			c6.377,0,12.058,1.303,15.737,3.334l0.754,0.318l0.643,0.54l-6.324,4.748l7.21,3.849L526.44,533.255z"/>
	</g>
	<g>
		<path d="M250.349,304.52c0.419-0.08,0.969-0.14,1.669-0.14c0.859,0,1.489,0.2,1.889,0.56c0.37,0.319,0.6,0.81,0.6,1.409
			c0,0.609-0.18,1.09-0.53,1.439c-0.46,0.489-1.209,0.739-2.059,0.739c-0.26,0-0.5-0.01-0.7-0.06v2.698h-0.869V304.52z
			 M251.218,307.758c0.19,0.05,0.44,0.07,0.72,0.07c1.06,0,1.689-0.52,1.689-1.43c0-0.899-0.629-1.329-1.589-1.329
			c-0.38,0-0.67,0.04-0.82,0.07V307.758z"/>
		<path d="M255.669,304.52c0.419-0.08,0.969-0.14,1.669-0.14c0.859,0,1.489,0.2,1.889,0.56c0.37,0.319,0.6,0.81,0.6,1.409
			c0,0.609-0.18,1.09-0.53,1.439c-0.46,0.489-1.209,0.739-2.059,0.739c-0.26,0-0.5-0.01-0.7-0.06v2.698h-0.869V304.52z
			 M256.538,307.758c0.19,0.05,0.44,0.07,0.72,0.07c1.06,0,1.689-0.52,1.689-1.43c0-0.899-0.629-1.329-1.589-1.329
			c-0.38,0-0.67,0.04-0.82,0.07V307.758z"/>
		<path d="M262.588,305.489h-0.02l-1.129,0.609l-0.17-0.67l1.419-0.759h0.75v6.496h-0.849V305.489z"/>
	</g>
</g>
<g>
	<g id="g8433_6_" transform="matrix(0.774250,0.000000,0.000000,0.947290,-135.8265,-192.5482)">
		
			<radialGradient id="path8425_8_" cx="836.9438" cy="505.5162" r="10.1258" gradientTransform="matrix(1.2294 0 0 1.0675 -311.7257 263.4755)" gradientUnits="userSpaceOnUse">
			<stop  offset="0" style="stop-color:#9FFFFD"/>
			<stop  offset="0.3652" style="stop-color:#9FFDFD"/>
			<stop  offset="0.5444" style="stop-color:#9FF5FD"/>
			<stop  offset="0.6833" style="stop-color:#9FE8FD"/>
			<stop  offset="0.8013" style="stop-color:#9FD5FE"/>
			<stop  offset="0.905" style="stop-color:#9FBEFE"/>
			<stop  offset="0.9991" style="stop-color:#9FA0FF"/>
			<stop  offset="1" style="stop-color:#9FA0FF"/>
		</radialGradient>
		<path id="path8425_6_" fill="url(#path8425_8_)" stroke="#000000" d="M735.674,807.724l-0.772,0.311
			c-3.612,2.342-9.722,3.884-16.656,3.884c-11.094,0-20.088-3.942-20.088-8.808c0-4.864,8.993-8.804,20.088-8.804
			c6.376,0,12.057,1.303,15.738,3.334l0.754,0.318l0.643,0.54l-6.324,4.748l7.21,3.849L735.674,807.724z"/>
	</g>
	<g>
		<path d="M412.35,564.521c0.419-0.08,0.969-0.14,1.669-0.14c0.859,0,1.489,0.2,1.889,0.56c0.37,0.319,0.6,0.81,0.6,1.409
			c0,0.609-0.18,1.09-0.53,1.439c-0.46,0.489-1.209,0.739-2.059,0.739c-0.26,0-0.5-0.01-0.7-0.06v2.698h-0.869V564.521z
			 M413.219,567.76c0.19,0.05,0.44,0.07,0.72,0.07c1.06,0,1.689-0.52,1.689-1.43c0-0.899-0.629-1.329-1.589-1.329
			c-0.38,0-0.67,0.04-0.82,0.07V567.76z"/>
		<path d="M417.669,564.521c0.419-0.08,0.969-0.14,1.669-0.14c0.859,0,1.489,0.2,1.889,0.56c0.37,0.319,0.6,0.81,0.6,1.409
			c0,0.609-0.181,1.09-0.53,1.439c-0.46,0.489-1.209,0.739-2.059,0.739c-0.26,0-0.5-0.01-0.7-0.06v2.698h-0.869V564.521z
			 M418.539,567.76c0.19,0.05,0.44,0.07,0.72,0.07c1.06,0,1.689-0.52,1.689-1.43c0-0.899-0.629-1.329-1.589-1.329
			c-0.38,0-0.67,0.04-0.82,0.07V567.76z"/>
		<path d="M424.588,565.491h-0.021l-1.129,0.609l-0.17-0.67l1.419-0.759h0.749v6.496h-0.849V565.491z"/>
	</g>
</g>
<g>
	<g id="g8433_2_" transform="matrix(0.774250,0.000000,0.000000,0.947290,-135.8265,-192.5482)">
		
			<radialGradient id="path8425_9_" cx="837.9933" cy="346.6327" r="10.1264" gradientTransform="matrix(1.2294 0 0 1.0675 -311.7257 263.4755)" gradientUnits="userSpaceOnUse">
			<stop  offset="0" style="stop-color:#9FFFFD"/>
			<stop  offset="0.3652" style="stop-color:#9FFDFD"/>
			<stop  offset="0.5444" style="stop-color:#9FF5FD"/>
			<stop  offset="0.6833" style="stop-color:#9FE8FD"/>
			<stop  offset="0.8013" style="stop-color:#9FD5FE"/>
			<stop  offset="0.905" style="stop-color:#9FBEFE"/>
			<stop  offset="0.9991" style="stop-color:#9FA0FF"/>
			<stop  offset="1" style="stop-color:#9FA0FF"/>
		</radialGradient>
		<path id="path8425_2_" fill="url(#path8425_9_)" stroke="#000000" d="M736.966,638.116l-0.772,0.311
			c-3.612,2.342-9.722,3.884-16.657,3.884c-11.094,0-20.088-3.942-20.088-8.808c0-4.864,8.993-8.804,20.088-8.804
			c6.377,0,12.058,1.303,15.738,3.334l0.754,0.318l0.643,0.54l-6.324,4.748l7.21,3.849L736.966,638.116z"/>
	</g>
	<g>
		<path d="M413.349,403.854c0.419-0.08,0.969-0.14,1.669-0.14c0.859,0,1.489,0.2,1.889,0.56c0.37,0.319,0.6,0.81,0.6,1.409
			c0,0.609-0.18,1.09-0.53,1.439c-0.46,0.489-1.209,0.739-2.059,0.739c-0.26,0-0.5-0.01-0.7-0.06v2.698h-0.869V403.854z
			 M414.218,407.092c0.19,0.05,0.44,0.07,0.72,0.07c1.06,0,1.689-0.52,1.689-1.43c0-0.899-0.629-1.329-1.589-1.329
			c-0.38,0-0.67,0.04-0.82,0.07V407.092z"/>
		<path d="M418.669,403.854c0.419-0.08,0.969-0.14,1.669-0.14c0.859,0,1.49,0.2,1.889,0.56c0.37,0.319,0.6,0.81,0.6,1.409
			c0,0.609-0.181,1.09-0.53,1.439c-0.459,0.489-1.209,0.739-2.059,0.739c-0.26,0-0.5-0.01-0.7-0.06v2.698h-0.869V403.854z
			 M419.538,407.092c0.19,0.05,0.44,0.07,0.72,0.07c1.06,0,1.689-0.52,1.689-1.43c0-0.899-0.629-1.329-1.589-1.329
			c-0.38,0-0.67,0.04-0.82,0.07V407.092z"/>
		<path d="M425.587,404.823h-0.02l-1.129,0.609l-0.17-0.67l1.418-0.759h0.75v6.496h-0.85V404.823z"/>
	</g>
</g>
<g>
	<g id="g8433_4_" transform="matrix(0.774250,0.000000,0.000000,0.947290,-135.8265,-192.5482)">
		
			<radialGradient id="path8425_10_" cx="1032.3497" cy="447.829" r="10.1258" gradientTransform="matrix(1.2294 0 0 1.0675 -311.7257 263.4755)" gradientUnits="userSpaceOnUse">
			<stop  offset="0" style="stop-color:#9FFFFD"/>
			<stop  offset="0.3652" style="stop-color:#9FFDFD"/>
			<stop  offset="0.5444" style="stop-color:#9FF5FD"/>
			<stop  offset="0.6833" style="stop-color:#9FE8FD"/>
			<stop  offset="0.8013" style="stop-color:#9FD5FE"/>
			<stop  offset="0.905" style="stop-color:#9FBEFE"/>
			<stop  offset="0.9991" style="stop-color:#9FA0FF"/>
			<stop  offset="1" style="stop-color:#9FA0FF"/>
		</radialGradient>
		<path id="path8425_4_" fill="url(#path8425_10_)" stroke="#000000" d="M975.906,746.143l-0.772,0.311
			c-3.612,2.342-9.722,3.884-16.657,3.884c-11.094,0-20.088-3.942-20.088-8.808c0-4.864,8.993-8.804,20.088-8.804
			c6.377,0,12.058,1.303,15.739,3.334l0.754,0.318l0.643,0.54l-6.324,4.748l7.21,3.849L975.906,746.143z"/>
	</g>
	<g>
		<path d="M598.349,506.187c0.42-0.08,0.969-0.14,1.669-0.14c0.859,0,1.489,0.2,1.889,0.56c0.37,0.319,0.601,0.81,0.601,1.409
			c0,0.609-0.181,1.09-0.53,1.439c-0.46,0.489-1.21,0.739-2.06,0.739c-0.26,0-0.499-0.01-0.699-0.06v2.698h-0.869V506.187z
			 M599.218,509.425c0.189,0.05,0.439,0.07,0.72,0.07c1.06,0,1.688-0.52,1.688-1.43c0-0.899-0.629-1.329-1.588-1.329
			c-0.381,0-0.67,0.04-0.82,0.07V509.425z"/>
		<path d="M603.669,506.187c0.419-0.08,0.969-0.14,1.668-0.14c0.859,0,1.49,0.2,1.89,0.56c0.37,0.319,0.6,0.81,0.6,1.409
			c0,0.609-0.181,1.09-0.53,1.439c-0.459,0.489-1.209,0.739-2.059,0.739c-0.26,0-0.5-0.01-0.699-0.06v2.698h-0.869V506.187z
			 M604.539,509.425c0.189,0.05,0.439,0.07,0.719,0.07c1.061,0,1.689-0.52,1.689-1.43c0-0.899-0.629-1.329-1.589-1.329
			c-0.38,0-0.67,0.04-0.819,0.07V509.425z"/>
		<path d="M610.587,507.156h-0.02l-1.129,0.609l-0.17-0.67l1.418-0.759h0.75v6.496h-0.85V507.156z"/>
	</g>
</g>
<g>
	
		<radialGradient id="path7185_1_" cx="276.9321" cy="-40.0625" r="16.9958" gradientTransform="matrix(1.6864 0 0 1.2289 82.773 582.7729)" gradientUnits="userSpaceOnUse">
		<stop  offset="0" style="stop-color:#FFDD9F"/>
		<stop  offset="0.2912" style="stop-color:#FFDB9D"/>
		<stop  offset="0.4343" style="stop-color:#FFD398"/>
		<stop  offset="0.545" style="stop-color:#FFC68E"/>
		<stop  offset="0.6392" style="stop-color:#FFB381"/>
		<stop  offset="0.7229" style="stop-color:#FF9B70"/>
		<stop  offset="0.799" style="stop-color:#FF7D5A"/>
		<stop  offset="0.8695" style="stop-color:#FF5A41"/>
		<stop  offset="0.9348" style="stop-color:#FF3123"/>
		<stop  offset="0.9951" style="stop-color:#FF0403"/>
		<stop  offset="1" style="stop-color:#FF0000"/>
	</radialGradient>
	<path id="path7185" fill="url(#path7185_1_)" stroke="#000000" d="M572.277,525.16l12.965,8.294l-11.478,7.587l-1.22,0.506
		c-5.719,3.809-15.401,6.315-26.388,6.315c-17.568,0-31.815-6.414-31.815-14.321c0-7.911,14.244-14.323,31.815-14.323
		c10.101,0,19.101,2.119,24.93,5.424L572.277,525.16z"/>
	<g enable-background="new    ">
		<path d="M526.929,536.265c-0.311,0.16-0.959,0.32-1.779,0.32c-1.898,0-3.318-1.2-3.318-3.419c0-2.118,1.43-3.538,3.519-3.538
			c0.829,0,1.369,0.181,1.599,0.3l-0.219,0.71c-0.32-0.16-0.79-0.279-1.35-0.279c-1.58,0-2.629,1.009-2.629,2.778
			c0,1.659,0.949,2.708,2.578,2.708c0.54,0,1.08-0.109,1.43-0.279L526.929,536.265z"/>
		<path d="M531.339,535.315c0,0.42,0.021,0.829,0.07,1.159h-0.789l-0.08-0.609h-0.03c-0.26,0.38-0.79,0.72-1.479,0.72
			c-0.979,0-1.479-0.69-1.479-1.39c0-1.169,1.039-1.809,2.908-1.799v-0.101c0-0.399-0.109-1.129-1.1-1.119
			c-0.459,0-0.93,0.13-1.27,0.36l-0.199-0.59c0.399-0.25,0.989-0.42,1.599-0.42c1.489,0,1.849,1.01,1.849,1.979V535.315z
			 M530.48,534.006c-0.959-0.02-2.049,0.15-2.049,1.09c0,0.579,0.38,0.839,0.82,0.839c0.639,0,1.049-0.399,1.189-0.81
			c0.029-0.09,0.039-0.189,0.039-0.279V534.006z"/>
		<path d="M538.458,533.517c-0.05-0.939-0.109-2.079-0.109-2.909h-0.021c-0.239,0.78-0.51,1.63-0.85,2.559l-1.189,3.269h-0.659
			l-1.1-3.208c-0.32-0.96-0.58-1.819-0.77-2.619h-0.02c-0.021,0.84-0.07,1.959-0.131,2.979l-0.18,2.889h-0.83l0.471-6.736h1.109
			l1.148,3.258c0.28,0.83,0.5,1.569,0.68,2.27h0.021c0.18-0.68,0.42-1.42,0.72-2.27l1.199-3.258h1.109l0.42,6.736h-0.859
			L538.458,533.517z"/>
		<path d="M540.822,529.738h0.869v3.248h0.03c0.18-0.26,0.36-0.5,0.53-0.72l2.059-2.528h1.079l-2.438,2.858l2.629,3.878h-1.03
			l-2.208-3.309l-0.65,0.74v2.568h-0.869V529.738z"/>
		<path d="M547.111,529.738v6.736h-0.879v-6.736H547.111z"/>
		<path d="M549.501,529.738v6.736h-0.88v-6.736H549.501z"/>
		<path d="M553.55,529.979l-0.949,1.239v0.02l1.509-0.2v0.68l-1.509-0.18v0.021l0.959,1.209l-0.629,0.35l-0.609-1.399h-0.021
			l-0.64,1.409l-0.57-0.359l0.949-1.22v-0.02l-1.479,0.189v-0.68l1.469,0.19v-0.021l-0.939-1.229l0.61-0.34l0.62,1.379h0.02
			l0.609-1.39L553.55,529.979z"/>
		<path d="M557.181,533.456v0.64h-2.469v-0.64H557.181z"/>
		<path d="M558.631,530.748c-0.33,0-0.55-0.26-0.55-0.57c0-0.31,0.23-0.56,0.57-0.56s0.559,0.25,0.559,0.56
			c0,0.311-0.219,0.57-0.569,0.57H558.631z M558.211,536.475v-4.837h0.88v4.837H558.211z"/>
		<path d="M560.551,532.946c0-0.51-0.01-0.909-0.04-1.309h0.779l0.051,0.789h0.02c0.24-0.449,0.8-0.899,1.6-0.899
			c0.67,0,1.709,0.399,1.709,2.059v2.889h-0.88v-2.788c0-0.78-0.29-1.439-1.119-1.439c-0.569,0-1.02,0.409-1.18,0.899
			c-0.04,0.11-0.06,0.27-0.06,0.41v2.918h-0.88V532.946z"/>
		<path d="M569.509,535.315c0,0.42,0.02,0.829,0.07,1.159h-0.79l-0.079-0.609h-0.031c-0.26,0.38-0.789,0.72-1.479,0.72
			c-0.979,0-1.479-0.69-1.479-1.39c0-1.169,1.04-1.809,2.909-1.799v-0.101c0-0.399-0.11-1.129-1.1-1.119
			c-0.46,0-0.93,0.13-1.27,0.36l-0.2-0.59c0.399-0.25,0.989-0.42,1.599-0.42c1.49,0,1.85,1.01,1.85,1.979V535.315z M568.65,534.006
			c-0.959-0.02-2.049,0.15-2.049,1.09c0,0.579,0.379,0.839,0.819,0.839c0.64,0,1.05-0.399,1.189-0.81
			c0.03-0.09,0.04-0.189,0.04-0.279V534.006z"/>
		<path d="M574.369,536.305c-0.229,0.11-0.739,0.28-1.389,0.28c-1.459,0-2.408-0.99-2.408-2.479c0-1.488,1.02-2.578,2.598-2.578
			c0.52,0,0.98,0.13,1.22,0.26l-0.2,0.67c-0.209-0.11-0.539-0.23-1.02-0.23c-1.109,0-1.709,0.83-1.709,1.84
			c0,1.119,0.72,1.809,1.68,1.809c0.5,0,0.829-0.12,1.079-0.229L574.369,536.305z"/>
		<path d="M576.59,530.478v1.16h1.259v0.669h-1.259v2.608c0,0.601,0.17,0.939,0.659,0.939c0.24,0,0.381-0.02,0.51-0.06l0.041,0.67
			c-0.17,0.06-0.44,0.12-0.78,0.12c-0.409,0-0.739-0.141-0.949-0.37c-0.24-0.27-0.34-0.699-0.34-1.27v-2.639h-0.75v-0.669h0.75
			v-0.89L576.59,530.478z"/>
	</g>
</g>
</svg>
