<?xml version="1.0" encoding="utf-8"?>
<!-- Generator: Adobe Illustrator 13.0.0, SVG Export Plug-In . SVG Version: 6.00 Build 14948)  -->
<!DOCTYPE svg PUBLIC "-//W3C//DTD SVG 1.1//EN" "http://www.w3.org/Graphics/SVG/1.1/DTD/svg11.dtd">
<svg version="1.1"
	 id="svg4217" xmlns:rdf="http://www.w3.org/1999/02/22-rdf-syntax-ns#" xmlns:sodipodi="http://inkscape.sourceforge.net/DTD/sodipodi-0.dtd" xmlns:cc="http://web.resource.org/cc/" xmlns:xml="http://www.w3.org/XML/1998/namespace" xmlns:inkscape="http://www.inkscape.org/namespaces/inkscape" xmlns:svg="http://www.w3.org/2000/svg" xmlns:dc="http://purl.org/dc/elements/1.1/" sodipodi:docbase="C:\DOCUME~1\pvil005\Desktop\REPOSI~1\SIGNAL~1" sodipodi:version="0.32" sodipodi:docname="BHALLA~1.SVG" inkscape:version="0.40+cvs"
	 xmlns="http://www.w3.org/2000/svg" xmlns:xlink="http://www.w3.org/1999/xlink" x="0px" y="0px" width="423px" height="368px"
	 viewBox="153.445 154.138 423 368" enable-background="new 153.445 154.138 423 368" xml:space="preserve">
<sodipodi:namedview  pagecolor="#ffffff" inkscape:cx="462.88250" bordercolor="#666666" borderopacity="1.0" inkscape:zoom="1.4461070" inkscape:cy="612.45928" id="base" inkscape:current-layer="layer1" inkscape:window-x="5" inkscape:window-width="1260" inkscape:window-height="982" inkscape:pageshadow="2" inkscape:pageopacity="0.0" inkscape:window-y="-9" inkscape:document-units="px">
	</sodipodi:namedview>
<g>
	
		<radialGradient id="path3241_1_" cx="274.9473" cy="349.4951" r="12.2926" gradientTransform="matrix(1 0 0 -1 215.77 844.877)" gradientUnits="userSpaceOnUse">
		<stop  offset="0" style="stop-color:#FDFFDF"/>
		<stop  offset="0.1857" style="stop-color:#FDFFDC"/>
		<stop  offset="0.3249" style="stop-color:#FBFFD2"/>
		<stop  offset="0.4489" style="stop-color:#F9FFC2"/>
		<stop  offset="0.5642" style="stop-color:#F7FFAB"/>
		<stop  offset="0.6733" style="stop-color:#F3FF8E"/>
		<stop  offset="0.7779" style="stop-color:#EEFF6A"/>
		<stop  offset="0.8789" style="stop-color:#E9FF3F"/>
		<stop  offset="0.9746" style="stop-color:#E3FF0E"/>
		<stop  offset="1" style="stop-color:#E1FF00"/>
	</radialGradient>
	<path id="path3241" fill="url(#path3241_1_)" stroke="#000000" d="M502.785,495.382c0,6.911-5.404,12.513-12.066,12.513
		c-6.666,0-12.068-5.602-12.068-12.513c0-6.912,5.402-12.514,12.068-12.514C497.38,482.868,502.785,488.47,502.785,495.382z"/>
	<g enable-background="new    ">
		<path d="M483.591,487.216c0.425-0.09,1.042-0.149,1.611-0.149c0.896,0,1.484,0.18,1.89,0.56c0.318,0.29,0.511,0.75,0.511,1.279
			c0,0.88-0.549,1.469-1.225,1.709v0.03c0.492,0.18,0.791,0.659,0.955,1.359c0.212,0.939,0.366,1.589,0.492,1.849h-0.868
			c-0.106-0.189-0.251-0.77-0.425-1.609c-0.192-0.93-0.549-1.279-1.312-1.309h-0.79v2.918h-0.84V487.216z M484.431,490.274h0.857
			c0.897,0,1.467-0.51,1.467-1.279c0-0.869-0.608-1.249-1.495-1.249c-0.405,0-0.685,0.04-0.829,0.08V490.274z"/>
		<path d="M492.154,492.693c0,0.42,0.02,0.829,0.067,1.159h-0.762l-0.077-0.609h-0.028c-0.251,0.38-0.763,0.72-1.428,0.72
			c-0.945,0-1.427-0.69-1.427-1.39c0-1.169,1.003-1.809,2.806-1.799v-0.101c0-0.399-0.105-1.129-1.061-1.119
			c-0.443,0-0.896,0.13-1.225,0.36l-0.193-0.59c0.386-0.25,0.955-0.42,1.543-0.42c1.438,0,1.784,1.01,1.784,1.979V492.693z
			 M491.325,491.384c-0.926-0.02-1.977,0.15-1.977,1.09c0,0.579,0.366,0.839,0.79,0.839c0.617,0,1.013-0.399,1.148-0.81
			c0.028-0.09,0.038-0.189,0.038-0.279V491.384z"/>
		<path d="M493.397,492.963c0.261,0.16,0.704,0.34,1.129,0.34c0.607,0,0.896-0.31,0.896-0.72c0-0.42-0.241-0.649-0.858-0.89
			c-0.849-0.319-1.244-0.789-1.244-1.369c0-0.779,0.617-1.419,1.611-1.419c0.472,0,0.887,0.13,1.138,0.3l-0.203,0.63
			c-0.183-0.11-0.521-0.28-0.954-0.28c-0.502,0-0.771,0.3-0.771,0.66c0,0.409,0.27,0.59,0.877,0.829
			c0.801,0.31,1.225,0.729,1.225,1.459c0,0.86-0.646,1.46-1.735,1.46c-0.511,0-0.983-0.141-1.312-0.34L493.397,492.963z"/>
	</g>
	<g enable-background="new    ">
		<path d="M487.517,502.48c-0.376,0.149-1.128,0.37-2.006,0.37c-0.983,0-1.793-0.26-2.43-0.89c-0.56-0.56-0.906-1.459-0.906-2.509
			c0-2.009,1.34-3.479,3.52-3.479c0.752,0,1.35,0.17,1.63,0.311l-0.212,0.709c-0.348-0.17-0.781-0.289-1.438-0.289
			c-1.581,0-2.613,1.019-2.613,2.708c0,1.709,0.983,2.719,2.508,2.719c0.549,0,0.926-0.08,1.118-0.18v-2.01h-1.312v-0.699h2.141
			V502.48z"/>
		<path d="M488.781,496.134c0.521-0.08,1.128-0.14,1.793-0.14c1.206,0,2.064,0.279,2.633,0.829c0.589,0.55,0.926,1.34,0.926,2.429
			c0,1.1-0.337,1.999-0.936,2.619c-0.617,0.629-1.62,0.969-2.883,0.969c-0.607,0-1.1-0.02-1.533-0.079V496.134z M489.629,502.101
			c0.212,0.04,0.521,0.04,0.849,0.04c1.793,0.01,2.768-1.039,2.768-2.858c0.01-1.609-0.858-2.599-2.633-2.599
			c-0.434,0-0.762,0.04-0.983,0.09V502.101z"/>
		<path d="M495.212,496.134c0.404-0.08,0.935-0.14,1.61-0.14c0.829,0,1.437,0.2,1.822,0.56c0.356,0.319,0.579,0.81,0.579,1.409
			c0,0.609-0.174,1.09-0.512,1.439c-0.443,0.489-1.167,0.739-1.986,0.739c-0.251,0-0.482-0.01-0.675-0.06v2.698h-0.839V496.134z
			 M496.051,499.372c0.183,0.05,0.424,0.07,0.694,0.07c1.021,0,1.629-0.52,1.629-1.43c0-0.899-0.607-1.329-1.533-1.329
			c-0.366,0-0.646,0.04-0.79,0.07V499.372z"/>
	</g>
</g>
<g>
	
		<radialGradient id="path4135_1_" cx="171.9897" cy="96.0146" r="16.186" gradientTransform="matrix(1.9117 0 0 0.6358 72.2805 388.6227)" gradientUnits="userSpaceOnUse">
		<stop  offset="0" style="stop-color:#A2FF5F"/>
		<stop  offset="0.4082" style="stop-color:#A0FF5F"/>
		<stop  offset="0.5552" style="stop-color:#99FD5F"/>
		<stop  offset="0.66" style="stop-color:#8EFB5E"/>
		<stop  offset="0.7448" style="stop-color:#7DF85E"/>
		<stop  offset="0.8174" style="stop-color:#67F35D"/>
		<stop  offset="0.8817" style="stop-color:#4BEE5C"/>
		<stop  offset="0.9398" style="stop-color:#2BE85B"/>
		<stop  offset="0.9915" style="stop-color:#07E05A"/>
		<stop  offset="1" style="stop-color:#00DF5A"/>
	</radialGradient>
	<path id="path4135" fill="url(#path4135_1_)" stroke="#000000" d="M431.447,449.668c0,5.786-13.604,10.478-30.375,10.478
		c-16.775,0-30.375-4.689-30.375-10.478s13.599-10.476,30.375-10.476C417.843,439.193,431.447,443.881,431.447,449.668z"/>
	<g enable-background="new    ">
		<path d="M386.209,452.519c-0.39,0.149-1.169,0.37-2.079,0.37c-1.02,0-1.859-0.26-2.519-0.89c-0.58-0.56-0.939-1.459-0.939-2.509
			c0-2.009,1.389-3.479,3.648-3.479c0.78,0,1.399,0.17,1.689,0.311l-0.22,0.709c-0.36-0.17-0.81-0.289-1.489-0.289
			c-1.639,0-2.708,1.019-2.708,2.708c0,1.709,1.02,2.719,2.599,2.719c0.57,0,0.959-0.08,1.159-0.18v-2.01h-1.359v-0.699h2.219
			V452.519z"/>
		<path d="M389.541,449.8v0.64h-2.469v-0.64H389.541z"/>
		<path d="M391.453,452.438v0.825c0,0.527-0.065,1.099-0.195,1.714h-0.825c0.088-0.403,0.14-0.679,0.156-0.825
			c0.042-0.456,0.063-0.789,0.063-1.001v-4.99c0-0.583,0.058-1.015,0.173-1.297c0.116-0.281,0.324-0.517,0.625-0.705
			s0.662-0.283,1.082-0.283c0.583,0,1.048,0.156,1.396,0.469s0.522,0.684,0.522,1.113c0,0.276-0.071,0.539-0.212,0.789
			c-0.142,0.248-0.36,0.464-0.657,0.646c0.873,0.417,1.309,1.064,1.309,1.943c0,0.391-0.091,0.755-0.273,1.094
			s-0.433,0.597-0.752,0.773c-0.319,0.178-0.648,0.267-0.986,0.267c-0.218,0-0.434-0.037-0.647-0.112
			S391.759,452.643,391.453,452.438z M391.453,452.052c0.316,0.222,0.591,0.381,0.825,0.479c0.176,0.071,0.352,0.107,0.527,0.107
			c0.329,0,0.604-0.136,0.828-0.407c0.223-0.272,0.334-0.703,0.334-1.292c0-0.371-0.053-0.696-0.159-0.974
			c-0.106-0.279-0.292-0.584-0.559-0.916c-0.225,0.075-0.418,0.112-0.581,0.112c-0.195,0-0.333-0.029-0.413-0.088
			s-0.12-0.122-0.12-0.19c0-0.062,0.031-0.117,0.093-0.166s0.161-0.073,0.298-0.073c0.16,0,0.4,0.042,0.723,0.127
			c0.228-0.452,0.342-0.881,0.342-1.284c0-0.41-0.101-0.728-0.303-0.952s-0.453-0.337-0.752-0.337c-0.377,0-0.67,0.159-0.879,0.479
			c-0.137,0.212-0.205,0.552-0.205,1.021V452.052z"/>
		<path d="M398.099,449.8v0.64h-2.469v-0.64H398.099z"/>
		<path d="M401.696,448.346h0.815c-0.052,0.117-0.321,0.674-0.806,1.67c-0.202,0.417-0.347,0.732-0.435,0.947
			c-0.039,0.088-0.083,0.184-0.132,0.288l-0.562,1.201c0.023,0.208,0.039,0.4,0.049,0.576s0.015,0.335,0.015,0.479
			c0,0.442-0.033,0.784-0.098,1.025c-0.045,0.169-0.106,0.286-0.181,0.349c-0.075,0.064-0.156,0.096-0.244,0.096
			c-0.107,0-0.203-0.046-0.286-0.137s-0.125-0.208-0.125-0.352c0-0.251,0.05-0.539,0.151-0.867c0.101-0.326,0.25-0.693,0.449-1.101
			c-0.238-1.667-0.427-2.673-0.569-3.018s-0.338-0.518-0.588-0.518c-0.153,0-0.273,0.046-0.361,0.14
			c-0.088,0.092-0.155,0.302-0.2,0.627h-0.19c-0.003-0.098-0.005-0.171-0.005-0.22c0-0.449,0.088-0.788,0.264-1.016
			c0.133-0.169,0.313-0.254,0.537-0.254c0.195,0,0.355,0.059,0.479,0.176c0.169,0.166,0.321,0.527,0.454,1.084
			c0.169,0.723,0.301,1.509,0.396,2.358l0.43-1.45C401.146,449.779,401.393,449.085,401.696,448.346z"/>
		<path d="M405.28,449.8v0.64h-2.469v-0.64H405.28z"/>
		<path d="M411.478,452.519c-0.39,0.149-1.169,0.37-2.079,0.37c-1.02,0-1.859-0.26-2.519-0.89c-0.58-0.56-0.939-1.459-0.939-2.509
			c0-2.009,1.389-3.479,3.648-3.479c0.78,0,1.399,0.17,1.689,0.311l-0.22,0.709c-0.36-0.17-0.81-0.289-1.489-0.289
			c-1.639,0-2.708,1.019-2.708,2.708c0,1.709,1.02,2.719,2.599,2.719c0.57,0,0.959-0.08,1.159-0.18v-2.01h-1.359v-0.699h2.219
			V452.519z"/>
		<path d="M416.279,449.66h-2.609v2.429h2.918v0.729h-3.798v-6.736h3.648v0.729h-2.769v2.129h2.609V449.66z"/>
		<path d="M417.71,446.082h3.628v0.729h-2.749v2.239h2.539v0.72h-2.539v3.048h-0.879V446.082z"/>
	</g>
</g>
<g>
	
		<radialGradient id="path4091_1_" cx="262.6196" cy="221.9058" r="16.186" gradientTransform="matrix(1.0057 0 0 0.5335 3.944 306.571)" gradientUnits="userSpaceOnUse">
		<stop  offset="0" style="stop-color:#A2FF5F"/>
		<stop  offset="0.4082" style="stop-color:#A0FF5F"/>
		<stop  offset="0.5552" style="stop-color:#99FD5F"/>
		<stop  offset="0.66" style="stop-color:#8EFB5E"/>
		<stop  offset="0.7448" style="stop-color:#7DF85E"/>
		<stop  offset="0.8174" style="stop-color:#67F35D"/>
		<stop  offset="0.8817" style="stop-color:#4BEE5C"/>
		<stop  offset="0.9398" style="stop-color:#2BE85B"/>
		<stop  offset="0.9915" style="stop-color:#07E05A"/>
		<stop  offset="1" style="stop-color:#00DF5A"/>
	</radialGradient>
	<path id="path4091_2_" fill="url(#path4091_1_)" stroke="#000000" d="M284.041,424.958c0,4.854-7.156,8.791-15.979,8.791
		c-8.825,0-15.979-3.936-15.979-8.791c0-4.857,7.154-8.791,15.979-8.791C276.884,416.167,284.041,420.101,284.041,424.958z"/>
	<g enable-background="new    ">
		<path d="M262.859,427.808c-0.39,0.149-1.169,0.37-2.079,0.37c-1.02,0-1.859-0.26-2.519-0.89c-0.58-0.56-0.939-1.459-0.939-2.509
			c0-2.009,1.389-3.479,3.648-3.479c0.78,0,1.399,0.17,1.689,0.311l-0.22,0.709c-0.36-0.17-0.81-0.289-1.489-0.289
			c-1.639,0-2.708,1.019-2.708,2.708c0,1.709,1.02,2.719,2.599,2.719c0.57,0,0.959-0.08,1.159-0.18v-2.01h-1.359v-0.699h2.219
			V427.808z"/>
		<path d="M266.19,425.089v0.64h-2.469v-0.64H266.19z"/>
		<path d="M268.103,427.727v0.825c0,0.527-0.065,1.099-0.195,1.714h-0.825c0.088-0.403,0.14-0.679,0.156-0.825
			c0.042-0.456,0.063-0.789,0.063-1.001v-4.99c0-0.583,0.058-1.015,0.173-1.297c0.116-0.281,0.324-0.517,0.625-0.705
			s0.662-0.283,1.082-0.283c0.583,0,1.048,0.156,1.396,0.469s0.522,0.684,0.522,1.113c0,0.276-0.071,0.539-0.212,0.789
			c-0.142,0.248-0.36,0.464-0.657,0.646c0.873,0.417,1.309,1.064,1.309,1.943c0,0.391-0.091,0.755-0.273,1.094
			s-0.433,0.597-0.752,0.773c-0.319,0.178-0.648,0.267-0.986,0.267c-0.218,0-0.434-0.037-0.647-0.112
			S268.409,427.932,268.103,427.727z M268.103,427.341c0.316,0.222,0.591,0.381,0.825,0.479c0.176,0.071,0.352,0.107,0.527,0.107
			c0.329,0,0.604-0.136,0.828-0.407c0.223-0.272,0.334-0.703,0.334-1.292c0-0.371-0.053-0.696-0.159-0.974
			c-0.106-0.279-0.292-0.584-0.559-0.916c-0.225,0.075-0.418,0.112-0.581,0.112c-0.195,0-0.333-0.029-0.413-0.088
			s-0.12-0.122-0.12-0.19c0-0.062,0.031-0.117,0.093-0.166s0.161-0.073,0.298-0.073c0.16,0,0.4,0.042,0.723,0.127
			c0.228-0.452,0.342-0.881,0.342-1.284c0-0.41-0.101-0.728-0.303-0.952s-0.453-0.337-0.752-0.337c-0.377,0-0.67,0.159-0.879,0.479
			c-0.137,0.212-0.205,0.552-0.205,1.021V427.341z"/>
		<path d="M274.749,425.089v0.64h-2.469v-0.64H274.749z"/>
		<path d="M278.346,423.635h0.815c-0.052,0.117-0.321,0.674-0.806,1.67c-0.202,0.417-0.347,0.732-0.435,0.947
			c-0.039,0.088-0.083,0.184-0.132,0.288l-0.562,1.201c0.023,0.208,0.039,0.4,0.049,0.576s0.015,0.335,0.015,0.479
			c0,0.442-0.033,0.784-0.098,1.025c-0.045,0.169-0.106,0.286-0.181,0.349c-0.075,0.064-0.156,0.096-0.244,0.096
			c-0.107,0-0.203-0.046-0.286-0.137s-0.125-0.208-0.125-0.352c0-0.251,0.05-0.539,0.151-0.867c0.101-0.326,0.25-0.693,0.449-1.101
			c-0.238-1.667-0.427-2.673-0.569-3.018s-0.338-0.518-0.588-0.518c-0.153,0-0.273,0.046-0.361,0.14
			c-0.088,0.092-0.155,0.302-0.2,0.627h-0.19c-0.003-0.098-0.005-0.171-0.005-0.22c0-0.449,0.088-0.788,0.264-1.016
			c0.133-0.169,0.313-0.254,0.537-0.254c0.195,0,0.355,0.059,0.479,0.176c0.169,0.166,0.321,0.527,0.454,1.084
			c0.169,0.723,0.301,1.509,0.396,2.358l0.43-1.45C277.795,425.068,278.043,424.374,278.346,423.635z"/>
	</g>
</g>
<radialGradient id="path4091_3_" cx="184.0542" cy="69.3955" r="16.186" gradientTransform="matrix(1.0057 0 0 0.5335 3.944 306.571)" gradientUnits="userSpaceOnUse">
	<stop  offset="0" style="stop-color:#A2FF5F"/>
	<stop  offset="0.4082" style="stop-color:#A0FF5F"/>
	<stop  offset="0.5552" style="stop-color:#99FD5F"/>
	<stop  offset="0.66" style="stop-color:#8EFB5E"/>
	<stop  offset="0.7448" style="stop-color:#7DF85E"/>
	<stop  offset="0.8174" style="stop-color:#67F35D"/>
	<stop  offset="0.8817" style="stop-color:#4BEE5C"/>
	<stop  offset="0.9398" style="stop-color:#2BE85B"/>
	<stop  offset="0.9915" style="stop-color:#07E05A"/>
	<stop  offset="1" style="stop-color:#00DF5A"/>
</radialGradient>
<path id="path4091" fill="url(#path4091_3_)" stroke="#000000" d="M205.027,343.594c0,4.854-7.156,8.791-15.979,8.791
	c-8.825,0-15.979-3.936-15.979-8.791c0-4.857,7.154-8.791,15.979-8.791C197.871,334.803,205.027,338.736,205.027,343.594z"/>
<g enable-background="new    ">
	<path d="M184.745,346.229c-0.39,0.149-1.169,0.37-2.079,0.37c-1.02,0-1.859-0.26-2.519-0.89c-0.58-0.56-0.939-1.459-0.939-2.509
		c0-2.009,1.389-3.479,3.648-3.479c0.78,0,1.399,0.17,1.689,0.311l-0.22,0.709c-0.36-0.17-0.81-0.289-1.489-0.289
		c-1.639,0-2.708,1.019-2.708,2.708c0,1.709,1.02,2.719,2.599,2.719c0.57,0,0.959-0.08,1.159-0.18v-2.01h-1.359v-0.699h2.219
		V346.229z"/>
	<path d="M189.545,343.371h-2.609v2.429h2.918v0.729h-3.798v-6.736h3.648v0.729h-2.769v2.129h2.609V343.371z"/>
	<path d="M190.977,339.793h3.628v0.729h-2.749v2.239h2.539v0.72h-2.539v3.048h-0.879V339.793z"/>
	<path d="M198.386,340.033l-0.949,1.239v0.02l1.509-0.2v0.68l-1.509-0.18v0.021l0.959,1.209l-0.63,0.35l-0.609-1.399h-0.02
		l-0.64,1.409l-0.57-0.359l0.949-1.22v-0.02l-1.479,0.189v-0.68l1.469,0.19v-0.021l-0.939-1.229l0.61-0.34l0.62,1.379h0.02
		l0.609-1.39L198.386,340.033z"/>
</g>
<g>
	
		<radialGradient id="path4108_1_" cx="183.0225" cy="71.6323" r="16.186" gradientTransform="matrix(1.0057 0 0 0.5335 110.817 305.3776)" gradientUnits="userSpaceOnUse">
		<stop  offset="0" style="stop-color:#A2FF5F"/>
		<stop  offset="0.4082" style="stop-color:#A0FF5F"/>
		<stop  offset="0.5552" style="stop-color:#99FD5F"/>
		<stop  offset="0.66" style="stop-color:#8EFB5E"/>
		<stop  offset="0.7448" style="stop-color:#7DF85E"/>
		<stop  offset="0.8174" style="stop-color:#67F35D"/>
		<stop  offset="0.8817" style="stop-color:#4BEE5C"/>
		<stop  offset="0.9398" style="stop-color:#2BE85B"/>
		<stop  offset="0.9915" style="stop-color:#07E05A"/>
		<stop  offset="1" style="stop-color:#00DF5A"/>
	</radialGradient>
	<path id="path4108" fill="url(#path4108_1_)" stroke="#000000" d="M310.862,343.594c0,4.854-7.157,8.791-15.979,8.791
		c-8.825,0-15.979-3.936-15.979-8.791c0-4.857,7.154-8.791,15.979-8.791C303.706,334.803,310.862,338.736,310.862,343.594z"/>
	<g enable-background="new    ">
		<path d="M292.655,346.229c-0.39,0.149-1.169,0.37-2.079,0.37c-1.02,0-1.859-0.26-2.519-0.89c-0.58-0.56-0.939-1.459-0.939-2.509
			c0-2.009,1.389-3.479,3.648-3.479c0.78,0,1.399,0.17,1.689,0.311l-0.22,0.709c-0.36-0.17-0.81-0.289-1.489-0.289
			c-1.639,0-2.708,1.019-2.708,2.708c0,1.709,1.02,2.719,2.599,2.719c0.57,0,0.959-0.08,1.159-0.18v-2.01h-1.359v-0.699h2.219
			V346.229z"/>
		<path d="M297.456,343.371h-2.609v2.429h2.918v0.729h-3.798v-6.736h3.648v0.729h-2.769v2.129h2.609V343.371z"/>
		<path d="M298.887,339.793h3.628v0.729h-2.749v2.239h2.539v0.72h-2.539v3.048h-0.879V339.793z"/>
	</g>
</g>
<g>
	
		<radialGradient id="path4118_1_" cx="183.9199" cy="70.6045" r="16.1865" gradientTransform="matrix(1.0057 0 0 0.5335 216.1031 305.9255)" gradientUnits="userSpaceOnUse">
		<stop  offset="0" style="stop-color:#A2FF5F"/>
		<stop  offset="0.4082" style="stop-color:#A0FF5F"/>
		<stop  offset="0.5552" style="stop-color:#99FD5F"/>
		<stop  offset="0.66" style="stop-color:#8EFB5E"/>
		<stop  offset="0.7448" style="stop-color:#7DF85E"/>
		<stop  offset="0.8174" style="stop-color:#67F35D"/>
		<stop  offset="0.8817" style="stop-color:#4BEE5C"/>
		<stop  offset="0.9398" style="stop-color:#2BE85B"/>
		<stop  offset="0.9915" style="stop-color:#07E05A"/>
		<stop  offset="1" style="stop-color:#00DF5A"/>
	</radialGradient>
	<path id="path4118" fill="url(#path4118_1_)" stroke="#000000" d="M417.051,343.593c0,4.855-7.157,8.792-15.979,8.792
		c-8.825,0-15.979-3.936-15.979-8.792c0-4.857,7.154-8.791,15.979-8.791C409.895,334.803,417.051,338.736,417.051,343.593z"/>
	<g enable-background="new    ">
		<path d="M397.189,345.885c-0.39,0.149-1.169,0.37-2.079,0.37c-1.02,0-1.859-0.26-2.519-0.89c-0.58-0.56-0.939-1.459-0.939-2.509
			c0-2.009,1.389-3.479,3.648-3.479c0.78,0,1.399,0.17,1.689,0.311l-0.22,0.709c-0.36-0.17-0.81-0.289-1.489-0.289
			c-1.639,0-2.708,1.019-2.708,2.708c0,1.709,1.02,2.719,2.599,2.719c0.57,0,0.959-0.08,1.159-0.18v-2.01h-1.359v-0.699h2.219
			V345.885z"/>
		<path d="M401.99,343.026h-2.609v2.429h2.918v0.729h-3.798v-6.736h3.648v0.729h-2.769v2.129h2.609V343.026z"/>
		<path d="M403.422,339.448h3.628v0.729h-2.749v2.239h2.539v0.72h-2.539v3.048h-0.879V339.448z"/>
		<path d="M410.831,339.688l-0.949,1.239v0.02l1.509-0.2v0.68l-1.509-0.18v0.021l0.959,1.209l-0.63,0.35l-0.609-1.399h-0.02
			l-0.64,1.409l-0.57-0.359l0.949-1.22v-0.02l-1.479,0.189v-0.68l1.469,0.19v-0.021l-0.939-1.229l0.61-0.34l0.62,1.379h0.02
			l0.609-1.39L410.831,339.688z"/>
	</g>
</g>
<g>
	
		<radialGradient id="path4128_1_" cx="184.1411" cy="38.998" r="16.1863" gradientTransform="matrix(1.0057 0 0 0.5335 6.7921 473.3102)" gradientUnits="userSpaceOnUse">
		<stop  offset="0" style="stop-color:#A2FF5F"/>
		<stop  offset="0.4082" style="stop-color:#A0FF5F"/>
		<stop  offset="0.5552" style="stop-color:#99FD5F"/>
		<stop  offset="0.66" style="stop-color:#8EFB5E"/>
		<stop  offset="0.7448" style="stop-color:#7DF85E"/>
		<stop  offset="0.8174" style="stop-color:#67F35D"/>
		<stop  offset="0.8817" style="stop-color:#4BEE5C"/>
		<stop  offset="0.9398" style="stop-color:#2BE85B"/>
		<stop  offset="0.9915" style="stop-color:#07E05A"/>
		<stop  offset="1" style="stop-color:#00DF5A"/>
	</radialGradient>
	<path id="path4128" fill="url(#path4128_1_)" stroke="#000000" d="M207.962,494.115c0,4.855-7.157,8.792-15.979,8.792
		c-8.825,0-15.979-3.935-15.979-8.792c0-4.856,7.154-8.791,15.979-8.791C200.806,485.325,207.962,489.26,207.962,494.115z"/>
	<g enable-background="new    ">
		<path d="M189.505,496.407c-0.39,0.149-1.169,0.37-2.079,0.37c-1.02,0-1.859-0.26-2.519-0.89c-0.58-0.56-0.939-1.459-0.939-2.509
			c0-2.009,1.389-3.479,3.648-3.479c0.78,0,1.399,0.17,1.689,0.311l-0.22,0.709c-0.36-0.17-0.81-0.289-1.489-0.289
			c-1.639,0-2.708,1.019-2.708,2.708c0,1.709,1.02,2.719,2.599,2.719c0.57,0,0.959-0.08,1.159-0.18v-2.01h-1.359v-0.699h2.219
			V496.407z"/>
		<path d="M191.917,494.588l-0.7,2.119h-0.899l2.289-6.736h1.049l2.299,6.736h-0.93l-0.719-2.119H191.917z M194.125,493.908
			l-0.669-1.938c-0.14-0.439-0.24-0.84-0.34-1.229h-0.03c-0.09,0.39-0.2,0.81-0.33,1.22l-0.66,1.948H194.125z"/>
		<path d="M196.948,490.061c0.419-0.08,0.969-0.14,1.669-0.14c0.859,0,1.489,0.2,1.889,0.56c0.37,0.319,0.6,0.81,0.6,1.409
			c0,0.609-0.18,1.09-0.53,1.439c-0.46,0.489-1.209,0.739-2.059,0.739c-0.26,0-0.5-0.01-0.7-0.06v2.698h-0.869V490.061z
			 M197.817,493.299c0.19,0.05,0.44,0.07,0.72,0.07c1.06,0,1.689-0.52,1.689-1.43c0-0.899-0.629-1.329-1.589-1.329
			c-0.38,0-0.67,0.04-0.82,0.07V493.299z"/>
	</g>
</g>
<g>
	
		<radialGradient id="path4138_1_" cx="184.9507" cy="38.998" r="16.1863" gradientTransform="matrix(1.0057 0 0 0.5335 113.8595 473.3102)" gradientUnits="userSpaceOnUse">
		<stop  offset="0" style="stop-color:#A2FF5F"/>
		<stop  offset="0.4082" style="stop-color:#A0FF5F"/>
		<stop  offset="0.5552" style="stop-color:#99FD5F"/>
		<stop  offset="0.66" style="stop-color:#8EFB5E"/>
		<stop  offset="0.7448" style="stop-color:#7DF85E"/>
		<stop  offset="0.8174" style="stop-color:#67F35D"/>
		<stop  offset="0.8817" style="stop-color:#4BEE5C"/>
		<stop  offset="0.9398" style="stop-color:#2BE85B"/>
		<stop  offset="0.9915" style="stop-color:#07E05A"/>
		<stop  offset="1" style="stop-color:#00DF5A"/>
	</radialGradient>
	<path id="path4138" fill="url(#path4138_1_)" stroke="#000000" d="M315.844,494.115c0,4.855-7.157,8.792-15.979,8.792
		c-8.825,0-15.979-3.935-15.979-8.792c0-4.856,7.154-8.791,15.979-8.791C308.688,485.325,315.844,489.26,315.844,494.115z"/>
	<g enable-background="new    ">
		<path d="M295.758,496.407c-0.39,0.149-1.169,0.37-2.079,0.37c-1.02,0-1.859-0.26-2.519-0.89c-0.58-0.56-0.939-1.459-0.939-2.509
			c0-2.009,1.389-3.479,3.648-3.479c0.78,0,1.399,0.17,1.689,0.311l-0.22,0.709c-0.36-0.17-0.81-0.289-1.489-0.289
			c-1.639,0-2.708,1.019-2.708,2.708c0,1.709,1.02,2.719,2.599,2.719c0.57,0,0.959-0.08,1.159-0.18v-2.01h-1.359v-0.699h2.219
			V496.407z"/>
		<path d="M298.17,494.588l-0.7,2.119h-0.899l2.289-6.736h1.049l2.299,6.736h-0.93l-0.719-2.119H298.17z M300.378,493.908
			l-0.669-1.938c-0.14-0.439-0.24-0.84-0.34-1.229h-0.03c-0.09,0.39-0.2,0.81-0.33,1.22l-0.66,1.948H300.378z"/>
		<path d="M303.201,490.061c0.419-0.08,0.969-0.14,1.669-0.14c0.859,0,1.489,0.2,1.889,0.56c0.37,0.319,0.6,0.81,0.6,1.409
			c0,0.609-0.18,1.09-0.53,1.439c-0.46,0.489-1.209,0.739-2.059,0.739c-0.26,0-0.5-0.01-0.7-0.06v2.698h-0.869V490.061z
			 M304.07,493.299c0.19,0.05,0.44,0.07,0.72,0.07c1.06,0,1.689-0.52,1.689-1.43c0-0.899-0.629-1.329-1.589-1.329
			c-0.38,0-0.67,0.04-0.82,0.07V493.299z"/>
		<path d="M311.049,490.211l-0.949,1.239v0.02l1.509-0.2v0.68l-1.509-0.18v0.021l0.959,1.209l-0.63,0.35l-0.609-1.399h-0.02
			l-0.64,1.409l-0.57-0.359l0.949-1.22v-0.02l-1.479,0.189v-0.68l1.469,0.19v-0.021l-0.939-1.229l0.609-0.34l0.62,1.379h0.02
			l0.61-1.39L311.049,490.211z"/>
	</g>
</g>
<g>
	<g id="g4067" transform="matrix(0.778790,0.000000,0.000000,0.969011,-32.50401,-249.2769)">
		<g id="g4069" transform="matrix(1.228309,0.000000,0.000000,1.000000,87.81894,114.4454)">
			
				<radialGradient id="path4071_1_" cx="133.1864" cy="242.2131" r="16.1853" gradientTransform="matrix(1.9238 0 0 0.6358 -9.1217 257.2674)" gradientUnits="userSpaceOnUse">
				<stop  offset="0" style="stop-color:#A2FF5F"/>
				<stop  offset="0.4082" style="stop-color:#A0FF5F"/>
				<stop  offset="0.5552" style="stop-color:#99FD5F"/>
				<stop  offset="0.66" style="stop-color:#8EFB5E"/>
				<stop  offset="0.7448" style="stop-color:#7DF85E"/>
				<stop  offset="0.8174" style="stop-color:#67F35D"/>
				<stop  offset="0.8817" style="stop-color:#4BEE5C"/>
				<stop  offset="0.9398" style="stop-color:#2BE85B"/>
				<stop  offset="0.9915" style="stop-color:#07E05A"/>
				<stop  offset="1" style="stop-color:#00DF5A"/>
			</radialGradient>
			<path id="path4071" fill="url(#path4071_1_)" stroke="#000000" d="M279.057,411.266c0,5.971-14.311,10.812-31.954,10.812
				c-17.647,0-31.953-4.839-31.953-10.812s14.307-10.811,31.953-10.811C264.746,400.456,279.057,405.294,279.057,411.266z"/>
		</g>
	</g>
	<g enable-background="new    ">
		<path d="M260.607,262.524c-0.31,0.16-0.959,0.32-1.779,0.32c-1.899,0-3.318-1.2-3.318-3.419c0-2.118,1.429-3.538,3.518-3.538
			c0.83,0,1.369,0.181,1.599,0.3l-0.22,0.71c-0.32-0.16-0.79-0.279-1.35-0.279c-1.579,0-2.628,1.009-2.628,2.778
			c0,1.659,0.95,2.708,2.579,2.708c0.54,0,1.08-0.109,1.429-0.279L260.607,262.524z"/>
		<path d="M265.018,261.575c0,0.42,0.02,0.829,0.07,1.159h-0.79l-0.08-0.609h-0.03c-0.26,0.38-0.79,0.72-1.479,0.72
			c-0.979,0-1.479-0.69-1.479-1.39c0-1.169,1.04-1.809,2.909-1.799v-0.101c0-0.399-0.11-1.129-1.1-1.119
			c-0.459,0-0.929,0.13-1.269,0.36l-0.2-0.59c0.4-0.25,0.99-0.42,1.599-0.42c1.489,0,1.849,1.01,1.849,1.979V261.575z
			 M264.159,260.266c-0.959-0.02-2.049,0.15-2.049,1.09c0,0.579,0.379,0.839,0.819,0.839c0.64,0,1.049-0.399,1.189-0.81
			c0.03-0.09,0.04-0.189,0.04-0.279V260.266z"/>
		<path d="M268.869,262.734v-1.769h-3.019v-0.57l2.898-4.157h0.95v4.048h0.909v0.68h-0.909v1.769H268.869z M268.869,260.286v-2.18
			c0-0.339,0.01-0.679,0.03-1.019h-0.03c-0.2,0.379-0.36,0.659-0.54,0.969l-1.589,2.209v0.021H268.869z"/>
		<path d="M273.599,259.716v0.64h-2.469v-0.64H273.599z"/>
		<path d="M279.357,262.524c-0.31,0.16-0.959,0.32-1.779,0.32c-1.899,0-3.318-1.2-3.318-3.419c0-2.118,1.429-3.538,3.518-3.538
			c0.83,0,1.369,0.181,1.599,0.3l-0.22,0.71c-0.32-0.16-0.79-0.279-1.35-0.279c-1.579,0-2.628,1.009-2.628,2.778
			c0,1.659,0.95,2.708,2.579,2.708c0.54,0,1.08-0.109,1.429-0.279L279.357,262.524z"/>
		<path d="M283.768,261.575c0,0.42,0.02,0.829,0.07,1.159h-0.79l-0.08-0.609h-0.03c-0.26,0.38-0.79,0.72-1.479,0.72
			c-0.979,0-1.479-0.69-1.479-1.39c0-1.169,1.04-1.809,2.909-1.799v-0.101c0-0.399-0.11-1.129-1.1-1.119
			c-0.459,0-0.929,0.13-1.269,0.36l-0.2-0.59c0.4-0.25,0.99-0.42,1.599-0.42c1.489,0,1.849,1.01,1.849,1.979V261.575z
			 M282.908,260.266c-0.959-0.02-2.049,0.15-2.049,1.09c0,0.579,0.379,0.839,0.819,0.839c0.64,0,1.049-0.399,1.189-0.81
			c0.03-0.09,0.04-0.189,0.04-0.279V260.266z"/>
		<path d="M290.886,259.776c-0.05-0.939-0.11-2.079-0.11-2.909h-0.02c-0.24,0.78-0.51,1.63-0.85,2.559l-1.189,3.269h-0.66
			l-1.099-3.208c-0.32-0.96-0.58-1.819-0.77-2.619h-0.02c-0.02,0.84-0.07,1.959-0.13,2.979l-0.18,2.889h-0.83l0.47-6.736h1.109
			l1.149,3.258c0.28,0.83,0.5,1.569,0.68,2.27h0.02c0.18-0.68,0.42-1.42,0.72-2.27l1.199-3.258h1.109l0.42,6.736h-0.86
			L290.886,259.776z"/>
	</g>
</g>
<path id="path7720" sodipodi:nodetypes="cc" d="M364.589,354.409"/>
<path id="path10200" sodipodi:nodetypes="cc" d="M275.107,237.499"/>
<g>
	<g id="g4079" transform="translate(-54.79977,-280.2894)">
		<g id="g4081" transform="matrix(1.228309,0.000000,0.000000,1.000000,87.81894,114.4454)">
			
				<radialGradient id="path4083_1_" cx="115.8433" cy="278.3362" r="16.1863" gradientTransform="matrix(1.7489 0 0 0.6154 97.0439 225.9484)" gradientUnits="userSpaceOnUse">
				<stop  offset="0" style="stop-color:#A2FF5F"/>
				<stop  offset="0.4082" style="stop-color:#A0FF5F"/>
				<stop  offset="0.5552" style="stop-color:#99FD5F"/>
				<stop  offset="0.66" style="stop-color:#8EFB5E"/>
				<stop  offset="0.7448" style="stop-color:#7DF85E"/>
				<stop  offset="0.8174" style="stop-color:#67F35D"/>
				<stop  offset="0.8817" style="stop-color:#4BEE5C"/>
				<stop  offset="0.9398" style="stop-color:#2BE85B"/>
				<stop  offset="0.9915" style="stop-color:#07E05A"/>
				<stop  offset="1" style="stop-color:#00DF5A"/>
			</radialGradient>
			<path id="path4083" fill="url(#path4083_1_)" stroke="#000000" d="M322.266,397.237c0,5.601-10.133,10.141-22.624,10.141
				c-12.494,0-22.623-4.538-22.623-10.141s10.129-10.141,22.623-10.141C312.133,387.097,322.266,391.635,322.266,397.237z"/>
		</g>
		<g enable-background="new    ">
			<path d="M442.31,514.642c-0.31,0.16-0.959,0.32-1.779,0.32c-1.899,0-3.318-1.2-3.318-3.419c0-2.118,1.429-3.538,3.518-3.538
				c0.83,0,1.369,0.181,1.599,0.3l-0.22,0.71c-0.32-0.16-0.79-0.279-1.35-0.279c-1.579,0-2.628,1.009-2.628,2.778
				c0,1.659,0.95,2.708,2.579,2.708c0.54,0,1.08-0.109,1.429-0.279L442.31,514.642z"/>
			<path d="M446.721,513.693c0,0.42,0.02,0.829,0.07,1.159h-0.79l-0.08-0.609h-0.03c-0.26,0.38-0.79,0.72-1.479,0.72
				c-0.979,0-1.479-0.69-1.479-1.39c0-1.169,1.04-1.809,2.909-1.799v-0.101c0-0.399-0.11-1.129-1.1-1.119
				c-0.459,0-0.929,0.13-1.269,0.36l-0.2-0.59c0.4-0.25,0.99-0.42,1.599-0.42c1.489,0,1.849,1.01,1.849,1.979V513.693z
				 M445.861,512.383c-0.959-0.02-2.049,0.15-2.049,1.09c0,0.579,0.379,0.839,0.819,0.839c0.64,0,1.049-0.399,1.189-0.81
				c0.03-0.09,0.04-0.189,0.04-0.279V512.383z"/>
			<path d="M453.839,511.894c-0.05-0.939-0.11-2.079-0.11-2.909h-0.02c-0.24,0.78-0.51,1.63-0.85,2.559l-1.189,3.269h-0.66
				l-1.099-3.208c-0.32-0.96-0.58-1.819-0.77-2.619h-0.02c-0.02,0.84-0.07,1.959-0.13,2.979l-0.18,2.889h-0.83l0.47-6.736h1.109
				l1.149,3.258c0.28,0.83,0.5,1.569,0.68,2.27h0.02c0.18-0.68,0.42-1.42,0.72-2.27l1.199-3.258h1.109l0.42,6.736h-0.86
				L453.839,511.894z"/>
			<path d="M458.211,511.833v0.64h-2.469v-0.64H458.211z"/>
			<path d="M464.41,514.552c-0.39,0.149-1.169,0.37-2.079,0.37c-1.02,0-1.859-0.26-2.519-0.89c-0.58-0.56-0.939-1.459-0.939-2.509
				c0-2.009,1.389-3.479,3.648-3.479c0.78,0,1.399,0.17,1.689,0.311l-0.22,0.709c-0.36-0.17-0.81-0.289-1.489-0.289
				c-1.639,0-2.708,1.019-2.708,2.708c0,1.709,1.02,2.719,2.599,2.719c0.57,0,0.959-0.08,1.159-0.18v-2.01h-1.359v-0.699h2.219
				V514.552z"/>
			<path d="M469.21,511.694h-2.609v2.429h2.918v0.729h-3.798v-6.736h3.648v0.729h-2.769v2.129h2.609V511.694z"/>
			<path d="M470.642,508.116h3.628v0.729h-2.749v2.239h2.539v0.72h-2.539v3.048h-0.879V508.116z"/>
		</g>
	</g>
	<path id="path11771" sodipodi:nodetypes="cc" d="M401.072,231.393"/>
</g>
<path id="path11773" sodipodi:nodetypes="cc" d="M237.459,70.101"/>
<path id="path11775" sodipodi:nodetypes="cc" d="M329.946,157.74"/>
<radialGradient id="path11626_1_" cx="275.2529" cy="349.708" r="12.2921" gradientTransform="matrix(1 0 0 -1 215.77 635.6621)" gradientUnits="userSpaceOnUse">
	<stop  offset="0" style="stop-color:#FDFFDF"/>
	<stop  offset="0.1857" style="stop-color:#FDFFDC"/>
	<stop  offset="0.3249" style="stop-color:#FBFFD2"/>
	<stop  offset="0.4489" style="stop-color:#F9FFC2"/>
	<stop  offset="0.5642" style="stop-color:#F7FFAB"/>
	<stop  offset="0.6733" style="stop-color:#F3FF8E"/>
	<stop  offset="0.7779" style="stop-color:#EEFF6A"/>
	<stop  offset="0.8789" style="stop-color:#E9FF3F"/>
	<stop  offset="0.9746" style="stop-color:#E3FF0E"/>
	<stop  offset="1" style="stop-color:#E1FF00"/>
</radialGradient>
<path id="path11626" fill="url(#path11626_1_)" stroke="#000000" d="M503.09,285.954c0,6.911-5.404,12.514-12.066,12.514
	c-6.666,0-12.068-5.603-12.068-12.514s5.402-12.513,12.068-12.513C497.686,273.441,503.09,279.043,503.09,285.954z"/>
<g enable-background="new    ">
	<path d="M483.589,277.79c0.426-0.09,1.043-0.15,1.611-0.15c0.896,0,1.484,0.18,1.891,0.56c0.318,0.29,0.51,0.75,0.51,1.279
		c0,0.879-0.549,1.469-1.225,1.709v0.03c0.492,0.18,0.791,0.659,0.955,1.359c0.213,0.939,0.367,1.589,0.492,1.849h-0.867
		c-0.107-0.19-0.252-0.77-0.426-1.609c-0.191-0.93-0.549-1.279-1.311-1.31h-0.791v2.918h-0.84V277.79z M484.429,280.848h0.857
		c0.898,0,1.467-0.51,1.467-1.279c0-0.87-0.607-1.249-1.494-1.249c-0.406,0-0.686,0.04-0.83,0.08V280.848z"/>
	<path d="M492.152,283.267c0,0.419,0.02,0.83,0.068,1.159h-0.762l-0.078-0.61h-0.027c-0.252,0.38-0.764,0.72-1.428,0.72
		c-0.945,0-1.428-0.689-1.428-1.389c0-1.169,1.004-1.809,2.807-1.799v-0.1c0-0.4-0.105-1.129-1.061-1.12
		c-0.443,0-0.896,0.13-1.225,0.36l-0.193-0.589c0.385-0.25,0.955-0.42,1.543-0.42c1.438,0,1.783,1.009,1.783,1.979V283.267z
		 M491.324,281.957c-0.926-0.02-1.977,0.15-1.977,1.089c0,0.58,0.365,0.84,0.789,0.84c0.617,0,1.014-0.4,1.148-0.81
		c0.029-0.09,0.039-0.19,0.039-0.28V281.957z"/>
	<path d="M493.396,283.536c0.26,0.16,0.703,0.34,1.129,0.34c0.607,0,0.896-0.31,0.896-0.72c0-0.419-0.242-0.649-0.859-0.889
		c-0.848-0.32-1.244-0.79-1.244-1.369c0-0.78,0.617-1.419,1.611-1.419c0.473,0,0.887,0.13,1.139,0.3l-0.203,0.63
		c-0.184-0.11-0.521-0.28-0.955-0.28c-0.502,0-0.771,0.3-0.771,0.66c0,0.41,0.27,0.59,0.877,0.83
		c0.801,0.31,1.225,0.729,1.225,1.459c0,0.859-0.645,1.459-1.734,1.459c-0.512,0-0.984-0.14-1.313-0.34L493.396,283.536z"/>
</g>
<g enable-background="new    ">
	<path d="M487.515,293.054c-0.375,0.15-1.127,0.37-2.006,0.37c-0.982,0-1.793-0.26-2.43-0.889c-0.559-0.56-0.906-1.459-0.906-2.509
		c0-2.009,1.34-3.478,3.52-3.478c0.752,0,1.35,0.17,1.631,0.31l-0.213,0.71c-0.348-0.17-0.781-0.29-1.438-0.29
		c-1.58,0-2.613,1.02-2.613,2.708c0,1.709,0.984,2.719,2.508,2.719c0.549,0,0.926-0.08,1.119-0.18v-2.009h-1.313v-0.7h2.141V293.054
		z"/>
	<path d="M488.779,286.707c0.521-0.08,1.129-0.14,1.793-0.14c1.207,0,2.064,0.28,2.633,0.83c0.59,0.549,0.926,1.339,0.926,2.429
		c0,1.099-0.336,1.999-0.936,2.618c-0.617,0.63-1.619,0.97-2.883,0.97c-0.607,0-1.1-0.02-1.533-0.08V286.707z M489.628,292.674
		c0.211,0.04,0.52,0.04,0.848,0.04c1.793,0.01,2.768-1.04,2.768-2.858c0.01-1.609-0.857-2.599-2.633-2.599
		c-0.434,0-0.762,0.04-0.982,0.09V292.674z"/>
	<path d="M495.21,286.707c0.404-0.08,0.936-0.14,1.611-0.14c0.828,0,1.436,0.2,1.822,0.56c0.355,0.32,0.578,0.81,0.578,1.409
		c0,0.61-0.174,1.089-0.512,1.439c-0.443,0.49-1.166,0.739-1.986,0.739c-0.25,0-0.482-0.01-0.674-0.06v2.699h-0.84V286.707z
		 M496.05,289.945c0.182,0.05,0.424,0.07,0.693,0.07c1.021,0,1.629-0.52,1.629-1.429c0-0.899-0.607-1.329-1.533-1.329
		c-0.365,0-0.645,0.04-0.789,0.07V289.945z"/>
</g>
<path id="path11777" sodipodi:nodetypes="cc" d="M491.023,285.955"/>
<g>
	
		<radialGradient id="path3279_1_" cx="274.9473" cy="349.2881" r="12.2926" gradientTransform="matrix(1 0 0 -1 215.77 740.2695)" gradientUnits="userSpaceOnUse">
		<stop  offset="0" style="stop-color:#FDFFDF"/>
		<stop  offset="0.1857" style="stop-color:#FDFFDC"/>
		<stop  offset="0.3249" style="stop-color:#FBFFD2"/>
		<stop  offset="0.4489" style="stop-color:#F9FFC2"/>
		<stop  offset="0.5642" style="stop-color:#F7FFAB"/>
		<stop  offset="0.6733" style="stop-color:#F3FF8E"/>
		<stop  offset="0.7779" style="stop-color:#EEFF6A"/>
		<stop  offset="0.8789" style="stop-color:#E9FF3F"/>
		<stop  offset="0.9746" style="stop-color:#E3FF0E"/>
		<stop  offset="1" style="stop-color:#E1FF00"/>
	</radialGradient>
	<path id="path3279" fill="url(#path3279_1_)" stroke="#000000" d="M502.785,390.98c0,6.911-5.404,12.514-12.066,12.514
		c-6.666,0-12.068-5.603-12.068-12.514s5.402-12.513,12.068-12.513C497.38,378.468,502.785,384.069,502.785,390.98z"/>
	<g enable-background="new    ">
		<path d="M484.404,382.815c0.426-0.09,1.043-0.149,1.611-0.149c0.896,0,1.484,0.18,1.891,0.56c0.318,0.29,0.51,0.75,0.51,1.279
			c0,0.88-0.549,1.469-1.225,1.709v0.03c0.492,0.18,0.791,0.659,0.955,1.359c0.213,0.939,0.367,1.589,0.492,1.849h-0.867
			c-0.107-0.189-0.252-0.77-0.426-1.609c-0.191-0.93-0.549-1.279-1.311-1.309h-0.791v2.918h-0.84V382.815z M485.244,385.874h0.857
			c0.898,0,1.467-0.51,1.467-1.279c0-0.869-0.607-1.249-1.494-1.249c-0.406,0-0.686,0.04-0.83,0.08V385.874z"/>
		<path d="M492.966,388.293c0,0.42,0.02,0.829,0.068,1.159h-0.762l-0.078-0.609h-0.027c-0.252,0.38-0.764,0.72-1.428,0.72
			c-0.945,0-1.428-0.69-1.428-1.39c0-1.169,1.004-1.809,2.807-1.799v-0.101c0-0.399-0.105-1.129-1.061-1.119
			c-0.443,0-0.896,0.13-1.225,0.36l-0.193-0.59c0.385-0.25,0.955-0.42,1.543-0.42c1.438,0,1.783,1.01,1.783,1.979V388.293z
			 M492.138,386.983c-0.926-0.02-1.977,0.15-1.977,1.09c0,0.579,0.365,0.839,0.789,0.839c0.617,0,1.014-0.399,1.148-0.81
			c0.029-0.09,0.039-0.189,0.039-0.279V386.983z"/>
		<path d="M494.21,388.563c0.26,0.16,0.703,0.34,1.129,0.34c0.607,0,0.896-0.31,0.896-0.72c0-0.42-0.242-0.649-0.859-0.89
			c-0.848-0.319-1.244-0.789-1.244-1.369c0-0.779,0.617-1.419,1.611-1.419c0.473,0,0.887,0.13,1.139,0.3l-0.203,0.63
			c-0.184-0.11-0.521-0.28-0.955-0.28c-0.502,0-0.771,0.3-0.771,0.66c0,0.409,0.27,0.59,0.877,0.829
			c0.801,0.31,1.225,0.729,1.225,1.459c0,0.86-0.645,1.46-1.734,1.46c-0.512,0-0.984-0.141-1.313-0.34L494.21,388.563z"/>
	</g>
	<g enable-background="new    ">
		<path d="M488.33,398.08c-0.375,0.149-1.127,0.37-2.006,0.37c-0.982,0-1.793-0.26-2.43-0.89c-0.559-0.56-0.906-1.459-0.906-2.509
			c0-2.009,1.34-3.479,3.52-3.479c0.752,0,1.35,0.17,1.631,0.311l-0.213,0.709c-0.348-0.17-0.781-0.29-1.438-0.29
			c-1.58,0-2.613,1.02-2.613,2.709c0,1.709,0.984,2.719,2.508,2.719c0.549,0,0.926-0.08,1.119-0.18v-2.01h-1.313v-0.699h2.141
			V398.08z"/>
		<path d="M490.837,392.383h-1.977v-0.739h4.813v0.739h-1.988v5.997h-0.848V392.383z"/>
		<path d="M494.396,391.733c0.404-0.08,0.936-0.14,1.611-0.14c0.828,0,1.436,0.2,1.822,0.56c0.355,0.319,0.578,0.81,0.578,1.409
			c0,0.609-0.174,1.09-0.512,1.439c-0.443,0.489-1.166,0.739-1.986,0.739c-0.25,0-0.482-0.01-0.674-0.06v2.698h-0.84V391.733z
			 M495.236,394.972c0.182,0.05,0.424,0.07,0.693,0.07c1.021,0,1.629-0.52,1.629-1.43c0-0.899-0.607-1.329-1.533-1.329
			c-0.365,0-0.645,0.04-0.789,0.07V394.972z"/>
	</g>
	<path id="path11779" sodipodi:nodetypes="cc" d="M490.717,390.98"/>
</g>
<path id="path11781" sodipodi:nodetypes="cc" d="M490.818,187.624"/>
<path id="path3268" sodipodi:nodetypes="cc" d="M294.438,179.458"/>
<path id="path11786" sodipodi:nodetypes="cc" d="M210.232,77.67"/>
<path id="path12577" sodipodi:nodetypes="cc" d="M227.375,243.39"/>
<path id="path12579" sodipodi:nodetypes="cc" d="M357.379,244.773"/>
<g>
	
		<radialGradient id="path17747_1_" cx="274.9473" cy="349.4648" r="12.2921" gradientTransform="matrix(1 0 0 -1 215.77 531.0566)" gradientUnits="userSpaceOnUse">
		<stop  offset="0" style="stop-color:#FDFFDF"/>
		<stop  offset="0.1857" style="stop-color:#FDFFDC"/>
		<stop  offset="0.3249" style="stop-color:#FBFFD2"/>
		<stop  offset="0.4489" style="stop-color:#F9FFC2"/>
		<stop  offset="0.5642" style="stop-color:#F7FFAB"/>
		<stop  offset="0.6733" style="stop-color:#F3FF8E"/>
		<stop  offset="0.7779" style="stop-color:#EEFF6A"/>
		<stop  offset="0.8789" style="stop-color:#E9FF3F"/>
		<stop  offset="0.9746" style="stop-color:#E3FF0E"/>
		<stop  offset="1" style="stop-color:#E1FF00"/>
	</radialGradient>
	<path id="path17747" fill="url(#path17747_1_)" stroke="#000000" d="M502.785,181.592c0,6.911-5.404,12.513-12.066,12.513
		c-6.666,0-12.068-5.602-12.068-12.513c0-6.912,5.402-12.513,12.068-12.513C497.38,169.079,502.785,174.68,502.785,181.592z"/>
	<g enable-background="new    ">
		<path d="M484.406,173.425c0.425-0.09,1.042-0.15,1.611-0.15c0.896,0,1.484,0.18,1.89,0.56c0.318,0.29,0.511,0.75,0.511,1.279
			c0,0.879-0.549,1.469-1.225,1.709v0.03c0.492,0.18,0.791,0.659,0.955,1.359c0.212,0.939,0.366,1.589,0.492,1.849h-0.868
			c-0.106-0.19-0.251-0.77-0.425-1.609c-0.192-0.93-0.549-1.279-1.312-1.31h-0.79v2.918h-0.84V173.425z M485.246,176.483h0.857
			c0.897,0,1.467-0.51,1.467-1.279c0-0.87-0.608-1.249-1.495-1.249c-0.405,0-0.685,0.04-0.829,0.08V176.483z"/>
		<path d="M492.968,178.902c0,0.419,0.02,0.83,0.067,1.159h-0.762l-0.077-0.61h-0.028c-0.251,0.38-0.763,0.72-1.428,0.72
			c-0.945,0-1.427-0.689-1.427-1.389c0-1.169,1.003-1.809,2.806-1.799v-0.1c0-0.4-0.105-1.129-1.061-1.12
			c-0.443,0-0.896,0.13-1.225,0.36l-0.193-0.589c0.386-0.25,0.955-0.42,1.543-0.42c1.438,0,1.784,1.009,1.784,1.979V178.902z
			 M492.139,177.593c-0.926-0.02-1.977,0.15-1.977,1.089c0,0.58,0.366,0.84,0.79,0.84c0.617,0,1.013-0.4,1.148-0.81
			c0.028-0.09,0.038-0.19,0.038-0.28V177.593z"/>
		<path d="M494.211,179.172c0.261,0.16,0.704,0.34,1.129,0.34c0.607,0,0.896-0.31,0.896-0.72c0-0.419-0.241-0.649-0.858-0.889
			c-0.849-0.32-1.244-0.79-1.244-1.369c0-0.78,0.617-1.419,1.611-1.419c0.472,0,0.887,0.13,1.138,0.3l-0.203,0.63
			c-0.183-0.11-0.521-0.28-0.954-0.28c-0.502,0-0.771,0.3-0.771,0.66c0,0.41,0.27,0.59,0.877,0.83
			c0.801,0.31,1.225,0.729,1.225,1.459c0,0.859-0.646,1.459-1.735,1.459c-0.511,0-0.983-0.14-1.312-0.34L494.211,179.172z"/>
	</g>
	<g enable-background="new    ">
		<path d="M488.332,188.69c-0.376,0.15-1.128,0.37-2.006,0.37c-0.983,0-1.793-0.26-2.43-0.889c-0.56-0.56-0.906-1.459-0.906-2.509
			c0-2.009,1.34-3.478,3.52-3.478c0.752,0,1.35,0.17,1.63,0.31l-0.212,0.71c-0.348-0.17-0.781-0.29-1.438-0.29
			c-1.581,0-2.613,1.02-2.613,2.708c0,1.709,0.983,2.719,2.508,2.719c0.549,0,0.926-0.08,1.118-0.18v-2.009h-1.312v-0.7h2.141
			V188.69z"/>
		<path d="M490.839,182.994h-1.978v-0.74h4.813v0.74h-1.987v5.997h-0.848V182.994z"/>
		<path d="M494.398,182.344c0.404-0.08,0.935-0.14,1.61-0.14c0.829,0,1.437,0.2,1.822,0.56c0.356,0.32,0.579,0.81,0.579,1.409
			c0,0.61-0.174,1.089-0.512,1.439c-0.443,0.49-1.167,0.739-1.986,0.739c-0.251,0-0.482-0.01-0.675-0.06v2.699h-0.839V182.344z
			 M495.237,185.582c0.183,0.05,0.424,0.07,0.694,0.07c1.021,0,1.629-0.52,1.629-1.429c0-0.899-0.607-1.329-1.533-1.329
			c-0.366,0-0.646,0.04-0.79,0.07V185.582z"/>
	</g>
</g>
<path id="path12581" sodipodi:nodetypes="cc" d="M490.837,181.591"/>
<path id="path12583" sodipodi:nodetypes="cc" d="M483.033,259.986"/>
<path id="path12585" sodipodi:nodetypes="cc" d="M482.341,351.957"/>
<path id="path12587" sodipodi:nodetypes="cc" d="M496.171,340.893"/>
<path id="path12589" sodipodi:nodetypes="cc" d="M499.63,244.773"/>
<path id="path12591" sodipodi:nodetypes="cc" d="M498.248,154.185"/>
<g>
	<g>
		<line fill="none" stroke="#000000" x1="490.717" y1="267.138" x2="490.717" y2="200.636"/>
		<polygon points="494.421,203.445 490.717,201.872 487.013,203.445 490.717,194.667 		"/>
		<polygon points="487.013,264.33 490.717,265.902 494.421,264.33 490.717,273.107 		"/>
	</g>
</g>
<g>
	<g>
		<line fill="none" stroke="#000000" x1="490.717" y1="372.472" x2="490.717" y2="304.805"/>
		<polygon points="494.421,307.613 490.717,306.04 487.013,307.613 490.717,298.835 		"/>
		<polygon points="487.013,369.663 490.717,371.236 494.421,369.663 490.717,378.441 		"/>
	</g>
</g>
<g>
	<g>
		<line fill="none" stroke="#000000" x1="490.717" y1="476.805" x2="490.717" y2="409.805"/>
		<polygon points="494.421,412.613 490.717,411.04 487.013,412.613 490.717,403.835 		"/>
		<polygon points="487.013,473.996 490.717,475.569 494.421,473.996 490.717,482.774 		"/>
	</g>
</g>
<g>
	<g>
		<line fill="none" stroke="#000000" x1="215.445" y1="494.554" x2="276.778" y2="494.554"/>
		<polygon points="283.839,494.554 273.889,498.618 276.25,494.554 273.889,490.489 		"/>
		<polygon points="208.384,494.554 218.334,490.489 215.973,494.554 218.334,498.618 		"/>
	</g>
</g>
<g>
	<g>
		<line fill="none" stroke="#000000" x1="211.195" y1="343.054" x2="272.612" y2="343.054"/>
		<polygon points="269.803,346.758 271.376,343.054 269.803,339.351 278.581,343.054 		"/>
		<polygon points="214.003,339.35 212.431,343.054 214.003,346.758 205.226,343.054 		"/>
	</g>
</g>
<g>
	<g>
		<line fill="none" stroke="#000000" x1="317.444" y1="343.554" x2="378.778" y2="343.554"/>
		<polygon points="375.969,347.258 377.542,343.554 375.969,339.851 384.747,343.554 		"/>
		<polygon points="320.253,339.85 318.68,343.554 320.253,347.258 311.475,343.554 		"/>
	</g>
</g>
<g>
	
		<radialGradient id="path4148_2_" cx="111.8403" cy="86.1797" r="16.1856" gradientTransform="matrix(1.0057 0 0 0.5335 426.549 185.4157)" gradientUnits="userSpaceOnUse">
		<stop  offset="0" style="stop-color:#A2FF5F"/>
		<stop  offset="0.4082" style="stop-color:#A0FF5F"/>
		<stop  offset="0.5552" style="stop-color:#99FD5F"/>
		<stop  offset="0.66" style="stop-color:#8EFB5E"/>
		<stop  offset="0.7448" style="stop-color:#7DF85E"/>
		<stop  offset="0.8174" style="stop-color:#67F35D"/>
		<stop  offset="0.8817" style="stop-color:#4BEE5C"/>
		<stop  offset="0.9398" style="stop-color:#2BE85B"/>
		<stop  offset="0.9915" style="stop-color:#07E05A"/>
		<stop  offset="1" style="stop-color:#00DF5A"/>
	</radialGradient>
	<path id="path4148" fill="url(#path4148_2_)" stroke="#000000" d="M555.005,231.393c0,4.854-7.156,8.791-15.979,8.791
		c-8.824,0-15.979-3.935-15.979-8.791c0-4.857,7.154-8.791,15.979-8.791C547.849,222.603,555.005,226.536,555.005,231.393z"/>
	<g enable-background="new    ">
		<path d="M535.974,234.027c-0.391,0.149-1.17,0.37-2.079,0.37c-1.02,0-1.858-0.26-2.519-0.89c-0.58-0.56-0.939-1.459-0.939-2.509
			c0-2.009,1.389-3.479,3.648-3.479c0.779,0,1.398,0.17,1.688,0.311l-0.22,0.709c-0.359-0.17-0.81-0.289-1.489-0.289
			c-1.64,0-2.708,1.019-2.708,2.708c0,1.709,1.02,2.719,2.598,2.719c0.57,0,0.96-0.08,1.16-0.18v-2.01h-1.359v-0.699h2.219V234.027z
			"/>
		<path d="M538.386,232.208l-0.699,2.119h-0.9l2.289-6.736h1.049l2.299,6.736h-0.93l-0.719-2.119H538.386z M540.595,231.528
			l-0.67-1.938c-0.141-0.439-0.24-0.84-0.34-1.229h-0.029c-0.091,0.39-0.201,0.81-0.33,1.22l-0.66,1.948H540.595z"/>
		<path d="M543.417,227.681c0.419-0.08,0.969-0.14,1.668-0.14c0.859,0,1.49,0.2,1.889,0.56c0.371,0.319,0.601,0.81,0.601,1.409
			c0,0.609-0.181,1.09-0.53,1.439c-0.459,0.489-1.209,0.739-2.059,0.739c-0.26,0-0.5-0.01-0.699-0.06v2.698h-0.869V227.681z
			 M544.287,230.919c0.189,0.05,0.439,0.07,0.719,0.07c1.061,0,1.689-0.52,1.689-1.43c0-0.899-0.629-1.329-1.589-1.329
			c-0.38,0-0.67,0.04-0.819,0.07V230.919z"/>
	</g>
</g>
<g>
	<g>
		<path fill="none" stroke="#000000" d="M496.111,244.555c6.25-12,12.234-13.75,26.5-13.75"/>
		<polygon points="494.123,240.353 496.682,243.458 500.693,243.774 493.353,249.849 		"/>
	</g>
</g>
<g>
	<g>
		<path fill="none" stroke="#000000" d="M484.617,429.514c-5.649,11.275-33.882,20.294-53.289,21.562"/>
		<polygon points="486.67,433.684 484.063,430.618 480.047,430.365 487.291,424.177 		"/>
	</g>
</g>
<g>
	<path id="path11784" sodipodi:nodetypes="cc" fill="none" stroke="#000000" d="M303.195,260.888
		c32.258,6.063,52.5-11.313,52.5-11.313"/>
	<g>
		<g>
			<path fill="none" stroke="#000000" d="M300.07,328.763c10.323-35.923,39.517-71.382,71.125-89.625"/>
			<polygon points="370.614,243.75 370.125,239.755 366.911,237.334 376.365,236.154 			"/>
			<polygon points="297.286,325.04 300.411,327.575 304.405,327.086 298.421,334.5 			"/>
		</g>
	</g>
</g>
<radialGradient id="path4148_3_" cx="111.8403" cy="277.9775" r="16.1865" gradientTransform="matrix(1.0057 0 0 0.5335 426.549 185.4157)" gradientUnits="userSpaceOnUse">
	<stop  offset="0" style="stop-color:#A2FF5F"/>
	<stop  offset="0.4082" style="stop-color:#A0FF5F"/>
	<stop  offset="0.5552" style="stop-color:#99FD5F"/>
	<stop  offset="0.66" style="stop-color:#8EFB5E"/>
	<stop  offset="0.7448" style="stop-color:#7DF85E"/>
	<stop  offset="0.8174" style="stop-color:#67F35D"/>
	<stop  offset="0.8817" style="stop-color:#4BEE5C"/>
	<stop  offset="0.9398" style="stop-color:#2BE85B"/>
	<stop  offset="0.9915" style="stop-color:#07E05A"/>
	<stop  offset="1" style="stop-color:#00DF5A"/>
</radialGradient>
<path id="path4148_1_" fill="url(#path4148_3_)" stroke="#000000" d="M555.005,333.716c0,4.855-7.156,8.793-15.979,8.793
	c-8.824,0-15.979-3.936-15.979-8.793c0-4.855,7.154-8.791,15.979-8.791C547.849,324.927,555.005,328.86,555.005,333.716z"/>
<g enable-background="new    ">
	<path d="M535.974,336.352c-0.391,0.149-1.17,0.37-2.079,0.37c-1.02,0-1.858-0.26-2.519-0.89c-0.58-0.56-0.939-1.459-0.939-2.509
		c0-2.009,1.389-3.479,3.648-3.479c0.779,0,1.398,0.17,1.688,0.311l-0.22,0.709c-0.359-0.17-0.81-0.289-1.489-0.289
		c-1.64,0-2.708,1.019-2.708,2.708c0,1.709,1.02,2.719,2.598,2.719c0.57,0,0.96-0.08,1.16-0.18v-2.01h-1.359v-0.699h2.219V336.352z"
		/>
	<path d="M538.386,334.532l-0.699,2.119h-0.9l2.289-6.736h1.049l2.299,6.736h-0.93l-0.719-2.119H538.386z M540.595,333.853
		l-0.67-1.938c-0.141-0.439-0.24-0.84-0.34-1.229h-0.029c-0.091,0.39-0.201,0.81-0.33,1.22l-0.66,1.948H540.595z"/>
	<path d="M543.417,330.005c0.419-0.08,0.969-0.14,1.668-0.14c0.859,0,1.49,0.2,1.889,0.56c0.371,0.319,0.601,0.81,0.601,1.409
		c0,0.609-0.181,1.09-0.53,1.439c-0.459,0.489-1.209,0.739-2.059,0.739c-0.26,0-0.5-0.01-0.699-0.06v2.698h-0.869V330.005z
		 M544.287,333.243c0.189,0.05,0.439,0.07,0.719,0.07c1.061,0,1.689-0.52,1.689-1.43c0-0.899-0.629-1.329-1.589-1.329
		c-0.38,0-0.67,0.04-0.819,0.07V333.243z"/>
</g>
<g>
	<g>
		<path fill="none" stroke="#000000" d="M496.111,347.222c6.25-12,12.234-13.75,26.5-13.75"/>
		<polygon points="494.123,343.02 496.682,346.126 500.693,346.441 493.353,352.516 		"/>
	</g>
</g>
<radialGradient id="path4168_1_" cx="105.8745" cy="68.666" r="16.1865" gradientTransform="matrix(1.0057 0 0 0.5335 431.8693 406.5954)" gradientUnits="userSpaceOnUse">
	<stop  offset="0" style="stop-color:#A2FF5F"/>
	<stop  offset="0.4082" style="stop-color:#A0FF5F"/>
	<stop  offset="0.5552" style="stop-color:#99FD5F"/>
	<stop  offset="0.66" style="stop-color:#8EFB5E"/>
	<stop  offset="0.7448" style="stop-color:#7DF85E"/>
	<stop  offset="0.8174" style="stop-color:#67F35D"/>
	<stop  offset="0.8817" style="stop-color:#4BEE5C"/>
	<stop  offset="0.9398" style="stop-color:#2BE85B"/>
	<stop  offset="0.9915" style="stop-color:#07E05A"/>
	<stop  offset="1" style="stop-color:#00DF5A"/>
</radialGradient>
<path id="path4168" fill="url(#path4168_1_)" stroke="#000000" d="M554.328,443.229c0,4.855-7.158,8.792-15.98,8.792
	c-8.824,0-15.979-3.936-15.979-8.792c0-4.857,7.154-8.791,15.979-8.791C547.169,434.438,554.328,438.372,554.328,443.229z"/>
<g enable-background="new    ">
	<path d="M535.296,445.864c-0.391,0.149-1.17,0.37-2.08,0.37c-1.02,0-1.858-0.26-2.518-0.89c-0.58-0.56-0.939-1.459-0.939-2.509
		c0-2.009,1.389-3.479,3.647-3.479c0.78,0,1.399,0.17,1.688,0.311l-0.219,0.709c-0.36-0.17-0.811-0.289-1.49-0.289
		c-1.639,0-2.708,1.019-2.708,2.708c0,1.709,1.02,2.719,2.599,2.719c0.57,0,0.959-0.08,1.159-0.18v-2.01h-1.359v-0.699h2.22V445.864
		z"/>
	<path d="M537.708,444.045l-0.7,2.119h-0.899l2.289-6.736h1.049l2.299,6.736h-0.93l-0.719-2.119H537.708z M539.917,443.365
		l-0.669-1.938c-0.141-0.439-0.24-0.84-0.34-1.229h-0.03c-0.091,0.39-0.2,0.81-0.33,1.22l-0.659,1.948H539.917z"/>
	<path d="M542.739,439.518c0.419-0.08,0.97-0.14,1.669-0.14c0.859,0,1.489,0.2,1.889,0.56c0.37,0.319,0.6,0.81,0.6,1.409
		c0,0.609-0.18,1.09-0.529,1.439c-0.46,0.489-1.209,0.739-2.059,0.739c-0.26,0-0.5-0.01-0.7-0.06v2.698h-0.869V439.518z
		 M543.608,442.756c0.19,0.05,0.44,0.07,0.72,0.07c1.06,0,1.689-0.52,1.689-1.43c0-0.899-0.63-1.329-1.59-1.329
		c-0.379,0-0.67,0.04-0.819,0.07V442.756z"/>
</g>
<g>
	<g>
		<path fill="none" stroke="#000000" d="M496.111,429.722c6.25,12,12.234,13.75,26.5,13.75"/>
		<polygon points="500.694,430.502 496.682,430.817 494.124,433.924 493.353,424.428 		"/>
	</g>
</g>
<g>
	<g>
		<path fill="none" stroke="#000000" d="M483.612,329.305c-8.36,8.533-40.834,13.5-65.667,13.833"/>
		<polygon points="484.292,333.903 482.747,330.188 479,328.719 487.79,325.041 		"/>
	</g>
</g>
<g>
	<g>
		<path fill="none" stroke="#000000" d="M484.195,244.888c-5.875-10.797-33.93-16.699-55.75-14.431"/>
		<polygon points="479.599,244.191 483.604,243.802 486.106,240.65 487.048,250.131 		"/>
	</g>
</g>
<g>
	
		<radialGradient id="path31151_1_" cx="321.7329" cy="-42.2441" r="15.5574" gradientTransform="matrix(0.9108 0 0 0.8738 -47.4218 345.4419)" gradientUnits="userSpaceOnUse">
		<stop  offset="0" style="stop-color:#FFDD9F"/>
		<stop  offset="0.2912" style="stop-color:#FFDB9D"/>
		<stop  offset="0.4343" style="stop-color:#FFD398"/>
		<stop  offset="0.545" style="stop-color:#FFC68E"/>
		<stop  offset="0.6392" style="stop-color:#FFB381"/>
		<stop  offset="0.7229" style="stop-color:#FF9B70"/>
		<stop  offset="0.799" style="stop-color:#FF7D5A"/>
		<stop  offset="0.8695" style="stop-color:#FF5A41"/>
		<stop  offset="0.9348" style="stop-color:#FF3123"/>
		<stop  offset="0.9951" style="stop-color:#FF0403"/>
		<stop  offset="1" style="stop-color:#FF0000"/>
	</radialGradient>
	<path id="path31151" fill="url(#path31151_1_)" stroke="#000000" d="M256.729,303.074l6.409,5.398l-5.674,4.938l-0.603,0.329
		c-2.827,2.479-7.613,4.11-13.045,4.11c-8.686,0-15.729-4.174-15.729-9.321c0-5.149,7.042-9.322,15.729-9.322
		c4.994,0,9.443,1.379,12.325,3.529L256.729,303.074z"/>
	<g enable-background="new    ">
		<path d="M237.892,304.817c0.419-0.08,0.969-0.14,1.669-0.14c0.859,0,1.489,0.2,1.889,0.56c0.37,0.319,0.6,0.81,0.6,1.409
			c0,0.609-0.18,1.09-0.53,1.439c-0.46,0.489-1.209,0.739-2.059,0.739c-0.26,0-0.5-0.01-0.7-0.06v2.698h-0.869V304.817z
			 M238.761,308.056c0.19,0.05,0.44,0.07,0.72,0.07c1.06,0,1.689-0.52,1.689-1.43c0-0.899-0.629-1.329-1.589-1.329
			c-0.38,0-0.67,0.04-0.82,0.07V308.056z"/>
		<path d="M243.212,304.728h0.869v3.248h0.03c0.18-0.26,0.36-0.5,0.53-0.72l2.059-2.528h1.08l-2.439,2.858l2.629,3.878h-1.03
			l-2.208-3.309l-0.65,0.74v2.568h-0.869V304.728z"/>
		<path d="M249.821,309.345l-0.7,2.119h-0.899l2.289-6.736h1.049l2.299,6.736h-0.93l-0.719-2.119H249.821z M252.03,308.665
			l-0.669-1.938c-0.14-0.439-0.24-0.84-0.34-1.229h-0.03c-0.09,0.39-0.2,0.81-0.33,1.22l-0.66,1.948H252.03z"/>
	</g>
	<g>
		<g>
			<path fill="none" stroke="#000000" d="M227.542,337.535c12.903-3.278,17.25-11.307,17.25-19.625"/>
			<polygon points="229.352,333.254 228.74,337.23 231.176,340.433 221.756,339.005 			"/>
		</g>
	</g>
</g>
<g>
	<g>
		
			<radialGradient id="path1336_2_" cx="317.8521" cy="-40.7354" r="15.5574" gradientTransform="matrix(0.9108 0 0 0.8738 56.9479 344.1118)" gradientUnits="userSpaceOnUse">
			<stop  offset="0" style="stop-color:#FFDD9F"/>
			<stop  offset="0.2912" style="stop-color:#FFDB9D"/>
			<stop  offset="0.4343" style="stop-color:#FFD398"/>
			<stop  offset="0.545" style="stop-color:#FFC68E"/>
			<stop  offset="0.6392" style="stop-color:#FFB381"/>
			<stop  offset="0.7229" style="stop-color:#FF9B70"/>
			<stop  offset="0.799" style="stop-color:#FF7D5A"/>
			<stop  offset="0.8695" style="stop-color:#FF5A41"/>
			<stop  offset="0.9348" style="stop-color:#FF3123"/>
			<stop  offset="0.9951" style="stop-color:#FF0403"/>
			<stop  offset="1" style="stop-color:#FF0000"/>
		</radialGradient>
		<path id="path1336" fill="url(#path1336_2_)" stroke="#000000" d="M357.563,303.063l6.41,5.398l-5.674,4.938l-0.603,0.33
			c-2.827,2.479-7.613,4.11-13.045,4.11c-8.686,0-15.729-4.175-15.729-9.321c0-5.149,7.042-9.322,15.729-9.322
			c4.994,0,9.443,1.379,12.325,3.529L357.563,303.063z"/>
		<g enable-background="new    ">
			<path d="M339.047,304.806c0.419-0.08,0.969-0.14,1.669-0.14c0.859,0,1.489,0.2,1.889,0.56c0.37,0.319,0.6,0.81,0.6,1.409
				c0,0.609-0.18,1.09-0.53,1.439c-0.46,0.489-1.209,0.739-2.059,0.739c-0.26,0-0.5-0.01-0.7-0.06v2.698h-0.869V304.806z
				 M339.917,308.044c0.19,0.05,0.44,0.07,0.72,0.07c1.06,0,1.689-0.52,1.689-1.43c0-0.899-0.629-1.329-1.589-1.329
				c-0.38,0-0.67,0.04-0.82,0.07V308.044z"/>
			<path d="M344.367,304.716h0.869v3.248h0.03c0.18-0.26,0.36-0.5,0.53-0.72l2.059-2.528h1.08l-2.439,2.858l2.629,3.878h-1.03
				l-2.208-3.309l-0.65,0.74v2.568h-0.869V304.716z"/>
			<path d="M354.265,311.242c-0.31,0.16-0.959,0.32-1.779,0.32c-1.899,0-3.318-1.2-3.318-3.419c0-2.118,1.429-3.538,3.518-3.538
				c0.83,0,1.369,0.181,1.599,0.3l-0.22,0.71c-0.32-0.16-0.79-0.279-1.35-0.279c-1.579,0-2.628,1.009-2.628,2.778
				c0,1.659,0.95,2.708,2.579,2.708c0.54,0,1.08-0.109,1.429-0.279L354.265,311.242z"/>
		</g>
	</g>
	<g>
		<g>
			<path fill="none" stroke="#000000" d="M362.542,337.547c-12.903-3.278-17.25-11.307-17.25-19.625"/>
			<polygon points="358.908,340.445 361.344,337.242 360.732,333.266 368.328,339.017 			"/>
		</g>
	</g>
</g>
<g>
</g>
<g>
</g>
<g>
	<g>
		<line fill="none" stroke="#000000" x1="308.192" y1="355.389" x2="379.031" y2="436.22"/>
		<polygon points="374.395,436.549 378.217,435.29 379.965,431.666 382.965,440.709 		"/>
		<polygon points="312.829,355.06 309.006,356.318 307.258,359.942 304.258,350.899 		"/>
	</g>
</g>
<g>
	<g>
		<path fill="none" stroke="#000000" d="M286.945,416.138c17.75-18,52.061-29.912,78.842,5.189"/>
		<polygon points="286.279,411.537 287.813,415.258 291.554,416.738 282.753,420.388 		"/>
	</g>
</g>
<g>
	<g>
		
			<radialGradient id="path1336_3_" cx="208.8823" cy="134.0762" r="15.5571" gradientTransform="matrix(0.9108 0 0 0.8738 56.9479 344.1118)" gradientUnits="userSpaceOnUse">
			<stop  offset="0" style="stop-color:#FFDD9F"/>
			<stop  offset="0.2912" style="stop-color:#FFDB9D"/>
			<stop  offset="0.4343" style="stop-color:#FFD398"/>
			<stop  offset="0.545" style="stop-color:#FFC68E"/>
			<stop  offset="0.6392" style="stop-color:#FFB381"/>
			<stop  offset="0.7229" style="stop-color:#FF9B70"/>
			<stop  offset="0.799" style="stop-color:#FF7D5A"/>
			<stop  offset="0.8695" style="stop-color:#FF5A41"/>
			<stop  offset="0.9348" style="stop-color:#FF3123"/>
			<stop  offset="0.9951" style="stop-color:#FF0403"/>
			<stop  offset="1" style="stop-color:#FF0000"/>
		</radialGradient>
		<path id="path1336_1_" fill="url(#path1336_3_)" stroke="#000000" d="M258.313,455.813l6.41,5.398l-5.674,4.938l-0.603,0.33
			c-2.827,2.479-7.613,4.11-13.045,4.11c-8.686,0-15.729-4.175-15.729-9.321c0-5.149,7.042-9.322,15.729-9.322
			c4.994,0,9.443,1.379,12.325,3.529L258.313,455.813z"/>
		<g enable-background="new    ">
			<path d="M239.797,457.556c0.419-0.08,0.969-0.14,1.669-0.14c0.859,0,1.489,0.2,1.889,0.56c0.37,0.319,0.6,0.81,0.6,1.409
				c0,0.609-0.18,1.09-0.53,1.439c-0.46,0.489-1.209,0.739-2.059,0.739c-0.26,0-0.5-0.01-0.7-0.06v2.698h-0.869V457.556z
				 M240.667,460.794c0.19,0.05,0.44,0.07,0.72,0.07c1.06,0,1.689-0.52,1.689-1.43c0-0.899-0.629-1.329-1.589-1.329
				c-0.38,0-0.67,0.04-0.82,0.07V460.794z"/>
			<path d="M245.117,457.466h0.869v3.248h0.03c0.18-0.26,0.36-0.5,0.53-0.72l2.059-2.528h1.08l-2.439,2.858l2.629,3.878h-1.03
				l-2.208-3.309l-0.65,0.74v2.568h-0.869V457.466z"/>
			<path d="M255.015,463.992c-0.31,0.16-0.959,0.32-1.779,0.32c-1.899,0-3.318-1.2-3.318-3.419c0-2.118,1.429-3.538,3.518-3.538
				c0.83,0,1.369,0.181,1.599,0.3l-0.22,0.71c-0.32-0.16-0.79-0.279-1.35-0.279c-1.579,0-2.628,1.009-2.628,2.778
				c0,1.659,0.95,2.708,2.579,2.708c0.54,0,1.08-0.109,1.429-0.279L255.015,463.992z"/>
		</g>
	</g>
	<g>
		<g>
			<path fill="none" stroke="#000000" d="M263.292,490.297c-12.903-3.278-17.25-11.307-17.25-19.625"/>
			<polygon points="259.658,493.195 262.094,489.992 261.482,486.016 269.078,491.767 			"/>
		</g>
	</g>
</g>
</svg>
