<?xml version="1.0" encoding="utf-8"?>
<!-- Generator: Adobe Illustrator 13.0.0, SVG Export Plug-In . SVG Version: 6.00 Build 14948)  -->
<!DOCTYPE svg PUBLIC "-//W3C//DTD SVG 1.1//EN" "http://www.w3.org/Graphics/SVG/1.1/DTD/svg11.dtd">
<svg version="1.1"
	 id="svg1724" xmlns:rdf="http://www.w3.org/1999/02/22-rdf-syntax-ns#" xmlns:sodipodi="http://inkscape.sourceforge.net/DTD/sodipodi-0.dtd" xmlns:cc="http://web.resource.org/cc/" xmlns:xml="http://www.w3.org/XML/1998/namespace" xmlns:inkscape="http://www.inkscape.org/namespaces/inkscape" xmlns:svg="http://www.w3.org/2000/svg" xmlns:dc="http://purl.org/dc/elements/1.1/" sodipodi:docbase="C:\Documents and Settings\pvil005\Desktop\Repository_diagrams\Signal_Transduction_Pathways" sodipodi:version="0.32" sodipodi:docname="bhalla_iyengar_PLC_gamma_1999.svg" inkscape:version="0.40+cvs" xmlns:ns1="http://ns.adobe.com/Flows/1.0/"
	 xmlns="http://www.w3.org/2000/svg" xmlns:xlink="http://www.w3.org/1999/xlink" x="0px" y="0px" width="443px" height="194px"
	 viewBox="89.445 180.138 443 194" enable-background="new 89.445 180.138 443 194" xml:space="preserve">
<sodipodi:namedview  pagecolor="#ffffff" inkscape:cx="342.88802" bordercolor="#666666" borderopacity="1.0" inkscape:zoom="1.7360134" inkscape:cy="769.01796" id="base" inkscape:current-layer="layer1" inkscape:window-x="15" inkscape:window-width="1244" inkscape:window-height="928" inkscape:pageshadow="2" inkscape:pageopacity="0.0" inkscape:window-y="10" inkscape:document-units="px">
	</sodipodi:namedview>
<radialGradient id="path5717_1_" cx="101.6011" cy="400.6426" r="9.1881" gradientTransform="matrix(1.3465 0 0 -1.3639 178.6462 891.715)" gradientUnits="userSpaceOnUse">
	<stop  offset="0" style="stop-color:#A2FF5F"/>
	<stop  offset="0.3165" style="stop-color:#A0FF5F"/>
	<stop  offset="0.472" style="stop-color:#98FD5F"/>
	<stop  offset="0.5923" style="stop-color:#8BFA5E"/>
	<stop  offset="0.6947" style="stop-color:#78F75E"/>
	<stop  offset="0.7855" style="stop-color:#60F25D"/>
	<stop  offset="0.8682" style="stop-color:#42EC5C"/>
	<stop  offset="0.9432" style="stop-color:#20E55B"/>
	<stop  offset="1" style="stop-color:#00DF5A"/>
</radialGradient>
<path id="path5717" fill="url(#path5717_1_)" stroke="#000000" d="M330.712,345.278c0,4.788-6.829,8.671-15.258,8.671
	c-8.429,0-15.261-3.885-15.261-8.671c0-4.79,6.832-8.67,15.261-8.67C323.883,336.608,330.712,340.488,330.712,345.278"/>
<g id="g5719">
	<g enable-background="new    ">
		<path d="M306.413,341.567c0.419-0.08,0.969-0.14,1.669-0.14c0.859,0,1.489,0.2,1.889,0.56c0.37,0.319,0.6,0.81,0.6,1.409
			c0,0.609-0.18,1.09-0.53,1.439c-0.46,0.489-1.209,0.739-2.059,0.739c-0.26,0-0.5-0.01-0.7-0.06v2.698h-0.869V341.567z
			 M307.282,344.806c0.19,0.05,0.44,0.07,0.72,0.07c1.06,0,1.689-0.52,1.689-1.43c0-0.899-0.629-1.329-1.589-1.329
			c-0.38,0-0.67,0.04-0.82,0.07V344.806z"/>
		<path d="M311.722,341.478h0.879v6.007h2.878v0.729h-3.758V341.478z"/>
		<path d="M320.76,348.004c-0.31,0.16-0.959,0.32-1.779,0.32c-1.899,0-3.318-1.2-3.318-3.419c0-2.118,1.429-3.538,3.518-3.538
			c0.83,0,1.369,0.181,1.599,0.3l-0.22,0.71c-0.32-0.16-0.79-0.279-1.35-0.279c-1.579,0-2.628,1.009-2.628,2.778
			c0,1.659,0.95,2.708,2.579,2.708c0.54,0,1.08-0.109,1.429-0.279L320.76,348.004z"/>
		<path d="M324.391,341.718l-0.949,1.239v0.02l1.509-0.2v0.68l-1.509-0.18v0.021l0.959,1.209l-0.63,0.35l-0.609-1.399h-0.02
			l-0.64,1.409l-0.57-0.359l0.949-1.22v-0.02l-1.479,0.189v-0.68l1.469,0.19v-0.021l-0.939-1.229l0.609-0.34l0.62,1.379h0.02
			l0.61-1.39L324.391,341.718z"/>
	</g>
</g>
<g>
	
		<radialGradient id="path5729_1_" cx="101.2017" cy="400.6436" r="9.1881" gradientTransform="matrix(1.3465 0 0 -1.3639 178.6462 766.1974)" gradientUnits="userSpaceOnUse">
		<stop  offset="0" style="stop-color:#A2FF5F"/>
		<stop  offset="0.3165" style="stop-color:#A0FF5F"/>
		<stop  offset="0.472" style="stop-color:#98FD5F"/>
		<stop  offset="0.5923" style="stop-color:#8BFA5E"/>
		<stop  offset="0.6947" style="stop-color:#78F75E"/>
		<stop  offset="0.7855" style="stop-color:#60F25D"/>
		<stop  offset="0.8682" style="stop-color:#42EC5C"/>
		<stop  offset="0.9432" style="stop-color:#20E55B"/>
		<stop  offset="1" style="stop-color:#00DF5A"/>
	</radialGradient>
	<path id="path5729" fill="url(#path5729_1_)" stroke="#000000" d="M330.174,219.761c0,4.787-6.829,8.67-15.258,8.67
		s-15.261-3.884-15.261-8.67c0-4.79,6.832-8.671,15.261-8.671S330.174,214.971,330.174,219.761"/>
	<g id="g5731">
		<g enable-background="new    ">
			<path d="M307.95,216.049c0.419-0.08,0.969-0.14,1.669-0.14c0.859,0,1.489,0.2,1.889,0.56c0.37,0.319,0.6,0.81,0.6,1.409
				c0,0.609-0.18,1.09-0.53,1.439c-0.46,0.489-1.209,0.739-2.059,0.739c-0.26,0-0.5-0.01-0.7-0.06v2.698h-0.869V216.049z
				 M308.819,219.287c0.19,0.05,0.44,0.07,0.72,0.07c1.06,0,1.689-0.52,1.689-1.43c0-0.899-0.629-1.329-1.589-1.329
				c-0.38,0-0.67,0.04-0.82,0.07V219.287z"/>
			<path d="M313.26,215.959h0.879v6.007h2.878v0.729h-3.758V215.959z"/>
			<path d="M322.297,222.485c-0.31,0.16-0.959,0.32-1.779,0.32c-1.899,0-3.318-1.2-3.318-3.419c0-2.118,1.429-3.538,3.518-3.538
				c0.83,0,1.369,0.181,1.599,0.3l-0.22,0.71c-0.32-0.16-0.79-0.279-1.35-0.279c-1.579,0-2.628,1.009-2.628,2.778
				c0,1.659,0.95,2.708,2.579,2.708c0.54,0,1.08-0.109,1.429-0.279L322.297,222.485z"/>
		</g>
	</g>
</g>
<g>
	
		<radialGradient id="path5729_4_" cx="-41.6704" cy="307.7969" r="9.1878" gradientTransform="matrix(1.3465 0 0 -1.3639 178.6462 766.1974)" gradientUnits="userSpaceOnUse">
		<stop  offset="0" style="stop-color:#A2FF5F"/>
		<stop  offset="0.3165" style="stop-color:#A0FF5F"/>
		<stop  offset="0.472" style="stop-color:#98FD5F"/>
		<stop  offset="0.5923" style="stop-color:#8BFA5E"/>
		<stop  offset="0.6947" style="stop-color:#78F75E"/>
		<stop  offset="0.7855" style="stop-color:#60F25D"/>
		<stop  offset="0.8682" style="stop-color:#42EC5C"/>
		<stop  offset="0.9432" style="stop-color:#20E55B"/>
		<stop  offset="1" style="stop-color:#00DF5A"/>
	</radialGradient>
	<path id="path5729_3_" fill="url(#path5729_4_)" stroke="#000000" d="M137.796,346.394c0,4.787-6.829,8.67-15.258,8.67
		s-15.261-3.883-15.261-8.67c0-4.789,6.832-8.67,15.261-8.67S137.796,341.604,137.796,346.394"/>
	<g id="g5919">
		<g enable-background="new    ">
			<path d="M110.381,342.897c0.419-0.08,0.969-0.14,1.669-0.14c0.859,0,1.489,0.2,1.889,0.56c0.37,0.319,0.6,0.81,0.6,1.409
				c0,0.609-0.18,1.09-0.53,1.439c-0.46,0.489-1.209,0.739-2.059,0.739c-0.26,0-0.5-0.01-0.7-0.06v2.698h-0.869V342.897z
				 M111.25,346.136c0.19,0.05,0.44,0.07,0.72,0.07c1.06,0,1.689-0.52,1.689-1.43c0-0.899-0.629-1.329-1.589-1.329
				c-0.38,0-0.67,0.04-0.82,0.07V346.136z"/>
			<path d="M115.691,342.808h0.879v6.007h2.878v0.729h-3.758V342.808z"/>
			<path d="M124.729,349.334c-0.31,0.16-0.959,0.32-1.779,0.32c-1.899,0-3.318-1.2-3.318-3.419c0-2.118,1.429-3.538,3.518-3.538
				c0.83,0,1.369,0.181,1.599,0.3l-0.22,0.71c-0.32-0.16-0.79-0.279-1.35-0.279c-1.579,0-2.628,1.009-2.628,2.778
				c0,1.659,0.95,2.708,2.579,2.708c0.54,0,1.08-0.109,1.429-0.279L124.729,349.334z"/>
			<path d="M130.487,345.071h0.815c-0.052,0.117-0.321,0.674-0.806,1.67c-0.202,0.417-0.347,0.732-0.435,0.947
				c-0.039,0.088-0.083,0.184-0.132,0.288l-0.562,1.201c0.023,0.208,0.039,0.4,0.049,0.576s0.015,0.335,0.015,0.479
				c0,0.442-0.033,0.784-0.098,1.025c-0.045,0.169-0.106,0.286-0.181,0.349c-0.075,0.064-0.156,0.096-0.244,0.096
				c-0.107,0-0.203-0.046-0.286-0.137s-0.125-0.208-0.125-0.352c0-0.251,0.05-0.539,0.151-0.867c0.101-0.326,0.25-0.693,0.449-1.101
				c-0.238-1.667-0.427-2.673-0.569-3.018s-0.338-0.518-0.588-0.518c-0.153,0-0.273,0.046-0.361,0.14
				c-0.088,0.092-0.155,0.302-0.2,0.627h-0.19c-0.003-0.098-0.005-0.171-0.005-0.22c0-0.449,0.088-0.788,0.264-1.016
				c0.133-0.169,0.313-0.254,0.537-0.254c0.195,0,0.355,0.059,0.479,0.176c0.169,0.166,0.321,0.527,0.454,1.084
				c0.169,0.723,0.301,1.509,0.396,2.358l0.43-1.45C129.937,346.505,130.185,345.811,130.487,345.071z"/>
			<path d="M134.591,343.048l-0.949,1.239v0.02l1.509-0.2v0.68l-1.509-0.18v0.021l0.959,1.209l-0.63,0.35l-0.609-1.399h-0.02
				l-0.64,1.409l-0.57-0.359l0.949-1.22v-0.02l-1.479,0.189v-0.68l1.469,0.19v-0.021l-0.939-1.229l0.609-0.34l0.62,1.379h0.02
				l0.61-1.39L134.591,343.048z"/>
		</g>
	</g>
</g>
<g>
	
		<radialGradient id="path5729_5_" cx="-41.5239" cy="400.3779" r="9.1881" gradientTransform="matrix(1.3465 0 0 -1.3639 178.6462 766.1974)" gradientUnits="userSpaceOnUse">
		<stop  offset="0" style="stop-color:#A2FF5F"/>
		<stop  offset="0.3165" style="stop-color:#A0FF5F"/>
		<stop  offset="0.472" style="stop-color:#98FD5F"/>
		<stop  offset="0.5923" style="stop-color:#8BFA5E"/>
		<stop  offset="0.6947" style="stop-color:#78F75E"/>
		<stop  offset="0.7855" style="stop-color:#60F25D"/>
		<stop  offset="0.8682" style="stop-color:#42EC5C"/>
		<stop  offset="0.9432" style="stop-color:#20E55B"/>
		<stop  offset="1" style="stop-color:#00DF5A"/>
	</radialGradient>
	<path id="path5729_2_" fill="url(#path5729_5_)" stroke="#000000" d="M137.994,220.123c0,4.787-6.829,8.67-15.258,8.67
		s-15.261-3.884-15.261-8.67c0-4.79,6.832-8.671,15.261-8.671S137.994,215.333,137.994,220.123"/>
	<g>
		<g id="g5931">
			<g enable-background="new    ">
				<path d="M112.463,216.626c0.419-0.08,0.969-0.14,1.669-0.14c0.859,0,1.489,0.2,1.889,0.56c0.37,0.319,0.6,0.81,0.6,1.409
					c0,0.609-0.18,1.09-0.53,1.439c-0.46,0.489-1.209,0.739-2.059,0.739c-0.26,0-0.5-0.01-0.7-0.06v2.698h-0.869V216.626z
					 M113.333,219.864c0.19,0.05,0.44,0.07,0.72,0.07c1.06,0,1.689-0.52,1.689-1.43c0-0.899-0.629-1.329-1.589-1.329
					c-0.38,0-0.67,0.04-0.82,0.07V219.864z"/>
				<path d="M117.773,216.536h0.879v6.007h2.878v0.729h-3.758V216.536z"/>
				<path d="M126.811,223.063c-0.31,0.16-0.959,0.32-1.779,0.32c-1.899,0-3.318-1.2-3.318-3.419c0-2.118,1.429-3.538,3.518-3.538
					c0.83,0,1.369,0.181,1.599,0.3l-0.22,0.71c-0.32-0.16-0.79-0.279-1.35-0.279c-1.579,0-2.628,1.009-2.628,2.778
					c0,1.659,0.95,2.708,2.579,2.708c0.54,0,1.08-0.109,1.429-0.279L126.811,223.063z"/>
				<path d="M132.949,218.8h0.815c-0.052,0.117-0.321,0.674-0.806,1.67c-0.202,0.417-0.347,0.732-0.435,0.947
					c-0.039,0.088-0.083,0.184-0.132,0.288l-0.562,1.201c0.023,0.208,0.039,0.4,0.049,0.576s0.015,0.335,0.015,0.479
					c0,0.442-0.033,0.784-0.098,1.025c-0.045,0.169-0.106,0.286-0.181,0.349c-0.075,0.064-0.156,0.096-0.244,0.096
					c-0.107,0-0.203-0.046-0.286-0.137s-0.125-0.208-0.125-0.352c0-0.251,0.05-0.539,0.151-0.867
					c0.101-0.326,0.25-0.693,0.449-1.101c-0.238-1.667-0.427-2.673-0.569-3.018s-0.338-0.518-0.588-0.518
					c-0.153,0-0.273,0.046-0.361,0.14c-0.088,0.092-0.155,0.302-0.2,0.627h-0.19c-0.003-0.098-0.005-0.171-0.005-0.22
					c0-0.449,0.088-0.788,0.264-1.016c0.133-0.169,0.313-0.254,0.537-0.254c0.195,0,0.355,0.059,0.479,0.176
					c0.169,0.166,0.321,0.527,0.454,1.084c0.169,0.723,0.301,1.509,0.396,2.358l0.43-1.45
					C132.399,220.233,132.646,219.539,132.949,218.8z"/>
			</g>
		</g>
	</g>
</g>
<path id="path11157" sodipodi:nodetypes="cc" d="M295.369,375.468"/>
<path id="path8581_1_" sodipodi:nodetypes="cccc" d="M144.562,348.227l-6.556-2.411l6.556-2.41
	C143.514,344.828,143.521,346.775,144.562,348.227z"/>
<path id="path88042_1_" sodipodi:nodetypes="cccc" d="M293.193,343.386l6.555,2.41l-6.555,2.411
	C294.241,346.783,294.234,344.836,293.193,343.386z"/>
<path id="path5944" sodipodi:nodetypes="cc" d="M295.369,249.607"/>
<path id="path5946" sodipodi:nodetypes="cc" d="M314.745,262.874"/>
<path id="path11176" sodipodi:nodetypes="cc" d="M150.603,298.663"/>
<path id="path5949" sodipodi:nodetypes="cc" d="M149.979,320.728"/>
<path id="path11962" sodipodi:nodetypes="cc" fill="none" stroke="#000000" stroke-dasharray="3,1" d="M314.82,315.263
	c-0.755-34.799-53.994-32.007-64.938-32.583"/>
<g>
	<path id="path5956" sodipodi:nodetypes="cc" fill="none" stroke="#000000" stroke-dasharray="3,1" d="M331.225,219.486
		c79.011,0.341,111.962,62.033,111.962,62.033"/>
	<path id="path5958" sodipodi:nodetypes="cc" fill="none" stroke="#000000" stroke-dasharray="3,1" d="M331.463,346.932
		c79.012-0.342,111.961-57.403,111.961-57.403"/>
</g>
<g>
	<g>
		<line fill="none" stroke="#000000" x1="144.195" y1="219.804" x2="293.195" y2="219.804"/>
		<polygon points="290.386,223.508 291.959,219.804 290.386,216.101 299.164,219.804 		"/>
		<polygon points="147.003,216.1 145.431,219.804 147.003,223.508 138.226,219.804 		"/>
	</g>
</g>
<g>
	<g>
		<line fill="none" stroke="#000000" x1="144.945" y1="345.804" x2="292.445" y2="345.804"/>
		<polygon points="289.636,349.508 291.209,345.804 289.636,342.101 298.414,345.804 		"/>
		<polygon points="147.753,342.1 146.181,345.804 147.753,349.508 138.976,345.804 		"/>
	</g>
</g>
<g>
	<g>
		<line fill="none" stroke="#000000" x1="314.82" y1="329.888" x2="314.82" y2="234.888"/>
		<polygon points="318.524,237.696 314.82,236.124 311.117,237.696 314.82,228.918 		"/>
		<polygon points="311.116,327.079 314.82,328.651 318.524,327.079 314.82,335.856 		"/>
	</g>
</g>
<g>
	
		<radialGradient id="path10881_1_" cx="78.2979" cy="401.5596" r="9.1881" gradientTransform="matrix(1.3465 0 0 -1.3639 391.8054 800.9532)" gradientUnits="userSpaceOnUse">
		<stop  offset="0" style="stop-color:#A2FF5F"/>
		<stop  offset="0.3165" style="stop-color:#A0FF5F"/>
		<stop  offset="0.472" style="stop-color:#98FD5F"/>
		<stop  offset="0.5923" style="stop-color:#8BFA5E"/>
		<stop  offset="0.6947" style="stop-color:#78F75E"/>
		<stop  offset="0.7855" style="stop-color:#60F25D"/>
		<stop  offset="0.8682" style="stop-color:#42EC5C"/>
		<stop  offset="0.9432" style="stop-color:#20E55B"/>
		<stop  offset="1" style="stop-color:#00DF5A"/>
	</radialGradient>
	<path id="path10881" fill="url(#path10881_1_)" stroke="#000000" d="M512.494,253.267c0,4.788-6.83,8.671-15.258,8.671
		c-8.43,0-15.262-3.885-15.262-8.671c0-4.79,6.832-8.67,15.262-8.67C505.664,244.597,512.494,248.477,512.494,253.267"/>
	<g id="g10883">
		<g enable-background="new    ">
			<path d="M488.439,249.556c0.539-0.08,1.169-0.14,1.858-0.14c1.249,0,2.14,0.279,2.729,0.829c0.61,0.55,0.96,1.34,0.96,2.429
				c0,1.1-0.35,1.999-0.97,2.619c-0.64,0.629-1.679,0.969-2.988,0.969c-0.63,0-1.14-0.02-1.589-0.079V249.556z M489.318,255.522
				c0.221,0.04,0.54,0.04,0.88,0.04c1.858,0.01,2.868-1.039,2.868-2.858c0.01-1.609-0.89-2.599-2.729-2.599
				c-0.449,0-0.789,0.04-1.02,0.09V255.522z"/>
			<path d="M496.198,254.083l-0.7,2.119h-0.898l2.288-6.736h1.05l2.299,6.736h-0.93l-0.72-2.119H496.198z M498.406,253.403
				l-0.669-1.938c-0.14-0.439-0.239-0.84-0.34-1.229h-0.03c-0.09,0.39-0.199,0.81-0.33,1.22l-0.659,1.948H498.406z"/>
			<path d="M506.216,255.902c-0.391,0.149-1.17,0.37-2.08,0.37c-1.02,0-1.858-0.26-2.518-0.89c-0.58-0.56-0.939-1.459-0.939-2.509
				c0-2.009,1.389-3.479,3.647-3.479c0.78,0,1.399,0.17,1.688,0.311l-0.219,0.709c-0.36-0.17-0.811-0.289-1.49-0.289
				c-1.639,0-2.708,1.019-2.708,2.708c0,1.709,1.02,2.719,2.599,2.719c0.57,0,0.959-0.08,1.159-0.18v-2.01h-1.359v-0.699h2.22
				V255.902z"/>
		</g>
	</g>
</g>
<path id="path5953" sodipodi:nodetypes="cc" d="M485.751,286.912"/>
<g>
	
		<radialGradient id="path10300_1_" cx="77.7593" cy="400.9492" r="9.1887" gradientTransform="matrix(1.3465 0 0 -1.3639 288.0329 833.1251)" gradientUnits="userSpaceOnUse">
		<stop  offset="0" style="stop-color:#A2FF5F"/>
		<stop  offset="0.3165" style="stop-color:#A0FF5F"/>
		<stop  offset="0.472" style="stop-color:#98FD5F"/>
		<stop  offset="0.5923" style="stop-color:#8BFA5E"/>
		<stop  offset="0.6947" style="stop-color:#78F75E"/>
		<stop  offset="0.7855" style="stop-color:#60F25D"/>
		<stop  offset="0.8682" style="stop-color:#42EC5C"/>
		<stop  offset="0.9432" style="stop-color:#20E55B"/>
		<stop  offset="1" style="stop-color:#00DF5A"/>
	</radialGradient>
	<path id="path10300" fill="url(#path10300_1_)" stroke="#000000" d="M407.997,286.271c0,4.787-6.83,8.671-15.26,8.671
		c-8.429,0-15.261-3.885-15.261-8.671c0-4.79,6.832-8.671,15.261-8.671C401.167,277.6,407.997,281.48,407.997,286.271"/>
	<g id="g10302">
		<g id="g10696">
			<g enable-background="new    ">
				<path d="M385.186,280.894c0.419-0.08,0.969-0.14,1.669-0.14c0.859,0,1.489,0.2,1.889,0.56c0.37,0.319,0.6,0.81,0.6,1.409
					c0,0.609-0.18,1.09-0.53,1.439c-0.46,0.489-1.209,0.739-2.059,0.739c-0.26,0-0.5-0.01-0.7-0.06v2.698h-0.869V280.894z
					 M386.055,284.132c0.19,0.05,0.44,0.07,0.72,0.07c1.06,0,1.689-0.52,1.689-1.43c0-0.899-0.629-1.329-1.589-1.329
					c-0.38,0-0.67,0.04-0.82,0.07V284.132z"/>
				<path d="M391.375,280.804v6.736h-0.879v-6.736H391.375z"/>
				<path d="M392.896,280.894c0.419-0.08,0.969-0.14,1.669-0.14c0.859,0,1.489,0.2,1.889,0.56c0.37,0.319,0.6,0.81,0.6,1.409
					c0,0.609-0.18,1.09-0.53,1.439c-0.46,0.489-1.209,0.739-2.059,0.739c-0.26,0-0.5-0.01-0.7-0.06v2.698h-0.869V280.894z
					 M393.765,284.132c0.19,0.05,0.44,0.07,0.72,0.07c1.06,0,1.689-0.52,1.689-1.43c0-0.899-0.629-1.329-1.589-1.329
					c-0.38,0-0.67,0.04-0.82,0.07V284.132z"/>
				<path d="M397.771,290.87v-0.378l0.483-0.47c1.163-1.106,1.695-1.694,1.695-2.381c0-0.463-0.217-0.89-0.896-0.89
					c-0.413,0-0.756,0.21-0.966,0.385l-0.196-0.434c0.308-0.26,0.764-0.463,1.289-0.463c0.973,0,1.387,0.673,1.387,1.324
					c0,0.841-0.609,1.52-1.569,2.444l-0.357,0.336v0.014h2.038v0.512H397.771z"/>
			</g>
			<g enable-background="new    ">
			</g>
		</g>
	</g>
</g>
<g>
	<g id="path5958_2_" sodipodi:nodetypes="cc">
		<g>
			<path fill="none" stroke="#000000" d="M408.013,285.743c51.936-0.13,73.598-21.855,73.598-21.855"/>
			<polygon points="482.25,268.492 480.738,264.763 477.005,263.261 485.826,259.661 			"/>
		</g>
	</g>
	<g id="path5958_3_" sodipodi:nodetypes="cc">
		<g>
			<path fill="none" stroke="#000000" d="M408.099,285.931c51.936,0.13,73.597,21.855,73.597,21.855"/>
			<polygon points="477.089,308.413 480.823,306.911 482.335,303.183 485.911,312.013 			"/>
		</g>
	</g>
</g>
<g id="path5958_5_" sodipodi:nodetypes="cc">
	<g>
		<path fill="none" stroke="#000000" d="M224.356,219.805c-49.86,0.3-70.656,50.417-70.656,50.417"/>
		<polygon points="151.355,266.208 154.174,269.08 158.197,269.046 151.413,275.735 		"/>
	</g>
</g>
<g id="path5958_4_" sodipodi:nodetypes="cc">
	<g>
		<path fill="none" stroke="#000000" d="M221.503,345.805c-47.657-0.285-67.533-48.167-67.533-48.167"/>
		<polygon points="158.468,298.812 154.444,298.779 151.626,301.651 151.682,292.125 		"/>
	</g>
</g>
<g>
	
		<radialGradient id="path2136_1_" cx="77.9526" cy="400.9014" r="9.1881" gradientTransform="matrix(1.3465 0 0 -1.3639 391.8054 865.295)" gradientUnits="userSpaceOnUse">
		<stop  offset="0" style="stop-color:#A2FF5F"/>
		<stop  offset="0.3165" style="stop-color:#A0FF5F"/>
		<stop  offset="0.472" style="stop-color:#98FD5F"/>
		<stop  offset="0.5923" style="stop-color:#8BFA5E"/>
		<stop  offset="0.6947" style="stop-color:#78F75E"/>
		<stop  offset="0.7855" style="stop-color:#60F25D"/>
		<stop  offset="0.8682" style="stop-color:#42EC5C"/>
		<stop  offset="0.9432" style="stop-color:#20E55B"/>
		<stop  offset="1" style="stop-color:#00DF5A"/>
	</radialGradient>
	<path id="path2136" fill="url(#path2136_1_)" stroke="#000000" d="M512.029,318.507c0,4.787-6.83,8.67-15.258,8.67
		c-8.43,0-15.262-3.884-15.262-8.67c0-4.79,6.832-8.671,15.262-8.671C505.199,309.836,512.029,313.717,512.029,318.507"/>
	<g id="g10883_1_">
		<g enable-background="new    ">
			<path d="M492.748,313.04v6.736h-0.88v-6.736H492.748z"/>
			<path d="M494.268,313.13c0.419-0.08,0.97-0.14,1.669-0.14c0.859,0,1.489,0.2,1.889,0.56c0.37,0.319,0.6,0.81,0.6,1.409
				c0,0.609-0.18,1.09-0.529,1.439c-0.46,0.489-1.209,0.739-2.059,0.739c-0.26,0-0.5-0.01-0.7-0.06v2.698h-0.869V313.13z
				 M495.137,316.368c0.19,0.05,0.44,0.07,0.72,0.07c1.06,0,1.689-0.52,1.689-1.43c0-0.899-0.63-1.329-1.59-1.329
				c-0.379,0-0.67,0.04-0.819,0.07V316.368z"/>
			<path d="M499.291,322.406c0.175,0.104,0.574,0.28,1.008,0.28c0.785,0,1.037-0.498,1.03-0.883c-0.007-0.638-0.581-0.91-1.177-0.91
				h-0.344v-0.463h0.344c0.448,0,1.016-0.23,1.016-0.771c0-0.364-0.231-0.686-0.799-0.686c-0.363,0-0.714,0.161-0.91,0.301
				l-0.168-0.448c0.245-0.175,0.707-0.351,1.197-0.351c0.896,0,1.303,0.532,1.303,1.086c0,0.477-0.287,0.876-0.84,1.079v0.014
				c0.561,0.104,1.016,0.525,1.016,1.162c0,0.729-0.574,1.366-1.66,1.366c-0.512,0-0.96-0.161-1.184-0.309L499.291,322.406z"/>
		</g>
	</g>
</g>
<g>
</g>
<g>
	
		<radialGradient id="path11134_1_" cx="396.0532" cy="-703.1475" r="22.1563" gradientTransform="matrix(0.3664 0 0 0.3664 152.8951 464.858)" gradientUnits="userSpaceOnUse">
		<stop  offset="0" style="stop-color:#FFFCDF"/>
		<stop  offset="0.1203" style="stop-color:#FFFBDA"/>
		<stop  offset="0.2662" style="stop-color:#FFF9CB"/>
		<stop  offset="0.4255" style="stop-color:#FFF6B2"/>
		<stop  offset="0.5943" style="stop-color:#FFF090"/>
		<stop  offset="0.7706" style="stop-color:#FFEA64"/>
		<stop  offset="0.9506" style="stop-color:#FFE22F"/>
		<stop  offset="1" style="stop-color:#FFE01F"/>
	</radialGradient>
	<path id="path11134_4_" fill="url(#path11134_1_)" stroke="#000000" stroke-width="0.9921" d="M306.127,207.226
		c0,4.482-3.635,8.117-8.117,8.117c-4.484,0-8.119-3.635-8.119-8.117s3.634-8.119,8.119-8.119
		C302.492,199.106,306.127,202.743,306.127,207.226z"/>
	<g>
		<path d="M295.351,210.385c-0.224,0.115-0.691,0.23-1.282,0.23c-1.368,0-2.391-0.864-2.391-2.463c0-1.527,1.029-2.55,2.535-2.55
			c0.598,0,0.986,0.13,1.152,0.216l-0.159,0.512c-0.23-0.115-0.568-0.202-0.972-0.202c-1.139,0-1.895,0.728-1.895,2.003
			c0,1.195,0.685,1.951,1.858,1.951c0.389,0,0.777-0.079,1.029-0.201L295.351,210.385z"/>
		<path d="M298.522,209.7c0,0.303,0.015,0.599,0.051,0.836h-0.569l-0.058-0.439h-0.021c-0.188,0.273-0.569,0.519-1.065,0.519
			c-0.706,0-1.066-0.497-1.066-1.001c0-0.843,0.749-1.304,2.096-1.297v-0.071c0-0.288-0.079-0.814-0.792-0.807
			c-0.331,0-0.67,0.094-0.915,0.259l-0.144-0.425c0.288-0.18,0.713-0.303,1.152-0.303c1.073,0,1.332,0.728,1.332,1.427V209.7z
			 M297.903,208.757c-0.691-0.014-1.477,0.108-1.477,0.785c0,0.418,0.273,0.605,0.591,0.605c0.461,0,0.756-0.288,0.857-0.584
			c0.021-0.064,0.028-0.137,0.028-0.201V208.757z"/>
		<path d="M299.237,208.14v-0.271l0.348-0.338c0.836-0.796,1.219-1.219,1.219-1.712c0-0.332-0.156-0.64-0.645-0.64
			c-0.298,0-0.544,0.151-0.695,0.277l-0.141-0.313c0.222-0.187,0.549-0.332,0.926-0.332c0.7,0,0.997,0.483,0.997,0.951
			c0,0.604-0.438,1.093-1.128,1.758l-0.257,0.241v0.011h1.466v0.367H299.237z"/>
		<path d="M303.257,205.461v1.184h1.138v0.302h-1.138v1.193h-0.322v-1.193h-1.139v-0.302h1.139v-1.184H303.257z"/>
	</g>
</g>
<g>
	
		<radialGradient id="path11134_2_" cx="396.7358" cy="-360.626" r="22.1565" gradientTransform="matrix(0.3664 0 0 0.3664 152.8951 464.858)" gradientUnits="userSpaceOnUse">
		<stop  offset="0" style="stop-color:#FFFCDF"/>
		<stop  offset="0.1203" style="stop-color:#FFFBDA"/>
		<stop  offset="0.2662" style="stop-color:#FFF9CB"/>
		<stop  offset="0.4255" style="stop-color:#FFF6B2"/>
		<stop  offset="0.5943" style="stop-color:#FFF090"/>
		<stop  offset="0.7706" style="stop-color:#FFEA64"/>
		<stop  offset="0.9506" style="stop-color:#FFE22F"/>
		<stop  offset="1" style="stop-color:#FFE01F"/>
	</radialGradient>
	<path id="path11134_5_" fill="url(#path11134_2_)" stroke="#000000" stroke-width="0.9921" d="M306.377,332.726
		c0,4.482-3.635,8.117-8.117,8.117c-4.484,0-8.119-3.635-8.119-8.117s3.634-8.119,8.119-8.119
		C302.742,324.606,306.377,328.243,306.377,332.726z"/>
	<g>
		<path d="M295.601,335.885c-0.224,0.115-0.691,0.23-1.282,0.23c-1.368,0-2.391-0.864-2.391-2.463c0-1.527,1.029-2.55,2.535-2.55
			c0.598,0,0.986,0.13,1.152,0.216l-0.159,0.512c-0.23-0.115-0.568-0.202-0.972-0.202c-1.139,0-1.895,0.728-1.895,2.003
			c0,1.195,0.685,1.951,1.858,1.951c0.389,0,0.777-0.079,1.029-0.201L295.601,335.885z"/>
		<path d="M298.772,335.2c0,0.303,0.015,0.599,0.051,0.836h-0.569l-0.058-0.439h-0.021c-0.188,0.273-0.569,0.519-1.065,0.519
			c-0.706,0-1.066-0.497-1.066-1.001c0-0.843,0.749-1.304,2.096-1.297v-0.071c0-0.288-0.079-0.814-0.792-0.807
			c-0.331,0-0.67,0.094-0.915,0.259l-0.144-0.425c0.288-0.18,0.713-0.303,1.152-0.303c1.073,0,1.332,0.728,1.332,1.427V335.2z
			 M298.153,334.257c-0.691-0.014-1.477,0.108-1.477,0.785c0,0.418,0.273,0.605,0.591,0.605c0.461,0,0.756-0.288,0.857-0.584
			c0.021-0.064,0.028-0.137,0.028-0.201V334.257z"/>
		<path d="M299.487,333.64v-0.271l0.348-0.338c0.836-0.796,1.219-1.219,1.219-1.712c0-0.332-0.156-0.64-0.645-0.64
			c-0.298,0-0.544,0.151-0.695,0.277l-0.141-0.313c0.222-0.187,0.549-0.332,0.926-0.332c0.7,0,0.997,0.483,0.997,0.951
			c0,0.604-0.438,1.093-1.128,1.758l-0.257,0.241v0.011h1.466v0.367H299.487z"/>
		<path d="M303.507,330.961v1.184h1.138v0.302h-1.138v1.193h-0.322v-1.193h-1.139v-0.302h1.139v-1.184H303.507z"/>
	</g>
</g>
<g>
	
		<radialGradient id="path11134_3_" cx="-8.5591" cy="-493.6768" r="22.1563" gradientTransform="matrix(0.3664 0 0 0.3664 152.8951 464.858)" gradientUnits="userSpaceOnUse">
		<stop  offset="0" style="stop-color:#FFFCDF"/>
		<stop  offset="0.1203" style="stop-color:#FFFBDA"/>
		<stop  offset="0.2662" style="stop-color:#FFF9CB"/>
		<stop  offset="0.4255" style="stop-color:#FFF6B2"/>
		<stop  offset="0.5943" style="stop-color:#FFF090"/>
		<stop  offset="0.7706" style="stop-color:#FFEA64"/>
		<stop  offset="0.9506" style="stop-color:#FFE22F"/>
		<stop  offset="1" style="stop-color:#FFE01F"/>
	</radialGradient>
	<path id="path11134_6_" fill="url(#path11134_3_)" stroke="#000000" stroke-width="0.9921" d="M157.877,283.976
		c0,4.482-3.635,8.117-8.117,8.117c-4.484,0-8.119-3.635-8.119-8.117s3.634-8.119,8.119-8.119
		C154.242,275.856,157.877,279.493,157.877,283.976z"/>
	<g>
		<path d="M147.101,287.135c-0.224,0.115-0.691,0.23-1.282,0.23c-1.368,0-2.391-0.864-2.391-2.463c0-1.527,1.029-2.55,2.535-2.55
			c0.598,0,0.986,0.13,1.152,0.216l-0.159,0.512c-0.23-0.115-0.568-0.202-0.972-0.202c-1.139,0-1.895,0.728-1.895,2.003
			c0,1.195,0.685,1.951,1.858,1.951c0.389,0,0.777-0.079,1.029-0.201L147.101,287.135z"/>
		<path d="M150.272,286.45c0,0.303,0.015,0.599,0.051,0.836h-0.569l-0.058-0.439h-0.021c-0.188,0.273-0.569,0.519-1.065,0.519
			c-0.706,0-1.066-0.497-1.066-1.001c0-0.843,0.749-1.304,2.096-1.297v-0.071c0-0.288-0.079-0.814-0.792-0.807
			c-0.331,0-0.67,0.094-0.915,0.259l-0.144-0.425c0.288-0.18,0.713-0.303,1.152-0.303c1.073,0,1.332,0.728,1.332,1.427V286.45z
			 M149.653,285.507c-0.691-0.014-1.477,0.108-1.477,0.785c0,0.418,0.273,0.605,0.591,0.605c0.461,0,0.756-0.288,0.857-0.584
			c0.021-0.064,0.028-0.137,0.028-0.201V285.507z"/>
		<path d="M150.987,284.89v-0.271l0.348-0.338c0.836-0.796,1.219-1.219,1.219-1.712c0-0.332-0.156-0.64-0.645-0.64
			c-0.298,0-0.544,0.151-0.695,0.277l-0.141-0.313c0.222-0.187,0.549-0.332,0.926-0.332c0.7,0,0.997,0.483,0.997,0.951
			c0,0.604-0.438,1.093-1.128,1.758l-0.257,0.241v0.011h1.466v0.367H150.987z"/>
		<path d="M155.007,282.211v1.184h1.138v0.302h-1.138v1.193h-0.322v-1.193h-1.139v-0.302h1.139v-1.184H155.007z"/>
	</g>
</g>
<g>
	<g>
		<g id="g1177_1_">
			<path id="path30085_1_" fill="none" stroke="#000000" stroke-width="2" stroke-linecap="round" stroke-linejoin="round" d="
				M259.005,272.924l-9.637,9.64l-0.08,0.842v35.364"/>
			<path id="path84039_1_" fill="none" stroke="#000000" stroke-width="2" stroke-linecap="round" stroke-linejoin="round" d="
				M235.251,272.729l9.637,9.639l0.082,0.844v35.365"/>
		</g>
		<g id="g1181_1_">
			
				<radialGradient id="rect78407_2_" cx="137.4243" cy="-218.4893" r="13.8286" gradientTransform="matrix(0.7055 0.7087 -0.7087 0.7055 -4.6681 319.9307)" gradientUnits="userSpaceOnUse">
				<stop  offset="0" style="stop-color:#D0C4E0"/>
				<stop  offset="0.3949" style="stop-color:#C1D1EB"/>
				<stop  offset="0.5372" style="stop-color:#B9CCE9"/>
				<stop  offset="0.6386" style="stop-color:#AEC3E5"/>
				<stop  offset="0.7206" style="stop-color:#9FB9E0"/>
				<stop  offset="0.7909" style="stop-color:#8DABD9"/>
				<stop  offset="0.8531" style="stop-color:#7596CD"/>
				<stop  offset="0.9093" style="stop-color:#5C80C0"/>
				<stop  offset="0.9593" style="stop-color:#476FB5"/>
				<stop  offset="1" style="stop-color:#4165AE"/>
			</radialGradient>
			<path id="rect78407_1_" fill="url(#rect78407_2_)" stroke="#000000" d="M250.068,247.694l12.557,12.611
				c1.602,1.609,1.598,4.212-0.014,5.813L250,278.675c-1.607,1.602-4.213,1.596-5.814-0.014l-12.553-12.611
				c-1.6-1.607-1.596-4.211,0.014-5.813l12.611-12.555C245.865,246.081,248.468,246.085,250.068,247.694z"/>
		</g>
	</g>
	<g enable-background="new    ">
		<path d="M243.188,262.986h-2.609v2.429h2.918v0.729h-3.798v-6.736h3.648v0.729h-2.769v2.129h2.609V262.986z"/>
		<path d="M249.767,265.845c-0.39,0.149-1.169,0.37-2.079,0.37c-1.02,0-1.859-0.26-2.519-0.89c-0.58-0.56-0.939-1.459-0.939-2.509
			c0-2.009,1.389-3.479,3.648-3.479c0.78,0,1.399,0.17,1.689,0.311l-0.22,0.709c-0.36-0.17-0.81-0.289-1.489-0.289
			c-1.639,0-2.708,1.019-2.708,2.708c0,1.709,1.02,2.719,2.599,2.719c0.57,0,0.959-0.08,1.159-0.18v-2.01h-1.359v-0.699h2.219
			V265.845z"/>
		<path d="M251.079,259.408h3.628v0.729h-2.749v2.239h2.539v0.72h-2.539v3.048h-0.879V259.408z"/>
	</g>
</g>
</svg>
