<?xml version="1.0" encoding="utf-8"?>
<!-- Generator: Adobe Illustrator 14.0.0, SVG Export Plug-In . SVG Version: 6.00 Build 43363)  -->
<!DOCTYPE svg PUBLIC "-//W3C//DTD SVG 1.1//EN" "http://www.w3.org/Graphics/SVG/1.1/DTD/svg11.dtd">
<svg version="1.1" id="Layer_1" xmlns="http://www.w3.org/2000/svg" xmlns:xlink="http://www.w3.org/1999/xlink" x="0px" y="0px"
	 width="595.28px" height="841.89px" viewBox="0 0 595.28 841.89" enable-background="new 0 0 595.28 841.89" xml:space="preserve">
<g id="g59398" transform="translate(21.16987,-31.23187)">
	<g id="g7045">
		<g id="g7047">
			<path id="path7049" fill="#C1DAF2" stroke="#288ECD" d="M234.463,435.789c0-1.288-1.045-2.333-2.332-2.333
				c-1.289,0-2.334,1.045-2.334,2.333s1.045,2.333,2.334,2.333C233.418,438.122,234.463,437.077,234.463,435.789z"/>
			<path id="path7051" fill="none" stroke="#288ECD" d="M232.131,433.456v-16.334"/>
		</g>
		<g id="g7053">
			<path id="path7055" fill="#C1DAF2" stroke="#288ECD" d="M229.113,435.789c0-1.288-1.045-2.333-2.332-2.333
				c-1.289,0-2.334,1.045-2.334,2.333s1.045,2.333,2.334,2.333C228.068,438.122,229.113,437.077,229.113,435.789z"/>
			<path id="path7057" fill="none" stroke="#288ECD" d="M226.781,433.456v-16.334"/>
		</g>
		<g id="g7059">
			<path id="path7061" fill="#C1DAF2" stroke="#288ECD" d="M223.764,435.789c0-1.288-1.045-2.333-2.334-2.333
				c-1.287,0-2.332,1.045-2.332,2.333s1.045,2.333,2.332,2.333C222.719,438.122,223.764,437.077,223.764,435.789z"/>
			<path id="path7063" fill="none" stroke="#288ECD" d="M221.43,433.456v-16.334"/>
		</g>
		<g id="g7065">
			<path id="path7067" fill="#C1DAF2" stroke="#288ECD" d="M250.516,435.789c0-1.288-1.045-2.333-2.334-2.333
				c-1.287,0-2.332,1.045-2.332,2.333s1.045,2.333,2.332,2.333C249.471,438.122,250.516,437.077,250.516,435.789z"/>
			<path id="path7069" fill="none" stroke="#288ECD" d="M248.182,433.456v-16.334"/>
		</g>
		<g id="g7071">
			<path id="path7073" fill="#C1DAF2" stroke="#288ECD" d="M245.164,435.789c0-1.288-1.045-2.333-2.332-2.333
				c-1.289,0-2.334,1.045-2.334,2.333s1.045,2.333,2.334,2.333C244.119,438.122,245.164,437.077,245.164,435.789z"/>
			<path id="path7075" fill="none" stroke="#288ECD" d="M242.832,433.456v-16.334"/>
		</g>
		<g id="g7077">
			<path id="path7079" fill="#C1DAF2" stroke="#288ECD" d="M239.814,435.789c0-1.288-1.045-2.333-2.334-2.333
				c-1.287,0-2.332,1.045-2.332,2.333s1.045,2.333,2.332,2.333C238.77,438.122,239.814,437.077,239.814,435.789z"/>
			<path id="path7081" fill="none" stroke="#288ECD" d="M237.481,433.456v-16.334"/>
		</g>
		<g id="g7083">
			<path id="path7085" fill="#C1DAF2" stroke="#288ECD" d="M237.139,412.888c0,1.287-1.045,2.333-2.332,2.333
				c-1.289,0-2.334-1.046-2.334-2.333c0-1.288,1.045-2.333,2.334-2.333C236.094,410.555,237.139,411.601,237.139,412.888z"/>
			<path id="path7087" fill="none" stroke="#288ECD" d="M234.807,415.221v16.334"/>
		</g>
		<g id="g7089">
			<path id="path7091" fill="#C1DAF2" stroke="#288ECD" d="M231.789,412.888c0,1.287-1.045,2.333-2.334,2.333
				c-1.287,0-2.332-1.046-2.332-2.333c0-1.288,1.045-2.333,2.332-2.333C230.744,410.555,231.789,411.601,231.789,412.888z"/>
			<path id="path7093" fill="none" stroke="#288ECD" d="M229.455,415.221v16.334"/>
		</g>
		<g id="g7095">
			<path id="path7097" fill="#C1DAF2" stroke="#288ECD" d="M226.438,412.888c0,1.287-1.045,2.333-2.332,2.333
				c-1.289,0-2.334-1.046-2.334-2.333c0-1.288,1.045-2.333,2.334-2.333C225.393,410.555,226.438,411.601,226.438,412.888z"/>
			<path id="path7099" fill="none" stroke="#288ECD" d="M224.106,415.221v16.334"/>
		</g>
		<g id="g7101">
			<path id="path7103" fill="#C1DAF2" stroke="#288ECD" d="M253.189,412.888c0,1.287-1.045,2.333-2.332,2.333
				c-1.289,0-2.334-1.046-2.334-2.333c0-1.288,1.045-2.333,2.334-2.333C252.145,410.555,253.189,411.601,253.189,412.888z"/>
			<path id="path7105" fill="none" stroke="#288ECD" d="M250.857,415.221v16.334"/>
		</g>
		<g id="g7107">
			<path id="path7109" fill="#C1DAF2" stroke="#288ECD" d="M247.84,412.888c0,1.287-1.045,2.333-2.332,2.333
				c-1.289,0-2.334-1.046-2.334-2.333c0-1.288,1.045-2.333,2.334-2.333C246.795,410.555,247.84,411.601,247.84,412.888z"/>
			<path id="path7111" fill="none" stroke="#288ECD" d="M245.508,415.221v16.334"/>
		</g>
		<g id="g7113">
			<path id="path7115" fill="#C1DAF2" stroke="#288ECD" d="M242.49,412.888c0,1.287-1.047,2.333-2.334,2.333
				s-2.332-1.046-2.332-2.333c0-1.288,1.045-2.333,2.332-2.333S242.49,411.601,242.49,412.888z"/>
			<path id="path7117" fill="none" stroke="#288ECD" d="M240.156,415.221v16.334"/>
		</g>
	</g>
	<g id="g7119">
		<g id="g7121">
			<path id="path7123" fill="#C1DAF2" stroke="#288ECD" d="M202.467,435.789c0-1.288-1.045-2.333-2.332-2.333
				c-1.289,0-2.334,1.045-2.334,2.333s1.045,2.333,2.334,2.333C201.422,438.122,202.467,437.077,202.467,435.789z"/>
			<path id="path7125" fill="none" stroke="#288ECD" d="M200.135,433.456v-16.334"/>
		</g>
		<g id="g7127">
			<path id="path7129" fill="#C1DAF2" stroke="#288ECD" d="M197.118,435.789c0-1.288-1.045-2.333-2.333-2.333
				s-2.333,1.045-2.333,2.333s1.045,2.333,2.333,2.333C196.072,438.122,197.118,437.077,197.118,435.789z"/>
			<path id="path7131" fill="none" stroke="#288ECD" d="M194.785,433.456v-16.334"/>
		</g>
		<g id="g7133">
			<path id="path7135" fill="#C1DAF2" stroke="#288ECD" d="M191.766,435.789c0-1.288-1.045-2.333-2.332-2.333
				c-1.289,0-2.334,1.045-2.334,2.333s1.045,2.333,2.334,2.333C190.721,438.122,191.766,437.077,191.766,435.789z"/>
			<path id="path7137" fill="none" stroke="#288ECD" d="M189.434,433.456v-16.334"/>
		</g>
		<g id="g7139">
			<path id="path7141" fill="#C1DAF2" stroke="#288ECD" d="M218.518,435.789c0-1.288-1.045-2.333-2.332-2.333
				c-1.289,0-2.334,1.045-2.334,2.333s1.045,2.333,2.334,2.333C217.473,438.122,218.518,437.077,218.518,435.789z"/>
			<path id="path7143" fill="none" stroke="#288ECD" d="M216.186,433.456v-16.334"/>
		</g>
		<g id="g7145">
			<path id="path7147" fill="#C1DAF2" stroke="#288ECD" d="M213.169,435.789c0-1.288-1.045-2.333-2.333-2.333
				s-2.333,1.045-2.333,2.333s1.045,2.333,2.333,2.333S213.169,437.077,213.169,435.789z"/>
			<path id="path7149" fill="none" stroke="#288ECD" d="M210.835,433.456v-16.334"/>
		</g>
		<g id="g7151">
			<path id="path7153" fill="#C1DAF2" stroke="#288ECD" d="M207.817,435.789c0-1.288-1.045-2.333-2.332-2.333
				c-1.288,0-2.334,1.045-2.334,2.333s1.046,2.333,2.334,2.333C206.772,438.122,207.817,437.077,207.817,435.789z"/>
			<path id="path7155" fill="none" stroke="#288ECD" d="M205.485,433.456v-16.334"/>
		</g>
		<g id="g7157">
			<path id="path7159" fill="#C1DAF2" stroke="#288ECD" d="M205.143,412.888c0,1.287-1.045,2.333-2.334,2.333
				c-1.287,0-2.332-1.046-2.332-2.333c0-1.288,1.045-2.333,2.332-2.333C204.098,410.555,205.143,411.601,205.143,412.888z"/>
			<path id="path7161" fill="none" stroke="#288ECD" d="M202.809,415.221v16.334"/>
		</g>
		<g id="g7163">
			<path id="path7165" fill="#C1DAF2" stroke="#288ECD" d="M199.792,412.888c0,1.287-1.045,2.333-2.333,2.333
				s-2.333-1.046-2.333-2.333c0-1.288,1.045-2.333,2.333-2.333S199.792,411.601,199.792,412.888z"/>
			<path id="path7167" fill="none" stroke="#288ECD" d="M197.46,415.221v16.334"/>
		</g>
		<g id="g7169">
			<path id="path7171" fill="#C1DAF2" stroke="#288ECD" d="M194.442,412.888c0,1.287-1.045,2.333-2.334,2.333
				c-1.287,0-2.332-1.046-2.332-2.333c0-1.288,1.045-2.333,2.332-2.333C193.397,410.555,194.442,411.601,194.442,412.888z"/>
			<path id="path7173" fill="none" stroke="#288ECD" d="M192.108,415.221v16.334"/>
		</g>
		<g id="g7175">
			<path id="path7177" fill="#C1DAF2" stroke="#288ECD" d="M221.194,412.888c0,1.287-1.045,2.333-2.334,2.333
				c-1.287,0-2.332-1.046-2.332-2.333c0-1.288,1.045-2.333,2.332-2.333C220.149,410.555,221.194,411.601,221.194,412.888z"/>
			<path id="path7179" fill="none" stroke="#288ECD" d="M218.862,415.221v16.334"/>
		</g>
		<g id="g7181">
			<path id="path7183" fill="#C1DAF2" stroke="#288ECD" d="M215.844,412.888c0,1.287-1.046,2.333-2.334,2.333
				c-1.287,0-2.332-1.046-2.332-2.333c0-1.288,1.045-2.333,2.332-2.333C214.798,410.555,215.844,411.601,215.844,412.888z"/>
			<path id="path7185" fill="none" stroke="#288ECD" d="M213.51,415.221v16.334"/>
		</g>
		<g id="g7187">
			<path id="path7189" fill="#C1DAF2" stroke="#288ECD" d="M210.494,412.888c0,1.287-1.045,2.333-2.333,2.333
				s-2.333-1.046-2.333-2.333c0-1.288,1.045-2.333,2.333-2.333S210.494,411.601,210.494,412.888z"/>
			<path id="path7191" fill="none" stroke="#288ECD" d="M208.161,415.221v16.334"/>
		</g>
	</g>
	<g id="g7193">
		<g id="g7195">
			<path id="path7197" fill="#C1DAF2" stroke="#288ECD" d="M170.471,435.789c0-1.288-1.046-2.333-2.334-2.333
				c-1.287,0-2.332,1.045-2.332,2.333s1.045,2.333,2.332,2.333C169.425,438.122,170.471,437.077,170.471,435.789z"/>
			<path id="path7199" fill="none" stroke="#288ECD" d="M168.137,433.456v-16.334"/>
		</g>
		<g id="g7201">
			<path id="path7203" fill="#C1DAF2" stroke="#288ECD" d="M165.121,435.789c0-1.288-1.045-2.333-2.333-2.333
				s-2.333,1.045-2.333,2.333s1.045,2.333,2.333,2.333S165.121,437.077,165.121,435.789z"/>
			<path id="path7205" fill="none" stroke="#288ECD" d="M162.788,433.456v-16.334"/>
		</g>
		<g id="g7207">
			<path id="path7209" fill="#C1DAF2" stroke="#288ECD" d="M159.77,435.789c0-1.288-1.045-2.333-2.334-2.333
				c-1.287,0-2.332,1.045-2.332,2.333s1.045,2.333,2.332,2.333C158.725,438.122,159.77,437.077,159.77,435.789z"/>
			<path id="path7211" fill="none" stroke="#288ECD" d="M157.436,433.456v-16.334"/>
		</g>
		<g id="g7213">
			<path id="path7215" fill="#C1DAF2" stroke="#288ECD" d="M186.522,435.789c0-1.288-1.045-2.333-2.332-2.333
				c-1.289,0-2.334,1.045-2.334,2.333s1.045,2.333,2.334,2.333C185.477,438.122,186.522,437.077,186.522,435.789z"/>
			<path id="path7217" fill="none" stroke="#288ECD" d="M184.19,433.456v-16.334"/>
		</g>
		<g id="g7219">
			<path id="path7221" fill="#C1DAF2" stroke="#288ECD" d="M181.171,435.789c0-1.288-1.045-2.333-2.333-2.333
				s-2.333,1.045-2.333,2.333s1.045,2.333,2.333,2.333S181.171,437.077,181.171,435.789z"/>
			<path id="path7223" fill="none" stroke="#288ECD" d="M178.838,433.456v-16.334"/>
		</g>
		<g id="g7225">
			<path id="path7227" fill="#C1DAF2" stroke="#288ECD" d="M175.822,435.789c0-1.288-1.046-2.333-2.333-2.333
				c-1.288,0-2.333,1.045-2.333,2.333s1.045,2.333,2.333,2.333C174.776,438.122,175.822,437.077,175.822,435.789z"/>
			<path id="path7229" fill="none" stroke="#288ECD" d="M173.489,433.456v-16.334"/>
		</g>
		<g id="g7231">
			<path id="path7233" fill="#C1DAF2" stroke="#288ECD" d="M173.145,412.888c0,1.287-1.045,2.333-2.332,2.333
				c-1.289,0-2.334-1.046-2.334-2.333c0-1.288,1.045-2.333,2.334-2.333C172.1,410.555,173.145,411.601,173.145,412.888z"/>
			<path id="path7235" fill="none" stroke="#288ECD" d="M170.813,415.221v16.334"/>
		</g>
		<g id="g7237">
			<path id="path7239" fill="#C1DAF2" stroke="#288ECD" d="M167.795,412.888c0,1.287-1.045,2.333-2.333,2.333
				s-2.333-1.046-2.333-2.333c0-1.288,1.045-2.333,2.333-2.333S167.795,411.601,167.795,412.888z"/>
			<path id="path7241" fill="none" stroke="#288ECD" d="M165.462,415.221v16.334"/>
		</g>
		<g id="g7243">
			<path id="path7245" fill="#C1DAF2" stroke="#288ECD" d="M162.446,412.888c0,1.287-1.045,2.333-2.334,2.333
				c-1.287,0-2.332-1.046-2.332-2.333c0-1.288,1.045-2.333,2.332-2.333C161.401,410.555,162.446,411.601,162.446,412.888z"/>
			<path id="path7247" fill="none" stroke="#288ECD" d="M160.112,415.221v16.334"/>
		</g>
		<g id="g7249">
			<path id="path7251" fill="#C1DAF2" stroke="#288ECD" d="M189.198,412.888c0,1.287-1.045,2.333-2.333,2.333
				s-2.333-1.046-2.333-2.333c0-1.288,1.045-2.333,2.333-2.333S189.198,411.601,189.198,412.888z"/>
			<path id="path7253" fill="none" stroke="#288ECD" d="M186.865,415.221v16.334"/>
		</g>
		<g id="g7255">
			<path id="path7257" fill="#C1DAF2" stroke="#288ECD" d="M183.848,412.888c0,1.287-1.045,2.333-2.334,2.333
				c-1.287,0-2.332-1.046-2.332-2.333c0-1.288,1.045-2.333,2.332-2.333C182.803,410.555,183.848,411.601,183.848,412.888z"/>
			<path id="path7259" fill="none" stroke="#288ECD" d="M181.514,415.221v16.334"/>
		</g>
		<g id="g7261">
			<path id="path7263" fill="#C1DAF2" stroke="#288ECD" d="M178.497,412.888c0,1.287-1.045,2.333-2.333,2.333
				s-2.333-1.046-2.333-2.333c0-1.288,1.045-2.333,2.333-2.333S178.497,411.601,178.497,412.888z"/>
			<path id="path7265" fill="none" stroke="#288ECD" d="M176.164,415.221v16.334"/>
		</g>
	</g>
	<g id="g7267">
		<g id="g7269">
			<path id="path7271" fill="#C1DAF2" stroke="#288ECD" d="M138.475,435.789c0-1.288-1.045-2.333-2.334-2.333
				c-1.287,0-2.332,1.045-2.332,2.333s1.045,2.333,2.332,2.333C137.43,438.122,138.475,437.077,138.475,435.789z"/>
			<path id="path7273" fill="none" stroke="#288ECD" d="M136.141,433.456v-16.334"/>
		</g>
		<g id="g7275">
			<path id="path7277" fill="#C1DAF2" stroke="#288ECD" d="M133.124,435.789c0-1.288-1.045-2.333-2.333-2.333
				s-2.333,1.045-2.333,2.333s1.045,2.333,2.333,2.333S133.124,437.077,133.124,435.789z"/>
			<path id="path7279" fill="none" stroke="#288ECD" d="M130.791,433.456v-16.334"/>
		</g>
		<g id="g7281">
			<path id="path7283" fill="#C1DAF2" stroke="#288ECD" d="M127.773,435.789c0-1.288-1.045-2.333-2.333-2.333
				s-2.333,1.045-2.333,2.333s1.045,2.333,2.333,2.333S127.773,437.077,127.773,435.789z"/>
			<path id="path7285" fill="none" stroke="#288ECD" d="M125.44,433.456v-16.334"/>
		</g>
		<g id="g7287">
			<path id="path7289" fill="#C1DAF2" stroke="#288ECD" d="M154.526,435.789c0-1.288-1.045-2.333-2.334-2.333
				c-1.287,0-2.332,1.045-2.332,2.333s1.045,2.333,2.332,2.333C153.481,438.122,154.526,437.077,154.526,435.789z"/>
			<path id="path7291" fill="none" stroke="#288ECD" d="M152.192,433.456v-16.334"/>
		</g>
		<g id="g7293">
			<path id="path7295" fill="#C1DAF2" stroke="#288ECD" d="M149.175,435.789c0-1.288-1.045-2.333-2.333-2.333
				c-1.287,0-2.333,1.045-2.333,2.333s1.046,2.333,2.333,2.333C148.13,438.122,149.175,437.077,149.175,435.789z"/>
			<path id="path7297" fill="none" stroke="#288ECD" d="M146.842,433.456v-16.334"/>
		</g>
		<g id="g7299">
			<path id="path7301" fill="#C1DAF2" stroke="#288ECD" d="M143.825,435.789c0-1.288-1.045-2.333-2.333-2.333
				s-2.333,1.045-2.333,2.333s1.045,2.333,2.333,2.333S143.825,437.077,143.825,435.789z"/>
			<path id="path7303" fill="none" stroke="#288ECD" d="M141.492,433.456v-16.334"/>
		</g>
		<g id="g7305">
			<path id="path7307" fill="#C1DAF2" stroke="#288ECD" d="M141.149,412.888c0,1.287-1.045,2.333-2.332,2.333
				c-1.289,0-2.334-1.046-2.334-2.333c0-1.288,1.045-2.333,2.334-2.333C140.104,410.555,141.149,411.601,141.149,412.888z"/>
			<path id="path7309" fill="none" stroke="#288ECD" d="M138.817,415.221v16.334"/>
		</g>
		<g id="g7311">
			<path id="path7313" fill="#C1DAF2" stroke="#288ECD" d="M135.798,412.888c0,1.287-1.045,2.333-2.333,2.333
				c-1.287,0-2.333-1.046-2.333-2.333c0-1.288,1.046-2.333,2.333-2.333C134.753,410.555,135.798,411.601,135.798,412.888z"/>
			<path id="path7315" fill="none" stroke="#288ECD" d="M133.465,415.221v16.334"/>
		</g>
		<g id="g7317">
			<path id="path7319" fill="#C1DAF2" stroke="#288ECD" d="M130.449,412.888c0,1.287-1.045,2.333-2.333,2.333
				c-1.288,0-2.333-1.046-2.333-2.333c0-1.288,1.045-2.333,2.333-2.333C129.403,410.555,130.449,411.601,130.449,412.888z"/>
			<path id="path7321" fill="none" stroke="#288ECD" d="M128.116,415.221v16.334"/>
		</g>
		<g id="g7323">
			<path id="path7325" fill="#C1DAF2" stroke="#288ECD" d="M157.201,412.888c0,1.287-1.045,2.333-2.333,2.333
				s-2.333-1.046-2.333-2.333c0-1.288,1.045-2.333,2.333-2.333S157.201,411.601,157.201,412.888z"/>
			<path id="path7327" fill="none" stroke="#288ECD" d="M154.869,415.221v16.334"/>
		</g>
		<g id="g7329">
			<path id="path7331" fill="#C1DAF2" stroke="#288ECD" d="M151.85,412.888c0,1.287-1.045,2.333-2.332,2.333
				c-1.289,0-2.334-1.046-2.334-2.333c0-1.288,1.045-2.333,2.334-2.333C150.805,410.555,151.85,411.601,151.85,412.888z"/>
			<path id="path7333" fill="none" stroke="#288ECD" d="M149.518,415.221v16.334"/>
		</g>
		<g id="g7335">
			<path id="path7337" fill="#C1DAF2" stroke="#288ECD" d="M146.5,412.888c0,1.287-1.045,2.333-2.333,2.333
				s-2.333-1.046-2.333-2.333c0-1.288,1.045-2.333,2.333-2.333S146.5,411.601,146.5,412.888z"/>
			<path id="path7339" fill="none" stroke="#288ECD" d="M144.167,415.221v16.334"/>
		</g>
	</g>
	<g id="g7341">
		<g id="g7343">
			<path id="path7345" fill="#C1DAF2" stroke="#288ECD" d="M106.478,435.789c0-1.288-1.045-2.333-2.333-2.333
				s-2.333,1.045-2.333,2.333s1.045,2.333,2.333,2.333S106.478,437.077,106.478,435.789z"/>
			<path id="path7347" fill="none" stroke="#288ECD" d="M104.145,433.456v-16.334"/>
		</g>
		<g id="g7349">
			<path id="path7351" fill="#C1DAF2" stroke="#288ECD" d="M101.127,435.789c0-1.288-1.045-2.333-2.333-2.333
				s-2.333,1.045-2.333,2.333s1.045,2.333,2.333,2.333C100.082,438.122,101.127,437.077,101.127,435.789z"/>
			<path id="path7353" fill="none" stroke="#288ECD" d="M98.794,433.456v-16.334"/>
		</g>
		<g id="g7355">
			<path id="path7357" fill="#C1DAF2" stroke="#288ECD" d="M95.776,435.789c0-1.288-1.045-2.333-2.333-2.333
				c-1.288,0-2.333,1.045-2.333,2.333s1.045,2.333,2.333,2.333C94.731,438.122,95.776,437.077,95.776,435.789z"/>
			<path id="path7359" fill="none" stroke="#288ECD" d="M93.443,433.456v-16.334"/>
		</g>
		<g id="g7361">
			<path id="path7363" fill="#C1DAF2" stroke="#288ECD" d="M122.529,435.789c0-1.288-1.045-2.333-2.333-2.333
				c-1.288,0-2.333,1.045-2.333,2.333s1.045,2.333,2.333,2.333C121.484,438.122,122.529,437.077,122.529,435.789z"/>
			<path id="path7365" fill="none" stroke="#288ECD" d="M120.196,433.456v-16.334"/>
		</g>
		<g id="g7367">
			<path id="path7369" fill="#C1DAF2" stroke="#288ECD" d="M117.179,435.789c0-1.288-1.045-2.333-2.333-2.333
				c-1.288,0-2.333,1.045-2.333,2.333s1.045,2.333,2.333,2.333C116.133,438.122,117.179,437.077,117.179,435.789z"/>
			<path id="path7371" fill="none" stroke="#288ECD" d="M114.846,433.456v-16.334"/>
		</g>
		<g id="g7373">
			<path id="path7375" fill="#C1DAF2" stroke="#288ECD" d="M111.829,435.789c0-1.288-1.045-2.333-2.333-2.333
				s-2.333,1.045-2.333,2.333s1.045,2.333,2.333,2.333S111.829,437.077,111.829,435.789z"/>
			<path id="path7377" fill="none" stroke="#288ECD" d="M109.496,433.456v-16.334"/>
		</g>
		<g id="g7379">
			<path id="path7381" fill="#C1DAF2" stroke="#288ECD" d="M109.152,412.888c0,1.287-1.045,2.333-2.333,2.333
				c-1.288,0-2.333-1.046-2.333-2.333c0-1.288,1.045-2.333,2.333-2.333C108.107,410.555,109.152,411.601,109.152,412.888z"/>
			<path id="path7383" fill="none" stroke="#288ECD" d="M106.819,415.221v16.334"/>
		</g>
		<g id="g7385">
			<path id="path7387" fill="#C1DAF2" stroke="#288ECD" d="M103.803,412.888c0,1.287-1.045,2.333-2.333,2.333
				c-1.288,0-2.333-1.046-2.333-2.333c0-1.288,1.045-2.333,2.333-2.333C102.757,410.555,103.803,411.601,103.803,412.888z"/>
			<path id="path7389" fill="none" stroke="#288ECD" d="M101.47,415.221v16.334"/>
		</g>
		<g id="g7391">
			<path id="path7393" fill="#C1DAF2" stroke="#288ECD" d="M98.453,412.888c0,1.287-1.045,2.333-2.333,2.333
				s-2.333-1.046-2.333-2.333c0-1.288,1.045-2.333,2.333-2.333S98.453,411.601,98.453,412.888z"/>
			<path id="path7395" fill="none" stroke="#288ECD" d="M96.12,415.221v16.334"/>
		</g>
		<g id="g7397">
			<path id="path7399" fill="#C1DAF2" stroke="#288ECD" d="M125.205,412.888c0,1.287-1.045,2.333-2.333,2.333
				s-2.333-1.046-2.333-2.333c0-1.288,1.045-2.333,2.333-2.333S125.205,411.601,125.205,412.888z"/>
			<path id="path7401" fill="none" stroke="#288ECD" d="M122.872,415.221v16.334"/>
		</g>
		<g id="g7403">
			<path id="path7405" fill="#C1DAF2" stroke="#288ECD" d="M119.854,412.888c0,1.287-1.045,2.333-2.333,2.333
				s-2.333-1.046-2.333-2.333c0-1.288,1.045-2.333,2.333-2.333S119.854,411.601,119.854,412.888z"/>
			<path id="path7407" fill="none" stroke="#288ECD" d="M117.521,415.221v16.334"/>
		</g>
		<g id="g7409">
			<path id="path7411" fill="#C1DAF2" stroke="#288ECD" d="M114.503,412.888c0,1.287-1.045,2.333-2.333,2.333
				s-2.333-1.046-2.333-2.333c0-1.288,1.045-2.333,2.333-2.333S114.503,411.601,114.503,412.888z"/>
			<path id="path7413" fill="none" stroke="#288ECD" d="M112.17,415.221v16.334"/>
		</g>
	</g>
	<g id="g7415">
		<g id="g7417">
			<path id="path7419" fill="#C1DAF2" stroke="#288ECD" d="M74.481,435.789c0-1.288-1.045-2.333-2.333-2.333
				s-2.333,1.045-2.333,2.333s1.045,2.333,2.333,2.333S74.481,437.077,74.481,435.789z"/>
			<path id="path7421" fill="none" stroke="#288ECD" d="M72.148,433.456v-16.334"/>
		</g>
		<g id="g7423">
			<path id="path7425" fill="#C1DAF2" stroke="#288ECD" d="M69.13,435.789c0-1.288-1.045-2.333-2.333-2.333
				c-1.288,0-2.333,1.045-2.333,2.333s1.045,2.333,2.333,2.333C68.086,438.122,69.13,437.077,69.13,435.789z"/>
			<path id="path7427" fill="none" stroke="#288ECD" d="M66.797,433.456v-16.334"/>
		</g>
		<g id="g7429">
			<path id="path7431" fill="#C1DAF2" stroke="#288ECD" d="M63.781,435.789c0-1.288-1.045-2.333-2.333-2.333
				c-1.288,0-2.333,1.045-2.333,2.333s1.045,2.333,2.333,2.333C62.735,438.122,63.781,437.077,63.781,435.789z"/>
			<path id="path7433" fill="none" stroke="#288ECD" d="M61.448,433.456v-16.334"/>
		</g>
		<g id="g7435">
			<path id="path7437" fill="#C1DAF2" stroke="#288ECD" d="M90.533,435.789c0-1.288-1.045-2.333-2.333-2.333
				c-1.288,0-2.333,1.045-2.333,2.333s1.045,2.333,2.333,2.333C89.487,438.122,90.533,437.077,90.533,435.789z"/>
			<path id="path7439" fill="none" stroke="#288ECD" d="M88.2,433.456v-16.334"/>
		</g>
		<g id="g7441">
			<path id="path7443" fill="#C1DAF2" stroke="#288ECD" d="M85.183,435.789c0-1.288-1.045-2.333-2.333-2.333
				s-2.333,1.045-2.333,2.333s1.045,2.333,2.333,2.333S85.183,437.077,85.183,435.789z"/>
			<path id="path7445" fill="none" stroke="#288ECD" d="M82.85,433.456v-16.334"/>
		</g>
		<g id="g7447">
			<path id="path7449" fill="#C1DAF2" stroke="#288ECD" d="M79.832,435.789c0-1.288-1.045-2.333-2.333-2.333
				s-2.333,1.045-2.333,2.333s1.045,2.333,2.333,2.333S79.832,437.077,79.832,435.789z"/>
			<path id="path7451" fill="none" stroke="#288ECD" d="M77.499,433.456v-16.334"/>
		</g>
		<g id="g7453">
			<path id="path7455" fill="#C1DAF2" stroke="#288ECD" d="M77.157,412.888c0,1.287-1.045,2.333-2.333,2.333
				c-1.288,0-2.333-1.046-2.333-2.333c0-1.288,1.045-2.333,2.333-2.333C76.111,410.555,77.157,411.601,77.157,412.888z"/>
			<path id="path7457" fill="none" stroke="#288ECD" d="M74.824,415.221v16.334"/>
		</g>
		<g id="g7459">
			<path id="path7461" fill="#C1DAF2" stroke="#288ECD" d="M71.806,412.888c0,1.287-1.045,2.333-2.333,2.333
				s-2.333-1.046-2.333-2.333c0-1.288,1.045-2.333,2.333-2.333S71.806,411.601,71.806,412.888z"/>
			<path id="path7463" fill="none" stroke="#288ECD" d="M69.473,415.221v16.334"/>
		</g>
		<g id="g7465">
			<path id="path7467" fill="#C1DAF2" stroke="#288ECD" d="M66.456,412.888c0,1.287-1.045,2.333-2.333,2.333
				s-2.333-1.046-2.333-2.333c0-1.288,1.045-2.333,2.333-2.333S66.456,411.601,66.456,412.888z"/>
			<path id="path7469" fill="none" stroke="#288ECD" d="M64.123,415.221v16.334"/>
		</g>
		<g id="g7471">
			<path id="path7473" fill="#C1DAF2" stroke="#288ECD" d="M93.208,412.888c0,1.287-1.045,2.333-2.333,2.333
				s-2.333-1.046-2.333-2.333c0-1.288,1.045-2.333,2.333-2.333S93.208,411.601,93.208,412.888z"/>
			<path id="path7475" fill="none" stroke="#288ECD" d="M90.875,415.221v16.334"/>
		</g>
		<g id="g7477">
			<path id="path7479" fill="#C1DAF2" stroke="#288ECD" d="M87.857,412.888c0,1.287-1.045,2.333-2.333,2.333
				s-2.333-1.046-2.333-2.333c0-1.288,1.045-2.333,2.333-2.333S87.857,411.601,87.857,412.888z"/>
			<path id="path7481" fill="none" stroke="#288ECD" d="M85.524,415.221v16.334"/>
		</g>
		<g id="g7483">
			<path id="path7485" fill="#C1DAF2" stroke="#288ECD" d="M82.506,412.888c0,1.287-1.045,2.333-2.333,2.333
				c-1.288,0-2.333-1.046-2.333-2.333c0-1.288,1.045-2.333,2.333-2.333C81.461,410.555,82.506,411.601,82.506,412.888z"/>
			<path id="path7487" fill="none" stroke="#288ECD" d="M80.173,415.221v16.334"/>
		</g>
	</g>
	<g id="g7045_1_">
		<g id="g7047_1_">
			<path id="path7049_1_" fill="#C1DAF2" stroke="#288ECD" d="M266.875,435.789c0-1.289-1.045-2.334-2.332-2.334
				c-1.289,0-2.334,1.045-2.334,2.334c0,1.287,1.045,2.332,2.334,2.332C265.83,438.122,266.875,437.077,266.875,435.789z"/>
			<path id="path7051_1_" fill="none" stroke="#288ECD" d="M264.543,433.456v-16.334"/>
		</g>
		<g id="g7053_1_">
			<path id="path7055_1_" fill="#C1DAF2" stroke="#288ECD" d="M261.525,435.789c0-1.289-1.045-2.334-2.332-2.334
				c-1.289,0-2.334,1.045-2.334,2.334c0,1.287,1.045,2.332,2.334,2.332C260.481,438.122,261.525,437.077,261.525,435.789z"/>
			<path id="path7057_1_" fill="none" stroke="#288ECD" d="M259.193,433.456v-16.334"/>
		</g>
		<g id="g7059_1_">
			<path id="path7061_1_" fill="#C1DAF2" stroke="#288ECD" d="M256.176,435.789c0-1.289-1.045-2.334-2.334-2.334
				c-1.287,0-2.332,1.045-2.332,2.334c0,1.287,1.045,2.332,2.332,2.332C255.131,438.122,256.176,437.077,256.176,435.789z"/>
			<path id="path7063_1_" fill="none" stroke="#288ECD" d="M253.842,433.456v-16.334"/>
		</g>
		<g id="g7065_1_">
			<path id="path7067_1_" fill="#C1DAF2" stroke="#288ECD" d="M282.928,435.789c0-1.289-1.045-2.334-2.334-2.334
				c-1.287,0-2.332,1.045-2.332,2.334c0,1.287,1.045,2.332,2.332,2.332C281.883,438.122,282.928,437.077,282.928,435.789z"/>
			<path id="path7069_1_" fill="none" stroke="#288ECD" d="M280.594,433.456v-16.334"/>
		</g>
		<g id="g7071_1_">
			<path id="path7073_1_" fill="#C1DAF2" stroke="#288ECD" d="M277.576,435.789c0-1.289-1.045-2.334-2.332-2.334
				c-1.289,0-2.334,1.045-2.334,2.334c0,1.287,1.045,2.332,2.334,2.332C276.531,438.122,277.576,437.077,277.576,435.789z"/>
			<path id="path7075_1_" fill="none" stroke="#288ECD" d="M275.244,433.456v-16.334"/>
		</g>
		<g id="g7077_1_">
			<path id="path7079_1_" fill="#C1DAF2" stroke="#288ECD" d="M272.227,435.789c0-1.289-1.045-2.334-2.334-2.334
				c-1.287,0-2.332,1.045-2.332,2.334c0,1.287,1.045,2.332,2.332,2.332C271.182,438.122,272.227,437.077,272.227,435.789z"/>
			<path id="path7081_1_" fill="none" stroke="#288ECD" d="M269.893,433.456v-16.334"/>
		</g>
		<g id="g7083_1_">
			<path id="path7085_1_" fill="#C1DAF2" stroke="#288ECD" d="M269.551,412.888c0,1.288-1.045,2.333-2.332,2.333
				c-1.289,0-2.334-1.045-2.334-2.333s1.045-2.333,2.334-2.333C268.506,410.555,269.551,411.601,269.551,412.888z"/>
			<path id="path7087_1_" fill="none" stroke="#288ECD" d="M267.219,415.221v16.334"/>
		</g>
		<g id="g7089_1_">
			<path id="path7091_1_" fill="#C1DAF2" stroke="#288ECD" d="M264.201,412.888c0,1.288-1.045,2.333-2.334,2.333
				c-1.287,0-2.332-1.045-2.332-2.333s1.045-2.333,2.332-2.333C263.156,410.555,264.201,411.601,264.201,412.888z"/>
			<path id="path7093_1_" fill="none" stroke="#288ECD" d="M261.867,415.221v16.334"/>
		</g>
		<g id="g7095_1_">
			<path id="path7097_1_" fill="#C1DAF2" stroke="#288ECD" d="M258.85,412.888c0,1.288-1.045,2.333-2.332,2.333
				c-1.289,0-2.334-1.045-2.334-2.333s1.045-2.333,2.334-2.333C257.805,410.555,258.85,411.601,258.85,412.888z"/>
			<path id="path7099_1_" fill="none" stroke="#288ECD" d="M256.518,415.221v16.334"/>
		</g>
		<g id="g7101_1_">
			<path id="path7103_1_" fill="#C1DAF2" stroke="#288ECD" d="M285.602,412.888c0,1.288-1.045,2.333-2.332,2.333
				c-1.289,0-2.334-1.045-2.334-2.333s1.045-2.333,2.334-2.333C284.557,410.555,285.602,411.601,285.602,412.888z"/>
			<path id="path7105_1_" fill="none" stroke="#288ECD" d="M283.27,415.221v16.334"/>
		</g>
		<g id="g7107_1_">
			<path id="path7109_1_" fill="#C1DAF2" stroke="#288ECD" d="M280.252,412.888c0,1.288-1.045,2.333-2.332,2.333
				c-1.289,0-2.334-1.045-2.334-2.333s1.045-2.333,2.334-2.333C279.207,410.555,280.252,411.601,280.252,412.888z"/>
			<path id="path7111_1_" fill="none" stroke="#288ECD" d="M277.92,415.221v16.334"/>
		</g>
		<g id="g7113_1_">
			<path id="path7115_1_" fill="#C1DAF2" stroke="#288ECD" d="M274.902,412.888c0,1.288-1.047,2.333-2.334,2.333
				s-2.332-1.045-2.332-2.333s1.045-2.333,2.332-2.333S274.902,411.601,274.902,412.888z"/>
			<path id="path7117_1_" fill="none" stroke="#288ECD" d="M272.568,415.221v16.334"/>
		</g>
	</g>
	<g id="g7045_2_">
		<g id="g7047_2_">
			<path id="path7049_2_" fill="#C1DAF2" stroke="#288ECD" d="M298.635,435.789c0-1.289-1.045-2.334-2.333-2.334
				s-2.333,1.045-2.333,2.334c0,1.287,1.045,2.332,2.333,2.332S298.635,437.077,298.635,435.789z"/>
			<path id="path7051_2_" fill="none" stroke="#288ECD" d="M296.302,433.456v-16.334"/>
		</g>
		<g id="g7053_2_">
			<path id="path7055_2_" fill="#C1DAF2" stroke="#288ECD" d="M293.285,435.789c0-1.289-1.045-2.334-2.333-2.334
				s-2.333,1.045-2.333,2.334c0,1.287,1.045,2.332,2.333,2.332S293.285,437.077,293.285,435.789z"/>
			<path id="path7057_2_" fill="none" stroke="#288ECD" d="M290.952,433.456v-16.334"/>
		</g>
		<g id="g7059_2_">
			<path id="path7061_2_" fill="#C1DAF2" stroke="#288ECD" d="M287.936,435.789c0-1.289-1.045-2.334-2.334-2.334
				c-1.287,0-2.332,1.045-2.332,2.334c0,1.287,1.045,2.332,2.332,2.332C286.891,438.122,287.936,437.077,287.936,435.789z"/>
			<path id="path7063_2_" fill="none" stroke="#288ECD" d="M285.602,433.456v-16.334"/>
		</g>
		<g id="g7065_2_">
			<path id="path7067_2_" fill="#C1DAF2" stroke="#288ECD" d="M314.688,435.789c0-1.289-1.045-2.334-2.334-2.334
				c-1.287,0-2.332,1.045-2.332,2.334c0,1.287,1.045,2.332,2.332,2.332C313.643,438.122,314.688,437.077,314.688,435.789z"/>
			<path id="path7069_2_" fill="none" stroke="#288ECD" d="M312.354,433.456v-16.334"/>
		</g>
		<g id="g7071_2_">
			<path id="path7073_2_" fill="#C1DAF2" stroke="#288ECD" d="M309.336,435.789c0-1.289-1.045-2.334-2.333-2.334
				s-2.333,1.045-2.333,2.334c0,1.287,1.045,2.332,2.333,2.332S309.336,437.077,309.336,435.789z"/>
			<path id="path7075_2_" fill="none" stroke="#288ECD" d="M307.003,433.456v-16.334"/>
		</g>
		<g id="g7077_2_">
			<path id="path7079_2_" fill="#C1DAF2" stroke="#288ECD" d="M303.986,435.789c0-1.289-1.045-2.334-2.334-2.334
				c-1.287,0-2.332,1.045-2.332,2.334c0,1.287,1.045,2.332,2.332,2.332C302.941,438.122,303.986,437.077,303.986,435.789z"/>
			<path id="path7081_2_" fill="none" stroke="#288ECD" d="M301.652,433.456v-16.334"/>
		</g>
		<g id="g7083_2_">
			<path id="path7085_2_" fill="#C1DAF2" stroke="#288ECD" d="M301.311,412.888c0,1.288-1.045,2.333-2.332,2.333
				c-1.289,0-2.334-1.045-2.334-2.333s1.045-2.333,2.334-2.333C300.266,410.555,301.311,411.601,301.311,412.888z"/>
			<path id="path7087_2_" fill="none" stroke="#288ECD" d="M298.979,415.221v16.334"/>
		</g>
		<g id="g7089_2_">
			<path id="path7091_2_" fill="#C1DAF2" stroke="#288ECD" d="M295.96,412.888c0,1.288-1.045,2.333-2.333,2.333
				s-2.333-1.045-2.333-2.333s1.045-2.333,2.333-2.333S295.96,411.601,295.96,412.888z"/>
			<path id="path7093_2_" fill="none" stroke="#288ECD" d="M293.627,415.221v16.334"/>
		</g>
		<g id="g7095_2_">
			<path id="path7097_2_" fill="#C1DAF2" stroke="#288ECD" d="M290.609,412.888c0,1.288-1.045,2.333-2.332,2.333
				c-1.289,0-2.334-1.045-2.334-2.333s1.045-2.333,2.334-2.333C289.565,410.555,290.609,411.601,290.609,412.888z"/>
			<path id="path7099_2_" fill="none" stroke="#288ECD" d="M288.277,415.221v16.334"/>
		</g>
		<g id="g7101_2_">
			<path id="path7103_2_" fill="#C1DAF2" stroke="#288ECD" d="M317.361,412.888c0,1.288-1.045,2.333-2.332,2.333
				c-1.289,0-2.334-1.045-2.334-2.333s1.045-2.333,2.334-2.333C316.316,410.555,317.361,411.601,317.361,412.888z"/>
			<path id="path7105_2_" fill="none" stroke="#288ECD" d="M315.029,415.221v16.334"/>
		</g>
		<g id="g7107_2_">
			<path id="path7109_2_" fill="#C1DAF2" stroke="#288ECD" d="M312.012,412.888c0,1.288-1.045,2.333-2.333,2.333
				s-2.333-1.045-2.333-2.333s1.045-2.333,2.333-2.333S312.012,411.601,312.012,412.888z"/>
			<path id="path7111_2_" fill="none" stroke="#288ECD" d="M309.679,415.221v16.334"/>
		</g>
		<g id="g7113_2_">
			<path id="path7115_2_" fill="#C1DAF2" stroke="#288ECD" d="M306.661,412.888c0,1.288-1.046,2.333-2.333,2.333
				c-1.288,0-2.333-1.045-2.333-2.333s1.045-2.333,2.333-2.333C305.615,410.555,306.661,411.601,306.661,412.888z"/>
			<path id="path7117_2_" fill="none" stroke="#288ECD" d="M304.328,415.221v16.334"/>
		</g>
	</g>
	<g id="g7045_3_">
		<g id="g7047_3_">
			<path id="path7049_3_" fill="#C1DAF2" stroke="#288ECD" d="M330.395,435.789c0-1.289-1.045-2.334-2.333-2.334
				s-2.333,1.045-2.333,2.334c0,1.287,1.045,2.332,2.333,2.332S330.395,437.077,330.395,435.789z"/>
			<path id="path7051_3_" fill="none" stroke="#288ECD" d="M328.062,433.456v-16.334"/>
		</g>
		<g id="g7053_3_">
			<path id="path7055_3_" fill="#C1DAF2" stroke="#288ECD" d="M325.045,435.789c0-1.289-1.045-2.334-2.333-2.334
				s-2.333,1.045-2.333,2.334c0,1.287,1.045,2.332,2.333,2.332S325.045,437.077,325.045,435.789z"/>
			<path id="path7057_3_" fill="none" stroke="#288ECD" d="M322.712,433.456v-16.334"/>
		</g>
		<g id="g7059_3_">
			<path id="path7061_3_" fill="#C1DAF2" stroke="#288ECD" d="M319.695,435.789c0-1.289-1.045-2.334-2.334-2.334
				c-1.287,0-2.332,1.045-2.332,2.334c0,1.287,1.045,2.332,2.332,2.332C318.65,438.122,319.695,437.077,319.695,435.789z"/>
			<path id="path7063_3_" fill="none" stroke="#288ECD" d="M317.361,433.456v-16.334"/>
		</g>
		<g id="g7065_3_">
			<path id="path7067_3_" fill="#C1DAF2" stroke="#288ECD" d="M346.447,435.789c0-1.289-1.045-2.334-2.334-2.334
				c-1.287,0-2.332,1.045-2.332,2.334c0,1.287,1.045,2.332,2.332,2.332C345.402,438.122,346.447,437.077,346.447,435.789z"/>
			<path id="path7069_3_" fill="none" stroke="#288ECD" d="M344.113,433.456v-16.334"/>
		</g>
		<g id="g7071_3_">
			<path id="path7073_3_" fill="#C1DAF2" stroke="#288ECD" d="M341.096,435.789c0-1.289-1.045-2.334-2.333-2.334
				s-2.333,1.045-2.333,2.334c0,1.287,1.045,2.332,2.333,2.332S341.096,437.077,341.096,435.789z"/>
			<path id="path7075_3_" fill="none" stroke="#288ECD" d="M338.763,433.456v-16.334"/>
		</g>
		<g id="g7077_3_">
			<path id="path7079_3_" fill="#C1DAF2" stroke="#288ECD" d="M335.746,435.789c0-1.289-1.045-2.334-2.334-2.334
				c-1.287,0-2.332,1.045-2.332,2.334c0,1.287,1.045,2.332,2.332,2.332C334.701,438.122,335.746,437.077,335.746,435.789z"/>
			<path id="path7081_3_" fill="none" stroke="#288ECD" d="M333.412,433.456v-16.334"/>
		</g>
		<g id="g7083_3_">
			<path id="path7085_3_" fill="#C1DAF2" stroke="#288ECD" d="M333.07,412.888c0,1.288-1.045,2.333-2.332,2.333
				c-1.289,0-2.334-1.045-2.334-2.333s1.045-2.333,2.334-2.333C332.025,410.555,333.07,411.601,333.07,412.888z"/>
			<path id="path7087_3_" fill="none" stroke="#288ECD" d="M330.738,415.221v16.334"/>
		</g>
		<g id="g7089_3_">
			<path id="path7091_3_" fill="#C1DAF2" stroke="#288ECD" d="M327.72,412.888c0,1.288-1.045,2.333-2.333,2.333
				s-2.333-1.045-2.333-2.333s1.045-2.333,2.333-2.333S327.72,411.601,327.72,412.888z"/>
			<path id="path7093_3_" fill="none" stroke="#288ECD" d="M325.387,415.221v16.334"/>
		</g>
		<g id="g7095_3_">
			<path id="path7097_3_" fill="#C1DAF2" stroke="#288ECD" d="M322.369,412.888c0,1.288-1.045,2.333-2.332,2.333
				c-1.289,0-2.334-1.045-2.334-2.333s1.045-2.333,2.334-2.333C321.324,410.555,322.369,411.601,322.369,412.888z"/>
			<path id="path7099_3_" fill="none" stroke="#288ECD" d="M320.037,415.221v16.334"/>
		</g>
		<g id="g7101_3_">
			<path id="path7103_3_" fill="#C1DAF2" stroke="#288ECD" d="M349.121,412.888c0,1.288-1.045,2.333-2.332,2.333
				c-1.289,0-2.334-1.045-2.334-2.333s1.045-2.333,2.334-2.333C348.076,410.555,349.121,411.601,349.121,412.888z"/>
			<path id="path7105_3_" fill="none" stroke="#288ECD" d="M346.789,415.221v16.334"/>
		</g>
		<g id="g7107_3_">
			<path id="path7109_3_" fill="#C1DAF2" stroke="#288ECD" d="M343.772,412.888c0,1.288-1.045,2.333-2.333,2.333
				s-2.333-1.045-2.333-2.333s1.045-2.333,2.333-2.333S343.772,411.601,343.772,412.888z"/>
			<path id="path7111_3_" fill="none" stroke="#288ECD" d="M341.439,415.221v16.334"/>
		</g>
		<g id="g7113_3_">
			<path id="path7115_3_" fill="#C1DAF2" stroke="#288ECD" d="M338.421,412.888c0,1.288-1.046,2.333-2.333,2.333
				c-1.288,0-2.333-1.045-2.333-2.333s1.045-2.333,2.333-2.333C337.375,410.555,338.421,411.601,338.421,412.888z"/>
			<path id="path7117_3_" fill="none" stroke="#288ECD" d="M336.088,415.221v16.334"/>
		</g>
	</g>
	<g id="g7045_4_">
		<g id="g7047_4_">
			<path id="path7049_4_" fill="#C1DAF2" stroke="#288ECD" d="M361.813,435.789c0-1.289-1.045-2.334-2.332-2.334
				c-1.289,0-2.334,1.045-2.334,2.334c0,1.287,1.045,2.332,2.334,2.332C360.768,438.122,361.813,437.077,361.813,435.789z"/>
			<path id="path7051_4_" fill="none" stroke="#288ECD" d="M359.481,433.456v-16.334"/>
		</g>
		<g id="g7053_4_">
			<path id="path7055_4_" fill="#C1DAF2" stroke="#288ECD" d="M356.463,435.789c0-1.289-1.045-2.334-2.333-2.334
				s-2.333,1.045-2.333,2.334c0,1.287,1.045,2.332,2.333,2.332S356.463,437.077,356.463,435.789z"/>
			<path id="path7057_4_" fill="none" stroke="#288ECD" d="M354.13,433.456v-16.334"/>
		</g>
		<g id="g7059_4_">
			<path id="path7061_4_" fill="#C1DAF2" stroke="#288ECD" d="M351.113,435.789c0-1.289-1.045-2.334-2.334-2.334
				c-1.287,0-2.332,1.045-2.332,2.334c0,1.287,1.045,2.332,2.332,2.332C350.068,438.122,351.113,437.077,351.113,435.789z"/>
			<path id="path7063_4_" fill="none" stroke="#288ECD" d="M348.779,433.456v-16.334"/>
		</g>
		<g id="g7065_4_">
			<path id="path7067_4_" fill="#C1DAF2" stroke="#288ECD" d="M377.865,435.789c0-1.289-1.045-2.334-2.334-2.334
				c-1.287,0-2.332,1.045-2.332,2.334c0,1.287,1.045,2.332,2.332,2.332C376.82,438.122,377.865,437.077,377.865,435.789z"/>
			<path id="path7069_4_" fill="none" stroke="#288ECD" d="M375.531,433.456v-16.334"/>
		</g>
		<g id="g7071_4_">
			<path id="path7073_4_" fill="#C1DAF2" stroke="#288ECD" d="M372.514,435.789c0-1.289-1.045-2.334-2.332-2.334
				c-1.289,0-2.334,1.045-2.334,2.334c0,1.287,1.045,2.332,2.334,2.332C371.469,438.122,372.514,437.077,372.514,435.789z"/>
			<path id="path7075_4_" fill="none" stroke="#288ECD" d="M370.182,433.456v-16.334"/>
		</g>
		<g id="g7077_4_">
			<path id="path7079_4_" fill="#C1DAF2" stroke="#288ECD" d="M367.164,435.789c0-1.289-1.045-2.334-2.334-2.334
				c-1.287,0-2.332,1.045-2.332,2.334c0,1.287,1.045,2.332,2.332,2.332C366.119,438.122,367.164,437.077,367.164,435.789z"/>
			<path id="path7081_4_" fill="none" stroke="#288ECD" d="M364.83,433.456v-16.334"/>
		</g>
		<g id="g7083_4_">
			<path id="path7085_4_" fill="#C1DAF2" stroke="#288ECD" d="M364.488,412.888c0,1.288-1.045,2.333-2.332,2.333
				c-1.289,0-2.334-1.045-2.334-2.333s1.045-2.333,2.334-2.333C363.443,410.555,364.488,411.601,364.488,412.888z"/>
			<path id="path7087_4_" fill="none" stroke="#288ECD" d="M362.156,415.221v16.334"/>
		</g>
		<g id="g7089_4_">
			<path id="path7091_4_" fill="#C1DAF2" stroke="#288ECD" d="M359.139,412.888c0,1.288-1.046,2.333-2.334,2.333
				s-2.333-1.045-2.333-2.333s1.045-2.333,2.333-2.333S359.139,411.601,359.139,412.888z"/>
			<path id="path7093_4_" fill="none" stroke="#288ECD" d="M356.805,415.221v16.334"/>
		</g>
		<g id="g7095_4_">
			<path id="path7097_4_" fill="#C1DAF2" stroke="#288ECD" d="M353.787,412.888c0,1.288-1.045,2.333-2.332,2.333
				c-1.289,0-2.334-1.045-2.334-2.333s1.045-2.333,2.334-2.333C352.742,410.555,353.787,411.601,353.787,412.888z"/>
			<path id="path7099_4_" fill="none" stroke="#288ECD" d="M351.455,415.221v16.334"/>
		</g>
		<g id="g7101_4_">
			<path id="path7103_4_" fill="#C1DAF2" stroke="#288ECD" d="M380.539,412.888c0,1.288-1.045,2.333-2.332,2.333
				c-1.289,0-2.334-1.045-2.334-2.333s1.045-2.333,2.334-2.333C379.494,410.555,380.539,411.601,380.539,412.888z"/>
			<path id="path7105_4_" fill="none" stroke="#288ECD" d="M378.207,415.221v16.334"/>
		</g>
		<g id="g7107_4_">
			<path id="path7109_4_" fill="#C1DAF2" stroke="#288ECD" d="M375.19,412.888c0,1.288-1.045,2.333-2.332,2.333
				c-1.289,0-2.334-1.045-2.334-2.333s1.045-2.333,2.334-2.333C374.145,410.555,375.19,411.601,375.19,412.888z"/>
			<path id="path7111_4_" fill="none" stroke="#288ECD" d="M372.857,415.221v16.334"/>
		</g>
		<g id="g7113_4_">
			<path id="path7115_4_" fill="#C1DAF2" stroke="#288ECD" d="M369.84,412.888c0,1.288-1.047,2.333-2.334,2.333
				s-2.332-1.045-2.332-2.333s1.045-2.333,2.332-2.333S369.84,411.601,369.84,412.888z"/>
			<path id="path7117_4_" fill="none" stroke="#288ECD" d="M367.506,415.221v16.334"/>
		</g>
	</g>
</g>
<g>
	<path id="path19818" fill="#F5EA14" stroke="#000000" d="M168.122,235.445c0,2.681-2.097,4.854-4.681,4.854
		c-2.585,0-4.68-2.173-4.68-4.854c0-2.68,2.095-4.853,4.68-4.853C166.025,230.593,168.122,232.766,168.122,235.445z"/>
	<g enable-background="new    ">
		<path fill="#ED3C95" d="M161.987,232.498c0.322-0.063,0.743-0.111,1.279-0.111c0.659,0,1.141,0.159,1.448,0.444
			c0.283,0.254,0.459,0.643,0.459,1.119c0,0.483-0.138,0.864-0.406,1.143c-0.353,0.389-0.927,0.587-1.578,0.587
			c-0.199,0-0.383-0.008-0.536-0.048v2.143h-0.667V232.498z M162.653,235.068c0.146,0.04,0.337,0.056,0.552,0.056
			c0.812,0,1.294-0.412,1.294-1.135c0-0.714-0.483-1.055-1.218-1.055c-0.291,0-0.513,0.031-0.628,0.056V235.068z"/>
	</g>
</g>
<g>
	<g>
		
			<radialGradient id="path16609_7_" cx="216.8076" cy="-308.625" r="16.1858" gradientTransform="matrix(1.5933 0 0 0.6358 -100.4113 477.5898)" gradientUnits="userSpaceOnUse">
			<stop  offset="0" style="stop-color:#FCFAE0"/>
			<stop  offset="0.1203" style="stop-color:#FDFADB"/>
			<stop  offset="0.2662" style="stop-color:#FFF8CB"/>
			<stop  offset="0.4255" style="stop-color:#FDF5B2"/>
			<stop  offset="0.5943" style="stop-color:#FDEF90"/>
			<stop  offset="0.7706" style="stop-color:#FDE863"/>
			<stop  offset="0.9506" style="stop-color:#FDE02C"/>
			<stop  offset="1" style="stop-color:#FDDF19"/>
		</radialGradient>
		<path id="path16609_3_" fill="url(#path16609_7_)" stroke="#000000" d="M270.344,281.364c0,5.787-11.338,10.479-25.316,10.479
			c-13.981,0-25.315-4.689-25.315-10.479c0-5.787,11.334-10.475,25.315-10.475C259.006,270.89,270.344,275.577,270.344,281.364z"/>
		<g>
			<path fill="#231F20" d="M237.828,282.182l-0.7,2.119h-0.899l2.299-6.736h1.039l2.299,6.736h-0.93l-0.72-2.119H237.828z
				 M240.046,281.502l-0.669-1.938c-0.15-0.439-0.25-0.84-0.351-1.229h-0.02c-0.1,0.39-0.2,0.81-0.34,1.22l-0.66,1.948H240.046z"/>
			<path fill="#231F20" d="M242.858,277.664c0.529-0.09,1.159-0.149,1.849-0.149c1.249,0,2.139,0.3,2.729,0.84
				c0.609,0.549,0.96,1.329,0.96,2.418c0,1.1-0.351,1.999-0.97,2.619c-0.64,0.629-1.679,0.969-2.988,0.969
				c-0.63,0-1.14-0.029-1.579-0.079V277.664z M243.728,283.621c0.22,0.03,0.54,0.04,0.88,0.04c1.869,0,2.868-1.039,2.868-2.858
				c0.01-1.589-0.89-2.599-2.729-2.599c-0.449,0-0.789,0.04-1.02,0.09V283.621z"/>
			<path fill="#231F20" d="M249.519,277.645c0.42-0.07,0.97-0.13,1.669-0.13c0.859,0,1.489,0.2,1.889,0.56
				c0.36,0.319,0.59,0.81,0.59,1.409c0,0.609-0.18,1.09-0.52,1.439c-0.47,0.489-1.209,0.739-2.059,0.739c-0.26,0-0.5-0.01-0.7-0.06
				v2.698h-0.869V277.645z M250.388,280.893c0.19,0.05,0.43,0.07,0.72,0.07c1.05,0,1.689-0.52,1.689-1.43
				c0-0.899-0.64-1.329-1.59-1.329c-0.379,0-0.669,0.03-0.819,0.07V280.893z"/>
		</g>
	</g>
	<g>
		
			<radialGradient id="path16609_8_" cx="292.21" cy="-308.625" r="16.1858" gradientTransform="matrix(1.5933 0 0 0.6358 -100.4113 477.5898)" gradientUnits="userSpaceOnUse">
			<stop  offset="0" style="stop-color:#FCFAE0"/>
			<stop  offset="0.1203" style="stop-color:#FDFADB"/>
			<stop  offset="0.2662" style="stop-color:#FFF8CB"/>
			<stop  offset="0.4255" style="stop-color:#FDF5B2"/>
			<stop  offset="0.5943" style="stop-color:#FDEF90"/>
			<stop  offset="0.7706" style="stop-color:#FDE863"/>
			<stop  offset="0.9506" style="stop-color:#FDE02C"/>
			<stop  offset="1" style="stop-color:#FDDF19"/>
		</radialGradient>
		<path id="path16609_4_" fill="url(#path16609_8_)" stroke="#000000" d="M390.482,281.364c0,5.787-11.338,10.479-25.316,10.479
			c-13.98,0-25.314-4.689-25.314-10.479c0-5.787,11.334-10.475,25.314-10.475C379.145,270.89,390.482,275.577,390.482,281.364z"/>
		<g>
			<path fill="#231F20" d="M359.197,282.182l-0.7,2.119h-0.899l2.299-6.736h1.039l2.299,6.736h-0.93l-0.719-2.119H359.197z
				 M361.416,281.502l-0.67-1.938c-0.15-0.439-0.25-0.84-0.35-1.229h-0.02c-0.102,0.39-0.201,0.81-0.34,1.22l-0.66,1.948H361.416z"
				/>
			<path fill="#231F20" d="M364.736,278.304h-2.049v-0.739h4.988v0.739h-2.061v5.997h-0.879V278.304z"/>
			<path fill="#231F20" d="M368.428,277.645c0.42-0.07,0.969-0.13,1.668-0.13c0.859,0,1.49,0.2,1.889,0.56
				c0.361,0.319,0.59,0.81,0.59,1.409c0,0.609-0.18,1.09-0.52,1.439c-0.469,0.489-1.209,0.739-2.059,0.739
				c-0.26,0-0.5-0.01-0.699-0.06v2.698h-0.869V277.645z M369.297,280.893c0.189,0.05,0.43,0.07,0.719,0.07
				c1.051,0,1.689-0.52,1.689-1.43c0-0.899-0.639-1.329-1.59-1.329c-0.379,0-0.668,0.03-0.818,0.07V280.893z"/>
		</g>
	</g>
</g>
<g>
	
		<radialGradient id="path16609_12_" cx="188.4185" cy="-27.8398" r="16.1858" gradientTransform="matrix(1.5933 0 0 0.6358 -100.4113 477.5898)" gradientUnits="userSpaceOnUse">
		<stop  offset="0" style="stop-color:#FCFAE0"/>
		<stop  offset="0.1203" style="stop-color:#FDFADB"/>
		<stop  offset="0.2662" style="stop-color:#FFF8CB"/>
		<stop  offset="0.4255" style="stop-color:#FDF5B2"/>
		<stop  offset="0.5943" style="stop-color:#FDEF90"/>
		<stop  offset="0.7706" style="stop-color:#FDE863"/>
		<stop  offset="0.9506" style="stop-color:#FDE02C"/>
		<stop  offset="1" style="stop-color:#FDDF19"/>
	</radialGradient>
	<path id="path16609_5_" fill="url(#path16609_12_)" stroke="#000000" d="M225.111,459.888c0,5.787-11.338,10.479-25.316,10.479
		c-13.981,0-25.315-4.689-25.315-10.479c0-5.787,11.334-10.475,25.315-10.475C213.773,449.413,225.111,454.101,225.111,459.888z"/>
	<g>
		<path fill="#231F20" d="M193.375,456.169c0.42-0.07,0.97-0.13,1.669-0.13c0.86,0,1.489,0.2,1.89,0.56
			c0.359,0.319,0.59,0.81,0.59,1.409c0,0.609-0.181,1.09-0.521,1.439c-0.47,0.489-1.209,0.739-2.059,0.739
			c-0.26,0-0.5-0.01-0.699-0.06v2.698h-0.87V456.169z M194.245,459.417c0.189,0.05,0.43,0.07,0.72,0.07
			c1.049,0,1.688-0.52,1.688-1.43c0-0.899-0.64-1.329-1.589-1.329c-0.38,0-0.67,0.03-0.819,0.07V459.417z"/>
		<path fill="#231F20" d="M203.392,462.615c-0.31,0.16-0.96,0.32-1.779,0.32c-1.898,0-3.318-1.2-3.318-3.419
			c0-2.118,1.43-3.538,3.519-3.538c0.829,0,1.369,0.181,1.599,0.3l-0.22,0.71c-0.319-0.16-0.789-0.279-1.349-0.279
			c-1.579,0-2.629,1.009-2.629,2.778c0,1.659,0.949,2.708,2.578,2.708c0.54,0,1.08-0.109,1.43-0.279L203.392,462.615z"/>
		<path fill="#231F20" d="M204.434,459.497c0-0.569-0.01-1.06-0.04-1.509h0.77l0.04,0.959h0.03c0.22-0.649,0.76-1.06,1.35-1.06
			c0.09,0,0.159,0.01,0.239,0.021v0.829c-0.09-0.02-0.18-0.02-0.3-0.02c-0.619,0-1.06,0.459-1.18,1.119
			c-0.02,0.12-0.029,0.27-0.029,0.41v2.578h-0.88V459.497z"/>
	</g>
</g>
<g>
	<g>
		<path id="path16609_2_" fill="none" stroke="#000000" d="M330.413,225.115c0,5.786-11.338,10.478-25.316,10.478
			c-13.98,0-25.314-4.689-25.314-10.478s11.334-10.476,25.314-10.476C319.075,214.641,330.413,219.328,330.413,225.115z"/>
		<g>
			<path fill="#231F20" d="M295.744,224.613c0,2.31-1.409,3.549-3.128,3.549c-1.789,0-3.028-1.39-3.028-3.429
				c0-2.139,1.319-3.538,3.118-3.538C294.554,221.195,295.744,222.604,295.744,224.613z M290.506,224.714
				c0,1.449,0.78,2.738,2.159,2.738c1.379,0,2.159-1.27,2.159-2.799c0-1.349-0.699-2.748-2.148-2.748
				S290.506,223.244,290.506,224.714z"/>
			<path fill="#231F20" d="M297.207,223.215l0.69,1.039c0.19,0.27,0.34,0.51,0.5,0.779h0.02c0.16-0.279,0.32-0.529,0.49-0.789
				l0.67-1.029h0.959l-1.649,2.338l1.688,2.499h-0.988l-0.72-1.09c-0.189-0.279-0.35-0.549-0.52-0.839h-0.02
				c-0.16,0.29-0.32,0.55-0.51,0.839l-0.7,1.09h-0.969l1.719-2.469l-1.639-2.368H297.207z"/>
			<path fill="#231F20" d="M301.457,221.396c0.42-0.07,0.971-0.13,1.67-0.13c0.859,0,1.488,0.2,1.889,0.56
				c0.359,0.319,0.59,0.81,0.59,1.409c0,0.609-0.18,1.09-0.52,1.439c-0.471,0.489-1.209,0.739-2.059,0.739
				c-0.26,0-0.5-0.01-0.701-0.06v2.698h-0.869V221.396z M302.326,224.644c0.191,0.05,0.43,0.07,0.721,0.07
				c1.049,0,1.689-0.52,1.689-1.43c0-0.899-0.641-1.329-1.59-1.329c-0.379,0-0.67,0.03-0.82,0.07V224.644z"/>
			<path fill="#231F20" d="M306.697,220.956h0.881v3.028h0.02c0.139-0.25,0.359-0.48,0.629-0.63c0.26-0.15,0.57-0.24,0.9-0.24
				c0.648,0,1.689,0.4,1.689,2.059v2.879h-0.881v-2.778c0-0.779-0.289-1.43-1.119-1.43c-0.57,0-1.01,0.4-1.18,0.87
				c-0.049,0.13-0.059,0.26-0.059,0.42v2.918h-0.881V220.956z"/>
			<path fill="#231F20" d="M316.625,225.593c0,1.789-1.25,2.569-2.408,2.569c-1.299,0-2.318-0.96-2.318-2.489
				c0-1.609,1.068-2.559,2.398-2.559C315.686,223.114,316.625,224.124,316.625,225.593z M312.797,225.644
				c0,1.059,0.6,1.858,1.459,1.858c0.84,0,1.471-0.789,1.471-1.879c0-0.819-0.41-1.849-1.449-1.849
				C313.248,223.774,312.797,224.733,312.797,225.644z"/>
			<path fill="#231F20" d="M317.617,227.162c0.271,0.16,0.73,0.34,1.17,0.34c0.629,0,0.93-0.31,0.93-0.72
				c0-0.42-0.25-0.64-0.889-0.879c-0.881-0.32-1.291-0.79-1.291-1.369c0-0.78,0.641-1.42,1.67-1.42c0.49,0,0.92,0.13,1.18,0.3
				l-0.211,0.64c-0.189-0.12-0.539-0.29-0.988-0.29c-0.52,0-0.801,0.3-0.801,0.66c0,0.399,0.281,0.58,0.91,0.829
				c0.83,0.311,1.27,0.729,1.27,1.449c0,0.86-0.67,1.46-1.799,1.46c-0.529,0-1.02-0.141-1.359-0.34L317.617,227.162z"/>
		</g>
	</g>
	<g>
		
			<radialGradient id="path31151_2_" cx="178.7866" cy="737.5205" r="16.6903" gradientTransform="matrix(1 0 0 -1 126.311 1077.1367)" gradientUnits="userSpaceOnUse">
			<stop  offset="0" style="stop-color:#FFDC9D"/>
			<stop  offset="0.2912" style="stop-color:#FFD99C"/>
			<stop  offset="0.4343" style="stop-color:#FFD196"/>
			<stop  offset="0.545" style="stop-color:#FCC58D"/>
			<stop  offset="0.6392" style="stop-color:#F8B07F"/>
			<stop  offset="0.7229" style="stop-color:#F69972"/>
			<stop  offset="0.799" style="stop-color:#F17B5B"/>
			<stop  offset="0.8695" style="stop-color:#F05B45"/>
			<stop  offset="0.9348" style="stop-color:#EE3B2E"/>
			<stop  offset="0.9951" style="stop-color:#EA2627"/>
			<stop  offset="1" style="stop-color:#EA2627"/>
		</radialGradient>
		<path id="path31151_3_" fill="url(#path31151_2_)" stroke="#000000" d="M317.501,332.504l8.24,7.041l-7.393,6.469
			c-3.332,3.045-8.97,5.047-15.367,5.047c-10.23,0-18.527-5.127-18.527-11.443c0-6.324,8.295-11.445,18.527-11.445
			C308.863,328.17,314.107,329.863,317.501,332.504z"/>
		<g>
			<path fill="#231F20" d="M300.624,339.593c-0.05-0.939-0.11-2.079-0.11-2.908h-0.02c-0.24,0.779-0.51,1.629-0.85,2.559
				l-1.189,3.268h-0.66l-1.099-3.208c-0.32-0.959-0.58-1.819-0.77-2.619h-0.02c-0.02,0.839-0.07,1.959-0.13,2.979l-0.18,2.888h-0.83
				l0.47-6.736h1.109l1.149,3.258c0.28,0.83,0.5,1.569,0.68,2.269h0.02c0.18-0.68,0.42-1.419,0.72-2.269l1.199-3.258h1.109
				l0.42,6.736h-0.86L300.624,339.593z"/>
			<path fill="#231F20" d="M304.057,336.355c0,0.3-0.21,0.54-0.56,0.54c-0.319,0-0.53-0.24-0.53-0.54s0.221-0.549,0.551-0.549
				C303.837,335.806,304.057,336.045,304.057,336.355z M303.077,342.552v-4.837h0.88v4.837H303.077z"/>
			<path fill="#231F20" d="M310.145,342.342c-0.311,0.16-0.959,0.32-1.779,0.32c-1.898,0-3.318-1.199-3.318-3.418
				c0-2.119,1.43-3.538,3.519-3.538c0.829,0,1.369,0.18,1.599,0.3l-0.219,0.709c-0.32-0.16-0.79-0.28-1.35-0.28
				c-1.58,0-2.629,1.009-2.629,2.778c0,1.659,0.949,2.708,2.578,2.708c0.54,0,1.08-0.11,1.43-0.28L310.145,342.342z"/>
			<path fill="#231F20" d="M311.247,335.815h0.869v3.248h0.03c0.18-0.26,0.359-0.5,0.529-0.719l2.059-2.529h1.08l-2.439,2.858
				l2.629,3.878h-1.029l-2.209-3.308l-0.649,0.74v2.568h-0.869V335.815z"/>
		</g>
	</g>
	<g>
		
			<radialGradient id="path31151_4_" cx="178.7866" cy="628.0195" r="16.6903" gradientTransform="matrix(1 0 0 -1 126.311 1077.1367)" gradientUnits="userSpaceOnUse">
			<stop  offset="0" style="stop-color:#FFDC9D"/>
			<stop  offset="0.2912" style="stop-color:#FFD99C"/>
			<stop  offset="0.4343" style="stop-color:#FFD196"/>
			<stop  offset="0.545" style="stop-color:#FCC58D"/>
			<stop  offset="0.6392" style="stop-color:#F8B07F"/>
			<stop  offset="0.7229" style="stop-color:#F69972"/>
			<stop  offset="0.799" style="stop-color:#F17B5B"/>
			<stop  offset="0.8695" style="stop-color:#F05B45"/>
			<stop  offset="0.9348" style="stop-color:#EE3B2E"/>
			<stop  offset="0.9951" style="stop-color:#EA2627"/>
			<stop  offset="1" style="stop-color:#EA2627"/>
		</radialGradient>
		<path id="path31151_1_" fill="url(#path31151_4_)" stroke="#000000" d="M317.501,442.005l8.24,7.041l-7.393,6.469
			c-3.332,3.045-8.97,5.047-15.367,5.047c-10.23,0-18.527-5.127-18.527-11.443c0-6.324,8.295-11.445,18.527-11.445
			C308.863,437.671,314.107,439.364,317.501,442.005z"/>
		<g>
			<path fill="#231F20" d="M297.834,449.094c-0.05-0.939-0.11-2.079-0.11-2.908h-0.02c-0.24,0.779-0.51,1.629-0.85,2.559
				l-1.189,3.268h-0.66l-1.099-3.208c-0.32-0.96-0.58-1.819-0.77-2.618h-0.02c-0.02,0.839-0.07,1.959-0.13,2.979l-0.18,2.888h-0.83
				l0.47-6.736h1.109l1.149,3.259c0.28,0.829,0.5,1.568,0.68,2.268h0.02c0.18-0.68,0.42-1.418,0.72-2.268l1.199-3.259h1.109
				l0.42,6.736h-0.86L297.834,449.094z"/>
			<path fill="#231F20" d="M305.874,449.094c-0.05-0.939-0.11-2.079-0.11-2.908h-0.02c-0.24,0.779-0.51,1.629-0.85,2.559
				l-1.189,3.268h-0.66l-1.099-3.208c-0.319-0.96-0.58-1.819-0.77-2.618h-0.021c-0.02,0.839-0.07,1.959-0.129,2.979l-0.181,2.888
				h-0.829l0.469-6.736h1.109l1.15,3.259c0.279,0.829,0.5,1.568,0.68,2.268h0.02c0.18-0.68,0.42-1.418,0.72-2.268l1.199-3.259h1.109
				l0.42,6.736h-0.86L305.874,449.094z"/>
			<path fill="#231F20" d="M312.935,451.842c-0.31,0.16-0.96,0.32-1.778,0.32c-1.9,0-3.318-1.199-3.318-3.418
				c0-2.119,1.429-3.539,3.518-3.539c0.83,0,1.369,0.18,1.6,0.301l-0.221,0.709c-0.319-0.16-0.789-0.279-1.35-0.279
				c-1.578,0-2.628,1.009-2.628,2.777c0,1.66,0.95,2.709,2.579,2.709c0.539,0,1.079-0.109,1.429-0.279L312.935,451.842z"/>
			<path fill="#231F20" d="M314.037,445.315h0.869v3.248h0.03c0.18-0.26,0.36-0.499,0.53-0.72l2.059-2.528h1.079l-2.438,2.858
				l2.629,3.878h-1.03l-2.208-3.308l-0.65,0.739v2.568h-0.869V445.315z"/>
		</g>
	</g>
	<g>
		
			<radialGradient id="path16609_13_" cx="254.5088" cy="135.3037" r="16.1858" gradientTransform="matrix(1.5933 0 0 0.6358 -100.4113 477.5898)" gradientUnits="userSpaceOnUse">
			<stop  offset="0" style="stop-color:#C0FF6C"/>
			<stop  offset="0.4082" style="stop-color:#BFFF6C"/>
			<stop  offset="0.5552" style="stop-color:#BAFC6C"/>
			<stop  offset="0.66" style="stop-color:#B4FA6B"/>
			<stop  offset="0.7448" style="stop-color:#AAF76A"/>
			<stop  offset="0.8174" style="stop-color:#9EF269"/>
			<stop  offset="0.8817" style="stop-color:#91EC68"/>
			<stop  offset="0.9398" style="stop-color:#86E666"/>
			<stop  offset="0.9915" style="stop-color:#7EDE64"/>
			<stop  offset="1" style="stop-color:#7DDD64"/>
		</radialGradient>
		<path id="path16609" fill="url(#path16609_13_)" stroke="#000000" d="M330.413,563.616c0,5.785-11.338,10.477-25.316,10.477
			c-13.98,0-25.314-4.689-25.314-10.477c0-5.789,11.334-10.477,25.314-10.477C319.075,553.142,330.413,557.829,330.413,563.616z"/>
		<g>
			<path d="M292.361,564.434l-0.7,2.118h-0.899l2.299-6.736h1.039l2.299,6.736h-0.93l-0.719-2.118H292.361z M294.58,563.754
				l-0.67-1.939c-0.15-0.439-0.25-0.84-0.35-1.229h-0.02c-0.1,0.39-0.2,0.81-0.34,1.22l-0.66,1.949H294.58z"/>
			<path d="M297.901,560.555h-2.049v-0.739h4.987v0.739h-2.059v5.997h-0.879V560.555z"/>
			<path d="M301.592,559.896c0.42-0.069,0.969-0.13,1.669-0.13c0.859,0,1.489,0.199,1.89,0.56c0.359,0.319,0.589,0.81,0.589,1.409
				c0,0.609-0.18,1.09-0.52,1.439c-0.47,0.49-1.21,0.739-2.06,0.739c-0.26,0-0.499-0.01-0.699-0.06v2.698h-0.869V559.896z
				 M302.461,563.144c0.189,0.05,0.43,0.069,0.72,0.069c1.05,0,1.688-0.52,1.688-1.429c0-0.899-0.639-1.329-1.588-1.329
				c-0.381,0-0.67,0.029-0.82,0.07V563.144z"/>
			<path d="M310.02,565.393c0,0.42,0.021,0.83,0.07,1.159h-0.789l-0.07-0.61h-0.03c-0.271,0.381-0.79,0.721-1.479,0.721
				c-0.979,0-1.479-0.689-1.479-1.39c0-1.169,1.039-1.81,2.908-1.799v-0.101c0-0.389-0.109-1.119-1.1-1.109
				c-0.459,0-0.93,0.131-1.27,0.36l-0.199-0.59c0.399-0.25,0.989-0.42,1.599-0.42c1.479,0,1.839,1.01,1.839,1.97V565.393z
				 M309.17,564.083c-0.959-0.021-2.049,0.149-2.049,1.089c0,0.58,0.38,0.84,0.82,0.84c0.639,0,1.049-0.399,1.189-0.809
				c0.029-0.101,0.039-0.201,0.039-0.28V564.083z"/>
			<path d="M311.322,565.662c0.27,0.16,0.729,0.34,1.168,0.34c0.631,0,0.93-0.31,0.93-0.72c0-0.419-0.25-0.64-0.889-0.88
				c-0.88-0.319-1.289-0.789-1.289-1.369c0-0.779,0.639-1.419,1.668-1.419c0.49,0,0.92,0.13,1.18,0.3l-0.209,0.64
				c-0.19-0.12-0.541-0.29-0.99-0.29c-0.52,0-0.799,0.301-0.799,0.66c0,0.4,0.279,0.58,0.908,0.83c0.83,0.309,1.27,0.729,1.27,1.449
				c0,0.859-0.67,1.459-1.799,1.459c-0.529,0-1.02-0.141-1.359-0.34L311.322,565.662z"/>
			<path d="M315.891,564.293c0.021,1.189,0.77,1.68,1.66,1.68c0.629,0,1.02-0.11,1.339-0.25l0.159,0.629
				c-0.309,0.141-0.85,0.311-1.619,0.311c-1.488,0-2.378-0.99-2.378-2.449s0.859-2.599,2.269-2.599c1.59,0,1.999,1.38,1.999,2.269
				c0,0.18-0.011,0.311-0.03,0.41H315.891z M318.47,563.664c0.011-0.551-0.229-1.42-1.22-1.42c-0.898,0-1.279,0.81-1.349,1.42
				H318.47z"/>
		</g>
	</g>
</g>
<g>
	
		<radialGradient id="path16609_14_" cx="322.3633" cy="-235.791" r="16.1858" gradientTransform="matrix(1.5933 0 0 0.6358 -100.4113 477.5898)" gradientUnits="userSpaceOnUse">
		<stop  offset="0" style="stop-color:#FCFAE0"/>
		<stop  offset="0.1203" style="stop-color:#FDFADB"/>
		<stop  offset="0.2662" style="stop-color:#FFF8CB"/>
		<stop  offset="0.4255" style="stop-color:#FDF5B2"/>
		<stop  offset="0.5943" style="stop-color:#FDEF90"/>
		<stop  offset="0.7706" style="stop-color:#FDE863"/>
		<stop  offset="0.9506" style="stop-color:#FDE02C"/>
		<stop  offset="1" style="stop-color:#FDDF19"/>
	</radialGradient>
	<path id="path16609_10_" fill="url(#path16609_14_)" stroke="#000000" d="M438.525,327.672c0,5.787-11.338,10.479-25.316,10.479
		c-13.98,0-25.314-4.689-25.314-10.479c0-5.787,11.334-10.475,25.314-10.475C427.188,317.198,438.525,321.885,438.525,327.672z"/>
	<g>
		<path fill="#231F20" d="M414.146,330.4c-0.31,0.16-0.96,0.32-1.779,0.32c-1.898,0-3.318-1.2-3.318-3.419
			c0-2.118,1.43-3.538,3.519-3.538c0.829,0,1.369,0.181,1.599,0.3l-0.22,0.71c-0.319-0.16-0.789-0.279-1.349-0.279
			c-1.579,0-2.629,1.009-2.629,2.778c0,1.659,0.949,2.708,2.578,2.708c0.54,0,1.08-0.109,1.43-0.279L414.146,330.4z"/>
		<path fill="#231F20" d="M415.188,327.282c0-0.569-0.01-1.06-0.04-1.509h0.77l0.04,0.959h0.03c0.22-0.649,0.76-1.06,1.349-1.06
			c0.091,0,0.16,0.01,0.24,0.021v0.829c-0.09-0.02-0.18-0.02-0.3-0.02c-0.619,0-1.06,0.459-1.18,1.119
			c-0.02,0.12-0.029,0.27-0.029,0.41v2.578h-0.88V327.282z"/>
	</g>
</g>
<g>
	<g>
		<path fill="none" stroke="#231F20" d="M261.544,273.43c0-17.177,15.945-37.837,44.925-37.837c23.129,0,40.78,15.564,40.78,32.741"
			/>
		<polygon fill="#231F20" points="343.546,265.525 347.249,267.098 350.953,265.525 347.249,274.303 		"/>
	</g>
</g>
<g>
	<g>
		<path fill="none" stroke="#231F20" d="M347.95,289.843c0,17.177-15.945,37.837-44.925,37.837c-23.129,0-40.78-15.564-40.78-32.741
			"/>
		<polygon fill="#231F20" points="265.948,297.748 262.245,296.175 258.541,297.748 262.245,288.97 		"/>
	</g>
</g>
<g>
	<g>
		
			<radialGradient id="path16609_15_" cx="216.8076" cy="45.3145" r="16.186" gradientTransform="matrix(1.5933 0 0 0.6358 -100.4113 477.5898)" gradientUnits="userSpaceOnUse">
			<stop  offset="0" style="stop-color:#FCFAE0"/>
			<stop  offset="0.1203" style="stop-color:#FDFADB"/>
			<stop  offset="0.2662" style="stop-color:#FFF8CB"/>
			<stop  offset="0.4255" style="stop-color:#FDF5B2"/>
			<stop  offset="0.5943" style="stop-color:#FDEF90"/>
			<stop  offset="0.7706" style="stop-color:#FDE863"/>
			<stop  offset="0.9506" style="stop-color:#FDE02C"/>
			<stop  offset="1" style="stop-color:#FDDF19"/>
		</radialGradient>
		<path id="path16609_11_" fill="url(#path16609_15_)" stroke="#000000" d="M270.344,506.399c0,5.787-11.338,10.479-25.316,10.479
			c-13.981,0-25.315-4.689-25.315-10.479c0-5.787,11.334-10.475,25.315-10.475C259.006,495.925,270.344,500.612,270.344,506.399z"/>
		<g>
			<path fill="#231F20" d="M237.828,507.217l-0.7,2.119h-0.899l2.299-6.736h1.039l2.299,6.736h-0.93l-0.72-2.119H237.828z
				 M240.046,506.537l-0.669-1.938c-0.15-0.439-0.25-0.84-0.351-1.229h-0.02c-0.1,0.39-0.2,0.81-0.34,1.22l-0.66,1.948H240.046z"/>
			<path fill="#231F20" d="M242.858,502.699c0.529-0.09,1.159-0.149,1.849-0.149c1.249,0,2.139,0.3,2.729,0.84
				c0.609,0.549,0.96,1.329,0.96,2.418c0,1.1-0.351,1.999-0.97,2.619c-0.64,0.629-1.679,0.969-2.988,0.969
				c-0.63,0-1.14-0.029-1.579-0.079V502.699z M243.728,508.656c0.22,0.03,0.54,0.04,0.88,0.04c1.869,0,2.868-1.039,2.868-2.858
				c0.01-1.589-0.89-2.599-2.729-2.599c-0.449,0-0.789,0.04-1.02,0.09V508.656z"/>
			<path fill="#231F20" d="M249.519,502.68c0.42-0.07,0.97-0.13,1.669-0.13c0.859,0,1.489,0.2,1.889,0.56
				c0.36,0.319,0.59,0.81,0.59,1.409c0,0.609-0.18,1.09-0.52,1.439c-0.47,0.489-1.209,0.739-2.059,0.739c-0.26,0-0.5-0.01-0.7-0.06
				v2.698h-0.869V502.68z M250.388,505.928c0.19,0.05,0.43,0.07,0.72,0.07c1.05,0,1.689-0.52,1.689-1.43
				c0-0.899-0.64-1.329-1.59-1.329c-0.379,0-0.669,0.03-0.819,0.07V505.928z"/>
		</g>
	</g>
	<g>
		
			<radialGradient id="path16609_16_" cx="292.21" cy="45.3145" r="16.186" gradientTransform="matrix(1.5933 0 0 0.6358 -100.4113 477.5898)" gradientUnits="userSpaceOnUse">
			<stop  offset="0" style="stop-color:#FCFAE0"/>
			<stop  offset="0.1203" style="stop-color:#FDFADB"/>
			<stop  offset="0.2662" style="stop-color:#FFF8CB"/>
			<stop  offset="0.4255" style="stop-color:#FDF5B2"/>
			<stop  offset="0.5943" style="stop-color:#FDEF90"/>
			<stop  offset="0.7706" style="stop-color:#FDE863"/>
			<stop  offset="0.9506" style="stop-color:#FDE02C"/>
			<stop  offset="1" style="stop-color:#FDDF19"/>
		</radialGradient>
		<path id="path16609_1_" fill="url(#path16609_16_)" stroke="#000000" d="M390.482,506.399c0,5.787-11.338,10.479-25.316,10.479
			c-13.98,0-25.314-4.689-25.314-10.479c0-5.787,11.334-10.475,25.314-10.475C379.145,495.925,390.482,500.612,390.482,506.399z"/>
		<g>
			<path fill="#231F20" d="M359.197,507.217l-0.7,2.119h-0.899l2.299-6.736h1.039l2.299,6.736h-0.93l-0.719-2.119H359.197z
				 M361.416,506.537l-0.67-1.938c-0.15-0.439-0.25-0.84-0.35-1.229h-0.02c-0.102,0.39-0.201,0.81-0.34,1.22l-0.66,1.948H361.416z"
				/>
			<path fill="#231F20" d="M364.736,503.339h-2.049V502.6h4.988v0.739h-2.061v5.997h-0.879V503.339z"/>
			<path fill="#231F20" d="M368.428,502.68c0.42-0.07,0.969-0.13,1.668-0.13c0.859,0,1.49,0.2,1.889,0.56
				c0.361,0.319,0.59,0.81,0.59,1.409c0,0.609-0.18,1.09-0.52,1.439c-0.469,0.489-1.209,0.739-2.059,0.739
				c-0.26,0-0.5-0.01-0.699-0.06v2.698h-0.869V502.68z M369.297,505.928c0.189,0.05,0.43,0.07,0.719,0.07
				c1.051,0,1.689-0.52,1.689-1.43c0-0.899-0.639-1.329-1.59-1.329c-0.379,0-0.668,0.03-0.818,0.07V505.928z"/>
		</g>
	</g>
</g>
<g>
	<g>
		<path fill="none" stroke="#231F20" d="M261.544,498.464c0-17.176,15.945-37.836,44.925-37.836c23.129,0,40.78,15.564,40.78,32.74"
			/>
		<polygon fill="#231F20" points="343.546,490.56 347.249,492.132 350.953,490.56 347.249,499.337 		"/>
	</g>
</g>
<g>
	<g>
		<path fill="none" stroke="#231F20" d="M347.95,514.878c0,17.176-15.945,37.836-44.925,37.836c-23.129,0-40.78-15.563-40.78-32.74"
			/>
		<polygon fill="#231F20" points="265.948,522.782 262.245,521.21 258.541,522.782 262.245,514.005 		"/>
	</g>
</g>
<line fill="none" stroke="#231F20" x1="304.737" y1="235.593" x2="169.095" y2="235.593"/>
<g>
	<g>
		<line fill="none" stroke="#231F20" x1="304.396" y1="552.862" x2="173.798" y2="552.862"/>
		<polygon fill="#231F20" points="176.607,549.159 175.034,552.862 176.607,556.567 167.829,552.862 		"/>
	</g>
</g>
<g>
	<g>
		<line fill="none" stroke="#231F20" x1="163.441" y1="549.399" x2="163.441" y2="246"/>
		<polygon fill="#231F20" points="167.145,248.809 163.441,247.236 159.737,248.809 163.441,240.031 		"/>
	</g>
</g>
<g>
	<path id="path19818_2_" fill="#F5EA14" stroke="#000000" d="M168.122,552.714c0,2.682-2.097,4.854-4.681,4.854
		c-2.585,0-4.68-2.172-4.68-4.854c0-2.68,2.095-4.852,4.68-4.852C166.025,547.862,168.122,550.034,168.122,552.714z"/>
	<g enable-background="new    ">
		<path fill="#ED3C95" d="M161.987,549.768c0.322-0.063,0.743-0.111,1.279-0.111c0.659,0,1.141,0.159,1.448,0.444
			c0.283,0.254,0.459,0.643,0.459,1.119c0,0.483-0.138,0.864-0.406,1.143c-0.353,0.389-0.927,0.587-1.578,0.587
			c-0.199,0-0.383-0.008-0.536-0.048v2.143h-0.667V549.768z M162.653,552.338c0.146,0.04,0.337,0.056,0.552,0.056
			c0.812,0,1.294-0.412,1.294-1.135c0-0.714-0.483-1.055-1.218-1.055c-0.291,0-0.513,0.031-0.628,0.056V552.338z"/>
	</g>
</g>
<g>
	<g>
		<line fill="none" stroke="#231F20" x1="199.795" y1="334.648" x2="199.795" y2="444.071"/>
		<polygon fill="#231F20" points="196.092,441.263 199.795,442.835 203.5,441.263 199.795,450.04 		"/>
	</g>
</g>
<g>
	<g>
		<line fill="none" stroke="#231F20" x1="413.209" y1="453.155" x2="413.209" y2="343.732"/>
		<polygon fill="#231F20" points="416.912,346.541 413.209,344.968 409.505,346.541 413.209,337.763 		"/>
	</g>
</g>
<g>
	<g>
		<line fill="none" stroke="#231F20" x1="387.912" y1="327.674" x2="231.538" y2="327.674"/>
		<polygon fill="#231F20" points="234.347,323.971 232.774,327.674 234.347,331.378 225.569,327.674 		"/>
	</g>
</g>
<g>
	
		<radialGradient id="path16609_17_" cx="188.4185" cy="-235.791" r="16.1858" gradientTransform="matrix(1.5933 0 0 0.6358 -100.4113 477.5898)" gradientUnits="userSpaceOnUse">
		<stop  offset="0" style="stop-color:#FCFAE0"/>
		<stop  offset="0.1203" style="stop-color:#FDFADB"/>
		<stop  offset="0.2662" style="stop-color:#FFF8CB"/>
		<stop  offset="0.4255" style="stop-color:#FDF5B2"/>
		<stop  offset="0.5943" style="stop-color:#FDEF90"/>
		<stop  offset="0.7706" style="stop-color:#FDE863"/>
		<stop  offset="0.9506" style="stop-color:#FDE02C"/>
		<stop  offset="1" style="stop-color:#FDDF19"/>
	</radialGradient>
	<path id="path16609_9_" fill="url(#path16609_17_)" stroke="#000000" d="M225.111,327.672c0,5.787-11.338,10.479-25.316,10.479
		c-13.981,0-25.315-4.689-25.315-10.479c0-5.787,11.334-10.475,25.315-10.475C213.773,317.198,225.111,321.885,225.111,327.672z"/>
	<g>
		<path fill="#231F20" d="M193.375,323.954c0.42-0.07,0.97-0.13,1.669-0.13c0.86,0,1.489,0.2,1.89,0.56
			c0.359,0.319,0.59,0.81,0.59,1.409c0,0.609-0.181,1.09-0.521,1.439c-0.47,0.489-1.209,0.739-2.059,0.739
			c-0.26,0-0.5-0.01-0.699-0.06v2.698h-0.87V323.954z M194.245,327.202c0.189,0.05,0.43,0.07,0.72,0.07
			c1.049,0,1.688-0.52,1.688-1.43c0-0.899-0.64-1.329-1.589-1.329c-0.38,0-0.67,0.03-0.819,0.07V327.202z"/>
		<path fill="#231F20" d="M203.392,330.4c-0.31,0.16-0.96,0.32-1.779,0.32c-1.898,0-3.318-1.2-3.318-3.419
			c0-2.118,1.43-3.538,3.519-3.538c0.829,0,1.369,0.181,1.599,0.3l-0.22,0.71c-0.319-0.16-0.789-0.279-1.349-0.279
			c-1.579,0-2.629,1.009-2.629,2.778c0,1.659,0.949,2.708,2.578,2.708c0.54,0,1.08-0.109,1.43-0.279L203.392,330.4z"/>
		<path fill="#231F20" d="M204.434,327.282c0-0.569-0.01-1.06-0.04-1.509h0.77l0.04,0.959h0.03c0.22-0.649,0.76-1.06,1.35-1.06
			c0.09,0,0.159,0.01,0.239,0.021v0.829c-0.09-0.02-0.18-0.02-0.3-0.02c-0.619,0-1.06,0.459-1.18,1.119
			c-0.02,0.12-0.029,0.27-0.029,0.41v2.578h-0.88V327.282z"/>
	</g>
</g>
<g>
	
		<radialGradient id="path16609_18_" cx="322.3633" cy="-27.8398" r="16.1858" gradientTransform="matrix(1.5933 0 0 0.6358 -100.4113 477.5898)" gradientUnits="userSpaceOnUse">
		<stop  offset="0" style="stop-color:#FCFAE0"/>
		<stop  offset="0.1203" style="stop-color:#FDFADB"/>
		<stop  offset="0.2662" style="stop-color:#FFF8CB"/>
		<stop  offset="0.4255" style="stop-color:#FDF5B2"/>
		<stop  offset="0.5943" style="stop-color:#FDEF90"/>
		<stop  offset="0.7706" style="stop-color:#FDE863"/>
		<stop  offset="0.9506" style="stop-color:#FDE02C"/>
		<stop  offset="1" style="stop-color:#FDDF19"/>
	</radialGradient>
	<path id="path16609_6_" fill="url(#path16609_18_)" stroke="#000000" d="M438.525,459.888c0,5.787-11.338,10.479-25.316,10.479
		c-13.98,0-25.314-4.689-25.314-10.479c0-5.787,11.334-10.475,25.314-10.475C427.188,449.413,438.525,454.101,438.525,459.888z"/>
	<g>
		<path fill="#231F20" d="M414.146,462.615c-0.31,0.16-0.96,0.32-1.779,0.32c-1.898,0-3.318-1.2-3.318-3.419
			c0-2.118,1.43-3.538,3.519-3.538c0.829,0,1.369,0.181,1.599,0.3l-0.22,0.71c-0.319-0.16-0.789-0.279-1.349-0.279
			c-1.579,0-2.629,1.009-2.629,2.778c0,1.659,0.949,2.708,2.578,2.708c0.54,0,1.08-0.109,1.43-0.279L414.146,462.615z"/>
		<path fill="#231F20" d="M415.188,459.497c0-0.569-0.01-1.06-0.04-1.509h0.77l0.04,0.959h0.03c0.22-0.649,0.76-1.06,1.349-1.06
			c0.091,0,0.16,0.01,0.24,0.021v0.829c-0.09-0.02-0.18-0.02-0.3-0.02c-0.619,0-1.06,0.459-1.18,1.119
			c-0.02,0.12-0.029,0.27-0.029,0.41v2.578h-0.88V459.497z"/>
	</g>
</g>
<g>
	<g>
		<line fill="none" stroke="#231F20" x1="224.985" y1="459.89" x2="380.998" y2="459.89"/>
		<polygon fill="#231F20" points="378.189,463.593 379.763,459.89 378.189,456.187 386.968,459.89 		"/>
	</g>
</g>
<g>
	<g>
		<line fill="none" stroke="#231F20" x1="245.493" y1="495.925" x2="245.492" y2="298.46"/>
		<polygon fill="#231F20" points="249.195,301.269 245.492,299.696 241.789,301.269 245.492,292.491 		"/>
	</g>
</g>
<g>
	<g>
		<line fill="none" stroke="#231F20" x1="365.631" y1="291.931" x2="365.632" y2="489.396"/>
		<polygon fill="#231F20" points="361.929,486.587 365.632,488.159 369.336,486.587 365.632,495.364 		"/>
	</g>
</g>
<g id="g7193_1_">
	<g id="g7195_1_">
		<path id="path7197_1_" fill="#C1DAF2" stroke="#288ECD" d="M510.734,404.557c0-1.288-1.047-2.333-2.334-2.333
			s-2.332,1.045-2.332,2.333s1.045,2.333,2.332,2.333S510.734,405.845,510.734,404.557z"/>
		<path id="path7199_1_" fill="none" stroke="#288ECD" d="M508.4,402.224V385.89"/>
	</g>
	<g id="g7201_1_">
		<path id="path7203_1_" fill="#C1DAF2" stroke="#288ECD" d="M505.383,404.557c0-1.288-1.045-2.333-2.332-2.333
			c-1.289,0-2.334,1.045-2.334,2.333s1.045,2.333,2.334,2.333C504.338,406.89,505.383,405.845,505.383,404.557z"/>
		<path id="path7205_1_" fill="none" stroke="#288ECD" d="M503.051,402.224V385.89"/>
	</g>
	<g id="g7207_1_">
		<path id="path7209_1_" fill="#C1DAF2" stroke="#288ECD" d="M500.033,404.557c0-1.288-1.045-2.333-2.334-2.333
			c-1.287,0-2.332,1.045-2.332,2.333s1.045,2.333,2.332,2.333C498.988,406.89,500.033,405.845,500.033,404.557z"/>
		<path id="path7211_1_" fill="none" stroke="#288ECD" d="M497.699,402.224V385.89"/>
	</g>
	<g id="g7213_1_">
		<path id="path7215_1_" fill="#C1DAF2" stroke="#288ECD" d="M526.785,404.557c0-1.288-1.045-2.333-2.332-2.333
			c-1.289,0-2.334,1.045-2.334,2.333s1.045,2.333,2.334,2.333C525.74,406.89,526.785,405.845,526.785,404.557z"/>
		<path id="path7217_1_" fill="none" stroke="#288ECD" d="M524.453,402.224V385.89"/>
	</g>
	<g id="g7219_1_">
		<path id="path7221_1_" fill="#C1DAF2" stroke="#288ECD" d="M521.434,404.557c0-1.288-1.045-2.333-2.332-2.333
			c-1.289,0-2.334,1.045-2.334,2.333s1.045,2.333,2.334,2.333C520.389,406.89,521.434,405.845,521.434,404.557z"/>
		<path id="path7223_1_" fill="none" stroke="#288ECD" d="M519.102,402.224V385.89"/>
	</g>
	<g id="g7225_1_">
		<path id="path7227_1_" fill="#C1DAF2" stroke="#288ECD" d="M516.084,404.557c0-1.288-1.045-2.333-2.332-2.333
			c-1.289,0-2.334,1.045-2.334,2.333s1.045,2.333,2.334,2.333C515.039,406.89,516.084,405.845,516.084,404.557z"/>
		<path id="path7229_1_" fill="none" stroke="#288ECD" d="M513.752,402.224V385.89"/>
	</g>
	<g id="g7231_1_">
		<path id="path7233_1_" fill="#C1DAF2" stroke="#288ECD" d="M513.408,381.656c0,1.287-1.045,2.333-2.332,2.333
			c-1.289,0-2.334-1.046-2.334-2.333c0-1.288,1.045-2.333,2.334-2.333C512.363,379.323,513.408,380.369,513.408,381.656z"/>
		<path id="path7235_1_" fill="none" stroke="#288ECD" d="M511.076,383.989v16.334"/>
	</g>
	<g id="g7237_1_">
		<path id="path7239_1_" fill="#C1DAF2" stroke="#288ECD" d="M508.059,381.656c0,1.287-1.045,2.333-2.334,2.333
			c-1.287,0-2.332-1.046-2.332-2.333c0-1.288,1.045-2.333,2.332-2.333C507.014,379.323,508.059,380.369,508.059,381.656z"/>
		<path id="path7241_1_" fill="none" stroke="#288ECD" d="M505.725,383.989v16.334"/>
	</g>
	<g id="g7243_1_">
		<path id="path7245_1_" fill="#C1DAF2" stroke="#288ECD" d="M502.709,381.656c0,1.287-1.045,2.333-2.334,2.333
			c-1.287,0-2.332-1.046-2.332-2.333c0-1.288,1.045-2.333,2.332-2.333C501.664,379.323,502.709,380.369,502.709,381.656z"/>
		<path id="path7247_1_" fill="none" stroke="#288ECD" d="M500.375,383.989v16.334"/>
	</g>
	<g id="g7249_1_">
		<path id="path7251_1_" fill="#C1DAF2" stroke="#288ECD" d="M529.461,381.656c0,1.287-1.045,2.333-2.334,2.333
			c-1.287,0-2.332-1.046-2.332-2.333c0-1.288,1.045-2.333,2.332-2.333C528.416,379.323,529.461,380.369,529.461,381.656z"/>
		<path id="path7253_1_" fill="none" stroke="#288ECD" d="M527.127,383.989v16.334"/>
	</g>
	<g id="g7255_1_">
		<path id="path7257_1_" fill="#C1DAF2" stroke="#288ECD" d="M524.111,381.656c0,1.287-1.045,2.333-2.334,2.333
			c-1.287,0-2.332-1.046-2.332-2.333c0-1.288,1.045-2.333,2.332-2.333C523.066,379.323,524.111,380.369,524.111,381.656z"/>
		<path id="path7259_1_" fill="none" stroke="#288ECD" d="M521.777,383.989v16.334"/>
	</g>
	<g id="g7261_1_">
		<path id="path7263_1_" fill="#C1DAF2" stroke="#288ECD" d="M518.76,381.656c0,1.287-1.045,2.333-2.334,2.333
			c-1.287,0-2.332-1.046-2.332-2.333c0-1.288,1.045-2.333,2.332-2.333C517.715,379.323,518.76,380.369,518.76,381.656z"/>
		<path id="path7265_1_" fill="none" stroke="#288ECD" d="M516.426,383.989v16.334"/>
	</g>
</g>
<g id="g7267_1_">
	<g id="g7269_1_">
		<path id="path7271_1_" fill="#C1DAF2" stroke="#288ECD" d="M478.738,404.557c0-1.288-1.045-2.333-2.334-2.333
			c-1.287,0-2.332,1.045-2.332,2.333s1.045,2.333,2.332,2.333C477.693,406.89,478.738,405.845,478.738,404.557z"/>
		<path id="path7273_1_" fill="none" stroke="#288ECD" d="M476.404,402.224V385.89"/>
	</g>
	<g id="g7275_1_">
		<path id="path7277_1_" fill="#C1DAF2" stroke="#288ECD" d="M473.387,404.557c0-1.288-1.045-2.333-2.334-2.333
			c-1.287,0-2.332,1.045-2.332,2.333s1.045,2.333,2.332,2.333C472.342,406.89,473.387,405.845,473.387,404.557z"/>
		<path id="path7279_1_" fill="none" stroke="#288ECD" d="M471.053,402.224V385.89"/>
	</g>
	<g id="g7281_1_">
		<path id="path7283_1_" fill="#C1DAF2" stroke="#288ECD" d="M468.037,404.557c0-1.288-1.045-2.333-2.334-2.333
			c-1.287,0-2.332,1.045-2.332,2.333s1.045,2.333,2.332,2.333C466.992,406.89,468.037,405.845,468.037,404.557z"/>
		<path id="path7285_1_" fill="none" stroke="#288ECD" d="M465.703,402.224V385.89"/>
	</g>
	<g id="g7287_1_">
		<path id="path7289_1_" fill="#C1DAF2" stroke="#288ECD" d="M494.789,404.557c0-1.288-1.045-2.333-2.334-2.333
			c-1.287,0-2.332,1.045-2.332,2.333s1.045,2.333,2.332,2.333C493.744,406.89,494.789,405.845,494.789,404.557z"/>
		<path id="path7291_1_" fill="none" stroke="#288ECD" d="M492.455,402.224V385.89"/>
	</g>
	<g id="g7293_1_">
		<path id="path7295_1_" fill="#C1DAF2" stroke="#288ECD" d="M489.438,404.557c0-1.288-1.045-2.333-2.332-2.333
			s-2.334,1.045-2.334,2.333s1.047,2.333,2.334,2.333S489.438,405.845,489.438,404.557z"/>
		<path id="path7297_1_" fill="none" stroke="#288ECD" d="M487.105,402.224V385.89"/>
	</g>
	<g id="g7299_1_">
		<path id="path7301_1_" fill="#C1DAF2" stroke="#288ECD" d="M484.088,404.557c0-1.288-1.045-2.333-2.334-2.333
			c-1.287,0-2.332,1.045-2.332,2.333s1.045,2.333,2.332,2.333C483.043,406.89,484.088,405.845,484.088,404.557z"/>
		<path id="path7303_1_" fill="none" stroke="#288ECD" d="M481.754,402.224V385.89"/>
	</g>
	<g id="g7305_1_">
		<path id="path7307_1_" fill="#C1DAF2" stroke="#288ECD" d="M481.412,381.656c0,1.287-1.045,2.333-2.332,2.333
			c-1.289,0-2.334-1.046-2.334-2.333c0-1.288,1.045-2.333,2.334-2.333C480.367,379.323,481.412,380.369,481.412,381.656z"/>
		<path id="path7309_1_" fill="none" stroke="#288ECD" d="M479.08,383.989v16.334"/>
	</g>
	<g id="g7311_1_">
		<path id="path7313_1_" fill="#C1DAF2" stroke="#288ECD" d="M476.061,381.656c0,1.287-1.045,2.333-2.332,2.333
			s-2.334-1.046-2.334-2.333c0-1.288,1.047-2.333,2.334-2.333S476.061,380.369,476.061,381.656z"/>
		<path id="path7315_1_" fill="none" stroke="#288ECD" d="M473.729,383.989v16.334"/>
	</g>
	<g id="g7317_1_">
		<path id="path7319_1_" fill="#C1DAF2" stroke="#288ECD" d="M470.711,381.656c0,1.287-1.045,2.333-2.332,2.333
			c-1.289,0-2.334-1.046-2.334-2.333c0-1.288,1.045-2.333,2.334-2.333C469.666,379.323,470.711,380.369,470.711,381.656z"/>
		<path id="path7321_1_" fill="none" stroke="#288ECD" d="M468.379,383.989v16.334"/>
	</g>
	<g id="g7323_1_">
		<path id="path7325_1_" fill="#C1DAF2" stroke="#288ECD" d="M497.463,381.656c0,1.287-1.045,2.333-2.332,2.333
			c-1.289,0-2.334-1.046-2.334-2.333c0-1.288,1.045-2.333,2.334-2.333C496.418,379.323,497.463,380.369,497.463,381.656z"/>
		<path id="path7327_1_" fill="none" stroke="#288ECD" d="M495.131,383.989v16.334"/>
	</g>
	<g id="g7329_1_">
		<path id="path7331_1_" fill="#C1DAF2" stroke="#288ECD" d="M492.113,381.656c0,1.287-1.045,2.333-2.332,2.333
			c-1.289,0-2.334-1.046-2.334-2.333c0-1.288,1.045-2.333,2.334-2.333C491.068,379.323,492.113,380.369,492.113,381.656z"/>
		<path id="path7333_1_" fill="none" stroke="#288ECD" d="M489.781,383.989v16.334"/>
	</g>
	<g id="g7335_1_">
		<path id="path7337_1_" fill="#C1DAF2" stroke="#288ECD" d="M486.762,381.656c0,1.287-1.045,2.333-2.332,2.333
			c-1.289,0-2.334-1.046-2.334-2.333c0-1.288,1.045-2.333,2.334-2.333C485.717,379.323,486.762,380.369,486.762,381.656z"/>
		<path id="path7339_1_" fill="none" stroke="#288ECD" d="M484.43,383.989v16.334"/>
	</g>
</g>
<g id="g7341_1_">
	<g id="g7343_1_">
		<path id="path7345_1_" fill="#C1DAF2" stroke="#288ECD" d="M446.74,404.557c0-1.288-1.045-2.333-2.332-2.333
			c-1.289,0-2.334,1.045-2.334,2.333s1.045,2.333,2.334,2.333C445.695,406.89,446.74,405.845,446.74,404.557z"/>
		<path id="path7347_1_" fill="none" stroke="#288ECD" d="M444.408,402.224V385.89"/>
	</g>
	<g id="g7349_1_">
		<path id="path7351_1_" fill="#C1DAF2" stroke="#288ECD" d="M441.391,404.557c0-1.288-1.045-2.333-2.334-2.333
			c-1.287,0-2.332,1.045-2.332,2.333s1.045,2.333,2.332,2.333S441.391,405.845,441.391,404.557z"/>
		<path id="path7353_1_" fill="none" stroke="#288ECD" d="M439.057,402.224V385.89"/>
	</g>
	<g id="g7355_1_">
		<path id="path7357_1_" fill="#C1DAF2" stroke="#288ECD" d="M436.039,404.557c0-1.288-1.045-2.333-2.332-2.333
			c-1.289,0-2.334,1.045-2.334,2.333s1.045,2.333,2.334,2.333C434.994,406.89,436.039,405.845,436.039,404.557z"/>
		<path id="path7359_1_" fill="none" stroke="#288ECD" d="M433.707,402.224V385.89"/>
	</g>
	<g id="g7361_1_">
		<path id="path7363_1_" fill="#C1DAF2" stroke="#288ECD" d="M462.793,404.557c0-1.288-1.045-2.333-2.334-2.333
			c-1.287,0-2.332,1.045-2.332,2.333s1.045,2.333,2.332,2.333C461.748,406.89,462.793,405.845,462.793,404.557z"/>
		<path id="path7365_1_" fill="none" stroke="#288ECD" d="M460.459,402.224V385.89"/>
	</g>
	<g id="g7367_1_">
		<path id="path7369_1_" fill="#C1DAF2" stroke="#288ECD" d="M457.441,404.557c0-1.288-1.045-2.333-2.332-2.333
			c-1.289,0-2.334,1.045-2.334,2.333s1.045,2.333,2.334,2.333C456.396,406.89,457.441,405.845,457.441,404.557z"/>
		<path id="path7371_1_" fill="none" stroke="#288ECD" d="M455.109,402.224V385.89"/>
	</g>
	<g id="g7373_1_">
		<path id="path7375_1_" fill="#C1DAF2" stroke="#288ECD" d="M452.092,404.557c0-1.288-1.045-2.333-2.334-2.333
			c-1.287,0-2.332,1.045-2.332,2.333s1.045,2.333,2.332,2.333C451.047,406.89,452.092,405.845,452.092,404.557z"/>
		<path id="path7377_1_" fill="none" stroke="#288ECD" d="M449.758,402.224V385.89"/>
	</g>
	<g id="g7379_1_">
		<path id="path7381_1_" fill="#C1DAF2" stroke="#288ECD" d="M449.416,381.656c0,1.287-1.045,2.333-2.334,2.333
			c-1.287,0-2.332-1.046-2.332-2.333c0-1.288,1.045-2.333,2.332-2.333C448.371,379.323,449.416,380.369,449.416,381.656z"/>
		<path id="path7383_1_" fill="none" stroke="#288ECD" d="M447.082,383.989v16.334"/>
	</g>
	<g id="g7385_1_">
		<path id="path7387_1_" fill="#C1DAF2" stroke="#288ECD" d="M444.066,381.656c0,1.287-1.047,2.333-2.334,2.333
			s-2.332-1.046-2.332-2.333c0-1.288,1.045-2.333,2.332-2.333S444.066,380.369,444.066,381.656z"/>
		<path id="path7389_1_" fill="none" stroke="#288ECD" d="M441.732,383.989v16.334"/>
	</g>
	<g id="g7391_1_">
		<path id="path7393_1_" fill="#C1DAF2" stroke="#288ECD" d="M438.715,381.656c0,1.287-1.045,2.333-2.332,2.333
			c-1.289,0-2.334-1.046-2.334-2.333c0-1.288,1.045-2.333,2.334-2.333C437.67,379.323,438.715,380.369,438.715,381.656z"/>
		<path id="path7395_1_" fill="none" stroke="#288ECD" d="M436.383,383.989v16.334"/>
	</g>
	<g id="g7397_1_">
		<path id="path7399_1_" fill="#C1DAF2" stroke="#288ECD" d="M465.467,381.656c0,1.287-1.045,2.333-2.332,2.333
			c-1.289,0-2.334-1.046-2.334-2.333c0-1.288,1.045-2.333,2.334-2.333C464.422,379.323,465.467,380.369,465.467,381.656z"/>
		<path id="path7401_1_" fill="none" stroke="#288ECD" d="M463.135,383.989v16.334"/>
	</g>
	<g id="g7403_1_">
		<path id="path7405_1_" fill="#C1DAF2" stroke="#288ECD" d="M460.117,381.656c0,1.287-1.045,2.333-2.334,2.333
			c-1.287,0-2.332-1.046-2.332-2.333c0-1.288,1.045-2.333,2.332-2.333C459.072,379.323,460.117,380.369,460.117,381.656z"/>
		<path id="path7407_1_" fill="none" stroke="#288ECD" d="M457.783,383.989v16.334"/>
	</g>
	<g id="g7409_1_">
		<path id="path7411_1_" fill="#C1DAF2" stroke="#288ECD" d="M454.766,381.656c0,1.287-1.045,2.333-2.332,2.333
			c-1.289,0-2.334-1.046-2.334-2.333c0-1.288,1.045-2.333,2.334-2.333C453.721,379.323,454.766,380.369,454.766,381.656z"/>
		<path id="path7413_1_" fill="none" stroke="#288ECD" d="M452.434,383.989v16.334"/>
	</g>
</g>
<g id="g7415_1_">
	<g id="g7417_1_">
		<path id="path7419_1_" fill="#C1DAF2" stroke="#288ECD" d="M414.744,404.557c0-1.288-1.045-2.333-2.334-2.333
			c-1.287,0-2.332,1.045-2.332,2.333s1.045,2.333,2.332,2.333C413.699,406.89,414.744,405.845,414.744,404.557z"/>
		<path id="path7421_1_" fill="none" stroke="#288ECD" d="M412.41,402.224V385.89"/>
	</g>
	<g id="g7423_1_">
		<path id="path7425_1_" fill="#C1DAF2" stroke="#288ECD" d="M409.393,404.557c0-1.288-1.045-2.333-2.332-2.333
			s-2.334,1.045-2.334,2.333s1.047,2.333,2.334,2.333S409.393,405.845,409.393,404.557z"/>
		<path id="path7427_1_" fill="none" stroke="#288ECD" d="M407.061,402.224V385.89"/>
	</g>
	<g id="g7429_1_">
		<path id="path7431_1_" fill="#C1DAF2" stroke="#288ECD" d="M404.043,404.557c0-1.288-1.045-2.333-2.332-2.333
			c-1.289,0-2.334,1.045-2.334,2.333s1.045,2.333,2.334,2.333C402.998,406.89,404.043,405.845,404.043,404.557z"/>
		<path id="path7433_1_" fill="none" stroke="#288ECD" d="M401.711,402.224V385.89"/>
	</g>
	<g id="g7435_1_">
		<path id="path7437_1_" fill="#C1DAF2" stroke="#288ECD" d="M430.795,404.557c0-1.288-1.045-2.333-2.332-2.333
			c-1.289,0-2.334,1.045-2.334,2.333s1.045,2.333,2.334,2.333C429.75,406.89,430.795,405.845,430.795,404.557z"/>
		<path id="path7439_1_" fill="none" stroke="#288ECD" d="M428.463,402.224V385.89"/>
	</g>
	<g id="g7441_1_">
		<path id="path7443_1_" fill="#C1DAF2" stroke="#288ECD" d="M425.445,404.557c0-1.288-1.045-2.333-2.332-2.333
			c-1.289,0-2.334,1.045-2.334,2.333s1.045,2.333,2.334,2.333C424.4,406.89,425.445,405.845,425.445,404.557z"/>
		<path id="path7445_1_" fill="none" stroke="#288ECD" d="M423.113,402.224V385.89"/>
	</g>
	<g id="g7447_1_">
		<path id="path7449_1_" fill="#C1DAF2" stroke="#288ECD" d="M420.094,404.557c0-1.288-1.045-2.333-2.332-2.333
			c-1.289,0-2.334,1.045-2.334,2.333s1.045,2.333,2.334,2.333C419.049,406.89,420.094,405.845,420.094,404.557z"/>
		<path id="path7451_1_" fill="none" stroke="#288ECD" d="M417.762,402.224V385.89"/>
	</g>
	<g id="g7453_1_">
		<path id="path7455_1_" fill="#C1DAF2" stroke="#288ECD" d="M417.42,381.656c0,1.287-1.045,2.333-2.334,2.333
			c-1.287,0-2.332-1.046-2.332-2.333c0-1.288,1.045-2.333,2.332-2.333C416.375,379.323,417.42,380.369,417.42,381.656z"/>
		<path id="path7457_1_" fill="none" stroke="#288ECD" d="M415.086,383.989v16.334"/>
	</g>
	<g id="g7459_1_">
		<path id="path7461_1_" fill="#C1DAF2" stroke="#288ECD" d="M412.068,381.656c0,1.287-1.045,2.333-2.332,2.333
			c-1.289,0-2.334-1.046-2.334-2.333c0-1.288,1.045-2.333,2.334-2.333C411.023,379.323,412.068,380.369,412.068,381.656z"/>
		<path id="path7463_1_" fill="none" stroke="#288ECD" d="M409.736,383.989v16.334"/>
	</g>
	<g id="g7465_1_">
		<path id="path7467_1_" fill="#C1DAF2" stroke="#288ECD" d="M406.719,381.656c0,1.287-1.045,2.333-2.334,2.333
			c-1.287,0-2.332-1.046-2.332-2.333c0-1.288,1.045-2.333,2.332-2.333C405.674,379.323,406.719,380.369,406.719,381.656z"/>
		<path id="path7469_1_" fill="none" stroke="#288ECD" d="M404.385,383.989v16.334"/>
	</g>
	<g id="g7471_1_">
		<path id="path7473_1_" fill="#C1DAF2" stroke="#288ECD" d="M433.471,381.656c0,1.287-1.045,2.333-2.334,2.333
			c-1.287,0-2.332-1.046-2.332-2.333c0-1.288,1.045-2.333,2.332-2.333C432.426,379.323,433.471,380.369,433.471,381.656z"/>
		<path id="path7475_1_" fill="none" stroke="#288ECD" d="M431.137,383.989v16.334"/>
	</g>
	<g id="g7477_1_">
		<path id="path7479_1_" fill="#C1DAF2" stroke="#288ECD" d="M428.121,381.656c0,1.287-1.045,2.333-2.334,2.333
			c-1.287,0-2.332-1.046-2.332-2.333c0-1.288,1.045-2.333,2.332-2.333C427.076,379.323,428.121,380.369,428.121,381.656z"/>
		<path id="path7481_1_" fill="none" stroke="#288ECD" d="M425.787,383.989v16.334"/>
	</g>
	<g id="g7483_1_">
		<path id="path7485_1_" fill="#C1DAF2" stroke="#288ECD" d="M422.77,381.656c0,1.287-1.045,2.333-2.334,2.333
			c-1.287,0-2.332-1.046-2.332-2.333c0-1.288,1.045-2.333,2.332-2.333C421.725,379.323,422.77,380.369,422.77,381.656z"/>
		<path id="path7487_1_" fill="none" stroke="#288ECD" d="M420.436,383.989v16.334"/>
	</g>
</g>
<g>
	<path d="M249.285,168.393v9.441h-1.232v-9.441H249.285z"/>
	<path d="M251.511,172.889c0-0.714-0.014-1.274-0.056-1.835h1.093l0.07,1.121h0.028c0.336-0.63,1.121-1.261,2.241-1.261
		c0.938,0,2.395,0.561,2.395,2.886v4.034h-1.232v-3.908c0-1.092-0.406-2.003-1.569-2.003c-0.798,0-1.429,0.574-1.653,1.261
		c-0.056,0.154-0.084,0.364-0.084,0.574v4.076h-1.233V172.889z"/>
	<path d="M260.709,169.43v1.625h1.765v0.938h-1.765v3.656c0,0.84,0.238,1.316,0.924,1.316c0.336,0,0.533-0.028,0.715-0.084
		l0.056,0.938c-0.238,0.084-0.616,0.168-1.092,0.168c-0.575,0-1.037-0.196-1.331-0.519c-0.336-0.378-0.476-0.98-0.476-1.779v-3.698
		h-1.051v-0.938h1.051v-1.261L260.709,169.43z"/>
	<path d="M264.461,174.668c0.028,1.667,1.079,2.353,2.325,2.353c0.882,0,1.429-0.154,1.877-0.35l0.224,0.882
		c-0.434,0.196-1.19,0.435-2.269,0.435c-2.087,0-3.334-1.387-3.334-3.432c0-2.045,1.205-3.642,3.18-3.642
		c2.228,0,2.802,1.933,2.802,3.18c0,0.252-0.014,0.435-0.042,0.575H264.461z M268.075,173.786c0.014-0.77-0.322-1.989-1.709-1.989
		c-1.26,0-1.793,1.134-1.891,1.989H268.075z"/>
	<path d="M270.788,173.169c0-0.798-0.014-1.485-0.056-2.115h1.079l0.056,1.345h0.042c0.308-0.91,1.064-1.485,1.891-1.485
		c0.126,0,0.224,0.014,0.336,0.028v1.163c-0.126-0.028-0.252-0.028-0.42-0.028c-0.869,0-1.485,0.645-1.653,1.569
		c-0.028,0.168-0.042,0.378-0.042,0.575v3.614h-1.233V173.169z"/>
	<path d="M275.422,172.889c0-0.714-0.028-1.274-0.056-1.835h1.079l0.056,1.107h0.042c0.378-0.645,1.009-1.247,2.143-1.247
		c0.911,0,1.611,0.561,1.905,1.359h0.028c0.21-0.392,0.49-0.672,0.771-0.882c0.406-0.308,0.84-0.477,1.485-0.477
		c0.911,0,2.241,0.588,2.241,2.942v3.978h-1.205v-3.824c0-1.316-0.49-2.087-1.471-2.087c-0.714,0-1.247,0.518-1.471,1.106
		c-0.056,0.182-0.098,0.392-0.098,0.616v4.188h-1.205v-4.062c0-1.079-0.477-1.849-1.415-1.849c-0.756,0-1.331,0.616-1.527,1.232
		c-0.07,0.168-0.098,0.393-0.098,0.603v4.076h-1.205V172.889z"/>
	<path d="M287.785,174.668c0.028,1.667,1.079,2.353,2.325,2.353c0.882,0,1.429-0.154,1.877-0.35l0.224,0.882
		c-0.434,0.196-1.19,0.435-2.269,0.435c-2.087,0-3.334-1.387-3.334-3.432c0-2.045,1.205-3.642,3.18-3.642
		c2.227,0,2.802,1.933,2.802,3.18c0,0.252-0.014,0.435-0.042,0.575H287.785z M291.398,173.786c0.014-0.77-0.322-1.989-1.709-1.989
		c-1.261,0-1.793,1.134-1.891,1.989H291.398z"/>
	<path d="M294.112,172.889c0-0.714-0.028-1.274-0.056-1.835h1.079l0.056,1.107h0.042c0.378-0.645,1.009-1.247,2.143-1.247
		c0.911,0,1.611,0.561,1.906,1.359h0.027c0.211-0.392,0.49-0.672,0.771-0.882c0.406-0.308,0.841-0.477,1.485-0.477
		c0.91,0,2.24,0.588,2.24,2.942v3.978h-1.204v-3.824c0-1.316-0.49-2.087-1.471-2.087c-0.714,0-1.247,0.518-1.472,1.106
		c-0.055,0.182-0.098,0.392-0.098,0.616v4.188h-1.204v-4.062c0-1.079-0.477-1.849-1.415-1.849c-0.756,0-1.331,0.616-1.527,1.232
		c-0.07,0.168-0.098,0.393-0.098,0.603v4.076h-1.205V172.889z"/>
	<path d="M305.787,167.889h1.219v4.258h0.028c0.435-0.756,1.219-1.233,2.312-1.233c1.695,0,2.871,1.401,2.871,3.446
		c0,2.423-1.541,3.628-3.053,3.628c-0.98,0-1.766-0.378-2.283-1.261h-0.029l-0.069,1.106h-1.051
		c0.028-0.462,0.056-1.148,0.056-1.751V167.889z M307.006,175.117c0,0.154,0.015,0.308,0.057,0.448
		c0.225,0.854,0.952,1.442,1.849,1.442c1.303,0,2.06-1.05,2.06-2.605c0-1.359-0.701-2.521-2.031-2.521
		c-0.826,0-1.611,0.588-1.863,1.513c-0.042,0.154-0.07,0.322-0.07,0.519V175.117z"/>
	<path d="M313.754,173.169c0-0.798-0.015-1.485-0.057-2.115h1.078l0.057,1.345h0.042c0.308-0.91,1.064-1.485,1.892-1.485
		c0.125,0,0.224,0.014,0.336,0.028v1.163c-0.127-0.028-0.252-0.028-0.42-0.028c-0.869,0-1.485,0.645-1.653,1.569
		c-0.028,0.168-0.042,0.378-0.042,0.575v3.614h-1.232V173.169z"/>
	<path d="M323.024,176.209c0,0.588,0.028,1.163,0.099,1.625h-1.107l-0.098-0.854h-0.042c-0.378,0.532-1.106,1.009-2.073,1.009
		c-1.373,0-2.073-0.967-2.073-1.947c0-1.639,1.457-2.535,4.076-2.521v-0.14c0-0.546-0.153-1.569-1.541-1.555
		c-0.644,0-1.302,0.182-1.778,0.504l-0.281-0.827c0.561-0.35,1.388-0.588,2.242-0.588c2.072,0,2.577,1.415,2.577,2.76V176.209z
		 M321.834,174.374c-1.345-0.028-2.871,0.21-2.871,1.527c0,0.813,0.531,1.177,1.148,1.177c0.896,0,1.471-0.561,1.666-1.135
		c0.043-0.14,0.057-0.28,0.057-0.392V174.374z"/>
	<path d="M325.01,172.889c0-0.714-0.014-1.274-0.057-1.835h1.094l0.069,1.121h0.028c0.336-0.63,1.121-1.261,2.241-1.261
		c0.938,0,2.396,0.561,2.396,2.886v4.034h-1.232v-3.908c0-1.092-0.406-2.003-1.569-2.003c-0.798,0-1.429,0.574-1.653,1.261
		c-0.056,0.154-0.084,0.364-0.084,0.574v4.076h-1.232V172.889z"/>
	<path d="M333.467,174.668c0.027,1.667,1.078,2.353,2.324,2.353c0.883,0,1.43-0.154,1.877-0.35l0.225,0.882
		c-0.434,0.196-1.19,0.435-2.27,0.435c-2.087,0-3.334-1.387-3.334-3.432c0-2.045,1.205-3.642,3.18-3.642
		c2.228,0,2.803,1.933,2.803,3.18c0,0.252-0.015,0.435-0.043,0.575H333.467z M337.08,173.786c0.014-0.77-0.322-1.989-1.709-1.989
		c-1.261,0-1.793,1.134-1.891,1.989H337.08z"/>
	<path d="M342.649,176.349c0.546,0.35,1.331,0.616,2.171,0.616c1.246,0,1.975-0.658,1.975-1.611c0-0.868-0.504-1.387-1.778-1.863
		c-1.541-0.561-2.493-1.373-2.493-2.689c0-1.471,1.219-2.563,3.053-2.563c0.953,0,1.668,0.224,2.074,0.462l-0.336,0.995
		c-0.295-0.182-0.926-0.448-1.779-0.448c-1.289,0-1.779,0.77-1.779,1.415c0,0.882,0.574,1.317,1.877,1.821
		c1.597,0.617,2.396,1.387,2.396,2.774c0,1.457-1.065,2.731-3.292,2.731c-0.91,0-1.904-0.28-2.409-0.617L342.649,176.349z"/>
	<path d="M349.663,173.268c0-0.869-0.028-1.569-0.056-2.213h1.092l0.07,1.163h0.028c0.49-0.826,1.303-1.303,2.409-1.303
		c1.652,0,2.886,1.387,2.886,3.432c0,2.437-1.499,3.642-3.096,3.642c-0.896,0-1.681-0.393-2.087-1.065h-0.028v3.684h-1.219V173.268z
		 M350.882,175.075c0,0.182,0.015,0.35,0.056,0.504c0.225,0.854,0.967,1.443,1.85,1.443c1.303,0,2.059-1.064,2.059-2.619
		c0-1.345-0.714-2.508-2.017-2.508c-0.841,0-1.64,0.588-1.863,1.513c-0.042,0.154-0.084,0.336-0.084,0.49V175.075z"/>
	<path d="M362.392,176.209c0,0.588,0.028,1.163,0.099,1.625h-1.107l-0.098-0.854h-0.042c-0.378,0.532-1.106,1.009-2.073,1.009
		c-1.373,0-2.073-0.967-2.073-1.947c0-1.639,1.457-2.535,4.076-2.521v-0.14c0-0.546-0.153-1.569-1.541-1.555
		c-0.644,0-1.302,0.182-1.778,0.504l-0.281-0.827c0.561-0.35,1.388-0.588,2.242-0.588c2.072,0,2.577,1.415,2.577,2.76V176.209z
		 M361.201,174.374c-1.345-0.028-2.871,0.21-2.871,1.527c0,0.813,0.531,1.177,1.148,1.177c0.896,0,1.471-0.561,1.666-1.135
		c0.043-0.14,0.057-0.28,0.057-0.392V174.374z"/>
	<path d="M369.209,177.596c-0.321,0.154-1.036,0.393-1.946,0.393c-2.046,0-3.376-1.387-3.376-3.46c0-2.087,1.429-3.614,3.643-3.614
		c0.729,0,1.372,0.182,1.709,0.364l-0.281,0.938c-0.293-0.154-0.756-0.322-1.428-0.322c-1.555,0-2.396,1.163-2.396,2.563
		c0,1.569,1.01,2.536,2.354,2.536c0.701,0,1.163-0.168,1.514-0.322L369.209,177.596z"/>
	<path d="M371.252,174.668c0.027,1.667,1.078,2.353,2.324,2.353c0.883,0,1.43-0.154,1.877-0.35l0.225,0.882
		c-0.434,0.196-1.19,0.435-2.27,0.435c-2.087,0-3.334-1.387-3.334-3.432c0-2.045,1.205-3.642,3.18-3.642
		c2.228,0,2.803,1.933,2.803,3.18c0,0.252-0.015,0.435-0.043,0.575H371.252z M374.865,173.786c0.014-0.77-0.322-1.989-1.709-1.989
		c-1.261,0-1.793,1.134-1.891,1.989H374.865z"/>
</g>
<g>
	<path d="M289.038,618.039c-0.434,0.225-1.345,0.448-2.493,0.448c-2.662,0-4.65-1.681-4.65-4.791c0-2.97,2.003-4.958,4.931-4.958
		c1.163,0,1.919,0.252,2.241,0.42l-0.308,0.994c-0.448-0.224-1.107-0.393-1.891-0.393c-2.213,0-3.684,1.416-3.684,3.895
		c0,2.325,1.331,3.797,3.614,3.797c0.756,0,1.513-0.154,2.003-0.393L289.038,618.039z"/>
	<path d="M290.701,611.553l1.471,4.007c0.168,0.448,0.336,0.98,0.448,1.387h0.028c0.126-0.406,0.266-0.925,0.434-1.415l1.345-3.979
		h1.303l-1.849,4.833c-0.882,2.325-1.485,3.502-2.325,4.245c-0.616,0.518-1.205,0.728-1.513,0.783l-0.308-1.021
		c0.308-0.099,0.714-0.295,1.079-0.603c0.336-0.267,0.742-0.743,1.037-1.373c0.056-0.126,0.098-0.224,0.098-0.294
		s-0.028-0.168-0.098-0.322l-2.494-6.248H290.701z"/>
	<path d="M298.331,609.929v1.624h1.765v0.939h-1.765v3.656c0,0.84,0.238,1.316,0.925,1.316c0.336,0,0.532-0.028,0.715-0.084
		l0.055,0.938c-0.237,0.084-0.615,0.169-1.092,0.169c-0.575,0-1.037-0.196-1.331-0.519c-0.336-0.378-0.476-0.98-0.476-1.779v-3.697
		h-1.051v-0.939h1.051v-1.26L298.331,609.929z"/>
	<path d="M307.531,614.887c0,2.508-1.751,3.601-3.375,3.601c-1.822,0-3.25-1.345-3.25-3.488c0-2.255,1.498-3.586,3.361-3.586
		C306.215,611.413,307.531,612.828,307.531,614.887z M302.166,614.957c0,1.484,0.841,2.605,2.045,2.605
		c1.178,0,2.06-1.106,2.06-2.633c0-1.148-0.574-2.592-2.03-2.592C302.797,612.338,302.166,613.683,302.166,614.957z"/>
	<path d="M308.914,617.086c0.379,0.225,1.022,0.477,1.639,0.477c0.883,0,1.303-0.434,1.303-1.008c0-0.589-0.35-0.896-1.246-1.233
		c-1.232-0.448-1.808-1.106-1.808-1.919c0-1.093,0.896-1.989,2.339-1.989c0.688,0,1.289,0.183,1.653,0.421l-0.294,0.896
		c-0.266-0.168-0.756-0.406-1.387-0.406c-0.729,0-1.121,0.42-1.121,0.924c0,0.561,0.393,0.813,1.275,1.163
		c1.162,0.435,1.779,1.022,1.779,2.03c0,1.205-0.939,2.046-2.521,2.046c-0.742,0-1.43-0.196-1.906-0.477L308.914,617.086z"/>
	<path d="M320.762,614.887c0,2.508-1.752,3.601-3.376,3.601c-1.821,0-3.25-1.345-3.25-3.488c0-2.255,1.499-3.586,3.362-3.586
		C319.445,611.413,320.762,612.828,320.762,614.887z M315.396,614.957c0,1.484,0.84,2.605,2.045,2.605
		c1.177,0,2.059-1.106,2.059-2.633c0-1.148-0.574-2.592-2.03-2.592C316.027,612.338,315.396,613.683,315.396,614.957z"/>
	<path d="M322.313,608.388h1.232v9.945h-1.232V608.388z"/>
</g>
</svg>
