<?xml version="1.0" encoding="utf-8"?>
<!-- Generator: Adobe Illustrator 13.0.0, SVG Export Plug-In . SVG Version: 6.00 Build 14948)  -->
<!DOCTYPE svg PUBLIC "-//W3C//DTD SVG 1.0//EN" "http://www.w3.org/TR/2001/REC-SVG-20010904/DTD/svg10.dtd">
<svg version="1.0" xmlns="http://www.w3.org/2000/svg" xmlns:xlink="http://www.w3.org/1999/xlink" x="0px" y="0px"
	 width="323.667px" height="31.333px" viewBox="0 0 323.667 31.333" enable-background="new 0 0 323.667 31.333"
	 xml:space="preserve">
<g id="Guides_For_Artboard">
</g>
<g id="Layer_1">
	<g>
		
			<radialGradient id="path16609_5_" cx="37.4097" cy="-525.1587" r="16.1855" gradientTransform="matrix(1.5933 0 0 0.6358 -28.8196 348.5416)" gradientUnits="userSpaceOnUse">
			<stop  offset="0" style="stop-color:#FDFBE2"/>
			<stop  offset="0.1203" style="stop-color:#FDFBDC"/>
			<stop  offset="0.2662" style="stop-color:#FDF9CD"/>
			<stop  offset="0.4255" style="stop-color:#FCF5B5"/>
			<stop  offset="0.5943" style="stop-color:#FAEF95"/>
			<stop  offset="0.7706" style="stop-color:#F8E96E"/>
			<stop  offset="0.9506" style="stop-color:#F6E145"/>
			<stop  offset="1" style="stop-color:#F6DF3C"/>
		</radialGradient>
		<path id="path16609_1_" fill="url(#path16609_5_)" stroke="#030403" d="M56.1,14.645c0,5.786-11.338,10.478-25.314,10.478
			c-13.981,0-25.315-4.689-25.315-10.478S16.804,4.169,30.786,4.169C44.762,4.17,56.1,8.858,56.1,14.645z"/>
		<g>
			<path d="M24.814,15.463l-0.7,2.119h-0.899l2.289-6.736h1.049l2.299,6.736h-0.929l-0.72-2.119H24.814z M27.023,14.783l-0.66-1.939
				c-0.15-0.44-0.25-0.84-0.35-1.229h-0.02c-0.1,0.4-0.21,0.81-0.34,1.219l-0.66,1.949H27.023z"/>
			<path d="M30.354,11.585h-2.049v-0.74h4.987v0.74h-2.059v5.997h-0.879V11.585z"/>
			<path d="M34.045,10.925c0.419-0.07,0.969-0.13,1.669-0.13c0.859,0,1.489,0.2,1.889,0.56c0.37,0.32,0.59,0.81,0.59,1.409
				c0,0.61-0.18,1.089-0.52,1.439c-0.46,0.49-1.209,0.739-2.059,0.739c-0.26,0-0.5-0.01-0.7-0.06v2.699h-0.869V10.925z
				 M34.914,14.173c0.19,0.05,0.43,0.07,0.72,0.07c1.049,0,1.689-0.509,1.689-1.439c0-0.89-0.629-1.319-1.589-1.319
				c-0.38,0-0.67,0.03-0.82,0.07V14.173z"/>
		</g>
	</g>
	<g>
		
			<radialGradient id="path16609_6_" cx="81.082" cy="-525.1587" r="16.1858" gradientTransform="matrix(1.5933 0 0 0.6358 -28.8196 348.5416)" gradientUnits="userSpaceOnUse">
			<stop  offset="0" style="stop-color:#FDFBE2"/>
			<stop  offset="0.1203" style="stop-color:#FDFBDC"/>
			<stop  offset="0.2662" style="stop-color:#FDF9CD"/>
			<stop  offset="0.4255" style="stop-color:#FCF5B5"/>
			<stop  offset="0.5943" style="stop-color:#FAEF95"/>
			<stop  offset="0.7706" style="stop-color:#F8E96E"/>
			<stop  offset="0.9506" style="stop-color:#F6E145"/>
			<stop  offset="1" style="stop-color:#F6DF3C"/>
		</radialGradient>
		<path id="path16609_2_" fill="url(#path16609_6_)" stroke="#030403" d="M125.684,14.645c0,5.786-11.338,10.478-25.314,10.478
			c-13.981,0-25.315-4.689-25.315-10.478S86.388,4.169,100.369,4.169C114.346,4.17,125.684,8.858,125.684,14.645z"/>
		<g>
			<path d="M101.316,17.362c-0.32,0.16-0.959,0.33-1.779,0.33c-1.899,0-3.328-1.209-3.328-3.418c0-2.109,1.429-3.538,3.518-3.538
				c0.839,0,1.369,0.18,1.599,0.3l-0.21,0.709c-0.33-0.16-0.799-0.28-1.359-0.28c-1.579,0-2.628,1.009-2.628,2.778
				c0,1.649,0.95,2.708,2.588,2.708c0.53,0,1.07-0.11,1.419-0.28L101.316,17.362z"/>
			<path d="M102.349,14.253c0-0.57-0.01-1.06-0.04-1.509h0.77l0.03,0.95h0.04c0.22-0.65,0.75-1.06,1.339-1.06
				c0.1,0,0.169,0.01,0.25,0.03v0.83c-0.09-0.02-0.18-0.03-0.3-0.03c-0.62,0-1.06,0.47-1.179,1.129c-0.02,0.12-0.04,0.26-0.04,0.41
				v2.579h-0.87V14.253z"/>
		</g>
	</g>
	<g>
		
			<radialGradient id="path16609_7_" cx="157.7573" cy="-525.1587" r="16.1855" gradientTransform="matrix(1.5933 0 0 0.6358 -28.8196 348.5416)" gradientUnits="userSpaceOnUse">
			<stop  offset="0" style="stop-color:#FDFBE2"/>
			<stop  offset="0.1203" style="stop-color:#FDFBDC"/>
			<stop  offset="0.2662" style="stop-color:#FDF9CD"/>
			<stop  offset="0.4255" style="stop-color:#FCF5B5"/>
			<stop  offset="0.5943" style="stop-color:#FAEF95"/>
			<stop  offset="0.7706" style="stop-color:#F8E96E"/>
			<stop  offset="0.9506" style="stop-color:#F6E145"/>
			<stop  offset="1" style="stop-color:#F6DF3C"/>
		</radialGradient>
		<path id="path16609_3_" fill="url(#path16609_7_)" stroke="#030403" d="M247.85,14.645c0,5.786-11.338,10.478-25.314,10.478
			c-13.98,0-25.314-4.689-25.314-10.478s11.334-10.476,25.314-10.476C236.512,4.17,247.85,8.858,247.85,14.645z"/>
		<g>
			<path d="M215.335,15.462l-0.699,2.119h-0.9l2.289-6.736h1.049l2.299,6.736h-0.93l-0.719-2.119H215.335z M217.544,14.782
				l-0.66-1.939c-0.15-0.44-0.25-0.84-0.35-1.229h-0.02c-0.101,0.4-0.211,0.81-0.34,1.219l-0.66,1.949H217.544z"/>
			<path d="M220.366,10.934c0.529-0.08,1.158-0.14,1.848-0.14c1.25,0,2.14,0.29,2.729,0.839c0.6,0.55,0.95,1.329,0.95,2.419
				c0,1.099-0.34,1.999-0.97,2.618c-0.629,0.63-1.669,0.97-2.979,0.97c-0.619,0-1.139-0.03-1.578-0.08V10.934z M221.235,16.891
				c0.22,0.04,0.539,0.05,0.879,0.05c1.859,0,2.869-1.04,2.869-2.858c0.01-1.589-0.891-2.599-2.729-2.599
				c-0.45,0-0.79,0.04-1.02,0.09V16.891z"/>
			<path d="M227.025,10.924c0.419-0.07,0.97-0.13,1.669-0.13c0.859,0,1.489,0.2,1.889,0.56c0.37,0.32,0.59,0.81,0.59,1.409
				c0,0.61-0.18,1.089-0.52,1.439c-0.46,0.49-1.209,0.739-2.059,0.739c-0.26,0-0.5-0.01-0.7-0.06v2.699h-0.869V10.924z
				 M227.895,14.172c0.19,0.05,0.431,0.07,0.72,0.07c1.049,0,1.689-0.509,1.689-1.439c0-0.89-0.63-1.319-1.59-1.319
				c-0.379,0-0.67,0.03-0.819,0.07V14.172z"/>
		</g>
	</g>
	<g>
		
			<radialGradient id="path16609_8_" cx="202.0576" cy="-525.1587" r="16.1858" gradientTransform="matrix(1.5933 0 0 0.6358 -28.8196 348.5416)" gradientUnits="userSpaceOnUse">
			<stop  offset="0" style="stop-color:#FDFBE2"/>
			<stop  offset="0.1203" style="stop-color:#FDFBDC"/>
			<stop  offset="0.2662" style="stop-color:#FDF9CD"/>
			<stop  offset="0.4255" style="stop-color:#FCF5B5"/>
			<stop  offset="0.5943" style="stop-color:#FAEF95"/>
			<stop  offset="0.7706" style="stop-color:#F8E96E"/>
			<stop  offset="0.9506" style="stop-color:#F6E145"/>
			<stop  offset="1" style="stop-color:#F6DF3C"/>
		</radialGradient>
		<path id="path16609_4_" fill="url(#path16609_8_)" stroke="#030403" d="M318.434,14.645c0,5.786-11.338,10.478-25.314,10.478
			c-13.981,0-25.315-4.689-25.315-10.478s11.334-10.476,25.315-10.476C307.096,4.17,318.434,8.858,318.434,14.645z"/>
		<g>
			<path d="M286.698,10.925c0.42-0.07,0.969-0.13,1.669-0.13c0.859,0,1.489,0.2,1.89,0.56c0.369,0.32,0.589,0.81,0.589,1.409
				c0,0.61-0.18,1.089-0.52,1.439c-0.46,0.49-1.21,0.739-2.06,0.739c-0.26,0-0.499-0.01-0.699-0.06v2.699h-0.869V10.925z
				 M287.567,14.173c0.189,0.05,0.43,0.07,0.72,0.07c1.05,0,1.688-0.509,1.688-1.439c0-0.89-0.629-1.319-1.588-1.319
				c-0.381,0-0.67,0.03-0.82,0.07V14.173z"/>
			<path d="M296.726,17.362c-0.32,0.16-0.96,0.33-1.779,0.33c-1.898,0-3.328-1.209-3.328-3.418c0-2.109,1.43-3.538,3.518-3.538
				c0.84,0,1.369,0.18,1.6,0.3l-0.21,0.709c-0.329-0.16-0.8-0.28-1.359-0.28c-1.579,0-2.628,1.009-2.628,2.778
				c0,1.649,0.949,2.708,2.588,2.708c0.529,0,1.07-0.11,1.42-0.28L296.726,17.362z"/>
			<path d="M297.758,14.253c0-0.57-0.01-1.06-0.04-1.509h0.77l0.03,0.95h0.04c0.22-0.65,0.75-1.06,1.34-1.06
				c0.1,0,0.17,0.01,0.249,0.03v0.83c-0.09-0.02-0.18-0.03-0.3-0.03c-0.619,0-1.059,0.47-1.18,1.129
				c-0.02,0.12-0.039,0.26-0.039,0.41v2.579h-0.87V14.253z"/>
		</g>
	</g>
	<g>
		<g>
			<line fill="none" stroke="#030403" x1="140.285" y1="14.646" x2="183.618" y2="14.646"/>
			<polygon fill="#030403" points="180.81,18.349 182.382,14.646 180.81,10.942 189.587,14.646 			"/>
			<polygon fill="#030403" points="143.094,10.943 141.521,14.646 143.094,18.35 134.316,14.646 			"/>
		</g>
	</g>
	<g>
		<path d="M65.959,11.787v2.818h2.71v0.72h-2.71v2.842h-0.768v-2.842h-2.71v-0.72h2.71v-2.818H65.959z"/>
	</g>
	<g>
		<path d="M258.209,11.787v2.818h2.71v0.72h-2.71v2.842h-0.768v-2.842h-2.71v-0.72h2.71v-2.818H258.209z"/>
	</g>
</g>
</svg>
