<?xml version="1.0" encoding="utf-8"?>
<!-- Generator: Adobe Illustrator 12.0.1, SVG Export Plug-In . SVG Version: 6.00 Build 51448)  -->
<!DOCTYPE svg PUBLIC "-//W3C//DTD SVG 1.1//EN" "http://www.w3.org/Graphics/SVG/1.1/DTD/svg11.dtd" [
	<!ENTITY ns_svg "http://www.w3.org/2000/svg">
	<!ENTITY ns_xlink "http://www.w3.org/1999/xlink">
]>
<svg  version="1.1" id="Layer_1" xmlns="&ns_svg;" xmlns:xlink="&ns_xlink;" width="830.958" height="283.486"
	 viewBox="0 0 830.958 283.486" overflow="visible" enable-background="new 0 0 830.958 283.486" xml:space="preserve">
<rect x="318.385" y="78.904" fill="#B2B2B2" stroke="#000000" width="412.667" height="78.667"/>
<g>
	<circle fill="#968CD2" stroke="#000000" cx="171.719" cy="119.777" r="24.667"/>
	<g>
		<path d="M169.178,122.402c0.546,0.35,1.33,0.615,2.17,0.615c1.246,0,1.974-0.644,1.974-1.609c0-0.868-0.504-1.386-1.778-1.861
			c-1.54-0.561-2.492-1.373-2.492-2.688c0-1.47,1.218-2.562,3.052-2.562c0.952,0,1.666,0.224,2.072,0.462l-0.336,0.994
			c-0.294-0.182-0.924-0.447-1.778-0.447c-1.288,0-1.778,0.77-1.778,1.414c0,0.881,0.574,1.315,1.876,1.819
			c1.596,0.63,2.394,1.386,2.394,2.772c0,1.455-1.064,2.729-3.29,2.729c-0.91,0-1.904-0.28-2.408-0.616L169.178,122.402z"/>
	</g>
</g>
<g>
	<circle fill="#ABDCFF" stroke="#000000" cx="348.552" cy="119.98" r="24.667"/>
	<g>
		<path d="M346.648,114.654v9.436h-1.232v-9.436H346.648z"/>
		<path d="M350.025,123.185h-0.02l-1.107,0.598l-0.167-0.656l1.392-0.744h0.735v6.369h-0.833V123.185z"/>
	</g>
</g>
<g>
	<circle fill="#C0FF6E" stroke="#000000" cx="518.553" cy="119.98" r="24.667"/>
	<g>
		<path d="M516.649,114.653v9.437h-1.232v-9.437H516.649z"/>
		<path d="M518.36,127.771c0.244,0.146,0.803,0.393,1.41,0.393c1.098,0,1.451-0.696,1.441-1.235
			c-0.01-0.892-0.814-1.274-1.646-1.274h-0.48v-0.646h0.48c0.627,0,1.42-0.323,1.42-1.078c0-0.51-0.322-0.96-1.117-0.96
			c-0.509,0-0.999,0.226-1.273,0.421l-0.234-0.627c0.342-0.245,0.989-0.49,1.676-0.49c1.254,0,1.822,0.745,1.822,1.52
			c0,0.666-0.402,1.225-1.176,1.509v0.02c0.783,0.147,1.421,0.735,1.421,1.627c0,1.019-0.804,1.911-2.323,1.911
			c-0.715,0-1.342-0.226-1.656-0.432L518.36,127.771z"/>
	</g>
</g>
<g>
	<circle fill="#A8FFBA" stroke="#000000" cx="432.552" cy="119.98" r="24.667"/>
	<g>
		<path d="M430.648,114.653v9.437h-1.232v-9.437H430.648z"/>
		<path d="M432.152,128.751v-0.529l0.676-0.657c1.627-1.548,2.372-2.372,2.372-3.331c0-0.647-0.304-1.245-1.254-1.245
			c-0.578,0-1.059,0.294-1.353,0.539l-0.274-0.608c0.431-0.361,1.068-0.646,1.803-0.646c1.362,0,1.94,0.941,1.94,1.853
			c0,1.176-0.853,2.126-2.195,3.42l-0.5,0.471v0.02h2.852v0.716H432.152z"/>
	</g>
</g>
<g>
	<circle fill="#FFE000" stroke="#000000" cx="605.219" cy="119.98" r="24.667"/>
	<g>
		<path d="M603.315,114.653v9.437h-1.232v-9.437H603.315z"/>
		<path d="M607.485,128.751v-1.734h-2.959v-0.559l2.842-4.078h0.931v3.97h0.892v0.667h-0.892v1.734H607.485z M607.485,126.35v-2.137
			c0-0.333,0.01-0.666,0.029-0.999h-0.029c-0.195,0.372-0.353,0.646-0.529,0.95l-1.559,2.166v0.02H607.485z"/>
	</g>
</g>
<g>
	<circle fill="#FF857D" stroke="#000000" cx="692.553" cy="120.084" r="24.667"/>
	<g>
		<path d="M690.649,114.758v9.437h-1.232v-9.437H690.649z"/>
		<path d="M695.956,123.211h-2.43l-0.246,1.617c0.147-0.02,0.285-0.039,0.52-0.039c0.5,0,0.98,0.108,1.373,0.343
			c0.499,0.274,0.91,0.833,0.91,1.656c0,1.244-0.989,2.176-2.371,2.176c-0.695,0-1.273-0.196-1.588-0.393l0.216-0.656
			c0.265,0.156,0.784,0.354,1.372,0.354c0.804,0,1.51-0.529,1.5-1.393c0-0.842-0.559-1.42-1.823-1.42
			c-0.372,0-0.657,0.029-0.892,0.068l0.412-3.039h3.047V123.211z"/>
	</g>
	<circle fill="#FF0000" stroke="#000000" cx="682.908" cy="92.231" r="3.933"/>
	<circle fill="#FF0000" stroke="#000000" cx="701.075" cy="92.231" r="3.933"/>
	<circle fill="#FF0000" stroke="#000000" cx="682.908" cy="147.731" r="3.933"/>
	<circle fill="#FF0000" stroke="#000000" cx="701.075" cy="147.731" r="3.933"/>
	<circle fill="#FF0000" stroke="#000000" cx="719.407" cy="107.398" r="3.933"/>
	<circle fill="#FF0000" stroke="#000000" cx="719.407" cy="130.897" r="3.933"/>
	<circle fill="#FF0000" stroke="#000000" cx="666.241" cy="107.398" r="3.933"/>
	<circle fill="#FF0000" stroke="#000000" cx="666.241" cy="132.231" r="3.933"/>
</g>
<g>
	<rect x="156.052" y="159.932" fill="#968CD2" stroke="#000000" width="54" height="21"/>
	<g>
		<path d="M169.381,165.232c0.756-0.112,1.638-0.196,2.604-0.196c1.75,0,2.996,0.392,3.822,1.162
			c0.854,0.77,1.344,1.876,1.344,3.401c0,1.541-0.49,2.801-1.358,3.668c-0.896,0.883-2.352,1.358-4.186,1.358
			c-0.882,0-1.596-0.028-2.226-0.112V165.232z M170.613,173.589c0.308,0.057,0.756,0.057,1.232,0.057
			c2.604,0.014,4.018-1.457,4.018-4.004c0.014-2.254-1.246-3.641-3.822-3.641c-0.63,0-1.106,0.057-1.428,0.126V173.589z"/>
		<path d="M178.719,169.879c0-0.798-0.014-1.483-0.056-2.114h1.078l0.056,1.33h0.042c0.308-0.91,1.064-1.484,1.89-1.484
			c0.126,0,0.224,0.015,0.336,0.043v1.148c-0.14-0.015-0.266-0.029-0.434-0.029c-0.868,0-1.484,0.658-1.652,1.568
			c-0.028,0.182-0.042,0.379-0.042,0.588v3.612h-1.232L178.719,169.879z"/>
		<path d="M188.925,172.693c0,0.701,0.014,1.316,0.056,1.849h-1.092l-0.07-1.106h-0.028c-0.308,0.547-1.036,1.26-2.24,1.26
			c-1.064,0-2.338-0.602-2.338-2.967v-3.963h1.232v3.738c0,1.288,0.406,2.17,1.512,2.17c0.826,0,1.4-0.574,1.624-1.134
			c0.07-0.168,0.112-0.392,0.112-0.63v-4.145h1.232V172.693z"/>
		<path d="M196.765,173.547c0,1.568-0.322,2.507-0.966,3.108c-0.672,0.602-1.624,0.812-2.478,0.812c-0.812,0-1.708-0.196-2.254-0.56
			l0.308-0.952c0.448,0.294,1.148,0.546,1.988,0.546c1.26,0,2.184-0.658,2.184-2.38v-0.742h-0.028
			c-0.364,0.63-1.106,1.134-2.156,1.134c-1.68,0-2.884-1.428-2.884-3.318c0-2.295,1.498-3.584,3.066-3.584
			c1.176,0,1.806,0.603,2.114,1.162h0.028l0.042-1.008h1.092c-0.042,0.477-0.056,1.022-0.056,1.849V173.547z M195.533,170.425
			c0-0.195-0.014-0.378-0.07-0.546c-0.224-0.728-0.812-1.315-1.722-1.315c-1.176,0-2.016,0.994-2.016,2.576
			c0,1.315,0.686,2.436,2.002,2.436c0.77,0,1.456-0.477,1.708-1.274c0.07-0.196,0.098-0.434,0.098-0.657V170.425z"/>
	</g>
</g>
<g>
	<polygon fill="#FF0000" stroke="#000000" points="278.484,210.984 269.61,195.615 278.484,180.244 296.231,180.244 
		305.105,195.615 296.231,210.984 	"/>
	<g>
		<path fill="#FFFFFF" d="M285.488,192.947l1.33,3.793c0.224,0.631,0.406,1.19,0.546,1.75h0.042c0.154-0.56,0.35-1.119,0.574-1.75
			l1.316-3.793h1.288l-2.66,6.775h-1.176l-2.576-6.775H285.488z"/>
	</g>
</g>
<g>
	<g>
		<line fill="none" stroke="#000000" x1="38.385" y1="117.57" x2="131.718" y2="117.571"/>
		<polygon points="128.91,121.274 130.482,117.571 128.91,113.867 137.688,117.571 		"/>
	</g>
</g>
<g>
	<g>
		<line fill="none" stroke="#000000" x1="171.051" y1="85.903" x2="171.076" y2="42.238"/>
		<polygon points="174.778,45.048 171.076,43.474 167.371,45.044 171.08,36.269 		"/>
	</g>
</g>
<g>
	<g>
		<line fill="none" stroke="#000000" x1="206.385" y1="118.237" x2="303.051" y2="118.236"/>
		<polygon points="300.243,121.939 301.815,118.236 300.243,114.532 309.021,118.236 		"/>
	</g>
</g>
<g>
	<circle fill="none" stroke="#000000" cx="246.719" cy="156.404" r="9.5"/>
	<g>
		<path d="M250.052,156.288v0.7h-7v-0.7H250.052z"/>
	</g>
</g>
<g>
	<g>
		<line fill="none" stroke="#000000" x1="287.386" y1="175.238" x2="287.36" y2="133.238"/>
		<polygon points="291.065,136.044 287.361,134.474 283.658,136.048 287.357,127.269 		"/>
	</g>
</g>
<g>
	<g>
		<line fill="none" stroke="#000000" stroke-dasharray="3 3" x1="215.051" y1="169.57" x2="276.718" y2="169.57"/>
		<polygon points="273.91,173.273 275.482,169.57 273.91,165.866 282.688,169.57 		"/>
	</g>
</g>
<g>
	<g>
		<line fill="none" stroke="#000000" x1="307.385" y1="195.57" x2="384.386" y2="195.569"/>
		<polygon points="381.577,199.272 383.15,195.569 381.577,191.865 390.355,195.569 		"/>
	</g>
</g>
<g>
	<g>
		<line fill="none" stroke="#000000" x1="373.718" y1="119.982" x2="398.385" y2="119.981"/>
		<polygon points="395.576,123.684 397.149,119.981 395.576,116.277 404.354,119.981 		"/>
	</g>
</g>
<g>
	<g>
		<line fill="none" stroke="#000000" x1="457.718" y1="119.982" x2="485.719" y2="119.981"/>
		<polygon points="482.911,123.684 484.483,119.981 482.911,116.277 491.688,119.981 		"/>
	</g>
</g>
<g>
	<g>
		<line fill="none" stroke="#000000" x1="543.718" y1="119.982" x2="571.719" y2="119.981"/>
		<polygon points="568.911,123.684 570.483,119.981 568.911,116.277 577.688,119.981 		"/>
	</g>
</g>
<g>
	<g>
		<line fill="none" stroke="#000000" x1="631.051" y1="119.982" x2="659.052" y2="119.981"/>
		<polygon points="656.244,123.684 657.817,119.981 656.244,116.277 665.022,119.981 		"/>
	</g>
</g>
<g>
	<path d="M390.729,59.927c0.756-0.112,1.638-0.196,2.604-0.196c1.75,0,2.996,0.392,3.822,1.162c0.854,0.77,1.344,1.876,1.344,3.402
		c0,1.54-0.49,2.8-1.358,3.668c-0.896,0.882-2.352,1.358-4.186,1.358c-0.882,0-1.596-0.028-2.226-0.112V59.927z M391.961,68.285
		c0.308,0.056,0.756,0.056,1.232,0.056c2.604,0.014,4.018-1.456,4.018-4.004c0.014-2.254-1.246-3.64-3.822-3.64
		c-0.63,0-1.106,0.056-1.428,0.126V68.285z"/>
	<path d="M400.809,66.059c0.028,1.666,1.078,2.352,2.31,2.352c0.882,0,1.428-0.154,1.876-0.336l0.224,0.868
		c-0.434,0.196-1.19,0.434-2.268,0.434c-2.072,0-3.332-1.386-3.332-3.416c0-2.058,1.218-3.668,3.192-3.668
		c2.212,0,2.786,1.946,2.786,3.192c0,0.252-0.014,0.448-0.042,0.588L400.809,66.059z M404.407,65.177
		c0.014-0.77-0.322-2.002-1.694-2.002c-1.26,0-1.792,1.148-1.89,2.002H404.407z"/>
	<path d="M407.123,59.297h1.232v9.94h-1.232V59.297z"/>
	<path d="M415.172,67.613c0,0.588,0.028,1.162,0.098,1.624h-1.106l-0.112-0.854h-0.042c-0.364,0.532-1.106,1.008-2.072,1.008
		c-1.372,0-2.072-0.966-2.072-1.946c0-1.638,1.456-2.534,4.074-2.52v-0.14c0-0.56-0.154-1.582-1.54-1.568
		c-0.644,0-1.302,0.182-1.778,0.504l-0.28-0.826c0.56-0.35,1.386-0.588,2.24-0.588c2.086,0,2.59,1.414,2.59,2.772V67.613z
		 M413.968,65.779c-1.344-0.028-2.87,0.21-2.87,1.526c0,0.812,0.532,1.176,1.148,1.176c0.896,0,1.47-0.56,1.666-1.134
		c0.042-0.126,0.056-0.266,0.056-0.392V65.779z"/>
	<path d="M417.441,62.461l1.47,4.004c0.168,0.448,0.336,0.98,0.448,1.386h0.028c0.126-0.406,0.266-0.924,0.434-1.414l1.344-3.976
		h1.302l-1.848,4.83c-0.882,2.324-1.484,3.514-2.324,4.256c-0.616,0.518-1.204,0.728-1.512,0.784l-0.308-1.036
		c0.308-0.084,0.714-0.28,1.078-0.602c0.336-0.266,0.742-0.742,1.036-1.372c0.056-0.126,0.098-0.21,0.098-0.294
		c0-0.07-0.028-0.168-0.098-0.308l-2.492-6.258H417.441z"/>
	<path d="M426.554,59.297h1.232v4.242h0.028c0.434-0.756,1.218-1.232,2.31-1.232c1.68,0,2.856,1.4,2.856,3.444
		c0,2.436-1.54,3.64-3.052,3.64c-0.98,0-1.75-0.378-2.268-1.274h-0.028l-0.07,1.12h-1.064c0.042-0.462,0.056-1.148,0.056-1.75
		V59.297z M427.786,66.521c0,0.154,0.014,0.308,0.042,0.448c0.238,0.854,0.966,1.442,1.848,1.442c1.302,0,2.058-1.05,2.058-2.604
		c0-1.372-0.7-2.534-2.016-2.534c-0.84,0-1.624,0.588-1.862,1.512c-0.042,0.154-0.07,0.322-0.07,0.518V66.521z"/>
	<path d="M435.234,66.059c0.028,1.666,1.078,2.352,2.31,2.352c0.882,0,1.428-0.154,1.876-0.336l0.224,0.868
		c-0.434,0.196-1.19,0.434-2.268,0.434c-2.072,0-3.332-1.386-3.332-3.416c0-2.058,1.218-3.668,3.192-3.668
		c2.212,0,2.786,1.946,2.786,3.192c0,0.252-0.014,0.448-0.042,0.588L435.234,66.059z M438.832,65.177
		c0.014-0.77-0.322-2.002-1.694-2.002c-1.26,0-1.792,1.148-1.89,2.002H438.832z"/>
	<path d="M443.031,60.837v1.624h1.764v0.938h-1.764v3.654c0,0.84,0.238,1.316,0.924,1.316c0.336,0,0.532-0.028,0.714-0.084
		l0.056,0.938c-0.238,0.084-0.616,0.168-1.092,0.168c-0.574,0-1.036-0.196-1.33-0.518c-0.336-0.378-0.476-0.98-0.476-1.778v-3.696
		h-1.05v-0.938h1.05v-1.246L443.031,60.837z"/>
	<path d="M446.728,62.461l0.91,3.43c0.182,0.756,0.364,1.47,0.49,2.17h0.042c0.154-0.686,0.378-1.414,0.602-2.156l1.106-3.444h1.036
		l1.05,3.388c0.252,0.798,0.448,1.526,0.602,2.212h0.042c0.112-0.686,0.294-1.4,0.518-2.198l0.966-3.402h1.218l-2.184,6.776h-1.12
		l-1.036-3.234c-0.238-0.77-0.434-1.442-0.602-2.24h-0.028c-0.168,0.812-0.378,1.526-0.616,2.254l-1.092,3.22h-1.12l-2.044-6.776
		H446.728z"/>
	<path d="M457.115,66.059c0.028,1.666,1.078,2.352,2.31,2.352c0.882,0,1.428-0.154,1.876-0.336l0.224,0.868
		c-0.434,0.196-1.19,0.434-2.268,0.434c-2.072,0-3.332-1.386-3.332-3.416c0-2.058,1.218-3.668,3.192-3.668
		c2.212,0,2.786,1.946,2.786,3.192c0,0.252-0.014,0.448-0.042,0.588L457.115,66.059z M460.713,65.177
		c0.014-0.77-0.322-2.002-1.694-2.002c-1.26,0-1.792,1.148-1.89,2.002H460.713z"/>
	<path d="M464.129,66.059c0.028,1.666,1.078,2.352,2.31,2.352c0.882,0,1.428-0.154,1.876-0.336l0.224,0.868
		c-0.435,0.196-1.19,0.434-2.269,0.434c-2.071,0-3.331-1.386-3.331-3.416c0-2.058,1.218-3.668,3.192-3.668
		c2.211,0,2.785,1.946,2.785,3.192c0,0.252-0.014,0.448-0.042,0.588L464.129,66.059z M467.727,65.177
		c0.014-0.77-0.322-2.002-1.694-2.002c-1.26,0-1.792,1.148-1.89,2.002H467.727z"/>
	<path d="M470.442,64.295c0-0.714-0.014-1.274-0.056-1.834h1.093l0.069,1.106h0.028c0.336-0.63,1.119-1.26,2.24-1.26
		c0.938,0,2.394,0.56,2.394,2.884v4.046h-1.231v-3.906c0-1.092-0.406-2.016-1.568-2.016c-0.799,0-1.428,0.574-1.652,1.26
		c-0.056,0.154-0.084,0.378-0.084,0.574v4.088h-1.232V64.295z"/>
	<path d="M486.01,69c-0.322,0.154-1.036,0.392-1.946,0.392c-2.044,0-3.374-1.386-3.374-3.472s1.428-3.612,3.641-3.612
		c0.728,0,1.371,0.182,1.707,0.364l-0.279,0.938c-0.294-0.154-0.756-0.322-1.428-0.322c-1.555,0-2.395,1.162-2.395,2.576
		c0,1.568,1.008,2.534,2.352,2.534c0.701,0,1.162-0.168,1.513-0.322L486.01,69z"/>
	<path d="M488.069,66.059c0.027,1.666,1.077,2.352,2.31,2.352c0.882,0,1.428-0.154,1.876-0.336l0.224,0.868
		c-0.434,0.196-1.189,0.434-2.269,0.434c-2.071,0-3.331-1.386-3.331-3.416c0-2.058,1.218-3.668,3.192-3.668
		c2.211,0,2.785,1.946,2.785,3.192c0,0.252-0.014,0.448-0.042,0.588L488.069,66.059z M491.667,65.177
		c0.014-0.77-0.322-2.002-1.694-2.002c-1.26,0-1.792,1.148-1.89,2.002H491.667z"/>
	<path d="M494.382,59.297h1.231v9.94h-1.231V59.297z"/>
	<path d="M497.659,59.297h1.231v9.94h-1.231V59.297z"/>
	<path d="M504.491,61.215c-0.462,0-0.771-0.364-0.771-0.798s0.322-0.784,0.798-0.784c0.477,0,0.784,0.35,0.784,0.784
		s-0.308,0.798-0.798,0.798H504.491z M503.903,69.237v-6.776h1.231v6.776H503.903z"/>
	<path d="M507.179,64.295c0-0.714-0.015-1.274-0.057-1.834h1.092l0.07,1.106h0.028c0.336-0.63,1.12-1.26,2.239-1.26
		c0.938,0,2.395,0.56,2.395,2.884v4.046h-1.232v-3.906c0-1.092-0.405-2.016-1.567-2.016c-0.798,0-1.429,0.574-1.652,1.26
		c-0.056,0.154-0.084,0.378-0.084,0.574v4.088h-1.231V64.295z"/>
	<path d="M515.06,69.237v-5.838h-0.938v-0.938h0.938v-0.322c0-0.952,0.225-1.82,0.798-2.366c0.462-0.448,1.078-0.63,1.639-0.63
		c0.447,0,0.812,0.098,1.05,0.196l-0.154,0.952c-0.196-0.084-0.434-0.154-0.798-0.154c-1.036,0-1.316,0.924-1.316,1.96v0.364h1.639
		v0.938h-1.624v5.838H515.06z"/>
	<path d="M519.568,66.059c0.028,1.666,1.078,2.352,2.311,2.352c0.882,0,1.428-0.154,1.876-0.336l0.224,0.868
		c-0.434,0.196-1.189,0.434-2.268,0.434c-2.072,0-3.332-1.386-3.332-3.416c0-2.058,1.218-3.668,3.191-3.668
		c2.212,0,2.786,1.946,2.786,3.192c0,0.252-0.014,0.448-0.042,0.588L519.568,66.059z M523.167,65.177
		c0.014-0.77-0.322-2.002-1.694-2.002c-1.26,0-1.792,1.148-1.89,2.002H523.167z"/>
	<path d="M530.711,69c-0.321,0.154-1.035,0.392-1.945,0.392c-2.044,0-3.374-1.386-3.374-3.472s1.428-3.612,3.64-3.612
		c0.729,0,1.372,0.182,1.708,0.364l-0.28,0.938c-0.294-0.154-0.756-0.322-1.428-0.322c-1.554,0-2.394,1.162-2.394,2.576
		c0,1.568,1.008,2.534,2.352,2.534c0.7,0,1.162-0.168,1.512-0.322L530.711,69z"/>
	<path d="M533.819,60.837v1.624h1.764v0.938h-1.764v3.654c0,0.84,0.238,1.316,0.924,1.316c0.336,0,0.532-0.028,0.714-0.084
		l0.057,0.938c-0.238,0.084-0.616,0.168-1.092,0.168c-0.574,0-1.036-0.196-1.33-0.518c-0.336-0.378-0.477-0.98-0.477-1.778v-3.696
		h-1.05v-0.938h1.05v-1.246L533.819,60.837z"/>
	<path d="M537.557,61.215c-0.462,0-0.771-0.364-0.771-0.798s0.322-0.784,0.798-0.784c0.477,0,0.784,0.35,0.784,0.784
		s-0.308,0.798-0.798,0.798H537.557z M536.969,69.237v-6.776h1.231v6.776H536.969z"/>
	<path d="M543.003,69.391c-1.82,0-3.248-1.344-3.248-3.486c0-2.268,1.498-3.598,3.359-3.598c1.946,0,3.263,1.414,3.263,3.472
		c0,2.52-1.75,3.612-3.36,3.612H543.003z M543.045,68.467c1.176,0,2.058-1.106,2.058-2.646c0-1.148-0.574-2.59-2.03-2.59
		c-1.441,0-2.071,1.344-2.071,2.632c0,1.484,0.84,2.604,2.029,2.604H543.045z"/>
	<path d="M547.931,64.295c0-0.714-0.015-1.274-0.057-1.834h1.092l0.07,1.106h0.028c0.336-0.63,1.12-1.26,2.239-1.26
		c0.938,0,2.395,0.56,2.395,2.884v4.046h-1.232v-3.906c0-1.092-0.405-2.016-1.567-2.016c-0.798,0-1.429,0.574-1.652,1.26
		c-0.056,0.154-0.084,0.378-0.084,0.574v4.088h-1.231V64.295z"/>
	<path d="M563.442,67.613c0,0.588,0.028,1.162,0.098,1.624h-1.105l-0.112-0.854h-0.042c-0.364,0.532-1.105,1.008-2.072,1.008
		c-1.371,0-2.071-0.966-2.071-1.946c0-1.638,1.456-2.534,4.074-2.52v-0.14c0-0.56-0.154-1.582-1.54-1.568
		c-0.645,0-1.303,0.182-1.778,0.504l-0.28-0.826c0.561-0.35,1.386-0.588,2.24-0.588c2.086,0,2.59,1.414,2.59,2.772V67.613z
		 M562.238,65.779c-1.344-0.028-2.87,0.21-2.87,1.526c0,0.812,0.532,1.176,1.148,1.176c0.896,0,1.47-0.56,1.666-1.134
		c0.042-0.126,0.056-0.266,0.056-0.392V65.779z"/>
	<path d="M565.417,64.295c0-0.714-0.015-1.274-0.057-1.834h1.092l0.07,1.106h0.028c0.336-0.63,1.12-1.26,2.239-1.26
		c0.938,0,2.395,0.56,2.395,2.884v4.046h-1.232v-3.906c0-1.092-0.405-2.016-1.567-2.016c-0.798,0-1.429,0.574-1.652,1.26
		c-0.056,0.154-0.084,0.378-0.084,0.574v4.088h-1.231V64.295z"/>
	<path d="M579.038,59.297v8.19c0,0.602,0.014,1.288,0.056,1.75h-1.105l-0.057-1.176h-0.027c-0.378,0.756-1.19,1.33-2.296,1.33
		c-1.639,0-2.912-1.386-2.912-3.444c-0.015-2.268,1.399-3.64,3.038-3.64c1.05,0,1.75,0.49,2.044,1.022h0.027v-4.032H579.038z
		 M577.805,65.219c0-0.168-0.014-0.364-0.056-0.532c-0.182-0.77-0.854-1.414-1.778-1.414c-1.273,0-2.029,1.12-2.029,2.604
		c0,1.386,0.686,2.52,2.002,2.52c0.826,0,1.582-0.56,1.806-1.47c0.042-0.168,0.056-0.336,0.056-0.532V65.219z"/>
	<path d="M588.878,69c-0.321,0.154-1.035,0.392-1.945,0.392c-2.044,0-3.374-1.386-3.374-3.472s1.428-3.612,3.64-3.612
		c0.729,0,1.372,0.182,1.708,0.364l-0.28,0.938c-0.294-0.154-0.756-0.322-1.428-0.322c-1.554,0-2.394,1.162-2.394,2.576
		c0,1.568,1.008,2.534,2.352,2.534c0.7,0,1.162-0.168,1.512-0.322L588.878,69z"/>
	<path d="M590.937,66.059c0.028,1.666,1.078,2.352,2.311,2.352c0.882,0,1.428-0.154,1.876-0.336l0.224,0.868
		c-0.434,0.196-1.189,0.434-2.268,0.434c-2.072,0-3.332-1.386-3.332-3.416c0-2.058,1.218-3.668,3.191-3.668
		c2.212,0,2.786,1.946,2.786,3.192c0,0.252-0.014,0.448-0.042,0.588L590.937,66.059z M594.536,65.177
		c0.014-0.77-0.322-2.002-1.694-2.002c-1.26,0-1.792,1.148-1.89,2.002H594.536z"/>
	<path d="M597.251,59.297h1.231v9.94h-1.231V59.297z"/>
	<path d="M600.528,59.297h1.231v9.94h-1.231V59.297z"/>
	<path d="M612.624,59.297v8.19c0,0.602,0.014,1.288,0.056,1.75h-1.105l-0.057-1.176h-0.027c-0.378,0.756-1.19,1.33-2.296,1.33
		c-1.639,0-2.912-1.386-2.912-3.444c-0.015-2.268,1.399-3.64,3.038-3.64c1.05,0,1.75,0.49,2.044,1.022h0.027v-4.032H612.624z
		 M611.391,65.219c0-0.168-0.014-0.364-0.056-0.532c-0.182-0.77-0.854-1.414-1.778-1.414c-1.273,0-2.029,1.12-2.029,2.604
		c0,1.386,0.686,2.52,2.002,2.52c0.826,0,1.582-0.56,1.806-1.47c0.042-0.168,0.056-0.336,0.056-0.532V65.219z"/>
	<path d="M615.367,66.059c0.028,1.666,1.078,2.352,2.311,2.352c0.882,0,1.428-0.154,1.876-0.336l0.224,0.868
		c-0.434,0.196-1.189,0.434-2.268,0.434c-2.072,0-3.332-1.386-3.332-3.416c0-2.058,1.218-3.668,3.191-3.668
		c2.212,0,2.786,1.946,2.786,3.192c0,0.252-0.014,0.448-0.042,0.588L615.367,66.059z M618.965,65.177
		c0.014-0.77-0.322-2.002-1.694-2.002c-1.26,0-1.792,1.148-1.89,2.002H618.965z"/>
	<path d="M626.455,67.613c0,0.588,0.028,1.162,0.098,1.624h-1.105l-0.112-0.854h-0.042c-0.364,0.532-1.105,1.008-2.072,1.008
		c-1.371,0-2.071-0.966-2.071-1.946c0-1.638,1.456-2.534,4.074-2.52v-0.14c0-0.56-0.154-1.582-1.54-1.568
		c-0.645,0-1.303,0.182-1.778,0.504l-0.28-0.826c0.561-0.35,1.386-0.588,2.24-0.588c2.086,0,2.59,1.414,2.59,2.772V67.613z
		 M625.25,65.779c-1.344-0.028-2.87,0.21-2.87,1.526c0,0.812,0.532,1.176,1.148,1.176c0.896,0,1.47-0.56,1.666-1.134
		c0.042-0.126,0.056-0.266,0.056-0.392V65.779z"/>
	<path d="M629.857,60.837v1.624h1.764v0.938h-1.764v3.654c0,0.84,0.238,1.316,0.924,1.316c0.336,0,0.532-0.028,0.714-0.084
		l0.057,0.938c-0.238,0.084-0.616,0.168-1.092,0.168c-0.574,0-1.036-0.196-1.33-0.518c-0.336-0.378-0.477-0.98-0.477-1.778v-3.696
		h-1.05v-0.938h1.05v-1.246L629.857,60.837z"/>
	<path d="M633.007,59.297h1.231v4.228h0.028c0.195-0.35,0.504-0.672,0.882-0.868c0.364-0.224,0.798-0.35,1.26-0.35
		c0.91,0,2.366,0.56,2.366,2.898v4.032h-1.232v-3.892c0-1.106-0.405-2.016-1.567-2.016c-0.798,0-1.414,0.56-1.652,1.232
		c-0.07,0.168-0.084,0.35-0.084,0.588v4.088h-1.231V59.297z"/>
</g>
<g>
	<path d="M380.753,102.903h0.028c0.168-0.238,0.392-0.546,0.588-0.77l2.002-2.338h1.47l-2.618,2.786l2.982,3.99h-1.498l-2.324-3.262
		l-0.63,0.714v2.548h-1.232v-9.94h1.232V102.903z"/>
	<path d="M387.347,97.135v9.436h-1.232v-9.436H387.347z"/>
	<path d="M390.724,105.667h-0.02l-1.107,0.598l-0.167-0.656l1.392-0.745h0.735v6.37h-0.833V105.667z"/>
</g>
<g>
	<path d="M552.252,102.403h0.028c0.169-0.238,0.392-0.546,0.589-0.77l2.002-2.338h1.469l-2.617,2.786l2.982,3.99h-1.498
		l-2.324-3.262l-0.631,0.714v2.548h-1.231v-9.94h1.231V102.403z"/>
	<path d="M558.847,96.635v9.436h-1.232v-9.436H558.847z"/>
	<path d="M560.558,109.753c0.245,0.147,0.804,0.392,1.411,0.392c1.098,0,1.45-0.696,1.44-1.235c-0.01-0.892-0.813-1.274-1.646-1.274
		h-0.479v-0.647h0.479c0.628,0,1.421-0.323,1.421-1.078c0-0.509-0.323-0.96-1.117-0.96c-0.51,0-1,0.226-1.273,0.422l-0.235-0.627
		c0.343-0.245,0.989-0.49,1.676-0.49c1.255,0,1.823,0.745,1.823,1.519c0,0.667-0.402,1.225-1.177,1.509v0.02
		c0.784,0.147,1.421,0.735,1.421,1.627c0,1.019-0.803,1.911-2.322,1.911c-0.715,0-1.343-0.226-1.656-0.431L560.558,109.753z"/>
</g>
<g>
	<path d="M465.252,102.653h0.028c0.169-0.238,0.392-0.546,0.589-0.77l2.002-2.338h1.469l-2.617,2.786l2.982,3.99h-1.498
		l-2.324-3.262l-0.631,0.714v2.548h-1.231v-9.94h1.231V102.653z"/>
	<path d="M471.847,96.885v9.436h-1.232v-9.436H471.847z"/>
	<path d="M473.352,110.983v-0.529l0.676-0.657c1.627-1.548,2.372-2.372,2.372-3.332c0-0.647-0.304-1.245-1.255-1.245
		c-0.578,0-1.059,0.294-1.352,0.539l-0.275-0.607c0.432-0.362,1.068-0.646,1.804-0.646c1.362,0,1.94,0.94,1.94,1.852
		c0,1.176-0.853,2.126-2.195,3.42l-0.5,0.471v0.02h2.852v0.715H473.352z"/>
</g>
<g>
	<path d="M636.752,102.403h0.028c0.169-0.238,0.392-0.546,0.589-0.77l2.002-2.338h1.469l-2.617,2.786l2.982,3.99h-1.498
		l-2.324-3.262l-0.631,0.714v2.548h-1.231v-9.94h1.231V102.403z"/>
	<path d="M643.347,96.635v9.436h-1.232v-9.436H643.347z"/>
	<path d="M647.518,110.733v-1.734h-2.96v-0.559l2.842-4.077h0.931v3.969h0.893v0.667h-0.893v1.734H647.518z M647.518,108.332v-2.137
		c0-0.333,0.01-0.666,0.029-1h-0.029c-0.196,0.373-0.354,0.647-0.529,0.951l-1.559,2.166v0.02H647.518z"/>
</g>
<g>
	<path d="M747.502,104.403h0.028c0.169-0.238,0.392-0.546,0.589-0.77l2.002-2.338h1.469l-2.617,2.786l2.982,3.99h-1.498
		l-2.324-3.262l-0.631,0.714v2.548h-1.231v-9.94h1.231V104.403z"/>
	<path d="M754.097,98.635v9.436h-1.232v-9.436H754.097z"/>
	<path d="M759.405,107.088h-2.431l-0.245,1.617c0.146-0.02,0.284-0.039,0.52-0.039c0.5,0,0.98,0.108,1.372,0.343
		c0.499,0.274,0.911,0.833,0.911,1.656c0,1.245-0.99,2.176-2.371,2.176c-0.696,0-1.274-0.196-1.588-0.392l0.216-0.657
		c0.265,0.157,0.784,0.353,1.372,0.353c0.803,0,1.509-0.529,1.499-1.392c0-0.843-0.559-1.421-1.823-1.421
		c-0.372,0-0.656,0.029-0.891,0.068l0.411-3.038h3.048V107.088z"/>
</g>
<g>
	<g>
		<line fill="none" stroke="#000000" x1="735.551" y1="118.732" x2="781.135" y2="118.731"/>
		<polygon points="778.327,122.434 779.899,118.731 778.327,115.027 787.104,118.731 		"/>
	</g>
</g>
<g>
	<g>
		<polyline fill="none" stroke="#000000" points="689.052,160.238 689.052,263.571 287.052,263.571 287.052,225.571 		"/>
		<polygon points="290.755,228.379 287.052,226.806 283.348,228.379 287.052,219.601 		"/>
	</g>
</g>
<g>
	<path d="M469.28,248.044l1.33,3.795c0.224,0.629,0.406,1.189,0.546,1.75h0.042c0.154-0.561,0.35-1.121,0.574-1.75l1.316-3.795
		h1.287l-2.66,6.776h-1.176l-2.576-6.776H469.28z"/>
	<path d="M476.125,246.798c-0.462,0-0.77-0.363-0.77-0.797c0-0.435,0.322-0.785,0.798-0.785s0.784,0.351,0.784,0.785
		c0,0.434-0.309,0.797-0.799,0.797H476.125z M475.538,254.821v-6.776h1.232v6.776H475.538z"/>
	<path d="M478.828,250.159c0-0.798-0.015-1.483-0.056-2.114h1.078l0.055,1.33h0.043c0.308-0.91,1.064-1.484,1.89-1.484
		c0.126,0,0.224,0.015,0.336,0.043v1.148c-0.14-0.015-0.266-0.029-0.435-0.029c-0.867,0-1.483,0.658-1.651,1.568
		c-0.028,0.182-0.042,0.379-0.042,0.588v3.612h-1.232L478.828,250.159z"/>
	<path d="M489.034,252.972c0,0.701,0.014,1.316,0.057,1.849h-1.093l-0.069-1.106H487.9c-0.308,0.547-1.036,1.26-2.24,1.26
		c-1.063,0-2.338-0.602-2.338-2.967v-3.963h1.231v3.738c0,1.288,0.406,2.17,1.513,2.17c0.825,0,1.399-0.574,1.624-1.134
		c0.07-0.168,0.111-0.392,0.111-0.63v-4.145h1.232V252.972z"/>
	<path d="M490.91,253.575c0.378,0.224,1.022,0.476,1.638,0.476c0.883,0,1.303-0.434,1.303-1.008c0-0.588-0.351-0.91-1.246-1.246
		c-1.232-0.447-1.807-1.105-1.807-1.918c0-1.092,0.896-1.988,2.338-1.988c0.687,0,1.289,0.183,1.652,0.421l-0.294,0.882
		c-0.267-0.154-0.756-0.393-1.386-0.393c-0.729,0-1.12,0.42-1.12,0.924c0,0.574,0.392,0.826,1.274,1.162
		c1.162,0.435,1.777,1.022,1.777,2.045c0,1.203-0.938,2.043-2.52,2.043c-0.742,0-1.428-0.195-1.904-0.475L490.91,253.575z"/>
	<path d="M499.589,250.257c0-0.869-0.015-1.568-0.056-2.213h1.105l0.07,1.162h0.027c0.49-0.84,1.303-1.316,2.395-1.316
		c1.652,0,2.884,1.387,2.884,3.445c0,2.436-1.497,3.639-3.079,3.639c-0.91,0-1.681-0.391-2.087-1.063h-0.028v3.683h-1.231V250.257z
		 M500.821,252.063c0,0.168,0.015,0.35,0.057,0.504c0.21,0.854,0.966,1.442,1.834,1.442c1.302,0,2.059-1.064,2.059-2.619
		c0-1.357-0.701-2.52-2.002-2.52c-0.841,0-1.639,0.588-1.877,1.512c-0.027,0.168-0.07,0.351-0.07,0.504V252.063z"/>
	<path d="M507.569,250.159c0-0.798-0.014-1.483-0.056-2.114h1.078l0.056,1.33h0.042c0.308-0.91,1.064-1.484,1.89-1.484
		c0.127,0,0.225,0.015,0.336,0.043v1.148c-0.139-0.015-0.266-0.029-0.434-0.029c-0.867,0-1.484,0.658-1.652,1.568
		c-0.027,0.182-0.041,0.379-0.041,0.588v3.612h-1.232L507.569,250.159z"/>
	<path d="M514.807,254.974c-1.82,0-3.248-1.344-3.248-3.485c0-2.269,1.498-3.599,3.36-3.599c1.946,0,3.262,1.414,3.262,3.473
		c0,2.52-1.75,3.611-3.36,3.611H514.807z M514.849,254.05c1.177,0,2.058-1.105,2.058-2.646c0-1.147-0.573-2.59-2.029-2.59
		c-1.441,0-2.072,1.344-2.072,2.632c0,1.484,0.84,2.604,2.03,2.604H514.849z"/>
	<path d="M525.601,244.88v8.19c0,0.603,0.015,1.288,0.056,1.75h-1.105l-0.057-1.176h-0.027c-0.379,0.756-1.19,1.329-2.297,1.329
		c-1.637,0-2.911-1.385-2.911-3.443c-0.015-2.268,1.399-3.641,3.038-3.641c1.05,0,1.75,0.49,2.043,1.022h0.029v-4.032H525.601z
		 M524.37,250.802c0-0.168-0.015-0.363-0.057-0.531c-0.182-0.77-0.854-1.414-1.777-1.414c-1.274,0-2.031,1.12-2.031,2.604
		c0,1.387,0.687,2.521,2.002,2.521c0.826,0,1.582-0.56,1.807-1.47c0.042-0.168,0.057-0.336,0.057-0.532V250.802z"/>
	<path d="M533.315,252.972c0,0.701,0.014,1.316,0.057,1.849h-1.093l-0.069-1.106h-0.028c-0.308,0.547-1.036,1.26-2.24,1.26
		c-1.063,0-2.338-0.602-2.338-2.967v-3.963h1.231v3.738c0,1.288,0.406,2.17,1.513,2.17c0.825,0,1.399-0.574,1.624-1.134
		c0.07-0.168,0.111-0.392,0.111-0.63v-4.145h1.232V252.972z"/>
	<path d="M540.189,254.583c-0.322,0.153-1.036,0.391-1.946,0.391c-2.044,0-3.373-1.385-3.373-3.471s1.428-3.613,3.639-3.613
		c0.729,0,1.373,0.183,1.709,0.365l-0.28,0.938c-0.294-0.154-0.757-0.322-1.429-0.322c-1.553,0-2.394,1.162-2.394,2.576
		c0,1.568,1.009,2.534,2.353,2.534c0.699,0,1.162-0.168,1.512-0.322L540.189,254.583z"/>
	<path d="M543.296,246.421v1.623h1.765v0.938h-1.765v3.653c0,0.841,0.238,1.316,0.925,1.316c0.336,0,0.531-0.027,0.713-0.084
		l0.057,0.938c-0.238,0.084-0.616,0.168-1.092,0.168c-0.574,0-1.037-0.195-1.33-0.518c-0.336-0.378-0.477-0.979-0.477-1.777v-3.696
		h-1.05v-0.938h1.05v-1.246L543.296,246.421z"/>
	<path d="M547.034,246.798c-0.461,0-0.77-0.363-0.77-0.797c0-0.435,0.322-0.785,0.799-0.785c0.475,0,0.783,0.351,0.783,0.785
		c0,0.434-0.309,0.797-0.798,0.797H547.034z M546.446,254.821v-6.776h1.232v6.776H546.446z"/>
	<path d="M552.481,254.974c-1.82,0-3.248-1.344-3.248-3.485c0-2.269,1.498-3.599,3.359-3.599c1.946,0,3.262,1.414,3.262,3.473
		c0,2.52-1.75,3.611-3.359,3.611H552.481z M552.522,254.05c1.177,0,2.059-1.105,2.059-2.646c0-1.147-0.574-2.59-2.029-2.59
		c-1.442,0-2.072,1.344-2.072,2.632c0,1.484,0.84,2.604,2.029,2.604H552.522z"/>
	<path d="M557.409,249.878c0-0.713-0.015-1.273-0.057-1.834h1.092l0.07,1.106h0.027c0.337-0.63,1.121-1.261,2.24-1.261
		c0.938,0,2.395,0.561,2.395,2.885v4.046h-1.232v-3.905c0-1.093-0.406-2.017-1.568-2.017c-0.797,0-1.428,0.573-1.651,1.26
		c-0.056,0.154-0.084,0.378-0.084,0.574v4.088h-1.231V249.878z"/>
</g>
<g>
	<path d="M52.393,109.666c-0.322,0.154-1.036,0.392-1.946,0.392c-2.044,0-3.374-1.386-3.374-3.472s1.428-3.612,3.64-3.612
		c0.728,0,1.372,0.182,1.708,0.364l-0.28,0.938c-0.294-0.154-0.756-0.322-1.428-0.322c-1.554,0-2.394,1.162-2.394,2.576
		c0,1.568,1.008,2.534,2.352,2.534c0.7,0,1.162-0.168,1.512-0.322L52.393,109.666z"/>
	<path d="M54.451,106.726c0.028,1.666,1.078,2.352,2.31,2.352c0.882,0,1.428-0.154,1.876-0.336l0.224,0.868
		c-0.434,0.196-1.19,0.434-2.268,0.434c-2.072,0-3.332-1.386-3.332-3.416c0-2.058,1.218-3.668,3.192-3.668
		c2.212,0,2.786,1.946,2.786,3.192c0,0.252-0.014,0.448-0.042,0.588L54.451,106.726z M58.049,105.844
		c0.014-0.77-0.322-2.002-1.694-2.002c-1.26,0-1.792,1.148-1.89,2.002H58.049z"/>
	<path d="M60.765,99.964h1.232v9.94h-1.232V99.964z"/>
	<path d="M64.041,99.964h1.232v9.94h-1.232V99.964z"/>
	<path d="M70.116,108.658c0.378,0.224,1.022,0.476,1.638,0.476c0.882,0,1.302-0.434,1.302-1.008c0-0.588-0.35-0.91-1.246-1.246
		c-1.232-0.448-1.806-1.106-1.806-1.918c0-1.092,0.896-1.988,2.338-1.988c0.686,0,1.288,0.182,1.652,0.42l-0.294,0.882
		c-0.266-0.154-0.756-0.392-1.386-0.392c-0.728,0-1.12,0.42-1.12,0.924c0,0.574,0.392,0.826,1.274,1.162
		c1.162,0.434,1.778,1.022,1.778,2.044c0,1.204-0.938,2.044-2.52,2.044c-0.742,0-1.428-0.196-1.904-0.476L70.116,108.658z"/>
	<path d="M76.276,103.128l1.47,4.004c0.168,0.448,0.336,0.98,0.448,1.386h0.028c0.126-0.406,0.266-0.924,0.434-1.414L80,103.128
		h1.302l-1.848,4.83c-0.882,2.324-1.484,3.514-2.324,4.256c-0.616,0.518-1.204,0.728-1.512,0.784l-0.308-1.036
		c0.308-0.084,0.714-0.28,1.078-0.602c0.336-0.266,0.742-0.742,1.036-1.372c0.056-0.126,0.098-0.21,0.098-0.294
		c0-0.07-0.028-0.168-0.098-0.308l-2.492-6.258H76.276z"/>
	<path d="M82.422,104.962c0-0.714-0.014-1.274-0.056-1.834h1.092l0.07,1.106h0.028c0.336-0.63,1.12-1.26,2.24-1.26
		c0.938,0,2.394,0.56,2.394,2.884v4.046h-1.232v-3.906c0-1.092-0.406-2.016-1.568-2.016c-0.798,0-1.428,0.574-1.652,1.26
		c-0.056,0.154-0.084,0.378-0.084,0.574v4.088h-1.232V104.962z"/>
	<path d="M91.62,101.504v1.624h1.764v0.938H91.62v3.654c0,0.84,0.238,1.316,0.924,1.316c0.336,0,0.532-0.028,0.714-0.084
		l0.056,0.938c-0.238,0.084-0.616,0.168-1.092,0.168c-0.574,0-1.036-0.196-1.33-0.518c-0.336-0.378-0.476-0.98-0.476-1.778v-3.696
		h-1.05v-0.938h1.05v-1.246L91.62,101.504z"/>
	<path d="M94.77,99.964h1.232v4.228h0.028c0.196-0.35,0.504-0.672,0.882-0.868c0.364-0.224,0.798-0.35,1.26-0.35
		c0.91,0,2.366,0.56,2.366,2.898v4.032h-1.232v-3.892c0-1.106-0.406-2.016-1.568-2.016c-0.798,0-1.414,0.56-1.652,1.232
		c-0.07,0.168-0.084,0.35-0.084,0.588v4.088H94.77V99.964z"/>
	<path d="M103.24,106.726c0.028,1.666,1.078,2.352,2.31,2.352c0.882,0,1.428-0.154,1.876-0.336l0.224,0.868
		c-0.434,0.196-1.19,0.434-2.268,0.434c-2.072,0-3.332-1.386-3.332-3.416c0-2.058,1.218-3.668,3.192-3.668
		c2.212,0,2.786,1.946,2.786,3.192c0,0.252-0.014,0.448-0.042,0.588L103.24,106.726z M106.837,105.844
		c0.014-0.77-0.322-2.002-1.694-2.002c-1.26,0-1.792,1.148-1.89,2.002H106.837z"/>
	<path d="M109.385,108.658c0.378,0.224,1.022,0.476,1.638,0.476c0.882,0,1.302-0.434,1.302-1.008c0-0.588-0.35-0.91-1.246-1.246
		c-1.232-0.448-1.806-1.106-1.806-1.918c0-1.092,0.896-1.988,2.338-1.988c0.686,0,1.288,0.182,1.652,0.42l-0.294,0.882
		c-0.266-0.154-0.756-0.392-1.386-0.392c-0.728,0-1.12,0.42-1.12,0.924c0,0.574,0.392,0.826,1.274,1.162
		c1.162,0.434,1.778,1.022,1.778,2.044c0,1.204-0.938,2.044-2.52,2.044c-0.742,0-1.428-0.196-1.904-0.476L109.385,108.658z"/>
	<path d="M115.685,101.882c-0.462,0-0.77-0.364-0.77-0.798s0.322-0.784,0.798-0.784c0.476,0,0.784,0.35,0.784,0.784
		s-0.308,0.798-0.798,0.798H115.685z M115.097,109.904v-6.776h1.232v6.776H115.097z"/>
	<path d="M118.205,108.658c0.378,0.224,1.022,0.476,1.638,0.476c0.882,0,1.302-0.434,1.302-1.008c0-0.588-0.35-0.91-1.246-1.246
		c-1.232-0.448-1.806-1.106-1.806-1.918c0-1.092,0.896-1.988,2.338-1.988c0.686,0,1.288,0.182,1.652,0.42l-0.294,0.882
		c-0.266-0.154-0.756-0.392-1.386-0.392c-0.728,0-1.12,0.42-1.12,0.924c0,0.574,0.392,0.826,1.274,1.162
		c1.162,0.434,1.778,1.022,1.778,2.044c0,1.204-0.938,2.044-2.52,2.044c-0.742,0-1.428-0.196-1.904-0.476L118.205,108.658z"/>
</g>
<g>
	<path d="M215.569,101.128l1.33,3.794c0.224,0.63,0.406,1.19,0.546,1.75h0.042c0.154-0.56,0.35-1.12,0.574-1.75l1.316-3.794h1.288
		l-2.66,6.776h-1.176l-2.576-6.776H215.569z"/>
	<path d="M222.415,99.882c-0.462,0-0.77-0.364-0.77-0.798s0.322-0.784,0.798-0.784c0.476,0,0.784,0.35,0.784,0.784
		s-0.308,0.798-0.798,0.798H222.415z M221.827,107.904v-6.776h1.232v6.776H221.827z"/>
	<path d="M225.117,103.242c0-0.798-0.014-1.484-0.056-2.114h1.078l0.056,1.33h0.042c0.308-0.91,1.064-1.484,1.89-1.484
		c0.126,0,0.224,0.014,0.336,0.042v1.148c-0.14-0.014-0.266-0.028-0.434-0.028c-0.868,0-1.484,0.658-1.652,1.568
		c-0.028,0.182-0.042,0.378-0.042,0.588v3.612h-1.232L225.117,103.242z"/>
	<path d="M234.371,106.28c0,0.588,0.028,1.162,0.098,1.624h-1.106l-0.112-0.854h-0.042c-0.364,0.532-1.106,1.008-2.072,1.008
		c-1.372,0-2.072-0.966-2.072-1.946c0-1.638,1.456-2.534,4.074-2.52v-0.14c0-0.56-0.154-1.582-1.54-1.568
		c-0.644,0-1.302,0.182-1.778,0.504l-0.28-0.826c0.56-0.35,1.386-0.588,2.24-0.588c2.086,0,2.59,1.414,2.59,2.772V106.28z
		 M233.167,104.446c-1.344-0.028-2.87,0.21-2.87,1.526c0,0.812,0.532,1.176,1.148,1.176c0.896,0,1.47-0.56,1.666-1.134
		c0.042-0.126,0.056-0.266,0.056-0.392V104.446z"/>
	<path d="M236.345,97.964h1.232v9.94h-1.232V97.964z"/>
	<path d="M243.177,99.882c-0.462,0-0.77-0.364-0.77-0.798s0.322-0.784,0.798-0.784c0.476,0,0.784,0.35,0.784,0.784
		s-0.308,0.798-0.798,0.798H243.177z M242.589,107.904v-6.776h1.232v6.776H242.589z"/>
	<path d="M245.865,102.962c0-0.714-0.014-1.274-0.056-1.834h1.092l0.07,1.106h0.028c0.336-0.63,1.12-1.26,2.24-1.26
		c0.938,0,2.394,0.56,2.394,2.884v4.046h-1.232v-3.906c0-1.092-0.406-2.016-1.568-2.016c-0.798,0-1.428,0.574-1.652,1.26
		c-0.056,0.154-0.084,0.378-0.084,0.574v4.088h-1.232V102.962z"/>
	<path d="M253.747,107.904v-5.838h-0.938v-0.938h0.938v-0.322c0-0.952,0.224-1.82,0.798-2.366c0.462-0.448,1.078-0.63,1.638-0.63
		c0.448,0,0.812,0.098,1.05,0.196l-0.154,0.952c-0.196-0.084-0.434-0.154-0.798-0.154c-1.036,0-1.316,0.924-1.316,1.96v0.364h1.638
		v0.938h-1.624v5.838H253.747z"/>
	<path d="M258.255,104.726c0.028,1.666,1.078,2.352,2.31,2.352c0.882,0,1.428-0.154,1.876-0.336l0.224,0.868
		c-0.434,0.196-1.19,0.434-2.268,0.434c-2.072,0-3.332-1.386-3.332-3.416c0-2.058,1.218-3.668,3.192-3.668
		c2.212,0,2.786,1.946,2.786,3.192c0,0.252-0.014,0.448-0.042,0.588L258.255,104.726z M261.853,103.844
		c0.014-0.77-0.322-2.002-1.694-2.002c-1.26,0-1.792,1.148-1.89,2.002H261.853z"/>
	<path d="M269.398,107.666c-0.322,0.154-1.036,0.392-1.946,0.392c-2.044,0-3.374-1.386-3.374-3.472s1.428-3.612,3.64-3.612
		c0.728,0,1.372,0.182,1.708,0.364l-0.28,0.938c-0.294-0.154-0.756-0.322-1.428-0.322c-1.554,0-2.394,1.162-2.394,2.576
		c0,1.568,1.008,2.534,2.352,2.534c0.7,0,1.162-0.168,1.512-0.322L269.398,107.666z"/>
	<path d="M272.506,99.504v1.624h1.764v0.938h-1.764v3.654c0,0.84,0.238,1.316,0.924,1.316c0.336,0,0.532-0.028,0.714-0.084
		l0.056,0.938c-0.238,0.084-0.616,0.168-1.092,0.168c-0.574,0-1.036-0.196-1.33-0.518c-0.336-0.378-0.476-0.98-0.476-1.778v-3.696
		h-1.05v-0.938h1.05v-1.246L272.506,99.504z"/>
	<path d="M276.244,99.882c-0.462,0-0.77-0.364-0.77-0.798s0.322-0.784,0.798-0.784c0.476,0,0.784,0.35,0.784,0.784
		s-0.308,0.798-0.798,0.798H276.244z M275.656,107.904v-6.776h1.232v6.776H275.656z"/>
	<path d="M281.689,108.058c-1.82,0-3.248-1.344-3.248-3.486c0-2.268,1.498-3.598,3.36-3.598c1.946,0,3.262,1.414,3.262,3.472
		c0,2.52-1.75,3.612-3.36,3.612H281.689z M281.731,107.134c1.176,0,2.058-1.106,2.058-2.646c0-1.148-0.574-2.59-2.03-2.59
		c-1.442,0-2.072,1.344-2.072,2.632c0,1.484,0.84,2.604,2.03,2.604H281.731z"/>
	<path d="M286.618,102.962c0-0.714-0.014-1.274-0.056-1.834h1.092l0.07,1.106h0.028c0.336-0.63,1.12-1.26,2.24-1.26
		c0.938,0,2.394,0.56,2.394,2.884v4.046h-1.232v-3.906c0-1.092-0.406-2.016-1.568-2.016c-0.798,0-1.428,0.574-1.652,1.26
		c-0.056,0.154-0.084,0.378-0.084,0.574v4.088h-1.232V102.962z"/>
</g>
<g>
	<path d="M138.694,55.333c-0.322,0.154-1.036,0.392-1.946,0.392c-2.044,0-3.374-1.386-3.374-3.472s1.428-3.612,3.64-3.612
		c0.728,0,1.372,0.182,1.708,0.364l-0.28,0.938c-0.294-0.154-0.756-0.322-1.428-0.322c-1.554,0-2.394,1.162-2.394,2.576
		c0,1.568,1.008,2.534,2.352,2.534c0.7,0,1.162-0.168,1.512-0.322L138.694,55.333z"/>
	<path d="M140.752,52.392c0.028,1.666,1.078,2.352,2.31,2.352c0.882,0,1.428-0.154,1.876-0.336l0.224,0.868
		c-0.434,0.196-1.19,0.434-2.268,0.434c-2.072,0-3.332-1.386-3.332-3.416c0-2.058,1.218-3.668,3.192-3.668
		c2.212,0,2.786,1.946,2.786,3.192c0,0.252-0.014,0.448-0.042,0.588L140.752,52.392z M144.35,51.51
		c0.014-0.77-0.322-2.002-1.694-2.002c-1.26,0-1.792,1.148-1.89,2.002H144.35z"/>
	<path d="M147.065,45.63h1.232v9.94h-1.232V45.63z"/>
	<path d="M150.341,45.63h1.232v9.94h-1.232V45.63z"/>
	<path d="M120.102,67.708c0-0.798-0.014-1.484-0.056-2.114h1.078l0.056,1.33h0.042c0.308-0.91,1.064-1.484,1.89-1.484
		c0.126,0,0.224,0.014,0.336,0.042v1.148c-0.14-0.014-0.266-0.028-0.434-0.028c-0.868,0-1.484,0.658-1.652,1.568
		c-0.028,0.182-0.042,0.378-0.042,0.588v3.612h-1.232L120.102,67.708z"/>
	<path d="M125.282,69.192c0.028,1.666,1.078,2.352,2.31,2.352c0.882,0,1.428-0.154,1.876-0.336l0.224,0.868
		c-0.434,0.196-1.19,0.434-2.268,0.434c-2.072,0-3.332-1.386-3.332-3.416c0-2.058,1.218-3.668,3.192-3.668
		c2.212,0,2.786,1.946,2.786,3.192c0,0.252-0.014,0.448-0.042,0.588L125.282,69.192z M128.88,68.31
		c0.014-0.77-0.322-2.002-1.694-2.002c-1.26,0-1.792,1.148-1.89,2.002H128.88z"/>
	<path d="M131.596,67.428c0-0.714-0.028-1.274-0.056-1.834h1.078l0.056,1.092h0.042c0.378-0.644,1.008-1.246,2.142-1.246
		c0.91,0,1.61,0.56,1.904,1.358h0.028c0.21-0.392,0.49-0.672,0.77-0.882c0.406-0.308,0.84-0.476,1.484-0.476
		c0.91,0,2.24,0.588,2.24,2.94v3.99h-1.204v-3.836c0-1.316-0.49-2.086-1.47-2.086c-0.714,0-1.246,0.518-1.47,1.106
		c-0.056,0.182-0.098,0.406-0.098,0.616v4.2h-1.204v-4.06c0-1.092-0.476-1.862-1.414-1.862c-0.756,0-1.33,0.616-1.526,1.232
		c-0.07,0.182-0.098,0.392-0.098,0.602v4.088h-1.204V67.428z"/>
	<path d="M146.029,72.524c-1.82,0-3.248-1.344-3.248-3.486c0-2.268,1.498-3.598,3.36-3.598c1.946,0,3.262,1.414,3.262,3.472
		c0,2.52-1.75,3.612-3.36,3.612H146.029z M146.071,71.6c1.176,0,2.058-1.106,2.058-2.646c0-1.148-0.574-2.59-2.03-2.59
		c-1.442,0-2.072,1.344-2.072,2.632c0,1.484,0.84,2.604,2.03,2.604H146.071z"/>
	<path d="M151.308,65.594l1.33,3.794c0.224,0.63,0.406,1.19,0.546,1.75h0.042c0.154-0.56,0.35-1.12,0.574-1.75l1.316-3.794h1.288
		l-2.66,6.776h-1.176l-2.576-6.776H151.308z"/>
	<path d="M162.144,70.746c0,0.588,0.028,1.162,0.098,1.624h-1.106l-0.112-0.854h-0.042c-0.364,0.532-1.106,1.008-2.072,1.008
		c-1.372,0-2.072-0.966-2.072-1.946c0-1.638,1.456-2.534,4.074-2.52v-0.14c0-0.56-0.154-1.582-1.54-1.568
		c-0.644,0-1.302,0.182-1.778,0.504l-0.28-0.826c0.56-0.35,1.386-0.588,2.24-0.588c2.086,0,2.59,1.414,2.59,2.772V70.746z
		 M160.939,68.912c-1.344-0.028-2.87,0.21-2.87,1.526c0,0.812,0.532,1.176,1.148,1.176c0.896,0,1.47-0.56,1.666-1.134
		c0.042-0.126,0.056-0.266,0.056-0.392V68.912z"/>
	<path d="M164.118,62.43h1.232v9.94h-1.232V62.43z"/>
</g>
<g>
	<path d="M313.363,179.46l1.33,3.794c0.224,0.631,0.406,1.19,0.546,1.75h0.042c0.154-0.56,0.35-1.119,0.574-1.75l1.316-3.794h1.288
		l-2.66,6.776h-1.176l-2.576-6.776H313.363z"/>
	<path d="M320.209,178.214c-0.462,0-0.77-0.363-0.77-0.798c0-0.434,0.322-0.783,0.798-0.783c0.476,0,0.784,0.35,0.784,0.783
		c0,0.435-0.308,0.798-0.798,0.798H320.209z M319.621,186.237v-6.776h1.232v6.776H319.621z"/>
	<path d="M322.911,181.575c0-0.798-0.014-1.483-0.056-2.114h1.078l0.056,1.33h0.042c0.308-0.91,1.064-1.483,1.89-1.483
		c0.126,0,0.224,0.014,0.336,0.042v1.147c-0.14-0.014-0.266-0.027-0.434-0.027c-0.868,0-1.484,0.657-1.652,1.567
		c-0.028,0.183-0.042,0.378-0.042,0.588v3.612h-1.232L322.911,181.575z"/>
	<path d="M333.117,184.389c0,0.699,0.014,1.315,0.056,1.848h-1.092l-0.07-1.106h-0.028c-0.308,0.547-1.036,1.261-2.24,1.261
		c-1.064,0-2.338-0.603-2.338-2.969v-3.962h1.232v3.738c0,1.288,0.406,2.17,1.512,2.17c0.826,0,1.4-0.574,1.624-1.134
		c0.07-0.168,0.112-0.392,0.112-0.63v-4.145h1.232V184.389z"/>
	<path d="M339.935,184.613c0,0.588,0.028,1.162,0.098,1.624h-1.106l-0.112-0.854h-0.042c-0.364,0.532-1.106,1.009-2.072,1.009
		c-1.372,0-2.072-0.966-2.072-1.946c0-1.638,1.456-2.534,4.074-2.52v-0.141c0-0.56-0.154-1.582-1.54-1.567
		c-0.644,0-1.302,0.182-1.778,0.504l-0.28-0.826c0.56-0.351,1.386-0.588,2.24-0.588c2.086,0,2.59,1.414,2.59,2.771V184.613z
		 M338.731,182.779c-1.344-0.028-2.87,0.21-2.87,1.526c0,0.812,0.532,1.176,1.148,1.176c0.896,0,1.47-0.561,1.666-1.134
		c0.042-0.126,0.056-0.267,0.056-0.393V182.779z"/>
	<path d="M350.729,176.296v8.19c0,0.602,0.014,1.288,0.056,1.75h-1.106l-0.056-1.176h-0.028c-0.378,0.756-1.19,1.33-2.296,1.33
		c-1.638,0-2.912-1.387-2.912-3.444c-0.014-2.268,1.4-3.64,3.038-3.64c1.05,0,1.75,0.489,2.044,1.021h0.028v-4.032H350.729z
		 M349.497,182.219c0-0.168-0.014-0.364-0.056-0.532c-0.182-0.771-0.854-1.414-1.778-1.414c-1.274,0-2.03,1.12-2.03,2.604
		c0,1.387,0.686,2.521,2.002,2.521c0.826,0,1.582-0.561,1.806-1.47c0.042-0.168,0.056-0.336,0.056-0.532V182.219z"/>
	<path d="M353.473,183.059c0.028,1.666,1.078,2.352,2.31,2.352c0.882,0,1.428-0.154,1.876-0.336l0.224,0.868
		c-0.434,0.196-1.19,0.434-2.268,0.434c-2.072,0-3.332-1.386-3.332-3.416c0-2.058,1.218-3.668,3.192-3.668
		c2.212,0,2.786,1.946,2.786,3.192c0,0.252-0.014,0.448-0.042,0.588L353.473,183.059z M357.071,182.177
		c0.014-0.771-0.322-2.002-1.694-2.002c-1.26,0-1.792,1.147-1.89,2.002H357.071z"/>
	<path d="M364.617,185.999c-0.322,0.154-1.036,0.393-1.946,0.393c-2.044,0-3.374-1.387-3.374-3.473s1.428-3.611,3.64-3.611
		c0.728,0,1.372,0.182,1.708,0.363l-0.28,0.938c-0.294-0.154-0.756-0.322-1.428-0.322c-1.554,0-2.394,1.162-2.394,2.576
		c0,1.568,1.008,2.534,2.352,2.534c0.7,0,1.162-0.168,1.512-0.322L364.617,185.999z"/>
	<path d="M370.846,184.613c0,0.588,0.028,1.162,0.098,1.624h-1.106l-0.112-0.854h-0.042c-0.364,0.532-1.106,1.009-2.072,1.009
		c-1.372,0-2.072-0.966-2.072-1.946c0-1.638,1.456-2.534,4.074-2.52v-0.141c0-0.56-0.154-1.582-1.54-1.567
		c-0.644,0-1.302,0.182-1.778,0.504l-0.28-0.826c0.56-0.351,1.386-0.588,2.24-0.588c2.086,0,2.59,1.414,2.59,2.771V184.613z
		 M369.642,182.779c-1.344-0.028-2.87,0.21-2.87,1.526c0,0.812,0.532,1.176,1.148,1.176c0.896,0,1.47-0.561,1.666-1.134
		c0.042-0.126,0.056-0.267,0.056-0.393V182.779z"/>
	<path d="M373.115,179.46l1.47,4.004c0.168,0.448,0.336,0.98,0.448,1.387h0.028c0.126-0.406,0.266-0.924,0.434-1.414l1.344-3.977
		h1.302l-1.848,4.83c-0.882,2.324-1.484,3.515-2.324,4.256c-0.616,0.519-1.204,0.729-1.512,0.784l-0.308-1.036
		c0.308-0.084,0.714-0.279,1.078-0.602c0.336-0.266,0.742-0.742,1.036-1.372c0.056-0.126,0.098-0.21,0.098-0.294
		c0-0.07-0.028-0.168-0.098-0.308l-2.492-6.259H373.115z"/>
</g>
<rect x="794.385" y="89.904" fill="#B2B2B2" width="16.667" height="60"/>
<rect x="143.719" y="14.57" fill="#B2B2B2" width="60" height="16.667"/>
<rect x="17.385" y="87.404" fill="#B2B2B2" width="16.667" height="60"/>
<rect x="392.885" y="166.404" fill="#B2B2B2" width="16.667" height="60"/>
</svg>
