<?xml version="1.0" encoding="utf-8"?>
<!-- Generator: Adobe Illustrator 14.0.0, SVG Export Plug-In . SVG Version: 6.00 Build 43363)  -->
<!DOCTYPE svg PUBLIC "-//W3C//DTD SVG 1.1//EN" "http://www.w3.org/Graphics/SVG/1.1/DTD/svg11.dtd">
<svg version="1.1" id="Layer_1" xmlns="http://www.w3.org/2000/svg" xmlns:xlink="http://www.w3.org/1999/xlink" x="0px" y="0px"
	 width="351.956px" height="286px" viewBox="0 0 351.956 286" enable-background="new 0 0 351.956 286" xml:space="preserve">
<image overflow="visible" width="352" height="270" xlink:href="deyoung_1992.png"  transform="matrix(0.9999 0 0 0.9999 0 8.4453)">
</image>
<g id="S110">
	
		<radialGradient id="S110_path1_2_" cx="98.4126" cy="-549.0532" r="17.3579" gradientTransform="matrix(1.5933 0 0 0.6358 -27.5178 376.3425)" gradientUnits="userSpaceOnUse">
		<stop  offset="0" style="stop-color:#C1D965"/>
		<stop  offset="0.4082" style="stop-color:#C1D965"/>
		<stop  offset="0.5552" style="stop-color:#BCD766"/>
		<stop  offset="0.66" style="stop-color:#B8D665"/>
		<stop  offset="0.7448" style="stop-color:#B0D365"/>
		<stop  offset="0.8174" style="stop-color:#A8D065"/>
		<stop  offset="0.8817" style="stop-color:#9CCC66"/>
		<stop  offset="0.9398" style="stop-color:#91C964"/>
		<stop  offset="0.9915" style="stop-color:#88C662"/>
		<stop  offset="1" style="stop-color:#86C563"/>
	</radialGradient>
	<path id="S110_path1" fill="url(#S110_path1_2_)" stroke="#000000" stroke-width="1.0724" d="M156.43,27.253
		c0,6.205-12.159,11.236-27.149,11.236c-14.993,0-27.147-5.029-27.147-11.236c0-6.208,12.154-11.234,27.147-11.234
		C144.271,16.02,156.43,21.047,156.43,27.253z"/>
	<text transform="matrix(1 0 0 1 117.0898 30.7764)" font-family="'MyriadPro-Regular'" font-size="12">S110</text>
</g>
<g id="S111">
	
		<radialGradient id="S111_path1_1_" cx="215.4653" cy="-549.0532" r="17.3579" gradientTransform="matrix(1.5933 0 0 0.6358 -27.5178 376.3425)" gradientUnits="userSpaceOnUse">
		<stop  offset="0" style="stop-color:#C1D965"/>
		<stop  offset="0.4082" style="stop-color:#C1D965"/>
		<stop  offset="0.5552" style="stop-color:#BCD766"/>
		<stop  offset="0.66" style="stop-color:#B8D665"/>
		<stop  offset="0.7448" style="stop-color:#B0D365"/>
		<stop  offset="0.8174" style="stop-color:#A8D065"/>
		<stop  offset="0.8817" style="stop-color:#9CCC66"/>
		<stop  offset="0.9398" style="stop-color:#91C964"/>
		<stop  offset="0.9915" style="stop-color:#88C662"/>
		<stop  offset="1" style="stop-color:#86C563"/>
	</radialGradient>
	<path id="S111_path1" fill="url(#S111_path1_1_)" stroke="#000000" stroke-width="1.0724" d="M342.93,27.253
		c0,6.205-12.159,11.236-27.149,11.236c-14.993,0-27.147-5.029-27.147-11.236c0-6.208,12.154-11.234,27.147-11.234
		C330.771,16.02,342.93,21.047,342.93,27.253z"/>
	<text transform="matrix(1 0 0 1 303.5894 30.7764)" font-family="'MyriadPro-Regular'" font-size="12">S111</text>
</g>
<g id="S100">
	
		<radialGradient id="S100_path1_1_" cx="38.7876" cy="-416.1025" r="17.3581" gradientTransform="matrix(1.5933 0 0 0.6358 -27.5178 376.3425)" gradientUnits="userSpaceOnUse">
		<stop  offset="0" style="stop-color:#C1D965"/>
		<stop  offset="0.4082" style="stop-color:#C1D965"/>
		<stop  offset="0.5552" style="stop-color:#BCD766"/>
		<stop  offset="0.66" style="stop-color:#B8D665"/>
		<stop  offset="0.7448" style="stop-color:#B0D365"/>
		<stop  offset="0.8174" style="stop-color:#A8D065"/>
		<stop  offset="0.8817" style="stop-color:#9CCC66"/>
		<stop  offset="0.9398" style="stop-color:#91C964"/>
		<stop  offset="0.9915" style="stop-color:#88C662"/>
		<stop  offset="1" style="stop-color:#86C563"/>
	</radialGradient>
	<path id="S100_path1" fill="url(#S100_path1_1_)" stroke="#000000" stroke-width="1.0724" d="M61.43,111.783
		c0,6.205-12.159,11.236-27.149,11.236c-14.993,0-27.147-5.029-27.147-11.236s12.154-11.234,27.147-11.234
		C49.271,100.55,61.43,105.577,61.43,111.783z"/>
	<text transform="matrix(1 0 0 1 22.0898 115.3062)" font-family="'MyriadPro-Regular'" font-size="12">S100</text>
</g>
<g id="S110_1_">
	
		<radialGradient id="S110_path1_3_" cx="159.479" cy="-416.1025" r="17.3581" gradientTransform="matrix(1.5933 0 0 0.6358 -27.5178 376.3425)" gradientUnits="userSpaceOnUse">
		<stop  offset="0" style="stop-color:#C1D965"/>
		<stop  offset="0.4082" style="stop-color:#C1D965"/>
		<stop  offset="0.5552" style="stop-color:#BCD766"/>
		<stop  offset="0.66" style="stop-color:#B8D665"/>
		<stop  offset="0.7448" style="stop-color:#B0D365"/>
		<stop  offset="0.8174" style="stop-color:#A8D065"/>
		<stop  offset="0.8817" style="stop-color:#9CCC66"/>
		<stop  offset="0.9398" style="stop-color:#91C964"/>
		<stop  offset="0.9915" style="stop-color:#88C662"/>
		<stop  offset="1" style="stop-color:#86C563"/>
	</radialGradient>
	<path id="S110_path1_1_" fill="url(#S110_path1_3_)" stroke="#000000" stroke-width="1.0724" d="M253.727,111.783
		c0,6.205-12.159,11.236-27.149,11.236c-14.993,0-27.147-5.029-27.147-11.236s12.154-11.234,27.147-11.234
		C241.568,100.55,253.727,105.577,253.727,111.783z"/>
	<text transform="matrix(1 0 0 1 214.3872 115.3066)" font-family="'MyriadPro-Regular'" font-size="12">S101</text>
</g>
<g id="S010">
	
		<radialGradient id="S010_path1_1_" cx="98.4126" cy="-314.0391" r="17.3576" gradientTransform="matrix(1.5933 0 0 0.6358 -27.5178 376.3425)" gradientUnits="userSpaceOnUse">
		<stop  offset="0" style="stop-color:#C1D965"/>
		<stop  offset="0.4082" style="stop-color:#C1D965"/>
		<stop  offset="0.5552" style="stop-color:#BCD766"/>
		<stop  offset="0.66" style="stop-color:#B8D665"/>
		<stop  offset="0.7448" style="stop-color:#B0D365"/>
		<stop  offset="0.8174" style="stop-color:#A8D065"/>
		<stop  offset="0.8817" style="stop-color:#9CCC66"/>
		<stop  offset="0.9398" style="stop-color:#91C964"/>
		<stop  offset="0.9915" style="stop-color:#88C662"/>
		<stop  offset="1" style="stop-color:#86C563"/>
	</radialGradient>
	<path id="S010_path1" fill="url(#S010_path1_1_)" stroke="#000000" stroke-width="1.0724" d="M156.43,176.676
		c0,6.204-12.159,11.235-27.149,11.235c-14.993,0-27.147-5.028-27.147-11.235c0-6.208,12.154-11.234,27.147-11.234
		C144.271,165.441,156.43,170.469,156.43,176.676z"/>
	<text transform="matrix(1 0 0 1 117.0898 180.1982)" font-family="'MyriadPro-Regular'" font-size="12">S010</text>
</g>
<g id="S011">
	
		<radialGradient id="S011_path1_1_" cx="215.4653" cy="-315.3662" r="17.3576" gradientTransform="matrix(1.5933 0 0 0.6358 -27.5178 376.3425)" gradientUnits="userSpaceOnUse">
		<stop  offset="0" style="stop-color:#C1D965"/>
		<stop  offset="0.4082" style="stop-color:#C1D965"/>
		<stop  offset="0.5552" style="stop-color:#BCD766"/>
		<stop  offset="0.66" style="stop-color:#B8D665"/>
		<stop  offset="0.7448" style="stop-color:#B0D365"/>
		<stop  offset="0.8174" style="stop-color:#A8D065"/>
		<stop  offset="0.8817" style="stop-color:#9CCC66"/>
		<stop  offset="0.9398" style="stop-color:#91C964"/>
		<stop  offset="0.9915" style="stop-color:#88C662"/>
		<stop  offset="1" style="stop-color:#86C563"/>
	</radialGradient>
	<path id="S011_path1" fill="url(#S011_path1_1_)" stroke="#000000" stroke-width="1.0724" d="M342.93,175.832
		c0,6.204-12.159,11.235-27.149,11.235c-14.993,0-27.147-5.028-27.147-11.235c0-6.208,12.154-11.234,27.147-11.234
		C330.771,164.598,342.93,169.625,342.93,175.832z"/>
	<text transform="matrix(1 0 0 1 303.5894 179.3545)" font-family="'MyriadPro-Regular'" font-size="12">S011</text>
</g>
<g id="S001">
	
		<radialGradient id="S001_path1_1_" cx="159.479" cy="-185.3804" r="17.3579" gradientTransform="matrix(1.5933 0 0 0.6358 -27.5178 376.3425)" gradientUnits="userSpaceOnUse">
		<stop  offset="0" style="stop-color:#C1D965"/>
		<stop  offset="0.4082" style="stop-color:#C1D965"/>
		<stop  offset="0.5552" style="stop-color:#BCD766"/>
		<stop  offset="0.66" style="stop-color:#B8D665"/>
		<stop  offset="0.7448" style="stop-color:#B0D365"/>
		<stop  offset="0.8174" style="stop-color:#A8D065"/>
		<stop  offset="0.8817" style="stop-color:#9CCC66"/>
		<stop  offset="0.9398" style="stop-color:#91C964"/>
		<stop  offset="0.9915" style="stop-color:#88C662"/>
		<stop  offset="1" style="stop-color:#86C563"/>
	</radialGradient>
	<path id="S001_path1" fill="url(#S001_path1_1_)" stroke="#000000" stroke-width="1.0724" d="M253.728,258.477
		c0,6.205-12.16,11.236-27.15,11.236c-14.992,0-27.146-5.029-27.146-11.236s12.154-11.234,27.146-11.234
		C241.568,247.244,253.728,252.271,253.728,258.477z"/>
	<text transform="matrix(1 0 0 1 214.3862 262)" font-family="'MyriadPro-Regular'" font-size="12">S001</text>
</g>
<g id="S000">
	
		<radialGradient id="S000_path1_1_" cx="38.7876" cy="-185.3804" r="17.3579" gradientTransform="matrix(1.5933 0 0 0.6358 -27.5178 376.3425)" gradientUnits="userSpaceOnUse">
		<stop  offset="0" style="stop-color:#C1D965"/>
		<stop  offset="0.4082" style="stop-color:#C1D965"/>
		<stop  offset="0.5552" style="stop-color:#BCD766"/>
		<stop  offset="0.66" style="stop-color:#B8D665"/>
		<stop  offset="0.7448" style="stop-color:#B0D365"/>
		<stop  offset="0.8174" style="stop-color:#A8D065"/>
		<stop  offset="0.8817" style="stop-color:#9CCC66"/>
		<stop  offset="0.9398" style="stop-color:#91C964"/>
		<stop  offset="0.9915" style="stop-color:#88C662"/>
		<stop  offset="1" style="stop-color:#86C563"/>
	</radialGradient>
	<path id="S000_path1" fill="url(#S000_path1_1_)" stroke="#000000" stroke-width="1.0724" d="M61.43,258.477
		c0,6.205-12.159,11.236-27.149,11.236c-14.993,0-27.147-5.029-27.147-11.236s12.154-11.234,27.147-11.234
		C49.271,247.244,61.43,252.271,61.43,258.477z"/>
	<text transform="matrix(1 0 0 1 22.0898 262)" font-family="'MyriadPro-Regular'" font-size="12">S000</text>
</g>
</svg>
