<?xml version="1.0" encoding="utf-8"?>
<!-- Generator: Adobe Illustrator 13.0.0, SVG Export Plug-In . SVG Version: 6.00 Build 14948)  -->
<!DOCTYPE svg PUBLIC "-//W3C//DTD SVG 1.1//EN" "http://www.w3.org/Graphics/SVG/1.1/DTD/svg11.dtd">
<svg version="1.1" id="Layer_1" xmlns="http://www.w3.org/2000/svg" xmlns:xlink="http://www.w3.org/1999/xlink" x="0px" y="0px"
	 width="420px" height="248px" viewBox="0 0 420 248" enable-background="new 0 0 420 248" xml:space="preserve">
<g>
	<g>
		<g id="g59398" transform="translate(21.16987,-31.23187)">
			<g id="g7045">
				<g id="g7047">
					<path id="path7049" fill="#C8DAF1" stroke="#588ECB" d="M231.912,211.302c0-1.818-1.475-3.292-3.292-3.292
						c-1.816,0-3.291,1.474-3.291,3.292c0,1.816,1.475,3.29,3.291,3.29C230.438,214.592,231.912,213.119,231.912,211.302z"/>
					<path id="path7051" fill="none" stroke="#588ECB" d="M228.62,208.01v-23.037"/>
				</g>
				<g id="g7053">
					<path id="path7055" fill="#C8DAF1" stroke="#588ECB" d="M224.365,211.302c0-1.818-1.474-3.292-3.291-3.292
						s-3.29,1.474-3.29,3.292c0,1.816,1.473,3.29,3.29,3.29S224.365,213.119,224.365,211.302z"/>
					<path id="path7057" fill="none" stroke="#588ECB" d="M221.074,208.01v-23.037"/>
				</g>
				<g id="g7059">
					<path id="path7061" fill="#C8DAF1" stroke="#588ECB" d="M216.819,211.302c0-1.818-1.474-3.292-3.292-3.292
						c-1.814,0-3.289,1.474-3.289,3.292c0,1.816,1.475,3.29,3.289,3.29C215.346,214.592,216.819,213.119,216.819,211.302z"/>
					<path id="path7063" fill="none" stroke="#588ECB" d="M213.527,208.01v-23.037"/>
				</g>
				<g id="g7065">
					<path id="path7067" fill="#C8DAF1" stroke="#588ECB" d="M254.555,211.302c0-1.818-1.475-3.292-3.294-3.292
						c-1.815,0-3.288,1.474-3.288,3.292c0,1.816,1.473,3.29,3.288,3.29C253.08,214.592,254.555,213.119,254.555,211.302z"/>
					<path id="path7069" fill="none" stroke="#588ECB" d="M251.261,208.01v-23.037"/>
				</g>
				<g id="g7071">
					<path id="path7073" fill="#C8DAF1" stroke="#588ECB" d="M247.004,211.302c0-1.818-1.473-3.292-3.289-3.292
						c-1.817,0-3.291,1.474-3.291,3.292c0,1.816,1.474,3.29,3.291,3.29C245.531,214.592,247.004,213.119,247.004,211.302z"/>
					<path id="path7075" fill="none" stroke="#588ECB" d="M243.715,208.01v-23.037"/>
				</g>
				<g id="g7077">
					<path id="path7079" fill="#C8DAF1" stroke="#588ECB" d="M239.459,211.302c0-1.818-1.474-3.292-3.291-3.292
						c-1.816,0-3.289,1.474-3.289,3.292c0,1.816,1.473,3.29,3.289,3.29C237.985,214.592,239.459,213.119,239.459,211.302z"/>
					<path id="path7081" fill="none" stroke="#588ECB" d="M236.168,208.01v-23.037"/>
				</g>
				<g id="g7083">
					<path id="path7085" fill="#C8DAF1" stroke="#588ECB" d="M235.686,179c0,1.815-1.475,3.29-3.29,3.29
						c-1.817,0-3.292-1.475-3.292-3.29c0-1.818,1.475-3.292,3.292-3.292C234.211,175.708,235.686,177.183,235.686,179z"/>
					<path id="path7087" fill="none" stroke="#588ECB" d="M232.396,182.29v23.04"/>
				</g>
				<g id="g7089">
					<path id="path7091" fill="#C8DAF1" stroke="#588ECB" d="M228.139,179c0,1.815-1.475,3.29-3.291,3.29
						c-1.817,0-3.291-1.475-3.291-3.29c0-1.818,1.474-3.292,3.291-3.292C226.664,175.708,228.139,177.183,228.139,179z"/>
					<path id="path7093" fill="none" stroke="#588ECB" d="M224.848,182.29v23.04"/>
				</g>
				<g id="g7095">
					<path id="path7097" fill="#C8DAF1" stroke="#588ECB" d="M220.591,179c0,1.815-1.474,3.29-3.289,3.29
						c-1.818,0-3.292-1.475-3.292-3.29c0-1.818,1.474-3.292,3.292-3.292C219.117,175.708,220.591,177.183,220.591,179z"/>
					<path id="path7099" fill="none" stroke="#588ECB" d="M217.302,182.29v23.04"/>
				</g>
				<g id="g7101">
					<path id="path7103" fill="#C8DAF1" stroke="#588ECB" d="M258.325,179c0,1.815-1.475,3.29-3.29,3.29
						c-1.816,0-3.291-1.475-3.291-3.29c0-1.818,1.475-3.292,3.291-3.292C256.851,175.708,258.325,177.183,258.325,179z"/>
					<path id="path7105" fill="none" stroke="#588ECB" d="M255.035,182.29v23.04"/>
				</g>
				<g id="g7107">
					<path id="path7109" fill="#C8DAF1" stroke="#588ECB" d="M250.779,179c0,1.815-1.473,3.29-3.291,3.29
						c-1.816,0-3.289-1.475-3.289-3.29c0-1.818,1.473-3.292,3.289-3.292C249.307,175.708,250.779,177.183,250.779,179z"/>
					<path id="path7111" fill="none" stroke="#588ECB" d="M247.488,182.29v23.04"/>
				</g>
				<g id="g7113">
					<path id="path7115" fill="#C8DAF1" stroke="#588ECB" d="M243.232,179c0,1.815-1.475,3.29-3.291,3.29
						c-1.817,0-3.291-1.475-3.291-3.29c0-1.818,1.474-3.292,3.291-3.292C241.758,175.708,243.232,177.183,243.232,179z"/>
					<path id="path7117" fill="none" stroke="#588ECB" d="M239.941,182.29v23.04"/>
				</g>
			</g>
			<g id="g7119">
				<g id="g7121">
					<path id="path7123" fill="#C8DAF1" stroke="#588ECB" d="M186.779,211.302c0-1.818-1.474-3.292-3.289-3.292
						c-1.818,0-3.292,1.474-3.292,3.292c0,1.816,1.473,3.29,3.292,3.29C185.306,214.592,186.779,213.119,186.779,211.302z"/>
					<path id="path7125" fill="none" stroke="#588ECB" d="M183.49,208.01v-23.037"/>
				</g>
				<g id="g7127">
					<path id="path7129" fill="#C8DAF1" stroke="#588ECB" d="M179.234,211.302c0-1.818-1.473-3.292-3.291-3.292
						c-1.816,0-3.291,1.474-3.291,3.292c0,1.816,1.475,3.29,3.291,3.29C177.759,214.592,179.234,213.119,179.234,211.302z"/>
					<path id="path7131" fill="none" stroke="#588ECB" d="M175.943,208.01v-23.037"/>
				</g>
				<g id="g7133">
					<path id="path7135" fill="#C8DAF1" stroke="#588ECB" d="M171.687,211.302c0-1.818-1.474-3.292-3.291-3.292
						c-1.818,0-3.292,1.474-3.292,3.292c0,1.816,1.474,3.29,3.292,3.29C170.212,214.592,171.687,213.119,171.687,211.302z"/>
					<path id="path7137" fill="none" stroke="#588ECB" d="M168.396,208.01v-23.037"/>
				</g>
				<g id="g7139">
					<path id="path7141" fill="#C8DAF1" stroke="#588ECB" d="M209.42,211.302c0-1.818-1.475-3.292-3.29-3.292
						c-1.817,0-3.292,1.474-3.292,3.292c0,1.816,1.475,3.29,3.292,3.29C207.945,214.592,209.42,213.119,209.42,211.302z"/>
					<path id="path7143" fill="none" stroke="#588ECB" d="M206.13,208.01v-23.037"/>
				</g>
				<g id="g7145">
					<path id="path7147" fill="#C8DAF1" stroke="#588ECB" d="M201.874,211.302c0-1.818-1.474-3.292-3.29-3.292
						c-1.818,0-3.291,1.474-3.291,3.292c0,1.816,1.473,3.29,3.291,3.29C200.4,214.592,201.874,213.119,201.874,211.302z"/>
					<path id="path7149" fill="none" stroke="#588ECB" d="M198.584,208.01v-23.037"/>
				</g>
				<g id="g7151">
					<path id="path7153" fill="#C8DAF1" stroke="#588ECB" d="M194.326,211.302c0-1.818-1.475-3.292-3.29-3.292
						c-1.817,0-3.292,1.474-3.292,3.292c0,1.816,1.475,3.29,3.292,3.29C192.852,214.592,194.326,213.119,194.326,211.302z"/>
					<path id="path7155" fill="none" stroke="#588ECB" d="M191.036,208.01v-23.037"/>
				</g>
				<g id="g7157">
					<path id="path7159" fill="#C8DAF1" stroke="#588ECB" d="M190.554,179c0,1.815-1.474,3.29-3.291,3.29
						c-1.816,0-3.29-1.475-3.29-3.29c0-1.818,1.474-3.292,3.29-3.292C189.08,175.708,190.554,177.183,190.554,179z"/>
					<path id="path7161" fill="none" stroke="#588ECB" d="M187.263,182.29v23.04"/>
				</g>
				<g id="g7163">
					<path id="path7165" fill="#C8DAF1" stroke="#588ECB" d="M183.006,179c0,1.815-1.474,3.29-3.292,3.29
						c-1.816,0-3.291-1.475-3.291-3.29c0-1.818,1.475-3.292,3.291-3.292C181.532,175.708,183.006,177.183,183.006,179z"/>
					<path id="path7167" fill="none" stroke="#588ECB" d="M179.715,182.29v23.04"/>
				</g>
				<g id="g7169">
					<path id="path7171" fill="#C8DAF1" stroke="#588ECB" d="M175.461,179c0,1.815-1.475,3.29-3.292,3.29
						c-1.817,0-3.289-1.475-3.289-3.29c0-1.818,1.472-3.292,3.289-3.292C173.985,175.708,175.461,177.183,175.461,179z"/>
					<path id="path7173" fill="none" stroke="#588ECB" d="M172.168,182.29v23.04"/>
				</g>
				<g id="g7175">
					<path id="path7177" fill="#C8DAF1" stroke="#588ECB" d="M213.193,179c0,1.815-1.473,3.29-3.291,3.29
						c-1.816,0-3.29-1.475-3.29-3.29c0-1.818,1.474-3.292,3.29-3.292C211.721,175.708,213.193,177.183,213.193,179z"/>
					<path id="path7179" fill="none" stroke="#588ECB" d="M209.904,182.29v23.04"/>
				</g>
				<g id="g7181">
					<path id="path7183" fill="#C8DAF1" stroke="#588ECB" d="M205.648,179c0,1.815-1.476,3.29-3.291,3.29
						c-1.816,0-3.291-1.475-3.291-3.29c0-1.818,1.475-3.292,3.291-3.292C204.173,175.708,205.648,177.183,205.648,179z"/>
					<path id="path7185" fill="none" stroke="#588ECB" d="M202.357,182.29v23.04"/>
				</g>
				<g id="g7187">
					<path id="path7189" fill="#C8DAF1" stroke="#588ECB" d="M198.102,179c0,1.815-1.475,3.29-3.291,3.29
						c-1.817,0-3.291-1.475-3.291-3.29c0-1.818,1.474-3.292,3.291-3.292C196.627,175.708,198.102,177.183,198.102,179z"/>
					<path id="path7191" fill="none" stroke="#588ECB" d="M194.811,182.29v23.04"/>
				</g>
			</g>
			<g id="g7193">
				<g id="g7195">
					<path id="path7197" fill="#C8DAF1" stroke="#588ECB" d="M141.649,211.302c0-1.818-1.476-3.292-3.292-3.292
						c-1.815,0-3.29,1.474-3.29,3.292c0,1.816,1.474,3.29,3.29,3.29C140.173,214.592,141.649,213.119,141.649,211.302z"/>
					<path id="path7199" fill="none" stroke="#588ECB" d="M138.357,208.01v-23.037"/>
				</g>
				<g id="g7201">
					<path id="path7203" fill="#C8DAF1" stroke="#588ECB" d="M134.102,211.302c0-1.818-1.473-3.292-3.291-3.292
						c-1.818,0-3.291,1.474-3.291,3.292c0,1.816,1.473,3.29,3.291,3.29C132.628,214.592,134.102,213.119,134.102,211.302z"/>
					<path id="path7205" fill="none" stroke="#588ECB" d="M130.811,208.01v-23.037"/>
				</g>
				<g id="g7207">
					<path id="path7209" fill="#C8DAF1" stroke="#588ECB" d="M126.554,211.302c0-1.818-1.474-3.292-3.291-3.292
						c-1.818,0-3.291,1.474-3.291,3.292c0,1.816,1.473,3.29,3.291,3.29C125.08,214.592,126.554,213.119,126.554,211.302z"/>
					<path id="path7211" fill="none" stroke="#588ECB" d="M123.264,208.01v-23.037"/>
				</g>
				<g id="g7213">
					<path id="path7215" fill="#C8DAF1" stroke="#588ECB" d="M164.29,211.302c0-1.818-1.474-3.292-3.29-3.292
						c-1.818,0-3.292,1.474-3.292,3.292c0,1.816,1.474,3.29,3.292,3.29C162.815,214.592,164.29,213.119,164.29,211.302z"/>
					<path id="path7217" fill="none" stroke="#588ECB" d="M161,208.01v-23.037"/>
				</g>
				<g id="g7219">
					<path id="path7221" fill="#C8DAF1" stroke="#588ECB" d="M156.742,211.302c0-1.818-1.474-3.292-3.29-3.292
						c-1.818,0-3.292,1.474-3.292,3.292c0,1.816,1.474,3.29,3.292,3.29C155.268,214.592,156.742,213.119,156.742,211.302z"/>
					<path id="path7223" fill="none" stroke="#588ECB" d="M153.452,208.01v-23.037"/>
				</g>
				<g id="g7225">
					<path id="path7227" fill="#C8DAF1" stroke="#588ECB" d="M149.195,211.302c0-1.818-1.476-3.292-3.29-3.292
						c-1.816,0-3.291,1.474-3.291,3.292c0,1.816,1.475,3.29,3.291,3.29C147.72,214.592,149.195,213.119,149.195,211.302z"/>
					<path id="path7229" fill="none" stroke="#588ECB" d="M145.905,208.01v-23.037"/>
				</g>
				<g id="g7231">
					<path id="path7233" fill="#C8DAF1" stroke="#588ECB" d="M145.42,179c0,1.815-1.474,3.29-3.289,3.29
						c-1.818,0-3.293-1.475-3.293-3.29c0-1.818,1.475-3.292,3.293-3.292C143.946,175.708,145.42,177.183,145.42,179z"/>
					<path id="path7235" fill="none" stroke="#588ECB" d="M142.131,182.29v23.04"/>
				</g>
				<g id="g7237">
					<path id="path7239" fill="#C8DAF1" stroke="#588ECB" d="M137.875,179c0,1.815-1.476,3.29-3.291,3.29
						c-1.817,0-3.291-1.475-3.291-3.29c0-1.818,1.473-3.292,3.291-3.292C136.399,175.708,137.875,177.183,137.875,179z"/>
					<path id="path7241" fill="none" stroke="#588ECB" d="M134.584,182.29v23.04"/>
				</g>
				<g id="g7243">
					<path id="path7245" fill="#C8DAF1" stroke="#588ECB" d="M130.329,179c0,1.815-1.473,3.29-3.292,3.29
						c-1.815,0-3.289-1.475-3.289-3.29c0-1.818,1.474-3.292,3.289-3.292C128.856,175.708,130.329,177.183,130.329,179z"/>
					<path id="path7247" fill="none" stroke="#588ECB" d="M127.037,182.29v23.04"/>
				</g>
				<g id="g7249">
					<path id="path7251" fill="#C8DAF1" stroke="#588ECB" d="M168.064,179c0,1.815-1.475,3.29-3.292,3.29
						c-1.816,0-3.29-1.475-3.29-3.29c0-1.818,1.474-3.292,3.29-3.292C166.589,175.708,168.064,177.183,168.064,179z"/>
					<path id="path7253" fill="none" stroke="#588ECB" d="M164.772,182.29v23.04"/>
				</g>
				<g id="g7255">
					<path id="path7257" fill="#C8DAF1" stroke="#588ECB" d="M160.517,179c0,1.815-1.474,3.29-3.292,3.29
						c-1.815,0-3.289-1.475-3.289-3.29c0-1.818,1.474-3.292,3.289-3.292C159.044,175.708,160.517,177.183,160.517,179z"/>
					<path id="path7259" fill="none" stroke="#588ECB" d="M157.225,182.29v23.04"/>
				</g>
				<g id="g7261">
					<path id="path7263" fill="#C8DAF1" stroke="#588ECB" d="M152.969,179c0,1.815-1.474,3.29-3.291,3.29
						c-1.817,0-3.291-1.475-3.291-3.29c0-1.818,1.474-3.292,3.291-3.292C151.495,175.708,152.969,177.183,152.969,179z"/>
					<path id="path7265" fill="none" stroke="#588ECB" d="M149.678,182.29v23.04"/>
				</g>
			</g>
			<g id="g7267">
				<g id="g7269">
					<path id="path7271" fill="#C8DAF1" stroke="#588ECB" d="M96.517,211.302c0-1.818-1.474-3.292-3.291-3.292
						c-1.816,0-3.29,1.474-3.29,3.292c0,1.816,1.473,3.29,3.29,3.29C95.043,214.592,96.517,213.119,96.517,211.302z"/>
					<path id="path7273" fill="none" stroke="#588ECB" d="M93.226,208.01v-23.037"/>
				</g>
				<g id="g7275">
					<path id="path7277" fill="#C8DAF1" stroke="#588ECB" d="M88.97,211.302c0-1.818-1.475-3.292-3.292-3.292
						c-1.817,0-3.291,1.474-3.291,3.292c0,1.816,1.473,3.29,3.291,3.29C87.495,214.592,88.97,213.119,88.97,211.302z"/>
					<path id="path7279" fill="none" stroke="#588ECB" d="M85.679,208.01v-23.037"/>
				</g>
				<g id="g7281">
					<path id="path7283" fill="#C8DAF1" stroke="#588ECB" d="M81.423,211.302c0-1.818-1.475-3.292-3.291-3.292
						c-1.817,0-3.291,1.474-3.291,3.292c0,1.816,1.474,3.29,3.291,3.29C79.948,214.592,81.423,213.119,81.423,211.302z"/>
					<path id="path7285" fill="none" stroke="#588ECB" d="M78.132,208.01v-23.037"/>
				</g>
				<g id="g7287">
					<path id="path7289" fill="#C8DAF1" stroke="#588ECB" d="M119.157,211.302c0-1.818-1.474-3.292-3.291-3.292
						c-1.816,0-3.29,1.474-3.29,3.292c0,1.816,1.473,3.29,3.29,3.29C117.684,214.592,119.157,213.119,119.157,211.302z"/>
					<path id="path7291" fill="none" stroke="#588ECB" d="M115.866,208.01v-23.037"/>
				</g>
				<g id="g7293">
					<path id="path7295" fill="#C8DAF1" stroke="#588ECB" d="M111.61,211.302c0-1.818-1.473-3.292-3.291-3.292
						c-1.815,0-3.291,1.474-3.291,3.292c0,1.816,1.475,3.29,3.291,3.29C110.137,214.592,111.61,213.119,111.61,211.302z"/>
					<path id="path7297" fill="none" stroke="#588ECB" d="M108.319,208.01v-23.037"/>
				</g>
				<g id="g7299">
					<path id="path7301" fill="#C8DAF1" stroke="#588ECB" d="M104.064,211.302c0-1.818-1.475-3.292-3.291-3.292
						c-1.817,0-3.291,1.474-3.291,3.292c0,1.816,1.473,3.29,3.291,3.29C102.589,214.592,104.064,213.119,104.064,211.302z"/>
					<path id="path7303" fill="none" stroke="#588ECB" d="M100.773,208.01v-23.037"/>
				</g>
				<g id="g7305">
					<path id="path7307" fill="#C8DAF1" stroke="#588ECB" d="M100.29,179c0,1.815-1.473,3.29-3.291,3.29
						c-1.817,0-3.289-1.475-3.289-3.29c0-1.818,1.472-3.292,3.289-3.292C98.816,175.708,100.29,177.183,100.29,179z"/>
					<path id="path7309" fill="none" stroke="#588ECB" d="M96.999,182.29v23.04"/>
				</g>
				<g id="g7311">
					<path id="path7313" fill="#C8DAF1" stroke="#588ECB" d="M92.742,179c0,1.815-1.474,3.29-3.291,3.29
						c-1.816,0-3.292-1.475-3.292-3.29c0-1.818,1.476-3.292,3.292-3.292C91.268,175.708,92.742,177.183,92.742,179z"/>
					<path id="path7315" fill="none" stroke="#588ECB" d="M89.452,182.29v23.04"/>
				</g>
				<g id="g7317">
					<path id="path7319" fill="#C8DAF1" stroke="#588ECB" d="M85.197,179c0,1.815-1.475,3.29-3.292,3.29s-3.291-1.475-3.291-3.29
						c0-1.818,1.474-3.292,3.291-3.292S85.197,177.183,85.197,179z"/>
					<path id="path7321" fill="none" stroke="#588ECB" d="M81.905,182.29v23.04"/>
				</g>
				<g id="g7323">
					<path id="path7325" fill="#C8DAF1" stroke="#588ECB" d="M122.93,179c0,1.815-1.473,3.29-3.292,3.29
						c-1.814,0-3.29-1.475-3.29-3.29c0-1.818,1.475-3.292,3.29-3.292C121.458,175.708,122.93,177.183,122.93,179z"/>
					<path id="path7327" fill="none" stroke="#588ECB" d="M119.641,182.29v23.04"/>
				</g>
				<g id="g7329">
					<path id="path7331" fill="#C8DAF1" stroke="#588ECB" d="M115.385,179c0,1.815-1.475,3.29-3.291,3.29
						c-1.817,0-3.292-1.475-3.292-3.29c0-1.818,1.474-3.292,3.292-3.292C113.91,175.708,115.385,177.183,115.385,179z"/>
					<path id="path7333" fill="none" stroke="#588ECB" d="M112.094,182.29v23.04"/>
				</g>
				<g id="g7335">
					<path id="path7337" fill="#C8DAF1" stroke="#588ECB" d="M107.836,179c0,1.815-1.474,3.29-3.291,3.29
						c-1.816,0-3.291-1.475-3.291-3.29c0-1.818,1.475-3.292,3.291-3.292C106.362,175.708,107.836,177.183,107.836,179z"/>
					<path id="path7339" fill="none" stroke="#588ECB" d="M104.545,182.29v23.04"/>
				</g>
			</g>
			<g id="g7341">
				<g id="g7343">
					<path id="path7345" fill="#C8DAF1" stroke="#588ECB" d="M51.384,211.302c0-1.818-1.474-3.292-3.291-3.292
						c-1.816,0-3.29,1.474-3.29,3.292c0,1.816,1.474,3.29,3.29,3.29C49.911,214.592,51.384,213.119,51.384,211.302z"/>
					<path id="path7347" fill="none" stroke="#588ECB" d="M48.094,208.01v-23.037"/>
				</g>
				<g id="g7349">
					<path id="path7351" fill="#C8DAF1" stroke="#588ECB" d="M43.839,211.302c0-1.818-1.474-3.292-3.292-3.292
						c-1.817,0-3.29,1.474-3.29,3.292c0,1.816,1.473,3.29,3.29,3.29C42.363,214.592,43.839,213.119,43.839,211.302z"/>
					<path id="path7353" fill="none" stroke="#588ECB" d="M40.547,208.01v-23.037"/>
				</g>
				<g id="g7355">
					<path id="path7357" fill="#C8DAF1" stroke="#588ECB" d="M36.291,211.302c0-1.818-1.474-3.292-3.29-3.292
						c-1.818,0-3.292,1.474-3.292,3.292c0,1.816,1.474,3.29,3.292,3.29C34.816,214.592,36.291,213.119,36.291,211.302z"/>
					<path id="path7359" fill="none" stroke="#588ECB" d="M33.001,208.01v-23.037"/>
				</g>
				<g id="g7361">
					<path id="path7363" fill="#C8DAF1" stroke="#588ECB" d="M74.027,211.302c0-1.818-1.475-3.292-3.292-3.292
						c-1.816,0-3.291,1.474-3.291,3.292c0,1.816,1.474,3.29,3.291,3.29C72.552,214.592,74.027,213.119,74.027,211.302z"/>
					<path id="path7365" fill="none" stroke="#588ECB" d="M70.735,208.01v-23.037"/>
				</g>
				<g id="g7367">
					<path id="path7369" fill="#C8DAF1" stroke="#588ECB" d="M66.479,211.302c0-1.818-1.474-3.292-3.29-3.292
						c-1.817,0-3.291,1.474-3.291,3.292c0,1.816,1.474,3.29,3.291,3.29C65.004,214.592,66.479,213.119,66.479,211.302z"/>
					<path id="path7371" fill="none" stroke="#588ECB" d="M63.189,208.01v-23.037"/>
				</g>
				<g id="g7373">
					<path id="path7375" fill="#C8DAF1" stroke="#588ECB" d="M58.932,211.302c0-1.818-1.475-3.292-3.291-3.292
						c-1.816,0-3.29,1.474-3.29,3.292c0,1.816,1.474,3.29,3.29,3.29C57.458,214.592,58.932,213.119,58.932,211.302z"/>
					<path id="path7377" fill="none" stroke="#588ECB" d="M55.642,208.01v-23.037"/>
				</g>
				<g id="g7379">
					<path id="path7381" fill="#C8DAF1" stroke="#588ECB" d="M55.158,179c0,1.815-1.474,3.29-3.291,3.29
						c-1.816,0-3.291-1.475-3.291-3.29c0-1.818,1.475-3.292,3.291-3.292C53.684,175.708,55.158,177.183,55.158,179z"/>
					<path id="path7383" fill="none" stroke="#588ECB" d="M51.867,182.29v23.04"/>
				</g>
				<g id="g7385">
					<path id="path7387" fill="#C8DAF1" stroke="#588ECB" d="M47.611,179c0,1.815-1.475,3.29-3.291,3.29
						c-1.816,0-3.291-1.475-3.291-3.29c0-1.818,1.474-3.292,3.291-3.292C46.137,175.708,47.611,177.183,47.611,179z"/>
					<path id="path7389" fill="none" stroke="#588ECB" d="M44.321,182.29v23.04"/>
				</g>
				<g id="g7391">
					<path id="path7393" fill="#C8DAF1" stroke="#588ECB" d="M40.065,179c0,1.815-1.474,3.29-3.291,3.29
						c-1.815,0-3.29-1.475-3.29-3.29c0-1.818,1.475-3.292,3.29-3.292C38.591,175.708,40.065,177.183,40.065,179z"/>
					<path id="path7395" fill="none" stroke="#588ECB" d="M36.774,182.29v23.04"/>
				</g>
				<g id="g7397">
					<path id="path7399" fill="#C8DAF1" stroke="#588ECB" d="M77.8,179c0,1.815-1.475,3.29-3.292,3.29
						c-1.817,0-3.291-1.475-3.291-3.29c0-1.818,1.474-3.292,3.291-3.292C76.326,175.708,77.8,177.183,77.8,179z"/>
					<path id="path7401" fill="none" stroke="#588ECB" d="M74.509,182.29v23.04"/>
				</g>
				<g id="g7403">
					<path id="path7405" fill="#C8DAF1" stroke="#588ECB" d="M70.251,179c0,1.815-1.472,3.29-3.29,3.29
						c-1.816,0-3.291-1.475-3.291-3.29c0-1.818,1.475-3.292,3.291-3.292C68.779,175.708,70.251,177.183,70.251,179z"/>
					<path id="path7407" fill="none" stroke="#588ECB" d="M66.961,182.29v23.04"/>
				</g>
				<g id="g7409">
					<path id="path7411" fill="#C8DAF1" stroke="#588ECB" d="M62.705,179c0,1.815-1.473,3.29-3.29,3.29
						c-1.817,0-3.292-1.475-3.292-3.29c0-1.818,1.475-3.292,3.292-3.292C61.231,175.708,62.705,177.183,62.705,179z"/>
					<path id="path7413" fill="none" stroke="#588ECB" d="M59.415,182.29v23.04"/>
				</g>
			</g>
			<g id="g7415">
				<g id="g7417">
					<path id="path7419" fill="#C8DAF1" stroke="#588ECB" d="M6.252,211.302c0-1.818-1.473-3.292-3.289-3.292
						c-1.818,0-3.292,1.474-3.292,3.292c0,1.816,1.474,3.29,3.292,3.29C4.778,214.592,6.252,213.119,6.252,211.302z"/>
					<path id="path7421" fill="none" stroke="#588ECB" d="M2.962,208.01v-23.037"/>
				</g>
				<g id="g7423">
					<path id="path7425" fill="#C8DAF1" stroke="#588ECB" d="M-1.294,211.302c0-1.818-1.474-3.292-3.29-3.292
						s-3.291,1.474-3.291,3.292c0,1.816,1.475,3.29,3.291,3.29S-1.294,213.119-1.294,211.302z"/>
					<path id="path7427" fill="none" stroke="#588ECB" d="M-4.584,208.01v-23.037"/>
				</g>
				<g id="g7429">
					<path id="path7431" fill="#C8DAF1" stroke="#588ECB" d="M-8.839,211.302c0-1.818-1.475-3.292-3.292-3.292
						c-1.817,0-3.291,1.474-3.291,3.292c0,1.816,1.474,3.29,3.291,3.29C-10.314,214.592-8.839,213.119-8.839,211.302z"/>
					<path id="path7433" fill="none" stroke="#588ECB" d="M-12.131,208.01v-23.037"/>
				</g>
				<g id="g7435">
					<path id="path7437" fill="#C8DAF1" stroke="#588ECB" d="M28.895,211.302c0-1.818-1.475-3.292-3.291-3.292
						c-1.817,0-3.291,1.474-3.291,3.292c0,1.816,1.474,3.29,3.291,3.29C27.419,214.592,28.895,213.119,28.895,211.302z"/>
					<path id="path7439" fill="none" stroke="#588ECB" d="M25.604,208.01v-23.037"/>
				</g>
				<g id="g7441">
					<path id="path7443" fill="#C8DAF1" stroke="#588ECB" d="M21.347,211.302c0-1.818-1.474-3.292-3.29-3.292
						c-1.817,0-3.291,1.474-3.291,3.292c0,1.816,1.474,3.29,3.291,3.29C19.874,214.592,21.347,213.119,21.347,211.302z"/>
					<path id="path7445" fill="none" stroke="#588ECB" d="M18.058,208.01v-23.037"/>
				</g>
				<g id="g7447">
					<path id="path7449" fill="#C8DAF1" stroke="#588ECB" d="M13.8,211.302c0-1.818-1.474-3.292-3.292-3.292
						c-1.816,0-3.291,1.474-3.291,3.292c0,1.816,1.475,3.29,3.291,3.29C12.327,214.592,13.8,213.119,13.8,211.302z"/>
					<path id="path7451" fill="none" stroke="#588ECB" d="M10.509,208.01v-23.037"/>
				</g>
				<g id="g7453">
					<path id="path7455" fill="#C8DAF1" stroke="#588ECB" d="M10.027,179c0,1.815-1.475,3.29-3.292,3.29
						c-1.816,0-3.29-1.475-3.29-3.29c0-1.818,1.474-3.292,3.29-3.292C8.553,175.708,10.027,177.183,10.027,179z"/>
					<path id="path7457" fill="none" stroke="#588ECB" d="M6.736,182.29v23.04"/>
				</g>
				<g id="g7459">
					<path id="path7461" fill="#C8DAF1" stroke="#588ECB" d="M2.479,179c0,1.815-1.473,3.29-3.29,3.29
						c-1.818,0-3.292-1.475-3.292-3.29c0-1.818,1.474-3.292,3.292-3.292C1.006,175.708,2.479,177.183,2.479,179z"/>
					<path id="path7463" fill="none" stroke="#588ECB" d="M-0.811,182.29v23.04"/>
				</g>
				<g id="g7465">
					<path id="path7467" fill="#C8DAF1" stroke="#588ECB" d="M-5.068,179c0,1.815-1.474,3.29-3.29,3.29
						c-1.817,0-3.291-1.475-3.291-3.29c0-1.818,1.474-3.292,3.291-3.292C-6.541,175.708-5.068,177.183-5.068,179z"/>
					<path id="path7469" fill="none" stroke="#588ECB" d="M-8.357,182.29v23.04"/>
				</g>
				<g id="g7471">
					<path id="path7473" fill="#C8DAF1" stroke="#588ECB" d="M32.667,179c0,1.815-1.474,3.29-3.292,3.29
						c-1.816,0-3.29-1.475-3.29-3.29c0-1.818,1.473-3.292,3.29-3.292C31.193,175.708,32.667,177.183,32.667,179z"/>
					<path id="path7475" fill="none" stroke="#588ECB" d="M29.376,182.29v23.04"/>
				</g>
				<g id="g7477">
					<path id="path7479" fill="#C8DAF1" stroke="#588ECB" d="M25.121,179c0,1.815-1.474,3.29-3.292,3.29
						c-1.816,0-3.291-1.475-3.291-3.29c0-1.818,1.475-3.292,3.291-3.292C23.647,175.708,25.121,177.183,25.121,179z"/>
					<path id="path7481" fill="none" stroke="#588ECB" d="M21.83,182.29v23.04"/>
				</g>
				<g id="g7483">
					<path id="path7485" fill="#C8DAF1" stroke="#588ECB" d="M17.572,179c0,1.815-1.473,3.29-3.29,3.29
						c-1.817,0-3.292-1.475-3.292-3.29c0-1.818,1.475-3.292,3.292-3.292C16.099,175.708,17.572,177.183,17.572,179z"/>
					<path id="path7487" fill="none" stroke="#588ECB" d="M14.283,182.29v23.04"/>
				</g>
			</g>
		</g>
		<g>
			<g id="g7045_1_">
				<g id="g7047_1_">
					<path id="path7049_1_" fill="#C8DAF1" stroke="#588ECB" d="M388.848,180.07c0-1.818-1.474-3.292-3.291-3.292
						c-1.816,0-3.291,1.474-3.291,3.292c0,1.816,1.475,3.29,3.291,3.29C387.374,183.36,388.848,181.887,388.848,180.07z"/>
					<path id="path7051_1_" fill="none" stroke="#588ECB" d="M385.557,176.778v-23.037"/>
				</g>
				<g id="g7053_1_">
					<path id="path7055_1_" fill="#C8DAF1" stroke="#588ECB" d="M381.303,180.07c0-1.818-1.475-3.292-3.291-3.292
						c-1.818,0-3.291,1.474-3.291,3.292c0,1.816,1.473,3.29,3.291,3.29C379.828,183.36,381.303,181.887,381.303,180.07z"/>
					<path id="path7057_1_" fill="none" stroke="#588ECB" d="M378.012,176.778v-23.037"/>
				</g>
				<g id="g7059_1_">
					<path id="path7061_1_" fill="#C8DAF1" stroke="#588ECB" d="M373.756,180.07c0-1.818-1.474-3.292-3.291-3.292
						c-1.816,0-3.289,1.474-3.289,3.292c0,1.816,1.473,3.29,3.289,3.29C372.282,183.36,373.756,181.887,373.756,180.07z"/>
					<path id="path7063_1_" fill="none" stroke="#588ECB" d="M370.465,176.778v-23.037"/>
				</g>
				<g id="g7065_1_">
					<path id="path7067_1_" fill="#C8DAF1" stroke="#588ECB" d="M411.492,180.07c0-1.818-1.476-3.292-3.293-3.292
						c-1.816,0-3.29,1.474-3.29,3.292c0,1.816,1.474,3.29,3.29,3.29C410.017,183.36,411.492,181.887,411.492,180.07z"/>
					<path id="path7069_1_" fill="none" stroke="#588ECB" d="M408.199,176.778v-23.037"/>
				</g>
				<g id="g7071_1_">
					<path id="path7073_1_" fill="#C8DAF1" stroke="#588ECB" d="M403.941,180.07c0-1.818-1.474-3.292-3.29-3.292
						c-1.817,0-3.292,1.474-3.292,3.292c0,1.816,1.475,3.29,3.292,3.29C402.468,183.36,403.941,181.887,403.941,180.07z"/>
					<path id="path7075_1_" fill="none" stroke="#588ECB" d="M400.651,176.778v-23.037"/>
				</g>
				<g id="g7077_1_">
					<path id="path7079_1_" fill="#C8DAF1" stroke="#588ECB" d="M396.396,180.07c0-1.818-1.475-3.292-3.293-3.292
						c-1.814,0-3.288,1.474-3.288,3.292c0,1.816,1.474,3.29,3.288,3.29C394.922,183.36,396.396,181.887,396.396,180.07z"/>
					<path id="path7081_1_" fill="none" stroke="#588ECB" d="M393.104,176.778v-23.037"/>
				</g>
				<g id="g7083_1_">
					<path id="path7085_1_" fill="#C8DAF1" stroke="#588ECB" d="M392.621,147.769c0,1.815-1.473,3.29-3.289,3.29
						c-1.818,0-3.292-1.475-3.292-3.29c0-1.818,1.474-3.292,3.292-3.292C391.148,144.477,392.621,145.951,392.621,147.769z"/>
					<path id="path7087_1_" fill="none" stroke="#588ECB" d="M389.332,151.059v23.04"/>
				</g>
				<g id="g7089_1_">
					<path id="path7091_1_" fill="#C8DAF1" stroke="#588ECB" d="M385.076,147.769c0,1.815-1.476,3.29-3.291,3.29
						c-1.818,0-3.291-1.475-3.291-3.29c0-1.818,1.473-3.292,3.291-3.292C383.601,144.477,385.076,145.951,385.076,147.769z"/>
					<path id="path7093_1_" fill="none" stroke="#588ECB" d="M381.785,151.059v23.04"/>
				</g>
				<g id="g7095_1_">
					<path id="path7097_1_" fill="#C8DAF1" stroke="#588ECB" d="M377.527,147.769c0,1.815-1.474,3.29-3.289,3.29
						c-1.818,0-3.293-1.475-3.293-3.29c0-1.818,1.475-3.292,3.293-3.292C376.054,144.477,377.527,145.951,377.527,147.769z"/>
					<path id="path7099_1_" fill="none" stroke="#588ECB" d="M374.238,151.059v23.04"/>
				</g>
				<g id="g7101_1_">
					<path id="path7103_1_" fill="#C8DAF1" stroke="#588ECB" d="M415.262,147.769c0,1.815-1.475,3.29-3.289,3.29
						c-1.817,0-3.293-1.475-3.293-3.29c0-1.818,1.476-3.292,3.293-3.292C413.787,144.477,415.262,145.951,415.262,147.769z"/>
					<path id="path7105_1_" fill="none" stroke="#588ECB" d="M411.973,151.059v23.04"/>
				</g>
				<g id="g7107_1_">
					<path id="path7109_1_" fill="#C8DAF1" stroke="#588ECB" d="M407.715,147.769c0,1.815-1.473,3.29-3.289,3.29
						s-3.291-1.475-3.291-3.29c0-1.818,1.475-3.292,3.291-3.292S407.715,145.951,407.715,147.769z"/>
					<path id="path7111_1_" fill="none" stroke="#588ECB" d="M404.426,151.059v23.04"/>
				</g>
				<g id="g7113_1_">
					<path id="path7115_1_" fill="#C8DAF1" stroke="#588ECB" d="M400.17,147.769c0,1.815-1.477,3.29-3.292,3.29
						c-1.817,0-3.289-1.475-3.289-3.29c0-1.818,1.472-3.292,3.289-3.292C398.693,144.477,400.17,145.951,400.17,147.769z"/>
					<path id="path7117_1_" fill="none" stroke="#588ECB" d="M396.878,151.059v23.04"/>
				</g>
			</g>
			<g id="g7119_1_">
				<g id="g7121_1_">
					<path id="path7123_1_" fill="#C8DAF1" stroke="#588ECB" d="M343.717,180.07c0-1.818-1.475-3.292-3.289-3.292
						c-1.818,0-3.293,1.474-3.293,3.292c0,1.816,1.475,3.29,3.293,3.29C342.242,183.36,343.717,181.887,343.717,180.07z"/>
					<path id="path7125_1_" fill="none" stroke="#588ECB" d="M340.428,176.778v-23.037"/>
				</g>
				<g id="g7127_1_">
					<path id="path7129_1_" fill="#C8DAF1" stroke="#588ECB" d="M336.171,180.07c0-1.818-1.474-3.292-3.29-3.292
						s-3.291,1.474-3.291,3.292c0,1.816,1.475,3.29,3.291,3.29C334.695,183.36,336.171,181.887,336.171,180.07z"/>
					<path id="path7131_1_" fill="none" stroke="#588ECB" d="M332.881,176.778v-23.037"/>
				</g>
				<g id="g7133_1_">
					<path id="path7135_1_" fill="#C8DAF1" stroke="#588ECB" d="M328.623,180.07c0-1.818-1.475-3.292-3.29-3.292
						c-1.818,0-3.292,1.474-3.292,3.292c0,1.816,1.474,3.29,3.292,3.29C327.148,183.36,328.623,181.887,328.623,180.07z"/>
					<path id="path7137_1_" fill="none" stroke="#588ECB" d="M325.333,176.778v-23.037"/>
				</g>
				<g id="g7139_1_">
					<path id="path7141_1_" fill="#C8DAF1" stroke="#588ECB" d="M366.357,180.07c0-1.818-1.475-3.292-3.291-3.292
						s-3.291,1.474-3.291,3.292c0,1.816,1.475,3.29,3.291,3.29S366.357,181.887,366.357,180.07z"/>
					<path id="path7143_1_" fill="none" stroke="#588ECB" d="M363.066,176.778v-23.037"/>
				</g>
				<g id="g7145_1_">
					<path id="path7147_1_" fill="#C8DAF1" stroke="#588ECB" d="M358.811,180.07c0-1.818-1.473-3.292-3.29-3.292
						s-3.29,1.474-3.29,3.292c0,1.816,1.473,3.29,3.29,3.29S358.811,181.887,358.811,180.07z"/>
					<path id="path7149_1_" fill="none" stroke="#588ECB" d="M355.521,176.778v-23.037"/>
				</g>
				<g id="g7151_1_">
					<path id="path7153_1_" fill="#C8DAF1" stroke="#588ECB" d="M351.263,180.07c0-1.818-1.474-3.292-3.29-3.292
						s-3.293,1.474-3.293,3.292c0,1.816,1.477,3.29,3.293,3.29S351.263,181.887,351.263,180.07z"/>
					<path id="path7155_1_" fill="none" stroke="#588ECB" d="M347.973,176.778v-23.037"/>
				</g>
				<g id="g7157_1_">
					<path id="path7159_1_" fill="#C8DAF1" stroke="#588ECB" d="M347.49,147.769c0,1.815-1.474,3.29-3.291,3.29
						c-1.816,0-3.289-1.475-3.289-3.29c0-1.818,1.473-3.292,3.289-3.292C346.017,144.477,347.49,145.951,347.49,147.769z"/>
					<path id="path7161_1_" fill="none" stroke="#588ECB" d="M344.199,151.059v23.04"/>
				</g>
				<g id="g7163_1_">
					<path id="path7165_1_" fill="#C8DAF1" stroke="#588ECB" d="M339.943,147.769c0,1.815-1.475,3.29-3.292,3.29
						c-1.815,0-3.29-1.475-3.29-3.29c0-1.818,1.475-3.292,3.29-3.292C338.469,144.477,339.943,145.951,339.943,147.769z"/>
					<path id="path7167_1_" fill="none" stroke="#588ECB" d="M336.652,151.059v23.04"/>
				</g>
				<g id="g7169_1_">
					<path id="path7171_1_" fill="#C8DAF1" stroke="#588ECB" d="M332.396,147.769c0,1.815-1.475,3.29-3.291,3.29
						c-1.817,0-3.289-1.475-3.289-3.29c0-1.818,1.472-3.292,3.289-3.292C330.922,144.477,332.396,145.951,332.396,147.769z"/>
					<path id="path7173_1_" fill="none" stroke="#588ECB" d="M329.105,151.059v23.04"/>
				</g>
				<g id="g7175_1_">
					<path id="path7177_1_" fill="#C8DAF1" stroke="#588ECB" d="M370.131,147.769c0,1.815-1.474,3.29-3.292,3.29
						c-1.815,0-3.29-1.475-3.29-3.29c0-1.818,1.475-3.292,3.29-3.292C368.657,144.477,370.131,145.951,370.131,147.769z"/>
					<path id="path7179_1_" fill="none" stroke="#588ECB" d="M366.842,151.059v23.04"/>
				</g>
				<g id="g7181_1_">
					<path id="path7183_1_" fill="#C8DAF1" stroke="#588ECB" d="M362.586,147.769c0,1.815-1.477,3.29-3.293,3.29
						c-1.815,0-3.289-1.475-3.289-3.29c0-1.818,1.474-3.292,3.289-3.292C361.109,144.477,362.586,145.951,362.586,147.769z"/>
					<path id="path7185_1_" fill="none" stroke="#588ECB" d="M359.293,151.059v23.04"/>
				</g>
				<g id="g7187_1_">
					<path id="path7189_1_" fill="#C8DAF1" stroke="#588ECB" d="M355.039,147.769c0,1.815-1.475,3.29-3.292,3.29
						s-3.29-1.475-3.29-3.29c0-1.818,1.473-3.292,3.29-3.292S355.039,145.951,355.039,147.769z"/>
					<path id="path7191_1_" fill="none" stroke="#588ECB" d="M351.747,151.059v23.04"/>
				</g>
			</g>
			<g id="g7193_1_">
				<g id="g7195_1_">
					<path id="path7197_1_" fill="#C8DAF1" stroke="#588ECB" d="M298.586,180.07c0-1.818-1.476-3.292-3.291-3.292
						c-1.816,0-3.291,1.474-3.291,3.292c0,1.816,1.475,3.29,3.291,3.29C297.11,183.36,298.586,181.887,298.586,180.07z"/>
					<path id="path7199_1_" fill="none" stroke="#588ECB" d="M295.295,176.778v-23.037"/>
				</g>
				<g id="g7201_1_">
					<path id="path7203_1_" fill="#C8DAF1" stroke="#588ECB" d="M291.039,180.07c0-1.818-1.474-3.292-3.291-3.292
						s-3.291,1.474-3.291,3.292c0,1.816,1.474,3.29,3.291,3.29S291.039,181.887,291.039,180.07z"/>
					<path id="path7205_1_" fill="none" stroke="#588ECB" d="M287.748,176.778v-23.037"/>
				</g>
				<g id="g7207_1_">
					<path id="path7209_1_" fill="#C8DAF1" stroke="#588ECB" d="M283.492,180.07c0-1.818-1.476-3.292-3.292-3.292
						c-1.817,0-3.291,1.474-3.291,3.292c0,1.816,1.474,3.29,3.291,3.29C282.017,183.36,283.492,181.887,283.492,180.07z"/>
					<path id="path7211_1_" fill="none" stroke="#588ECB" d="M280.2,176.778v-23.037"/>
				</g>
				<g id="g7213_1_">
					<path id="path7215_1_" fill="#C8DAF1" stroke="#588ECB" d="M321.227,180.07c0-1.818-1.475-3.292-3.29-3.292
						c-1.818,0-3.292,1.474-3.292,3.292c0,1.816,1.474,3.29,3.292,3.29C319.752,183.36,321.227,181.887,321.227,180.07z"/>
					<path id="path7217_1_" fill="none" stroke="#588ECB" d="M317.937,176.778v-23.037"/>
				</g>
				<g id="g7219_1_">
					<path id="path7221_1_" fill="#C8DAF1" stroke="#588ECB" d="M313.679,180.07c0-1.818-1.474-3.292-3.29-3.292
						c-1.818,0-3.292,1.474-3.292,3.292c0,1.816,1.474,3.29,3.292,3.29C312.205,183.36,313.679,181.887,313.679,180.07z"/>
					<path id="path7223_1_" fill="none" stroke="#588ECB" d="M310.389,176.778v-23.037"/>
				</g>
				<g id="g7225_1_">
					<path id="path7227_1_" fill="#C8DAF1" stroke="#588ECB" d="M306.133,180.07c0-1.818-1.476-3.292-3.291-3.292
						c-1.816,0-3.291,1.474-3.291,3.292c0,1.816,1.475,3.29,3.291,3.29C304.657,183.36,306.133,181.887,306.133,180.07z"/>
					<path id="path7229_1_" fill="none" stroke="#588ECB" d="M302.842,176.778v-23.037"/>
				</g>
				<g id="g7231_1_">
					<path id="path7233_1_" fill="#C8DAF1" stroke="#588ECB" d="M302.357,147.769c0,1.815-1.475,3.29-3.289,3.29
						c-1.818,0-3.293-1.475-3.293-3.29c0-1.818,1.475-3.292,3.293-3.292C300.883,144.477,302.357,145.951,302.357,147.769z"/>
					<path id="path7235_1_" fill="none" stroke="#588ECB" d="M299.068,151.059v23.04"/>
				</g>
				<g id="g7237_1_">
					<path id="path7239_1_" fill="#C8DAF1" stroke="#588ECB" d="M294.812,147.769c0,1.815-1.476,3.29-3.29,3.29
						c-1.818,0-3.291-1.475-3.291-3.29c0-1.818,1.473-3.292,3.291-3.292C293.336,144.477,294.812,145.951,294.812,147.769z"/>
					<path id="path7241_1_" fill="none" stroke="#588ECB" d="M291.521,151.059v23.04"/>
				</g>
				<g id="g7243_1_">
					<path id="path7245_1_" fill="#C8DAF1" stroke="#588ECB" d="M287.266,147.769c0,1.815-1.473,3.29-3.293,3.29
						c-1.814,0-3.288-1.475-3.288-3.29c0-1.818,1.474-3.292,3.288-3.292C285.793,144.477,287.266,145.951,287.266,147.769z"/>
					<path id="path7247_1_" fill="none" stroke="#588ECB" d="M283.973,151.059v23.04"/>
				</g>
				<g id="g7249_1_">
					<path id="path7251_1_" fill="#C8DAF1" stroke="#588ECB" d="M325,147.769c0,1.815-1.475,3.29-3.291,3.29
						s-3.291-1.475-3.291-3.29c0-1.818,1.475-3.292,3.291-3.292S325,145.951,325,147.769z"/>
					<path id="path7253_1_" fill="none" stroke="#588ECB" d="M321.709,151.059v23.04"/>
				</g>
				<g id="g7255_1_">
					<path id="path7257_1_" fill="#C8DAF1" stroke="#588ECB" d="M317.454,147.769c0,1.815-1.475,3.29-3.292,3.29
						c-1.815,0-3.289-1.475-3.289-3.29c0-1.818,1.474-3.292,3.289-3.292C315.979,144.477,317.454,145.951,317.454,147.769z"/>
					<path id="path7259_1_" fill="none" stroke="#588ECB" d="M314.162,151.059v23.04"/>
				</g>
				<g id="g7261_1_">
					<path id="path7263_1_" fill="#C8DAF1" stroke="#588ECB" d="M309.906,147.769c0,1.815-1.475,3.29-3.291,3.29
						c-1.817,0-3.291-1.475-3.291-3.29c0-1.818,1.474-3.292,3.291-3.292C308.432,144.477,309.906,145.951,309.906,147.769z"/>
					<path id="path7265_1_" fill="none" stroke="#588ECB" d="M306.615,151.059v23.04"/>
				</g>
			</g>
		</g>
	</g>
	<g>
		<g>
			<g>
				<line fill="none" stroke="#030403" x1="43.863" y1="125.796" x2="43.863" y2="194.709"/>
				<polygon fill="#030403" points="47.566,128.604 43.863,127.031 40.159,128.604 43.863,119.826 				"/>
			</g>
		</g>
		<g>
			<g>
				
					<radialGradient id="SVGID_1_" cx="651.123" cy="-248.3042" r="18.3189" gradientTransform="matrix(-1 0 0 -1 694.9863 -84.4209)" gradientUnits="userSpaceOnUse">
					<stop  offset="0" style="stop-color:#FDFBE2"/>
					<stop  offset="0.1203" style="stop-color:#FDFBDC"/>
					<stop  offset="0.2662" style="stop-color:#FDF9CD"/>
					<stop  offset="0.4255" style="stop-color:#FCF5B5"/>
					<stop  offset="0.5943" style="stop-color:#FAEF95"/>
					<stop  offset="0.7706" style="stop-color:#F8E96E"/>
					<stop  offset="0.9506" style="stop-color:#F6E145"/>
					<stop  offset="1" style="stop-color:#F6DF3C"/>
				</radialGradient>
				<path fill="url(#SVGID_1_)" d="M48.974,140.34c-2.238,0-4.18,1.968-5.11,4.804c-0.931-2.836-2.873-4.804-5.111-4.804
					c-3.132,0-5.699,3.847-5.699,8.55v29.988c0,4.702,2.566,8.549,5.699,8.549c2.238,0,4.181-1.968,5.111-4.804
					c0.93,2.836,2.872,4.804,5.11,4.804c3.135,0,5.699-3.847,5.699-8.549V148.89C54.673,144.187,52.108,140.34,48.974,140.34z"/>
			</g>
			<g>
				<path fill="none" stroke="#030403" d="M48.974,140.34c-2.238,0-4.18,1.968-5.11,4.804c-0.931-2.836-2.873-4.804-5.111-4.804
					c-3.132,0-5.699,3.847-5.699,8.55v29.988c0,4.702,2.566,8.549,5.699,8.549c2.238,0,4.181-1.968,5.111-4.804
					c0.93,2.836,2.872,4.804,5.11,4.804c3.135,0,5.699-3.847,5.699-8.549V148.89C54.673,144.187,52.108,140.34,48.974,140.34z"/>
			</g>
		</g>
		<g>
			<path d="M47.688,152.765h-6.777v-0.874h6.777V152.765z"/>
			<path d="M43.888,160.005c0.945-0.05,2.082-0.11,2.926-0.101v-0.03c-0.794-0.23-1.649-0.513-2.574-0.854l-3.289-1.196v-0.664
				l3.228-1.096c0.955-0.322,1.83-0.594,2.635-0.784v-0.021c-0.845-0.021-1.981-0.07-2.997-0.131l-2.906-0.181v-0.835l6.777,0.473
				v1.116l-3.278,1.156c-0.835,0.282-1.579,0.513-2.283,0.684v0.03c0.684,0.171,1.428,0.413,2.283,0.714l3.278,1.207v1.116
				l-6.777,0.422v-0.854L43.888,160.005z"/>
			<path d="M43.043,163.373l-2.132-0.704v-0.905l6.777,2.303v1.057l-6.777,2.313V166.5l2.132-0.724V163.373z M43.727,165.596
				l1.951-0.664c0.443-0.151,0.845-0.251,1.237-0.352v-0.021c-0.402-0.101-0.814-0.211-1.227-0.342l-1.961-0.664V165.596z"/>
			<path d="M41.132,173.016c-0.161-0.321-0.332-0.965-0.332-1.789c0-1.911,1.217-3.349,3.439-3.349c2.122,0,3.56,1.438,3.56,3.539
				c0,0.845-0.181,1.378-0.302,1.609l-0.714-0.212c0.161-0.331,0.281-0.804,0.281-1.367c0-1.589-1.016-2.645-2.795-2.645
				c-1.659,0-2.725,0.955-2.725,2.604c0,0.533,0.111,1.076,0.282,1.428L41.132,173.016z"/>
		</g>
	</g>
	<g>
		<g>
			<g>
				
					<radialGradient id="path11134_5_" cx="76.7119" cy="-724.8174" r="29.8247" gradientTransform="matrix(0.3664 0 0 0.3664 15.7557 374.166)" gradientUnits="userSpaceOnUse">
					<stop  offset="0" style="stop-color:#FDFBE2"/>
					<stop  offset="0.1203" style="stop-color:#FDFBDC"/>
					<stop  offset="0.2662" style="stop-color:#FDF9CD"/>
					<stop  offset="0.4255" style="stop-color:#FCF5B5"/>
					<stop  offset="0.5943" style="stop-color:#FAEF95"/>
					<stop  offset="0.7706" style="stop-color:#F8E96E"/>
					<stop  offset="0.9506" style="stop-color:#F6E145"/>
					<stop  offset="1" style="stop-color:#F6DF3C"/>
				</radialGradient>
				<path id="path11134_2_" fill="url(#path11134_5_)" stroke="#030403" stroke-width="0.9921" d="M54.791,108.595
					c0,6.032-4.893,10.926-10.926,10.926c-6.036,0-10.93-4.894-10.93-10.926c0-6.034,4.892-10.93,10.93-10.93
					C49.897,97.665,54.791,102.561,54.791,108.595z"/>
				<g>
				</g>
			</g>
			<g>
				<g>
					<path fill="#030403" d="M42.543,111.058c-1.8,0.01-3.054-1.371-3.065-3.422c-0.012-2.152,1.309-3.567,3.119-3.577
						c1.86-0.01,3.064,1.402,3.075,3.413c0.013,2.322-1.399,3.576-3.118,3.586H42.543z M42.58,110.344
						c1.388-0.008,2.165-1.289,2.157-2.827c-0.007-1.348-0.719-2.751-2.177-2.743s-2.175,1.369-2.167,2.837
						c0.007,1.428,0.799,2.74,2.177,2.733H42.58z"/>
					<path fill="#030403" d="M46.396,114.275l-0.002-0.38l0.483-0.475c1.162-1.117,1.693-1.711,1.689-2.4
						c-0.002-0.464-0.223-0.892-0.905-0.888c-0.415,0.002-0.759,0.215-0.969,0.392l-0.2-0.436c0.308-0.261,0.764-0.468,1.292-0.471
						c0.978-0.005,1.396,0.668,1.4,1.322c0.004,0.844-0.604,1.529-1.563,2.463l-0.356,0.34v0.014l2.047-0.011l0.003,0.514
						L46.396,114.275z"/>
					<path fill="#030403" d="M51.592,105.426l0.002,0.45l-1.738,0.01l-0.002-0.45L51.592,105.426z"/>
				</g>
				<g>
					<path d="M38.556,107.19c0,0.502-0.399,0.857-0.932,0.857c-0.547,0-0.931-0.37-0.931-0.888s0.384-0.872,0.931-0.872
						c0.532,0,0.932,0.34,0.932,0.887V107.19z"/>
				</g>
			</g>
		</g>
		<g>
			<path d="M56.306,116.776c0.01,0.3-0.21,0.539-0.56,0.539c-0.31,0-0.53-0.239-0.53-0.539c0-0.311,0.23-0.55,0.55-0.55
				C56.096,116.227,56.306,116.466,56.306,116.776z M55.327,122.973v-4.837h0.879v4.837H55.327z"/>
		</g>
	</g>
	<g>
		<g>
			<path fill="none" stroke="#000000" stroke-dasharray="3,3" d="M33.271,115.879c-10.606,6.457-7.719,15.795-1.183,21.333"/>
			<polygon points="27.551,138.222 31.145,136.413 32.339,132.57 36.642,141.07 			"/>
		</g>
	</g>
	<g>
		<radialGradient id="SVGID_2_" cx="132.4688" cy="163.252" r="18.2349" gradientUnits="userSpaceOnUse">
			<stop  offset="0" style="stop-color:#FFFFFF"/>
			<stop  offset="1" style="stop-color:#929496"/>
		</radialGradient>
		<path fill="url(#SVGID_2_)" stroke="#000000" d="M150.704,163.252c0,10.074-8.164,18.234-18.235,18.234
			s-18.235-8.16-18.235-18.234c0-10.07,8.164-18.234,18.235-18.234S150.704,153.182,150.704,163.252z"/>
		<radialGradient id="SVGID_3_" cx="132.5942" cy="163.127" r="13.4587" gradientUnits="userSpaceOnUse">
			<stop  offset="0" style="stop-color:#FFFFFF"/>
			<stop  offset="1" style="stop-color:#929496"/>
		</radialGradient>
		<circle fill="url(#SVGID_3_)" stroke="#000000" cx="132.594" cy="163.127" r="13.458"/>
		<g>
			<path d="M127.356,164.105h-7.07l3.7-8.172L127.356,164.105z M125.965,163.622l-2.351-5.697l-2.592,5.697H125.965z"/>
			<path d="M132.9,160.229c0.472-0.004,0.863-0.089,1.175-0.256c0.313-0.167,0.536-0.379,0.672-0.637
				c0.135-0.257,0.221-0.651,0.256-1.184c0.035-0.532,0.094-0.908,0.177-1.129c0.114-0.29,0.309-0.527,0.586-0.71
				s0.651-0.279,1.123-0.291v0.218c-0.275,0.023-0.459,0.108-0.554,0.253c-0.071,0.106-0.108,0.378-0.112,0.813
				c-0.012,0.856-0.094,1.455-0.247,1.797c-0.197,0.452-0.537,0.814-1.022,1.087c-0.485,0.273-1.169,0.426-2.053,0.457v2.327
				c0,0.326,0.073,0.56,0.218,0.701c0.145,0.141,0.391,0.212,0.736,0.212h0.212v0.218h-3.47v-0.218h0.207
				c0.346,0,0.591-0.071,0.736-0.212c0.146-0.142,0.218-0.375,0.218-0.701v-2.327c-0.742-0.023-1.331-0.128-1.764-0.313
				c-0.434-0.185-0.783-0.444-1.046-0.777c-0.177-0.225-0.302-0.456-0.377-0.695c-0.051-0.169-0.09-0.367-0.118-0.596l-0.035-1.36
				c-0.016-0.24-0.071-0.406-0.165-0.498c-0.094-0.093-0.267-0.148-0.519-0.168v-0.218c0.487,0.023,0.861,0.112,1.123,0.268
				s0.451,0.367,0.568,0.637c0.118,0.269,0.192,0.714,0.224,1.334c0.027,0.464,0.108,0.823,0.242,1.078
				c0.133,0.256,0.358,0.466,0.674,0.631c0.316,0.165,0.714,0.251,1.193,0.259v-2.98c0-0.326-0.072-0.56-0.218-0.701
				s-0.391-0.212-0.736-0.212h-0.207v-0.219h3.47v0.219h-0.212c-0.346,0-0.591,0.07-0.736,0.212
				c-0.146,0.142-0.218,0.375-0.218,0.701V160.229z"/>
			<path d="M137.724,165.139c0-0.422-0.009-0.769-0.034-1.107h0.651l0.034,0.66h0.025c0.228-0.39,0.608-0.753,1.285-0.753
				c0.558,0,0.981,0.338,1.158,0.82h0.017c0.126-0.229,0.287-0.406,0.457-0.533c0.245-0.186,0.516-0.287,0.904-0.287
				c0.541,0,1.344,0.355,1.344,1.775v2.409h-0.727v-2.316c0-0.786-0.288-1.26-0.888-1.26c-0.423,0-0.752,0.313-0.879,0.677
				c-0.034,0.102-0.06,0.236-0.06,0.372v2.527h-0.727v-2.451c0-0.651-0.288-1.125-0.854-1.125c-0.465,0-0.803,0.372-0.921,0.744
				c-0.042,0.11-0.059,0.237-0.059,0.363v2.469h-0.727V165.139z"/>
		</g>
		<g>
			<g>
				<line fill="none" stroke="#000000" x1="114.752" y1="178.799" x2="143.882" y2="149.668"/>
				<polygon points="144.515,154.272 143.008,150.542 139.277,149.035 148.103,145.447 				"/>
			</g>
		</g>
	</g>
	<g>
		
			<radialGradient id="path16609_4_" cx="166.7705" cy="-341.9512" r="19.8959" gradientTransform="matrix(1.5933 0 0 0.6358 -44.6411 380.3484)" gradientUnits="userSpaceOnUse">
			<stop  offset="0" style="stop-color:#FDFBE2"/>
			<stop  offset="0.1203" style="stop-color:#FDFBDC"/>
			<stop  offset="0.2662" style="stop-color:#FDF9CD"/>
			<stop  offset="0.4255" style="stop-color:#FCF5B5"/>
			<stop  offset="0.5943" style="stop-color:#FAEF95"/>
			<stop  offset="0.7706" style="stop-color:#F8E96E"/>
			<stop  offset="0.9506" style="stop-color:#F6E145"/>
			<stop  offset="1" style="stop-color:#F6DF3C"/>
		</radialGradient>
		<path id="path16609_1_" fill="url(#path16609_4_)" stroke="#030403" d="M252.191,162.936c0,7.111-13.936,12.879-31.117,12.879
			c-17.185,0-31.117-5.766-31.117-12.879c0-7.115,13.932-12.877,31.117-12.877C238.256,150.059,252.191,155.82,252.191,162.936z"/>
		<g>
			<path d="M198.015,155.18c0.442-0.091,1.076-0.142,1.679-0.142c0.935,0,1.539,0.171,1.961,0.554
				c0.342,0.302,0.533,0.764,0.533,1.287c0,0.895-0.563,1.488-1.277,1.729v0.03c0.523,0.181,0.834,0.663,0.996,1.367
				c0.221,0.945,0.382,1.599,0.523,1.86h-0.905c-0.11-0.201-0.261-0.774-0.452-1.619c-0.201-0.935-0.563-1.287-1.358-1.317h-0.824
				v2.937h-0.875V155.18z M198.89,158.267h0.895c0.935,0,1.528-0.513,1.528-1.287c0-0.875-0.634-1.257-1.559-1.268
				c-0.422,0-0.724,0.041-0.865,0.081V158.267z"/>
			<path d="M203.927,159.594c0.021,1.196,0.785,1.689,1.669,1.689c0.634,0,1.016-0.11,1.348-0.252l0.15,0.634
				c-0.311,0.141-0.844,0.312-1.618,0.312c-1.499,0-2.393-0.995-2.393-2.463c0-1.469,0.865-2.625,2.283-2.625
				c1.588,0,2.011,1.397,2.011,2.293c0,0.181-0.021,0.321-0.03,0.412H203.927z M206.521,158.96c0.01-0.563-0.231-1.438-1.227-1.438
				c-0.896,0-1.288,0.824-1.358,1.438H206.521z"/>
			<path d="M208.352,160.961c0.262,0.171,0.724,0.353,1.166,0.353c0.644,0,0.945-0.322,0.945-0.725c0-0.422-0.252-0.653-0.905-0.895
				c-0.874-0.312-1.287-0.795-1.287-1.378c0-0.784,0.634-1.428,1.68-1.428c0.493,0,0.925,0.141,1.196,0.302l-0.221,0.644
				c-0.191-0.121-0.543-0.281-0.996-0.281c-0.522,0-0.814,0.302-0.814,0.663c0,0.402,0.292,0.583,0.926,0.825
				c0.844,0.321,1.276,0.744,1.276,1.468c0,0.854-0.663,1.468-1.819,1.468c-0.533,0-1.026-0.141-1.368-0.342L208.352,160.961z"/>
			<path d="M212.453,158.588c0-0.623-0.02-1.126-0.04-1.589h0.794l0.041,0.835h0.02c0.362-0.594,0.936-0.945,1.73-0.945
				c1.176,0,2.061,0.995,2.061,2.474c0,1.75-1.066,2.614-2.212,2.614c-0.644,0-1.207-0.281-1.499-0.764h-0.02v2.645h-0.875V158.588z
				 M213.328,159.886c0,0.13,0.02,0.251,0.04,0.361c0.161,0.613,0.694,1.036,1.327,1.036c0.936,0,1.479-0.765,1.479-1.881
				c0-0.976-0.513-1.81-1.447-1.81c-0.604,0-1.167,0.433-1.338,1.096c-0.03,0.11-0.061,0.241-0.061,0.362V159.886z"/>
			<path d="M219.16,155.632c0.01,0.302-0.211,0.543-0.563,0.543c-0.312,0-0.532-0.241-0.532-0.543c0-0.312,0.23-0.553,0.553-0.553
				C218.949,155.079,219.16,155.32,219.16,155.632z M218.174,161.866v-4.867h0.886v4.867H218.174z"/>
			<path d="M220.527,158.518c0-0.573-0.01-1.065-0.041-1.519h0.775l0.029,0.956h0.041c0.221-0.654,0.754-1.066,1.347-1.066
				c0.101,0,0.171,0.01,0.251,0.03v0.835c-0.09-0.021-0.18-0.03-0.301-0.03c-0.623,0-1.066,0.473-1.188,1.136
				c-0.02,0.121-0.039,0.262-0.039,0.412v2.595h-0.875V158.518z"/>
			<path d="M227.184,160.7c0,0.422,0.02,0.834,0.08,1.166h-0.805l-0.07-0.613h-0.029c-0.271,0.382-0.795,0.724-1.488,0.724
				c-0.986,0-1.488-0.693-1.488-1.397c0-1.177,1.046-1.82,2.926-1.81v-0.101c0-0.402-0.11-1.127-1.105-1.127
				c-0.453,0-0.926,0.141-1.268,0.362l-0.201-0.583c0.402-0.262,0.986-0.433,1.6-0.433c1.488,0,1.85,1.016,1.85,1.991V160.7z
				 M226.329,159.383c-0.966-0.021-2.062,0.15-2.062,1.096c0,0.573,0.383,0.845,0.834,0.845c0.635,0,1.036-0.402,1.178-0.814
				c0.029-0.091,0.05-0.191,0.05-0.281V159.383z"/>
			<path d="M229.637,155.833v1.166h1.268v0.674h-1.268v2.625c0,0.604,0.171,0.945,0.664,0.945c0.241,0,0.382-0.021,0.513-0.061
				l0.04,0.663c-0.171,0.07-0.442,0.131-0.784,0.131c-0.413,0-0.744-0.141-0.956-0.382c-0.25-0.262-0.342-0.693-0.342-1.267v-2.655
				h-0.754v-0.674h0.754v-0.895L229.637,155.833z"/>
			<path d="M236.243,159.393c0,1.8-1.247,2.584-2.423,2.584c-1.317,0-2.333-0.965-2.333-2.504c0-1.629,1.065-2.584,2.413-2.584
				C235.299,156.889,236.243,157.904,236.243,159.393z M232.382,159.442c0,1.066,0.614,1.871,1.479,1.871
				c0.845,0,1.478-0.795,1.478-1.891c0-0.824-0.412-1.87-1.457-1.87C232.834,157.553,232.382,158.518,232.382,159.442z"/>
			<path d="M237.359,158.518c0-0.573-0.01-1.065-0.041-1.519h0.775l0.029,0.956h0.041c0.221-0.654,0.754-1.066,1.347-1.066
				c0.101,0,0.171,0.01,0.251,0.03v0.835c-0.09-0.021-0.18-0.03-0.301-0.03c-0.623,0-1.066,0.473-1.188,1.136
				c-0.02,0.121-0.039,0.262-0.039,0.412v2.595h-0.875V158.518z"/>
			<path d="M241.22,156.999l1.065,2.876c0.111,0.322,0.232,0.704,0.313,0.996h0.02c0.091-0.292,0.191-0.664,0.313-1.016l0.965-2.856
				h0.936l-1.328,3.47c-0.633,1.669-1.065,2.523-1.668,3.047c-0.434,0.382-0.865,0.532-1.087,0.573l-0.222-0.744
				c0.222-0.07,0.514-0.212,0.775-0.433c0.24-0.191,0.543-0.533,0.744-0.985c0.039-0.091,0.07-0.161,0.07-0.211
				c0-0.051-0.021-0.121-0.061-0.231l-1.801-4.485H241.22z"/>
			<path d="M214.48,173.71c-0.322,0.161-0.966,0.332-1.791,0.332c-1.91,0-3.348-1.217-3.348-3.438c0-2.122,1.438-3.56,3.539-3.56
				c0.845,0,1.378,0.181,1.609,0.302l-0.211,0.714c-0.332-0.161-0.805-0.282-1.368-0.282c-1.589,0-2.645,1.016-2.645,2.796
				c0,1.659,0.955,2.725,2.604,2.725c0.533,0,1.076-0.11,1.428-0.281L214.48,173.71z"/>
			<path d="M215.545,166.792h0.885v3.037h0.021c0.141-0.252,0.362-0.473,0.634-0.624c0.262-0.15,0.572-0.251,0.904-0.251
				c0.654,0,1.699,0.402,1.699,2.082v2.896h-0.885v-2.796c0-0.784-0.291-1.447-1.126-1.447c-0.573,0-1.025,0.402-1.187,0.885
				c-0.051,0.12-0.061,0.251-0.061,0.422v2.937h-0.885V166.792z"/>
			<path d="M224.545,172.766c0,0.422,0.02,0.834,0.08,1.166h-0.805l-0.07-0.613h-0.029c-0.272,0.382-0.795,0.724-1.488,0.724
				c-0.986,0-1.488-0.693-1.488-1.397c0-1.177,1.045-1.82,2.926-1.81v-0.101c0-0.402-0.111-1.127-1.106-1.127
				c-0.452,0-0.925,0.142-1.267,0.362l-0.201-0.583c0.402-0.262,0.985-0.433,1.599-0.433c1.488,0,1.851,1.016,1.851,1.991V172.766z
				 M223.689,171.448c-0.965-0.021-2.061,0.15-2.061,1.096c0,0.573,0.382,0.845,0.834,0.845c0.634,0,1.035-0.402,1.177-0.814
				c0.03-0.091,0.05-0.191,0.05-0.281V171.448z"/>
			<path d="M226.957,167.697c0.01,0.302-0.211,0.543-0.563,0.543c-0.313,0-0.533-0.241-0.533-0.543c0-0.312,0.23-0.553,0.553-0.553
				C226.746,167.145,226.957,167.386,226.957,167.697z M225.972,173.932v-4.867h0.886v4.867H225.972z"/>
			<path d="M228.324,170.382c0-0.503-0.01-0.915-0.039-1.317h0.783l0.051,0.805h0.02c0.242-0.463,0.805-0.915,1.609-0.915
				c0.674,0,1.72,0.402,1.72,2.071v2.906h-0.885v-2.806c0-0.784-0.292-1.438-1.126-1.438c-0.584,0-1.036,0.412-1.188,0.904
				c-0.039,0.111-0.06,0.262-0.06,0.413v2.926h-0.886V170.382z"/>
		</g>
	</g>
	<g>
		<g>
			
				<radialGradient id="path21243_1_" cx="-190.8535" cy="58.6177" r="17.9333" gradientTransform="matrix(0 -1 1 0 267.0625 -27.5811)" gradientUnits="userSpaceOnUse">
				<stop  offset="0" style="stop-color:#FDFBE2"/>
				<stop  offset="0.1203" style="stop-color:#FDFBDC"/>
				<stop  offset="0.2662" style="stop-color:#FDF9CD"/>
				<stop  offset="0.4255" style="stop-color:#FCF5B5"/>
				<stop  offset="0.5943" style="stop-color:#FAEF95"/>
				<stop  offset="0.7706" style="stop-color:#F8E96E"/>
				<stop  offset="0.9506" style="stop-color:#F6E145"/>
				<stop  offset="1" style="stop-color:#F6DF3C"/>
			</radialGradient>
			<path id="path21243" fill="url(#path21243_1_)" stroke="#030403" d="M325.682,145.339c9.904,0,17.932,8.033,17.932,17.934
				c0,9.906-8.027,17.934-17.932,17.934c-9.907,0-17.935-8.027-17.935-17.934C307.748,153.372,315.775,145.339,325.682,145.339z"/>
			<g>
				<g>
					<g>
						<g>
							<path fill="none" stroke="#030403" d="M307.747,190.382l0.233-69.882c0.01-2.75-2.233-5-4.983-5h-22.819"/>
							<polygon fill="#030403" points="304.053,187.561 307.751,189.146 311.461,187.586 307.727,196.351 							"/>
						</g>
					</g>
				</g>
			</g>
		</g>
		<g>
			<path d="M320.277,155.923l-0.634,1.918h-0.814l2.072-6.099h0.95l2.081,6.099h-0.842l-0.651-1.918H320.277z M322.277,155.308
				l-0.598-1.756c-0.136-0.398-0.227-0.76-0.316-1.113h-0.019c-0.091,0.362-0.19,0.733-0.308,1.104l-0.598,1.765H322.277z"/>
			<path d="M325.29,152.412h-1.854v-0.67h4.516v0.67h-1.865v5.429h-0.796V152.412z"/>
			<path d="M328.629,151.814c0.381-0.063,0.879-0.117,1.512-0.117c0.778,0,1.348,0.181,1.71,0.507
				c0.335,0.289,0.534,0.732,0.534,1.275c0,0.552-0.163,0.986-0.471,1.303c-0.416,0.443-1.095,0.67-1.863,0.67
				c-0.236,0-0.453-0.009-0.634-0.055v2.443h-0.788V151.814z M329.417,154.755c0.172,0.046,0.389,0.063,0.651,0.063
				c0.95,0,1.529-0.461,1.529-1.303c0-0.806-0.57-1.194-1.439-1.194c-0.344,0-0.605,0.027-0.741,0.063V154.755z"/>
			<path d="M309.567,167.886c0.235,0.154,0.651,0.316,1.05,0.316c0.579,0,0.851-0.289,0.851-0.651c0-0.38-0.226-0.588-0.814-0.805
				c-0.787-0.281-1.158-0.715-1.158-1.24c0-0.705,0.57-1.284,1.511-1.284c0.443,0,0.833,0.126,1.077,0.271l-0.199,0.579
				c-0.172-0.108-0.488-0.253-0.896-0.253c-0.471,0-0.732,0.271-0.732,0.598c0,0.361,0.262,0.524,0.832,0.741
				c0.76,0.29,1.148,0.67,1.148,1.321c0,0.77-0.597,1.321-1.637,1.321c-0.48,0-0.924-0.127-1.23-0.308L309.567,167.886z"/>
			<path d="M313.549,164.32l0.959,2.588c0.1,0.29,0.209,0.634,0.281,0.896h0.018c0.082-0.263,0.172-0.598,0.281-0.914l0.868-2.57
				h0.842l-1.194,3.122c-0.57,1.502-0.959,2.271-1.502,2.742c-0.39,0.344-0.778,0.479-0.978,0.516l-0.199-0.67
				c0.199-0.063,0.462-0.19,0.696-0.389c0.218-0.172,0.489-0.479,0.67-0.887c0.036-0.082,0.063-0.146,0.063-0.19
				s-0.019-0.108-0.054-0.208l-1.62-4.036H313.549z"/>
			<path d="M317.521,165.506c0-0.452-0.009-0.823-0.035-1.186h0.705l0.045,0.725h0.019c0.218-0.417,0.724-0.823,1.448-0.823
				c0.605,0,1.547,0.361,1.547,1.863v2.615h-0.797v-2.524c0-0.706-0.262-1.294-1.014-1.294c-0.523,0-0.932,0.371-1.066,0.814
				c-0.037,0.1-0.055,0.235-0.055,0.371v2.633h-0.797V165.506z"/>
			<path d="M323.467,163.271v1.049h1.141v0.606h-1.141v2.362c0,0.543,0.154,0.851,0.598,0.851c0.217,0,0.344-0.019,0.461-0.055
				l0.037,0.597c-0.154,0.063-0.398,0.118-0.706,0.118c-0.371,0-0.669-0.127-0.86-0.344c-0.226-0.235-0.307-0.624-0.307-1.141
				v-2.389h-0.679v-0.606h0.679v-0.805L323.467,163.271z"/>
			<path d="M325.504,162.275h0.796v2.733h0.019c0.126-0.227,0.325-0.426,0.569-0.562c0.235-0.136,0.516-0.226,0.814-0.226
				c0.588,0,1.529,0.361,1.529,1.872v2.606h-0.796v-2.516c0-0.706-0.263-1.303-1.014-1.303c-0.516,0-0.924,0.362-1.068,0.796
				c-0.045,0.108-0.054,0.227-0.054,0.38v2.643h-0.796V162.275z"/>
			<path d="M333.602,167.65c0,0.38,0.019,0.751,0.073,1.05h-0.724l-0.064-0.552h-0.026c-0.244,0.344-0.715,0.651-1.339,0.651
				c-0.887,0-1.34-0.624-1.34-1.258c0-1.059,0.941-1.638,2.633-1.629v-0.09c0-0.362-0.1-1.014-0.994-1.014
				c-0.408,0-0.833,0.126-1.141,0.325l-0.182-0.524c0.362-0.235,0.887-0.389,1.439-0.389c1.339,0,1.664,0.913,1.664,1.791V167.65z
				 M332.833,166.465c-0.868-0.018-1.854,0.136-1.854,0.986c0,0.516,0.344,0.761,0.75,0.761c0.57,0,0.933-0.362,1.06-0.733
				c0.026-0.081,0.045-0.172,0.045-0.253V166.465z"/>
			<path d="M334.779,167.886c0.234,0.154,0.651,0.316,1.049,0.316c0.58,0,0.852-0.289,0.852-0.651c0-0.38-0.227-0.588-0.814-0.805
				c-0.787-0.281-1.158-0.715-1.158-1.24c0-0.705,0.57-1.284,1.511-1.284c0.443,0,0.833,0.126,1.077,0.271l-0.199,0.579
				c-0.172-0.108-0.488-0.253-0.896-0.253c-0.471,0-0.732,0.271-0.732,0.598c0,0.361,0.262,0.524,0.832,0.741
				c0.76,0.29,1.149,0.67,1.149,1.321c0,0.77-0.597,1.321-1.638,1.321c-0.479,0-0.923-0.127-1.23-0.308L334.779,167.886z"/>
			<path d="M338.914,166.655c0.019,1.077,0.706,1.521,1.502,1.521c0.57,0,0.914-0.1,1.213-0.227l0.136,0.57
				c-0.28,0.126-0.76,0.28-1.456,0.28c-1.35,0-2.154-0.896-2.154-2.217s0.778-2.361,2.055-2.361c1.43,0,1.809,1.257,1.809,2.063
				c0,0.163-0.018,0.29-0.027,0.371H338.914z M341.249,166.085c0.009-0.507-0.208-1.294-1.104-1.294
				c-0.805,0-1.158,0.742-1.221,1.294H341.249z"/>
		</g>
	</g>
	<g>
		<g>
			
				<radialGradient id="path11134_6_" cx="76.9541" cy="-453.3193" r="29.8257" gradientTransform="matrix(0.3664 0 0 0.3664 15.7557 374.166)" gradientUnits="userSpaceOnUse">
				<stop  offset="0" style="stop-color:#FDFBE2"/>
				<stop  offset="0.1203" style="stop-color:#FDFBDC"/>
				<stop  offset="0.2662" style="stop-color:#FDF9CD"/>
				<stop  offset="0.4255" style="stop-color:#FCF5B5"/>
				<stop  offset="0.5943" style="stop-color:#FAEF95"/>
				<stop  offset="0.7706" style="stop-color:#F8E96E"/>
				<stop  offset="0.9506" style="stop-color:#F6E145"/>
				<stop  offset="1" style="stop-color:#F6DF3C"/>
			</radialGradient>
			<path id="path11134_1_" fill="url(#path11134_6_)" stroke="#030403" stroke-width="0.9921" d="M54.879,208.07
				c0,6.035-4.893,10.928-10.926,10.928c-6.036,0-10.93-4.893-10.93-10.928c0-6.031,4.892-10.929,10.93-10.929
				C49.986,197.142,54.879,202.039,54.879,208.07z"/>
			<g>
			</g>
		</g>
		<g>
			<g>
				<path fill="#030403" d="M42.632,210.535c-1.8,0.01-3.054-1.371-3.065-3.422c-0.011-2.152,1.308-3.566,3.118-3.576
					c1.86-0.01,3.064,1.4,3.075,3.412c0.012,2.322-1.399,3.577-3.118,3.586H42.632z M42.668,209.821
					c1.388-0.007,2.165-1.289,2.157-2.827c-0.007-1.348-0.719-2.751-2.177-2.743s-2.175,1.369-2.167,2.837
					c0.008,1.428,0.799,2.741,2.177,2.733H42.668z"/>
				<path fill="#030403" d="M46.485,213.753l-0.002-0.38l0.483-0.474c1.162-1.118,1.694-1.712,1.69-2.401
					c-0.002-0.464-0.223-0.891-0.905-0.888c-0.415,0.003-0.758,0.215-0.969,0.393l-0.199-0.436c0.308-0.262,0.764-0.469,1.292-0.471
					c0.978-0.006,1.396,0.667,1.399,1.321c0.004,0.845-0.604,1.529-1.563,2.464l-0.356,0.34v0.014l2.047-0.012l0.003,0.514
					L46.485,213.753z"/>
				<path fill="#030403" d="M51.681,204.904l0.002,0.45l-1.738,0.009l-0.002-0.45L51.681,204.904z"/>
			</g>
			<g>
				<path d="M38.644,206.668c0,0.502-0.399,0.857-0.932,0.857c-0.547,0-0.931-0.37-0.931-0.888s0.384-0.872,0.931-0.872
					c0.532,0,0.932,0.34,0.932,0.887V206.668z"/>
			</g>
		</g>
	</g>
	<g>
		
			<radialGradient id="path16609_5_" cx="55.7529" cy="-513.5605" r="16.186" gradientTransform="matrix(1.5933 0 0 0.6358 -44.6411 380.3484)" gradientUnits="userSpaceOnUse">
			<stop  offset="0" style="stop-color:#FEFCE1"/>
			<stop  offset="0.1203" style="stop-color:#FFFCDD"/>
			<stop  offset="0.2662" style="stop-color:#FFF9CD"/>
			<stop  offset="0.4255" style="stop-color:#FFF7B2"/>
			<stop  offset="0.5943" style="stop-color:#FFF093"/>
			<stop  offset="0.7706" style="stop-color:#FDE967"/>
			<stop  offset="0.9506" style="stop-color:#FBE134"/>
			<stop  offset="1" style="stop-color:#FADE2F"/>
		</radialGradient>
		<path id="path16609_2_" fill="url(#path16609_5_)" stroke="#030403" d="M69.505,53.827c0,5.785-11.338,10.477-25.316,10.477
			c-13.98,0-25.314-4.689-25.314-10.477c0-5.789,11.334-10.477,25.314-10.477C58.167,43.353,69.505,48.04,69.505,53.827z"/>
		<g>
			<path d="M35.522,48.361v2.818h3.258v-2.818h0.879v6.736h-0.879v-3.158h-3.258v3.158h-0.869v-6.736H35.522z"/>
			<path d="M40.729,58.428v-0.378l0.483-0.469c1.163-1.106,1.688-1.695,1.695-2.381c0-0.462-0.224-0.89-0.903-0.89
				c-0.413,0-0.756,0.21-0.966,0.385l-0.196-0.435c0.315-0.266,0.763-0.462,1.289-0.462c0.98,0,1.394,0.672,1.394,1.324
				c0,0.84-0.609,1.52-1.569,2.444l-0.364,0.336v0.014h2.045v0.511H40.729z"/>
			<path d="M50.521,51.66c0,2.319-1.409,3.548-3.128,3.548c-1.779,0-3.028-1.379-3.028-3.418c0-2.139,1.329-3.538,3.128-3.538
				C49.332,48.251,50.521,49.661,50.521,51.66z M45.293,51.77c0,1.439,0.78,2.729,2.149,2.729c1.379,0,2.159-1.27,2.159-2.798
				c0-1.339-0.7-2.739-2.149-2.739C46.013,48.961,45.293,50.291,45.293,51.77z"/>
			<path d="M51.209,58.428v-0.378l0.483-0.469c1.163-1.106,1.688-1.695,1.695-2.381c0-0.462-0.224-0.89-0.903-0.89
				c-0.413,0-0.756,0.21-0.966,0.385l-0.196-0.435c0.315-0.266,0.763-0.462,1.289-0.462c0.98,0,1.394,0.672,1.394,1.324
				c0,0.84-0.609,1.52-1.569,2.444l-0.364,0.336v0.014h2.045v0.511H51.209z"/>
		</g>
	</g>
	<g>
		<path d="M23.745,86.289c0.39,0.24,0.959,0.44,1.559,0.44c0.89,0,1.409-0.47,1.409-1.149c0-0.629-0.36-0.989-1.269-1.339
			c-1.1-0.39-1.779-0.959-1.779-1.909c0-1.05,0.87-1.829,2.179-1.829c0.69,0,1.189,0.16,1.489,0.33l-0.24,0.71
			c-0.22-0.12-0.669-0.32-1.279-0.32c-0.919,0-1.27,0.549-1.27,1.009c0,0.63,0.41,0.939,1.339,1.299
			c1.14,0.44,1.719,0.989,1.719,1.979c0,1.039-0.77,1.949-2.359,1.949c-0.649,0-1.359-0.2-1.719-0.439L23.745,86.289z"/>
		<path d="M34.552,83.911c0,2.319-1.409,3.548-3.128,3.548c-1.779,0-3.028-1.379-3.028-3.418c0-2.139,1.329-3.538,3.128-3.538
			C33.362,80.502,34.552,81.912,34.552,83.911z M29.324,84.021c0,1.439,0.78,2.729,2.149,2.729c1.379,0,2.159-1.27,2.159-2.798
			c0-1.339-0.699-2.739-2.148-2.739C30.044,81.212,29.324,82.542,29.324,84.021z"/>
		<path d="M35.685,80.702c0.529-0.08,1.159-0.14,1.849-0.14c1.25,0,2.139,0.29,2.729,0.839c0.6,0.55,0.95,1.329,0.95,2.419
			c0,1.099-0.34,1.999-0.97,2.618c-0.629,0.63-1.669,0.97-2.978,0.97c-0.62,0-1.14-0.03-1.579-0.08V80.702z M36.554,86.659
			c0.22,0.04,0.54,0.05,0.88,0.05c1.859,0,2.868-1.04,2.868-2.858c0.01-1.589-0.89-2.599-2.729-2.599c-0.45,0-0.79,0.04-1.02,0.09
			V86.659z"/>
	</g>
	<g>
		<path d="M28.572,32.296c-0.32,0.16-0.959,0.33-1.779,0.33c-1.899,0-3.328-1.209-3.328-3.418c0-2.109,1.429-3.538,3.518-3.538
			c0.839,0,1.369,0.18,1.599,0.3l-0.21,0.709c-0.33-0.16-0.799-0.28-1.359-0.28c-1.579,0-2.628,1.009-2.628,2.778
			c0,1.649,0.95,2.708,2.588,2.708c0.53,0,1.07-0.11,1.419-0.28L28.572,32.296z"/>
		<path d="M30.794,30.397l-0.7,2.119h-0.899l2.289-6.736h1.049l2.299,6.736h-0.93l-0.719-2.119H30.794z M33.002,29.718l-0.66-1.939
			c-0.15-0.44-0.25-0.84-0.35-1.229h-0.02c-0.1,0.4-0.21,0.81-0.34,1.219l-0.66,1.949H33.002z"/>
		<path d="M36.334,26.52h-2.049v-0.74h4.987v0.74h-2.059v5.997h-0.879V26.52z"/>
	</g>
	<g>
		<path d="M87.707,46.098c-0.39,0.14-1.159,0.37-2.069,0.37c-1.02,0-1.859-0.26-2.519-0.889c-0.58-0.56-0.939-1.459-0.939-2.509
			c0.01-2.009,1.389-3.478,3.648-3.478c0.78,0,1.389,0.17,1.679,0.31l-0.21,0.71c-0.36-0.16-0.81-0.29-1.489-0.29
			c-1.639,0-2.708,1.02-2.708,2.708c0,1.709,1.029,2.719,2.599,2.719c0.57,0,0.959-0.08,1.159-0.18V43.56h-1.369v-0.7h2.219V46.098z
			"/>
		<path d="M89.04,39.742c0.419-0.07,0.969-0.13,1.669-0.13c0.859,0,1.489,0.2,1.889,0.56c0.37,0.32,0.589,0.81,0.589,1.409
			c0,0.61-0.18,1.089-0.52,1.439c-0.46,0.49-1.209,0.739-2.059,0.739c-0.26,0-0.5-0.01-0.7-0.06v2.699H89.04V39.742z M89.909,42.99
			c0.19,0.05,0.43,0.07,0.72,0.07c1.049,0,1.689-0.509,1.689-1.439c0-0.89-0.629-1.319-1.589-1.319c-0.38,0-0.67,0.03-0.82,0.07
			V42.99z"/>
		<path d="M97.918,46.398l-0.86-1.489c-0.35-0.57-0.569-0.939-0.779-1.329h-0.02c-0.19,0.39-0.38,0.75-0.729,1.339l-0.81,1.479h-1
			l2.059-3.408L93.8,39.662h1.01l0.89,1.579c0.25,0.44,0.439,0.78,0.62,1.14h0.03c0.19-0.4,0.36-0.71,0.61-1.14l0.919-1.579h1
			l-2.049,3.278l2.099,3.458H97.918z"/>
	</g>
	<g>
		<g>
			<line fill="none" stroke="#030403" x1="69.5" y1="53.827" x2="111.5" y2="53.827"/>
			<polygon fill="#030403" points="108.691,57.53 110.264,53.827 108.691,50.123 117.469,53.827 			"/>
		</g>
	</g>
	<g>
		<g>
			<line fill="none" stroke="#030403" x1="44.19" y1="43.494" x2="44.189" y2="15.667"/>
			<polygon fill="#030403" points="47.893,18.476 44.189,16.903 40.485,18.476 44.189,9.698 			"/>
		</g>
	</g>
	<g>
		<g>
			<path fill="none" stroke="#000000" stroke-dasharray="3,3" d="M123,148c-16-36.25-54.5-26.25-67.5-11.5"/>
			<polygon points="54.579,131.944 56.317,135.573 60.136,136.842 51.553,140.979 			"/>
		</g>
	</g>
	<g>
		<g>
			<path fill="none" stroke="#000000" d="M220.833,149.5V121c0-2.75,2.25-5,5-5H252"/>
			<polygon points="249.191,119.703 250.764,116 249.191,112.296 257.969,116 			"/>
		</g>
	</g>
	<g>
		<g>
			
				<radialGradient id="path11134_7_" cx="691.168" cy="-706.8467" r="29.8259" gradientTransform="matrix(0.3664 0 0 0.3664 15.7557 374.166)" gradientUnits="userSpaceOnUse">
				<stop  offset="0" style="stop-color:#FDFBE2"/>
				<stop  offset="0.1203" style="stop-color:#FDFBDC"/>
				<stop  offset="0.2662" style="stop-color:#FDF9CD"/>
				<stop  offset="0.4255" style="stop-color:#FCF5B5"/>
				<stop  offset="0.5943" style="stop-color:#FAEF95"/>
				<stop  offset="0.7706" style="stop-color:#F8E96E"/>
				<stop  offset="0.9506" style="stop-color:#F6E145"/>
				<stop  offset="1" style="stop-color:#F6DF3C"/>
			</radialGradient>
			<path id="path11134_3_" fill="url(#path11134_7_)" stroke="#030403" stroke-width="0.9921" d="M279.928,115.178
				c0,6.035-4.894,10.928-10.927,10.928c-6.036,0-10.93-4.893-10.93-10.928c0-6.031,4.892-10.929,10.93-10.929
				C275.034,104.249,279.928,109.146,279.928,115.178z"/>
			<g>
			</g>
		</g>
		<g>
			<g>
				<path fill="#030403" d="M266.252,112.045l0.016,2.836l3.277-0.018l-0.016-2.836l0.886-0.005l0.036,6.777l-0.885,0.005
					l-0.018-3.178l-3.277,0.018l0.017,3.178l-0.885,0.005l-0.036-6.777L266.252,112.045z"/>
				<path fill="#030403" d="M273.488,111.692l0.008,1.653l1.59-0.009l0.003,0.422l-1.59,0.009l0.009,1.667l-0.45,0.003l-0.009-1.667
					l-1.59,0.008l-0.002-0.422l1.59-0.008l-0.01-1.653L273.488,111.692z"/>
			</g>
		</g>
	</g>
	<g>
		<g>
			<path fill="none" stroke="#000000" d="M272.888,218.867c0-24.001-22.804-43.458-50.935-43.458
				c-28.13,0-50.286,14.924-50.286,38.925"/>
			<polygon points="167.964,211.525 171.667,213.098 175.371,211.525 171.667,220.303 			"/>
		</g>
	</g>
	<g>
		<g>
			
				<radialGradient id="path11134_8_" cx="705.9766" cy="-392.7344" r="29.8262" gradientTransform="matrix(0.3664 0 0 0.3664 15.7557 374.166)" gradientUnits="userSpaceOnUse">
				<stop  offset="0" style="stop-color:#FDFBE2"/>
				<stop  offset="0.1203" style="stop-color:#FDFBDC"/>
				<stop  offset="0.2662" style="stop-color:#FDF9CD"/>
				<stop  offset="0.4255" style="stop-color:#FCF5B5"/>
				<stop  offset="0.5943" style="stop-color:#FAEF95"/>
				<stop  offset="0.7706" style="stop-color:#F8E96E"/>
				<stop  offset="0.9506" style="stop-color:#F6E145"/>
				<stop  offset="1" style="stop-color:#F6DF3C"/>
			</radialGradient>
			<path id="path11134_4_" fill="url(#path11134_8_)" stroke="#030403" stroke-width="0.9921" d="M285.354,230.269
				c0,6.035-4.894,10.928-10.927,10.928c-6.036,0-10.93-4.893-10.93-10.928c0-6.031,4.892-10.929,10.93-10.929
				C280.46,219.34,285.354,224.237,285.354,230.269z"/>
			<g>
			</g>
		</g>
		<g>
			<g>
				<path fill="#030403" d="M273.572,232.999c-1.801,0.01-3.055-1.371-3.066-3.422c-0.011-2.152,1.309-3.566,3.119-3.576
					c1.859-0.01,3.064,1.4,3.075,3.412c0.013,2.322-1.399,3.577-3.118,3.586H273.572z M273.608,232.285
					c1.388-0.007,2.165-1.289,2.157-2.827c-0.008-1.348-0.719-2.751-2.178-2.743c-1.457,0.008-2.174,1.369-2.166,2.837
					c0.008,1.428,0.799,2.741,2.176,2.733H273.608z"/>
				<path fill="#030403" d="M277.425,236.217l-0.003-0.38l0.483-0.474c1.162-1.118,1.694-1.712,1.69-2.401
					c-0.003-0.464-0.224-0.891-0.906-0.888c-0.414,0.003-0.758,0.216-0.969,0.393l-0.199-0.436c0.309-0.262,0.765-0.468,1.293-0.471
					c0.977-0.006,1.396,0.667,1.398,1.321c0.005,0.845-0.604,1.529-1.563,2.464l-0.355,0.34v0.014l2.047-0.012l0.002,0.514
					L277.425,236.217z"/>
			</g>
		</g>
	</g>
	<g>
		
			<radialGradient id="path16609_6_" cx="135.4619" cy="-235.957" r="16.1858" gradientTransform="matrix(1.5933 0 0 0.6358 -44.6411 380.3484)" gradientUnits="userSpaceOnUse">
			<stop  offset="0" style="stop-color:#FEFCE1"/>
			<stop  offset="0.1203" style="stop-color:#FFFCDD"/>
			<stop  offset="0.2662" style="stop-color:#FFF9CD"/>
			<stop  offset="0.4255" style="stop-color:#FFF7B2"/>
			<stop  offset="0.5943" style="stop-color:#FFF093"/>
			<stop  offset="0.7706" style="stop-color:#FDE967"/>
			<stop  offset="0.9506" style="stop-color:#FBE134"/>
			<stop  offset="1" style="stop-color:#FADE2F"/>
		</radialGradient>
		<path id="path16609_3_" fill="url(#path16609_6_)" stroke="#030403" d="M196.505,230.327c0,5.785-11.338,10.477-25.316,10.477
			c-13.98,0-25.314-4.689-25.314-10.477c0-5.789,11.334-10.477,25.314-10.477C185.167,219.853,196.505,224.54,196.505,230.327z"/>
		<g>
			<path d="M164.318,224.861v2.818h3.258v-2.818h0.879v6.736h-0.879v-3.158h-3.258v3.158h-0.869v-6.736H164.318z"/>
			<path d="M169.524,234.928v-0.379l0.483-0.469c1.163-1.106,1.688-1.695,1.695-2.381c0-0.463-0.224-0.89-0.903-0.89
				c-0.413,0-0.756,0.21-0.966,0.386l-0.196-0.436c0.315-0.266,0.763-0.461,1.289-0.461c0.98,0,1.394,0.672,1.394,1.323
				c0,0.841-0.609,1.52-1.569,2.444l-0.364,0.336v0.014h2.045v0.512H169.524z"/>
			<path d="M179.316,228.16c0,2.318-1.409,3.547-3.128,3.547c-1.779,0-3.028-1.379-3.028-3.418c0-2.139,1.329-3.537,3.128-3.537
				C178.127,224.752,179.316,226.16,179.316,228.16z M174.089,228.27c0,1.439,0.78,2.729,2.149,2.729
				c1.379,0,2.159-1.27,2.159-2.799c0-1.339-0.699-2.738-2.148-2.738C174.809,225.461,174.089,226.791,174.089,228.27z"/>
		</g>
	</g>
	<g>
		<g>
			<path fill="none" stroke="#000000" d="M181.5,190.5C156.291,208.5,75.117,207,61,207"/>
			<polygon points="63.809,203.297 62.236,207 63.809,210.704 55.031,207 			"/>
		</g>
	</g>
	<g>
		<path d="M368.635,119.803c0.01,0.3-0.211,0.54-0.561,0.54c-0.31,0-0.529-0.24-0.529-0.54c0-0.31,0.23-0.549,0.55-0.549
			C368.424,119.254,368.635,119.494,368.635,119.803z M367.654,126v-4.837h0.88V126H367.654z"/>
		<path d="M369.994,122.472c0-0.5-0.01-0.91-0.039-1.31h0.779l0.05,0.8h0.021c0.239-0.46,0.799-0.91,1.599-0.91
			c0.67,0,1.709,0.4,1.709,2.059V126h-0.88v-2.789c0-0.779-0.289-1.429-1.119-1.429c-0.58,0-1.029,0.41-1.18,0.899
			c-0.039,0.11-0.06,0.26-0.06,0.41V126h-0.88V122.472z"/>
		<path d="M376.564,120.003v1.159h1.26v0.67h-1.26v2.608c0,0.6,0.17,0.939,0.66,0.939c0.239,0,0.379-0.02,0.51-0.06l0.039,0.66
			c-0.17,0.07-0.439,0.13-0.779,0.13c-0.41,0-0.74-0.14-0.949-0.38c-0.25-0.26-0.34-0.689-0.34-1.259v-2.638h-0.75v-0.67h0.75v-0.89
			L376.564,120.003z"/>
		<path d="M379.244,123.741c0.021,1.189,0.78,1.679,1.66,1.679c0.629,0,1.009-0.11,1.339-0.25l0.149,0.63
			c-0.31,0.14-0.84,0.31-1.609,0.31c-1.488,0-2.378-0.989-2.378-2.449c0-1.459,0.859-2.608,2.269-2.608
			c1.579,0,1.999,1.389,1.999,2.279c0,0.18-0.021,0.32-0.03,0.41H379.244z M381.823,123.112c0.011-0.56-0.229-1.429-1.22-1.429
			c-0.889,0-1.279,0.819-1.349,1.429H381.823z"/>
		<path d="M383.765,122.672c0-0.57-0.01-1.06-0.04-1.509h0.77l0.03,0.95h0.04c0.22-0.65,0.75-1.06,1.34-1.06
			c0.1,0,0.169,0.01,0.249,0.03v0.83c-0.09-0.02-0.18-0.03-0.3-0.03c-0.619,0-1.06,0.47-1.18,1.129
			c-0.02,0.12-0.039,0.26-0.039,0.41V126h-0.87V122.672z"/>
		<path d="M387.074,122.472c0-0.5-0.01-0.91-0.039-1.31h0.779l0.05,0.8h0.021c0.239-0.46,0.799-0.91,1.599-0.91
			c0.67,0,1.709,0.4,1.709,2.059V126h-0.88v-2.789c0-0.779-0.289-1.429-1.119-1.429c-0.58,0-1.029,0.41-1.18,0.899
			c-0.039,0.11-0.06,0.26-0.06,0.41V126h-0.88V122.472z"/>
		<path d="M396.023,124.841c0,0.419,0.02,0.83,0.079,1.159h-0.8l-0.069-0.61h-0.03c-0.27,0.38-0.789,0.72-1.479,0.72
			c-0.98,0-1.48-0.689-1.48-1.389c0-1.169,1.04-1.809,2.909-1.799v-0.1c0-0.4-0.11-1.12-1.1-1.12c-0.45,0-0.919,0.14-1.259,0.36
			l-0.2-0.58c0.399-0.26,0.979-0.43,1.589-0.43c1.479,0,1.84,1.009,1.84,1.979V124.841z M395.174,123.531
			c-0.96-0.02-2.049,0.15-2.049,1.089c0,0.57,0.379,0.84,0.829,0.84c0.63,0,1.029-0.4,1.169-0.81c0.03-0.09,0.051-0.19,0.051-0.28
			V123.531z"/>
		<path d="M397.444,118.904h0.88V126h-0.88V118.904z"/>
		<path d="M360.74,134.472c0-0.5-0.01-0.91-0.041-1.31h0.77l0.041,0.78h0.029c0.27-0.46,0.72-0.89,1.52-0.89
			c0.66,0,1.159,0.4,1.369,0.969h0.02c0.15-0.27,0.34-0.479,0.54-0.629c0.29-0.22,0.61-0.34,1.069-0.34
			c0.641,0,1.59,0.42,1.59,2.099V138h-0.859v-2.738c0-0.93-0.34-1.489-1.05-1.489c-0.5,0-0.89,0.37-1.04,0.799
			c-0.039,0.12-0.069,0.28-0.069,0.44V138h-0.86v-2.898c0-0.77-0.34-1.329-1.009-1.329c-0.55,0-0.95,0.439-1.089,0.879
			c-0.051,0.13-0.07,0.28-0.07,0.43V138h-0.859V134.472z"/>
		<path d="M369.569,135.741c0.021,1.189,0.78,1.679,1.659,1.679c0.63,0,1.01-0.11,1.34-0.25l0.149,0.63
			c-0.31,0.14-0.84,0.31-1.609,0.31c-1.489,0-2.378-0.989-2.378-2.449c0-1.459,0.859-2.608,2.268-2.608c1.58,0,2,1.389,2,2.279
			c0,0.18-0.021,0.32-0.03,0.41H369.569z M372.148,135.112c0.01-0.56-0.23-1.429-1.22-1.429c-0.89,0-1.279,0.819-1.349,1.429
			H372.148z"/>
		<path d="M374.09,134.472c0-0.5-0.01-0.91-0.04-1.31h0.77l0.04,0.78h0.03c0.27-0.46,0.72-0.89,1.519-0.89
			c0.66,0,1.16,0.4,1.369,0.969h0.021c0.149-0.27,0.34-0.479,0.54-0.629c0.289-0.22,0.609-0.34,1.069-0.34
			c0.64,0,1.589,0.42,1.589,2.099V138h-0.859v-2.738c0-0.93-0.34-1.489-1.049-1.489c-0.5,0-0.891,0.37-1.04,0.799
			c-0.04,0.12-0.069,0.28-0.069,0.44V138h-0.86v-2.898c0-0.77-0.34-1.329-1.009-1.329c-0.551,0-0.95,0.439-1.09,0.879
			c-0.051,0.13-0.07,0.28-0.07,0.43V138h-0.859V134.472z"/>
		<path d="M382.43,130.904h0.869v3.039h0.021c0.31-0.54,0.87-0.89,1.649-0.89c1.199,0,2.049,1,2.039,2.469
			c0,1.729-1.09,2.588-2.17,2.588c-0.699,0-1.259-0.27-1.619-0.91h-0.029l-0.04,0.8h-0.76c0.021-0.33,0.04-0.819,0.04-1.25V130.904z
			 M383.299,136.061c0,0.11,0.021,0.22,0.041,0.32c0.17,0.61,0.68,1.029,1.318,1.029c0.92,0,1.47-0.75,1.47-1.859
			c0-0.969-0.5-1.799-1.439-1.799c-0.6,0-1.159,0.41-1.339,1.079c-0.021,0.1-0.051,0.22-0.051,0.36V136.061z"/>
		<path d="M388.119,134.672c0-0.57-0.01-1.06-0.039-1.509h0.77l0.029,0.95h0.041c0.219-0.65,0.749-1.06,1.339-1.06
			c0.1,0,0.17,0.01,0.249,0.03v0.83c-0.09-0.02-0.18-0.03-0.299-0.03c-0.62,0-1.06,0.47-1.18,1.129c-0.02,0.12-0.04,0.26-0.04,0.41
			V138h-0.87V134.672z"/>
		<path d="M394.738,136.841c0,0.419,0.02,0.83,0.079,1.159h-0.8l-0.069-0.61h-0.03c-0.27,0.38-0.789,0.72-1.479,0.72
			c-0.98,0-1.48-0.689-1.48-1.389c0-1.169,1.04-1.809,2.909-1.799v-0.1c0-0.4-0.11-1.12-1.1-1.12c-0.45,0-0.919,0.14-1.259,0.36
			l-0.2-0.58c0.399-0.26,0.979-0.43,1.589-0.43c1.479,0,1.84,1.009,1.84,1.979V136.841z M393.889,135.531
			c-0.96-0.02-2.049,0.15-2.049,1.089c0,0.57,0.379,0.84,0.829,0.84c0.63,0,1.029-0.4,1.169-0.81c0.03-0.09,0.051-0.19,0.051-0.28
			V135.531z"/>
		<path d="M396.16,134.472c0-0.5-0.01-0.91-0.041-1.31h0.78l0.05,0.8h0.02c0.24-0.46,0.801-0.91,1.6-0.91
			c0.67,0,1.709,0.4,1.709,2.059V138h-0.879v-2.789c0-0.779-0.29-1.429-1.119-1.429c-0.58,0-1.03,0.41-1.18,0.899
			c-0.041,0.11-0.061,0.26-0.061,0.41V138h-0.879V134.472z"/>
		<path d="M402.199,135.741c0.02,1.189,0.779,1.679,1.659,1.679c0.63,0,1.009-0.11,1.339-0.25l0.15,0.63
			c-0.311,0.14-0.84,0.31-1.609,0.31c-1.488,0-2.379-0.989-2.379-2.449c0-1.459,0.859-2.608,2.27-2.608
			c1.578,0,1.998,1.389,1.998,2.279c0,0.18-0.02,0.32-0.029,0.41H402.199z M404.777,135.112c0.011-0.56-0.229-1.429-1.219-1.429
			c-0.89,0-1.279,0.819-1.35,1.429H404.777z"/>
	</g>
	<g>
		<g>
			<line fill="none" stroke="#030403" x1="43.834" y1="98.327" x2="43.833" y2="70.5"/>
			<polygon fill="#030403" points="47.537,73.309 43.833,71.736 40.129,73.309 43.833,64.531 			"/>
		</g>
	</g>
</g>
</svg>
