<?xml version="1.0" encoding="utf-8"?>
<!-- Generator: Adobe Illustrator 13.0.0, SVG Export Plug-In . SVG Version: 6.00 Build 14948)  -->
<!DOCTYPE svg PUBLIC "-//W3C//DTD SVG 1.1//EN" "http://www.w3.org/Graphics/SVG/1.1/DTD/svg11.dtd">
<svg version="1.1"
	 id="svg3929" xmlns:rdf="http://www.w3.org/1999/02/22-rdf-syntax-ns#" xmlns:sodipodi="http://inkscape.sourceforge.net/DTD/sodipodi-0.dtd" xmlns:cc="http://web.resource.org/cc/" xmlns:xml="http://www.w3.org/XML/1998/namespace" xmlns:inkscape="http://www.inkscape.org/namespaces/inkscape" xmlns:svg="http://www.w3.org/2000/svg" xmlns:dc="http://purl.org/dc/elements/1.1/" sodipodi:docbase="C:\DOCUME~1\pvil005\Desktop\REPOSI~1\SIGNAL~1" sodipodi:version="0.32" sodipodi:docname="BHALLA~3.SVG" inkscape:version="0.40+cvs" xmlns:ns1="http://ns.adobe.com/Flows/1.0/"
	 xmlns="http://www.w3.org/2000/svg" xmlns:xlink="http://www.w3.org/1999/xlink" x="0px" y="0px" width="378px" height="326px"
	 viewBox="197.445 261.138 378 326" enable-background="new 197.445 261.138 378 326" xml:space="preserve">
<sodipodi:namedview  pagecolor="#ffffff" inkscape:cx="423.84667" bordercolor="#666666" borderopacity="1.0" inkscape:zoom="1.7863237" inkscape:cy="628.11104" id="base" inkscape:current-layer="layer1" inkscape:window-x="45" inkscape:window-width="1223" inkscape:window-height="917" inkscape:pageshadow="2" inkscape:pageopacity="0.0" inkscape:window-y="4" inkscape:document-units="px">
	</sodipodi:namedview>
<g id="g10290" transform="translate(27.80632,22.81544)">
	
		<radialGradient id="path9489_1_" cx="73.4783" cy="377.666" r="9.1878" gradientTransform="matrix(1.3465 0 0 -1.3639 101.532 936.2523)" gradientUnits="userSpaceOnUse">
		<stop  offset="0" style="stop-color:#A2FF5F"/>
		<stop  offset="0.3165" style="stop-color:#A0FF5F"/>
		<stop  offset="0.472" style="stop-color:#98FD5F"/>
		<stop  offset="0.5923" style="stop-color:#8BFA5E"/>
		<stop  offset="0.6947" style="stop-color:#78F75E"/>
		<stop  offset="0.7855" style="stop-color:#60F25D"/>
		<stop  offset="0.8682" style="stop-color:#42EC5C"/>
		<stop  offset="0.9432" style="stop-color:#20E55B"/>
		<stop  offset="1" style="stop-color:#00DF5A"/>
	</radialGradient>
	<path id="path9489" fill="url(#path9489_1_)" stroke="#000000" d="M215.731,421.154c0,4.787-6.83,8.67-15.258,8.67
		s-15.261-3.885-15.261-8.67c0-4.791,6.832-8.671,15.261-8.671S215.731,416.363,215.731,421.154"/>
	<g id="g10284">
		<g id="g10712">
			<g enable-background="new    ">
				<path d="M191.784,417.003c0.419-0.08,0.969-0.14,1.669-0.14c0.859,0,1.489,0.2,1.889,0.56c0.37,0.319,0.6,0.81,0.6,1.409
					c0,0.609-0.18,1.09-0.53,1.439c-0.46,0.489-1.209,0.739-2.059,0.739c-0.26,0-0.5-0.01-0.7-0.06v2.698h-0.869V417.003z
					 M192.653,420.241c0.19,0.05,0.44,0.07,0.72,0.07c1.06,0,1.689-0.52,1.689-1.43c0-0.899-0.629-1.329-1.589-1.329
					c-0.38,0-0.67,0.04-0.82,0.07V420.241z"/>
				<path d="M197.094,416.913h0.879v6.007h2.878v0.729h-3.758V416.913z"/>
				<path d="M202.933,421.53l-0.7,2.119h-0.899l2.289-6.736h1.049l2.299,6.736h-0.93l-0.719-2.119H202.933z M205.141,420.851
					l-0.669-1.938c-0.14-0.439-0.24-0.84-0.34-1.229h-0.03c-0.09,0.39-0.2,0.81-0.33,1.22l-0.66,1.948H205.141z"/>
				<path d="M207.519,426.979v-0.378l0.483-0.47c1.163-1.106,1.695-1.694,1.695-2.381c0-0.463-0.217-0.89-0.896-0.89
					c-0.413,0-0.756,0.21-0.966,0.385l-0.196-0.434c0.308-0.26,0.764-0.463,1.289-0.463c0.973,0,1.387,0.673,1.387,1.324
					c0,0.841-0.609,1.52-1.569,2.444l-0.357,0.336v0.014h2.038v0.512H207.519z"/>
			</g>
			<g enable-background="new    ">
			</g>
		</g>
	</g>
</g>
<g>
	
		<radialGradient id="path31151_1_" cx="275.6743" cy="-39.5186" r="15.5576" gradientTransform="matrix(0.9108 0 0 0.8738 -6.8754 374.2808)" gradientUnits="userSpaceOnUse">
		<stop  offset="0" style="stop-color:#FFDD9F"/>
		<stop  offset="0.2912" style="stop-color:#FFDB9D"/>
		<stop  offset="0.4343" style="stop-color:#FFD398"/>
		<stop  offset="0.545" style="stop-color:#FFC68E"/>
		<stop  offset="0.6392" style="stop-color:#FFB381"/>
		<stop  offset="0.7229" style="stop-color:#FF9B70"/>
		<stop  offset="0.799" style="stop-color:#FF7D5A"/>
		<stop  offset="0.8695" style="stop-color:#FF5A41"/>
		<stop  offset="0.9348" style="stop-color:#FF3123"/>
		<stop  offset="0.9951" style="stop-color:#FF0403"/>
		<stop  offset="1" style="stop-color:#FF0000"/>
	</radialGradient>
	<path id="path31151" fill="url(#path31151_1_)" stroke="#000000" d="M255.325,334.294l6.409,5.398l-5.674,4.939l-0.603,0.328
		c-2.827,2.48-7.613,4.111-13.045,4.111c-8.686,0-15.729-4.174-15.729-9.322s7.042-9.322,15.729-9.322
		c4.994,0,9.443,1.379,12.325,3.531L255.325,334.294z"/>
	<g enable-background="new    ">
		<path d="M238.145,339.727c-0.05-0.939-0.11-2.079-0.11-2.909h-0.02c-0.24,0.78-0.51,1.63-0.85,2.559l-1.189,3.269h-0.66
			l-1.099-3.208c-0.32-0.96-0.58-1.819-0.77-2.619h-0.02c-0.02,0.84-0.07,1.959-0.13,2.979l-0.18,2.889h-0.83l0.47-6.736h1.109
			l1.149,3.258c0.28,0.83,0.5,1.569,0.68,2.27h0.02c0.18-0.68,0.42-1.42,0.72-2.27l1.199-3.258h1.109l0.42,6.736h-0.86
			L238.145,339.727z"/>
		<path d="M241.598,340.565l-0.7,2.119h-0.899l2.289-6.736h1.049l2.299,6.736h-0.93l-0.719-2.119H241.598z M243.806,339.886
			l-0.669-1.938c-0.14-0.439-0.24-0.84-0.34-1.229h-0.03c-0.09,0.39-0.2,0.81-0.33,1.22l-0.66,1.948H243.806z"/>
		<path d="M246.628,336.038c0.419-0.08,0.969-0.14,1.669-0.14c0.859,0,1.489,0.2,1.889,0.56c0.37,0.319,0.6,0.81,0.6,1.409
			c0,0.609-0.18,1.09-0.53,1.439c-0.46,0.489-1.209,0.739-2.059,0.739c-0.26,0-0.5-0.01-0.7-0.06v2.698h-0.869V336.038z
			 M247.498,339.276c0.19,0.05,0.44,0.07,0.72,0.07c1.06,0,1.689-0.52,1.689-1.43c0-0.899-0.629-1.329-1.589-1.329
			c-0.38,0-0.67,0.04-0.82,0.07V339.276z"/>
		<path d="M251.948,335.948h0.869v3.248h0.03c0.18-0.26,0.36-0.5,0.53-0.72l2.059-2.528h1.08l-2.439,2.858l2.629,3.878h-1.03
			l-2.208-3.309l-0.65,0.74v2.568h-0.869V335.948z"/>
	</g>
</g>
<radialGradient id="path10300_1_" cx="101.2847" cy="400.4814" r="9.1881" gradientTransform="matrix(1.3465 0 0 -1.3639 164.4772 1023.9747)" gradientUnits="userSpaceOnUse">
	<stop  offset="0" style="stop-color:#A2FF5F"/>
	<stop  offset="0.3165" style="stop-color:#A0FF5F"/>
	<stop  offset="0.472" style="stop-color:#98FD5F"/>
	<stop  offset="0.5923" style="stop-color:#8BFA5E"/>
	<stop  offset="0.6947" style="stop-color:#78F75E"/>
	<stop  offset="0.7855" style="stop-color:#60F25D"/>
	<stop  offset="0.8682" style="stop-color:#42EC5C"/>
	<stop  offset="0.9432" style="stop-color:#20E55B"/>
	<stop  offset="1" style="stop-color:#00DF5A"/>
</radialGradient>
<path id="path10300" fill="url(#path10300_1_)" stroke="#000000" d="M316.117,477.758c0,4.787-6.829,8.67-15.258,8.67
	c-8.429,0-15.261-3.884-15.261-8.67c0-4.79,6.832-8.671,15.261-8.671C309.288,469.087,316.117,472.968,316.117,477.758"/>
<g id="g10302">
	<g id="g10696">
		<g enable-background="new    ">
			<path d="M293.953,473.606c0.419-0.08,0.969-0.14,1.669-0.14c0.859,0,1.489,0.2,1.889,0.56c0.37,0.319,0.6,0.81,0.6,1.409
				c0,0.609-0.18,1.09-0.53,1.439c-0.46,0.489-1.209,0.739-2.059,0.739c-0.26,0-0.5-0.01-0.7-0.06v2.698h-0.869V473.606z
				 M294.822,476.845c0.19,0.05,0.44,0.07,0.72,0.07c1.06,0,1.689-0.52,1.689-1.43c0-0.899-0.629-1.329-1.589-1.329
				c-0.38,0-0.67,0.04-0.82,0.07V476.845z"/>
			<path d="M300.142,473.517v6.736h-0.879v-6.736H300.142z"/>
			<path d="M301.663,473.606c0.419-0.08,0.969-0.14,1.669-0.14c0.859,0,1.489,0.2,1.889,0.56c0.37,0.319,0.6,0.81,0.6,1.409
				c0,0.609-0.18,1.09-0.53,1.439c-0.46,0.489-1.209,0.739-2.059,0.739c-0.26,0-0.5-0.01-0.7-0.06v2.698h-0.869V473.606z
				 M302.532,476.845c0.19,0.05,0.44,0.07,0.72,0.07c1.06,0,1.689-0.52,1.689-1.43c0-0.899-0.629-1.329-1.589-1.329
				c-0.38,0-0.67,0.04-0.82,0.07V476.845z"/>
			<path d="M306.538,483.583v-0.378l0.483-0.47c1.163-1.106,1.695-1.694,1.695-2.381c0-0.463-0.217-0.89-0.896-0.89
				c-0.413,0-0.756,0.21-0.966,0.385l-0.196-0.434c0.308-0.26,0.764-0.463,1.289-0.463c0.973,0,1.387,0.673,1.387,1.324
				c0,0.841-0.609,1.52-1.569,2.444l-0.357,0.336v0.014h2.038v0.512H306.538z"/>
			<path d="M313.102,473.757l-0.949,1.239v0.02l1.509-0.2v0.68l-1.509-0.18v0.021l0.959,1.209l-0.63,0.35l-0.609-1.399h-0.02
				l-0.64,1.409l-0.57-0.359l0.949-1.22v-0.02l-1.479,0.189v-0.68l1.469,0.19v-0.021l-0.939-1.229l0.609-0.34l0.62,1.379h0.02
				l0.61-1.39L313.102,473.757z"/>
		</g>
		<g enable-background="new    ">
		</g>
	</g>
</g>
<g>
	
		<radialGradient id="path10881_1_" cx="101.3208" cy="399.1768" r="9.1881" gradientTransform="matrix(1.3465 0 0 -1.3639 327.2682 962.7345)" gradientUnits="userSpaceOnUse">
		<stop  offset="0" style="stop-color:#A2FF5F"/>
		<stop  offset="0.3165" style="stop-color:#A0FF5F"/>
		<stop  offset="0.472" style="stop-color:#98FD5F"/>
		<stop  offset="0.5923" style="stop-color:#8BFA5E"/>
		<stop  offset="0.6947" style="stop-color:#78F75E"/>
		<stop  offset="0.7855" style="stop-color:#60F25D"/>
		<stop  offset="0.8682" style="stop-color:#42EC5C"/>
		<stop  offset="0.9432" style="stop-color:#20E55B"/>
		<stop  offset="1" style="stop-color:#00DF5A"/>
	</radialGradient>
	<path id="path10881" fill="url(#path10881_1_)" stroke="#000000" d="M478.957,418.297c0,4.787-6.83,8.671-15.258,8.671
		c-8.43,0-15.262-3.885-15.262-8.671c0-4.79,6.832-8.67,15.262-8.67C472.126,409.627,478.957,413.507,478.957,418.297"/>
	<g id="g10883">
		<g enable-background="new    ">
			<path d="M454.902,414.586c0.539-0.08,1.17-0.14,1.859-0.14c1.249,0,2.139,0.279,2.729,0.829c0.609,0.55,0.959,1.34,0.959,2.429
				c0,1.1-0.35,1.999-0.969,2.619c-0.641,0.629-1.68,0.969-2.988,0.969c-0.631,0-1.141-0.02-1.59-0.079V414.586z M455.781,420.553
				c0.221,0.04,0.541,0.04,0.881,0.04c1.858,0.01,2.867-1.039,2.867-2.858c0.011-1.609-0.889-2.599-2.729-2.599
				c-0.449,0-0.789,0.04-1.02,0.09V420.553z"/>
			<path d="M462.662,419.113l-0.7,2.119h-0.899l2.289-6.736h1.049l2.299,6.736h-0.93l-0.719-2.119H462.662z M464.87,418.434
				l-0.669-1.938c-0.141-0.439-0.24-0.84-0.34-1.229h-0.03c-0.091,0.39-0.2,0.81-0.33,1.22l-0.659,1.948H464.87z"/>
			<path d="M472.679,420.933c-0.391,0.149-1.17,0.37-2.079,0.37c-1.02,0-1.858-0.26-2.519-0.89c-0.58-0.56-0.939-1.459-0.939-2.509
				c0-2.009,1.389-3.479,3.648-3.479c0.779,0,1.398,0.17,1.688,0.311l-0.22,0.709c-0.359-0.17-0.81-0.289-1.489-0.289
				c-1.64,0-2.708,1.019-2.708,2.708c0,1.709,1.02,2.719,2.598,2.719c0.57,0,0.96-0.08,1.16-0.18v-2.01h-1.359v-0.699h2.219V420.933
				z"/>
		</g>
	</g>
</g>
<g>
	
		<radialGradient id="path11130_1_" cx="101.3726" cy="400.6416" r="9.1878" gradientTransform="matrix(1.3465 0 0 -1.3639 402.0563 950.1954)" gradientUnits="userSpaceOnUse">
		<stop  offset="0" style="stop-color:#A2FF5F"/>
		<stop  offset="0.3165" style="stop-color:#A0FF5F"/>
		<stop  offset="0.472" style="stop-color:#98FD5F"/>
		<stop  offset="0.5923" style="stop-color:#8BFA5E"/>
		<stop  offset="0.6947" style="stop-color:#78F75E"/>
		<stop  offset="0.7855" style="stop-color:#60F25D"/>
		<stop  offset="0.8682" style="stop-color:#42EC5C"/>
		<stop  offset="0.9432" style="stop-color:#20E55B"/>
		<stop  offset="1" style="stop-color:#00DF5A"/>
	</radialGradient>
	<path id="path11130" fill="url(#path11130_1_)" stroke="#000000" d="M553.814,403.76c0,4.788-6.828,8.671-15.258,8.671
		c-8.428,0-15.26-3.885-15.26-8.671c0-4.79,6.832-8.67,15.26-8.67C546.986,395.09,553.814,398.97,553.814,403.76"/>
	<g id="g11132">
		<g enable-background="new    ">
			<path d="M534.285,404.576l-0.7,2.119h-0.899l2.289-6.736h1.049l2.299,6.736h-0.93l-0.719-2.119H534.285z M536.493,403.896
				l-0.669-1.938c-0.141-0.439-0.24-0.84-0.34-1.229h-0.03c-0.091,0.39-0.2,0.81-0.33,1.22l-0.659,1.948H536.493z"/>
			<path d="M540.404,404.576l-0.699,2.119h-0.899l2.288-6.736h1.05l2.299,6.736h-0.93l-0.72-2.119H540.404z M542.613,403.896
				l-0.67-1.938c-0.14-0.439-0.239-0.84-0.34-1.229h-0.029c-0.09,0.39-0.2,0.81-0.33,1.22l-0.66,1.948H542.613z"/>
		</g>
	</g>
</g>
<g>
	
		<radialGradient id="path11142_1_" cx="100.9775" cy="400.6426" r="9.1878" gradientTransform="matrix(1.3465 0 0 -1.3639 402.0563 1019.3556)" gradientUnits="userSpaceOnUse">
		<stop  offset="0" style="stop-color:#A2FF5F"/>
		<stop  offset="0.3165" style="stop-color:#A0FF5F"/>
		<stop  offset="0.472" style="stop-color:#98FD5F"/>
		<stop  offset="0.5923" style="stop-color:#8BFA5E"/>
		<stop  offset="0.6947" style="stop-color:#78F75E"/>
		<stop  offset="0.7855" style="stop-color:#60F25D"/>
		<stop  offset="0.8682" style="stop-color:#42EC5C"/>
		<stop  offset="0.9432" style="stop-color:#20E55B"/>
		<stop  offset="1" style="stop-color:#00DF5A"/>
	</radialGradient>
	<path id="path11142" fill="url(#path11142_1_)" stroke="#000000" d="M553.282,472.92c0,4.787-6.828,8.67-15.258,8.67
		c-8.428,0-15.26-3.885-15.26-8.67c0-4.791,6.832-8.671,15.26-8.671C546.454,464.249,553.282,468.129,553.282,472.92"/>
	<g id="g11144">
		<g enable-background="new    ">
			<path d="M531.251,473.735l-0.699,2.119h-0.9l2.289-6.736h1.049l2.299,6.736h-0.93l-0.719-2.119H531.251z M533.46,473.056
				l-0.67-1.938c-0.141-0.439-0.24-0.84-0.34-1.229h-0.029c-0.091,0.39-0.201,0.81-0.33,1.22l-0.66,1.948H533.46z"/>
			<path d="M536.283,469.208c0.419-0.08,0.969-0.14,1.668-0.14c0.859,0,1.49,0.2,1.889,0.56c0.371,0.319,0.601,0.81,0.601,1.409
				c0,0.609-0.181,1.09-0.53,1.439c-0.459,0.489-1.209,0.739-2.059,0.739c-0.26,0-0.5-0.01-0.699-0.06v2.698h-0.869V469.208z
				 M537.152,472.446c0.189,0.05,0.439,0.07,0.719,0.07c1.061,0,1.689-0.52,1.689-1.43c0-0.899-0.629-1.329-1.589-1.329
				c-0.38,0-0.67,0.04-0.819,0.07V472.446z"/>
			<path d="M546.299,475.645c-0.31,0.16-0.96,0.32-1.778,0.32c-1.9,0-3.318-1.2-3.318-3.419c0-2.118,1.429-3.538,3.518-3.538
				c0.83,0,1.369,0.181,1.6,0.3l-0.221,0.71c-0.319-0.16-0.789-0.279-1.35-0.279c-1.578,0-2.628,1.009-2.628,2.778
				c0,1.659,0.95,2.708,2.579,2.708c0.539,0,1.079-0.109,1.429-0.279L546.299,475.645z"/>
		</g>
	</g>
</g>
<path id="path10200" sodipodi:nodetypes="cc" d="M538.38,135.228"/>
<path id="path11157" sodipodi:nodetypes="cc" d="M387.233,151.945"/>
<path id="path11159" sodipodi:nodetypes="cc" d="M406.384,55.628"/>
<path id="path11161" sodipodi:nodetypes="cs" d="M406.384,123.393"/>
<path id="path11163" sodipodi:nodetypes="cc" d="M406.29,164.923"/>
<path id="path11165" sodipodi:nodetypes="cc" d="M405.577,266.811"/>
<path id="path11167" sodipodi:nodetypes="cc" d="M371.449,41.267"/>
<path id="path11169" sodipodi:nodetypes="cc" d="M387.065,302.906"/>
<path id="path87172" sodipodi:nodetypes="cc" d="M444.322,178.094"/>
<path id="path11172" sodipodi:nodetypes="cc" d="M436.021,292.408"/>
<path id="path11174" sodipodi:nodetypes="cc" d="M296.333,104.846"/>
<path id="path11176" sodipodi:nodetypes="cc" d="M301.798,166.492"/>
<path id="path11178" sodipodi:nodetypes="cc" d="M314.924,126.407"/>
<path id="path11180" sodipodi:nodetypes="cc" fill="none" stroke="#000000" stroke-dasharray="3,1" d="M248.279,348.377
	c12.023,20.112,43.791,5.511,43.791,5.511"/>
<path id="path11956" sodipodi:nodetypes="cc" fill="none" stroke="#000000" stroke-dasharray="3,1" d="M420.675,341.273
	c28.258-5.079,79.985,72.643,116.374,82.719"/>
<path id="path11958" sodipodi:nodetypes="cc" fill="none" stroke="#000000" stroke-dasharray="3,1" d="M430.945,373.971
	c26.018,2.197,74.193,47.223,106.104,55.06"/>
<path id="path11960" sodipodi:nodetypes="cc" fill="none" stroke="#000000" stroke-dasharray="3,1" d="M422.914,443.159
	c18.742-0.042,73.828-7.971,114.693-9.65"/>
<path id="path11962" sodipodi:nodetypes="cc" fill="none" stroke="#000000" stroke-dasharray="3,1" d="M427.445,483.971
	c35.535-33.07,109.656-41.559,109.656-41.559"/>
<path id="path11964" sodipodi:nodetypes="cc" fill="none" stroke="#000000" stroke-dasharray="3,1" d="M432.431,548.403
	c22.658-47.626,105.736-106.497,105.736-106.497"/>
<g id="g6365" transform="translate(269.2957,-49.47682)">
</g>
<g id="g6813" transform="translate(269.2957,-49.47682)">
</g>
<g id="g6575" transform="translate(192.5626,135.9151)">
	
		<radialGradient id="path6577_1_" cx="-91.2779" cy="264.5663" r="9.1878" gradientTransform="matrix(1.3465 0 0 -1.3639 321.5947 781.9955)" gradientUnits="userSpaceOnUse">
		<stop  offset="0" style="stop-color:#A2FF5F"/>
		<stop  offset="0.3165" style="stop-color:#A0FF5F"/>
		<stop  offset="0.472" style="stop-color:#98FD5F"/>
		<stop  offset="0.5923" style="stop-color:#8BFA5E"/>
		<stop  offset="0.6947" style="stop-color:#78F75E"/>
		<stop  offset="0.7855" style="stop-color:#60F25D"/>
		<stop  offset="0.8682" style="stop-color:#42EC5C"/>
		<stop  offset="0.9432" style="stop-color:#20E55B"/>
		<stop  offset="1" style="stop-color:#00DF5A"/>
	</radialGradient>
	<path id="path6577" fill="url(#path6577_1_)" stroke="#000000" d="M213.948,421.154c0,4.787-6.829,8.67-15.258,8.67
		c-8.429,0-15.261-3.885-15.261-8.67c0-4.79,6.832-8.671,15.261-8.671C207.119,412.483,213.948,416.364,213.948,421.154"/>
	<g id="g6579">
		<g id="g6581">
			<g enable-background="new    ">
				<path d="M191.784,417.003c0.419-0.08,0.969-0.14,1.669-0.14c0.859,0,1.489,0.2,1.889,0.56c0.37,0.319,0.6,0.81,0.6,1.409
					c0,0.609-0.18,1.09-0.53,1.439c-0.46,0.489-1.209,0.739-2.059,0.739c-0.26,0-0.5-0.01-0.7-0.06v2.698h-0.869V417.003z
					 M192.653,420.241c0.19,0.05,0.44,0.07,0.72,0.07c1.06,0,1.689-0.52,1.689-1.43c0-0.899-0.629-1.329-1.589-1.329
					c-0.38,0-0.67,0.04-0.82,0.07V420.241z"/>
				<path d="M197.973,416.913v6.736h-0.879v-6.736H197.973z"/>
				<path d="M199.494,417.003c0.419-0.08,0.969-0.14,1.669-0.14c0.859,0,1.489,0.2,1.889,0.56c0.37,0.319,0.6,0.81,0.6,1.409
					c0,0.609-0.18,1.09-0.53,1.439c-0.46,0.489-1.209,0.739-2.059,0.739c-0.26,0-0.5-0.01-0.7-0.06v2.698h-0.869V417.003z
					 M200.363,420.241c0.19,0.05,0.44,0.07,0.72,0.07c1.06,0,1.689-0.52,1.689-1.43c0-0.899-0.629-1.329-1.589-1.329
					c-0.38,0-0.67,0.04-0.82,0.07V420.241z"/>
				<path d="M204.369,426.979v-0.378l0.483-0.47c1.163-1.106,1.695-1.694,1.695-2.381c0-0.463-0.217-0.89-0.896-0.89
					c-0.413,0-0.756,0.21-0.966,0.385l-0.196-0.434c0.308-0.26,0.764-0.463,1.289-0.463c0.973,0,1.387,0.673,1.387,1.324
					c0,0.841-0.609,1.52-1.569,2.444l-0.357,0.336v0.014h2.038v0.512H204.369z"/>
			</g>
			<g enable-background="new    ">
			</g>
		</g>
	</g>
</g>
<g id="g6899" transform="translate(0.776188,118.2492)">
	<g id="g6901" transform="translate(269.2957,-49.47682)">
	</g>
	<g id="g6971" transform="translate(217.9944,9.268818)">
		
			<radialGradient id="path6973_1_" cx="-118.2281" cy="272.9634" r="9.1881" gradientTransform="matrix(1.3465 0 0 -1.3639 358.666 793.4489)" gradientUnits="userSpaceOnUse">
			<stop  offset="0" style="stop-color:#A2FF5F"/>
			<stop  offset="0.3165" style="stop-color:#A0FF5F"/>
			<stop  offset="0.472" style="stop-color:#98FD5F"/>
			<stop  offset="0.5923" style="stop-color:#8BFA5E"/>
			<stop  offset="0.6947" style="stop-color:#78F75E"/>
			<stop  offset="0.7855" style="stop-color:#60F25D"/>
			<stop  offset="0.8682" style="stop-color:#42EC5C"/>
			<stop  offset="0.9432" style="stop-color:#20E55B"/>
			<stop  offset="1" style="stop-color:#00DF5A"/>
		</radialGradient>
		<path id="path6973" fill="url(#path6973_1_)" stroke="#000000" d="M214.731,421.154c0,4.787-6.83,8.671-15.258,8.671
			c-8.429,0-15.261-3.885-15.261-8.671c0-4.79,6.832-8.671,15.261-8.671C207.901,412.483,214.731,416.364,214.731,421.154"/>
		<g id="g6975">
			<g enable-background="new    ">
				<path d="M190.784,417.002c0.419-0.08,0.969-0.14,1.669-0.14c0.859,0,1.489,0.2,1.889,0.56c0.37,0.319,0.6,0.81,0.6,1.409
					c0,0.609-0.18,1.09-0.53,1.439c-0.46,0.489-1.209,0.739-2.059,0.739c-0.26,0-0.5-0.01-0.7-0.06v2.698h-0.869V417.002z
					 M191.653,420.241c0.19,0.05,0.44,0.07,0.72,0.07c1.06,0,1.689-0.52,1.689-1.43c0-0.899-0.629-1.329-1.589-1.329
					c-0.38,0-0.67,0.04-0.82,0.07V420.241z"/>
				<path d="M196.094,416.913h0.879v6.007h2.878v0.729h-3.758V416.913z"/>
				<path d="M201.933,421.53l-0.7,2.119h-0.899l2.289-6.736h1.05l2.299,6.736h-0.93l-0.72-2.119H201.933z M204.141,420.85
					l-0.669-1.938c-0.14-0.439-0.239-0.84-0.34-1.229h-0.03c-0.09,0.39-0.199,0.81-0.33,1.22l-0.659,1.948H204.141z"/>
				<path d="M206.519,426.979v-0.378l0.483-0.47c1.162-1.106,1.695-1.694,1.695-2.381c0-0.463-0.217-0.89-0.896-0.89
					c-0.414,0-0.757,0.21-0.967,0.385l-0.196-0.434c0.308-0.26,0.764-0.463,1.289-0.463c0.974,0,1.387,0.673,1.387,1.324
					c0,0.841-0.609,1.52-1.569,2.444l-0.357,0.336v0.014h2.039v0.512H206.519z"/>
			</g>
			<g enable-background="new    ">
			</g>
		</g>
	</g>
</g>
<g>
	<g>
		<line fill="none" stroke="#000000" x1="418.82" y1="533.888" x2="418.82" y2="504.138"/>
		<polygon points="422.524,506.946 418.82,505.374 415.116,506.946 418.82,498.169 		"/>
		<polygon points="415.116,531.079 418.82,532.652 422.523,531.079 418.82,539.857 		"/>
	</g>
</g>
<g>
	<g>
		<line fill="none" stroke="#000000" x1="396.445" y1="443.97" x2="250.195" y2="443.97"/>
		<polygon points="253.003,440.266 251.431,443.97 253.003,447.673 244.226,443.97 		"/>
		<polygon points="393.636,447.674 395.209,443.97 393.636,440.267 402.414,443.97 		"/>
	</g>
</g>
<g>
	<g>
		<line fill="none" stroke="#000000" x1="538.195" y1="457.805" x2="538.195" y2="418.638"/>
		<polygon points="541.899,421.446 538.195,419.874 534.492,421.446 538.195,412.669 		"/>
		<polygon points="534.491,454.996 538.195,456.569 541.898,454.996 538.195,463.774 		"/>
	</g>
</g>
<g>
	<g>
		<path fill="none" stroke="#000000" d="M235.383,429.653c16-31.999,32.052-52.777,59.167-78
			c29.281-27.237,64.667-45.749,102.729-57.849"/>
		<polygon points="395.724,298.186 396.101,294.179 393.479,291.125 402.967,291.996 		"/>
		<polygon points="233.326,425.484 235.936,428.548 239.952,428.798 232.714,434.992 		"/>
	</g>
</g>
<g>
	<g>
		<path fill="none" stroke="#000000" d="M233.253,458.293c13.369,26.737,24.617,46.697,49.438,65.174
			c25.754,19.171,54.129,27.171,86.879,31.421"/>
		<polygon points="366.308,558.199 368.344,554.729 367.261,550.854 375.489,555.656 		"/>
		<polygon points="237.822,459.148 233.806,459.398 231.196,462.461 230.583,452.954 		"/>
	</g>
</g>
<g>
	<g>
		<g>
			<line fill="none" stroke="#000000" x1="418.945" y1="474.263" x2="418.945" y2="459.152"/>
			<polygon points="422.649,461.961 418.945,460.388 415.241,461.961 418.945,453.183 			"/>
			<polygon points="415.241,471.454 418.945,473.027 422.648,471.454 418.945,480.232 			"/>
		</g>
	</g>
	<g>
		<g>
			<path fill="none" stroke="#000000" d="M316.944,469.979c10.42-3.889,32.295-10.032,53.56-10.958
				c25.001-1.089,49.499,5.244,48.407,10.306"/>
			<polygon points="318.281,465.526 318.102,469.547 320.871,472.467 311.352,472.065 			"/>
		</g>
	</g>
</g>
<g>
	<g>
		<path fill="none" stroke="#000000" d="M331.195,413.888c1.839,26.51,12.239,28.613,23.125,30.125"/>
		<polygon points="335.084,416.434 331.28,415.12 327.694,416.946 330.782,407.933 		"/>
	</g>
</g>
<g>
	<g>
		<path fill="none" stroke="#000000" d="M299.07,492.763c-0.25,6.125-0.338,17.699,4.25,27.625
			c4.939,10.686,12.875,20.25,17.875,23.625"/>
		<polygon points="302.656,495.72 299.02,493.997 295.255,495.418 299.313,486.799 		"/>
	</g>
</g>
<g>
	<g>
		<g>
			<line fill="none" stroke="#000000" x1="419.07" y1="428.929" x2="419.07" y2="393.346"/>
			<polygon points="422.774,396.154 419.07,394.581 415.366,396.154 419.07,387.376 			"/>
			<polygon points="415.366,426.12 419.07,427.693 422.773,426.12 419.07,434.898 			"/>
		</g>
	</g>
	<g id="path5958_2_" sodipodi:nodetypes="cc">
		<g>
			<path fill="none" stroke="#000000" d="M419.101,403.541c0.13,10.646,22.031,15.086,22.031,15.086"/>
			<polygon points="437.644,421.699 439.921,418.382 439.116,414.439 446.983,419.813 			"/>
		</g>
	</g>
</g>
<g>
	<g>
		<line fill="none" stroke="#000000" x1="418.82" y1="326.304" x2="418.82" y2="305.721"/>
		<polygon points="418.82,298.66 422.884,308.61 418.82,306.249 414.755,308.61 		"/>
		<polygon points="418.82,333.364 414.755,323.415 418.82,325.776 422.884,323.415 		"/>
	</g>
</g>
<g id="path5958_14_" sodipodi:nodetypes="cc">
	<g>
		<path fill="none" stroke="#000000" d="M418.779,321.317c0.163-11.131,27.518-15.772,27.518-15.772"/>
		<polygon points="444.147,309.667 445.078,305.752 442.908,302.363 452.181,304.546 		"/>
	</g>
</g>
<g>
	
		<radialGradient id="path10466_1_" cx="109.5903" cy="400.0322" r="9.1884" gradientTransform="matrix(1.3465 0 0 -1.3639 270.6784 989.4728)" gradientUnits="userSpaceOnUse">
		<stop  offset="0" style="stop-color:#A2FF5F"/>
		<stop  offset="0.3165" style="stop-color:#A0FF5F"/>
		<stop  offset="0.472" style="stop-color:#98FD5F"/>
		<stop  offset="0.5923" style="stop-color:#8BFA5E"/>
		<stop  offset="0.6947" style="stop-color:#78F75E"/>
		<stop  offset="0.7855" style="stop-color:#60F25D"/>
		<stop  offset="0.8682" style="stop-color:#42EC5C"/>
		<stop  offset="0.9432" style="stop-color:#20E55B"/>
		<stop  offset="1" style="stop-color:#00DF5A"/>
	</radialGradient>
	<path id="path10466" fill="url(#path10466_1_)" stroke="#000000" d="M433.501,443.868c0,4.789-6.83,8.672-15.259,8.672
		s-15.261-3.885-15.261-8.672c0-4.789,6.832-8.67,15.261-8.67S433.501,439.079,433.501,443.868"/>
	<g id="g10468">
		<g enable-background="new    ">
			<path d="M409.015,438.492c0.419-0.08,0.969-0.14,1.669-0.14c0.859,0,1.489,0.2,1.889,0.56c0.37,0.319,0.6,0.81,0.6,1.409
				c0,0.609-0.18,1.09-0.53,1.439c-0.46,0.489-1.209,0.739-2.059,0.739c-0.26,0-0.5-0.01-0.7-0.06v2.698h-0.869V438.492z
				 M409.884,441.73c0.19,0.05,0.44,0.07,0.72,0.07c1.06,0,1.689-0.52,1.689-1.43c0-0.899-0.629-1.329-1.589-1.329
				c-0.38,0-0.67,0.04-0.82,0.07V441.73z"/>
			<path d="M414.325,438.402h0.879v6.007h2.878v0.729h-3.758V438.402z"/>
			<path d="M420.164,443.02l-0.7,2.119h-0.899l2.289-6.736h1.049l2.299,6.736h-0.93l-0.72-2.119H420.164z M422.373,442.34
				l-0.67-1.938c-0.14-0.439-0.239-0.84-0.339-1.229h-0.03c-0.09,0.39-0.2,0.81-0.33,1.22l-0.66,1.948H422.373z"/>
			<path d="M424.75,448.469v-0.378l0.484-0.47c1.162-1.106,1.694-1.694,1.694-2.381c0-0.463-0.217-0.89-0.896-0.89
				c-0.413,0-0.757,0.21-0.966,0.385l-0.197-0.434c0.309-0.26,0.764-0.463,1.289-0.463c0.974,0,1.387,0.673,1.387,1.324
				c0,0.841-0.609,1.52-1.568,2.444l-0.357,0.336v0.014h2.038v0.512H424.75z"/>
		</g>
		<g enable-background="new    ">
		</g>
	</g>
</g>
<g id="g6593" transform="translate(192.5626,73.77634)">
	
		<radialGradient id="path6595_1_" cx="-89.4371" cy="323.0391" r="9.1878" gradientTransform="matrix(1.3465 0 0 -1.3639 321.5947 866.7466)" gradientUnits="userSpaceOnUse">
		<stop  offset="0" style="stop-color:#A2FF5F"/>
		<stop  offset="0.3165" style="stop-color:#A0FF5F"/>
		<stop  offset="0.472" style="stop-color:#98FD5F"/>
		<stop  offset="0.5923" style="stop-color:#8BFA5E"/>
		<stop  offset="0.6947" style="stop-color:#78F75E"/>
		<stop  offset="0.7855" style="stop-color:#60F25D"/>
		<stop  offset="0.8682" style="stop-color:#42EC5C"/>
		<stop  offset="0.9432" style="stop-color:#20E55B"/>
		<stop  offset="1" style="stop-color:#00DF5A"/>
	</radialGradient>
	<path id="path6595" fill="url(#path6595_1_)" stroke="#000000" d="M216.427,426.154c0,4.787-6.829,8.67-15.258,8.67
		c-8.429,0-15.261-3.885-15.261-8.67c0-4.791,6.832-8.671,15.261-8.671C209.598,417.483,216.427,421.363,216.427,426.154"/>
	<g id="g6597">
		<g id="g6599">
			<g enable-background="new    ">
				<path d="M194.263,422.003c0.419-0.08,0.969-0.14,1.669-0.14c0.859,0,1.489,0.2,1.889,0.56c0.37,0.319,0.6,0.81,0.6,1.409
					c0,0.609-0.18,1.09-0.53,1.439c-0.46,0.489-1.209,0.739-2.059,0.739c-0.26,0-0.5-0.01-0.7-0.06v2.698h-0.869V422.003z
					 M195.132,425.241c0.19,0.05,0.44,0.07,0.72,0.07c1.06,0,1.689-0.52,1.689-1.43c0-0.899-0.629-1.329-1.589-1.329
					c-0.38,0-0.67,0.04-0.82,0.07V425.241z"/>
				<path d="M200.452,421.913v6.736h-0.879v-6.736H200.452z"/>
				<path d="M201.973,422.003c0.419-0.08,0.969-0.14,1.669-0.14c0.859,0,1.489,0.2,1.889,0.56c0.37,0.319,0.6,0.81,0.6,1.409
					c0,0.609-0.18,1.09-0.53,1.439c-0.46,0.489-1.209,0.739-2.059,0.739c-0.26,0-0.5-0.01-0.7-0.06v2.698h-0.869V422.003z
					 M202.842,425.241c0.19,0.05,0.44,0.07,0.72,0.07c1.06,0,1.689-0.52,1.689-1.43c0-0.899-0.629-1.329-1.589-1.329
					c-0.38,0-0.67,0.04-0.82,0.07V425.241z"/>
				<path d="M206.848,431.979v-0.378l0.483-0.47c1.163-1.106,1.695-1.694,1.695-2.381c0-0.463-0.217-0.89-0.896-0.89
					c-0.413,0-0.756,0.21-0.966,0.385l-0.196-0.434c0.308-0.26,0.764-0.463,1.289-0.463c0.973,0,1.387,0.673,1.387,1.324
					c0,0.841-0.609,1.52-1.569,2.444l-0.357,0.336v0.014h2.038v0.512H206.848z"/>
			</g>
			<g enable-background="new    ">
			</g>
		</g>
	</g>
</g>
<g id="g6883" transform="translate(217.9944,9.268818)">
	
		<radialGradient id="path6885_1_" cx="-114.1267" cy="387.5466" r="9.1881" gradientTransform="matrix(1.3465 0 0 -1.3639 353.9185 1008.5994)" gradientUnits="userSpaceOnUse">
		<stop  offset="0" style="stop-color:#A2FF5F"/>
		<stop  offset="0.3165" style="stop-color:#A0FF5F"/>
		<stop  offset="0.472" style="stop-color:#98FD5F"/>
		<stop  offset="0.5923" style="stop-color:#8BFA5E"/>
		<stop  offset="0.6947" style="stop-color:#78F75E"/>
		<stop  offset="0.7855" style="stop-color:#60F25D"/>
		<stop  offset="0.8682" style="stop-color:#42EC5C"/>
		<stop  offset="0.9432" style="stop-color:#20E55B"/>
		<stop  offset="1" style="stop-color:#00DF5A"/>
	</radialGradient>
	<path id="path6885" fill="url(#path6885_1_)" stroke="#000000" d="M215.507,480.025c0,4.787-6.83,8.67-15.258,8.67
		c-8.429,0-15.261-3.884-15.261-8.67c0-4.79,6.832-8.671,15.261-8.671C208.677,471.354,215.507,475.235,215.507,480.025"/>
	<g id="g6887">
		<g enable-background="new    ">
			<path d="M191.56,475.874c0.419-0.08,0.969-0.14,1.669-0.14c0.859,0,1.489,0.2,1.889,0.56c0.37,0.319,0.6,0.81,0.6,1.409
				c0,0.609-0.18,1.09-0.53,1.439c-0.46,0.489-1.209,0.739-2.059,0.739c-0.26,0-0.5-0.01-0.7-0.06v2.698h-0.869V475.874z
				 M192.429,479.112c0.19,0.05,0.44,0.07,0.72,0.07c1.06,0,1.689-0.52,1.689-1.43c0-0.899-0.629-1.329-1.589-1.329
				c-0.38,0-0.67,0.04-0.82,0.07V479.112z"/>
			<path d="M196.87,475.784h0.879v6.007h2.878v0.729h-3.758V475.784z"/>
			<path d="M202.709,480.401l-0.7,2.119h-0.899l2.289-6.736h1.05l2.299,6.736h-0.93l-0.72-2.119H202.709z M204.917,479.721
				l-0.669-1.938c-0.14-0.439-0.239-0.84-0.34-1.229h-0.03c-0.09,0.39-0.199,0.81-0.33,1.22l-0.659,1.948H204.917z"/>
			<path d="M207.295,485.85v-0.378l0.483-0.47c1.162-1.106,1.695-1.694,1.695-2.381c0-0.463-0.217-0.89-0.896-0.89
				c-0.414,0-0.757,0.21-0.967,0.385l-0.196-0.434c0.308-0.26,0.764-0.463,1.289-0.463c0.974,0,1.387,0.673,1.387,1.324
				c0,0.841-0.609,1.52-1.569,2.444l-0.357,0.336v0.014h2.039v0.512H207.295z"/>
		</g>
		<g enable-background="new    ">
		</g>
	</g>
</g>
<g>
	
		<radialGradient id="path11134_1_" cx="839.5562" cy="-442.5039" r="22.1565" gradientTransform="matrix(0.3664 0 0 0.3664 152.8951 464.858)" gradientUnits="userSpaceOnUse">
		<stop  offset="0" style="stop-color:#FFFCDF"/>
		<stop  offset="0.1203" style="stop-color:#FFFBDA"/>
		<stop  offset="0.2662" style="stop-color:#FFF9CB"/>
		<stop  offset="0.4255" style="stop-color:#FFF6B2"/>
		<stop  offset="0.5943" style="stop-color:#FFF090"/>
		<stop  offset="0.7706" style="stop-color:#FFEA64"/>
		<stop  offset="0.9506" style="stop-color:#FFE22F"/>
		<stop  offset="1" style="stop-color:#FFE01F"/>
	</radialGradient>
	<path id="path11134_7_" fill="url(#path11134_1_)" stroke="#000000" stroke-width="0.9921" d="M468.626,302.726
		c0,4.482-3.635,8.117-8.117,8.117c-4.484,0-8.119-3.635-8.119-8.117s3.635-8.119,8.119-8.119
		C464.992,294.606,468.626,298.243,468.626,302.726z"/>
	<g>
		<path d="M457.851,305.885c-0.225,0.115-0.691,0.23-1.283,0.23c-1.367,0-2.391-0.864-2.391-2.463c0-1.527,1.029-2.55,2.535-2.55
			c0.598,0,0.986,0.13,1.152,0.216l-0.158,0.512c-0.23-0.115-0.568-0.202-0.973-0.202c-1.139,0-1.895,0.728-1.895,2.003
			c0,1.195,0.686,1.951,1.859,1.951c0.389,0,0.777-0.079,1.029-0.201L457.851,305.885z"/>
		<path d="M461.023,305.2c0,0.303,0.014,0.599,0.051,0.836h-0.57l-0.057-0.439h-0.021c-0.188,0.273-0.57,0.519-1.066,0.519
			c-0.705,0-1.066-0.497-1.066-1.001c0-0.843,0.75-1.304,2.096-1.297v-0.071c0-0.288-0.078-0.814-0.791-0.807
			c-0.332,0-0.67,0.094-0.916,0.259l-0.143-0.425c0.287-0.18,0.713-0.303,1.152-0.303c1.072,0,1.332,0.728,1.332,1.427V305.2z
			 M460.404,304.257c-0.691-0.014-1.477,0.108-1.477,0.785c0,0.418,0.273,0.605,0.59,0.605c0.461,0,0.756-0.288,0.857-0.584
			c0.021-0.064,0.029-0.137,0.029-0.201V304.257z"/>
		<path d="M461.738,303.64v-0.271l0.348-0.338c0.836-0.796,1.219-1.219,1.219-1.712c0-0.332-0.156-0.64-0.645-0.64
			c-0.299,0-0.545,0.151-0.695,0.277l-0.141-0.313c0.221-0.187,0.549-0.332,0.926-0.332c0.699,0,0.996,0.483,0.996,0.951
			c0,0.604-0.438,1.093-1.127,1.758l-0.258,0.241v0.011h1.467v0.367H461.738z"/>
		<path d="M465.757,300.961v1.184h1.137v0.302h-1.137v1.193h-0.322v-1.193h-1.139v-0.302h1.139v-1.184H465.757z"/>
	</g>
</g>
<g>
	
		<radialGradient id="path11134_6_" cx="682.6245" cy="-94.5234" r="22.1565" gradientTransform="matrix(0.3664 0 0 0.3664 152.8951 464.858)" gradientUnits="userSpaceOnUse">
		<stop  offset="0" style="stop-color:#FFFCDF"/>
		<stop  offset="0.1203" style="stop-color:#FFFBDA"/>
		<stop  offset="0.2662" style="stop-color:#FFF9CB"/>
		<stop  offset="0.4255" style="stop-color:#FFF6B2"/>
		<stop  offset="0.5943" style="stop-color:#FFF090"/>
		<stop  offset="0.7706" style="stop-color:#FFEA64"/>
		<stop  offset="0.9506" style="stop-color:#FFE22F"/>
		<stop  offset="1" style="stop-color:#FFE01F"/>
	</radialGradient>
	<path id="path11134_2_" fill="url(#path11134_6_)" stroke="#000000" stroke-width="0.9921" d="M411.126,430.226
		c0,4.482-3.635,8.117-8.117,8.117c-4.484,0-8.119-3.635-8.119-8.117s3.635-8.119,8.119-8.119
		C407.492,422.106,411.126,425.743,411.126,430.226z"/>
	<g>
		<path d="M400.351,433.385c-0.224,0.115-0.691,0.23-1.282,0.23c-1.368,0-2.391-0.864-2.391-2.463c0-1.527,1.029-2.55,2.535-2.55
			c0.598,0,0.986,0.13,1.152,0.216l-0.159,0.512c-0.23-0.115-0.568-0.202-0.972-0.202c-1.139,0-1.895,0.728-1.895,2.003
			c0,1.195,0.685,1.951,1.858,1.951c0.389,0,0.777-0.079,1.029-0.201L400.351,433.385z"/>
		<path d="M403.522,432.7c0,0.303,0.015,0.599,0.051,0.836h-0.569l-0.058-0.439h-0.021c-0.188,0.273-0.569,0.519-1.065,0.519
			c-0.706,0-1.066-0.497-1.066-1.001c0-0.843,0.749-1.304,2.096-1.297v-0.071c0-0.288-0.079-0.814-0.792-0.807
			c-0.331,0-0.67,0.094-0.915,0.259l-0.144-0.425c0.288-0.18,0.713-0.303,1.152-0.303c1.073,0,1.332,0.728,1.332,1.427V432.7z
			 M402.903,431.757c-0.691-0.014-1.477,0.108-1.477,0.785c0,0.418,0.273,0.605,0.591,0.605c0.461,0,0.756-0.288,0.857-0.584
			c0.021-0.064,0.028-0.137,0.028-0.201V431.757z"/>
		<path d="M404.237,431.14v-0.271l0.348-0.338c0.836-0.796,1.219-1.219,1.219-1.712c0-0.332-0.156-0.64-0.645-0.64
			c-0.298,0-0.544,0.151-0.695,0.277l-0.141-0.313c0.222-0.187,0.549-0.332,0.926-0.332c0.7,0,0.997,0.483,0.997,0.951
			c0,0.604-0.438,1.093-1.128,1.758l-0.257,0.241v0.011h1.466v0.367H404.237z"/>
		<path d="M408.257,428.461v1.184h1.138v0.302h-1.138v1.193h-0.322v-1.193h-1.139v-0.302h1.139v-1.184H408.257z"/>
	</g>
</g>
<g>
	
		<radialGradient id="path11134_8_" cx="484.0718" cy="-179.1299" r="22.1563" gradientTransform="matrix(0.3664 0 0 0.3664 152.8951 464.858)" gradientUnits="userSpaceOnUse">
		<stop  offset="0" style="stop-color:#FFFCDF"/>
		<stop  offset="0.1203" style="stop-color:#FFFBDA"/>
		<stop  offset="0.2662" style="stop-color:#FFF9CB"/>
		<stop  offset="0.4255" style="stop-color:#FFF6B2"/>
		<stop  offset="0.5943" style="stop-color:#FFF090"/>
		<stop  offset="0.7706" style="stop-color:#FFEA64"/>
		<stop  offset="0.9506" style="stop-color:#FFE22F"/>
		<stop  offset="1" style="stop-color:#FFE01F"/>
	</radialGradient>
	<path id="path11134_5_" fill="url(#path11134_8_)" stroke="#000000" stroke-width="0.9921" d="M338.377,399.226
		c0,4.482-3.635,8.117-8.117,8.117c-4.484,0-8.119-3.635-8.119-8.117s3.634-8.119,8.119-8.119
		C334.742,391.106,338.377,394.743,338.377,399.226z"/>
	<g>
		<path d="M327.601,402.385c-0.224,0.115-0.691,0.23-1.282,0.23c-1.368,0-2.391-0.864-2.391-2.463c0-1.527,1.029-2.55,2.535-2.55
			c0.598,0,0.986,0.13,1.152,0.216l-0.159,0.512c-0.23-0.115-0.568-0.202-0.972-0.202c-1.139,0-1.895,0.728-1.895,2.003
			c0,1.195,0.685,1.951,1.858,1.951c0.389,0,0.777-0.079,1.029-0.201L327.601,402.385z"/>
		<path d="M330.772,401.7c0,0.303,0.015,0.599,0.051,0.836h-0.569l-0.058-0.439h-0.021c-0.188,0.273-0.569,0.519-1.065,0.519
			c-0.706,0-1.066-0.497-1.066-1.001c0-0.843,0.749-1.304,2.096-1.297v-0.071c0-0.288-0.079-0.814-0.792-0.807
			c-0.331,0-0.67,0.094-0.915,0.259l-0.144-0.425c0.288-0.18,0.713-0.303,1.152-0.303c1.073,0,1.332,0.728,1.332,1.427V401.7z
			 M330.153,400.757c-0.691-0.014-1.477,0.108-1.477,0.785c0,0.418,0.273,0.605,0.591,0.605c0.461,0,0.756-0.288,0.857-0.584
			c0.021-0.064,0.028-0.137,0.028-0.201V400.757z"/>
		<path d="M331.487,400.14v-0.271l0.348-0.338c0.836-0.796,1.219-1.219,1.219-1.712c0-0.332-0.156-0.64-0.645-0.64
			c-0.298,0-0.544,0.151-0.695,0.277l-0.141-0.313c0.222-0.187,0.549-0.332,0.926-0.332c0.7,0,0.997,0.483,0.997,0.951
			c0,0.604-0.438,1.093-1.128,1.758l-0.257,0.241v0.011h1.466v0.367H331.487z"/>
		<path d="M335.507,397.461v1.184h1.138v0.302h-1.138v1.193h-0.322v-1.193h-1.139v-0.302h1.139v-1.184H335.507z"/>
	</g>
</g>
<g>
	
		<radialGradient id="path11134_9_" cx="615.0757" cy="58.9976" r="22.157" gradientTransform="matrix(0.3664 0 0 0.3664 152.8951 464.858)" gradientUnits="userSpaceOnUse">
		<stop  offset="0" style="stop-color:#FFFCDF"/>
		<stop  offset="0.1203" style="stop-color:#FFFBDA"/>
		<stop  offset="0.2662" style="stop-color:#FFF9CB"/>
		<stop  offset="0.4255" style="stop-color:#FFF6B2"/>
		<stop  offset="0.5943" style="stop-color:#FFF090"/>
		<stop  offset="0.7706" style="stop-color:#FFEA64"/>
		<stop  offset="0.9506" style="stop-color:#FFE22F"/>
		<stop  offset="1" style="stop-color:#FFE01F"/>
	</radialGradient>
	<path id="path11134_4_" fill="url(#path11134_9_)" stroke="#000000" stroke-width="0.9921" d="M386.377,486.476
		c0,4.482-3.635,8.117-8.117,8.117c-4.484,0-8.119-3.635-8.119-8.117s3.634-8.119,8.119-8.119
		C382.742,478.356,386.377,481.993,386.377,486.476z"/>
	<g>
		<path d="M375.601,489.635c-0.224,0.115-0.691,0.23-1.282,0.23c-1.368,0-2.391-0.864-2.391-2.463c0-1.527,1.029-2.55,2.535-2.55
			c0.598,0,0.986,0.13,1.152,0.216l-0.159,0.512c-0.23-0.115-0.568-0.202-0.972-0.202c-1.139,0-1.895,0.728-1.895,2.003
			c0,1.195,0.685,1.951,1.858,1.951c0.389,0,0.777-0.079,1.029-0.201L375.601,489.635z"/>
		<path d="M378.772,488.95c0,0.303,0.015,0.599,0.051,0.836h-0.569l-0.058-0.439h-0.021c-0.188,0.273-0.569,0.519-1.065,0.519
			c-0.706,0-1.066-0.497-1.066-1.001c0-0.843,0.749-1.304,2.096-1.297v-0.071c0-0.288-0.079-0.814-0.792-0.807
			c-0.331,0-0.67,0.094-0.915,0.259l-0.144-0.425c0.288-0.18,0.713-0.303,1.152-0.303c1.073,0,1.332,0.728,1.332,1.427V488.95z
			 M378.153,488.007c-0.691-0.014-1.477,0.108-1.477,0.785c0,0.418,0.273,0.605,0.591,0.605c0.461,0,0.756-0.288,0.857-0.584
			c0.021-0.064,0.028-0.137,0.028-0.201V488.007z"/>
		<path d="M379.487,487.39v-0.271l0.348-0.338c0.836-0.796,1.219-1.219,1.219-1.712c0-0.332-0.156-0.64-0.645-0.64
			c-0.298,0-0.544,0.151-0.695,0.277l-0.141-0.313c0.222-0.187,0.549-0.332,0.926-0.332c0.7,0,0.997,0.483,0.997,0.951
			c0,0.604-0.438,1.093-1.128,1.758l-0.257,0.241v0.011h1.466v0.367H379.487z"/>
		<path d="M383.507,484.711v1.184h1.138v0.302h-1.138v1.193h-0.322v-1.193h-1.139v-0.302h1.139v-1.184H383.507z"/>
	</g>
</g>
<g>
	<g>
		
			<radialGradient id="path11134_10_" cx="677.8472" cy="-368.8135" r="22.1567" gradientTransform="matrix(0.3664 0 0 0.3664 152.8951 464.858)" gradientUnits="userSpaceOnUse">
			<stop  offset="0" style="stop-color:#FFFCDF"/>
			<stop  offset="0.1203" style="stop-color:#FFFBDA"/>
			<stop  offset="0.2662" style="stop-color:#FFF9CB"/>
			<stop  offset="0.4255" style="stop-color:#FFF6B2"/>
			<stop  offset="0.5943" style="stop-color:#FFF090"/>
			<stop  offset="0.7706" style="stop-color:#FFEA64"/>
			<stop  offset="0.9506" style="stop-color:#FFE22F"/>
			<stop  offset="1" style="stop-color:#FFE01F"/>
		</radialGradient>
		<path id="path11134_3_" fill="url(#path11134_10_)" stroke="#000000" stroke-width="0.9921" d="M409.376,329.726
			c0,4.482-3.635,8.117-8.117,8.117c-4.484,0-8.119-3.635-8.119-8.117s3.635-8.119,8.119-8.119
			C405.742,321.606,409.376,325.243,409.376,329.726z"/>
		<g>
			<path d="M398.601,332.885c-0.224,0.115-0.691,0.23-1.282,0.23c-1.368,0-2.391-0.864-2.391-2.463c0-1.527,1.029-2.55,2.535-2.55
				c0.598,0,0.986,0.13,1.152,0.216l-0.159,0.512c-0.23-0.115-0.568-0.202-0.972-0.202c-1.139,0-1.895,0.728-1.895,2.003
				c0,1.195,0.685,1.951,1.858,1.951c0.389,0,0.777-0.079,1.029-0.201L398.601,332.885z"/>
			<path d="M401.772,332.2c0,0.303,0.015,0.599,0.051,0.836h-0.569l-0.058-0.439h-0.021c-0.188,0.273-0.569,0.519-1.065,0.519
				c-0.706,0-1.066-0.497-1.066-1.001c0-0.843,0.749-1.304,2.096-1.297v-0.071c0-0.288-0.079-0.814-0.792-0.807
				c-0.331,0-0.67,0.094-0.915,0.259l-0.144-0.425c0.288-0.18,0.713-0.303,1.152-0.303c1.073,0,1.332,0.728,1.332,1.427V332.2z
				 M401.153,331.257c-0.691-0.014-1.477,0.108-1.477,0.785c0,0.418,0.273,0.605,0.591,0.605c0.461,0,0.756-0.288,0.857-0.584
				c0.021-0.064,0.028-0.137,0.028-0.201V331.257z"/>
			<path d="M402.487,330.64v-0.271l0.348-0.338c0.836-0.796,1.219-1.219,1.219-1.712c0-0.332-0.156-0.64-0.645-0.64
				c-0.298,0-0.544,0.151-0.695,0.277l-0.141-0.313c0.222-0.187,0.549-0.332,0.926-0.332c0.7,0,0.997,0.483,0.997,0.951
				c0,0.604-0.438,1.093-1.128,1.758l-0.257,0.241v0.011h1.466v0.367H402.487z"/>
			<path d="M406.507,327.961v1.184h1.138v0.302h-1.138v1.193h-0.322v-1.193h-1.139v-0.302h1.139v-1.184H406.507z"/>
		</g>
	</g>
	<g>
		
			<radialGradient id="path6447_1_" cx="109.2603" cy="398.0166" r="9.1878" gradientTransform="matrix(1.3465 0 0 -1.3639 262.5993 904.9376)" gradientUnits="userSpaceOnUse">
			<stop  offset="0" style="stop-color:#A2FF5F"/>
			<stop  offset="0.3165" style="stop-color:#A0FF5F"/>
			<stop  offset="0.472" style="stop-color:#98FD5F"/>
			<stop  offset="0.5923" style="stop-color:#8BFA5E"/>
			<stop  offset="0.6947" style="stop-color:#78F75E"/>
			<stop  offset="0.7855" style="stop-color:#60F25D"/>
			<stop  offset="0.8682" style="stop-color:#42EC5C"/>
			<stop  offset="0.9432" style="stop-color:#20E55B"/>
			<stop  offset="1" style="stop-color:#00DF5A"/>
		</radialGradient>
		<path id="path6447" fill="url(#path6447_1_)" stroke="#000000" d="M424.978,362.083c0,4.787-6.829,8.67-15.258,8.67
			s-15.261-3.883-15.261-8.67c0-4.789,6.832-8.67,15.261-8.67S424.978,357.294,424.978,362.083"/>
		<g id="g6449">
			<g enable-background="new    ">
				<path d="M400.492,356.706c0.419-0.08,0.969-0.14,1.669-0.14c0.859,0,1.489,0.2,1.889,0.56c0.37,0.319,0.6,0.81,0.6,1.409
					c0,0.609-0.18,1.09-0.53,1.439c-0.46,0.489-1.209,0.739-2.059,0.739c-0.26,0-0.5-0.01-0.7-0.06v2.698h-0.869V356.706z
					 M401.361,359.944c0.19,0.05,0.44,0.07,0.72,0.07c1.06,0,1.689-0.52,1.689-1.43c0-0.899-0.629-1.329-1.589-1.329
					c-0.38,0-0.67,0.04-0.82,0.07V359.944z"/>
				<path d="M405.802,356.616h0.879v6.007h2.878v0.729h-3.758V356.616z"/>
				<path d="M411.641,361.233l-0.7,2.119h-0.899l2.289-6.736h1.049l2.299,6.736h-0.93l-0.719-2.119H411.641z M413.85,360.554
					l-0.669-1.938c-0.14-0.439-0.24-0.84-0.34-1.229h-0.03c-0.09,0.39-0.2,0.81-0.33,1.22l-0.66,1.948H413.85z"/>
				<path d="M416.227,366.683v-0.378l0.483-0.47c1.163-1.106,1.695-1.694,1.695-2.381c0-0.463-0.217-0.89-0.896-0.89
					c-0.413,0-0.756,0.21-0.966,0.385l-0.196-0.434c0.308-0.26,0.764-0.463,1.289-0.463c0.973,0,1.387,0.673,1.387,1.324
					c0,0.841-0.609,1.52-1.569,2.444l-0.357,0.336v0.014h2.038v0.512H416.227z"/>
			</g>
			<g enable-background="new    ">
			</g>
		</g>
	</g>
	<g>
		
			<radialGradient id="path6565_1_" cx="103.3394" cy="396.9775" r="9.1881" gradientTransform="matrix(1.3465 0 0 -1.3639 278.9431 920.2286)" gradientUnits="userSpaceOnUse">
			<stop  offset="0" style="stop-color:#A2FF5F"/>
			<stop  offset="0.3165" style="stop-color:#A0FF5F"/>
			<stop  offset="0.472" style="stop-color:#98FD5F"/>
			<stop  offset="0.5923" style="stop-color:#8BFA5E"/>
			<stop  offset="0.6947" style="stop-color:#78F75E"/>
			<stop  offset="0.7855" style="stop-color:#60F25D"/>
			<stop  offset="0.8682" style="stop-color:#42EC5C"/>
			<stop  offset="0.9432" style="stop-color:#20E55B"/>
			<stop  offset="1" style="stop-color:#00DF5A"/>
		</radialGradient>
		<path id="path6565" fill="url(#path6565_1_)" stroke="#000000" d="M433.349,378.792c0,4.787-6.828,8.67-15.257,8.67
			c-8.429,0-15.261-3.884-15.261-8.67c0-4.79,6.832-8.671,15.261-8.671C426.521,370.121,433.349,374.002,433.349,378.792"/>
		<g id="g6567">
			<g enable-background="new    ">
				<path d="M409.294,375.08c0.54-0.08,1.169-0.14,1.859-0.14c1.25,0,2.139,0.279,2.729,0.829c0.61,0.55,0.959,1.34,0.959,2.429
					c0,1.1-0.35,1.999-0.969,2.619c-0.64,0.629-1.679,0.969-2.988,0.969c-0.63,0-1.14-0.02-1.589-0.079V375.08z M410.174,381.047
					c0.22,0.04,0.54,0.04,0.88,0.04c1.859,0.01,2.868-1.039,2.868-2.858c0.01-1.609-0.89-2.599-2.729-2.599
					c-0.45,0-0.79,0.04-1.02,0.09V381.047z"/>
				<path d="M417.054,379.607l-0.7,2.119h-0.899l2.289-6.736h1.049l2.299,6.736h-0.929l-0.72-2.119H417.054z M419.262,378.928
					l-0.669-1.938c-0.14-0.439-0.24-0.84-0.34-1.229h-0.03c-0.09,0.39-0.2,0.81-0.33,1.22l-0.66,1.948H419.262z"/>
				<path d="M427.072,381.427c-0.391,0.149-1.17,0.37-2.079,0.37c-1.02,0-1.858-0.26-2.519-0.89c-0.58-0.56-0.939-1.459-0.939-2.509
					c0-2.009,1.389-3.479,3.648-3.479c0.779,0,1.398,0.17,1.688,0.311l-0.22,0.709c-0.359-0.17-0.81-0.289-1.489-0.289
					c-1.64,0-2.708,1.019-2.708,2.708c0,1.709,1.02,2.719,2.598,2.719c0.57,0,0.96-0.08,1.16-0.18v-2.01h-1.359v-0.699h2.219
					V381.427z"/>
			</g>
		</g>
	</g>
	<g>
		
			<radialGradient id="path6447_4_" cx="115.4771" cy="411.4678" r="10.392" gradientTransform="matrix(1.3465 0 0 -1.3639 262.5993 904.9376)" gradientUnits="userSpaceOnUse">
			<stop  offset="0" style="stop-color:#A2FF5F"/>
			<stop  offset="0.3165" style="stop-color:#A0FF5F"/>
			<stop  offset="0.472" style="stop-color:#98FD5F"/>
			<stop  offset="0.5923" style="stop-color:#8BFA5E"/>
			<stop  offset="0.6947" style="stop-color:#78F75E"/>
			<stop  offset="0.7855" style="stop-color:#60F25D"/>
			<stop  offset="0.8682" style="stop-color:#42EC5C"/>
			<stop  offset="0.9432" style="stop-color:#20E55B"/>
			<stop  offset="1" style="stop-color:#00DF5A"/>
		</radialGradient>
		<path id="path6447_2_" fill="url(#path6447_4_)" stroke="#000000" d="M435.349,343.737c0,5.414-7.725,9.806-17.258,9.806
			s-17.261-4.392-17.261-9.806c0-5.417,7.728-9.807,17.261-9.807S435.349,338.32,435.349,343.737"/>
		<g>
			<path d="M406.89,338.36c0.419-0.08,0.969-0.14,1.669-0.14c0.859,0,1.489,0.2,1.889,0.56c0.37,0.319,0.6,0.81,0.6,1.409
				c0,0.609-0.18,1.09-0.53,1.439c-0.46,0.489-1.209,0.739-2.059,0.739c-0.26,0-0.5-0.01-0.7-0.06v2.698h-0.869V338.36z
				 M407.759,341.599c0.19,0.05,0.44,0.07,0.72,0.07c1.06,0,1.689-0.52,1.689-1.43c0-0.899-0.629-1.329-1.589-1.329
				c-0.38,0-0.67,0.04-0.82,0.07V341.599z"/>
			<path d="M412.199,338.271h0.879v6.007h2.878v0.729h-3.758V338.271z"/>
			<path d="M418.039,342.888l-0.7,2.119h-0.899l2.289-6.736h1.049l2.298,6.736h-0.929l-0.72-2.119H418.039z M420.247,342.208
				l-0.669-1.938c-0.14-0.439-0.24-0.84-0.34-1.229h-0.03c-0.09,0.39-0.2,0.81-0.33,1.22l-0.66,1.948H420.247z"/>
			<path d="M422.625,348.337v-0.378l0.483-0.47c1.163-1.106,1.694-1.694,1.694-2.381c0-0.463-0.217-0.89-0.896-0.89
				c-0.412,0-0.756,0.21-0.966,0.385l-0.196-0.434c0.309-0.26,0.764-0.463,1.289-0.463c0.973,0,1.387,0.673,1.387,1.324
				c0,0.841-0.609,1.52-1.568,2.444l-0.357,0.336v0.014h2.037v0.512H422.625z"/>
			<path d="M429.189,338.511l-0.949,1.239v0.02l1.508-0.2v0.68l-1.508-0.18v0.021l0.959,1.209l-0.63,0.35l-0.609-1.399h-0.021
				l-0.639,1.409l-0.57-0.359l0.949-1.22v-0.02l-1.479,0.189v-0.68l1.469,0.19v-0.021l-0.939-1.229l0.609-0.34l0.62,1.379h0.02
				l0.61-1.39L429.189,338.511z"/>
		</g>
	</g>
</g>
<g>
	
		<radialGradient id="path6447_5_" cx="116.2197" cy="451.7939" r="10.392" gradientTransform="matrix(1.3465 0 0 -1.3639 262.5993 904.9376)" gradientUnits="userSpaceOnUse">
		<stop  offset="0" style="stop-color:#A2FF5F"/>
		<stop  offset="0.3165" style="stop-color:#A0FF5F"/>
		<stop  offset="0.472" style="stop-color:#98FD5F"/>
		<stop  offset="0.5923" style="stop-color:#8BFA5E"/>
		<stop  offset="0.6947" style="stop-color:#78F75E"/>
		<stop  offset="0.7855" style="stop-color:#60F25D"/>
		<stop  offset="0.8682" style="stop-color:#42EC5C"/>
		<stop  offset="0.9432" style="stop-color:#20E55B"/>
		<stop  offset="1" style="stop-color:#00DF5A"/>
	</radialGradient>
	<path id="path6447_3_" fill="url(#path6447_5_)" stroke="#000000" d="M436.349,288.737c0,5.414-7.725,9.805-17.258,9.805
		s-17.261-4.391-17.261-9.805c0-5.417,7.728-9.807,17.261-9.807S436.349,283.32,436.349,288.737"/>
	<g>
		<path d="M407.89,283.36c0.419-0.08,0.969-0.14,1.669-0.14c0.859,0,1.489,0.2,1.889,0.56c0.37,0.319,0.6,0.81,0.6,1.409
			c0,0.609-0.18,1.09-0.53,1.439c-0.46,0.489-1.209,0.739-2.059,0.739c-0.26,0-0.5-0.01-0.7-0.06v2.698h-0.869V283.36z
			 M408.759,286.599c0.19,0.05,0.44,0.07,0.72,0.07c1.06,0,1.689-0.52,1.689-1.43c0-0.899-0.629-1.329-1.589-1.329
			c-0.38,0-0.67,0.04-0.82,0.07V286.599z"/>
		<path d="M413.199,283.271h0.879v6.007h2.878v0.729h-3.758V283.271z"/>
		<path d="M419.039,287.888l-0.7,2.119h-0.899l2.289-6.736h1.049l2.298,6.736h-0.929l-0.72-2.119H419.039z M421.247,287.208
			l-0.669-1.938c-0.14-0.439-0.24-0.84-0.34-1.229h-0.03c-0.09,0.39-0.2,0.81-0.33,1.22l-0.66,1.948H421.247z"/>
		<path d="M423.625,293.337v-0.378l0.483-0.47c1.163-1.106,1.694-1.694,1.694-2.381c0-0.463-0.217-0.89-0.896-0.89
			c-0.412,0-0.756,0.21-0.966,0.385l-0.196-0.434c0.309-0.26,0.764-0.463,1.289-0.463c0.973,0,1.387,0.673,1.387,1.324
			c0,0.841-0.609,1.52-1.568,2.444l-0.357,0.336v0.014h2.037v0.512H423.625z"/>
		<path d="M430.189,283.511l-0.949,1.239v0.02l1.508-0.2v0.68l-1.508-0.18v0.021l0.959,1.209l-0.63,0.35l-0.609-1.399h-0.021
			l-0.639,1.409l-0.57-0.359l0.949-1.22v-0.02l-1.479,0.189v-0.68l1.469,0.19v-0.021l-0.939-1.229l0.609-0.34l0.62,1.379h0.02
			l0.61-1.39L430.189,283.511z"/>
	</g>
</g>
</svg>
