<?xml version="1.0" encoding="utf-8"?>
<!-- Generator: Adobe Illustrator 14.0.0, SVG Export Plug-In . SVG Version: 6.00 Build 43363)  -->
<!DOCTYPE svg PUBLIC "-//W3C//DTD SVG 1.1//EN" "http://www.w3.org/Graphics/SVG/1.1/DTD/svg11.dtd">
<svg version="1.1" id="Layer_1" xmlns="http://www.w3.org/2000/svg" xmlns:xlink="http://www.w3.org/1999/xlink" x="0px" y="0px"
	 width="751px" height="554px" viewBox="0 0 751 554" enable-background="new 0 0 751 554" xml:space="preserve">
<rect x="-19" y="-4" fill="#FFFFFF" stroke="#231F20" width="786" height="567"/>
<rect x="50" y="86.625" fill="none" stroke="#231F20" width="652" height="306.818"/>
<g>
	<path fill="#010101" d="M542.949,512.74c0.547,0.351,1.33,0.617,2.172,0.617c1.246,0,1.975-0.658,1.975-1.611
		c0-0.868-0.504-1.387-1.778-1.863c-1.541-0.561-2.494-1.372-2.494-2.688c0-1.472,1.219-2.562,3.055-2.562
		c0.953,0,1.666,0.225,2.072,0.462l-0.336,0.995c-0.293-0.183-0.925-0.449-1.779-0.449c-1.287,0-1.777,0.771-1.777,1.415
		c0,0.882,0.574,1.317,1.877,1.821c1.597,0.616,2.396,1.387,2.396,2.773c0,1.457-1.064,2.73-3.291,2.73
		c-0.912,0-1.906-0.28-2.41-0.616L542.949,512.74z"/>
	<path fill="#010101" d="M550.299,507.445l1.471,4.007c0.169,0.448,0.337,0.979,0.449,1.387h0.027
		c0.127-0.406,0.266-0.925,0.436-1.415l1.345-3.979h1.303l-1.851,4.833c-0.883,2.324-1.483,3.502-2.323,4.245
		c-0.617,0.518-1.205,0.728-1.515,0.782l-0.309-1.021c0.309-0.1,0.715-0.295,1.08-0.604c0.336-0.267,0.742-0.742,1.035-1.373
		c0.057-0.126,0.1-0.224,0.1-0.294c0-0.069-0.029-0.168-0.1-0.321l-2.492-6.248H550.299L550.299,507.445z"/>
	<path fill="#010101" d="M556.193,512.979c0.377,0.226,1.021,0.478,1.639,0.478c0.883,0,1.303-0.435,1.303-1.008
		c0-0.589-0.35-0.896-1.246-1.233c-1.233-0.448-1.809-1.105-1.809-1.919c0-1.093,0.896-1.989,2.34-1.989
		c0.686,0,1.289,0.184,1.652,0.421l-0.293,0.896c-0.269-0.168-0.759-0.406-1.388-0.406c-0.729,0-1.121,0.42-1.121,0.924
		c0,0.562,0.394,0.812,1.275,1.163c1.162,0.436,1.777,1.022,1.777,2.03c0,1.205-0.938,2.046-2.521,2.046
		c-0.744,0-1.43-0.196-1.906-0.477L556.193,512.979z"/>
	<path fill="#010101" d="M563.39,505.821v1.624h1.765v0.938h-1.765v3.656c0,0.84,0.236,1.315,0.925,1.315
		c0.336,0,0.53-0.027,0.715-0.084l0.055,0.938c-0.238,0.084-0.615,0.169-1.092,0.169c-0.574,0-1.037-0.196-1.33-0.519
		c-0.338-0.378-0.478-0.98-0.478-1.779v-3.697h-1.051v-0.938h1.051v-1.261L563.39,505.821z"/>
	<path fill="#010101" d="M567.14,511.061c0.029,1.666,1.078,2.354,2.326,2.354c0.883,0,1.428-0.153,1.877-0.352l0.226,0.884
		c-0.437,0.195-1.191,0.435-2.271,0.435c-2.088,0-3.334-1.387-3.334-3.433c0-2.045,1.205-3.643,3.18-3.643
		c2.228,0,2.802,1.934,2.802,3.181c0,0.253-0.015,0.435-0.041,0.574H567.14L567.14,511.061z M570.756,510.178
		c0.014-0.771-0.322-1.988-1.709-1.988c-1.262,0-1.793,1.134-1.893,1.988H570.756z"/>
	<path fill="#010101" d="M573.469,509.281c0-0.715-0.026-1.275-0.055-1.836h1.078l0.057,1.106h0.041
		c0.379-0.645,1.008-1.247,2.144-1.247c0.911,0,1.61,0.562,1.905,1.358h0.027c0.211-0.392,0.49-0.672,0.771-0.882
		c0.405-0.309,0.84-0.478,1.483-0.478c0.91,0,2.24,0.589,2.24,2.942v3.978h-1.205V510.4c0-1.316-0.49-2.088-1.471-2.088
		c-0.714,0-1.246,0.519-1.472,1.106c-0.055,0.183-0.098,0.392-0.098,0.616v4.188h-1.205v-4.062c0-1.079-0.475-1.851-1.414-1.851
		c-0.756,0-1.33,0.616-1.527,1.232c-0.069,0.168-0.098,0.393-0.098,0.603v4.076h-1.205v-4.94H573.469z"/>
	<path fill="#010101" d="M586.517,505.541c0,0.42-0.293,0.756-0.782,0.756c-0.449,0-0.744-0.336-0.744-0.756
		s0.309-0.771,0.771-0.771C586.209,504.771,586.517,505.106,586.517,505.541z M585.144,514.226v-6.779h1.232v6.779H585.144z"/>
	<path fill="#010101" d="M593.254,513.987c-0.322,0.153-1.037,0.393-1.947,0.393c-2.045,0-3.377-1.387-3.377-3.46
		c0-2.088,1.431-3.614,3.644-3.614c0.729,0,1.373,0.184,1.709,0.364l-0.279,0.938c-0.295-0.153-0.758-0.322-1.43-0.322
		c-1.556,0-2.396,1.163-2.396,2.562c0,1.568,1.008,2.535,2.353,2.535c0.7,0,1.164-0.168,1.514-0.322L593.254,513.987z"/>
	<path fill="#010101" d="M597.689,504.785h1.231v8.418h4.033v1.021h-5.266L597.689,504.785L597.689,504.785z"/>
	<path fill="#010101" d="M610.209,510.779c0,2.508-1.752,3.601-3.377,3.601c-1.82,0-3.25-1.345-3.25-3.488
		c0-2.255,1.5-3.586,3.363-3.586C608.89,507.306,610.209,508.721,610.209,510.779z M604.844,510.85c0,1.484,0.84,2.605,2.045,2.605
		c1.177,0,2.06-1.106,2.06-2.633c0-1.148-0.574-2.592-2.031-2.592C605.472,508.23,604.844,509.575,604.844,510.85z"/>
	<path fill="#010101" d="M617.894,510.779c0,2.508-1.752,3.601-3.377,3.601c-1.819,0-3.25-1.345-3.25-3.488
		c0-2.255,1.5-3.586,3.363-3.586C616.576,507.306,617.894,508.721,617.894,510.779z M612.529,510.85c0,1.484,0.84,2.605,2.045,2.605
		c1.176,0,2.059-1.106,2.059-2.633c0-1.148-0.574-2.592-2.031-2.592C613.158,508.23,612.529,509.575,612.529,510.85z"/>
	<path fill="#010101" d="M619.443,509.659c0-0.868-0.027-1.569-0.056-2.214h1.093l0.069,1.163h0.027
		c0.49-0.826,1.303-1.304,2.41-1.304c1.651,0,2.885,1.388,2.885,3.434c0,2.437-1.498,3.642-3.096,3.642
		c-0.896,0-1.681-0.393-2.087-1.064h-0.028V517h-1.219L619.443,509.659L619.443,509.659z M620.662,511.467
		c0,0.183,0.014,0.351,0.057,0.504c0.226,0.854,0.967,1.442,1.851,1.442c1.303,0,2.059-1.064,2.059-2.619
		c0-1.345-0.715-2.508-2.018-2.508c-0.841,0-1.64,0.589-1.863,1.513c-0.041,0.154-0.084,0.336-0.084,0.49L620.662,511.467
		L620.662,511.467z"/>
</g>
<rect x="30" y="356.443" fill="none" stroke="#231F20" stroke-dasharray="3,3" width="692" height="182.557"/>
<rect x="162.41" y="21.352" fill="none" stroke="#231F20" stroke-dasharray="3,3" width="375" height="160"/>
<g id="CVmi">
	<g>
		<g id="XMLID_1_">
			<g>
				<polygon fill="#FFFFFF" points="426.907,71.828 426.907,101.108 405.907,86.298 				"/>
			</g>
			<g>
				<line id="CVmi_path3" fill="none" stroke="#231F20" x1="405.907" y1="86.298" x2="426.907" y2="101.108"/>
				<line id="CVmi_path2" fill="none" stroke="#231F20" x1="426.907" y1="101.108" x2="426.907" y2="71.828"/>
				<line id="CVmi_path1" fill="none" stroke="#231F20" x1="426.907" y1="71.828" x2="405.907" y2="86.298"/>
			</g>
		</g>
	</g>
	<line fill="none" stroke="#231F20" x1="404.41" y1="71.034" x2="404.41" y2="101.899"/>
</g>
<g id="CVao">
	<g>
		<g id="XMLID_2_">
			<g>
				<polygon fill="#FFFFFF" points="242.409,71.819 242.409,101.099 221.409,86.29 				"/>
			</g>
			<g>
				<line id="CVao_path3" fill="none" stroke="#231F20" x1="221.409" y1="86.29" x2="242.409" y2="101.099"/>
				<line id="CVao_path2" fill="none" stroke="#231F20" x1="242.409" y1="101.099" x2="242.409" y2="71.819"/>
				<line id="CVao_path1" fill="none" stroke="#231F20" x1="242.409" y1="71.819" x2="221.409" y2="86.29"/>
			</g>
		</g>
	</g>
	<line fill="none" stroke="#231F20" x1="219.913" y1="71.034" x2="219.913" y2="101.899"/>
</g>
<line fill="none" stroke="#231F20" x1="482.41" y1="86.201" x2="482.41" y2="158.352"/>
<line fill="none" stroke="#231F20" x1="470.076" y1="158.352" x2="495.076" y2="158.352"/>
<line fill="none" stroke="#231F20" x1="470.076" y1="122.701" x2="495.076" y2="122.701"/>
<line fill="none" stroke="#231F20" x1="470.076" y1="130.352" x2="495.076" y2="130.352"/>
<g id="ElaMax">
	<ellipse id="ElaMax_path1" fill="#FFFFFF" stroke="#231F20" cx="493.777" cy="126.753" rx="26.872" ry="26.775"/>
	<g>
		<g>
			<line fill="none" stroke="#010101" x1="489.256" y1="112.664" x2="475.562" y2="142.04"/>
			<polygon fill="#010101" points="491.426,116.774 488.733,113.784 484.712,113.645 491.777,107.253 			"/>
		</g>
	</g>
</g>
<line fill="none" stroke="#231F20" x1="306.243" y1="86.625" x2="306.243" y2="158.776"/>
<line fill="none" stroke="#231F20" x1="293.91" y1="158.776" x2="318.91" y2="158.776"/>
<line fill="none" stroke="#231F20" x1="293.91" y1="123.125" x2="318.91" y2="123.125"/>
<line fill="none" stroke="#231F20" x1="293.91" y1="130.776" x2="318.91" y2="130.776"/>
<g id="ElvMax">
	<ellipse id="ElvMax_path1" fill="#FFFFFF" stroke="#231F20" cx="318.605" cy="126.753" rx="26.872" ry="26.775"/>
	<g>
		<g>
			<line fill="none" stroke="#010101" x1="313.088" y1="113.088" x2="299.396" y2="142.464"/>
			<polygon fill="#010101" points="315.258,117.198 312.566,114.208 308.544,114.069 315.61,107.678 			"/>
		</g>
	</g>
</g>
<g>
	<path fill="#010101" d="M184.693,149.335v3.95h4.565v-3.95h1.232v9.441h-1.232v-4.426h-4.565v4.426h-1.232v-9.441H184.693z"/>
	<path fill="#010101" d="M193.247,155.61c0.028,1.667,1.078,2.353,2.325,2.353c0.883,0,1.429-0.154,1.877-0.35l0.225,0.882
		c-0.435,0.196-1.19,0.435-2.27,0.435c-2.087,0-3.334-1.387-3.334-3.432s1.205-3.642,3.18-3.642c2.229,0,2.802,1.933,2.802,3.18
		c0,0.252-0.015,0.435-0.042,0.575L193.247,155.61L193.247,155.61z M196.861,154.728c0.014-0.77-0.322-1.989-1.709-1.989
		c-1.261,0-1.793,1.134-1.893,1.989H196.861z"/>
	<path fill="#010101" d="M204.336,157.151c0,0.588,0.028,1.163,0.099,1.625h-1.106l-0.098-0.854h-0.042
		c-0.378,0.532-1.106,1.009-2.073,1.009c-1.373,0-2.073-0.967-2.073-1.947c0-1.639,1.457-2.535,4.076-2.521v-0.14
		c0-0.546-0.154-1.569-1.541-1.555c-0.645,0-1.303,0.182-1.778,0.504l-0.279-0.827c0.56-0.35,1.387-0.588,2.24-0.588
		c2.073,0,2.577,1.415,2.577,2.76L204.336,157.151L204.336,157.151z M203.146,155.316c-1.346-0.028-2.872,0.21-2.872,1.527
		c0,0.812,0.532,1.177,1.147,1.177c0.896,0,1.473-0.561,1.667-1.135c0.042-0.14,0.058-0.28,0.058-0.392V155.316L203.146,155.316z"/>
	<path fill="#010101" d="M206.322,154.111c0-0.798-0.014-1.485-0.056-2.115h1.078l0.057,1.345h0.042
		c0.308-0.91,1.063-1.485,1.891-1.485c0.126,0,0.226,0.014,0.336,0.028v1.163c-0.126-0.028-0.252-0.028-0.42-0.028
		c-0.868,0-1.483,0.645-1.652,1.569c-0.027,0.168-0.042,0.378-0.042,0.575v3.614h-1.232L206.322,154.111L206.322,154.111z"/>
	<path fill="#010101" d="M212.721,150.372v1.625h1.765v0.938h-1.765v3.656c0,0.84,0.236,1.316,0.924,1.316
		c0.336,0,0.531-0.028,0.715-0.084l0.056,0.938c-0.238,0.084-0.616,0.168-1.093,0.168c-0.574,0-1.036-0.196-1.33-0.519
		c-0.337-0.378-0.477-0.98-0.477-1.779v-3.698h-1.052v-0.938h1.052v-1.261L212.721,150.372z"/>
</g>
<g>
	<path fill="#010101" d="M231.028,57.977c-1.274-0.336-2.521-0.714-3.614-1.093c-0.21-0.07-0.392-0.14-0.574-0.14
		c-2.255-0.084-4.159-1.737-4.159-4.791c0-3.025,1.835-4.973,4.384-4.973c2.577,0,4.244,1.989,4.244,4.777
		c0,2.437-1.121,3.978-2.689,4.539v0.056c0.938,0.238,1.961,0.462,2.76,0.603L231.028,57.977z M230.02,51.827
		c0-1.905-0.98-3.852-2.983-3.852c-2.059,0-3.067,1.905-3.067,3.95c0,2.017,1.093,3.824,3.024,3.824
		C228.927,55.75,230.02,53.97,230.02,51.827z"/>
	<path fill="#010101" d="M235.193,60.305c0,0.343,0.016,0.677,0.057,0.947h-0.645l-0.058-0.498h-0.023
		c-0.22,0.31-0.646,0.588-1.208,0.588c-0.8,0-1.208-0.563-1.208-1.135c0-0.955,0.849-1.478,2.375-1.469v-0.082
		c0-0.318-0.09-0.914-0.898-0.906c-0.375,0-0.759,0.106-1.037,0.294l-0.163-0.482c0.326-0.204,0.809-0.343,1.307-0.343
		c1.208,0,1.502,0.825,1.502,1.608V60.305L235.193,60.305z M234.499,59.235c-0.784-0.016-1.674,0.123-1.674,0.89
		c0,0.473,0.312,0.686,0.669,0.686c0.522,0,0.857-0.327,0.972-0.661c0.024-0.082,0.033-0.163,0.033-0.229V59.235L234.499,59.235z"/>
	<path fill="#010101" d="M239.927,59.244c0,1.461-1.021,2.098-1.967,2.098c-1.061,0-1.894-0.784-1.894-2.033
		c0-1.314,0.874-2.09,1.959-2.09C239.16,57.219,239.927,58.044,239.927,59.244z M236.8,59.285c0,0.865,0.49,1.518,1.192,1.518
		c0.687,0,1.2-0.645,1.2-1.535c0-0.669-0.335-1.51-1.185-1.51C237.167,57.758,236.8,58.542,236.8,59.285z"/>
</g>
<g>
	<path fill="#010101" d="M227.057,118.407c-0.435,0.224-1.346,0.448-2.493,0.448c-2.662,0-4.65-1.681-4.65-4.791
		c0-2.969,2.003-4.958,4.932-4.958c1.162,0,1.919,0.252,2.24,0.42l-0.308,0.994c-0.448-0.224-1.107-0.392-1.891-0.392
		c-2.214,0-3.685,1.415-3.685,3.894c0,2.325,1.331,3.796,3.614,3.796c0.756,0,1.513-0.154,2.003-0.393L227.057,118.407z"/>
	<path fill="#010101" d="M230.834,118.701l-3.096-9.441h1.331l1.471,4.65c0.393,1.274,0.742,2.423,1.008,3.53h0.028
		c0.266-1.093,0.646-2.283,1.079-3.516l1.597-4.665h1.304l-3.376,9.441L230.834,118.701L230.834,118.701z"/>
	<path fill="#010101" d="M238.88,122.416c0,0.343,0.017,0.677,0.058,0.947h-0.646l-0.057-0.498h-0.024
		c-0.221,0.31-0.645,0.588-1.208,0.588c-0.8,0-1.208-0.563-1.208-1.135c0-0.955,0.85-1.478,2.375-1.469v-0.082
		c0-0.318-0.09-0.914-0.897-0.906c-0.375,0-0.759,0.106-1.037,0.294l-0.163-0.482c0.326-0.204,0.808-0.343,1.306-0.343
		c1.208,0,1.502,0.825,1.502,1.608V122.416L238.88,122.416z M238.187,121.346c-0.784-0.016-1.674,0.123-1.674,0.89
		c0,0.473,0.311,0.686,0.669,0.686c0.521,0,0.856-0.327,0.972-0.661c0.024-0.082,0.033-0.163,0.033-0.229V121.346L238.187,121.346z"
		/>
	<path fill="#010101" d="M243.614,121.354c0,1.461-1.021,2.098-1.967,2.098c-1.062,0-1.895-0.784-1.895-2.033
		c0-1.314,0.874-2.09,1.959-2.09C242.847,119.33,243.614,120.155,243.614,121.354z M240.488,121.396c0,0.865,0.49,1.518,1.192,1.518
		c0.686,0,1.199-0.645,1.199-1.535c0-0.669-0.335-1.51-1.184-1.51C240.855,119.869,240.488,120.652,240.488,121.396z"/>
</g>
<g>
	<path fill="#010101" d="M412.027,57.976c-1.274-0.336-2.521-0.714-3.613-1.093c-0.211-0.07-0.393-0.14-0.574-0.14
		c-2.256-0.084-4.16-1.737-4.16-4.791c0-3.025,1.834-4.973,4.385-4.973c2.576,0,4.243,1.989,4.243,4.777
		c0,2.437-1.12,3.978-2.688,4.539v0.056c0.938,0.238,1.961,0.462,2.76,0.603L412.027,57.976z M411.019,51.827
		c0-1.905-0.979-3.852-2.983-3.852c-2.06,0-3.067,1.905-3.067,3.95c0,2.017,1.093,3.824,3.025,3.824
		C409.926,55.749,411.019,53.97,411.019,51.827z"/>
	<path fill="#010101" d="M413.416,58.37c0-0.416-0.016-0.743-0.031-1.069h0.628l0.032,0.645h0.025
		c0.22-0.375,0.588-0.727,1.248-0.727c0.53,0,0.938,0.327,1.11,0.792h0.017c0.123-0.229,0.284-0.392,0.448-0.515
		c0.236-0.179,0.49-0.277,0.865-0.277c0.531,0,1.308,0.343,1.308,1.714v2.318h-0.703v-2.229c0-0.768-0.285-1.216-0.856-1.216
		c-0.417,0-0.727,0.302-0.856,0.645c-0.032,0.106-0.059,0.229-0.059,0.359v2.441h-0.701v-2.367c0-0.629-0.276-1.078-0.823-1.078
		c-0.441,0-0.776,0.359-0.892,0.718c-0.041,0.098-0.057,0.229-0.057,0.351v2.375h-0.703V58.37L413.416,58.37z"/>
	<path fill="#010101" d="M420.223,55.456h0.72v5.796h-0.72V55.456z"/>
</g>
<g>
	<path fill="#010101" d="M408.056,118.406c-0.434,0.224-1.344,0.448-2.491,0.448c-2.662,0-4.65-1.681-4.65-4.791
		c0-2.969,2.002-4.958,4.93-4.958c1.163,0,1.92,0.252,2.242,0.42l-0.309,0.994c-0.448-0.224-1.107-0.392-1.892-0.392
		c-2.214,0-3.685,1.415-3.685,3.894c0,2.325,1.331,3.796,3.614,3.796c0.756,0,1.513-0.154,2.003-0.393L408.056,118.406z"/>
	<path fill="#010101" d="M411.834,118.7l-3.096-9.441h1.331l1.472,4.65c0.392,1.274,0.742,2.423,1.008,3.53h0.027
		c0.267-1.093,0.645-2.283,1.079-3.516l1.597-4.665h1.303l-3.375,9.441L411.834,118.7L411.834,118.7z"/>
	<path fill="#010101" d="M417.103,120.48c0-0.416-0.017-0.743-0.031-1.069h0.629l0.032,0.645h0.023
		c0.221-0.375,0.588-0.727,1.249-0.727c0.53,0,0.938,0.327,1.11,0.792h0.016c0.123-0.229,0.286-0.392,0.449-0.515
		c0.237-0.179,0.49-0.277,0.865-0.277c0.53,0,1.307,0.343,1.307,1.714v2.318h-0.702v-2.229c0-0.768-0.286-1.216-0.855-1.216
		c-0.417,0-0.728,0.302-0.857,0.645c-0.033,0.106-0.058,0.229-0.058,0.359v2.441h-0.702v-2.367c0-0.629-0.277-1.078-0.824-1.078
		c-0.441,0-0.775,0.359-0.891,0.718c-0.04,0.098-0.058,0.229-0.058,0.351v2.375h-0.702V120.48L417.103,120.48z"/>
	<path fill="#010101" d="M423.912,117.566h0.719v5.796h-0.719V117.566z"/>
</g>
<g>
	<path fill="#010101" d="M301.103,62.503c0.589-0.098,1.359-0.182,2.34-0.182c1.205,0,2.087,0.28,2.646,0.785
		c0.504,0.448,0.827,1.134,0.827,1.975c0,0.854-0.252,1.527-0.729,2.017c-0.657,0.686-1.694,1.036-2.886,1.036
		c-0.364,0-0.7-0.014-0.979-0.084v3.782h-1.22L301.103,62.503L301.103,62.503z M302.323,67.056c0.266,0.07,0.603,0.098,1.009,0.098
		c1.471,0,2.367-0.728,2.367-2.003c0-1.261-0.896-1.863-2.229-1.863c-0.531,0-0.938,0.042-1.147,0.098V67.056z"/>
	<path fill="#010101" d="M308.083,70.699h0.719v5.796h-0.719V70.699z"/>
	<path fill="#010101" d="M310.287,72.543l0.774,2.212c0.132,0.367,0.237,0.694,0.318,1.021h0.024
		c0.09-0.327,0.204-0.653,0.335-1.021l0.767-2.212h0.751l-1.551,3.951h-0.687l-1.502-3.951H310.287z"/>
</g>
<g>
	<path fill="#010101" d="M333.254,125.925h-3.656v3.404h4.09v1.022h-5.322v-9.441h5.111v1.022h-3.88v2.983h3.656L333.254,125.925
		L333.254,125.925z"/>
	<path fill="#010101" d="M334.798,129.218h0.719v5.796h-0.719V129.218z"/>
	<path fill="#010101" d="M337.002,131.062l0.775,2.212c0.131,0.367,0.236,0.694,0.317,1.021h0.024
		c0.09-0.327,0.204-0.653,0.335-1.021l0.767-2.212h0.751l-1.551,3.951h-0.686l-1.502-3.951H337.002z"/>
</g>
<g>
	<path fill="#010101" d="M511.255,124.401h-3.656v3.404h4.092v1.022h-5.323v-9.441h5.111v1.022h-3.88v2.983h3.656V124.401z"/>
	<path fill="#010101" d="M512.799,127.694h0.719v5.796h-0.719V127.694z"/>
	<path fill="#010101" d="M517.501,132.543c0,0.343,0.017,0.677,0.058,0.947h-0.646l-0.058-0.498h-0.023
		c-0.221,0.31-0.646,0.588-1.209,0.588c-0.8,0-1.208-0.563-1.208-1.135c0-0.955,0.849-1.478,2.376-1.469v-0.082
		c0-0.318-0.09-0.914-0.898-0.906c-0.375,0-0.76,0.105-1.037,0.294l-0.161-0.482c0.325-0.204,0.808-0.343,1.306-0.343
		c1.208,0,1.502,0.825,1.502,1.608L517.501,132.543L517.501,132.543z M516.806,131.473c-0.782-0.016-1.674,0.123-1.674,0.89
		c0,0.473,0.312,0.686,0.67,0.686c0.522,0,0.857-0.327,0.973-0.661c0.023-0.082,0.031-0.163,0.031-0.229V131.473L516.806,131.473z"
		/>
</g>
<g>
	<path fill="#010101" d="M477.266,62.503c0.59-0.098,1.358-0.182,2.34-0.182c1.204,0,2.088,0.28,2.647,0.785
		c0.504,0.448,0.826,1.134,0.826,1.975c0,0.854-0.252,1.527-0.729,2.017c-0.657,0.686-1.694,1.036-2.886,1.036
		c-0.364,0-0.7-0.014-0.979-0.084v3.782h-1.22L477.266,62.503L477.266,62.503z M478.485,67.056c0.267,0.07,0.603,0.098,1.009,0.098
		c1.471,0,2.367-0.728,2.367-2.003c0-1.261-0.896-1.863-2.229-1.863c-0.532,0-0.938,0.042-1.147,0.098V67.056z"/>
	<path fill="#010101" d="M484.246,70.699h0.719v5.796h-0.719V70.699z"/>
	<path fill="#010101" d="M488.947,75.548c0,0.343,0.017,0.677,0.058,0.947h-0.646l-0.058-0.498h-0.023
		c-0.222,0.31-0.646,0.588-1.208,0.588c-0.802,0-1.209-0.563-1.209-1.135c0-0.955,0.85-1.478,2.376-1.469v-0.082
		c0-0.318-0.09-0.914-0.897-0.906c-0.376,0-0.76,0.106-1.037,0.294l-0.163-0.482c0.326-0.204,0.809-0.343,1.307-0.343
		c1.209,0,1.502,0.825,1.502,1.608L488.947,75.548L488.947,75.548z M488.254,74.478c-0.783-0.016-1.674,0.123-1.674,0.89
		c0,0.473,0.311,0.686,0.67,0.686c0.521,0,0.857-0.327,0.971-0.661c0.025-0.082,0.033-0.163,0.033-0.229V74.478z"/>
</g>
<g>
	<path fill="#010101" d="M396.544,377.336c-1.274-0.336-2.521-0.714-3.614-1.092c-0.209-0.07-0.392-0.141-0.573-0.141
		c-2.256-0.084-4.16-1.736-4.16-4.791c0-3.025,1.836-4.974,4.385-4.974c2.577,0,4.244,1.99,4.244,4.777
		c0,2.438-1.121,3.979-2.689,4.539v0.055c0.938,0.238,1.961,0.463,2.761,0.604L396.544,377.336z M395.535,371.188
		c0-1.904-0.98-3.853-2.982-3.853c-2.06,0-3.067,1.905-3.067,3.95c0,2.018,1.093,3.824,3.024,3.824
		C394.443,375.109,395.535,373.33,395.535,371.188z"/>
	<path fill="#010101" d="M397.836,379.885c0.22,0.131,0.596,0.277,0.955,0.277c0.514,0,0.759-0.252,0.759-0.587
		c0-0.343-0.204-0.522-0.727-0.72c-0.718-0.26-1.055-0.645-1.055-1.117c0-0.637,0.523-1.159,1.363-1.159
		c0.4,0,0.752,0.106,0.964,0.245l-0.171,0.521c-0.156-0.099-0.44-0.236-0.809-0.236c-0.425,0-0.653,0.244-0.653,0.539
		c0,0.326,0.229,0.474,0.743,0.678c0.678,0.253,1.037,0.596,1.037,1.184c0,0.702-0.547,1.191-1.47,1.191
		c-0.434,0-0.833-0.113-1.11-0.277L397.836,379.885z"/>
	<path fill="#010101" d="M403.941,379.665c0,0.343,0.016,0.677,0.057,0.946h-0.645l-0.059-0.498h-0.023
		c-0.222,0.311-0.646,0.588-1.208,0.588c-0.801,0-1.208-0.562-1.208-1.135c0-0.955,0.849-1.478,2.375-1.469v-0.082
		c0-0.318-0.091-0.914-0.898-0.906c-0.375,0-0.759,0.105-1.036,0.295l-0.163-0.482c0.326-0.203,0.81-0.343,1.308-0.343
		c1.207,0,1.502,0.825,1.502,1.608L403.941,379.665L403.941,379.665z M403.247,378.596c-0.784-0.017-1.674,0.122-1.674,0.891
		c0,0.474,0.311,0.686,0.669,0.686c0.522,0,0.856-0.326,0.973-0.66c0.023-0.082,0.032-0.164,0.032-0.229V378.596z"/>
	<path fill="#010101" d="M405.931,375.714v0.946h1.029v0.547h-1.029v2.131c0,0.49,0.14,0.768,0.539,0.768
		c0.195,0,0.312-0.016,0.416-0.049l0.033,0.547c-0.139,0.049-0.359,0.099-0.637,0.099c-0.335,0-0.604-0.113-0.775-0.302
		c-0.196-0.221-0.276-0.571-0.276-1.037v-2.155h-0.613v-0.547h0.613v-0.734L405.931,375.714z"/>
</g>
<g>
	<path fill="#010101" d="M264.064,374.15c0.588-0.1,1.358-0.184,2.339-0.184c1.205,0,2.087,0.28,2.646,0.784
		c0.505,0.449,0.827,1.135,0.827,1.976c0,0.854-0.252,1.526-0.729,2.018c-0.658,0.688-1.695,1.037-2.886,1.037
		c-0.364,0-0.7-0.014-0.98-0.084v3.781h-1.219L264.064,374.15L264.064,374.15z M265.283,378.703
		c0.266,0.068,0.603,0.098,1.009,0.098c1.472,0,2.367-0.729,2.367-2.004c0-1.26-0.896-1.861-2.228-1.861
		c-0.532,0-0.938,0.041-1.148,0.098V378.703z"/>
	<path fill="#010101" d="M270.946,387.414c0.22,0.131,0.596,0.277,0.955,0.277c0.514,0,0.759-0.252,0.759-0.588
		c0-0.342-0.204-0.521-0.727-0.719c-0.719-0.261-1.054-0.645-1.054-1.117c0-0.638,0.522-1.16,1.363-1.16
		c0.4,0,0.751,0.106,0.963,0.246l-0.171,0.521c-0.155-0.099-0.44-0.235-0.808-0.235c-0.425,0-0.653,0.244-0.653,0.538
		c0,0.326,0.229,0.474,0.743,0.679c0.677,0.252,1.037,0.596,1.037,1.184c0,0.702-0.547,1.191-1.47,1.191
		c-0.433,0-0.833-0.113-1.109-0.277L270.946,387.414z"/>
	<path fill="#010101" d="M277.052,387.193c0,0.344,0.017,0.678,0.058,0.947h-0.646l-0.057-0.498h-0.024
		c-0.22,0.311-0.645,0.588-1.208,0.588c-0.8,0-1.208-0.562-1.208-1.135c0-0.955,0.85-1.478,2.375-1.47v-0.082
		c0-0.317-0.09-0.914-0.897-0.905c-0.375,0-0.759,0.105-1.037,0.295l-0.163-0.482c0.326-0.204,0.809-0.344,1.306-0.344
		c1.208,0,1.503,0.826,1.503,1.608L277.052,387.193L277.052,387.193z M276.358,386.125c-0.784-0.018-1.674,0.122-1.674,0.891
		c0,0.474,0.311,0.686,0.669,0.686c0.521,0,0.856-0.327,0.972-0.661c0.024-0.082,0.033-0.163,0.033-0.229V386.125L276.358,386.125z"
		/>
	<path fill="#010101" d="M279.043,383.243v0.946h1.028v0.547h-1.028v2.131c0,0.49,0.14,0.768,0.539,0.768
		c0.196,0,0.311-0.016,0.417-0.049l0.033,0.547c-0.139,0.049-0.359,0.098-0.637,0.098c-0.335,0-0.604-0.112-0.776-0.301
		c-0.196-0.221-0.277-0.572-0.277-1.037v-2.156h-0.611v-0.547h0.611v-0.733L279.043,383.243z"/>
</g>
<g>
	<path fill="#010101" d="M299.265,436.91c-0.434,0.224-1.345,0.447-2.492,0.447c-2.662,0-4.65-1.682-4.65-4.791
		c0-2.97,2.003-4.958,4.932-4.958c1.162,0,1.918,0.252,2.24,0.421l-0.308,0.994c-0.448-0.226-1.107-0.394-1.891-0.394
		c-2.214,0-3.685,1.415-3.685,3.896c0,2.323,1.331,3.796,3.614,3.796c0.756,0,1.513-0.154,2.003-0.394L299.265,436.91z"/>
	<path fill="#010101" d="M300.235,441.139c0.22,0.131,0.596,0.277,0.955,0.277c0.514,0,0.759-0.252,0.759-0.587
		c0-0.343-0.204-0.522-0.728-0.719c-0.718-0.262-1.053-0.646-1.053-1.118c0-0.637,0.522-1.159,1.363-1.159
		c0.399,0,0.751,0.106,0.963,0.245l-0.171,0.521c-0.155-0.098-0.441-0.235-0.809-0.235c-0.425,0-0.652,0.245-0.652,0.539
		c0,0.325,0.229,0.474,0.743,0.678c0.677,0.253,1.036,0.596,1.036,1.184c0,0.702-0.547,1.191-1.469,1.191
		c-0.433,0-0.833-0.113-1.109-0.277L300.235,441.139z"/>
	<path fill="#010101" d="M306.341,440.919c0,0.343,0.017,0.677,0.058,0.946h-0.646l-0.057-0.498h-0.024
		c-0.22,0.311-0.645,0.588-1.208,0.588c-0.8,0-1.208-0.562-1.208-1.135c0-0.955,0.85-1.478,2.375-1.47v-0.081
		c0-0.318-0.09-0.914-0.897-0.906c-0.375,0-0.76,0.105-1.037,0.295l-0.163-0.482c0.326-0.204,0.808-0.343,1.306-0.343
		c1.208,0,1.502,0.825,1.502,1.608V440.919L306.341,440.919z M305.647,439.85c-0.784-0.017-1.675,0.122-1.675,0.891
		c0,0.474,0.312,0.686,0.669,0.686c0.522,0,0.857-0.327,0.973-0.661c0.023-0.082,0.032-0.163,0.032-0.229L305.647,439.85
		L305.647,439.85z"/>
	<path fill="#010101" d="M308.333,436.968v0.946h1.028v0.547h-1.028v2.131c0,0.49,0.139,0.769,0.539,0.769
		c0.196,0,0.31-0.017,0.417-0.05l0.033,0.548c-0.14,0.049-0.359,0.098-0.638,0.098c-0.335,0-0.604-0.113-0.775-0.302
		c-0.196-0.221-0.277-0.571-0.277-1.036v-2.156h-0.612v-0.547h0.612v-0.734L308.333,436.968z"/>
</g>
<g id="Rsas">
	<rect id="Rsas_path1" x="194.752" y="387.868" fill="#FFFFFF" stroke="#231F20" width="48.046" height="14.194"/>
	<g>
		<path fill="#010101" d="M210.874,407.436c0.616-0.111,1.514-0.195,2.339-0.195c1.304,0,2.157,0.253,2.731,0.771
			c0.462,0.421,0.743,1.064,0.743,1.808c0,1.231-0.785,2.06-1.766,2.396v0.042c0.715,0.252,1.148,0.926,1.373,1.905
			c0.309,1.315,0.532,2.228,0.729,2.591h-1.261c-0.154-0.279-0.364-1.078-0.616-2.255c-0.28-1.304-0.798-1.793-1.905-1.835h-1.147
			v4.09h-1.22L210.874,407.436L210.874,407.436z M212.093,411.736h1.247c1.304,0,2.129-0.715,2.129-1.793
			c0-1.219-0.883-1.752-2.171-1.752c-0.588,0-0.994,0.043-1.205,0.099V411.736L212.093,411.736z"/>
		<path fill="#010101" d="M217.839,420.686c0.221,0.131,0.597,0.277,0.955,0.277c0.515,0,0.76-0.252,0.76-0.587
			c0-0.343-0.204-0.522-0.728-0.719c-0.718-0.261-1.053-0.646-1.053-1.118c0-0.637,0.521-1.159,1.363-1.159
			c0.399,0,0.751,0.106,0.963,0.245l-0.171,0.521c-0.155-0.099-0.441-0.236-0.809-0.236c-0.425,0-0.653,0.244-0.653,0.539
			c0,0.326,0.229,0.474,0.743,0.678c0.678,0.253,1.037,0.596,1.037,1.184c0,0.703-0.547,1.191-1.469,1.191
			c-0.433,0-0.833-0.113-1.11-0.277L217.839,420.686z"/>
		<path fill="#010101" d="M223.945,420.466c0,0.343,0.016,0.677,0.057,0.946h-0.645l-0.058-0.498h-0.023
			c-0.22,0.311-0.646,0.588-1.208,0.588c-0.8,0-1.208-0.562-1.208-1.135c0-0.955,0.849-1.477,2.375-1.469v-0.082
			c0-0.318-0.09-0.914-0.898-0.906c-0.375,0-0.759,0.105-1.037,0.295l-0.162-0.482c0.325-0.203,0.808-0.343,1.306-0.343
			c1.208,0,1.502,0.825,1.502,1.608V420.466L223.945,420.466z M223.251,419.396c-0.784-0.018-1.674,0.121-1.674,0.89
			c0,0.474,0.312,0.687,0.669,0.687c0.522,0,0.857-0.328,0.972-0.662c0.024-0.082,0.033-0.162,0.033-0.229V419.396L223.251,419.396z
			"/>
		<path fill="#010101" d="M225.006,420.686c0.221,0.131,0.597,0.277,0.955,0.277c0.515,0,0.76-0.252,0.76-0.587
			c0-0.343-0.204-0.522-0.728-0.719c-0.718-0.261-1.053-0.646-1.053-1.118c0-0.637,0.521-1.159,1.363-1.159
			c0.399,0,0.751,0.106,0.963,0.245l-0.171,0.521c-0.155-0.099-0.441-0.236-0.809-0.236c-0.425,0-0.653,0.244-0.653,0.539
			c0,0.326,0.229,0.474,0.743,0.678c0.678,0.253,1.037,0.596,1.037,1.184c0,0.703-0.547,1.191-1.47,1.191
			c-0.433,0-0.833-0.113-1.11-0.277L225.006,420.686z"/>
	</g>
</g>
<g>
	<path fill="none" stroke="#231F20" d="M75.5,394.227c0,12.142,0,24.283,0,36.425"/>
	<path fill="none" stroke="#231F20" d="M75.5,438.877c0,9.142,0,18.283,0,27.424"/>
	<line fill="none" stroke="#231F20" x1="63" y1="430.65" x2="88" y2="430.65"/>
	<line fill="none" stroke="#231F20" x1="63" y1="438.301" x2="88" y2="438.301"/>
	<line fill="none" stroke="#231F20" x1="63" y1="466.301" x2="88" y2="466.301"/>
</g>
<g>
	<path fill="#010101" d="M106.438,438.582c-0.435,0.225-1.346,0.449-2.493,0.449c-2.662,0-4.65-1.683-4.65-4.791
		c0-2.971,2.003-4.959,4.932-4.959c1.163,0,1.919,0.252,2.24,0.42l-0.308,0.994c-0.448-0.224-1.107-0.393-1.891-0.393
		c-2.213,0-3.685,1.415-3.685,3.895c0,2.326,1.331,3.797,3.614,3.797c0.756,0,1.513-0.154,2.003-0.394L106.438,438.582z"/>
	<path fill="#010101" d="M107.407,442.812c0.22,0.131,0.596,0.276,0.955,0.276c0.514,0,0.759-0.254,0.759-0.588
		c0-0.343-0.204-0.522-0.727-0.719c-0.719-0.263-1.054-0.646-1.054-1.118c0-0.637,0.522-1.159,1.363-1.159
		c0.4,0,0.751,0.105,0.963,0.244l-0.171,0.523c-0.155-0.099-0.44-0.236-0.808-0.236c-0.425,0-0.653,0.244-0.653,0.538
		c0,0.327,0.229,0.474,0.743,0.678c0.677,0.253,1.037,0.596,1.037,1.184c0,0.702-0.547,1.192-1.469,1.192
		c-0.434,0-0.833-0.115-1.11-0.278L107.407,442.812z"/>
	<path fill="#010101" d="M113.513,442.592c0,0.343,0.016,0.678,0.057,0.947h-0.646l-0.057-0.498h-0.023
		c-0.221,0.31-0.646,0.588-1.208,0.588c-0.801,0-1.208-0.563-1.208-1.135c0-0.955,0.849-1.479,2.375-1.47v-0.082
		c0-0.318-0.091-0.914-0.898-0.905c-0.375,0-0.759,0.104-1.037,0.293l-0.163-0.481c0.326-0.204,0.809-0.343,1.307-0.343
		c1.207,0,1.502,0.824,1.502,1.608V442.592z M112.819,441.521c-0.784-0.017-1.674,0.122-1.674,0.891
		c0,0.473,0.311,0.686,0.669,0.686c0.521,0,0.856-0.325,0.972-0.661c0.024-0.08,0.033-0.162,0.033-0.229V441.521z"/>
	<path fill="#010101" d="M114.574,442.812c0.22,0.131,0.596,0.276,0.955,0.276c0.514,0,0.759-0.254,0.759-0.588
		c0-0.343-0.204-0.522-0.727-0.719c-0.719-0.263-1.054-0.646-1.054-1.118c0-0.637,0.522-1.159,1.363-1.159
		c0.4,0,0.751,0.105,0.963,0.244l-0.171,0.523c-0.155-0.099-0.44-0.236-0.808-0.236c-0.425,0-0.653,0.244-0.653,0.538
		c0,0.327,0.229,0.474,0.743,0.678c0.677,0.253,1.037,0.596,1.037,1.184c0,0.702-0.547,1.192-1.47,1.192
		c-0.434,0-0.833-0.115-1.11-0.278L114.574,442.812z"/>
</g>
<g>
	<path fill="none" stroke="#231F20" d="M584.056,394.332c0,12.141,0,24.283,0,36.424"/>
	<path fill="none" stroke="#231F20" d="M584.056,438.982c0,9.142,0,18.282,0,27.424"/>
	<line fill="none" stroke="#231F20" x1="571.556" y1="430.756" x2="596.556" y2="430.756"/>
	<line fill="none" stroke="#231F20" x1="571.556" y1="438.406" x2="596.556" y2="438.406"/>
	<line fill="none" stroke="#231F20" x1="571.556" y1="466.406" x2="596.556" y2="466.406"/>
</g>
<g>
	<path fill="#010101" d="M614.994,438.688c-0.435,0.226-1.345,0.449-2.493,0.449c-2.661,0-4.65-1.682-4.65-4.791
		c0-2.97,2.003-4.959,4.932-4.959c1.162,0,1.919,0.252,2.241,0.42l-0.309,0.994c-0.449-0.223-1.106-0.392-1.892-0.392
		c-2.214,0-3.686,1.415-3.686,3.894c0,2.326,1.331,3.797,3.614,3.797c0.757,0,1.513-0.153,2.003-0.393L614.994,438.688z"/>
	<path fill="#010101" d="M615.964,442.918c0.22,0.131,0.596,0.277,0.955,0.277c0.515,0,0.759-0.254,0.759-0.588
		c0-0.344-0.203-0.522-0.727-0.72c-0.718-0.262-1.053-0.645-1.053-1.118c0-0.637,0.521-1.158,1.362-1.158
		c0.4,0,0.751,0.104,0.963,0.244l-0.171,0.522c-0.154-0.098-0.439-0.236-0.808-0.236c-0.426,0-0.654,0.244-0.654,0.538
		c0,0.327,0.229,0.475,0.744,0.679c0.677,0.253,1.036,0.596,1.036,1.184c0,0.702-0.547,1.192-1.47,1.192
		c-0.434,0-0.832-0.115-1.109-0.278L615.964,442.918z"/>
	<path fill="#010101" d="M619.572,439.693l0.774,2.212c0.132,0.367,0.236,0.693,0.318,1.021h0.023
		c0.09-0.326,0.204-0.652,0.336-1.021l0.767-2.212h0.751l-1.551,3.95h-0.687l-1.502-3.95H619.572z"/>
	<path fill="#010101" d="M623.219,440.762c0-0.416-0.008-0.742-0.032-1.067h0.638l0.041,0.651h0.016
		c0.196-0.367,0.653-0.733,1.308-0.733c0.547,0,1.396,0.325,1.396,1.682v2.353h-0.719v-2.278c0-0.637-0.236-1.167-0.914-1.167
		c-0.466,0-0.833,0.334-0.964,0.733c-0.032,0.091-0.049,0.214-0.049,0.335v2.377h-0.72V440.762L623.219,440.762z"/>
</g>
<g id="Rsat">
	<g>
		<path fill="#010101" d="M389.812,412.396c0.616-0.111,1.514-0.195,2.34-0.195c1.303,0,2.156,0.252,2.73,0.771
			c0.462,0.42,0.743,1.063,0.743,1.807c0,1.232-0.785,2.06-1.766,2.396v0.042c0.715,0.253,1.147,0.926,1.373,1.905
			c0.308,1.315,0.53,2.228,0.729,2.592H394.7c-0.153-0.28-0.363-1.079-0.615-2.256c-0.281-1.304-0.799-1.793-1.906-1.835h-1.147
			v4.091h-1.219V412.396z M391.031,416.697h1.247c1.303,0,2.13-0.715,2.13-1.793c0-1.219-0.883-1.75-2.172-1.75
			c-0.588,0-0.994,0.041-1.205,0.098V416.697L391.031,416.697z"/>
		<path fill="#010101" d="M396.778,425.648c0.22,0.131,0.596,0.276,0.955,0.276c0.515,0,0.759-0.254,0.759-0.588
			c0-0.343-0.203-0.521-0.728-0.719c-0.718-0.262-1.053-0.646-1.053-1.118c0-0.637,0.522-1.159,1.363-1.159
			c0.399,0,0.751,0.105,0.963,0.244l-0.171,0.523c-0.155-0.099-0.44-0.236-0.809-0.236c-0.426,0-0.653,0.244-0.653,0.538
			c0,0.327,0.229,0.474,0.744,0.678c0.677,0.253,1.035,0.596,1.035,1.185c0,0.701-0.547,1.191-1.47,1.191
			c-0.433,0-0.832-0.115-1.108-0.278L396.778,425.648z"/>
		<path fill="#010101" d="M402.885,425.428c0,0.344,0.017,0.679,0.058,0.947h-0.646l-0.058-0.498h-0.024
			c-0.221,0.311-0.645,0.588-1.208,0.588c-0.8,0-1.208-0.563-1.208-1.135c0-0.955,0.85-1.479,2.375-1.47v-0.082
			c0-0.318-0.09-0.914-0.897-0.905c-0.375,0-0.76,0.105-1.036,0.293l-0.163-0.481c0.326-0.203,0.809-0.343,1.307-0.343
			c1.207,0,1.502,0.824,1.502,1.608L402.885,425.428L402.885,425.428z M402.19,424.357c-0.784-0.017-1.675,0.123-1.675,0.891
			c0,0.473,0.312,0.686,0.669,0.686c0.523,0,0.857-0.325,0.974-0.66c0.022-0.081,0.032-0.163,0.032-0.229V424.357z"/>
		<path fill="#010101" d="M404.875,421.477v0.947h1.029v0.547h-1.029v2.131c0,0.489,0.139,0.768,0.539,0.768
			c0.195,0,0.311-0.018,0.416-0.049l0.033,0.547c-0.14,0.05-0.359,0.099-0.638,0.099c-0.335,0-0.604-0.115-0.774-0.303
			c-0.196-0.221-0.277-0.571-0.277-1.037v-2.154h-0.613v-0.547h0.613v-0.734L404.875,421.477z"/>
	</g>
	<rect id="Rsat_path1" x="373.408" y="387.868" fill="#FFFFFF" stroke="#231F20" width="48.047" height="14.194"/>
</g>
<g>
	<path fill="#010101" d="M654.093,376.703c-1.273-0.336-2.521-0.715-3.614-1.094c-0.209-0.069-0.392-0.139-0.573-0.139
		c-2.255-0.086-4.16-1.738-4.16-4.791c0-3.025,1.836-4.974,4.385-4.974c2.577,0,4.244,1.987,4.244,4.776
		c0,2.437-1.121,3.978-2.688,4.537v0.058c0.938,0.237,1.961,0.462,2.76,0.603L654.093,376.703z M653.084,370.553
		c0-1.904-0.98-3.852-2.982-3.852c-2.06,0-3.067,1.904-3.067,3.949c0,2.018,1.093,3.824,3.024,3.824
		C651.992,374.477,653.084,372.695,653.084,370.553z"/>
	<path fill="#010101" d="M655.385,379.252c0.221,0.131,0.597,0.277,0.955,0.277c0.514,0,0.759-0.254,0.759-0.588
		c0-0.344-0.204-0.522-0.727-0.719c-0.718-0.263-1.054-0.646-1.054-1.119c0-0.637,0.522-1.158,1.362-1.158
		c0.4,0,0.752,0.104,0.964,0.244l-0.171,0.522c-0.155-0.098-0.44-0.235-0.809-0.235c-0.425,0-0.653,0.244-0.653,0.537
		c0,0.327,0.229,0.475,0.743,0.678c0.678,0.254,1.037,0.597,1.037,1.185c0,0.702-0.547,1.192-1.47,1.192
		c-0.434,0-0.833-0.115-1.11-0.278L655.385,379.252z"/>
	<path fill="#010101" d="M658.992,376.027l0.774,2.212c0.132,0.366,0.236,0.694,0.318,1.021h0.023
		c0.09-0.326,0.205-0.652,0.336-1.021l0.767-2.212h0.751l-1.551,3.951h-0.687l-1.502-3.951H658.992z"/>
	<path fill="#010101" d="M662.639,377.096c0-0.416-0.008-0.742-0.031-1.068h0.637l0.041,0.652h0.016
		c0.196-0.367,0.653-0.734,1.308-0.734c0.547,0,1.396,0.326,1.396,1.683v2.353h-0.719v-2.28c0-0.638-0.237-1.167-0.914-1.167
		c-0.466,0-0.833,0.334-0.964,0.734c-0.032,0.09-0.049,0.213-0.049,0.334v2.377h-0.72V377.096L662.639,377.096z"/>
</g>
<g id="Rsvn">
	<g>
		<path fill="#010101" d="M647.361,411.764c0.617-0.111,1.514-0.195,2.34-0.195c1.303,0,2.157,0.252,2.73,0.771
			c0.463,0.42,0.743,1.063,0.743,1.808c0,1.231-0.785,2.06-1.766,2.396v0.042c0.715,0.252,1.147,0.925,1.373,1.904
			c0.308,1.316,0.531,2.229,0.729,2.592h-1.262c-0.153-0.279-0.363-1.078-0.615-2.255c-0.28-1.304-0.799-1.793-1.905-1.835h-1.148
			v4.09h-1.219V411.764z M648.58,416.064h1.247c1.303,0,2.13-0.715,2.13-1.793c0-1.22-0.883-1.752-2.172-1.752
			c-0.588,0-0.994,0.043-1.205,0.099V416.064z"/>
		<path fill="#010101" d="M654.327,425.014c0.22,0.131,0.596,0.277,0.955,0.277c0.515,0,0.759-0.252,0.759-0.587
			c0-0.343-0.203-0.522-0.727-0.719c-0.719-0.262-1.054-0.646-1.054-1.118c0-0.637,0.522-1.159,1.363-1.159
			c0.4,0,0.751,0.106,0.963,0.245l-0.171,0.521c-0.155-0.098-0.44-0.235-0.808-0.235c-0.427,0-0.654,0.245-0.654,0.539
			c0,0.325,0.229,0.474,0.744,0.678c0.677,0.253,1.036,0.596,1.036,1.184c0,0.702-0.547,1.191-1.471,1.191
			c-0.433,0-0.832-0.113-1.108-0.277L654.327,425.014z"/>
		<path fill="#010101" d="M657.935,421.789l0.775,2.213c0.131,0.367,0.236,0.693,0.318,1.021h0.022
			c0.09-0.327,0.205-0.653,0.336-1.021l0.768-2.213h0.751l-1.551,3.951h-0.687l-1.502-3.951H657.935z"/>
		<path fill="#010101" d="M661.583,422.859c0-0.416-0.008-0.743-0.032-1.07h0.638l0.041,0.654h0.016
			c0.196-0.368,0.653-0.735,1.307-0.735c0.547,0,1.396,0.327,1.396,1.682v2.352h-0.719v-2.277c0-0.637-0.236-1.167-0.914-1.167
			c-0.467,0-0.833,0.335-0.964,0.734c-0.032,0.09-0.05,0.212-0.05,0.335v2.375h-0.719V422.859L661.583,422.859z"/>
	</g>
	<rect id="Rsvn_path1" x="630.957" y="387.868" fill="#FFFFFF" stroke="#231F20" width="48.047" height="14.194"/>
</g>
<g>
	<path fill="none" stroke="#231F20" d="M267.155,394.256c0,12.141,0,24.283,0,36.424"/>
	<path fill="none" stroke="#231F20" d="M267.155,438.906c0,9.142,0,18.283,0,27.424"/>
	<line fill="none" stroke="#231F20" x1="254.655" y1="430.68" x2="279.655" y2="430.68"/>
	<line fill="none" stroke="#231F20" x1="254.655" y1="438.33" x2="279.655" y2="438.33"/>
	<line fill="none" stroke="#231F20" x1="254.655" y1="466.33" x2="279.655" y2="466.33"/>
</g>
<g id="Rscp">
	<rect id="Rscp_path1" x="500.984" y="387.868" fill="#FFFFFF" stroke="#231F20" width="48.047" height="14.194"/>
	<g>
		<path fill="#010101" d="M516.541,412.396c0.615-0.111,1.512-0.195,2.339-0.195c1.303,0,2.157,0.252,2.731,0.771
			c0.463,0.42,0.742,1.063,0.742,1.807c0,1.232-0.784,2.06-1.766,2.396v0.042c0.714,0.253,1.148,0.926,1.372,1.905
			c0.31,1.315,0.533,2.228,0.729,2.592h-1.261c-0.153-0.28-0.364-1.079-0.616-2.256c-0.279-1.304-0.799-1.793-1.904-1.835h-1.148
			v4.091h-1.219V412.396z M517.76,416.697h1.246c1.303,0,2.129-0.715,2.129-1.793c0-1.219-0.883-1.75-2.171-1.75
			c-0.589,0-0.995,0.041-1.204,0.098V416.697z"/>
		<path fill="#010101" d="M523.506,425.648c0.221,0.131,0.596,0.276,0.955,0.276c0.514,0,0.76-0.254,0.76-0.588
			c0-0.343-0.205-0.521-0.727-0.719c-0.719-0.262-1.054-0.646-1.054-1.118c0-0.637,0.521-1.159,1.362-1.159
			c0.399,0,0.751,0.105,0.964,0.244l-0.172,0.523c-0.155-0.099-0.44-0.236-0.809-0.236c-0.424,0-0.652,0.244-0.652,0.538
			c0,0.327,0.229,0.474,0.742,0.678c0.678,0.253,1.037,0.596,1.037,1.185c0,0.701-0.547,1.191-1.469,1.191
			c-0.435,0-0.834-0.115-1.111-0.278L523.506,425.648z"/>
		<path fill="#010101" d="M529.652,426.236c-0.188,0.09-0.604,0.229-1.136,0.229c-1.19,0-1.967-0.809-1.967-2.018
			c0-1.216,0.832-2.105,2.122-2.105c0.425,0,0.8,0.105,0.996,0.213l-0.163,0.547c-0.172-0.09-0.44-0.188-0.833-0.188
			c-0.906,0-1.396,0.678-1.396,1.494c0,0.914,0.588,1.478,1.37,1.478c0.408,0,0.679-0.098,0.883-0.188L529.652,426.236z"/>
		<path fill="#010101" d="M530.492,423.713c0-0.506-0.017-0.914-0.032-1.289h0.637l0.04,0.678h0.019
			c0.285-0.481,0.759-0.76,1.402-0.76c0.965,0,1.683,0.81,1.683,2c0,1.42-0.874,2.123-1.805,2.123c-0.521,0-0.979-0.229-1.217-0.621
			h-0.016v2.146h-0.711V423.713L530.492,423.713z M531.203,424.766c0,0.107,0.008,0.205,0.032,0.295
			c0.13,0.498,0.562,0.841,1.077,0.841c0.76,0,1.199-0.619,1.199-1.525c0-0.784-0.416-1.462-1.175-1.462
			c-0.49,0-0.955,0.343-1.086,0.882c-0.025,0.09-0.049,0.195-0.049,0.285L531.203,424.766L531.203,424.766z"/>
	</g>
</g>
<g id="Rsar">
	<rect id="Rsar_path1" x="437.885" y="387.868" fill="#FFFFFF" stroke="#231F20" width="48.047" height="14.194"/>
	<g>
		<path fill="#010101" d="M454.291,412.396c0.615-0.111,1.512-0.195,2.339-0.195c1.303,0,2.157,0.252,2.731,0.771
			c0.463,0.42,0.741,1.063,0.741,1.807c0,1.232-0.783,2.06-1.765,2.396v0.042c0.714,0.253,1.148,0.926,1.372,1.905
			c0.309,1.315,0.533,2.228,0.729,2.592h-1.261c-0.153-0.28-0.364-1.079-0.617-2.256c-0.278-1.304-0.798-1.793-1.903-1.835h-1.148
			v4.091h-1.219V412.396L454.291,412.396z M455.51,416.697h1.246c1.303,0,2.129-0.715,2.129-1.793c0-1.219-0.883-1.75-2.171-1.75
			c-0.589,0-0.995,0.041-1.204,0.098V416.697z"/>
		<path fill="#010101" d="M461.256,425.648c0.221,0.131,0.596,0.276,0.955,0.276c0.514,0,0.76-0.254,0.76-0.588
			c0-0.343-0.205-0.521-0.727-0.719c-0.719-0.262-1.054-0.646-1.054-1.118c0-0.637,0.521-1.159,1.362-1.159
			c0.399,0,0.751,0.105,0.964,0.244l-0.172,0.523c-0.154-0.099-0.44-0.236-0.809-0.236c-0.424,0-0.652,0.244-0.652,0.538
			c0,0.327,0.229,0.474,0.742,0.678c0.678,0.253,1.037,0.596,1.037,1.185c0,0.701-0.547,1.191-1.469,1.191
			c-0.435,0-0.834-0.115-1.111-0.278L461.256,425.648z"/>
		<path fill="#010101" d="M467.361,425.428c0,0.344,0.017,0.679,0.058,0.947h-0.646l-0.058-0.498h-0.023
			c-0.221,0.311-0.646,0.588-1.208,0.588c-0.802,0-1.209-0.563-1.209-1.135c0-0.955,0.85-1.479,2.376-1.47v-0.082
			c0-0.318-0.091-0.914-0.897-0.905c-0.376,0-0.76,0.105-1.037,0.293l-0.163-0.481c0.326-0.203,0.809-0.343,1.307-0.343
			c1.209,0,1.502,0.824,1.502,1.608L467.361,425.428L467.361,425.428z M466.668,424.357c-0.783-0.017-1.674,0.123-1.674,0.891
			c0,0.473,0.311,0.686,0.67,0.686c0.521,0,0.857-0.325,0.971-0.66c0.025-0.081,0.033-0.163,0.033-0.229V424.357z"/>
		<path fill="#010101" d="M468.519,423.656c0-0.465-0.008-0.865-0.03-1.232h0.628l0.032,0.783h0.024
			c0.18-0.531,0.62-0.865,1.103-0.865c0.072,0,0.131,0.008,0.194,0.017v0.678c-0.071-0.017-0.146-0.017-0.244-0.017
			c-0.506,0-0.864,0.375-0.963,0.914c-0.018,0.099-0.024,0.222-0.024,0.335v2.106h-0.72V423.656z"/>
	</g>
</g>
<g id="Lsas">
	<rect id="Lsas_path1" x="96.777" y="391.007" fill="#FFFFFF" width="69.223" height="3.958"/>
	<g>
		<g>
			<path fill="none" stroke="#231F20" d="M96.443,393.007c0-4.106,4.041-7.431,9.035-7.431"/>
			<path fill="none" stroke="#231F20" d="M113.91,393.007c0-4.106-4.041-7.431-9.035-7.431"/>
		</g>
		<g>
			<path fill="none" stroke="#231F20" d="M113.91,393.007c0-4.106,4.041-7.431,9.034-7.431"/>
			<path fill="none" stroke="#231F20" d="M131.375,393.007c0-4.106-4.041-7.431-9.034-7.431"/>
		</g>
		<g>
			<path fill="none" stroke="#231F20" d="M131.375,393.007c0-4.106,4.041-7.431,9.035-7.431"/>
			<path fill="none" stroke="#231F20" d="M148.842,393.007c0-4.106-4.041-7.431-9.033-7.431"/>
		</g>
		<g>
			<path fill="none" stroke="#231F20" d="M148.842,393.007c0-4.106,4.041-7.431,9.034-7.431"/>
			<path fill="none" stroke="#231F20" d="M166.309,393.007c0-4.106-4.041-7.431-9.034-7.431"/>
		</g>
	</g>
</g>
<g id="Lsat">
	<rect id="Lsat_path1" x="289.412" y="391.007" fill="#FFFFFF" width="69.223" height="3.958"/>
	<g>
		<g>
			<path fill="none" stroke="#231F20" d="M289.079,393.007c0-4.106,4.041-7.431,9.035-7.431"/>
			<path fill="none" stroke="#231F20" d="M306.545,393.007c0-4.106-4.041-7.431-9.035-7.431"/>
		</g>
		<g>
			<path fill="none" stroke="#231F20" d="M306.545,393.007c0-4.106,4.041-7.431,9.034-7.431"/>
			<path fill="none" stroke="#231F20" d="M324.01,393.007c0-4.106-4.04-7.431-9.034-7.431"/>
		</g>
		<g>
			<path fill="none" stroke="#231F20" d="M324.01,393.007c0-4.106,4.041-7.431,9.035-7.431"/>
			<path fill="none" stroke="#231F20" d="M341.476,393.007c0-4.106-4.04-7.431-9.032-7.431"/>
		</g>
		<g>
			<path fill="none" stroke="#231F20" d="M341.476,393.007c0-4.106,4.041-7.431,9.035-7.431"/>
			<path fill="none" stroke="#231F20" d="M358.944,393.007c0-4.106-4.041-7.431-9.034-7.431"/>
		</g>
	</g>
</g>
<g>
	<path fill="#010101" d="M123.392,400.553h1.231v8.418h4.034v1.023h-5.267L123.392,400.553L123.392,400.553z"/>
	<path fill="#010101" d="M129.447,413.93c0.22,0.131,0.596,0.277,0.955,0.277c0.514,0,0.759-0.254,0.759-0.588
		c0-0.344-0.204-0.521-0.727-0.719c-0.719-0.262-1.054-0.646-1.054-1.118c0-0.638,0.522-1.159,1.363-1.159
		c0.4,0,0.751,0.105,0.963,0.244l-0.171,0.523c-0.155-0.099-0.44-0.236-0.808-0.236c-0.425,0-0.653,0.244-0.653,0.537
		c0,0.328,0.229,0.475,0.743,0.679c0.677,0.253,1.037,0.596,1.037,1.185c0,0.701-0.547,1.191-1.469,1.191
		c-0.434,0-0.833-0.115-1.11-0.278L129.447,413.93z"/>
	<path fill="#010101" d="M135.553,413.709c0,0.343,0.016,0.678,0.057,0.947h-0.646l-0.057-0.498h-0.024
		c-0.221,0.31-0.645,0.588-1.208,0.588c-0.8,0-1.208-0.564-1.208-1.135c0-0.955,0.85-1.479,2.375-1.471v-0.082
		c0-0.317-0.09-0.914-0.897-0.904c-0.375,0-0.759,0.104-1.037,0.293l-0.163-0.481c0.326-0.204,0.809-0.343,1.306-0.343
		c1.208,0,1.503,0.824,1.503,1.607V413.709L135.553,413.709z M134.859,412.639c-0.784-0.016-1.674,0.123-1.674,0.891
		c0,0.474,0.311,0.687,0.669,0.687c0.521,0,0.856-0.325,0.972-0.661c0.024-0.08,0.033-0.162,0.033-0.229V412.639L134.859,412.639z"
		/>
	<path fill="#010101" d="M136.613,413.93c0.22,0.131,0.596,0.277,0.955,0.277c0.514,0,0.759-0.254,0.759-0.588
		c0-0.344-0.204-0.521-0.727-0.719c-0.719-0.262-1.054-0.646-1.054-1.118c0-0.638,0.522-1.159,1.363-1.159
		c0.4,0,0.751,0.105,0.963,0.244l-0.171,0.523c-0.155-0.099-0.44-0.236-0.808-0.236c-0.425,0-0.653,0.244-0.653,0.537
		c0,0.328,0.229,0.475,0.743,0.679c0.677,0.253,1.037,0.596,1.037,1.185c0,0.701-0.547,1.191-1.469,1.191
		c-0.434,0-0.833-0.115-1.11-0.278L136.613,413.93z"/>
</g>
<g>
	<path fill="#010101" d="M316.027,400.553h1.231v8.418h4.034v1.023h-5.267L316.027,400.553L316.027,400.553z"/>
	<path fill="#010101" d="M322.083,413.93c0.22,0.131,0.596,0.277,0.955,0.277c0.514,0,0.759-0.254,0.759-0.588
		c0-0.344-0.204-0.521-0.727-0.719c-0.719-0.262-1.054-0.646-1.054-1.118c0-0.638,0.522-1.159,1.363-1.159
		c0.4,0,0.751,0.105,0.963,0.244l-0.171,0.523c-0.155-0.099-0.44-0.236-0.808-0.236c-0.425,0-0.653,0.244-0.653,0.537
		c0,0.328,0.229,0.475,0.743,0.679c0.677,0.253,1.037,0.596,1.037,1.185c0,0.701-0.547,1.191-1.469,1.191
		c-0.434,0-0.833-0.115-1.11-0.278L322.083,413.93z"/>
	<path fill="#010101" d="M328.187,413.709c0,0.343,0.017,0.678,0.058,0.947h-0.646l-0.057-0.498h-0.024
		c-0.221,0.31-0.645,0.588-1.208,0.588c-0.8,0-1.208-0.564-1.208-1.135c0-0.955,0.85-1.479,2.375-1.471v-0.082
		c0-0.317-0.09-0.914-0.897-0.904c-0.375,0-0.759,0.104-1.037,0.293l-0.163-0.481c0.326-0.204,0.809-0.343,1.306-0.343
		c1.208,0,1.503,0.824,1.503,1.607L328.187,413.709L328.187,413.709z M327.494,412.639c-0.784-0.016-1.674,0.123-1.674,0.891
		c0,0.474,0.311,0.687,0.669,0.687c0.521,0,0.856-0.325,0.972-0.661c0.024-0.08,0.033-0.162,0.033-0.229V412.639L327.494,412.639z"
		/>
	<path fill="#010101" d="M330.178,409.758v0.947h1.028v0.547h-1.028v2.131c0,0.489,0.14,0.768,0.539,0.768
		c0.196,0,0.311-0.018,0.417-0.049l0.033,0.547c-0.139,0.049-0.359,0.099-0.637,0.099c-0.335,0-0.604-0.115-0.776-0.304
		c-0.196-0.221-0.277-0.57-0.277-1.036v-2.154h-0.611v-0.547h0.611v-0.735L330.178,409.758z"/>
</g>
<g>
	<path fill="#010101" d="M175.161,377.146c-1.273-0.336-2.521-0.715-3.614-1.092c-0.21-0.07-0.392-0.142-0.573-0.142
		c-2.256-0.084-4.16-1.736-4.16-4.791c0-3.024,1.835-4.974,4.384-4.974c2.577,0,4.244,1.99,4.244,4.777
		c0,2.438-1.121,3.979-2.689,4.539v0.055c0.938,0.238,1.961,0.463,2.761,0.604L175.161,377.146z M174.153,370.998
		c0-1.905-0.98-3.854-2.983-3.854c-2.059,0-3.067,1.905-3.067,3.951c0,2.018,1.093,3.823,3.024,3.823
		C173.06,374.92,174.153,373.141,174.153,370.998z"/>
	<path fill="#010101" d="M176.453,379.695c0.22,0.131,0.596,0.277,0.955,0.277c0.514,0,0.759-0.252,0.759-0.588
		c0-0.343-0.204-0.521-0.727-0.719c-0.718-0.261-1.053-0.645-1.053-1.118c0-0.637,0.521-1.159,1.362-1.159
		c0.4,0,0.751,0.106,0.963,0.245l-0.171,0.521c-0.154-0.098-0.44-0.235-0.808-0.235c-0.425,0-0.653,0.245-0.653,0.539
		c0,0.326,0.229,0.474,0.743,0.679c0.677,0.252,1.037,0.596,1.037,1.184c0,0.701-0.547,1.191-1.469,1.191
		c-0.434,0-0.833-0.113-1.11-0.277L176.453,379.695z"/>
	<path fill="#010101" d="M182.558,379.477c0,0.342,0.016,0.676,0.057,0.945h-0.645l-0.058-0.498h-0.023
		c-0.222,0.311-0.646,0.588-1.208,0.588c-0.801,0-1.208-0.562-1.208-1.135c0-0.955,0.849-1.477,2.375-1.469v-0.082
		c0-0.318-0.091-0.914-0.898-0.906c-0.375,0-0.759,0.105-1.037,0.295l-0.163-0.482c0.326-0.203,0.809-0.342,1.307-0.342
		c1.208,0,1.502,0.824,1.502,1.607V379.477L182.558,379.477z M181.864,378.406c-0.784-0.018-1.674,0.121-1.674,0.89
		c0,0.474,0.311,0.687,0.669,0.687c0.521,0,0.856-0.327,0.972-0.662c0.024-0.081,0.033-0.162,0.033-0.229V378.406L181.864,378.406z"
		/>
	<path fill="#010101" d="M183.619,379.695c0.22,0.131,0.596,0.277,0.955,0.277c0.514,0,0.759-0.252,0.759-0.588
		c0-0.343-0.204-0.521-0.727-0.719c-0.718-0.261-1.053-0.645-1.053-1.118c0-0.637,0.521-1.159,1.362-1.159
		c0.4,0,0.751,0.106,0.963,0.245l-0.171,0.521c-0.154-0.098-0.44-0.235-0.808-0.235c-0.425,0-0.653,0.245-0.653,0.539
		c0,0.326,0.229,0.474,0.743,0.679c0.677,0.252,1.037,0.596,1.037,1.184c0,0.701-0.547,1.191-1.469,1.191
		c-0.434,0-0.833-0.113-1.11-0.277L183.619,379.695z"/>
</g>
<rect x="104.875" y="216" fill="none" stroke="#231F20" stroke-dasharray="3,3" width="365.717" height="114"/>
<g>
	<path fill="#010101" d="M67.305,374.15c0.588-0.1,1.358-0.184,2.339-0.184c1.205,0,2.087,0.28,2.646,0.784
		c0.504,0.449,0.827,1.135,0.827,1.976c0,0.854-0.252,1.526-0.729,2.018c-0.658,0.688-1.695,1.037-2.887,1.037
		c-0.363,0-0.699-0.014-0.979-0.084v3.781h-1.219L67.305,374.15L67.305,374.15z M68.524,378.703
		c0.266,0.068,0.603,0.098,1.009,0.098c1.471,0,2.367-0.729,2.367-2.004c0-1.26-0.896-1.861-2.229-1.861
		c-0.531,0-0.938,0.041-1.147,0.098V378.703z"/>
	<path fill="#010101" d="M74.187,387.414c0.22,0.131,0.596,0.277,0.955,0.277c0.514,0,0.759-0.252,0.759-0.588
		c0-0.342-0.204-0.521-0.728-0.719c-0.718-0.261-1.053-0.645-1.053-1.117c0-0.638,0.522-1.16,1.363-1.16
		c0.399,0,0.751,0.106,0.963,0.246l-0.171,0.521c-0.155-0.099-0.441-0.235-0.809-0.235c-0.425,0-0.652,0.244-0.652,0.538
		c0,0.326,0.229,0.474,0.743,0.679c0.677,0.252,1.037,0.596,1.037,1.184c0,0.702-0.548,1.191-1.47,1.191
		c-0.433,0-0.833-0.113-1.109-0.277L74.187,387.414z"/>
	<path fill="#010101" d="M80.292,387.193c0,0.344,0.017,0.678,0.058,0.947h-0.646l-0.057-0.498h-0.024
		c-0.22,0.311-0.645,0.588-1.208,0.588c-0.8,0-1.208-0.562-1.208-1.135c0-0.955,0.85-1.478,2.375-1.47v-0.082
		c0-0.317-0.09-0.914-0.897-0.905c-0.375,0-0.76,0.105-1.037,0.295l-0.163-0.482c0.326-0.204,0.808-0.344,1.306-0.344
		c1.208,0,1.502,0.826,1.502,1.608V387.193z M79.599,386.125c-0.784-0.018-1.675,0.122-1.675,0.891c0,0.474,0.312,0.686,0.669,0.686
		c0.522,0,0.857-0.327,0.973-0.661c0.023-0.082,0.033-0.163,0.033-0.229V386.125z"/>
	<path fill="#010101" d="M81.353,387.414c0.22,0.131,0.596,0.277,0.955,0.277c0.514,0,0.759-0.252,0.759-0.588
		c0-0.342-0.204-0.521-0.728-0.719c-0.718-0.261-1.053-0.645-1.053-1.117c0-0.638,0.522-1.16,1.363-1.16
		c0.399,0,0.751,0.106,0.963,0.246l-0.171,0.521c-0.155-0.099-0.441-0.235-0.809-0.235c-0.425,0-0.652,0.244-0.652,0.538
		c0,0.326,0.229,0.474,0.743,0.679c0.677,0.252,1.037,0.596,1.037,1.184c0,0.702-0.548,1.191-1.471,1.191
		c-0.433,0-0.833-0.113-1.109-0.277L81.353,387.414z"/>
</g>
<g>
	<path fill="#010101" d="M575.552,374.15c0.589-0.1,1.359-0.184,2.34-0.184c1.205,0,2.089,0.28,2.647,0.784
		c0.505,0.449,0.827,1.135,0.827,1.976c0,0.854-0.253,1.526-0.729,2.018c-0.657,0.688-1.694,1.037-2.887,1.037
		c-0.363,0-0.699-0.014-0.979-0.084v3.781h-1.22L575.552,374.15L575.552,374.15z M576.771,378.703
		c0.267,0.068,0.604,0.098,1.01,0.098c1.471,0,2.367-0.729,2.367-2.004c0-1.26-0.896-1.861-2.229-1.861
		c-0.531,0-0.938,0.041-1.147,0.098V378.703z"/>
	<path fill="#010101" d="M582.434,387.414c0.221,0.131,0.597,0.277,0.955,0.277c0.516,0,0.76-0.252,0.76-0.588
		c0-0.342-0.203-0.521-0.728-0.719c-0.718-0.261-1.053-0.645-1.053-1.117c0-0.638,0.521-1.16,1.363-1.16
		c0.399,0,0.751,0.106,0.963,0.246l-0.171,0.521c-0.155-0.099-0.44-0.235-0.809-0.235c-0.426,0-0.653,0.244-0.653,0.538
		c0,0.326,0.229,0.474,0.743,0.679c0.678,0.252,1.036,0.596,1.036,1.184c0,0.702-0.547,1.191-1.47,1.191
		c-0.433,0-0.832-0.113-1.109-0.277L582.434,387.414z"/>
	<path fill="#010101" d="M586.043,384.189l0.775,2.213c0.131,0.367,0.235,0.693,0.317,1.021h0.023
		c0.09-0.327,0.205-0.653,0.336-1.021l0.767-2.213h0.751l-1.551,3.951h-0.686l-1.502-3.951H586.043z"/>
	<path fill="#010101" d="M589.69,385.26c0-0.416-0.009-0.742-0.032-1.07h0.637l0.041,0.654h0.016
		c0.196-0.367,0.653-0.734,1.308-0.734c0.547,0,1.396,0.326,1.396,1.682v2.352h-0.719v-2.277c0-0.637-0.236-1.167-0.914-1.167
		c-0.466,0-0.833,0.335-0.964,0.733c-0.032,0.09-0.049,0.213-0.049,0.336v2.375h-0.719V385.26L589.69,385.26z"/>
</g>
<g>
	<path fill="#010101" d="M125.479,248.197l-3.097-9.441h1.331l1.472,4.65c0.392,1.274,0.741,2.423,1.009,3.53h0.027
		c0.267-1.093,0.645-2.283,1.078-3.516l1.598-4.665h1.303l-3.376,9.441h-1.345V248.197z"/>
	<path fill="#010101" d="M131.946,245.227l-0.98,2.97h-1.261l3.222-9.441h1.456l3.223,9.441h-1.304l-1.008-2.97H131.946z
		 M135.056,244.275l-0.938-2.718c-0.21-0.616-0.351-1.177-0.49-1.723H133.6c-0.141,0.546-0.28,1.134-0.478,1.708l-0.924,2.732
		L135.056,244.275L135.056,244.275z"/>
	<path fill="#010101" d="M138.987,238.896c0.742-0.126,1.625-0.21,2.592-0.21c1.751,0,2.997,0.42,3.824,1.177
		c0.854,0.771,1.345,1.863,1.345,3.39c0,1.541-0.49,2.802-1.358,3.67c-0.896,0.883-2.354,1.359-4.188,1.359
		c-0.882,0-1.597-0.042-2.213-0.112L138.987,238.896L138.987,238.896z M140.206,247.244c0.31,0.042,0.757,0.056,1.232,0.056
		c2.62,0,4.021-1.457,4.021-4.006c0.015-2.227-1.247-3.642-3.824-3.642c-0.63,0-1.105,0.056-1.429,0.126V247.244L140.206,247.244z"
		/>
</g>
<g>
	<g>
		<line fill="none" stroke="#231F20" x1="358.944" y1="86.201" x2="358.944" y2="273"/>
		<circle fill="#231F20" cx="358.944" cy="86.201" r="3.759"/>
	</g>
</g>
<g>
	<g>
		<line fill="none" stroke="#231F20" x1="254.655" y1="273" x2="254.655" y2="393.227"/>
		<circle fill="#231F20" cx="254.655" cy="393.227" r="3.76"/>
	</g>
</g>
<line fill="none" stroke="#231F20" x1="254.655" y1="273" x2="358.944" y2="273"/>
<rect x="275.187" y="241.452" fill="#FFFFFF" stroke="#231F20" width="74.321" height="74.321"/>
<g>
	<path fill="#010101" d="M382.26,241.421c-1.273-0.336-2.521-0.714-3.614-1.093c-0.209-0.07-0.392-0.14-0.573-0.14
		c-2.255-0.084-4.16-1.737-4.16-4.791c0-3.025,1.836-4.973,4.385-4.973c2.577,0,4.244,1.989,4.244,4.777
		c0,2.437-1.121,3.978-2.689,4.539v0.056c0.938,0.238,1.962,0.462,2.761,0.603L382.26,241.421z M381.252,235.272
		c0-1.905-0.979-3.852-2.982-3.852c-2.06,0-3.067,1.905-3.067,3.95c0,2.017,1.093,3.824,3.024,3.824
		C380.16,239.194,381.252,237.415,381.252,235.272z"/>
	<path fill="#010101" d="M383.927,240.746l0.775,2.212c0.131,0.367,0.236,0.694,0.318,1.021h0.023
		c0.09-0.327,0.204-0.653,0.335-1.021l0.769-2.212h0.751l-1.553,3.951h-0.686l-1.502-3.951H383.927z"/>
	<path fill="#010101" d="M387.576,242.036c0-0.506-0.018-0.915-0.033-1.29h0.637l0.041,0.678h0.018
		c0.286-0.482,0.759-0.759,1.402-0.759c0.965,0,1.683,0.808,1.683,2c0,1.42-0.873,2.123-1.804,2.123
		c-0.522,0-0.979-0.229-1.217-0.621h-0.017v2.147h-0.71V242.036z M388.286,243.088c0,0.106,0.009,0.204,0.032,0.294
		c0.131,0.498,0.562,0.841,1.078,0.841c0.76,0,1.198-0.62,1.198-1.526c0-0.784-0.416-1.461-1.175-1.461
		c-0.489,0-0.955,0.343-1.086,0.882c-0.023,0.09-0.049,0.196-0.049,0.286L388.286,243.088L388.286,243.088z"/>
	<path fill="#010101" d="M392.219,238.901h0.72v5.796h-0.72V238.901z"/>
</g>
<g>
	<path fill="#010101" d="M230.262,307.441c-1.274-0.336-2.521-0.715-3.614-1.092c-0.21-0.07-0.393-0.142-0.574-0.142
		c-2.255-0.084-4.16-1.735-4.16-4.791c0-3.024,1.835-4.974,4.384-4.974c2.577,0,4.244,1.99,4.244,4.777
		c0,2.438-1.121,3.979-2.688,4.539v0.055c0.938,0.238,1.961,0.464,2.76,0.604L230.262,307.441z M229.253,301.293
		c0-1.904-0.979-3.854-2.982-3.854c-2.06,0-3.068,1.905-3.068,3.951c0,2.018,1.093,3.823,3.025,3.823
		C228.161,305.215,229.253,303.436,229.253,301.293z"/>
	<path fill="#010101" d="M231.929,306.766l0.774,2.213c0.131,0.367,0.237,0.693,0.318,1.021h0.023
		c0.09-0.327,0.204-0.652,0.335-1.021l0.768-2.213h0.751l-1.551,3.951h-0.687l-1.502-3.951H231.929z"/>
	<path fill="#010101" d="M235.577,308.057c0-0.507-0.016-0.914-0.032-1.291h0.638l0.041,0.678h0.017
		c0.286-0.48,0.759-0.758,1.404-0.758c0.963,0,1.682,0.808,1.682,2c0,1.42-0.874,2.121-1.804,2.121c-0.522,0-0.98-0.229-1.217-0.619
		h-0.017v2.146h-0.71v-4.277H235.577z M236.287,309.109c0,0.104,0.008,0.203,0.033,0.293c0.13,0.498,0.562,0.842,1.078,0.842
		c0.759,0,1.2-0.621,1.2-1.527c0-0.783-0.416-1.461-1.176-1.461c-0.489,0-0.955,0.344-1.086,0.883
		c-0.023,0.09-0.049,0.195-0.049,0.285L236.287,309.109L236.287,309.109z"/>
	<path fill="#010101" d="M243.796,308.709c0,1.461-1.021,2.098-1.967,2.098c-1.061,0-1.894-0.783-1.894-2.031
		c0-1.314,0.874-2.09,1.959-2.09C243.029,306.686,243.796,307.51,243.796,308.709z M240.67,308.75c0,0.865,0.49,1.518,1.192,1.518
		c0.686,0,1.2-0.645,1.2-1.533c0-0.67-0.335-1.512-1.185-1.512C241.037,307.223,240.67,308.007,240.67,308.75z"/>
</g>
<g id="XMLID_3_">
	<g>
		<path fill="#E6E7E8" d="M345.99,267.67v6c0,0.92-0.101,1.82-0.3,2.68l-0.761-0.18H281.35l-0.771,0.18
			c-0.2-0.859-0.3-1.76-0.3-2.68v-6c0-0.32,0.01-0.63,0.04-0.95h65.63C345.98,267.04,345.99,267.35,345.99,267.67z"/>
		<path fill="#E6E7E8" d="M345.95,266.72h-65.63c0.479-6.18,5.66-11.05,11.96-11.05h41.71
			C340.3,255.67,345.469,260.54,345.95,266.72z"/>
		<path fill="#BCBEC0" d="M344.929,276.17l0.761,0.18c-1.221,5.33-5.99,9.32-11.7,9.32h-41.71c-5.7,0-10.48-3.99-11.7-9.32
			l0.771-0.18H344.929z"/>
	</g>
	<g>
		<path fill="none" stroke="#231F20" d="M345.95,266.72c0.03,0.32,0.04,0.63,0.04,0.95v6c0,0.92-0.101,1.82-0.3,2.68
			c-1.221,5.33-5.99,9.32-11.7,9.32h-41.71c-5.7,0-10.48-3.99-11.7-9.32c-0.2-0.859-0.3-1.76-0.3-2.68v-6
			c0-0.32,0.01-0.63,0.04-0.95c0.479-6.18,5.66-11.05,11.96-11.05h41.71C340.3,255.67,345.469,260.54,345.95,266.72z"/>
		<line fill="none" stroke="#231F20" x1="281.35" y1="276.17" x2="344.929" y2="276.17"/>
		<polyline fill="none" stroke="#231F20" points="280.28,266.72 280.32,266.72 345.95,266.72 345.99,266.72 		"/>
	</g>
</g>
<g id="XMLID_4_">
	<g>
		
			<linearGradient id="SVGID_1_" gradientUnits="userSpaceOnUse" x1="280.1399" y1="282.5" x2="345.8499" y2="282.5" gradientTransform="matrix(1 0 0 -1 0.1401 553.9453)">
			<stop  offset="0" style="stop-color:#FFFFFF"/>
			<stop  offset="1" style="stop-color:#000000"/>
		</linearGradient>
		<rect x="280.28" y="266.72" fill="url(#SVGID_1_)" width="65.71" height="9.45"/>
	</g>
	<g>
		<rect x="280.28" y="266.72" fill="none" stroke="#231F20" width="65.71" height="9.45"/>
	</g>
</g>
<linearGradient id="SVGID_2_" gradientUnits="userSpaceOnUse" x1="309.4319" y1="261.834" x2="314.8352" y2="261.834" gradientTransform="matrix(1 0 0 -1 0.1401 553.9453)">
	<stop  offset="0" style="stop-color:#FFFFFF"/>
	<stop  offset="1" style="stop-color:#000000"/>
</linearGradient>
<rect x="309.572" y="276.945" fill="url(#SVGID_2_)" stroke="#231F20" width="5.403" height="30.333"/>
</svg>
