<?xml version="1.0" encoding="utf-8"?>
<!-- Generator: Adobe Illustrator 14.0.0, SVG Export Plug-In . SVG Version: 6.00 Build 43363)  -->
<!DOCTYPE svg PUBLIC "-//W3C//DTD SVG 1.1//EN" "http://www.w3.org/Graphics/SVG/1.1/DTD/svg11.dtd">
<svg version="1.1" id="Layer_1" xmlns="http://www.w3.org/2000/svg" xmlns:xlink="http://www.w3.org/1999/xlink" x="0px" y="0px"
	 width="751px" height="554px" viewBox="0 0 751 554" enable-background="new 0 0 751 554" xml:space="preserve">
<rect x="-19" y="-4" fill="#FFFFFF" stroke="#231F20" width="868" height="567"/>
<rect x="50" y="86.625" fill="none" stroke="#231F20" width="652" height="306.819"/>
<g>
	<path fill="#010101" d="M542.949,512.74c0.547,0.351,1.33,0.617,2.172,0.617c1.246,0,1.975-0.658,1.975-1.611
		c0-0.868-0.504-1.387-1.779-1.863c-1.541-0.561-2.494-1.372-2.494-2.689c0-1.471,1.219-2.562,3.055-2.562
		c0.953,0,1.666,0.224,2.072,0.462l-0.336,0.995c-0.293-0.183-0.924-0.449-1.779-0.449c-1.287,0-1.777,0.771-1.777,1.415
		c0,0.882,0.574,1.317,1.877,1.821c1.596,0.616,2.395,1.387,2.395,2.773c0,1.457-1.064,2.731-3.291,2.731
		c-0.912,0-1.906-0.28-2.41-0.616L542.949,512.74z"/>
	<path fill="#010101" d="M550.299,507.445l1.471,4.007c0.168,0.448,0.336,0.98,0.449,1.387h0.027
		c0.127-0.406,0.266-0.925,0.436-1.415l1.344-3.979h1.303l-1.85,4.833c-0.883,2.325-1.484,3.502-2.324,4.245
		c-0.617,0.518-1.205,0.728-1.514,0.783l-0.309-1.021c0.309-0.099,0.715-0.295,1.08-0.603c0.336-0.267,0.742-0.743,1.035-1.373
		c0.057-0.126,0.1-0.224,0.1-0.294s-0.029-0.168-0.1-0.322l-2.492-6.248H550.299z"/>
	<path fill="#010101" d="M556.193,512.979c0.377,0.225,1.021,0.477,1.639,0.477c0.883,0,1.303-0.434,1.303-1.008
		c0-0.589-0.35-0.896-1.246-1.233c-1.234-0.448-1.809-1.106-1.809-1.919c0-1.093,0.896-1.989,2.34-1.989
		c0.686,0,1.289,0.183,1.652,0.421l-0.293,0.896c-0.268-0.168-0.758-0.406-1.387-0.406c-0.729,0-1.121,0.42-1.121,0.924
		c0,0.561,0.393,0.812,1.275,1.163c1.162,0.435,1.777,1.022,1.777,2.03c0,1.205-0.938,2.046-2.52,2.046
		c-0.744,0-1.43-0.196-1.906-0.477L556.193,512.979z"/>
	<path fill="#010101" d="M563.391,505.821v1.624h1.764v0.939h-1.764v3.656c0,0.84,0.236,1.316,0.924,1.316
		c0.336,0,0.531-0.028,0.715-0.084l0.055,0.938c-0.238,0.084-0.615,0.169-1.092,0.169c-0.574,0-1.037-0.196-1.33-0.519
		c-0.338-0.378-0.477-0.98-0.477-1.779v-3.697h-1.051v-0.939h1.051v-1.26L563.391,505.821z"/>
	<path fill="#010101" d="M567.141,511.061c0.029,1.666,1.078,2.353,2.326,2.353c0.883,0,1.428-0.153,1.877-0.351l0.225,0.883
		c-0.436,0.196-1.191,0.435-2.27,0.435c-2.088,0-3.334-1.387-3.334-3.433c0-2.045,1.205-3.642,3.18-3.642
		c2.227,0,2.801,1.933,2.801,3.18c0,0.253-0.014,0.435-0.041,0.575H567.141z M570.756,510.178c0.014-0.771-0.322-1.989-1.709-1.989
		c-1.262,0-1.793,1.134-1.893,1.989H570.756z"/>
	<path fill="#010101" d="M573.469,509.281c0-0.715-0.027-1.275-0.055-1.836h1.078l0.057,1.107h0.041
		c0.379-0.645,1.008-1.247,2.143-1.247c0.912,0,1.611,0.561,1.906,1.358h0.027c0.211-0.392,0.49-0.672,0.771-0.882
		c0.406-0.308,0.84-0.477,1.484-0.477c0.91,0,2.24,0.589,2.24,2.942v3.978h-1.205v-3.824c0-1.316-0.49-2.087-1.471-2.087
		c-0.713,0-1.246,0.518-1.471,1.106c-0.055,0.183-0.098,0.392-0.098,0.616v4.188h-1.205v-4.062c0-1.079-0.475-1.85-1.414-1.85
		c-0.756,0-1.33,0.616-1.527,1.232c-0.07,0.168-0.098,0.393-0.098,0.603v4.076h-1.205V509.281z"/>
	<path fill="#010101" d="M586.518,505.541c0,0.42-0.293,0.756-0.783,0.756c-0.449,0-0.744-0.336-0.744-0.756
		s0.309-0.771,0.771-0.771C586.209,504.771,586.518,505.106,586.518,505.541z M585.145,514.226v-6.78h1.232v6.78H585.145z"/>
	<path fill="#010101" d="M593.254,513.987c-0.322,0.154-1.037,0.393-1.947,0.393c-2.045,0-3.377-1.387-3.377-3.46
		c0-2.088,1.43-3.614,3.643-3.614c0.729,0,1.373,0.183,1.709,0.364l-0.279,0.938c-0.295-0.153-0.758-0.322-1.43-0.322
		c-1.555,0-2.395,1.163-2.395,2.563c0,1.568,1.008,2.535,2.352,2.535c0.701,0,1.164-0.168,1.514-0.322L593.254,513.987z"/>
	<path fill="#010101" d="M597.689,504.785h1.232v8.418h4.033v1.022h-5.266V504.785z"/>
	<path fill="#010101" d="M610.209,510.779c0,2.508-1.752,3.601-3.377,3.601c-1.82,0-3.25-1.345-3.25-3.488
		c0-2.255,1.5-3.586,3.363-3.586C608.891,507.306,610.209,508.721,610.209,510.779z M604.844,510.85c0,1.484,0.84,2.605,2.045,2.605
		c1.176,0,2.059-1.106,2.059-2.633c0-1.148-0.574-2.592-2.031-2.592C605.473,508.23,604.844,509.575,604.844,510.85z"/>
	<path fill="#010101" d="M617.895,510.779c0,2.508-1.752,3.601-3.377,3.601c-1.82,0-3.25-1.345-3.25-3.488
		c0-2.255,1.5-3.586,3.363-3.586C616.576,507.306,617.895,508.721,617.895,510.779z M612.529,510.85c0,1.484,0.84,2.605,2.045,2.605
		c1.176,0,2.059-1.106,2.059-2.633c0-1.148-0.574-2.592-2.031-2.592C613.158,508.23,612.529,509.575,612.529,510.85z"/>
	<path fill="#010101" d="M619.443,509.659c0-0.868-0.027-1.569-0.055-2.214h1.092l0.07,1.163h0.027
		c0.49-0.826,1.303-1.303,2.41-1.303c1.652,0,2.885,1.387,2.885,3.433c0,2.437-1.498,3.642-3.096,3.642
		c-0.896,0-1.68-0.393-2.086-1.065h-0.029v3.685h-1.219V509.659z M620.662,511.467c0,0.182,0.014,0.35,0.057,0.504
		c0.225,0.854,0.967,1.442,1.85,1.442c1.303,0,2.059-1.064,2.059-2.619c0-1.345-0.715-2.508-2.018-2.508
		c-0.84,0-1.639,0.589-1.863,1.513c-0.041,0.154-0.084,0.336-0.084,0.49V511.467z"/>
</g>
<rect x="30" y="356.444" fill="none" stroke="#231F20" stroke-dasharray="3,3" width="692" height="182.556"/>
<g>
	<rect x="162.41" y="21.352" fill="none" stroke="#231F20" stroke-dasharray="3,3" width="375" height="160"/>
	<g>
		<g>
			<g id="XMLID_1_">
				<g>
					<polygon fill="#FFFFFF" points="426.907,71.828 426.907,101.108 405.907,86.298 					"/>
				</g>
				<g>
					<line fill="none" stroke="#231F20" x1="405.907" y1="86.298" x2="426.907" y2="101.108"/>
					<line fill="none" stroke="#231F20" x1="426.907" y1="101.108" x2="426.907" y2="71.828"/>
					<line fill="none" stroke="#231F20" x1="426.907" y1="71.828" x2="405.907" y2="86.298"/>
				</g>
			</g>
		</g>
		<line fill="none" stroke="#231F20" x1="404.41" y1="71.034" x2="404.41" y2="101.899"/>
	</g>
	<g>
		<g>
			<g id="XMLID_2_">
				<g>
					<polygon fill="#FFFFFF" points="242.409,71.819 242.409,101.099 221.409,86.29 					"/>
				</g>
				<g>
					<line fill="none" stroke="#231F20" x1="221.409" y1="86.29" x2="242.409" y2="101.099"/>
					<line fill="none" stroke="#231F20" x1="242.409" y1="101.099" x2="242.409" y2="71.819"/>
					<line fill="none" stroke="#231F20" x1="242.409" y1="71.819" x2="221.409" y2="86.29"/>
				</g>
			</g>
		</g>
		<line fill="none" stroke="#231F20" x1="219.913" y1="71.034" x2="219.913" y2="101.899"/>
	</g>
	<line fill="none" stroke="#231F20" x1="482.41" y1="86.201" x2="482.41" y2="158.352"/>
	<line fill="none" stroke="#231F20" x1="470.076" y1="158.352" x2="495.076" y2="158.352"/>
	<line fill="none" stroke="#231F20" x1="470.076" y1="122.701" x2="495.076" y2="122.701"/>
	<line fill="none" stroke="#231F20" x1="470.076" y1="130.352" x2="495.076" y2="130.352"/>
	<g>
		<g>
			<line fill="none" stroke="#010101" x1="489.256" y1="112.664" x2="475.562" y2="142.04"/>
			<polygon fill="#010101" points="491.426,116.774 488.733,113.784 484.712,113.645 491.777,107.253 			"/>
		</g>
	</g>
	<line fill="none" stroke="#231F20" x1="306.243" y1="86.625" x2="306.243" y2="158.776"/>
	<line fill="none" stroke="#231F20" x1="293.91" y1="158.776" x2="318.91" y2="158.776"/>
	<line fill="none" stroke="#231F20" x1="293.91" y1="123.125" x2="318.91" y2="123.125"/>
	<line fill="none" stroke="#231F20" x1="293.91" y1="130.776" x2="318.91" y2="130.776"/>
	<g>
		<g>
			<line fill="none" stroke="#010101" x1="313.088" y1="113.088" x2="299.396" y2="142.464"/>
			<polygon fill="#010101" points="315.258,117.198 312.566,114.208 308.544,114.069 315.61,107.678 			"/>
		</g>
	</g>
	<g>
		<path fill="#010101" d="M184.693,149.335v3.95h4.566v-3.95h1.232v9.441h-1.232v-4.426h-4.566v4.426h-1.232v-9.441H184.693z"/>
		<path fill="#010101" d="M193.247,155.61c0.028,1.667,1.078,2.353,2.325,2.353c0.883,0,1.429-0.154,1.877-0.35l0.225,0.882
			c-0.435,0.196-1.191,0.435-2.27,0.435c-2.087,0-3.334-1.387-3.334-3.432c0-2.045,1.205-3.642,3.18-3.642
			c2.228,0,2.802,1.933,2.802,3.18c0,0.252-0.015,0.435-0.042,0.575H193.247z M196.861,154.728c0.014-0.77-0.322-1.989-1.709-1.989
			c-1.261,0-1.793,1.134-1.892,1.989H196.861z"/>
		<path fill="#010101" d="M204.336,157.151c0,0.588,0.028,1.163,0.098,1.625h-1.106l-0.098-0.854h-0.042
			c-0.378,0.532-1.106,1.009-2.073,1.009c-1.373,0-2.073-0.967-2.073-1.947c0-1.639,1.457-2.535,4.076-2.521v-0.14
			c0-0.546-0.154-1.569-1.541-1.555c-0.645,0-1.303,0.182-1.778,0.504l-0.28-0.827c0.56-0.35,1.387-0.588,2.241-0.588
			c2.073,0,2.577,1.415,2.577,2.76V157.151z M203.146,155.316c-1.345-0.028-2.872,0.21-2.872,1.527c0,0.812,0.532,1.177,1.148,1.177
			c0.896,0,1.472-0.561,1.667-1.135c0.042-0.14,0.057-0.28,0.057-0.392V155.316z"/>
		<path fill="#010101" d="M206.322,154.111c0-0.798-0.014-1.485-0.056-2.115h1.078l0.057,1.345h0.042
			c0.308-0.91,1.064-1.485,1.891-1.485c0.126,0,0.225,0.014,0.336,0.028v1.163c-0.126-0.028-0.252-0.028-0.42-0.028
			c-0.868,0-1.484,0.645-1.653,1.569c-0.027,0.168-0.042,0.378-0.042,0.575v3.614h-1.232V154.111z"/>
		<path fill="#010101" d="M212.721,150.372v1.625h1.765v0.938h-1.765v3.656c0,0.84,0.237,1.316,0.924,1.316
			c0.336,0,0.532-0.028,0.715-0.084l0.056,0.938c-0.238,0.084-0.616,0.168-1.093,0.168c-0.574,0-1.036-0.196-1.33-0.519
			c-0.337-0.378-0.477-0.98-0.477-1.779v-3.698h-1.051v-0.938h1.051v-1.261L212.721,150.372z"/>
	</g>
	<g>
		<path fill="#010101" d="M231.028,57.977c-1.274-0.336-2.521-0.714-3.614-1.093c-0.21-0.07-0.392-0.14-0.574-0.14
			c-2.255-0.084-4.16-1.737-4.16-4.791c0-3.025,1.835-4.973,4.384-4.973c2.577,0,4.244,1.989,4.244,4.777
			c0,2.437-1.121,3.978-2.689,4.539v0.056c0.938,0.238,1.961,0.462,2.76,0.603L231.028,57.977z M230.02,51.827
			c0-1.905-0.98-3.852-2.983-3.852c-2.059,0-3.068,1.905-3.068,3.95c0,2.017,1.093,3.824,3.025,3.824
			C228.927,55.75,230.02,53.97,230.02,51.827z"/>
		<path fill="#010101" d="M235.193,60.305c0,0.343,0.016,0.677,0.057,0.947h-0.645l-0.057-0.498h-0.024
			c-0.22,0.31-0.645,0.588-1.208,0.588c-0.8,0-1.208-0.563-1.208-1.135c0-0.955,0.849-1.478,2.375-1.469v-0.082
			c0-0.318-0.09-0.914-0.898-0.906c-0.375,0-0.759,0.106-1.037,0.294l-0.163-0.482c0.326-0.204,0.808-0.343,1.306-0.343
			c1.208,0,1.502,0.825,1.502,1.608V60.305z M234.499,59.235c-0.784-0.016-1.674,0.123-1.674,0.89c0,0.473,0.311,0.686,0.669,0.686
			c0.522,0,0.857-0.327,0.972-0.661c0.024-0.082,0.033-0.163,0.033-0.229V59.235z"/>
		<path fill="#010101" d="M239.927,59.244c0,1.461-1.021,2.098-1.967,2.098c-1.061,0-1.894-0.784-1.894-2.033
			c0-1.314,0.874-2.09,1.959-2.09C239.16,57.219,239.927,58.044,239.927,59.244z M236.8,59.285c0,0.865,0.49,1.518,1.192,1.518
			c0.686,0,1.2-0.645,1.2-1.535c0-0.669-0.335-1.51-1.184-1.51C237.167,57.758,236.8,58.542,236.8,59.285z"/>
	</g>
	<g>
		<path fill="#010101" d="M227.057,118.407c-0.434,0.224-1.345,0.448-2.493,0.448c-2.662,0-4.65-1.681-4.65-4.791
			c0-2.969,2.003-4.958,4.931-4.958c1.163,0,1.919,0.252,2.241,0.42l-0.308,0.994c-0.448-0.224-1.107-0.392-1.891-0.392
			c-2.213,0-3.684,1.415-3.684,3.894c0,2.325,1.331,3.796,3.614,3.796c0.756,0,1.513-0.154,2.003-0.393L227.057,118.407z"/>
		<path fill="#010101" d="M230.834,118.701l-3.096-9.441h1.331l1.471,4.65c0.392,1.274,0.742,2.423,1.008,3.53h0.028
			c0.266-1.093,0.645-2.283,1.079-3.516l1.597-4.665h1.303l-3.376,9.441H230.834z"/>
		<path fill="#010101" d="M238.88,122.416c0,0.343,0.016,0.677,0.057,0.947h-0.645l-0.057-0.498h-0.024
			c-0.221,0.31-0.645,0.588-1.208,0.588c-0.8,0-1.208-0.563-1.208-1.135c0-0.955,0.849-1.478,2.375-1.469v-0.082
			c0-0.318-0.09-0.914-0.898-0.906c-0.375,0-0.759,0.106-1.037,0.294l-0.163-0.482c0.326-0.204,0.808-0.343,1.306-0.343
			c1.208,0,1.502,0.825,1.502,1.608V122.416z M238.187,121.346c-0.784-0.016-1.674,0.123-1.674,0.89
			c0,0.473,0.311,0.686,0.669,0.686c0.522,0,0.857-0.327,0.972-0.661c0.024-0.082,0.033-0.163,0.033-0.229V121.346z"/>
		<path fill="#010101" d="M243.614,121.354c0,1.461-1.021,2.098-1.967,2.098c-1.061,0-1.894-0.784-1.894-2.033
			c0-1.314,0.874-2.09,1.959-2.09C242.847,119.33,243.614,120.155,243.614,121.354z M240.488,121.396
			c0,0.865,0.49,1.518,1.192,1.518c0.686,0,1.2-0.645,1.2-1.535c0-0.669-0.335-1.51-1.184-1.51
			C240.855,119.869,240.488,120.652,240.488,121.396z"/>
	</g>
	<g>
		<path fill="#010101" d="M412.027,57.976c-1.274-0.336-2.521-0.714-3.613-1.093c-0.211-0.07-0.393-0.14-0.574-0.14
			c-2.256-0.084-4.16-1.737-4.16-4.791c0-3.025,1.834-4.973,4.384-4.973c2.577,0,4.244,1.989,4.244,4.777
			c0,2.437-1.12,3.978-2.689,4.539v0.056c0.938,0.238,1.961,0.462,2.76,0.603L412.027,57.976z M411.02,51.827
			c0-1.905-0.98-3.852-2.984-3.852c-2.059,0-3.067,1.905-3.067,3.95c0,2.017,1.093,3.824,3.025,3.824S411.02,53.97,411.02,51.827z"
			/>
		<path fill="#010101" d="M413.416,58.37c0-0.416-0.016-0.743-0.031-1.069h0.628l0.032,0.645h0.025
			c0.22-0.375,0.588-0.727,1.248-0.727c0.531,0,0.939,0.327,1.111,0.792h0.016c0.123-0.229,0.285-0.392,0.449-0.515
			c0.236-0.179,0.49-0.277,0.865-0.277c0.531,0,1.307,0.343,1.307,1.714v2.318h-0.703v-2.229c0-0.768-0.285-1.216-0.856-1.216
			c-0.417,0-0.727,0.302-0.857,0.645c-0.032,0.106-0.058,0.229-0.058,0.359v2.441h-0.701v-2.367c0-0.629-0.277-1.078-0.824-1.078
			c-0.441,0-0.776,0.359-0.891,0.718c-0.041,0.098-0.057,0.229-0.057,0.351v2.375h-0.703V58.37z"/>
		<path fill="#010101" d="M420.224,55.456h0.719v5.796h-0.719V55.456z"/>
	</g>
	<g>
		<path fill="#010101" d="M408.057,118.406c-0.434,0.224-1.344,0.448-2.492,0.448c-2.662,0-4.65-1.681-4.65-4.791
			c0-2.969,2.002-4.958,4.93-4.958c1.163,0,1.92,0.252,2.242,0.42l-0.309,0.994c-0.448-0.224-1.107-0.392-1.891-0.392
			c-2.214,0-3.685,1.415-3.685,3.894c0,2.325,1.331,3.796,3.614,3.796c0.756,0,1.513-0.154,2.003-0.393L408.057,118.406z"/>
		<path fill="#010101" d="M411.834,118.7l-3.096-9.441h1.331l1.472,4.65c0.392,1.274,0.742,2.423,1.008,3.53h0.027
			c0.267-1.093,0.645-2.283,1.079-3.516l1.597-4.665h1.303l-3.375,9.441H411.834z"/>
		<path fill="#010101" d="M417.104,120.48c0-0.416-0.017-0.743-0.032-1.069h0.629l0.032,0.645h0.024
			c0.221-0.375,0.588-0.727,1.249-0.727c0.53,0,0.938,0.327,1.11,0.792h0.016c0.123-0.229,0.286-0.392,0.449-0.515
			c0.237-0.179,0.49-0.277,0.865-0.277c0.531,0,1.307,0.343,1.307,1.714v2.318h-0.702v-2.229c0-0.768-0.286-1.216-0.856-1.216
			c-0.417,0-0.727,0.302-0.857,0.645c-0.033,0.106-0.058,0.229-0.058,0.359v2.441h-0.702v-2.367c0-0.629-0.277-1.078-0.824-1.078
			c-0.441,0-0.775,0.359-0.891,0.718c-0.04,0.098-0.057,0.229-0.057,0.351v2.375h-0.702V120.48z"/>
		<path fill="#010101" d="M423.912,117.566h0.719v5.796h-0.719V117.566z"/>
	</g>
	<g>
		<path fill="#010101" d="M301.104,62.503c0.588-0.098,1.359-0.182,2.339-0.182c1.205,0,2.087,0.28,2.647,0.785
			c0.504,0.448,0.827,1.134,0.827,1.975c0,0.854-0.252,1.527-0.729,2.017c-0.658,0.686-1.695,1.036-2.886,1.036
			c-0.364,0-0.7-0.014-0.98-0.084v3.782h-1.219V62.503z M302.323,67.056c0.266,0.07,0.603,0.098,1.009,0.098
			c1.471,0,2.367-0.728,2.367-2.003c0-1.261-0.896-1.863-2.228-1.863c-0.532,0-0.938,0.042-1.148,0.098V67.056z"/>
		<path fill="#010101" d="M308.083,70.699h0.719v5.796h-0.719V70.699z"/>
		<path fill="#010101" d="M310.287,72.543l0.775,2.212c0.131,0.367,0.237,0.694,0.318,1.021h0.024
			c0.09-0.327,0.204-0.653,0.335-1.021l0.767-2.212h0.751l-1.551,3.951h-0.686l-1.502-3.951H310.287z"/>
	</g>
	<g>
		<path fill="#010101" d="M333.254,125.925h-3.656v3.404h4.09v1.022h-5.323v-9.441h5.112v1.022h-3.88v2.983h3.656V125.925z"/>
		<path fill="#010101" d="M334.798,129.218h0.719v5.796h-0.719V129.218z"/>
		<path fill="#010101" d="M337.002,131.062l0.775,2.212c0.131,0.367,0.237,0.694,0.318,1.021h0.024
			c0.09-0.327,0.204-0.653,0.335-1.021l0.767-2.212h0.751l-1.551,3.951h-0.686l-1.502-3.951H337.002z"/>
	</g>
	<g>
		<path fill="#010101" d="M511.255,124.401h-3.656v3.404h4.091v1.022h-5.323v-9.441h5.112v1.022h-3.88v2.983h3.656V124.401z"/>
		<path fill="#010101" d="M512.799,127.694h0.719v5.796h-0.719V127.694z"/>
		<path fill="#010101" d="M517.501,132.543c0,0.343,0.017,0.677,0.058,0.947h-0.646l-0.058-0.498h-0.023
			c-0.221,0.31-0.646,0.588-1.209,0.588c-0.8,0-1.208-0.563-1.208-1.135c0-0.955,0.849-1.478,2.376-1.469v-0.082
			c0-0.318-0.09-0.914-0.898-0.906c-0.375,0-0.76,0.106-1.037,0.294l-0.162-0.482c0.326-0.204,0.808-0.343,1.306-0.343
			c1.208,0,1.502,0.825,1.502,1.608V132.543z M516.807,131.473c-0.783-0.016-1.674,0.123-1.674,0.89c0,0.473,0.311,0.686,0.67,0.686
			c0.522,0,0.857-0.327,0.972-0.661c0.024-0.082,0.032-0.163,0.032-0.229V131.473z"/>
	</g>
	<g>
		<path fill="#010101" d="M477.267,62.503c0.589-0.098,1.358-0.182,2.339-0.182c1.205,0,2.088,0.28,2.648,0.785
			c0.504,0.448,0.826,1.134,0.826,1.975c0,0.854-0.252,1.527-0.729,2.017c-0.658,0.686-1.695,1.036-2.886,1.036
			c-0.364,0-0.7-0.014-0.98-0.084v3.782h-1.219V62.503z M478.485,67.056c0.267,0.07,0.603,0.098,1.009,0.098
			c1.471,0,2.367-0.728,2.367-2.003c0-1.261-0.896-1.863-2.228-1.863c-0.532,0-0.938,0.042-1.148,0.098V67.056z"/>
		<path fill="#010101" d="M484.246,70.699h0.719v5.796h-0.719V70.699z"/>
		<path fill="#010101" d="M488.947,75.548c0,0.343,0.017,0.677,0.058,0.947h-0.646l-0.057-0.498h-0.024
			c-0.221,0.31-0.646,0.588-1.208,0.588c-0.801,0-1.209-0.563-1.209-1.135c0-0.955,0.85-1.478,2.376-1.469v-0.082
			c0-0.318-0.09-0.914-0.897-0.906c-0.376,0-0.76,0.106-1.037,0.294l-0.163-0.482c0.326-0.204,0.808-0.343,1.306-0.343
			c1.209,0,1.502,0.825,1.502,1.608V75.548z M488.254,74.478c-0.783-0.016-1.674,0.123-1.674,0.89c0,0.473,0.311,0.686,0.67,0.686
			c0.521,0,0.857-0.327,0.971-0.661c0.025-0.082,0.033-0.163,0.033-0.229V74.478z"/>
	</g>
</g>
<g>
	<path fill="#010101" d="M396.544,377.336c-1.274-0.336-2.521-0.714-3.614-1.092c-0.209-0.07-0.392-0.141-0.574-0.141
		c-2.255-0.084-4.16-1.736-4.16-4.791c0-3.025,1.836-4.973,4.385-4.973c2.577,0,4.244,1.99,4.244,4.777
		c0,2.438-1.121,3.979-2.689,4.539v0.055c0.938,0.238,1.961,0.463,2.76,0.604L396.544,377.336z M395.535,371.188
		c0-1.905-0.98-3.853-2.982-3.853c-2.06,0-3.068,1.905-3.068,3.95c0,2.018,1.093,3.824,3.025,3.824
		C394.443,375.109,395.535,373.33,395.535,371.188z"/>
	<path fill="#010101" d="M397.836,379.885c0.22,0.131,0.596,0.277,0.955,0.277c0.514,0,0.759-0.252,0.759-0.587
		c0-0.343-0.204-0.522-0.727-0.719c-0.718-0.261-1.054-0.645-1.054-1.118c0-0.637,0.523-1.159,1.363-1.159
		c0.4,0,0.752,0.106,0.964,0.245l-0.171,0.521c-0.156-0.098-0.441-0.236-0.809-0.236c-0.425,0-0.653,0.245-0.653,0.539
		c0,0.326,0.229,0.474,0.743,0.678c0.678,0.253,1.037,0.596,1.037,1.184c0,0.702-0.547,1.191-1.47,1.191
		c-0.433,0-0.833-0.113-1.11-0.277L397.836,379.885z"/>
	<path fill="#010101" d="M403.941,379.665c0,0.343,0.016,0.677,0.057,0.946h-0.645l-0.058-0.498h-0.024
		c-0.221,0.311-0.645,0.588-1.208,0.588c-0.8,0-1.208-0.562-1.208-1.135c0-0.955,0.849-1.477,2.375-1.469v-0.082
		c0-0.318-0.09-0.914-0.898-0.906c-0.375,0-0.759,0.106-1.036,0.295l-0.163-0.482c0.326-0.204,0.809-0.343,1.307-0.343
		c1.207,0,1.502,0.825,1.502,1.608V379.665z M403.247,378.596c-0.784-0.017-1.674,0.122-1.674,0.89c0,0.474,0.311,0.686,0.669,0.686
		c0.523,0,0.857-0.327,0.973-0.661c0.023-0.082,0.032-0.163,0.032-0.229V378.596z"/>
	<path fill="#010101" d="M405.932,375.714v0.946h1.029v0.547h-1.029v2.131c0,0.49,0.139,0.768,0.539,0.768
		c0.195,0,0.311-0.016,0.416-0.049l0.033,0.547c-0.139,0.049-0.359,0.098-0.637,0.098c-0.335,0-0.604-0.113-0.775-0.302
		c-0.196-0.22-0.277-0.571-0.277-1.036v-2.156h-0.613v-0.547h0.613v-0.734L405.932,375.714z"/>
</g>
<g>
	<path fill="#010101" d="M389.812,412.397c0.617-0.112,1.514-0.196,2.34-0.196c1.303,0,2.157,0.252,2.731,0.771
		c0.462,0.421,0.743,1.064,0.743,1.808c0,1.232-0.785,2.059-1.766,2.395v0.042c0.715,0.253,1.148,0.925,1.373,1.905
		c0.308,1.316,0.531,2.227,0.729,2.592h-1.262c-0.153-0.281-0.363-1.079-0.615-2.256c-0.281-1.303-0.799-1.793-1.906-1.835h-1.148
		v4.091h-1.219V412.397z M391.031,416.697h1.247c1.303,0,2.13-0.714,2.13-1.793c0-1.219-0.883-1.75-2.172-1.75
		c-0.588,0-0.994,0.041-1.205,0.098V416.697z"/>
	<path fill="#010101" d="M396.778,425.648c0.22,0.131,0.596,0.277,0.955,0.277c0.515,0,0.759-0.254,0.759-0.588
		c0-0.343-0.203-0.522-0.727-0.719c-0.718-0.262-1.053-0.645-1.053-1.118c0-0.637,0.522-1.159,1.363-1.159
		c0.4,0,0.751,0.105,0.963,0.244l-0.171,0.523c-0.155-0.098-0.44-0.236-0.808-0.236c-0.426,0-0.654,0.244-0.654,0.538
		c0,0.327,0.229,0.474,0.744,0.678c0.677,0.253,1.036,0.596,1.036,1.184c0,0.702-0.547,1.192-1.47,1.192
		c-0.433,0-0.832-0.115-1.109-0.278L396.778,425.648z"/>
	<path fill="#010101" d="M402.885,425.428c0,0.343,0.016,0.678,0.057,0.947h-0.645l-0.058-0.498h-0.024
		c-0.221,0.31-0.645,0.588-1.208,0.588c-0.8,0-1.208-0.564-1.208-1.135c0-0.955,0.849-1.479,2.375-1.47v-0.082
		c0-0.318-0.09-0.914-0.898-0.905c-0.375,0-0.759,0.105-1.036,0.293l-0.163-0.481c0.326-0.204,0.809-0.343,1.307-0.343
		c1.207,0,1.502,0.824,1.502,1.608V425.428z M402.19,424.357c-0.784-0.016-1.674,0.123-1.674,0.891c0,0.473,0.311,0.686,0.669,0.686
		c0.523,0,0.857-0.326,0.973-0.661c0.023-0.081,0.032-0.163,0.032-0.229V424.357z"/>
	<path fill="#010101" d="M404.875,421.477v0.947h1.029v0.547h-1.029v2.131c0,0.489,0.139,0.767,0.539,0.767
		c0.195,0,0.311-0.017,0.416-0.049l0.033,0.547c-0.139,0.05-0.359,0.099-0.637,0.099c-0.335,0-0.604-0.115-0.775-0.303
		c-0.196-0.221-0.277-0.571-0.277-1.037v-2.154h-0.613v-0.547h0.613v-0.735L404.875,421.477z"/>
</g>
<g>
	<path fill="#010101" d="M264.064,374.15c0.588-0.099,1.359-0.183,2.339-0.183c1.205,0,2.087,0.28,2.647,0.784
		c0.504,0.449,0.827,1.135,0.827,1.976c0,0.854-0.252,1.526-0.729,2.017c-0.658,0.687-1.695,1.037-2.886,1.037
		c-0.364,0-0.7-0.014-0.98-0.084v3.781h-1.219V374.15z M265.283,378.703c0.266,0.069,0.603,0.098,1.009,0.098
		c1.471,0,2.367-0.729,2.367-2.004c0-1.26-0.896-1.862-2.228-1.862c-0.532,0-0.938,0.042-1.148,0.098V378.703z"/>
	<path fill="#010101" d="M270.946,387.414c0.22,0.131,0.596,0.277,0.955,0.277c0.514,0,0.759-0.252,0.759-0.587
		c0-0.343-0.204-0.522-0.727-0.719c-0.718-0.261-1.053-0.645-1.053-1.118c0-0.637,0.522-1.159,1.363-1.159
		c0.4,0,0.751,0.106,0.963,0.245l-0.171,0.521c-0.155-0.098-0.441-0.236-0.808-0.236c-0.425,0-0.653,0.245-0.653,0.539
		c0,0.326,0.229,0.474,0.743,0.678c0.677,0.253,1.037,0.596,1.037,1.184c0,0.702-0.547,1.191-1.469,1.191
		c-0.433,0-0.833-0.113-1.11-0.277L270.946,387.414z"/>
	<path fill="#010101" d="M277.052,387.194c0,0.343,0.016,0.677,0.057,0.946h-0.645l-0.057-0.498h-0.024
		c-0.22,0.311-0.645,0.588-1.208,0.588c-0.8,0-1.208-0.562-1.208-1.135c0-0.955,0.849-1.477,2.375-1.469v-0.082
		c0-0.318-0.09-0.914-0.898-0.906c-0.375,0-0.759,0.106-1.037,0.295l-0.163-0.482c0.326-0.204,0.808-0.343,1.306-0.343
		c1.208,0,1.502,0.825,1.502,1.608V387.194z M276.358,386.125c-0.784-0.017-1.674,0.122-1.674,0.89c0,0.474,0.311,0.686,0.669,0.686
		c0.522,0,0.857-0.327,0.972-0.661c0.024-0.082,0.033-0.163,0.033-0.229V386.125z"/>
	<path fill="#010101" d="M279.043,383.243v0.946h1.028v0.547h-1.028v2.131c0,0.49,0.139,0.768,0.539,0.768
		c0.196,0,0.31-0.016,0.417-0.049l0.033,0.547c-0.139,0.049-0.359,0.098-0.637,0.098c-0.335,0-0.604-0.113-0.776-0.302
		c-0.196-0.22-0.277-0.571-0.277-1.036v-2.156h-0.612v-0.547h0.612v-0.734L279.043,383.243z"/>
</g>
<g>
	<path fill="#010101" d="M299.266,436.91c-0.434,0.224-1.345,0.447-2.493,0.447c-2.662,0-4.65-1.681-4.65-4.791
		c0-2.969,2.003-4.958,4.931-4.958c1.163,0,1.919,0.252,2.241,0.421l-0.308,0.994c-0.448-0.225-1.107-0.393-1.891-0.393
		c-2.213,0-3.684,1.415-3.684,3.895c0,2.324,1.331,3.796,3.614,3.796c0.756,0,1.513-0.154,2.003-0.393L299.266,436.91z"/>
	<path fill="#010101" d="M300.235,441.139c0.22,0.131,0.596,0.277,0.955,0.277c0.514,0,0.759-0.252,0.759-0.587
		c0-0.343-0.204-0.522-0.727-0.719c-0.718-0.261-1.053-0.645-1.053-1.118c0-0.637,0.522-1.159,1.363-1.159
		c0.4,0,0.751,0.106,0.963,0.245l-0.171,0.521c-0.155-0.098-0.441-0.236-0.808-0.236c-0.425,0-0.653,0.245-0.653,0.539
		c0,0.326,0.229,0.474,0.743,0.678c0.677,0.253,1.037,0.596,1.037,1.184c0,0.702-0.547,1.191-1.469,1.191
		c-0.433,0-0.833-0.113-1.11-0.277L300.235,441.139z"/>
	<path fill="#010101" d="M306.341,440.919c0,0.343,0.016,0.677,0.057,0.946h-0.645l-0.057-0.498h-0.024
		c-0.22,0.311-0.645,0.588-1.208,0.588c-0.8,0-1.208-0.562-1.208-1.135c0-0.955,0.849-1.477,2.375-1.469v-0.082
		c0-0.318-0.09-0.914-0.898-0.906c-0.375,0-0.759,0.106-1.037,0.295l-0.163-0.482c0.326-0.204,0.808-0.343,1.306-0.343
		c1.208,0,1.502,0.825,1.502,1.608V440.919z M305.647,439.85c-0.784-0.017-1.674,0.122-1.674,0.89c0,0.474,0.311,0.686,0.669,0.686
		c0.522,0,0.857-0.327,0.972-0.661c0.024-0.082,0.033-0.163,0.033-0.229V439.85z"/>
	<path fill="#010101" d="M308.333,436.968v0.946h1.028v0.547h-1.028v2.131c0,0.49,0.139,0.768,0.539,0.768
		c0.196,0,0.31-0.016,0.417-0.049l0.033,0.547c-0.139,0.049-0.359,0.098-0.637,0.098c-0.335,0-0.604-0.113-0.776-0.302
		c-0.196-0.22-0.277-0.571-0.277-1.036v-2.156h-0.612v-0.547h0.612v-0.734L308.333,436.968z"/>
</g>
<rect x="194.752" y="387.868" fill="#FFFFFF" stroke="#231F20" width="48.046" height="14.194"/>
<g>
	<path fill="#010101" d="M210.874,407.436c0.616-0.112,1.513-0.196,2.339-0.196c1.303,0,2.157,0.253,2.731,0.771
		c0.462,0.42,0.743,1.064,0.743,1.807c0,1.232-0.785,2.06-1.765,2.396v0.042c0.714,0.252,1.148,0.925,1.373,1.905
		c0.308,1.316,0.532,2.228,0.729,2.591h-1.261c-0.154-0.279-0.364-1.078-0.616-2.255c-0.28-1.303-0.798-1.793-1.905-1.835h-1.148
		v4.09h-1.219V407.436z M212.093,411.736h1.247c1.303,0,2.129-0.715,2.129-1.793c0-1.219-0.883-1.752-2.171-1.752
		c-0.588,0-0.995,0.043-1.205,0.099V411.736z"/>
	<path fill="#010101" d="M217.839,420.686c0.22,0.131,0.596,0.277,0.955,0.277c0.514,0,0.759-0.252,0.759-0.587
		c0-0.343-0.204-0.522-0.727-0.719c-0.718-0.261-1.053-0.645-1.053-1.118c0-0.637,0.522-1.159,1.363-1.159
		c0.4,0,0.751,0.106,0.963,0.245l-0.171,0.521c-0.155-0.098-0.441-0.236-0.808-0.236c-0.425,0-0.653,0.245-0.653,0.539
		c0,0.326,0.229,0.474,0.743,0.678c0.677,0.253,1.037,0.596,1.037,1.184c0,0.702-0.547,1.191-1.469,1.191
		c-0.433,0-0.833-0.113-1.11-0.277L217.839,420.686z"/>
	<path fill="#010101" d="M223.945,420.466c0,0.343,0.016,0.677,0.057,0.946h-0.645l-0.057-0.498h-0.024
		c-0.22,0.311-0.645,0.588-1.208,0.588c-0.8,0-1.208-0.562-1.208-1.135c0-0.955,0.849-1.477,2.375-1.469v-0.082
		c0-0.318-0.09-0.914-0.898-0.906c-0.375,0-0.759,0.106-1.037,0.295l-0.163-0.482c0.326-0.204,0.808-0.343,1.306-0.343
		c1.208,0,1.502,0.825,1.502,1.608V420.466z M223.251,419.396c-0.784-0.017-1.674,0.122-1.674,0.89c0,0.474,0.311,0.686,0.669,0.686
		c0.522,0,0.857-0.327,0.972-0.661c0.024-0.082,0.033-0.163,0.033-0.229V419.396z"/>
	<path fill="#010101" d="M225.006,420.686c0.22,0.131,0.596,0.277,0.955,0.277c0.514,0,0.759-0.252,0.759-0.587
		c0-0.343-0.204-0.522-0.727-0.719c-0.718-0.261-1.053-0.645-1.053-1.118c0-0.637,0.522-1.159,1.363-1.159
		c0.4,0,0.751,0.106,0.963,0.245l-0.171,0.521c-0.155-0.098-0.441-0.236-0.808-0.236c-0.425,0-0.653,0.245-0.653,0.539
		c0,0.326,0.229,0.474,0.743,0.678c0.677,0.253,1.037,0.596,1.037,1.184c0,0.702-0.547,1.191-1.47,1.191
		c-0.433,0-0.833-0.113-1.11-0.277L225.006,420.686z"/>
</g>
<g>
	<path fill="none" stroke="#231F20" d="M75.5,394.227c0,12.141,0,24.283,0,36.424"/>
	<path fill="none" stroke="#231F20" d="M75.5,438.877c0,9.142,0,18.283,0,27.424"/>
	<line fill="none" stroke="#231F20" x1="63" y1="430.65" x2="88" y2="430.65"/>
	<line fill="none" stroke="#231F20" x1="63" y1="438.301" x2="88" y2="438.301"/>
	<line fill="none" stroke="#231F20" x1="63" y1="466.301" x2="88" y2="466.301"/>
</g>
<g>
	<path fill="#010101" d="M106.438,438.582c-0.434,0.225-1.345,0.449-2.493,0.449c-2.662,0-4.65-1.682-4.65-4.791
		c0-2.97,2.003-4.959,4.931-4.959c1.163,0,1.919,0.252,2.241,0.42l-0.308,0.994c-0.448-0.223-1.107-0.392-1.891-0.392
		c-2.213,0-3.684,1.415-3.684,3.894c0,2.326,1.331,3.797,3.614,3.797c0.756,0,1.513-0.154,2.003-0.393L106.438,438.582z"/>
	<path fill="#010101" d="M107.407,442.812c0.22,0.131,0.596,0.277,0.955,0.277c0.514,0,0.759-0.254,0.759-0.588
		c0-0.343-0.204-0.522-0.727-0.719c-0.718-0.262-1.053-0.645-1.053-1.118c0-0.637,0.522-1.159,1.363-1.159
		c0.4,0,0.751,0.105,0.963,0.244l-0.171,0.523c-0.155-0.098-0.441-0.236-0.808-0.236c-0.425,0-0.653,0.244-0.653,0.538
		c0,0.327,0.229,0.474,0.743,0.678c0.677,0.253,1.037,0.596,1.037,1.184c0,0.702-0.547,1.192-1.469,1.192
		c-0.433,0-0.833-0.115-1.11-0.278L107.407,442.812z"/>
	<path fill="#010101" d="M113.513,442.592c0,0.343,0.016,0.678,0.057,0.947h-0.645l-0.057-0.498h-0.024
		c-0.22,0.31-0.645,0.588-1.208,0.588c-0.8,0-1.208-0.564-1.208-1.135c0-0.955,0.849-1.479,2.375-1.47v-0.082
		c0-0.318-0.09-0.914-0.898-0.905c-0.375,0-0.759,0.105-1.037,0.293l-0.163-0.481c0.326-0.204,0.808-0.343,1.306-0.343
		c1.208,0,1.502,0.824,1.502,1.608V442.592z M112.819,441.521c-0.784-0.016-1.674,0.123-1.674,0.891
		c0,0.473,0.311,0.686,0.669,0.686c0.522,0,0.857-0.326,0.972-0.661c0.024-0.081,0.033-0.163,0.033-0.229V441.521z"/>
	<path fill="#010101" d="M114.574,442.812c0.22,0.131,0.596,0.277,0.955,0.277c0.514,0,0.759-0.254,0.759-0.588
		c0-0.343-0.204-0.522-0.727-0.719c-0.718-0.262-1.053-0.645-1.053-1.118c0-0.637,0.522-1.159,1.363-1.159
		c0.4,0,0.751,0.105,0.963,0.244l-0.171,0.523c-0.155-0.098-0.441-0.236-0.808-0.236c-0.425,0-0.653,0.244-0.653,0.538
		c0,0.327,0.229,0.474,0.743,0.678c0.677,0.253,1.037,0.596,1.037,1.184c0,0.702-0.547,1.192-1.47,1.192
		c-0.433,0-0.833-0.115-1.11-0.278L114.574,442.812z"/>
</g>
<g>
	<path fill="none" stroke="#231F20" d="M584.057,394.332c0,12.141,0,24.283,0,36.424"/>
	<path fill="none" stroke="#231F20" d="M584.057,438.982c0,9.142,0,18.283,0,27.424"/>
	<line fill="none" stroke="#231F20" x1="571.557" y1="430.756" x2="596.557" y2="430.756"/>
	<line fill="none" stroke="#231F20" x1="571.557" y1="438.406" x2="596.557" y2="438.406"/>
	<line fill="none" stroke="#231F20" x1="571.557" y1="466.406" x2="596.557" y2="466.406"/>
</g>
<g>
	<path fill="#010101" d="M614.994,438.688c-0.434,0.225-1.345,0.449-2.493,0.449c-2.661,0-4.65-1.682-4.65-4.791
		c0-2.97,2.003-4.959,4.931-4.959c1.162,0,1.919,0.252,2.241,0.42l-0.308,0.994c-0.449-0.223-1.107-0.392-1.892-0.392
		c-2.214,0-3.685,1.415-3.685,3.894c0,2.326,1.331,3.797,3.614,3.797c0.757,0,1.513-0.154,2.003-0.393L614.994,438.688z"/>
	<path fill="#010101" d="M615.964,442.918c0.22,0.131,0.596,0.277,0.955,0.277c0.515,0,0.759-0.254,0.759-0.588
		c0-0.343-0.203-0.522-0.727-0.719c-0.718-0.262-1.053-0.645-1.053-1.118c0-0.637,0.522-1.159,1.363-1.159
		c0.4,0,0.751,0.105,0.963,0.244l-0.171,0.523c-0.155-0.098-0.44-0.236-0.808-0.236c-0.426,0-0.654,0.244-0.654,0.538
		c0,0.327,0.229,0.474,0.744,0.678c0.677,0.253,1.036,0.596,1.036,1.184c0,0.702-0.547,1.192-1.47,1.192
		c-0.433,0-0.832-0.115-1.109-0.278L615.964,442.918z"/>
	<path fill="#010101" d="M619.572,439.693l0.775,2.212c0.131,0.367,0.236,0.694,0.318,1.021h0.023
		c0.09-0.326,0.205-0.653,0.336-1.021l0.767-2.212h0.751l-1.551,3.951h-0.686l-1.502-3.951H619.572z"/>
	<path fill="#010101" d="M623.22,440.762c0-0.416-0.008-0.742-0.032-1.068h0.637l0.041,0.652h0.016
		c0.196-0.367,0.653-0.734,1.307-0.734c0.547,0,1.396,0.326,1.396,1.682v2.352h-0.719v-2.278c0-0.637-0.236-1.167-0.914-1.167
		c-0.466,0-0.833,0.334-0.964,0.734c-0.032,0.09-0.049,0.213-0.049,0.335v2.376h-0.719V440.762z"/>
</g>
<rect x="373.408" y="387.868" fill="#FFFFFF" stroke="#231F20" width="48.047" height="14.194"/>
<g>
	<path fill="#010101" d="M654.093,376.703c-1.274-0.336-2.521-0.715-3.614-1.094c-0.209-0.069-0.392-0.139-0.574-0.139
		c-2.255-0.085-4.16-1.738-4.16-4.791c0-3.025,1.836-4.973,4.385-4.973c2.577,0,4.244,1.988,4.244,4.776
		c0,2.437-1.121,3.978-2.689,4.538v0.057c0.938,0.238,1.961,0.462,2.76,0.602L654.093,376.703z M653.084,370.553
		c0-1.904-0.98-3.852-2.982-3.852c-2.06,0-3.068,1.905-3.068,3.95c0,2.017,1.093,3.824,3.025,3.824
		C651.992,374.476,653.084,372.696,653.084,370.553z"/>
	<path fill="#010101" d="M655.385,379.252c0.22,0.131,0.596,0.277,0.955,0.277c0.514,0,0.759-0.254,0.759-0.588
		c0-0.343-0.204-0.522-0.727-0.719c-0.718-0.262-1.054-0.645-1.054-1.118c0-0.637,0.523-1.159,1.363-1.159
		c0.4,0,0.752,0.105,0.964,0.244l-0.171,0.523c-0.156-0.098-0.441-0.236-0.809-0.236c-0.425,0-0.653,0.244-0.653,0.538
		c0,0.327,0.229,0.474,0.743,0.678c0.678,0.253,1.037,0.596,1.037,1.184c0,0.702-0.547,1.192-1.47,1.192
		c-0.433,0-0.833-0.115-1.11-0.278L655.385,379.252z"/>
	<path fill="#010101" d="M658.992,376.027l0.775,2.212c0.131,0.367,0.236,0.694,0.318,1.021h0.023
		c0.09-0.326,0.205-0.653,0.336-1.021l0.767-2.212h0.751l-1.551,3.951h-0.686l-1.502-3.951H658.992z"/>
	<path fill="#010101" d="M662.64,377.096c0-0.416-0.008-0.742-0.032-1.068h0.637l0.041,0.652h0.016
		c0.196-0.367,0.653-0.734,1.307-0.734c0.547,0,1.396,0.326,1.396,1.682v2.352h-0.719V377.7c0-0.637-0.237-1.167-0.914-1.167
		c-0.466,0-0.833,0.334-0.964,0.734c-0.032,0.09-0.049,0.213-0.049,0.335v2.376h-0.719V377.096z"/>
</g>
<g>
	<path fill="#010101" d="M647.361,411.764c0.617-0.112,1.514-0.196,2.34-0.196c1.303,0,2.157,0.253,2.731,0.771
		c0.462,0.42,0.743,1.064,0.743,1.807c0,1.232-0.785,2.06-1.766,2.396v0.042c0.715,0.252,1.148,0.925,1.373,1.905
		c0.308,1.316,0.531,2.228,0.729,2.591h-1.262c-0.153-0.279-0.363-1.078-0.615-2.255c-0.281-1.303-0.799-1.793-1.906-1.835h-1.148
		v4.09h-1.219V411.764z M648.58,416.064h1.247c1.303,0,2.13-0.715,2.13-1.793c0-1.219-0.883-1.752-2.172-1.752
		c-0.588,0-0.994,0.043-1.205,0.099V416.064z"/>
	<path fill="#010101" d="M654.327,425.014c0.22,0.131,0.596,0.277,0.955,0.277c0.515,0,0.759-0.252,0.759-0.587
		c0-0.343-0.203-0.522-0.727-0.719c-0.718-0.261-1.053-0.645-1.053-1.118c0-0.637,0.522-1.159,1.363-1.159
		c0.4,0,0.751,0.106,0.963,0.245l-0.171,0.521c-0.155-0.098-0.44-0.236-0.808-0.236c-0.426,0-0.654,0.245-0.654,0.539
		c0,0.326,0.229,0.474,0.744,0.678c0.677,0.253,1.036,0.596,1.036,1.184c0,0.702-0.547,1.191-1.47,1.191
		c-0.433,0-0.832-0.113-1.109-0.277L654.327,425.014z"/>
	<path fill="#010101" d="M657.936,421.789l0.775,2.213c0.131,0.367,0.236,0.693,0.318,1.021h0.023
		c0.09-0.327,0.205-0.653,0.336-1.021l0.767-2.213h0.751l-1.551,3.951h-0.686l-1.502-3.951H657.936z"/>
	<path fill="#010101" d="M661.583,422.859c0-0.416-0.008-0.743-0.032-1.07h0.637l0.041,0.654h0.016
		c0.196-0.368,0.653-0.735,1.307-0.735c0.547,0,1.396,0.327,1.396,1.682v2.351h-0.719v-2.277c0-0.637-0.236-1.167-0.914-1.167
		c-0.466,0-0.833,0.335-0.964,0.734c-0.032,0.09-0.049,0.212-0.049,0.335v2.375h-0.719V422.859z"/>
</g>
<rect x="630.957" y="387.868" fill="#FFFFFF" stroke="#231F20" width="48.047" height="14.194"/>
<g>
	<path fill="none" stroke="#231F20" d="M267.155,394.256c0,12.141,0,24.283,0,36.424"/>
	<path fill="none" stroke="#231F20" d="M267.155,438.906c0,9.142,0,18.283,0,27.424"/>
	<line fill="none" stroke="#231F20" x1="254.655" y1="430.68" x2="279.655" y2="430.68"/>
	<line fill="none" stroke="#231F20" x1="254.655" y1="438.33" x2="279.655" y2="438.33"/>
	<line fill="none" stroke="#231F20" x1="254.655" y1="466.33" x2="279.655" y2="466.33"/>
</g>
<rect x="500.984" y="387.868" fill="#FFFFFF" stroke="#231F20" width="48.047" height="14.194"/>
<rect x="437.886" y="387.868" fill="#FFFFFF" stroke="#231F20" width="48.047" height="14.194"/>
<g>
	<path fill="#010101" d="M516.541,412.397c0.615-0.112,1.512-0.196,2.339-0.196c1.303,0,2.157,0.252,2.731,0.771
		c0.463,0.421,0.742,1.064,0.742,1.808c0,1.232-0.784,2.059-1.765,2.395v0.042c0.714,0.253,1.148,0.925,1.372,1.905
		c0.309,1.316,0.533,2.227,0.729,2.592h-1.26c-0.154-0.281-0.365-1.079-0.617-2.256c-0.279-1.303-0.798-1.793-1.904-1.835h-1.148
		v4.091h-1.219V412.397z M517.76,416.697h1.246c1.303,0,2.129-0.714,2.129-1.793c0-1.219-0.883-1.75-2.171-1.75
		c-0.589,0-0.995,0.041-1.204,0.098V416.697z"/>
	<path fill="#010101" d="M523.506,425.648c0.221,0.131,0.596,0.277,0.955,0.277c0.514,0,0.76-0.254,0.76-0.588
		c0-0.343-0.205-0.522-0.727-0.719c-0.719-0.262-1.054-0.645-1.054-1.118c0-0.637,0.522-1.159,1.363-1.159
		c0.399,0,0.751,0.105,0.964,0.244l-0.172,0.523c-0.155-0.098-0.441-0.236-0.809-0.236c-0.424,0-0.652,0.244-0.652,0.538
		c0,0.327,0.229,0.474,0.742,0.678c0.678,0.253,1.037,0.596,1.037,1.184c0,0.702-0.547,1.192-1.469,1.192
		c-0.434,0-0.834-0.115-1.111-0.278L523.506,425.648z"/>
	<path fill="#010101" d="M529.652,426.236c-0.188,0.09-0.604,0.229-1.135,0.229c-1.191,0-1.967-0.809-1.967-2.018
		c0-1.216,0.832-2.105,2.122-2.105c0.425,0,0.8,0.105,0.996,0.213l-0.163,0.547c-0.172-0.09-0.441-0.188-0.833-0.188
		c-0.906,0-1.396,0.678-1.396,1.494c0,0.914,0.588,1.478,1.371,1.478c0.408,0,0.678-0.098,0.882-0.188L529.652,426.236z"/>
	<path fill="#010101" d="M530.492,423.713c0-0.506-0.016-0.914-0.032-1.289h0.637l0.04,0.678h0.018
		c0.285-0.482,0.759-0.76,1.403-0.76c0.964,0,1.682,0.809,1.682,2c0,1.42-0.874,2.123-1.804,2.123c-0.522,0-0.98-0.229-1.217-0.621
		h-0.016v2.146h-0.711V423.713z M531.203,424.766c0,0.107,0.008,0.205,0.032,0.295c0.13,0.498,0.563,0.84,1.077,0.84
		c0.76,0,1.2-0.619,1.2-1.525c0-0.784-0.416-1.462-1.175-1.462c-0.49,0-0.955,0.343-1.086,0.882
		c-0.025,0.09-0.049,0.195-0.049,0.285V424.766z"/>
</g>
<g>
	<path fill="#010101" d="M454.291,412.397c0.615-0.112,1.512-0.196,2.339-0.196c1.303,0,2.157,0.252,2.731,0.771
		c0.463,0.421,0.742,1.064,0.742,1.808c0,1.232-0.784,2.059-1.765,2.395v0.042c0.714,0.253,1.148,0.925,1.372,1.905
		c0.309,1.316,0.533,2.227,0.729,2.592h-1.26c-0.154-0.281-0.365-1.079-0.617-2.256c-0.279-1.303-0.798-1.793-1.904-1.835h-1.148
		v4.091h-1.219V412.397z M455.51,416.697h1.246c1.303,0,2.129-0.714,2.129-1.793c0-1.219-0.883-1.75-2.171-1.75
		c-0.589,0-0.995,0.041-1.204,0.098V416.697z"/>
	<path fill="#010101" d="M461.256,425.648c0.221,0.131,0.596,0.277,0.955,0.277c0.514,0,0.76-0.254,0.76-0.588
		c0-0.343-0.205-0.522-0.727-0.719c-0.719-0.262-1.054-0.645-1.054-1.118c0-0.637,0.522-1.159,1.363-1.159
		c0.399,0,0.751,0.105,0.964,0.244l-0.172,0.523c-0.155-0.098-0.441-0.236-0.809-0.236c-0.424,0-0.652,0.244-0.652,0.538
		c0,0.327,0.229,0.474,0.742,0.678c0.678,0.253,1.037,0.596,1.037,1.184c0,0.702-0.547,1.192-1.469,1.192
		c-0.434,0-0.834-0.115-1.111-0.278L461.256,425.648z"/>
	<path fill="#010101" d="M467.361,425.428c0,0.343,0.017,0.678,0.058,0.947h-0.646l-0.057-0.498h-0.024
		c-0.22,0.31-0.646,0.588-1.208,0.588c-0.801,0-1.209-0.564-1.209-1.135c0-0.955,0.85-1.479,2.376-1.47v-0.082
		c0-0.318-0.09-0.914-0.897-0.905c-0.376,0-0.76,0.105-1.037,0.293l-0.163-0.481c0.326-0.204,0.808-0.343,1.306-0.343
		c1.209,0,1.502,0.824,1.502,1.608V425.428z M466.668,424.357c-0.783-0.016-1.674,0.123-1.674,0.891c0,0.473,0.311,0.686,0.67,0.686
		c0.521,0,0.857-0.326,0.971-0.661c0.025-0.081,0.033-0.163,0.033-0.229V424.357z"/>
	<path fill="#010101" d="M468.52,423.656c0-0.465-0.008-0.865-0.031-1.232h0.628l0.032,0.783h0.025
		c0.18-0.531,0.62-0.865,1.102-0.865c0.073,0,0.131,0.008,0.195,0.016v0.678c-0.072-0.016-0.146-0.016-0.244-0.016
		c-0.506,0-0.865,0.375-0.963,0.914c-0.018,0.098-0.025,0.221-0.025,0.335v2.106h-0.719V423.656z"/>
</g>
<g>
	<rect x="96.777" y="391.007" fill="#FFFFFF" width="69.223" height="3.958"/>
	<g>
		<g>
			<path fill="none" stroke="#231F20" d="M96.443,393.007c0-4.106,4.041-7.431,9.035-7.431"/>
			<path fill="none" stroke="#231F20" d="M113.91,393.007c0-4.106-4.041-7.431-9.035-7.431"/>
		</g>
		<g>
			<path fill="none" stroke="#231F20" d="M113.91,393.007c0-4.106,4.041-7.431,9.034-7.431"/>
			<path fill="none" stroke="#231F20" d="M131.375,393.007c0-4.106-4.041-7.431-9.034-7.431"/>
		</g>
		<g>
			<path fill="none" stroke="#231F20" d="M131.375,393.007c0-4.106,4.041-7.431,9.035-7.431"/>
			<path fill="none" stroke="#231F20" d="M148.842,393.007c0-4.106-4.041-7.431-9.034-7.431"/>
		</g>
		<g>
			<path fill="none" stroke="#231F20" d="M148.842,393.007c0-4.106,4.041-7.431,9.034-7.431"/>
			<path fill="none" stroke="#231F20" d="M166.309,393.007c0-4.106-4.041-7.431-9.034-7.431"/>
		</g>
	</g>
</g>
<g>
	<rect x="289.412" y="391.007" fill="#FFFFFF" width="69.223" height="3.958"/>
	<g>
		<g>
			<path fill="none" stroke="#231F20" d="M289.079,393.007c0-4.106,4.041-7.431,9.035-7.431"/>
			<path fill="none" stroke="#231F20" d="M306.545,393.007c0-4.106-4.041-7.431-9.035-7.431"/>
		</g>
		<g>
			<path fill="none" stroke="#231F20" d="M306.545,393.007c0-4.106,4.041-7.431,9.034-7.431"/>
			<path fill="none" stroke="#231F20" d="M324.01,393.007c0-4.106-4.04-7.431-9.034-7.431"/>
		</g>
		<g>
			<path fill="none" stroke="#231F20" d="M324.01,393.007c0-4.106,4.041-7.431,9.035-7.431"/>
			<path fill="none" stroke="#231F20" d="M341.477,393.007c0-4.106-4.04-7.431-9.033-7.431"/>
		</g>
		<g>
			<path fill="none" stroke="#231F20" d="M341.477,393.007c0-4.106,4.041-7.431,9.035-7.431"/>
			<path fill="none" stroke="#231F20" d="M358.944,393.007c0-4.106-4.041-7.431-9.034-7.431"/>
		</g>
	</g>
</g>
<g>
	<path fill="#010101" d="M123.392,400.553h1.232v8.418h4.034v1.023h-5.267V400.553z"/>
	<path fill="#010101" d="M129.447,413.93c0.22,0.131,0.596,0.277,0.955,0.277c0.514,0,0.759-0.254,0.759-0.588
		c0-0.343-0.204-0.522-0.727-0.719c-0.718-0.262-1.053-0.645-1.053-1.118c0-0.637,0.522-1.159,1.363-1.159
		c0.4,0,0.751,0.105,0.963,0.244l-0.171,0.523c-0.155-0.098-0.441-0.236-0.808-0.236c-0.425,0-0.653,0.244-0.653,0.538
		c0,0.327,0.229,0.474,0.743,0.678c0.677,0.253,1.037,0.596,1.037,1.184c0,0.702-0.547,1.192-1.469,1.192
		c-0.433,0-0.833-0.115-1.11-0.278L129.447,413.93z"/>
	<path fill="#010101" d="M135.553,413.709c0,0.343,0.016,0.678,0.057,0.947h-0.645l-0.057-0.498h-0.024
		c-0.221,0.31-0.645,0.588-1.208,0.588c-0.8,0-1.208-0.564-1.208-1.135c0-0.955,0.849-1.479,2.375-1.47v-0.082
		c0-0.318-0.09-0.914-0.898-0.905c-0.375,0-0.759,0.105-1.037,0.293l-0.163-0.481c0.326-0.204,0.808-0.343,1.306-0.343
		c1.208,0,1.502,0.824,1.502,1.608V413.709z M134.859,412.639c-0.784-0.016-1.674,0.123-1.674,0.891
		c0,0.473,0.311,0.686,0.669,0.686c0.522,0,0.857-0.326,0.972-0.661c0.024-0.081,0.033-0.163,0.033-0.229V412.639z"/>
	<path fill="#010101" d="M136.613,413.93c0.22,0.131,0.596,0.277,0.955,0.277c0.514,0,0.759-0.254,0.759-0.588
		c0-0.343-0.204-0.522-0.727-0.719c-0.718-0.262-1.053-0.645-1.053-1.118c0-0.637,0.522-1.159,1.363-1.159
		c0.4,0,0.751,0.105,0.963,0.244l-0.171,0.523c-0.155-0.098-0.441-0.236-0.808-0.236c-0.425,0-0.653,0.244-0.653,0.538
		c0,0.327,0.229,0.474,0.743,0.678c0.677,0.253,1.037,0.596,1.037,1.184c0,0.702-0.547,1.192-1.469,1.192
		c-0.433,0-0.833-0.115-1.11-0.278L136.613,413.93z"/>
</g>
<g>
	<path fill="#010101" d="M316.027,400.553h1.232v8.418h4.034v1.023h-5.267V400.553z"/>
	<path fill="#010101" d="M322.083,413.93c0.22,0.131,0.596,0.277,0.955,0.277c0.514,0,0.759-0.254,0.759-0.588
		c0-0.343-0.204-0.522-0.727-0.719c-0.718-0.262-1.053-0.645-1.053-1.118c0-0.637,0.522-1.159,1.363-1.159
		c0.4,0,0.751,0.105,0.963,0.244l-0.171,0.523c-0.155-0.098-0.441-0.236-0.808-0.236c-0.425,0-0.653,0.244-0.653,0.538
		c0,0.327,0.229,0.474,0.743,0.678c0.677,0.253,1.037,0.596,1.037,1.184c0,0.702-0.547,1.192-1.469,1.192
		c-0.433,0-0.833-0.115-1.11-0.278L322.083,413.93z"/>
	<path fill="#010101" d="M328.188,413.709c0,0.343,0.016,0.678,0.057,0.947H327.6l-0.057-0.498h-0.024
		c-0.221,0.31-0.645,0.588-1.208,0.588c-0.8,0-1.208-0.564-1.208-1.135c0-0.955,0.849-1.479,2.375-1.47v-0.082
		c0-0.318-0.09-0.914-0.898-0.905c-0.375,0-0.759,0.105-1.037,0.293l-0.163-0.481c0.326-0.204,0.808-0.343,1.306-0.343
		c1.208,0,1.502,0.824,1.502,1.608V413.709z M327.494,412.639c-0.784-0.016-1.674,0.123-1.674,0.891
		c0,0.473,0.311,0.686,0.669,0.686c0.522,0,0.857-0.326,0.972-0.661c0.024-0.081,0.033-0.163,0.033-0.229V412.639z"/>
	<path fill="#010101" d="M330.179,409.758v0.947h1.028v0.547h-1.028v2.131c0,0.489,0.139,0.767,0.539,0.767
		c0.196,0,0.31-0.017,0.417-0.049l0.033,0.547c-0.139,0.05-0.359,0.099-0.637,0.099c-0.335,0-0.604-0.115-0.776-0.303
		c-0.196-0.221-0.277-0.571-0.277-1.037v-2.154h-0.612v-0.547h0.612v-0.735L330.179,409.758z"/>
</g>
<g>
	<path fill="#010101" d="M175.161,377.146c-1.274-0.336-2.521-0.714-3.614-1.092c-0.21-0.07-0.392-0.141-0.574-0.141
		c-2.255-0.084-4.16-1.736-4.16-4.791c0-3.025,1.835-4.973,4.384-4.973c2.577,0,4.244,1.99,4.244,4.777
		c0,2.438-1.121,3.979-2.689,4.539v0.055c0.938,0.238,1.961,0.463,2.76,0.604L175.161,377.146z M174.153,370.998
		c0-1.905-0.98-3.853-2.983-3.853c-2.059,0-3.068,1.905-3.068,3.95c0,2.018,1.093,3.824,3.025,3.824
		C173.06,374.92,174.153,373.141,174.153,370.998z"/>
	<path fill="#010101" d="M176.453,379.695c0.22,0.131,0.596,0.277,0.955,0.277c0.514,0,0.759-0.252,0.759-0.587
		c0-0.343-0.204-0.522-0.727-0.719c-0.718-0.261-1.053-0.645-1.053-1.118c0-0.637,0.522-1.159,1.363-1.159
		c0.4,0,0.751,0.106,0.963,0.245l-0.171,0.521c-0.155-0.098-0.441-0.236-0.808-0.236c-0.425,0-0.653,0.245-0.653,0.539
		c0,0.326,0.229,0.474,0.743,0.678c0.677,0.253,1.037,0.596,1.037,1.184c0,0.702-0.547,1.191-1.469,1.191
		c-0.433,0-0.833-0.113-1.11-0.277L176.453,379.695z"/>
	<path fill="#010101" d="M182.558,379.476c0,0.343,0.016,0.677,0.057,0.946h-0.645l-0.057-0.498h-0.024
		c-0.221,0.311-0.645,0.588-1.208,0.588c-0.8,0-1.208-0.562-1.208-1.135c0-0.955,0.849-1.477,2.375-1.469v-0.082
		c0-0.318-0.09-0.914-0.898-0.906c-0.375,0-0.759,0.106-1.037,0.295l-0.163-0.482c0.326-0.204,0.808-0.343,1.306-0.343
		c1.208,0,1.502,0.825,1.502,1.608V379.476z M181.864,378.406c-0.784-0.017-1.674,0.122-1.674,0.89c0,0.474,0.311,0.686,0.669,0.686
		c0.522,0,0.857-0.327,0.972-0.661c0.024-0.082,0.033-0.163,0.033-0.229V378.406z"/>
	<path fill="#010101" d="M183.619,379.695c0.22,0.131,0.596,0.277,0.955,0.277c0.514,0,0.759-0.252,0.759-0.587
		c0-0.343-0.204-0.522-0.727-0.719c-0.718-0.261-1.053-0.645-1.053-1.118c0-0.637,0.522-1.159,1.363-1.159
		c0.4,0,0.751,0.106,0.963,0.245l-0.171,0.521c-0.155-0.098-0.441-0.236-0.808-0.236c-0.425,0-0.653,0.245-0.653,0.539
		c0,0.326,0.229,0.474,0.743,0.678c0.677,0.253,1.037,0.596,1.037,1.184c0,0.702-0.547,1.191-1.469,1.191
		c-0.433,0-0.833-0.113-1.11-0.277L183.619,379.695z"/>
</g>
<rect x="104.875" y="216" fill="none" stroke="#231F20" stroke-dasharray="3,3" width="365.717" height="114"/>
<g>
	<path fill="#010101" d="M67.305,374.15c0.588-0.099,1.359-0.183,2.339-0.183c1.205,0,2.087,0.28,2.647,0.784
		c0.504,0.449,0.827,1.135,0.827,1.976c0,0.854-0.252,1.526-0.729,2.017c-0.658,0.687-1.695,1.037-2.886,1.037
		c-0.364,0-0.7-0.014-0.98-0.084v3.781h-1.219V374.15z M68.524,378.703c0.266,0.069,0.603,0.098,1.009,0.098
		c1.471,0,2.367-0.729,2.367-2.004c0-1.26-0.896-1.862-2.228-1.862c-0.532,0-0.938,0.042-1.148,0.098V378.703z"/>
	<path fill="#010101" d="M74.187,387.414c0.22,0.131,0.596,0.277,0.955,0.277c0.514,0,0.759-0.252,0.759-0.587
		c0-0.343-0.204-0.522-0.727-0.719c-0.718-0.261-1.053-0.645-1.053-1.118c0-0.637,0.522-1.159,1.363-1.159
		c0.4,0,0.751,0.106,0.963,0.245l-0.171,0.521c-0.155-0.098-0.441-0.236-0.808-0.236c-0.425,0-0.653,0.245-0.653,0.539
		c0,0.326,0.229,0.474,0.743,0.678c0.677,0.253,1.037,0.596,1.037,1.184c0,0.702-0.547,1.191-1.469,1.191
		c-0.433,0-0.833-0.113-1.11-0.277L74.187,387.414z"/>
	<path fill="#010101" d="M80.292,387.194c0,0.343,0.016,0.677,0.057,0.946h-0.645l-0.057-0.498h-0.024
		c-0.22,0.311-0.645,0.588-1.208,0.588c-0.8,0-1.208-0.562-1.208-1.135c0-0.955,0.849-1.477,2.375-1.469v-0.082
		c0-0.318-0.09-0.914-0.898-0.906c-0.375,0-0.759,0.106-1.037,0.295l-0.163-0.482c0.326-0.204,0.808-0.343,1.306-0.343
		c1.208,0,1.502,0.825,1.502,1.608V387.194z M79.599,386.125c-0.784-0.017-1.674,0.122-1.674,0.89c0,0.474,0.311,0.686,0.669,0.686
		c0.522,0,0.857-0.327,0.972-0.661c0.024-0.082,0.033-0.163,0.033-0.229V386.125z"/>
	<path fill="#010101" d="M81.353,387.414c0.22,0.131,0.596,0.277,0.955,0.277c0.514,0,0.759-0.252,0.759-0.587
		c0-0.343-0.204-0.522-0.727-0.719c-0.718-0.261-1.053-0.645-1.053-1.118c0-0.637,0.522-1.159,1.363-1.159
		c0.4,0,0.751,0.106,0.963,0.245l-0.171,0.521c-0.155-0.098-0.441-0.236-0.808-0.236c-0.425,0-0.653,0.245-0.653,0.539
		c0,0.326,0.229,0.474,0.743,0.678c0.677,0.253,1.037,0.596,1.037,1.184c0,0.702-0.547,1.191-1.47,1.191
		c-0.433,0-0.833-0.113-1.11-0.277L81.353,387.414z"/>
</g>
<g>
	<path fill="#010101" d="M575.553,374.15c0.589-0.099,1.359-0.183,2.34-0.183c1.205,0,2.088,0.28,2.647,0.784
		c0.505,0.449,0.827,1.135,0.827,1.976c0,0.854-0.253,1.526-0.729,2.017c-0.658,0.687-1.695,1.037-2.887,1.037
		c-0.363,0-0.699-0.014-0.98-0.084v3.781h-1.219V374.15z M576.771,378.703c0.267,0.069,0.604,0.098,1.01,0.098
		c1.471,0,2.367-0.729,2.367-2.004c0-1.26-0.896-1.862-2.229-1.862c-0.531,0-0.938,0.042-1.148,0.098V378.703z"/>
	<path fill="#010101" d="M582.435,387.414c0.22,0.131,0.596,0.277,0.955,0.277c0.515,0,0.759-0.252,0.759-0.587
		c0-0.343-0.203-0.522-0.727-0.719c-0.718-0.261-1.053-0.645-1.053-1.118c0-0.637,0.522-1.159,1.363-1.159
		c0.4,0,0.751,0.106,0.963,0.245l-0.171,0.521c-0.155-0.098-0.44-0.236-0.808-0.236c-0.426,0-0.654,0.245-0.654,0.539
		c0,0.326,0.229,0.474,0.744,0.678c0.677,0.253,1.036,0.596,1.036,1.184c0,0.702-0.547,1.191-1.47,1.191
		c-0.433,0-0.832-0.113-1.109-0.277L582.435,387.414z"/>
	<path fill="#010101" d="M586.043,384.189l0.775,2.213c0.131,0.367,0.236,0.693,0.318,1.021h0.023
		c0.09-0.327,0.205-0.653,0.336-1.021l0.767-2.213h0.751l-1.551,3.951h-0.686l-1.502-3.951H586.043z"/>
	<path fill="#010101" d="M589.69,385.26c0-0.416-0.008-0.743-0.032-1.07h0.637l0.041,0.654h0.016
		c0.196-0.368,0.653-0.735,1.307-0.735c0.547,0,1.396,0.327,1.396,1.682v2.351h-0.719v-2.277c0-0.637-0.236-1.167-0.914-1.167
		c-0.466,0-0.833,0.335-0.964,0.734c-0.032,0.09-0.049,0.212-0.049,0.335v2.375h-0.719V385.26z"/>
</g>
<g>
	<path fill="#010101" d="M125.479,248.197l-3.096-9.441h1.331l1.471,4.65c0.392,1.274,0.742,2.423,1.009,3.53h0.027
		c0.267-1.093,0.645-2.283,1.079-3.516l1.597-4.665h1.303l-3.376,9.441H125.479z"/>
	<path fill="#010101" d="M131.946,245.227l-0.98,2.97h-1.261l3.222-9.441h1.456l3.222,9.441h-1.303l-1.008-2.97H131.946z
		 M135.056,244.275l-0.938-2.718c-0.21-0.616-0.351-1.177-0.49-1.723h-0.028c-0.14,0.546-0.28,1.134-0.477,1.708l-0.924,2.732
		H135.056z"/>
	<path fill="#010101" d="M138.987,238.896c0.742-0.126,1.625-0.21,2.592-0.21c1.751,0,2.997,0.42,3.824,1.177
		c0.854,0.771,1.345,1.863,1.345,3.39c0,1.541-0.49,2.802-1.359,3.67c-0.896,0.883-2.354,1.359-4.188,1.359
		c-0.882,0-1.597-0.042-2.213-0.112V238.896z M140.206,247.244c0.309,0.042,0.757,0.056,1.232,0.056c2.62,0,4.021-1.457,4.021-4.006
		c0.014-2.227-1.247-3.642-3.824-3.642c-0.63,0-1.106,0.056-1.429,0.126V247.244z"/>
</g>
<g>
	<g>
		<line fill="none" stroke="#231F20" x1="358.944" y1="86.201" x2="358.944" y2="273"/>
		<circle fill="#231F20" cx="358.944" cy="86.201" r="3.759"/>
	</g>
</g>
<g>
	<g>
		<line fill="none" stroke="#231F20" x1="254.655" y1="273" x2="254.655" y2="393.227"/>
		<circle fill="#231F20" cx="254.655" cy="393.227" r="3.76"/>
	</g>
</g>
<line fill="none" stroke="#231F20" x1="254.655" y1="273" x2="358.944" y2="273"/>
<rect x="275.187" y="241.452" fill="#FFFFFF" stroke="#231F20" width="74.322" height="74.322"/>
<g>
	<path fill="#010101" d="M382.261,241.421c-1.274-0.336-2.521-0.714-3.614-1.093c-0.209-0.07-0.392-0.14-0.574-0.14
		c-2.255-0.084-4.16-1.737-4.16-4.791c0-3.025,1.836-4.973,4.385-4.973c2.577,0,4.244,1.989,4.244,4.777
		c0,2.437-1.121,3.978-2.689,4.539v0.056c0.938,0.238,1.961,0.462,2.76,0.603L382.261,241.421z M381.252,235.272
		c0-1.905-0.98-3.852-2.982-3.852c-2.06,0-3.068,1.905-3.068,3.95c0,2.017,1.093,3.824,3.025,3.824
		C380.16,239.194,381.252,237.415,381.252,235.272z"/>
	<path fill="#010101" d="M383.928,240.746l0.775,2.212c0.131,0.367,0.236,0.694,0.318,1.021h0.024
		c0.09-0.327,0.204-0.653,0.335-1.021l0.768-2.212h0.751l-1.552,3.951h-0.686l-1.502-3.951H383.928z"/>
	<path fill="#010101" d="M387.576,242.036c0-0.506-0.017-0.915-0.033-1.29h0.637l0.041,0.678h0.017
		c0.286-0.482,0.759-0.759,1.403-0.759c0.964,0,1.682,0.808,1.682,2c0,1.42-0.873,2.123-1.803,2.123
		c-0.523,0-0.98-0.229-1.217-0.621h-0.017v2.147h-0.71V242.036z M388.286,243.088c0,0.106,0.009,0.204,0.032,0.294
		c0.131,0.498,0.563,0.841,1.078,0.841c0.76,0,1.199-0.62,1.199-1.526c0-0.784-0.416-1.461-1.175-1.461
		c-0.489,0-0.955,0.343-1.086,0.882c-0.024,0.09-0.049,0.196-0.049,0.286V243.088z"/>
	<path fill="#010101" d="M392.22,238.901h0.719v5.796h-0.719V238.901z"/>
</g>
<g>
	<path fill="#010101" d="M230.262,307.441c-1.274-0.336-2.521-0.714-3.614-1.092c-0.21-0.07-0.392-0.141-0.574-0.141
		c-2.255-0.084-4.16-1.736-4.16-4.791c0-3.025,1.835-4.973,4.384-4.973c2.577,0,4.244,1.99,4.244,4.777
		c0,2.438-1.121,3.979-2.689,4.539v0.055c0.938,0.238,1.961,0.463,2.76,0.604L230.262,307.441z M229.253,301.293
		c0-1.905-0.98-3.853-2.983-3.853c-2.059,0-3.068,1.905-3.068,3.95c0,2.018,1.093,3.824,3.025,3.824
		C228.161,305.215,229.253,303.436,229.253,301.293z"/>
	<path fill="#010101" d="M231.929,306.766l0.775,2.213c0.131,0.367,0.237,0.693,0.318,1.021h0.024
		c0.09-0.327,0.204-0.653,0.335-1.021l0.767-2.213h0.751l-1.551,3.951h-0.686l-1.502-3.951H231.929z"/>
	<path fill="#010101" d="M235.577,308.057c0-0.507-0.016-0.915-0.032-1.291h0.637l0.041,0.678h0.017
		c0.286-0.481,0.759-0.759,1.404-0.759c0.963,0,1.682,0.808,1.682,2c0,1.421-0.874,2.122-1.804,2.122
		c-0.522,0-0.98-0.229-1.217-0.62h-0.016v2.147h-0.71V308.057z M236.287,309.109c0,0.105,0.008,0.203,0.033,0.293
		c0.13,0.498,0.563,0.842,1.078,0.842c0.759,0,1.2-0.621,1.2-1.527c0-0.783-0.416-1.461-1.175-1.461
		c-0.49,0-0.955,0.343-1.086,0.882c-0.024,0.09-0.049,0.196-0.049,0.286V309.109z"/>
	<path fill="#010101" d="M243.796,308.709c0,1.461-1.021,2.098-1.967,2.098c-1.061,0-1.894-0.783-1.894-2.032
		c0-1.314,0.874-2.09,1.959-2.09C243.029,306.685,243.796,307.51,243.796,308.709z M240.67,308.75c0,0.865,0.49,1.518,1.192,1.518
		c0.686,0,1.2-0.645,1.2-1.534c0-0.669-0.335-1.511-1.184-1.511C241.037,307.223,240.67,308.007,240.67,308.75z"/>
</g>
<g id="XMLID_3_">
	<g>
		<path fill="#E6E7E8" d="M345.99,267.67v6c0,0.92-0.1,1.82-0.3,2.68l-0.76-0.18h-63.58l-0.77,0.18c-0.2-0.859-0.3-1.76-0.3-2.68v-6
			c0-0.32,0.01-0.63,0.04-0.95h65.63C345.98,267.04,345.99,267.35,345.99,267.67z"/>
		<path fill="#E6E7E8" d="M345.95,266.72h-65.63c0.48-6.18,5.66-11.05,11.96-11.05h41.71C340.3,255.67,345.47,260.54,345.95,266.72z
			"/>
		<path fill="#BCBEC0" d="M344.93,276.17l0.76,0.18c-1.22,5.33-5.99,9.32-11.7,9.32h-41.71c-5.7,0-10.48-3.99-11.7-9.32l0.77-0.18
			H344.93z"/>
	</g>
	<g>
		<path fill="none" stroke="#231F20" d="M345.95,266.72c0.03,0.32,0.04,0.63,0.04,0.95v6c0,0.92-0.1,1.82-0.3,2.68
			c-1.22,5.33-5.99,9.32-11.7,9.32h-41.71c-5.7,0-10.48-3.99-11.7-9.32c-0.2-0.859-0.3-1.76-0.3-2.68v-6c0-0.32,0.01-0.63,0.04-0.95
			c0.48-6.18,5.66-11.05,11.96-11.05h41.71C340.3,255.67,345.47,260.54,345.95,266.72z"/>
		<line fill="none" stroke="#231F20" x1="281.35" y1="276.17" x2="344.93" y2="276.17"/>
		<polyline fill="none" stroke="#231F20" points="280.28,266.72 280.32,266.72 345.95,266.72 345.99,266.72 		"/>
	</g>
</g>
<g id="XMLID_4_">
	<g>
		<linearGradient id="SVGID_1_" gradientUnits="userSpaceOnUse" x1="280.2798" y1="271.4453" x2="345.9902" y2="271.4453">
			<stop  offset="0" style="stop-color:#FFFFFF"/>
			<stop  offset="1" style="stop-color:#000000"/>
		</linearGradient>
		<rect x="280.28" y="266.72" fill="url(#SVGID_1_)" width="65.71" height="9.45"/>
	</g>
	<g>
		<rect x="280.28" y="266.72" fill="none" stroke="#231F20" width="65.71" height="9.45"/>
	</g>
</g>
<linearGradient id="SVGID_2_" gradientUnits="userSpaceOnUse" x1="309.5723" y1="292.1113" x2="314.9766" y2="292.1113">
	<stop  offset="0" style="stop-color:#FFFFFF"/>
	<stop  offset="1" style="stop-color:#000000"/>
</linearGradient>
<rect x="309.572" y="276.945" fill="url(#SVGID_2_)" stroke="#231F20" width="5.404" height="30.332"/>
</svg>
