<?xml version="1.0" encoding="utf-8"?>
<!-- Generator: Adobe Illustrator 14.0.0, SVG Export Plug-In . SVG Version: 6.00 Build 43363)  -->
<!DOCTYPE svg PUBLIC "-//W3C//DTD SVG 1.1//EN" "http://www.w3.org/Graphics/SVG/1.1/DTD/svg11.dtd">
<svg version="1.1" id="Layer_1" xmlns="http://www.w3.org/2000/svg" xmlns:xlink="http://www.w3.org/1999/xlink" x="0px" y="0px"
	 width="572px" height="352.5px" viewBox="0 0 572 352.5" enable-background="new 0 0 572 352.5" xml:space="preserve">
<g>
	<path fill="none" stroke="#0092DF" stroke-width="2.0551" stroke-dasharray="6.1654,6.1654" d="M379.668,165.5c0,5.5-4.5,10-10,10
		H225.647c-5.5,0-10-4.5-10-10v-73c0-5.5,4.5-10,10-10h144.021c5.5,0,10,4.5,10,10V165.5z"/>
</g>
<g>
	<path fill="none" stroke="#0092DF" stroke-width="2.0551" stroke-dasharray="6.1654,6.1654" d="M552.211,271.332
		c0,5.5-4.5,10-10,10H32.758c-5.5,0-10-4.5-10-10V21.078c0-5.5,4.5-10,10-10h509.453c5.5,0,10,4.5,10,10V271.332z"/>
</g>
<g id="g36000" transform="translate(15.54048,33.77969)">
	<path id="path34997" fill="#00FF70" stroke="#000000" d="M520.689,94.88c0,34.906-34.921,63.204-78,63.204
		c-43.077,0-78-28.298-78-63.204c0-34.904,34.923-63.203,78-63.203C485.768,31.677,520.689,59.974,520.689,94.88z"/>
	<path id="path34999" fill="#B9FF9F" stroke="#000000" d="M464.883,43.937c15.642,6.764,31.707,66.797,25.364,13.105
		c-2.043-17.307,33.543,23.584,16.211,53.178c-5.5,7.5-47-59-11.5,12.5c6.963,16.248-42.375,22.083-44,21c-18-18-36.5-69-17.833-3
		c2.921,10.454-0.671,7.667-7,7.667c-8.667,0-42.837-92.189-17.471-7.215c2.251,7.538-31.377-17.08-35.935-38.047
		c-2.928-13.461,1.268-30.439,7.608-35.936c6.34-5.492,33.129,29.531,19.024-2.537c-8.456-18.18,9.767-19.402,15.104-17.932
		c12.262,3.383,52.898,100.385,19.5-1.5C432.44,40.589,447.837,36.564,464.883,43.937z"/>
</g>
<g>
	<g id="g11110" transform="translate(-4.764492,-202.9406)">
		<path id="rect11116" fill="#BFDDFF" stroke="#0092DF" stroke-width="5.31" d="M63.632,280.247h138.991c8.285,0,15,6.717,15,15
			v72.707c0,8.283-6.715,15-15,15H63.632c-8.285,0-15-6.717-15-15v-72.707C48.632,286.964,55.347,280.247,63.632,280.247z"/>
	</g>
	<g>
		<path d="M63.764,93.666h-2.609v2.429h2.918v0.729h-3.798v-6.736h3.647v0.729h-2.769v2.129h2.609L63.764,93.666L63.764,93.666z"/>
		<path d="M65.206,90.188c0.439-0.09,1.079-0.149,1.669-0.149c0.93,0,1.539,0.18,1.959,0.56c0.33,0.29,0.53,0.75,0.53,1.279
			c0,0.88-0.57,1.469-1.27,1.709v0.03c0.51,0.18,0.819,0.659,0.988,1.359c0.221,0.939,0.38,1.589,0.51,1.849h-0.898
			c-0.11-0.189-0.26-0.77-0.439-1.609c-0.199-0.93-0.569-1.279-1.358-1.309h-0.82v2.918h-0.869L65.206,90.188L65.206,90.188z
			 M66.075,93.246h0.89c0.931,0,1.52-0.51,1.52-1.279c0-0.869-0.629-1.249-1.549-1.249c-0.42,0-0.71,0.04-0.86,0.08V93.246z"/>
	</g>
</g>
<g>
	<path d="M272.843,26.107c0.391,0.25,0.95,0.439,1.551,0.439c0.889,0,1.407-0.47,1.407-1.149c0-0.62-0.358-0.989-1.269-1.329
		c-1.1-0.4-1.779-0.979-1.779-1.919c0-1.05,0.87-1.829,2.18-1.829c0.68,0,1.188,0.16,1.479,0.33l-0.239,0.709
		c-0.211-0.129-0.66-0.319-1.27-0.319c-0.92,0-1.271,0.55-1.271,1.009c0,0.631,0.41,0.939,1.339,1.3
		c1.141,0.44,1.71,0.989,1.71,1.979c0,1.039-0.76,1.948-2.35,1.948c-0.648,0-1.358-0.2-1.719-0.439L272.843,26.107z"/>
	<path d="M281.901,25.838c0,0.51,0.01,0.949,0.039,1.328h-0.779l-0.05-0.789h-0.021c-0.221,0.39-0.739,0.899-1.6,0.899
		c-0.76,0-1.669-0.43-1.669-2.118v-2.829h0.88v2.669c0,0.919,0.289,1.549,1.079,1.549c0.59,0,0.999-0.41,1.159-0.81
		c0.05-0.12,0.08-0.28,0.08-0.45v-2.958h0.88L281.901,25.838L281.901,25.838z"/>
	<path d="M283.363,20.07h0.87v3.039h0.02c0.311-0.541,0.869-0.881,1.649-0.881c1.209,0,2.049,1,2.049,2.459
		c0,1.729-1.1,2.589-2.179,2.589c-0.7,0-1.26-0.27-1.63-0.899h-0.021l-0.05,0.789h-0.75c0.021-0.329,0.04-0.818,0.04-1.249
		L283.363,20.07L283.363,20.07z M284.233,25.228c0,0.11,0.01,0.22,0.039,0.319c0.16,0.61,0.68,1.029,1.318,1.029
		c0.931,0,1.471-0.749,1.471-1.858c0-0.97-0.5-1.799-1.449-1.799c-0.59,0-1.149,0.419-1.329,1.079c-0.03,0.11-0.05,0.23-0.05,0.37
		V25.228z"/>
	<path d="M288.933,26.277c0.271,0.16,0.729,0.34,1.17,0.34c0.629,0,0.93-0.311,0.93-0.721c0-0.419-0.25-0.639-0.89-0.879
		c-0.88-0.32-1.29-0.789-1.29-1.369c0-0.779,0.64-1.42,1.67-1.42c0.489,0,0.919,0.131,1.179,0.301l-0.21,0.64
		c-0.188-0.12-0.539-0.29-0.989-0.29c-0.52,0-0.8,0.3-0.8,0.66c0,0.399,0.28,0.579,0.91,0.829c0.829,0.31,1.269,0.729,1.269,1.449
		c0,0.859-0.669,1.459-1.799,1.459c-0.528,0-1.02-0.14-1.358-0.34L288.933,26.277z"/>
	<path d="M293.013,23.908c0-0.619-0.021-1.119-0.04-1.579h0.778l0.051,0.829h0.021c0.35-0.59,0.93-0.93,1.719-0.93
		c1.181,0,2.061,0.99,2.061,2.449c0,1.739-1.069,2.599-2.209,2.599c-0.641,0-1.199-0.28-1.489-0.759h-0.021v2.628h-0.868
		L293.013,23.908L293.013,23.908z M293.882,25.197c0,0.131,0.012,0.25,0.04,0.36c0.16,0.609,0.69,1.029,1.319,1.029
		c0.93,0,1.47-0.76,1.47-1.869c0-0.96-0.51-1.789-1.438-1.789c-0.601,0-1.169,0.42-1.329,1.079c-0.03,0.11-0.062,0.24-0.062,0.35
		V25.197z"/>
	<path d="M302.1,26.008c0,0.419,0.021,0.829,0.069,1.158h-0.789l-0.07-0.609h-0.028c-0.271,0.38-0.79,0.72-1.479,0.72
		c-0.979,0-1.479-0.689-1.479-1.39c0-1.169,1.04-1.809,2.908-1.799v-0.1c0-0.39-0.109-1.119-1.1-1.109c-0.46,0-0.93,0.13-1.27,0.359
		l-0.2-0.59c0.399-0.25,0.989-0.42,1.6-0.42c1.479,0,1.839,1.01,1.839,1.97L302.1,26.008L302.1,26.008z M301.251,24.697
		c-0.96-0.021-2.049,0.15-2.049,1.09c0,0.58,0.38,0.84,0.819,0.84c0.64,0,1.05-0.4,1.188-0.81c0.03-0.101,0.04-0.2,0.04-0.28
		L301.251,24.697L301.251,24.697z"/>
	<path d="M306.97,26.996c-0.229,0.11-0.738,0.28-1.39,0.28c-1.459,0-2.408-0.989-2.408-2.469c0-1.489,1.021-2.579,2.6-2.579
		c0.52,0,0.979,0.131,1.219,0.261l-0.199,0.669c-0.21-0.109-0.54-0.229-1.02-0.229c-1.109,0-1.71,0.829-1.71,1.829
		c0,1.119,0.721,1.809,1.68,1.809c0.5,0,0.83-0.119,1.079-0.229L306.97,26.996z"/>
	<path d="M308.432,24.908c0.021,1.189,0.771,1.679,1.658,1.679c0.63,0,1.021-0.11,1.34-0.25l0.16,0.63
		c-0.311,0.14-0.85,0.31-1.619,0.31c-1.488,0-2.379-0.989-2.379-2.448s0.859-2.6,2.27-2.6c1.589,0,1.999,1.38,1.999,2.27
		c0,0.18-0.011,0.31-0.03,0.41L308.432,24.908L308.432,24.908z M311.01,24.278c0.011-0.55-0.229-1.419-1.22-1.419
		c-0.899,0-1.279,0.809-1.349,1.419H311.01z"/>
	<path d="M316.701,21.49h-0.021l-1.13,0.609l-0.17-0.67l1.42-0.76h0.749v6.496h-0.85L316.701,21.49L316.701,21.49z"/>
</g>
<g>
	<path d="M272.843,97.107c0.391,0.25,0.95,0.439,1.551,0.439c0.889,0,1.407-0.47,1.407-1.149c0-0.62-0.358-0.989-1.269-1.329
		c-1.1-0.4-1.779-0.979-1.779-1.919c0-1.05,0.87-1.829,2.18-1.829c0.68,0,1.188,0.16,1.479,0.33l-0.239,0.709
		c-0.211-0.129-0.66-0.319-1.27-0.319c-0.92,0-1.271,0.55-1.271,1.009c0,0.631,0.41,0.939,1.339,1.3
		c1.141,0.44,1.71,0.989,1.71,1.979c0,1.039-0.76,1.948-2.35,1.948c-0.648,0-1.358-0.2-1.719-0.439L272.843,97.107z"/>
	<path d="M281.9,96.838c0,0.51,0.011,0.949,0.041,1.328h-0.78l-0.05-0.789h-0.021c-0.221,0.39-0.739,0.899-1.6,0.899
		c-0.76,0-1.669-0.43-1.669-2.118v-2.829h0.88v2.669c0,0.919,0.289,1.549,1.079,1.549c0.589,0,0.999-0.41,1.159-0.81
		c0.05-0.12,0.08-0.28,0.08-0.45v-2.958h0.879L281.9,96.838L281.9,96.838z"/>
	<path d="M283.363,91.07h0.869v3.039h0.02c0.312-0.541,0.87-0.881,1.649-0.881c1.21,0,2.049,1,2.049,2.459
		c0,1.729-1.099,2.589-2.179,2.589c-0.699,0-1.261-0.27-1.629-0.899h-0.021l-0.051,0.789h-0.75c0.021-0.329,0.041-0.818,0.041-1.249
		L283.363,91.07L283.363,91.07z M284.232,96.228c0,0.11,0.01,0.22,0.04,0.319c0.159,0.61,0.68,1.029,1.318,1.029
		c0.931,0,1.47-0.749,1.47-1.858c0-0.97-0.5-1.799-1.449-1.799c-0.59,0-1.148,0.419-1.329,1.079c-0.03,0.11-0.05,0.23-0.05,0.37
		V96.228z"/>
	<path d="M288.934,97.277c0.27,0.16,0.729,0.34,1.168,0.34c0.631,0,0.93-0.311,0.93-0.721c0-0.419-0.25-0.639-0.889-0.879
		c-0.88-0.32-1.289-0.789-1.289-1.369c0-0.779,0.639-1.42,1.668-1.42c0.489,0,0.92,0.131,1.18,0.301l-0.209,0.64
		c-0.19-0.12-0.541-0.29-0.99-0.29c-0.52,0-0.799,0.3-0.799,0.66c0,0.399,0.279,0.579,0.908,0.829c0.83,0.31,1.27,0.729,1.27,1.449
		c0,0.859-0.67,1.459-1.799,1.459c-0.529,0-1.02-0.14-1.358-0.34L288.934,97.277z"/>
	<path d="M293.013,94.908c0-0.619-0.021-1.119-0.04-1.579h0.778l0.051,0.829h0.021c0.35-0.59,0.93-0.93,1.719-0.93
		c1.181,0,2.061,0.99,2.061,2.449c0,1.739-1.069,2.599-2.209,2.599c-0.641,0-1.199-0.28-1.489-0.759h-0.021v2.628h-0.869
		L293.013,94.908L293.013,94.908z M293.883,96.197c0,0.131,0.011,0.25,0.039,0.36c0.16,0.609,0.689,1.029,1.319,1.029
		c0.93,0,1.47-0.76,1.47-1.869c0-0.96-0.51-1.789-1.438-1.789c-0.601,0-1.17,0.42-1.329,1.079c-0.03,0.11-0.061,0.24-0.061,0.35
		V96.197z"/>
	<path d="M302.1,97.008c0,0.419,0.021,0.829,0.069,1.158h-0.789l-0.07-0.609h-0.028c-0.271,0.38-0.79,0.72-1.479,0.72
		c-0.979,0-1.479-0.689-1.479-1.39c0-1.169,1.04-1.809,2.908-1.799v-0.1c0-0.39-0.109-1.119-1.1-1.109c-0.46,0-0.93,0.13-1.27,0.359
		l-0.2-0.59c0.399-0.25,0.989-0.42,1.6-0.42c1.479,0,1.839,1.01,1.839,1.97L302.1,97.008L302.1,97.008z M301.251,95.697
		c-0.96-0.021-2.049,0.15-2.049,1.09c0,0.58,0.38,0.84,0.819,0.84c0.64,0,1.05-0.4,1.188-0.81c0.03-0.101,0.04-0.2,0.04-0.28
		L301.251,95.697L301.251,95.697z"/>
	<path d="M306.97,97.996c-0.229,0.11-0.738,0.28-1.39,0.28c-1.459,0-2.408-0.989-2.408-2.469c0-1.489,1.021-2.579,2.6-2.579
		c0.52,0,0.979,0.131,1.219,0.261l-0.199,0.669c-0.21-0.109-0.54-0.229-1.02-0.229c-1.109,0-1.71,0.829-1.71,1.829
		c0,1.119,0.721,1.809,1.68,1.809c0.5,0,0.83-0.119,1.079-0.229L306.97,97.996z"/>
	<path d="M308.433,95.908c0.021,1.189,0.771,1.679,1.658,1.679c0.63,0,1.021-0.11,1.34-0.25l0.16,0.63
		c-0.311,0.14-0.85,0.31-1.619,0.31c-1.488,0-2.379-0.989-2.379-2.448s0.859-2.6,2.27-2.6c1.589,0,1.999,1.38,1.999,2.27
		c0,0.18-0.011,0.31-0.03,0.41L308.433,95.908L308.433,95.908z M311.011,95.278c0.011-0.55-0.229-1.419-1.22-1.419
		c-0.899,0-1.279,0.809-1.349,1.419H311.011z"/>
	<path d="M314.794,98.166v-0.539l0.689-0.67c1.658-1.579,2.418-2.418,2.418-3.398c0-0.659-0.311-1.27-1.279-1.27
		c-0.589,0-1.079,0.301-1.379,0.551l-0.279-0.62c0.439-0.37,1.089-0.659,1.828-0.659c1.399,0,1.989,0.959,1.989,1.889
		c0,1.199-0.869,2.168-2.238,3.488l-0.51,0.479v0.021h2.908v0.729L314.794,98.166L314.794,98.166z"/>
</g>
<g id="JS1S2">
	<g>
		<g>
			<line fill="none" stroke="#000000" x1="294.49" y1="140.02" x2="294.49" y2="201.338"/>
			<polygon points="290.787,198.529 294.49,200.102 298.194,198.529 294.49,207.307 			"/>
			<polygon points="298.193,142.828 294.49,141.256 290.786,142.828 294.49,134.051 			"/>
		</g>
	</g>
	<g>
		<g>
			
				<radialGradient id="SVGID_1_" cx="231.9617" cy="926.7646" r="18.22" gradientTransform="matrix(-1 0 0 1 526.4531 -756.0859)" gradientUnits="userSpaceOnUse">
				<stop  offset="0" style="stop-color:#FFFCDF"/>
				<stop  offset="0.1203" style="stop-color:#FFFBDA"/>
				<stop  offset="0.2662" style="stop-color:#FFF9CB"/>
				<stop  offset="0.4255" style="stop-color:#FFF6B2"/>
				<stop  offset="0.5943" style="stop-color:#FFF090"/>
				<stop  offset="0.7706" style="stop-color:#FFEA64"/>
				<stop  offset="0.9506" style="stop-color:#FFE22F"/>
				<stop  offset="1" style="stop-color:#FFE01F"/>
			</radialGradient>
			<path fill="url(#SVGID_1_)" d="M299.574,147.262c-2.228,0-4.158,1.959-5.083,4.781c-0.925-2.822-2.857-4.781-5.083-4.781
				c-3.115,0-5.668,3.826-5.668,8.504v29.826c0,4.678,2.553,8.504,5.668,8.504c2.226,0,4.158-1.959,5.083-4.781
				c0.925,2.822,2.855,4.781,5.083,4.781c3.117,0,5.668-3.826,5.668-8.504v-29.826C305.242,151.088,302.691,147.262,299.574,147.262
				z"/>
		</g>
		<g>
			<path id="JS1S2_path1" fill="none" stroke="#000000" d="M299.574,147.262c-2.228,0-4.158,1.959-5.083,4.781
				c-0.925-2.822-2.857-4.781-5.083-4.781c-3.115,0-5.668,3.826-5.668,8.504v29.826c0,4.678,2.553,8.504,5.668,8.504
				c2.226,0,4.158-1.959,5.083-4.781c0.925,2.822,2.855,4.781,5.083,4.781c3.117,0,5.668-3.826,5.668-8.504v-29.826
				C305.242,151.088,302.691,147.262,299.574,147.262z"/>
		</g>
	</g>
	<g>
		<path d="M290.03,167.004c-0.161-0.309-0.325-0.958-0.329-1.777c-0.011-1.898,1.182-3.325,3.4-3.337
			c2.117-0.012,3.546,1.411,3.557,3.5c0.005,0.829-0.173,1.37-0.291,1.6l-0.711-0.216c0.158-0.32,0.275-0.79,0.271-1.35
			c-0.008-1.579-1.021-2.624-2.792-2.614c-1.658,0.009-2.701,0.964-2.693,2.593c0.003,0.54,0.115,1.079,0.287,1.428L290.03,167.004z
			"/>
		<path d="M291.003,171.411c-0.42,0.002-0.829,0.023-1.159,0.076l-0.004-0.79l0.609-0.083v-0.029
			c-0.381-0.259-0.725-0.786-0.729-1.476c-0.006-0.979,0.684-1.483,1.383-1.487c1.168-0.006,1.812,1.03,1.813,2.898h0.101
			c0.399-0.002,1.129-0.115,1.112-1.104c-0.002-0.46-0.135-0.93-0.366-1.268l0.59-0.204c0.252,0.399,0.425,0.987,0.428,1.598
			c0.008,1.489-1,1.854-1.969,1.859L291.003,171.411z M292.309,170.545c0.014-0.96-0.162-2.049-1.103-2.043
			c-0.578,0.003-0.836,0.384-0.834,0.823c0.004,0.64,0.404,1.048,0.816,1.186c0.09,0.029,0.188,0.039,0.278,0.038L292.309,170.545z"
			/>
		<path d="M293.18,172.396l0.377-0.002l0.473,0.48c1.113,1.155,1.703,1.685,2.391,1.681c0.463-0.002,0.89-0.222,0.886-0.9
			c-0.002-0.413-0.216-0.754-0.392-0.965l0.435-0.197c0.261,0.307,0.467,0.761,0.469,1.286c0.006,0.973-0.665,1.389-1.316,1.393
			c-0.841,0.004-1.522-0.602-2.453-1.555l-0.338-0.355h-0.014l0.012,2.037l-0.512,0.003L293.18,172.396z"/>
		<path d="M296.936,177.962l-1.646,0.009l0.009,1.584l-0.42,0.002l-0.009-1.584l-1.66,0.01l-0.002-0.448l1.66-0.009l-0.009-1.583
			l0.42-0.002l0.009,1.583l1.646-0.01L296.936,177.962z"/>
	</g>
</g>
<g>
	<path d="M114.402,206.249h1.055v5.409c0,2.146-1.055,2.807-2.445,2.807c-0.396,0-0.864-0.084-1.116-0.191l0.144-0.852
		c0.216,0.084,0.528,0.155,0.888,0.155c0.936,0,1.476-0.42,1.476-2.003V206.249z"/>
	<path d="M116.833,217.438c0.328,0.211,0.799,0.371,1.304,0.371c0.748,0,1.186-0.396,1.186-0.968c0-0.521-0.303-0.832-1.068-1.118
		c-0.925-0.336-1.497-0.824-1.497-1.613c0-0.883,0.731-1.538,1.833-1.538c0.572,0,1,0.134,1.244,0.276l-0.202,0.598
		c-0.177-0.109-0.555-0.271-1.067-0.271c-0.773,0-1.068,0.464-1.068,0.851c0,0.529,0.345,0.789,1.127,1.093
		c0.958,0.37,1.438,0.833,1.438,1.665c0,0.874-0.64,1.64-1.977,1.64c-0.546,0-1.144-0.168-1.445-0.37L116.833,217.438z"/>
	<path d="M123.993,215.672h-2.194v2.044h2.455v0.613h-3.194v-5.667h3.068v0.613h-2.329v1.791h2.194V215.672z"/>
	<path d="M125.2,212.738c0.37-0.067,0.908-0.118,1.404-0.118c0.782,0,1.295,0.151,1.64,0.463c0.277,0.252,0.445,0.64,0.445,1.084
		c0,0.74-0.472,1.235-1.06,1.438v0.023c0.43,0.151,0.689,0.557,0.824,1.145c0.186,0.791,0.32,1.336,0.438,1.556h-0.758
		c-0.092-0.168-0.219-0.647-0.369-1.354c-0.168-0.781-0.479-1.076-1.144-1.102h-0.688v2.455H125.2V212.738z M125.932,215.318h0.748
		c0.781,0,1.277-0.428,1.277-1.075c0-0.731-0.528-1.052-1.303-1.052c-0.354,0-0.597,0.024-0.723,0.06V215.318z"/>
	<path d="M133.695,218.152c-0.26,0.135-0.807,0.27-1.497,0.27c-1.597,0-2.791-1.009-2.791-2.876c0-1.782,1.202-2.976,2.959-2.976
		c0.698,0,1.152,0.15,1.345,0.252l-0.185,0.597c-0.27-0.135-0.664-0.235-1.135-0.235c-1.329,0-2.211,0.851-2.211,2.338
		c0,1.396,0.799,2.278,2.169,2.278c0.454,0,0.907-0.093,1.203-0.235L133.695,218.152z"/>
	<path d="M135.566,216.547l-0.588,1.782h-0.757l1.934-5.667h0.875l1.934,5.667h-0.781l-0.605-1.782H135.566z M137.433,215.975
		l-0.563-1.631c-0.126-0.369-0.21-0.705-0.294-1.033h-0.017c-0.084,0.328-0.168,0.682-0.286,1.025l-0.556,1.639H137.433
		L137.433,215.975z"/>
</g>
<g id="JIPR">
	<g>
		<g>
			<line fill="none" stroke="#000000" x1="245.2" y1="131.189" x2="183.885" y2="131.189"/>
			<polygon points="242.392,134.893 243.964,131.189 242.392,127.484 251.169,131.189 			"/>
		</g>
	</g>
	<g>
		<g>
			
				<radialGradient id="SVGID_2_" cx="92.761" cy="496.2354" r="18.2191" gradientTransform="matrix(0 -1 -1 0 710.7776 223.949)" gradientUnits="userSpaceOnUse">
				<stop  offset="0" style="stop-color:#FFFCDF"/>
				<stop  offset="0.1203" style="stop-color:#FFFBDA"/>
				<stop  offset="0.2662" style="stop-color:#FFF9CB"/>
				<stop  offset="0.4255" style="stop-color:#FFF6B2"/>
				<stop  offset="0.5943" style="stop-color:#FFF090"/>
				<stop  offset="0.7706" style="stop-color:#FFEA64"/>
				<stop  offset="0.9506" style="stop-color:#FFE22F"/>
				<stop  offset="1" style="stop-color:#FFE01F"/>
			</radialGradient>
			<path fill="url(#SVGID_2_)" d="M233.179,131.188c2.82-0.924,4.778-2.855,4.778-5.082c0-3.115-3.826-5.668-8.504-5.668H199.63
				c-4.678,0-8.504,2.553-8.504,5.668c0,2.227,1.958,4.158,4.779,5.082c-2.821,0.926-4.779,2.857-4.779,5.084
				c0,3.115,3.826,5.666,8.504,5.666h29.824c4.678,0,8.504-2.551,8.504-5.666C237.958,134.045,236,132.113,233.179,131.188z"/>
		</g>
		<g>
			<path id="JIPR_path1" fill="none" stroke="#000000" d="M233.179,131.188c2.82-0.924,4.778-2.855,4.778-5.082
				c0-3.115-3.826-5.668-8.504-5.668H199.63c-4.678,0-8.504,2.553-8.504,5.668c0,2.227,1.958,4.158,4.779,5.082
				c-2.821,0.926-4.779,2.857-4.779,5.084c0,3.115,3.826,5.666,8.504,5.666h29.824c4.678,0,8.504-2.551,8.504-5.666
				C237.958,134.045,236,132.113,233.179,131.188z"/>
		</g>
	</g>
	<g>
		<path d="M210.867,135.647c-0.309,0.161-0.958,0.325-1.777,0.329c-1.897,0.011-3.324-1.182-3.337-3.4
			c-0.012-2.118,1.411-3.546,3.5-3.557c0.829-0.005,1.37,0.173,1.601,0.291l-0.216,0.711c-0.32-0.158-0.79-0.275-1.351-0.271
			c-1.579,0.008-2.624,1.022-2.614,2.792c0.01,1.659,0.965,2.702,2.594,2.694c0.54-0.003,1.079-0.115,1.428-0.287L210.867,135.647z"
			/>
		<path d="M215.274,134.675c0.002,0.42,0.022,0.829,0.076,1.159l-0.79,0.004l-0.083-0.609h-0.029
			c-0.259,0.381-0.786,0.725-1.476,0.729c-0.979,0.005-1.483-0.684-1.487-1.383c-0.006-1.168,1.03-1.813,2.897-1.814v-0.1
			c-0.002-0.4-0.114-1.129-1.104-1.113c-0.46,0.002-0.93,0.135-1.268,0.367l-0.204-0.59c0.398-0.252,0.986-0.425,1.598-0.428
			c1.489-0.008,1.854,1,1.859,1.969L215.274,134.675z M214.408,133.369c-0.96-0.014-2.049,0.162-2.043,1.102
			c0.003,0.578,0.384,0.836,0.823,0.834c0.64-0.004,1.048-0.404,1.186-0.816c0.029-0.09,0.039-0.189,0.038-0.279L214.408,133.369z"
			/>
		<path d="M216.259,132.498l-0.002-0.377l0.48-0.473c1.155-1.113,1.685-1.703,1.681-2.391c-0.002-0.463-0.222-0.889-0.899-0.885
			c-0.413,0.002-0.754,0.215-0.965,0.391l-0.197-0.434c0.307-0.261,0.761-0.467,1.286-0.469c0.973-0.006,1.389,0.665,1.393,1.316
			c0.004,0.841-0.602,1.523-1.555,2.453l-0.355,0.338v0.014l2.037-0.012l0.003,0.512L216.259,132.498z"/>
		<path d="M221.825,128.742l0.009,1.646l1.583-0.009l0.002,0.42l-1.583,0.009l0.01,1.66l-0.448,0.002l-0.009-1.66l-1.583,0.009
			l-0.002-0.42l1.583-0.009l-0.01-1.646L221.825,128.742z"/>
	</g>
</g>
<g>
	<path d="M165.169,124.81h1.056v5.409c0,2.147-1.056,2.807-2.446,2.807c-0.396,0-0.864-0.084-1.116-0.191l0.145-0.852
		c0.216,0.084,0.527,0.155,0.888,0.155c0.935,0,1.475-0.42,1.475-2.003V124.81z"/>
	<path d="M168.425,131.223v5.667h-0.739v-5.667H168.425z"/>
	<path d="M169.702,131.29c0.354-0.059,0.815-0.109,1.404-0.109c0.723,0,1.253,0.168,1.589,0.471c0.302,0.27,0.496,0.682,0.496,1.186
		c0,0.513-0.151,0.917-0.438,1.211c-0.395,0.412-1.017,0.622-1.731,0.622c-0.219,0-0.42-0.008-0.588-0.051v2.271h-0.731
		L169.702,131.29L169.702,131.29z M170.433,134.022c0.159,0.042,0.36,0.059,0.604,0.059c0.883,0,1.421-0.437,1.421-1.202
		c0-0.757-0.538-1.118-1.336-1.118c-0.319,0-0.562,0.025-0.688,0.061L170.433,134.022L170.433,134.022z"/>
	<path d="M174.17,131.299c0.37-0.067,0.908-0.118,1.404-0.118c0.782,0,1.295,0.151,1.64,0.463c0.277,0.252,0.445,0.639,0.445,1.084
		c0,0.74-0.471,1.236-1.059,1.438v0.024c0.429,0.151,0.688,0.556,0.823,1.144c0.186,0.791,0.32,1.337,0.438,1.556h-0.757
		c-0.092-0.168-0.219-0.647-0.37-1.354c-0.168-0.782-0.479-1.076-1.144-1.102h-0.688v2.455h-0.731v-5.59H174.17z M174.902,133.88
		h0.748c0.782,0,1.278-0.429,1.278-1.076c0-0.731-0.529-1.051-1.304-1.051c-0.353,0-0.597,0.024-0.723,0.059V133.88z"/>
</g>
<g>
	<path d="M66.5,328.285v8.084h-1.056v-8.084H66.5z"/>
	<path d="M72.002,340.188c-0.26,0.136-0.807,0.271-1.497,0.271c-1.597,0-2.791-1.009-2.791-2.876c0-1.782,1.202-2.977,2.959-2.977
		c0.698,0,1.152,0.151,1.346,0.252l-0.186,0.598c-0.269-0.135-0.664-0.235-1.135-0.235c-1.329,0-2.211,0.851-2.211,2.337
		c0,1.396,0.799,2.279,2.169,2.279c0.454,0,0.908-0.093,1.203-0.234L72.002,340.188z"/>
	<path d="M75.698,339.391c0,0.354,0.017,0.697,0.059,0.976h-0.664l-0.059-0.513h-0.025c-0.227,0.318-0.663,0.604-1.243,0.604
		c-0.824,0-1.244-0.58-1.244-1.169c0-0.982,0.874-1.521,2.445-1.514v-0.084c0-0.328-0.092-0.941-0.925-0.934
		c-0.387,0-0.782,0.109-1.067,0.303l-0.168-0.496c0.336-0.211,0.833-0.354,1.345-0.354c1.244,0,1.547,0.85,1.547,1.656V339.391
		L75.698,339.391z M74.983,338.288c-0.808-0.017-1.725,0.127-1.725,0.917c0,0.486,0.319,0.706,0.689,0.706
		c0.538,0,0.883-0.336,1-0.681c0.025-0.084,0.034-0.168,0.034-0.235L74.983,338.288L74.983,338.288z"/>
</g>
<g id="I_Ca">
	<g>
		<g>
			<line fill="none" stroke="#000000" x1="69.825" y1="250.311" x2="69.825" y2="311.627"/>
			<polygon points="73.528,253.119 69.825,251.547 66.121,253.119 69.825,244.342 			"/>
		</g>
	</g>
	<g>
		<g>
			
				<radialGradient id="SVGID_3_" cx="456.6277" cy="1037.0547" r="18.2194" gradientTransform="matrix(-1 0 0 1 526.4531 -756.0859)" gradientUnits="userSpaceOnUse">
				<stop  offset="0" style="stop-color:#FFFCDF"/>
				<stop  offset="0.1203" style="stop-color:#FFFBDA"/>
				<stop  offset="0.2662" style="stop-color:#FFF9CB"/>
				<stop  offset="0.4255" style="stop-color:#FFF6B2"/>
				<stop  offset="0.5943" style="stop-color:#FFF090"/>
				<stop  offset="0.7706" style="stop-color:#FFEA64"/>
				<stop  offset="0.9506" style="stop-color:#FFE22F"/>
				<stop  offset="1" style="stop-color:#FFE01F"/>
			</radialGradient>
			<path fill="url(#SVGID_3_)" d="M74.908,257.553c-2.226,0-4.158,1.957-5.083,4.777c-0.925-2.82-2.857-4.777-5.083-4.777
				c-3.116,0-5.668,3.826-5.668,8.504v29.824c0,4.678,2.552,8.504,5.668,8.504c2.226,0,4.157-1.957,5.083-4.777
				c0.925,2.82,2.856,4.777,5.083,4.777c3.117,0,5.668-3.826,5.668-8.504v-29.824C80.576,261.379,78.025,257.553,74.908,257.553z"/>
		</g>
		<g>
			<path id="I_Ca_path1" fill="none" stroke="#000000" d="M74.908,257.553c-2.226,0-4.158,1.957-5.083,4.777
				c-0.925-2.82-2.857-4.777-5.083-4.777c-3.116,0-5.668,3.826-5.668,8.504v29.824c0,4.678,2.552,8.504,5.668,8.504
				c2.226,0,4.157-1.957,5.083-4.777c0.925,2.82,2.856,4.777,5.083,4.777c3.117,0,5.668-3.826,5.668-8.504v-29.824
				C80.576,261.379,78.025,257.553,74.908,257.553z"/>
		</g>
	</g>
	<g>
		<path d="M65.365,277.294c-0.162-0.31-0.325-0.958-0.33-1.776c-0.01-1.898,1.182-3.326,3.401-3.338
			c2.118-0.012,3.546,1.411,3.557,3.5c0.004,0.829-0.173,1.37-0.292,1.601l-0.711-0.216c0.158-0.32,0.275-0.791,0.272-1.351
			c-0.009-1.579-1.023-2.624-2.792-2.614c-1.659,0.01-2.703,0.965-2.694,2.594c0.002,0.539,0.115,1.078,0.287,1.428L65.365,277.294z
			"/>
		<path d="M66.338,281.701c-0.42,0.002-0.829,0.023-1.158,0.076l-0.005-0.791l0.609-0.082v-0.029
			c-0.381-0.259-0.724-0.786-0.728-1.477c-0.006-0.979,0.683-1.482,1.382-1.486c1.169-0.006,1.813,1.029,1.813,2.898h0.102
			c0.398-0.002,1.128-0.115,1.112-1.104c-0.002-0.46-0.135-0.931-0.366-1.269l0.589-0.203c0.252,0.398,0.425,0.986,0.428,1.598
			c0.008,1.488-1,1.854-1.969,1.859L66.338,281.701z M67.643,280.835c0.015-0.96-0.161-2.049-1.102-2.043
			c-0.579,0.003-0.837,0.384-0.834,0.823c0.003,0.64,0.405,1.048,0.816,1.186c0.09,0.029,0.188,0.039,0.279,0.038L67.643,280.835z"
			/>
		<path d="M68.514,282.686l0.378-0.002l0.473,0.48c1.112,1.154,1.703,1.686,2.39,1.681c0.463-0.002,0.89-0.222,0.886-0.899
			c-0.002-0.413-0.215-0.754-0.391-0.965l0.434-0.197c0.261,0.307,0.467,0.761,0.47,1.285c0.005,0.974-0.666,1.39-1.317,1.394
			c-0.841,0.004-1.522-0.603-2.453-1.555l-0.338-0.355h-0.014l0.011,2.037l-0.512,0.003L68.514,282.686z"/>
		<path d="M72.27,288.252l-1.646,0.009l0.008,1.583l-0.42,0.002l-0.008-1.582l-1.66,0.008l-0.002-0.447l1.66-0.01l-0.009-1.582
			l0.42-0.002l0.009,1.582l1.646-0.008L72.27,288.252z"/>
	</g>
</g>
<g id="I_NSCC_Ca">
	<g>
		<g>
			<g>
				<line fill="none" stroke="#000000" x1="285.871" y1="248.186" x2="285.871" y2="313.752"/>
				<polygon points="289.574,250.994 285.871,249.422 282.167,250.994 285.871,242.217 				"/>
			</g>
		</g>
		<g>
			<g>
				
					<radialGradient id="SVGID_4_" cx="240.5823" cy="1037.0547" r="19.483" gradientTransform="matrix(-1 0 0 1 526.4531 -756.0859)" gradientUnits="userSpaceOnUse">
					<stop  offset="0" style="stop-color:#FFFCDF"/>
					<stop  offset="0.1203" style="stop-color:#FFFBDA"/>
					<stop  offset="0.2662" style="stop-color:#FFF9CB"/>
					<stop  offset="0.4255" style="stop-color:#FFF6B2"/>
					<stop  offset="0.5943" style="stop-color:#FFF090"/>
					<stop  offset="0.7706" style="stop-color:#FFEA64"/>
					<stop  offset="0.9506" style="stop-color:#FFE22F"/>
					<stop  offset="1" style="stop-color:#FFE01F"/>
				</radialGradient>
				<path fill="url(#SVGID_4_)" d="M291.307,255.93c-2.382,0-4.446,2.094-5.437,5.109c-0.989-3.016-3.055-5.109-5.435-5.109
					c-3.333,0-6.062,4.092-6.062,9.094v31.892c0,5.002,2.729,9.094,6.062,9.094c2.38,0,4.444-2.094,5.435-5.108
					c0.989,3.016,3.055,5.108,5.437,5.108c3.333,0,6.06-4.092,6.06-9.094v-31.892C297.366,260.021,294.64,255.93,291.307,255.93z"/>
			</g>
			<g>
				<path id="I_NSCC_Ca_path1" fill="none" stroke="#000000" d="M291.307,255.93c-2.382,0-4.446,2.094-5.437,5.109
					c-0.989-3.016-3.055-5.109-5.435-5.109c-3.333,0-6.062,4.092-6.062,9.094v31.892c0,5.002,2.729,9.094,6.062,9.094
					c2.38,0,4.444-2.094,5.435-5.108c0.989,3.016,3.055,5.108,5.437,5.108c3.333,0,6.06-4.092,6.06-9.094v-31.892
					C297.366,260.021,294.64,255.93,291.307,255.93z"/>
			</g>
		</g>
	</g>
	<g>
		<path d="M281.41,268.034c-0.162-0.31-0.325-0.958-0.33-1.777c-0.01-1.897,1.185-3.325,3.402-3.337
			c2.117-0.012,3.545,1.411,3.557,3.5c0.004,0.829-0.174,1.37-0.291,1.6l-0.712-0.216c0.159-0.319,0.275-0.79,0.272-1.35
			c-0.01-1.579-1.023-2.624-2.793-2.614c-1.658,0.01-2.703,0.964-2.693,2.594c0.002,0.539,0.115,1.078,0.287,1.428L281.41,268.034z"
			/>
		<path d="M282.383,272.441c-0.42,0.002-0.827,0.022-1.157,0.076l-0.004-0.791l0.607-0.082v-0.029
			c-0.382-0.26-0.724-0.786-0.728-1.477c-0.006-0.979,0.682-1.482,1.381-1.486c1.17-0.006,1.813,1.029,1.813,2.897h0.103
			c0.397-0.002,1.128-0.114,1.113-1.104c-0.004-0.459-0.136-0.93-0.367-1.268l0.588-0.203c0.253,0.398,0.426,0.986,0.43,1.598
			c0.008,1.488-1,1.854-1.969,1.859L282.383,272.441z M283.688,271.575c0.015-0.96-0.161-2.05-1.102-2.043
			c-0.58,0.003-0.838,0.384-0.835,0.823c0.003,0.64,0.405,1.047,0.815,1.186c0.09,0.029,0.189,0.039,0.28,0.038L283.688,271.575z"/>
		<path d="M284.56,273.426l0.378-0.002l0.473,0.48c1.112,1.156,1.703,1.686,2.39,1.682c0.464-0.002,0.889-0.222,0.886-0.9
			c-0.003-0.414-0.214-0.754-0.391-0.966l0.433-0.196c0.262,0.307,0.468,0.761,0.471,1.285c0.005,0.975-0.666,1.391-1.316,1.395
			c-0.842,0.004-1.522-0.602-2.452-1.557l-0.339-0.354h-0.014l0.011,2.038l-0.512,0.003L284.56,273.426z"/>
		<path d="M288.314,278.993l-1.646,0.009l0.008,1.583l-0.42,0.002l-0.008-1.583l-1.66,0.01l-0.003-0.449l1.66-0.008l-0.009-1.584
			l0.42-0.002l0.009,1.584l1.646-0.01L288.314,278.993z"/>
		<path d="M281.289,284.617l6.736-0.036l0.006,0.959l-3.397,2.168c-0.785,0.493-1.483,0.897-2.182,1.211l0.01,0.03
			c0.899-0.085,1.719-0.11,2.76-0.115l2.827-0.016l0.005,0.818l-6.736,0.036l-0.005-0.879l3.407-2.157
			c0.746-0.474,1.514-0.928,2.241-1.262l-0.01-0.029c-0.85,0.055-1.66,0.068-2.779,0.074l-2.879,0.016L281.289,284.617z"/>
		<path d="M282.502,294.55c-0.42,0.002-0.83,0.023-1.159,0.076l-0.005-0.79l0.609-0.083v-0.028c-0.381-0.26-0.724-0.787-0.728-1.477
			c-0.006-0.979,0.683-1.482,1.382-1.487c1.169-0.006,1.813,1.03,1.813,2.898h0.102c0.398-0.002,1.128-0.115,1.112-1.104
			c-0.003-0.46-0.136-0.93-0.366-1.268l0.589-0.204c0.252,0.399,0.425,0.987,0.428,1.598c0.008,1.489-1,1.854-1.969,1.859
			L282.502,294.55z M283.807,293.684c0.014-0.959-0.162-2.049-1.103-2.043c-0.578,0.004-0.836,0.385-0.834,0.823
			c0.004,0.64,0.405,1.048,0.816,1.187c0.09,0.028,0.188,0.039,0.278,0.037L283.807,293.684z"/>
		<path d="M288.414,297.512l-1.646,0.01l0.009,1.582l-0.42,0.002l-0.009-1.582l-1.66,0.009l-0.003-0.448l1.66-0.009l-0.009-1.583
			l0.42-0.002l0.009,1.583l1.646-0.009L288.414,297.512z"/>
	</g>
</g>
<g>
	<path d="M275.127,328.285v8.084h-1.056v-8.084H275.127z"/>
	<path d="M276.68,340.365v-5.667h0.807l1.808,2.866c0.411,0.664,0.748,1.262,1.01,1.843l0.024-0.009
		c-0.066-0.758-0.084-1.446-0.084-2.33v-2.37h0.689v5.667h-0.74l-1.799-2.875c-0.396-0.631-0.773-1.278-1.052-1.893l-0.024,0.008
		c0.041,0.715,0.051,1.396,0.051,2.338v2.422H276.68z"/>
	<path d="M282.113,339.475c0.328,0.211,0.799,0.369,1.304,0.369c0.749,0,1.187-0.395,1.187-0.967c0-0.521-0.304-0.832-1.067-1.118
		c-0.926-0.336-1.497-0.823-1.497-1.614c0-0.883,0.731-1.537,1.833-1.537c0.572,0,1,0.134,1.244,0.276l-0.201,0.597
		c-0.178-0.108-0.555-0.27-1.067-0.27c-0.773,0-1.067,0.463-1.067,0.85c0,0.529,0.345,0.791,1.126,1.094
		c0.959,0.369,1.438,0.832,1.438,1.664c0,0.875-0.64,1.641-1.976,1.641c-0.547,0-1.145-0.168-1.447-0.37L282.113,339.475z"/>
	<path d="M290.299,340.188c-0.26,0.136-0.807,0.271-1.495,0.271c-1.599,0-2.791-1.009-2.791-2.876c0-1.782,1.2-2.977,2.959-2.977
		c0.696,0,1.151,0.151,1.346,0.252l-0.187,0.598c-0.27-0.135-0.664-0.235-1.135-0.235c-1.328,0-2.211,0.851-2.211,2.337
		c0,1.396,0.799,2.279,2.168,2.279c0.455,0,0.908-0.093,1.203-0.234L290.299,340.188z"/>
	<path d="M294.994,340.188c-0.26,0.136-0.807,0.271-1.496,0.271c-1.598,0-2.791-1.009-2.791-2.876c0-1.782,1.202-2.977,2.959-2.977
		c0.698,0,1.152,0.151,1.347,0.252l-0.187,0.598c-0.269-0.135-0.664-0.235-1.135-0.235c-1.328,0-2.211,0.851-2.211,2.337
		c0,1.396,0.799,2.279,2.169,2.279c0.454,0,0.908-0.093,1.202-0.234L294.994,340.188z"/>
</g>
<g>
	<path d="M386.092,328.285v8.084h-1.055v-8.084H386.092z"/>
	<path d="M387.644,334.766c0.354-0.059,0.814-0.108,1.403-0.108c0.725,0,1.253,0.168,1.589,0.471
		c0.304,0.271,0.496,0.683,0.496,1.187c0,0.513-0.15,0.916-0.438,1.211c-0.396,0.412-1.018,0.621-1.731,0.621
		c-0.219,0-0.421-0.008-0.589-0.051v2.271h-0.73V334.766L387.644,334.766z M388.375,337.498c0.16,0.042,0.361,0.059,0.605,0.059
		c0.883,0,1.421-0.437,1.421-1.201c0-0.758-0.538-1.119-1.337-1.119c-0.319,0-0.562,0.025-0.689,0.061V337.498z"/>
	<path d="M396.787,337.877c-0.041-0.791-0.092-1.749-0.092-2.447h-0.019c-0.201,0.656-0.428,1.371-0.715,2.152l-1,2.75h-0.555
		l-0.925-2.699c-0.27-0.808-0.487-1.529-0.647-2.203h-0.017c-0.018,0.707-0.061,1.648-0.109,2.506l-0.151,2.431h-0.696l0.395-5.667
		h0.935l0.967,2.74c0.234,0.699,0.42,1.32,0.57,1.908h0.018c0.152-0.57,0.354-1.192,0.604-1.908l1.011-2.74h0.933l0.354,5.667
		h-0.724L396.787,337.877z"/>
</g>
<g>
	<path d="M491.537,328.285v8.084h-1.055v-8.084H491.537z"/>
	<path d="M493.09,340.365v-5.667h0.808l1.809,2.866c0.411,0.664,0.748,1.262,1.008,1.843l0.025-0.009
		c-0.066-0.758-0.084-1.446-0.084-2.33v-2.37h0.688v5.667h-0.74l-1.799-2.875c-0.395-0.631-0.772-1.278-1.051-1.893l-0.025,0.008
		c0.042,0.715,0.052,1.396,0.052,2.338v2.422H493.09z"/>
	<path d="M501.449,339.391c0,0.354,0.018,0.697,0.06,0.976h-0.664l-0.06-0.513h-0.025c-0.227,0.318-0.664,0.604-1.244,0.604
		c-0.822,0-1.243-0.58-1.243-1.169c0-0.982,0.875-1.521,2.446-1.514v-0.084c0-0.328-0.093-0.941-0.926-0.934
		c-0.387,0-0.781,0.109-1.067,0.303l-0.168-0.496c0.338-0.211,0.833-0.354,1.346-0.354c1.244,0,1.547,0.85,1.547,1.656
		L501.449,339.391L501.449,339.391z M500.735,338.288c-0.809-0.017-1.725,0.127-1.725,0.917c0,0.486,0.319,0.706,0.689,0.706
		c0.538,0,0.883-0.336,1-0.681c0.024-0.084,0.034-0.168,0.034-0.235L500.735,338.288L500.735,338.288z"/>
	<path d="M502.666,334.766c0.353-0.059,0.814-0.108,1.403-0.108c0.724,0,1.253,0.168,1.589,0.471
		c0.303,0.271,0.496,0.683,0.496,1.187c0,0.513-0.151,0.916-0.438,1.211c-0.395,0.412-1.017,0.621-1.73,0.621
		c-0.22,0-0.421-0.008-0.589-0.051v2.271h-0.73V334.766L502.666,334.766z M503.396,337.498c0.159,0.042,0.36,0.059,0.604,0.059
		c0.883,0,1.421-0.437,1.421-1.201c0-0.758-0.538-1.119-1.337-1.119c-0.319,0-0.562,0.025-0.688,0.061V337.498z"/>
</g>
<g>
	<path d="M285.218,211.75h1.057v5.41c0,2.146-1.057,2.806-2.447,2.806c-0.396,0-0.863-0.084-1.115-0.192l0.146-0.852
		c0.215,0.084,0.526,0.156,0.887,0.156c0.937,0,1.477-0.42,1.477-2.002v-5.326H285.218z"/>
	<path d="M287.649,222.939c0.328,0.209,0.799,0.369,1.304,0.369c0.748,0,1.187-0.396,1.187-0.968c0-0.521-0.304-0.832-1.068-1.118
		c-0.925-0.337-1.496-0.822-1.496-1.613c0-0.883,0.73-1.539,1.832-1.539c0.572,0,1.001,0.135,1.244,0.277l-0.201,0.598
		c-0.177-0.109-0.555-0.271-1.068-0.271c-0.772,0-1.065,0.464-1.065,0.851c0,0.529,0.344,0.791,1.126,1.093
		c0.958,0.37,1.438,0.833,1.438,1.665c0,0.874-0.639,1.639-1.976,1.639c-0.547,0-1.145-0.168-1.446-0.369L287.649,222.939z"/>
	<path d="M293.229,219.055h-0.019l-0.948,0.514l-0.144-0.563l1.193-0.639h0.631v5.465h-0.715L293.229,219.055L293.229,219.055z"/>
	<path d="M296.1,222.939c0.328,0.209,0.799,0.369,1.303,0.369c0.749,0,1.186-0.396,1.186-0.968c0-0.521-0.303-0.832-1.066-1.118
		c-0.925-0.337-1.497-0.822-1.497-1.613c0-0.883,0.731-1.539,1.834-1.539c0.57,0,1,0.135,1.244,0.277l-0.202,0.598
		c-0.178-0.109-0.556-0.271-1.067-0.271c-0.772,0-1.067,0.464-1.067,0.851c0,0.529,0.345,0.791,1.127,1.093
		c0.959,0.37,1.438,0.833,1.438,1.665c0,0.874-0.639,1.639-1.976,1.639c-0.546,0-1.145-0.168-1.446-0.369L296.1,222.939z"/>
	<path d="M300.072,223.83v-0.454l0.58-0.563c1.396-1.328,2.034-2.033,2.034-2.857c0-0.555-0.261-1.066-1.075-1.066
		c-0.496,0-0.908,0.252-1.16,0.461l-0.235-0.521c0.37-0.312,0.916-0.556,1.538-0.556c1.178,0,1.674,0.808,1.674,1.588
		c0,1.011-0.731,1.824-1.884,2.936l-0.429,0.403v0.018h2.447v0.613L300.072,223.83L300.072,223.83z"/>
</g>
<g>
	<path d="M337.471,128.629h1.057v5.408c0,2.146-1.057,2.807-2.447,2.807c-0.396,0-0.863-0.084-1.115-0.191l0.146-0.852
		c0.215,0.084,0.526,0.156,0.887,0.156c0.936,0,1.476-0.42,1.476-2.004v-5.324H337.471z"/>
	<path d="M344.771,138.219c-0.043-0.789-0.094-1.748-0.094-2.445h-0.017c-0.201,0.655-0.429,1.369-0.715,2.152l-1,2.748h-0.556
		l-0.926-2.698c-0.269-0.808-0.486-1.53-0.646-2.202h-0.019c-0.017,0.705-0.059,1.646-0.108,2.505l-0.15,2.43h-0.698l0.396-5.667
		h0.933l0.967,2.741c0.235,0.698,0.421,1.319,0.571,1.909h0.019c0.15-0.572,0.354-1.195,0.604-1.909l1.009-2.741h0.934l0.354,5.667
		h-0.723L344.771,138.219z"/>
	<path d="M350.701,140.531c-0.261,0.135-0.809,0.27-1.497,0.27c-1.597,0-2.791-1.01-2.791-2.875c0-1.783,1.202-2.977,2.96-2.977
		c0.697,0,1.151,0.15,1.345,0.252l-0.185,0.597c-0.271-0.134-0.664-0.235-1.135-0.235c-1.329,0-2.213,0.85-2.213,2.338
		c0,1.395,0.8,2.277,2.17,2.277c0.453,0,0.907-0.092,1.202-0.234L350.701,140.531z"/>
	<path d="M352.353,135.041v3.363c0,1.262,0.562,1.799,1.319,1.799c0.833,0,1.379-0.555,1.379-1.799v-3.363h0.739v3.312
		c0,1.74-0.916,2.447-2.144,2.447c-1.16,0-2.034-0.656-2.034-2.422v-3.338L352.353,135.041L352.353,135.041z"/>
</g>
<g>
	<path d="M498.736,207.916h1.056v5.41c0,2.146-1.056,2.806-2.446,2.806c-0.396,0-0.862-0.084-1.114-0.192l0.144-0.852
		c0.216,0.084,0.528,0.156,0.888,0.156c0.937,0,1.476-0.42,1.476-2.002v-5.326H498.736z"/>
	<path d="M501.261,219.996v-5.666h0.808l1.808,2.865c0.411,0.664,0.748,1.262,1.009,1.842l0.025-0.008
		c-0.067-0.758-0.084-1.446-0.084-2.329v-2.37h0.688v5.666h-0.739l-1.8-2.875c-0.396-0.631-0.772-1.278-1.051-1.893l-0.024,0.008
		c0.041,0.716,0.051,1.396,0.051,2.338v2.422H501.261L501.261,219.996z"/>
	<path d="M510.74,219.818c-0.262,0.136-0.809,0.27-1.497,0.27c-1.597,0-2.791-1.008-2.791-2.875c0-1.781,1.202-2.977,2.96-2.977
		c0.697,0,1.15,0.152,1.345,0.253l-0.185,0.597c-0.271-0.135-0.664-0.234-1.136-0.234c-1.328,0-2.212,0.849-2.212,2.336
		c0,1.396,0.8,2.279,2.169,2.279c0.454,0,0.908-0.093,1.203-0.236L510.74,219.818z"/>
	<path d="M514.762,219.996l-0.73-1.253c-0.294-0.479-0.472-0.79-0.647-1.118h-0.017c-0.16,0.328-0.328,0.631-0.613,1.127
		l-0.682,1.244h-0.841l1.731-2.867l-1.665-2.799h0.851l0.747,1.328c0.211,0.369,0.369,0.654,0.521,0.958h0.025
		c0.158-0.337,0.303-0.597,0.512-0.958l0.766-1.328h0.851l-1.725,2.757l1.766,2.909H514.762z"/>
</g>
<g id="JSERCA">
	
		<radialGradient id="JSERCA_path1_1_" cx="-561.8176" cy="951" r="17.835" gradientTransform="matrix(0 -1 -1 0 1080.2581 -381.4709)" gradientUnits="userSpaceOnUse">
		<stop  offset="0" style="stop-color:#FFFCDF"/>
		<stop  offset="0.1203" style="stop-color:#FFFBDA"/>
		<stop  offset="0.2662" style="stop-color:#FFF9CB"/>
		<stop  offset="0.4255" style="stop-color:#FFF6B2"/>
		<stop  offset="0.5943" style="stop-color:#FFF090"/>
		<stop  offset="0.7706" style="stop-color:#FFEA64"/>
		<stop  offset="0.9506" style="stop-color:#FFE22F"/>
		<stop  offset="1" style="stop-color:#FFE01F"/>
	</radialGradient>
	<path id="JSERCA_path1" fill="url(#JSERCA_path1_1_)" stroke="#000000" d="M129.259,162.512c9.851,0,17.834,7.988,17.834,17.836
		c0,9.853-7.983,17.834-17.834,17.834c-9.852,0-17.836-7.981-17.836-17.834C111.425,170.5,119.407,162.512,129.259,162.512z"/>
	<g>
		<path id="path965_1_" fill="none" stroke="#000000" d="M111.423,159.553v41.59"/>
		<polygon points="115.128,162.361 111.423,160.789 107.72,162.361 111.423,153.584 		"/>
	</g>
</g>
<g>
	<path d="M109.101,149.423c-0.31,0.161-0.958,0.325-1.777,0.329c-1.898,0.011-3.325-1.182-3.337-3.4
		c-0.012-2.118,1.411-3.546,3.5-3.557c0.829-0.005,1.37,0.173,1.6,0.291l-0.216,0.711c-0.32-0.158-0.79-0.275-1.35-0.271
		c-1.579,0.008-2.624,1.022-2.614,2.792c0.009,1.659,0.964,2.702,2.593,2.694c0.54-0.003,1.079-0.115,1.429-0.287L109.101,149.423z"
		/>
	<path d="M113.508,148.45c0.002,0.42,0.023,0.829,0.076,1.159l-0.79,0.004l-0.083-0.609h-0.028c-0.26,0.381-0.786,0.725-1.477,0.729
		c-0.979,0.005-1.482-0.684-1.486-1.383c-0.007-1.168,1.029-1.813,2.897-1.814v-0.1c-0.002-0.4-0.115-1.129-1.104-1.113
		c-0.46,0.002-0.931,0.135-1.269,0.367l-0.204-0.59c0.399-0.252,0.987-0.425,1.599-0.428c1.488-0.008,1.854,1,1.858,1.969
		L113.508,148.45z M112.642,147.145c-0.96-0.014-2.05,0.162-2.043,1.102c0.003,0.578,0.384,0.836,0.822,0.834
		c0.641-0.004,1.049-0.404,1.187-0.816c0.029-0.09,0.039-0.189,0.038-0.279L112.642,147.145z"/>
	<path d="M114.493,146.273l-0.002-0.377l0.48-0.473c1.154-1.113,1.685-1.703,1.681-2.391c-0.002-0.463-0.222-0.889-0.9-0.885
		c-0.413,0.002-0.754,0.215-0.965,0.391l-0.197-0.434c0.308-0.261,0.762-0.467,1.286-0.469c0.974-0.006,1.39,0.665,1.394,1.316
		c0.004,0.841-0.603,1.523-1.556,2.453l-0.354,0.338v0.014l2.037-0.012l0.003,0.512L114.493,146.273z"/>
	<path d="M120.059,142.518l0.009,1.646l1.583-0.009l0.002,0.42l-1.583,0.009l0.009,1.66l-0.448,0.002l-0.009-1.66l-1.583,0.009
		l-0.002-0.42l1.583-0.009l-0.009-1.646L120.059,142.518z"/>
</g>
<g id="JMCU">
	
		<radialGradient id="JMCU_path1_1_" cx="-188.5691" cy="383.249" r="17.835" gradientTransform="matrix(1 0 0 -1 569.9907 520.9648)" gradientUnits="userSpaceOnUse">
		<stop  offset="0" style="stop-color:#FFFCDF"/>
		<stop  offset="0.1203" style="stop-color:#FFFBDA"/>
		<stop  offset="0.2662" style="stop-color:#FFF9CB"/>
		<stop  offset="0.4255" style="stop-color:#FFF6B2"/>
		<stop  offset="0.5943" style="stop-color:#FFF090"/>
		<stop  offset="0.7706" style="stop-color:#FFEA64"/>
		<stop  offset="0.9506" style="stop-color:#FFE22F"/>
		<stop  offset="1" style="stop-color:#FFE01F"/>
	</radialGradient>
	<path id="JMCU_path1" fill="url(#JMCU_path1_1_)" stroke="#000000" d="M399.257,137.717c0,9.85-7.987,17.834-17.835,17.834
		c-9.853,0-17.835-7.984-17.835-17.834c0-9.852,7.982-17.836,17.835-17.836C391.269,119.883,399.257,127.865,399.257,137.717z"/>
	<g>
		<path id="path965_5_" fill="none" stroke="#000000" d="M402.216,119.881h-41.59"/>
		<polygon points="399.407,123.586 400.98,119.881 399.407,116.178 408.185,119.881 		"/>
	</g>
</g>
<g>
	<path d="M415.601,122.423c-0.309,0.161-0.959,0.325-1.776,0.329c-1.898,0.011-3.326-1.182-3.338-3.4
		c-0.013-2.118,1.412-3.546,3.5-3.557c0.83-0.005,1.371,0.173,1.6,0.291l-0.215,0.711c-0.32-0.158-0.791-0.275-1.351-0.271
		c-1.579,0.008-2.625,1.022-2.614,2.792c0.01,1.659,0.965,2.702,2.594,2.694c0.539-0.003,1.078-0.115,1.428-0.287L415.601,122.423z"
		/>
	<path d="M420.008,121.45c0.002,0.42,0.023,0.829,0.076,1.159l-0.789,0.004l-0.084-0.609h-0.029
		c-0.258,0.381-0.785,0.725-1.475,0.729c-0.98,0.005-1.484-0.684-1.488-1.383c-0.006-1.168,1.031-1.813,2.898-1.814v-0.1
		c-0.002-0.4-0.115-1.129-1.104-1.113c-0.461,0.002-0.93,0.135-1.268,0.367l-0.205-0.59c0.4-0.252,0.988-0.425,1.598-0.428
		c1.49-0.008,1.855,1,1.859,1.969L420.008,121.45z M419.142,120.145c-0.961-0.014-2.049,0.162-2.043,1.102
		c0.002,0.578,0.384,0.836,0.822,0.834c0.641-0.004,1.049-0.404,1.187-0.816c0.028-0.09,0.039-0.189,0.039-0.279L419.142,120.145z"
		/>
	<path d="M420.992,119.273l-0.002-0.377l0.479-0.473c1.156-1.113,1.687-1.703,1.683-2.391c-0.002-0.463-0.224-0.889-0.9-0.885
		c-0.414,0.002-0.754,0.215-0.965,0.391l-0.197-0.434c0.308-0.261,0.76-0.467,1.285-0.469c0.973-0.006,1.389,0.665,1.393,1.316
		c0.005,0.841-0.602,1.523-1.555,2.453l-0.354,0.338v0.014l2.036-0.012l0.005,0.512L420.992,119.273z"/>
	<path d="M426.558,115.518l0.011,1.646l1.582-0.009l0.002,0.42l-1.582,0.009l0.008,1.66l-0.447,0.002l-0.01-1.66l-1.582,0.009
		l-0.002-0.42l1.582-0.009l-0.008-1.646L426.558,115.518z"/>
</g>
<g id="JNCX">
	<g>
		<g>
			
				<radialGradient id="JCNX_path1_1_" cx="-292.969" cy="1664.2334" r="17.8354" gradientTransform="matrix(-0.4156 -0.9095 -0.9095 0.4156 1884.1748 -783.9631)" gradientUnits="userSpaceOnUse">
				<stop  offset="0" style="stop-color:#D3C6FF"/>
				<stop  offset="0.3949" style="stop-color:#BDD3FF"/>
				<stop  offset="0.5372" style="stop-color:#B6CFFF"/>
				<stop  offset="0.6386" style="stop-color:#ABC7FF"/>
				<stop  offset="0.7206" style="stop-color:#9ABDFF"/>
				<stop  offset="0.7909" style="stop-color:#84AFFF"/>
				<stop  offset="0.8531" style="stop-color:#689EFF"/>
				<stop  offset="0.9093" style="stop-color:#488AFF"/>
				<stop  offset="0.9593" style="stop-color:#2474FF"/>
				<stop  offset="1" style="stop-color:#005EFF"/>
			</radialGradient>
			<path id="JCNX_path1" fill="url(#JCNX_path1_1_)" stroke="#000000" d="M484.9,157.926c8.958-4.094,19.539-0.15,23.632,8.807
				c4.095,8.961,0.15,19.541-8.809,23.635c-8.958,4.094-19.54,0.149-23.635-8.81C471.997,172.6,475.94,162.02,484.9,157.926z"/>
			<g>
				<path id="path965_15_" fill="none" stroke="#000000" d="M467.448,162.645l17.285,37.826"/>
				<polygon points="471.985,163.66 467.962,163.77 465.247,166.738 464.967,157.217 				"/>
			</g>
		</g>
		<g>
			<path id="path965_14_" fill="none" stroke="#000000" d="M499.89,147.82l17.285,37.827"/>
			<polygon points="512.638,184.631 516.662,184.523 519.377,181.553 519.657,191.078 			"/>
		</g>
	</g>
	<g>
		<path d="M525.201,202.264c-0.31,0.159-0.959,0.319-1.779,0.319c-1.897,0-3.318-1.2-3.318-3.419c0-2.118,1.431-3.538,3.521-3.538
			c0.828,0,1.369,0.181,1.598,0.3l-0.219,0.71c-0.32-0.159-0.789-0.278-1.35-0.278c-1.578,0-2.629,1.009-2.629,2.777
			c0,1.659,0.948,2.708,2.577,2.708c0.541,0,1.08-0.108,1.431-0.278L525.201,202.264z"/>
		<path d="M529.613,201.312c0,0.42,0.02,0.83,0.069,1.16h-0.789l-0.079-0.609h-0.029c-0.262,0.38-0.791,0.72-1.48,0.72
			c-0.979,0-1.479-0.69-1.479-1.39c0-1.17,1.039-1.81,2.908-1.799v-0.102c0-0.398-0.109-1.129-1.101-1.119
			c-0.459,0-0.93,0.131-1.27,0.36l-0.199-0.591c0.4-0.25,0.988-0.42,1.6-0.42c1.488,0,1.849,1.011,1.849,1.979V201.312
			L529.613,201.312z M528.754,200.004c-0.959-0.02-2.049,0.15-2.049,1.09c0,0.579,0.381,0.84,0.82,0.84
			c0.639,0,1.049-0.399,1.188-0.811c0.029-0.09,0.039-0.189,0.039-0.279L528.754,200.004L528.754,200.004z"/>
		<path d="M530.609,199.143v-0.377l0.483-0.471c1.162-1.105,1.693-1.693,1.693-2.381c0-0.463-0.217-0.891-0.896-0.891
			c-0.411,0-0.756,0.211-0.967,0.386l-0.194-0.435c0.309-0.26,0.764-0.463,1.288-0.463c0.974,0,1.388,0.674,1.388,1.324
			c0,0.841-0.609,1.52-1.568,2.444l-0.356,0.336v0.014h2.036v0.513H530.609L530.609,199.143z"/>
		<path d="M536.197,195.417v1.646h1.582v0.42h-1.582v1.66h-0.449v-1.66h-1.582v-0.42h1.582v-1.646H536.197z"/>
	</g>
	<g>
		<path d="M453.383,150.121c0.25,0.149,0.82,0.399,1.439,0.399c1.119,0,1.479-0.71,1.47-1.26c-0.011-0.909-0.83-1.299-1.68-1.299
			h-0.489v-0.66h0.489c0.64,0,1.448-0.329,1.448-1.099c0-0.521-0.328-0.979-1.139-0.979c-0.521,0-1.02,0.229-1.3,0.43l-0.24-0.64
			c0.352-0.25,1.01-0.5,1.71-0.5c1.279,0,1.858,0.76,1.858,1.549c0,0.68-0.409,1.25-1.199,1.54v0.02
			c0.8,0.149,1.449,0.75,1.449,1.659c0,1.039-0.819,1.949-2.369,1.949c-0.729,0-1.369-0.23-1.688-0.44L453.383,150.121z"/>
		<path d="M458.613,151.12v-6.736h0.959l2.148,3.408c0.489,0.789,0.891,1.489,1.199,2.188l0.03-0.01
			c-0.08-0.899-0.102-1.719-0.102-2.759v-2.828h0.819v6.736h-0.879l-2.139-3.418c-0.471-0.75-0.92-1.52-1.25-2.249l-0.029,0.01
			c0.05,0.85,0.06,1.659,0.06,2.778v2.879L458.613,151.12L458.613,151.12z"/>
		<path d="M468.552,149.961c0,0.42,0.021,0.829,0.07,1.159h-0.79l-0.08-0.609h-0.029c-0.261,0.38-0.79,0.72-1.479,0.72
			c-0.979,0-1.479-0.69-1.479-1.39c0-1.169,1.04-1.809,2.908-1.799v-0.101c0-0.399-0.108-1.129-1.099-1.119
			c-0.46,0-0.931,0.13-1.271,0.36l-0.2-0.59c0.4-0.25,0.989-0.42,1.601-0.42c1.489,0,1.849,1.01,1.849,1.979L468.552,149.961
			L468.552,149.961z M467.692,148.651c-0.96-0.02-2.05,0.15-2.05,1.09c0,0.579,0.381,0.839,0.819,0.839
			c0.64,0,1.05-0.399,1.189-0.81c0.029-0.09,0.04-0.189,0.04-0.279L467.692,148.651L467.692,148.651z"/>
		<path d="M471.545,144.064v1.646h1.583v0.42h-1.583v1.66h-0.448v-1.66h-1.583v-0.42h1.583v-1.646H471.545z"/>
	</g>
</g>
<g id="I_PM">
	<g>
		
			<radialGradient id="I_PM_path1_1_" cx="171.6819" cy="835.2969" r="17.835" gradientTransform="matrix(0 1 1 0 -446.1111 110.6975)" gradientUnits="userSpaceOnUse">
			<stop  offset="0" style="stop-color:#FFFCDF"/>
			<stop  offset="0.1203" style="stop-color:#FFFBDA"/>
			<stop  offset="0.2662" style="stop-color:#FFF9CB"/>
			<stop  offset="0.4255" style="stop-color:#FFF6B2"/>
			<stop  offset="0.5943" style="stop-color:#FFF090"/>
			<stop  offset="0.7706" style="stop-color:#FFEA64"/>
			<stop  offset="0.9506" style="stop-color:#FFE22F"/>
			<stop  offset="1" style="stop-color:#FFE01F"/>
		</radialGradient>
		<path id="I_PM_path1" fill="url(#I_PM_path1_1_)" stroke="#000000" d="M389.185,300.215c-9.85,0-17.834-7.988-17.834-17.836
			c0-9.852,7.984-17.834,17.834-17.834c9.853,0,17.836,7.982,17.836,17.834C407.019,292.227,399.037,300.215,389.185,300.215z"/>
		<g>
			<path id="path965_3_" fill="none" stroke="#000000" d="M407.021,303.174v-41.59"/>
			<polygon points="403.316,300.365 407.021,301.938 410.724,300.365 407.021,309.143 			"/>
		</g>
	</g>
	<g>
		<path d="M403.566,321.923c-0.31,0.161-0.957,0.325-1.777,0.329c-1.898,0.012-3.324-1.182-3.336-3.4
			c-0.012-2.117,1.41-3.545,3.5-3.557c0.828-0.005,1.369,0.173,1.6,0.291l-0.217,0.711c-0.32-0.158-0.789-0.275-1.35-0.271
			c-1.578,0.009-2.623,1.022-2.613,2.793c0.008,1.658,0.963,2.701,2.592,2.693c0.541-0.003,1.08-0.115,1.428-0.287L403.566,321.923z
			"/>
		<path d="M407.974,320.95c0.002,0.42,0.023,0.829,0.076,1.159l-0.791,0.004l-0.082-0.609h-0.028
			c-0.261,0.381-0.787,0.725-1.478,0.729c-0.979,0.006-1.481-0.684-1.486-1.383c-0.006-1.168,1.029-1.812,2.898-1.813v-0.101
			c-0.002-0.399-0.115-1.129-1.104-1.112c-0.46,0.002-0.931,0.135-1.269,0.366l-0.203-0.59c0.398-0.252,0.986-0.425,1.599-0.428
			c1.487-0.008,1.854,1,1.858,1.969L407.974,320.95z M407.107,319.645c-0.959-0.014-2.05,0.162-2.043,1.103
			c0.004,0.578,0.385,0.836,0.823,0.834c0.64-0.004,1.047-0.404,1.187-0.815c0.028-0.091,0.039-0.189,0.037-0.279L407.107,319.645z"
			/>
		<path d="M408.959,318.773l-0.002-0.377l0.48-0.474c1.153-1.112,1.684-1.703,1.68-2.391c-0.002-0.464-0.221-0.89-0.9-0.886
			c-0.412,0.002-0.754,0.215-0.965,0.392l-0.197-0.435c0.308-0.261,0.763-0.467,1.287-0.469c0.974-0.006,1.39,0.665,1.394,1.316
			c0.004,0.841-0.603,1.523-1.556,2.453l-0.354,0.338v0.014l2.037-0.012l0.002,0.512L408.959,318.773z"/>
		<path d="M414.525,315.018l0.008,1.646l1.584-0.009l0.002,0.42l-1.584,0.009l0.01,1.66l-0.449,0.002l-0.008-1.66l-1.584,0.01
			l-0.002-0.421l1.584-0.009l-0.01-1.646L414.525,315.018z"/>
	</g>
</g>
<g>
	<g>
		
			<radialGradient id="path21243_1_" cx="171.1819" cy="944.1494" r="17.835" gradientTransform="matrix(0 1 1 0 -446.1111 110.6975)" gradientUnits="userSpaceOnUse">
			<stop  offset="0" style="stop-color:#FFFCDF"/>
			<stop  offset="0.1203" style="stop-color:#FFFBDA"/>
			<stop  offset="0.2662" style="stop-color:#FFF9CB"/>
			<stop  offset="0.4255" style="stop-color:#FFF6B2"/>
			<stop  offset="0.5943" style="stop-color:#FFF090"/>
			<stop  offset="0.7706" style="stop-color:#FFEA64"/>
			<stop  offset="0.9506" style="stop-color:#FFE22F"/>
			<stop  offset="1" style="stop-color:#FFE01F"/>
		</radialGradient>
		<path id="path21243_2_" fill="url(#path21243_1_)" stroke="#000000" d="M498.038,299.715c-9.851,0-17.834-7.988-17.834-17.836
			c0-9.852,7.983-17.834,17.834-17.834c9.852,0,17.836,7.982,17.836,17.834C515.872,291.727,507.889,299.715,498.038,299.715z"/>
		<g>
			<path id="path965_2_" fill="none" stroke="#000000" d="M515.874,302.674v-41.59"/>
			<polygon points="512.169,299.865 515.874,301.438 519.577,299.865 515.874,308.643 			"/>
		</g>
	</g>
	<g>
		<path d="M508.824,321.605l-0.037-6.735l0.959-0.005l2.168,3.396c0.494,0.787,0.898,1.484,1.211,2.183l0.031-0.01
			c-0.086-0.898-0.111-1.719-0.115-2.759l-0.016-2.827l0.817-0.005l0.037,6.736l-0.879,0.004l-2.158-3.406
			c-0.473-0.748-0.928-1.515-1.262-2.241l-0.029,0.01c0.056,0.85,0.068,1.658,0.074,2.777l0.016,2.879L508.824,321.605z"/>
		<path d="M518.756,320.395c0.002,0.42,0.023,0.828,0.076,1.158l-0.789,0.004l-0.084-0.607h-0.029
			c-0.258,0.382-0.785,0.724-1.475,0.728c-0.98,0.007-1.484-0.682-1.488-1.381c-0.006-1.17,1.031-1.813,2.898-1.813v-0.103
			c-0.002-0.397-0.115-1.128-1.104-1.112c-0.461,0.002-0.93,0.135-1.268,0.366l-0.205-0.588c0.4-0.252,0.988-0.426,1.598-0.429
			c1.49-0.01,1.855,0.999,1.859,1.968L518.756,320.395z M517.89,319.09c-0.961-0.016-2.049,0.16-2.043,1.1
			c0.002,0.58,0.383,0.838,0.822,0.836c0.641-0.004,1.049-0.405,1.186-0.815c0.029-0.09,0.039-0.188,0.039-0.278L517.89,319.09z"/>
		<path d="M521.717,314.482l0.01,1.645l1.582-0.008l0.002,0.42l-1.582,0.008l0.009,1.66l-0.447,0.002l-0.01-1.66l-1.582,0.01
			l-0.002-0.42l1.582-0.01l-0.009-1.645L521.717,314.482z"/>
	</g>
</g>
<g>
	<path d="M173.05,326.762v8.084h-1.056v-8.084H173.05L173.05,326.762z"/>
	<path d="M174.602,338.842v-5.667h0.807l1.808,2.867c0.412,0.664,0.748,1.261,1.01,1.842l0.024-0.009
		c-0.066-0.757-0.084-1.445-0.084-2.329v-2.371h0.689v5.667h-0.74l-1.799-2.875c-0.396-0.631-0.773-1.277-1.051-1.893l-0.025,0.009
		c0.042,0.715,0.051,1.396,0.051,2.338v2.421H174.602z"/>
	<path d="M182.962,337.866c0,0.354,0.018,0.698,0.06,0.976h-0.664l-0.06-0.513h-0.024c-0.228,0.319-0.664,0.604-1.244,0.604
		c-0.824,0-1.244-0.58-1.244-1.168c0-0.983,0.874-1.521,2.446-1.515v-0.084c0-0.328-0.092-0.94-0.925-0.933
		c-0.388,0-0.782,0.108-1.068,0.303l-0.168-0.496c0.336-0.211,0.833-0.354,1.345-0.354c1.244,0,1.547,0.85,1.547,1.655V337.866z
		 M182.248,336.766c-0.807-0.018-1.724,0.127-1.724,0.916c0,0.487,0.318,0.707,0.688,0.707c0.538,0,0.884-0.337,1-0.682
		c0.025-0.084,0.034-0.168,0.034-0.234L182.248,336.766L182.248,336.766z"/>
</g>
<g id="I_Na">
	<g>
		<g>
			<line fill="none" stroke="#000000" x1="177.848" y1="250.311" x2="177.848" y2="311.627"/>
			<polygon points="181.551,253.119 177.848,251.547 174.144,253.119 177.848,244.342 			"/>
		</g>
	</g>
	<g>
		<g>
			
				<radialGradient id="SVGID_5_" cx="348.6042" cy="1037.0547" r="18.2194" gradientTransform="matrix(-1 0 0 1 526.4531 -756.0859)" gradientUnits="userSpaceOnUse">
				<stop  offset="0" style="stop-color:#FFFCDF"/>
				<stop  offset="0.1203" style="stop-color:#FFFBDA"/>
				<stop  offset="0.2662" style="stop-color:#FFF9CB"/>
				<stop  offset="0.4255" style="stop-color:#FFF6B2"/>
				<stop  offset="0.5943" style="stop-color:#FFF090"/>
				<stop  offset="0.7706" style="stop-color:#FFEA64"/>
				<stop  offset="0.9506" style="stop-color:#FFE22F"/>
				<stop  offset="1" style="stop-color:#FFE01F"/>
			</radialGradient>
			<path fill="url(#SVGID_5_)" d="M182.931,257.553c-2.227,0-4.158,1.957-5.083,4.777c-0.926-2.82-2.857-4.777-5.083-4.777
				c-3.116,0-5.668,3.826-5.668,8.504v29.824c0,4.678,2.552,8.504,5.668,8.504c2.226,0,4.156-1.957,5.083-4.777
				c0.925,2.82,2.855,4.777,5.083,4.777c3.116,0,5.668-3.826,5.668-8.504v-29.824C188.599,261.379,186.048,257.553,182.931,257.553z
				"/>
		</g>
		<g>
			<path id="I_Na_path1" fill="none" stroke="#000000" d="M182.931,257.553c-2.227,0-4.158,1.957-5.083,4.777
				c-0.926-2.82-2.857-4.777-5.083-4.777c-3.116,0-5.668,3.826-5.668,8.504v29.824c0,4.678,2.552,8.504,5.668,8.504
				c2.226,0,4.156-1.957,5.083-4.777c0.925,2.82,2.855,4.777,5.083,4.777c3.116,0,5.668-3.826,5.668-8.504v-29.824
				C188.599,261.379,186.048,257.553,182.931,257.553z"/>
		</g>
	</g>
	<g>
		<path d="M173.161,273.979l6.736-0.037l0.005,0.959l-3.396,2.168c-0.786,0.494-1.483,0.897-2.182,1.212l0.01,0.03
			c0.899-0.086,1.718-0.11,2.758-0.115l2.828-0.016l0.004,0.818l-6.735,0.036l-0.004-0.879l3.405-2.157
			c0.748-0.475,1.516-0.928,2.242-1.262l-0.01-0.029c-0.849,0.055-1.659,0.068-2.778,0.074l-2.879,0.016L173.161,273.979z"/>
		<path d="M174.374,283.91c-0.42,0.002-0.829,0.023-1.159,0.076l-0.004-0.791l0.609-0.082v-0.029
			c-0.381-0.259-0.724-0.786-0.729-1.477c-0.005-0.979,0.684-1.482,1.383-1.486c1.169-0.006,1.813,1.029,1.813,2.898h0.102
			c0.398-0.002,1.128-0.115,1.112-1.104c-0.002-0.46-0.135-0.931-0.367-1.269l0.59-0.203c0.252,0.398,0.425,0.986,0.428,1.598
			c0.008,1.488-1,1.854-1.968,1.859L174.374,283.91z M175.678,283.044c0.015-0.96-0.161-2.049-1.102-2.043
			c-0.579,0.003-0.837,0.384-0.834,0.823c0.003,0.64,0.405,1.048,0.816,1.186c0.09,0.029,0.188,0.039,0.278,0.038L175.678,283.044z"
			/>
		<path d="M180.286,286.871l-1.646,0.009l0.009,1.583l-0.42,0.002l-0.009-1.583l-1.66,0.009l-0.002-0.447l1.659-0.01l-0.009-1.582
			l0.42-0.002l0.01,1.582l1.646-0.009L180.286,286.871z"/>
	</g>
</g>
</svg>
