<?xml version="1.0" encoding="utf-8"?>
<!-- Generator: Adobe Illustrator 14.0.0, SVG Export Plug-In . SVG Version: 6.00 Build 43363)  -->
<!DOCTYPE svg PUBLIC "-//W3C//DTD SVG 1.1//EN" "http://www.w3.org/Graphics/SVG/1.1/DTD/svg11.dtd">
<svg version="1.1" id="Layer_1" xmlns="http://www.w3.org/2000/svg" xmlns:xlink="http://www.w3.org/1999/xlink" x="0px" y="0px"
	 width="718px" height="396px" viewBox="0 0 718 396" enable-background="new 0 0 718 396" xml:space="preserve">
<rect x="-2.592" y="-0.001" fill="#FFFFFF" width="718" height="396"/>
<rect x="33" y="78.292" fill="none" stroke="#231F20" width="652" height="160.151"/>
<rect x="158.14" y="13.443" fill="none" stroke="#231F20" stroke-dasharray="3,3" width="375" height="160"/>
<g>
	<g>
		<g id="XMLID_1_">
			<g>
				<polygon fill="#FFFFFF" points="422.638,63.92 422.638,93.2 401.638,78.39 				"/>
			</g>
			<g>
				<line fill="none" stroke="#231F20" x1="401.638" y1="78.39" x2="422.638" y2="93.2"/>
				<line fill="none" stroke="#231F20" x1="422.638" y1="93.2" x2="422.638" y2="63.92"/>
				<line fill="none" stroke="#231F20" x1="422.638" y1="63.92" x2="401.638" y2="78.39"/>
			</g>
		</g>
	</g>
	<line fill="none" stroke="#231F20" x1="400.141" y1="63.126" x2="400.141" y2="93.991"/>
</g>
<g>
	<g>
		<g id="XMLID_2_">
			<g>
				<polygon fill="#FFFFFF" points="238.14,63.911 238.14,93.191 217.14,78.381 				"/>
			</g>
			<g>
				<line fill="none" stroke="#231F20" x1="217.14" y1="78.381" x2="238.14" y2="93.191"/>
				<line fill="none" stroke="#231F20" x1="238.14" y1="93.191" x2="238.14" y2="63.911"/>
				<line fill="none" stroke="#231F20" x1="238.14" y1="63.911" x2="217.14" y2="78.381"/>
			</g>
		</g>
	</g>
	<line fill="none" stroke="#231F20" x1="215.643" y1="63.126" x2="215.643" y2="93.991"/>
</g>
<line fill="none" stroke="#231F20" x1="478.141" y1="78.292" x2="478.141" y2="150.443"/>
<line fill="none" stroke="#231F20" x1="465.807" y1="150.443" x2="490.807" y2="150.443"/>
<line fill="none" stroke="#231F20" x1="465.807" y1="114.792" x2="490.807" y2="114.792"/>
<line fill="none" stroke="#231F20" x1="465.807" y1="122.443" x2="490.807" y2="122.443"/>
<g>
	<g>
		<line fill="none" stroke="#010101" x1="484.986" y1="104.755" x2="471.293" y2="134.132"/>
		<polygon fill="#010101" points="487.156,108.865 484.463,105.875 480.441,105.736 487.508,99.345 		"/>
	</g>
</g>
<line fill="none" stroke="#231F20" x1="301.973" y1="78.717" x2="301.973" y2="150.868"/>
<line fill="none" stroke="#231F20" x1="289.64" y1="150.868" x2="314.64" y2="150.868"/>
<line fill="none" stroke="#231F20" x1="289.64" y1="115.217" x2="314.64" y2="115.217"/>
<line fill="none" stroke="#231F20" x1="289.64" y1="122.868" x2="314.64" y2="122.868"/>
<g>
	<g>
		<line fill="none" stroke="#010101" x1="308.819" y1="105.18" x2="295.126" y2="134.556"/>
		<polygon fill="#010101" points="310.989,109.29 308.296,106.3 304.275,106.161 311.34,99.769 		"/>
	</g>
</g>
<g>
	<path fill="#010101" d="M525.949,357.74c0.547,0.35,1.33,0.615,2.172,0.615c1.246,0,1.975-0.658,1.975-1.61
		c0-0.868-0.504-1.387-1.779-1.862c-1.541-0.561-2.494-1.373-2.494-2.689c0-1.471,1.219-2.564,3.055-2.564
		c0.953,0,1.666,0.225,2.072,0.463l-0.336,0.994c-0.293-0.182-0.924-0.447-1.779-0.447c-1.287,0-1.777,0.77-1.777,1.414
		c0,0.883,0.574,1.316,1.877,1.82c1.596,0.617,2.395,1.387,2.395,2.774c0,1.456-1.064,2.731-3.291,2.731
		c-0.912,0-1.906-0.28-2.41-0.617L525.949,357.74z"/>
	<path fill="#010101" d="M533.299,352.445l1.471,4.006c0.168,0.448,0.336,0.98,0.449,1.387h0.027
		c0.127-0.406,0.266-0.924,0.436-1.415l1.344-3.978h1.303l-1.85,4.832c-0.883,2.326-1.484,3.502-2.324,4.244
		c-0.617,0.519-1.205,0.729-1.514,0.785l-0.309-1.023c0.309-0.098,0.715-0.293,1.08-0.602c0.336-0.267,0.742-0.742,1.035-1.373
		c0.057-0.126,0.1-0.225,0.1-0.294c0-0.07-0.029-0.169-0.1-0.322l-2.492-6.247H533.299z"/>
	<path fill="#010101" d="M539.193,357.979c0.377,0.224,1.021,0.476,1.639,0.476c0.883,0,1.303-0.435,1.303-1.009
		c0-0.588-0.35-0.896-1.246-1.232c-1.234-0.448-1.809-1.106-1.809-1.919c0-1.093,0.896-1.989,2.34-1.989
		c0.686,0,1.289,0.182,1.652,0.42l-0.293,0.896c-0.268-0.168-0.758-0.406-1.387-0.406c-0.729,0-1.121,0.421-1.121,0.925
		c0,0.561,0.393,0.812,1.275,1.163c1.162,0.434,1.777,1.022,1.777,2.031c0,1.204-0.938,2.045-2.52,2.045
		c-0.744,0-1.43-0.196-1.906-0.477L539.193,357.979z"/>
	<path fill="#010101" d="M546.391,350.82v1.625h1.764v0.938h-1.764v3.656c0,0.841,0.236,1.316,0.924,1.316
		c0.336,0,0.531-0.027,0.715-0.084l0.055,0.939c-0.238,0.084-0.615,0.168-1.092,0.168c-0.574,0-1.037-0.196-1.33-0.519
		c-0.338-0.378-0.477-0.98-0.477-1.778v-3.699h-1.051v-0.938h1.051v-1.262L546.391,350.82z"/>
	<path fill="#010101" d="M550.141,356.059c0.029,1.667,1.078,2.354,2.326,2.354c0.883,0,1.428-0.154,1.877-0.35l0.225,0.882
		c-0.436,0.196-1.191,0.435-2.27,0.435c-2.088,0-3.334-1.387-3.334-3.432s1.205-3.643,3.18-3.643c2.227,0,2.801,1.934,2.801,3.18
		c0,0.252-0.014,0.435-0.041,0.574H550.141z M553.756,355.176c0.014-0.77-0.322-1.988-1.709-1.988c-1.262,0-1.793,1.135-1.893,1.988
		H553.756z"/>
	<path fill="#010101" d="M556.469,354.279c0-0.714-0.027-1.273-0.055-1.834h1.078l0.057,1.106h0.041
		c0.379-0.645,1.008-1.247,2.143-1.247c0.912,0,1.611,0.561,1.906,1.359h0.027c0.211-0.393,0.49-0.673,0.771-0.883
		c0.406-0.309,0.84-0.477,1.484-0.477c0.91,0,2.24,0.588,2.24,2.941v3.979h-1.205V355.4c0-1.316-0.49-2.087-1.471-2.087
		c-0.713,0-1.246,0.519-1.471,1.106c-0.055,0.182-0.098,0.393-0.098,0.616v4.188h-1.205v-4.062c0-1.078-0.475-1.849-1.414-1.849
		c-0.756,0-1.33,0.616-1.527,1.232c-0.07,0.169-0.098,0.393-0.098,0.603v4.076h-1.205V354.279z"/>
	<path fill="#010101" d="M569.518,350.54c0,0.42-0.293,0.757-0.783,0.757c-0.449,0-0.744-0.337-0.744-0.757
		c0-0.421,0.309-0.771,0.771-0.771C569.209,349.77,569.518,350.105,569.518,350.54z M568.145,359.225v-6.779h1.232v6.779H568.145z"
		/>
	<path fill="#010101" d="M576.254,358.986c-0.322,0.154-1.037,0.393-1.947,0.393c-2.045,0-3.377-1.387-3.377-3.46
		c0-2.087,1.43-3.614,3.643-3.614c0.729,0,1.373,0.182,1.709,0.364l-0.279,0.938c-0.295-0.154-0.758-0.322-1.43-0.322
		c-1.555,0-2.395,1.163-2.395,2.563c0,1.569,1.008,2.536,2.352,2.536c0.701,0,1.164-0.169,1.514-0.322L576.254,358.986z"/>
	<path fill="#010101" d="M580.689,349.783h1.232v8.419h4.033v1.022h-5.266V349.783z"/>
	<path fill="#010101" d="M593.209,355.779c0,2.507-1.752,3.6-3.377,3.6c-1.82,0-3.25-1.345-3.25-3.488
		c0-2.255,1.5-3.586,3.363-3.586C591.891,352.305,593.209,353.72,593.209,355.779z M587.844,355.849c0,1.485,0.84,2.605,2.045,2.605
		c1.176,0,2.059-1.106,2.059-2.634c0-1.148-0.574-2.591-2.031-2.591C588.473,353.229,587.844,354.574,587.844,355.849z"/>
	<path fill="#010101" d="M600.895,355.779c0,2.507-1.752,3.6-3.377,3.6c-1.82,0-3.25-1.345-3.25-3.488
		c0-2.255,1.5-3.586,3.363-3.586C599.576,352.305,600.895,353.72,600.895,355.779z M595.529,355.849c0,1.485,0.84,2.605,2.045,2.605
		c1.176,0,2.059-1.106,2.059-2.634c0-1.148-0.574-2.591-2.031-2.591C596.158,353.229,595.529,354.574,595.529,355.849z"/>
	<path fill="#010101" d="M602.443,354.658c0-0.869-0.027-1.568-0.055-2.213h1.092l0.07,1.162h0.027
		c0.49-0.826,1.303-1.303,2.41-1.303c1.652,0,2.885,1.387,2.885,3.432c0,2.438-1.498,3.643-3.096,3.643
		c-0.896,0-1.68-0.393-2.086-1.064h-0.029v3.684h-1.219V354.658z M603.662,356.465c0,0.183,0.014,0.351,0.057,0.504
		c0.225,0.855,0.967,1.443,1.85,1.443c1.303,0,2.059-1.064,2.059-2.619c0-1.345-0.715-2.508-2.018-2.508
		c-0.84,0-1.639,0.588-1.863,1.514c-0.041,0.153-0.084,0.336-0.084,0.49V356.465z"/>
</g>
<g>
	<path fill="#010101" d="M180.423,141.427v3.95h4.566v-3.95h1.232v9.441h-1.232v-4.426h-4.566v4.426h-1.232v-9.441H180.423z"/>
	<path fill="#010101" d="M188.977,147.702c0.028,1.667,1.078,2.353,2.325,2.353c0.883,0,1.429-0.154,1.877-0.35l0.225,0.882
		c-0.435,0.196-1.191,0.435-2.27,0.435c-2.087,0-3.334-1.387-3.334-3.432c0-2.045,1.205-3.642,3.18-3.642
		c2.228,0,2.802,1.933,2.802,3.18c0,0.252-0.015,0.435-0.042,0.575H188.977z M192.591,146.819c0.014-0.77-0.322-1.989-1.709-1.989
		c-1.261,0-1.793,1.134-1.892,1.989H192.591z"/>
	<path fill="#010101" d="M200.067,149.243c0,0.588,0.028,1.163,0.098,1.625h-1.106l-0.098-0.854h-0.042
		c-0.378,0.532-1.106,1.009-2.073,1.009c-1.373,0-2.073-0.967-2.073-1.947c0-1.639,1.457-2.535,4.076-2.521v-0.14
		c0-0.546-0.154-1.569-1.541-1.555c-0.645,0-1.303,0.182-1.778,0.504l-0.28-0.827c0.56-0.35,1.387-0.588,2.241-0.588
		c2.073,0,2.577,1.415,2.577,2.76V149.243z M198.876,147.408c-1.345-0.028-2.872,0.21-2.872,1.527c0,0.812,0.532,1.177,1.148,1.177
		c0.896,0,1.472-0.561,1.667-1.135c0.042-0.14,0.057-0.28,0.057-0.392V147.408z"/>
	<path fill="#010101" d="M202.052,146.203c0-0.798-0.014-1.485-0.056-2.115h1.078l0.057,1.345h0.042
		c0.308-0.91,1.064-1.485,1.891-1.485c0.126,0,0.225,0.014,0.336,0.028v1.163c-0.126-0.028-0.252-0.028-0.42-0.028
		c-0.868,0-1.484,0.645-1.653,1.569c-0.027,0.168-0.042,0.378-0.042,0.575v3.614h-1.232V146.203z"/>
	<path fill="#010101" d="M208.452,142.463v1.625h1.765v0.938h-1.765v3.656c0,0.84,0.237,1.316,0.924,1.316
		c0.336,0,0.532-0.028,0.715-0.084l0.056,0.938c-0.238,0.084-0.616,0.168-1.093,0.168c-0.574,0-1.036-0.196-1.33-0.519
		c-0.337-0.378-0.477-0.98-0.477-1.779v-3.698h-1.051v-0.938h1.051v-1.261L208.452,142.463z"/>
</g>
<rect x="13" y="201.443" fill="none" stroke="#231F20" stroke-dasharray="3,3" width="692" height="182.556"/>
<g>
	<path fill="#010101" d="M226.758,50.068c-1.274-0.336-2.521-0.714-3.614-1.093c-0.21-0.07-0.392-0.14-0.574-0.14
		c-2.255-0.084-4.16-1.737-4.16-4.791c0-3.025,1.835-4.973,4.384-4.973c2.577,0,4.244,1.989,4.244,4.777
		c0,2.437-1.121,3.978-2.689,4.539v0.056c0.938,0.238,1.961,0.462,2.76,0.603L226.758,50.068z M225.75,43.919
		c0-1.905-0.98-3.852-2.983-3.852c-2.059,0-3.068,1.905-3.068,3.95c0,2.017,1.093,3.824,3.025,3.824
		C224.657,47.841,225.75,46.062,225.75,43.919z"/>
	<path fill="#010101" d="M230.923,52.397c0,0.343,0.016,0.677,0.057,0.947h-0.645l-0.057-0.498h-0.024
		c-0.22,0.31-0.645,0.588-1.208,0.588c-0.8,0-1.208-0.563-1.208-1.135c0-0.955,0.849-1.478,2.375-1.469v-0.082
		c0-0.318-0.09-0.914-0.898-0.906c-0.375,0-0.759,0.106-1.037,0.294l-0.163-0.482c0.326-0.204,0.808-0.343,1.306-0.343
		c1.208,0,1.502,0.825,1.502,1.608V52.397z M230.229,51.327c-0.784-0.016-1.674,0.123-1.674,0.89c0,0.473,0.311,0.686,0.669,0.686
		c0.522,0,0.857-0.327,0.972-0.661c0.024-0.082,0.033-0.163,0.033-0.229V51.327z"/>
	<path fill="#010101" d="M235.657,51.335c0,1.461-1.021,2.098-1.967,2.098c-1.061,0-1.894-0.784-1.894-2.033
		c0-1.314,0.874-2.09,1.959-2.09C234.89,49.311,235.657,50.136,235.657,51.335z M232.531,51.376c0,0.865,0.49,1.518,1.192,1.518
		c0.686,0,1.2-0.645,1.2-1.535c0-0.669-0.335-1.51-1.184-1.51C232.898,49.85,232.531,50.633,232.531,51.376z"/>
</g>
<g>
	<path fill="#010101" d="M222.788,110.499c-0.434,0.224-1.345,0.448-2.493,0.448c-2.662,0-4.65-1.681-4.65-4.791
		c0-2.969,2.003-4.958,4.931-4.958c1.163,0,1.919,0.252,2.241,0.42l-0.308,0.994c-0.448-0.224-1.107-0.392-1.891-0.392
		c-2.213,0-3.684,1.415-3.684,3.894c0,2.325,1.331,3.796,3.614,3.796c0.756,0,1.513-0.154,2.003-0.393L222.788,110.499z"/>
	<path fill="#010101" d="M226.565,110.793l-3.096-9.441h1.331l1.471,4.65c0.392,1.274,0.742,2.423,1.008,3.53h0.028
		c0.266-1.093,0.645-2.283,1.079-3.516l1.597-4.665h1.303l-3.376,9.441H226.565z"/>
	<path fill="#010101" d="M234.611,114.508c0,0.343,0.016,0.677,0.057,0.947h-0.645l-0.057-0.498h-0.024
		c-0.221,0.31-0.645,0.588-1.208,0.588c-0.8,0-1.208-0.563-1.208-1.135c0-0.955,0.849-1.478,2.375-1.469v-0.082
		c0-0.318-0.09-0.914-0.898-0.906c-0.375,0-0.759,0.106-1.037,0.294l-0.163-0.482c0.326-0.204,0.808-0.343,1.306-0.343
		c1.208,0,1.502,0.825,1.502,1.608V114.508z M233.917,113.438c-0.784-0.016-1.674,0.123-1.674,0.89c0,0.473,0.311,0.686,0.669,0.686
		c0.522,0,0.857-0.327,0.972-0.661c0.024-0.082,0.033-0.163,0.033-0.229V113.438z"/>
	<path fill="#010101" d="M239.345,113.447c0,1.461-1.021,2.098-1.967,2.098c-1.061,0-1.894-0.784-1.894-2.033
		c0-1.314,0.874-2.09,1.959-2.09C238.578,111.422,239.345,112.247,239.345,113.447z M236.218,113.488
		c0,0.865,0.49,1.518,1.192,1.518c0.686,0,1.2-0.645,1.2-1.535c0-0.669-0.335-1.51-1.184-1.51
		C236.585,111.961,236.218,112.745,236.218,113.488z"/>
</g>
<g>
	<path fill="#010101" d="M407.758,50.068c-1.274-0.336-2.521-0.714-3.613-1.093c-0.211-0.07-0.393-0.14-0.574-0.14
		c-2.256-0.084-4.16-1.737-4.16-4.791c0-3.025,1.834-4.973,4.384-4.973c2.577,0,4.244,1.989,4.244,4.777
		c0,2.437-1.12,3.978-2.689,4.539v0.056c0.938,0.238,1.961,0.462,2.76,0.603L407.758,50.068z M406.75,43.919
		c0-1.905-0.98-3.852-2.984-3.852c-2.059,0-3.067,1.905-3.067,3.95c0,2.017,1.093,3.824,3.025,3.824S406.75,46.062,406.75,43.919z"
		/>
	<path fill="#010101" d="M409.146,50.462c0-0.416-0.016-0.743-0.031-1.069h0.628l0.032,0.645h0.025
		c0.22-0.375,0.588-0.727,1.248-0.727c0.531,0,0.939,0.327,1.111,0.792h0.016c0.123-0.229,0.285-0.392,0.449-0.515
		c0.236-0.179,0.49-0.277,0.865-0.277c0.531,0,1.307,0.343,1.307,1.714v2.318h-0.703v-2.229c0-0.768-0.285-1.216-0.856-1.216
		c-0.417,0-0.727,0.302-0.857,0.645c-0.032,0.106-0.058,0.229-0.058,0.359v2.441h-0.701v-2.367c0-0.629-0.277-1.078-0.824-1.078
		c-0.441,0-0.776,0.359-0.891,0.718c-0.041,0.098-0.057,0.229-0.057,0.351v2.375h-0.703V50.462z"/>
	<path fill="#010101" d="M415.954,47.548h0.719v5.796h-0.719V47.548z"/>
</g>
<g>
	<path fill="#010101" d="M403.787,110.498c-0.434,0.224-1.344,0.448-2.492,0.448c-2.662,0-4.65-1.681-4.65-4.791
		c0-2.969,2.002-4.958,4.93-4.958c1.163,0,1.92,0.252,2.242,0.42l-0.309,0.994c-0.448-0.224-1.107-0.392-1.891-0.392
		c-2.214,0-3.685,1.415-3.685,3.894c0,2.325,1.331,3.796,3.614,3.796c0.756,0,1.513-0.154,2.003-0.393L403.787,110.498z"/>
	<path fill="#010101" d="M407.564,110.792l-3.096-9.441h1.331l1.472,4.65c0.392,1.274,0.742,2.423,1.008,3.53h0.027
		c0.267-1.093,0.645-2.283,1.079-3.516l1.597-4.665h1.303l-3.375,9.441H407.564z"/>
	<path fill="#010101" d="M412.835,112.572c0-0.416-0.017-0.743-0.032-1.069h0.629l0.032,0.645h0.024
		c0.221-0.375,0.588-0.727,1.249-0.727c0.53,0,0.938,0.327,1.11,0.792h0.016c0.123-0.229,0.286-0.392,0.449-0.515
		c0.237-0.179,0.49-0.277,0.865-0.277c0.531,0,1.307,0.343,1.307,1.714v2.318h-0.702v-2.229c0-0.768-0.286-1.216-0.856-1.216
		c-0.417,0-0.727,0.302-0.857,0.645c-0.033,0.106-0.058,0.229-0.058,0.359v2.441h-0.702v-2.367c0-0.629-0.277-1.078-0.824-1.078
		c-0.441,0-0.775,0.359-0.891,0.718c-0.04,0.098-0.057,0.229-0.057,0.351v2.375h-0.702V112.572z"/>
	<path fill="#010101" d="M419.643,109.658h0.719v5.796h-0.719V109.658z"/>
</g>
<g>
	<path fill="#010101" d="M296.834,54.595c0.588-0.098,1.359-0.182,2.339-0.182c1.205,0,2.087,0.28,2.647,0.785
		c0.504,0.448,0.827,1.134,0.827,1.975c0,0.854-0.252,1.527-0.729,2.017c-0.658,0.686-1.695,1.036-2.886,1.036
		c-0.364,0-0.7-0.014-0.98-0.084v3.782h-1.219V54.595z M298.053,59.147c0.266,0.07,0.603,0.098,1.009,0.098
		c1.471,0,2.367-0.728,2.367-2.003c0-1.261-0.896-1.863-2.228-1.863c-0.532,0-0.938,0.042-1.148,0.098V59.147z"/>
	<path fill="#010101" d="M303.813,62.79h0.719v5.796h-0.719V62.79z"/>
	<path fill="#010101" d="M306.018,64.635l0.775,2.212c0.131,0.367,0.237,0.694,0.318,1.021h0.024
		c0.09-0.327,0.204-0.653,0.335-1.021l0.767-2.212h0.751l-1.551,3.951h-0.686l-1.502-3.951H306.018z"/>
</g>
<g>
	<path fill="#010101" d="M328.984,118.017h-3.656v3.404h4.09v1.022h-5.323v-9.441h5.112v1.022h-3.88v2.983h3.656V118.017z"/>
	<path fill="#010101" d="M330.528,121.31h0.719v5.796h-0.719V121.31z"/>
	<path fill="#010101" d="M332.732,123.154l0.775,2.212c0.131,0.367,0.237,0.694,0.318,1.021h0.024
		c0.09-0.327,0.204-0.653,0.335-1.021l0.767-2.212h0.751l-1.551,3.951h-0.686l-1.502-3.951H332.732z"/>
</g>
<g>
	<path fill="#010101" d="M506.985,116.494h-3.656v3.404h4.091v1.022h-5.323v-9.441h5.112v1.022h-3.88v2.983h3.656V116.494z"/>
	<path fill="#010101" d="M508.529,119.786h0.719v5.796h-0.719V119.786z"/>
	<path fill="#010101" d="M513.231,124.635c0,0.343,0.017,0.677,0.058,0.947h-0.646l-0.058-0.498h-0.023
		c-0.221,0.31-0.646,0.588-1.209,0.588c-0.8,0-1.208-0.563-1.208-1.135c0-0.955,0.849-1.478,2.376-1.469v-0.082
		c0-0.318-0.09-0.914-0.898-0.906c-0.375,0-0.76,0.106-1.037,0.294l-0.162-0.482c0.326-0.204,0.808-0.343,1.306-0.343
		c1.208,0,1.502,0.825,1.502,1.608V124.635z M512.537,123.565c-0.783-0.016-1.674,0.123-1.674,0.89c0,0.473,0.311,0.686,0.67,0.686
		c0.522,0,0.857-0.327,0.972-0.661c0.024-0.082,0.032-0.163,0.032-0.229V123.565z"/>
</g>
<g>
	<path fill="#010101" d="M472.997,54.595c0.589-0.098,1.358-0.182,2.339-0.182c1.205,0,2.088,0.28,2.648,0.785
		c0.504,0.448,0.826,1.134,0.826,1.975c0,0.854-0.252,1.527-0.729,2.017c-0.658,0.686-1.695,1.036-2.886,1.036
		c-0.364,0-0.7-0.014-0.98-0.084v3.782h-1.219V54.595z M474.216,59.147c0.267,0.07,0.603,0.098,1.009,0.098
		c1.471,0,2.367-0.728,2.367-2.003c0-1.261-0.896-1.863-2.228-1.863c-0.532,0-0.938,0.042-1.148,0.098V59.147z"/>
	<path fill="#010101" d="M479.977,62.79h0.719v5.796h-0.719V62.79z"/>
	<path fill="#010101" d="M484.678,67.639c0,0.343,0.017,0.677,0.058,0.947h-0.646l-0.057-0.498h-0.024
		c-0.221,0.31-0.646,0.588-1.208,0.588c-0.801,0-1.209-0.563-1.209-1.135c0-0.955,0.85-1.478,2.376-1.469V65.99
		c0-0.318-0.09-0.914-0.897-0.906c-0.376,0-0.76,0.106-1.037,0.294l-0.163-0.482c0.326-0.204,0.808-0.343,1.306-0.343
		c1.209,0,1.502,0.825,1.502,1.608V67.639z M483.984,66.569c-0.783-0.016-1.674,0.123-1.674,0.89c0,0.473,0.311,0.686,0.67,0.686
		c0.521,0,0.857-0.327,0.971-0.661c0.025-0.082,0.033-0.163,0.033-0.229V66.569z"/>
</g>
<g>
	<path fill="#010101" d="M379.544,222.336c-1.274-0.336-2.521-0.715-3.614-1.093c-0.209-0.069-0.392-0.14-0.574-0.14
		c-2.255-0.084-4.16-1.737-4.16-4.791c0-3.025,1.836-4.973,4.385-4.973c2.577,0,4.244,1.989,4.244,4.777
		c0,2.437-1.121,3.978-2.689,4.538v0.056c0.938,0.238,1.961,0.463,2.76,0.603L379.544,222.336z M378.535,216.187
		c0-1.905-0.98-3.853-2.982-3.853c-2.06,0-3.068,1.906-3.068,3.951c0,2.017,1.093,3.824,3.025,3.824
		C377.443,220.109,378.535,218.33,378.535,216.187z"/>
	<path fill="#010101" d="M380.836,224.885c0.22,0.131,0.596,0.277,0.955,0.277c0.514,0,0.759-0.253,0.759-0.588
		c0-0.342-0.204-0.521-0.727-0.719c-0.718-0.261-1.054-0.645-1.054-1.117c0-0.637,0.523-1.16,1.363-1.16
		c0.4,0,0.752,0.106,0.964,0.245l-0.171,0.522c-0.156-0.098-0.441-0.236-0.809-0.236c-0.425,0-0.653,0.244-0.653,0.539
		c0,0.326,0.229,0.473,0.743,0.678c0.678,0.252,1.037,0.596,1.037,1.184c0,0.701-0.547,1.191-1.47,1.191
		c-0.433,0-0.833-0.114-1.11-0.277L380.836,224.885z"/>
	<path fill="#010101" d="M386.941,224.664c0,0.344,0.016,0.678,0.057,0.947h-0.645l-0.058-0.498h-0.024
		c-0.221,0.311-0.645,0.588-1.208,0.588c-0.8,0-1.208-0.563-1.208-1.135c0-0.955,0.849-1.478,2.375-1.469v-0.082
		c0-0.318-0.09-0.914-0.898-0.906c-0.375,0-0.759,0.105-1.036,0.294l-0.163-0.481c0.326-0.205,0.809-0.344,1.307-0.344
		c1.207,0,1.502,0.825,1.502,1.609V224.664z M386.247,223.595c-0.784-0.017-1.674,0.122-1.674,0.89c0,0.474,0.311,0.686,0.669,0.686
		c0.523,0,0.857-0.326,0.973-0.66c0.023-0.082,0.032-0.164,0.032-0.229V223.595z"/>
	<path fill="#010101" d="M388.932,220.713v0.947h1.029v0.547h-1.029v2.131c0,0.49,0.139,0.768,0.539,0.768
		c0.195,0,0.311-0.017,0.416-0.049l0.033,0.547c-0.139,0.049-0.359,0.098-0.637,0.098c-0.335,0-0.604-0.114-0.775-0.303
		c-0.196-0.22-0.277-0.57-0.277-1.036v-2.155h-0.613v-0.547h0.613v-0.734L388.932,220.713z"/>
</g>
<g>
	<path fill="#010101" d="M372.812,257.396c0.617-0.113,1.514-0.197,2.34-0.197c1.303,0,2.157,0.253,2.731,0.771
		c0.462,0.42,0.743,1.064,0.743,1.807c0,1.232-0.785,2.059-1.766,2.395v0.043c0.715,0.252,1.148,0.924,1.373,1.904
		c0.308,1.316,0.531,2.228,0.729,2.592h-1.262c-0.153-0.28-0.363-1.078-0.615-2.256c-0.281-1.303-0.799-1.793-1.906-1.834h-1.148
		v4.09h-1.219V257.396z M374.031,261.696h1.247c1.303,0,2.13-0.714,2.13-1.793c0-1.219-0.883-1.751-2.172-1.751
		c-0.588,0-0.994,0.042-1.205,0.098V261.696z"/>
	<path fill="#010101" d="M379.778,270.646c0.22,0.131,0.596,0.277,0.955,0.277c0.515,0,0.759-0.253,0.759-0.588
		c0-0.342-0.203-0.521-0.727-0.719c-0.718-0.261-1.053-0.645-1.053-1.117c0-0.637,0.522-1.16,1.363-1.16
		c0.4,0,0.751,0.106,0.963,0.245l-0.171,0.522c-0.155-0.098-0.44-0.236-0.808-0.236c-0.426,0-0.654,0.244-0.654,0.539
		c0,0.326,0.229,0.473,0.744,0.678c0.677,0.252,1.036,0.596,1.036,1.184c0,0.701-0.547,1.191-1.47,1.191
		c-0.433,0-0.832-0.114-1.109-0.277L379.778,270.646z"/>
	<path fill="#010101" d="M385.884,270.426c0,0.344,0.017,0.678,0.058,0.947h-0.646l-0.058-0.498h-0.023
		c-0.221,0.311-0.646,0.588-1.209,0.588c-0.8,0-1.208-0.563-1.208-1.135c0-0.955,0.849-1.478,2.376-1.469v-0.082
		c0-0.318-0.09-0.914-0.898-0.906c-0.375,0-0.76,0.105-1.037,0.294l-0.162-0.481c0.326-0.205,0.808-0.344,1.306-0.344
		c1.208,0,1.502,0.825,1.502,1.609V270.426z M385.189,269.356c-0.783-0.017-1.674,0.122-1.674,0.89c0,0.474,0.311,0.686,0.67,0.686
		c0.522,0,0.857-0.326,0.972-0.66c0.024-0.082,0.032-0.164,0.032-0.229V269.356z"/>
	<path fill="#010101" d="M387.875,266.475v0.947h1.028v0.547h-1.028v2.131c0,0.49,0.139,0.768,0.539,0.768
		c0.195,0,0.31-0.017,0.416-0.049l0.033,0.547c-0.14,0.049-0.359,0.098-0.637,0.098c-0.336,0-0.605-0.114-0.776-0.303
		c-0.196-0.22-0.277-0.57-0.277-1.036v-2.155h-0.612v-0.547h0.612v-0.734L387.875,266.475z"/>
</g>
<g>
	<path fill="#010101" d="M247.064,219.149c0.588-0.099,1.359-0.183,2.339-0.183c1.205,0,2.087,0.281,2.647,0.785
		c0.504,0.448,0.827,1.135,0.827,1.975c0,0.855-0.252,1.527-0.729,2.018c-0.658,0.686-1.695,1.036-2.886,1.036
		c-0.364,0-0.7-0.014-0.98-0.084v3.782h-1.219V219.149z M248.283,223.702c0.266,0.069,0.603,0.098,1.009,0.098
		c1.471,0,2.367-0.728,2.367-2.003c0-1.261-0.896-1.863-2.228-1.863c-0.532,0-0.938,0.043-1.148,0.098V223.702z"/>
	<path fill="#010101" d="M253.946,232.414c0.22,0.131,0.596,0.277,0.955,0.277c0.514,0,0.759-0.253,0.759-0.588
		c0-0.342-0.204-0.521-0.727-0.719c-0.718-0.261-1.053-0.645-1.053-1.117c0-0.637,0.522-1.16,1.363-1.16
		c0.4,0,0.751,0.106,0.963,0.245l-0.171,0.522c-0.155-0.098-0.441-0.236-0.808-0.236c-0.425,0-0.653,0.244-0.653,0.539
		c0,0.326,0.229,0.473,0.743,0.678c0.677,0.252,1.037,0.596,1.037,1.184c0,0.701-0.547,1.191-1.469,1.191
		c-0.433,0-0.833-0.114-1.11-0.277L253.946,232.414z"/>
	<path fill="#010101" d="M260.051,232.193c0,0.344,0.016,0.678,0.057,0.947h-0.645l-0.057-0.498h-0.024
		c-0.221,0.311-0.645,0.588-1.208,0.588c-0.8,0-1.208-0.563-1.208-1.135c0-0.955,0.849-1.478,2.375-1.469v-0.082
		c0-0.318-0.09-0.914-0.898-0.906c-0.375,0-0.759,0.105-1.037,0.294l-0.163-0.481c0.326-0.205,0.808-0.344,1.306-0.344
		c1.208,0,1.502,0.825,1.502,1.609V232.193z M259.357,231.124c-0.784-0.017-1.674,0.122-1.674,0.89c0,0.474,0.311,0.686,0.669,0.686
		c0.522,0,0.857-0.326,0.972-0.66c0.024-0.082,0.033-0.164,0.033-0.229V231.124z"/>
	<path fill="#010101" d="M262.042,228.242v0.947h1.028v0.547h-1.028v2.131c0,0.49,0.139,0.768,0.539,0.768
		c0.196,0,0.31-0.017,0.417-0.049l0.033,0.547c-0.139,0.049-0.359,0.098-0.637,0.098c-0.335,0-0.604-0.114-0.776-0.303
		c-0.196-0.22-0.277-0.57-0.277-1.036v-2.155h-0.612v-0.547h0.612v-0.734L262.042,228.242z"/>
</g>
<g>
	<path fill="#010101" d="M282.266,281.909c-0.434,0.224-1.345,0.448-2.493,0.448c-2.662,0-4.65-1.682-4.65-4.791
		c0-2.969,2.003-4.959,4.931-4.959c1.163,0,1.919,0.252,2.241,0.421l-0.308,0.994c-0.448-0.224-1.107-0.392-1.891-0.392
		c-2.213,0-3.684,1.414-3.684,3.894c0,2.325,1.331,3.796,3.614,3.796c0.756,0,1.513-0.154,2.003-0.393L282.266,281.909z"/>
	<path fill="#010101" d="M283.235,286.139c0.22,0.131,0.596,0.277,0.955,0.277c0.514,0,0.759-0.253,0.759-0.588
		c0-0.342-0.204-0.521-0.727-0.719c-0.718-0.261-1.053-0.645-1.053-1.117c0-0.637,0.522-1.16,1.363-1.16
		c0.4,0,0.751,0.106,0.963,0.245l-0.171,0.522c-0.155-0.098-0.441-0.236-0.808-0.236c-0.425,0-0.653,0.244-0.653,0.539
		c0,0.326,0.229,0.473,0.743,0.678c0.677,0.252,1.037,0.596,1.037,1.184c0,0.701-0.547,1.191-1.469,1.191
		c-0.433,0-0.833-0.114-1.11-0.277L283.235,286.139z"/>
	<path fill="#010101" d="M289.341,285.918c0,0.344,0.016,0.678,0.057,0.947h-0.645l-0.057-0.498h-0.024
		c-0.221,0.311-0.645,0.588-1.208,0.588c-0.8,0-1.208-0.563-1.208-1.135c0-0.955,0.849-1.478,2.375-1.469v-0.082
		c0-0.318-0.09-0.914-0.898-0.906c-0.375,0-0.759,0.105-1.037,0.294l-0.163-0.481c0.326-0.205,0.808-0.344,1.306-0.344
		c1.208,0,1.502,0.825,1.502,1.609V285.918z M288.647,284.849c-0.784-0.017-1.674,0.122-1.674,0.89c0,0.474,0.311,0.686,0.669,0.686
		c0.522,0,0.857-0.326,0.972-0.66c0.024-0.082,0.033-0.164,0.033-0.229V284.849z"/>
	<path fill="#010101" d="M291.332,281.967v0.947h1.028v0.547h-1.028v2.131c0,0.49,0.139,0.768,0.539,0.768
		c0.196,0,0.31-0.017,0.417-0.049l0.033,0.547c-0.139,0.049-0.359,0.098-0.637,0.098c-0.335,0-0.604-0.114-0.776-0.303
		c-0.196-0.22-0.277-0.57-0.277-1.036v-2.155h-0.612v-0.547h0.612v-0.734L291.332,281.967z"/>
</g>
<rect x="177.752" y="232.867" fill="#FFFFFF" stroke="#231F20" width="48.046" height="14.194"/>
<g>
	<path fill="#010101" d="M193.874,252.436c0.616-0.113,1.513-0.197,2.339-0.197c1.303,0,2.157,0.253,2.731,0.771
		c0.462,0.42,0.743,1.064,0.743,1.807c0,1.232-0.785,2.059-1.765,2.395v0.043c0.714,0.252,1.148,0.924,1.373,1.904
		c0.308,1.316,0.532,2.228,0.729,2.592h-1.261c-0.154-0.28-0.364-1.078-0.616-2.256c-0.28-1.303-0.798-1.793-1.905-1.834h-1.148
		v4.09h-1.219V252.436z M195.093,256.735h1.247c1.303,0,2.129-0.714,2.129-1.793c0-1.219-0.883-1.751-2.171-1.751
		c-0.588,0-0.995,0.042-1.205,0.098V256.735z"/>
	<path fill="#010101" d="M200.839,265.686c0.22,0.131,0.596,0.277,0.955,0.277c0.514,0,0.759-0.253,0.759-0.588
		c0-0.342-0.204-0.521-0.727-0.719c-0.718-0.261-1.053-0.645-1.053-1.117c0-0.637,0.522-1.16,1.363-1.16
		c0.4,0,0.751,0.106,0.963,0.245l-0.171,0.522c-0.155-0.098-0.441-0.236-0.808-0.236c-0.425,0-0.653,0.244-0.653,0.539
		c0,0.326,0.229,0.473,0.743,0.678c0.677,0.252,1.037,0.596,1.037,1.184c0,0.701-0.547,1.191-1.469,1.191
		c-0.433,0-0.833-0.114-1.11-0.277L200.839,265.686z"/>
	<path fill="#010101" d="M206.945,265.465c0,0.344,0.016,0.678,0.057,0.947h-0.645l-0.057-0.498h-0.024
		c-0.221,0.311-0.645,0.588-1.208,0.588c-0.8,0-1.208-0.563-1.208-1.135c0-0.955,0.849-1.478,2.375-1.469v-0.082
		c0-0.318-0.09-0.914-0.898-0.906c-0.375,0-0.759,0.105-1.037,0.294l-0.163-0.481c0.326-0.205,0.808-0.344,1.306-0.344
		c1.208,0,1.502,0.825,1.502,1.609V265.465z M206.251,264.396c-0.784-0.017-1.674,0.122-1.674,0.89c0,0.474,0.311,0.686,0.669,0.686
		c0.522,0,0.857-0.326,0.972-0.66c0.024-0.082,0.033-0.164,0.033-0.229V264.396z"/>
	<path fill="#010101" d="M208.005,265.686c0.22,0.131,0.596,0.277,0.955,0.277c0.514,0,0.759-0.253,0.759-0.588
		c0-0.342-0.204-0.521-0.727-0.719c-0.718-0.261-1.053-0.645-1.053-1.117c0-0.637,0.522-1.16,1.363-1.16
		c0.4,0,0.751,0.106,0.963,0.245l-0.171,0.522c-0.155-0.098-0.441-0.236-0.808-0.236c-0.425,0-0.653,0.244-0.653,0.539
		c0,0.326,0.229,0.473,0.743,0.678c0.677,0.252,1.037,0.596,1.037,1.184c0,0.701-0.547,1.191-1.469,1.191
		c-0.433,0-0.833-0.114-1.11-0.277L208.005,265.686z"/>
</g>
<g>
	<path fill="none" stroke="#231F20" d="M58.5,239.226c0,12.141,0,24.283,0,36.424"/>
	<path fill="none" stroke="#231F20" d="M58.5,283.876c0,9.142,0,18.283,0,27.424"/>
	<line fill="none" stroke="#231F20" x1="46" y1="275.649" x2="71" y2="275.649"/>
	<line fill="none" stroke="#231F20" x1="46" y1="283.3" x2="71" y2="283.3"/>
	<line fill="none" stroke="#231F20" x1="46" y1="311.3" x2="71" y2="311.3"/>
</g>
<g>
	<path fill="#010101" d="M89.438,283.581c-0.434,0.224-1.345,0.448-2.493,0.448c-2.662,0-4.65-1.682-4.65-4.791
		c0-2.969,2.003-4.959,4.931-4.959c1.163,0,1.919,0.252,2.241,0.421l-0.308,0.994c-0.448-0.224-1.107-0.392-1.891-0.392
		c-2.213,0-3.684,1.414-3.684,3.894c0,2.325,1.331,3.796,3.614,3.796c0.756,0,1.513-0.154,2.003-0.393L89.438,283.581z"/>
	<path fill="#010101" d="M90.407,287.811c0.22,0.131,0.596,0.277,0.955,0.277c0.514,0,0.759-0.253,0.759-0.588
		c0-0.342-0.204-0.521-0.727-0.719c-0.718-0.261-1.053-0.645-1.053-1.117c0-0.637,0.522-1.16,1.363-1.16
		c0.4,0,0.751,0.106,0.963,0.245l-0.171,0.522c-0.155-0.098-0.441-0.236-0.808-0.236c-0.425,0-0.653,0.244-0.653,0.539
		c0,0.326,0.229,0.473,0.743,0.678c0.677,0.252,1.037,0.596,1.037,1.184c0,0.701-0.547,1.191-1.469,1.191
		c-0.433,0-0.833-0.114-1.11-0.277L90.407,287.811z"/>
	<path fill="#010101" d="M96.513,287.59c0,0.344,0.016,0.678,0.057,0.947h-0.645l-0.057-0.498h-0.024
		c-0.221,0.311-0.645,0.588-1.208,0.588c-0.8,0-1.208-0.563-1.208-1.135c0-0.955,0.849-1.478,2.375-1.469v-0.082
		c0-0.318-0.09-0.914-0.898-0.906c-0.375,0-0.759,0.105-1.037,0.294l-0.163-0.481c0.326-0.205,0.808-0.344,1.306-0.344
		c1.208,0,1.502,0.825,1.502,1.609V287.59z M95.819,286.521c-0.784-0.017-1.674,0.122-1.674,0.89c0,0.474,0.311,0.686,0.669,0.686
		c0.522,0,0.857-0.326,0.972-0.66c0.024-0.082,0.033-0.164,0.033-0.229V286.521z"/>
	<path fill="#010101" d="M97.573,287.811c0.22,0.131,0.596,0.277,0.955,0.277c0.514,0,0.759-0.253,0.759-0.588
		c0-0.342-0.204-0.521-0.727-0.719c-0.718-0.261-1.053-0.645-1.053-1.117c0-0.637,0.522-1.16,1.363-1.16
		c0.4,0,0.751,0.106,0.963,0.245l-0.171,0.522c-0.155-0.098-0.441-0.236-0.808-0.236c-0.425,0-0.653,0.244-0.653,0.539
		c0,0.326,0.229,0.473,0.743,0.678c0.677,0.252,1.037,0.596,1.037,1.184c0,0.701-0.547,1.191-1.469,1.191
		c-0.433,0-0.833-0.114-1.11-0.277L97.573,287.811z"/>
</g>
<g>
	<path fill="none" stroke="#231F20" d="M567.057,239.331c0,12.141,0,24.283,0,36.424"/>
	<path fill="none" stroke="#231F20" d="M567.057,283.981c0,9.142,0,18.283,0,27.424"/>
	<line fill="none" stroke="#231F20" x1="554.557" y1="275.755" x2="579.557" y2="275.755"/>
	<line fill="none" stroke="#231F20" x1="554.557" y1="283.405" x2="579.557" y2="283.405"/>
	<line fill="none" stroke="#231F20" x1="554.557" y1="311.405" x2="579.557" y2="311.405"/>
</g>
<g>
	<path fill="#010101" d="M597.994,283.687c-0.434,0.224-1.345,0.448-2.493,0.448c-2.661,0-4.65-1.682-4.65-4.791
		c0-2.969,2.003-4.959,4.931-4.959c1.162,0,1.919,0.252,2.241,0.421l-0.308,0.994c-0.449-0.224-1.107-0.392-1.892-0.392
		c-2.214,0-3.685,1.414-3.685,3.894c0,2.325,1.331,3.796,3.614,3.796c0.757,0,1.513-0.154,2.003-0.393L597.994,283.687z"/>
	<path fill="#010101" d="M598.964,287.916c0.22,0.131,0.596,0.277,0.955,0.277c0.515,0,0.759-0.253,0.759-0.588
		c0-0.342-0.203-0.521-0.727-0.719c-0.718-0.261-1.053-0.645-1.053-1.117c0-0.637,0.522-1.16,1.363-1.16
		c0.4,0,0.751,0.106,0.963,0.245l-0.171,0.522c-0.155-0.098-0.44-0.236-0.808-0.236c-0.426,0-0.654,0.244-0.654,0.539
		c0,0.326,0.229,0.473,0.744,0.678c0.677,0.252,1.036,0.596,1.036,1.184c0,0.701-0.547,1.191-1.47,1.191
		c-0.433,0-0.832-0.114-1.109-0.277L598.964,287.916z"/>
	<path fill="#010101" d="M602.571,284.691l0.775,2.213c0.131,0.367,0.237,0.693,0.318,1.02h0.024c0.09-0.326,0.204-0.652,0.335-1.02
		l0.767-2.213h0.752l-1.551,3.951h-0.686l-1.503-3.951H602.571z"/>
	<path fill="#010101" d="M606.219,285.761c0-0.416-0.008-0.743-0.031-1.069h0.637l0.04,0.653h0.017
		c0.195-0.368,0.652-0.735,1.307-0.735c0.547,0,1.396,0.327,1.396,1.682v2.352h-0.719v-2.277c0-0.637-0.237-1.168-0.914-1.168
		c-0.466,0-0.833,0.335-0.964,0.734c-0.032,0.09-0.049,0.213-0.049,0.336v2.375h-0.719V285.761z"/>
</g>
<rect x="356.408" y="232.867" fill="#FFFFFF" stroke="#231F20" width="48.047" height="14.194"/>
<g>
	<path fill="#010101" d="M637.093,221.701c-1.274-0.336-2.521-0.715-3.614-1.093c-0.209-0.069-0.392-0.14-0.574-0.14
		c-2.255-0.084-4.16-1.737-4.16-4.791c0-3.025,1.836-4.973,4.385-4.973c2.577,0,4.244,1.989,4.244,4.777
		c0,2.437-1.121,3.978-2.689,4.538v0.056c0.938,0.238,1.961,0.463,2.76,0.603L637.093,221.701z M636.084,215.552
		c0-1.905-0.98-3.853-2.982-3.853c-2.06,0-3.068,1.906-3.068,3.951c0,2.017,1.093,3.824,3.025,3.824
		C634.992,219.475,636.084,217.695,636.084,215.552z"/>
	<path fill="#010101" d="M638.385,224.25c0.22,0.131,0.596,0.277,0.955,0.277c0.514,0,0.759-0.253,0.759-0.588
		c0-0.342-0.204-0.521-0.727-0.719c-0.718-0.261-1.054-0.645-1.054-1.117c0-0.637,0.523-1.16,1.363-1.16
		c0.4,0,0.752,0.106,0.964,0.245l-0.171,0.522c-0.156-0.098-0.441-0.236-0.809-0.236c-0.425,0-0.653,0.244-0.653,0.539
		c0,0.326,0.229,0.473,0.743,0.678c0.678,0.252,1.037,0.596,1.037,1.184c0,0.701-0.547,1.191-1.47,1.191
		c-0.433,0-0.833-0.114-1.11-0.277L638.385,224.25z"/>
	<path fill="#010101" d="M641.992,221.025l0.775,2.213c0.131,0.367,0.236,0.693,0.318,1.02h0.023c0.09-0.326,0.205-0.652,0.336-1.02
		l0.767-2.213h0.751l-1.551,3.951h-0.686l-1.502-3.951H641.992z"/>
	<path fill="#010101" d="M645.64,222.095c0-0.416-0.008-0.743-0.032-1.069h0.637l0.041,0.653h0.016
		c0.196-0.368,0.653-0.735,1.307-0.735c0.547,0,1.396,0.327,1.396,1.682v2.352h-0.719v-2.277c0-0.637-0.237-1.168-0.914-1.168
		c-0.466,0-0.833,0.335-0.964,0.734c-0.032,0.09-0.049,0.213-0.049,0.336v2.375h-0.719V222.095z"/>
</g>
<g>
	<path fill="#010101" d="M630.361,256.764c0.617-0.113,1.514-0.197,2.34-0.197c1.303,0,2.157,0.253,2.731,0.771
		c0.462,0.42,0.743,1.064,0.743,1.807c0,1.232-0.785,2.059-1.766,2.395v0.043c0.715,0.252,1.148,0.924,1.373,1.904
		c0.308,1.316,0.531,2.228,0.729,2.592h-1.262c-0.153-0.28-0.363-1.078-0.615-2.256c-0.281-1.303-0.799-1.793-1.906-1.834h-1.148
		v4.09h-1.219V256.764z M631.58,261.063h1.247c1.303,0,2.13-0.714,2.13-1.793c0-1.219-0.883-1.751-2.172-1.751
		c-0.588,0-0.994,0.042-1.205,0.098V261.063z"/>
	<path fill="#010101" d="M637.327,270.014c0.22,0.131,0.596,0.277,0.955,0.277c0.515,0,0.759-0.253,0.759-0.588
		c0-0.342-0.203-0.521-0.727-0.719c-0.718-0.261-1.053-0.645-1.053-1.117c0-0.637,0.522-1.16,1.363-1.16
		c0.4,0,0.751,0.106,0.963,0.245l-0.171,0.522c-0.155-0.098-0.44-0.236-0.808-0.236c-0.426,0-0.654,0.244-0.654,0.539
		c0,0.326,0.229,0.473,0.744,0.678c0.677,0.252,1.036,0.596,1.036,1.184c0,0.701-0.547,1.191-1.47,1.191
		c-0.433,0-0.832-0.114-1.109-0.277L637.327,270.014z"/>
	<path fill="#010101" d="M640.935,266.789l0.775,2.213c0.131,0.367,0.237,0.693,0.318,1.02h0.024c0.09-0.326,0.204-0.652,0.335-1.02
		l0.767-2.213h0.752l-1.551,3.951h-0.686l-1.503-3.951H640.935z"/>
	<path fill="#010101" d="M644.582,267.858c0-0.416-0.008-0.743-0.031-1.069h0.637l0.04,0.653h0.017
		c0.195-0.368,0.652-0.735,1.307-0.735c0.547,0,1.396,0.327,1.396,1.682v2.352h-0.719v-2.277c0-0.637-0.237-1.168-0.914-1.168
		c-0.466,0-0.833,0.335-0.964,0.734c-0.032,0.09-0.049,0.213-0.049,0.336v2.375h-0.719V267.858z"/>
</g>
<rect x="613.957" y="232.867" fill="#FFFFFF" stroke="#231F20" width="48.047" height="14.194"/>
<g>
	<path fill="none" stroke="#231F20" d="M250.155,239.255c0,12.141,0,24.283,0,36.424"/>
	<path fill="none" stroke="#231F20" d="M250.155,283.905c0,9.142,0,18.283,0,27.424"/>
	<line fill="none" stroke="#231F20" x1="237.655" y1="275.679" x2="262.655" y2="275.679"/>
	<line fill="none" stroke="#231F20" x1="237.655" y1="283.329" x2="262.655" y2="283.329"/>
	<line fill="none" stroke="#231F20" x1="237.655" y1="311.329" x2="262.655" y2="311.329"/>
</g>
<rect x="483.984" y="232.867" fill="#FFFFFF" stroke="#231F20" width="48.047" height="14.194"/>
<rect x="420.886" y="232.867" fill="#FFFFFF" stroke="#231F20" width="48.047" height="14.194"/>
<g>
	<path fill="#010101" d="M499.541,257.396c0.615-0.113,1.512-0.197,2.339-0.197c1.303,0,2.157,0.253,2.731,0.771
		c0.463,0.42,0.742,1.064,0.742,1.807c0,1.232-0.784,2.059-1.765,2.395v0.043c0.714,0.252,1.148,0.924,1.372,1.904
		c0.309,1.316,0.533,2.228,0.729,2.592h-1.26c-0.154-0.28-0.365-1.078-0.617-2.256c-0.279-1.303-0.798-1.793-1.904-1.834h-1.148
		v4.09h-1.219V257.396z M500.76,261.696h1.246c1.303,0,2.129-0.714,2.129-1.793c0-1.219-0.883-1.751-2.171-1.751
		c-0.589,0-0.995,0.042-1.204,0.098V261.696z"/>
	<path fill="#010101" d="M506.506,270.646c0.221,0.131,0.596,0.277,0.955,0.277c0.514,0,0.76-0.253,0.76-0.588
		c0-0.342-0.205-0.521-0.727-0.719c-0.719-0.261-1.054-0.645-1.054-1.117c0-0.637,0.522-1.16,1.363-1.16
		c0.399,0,0.751,0.106,0.964,0.245l-0.172,0.522c-0.155-0.098-0.441-0.236-0.809-0.236c-0.424,0-0.652,0.244-0.652,0.539
		c0,0.326,0.229,0.473,0.742,0.678c0.678,0.252,1.037,0.596,1.037,1.184c0,0.701-0.547,1.191-1.469,1.191
		c-0.434,0-0.834-0.114-1.111-0.277L506.506,270.646z"/>
	<path fill="#010101" d="M512.652,271.234c-0.188,0.09-0.604,0.229-1.135,0.229c-1.191,0-1.968-0.809-1.968-2.017
		c0-1.216,0.833-2.106,2.122-2.106c0.426,0,0.801,0.106,0.996,0.213l-0.162,0.547c-0.172-0.09-0.441-0.188-0.834-0.188
		c-0.906,0-1.396,0.678-1.396,1.494c0,0.914,0.588,1.477,1.372,1.477c0.408,0,0.678-0.098,0.881-0.188L512.652,271.234z"/>
	<path fill="#010101" d="M513.492,268.712c0-0.507-0.016-0.915-0.032-1.29h0.637l0.04,0.678h0.018
		c0.285-0.482,0.759-0.76,1.403-0.76c0.964,0,1.682,0.809,1.682,2c0,1.421-0.874,2.123-1.804,2.123c-0.522,0-0.98-0.229-1.217-0.621
		h-0.016v2.147h-0.711V268.712z M514.203,269.765c0,0.106,0.008,0.204,0.032,0.294c0.13,0.498,0.563,0.841,1.077,0.841
		c0.76,0,1.2-0.62,1.2-1.526c0-0.783-0.416-1.461-1.175-1.461c-0.49,0-0.955,0.342-1.086,0.881c-0.025,0.09-0.049,0.196-0.049,0.286
		V269.765z"/>
</g>
<g>
	<path fill="#010101" d="M437.291,257.396c0.615-0.113,1.512-0.197,2.339-0.197c1.303,0,2.157,0.253,2.731,0.771
		c0.463,0.42,0.742,1.064,0.742,1.807c0,1.232-0.784,2.059-1.765,2.395v0.043c0.714,0.252,1.148,0.924,1.372,1.904
		c0.309,1.316,0.533,2.228,0.729,2.592h-1.26c-0.154-0.28-0.365-1.078-0.617-2.256c-0.279-1.303-0.798-1.793-1.904-1.834h-1.148
		v4.09h-1.219V257.396z M438.51,261.696h1.246c1.303,0,2.129-0.714,2.129-1.793c0-1.219-0.883-1.751-2.171-1.751
		c-0.589,0-0.995,0.042-1.204,0.098V261.696z"/>
	<path fill="#010101" d="M444.256,270.646c0.221,0.131,0.596,0.277,0.955,0.277c0.514,0,0.76-0.253,0.76-0.588
		c0-0.342-0.205-0.521-0.727-0.719c-0.719-0.261-1.054-0.645-1.054-1.117c0-0.637,0.522-1.16,1.363-1.16
		c0.399,0,0.751,0.106,0.964,0.245l-0.172,0.522c-0.155-0.098-0.441-0.236-0.809-0.236c-0.424,0-0.652,0.244-0.652,0.539
		c0,0.326,0.229,0.473,0.742,0.678c0.678,0.252,1.037,0.596,1.037,1.184c0,0.701-0.547,1.191-1.469,1.191
		c-0.434,0-0.834-0.114-1.111-0.277L444.256,270.646z"/>
	<path fill="#010101" d="M450.361,270.426c0,0.344,0.016,0.678,0.057,0.947h-0.645l-0.057-0.498h-0.025
		c-0.221,0.311-0.645,0.588-1.207,0.588c-0.801,0-1.209-0.563-1.209-1.135c0-0.955,0.85-1.478,2.375-1.469v-0.082
		c0-0.318-0.09-0.914-0.897-0.906c-0.376,0-0.759,0.105-1.036,0.294l-0.164-0.481c0.326-0.205,0.809-0.344,1.307-0.344
		c1.208,0,1.502,0.825,1.502,1.609V270.426z M449.668,269.356c-0.784-0.017-1.674,0.122-1.674,0.89c0,0.474,0.311,0.686,0.669,0.686
		c0.522,0,0.857-0.326,0.972-0.66c0.024-0.082,0.033-0.164,0.033-0.229V269.356z"/>
	<path fill="#010101" d="M451.52,268.654c0-0.465-0.008-0.865-0.032-1.232h0.628l0.033,0.783h0.024
		c0.18-0.53,0.62-0.865,1.103-0.865c0.072,0,0.131,0.009,0.195,0.017v0.678c-0.073-0.017-0.146-0.017-0.244-0.017
		c-0.507,0-0.865,0.376-0.964,0.914c-0.017,0.099-0.024,0.221-0.024,0.336v2.105h-0.719V268.654z"/>
</g>
<g>
	<rect x="79.777" y="236.006" fill="#FFFFFF" width="69.223" height="3.958"/>
	<g>
		<g>
			<path fill="none" stroke="#231F20" d="M79.443,238.006c0-4.106,4.041-7.431,9.035-7.431"/>
			<path fill="none" stroke="#231F20" d="M96.91,238.006c0-4.106-4.041-7.431-9.035-7.431"/>
		</g>
		<g>
			<path fill="none" stroke="#231F20" d="M96.91,238.006c0-4.106,4.041-7.431,9.034-7.431"/>
			<path fill="none" stroke="#231F20" d="M114.375,238.006c0-4.106-4.041-7.431-9.034-7.431"/>
		</g>
		<g>
			<path fill="none" stroke="#231F20" d="M114.375,238.006c0-4.106,4.041-7.431,9.035-7.431"/>
			<path fill="none" stroke="#231F20" d="M131.842,238.006c0-4.106-4.041-7.431-9.034-7.431"/>
		</g>
		<g>
			<path fill="none" stroke="#231F20" d="M131.842,238.006c0-4.106,4.041-7.431,9.034-7.431"/>
			<path fill="none" stroke="#231F20" d="M149.309,238.006c0-4.106-4.041-7.431-9.034-7.431"/>
		</g>
	</g>
</g>
<g>
	<rect x="272.412" y="236.006" fill="#FFFFFF" width="69.223" height="3.958"/>
	<g>
		<g>
			<path fill="none" stroke="#231F20" d="M272.079,238.006c0-4.106,4.041-7.431,9.035-7.431"/>
			<path fill="none" stroke="#231F20" d="M289.545,238.006c0-4.106-4.041-7.431-9.035-7.431"/>
		</g>
		<g>
			<path fill="none" stroke="#231F20" d="M289.545,238.006c0-4.106,4.041-7.431,9.034-7.431"/>
			<path fill="none" stroke="#231F20" d="M307.01,238.006c0-4.106-4.04-7.431-9.034-7.431"/>
		</g>
		<g>
			<path fill="none" stroke="#231F20" d="M307.01,238.006c0-4.106,4.041-7.431,9.035-7.431"/>
			<path fill="none" stroke="#231F20" d="M324.477,238.006c0-4.106-4.04-7.431-9.033-7.431"/>
		</g>
		<g>
			<path fill="none" stroke="#231F20" d="M324.477,238.006c0-4.106,4.041-7.431,9.035-7.431"/>
			<path fill="none" stroke="#231F20" d="M341.944,238.006c0-4.106-4.041-7.431-9.034-7.431"/>
		</g>
	</g>
</g>
<g>
	<path fill="#010101" d="M106.392,245.551h1.232v8.419h4.034v1.022h-5.267V245.551z"/>
	<path fill="#010101" d="M112.447,258.928c0.22,0.131,0.596,0.277,0.955,0.277c0.514,0,0.759-0.253,0.759-0.588
		c0-0.342-0.204-0.521-0.727-0.719c-0.718-0.261-1.053-0.645-1.053-1.117c0-0.637,0.522-1.16,1.363-1.16
		c0.4,0,0.751,0.106,0.963,0.245l-0.171,0.522c-0.155-0.098-0.441-0.236-0.808-0.236c-0.425,0-0.653,0.244-0.653,0.539
		c0,0.326,0.229,0.473,0.743,0.678c0.677,0.252,1.037,0.596,1.037,1.184c0,0.701-0.547,1.191-1.469,1.191
		c-0.433,0-0.833-0.114-1.11-0.277L112.447,258.928z"/>
	<path fill="#010101" d="M118.553,258.707c0,0.344,0.016,0.678,0.057,0.947h-0.645l-0.057-0.498h-0.024
		c-0.221,0.311-0.645,0.588-1.208,0.588c-0.8,0-1.208-0.563-1.208-1.135c0-0.955,0.849-1.478,2.375-1.469v-0.082
		c0-0.318-0.09-0.914-0.898-0.906c-0.375,0-0.759,0.105-1.037,0.294l-0.163-0.481c0.326-0.205,0.808-0.344,1.306-0.344
		c1.208,0,1.502,0.825,1.502,1.609V258.707z M117.859,257.638c-0.784-0.017-1.674,0.122-1.674,0.89c0,0.474,0.311,0.686,0.669,0.686
		c0.522,0,0.857-0.326,0.972-0.66c0.024-0.082,0.033-0.164,0.033-0.229V257.638z"/>
	<path fill="#010101" d="M119.613,258.928c0.22,0.131,0.596,0.277,0.955,0.277c0.514,0,0.759-0.253,0.759-0.588
		c0-0.342-0.204-0.521-0.727-0.719c-0.718-0.261-1.053-0.645-1.053-1.117c0-0.637,0.522-1.16,1.363-1.16
		c0.4,0,0.751,0.106,0.963,0.245l-0.171,0.522c-0.155-0.098-0.441-0.236-0.808-0.236c-0.425,0-0.653,0.244-0.653,0.539
		c0,0.326,0.229,0.473,0.743,0.678c0.677,0.252,1.037,0.596,1.037,1.184c0,0.701-0.547,1.191-1.469,1.191
		c-0.433,0-0.833-0.114-1.11-0.277L119.613,258.928z"/>
</g>
<g>
	<path fill="#010101" d="M299.027,245.551h1.232v8.419h4.034v1.022h-5.267V245.551z"/>
	<path fill="#010101" d="M305.083,258.928c0.22,0.131,0.596,0.277,0.955,0.277c0.514,0,0.759-0.253,0.759-0.588
		c0-0.342-0.204-0.521-0.727-0.719c-0.718-0.261-1.053-0.645-1.053-1.117c0-0.637,0.522-1.16,1.363-1.16
		c0.4,0,0.751,0.106,0.963,0.245l-0.171,0.522c-0.155-0.098-0.441-0.236-0.808-0.236c-0.425,0-0.653,0.244-0.653,0.539
		c0,0.326,0.229,0.473,0.743,0.678c0.677,0.252,1.037,0.596,1.037,1.184c0,0.701-0.547,1.191-1.469,1.191
		c-0.433,0-0.833-0.114-1.11-0.277L305.083,258.928z"/>
	<path fill="#010101" d="M311.188,258.707c0,0.344,0.016,0.678,0.057,0.947H310.6l-0.057-0.498h-0.024
		c-0.221,0.311-0.645,0.588-1.208,0.588c-0.8,0-1.208-0.563-1.208-1.135c0-0.955,0.849-1.478,2.375-1.469v-0.082
		c0-0.318-0.09-0.914-0.898-0.906c-0.375,0-0.759,0.105-1.037,0.294l-0.163-0.481c0.326-0.205,0.808-0.344,1.306-0.344
		c1.208,0,1.502,0.825,1.502,1.609V258.707z M310.494,257.638c-0.784-0.017-1.674,0.122-1.674,0.89c0,0.474,0.311,0.686,0.669,0.686
		c0.522,0,0.857-0.326,0.972-0.66c0.024-0.082,0.033-0.164,0.033-0.229V257.638z"/>
	<path fill="#010101" d="M313.179,254.756v0.947h1.028v0.547h-1.028v2.131c0,0.49,0.139,0.768,0.539,0.768
		c0.196,0,0.31-0.017,0.417-0.049l0.033,0.547c-0.139,0.049-0.359,0.098-0.637,0.098c-0.335,0-0.604-0.114-0.776-0.303
		c-0.196-0.22-0.277-0.57-0.277-1.036v-2.155h-0.612v-0.547h0.612v-0.734L313.179,254.756z"/>
</g>
<g>
	<path fill="#010101" d="M158.161,222.146c-1.274-0.336-2.521-0.715-3.614-1.093c-0.21-0.069-0.392-0.14-0.574-0.14
		c-2.255-0.084-4.16-1.737-4.16-4.791c0-3.025,1.835-4.973,4.384-4.973c2.577,0,4.244,1.989,4.244,4.777
		c0,2.437-1.121,3.978-2.689,4.538v0.056c0.938,0.238,1.961,0.463,2.76,0.603L158.161,222.146z M157.153,215.997
		c0-1.905-0.98-3.853-2.983-3.853c-2.059,0-3.068,1.906-3.068,3.951c0,2.017,1.093,3.824,3.025,3.824
		C156.06,219.92,157.153,218.141,157.153,215.997z"/>
	<path fill="#010101" d="M159.453,224.695c0.22,0.131,0.596,0.277,0.955,0.277c0.514,0,0.759-0.253,0.759-0.588
		c0-0.342-0.204-0.521-0.727-0.719c-0.718-0.261-1.053-0.645-1.053-1.117c0-0.637,0.522-1.16,1.363-1.16
		c0.4,0,0.751,0.106,0.963,0.245l-0.171,0.522c-0.155-0.098-0.441-0.236-0.808-0.236c-0.425,0-0.653,0.244-0.653,0.539
		c0,0.326,0.229,0.473,0.743,0.678c0.677,0.252,1.037,0.596,1.037,1.184c0,0.701-0.547,1.191-1.469,1.191
		c-0.433,0-0.833-0.114-1.11-0.277L159.453,224.695z"/>
	<path fill="#010101" d="M165.558,224.475c0,0.344,0.016,0.678,0.057,0.947h-0.645l-0.057-0.498h-0.024
		c-0.221,0.311-0.645,0.588-1.208,0.588c-0.8,0-1.208-0.563-1.208-1.135c0-0.955,0.849-1.478,2.375-1.469v-0.082
		c0-0.318-0.09-0.914-0.898-0.906c-0.375,0-0.759,0.105-1.037,0.294l-0.163-0.481c0.326-0.205,0.808-0.344,1.306-0.344
		c1.208,0,1.502,0.825,1.502,1.609V224.475z M164.864,223.405c-0.784-0.017-1.674,0.122-1.674,0.89c0,0.474,0.311,0.686,0.669,0.686
		c0.522,0,0.857-0.326,0.972-0.66c0.024-0.082,0.033-0.164,0.033-0.229V223.405z"/>
	<path fill="#010101" d="M166.619,224.695c0.22,0.131,0.596,0.277,0.955,0.277c0.514,0,0.759-0.253,0.759-0.588
		c0-0.342-0.204-0.521-0.727-0.719c-0.718-0.261-1.053-0.645-1.053-1.117c0-0.637,0.522-1.16,1.363-1.16
		c0.4,0,0.751,0.106,0.963,0.245l-0.171,0.522c-0.155-0.098-0.441-0.236-0.808-0.236c-0.425,0-0.653,0.244-0.653,0.539
		c0,0.326,0.229,0.473,0.743,0.678c0.677,0.252,1.037,0.596,1.037,1.184c0,0.701-0.547,1.191-1.469,1.191
		c-0.433,0-0.833-0.114-1.11-0.277L166.619,224.695z"/>
</g>
<g>
	<path fill="#010101" d="M53.878,219.149c0.588-0.099,1.359-0.183,2.339-0.183c1.205,0,2.087,0.281,2.647,0.785
		c0.504,0.448,0.827,1.135,0.827,1.975c0,0.855-0.252,1.527-0.729,2.018c-0.658,0.686-1.695,1.036-2.886,1.036
		c-0.364,0-0.7-0.014-0.98-0.084v3.782h-1.219V219.149z M55.097,223.702c0.266,0.069,0.603,0.098,1.009,0.098
		c1.471,0,2.367-0.728,2.367-2.003c0-1.261-0.896-1.863-2.228-1.863c-0.532,0-0.938,0.043-1.148,0.098V223.702z"/>
	<path fill="#010101" d="M60.759,232.414c0.22,0.131,0.596,0.277,0.955,0.277c0.514,0,0.759-0.253,0.759-0.588
		c0-0.342-0.204-0.521-0.727-0.719c-0.718-0.261-1.053-0.645-1.053-1.117c0-0.637,0.522-1.16,1.363-1.16
		c0.4,0,0.751,0.106,0.963,0.245l-0.171,0.522c-0.155-0.098-0.441-0.236-0.808-0.236c-0.425,0-0.653,0.244-0.653,0.539
		c0,0.326,0.229,0.473,0.743,0.678c0.677,0.252,1.037,0.596,1.037,1.184c0,0.701-0.547,1.191-1.469,1.191
		c-0.433,0-0.833-0.114-1.11-0.277L60.759,232.414z"/>
	<path fill="#010101" d="M66.865,232.193c0,0.344,0.016,0.678,0.057,0.947h-0.645l-0.057-0.498h-0.024
		c-0.221,0.311-0.645,0.588-1.208,0.588c-0.8,0-1.208-0.563-1.208-1.135c0-0.955,0.849-1.478,2.375-1.469v-0.082
		c0-0.318-0.09-0.914-0.898-0.906c-0.375,0-0.759,0.105-1.037,0.294l-0.163-0.481c0.326-0.205,0.808-0.344,1.306-0.344
		c1.208,0,1.502,0.825,1.502,1.609V232.193z M66.171,231.124c-0.784-0.017-1.674,0.122-1.674,0.89c0,0.474,0.311,0.686,0.669,0.686
		c0.522,0,0.857-0.326,0.972-0.66c0.024-0.082,0.033-0.164,0.033-0.229V231.124z"/>
	<path fill="#010101" d="M67.925,232.414c0.22,0.131,0.596,0.277,0.955,0.277c0.514,0,0.759-0.253,0.759-0.588
		c0-0.342-0.204-0.521-0.727-0.719c-0.718-0.261-1.053-0.645-1.053-1.117c0-0.637,0.522-1.16,1.363-1.16
		c0.4,0,0.751,0.106,0.963,0.245l-0.171,0.522c-0.155-0.098-0.441-0.236-0.808-0.236c-0.425,0-0.653,0.244-0.653,0.539
		c0,0.326,0.229,0.473,0.743,0.678c0.677,0.252,1.037,0.596,1.037,1.184c0,0.701-0.547,1.191-1.469,1.191
		c-0.433,0-0.833-0.114-1.11-0.277L67.925,232.414z"/>
</g>
<g>
	<path fill="#010101" d="M558.553,219.149c0.589-0.099,1.359-0.183,2.34-0.183c1.205,0,2.088,0.281,2.647,0.785
		c0.505,0.448,0.827,1.135,0.827,1.975c0,0.855-0.253,1.527-0.729,2.018c-0.658,0.686-1.695,1.036-2.887,1.036
		c-0.363,0-0.699-0.014-0.98-0.084v3.782h-1.219V219.149z M559.771,223.702c0.267,0.069,0.604,0.098,1.01,0.098
		c1.471,0,2.367-0.728,2.367-2.003c0-1.261-0.896-1.863-2.229-1.863c-0.531,0-0.938,0.043-1.148,0.098V223.702z"/>
	<path fill="#010101" d="M565.435,232.414c0.22,0.131,0.596,0.277,0.955,0.277c0.515,0,0.759-0.253,0.759-0.588
		c0-0.342-0.203-0.521-0.727-0.719c-0.718-0.261-1.053-0.645-1.053-1.117c0-0.637,0.522-1.16,1.363-1.16
		c0.4,0,0.751,0.106,0.963,0.245l-0.171,0.522c-0.155-0.098-0.44-0.236-0.808-0.236c-0.426,0-0.654,0.244-0.654,0.539
		c0,0.326,0.229,0.473,0.744,0.678c0.677,0.252,1.036,0.596,1.036,1.184c0,0.701-0.547,1.191-1.47,1.191
		c-0.433,0-0.832-0.114-1.109-0.277L565.435,232.414z"/>
	<path fill="#010101" d="M569.042,229.189l0.775,2.213c0.131,0.367,0.237,0.693,0.318,1.02h0.024c0.09-0.326,0.204-0.652,0.335-1.02
		l0.767-2.213h0.752l-1.551,3.951h-0.686l-1.503-3.951H569.042z"/>
	<path fill="#010101" d="M572.689,230.259c0-0.416-0.008-0.743-0.031-1.069h0.637l0.04,0.653h0.017
		c0.195-0.368,0.652-0.735,1.307-0.735c0.547,0,1.396,0.327,1.396,1.682v2.352h-0.719v-2.277c0-0.637-0.237-1.168-0.914-1.168
		c-0.466,0-0.833,0.335-0.964,0.734c-0.032,0.09-0.049,0.213-0.049,0.336v2.375h-0.719V230.259z"/>
</g>
</svg>
