<?xml version="1.0" encoding="utf-8"?>
<!-- Generator: Adobe Illustrator 13.0.0, SVG Export Plug-In . SVG Version: 6.00 Build 14948)  -->
<!DOCTYPE svg PUBLIC "-//W3C//DTD SVG 1.1//EN" "http://www.w3.org/Graphics/SVG/1.1/DTD/svg11.dtd">
<svg version="1.1" id="Layer_1" xmlns="http://www.w3.org/2000/svg" xmlns:xlink="http://www.w3.org/1999/xlink" x="0px" y="0px"
	 width="505px" height="507px" viewBox="0 0 505 507" enable-background="new 0 0 505 507" xml:space="preserve">
<g>
	<g>
		<line fill="none" stroke="#000000" x1="432" y1="241" x2="245" y2="319.5"/>
		<polygon points="430.844,245.502 430.86,241.479 427.977,238.672 437.504,238.689 		"/>
	</g>
</g>
<g>
	<g>
		<line fill="none" stroke="#000000" x1="312.471" y1="140.511" x2="243.333" y2="173"/>
		<polygon points="311.504,145.058 311.353,141.037 308.354,138.354 317.873,137.973 		"/>
	</g>
</g>
<g>
	<g>
		<line fill="none" stroke="#000000" x1="318.667" y1="118" x2="242.333" y2="45"/>
		<polygon points="314.077,118.736 317.773,117.146 319.197,113.382 322.98,122.125 		"/>
	</g>
</g>
<g>
	<g>
		<line fill="none" stroke="#000000" x1="197.375" y1="193.171" x2="131" y2="227"/>
		<polygon points="196.555,197.747 196.274,193.732 193.191,191.147 202.693,190.461 		"/>
	</g>
</g>
<g>
	<g>
		<line fill="none" stroke="#000000" x1="197.5" y1="170.829" x2="131" y2="137"/>
		<polygon points="193.317,172.856 196.398,170.268 196.676,166.254 202.82,173.535 		"/>
	</g>
</g>
<g>
	
		<radialGradient id="path16609_1_" cx="108.9712" cy="-404.8945" r="16.1858" gradientTransform="matrix(1.6405 0 0 0.9089 -72.4236 501.0694)" gradientUnits="userSpaceOnUse">
		<stop  offset="0" style="stop-color:#A2FF5F"/>
		<stop  offset="0.4082" style="stop-color:#A0FF5F"/>
		<stop  offset="0.5552" style="stop-color:#99FD5F"/>
		<stop  offset="0.66" style="stop-color:#8EFB5E"/>
		<stop  offset="0.7448" style="stop-color:#7DF85E"/>
		<stop  offset="0.8174" style="stop-color:#67F35D"/>
		<stop  offset="0.8817" style="stop-color:#4BEE5C"/>
		<stop  offset="0.9398" style="stop-color:#2BE85B"/>
		<stop  offset="0.9915" style="stop-color:#07E05A"/>
		<stop  offset="1" style="stop-color:#00DF5A"/>
	</radialGradient>
	<path id="path16609" fill="url(#path16609_1_)" stroke="#000000" d="M132.41,133.06c0,8.271-11.674,14.978-26.065,14.978
		c-14.396,0-26.065-6.704-26.065-14.978c0-8.275,11.67-14.976,26.065-14.976C120.736,118.085,132.41,124.787,132.41,133.06z"/>
	<g>
		<path d="M99.358,128.043l-0.7,2.119h-0.899l2.289-6.736h1.049l2.299,6.736h-0.929l-0.72-2.119H99.358z M101.567,127.364
			l-0.669-1.939c-0.14-0.44-0.24-0.84-0.34-1.229h-0.03c-0.09,0.39-0.2,0.81-0.33,1.219l-0.66,1.949H101.567z"/>
		<path d="M104.729,130.272c-0.34,0-0.58-0.27-0.58-0.629c0-0.36,0.25-0.63,0.6-0.63c0.35,0,0.589,0.26,0.589,0.63
			c0,0.359-0.24,0.629-0.6,0.629H104.729z"/>
		<path d="M112.136,127.204c-0.05-0.939-0.11-2.079-0.11-2.908h-0.02c-0.24,0.779-0.51,1.629-0.85,2.559l-1.189,3.268h-0.66
			l-1.099-3.208c-0.32-0.959-0.58-1.819-0.77-2.619h-0.02c-0.02,0.839-0.07,1.959-0.13,2.979l-0.18,2.888h-0.83l0.47-6.736h1.109
			l1.149,3.258c0.28,0.83,0.5,1.569,0.68,2.269h0.02c0.18-0.68,0.42-1.419,0.72-2.269l1.199-3.258h1.109l0.42,6.736h-0.86
			L112.136,127.204z"/>
		<path d="M114.839,130.272c-0.34,0-0.58-0.27-0.58-0.629c0-0.36,0.25-0.63,0.6-0.63c0.35,0,0.59,0.26,0.59,0.63
			c0,0.359-0.24,0.629-0.6,0.629H114.839z"/>
		<path d="M99.088,140.043l-0.7,2.119h-0.899l2.289-6.736h1.049l2.299,6.736h-0.93l-0.719-2.119H99.088z M101.297,139.364
			l-0.669-1.939c-0.14-0.44-0.24-0.84-0.34-1.229h-0.03c-0.09,0.39-0.2,0.81-0.33,1.219l-0.66,1.949H101.297z"/>
		<path d="M104.109,135.516c0.54-0.08,1.169-0.14,1.859-0.14c1.25,0,2.139,0.28,2.729,0.83c0.61,0.549,0.959,1.339,0.959,2.429
			c0,1.099-0.35,1.999-0.969,2.618c-0.64,0.63-1.679,0.97-2.988,0.97c-0.63,0-1.14-0.02-1.589-0.08V135.516z M104.988,141.482
			c0.22,0.04,0.54,0.04,0.88,0.04c1.859,0.01,2.868-1.04,2.868-2.858c0.01-1.609-0.89-2.599-2.729-2.599
			c-0.45,0-0.79,0.04-1.02,0.09V141.482z"/>
		<path d="M110.779,135.516c0.419-0.08,0.969-0.14,1.669-0.14c0.859,0,1.489,0.2,1.889,0.56c0.37,0.32,0.6,0.81,0.6,1.409
			c0,0.61-0.18,1.089-0.53,1.439c-0.46,0.49-1.209,0.739-2.059,0.739c-0.26,0-0.5-0.01-0.7-0.06v2.699h-0.869V135.516z
			 M111.648,138.754c0.19,0.05,0.44,0.07,0.72,0.07c1.06,0,1.689-0.52,1.689-1.429c0-0.899-0.629-1.329-1.589-1.329
			c-0.38,0-0.67,0.04-0.82,0.07V138.754z"/>
	</g>
</g>
<g>
	
		<radialGradient id="path16609_15_" cx="108.9712" cy="-296.5205" r="16.186" gradientTransform="matrix(1.6405 0 0 0.9089 -72.4236 501.0694)" gradientUnits="userSpaceOnUse">
		<stop  offset="0" style="stop-color:#A2FF5F"/>
		<stop  offset="0.4082" style="stop-color:#A0FF5F"/>
		<stop  offset="0.5552" style="stop-color:#99FD5F"/>
		<stop  offset="0.66" style="stop-color:#8EFB5E"/>
		<stop  offset="0.7448" style="stop-color:#7DF85E"/>
		<stop  offset="0.8174" style="stop-color:#67F35D"/>
		<stop  offset="0.8817" style="stop-color:#4BEE5C"/>
		<stop  offset="0.9398" style="stop-color:#2BE85B"/>
		<stop  offset="0.9915" style="stop-color:#07E05A"/>
		<stop  offset="1" style="stop-color:#00DF5A"/>
	</radialGradient>
	<path id="path16609_3_" fill="url(#path16609_15_)" stroke="#000000" d="M132.41,231.561c0,8.271-11.674,14.979-26.065,14.979
		c-14.396,0-26.065-6.705-26.065-14.979c0-8.275,11.67-14.975,26.065-14.975C120.736,216.586,132.41,223.287,132.41,231.561z"/>
	<g>
		<path d="M96.969,226.378l-0.7,2.119H95.37l2.289-6.736h1.049l2.299,6.736h-0.93l-0.719-2.119H96.969z M99.178,225.698
			l-0.669-1.938c-0.14-0.439-0.24-0.84-0.34-1.229h-0.03c-0.09,0.39-0.2,0.81-0.33,1.22l-0.66,1.948H99.178z"/>
		<path d="M102.34,228.607c-0.34,0-0.58-0.271-0.58-0.63c0-0.36,0.25-0.63,0.6-0.63c0.35,0,0.59,0.26,0.59,0.63
			c0,0.359-0.24,0.63-0.6,0.63H102.34z"/>
		<path d="M109.747,225.539c-0.05-0.939-0.11-2.079-0.11-2.909h-0.02c-0.24,0.78-0.51,1.63-0.85,2.559l-1.189,3.269h-0.66
			l-1.099-3.208c-0.32-0.96-0.58-1.819-0.77-2.619h-0.02c-0.02,0.84-0.07,1.959-0.13,2.979l-0.18,2.889h-0.83l0.47-6.736h1.109
			l1.149,3.258c0.28,0.83,0.5,1.569,0.68,2.27h0.02c0.18-0.68,0.42-1.42,0.72-2.27l1.199-3.258h1.109l0.42,6.736h-0.86
			L109.747,225.539z"/>
		<path d="M112.45,228.607c-0.34,0-0.58-0.271-0.58-0.63c0-0.36,0.25-0.63,0.6-0.63c0.35,0,0.589,0.26,0.589,0.63
			c0,0.359-0.24,0.63-0.6,0.63H112.45z"/>
		<path d="M116.708,222.001l-0.949,1.239v0.02l1.509-0.2v0.68l-1.509-0.18v0.021l0.959,1.209l-0.63,0.35l-0.609-1.399h-0.02
			l-0.64,1.409l-0.57-0.359l0.949-1.22v-0.02l-1.479,0.189v-0.68l1.469,0.19v-0.021l-0.939-1.229l0.61-0.34l0.62,1.379h0.02
			l0.609-1.39L116.708,222.001z"/>
		<path d="M99.144,238.378l-0.7,2.119h-0.899l2.289-6.736h1.049l2.299,6.736h-0.93l-0.719-2.119H99.144z M101.353,237.698
			l-0.669-1.938c-0.14-0.439-0.24-0.84-0.34-1.229h-0.03c-0.09,0.39-0.2,0.81-0.33,1.22l-0.66,1.948H101.353z"/>
		<path d="M104.165,233.851c0.54-0.08,1.169-0.14,1.859-0.14c1.25,0,2.139,0.279,2.729,0.829c0.61,0.55,0.959,1.34,0.959,2.429
			c0,1.1-0.35,1.999-0.969,2.619c-0.64,0.629-1.679,0.969-2.988,0.969c-0.63,0-1.14-0.02-1.589-0.079V233.851z M105.044,239.817
			c0.22,0.04,0.54,0.04,0.88,0.04c1.859,0.01,2.868-1.039,2.868-2.858c0.01-1.609-0.89-2.599-2.729-2.599
			c-0.45,0-0.79,0.04-1.02,0.09V239.817z"/>
		<path d="M110.834,233.851c0.419-0.08,0.969-0.14,1.669-0.14c0.859,0,1.489,0.2,1.889,0.56c0.37,0.319,0.6,0.81,0.6,1.409
			c0,0.609-0.18,1.09-0.53,1.439c-0.46,0.489-1.209,0.739-2.059,0.739c-0.26,0-0.5-0.01-0.7-0.06v2.698h-0.869V233.851z
			 M111.704,237.089c0.19,0.05,0.44,0.07,0.72,0.07c1.06,0,1.689-0.52,1.689-1.43c0-0.899-0.629-1.329-1.589-1.329
			c-0.38,0-0.67,0.04-0.82,0.07V237.089z"/>
	</g>
</g>
<g>
	
		<radialGradient id="path16609_16_" cx="180.875" cy="-189.3638" r="16.1858" gradientTransform="matrix(1.6405 0 0 0.9089 -72.4236 501.0694)" gradientUnits="userSpaceOnUse">
		<stop  offset="0" style="stop-color:#A2FF5F"/>
		<stop  offset="0.4082" style="stop-color:#A0FF5F"/>
		<stop  offset="0.5552" style="stop-color:#99FD5F"/>
		<stop  offset="0.66" style="stop-color:#8EFB5E"/>
		<stop  offset="0.7448" style="stop-color:#7DF85E"/>
		<stop  offset="0.8174" style="stop-color:#67F35D"/>
		<stop  offset="0.8817" style="stop-color:#4BEE5C"/>
		<stop  offset="0.9398" style="stop-color:#2BE85B"/>
		<stop  offset="0.9915" style="stop-color:#07E05A"/>
		<stop  offset="1" style="stop-color:#00DF5A"/>
	</radialGradient>
	<path id="path16609_4_" fill="url(#path16609_16_)" stroke="#000000" d="M250.368,328.956c0,8.271-11.674,14.978-26.066,14.978
		c-14.396,0-26.064-6.704-26.064-14.978c0-8.275,11.669-14.976,26.064-14.976C238.694,313.981,250.368,320.683,250.368,328.956z"/>
	<g>
		<path d="M217.372,322.108l-0.7,2.119h-0.899l2.289-6.736h1.049l2.299,6.736h-0.929l-0.72-2.119H217.372z M219.58,321.429
			l-0.669-1.938c-0.14-0.439-0.24-0.84-0.34-1.229h-0.03c-0.09,0.39-0.2,0.81-0.33,1.22l-0.66,1.948H219.58z"/>
		<path d="M222.742,324.338c-0.34,0-0.58-0.271-0.58-0.63c0-0.36,0.25-0.63,0.6-0.63c0.35,0,0.589,0.26,0.589,0.63
			c0,0.359-0.24,0.63-0.6,0.63H222.742z"/>
		<path d="M230.149,321.27c-0.05-0.939-0.11-2.079-0.11-2.909h-0.02c-0.24,0.78-0.51,1.63-0.85,2.559l-1.189,3.269h-0.66
			l-1.099-3.208c-0.32-0.96-0.58-1.819-0.77-2.619h-0.02c-0.02,0.84-0.07,1.959-0.13,2.979l-0.18,2.889h-0.83l0.47-6.736h1.109
			l1.149,3.258c0.28,0.83,0.5,1.569,0.68,2.27h0.02c0.18-0.68,0.42-1.42,0.72-2.27l1.199-3.258h1.109l0.42,6.736h-0.86
			L230.149,321.27z"/>
		<path d="M232.852,324.338c-0.34,0-0.58-0.271-0.58-0.63c0-0.36,0.25-0.63,0.6-0.63c0.35,0,0.59,0.26,0.59,0.63
			c0,0.359-0.24,0.63-0.6,0.63H232.852z"/>
		<path d="M213.424,334.108l-0.7,2.119h-0.899l2.289-6.736h1.049l2.299,6.736h-0.929l-0.72-2.119H213.424z M215.633,333.429
			l-0.669-1.938c-0.14-0.439-0.24-0.84-0.34-1.229h-0.03c-0.09,0.39-0.2,0.81-0.33,1.22l-0.66,1.948H215.633z"/>
		<path d="M218.445,329.581c0.54-0.08,1.169-0.14,1.859-0.14c1.25,0,2.139,0.279,2.729,0.829c0.61,0.55,0.959,1.34,0.959,2.429
			c0,1.1-0.35,1.999-0.969,2.619c-0.64,0.629-1.679,0.969-2.988,0.969c-0.63,0-1.14-0.02-1.589-0.079V329.581z M219.324,335.548
			c0.22,0.04,0.54,0.04,0.88,0.04c1.859,0.01,2.868-1.039,2.868-2.858c0.01-1.609-0.89-2.599-2.729-2.599
			c-0.45,0-0.79,0.04-1.02,0.09V335.548z"/>
		<path d="M225.115,329.581c0.419-0.08,0.969-0.14,1.669-0.14c0.859,0,1.489,0.2,1.889,0.56c0.37,0.319,0.6,0.81,0.6,1.409
			c0,0.609-0.18,1.09-0.53,1.439c-0.46,0.489-1.209,0.739-2.059,0.739c-0.26,0-0.5-0.01-0.7-0.06v2.698h-0.869V329.581z
			 M225.984,332.819c0.19,0.05,0.44,0.07,0.72,0.07c1.06,0,1.689-0.52,1.689-1.43c0-0.899-0.629-1.329-1.589-1.329
			c-0.38,0-0.67,0.04-0.82,0.07V332.819z"/>
		<path d="M229.375,336.338c-0.34,0-0.58-0.271-0.58-0.63c0-0.36,0.25-0.63,0.6-0.63c0.35,0,0.59,0.26,0.59,0.63
			c0,0.359-0.24,0.63-0.6,0.63H229.375z"/>
		<path d="M231.104,329.581c0.419-0.08,0.969-0.14,1.669-0.14c0.859,0,1.489,0.2,1.889,0.56c0.37,0.319,0.6,0.81,0.6,1.409
			c0,0.609-0.18,1.09-0.53,1.439c-0.46,0.489-1.209,0.739-2.059,0.739c-0.26,0-0.5-0.01-0.7-0.06v2.698h-0.869V329.581z
			 M231.974,332.819c0.19,0.05,0.44,0.07,0.72,0.07c1.06,0,1.689-0.52,1.689-1.43c0-0.899-0.629-1.329-1.589-1.329
			c-0.38,0-0.67,0.04-0.82,0.07V332.819z"/>
		<path d="M236.335,336.218c-0.192,0-0.321-0.151-0.321-0.332s0.134-0.327,0.333-0.327s0.326,0.146,0.326,0.327
			s-0.128,0.332-0.332,0.332H236.335z M236.09,339.558v-2.821h0.513v2.821H236.09z"/>
	</g>
</g>
<g>
	
		<radialGradient id="path16609_17_" cx="180.875" cy="-350.708" r="16.186" gradientTransform="matrix(1.6405 0 0 0.9089 -72.4236 501.0694)" gradientUnits="userSpaceOnUse">
		<stop  offset="0" style="stop-color:#A2FF5F"/>
		<stop  offset="0.4082" style="stop-color:#A0FF5F"/>
		<stop  offset="0.5552" style="stop-color:#99FD5F"/>
		<stop  offset="0.66" style="stop-color:#8EFB5E"/>
		<stop  offset="0.7448" style="stop-color:#7DF85E"/>
		<stop  offset="0.8174" style="stop-color:#67F35D"/>
		<stop  offset="0.8817" style="stop-color:#4BEE5C"/>
		<stop  offset="0.9398" style="stop-color:#2BE85B"/>
		<stop  offset="0.9915" style="stop-color:#07E05A"/>
		<stop  offset="1" style="stop-color:#00DF5A"/>
	</radialGradient>
	<path id="path16609_5_" fill="url(#path16609_17_)" stroke="#000000" d="M250.368,182.311c0,8.271-11.674,14.978-26.066,14.978
		c-14.396,0-26.064-6.704-26.064-14.978c0-8.275,11.669-14.976,26.064-14.976C238.694,167.336,250.368,174.037,250.368,182.311z"/>
	<g>
		<path d="M226.054,176.288c-0.05-0.939-0.11-2.079-0.11-2.909h-0.02c-0.24,0.78-0.51,1.63-0.85,2.559l-1.189,3.269h-0.66
			l-1.099-3.208c-0.32-0.96-0.58-1.819-0.77-2.619h-0.02c-0.02,0.84-0.07,1.959-0.13,2.979l-0.18,2.889h-0.83l0.47-6.736h1.109
			l1.149,3.258c0.28,0.83,0.5,1.569,0.68,2.27h0.02c0.18-0.68,0.42-1.42,0.72-2.27l1.199-3.258h1.109l0.42,6.736h-0.86
			L226.054,176.288z"/>
		<path d="M228.757,179.356c-0.34,0-0.58-0.271-0.58-0.63c0-0.36,0.25-0.63,0.6-0.63c0.35,0,0.589,0.26,0.589,0.63
			c0,0.359-0.24,0.63-0.6,0.63H228.757z"/>
		<path d="M217.102,189.127l-0.7,2.119h-0.899l2.289-6.736h1.049l2.299,6.736h-0.93l-0.719-2.119H217.102z M219.31,188.447
			l-0.669-1.938c-0.14-0.439-0.24-0.84-0.34-1.229h-0.03c-0.09,0.39-0.2,0.81-0.33,1.22l-0.66,1.948H219.31z"/>
		<path d="M222.122,184.6c0.54-0.08,1.169-0.14,1.859-0.14c1.25,0,2.139,0.279,2.729,0.829c0.61,0.55,0.959,1.34,0.959,2.429
			c0,1.1-0.35,1.999-0.969,2.619c-0.64,0.629-1.679,0.969-2.988,0.969c-0.63,0-1.14-0.02-1.589-0.079V184.6z M223.001,190.566
			c0.22,0.04,0.54,0.04,0.88,0.04c1.859,0.01,2.868-1.039,2.868-2.858c0.01-1.609-0.89-2.599-2.729-2.599
			c-0.45,0-0.79,0.04-1.02,0.09V190.566z"/>
		<path d="M228.792,184.6c0.419-0.08,0.969-0.14,1.669-0.14c0.859,0,1.489,0.2,1.889,0.56c0.37,0.319,0.6,0.81,0.6,1.409
			c0,0.609-0.18,1.09-0.53,1.439c-0.46,0.489-1.209,0.739-2.059,0.739c-0.26,0-0.5-0.01-0.7-0.06v2.698h-0.869V184.6z
			 M229.661,187.838c0.19,0.05,0.44,0.07,0.72,0.07c1.06,0,1.689-0.52,1.689-1.43c0-0.899-0.629-1.329-1.589-1.329
			c-0.38,0-0.67,0.04-0.82,0.07V187.838z"/>
	</g>
</g>
<g>
	
		<radialGradient id="path16609_18_" cx="180.875" cy="-513.1211" r="16.186" gradientTransform="matrix(1.6405 0 0 0.9089 -72.4236 501.0694)" gradientUnits="userSpaceOnUse">
		<stop  offset="0" style="stop-color:#A2FF5F"/>
		<stop  offset="0.4082" style="stop-color:#A0FF5F"/>
		<stop  offset="0.5552" style="stop-color:#99FD5F"/>
		<stop  offset="0.66" style="stop-color:#8EFB5E"/>
		<stop  offset="0.7448" style="stop-color:#7DF85E"/>
		<stop  offset="0.8174" style="stop-color:#67F35D"/>
		<stop  offset="0.8817" style="stop-color:#4BEE5C"/>
		<stop  offset="0.9398" style="stop-color:#2BE85B"/>
		<stop  offset="0.9915" style="stop-color:#07E05A"/>
		<stop  offset="1" style="stop-color:#00DF5A"/>
	</radialGradient>
	<path id="path16609_2_" fill="url(#path16609_18_)" stroke="#000000" d="M250.368,34.693c0,8.271-11.674,14.978-26.066,14.978
		c-14.396,0-26.064-6.704-26.064-14.978c0-8.275,11.669-14.976,26.064-14.976C238.694,19.719,250.368,26.42,250.368,34.693z"/>
	<g>
		<path d="M218.037,35.51l-0.7,2.119h-0.899l2.289-6.736h1.049l2.299,6.736h-0.929l-0.72-2.119H218.037z M220.245,34.831
			l-0.669-1.939c-0.14-0.44-0.24-0.84-0.34-1.229h-0.03c-0.09,0.39-0.2,0.81-0.33,1.219l-0.66,1.949H220.245z"/>
		<path d="M223.407,37.739c-0.34,0-0.58-0.27-0.58-0.629c0-0.36,0.25-0.63,0.6-0.63c0.35,0,0.589,0.26,0.589,0.63
			c0,0.359-0.24,0.629-0.6,0.629H223.407z"/>
		<path d="M230.814,34.67c-0.05-0.939-0.11-2.079-0.11-2.908h-0.02c-0.24,0.779-0.51,1.629-0.85,2.559l-1.189,3.268h-0.66
			l-1.099-3.208c-0.32-0.959-0.58-1.819-0.77-2.619h-0.02c-0.02,0.839-0.07,1.959-0.13,2.979l-0.18,2.888h-0.83l0.47-6.736h1.109
			l1.149,3.258c0.28,0.83,0.5,1.569,0.68,2.269h0.02c0.18-0.68,0.42-1.419,0.72-2.269l1.199-3.258h1.109l0.42,6.736h-0.86
			L230.814,34.67z"/>
	</g>
</g>
<g>
	
		<radialGradient id="path16609_19_" cx="253.0264" cy="-513.1211" r="16.186" gradientTransform="matrix(1.6405 0 0 0.9089 -72.4236 501.0694)" gradientUnits="userSpaceOnUse">
		<stop  offset="0" style="stop-color:#A2FF5F"/>
		<stop  offset="0.4082" style="stop-color:#A0FF5F"/>
		<stop  offset="0.5552" style="stop-color:#99FD5F"/>
		<stop  offset="0.66" style="stop-color:#8EFB5E"/>
		<stop  offset="0.7448" style="stop-color:#7DF85E"/>
		<stop  offset="0.8174" style="stop-color:#67F35D"/>
		<stop  offset="0.8817" style="stop-color:#4BEE5C"/>
		<stop  offset="0.9398" style="stop-color:#2BE85B"/>
		<stop  offset="0.9915" style="stop-color:#07E05A"/>
		<stop  offset="1" style="stop-color:#00DF5A"/>
	</radialGradient>
	<path id="path16609_6_" fill="url(#path16609_19_)" stroke="#000000" d="M368.732,34.693c0,8.271-11.674,14.978-26.066,14.978
		c-14.395,0-26.064-6.704-26.064-14.978c0-8.275,11.67-14.976,26.064-14.976C357.059,19.719,368.732,26.42,368.732,34.693z"/>
	<g>
		<path d="M333.602,29.51l-0.7,2.119h-0.899l2.289-6.736h1.049l2.299,6.736h-0.93l-0.719-2.119H333.602z M335.81,28.831
			l-0.669-1.939c-0.141-0.44-0.24-0.84-0.34-1.229h-0.03c-0.091,0.39-0.2,0.81-0.33,1.219l-0.659,1.949H335.81z"/>
		<path d="M338.361,29.52c-0.029-0.989,0.5-1.499,1.189-1.499c0.42,0,0.74,0.13,1.42,0.45c0.5,0.24,0.869,0.42,1.238,0.42
			c0.36,0,0.53-0.29,0.541-0.84h0.589c0.05,1.109-0.52,1.509-1.14,1.509c-0.389,0-0.76-0.12-1.449-0.44
			c-0.469-0.229-0.839-0.439-1.199-0.439c-0.359,0-0.579,0.25-0.59,0.839H338.361z"/>
		<path d="M350.269,28.67c-0.05-0.939-0.11-2.079-0.11-2.908h-0.02c-0.24,0.779-0.51,1.629-0.85,2.559l-1.189,3.268h-0.66
			l-1.099-3.208c-0.319-0.959-0.58-1.819-0.77-2.619h-0.021c-0.02,0.839-0.07,1.959-0.129,2.979l-0.181,2.888h-0.829l0.469-6.736
			h1.109l1.15,3.258c0.279,0.83,0.5,1.569,0.68,2.269h0.02c0.18-0.68,0.42-1.419,0.72-2.269l1.199-3.258h1.109l0.42,6.736h-0.86
			L350.269,28.67z"/>
		<path d="M352.972,31.739c-0.34,0-0.58-0.27-0.58-0.629c0-0.36,0.25-0.63,0.601-0.63c0.35,0,0.589,0.26,0.589,0.63
			c0,0.359-0.239,0.629-0.6,0.629H352.972z"/>
		<path d="M336.516,41.51l-0.699,2.119h-0.899l2.288-6.736h1.05l2.299,6.736h-0.929l-0.721-2.119H336.516z M338.725,40.831
			l-0.67-1.939c-0.14-0.44-0.239-0.84-0.34-1.229h-0.029c-0.09,0.39-0.2,0.81-0.33,1.219l-0.66,1.949H338.725z"/>
		<path d="M342.036,37.632h-2.049v-0.74h4.987v0.74h-2.059v5.997h-0.88V37.632z"/>
		<path d="M345.727,36.982c0.42-0.08,0.969-0.14,1.669-0.14c0.859,0,1.489,0.2,1.89,0.56c0.369,0.32,0.6,0.81,0.6,1.409
			c0,0.61-0.181,1.089-0.53,1.439c-0.46,0.49-1.21,0.739-2.06,0.739c-0.26,0-0.499-0.01-0.699-0.06v2.699h-0.869V36.982z
			 M346.596,40.221c0.189,0.05,0.439,0.07,0.72,0.07c1.06,0,1.688-0.52,1.688-1.429c0-0.899-0.629-1.329-1.588-1.329
			c-0.381,0-0.67,0.04-0.82,0.07V40.221z"/>
	</g>
</g>
<g>
	
		<radialGradient id="path16609_20_" cx="253.0264" cy="-405.146" r="16.1858" gradientTransform="matrix(1.6405 0 0 0.9089 -72.4236 501.0694)" gradientUnits="userSpaceOnUse">
		<stop  offset="0" style="stop-color:#A2FF5F"/>
		<stop  offset="0.4082" style="stop-color:#A0FF5F"/>
		<stop  offset="0.5552" style="stop-color:#99FD5F"/>
		<stop  offset="0.66" style="stop-color:#8EFB5E"/>
		<stop  offset="0.7448" style="stop-color:#7DF85E"/>
		<stop  offset="0.8174" style="stop-color:#67F35D"/>
		<stop  offset="0.8817" style="stop-color:#4BEE5C"/>
		<stop  offset="0.9398" style="stop-color:#2BE85B"/>
		<stop  offset="0.9915" style="stop-color:#07E05A"/>
		<stop  offset="1" style="stop-color:#00DF5A"/>
	</radialGradient>
	<path id="path16609_10_" fill="url(#path16609_20_)" stroke="#000000" d="M368.732,132.832c0,8.271-11.674,14.978-26.065,14.978
		c-14.396,0-26.065-6.704-26.065-14.978c0-8.275,11.67-14.976,26.065-14.976C357.059,117.857,368.732,124.558,368.732,132.832z"/>
	<g>
		<path d="M345.084,132.809c-0.051-0.939-0.11-2.079-0.11-2.908h-0.021c-0.239,0.779-0.51,1.629-0.85,2.559l-1.189,3.268h-0.659
			l-1.099-3.208c-0.32-0.959-0.58-1.819-0.77-2.619h-0.021c-0.021,0.839-0.07,1.959-0.13,2.979l-0.18,2.888h-0.83l0.47-6.736h1.109
			l1.149,3.258c0.279,0.83,0.5,1.569,0.68,2.269h0.02c0.18-0.68,0.42-1.419,0.721-2.269l1.199-3.258h1.109l0.42,6.736h-0.86
			L345.084,132.809z"/>
	</g>
</g>
<radialGradient id="path16609_21_" cx="253.0264" cy="-189.3638" r="16.1858" gradientTransform="matrix(1.6405 0 0 0.9089 -72.4236 501.0694)" gradientUnits="userSpaceOnUse">
	<stop  offset="0" style="stop-color:#A2FF5F"/>
	<stop  offset="0.4082" style="stop-color:#A0FF5F"/>
	<stop  offset="0.5552" style="stop-color:#99FD5F"/>
	<stop  offset="0.66" style="stop-color:#8EFB5E"/>
	<stop  offset="0.7448" style="stop-color:#7DF85E"/>
	<stop  offset="0.8174" style="stop-color:#67F35D"/>
	<stop  offset="0.8817" style="stop-color:#4BEE5C"/>
	<stop  offset="0.9398" style="stop-color:#2BE85B"/>
	<stop  offset="0.9915" style="stop-color:#07E05A"/>
	<stop  offset="1" style="stop-color:#00DF5A"/>
</radialGradient>
<path id="path16609_7_" fill="url(#path16609_21_)" stroke="#000000" d="M368.732,328.956c0,8.271-11.674,14.978-26.065,14.978
	c-14.396,0-26.065-6.704-26.065-14.978c0-8.275,11.67-14.976,26.065-14.976C357.059,313.981,368.732,320.683,368.732,328.956z"/>
<g>
	<path d="M333.791,322.108l-0.699,2.119h-0.9l2.289-6.736h1.049l2.299,6.736h-0.929l-0.72-2.119H333.791z M336,321.429l-0.67-1.938
		c-0.141-0.439-0.24-0.84-0.34-1.229h-0.029c-0.091,0.39-0.201,0.81-0.33,1.22l-0.66,1.948H336z"/>
	<path d="M338.552,322.119c-0.03-0.99,0.499-1.5,1.189-1.5c0.419,0,0.739,0.13,1.419,0.45c0.5,0.24,0.869,0.42,1.239,0.42
		c0.36,0,0.53-0.29,0.54-0.84h0.59c0.05,1.109-0.52,1.509-1.14,1.509c-0.39,0-0.76-0.119-1.449-0.439
		c-0.47-0.229-0.839-0.439-1.199-0.439s-0.579,0.25-0.59,0.84H338.552z"/>
	<path d="M350.459,321.27c-0.051-0.939-0.11-2.079-0.11-2.909h-0.021c-0.239,0.78-0.51,1.63-0.85,2.559l-1.189,3.269h-0.659
		l-1.099-3.208c-0.32-0.96-0.58-1.819-0.77-2.619h-0.021c-0.021,0.84-0.07,1.959-0.13,2.979l-0.18,2.889h-0.83l0.47-6.736h1.109
		l1.149,3.258c0.279,0.83,0.5,1.569,0.68,2.27h0.02c0.18-0.68,0.42-1.42,0.721-2.27l1.199-3.258h1.109l0.42,6.736h-0.86
		L350.459,321.27z"/>
	<path d="M353.162,324.338c-0.34,0-0.58-0.271-0.58-0.63c0-0.36,0.25-0.63,0.6-0.63s0.59,0.26,0.59,0.63c0,0.359-0.24,0.63-0.6,0.63
		H353.162z"/>
	<path d="M331.789,334.108l-0.699,2.119h-0.9l2.289-6.736h1.049l2.299,6.736h-0.929l-0.72-2.119H331.789z M333.998,333.429
		l-0.67-1.938c-0.141-0.439-0.24-0.84-0.34-1.229h-0.029c-0.091,0.39-0.201,0.81-0.33,1.22l-0.66,1.948H333.998z"/>
	<path d="M336.81,329.581c0.54-0.08,1.169-0.14,1.858-0.14c1.25,0,2.14,0.279,2.729,0.829c0.61,0.55,0.96,1.34,0.96,2.429
		c0,1.1-0.35,1.999-0.97,2.619c-0.639,0.629-1.679,0.969-2.988,0.969c-0.629,0-1.139-0.02-1.589-0.079V329.581z M337.689,335.548
		c0.22,0.04,0.539,0.04,0.879,0.04c1.859,0.01,2.869-1.039,2.869-2.858c0.01-1.609-0.891-2.599-2.729-2.599
		c-0.45,0-0.79,0.04-1.02,0.09V335.548z"/>
	<path d="M343.479,329.581c0.419-0.08,0.97-0.14,1.669-0.14c0.859,0,1.489,0.2,1.889,0.56c0.37,0.319,0.6,0.81,0.6,1.409
		c0,0.609-0.18,1.09-0.529,1.439c-0.46,0.489-1.209,0.739-2.059,0.739c-0.26,0-0.5-0.01-0.7-0.06v2.698h-0.869V329.581z
		 M344.349,332.819c0.19,0.05,0.44,0.07,0.72,0.07c1.06,0,1.689-0.52,1.689-1.43c0-0.899-0.63-1.329-1.59-1.329
		c-0.379,0-0.67,0.04-0.819,0.07V332.819z"/>
	<path d="M347.739,336.338c-0.34,0-0.58-0.271-0.58-0.63c0-0.36,0.25-0.63,0.6-0.63c0.351,0,0.59,0.26,0.59,0.63
		c0,0.359-0.239,0.63-0.6,0.63H347.739z"/>
	<path d="M349.469,329.581c0.42-0.08,0.97-0.14,1.67-0.14c0.859,0,1.488,0.2,1.889,0.56c0.369,0.319,0.6,0.81,0.6,1.409
		c0,0.609-0.18,1.09-0.529,1.439c-0.461,0.489-1.21,0.739-2.06,0.739c-0.26,0-0.499-0.01-0.7-0.06v2.698h-0.869V329.581z
		 M350.338,332.819c0.19,0.05,0.44,0.07,0.721,0.07c1.059,0,1.688-0.52,1.688-1.43c0-0.899-0.63-1.329-1.589-1.329
		c-0.38,0-0.67,0.04-0.82,0.07V332.819z"/>
	<path d="M354.7,336.218c-0.192,0-0.321-0.151-0.321-0.332s0.135-0.327,0.333-0.327s0.326,0.146,0.326,0.327
		s-0.128,0.332-0.332,0.332H354.7z M354.455,339.558v-2.821h0.514v2.821H354.455z"/>
</g>
<g>
	
		<radialGradient id="path16609_22_" cx="325.6738" cy="-296.1538" r="16.9061" gradientTransform="matrix(1.6405 0 0 0.9089 -72.4236 501.0694)" gradientUnits="userSpaceOnUse">
		<stop  offset="0" style="stop-color:#A2FF5F"/>
		<stop  offset="0.4082" style="stop-color:#A0FF5F"/>
		<stop  offset="0.5552" style="stop-color:#99FD5F"/>
		<stop  offset="0.66" style="stop-color:#8EFB5E"/>
		<stop  offset="0.7448" style="stop-color:#7DF85E"/>
		<stop  offset="0.8174" style="stop-color:#67F35D"/>
		<stop  offset="0.8817" style="stop-color:#4BEE5C"/>
		<stop  offset="0.9398" style="stop-color:#2BE85B"/>
		<stop  offset="0.9915" style="stop-color:#07E05A"/>
		<stop  offset="1" style="stop-color:#00DF5A"/>
	</radialGradient>
	<path id="path16609_9_" fill="url(#path16609_22_)" stroke="#000000" d="M489.07,231.894c0,8.64-12.193,15.645-27.227,15.645
		c-15.035,0-27.225-7.003-27.225-15.645c0-8.644,12.189-15.641,27.225-15.641C476.877,216.252,489.07,223.252,489.07,231.894z"/>
	<g>
		<path d="M454.021,224.208c-0.05-0.939-0.11-2.079-0.11-2.909h-0.02c-0.24,0.78-0.51,1.63-0.85,2.559l-1.189,3.269h-0.659
			l-1.1-3.208c-0.32-0.96-0.58-1.819-0.77-2.619h-0.021c-0.02,0.84-0.069,1.959-0.13,2.979l-0.18,2.889h-0.829l0.47-6.736h1.109
			l1.149,3.258c0.279,0.83,0.499,1.569,0.68,2.27h0.02c0.18-0.68,0.42-1.42,0.72-2.27l1.199-3.258h1.109l0.42,6.736h-0.859
			L454.021,224.208z"/>
		<path d="M456.725,227.276c-0.34,0-0.58-0.271-0.58-0.63c0-0.36,0.25-0.63,0.6-0.63s0.59,0.26,0.59,0.63
			c0,0.359-0.24,0.63-0.6,0.63H456.725z"/>
		<path d="M459.544,225.047l-0.699,2.119h-0.899l2.289-6.736h1.049l2.299,6.736h-0.93l-0.72-2.119H459.544z M461.753,224.367
			l-0.67-1.938c-0.14-0.439-0.239-0.84-0.34-1.229h-0.029c-0.09,0.39-0.2,0.81-0.33,1.22l-0.659,1.948H461.753z"/>
		<path d="M464.565,220.52c0.539-0.08,1.169-0.14,1.858-0.14c1.249,0,2.139,0.279,2.729,0.829c0.609,0.55,0.96,1.34,0.96,2.429
			c0,1.1-0.351,1.999-0.97,2.619c-0.64,0.629-1.679,0.969-2.988,0.969c-0.63,0-1.14-0.02-1.589-0.079V220.52z M465.444,226.486
			c0.22,0.04,0.54,0.04,0.88,0.04c1.858,0.01,2.868-1.039,2.868-2.858c0.01-1.609-0.89-2.599-2.729-2.599
			c-0.449,0-0.789,0.04-1.02,0.09V226.486z"/>
		<path d="M471.235,220.52c0.42-0.08,0.97-0.14,1.669-0.14c0.859,0,1.489,0.2,1.889,0.56c0.37,0.319,0.6,0.81,0.6,1.409
			c0,0.609-0.18,1.09-0.529,1.439c-0.46,0.489-1.209,0.739-2.059,0.739c-0.26,0-0.5-0.01-0.7-0.06v2.698h-0.869V220.52z
			 M472.104,223.758c0.19,0.05,0.44,0.07,0.72,0.07c1.06,0,1.689-0.52,1.689-1.43c0-0.899-0.63-1.329-1.59-1.329
			c-0.379,0-0.669,0.04-0.819,0.07V223.758z"/>
		<path d="M475.495,227.276c-0.34,0-0.58-0.271-0.58-0.63c0-0.36,0.25-0.63,0.6-0.63s0.59,0.26,0.59,0.63
			c0,0.359-0.24,0.63-0.6,0.63H475.495z"/>
		<path d="M459.072,232.52c0.42-0.08,0.97-0.14,1.669-0.14c0.859,0,1.489,0.2,1.889,0.56c0.37,0.319,0.6,0.81,0.6,1.409
			c0,0.609-0.18,1.09-0.529,1.439c-0.46,0.489-1.209,0.739-2.059,0.739c-0.26,0-0.5-0.01-0.7-0.06v2.698h-0.869V232.52z
			 M459.941,235.758c0.19,0.05,0.44,0.07,0.72,0.07c1.06,0,1.689-0.52,1.689-1.43c0-0.899-0.63-1.329-1.59-1.329
			c-0.379,0-0.669,0.04-0.819,0.07V235.758z"/>
		<path d="M464.302,239.156c-0.192,0-0.32-0.151-0.32-0.332s0.134-0.327,0.332-0.327s0.327,0.146,0.327,0.327
			s-0.129,0.332-0.333,0.332H464.302z M464.058,242.496v-2.821h0.513v2.821H464.058z"/>
	</g>
</g>
<g>
	
		<radialGradient id="path16609_23_" cx="325.3203" cy="-405.146" r="16.1858" gradientTransform="matrix(1.6405 0 0 0.9089 -72.4236 501.0694)" gradientUnits="userSpaceOnUse">
		<stop  offset="0" style="stop-color:#A2FF5F"/>
		<stop  offset="0.4082" style="stop-color:#A0FF5F"/>
		<stop  offset="0.5552" style="stop-color:#99FD5F"/>
		<stop  offset="0.66" style="stop-color:#8EFB5E"/>
		<stop  offset="0.7448" style="stop-color:#7DF85E"/>
		<stop  offset="0.8174" style="stop-color:#67F35D"/>
		<stop  offset="0.8817" style="stop-color:#4BEE5C"/>
		<stop  offset="0.9398" style="stop-color:#2BE85B"/>
		<stop  offset="0.9915" style="stop-color:#07E05A"/>
		<stop  offset="1" style="stop-color:#00DF5A"/>
	</radialGradient>
	<path id="path16609_8_" fill="url(#path16609_23_)" stroke="#000000" d="M487.33,132.832c0,8.271-11.674,14.978-26.066,14.978
		c-14.395,0-26.064-6.704-26.064-14.978c0-8.275,11.67-14.976,26.064-14.976C475.656,117.857,487.33,124.558,487.33,132.832z"/>
	<g>
		<path d="M463.016,126.809c-0.05-0.939-0.11-2.079-0.11-2.908h-0.02c-0.24,0.779-0.51,1.629-0.85,2.559l-1.189,3.268h-0.659
			l-1.1-3.208c-0.32-0.959-0.58-1.819-0.77-2.619h-0.021c-0.02,0.839-0.069,1.959-0.13,2.979l-0.18,2.888h-0.829l0.47-6.736h1.109
			l1.149,3.258c0.279,0.83,0.499,1.569,0.68,2.269h0.02c0.18-0.68,0.42-1.419,0.72-2.269l1.199-3.258h1.109l0.42,6.736h-0.859
			L463.016,126.809z"/>
		<path d="M465.719,129.877c-0.34,0-0.58-0.27-0.58-0.629c0-0.36,0.25-0.63,0.6-0.63s0.59,0.26,0.59,0.63
			c0,0.359-0.24,0.629-0.6,0.629H465.719z"/>
		<path d="M455.303,139.649l-0.699,2.119h-0.899l2.289-6.736h1.049l2.299,6.736h-0.93l-0.72-2.119H455.303z M457.512,138.969
			l-0.67-1.939c-0.14-0.44-0.239-0.84-0.34-1.229h-0.029c-0.09,0.39-0.2,0.81-0.33,1.219l-0.659,1.949H457.512z"/>
		<path d="M460.823,135.771h-2.049v-0.74h4.987v0.74h-2.06v5.997h-0.879V135.771z"/>
		<path d="M464.514,135.121c0.42-0.08,0.97-0.14,1.669-0.14c0.859,0,1.489,0.2,1.889,0.56c0.37,0.32,0.6,0.81,0.6,1.409
			c0,0.61-0.18,1.089-0.529,1.439c-0.46,0.49-1.209,0.739-2.059,0.739c-0.26,0-0.5-0.01-0.7-0.06v2.699h-0.869V135.121z
			 M465.383,138.359c0.19,0.05,0.44,0.07,0.72,0.07c1.06,0,1.689-0.52,1.689-1.429c0-0.899-0.63-1.329-1.59-1.329
			c-0.379,0-0.669,0.04-0.819,0.07V138.359z"/>
	</g>
</g>
<g>
	<g>
		<line fill="none" stroke="#000000" x1="106.344" y1="154.333" x2="106.344" y2="216.586"/>
		<polygon points="110.048,157.142 106.344,155.569 102.641,157.142 106.344,148.364 		"/>
	</g>
</g>
<g>
	<g>
		<line fill="none" stroke="#000000" x1="122.833" y1="115.417" x2="202" y2="50.25"/>
		<polygon points="202.186,54.895 201.046,51.035 197.478,49.175 206.609,46.457 		"/>
		<polygon points="122.647,110.772 123.787,114.632 127.355,116.492 118.224,119.211 		"/>
	</g>
</g>
<g>
	<g>
		<line fill="none" stroke="#000000" x1="256.667" y1="34.694" x2="310" y2="34.694"/>
		<polygon points="307.191,38.398 308.764,34.694 307.191,30.991 315.969,34.694 		"/>
		<polygon points="259.476,30.99 257.902,34.694 259.476,38.398 250.698,34.694 		"/>
	</g>
</g>
<g>
	<g>
		<line fill="none" stroke="#000000" x1="256.5" y1="328.194" x2="310.5" y2="328.194"/>
		<polygon points="307.691,331.898 309.264,328.194 307.691,324.49 316.469,328.194 		"/>
		<polygon points="259.309,324.49 257.736,328.194 259.309,331.897 250.531,328.194 		"/>
	</g>
</g>
<g>
	<g>
		<line fill="none" stroke="#000000" x1="122.833" y1="248.584" x2="202" y2="313.75"/>
		<polygon points="197.478,314.825 201.046,312.965 202.186,309.105 206.609,317.544 		"/>
		<polygon points="127.355,247.509 123.787,249.369 122.647,253.229 118.224,244.79 		"/>
	</g>
</g>
<g>
	<g>
		<line fill="none" stroke="#000000" x1="365.833" y1="314.417" x2="443.667" y2="250"/>
		<polygon points="443.865,254.644 442.715,250.788 439.142,248.938 448.266,246.194 		"/>
		<polygon points="365.635,309.772 366.785,313.629 370.358,315.479 361.234,318.223 		"/>
	</g>
</g>
<g>
	<g>
		<line fill="none" stroke="#000000" x1="359.568" y1="46.25" x2="444" y2="115.75"/>
		<polygon points="439.478,116.825 443.046,114.965 444.186,111.105 448.608,119.543 		"/>
	</g>
</g>
<g>
	<g>
		<line fill="none" stroke="#000000" x1="461.265" y1="154.333" x2="461.265" y2="210.167"/>
		<polygon points="457.561,207.358 461.265,208.932 464.969,207.358 461.265,216.137 		"/>
		<polygon points="464.969,157.142 461.265,155.569 457.561,157.142 461.265,148.364 		"/>
	</g>
</g>
<g>
	<g>
		<line fill="none" stroke="#000000" x1="429.167" y1="132.667" x2="369.166" y2="132.667"/>
		<polygon points="426.358,136.371 427.932,132.667 426.358,128.963 435.137,132.667 		"/>
	</g>
</g>
<g>
	
		<radialGradient id="path16609_24_" cx="69.7046" cy="-141.25" r="16.1858" gradientTransform="matrix(1.6405 0 0 0.9089 -72.4236 501.0694)" gradientUnits="userSpaceOnUse">
		<stop  offset="0" style="stop-color:#A2FF5F"/>
		<stop  offset="0.4082" style="stop-color:#A0FF5F"/>
		<stop  offset="0.5552" style="stop-color:#99FD5F"/>
		<stop  offset="0.66" style="stop-color:#8EFB5E"/>
		<stop  offset="0.7448" style="stop-color:#7DF85E"/>
		<stop  offset="0.8174" style="stop-color:#67F35D"/>
		<stop  offset="0.8817" style="stop-color:#4BEE5C"/>
		<stop  offset="0.9398" style="stop-color:#2BE85B"/>
		<stop  offset="0.9915" style="stop-color:#07E05A"/>
		<stop  offset="1" style="stop-color:#00DF5A"/>
	</radialGradient>
	<path id="path16609_11_" fill="url(#path16609_24_)" stroke="#000000" d="M67.993,372.687c0,8.271-11.674,14.978-26.065,14.978
		c-14.396,0-26.065-6.704-26.065-14.978c0-8.275,11.67-14.976,26.065-14.976C56.319,357.712,67.993,364.413,67.993,372.687z"/>
	<g>
		<path d="M41.482,369.625h-2.049v-0.739h4.987v0.739h-2.059v5.997h-0.879V369.625z"/>
	</g>
</g>
<g>
	
		<radialGradient id="path16609_25_" cx="69.7046" cy="-32.1143" r="16.1858" gradientTransform="matrix(1.6405 0 0 0.9089 -72.4236 501.0694)" gradientUnits="userSpaceOnUse">
		<stop  offset="0" style="stop-color:#A2FF5F"/>
		<stop  offset="0.4082" style="stop-color:#A0FF5F"/>
		<stop  offset="0.5552" style="stop-color:#99FD5F"/>
		<stop  offset="0.66" style="stop-color:#8EFB5E"/>
		<stop  offset="0.7448" style="stop-color:#7DF85E"/>
		<stop  offset="0.8174" style="stop-color:#67F35D"/>
		<stop  offset="0.8817" style="stop-color:#4BEE5C"/>
		<stop  offset="0.9398" style="stop-color:#2BE85B"/>
		<stop  offset="0.9915" style="stop-color:#07E05A"/>
		<stop  offset="1" style="stop-color:#00DF5A"/>
	</radialGradient>
	<path id="path16609_13_" fill="url(#path16609_25_)" stroke="#000000" d="M67.993,471.881c0,8.271-11.674,14.977-26.065,14.977
		c-14.396,0-26.065-6.703-26.065-14.977c0-8.275,11.67-14.977,26.065-14.977C56.319,456.906,67.993,463.607,67.993,471.881z"/>
	<g>
		<path d="M36.346,468.819h-2.049v-0.739h4.987v0.739h-2.059v5.997h-0.879V468.819z"/>
		<path d="M44.464,474.606c-0.31,0.16-0.959,0.32-1.779,0.32c-1.899,0-3.318-1.2-3.318-3.419c0-2.118,1.429-3.538,3.518-3.538
			c0.83,0,1.369,0.181,1.599,0.3l-0.22,0.71c-0.32-0.16-0.79-0.279-1.35-0.279c-1.579,0-2.628,1.009-2.628,2.778
			c0,1.659,0.95,2.708,2.579,2.708c0.54,0,1.08-0.109,1.429-0.279L44.464,474.606z"/>
		<path d="M48.875,473.657c0,0.42,0.02,0.829,0.07,1.159h-0.79l-0.08-0.609h-0.03c-0.26,0.38-0.79,0.72-1.479,0.72
			c-0.979,0-1.479-0.69-1.479-1.39c0-1.169,1.04-1.809,2.909-1.799v-0.101c0-0.399-0.11-1.129-1.1-1.119
			c-0.459,0-0.929,0.13-1.269,0.36l-0.2-0.59c0.4-0.25,0.99-0.42,1.599-0.42c1.489,0,1.849,1.01,1.849,1.979V473.657z
			 M48.015,472.348c-0.959-0.02-2.049,0.15-2.049,1.09c0,0.579,0.379,0.839,0.819,0.839c0.64,0,1.049-0.399,1.189-0.81
			c0.03-0.09,0.04-0.189,0.04-0.279V472.348z"/>
	</g>
</g>
<g>
	
		<radialGradient id="path16609_26_" cx="126.5151" cy="-141.25" r="16.1858" gradientTransform="matrix(1.6405 0 0 0.9089 -72.4236 501.0694)" gradientUnits="userSpaceOnUse">
		<stop  offset="0" style="stop-color:#A2FF5F"/>
		<stop  offset="0.4082" style="stop-color:#A0FF5F"/>
		<stop  offset="0.5552" style="stop-color:#99FD5F"/>
		<stop  offset="0.66" style="stop-color:#8EFB5E"/>
		<stop  offset="0.7448" style="stop-color:#7DF85E"/>
		<stop  offset="0.8174" style="stop-color:#67F35D"/>
		<stop  offset="0.8817" style="stop-color:#4BEE5C"/>
		<stop  offset="0.9398" style="stop-color:#2BE85B"/>
		<stop  offset="0.9915" style="stop-color:#07E05A"/>
		<stop  offset="1" style="stop-color:#00DF5A"/>
	</radialGradient>
	<path id="path16609_12_" fill="url(#path16609_26_)" stroke="#000000" d="M161.19,372.687c0,8.271-11.674,14.978-26.065,14.978
		c-14.396,0-26.065-6.704-26.065-14.978c0-8.275,11.67-14.976,26.065-14.976C149.516,357.712,161.19,364.413,161.19,372.687z"/>
	<g>
		<path d="M124.794,369.625h-2.049v-0.739h4.987v0.739h-2.059v5.997h-0.879V369.625z"/>
		<path d="M134.142,372.664c-0.05-0.939-0.11-2.079-0.11-2.909h-0.02c-0.24,0.78-0.51,1.63-0.85,2.559l-1.189,3.269h-0.66
			l-1.099-3.208c-0.32-0.96-0.58-1.819-0.77-2.619h-0.02c-0.02,0.84-0.07,1.959-0.13,2.979l-0.18,2.889h-0.83l0.47-6.736h1.109
			l1.149,3.258c0.28,0.83,0.5,1.569,0.68,2.27h0.02c0.18-0.68,0.42-1.42,0.72-2.27l1.199-3.258h1.109l0.42,6.736h-0.86
			L134.142,372.664z"/>
		<path d="M138.494,375.732c-1.299,0-2.319-0.96-2.319-2.489c0-1.619,1.069-2.568,2.398-2.568c1.389,0,2.329,1.01,2.329,2.479
			c0,1.799-1.25,2.579-2.399,2.579H138.494z M138.523,375.072c0.839,0,1.469-0.789,1.469-1.889c0-0.819-0.41-1.85-1.449-1.85
			c-1.029,0-1.479,0.96-1.479,1.88c0,1.059,0.6,1.858,1.449,1.858H138.523z"/>
		<path d="M142.094,375.622v-4.168h-0.669v-0.669h0.669v-0.23c0-0.68,0.16-1.299,0.57-1.688c0.33-0.32,0.77-0.45,1.169-0.45
			c0.32,0,0.58,0.07,0.75,0.14l-0.11,0.68c-0.14-0.06-0.31-0.109-0.57-0.109c-0.74,0-0.939,0.659-0.939,1.398v0.261h1.169v0.669
			h-1.16v4.168H142.094z"/>
		<path d="M145.014,375.622v-4.168h-0.669v-0.669h0.669v-0.23c0-0.68,0.16-1.299,0.57-1.688c0.33-0.32,0.77-0.45,1.169-0.45
			c0.32,0,0.58,0.07,0.75,0.14l-0.11,0.68c-0.14-0.06-0.31-0.109-0.57-0.109c-0.74,0-0.939,0.659-0.939,1.398v0.261h1.169v0.669
			h-1.16v4.168H145.014z"/>
	</g>
</g>
<g>
	
		<radialGradient id="path16609_27_" cx="126.5151" cy="-32.1143" r="16.1858" gradientTransform="matrix(1.6405 0 0 0.9089 -72.4236 501.0694)" gradientUnits="userSpaceOnUse">
		<stop  offset="0" style="stop-color:#A2FF5F"/>
		<stop  offset="0.4082" style="stop-color:#A0FF5F"/>
		<stop  offset="0.5552" style="stop-color:#99FD5F"/>
		<stop  offset="0.66" style="stop-color:#8EFB5E"/>
		<stop  offset="0.7448" style="stop-color:#7DF85E"/>
		<stop  offset="0.8174" style="stop-color:#67F35D"/>
		<stop  offset="0.8817" style="stop-color:#4BEE5C"/>
		<stop  offset="0.9398" style="stop-color:#2BE85B"/>
		<stop  offset="0.9915" style="stop-color:#07E05A"/>
		<stop  offset="1" style="stop-color:#00DF5A"/>
	</radialGradient>
	<path id="path16609_14_" fill="url(#path16609_27_)" stroke="#000000" d="M161.19,471.881c0,8.271-11.674,14.977-26.065,14.977
		c-14.396,0-26.065-6.703-26.065-14.977c0-8.275,11.67-14.977,26.065-14.977C149.516,456.906,161.19,463.607,161.19,471.881z"/>
	<g>
		<path d="M125.13,468.818h-2.049v-0.739h4.987v0.739h-2.059v5.997h-0.879V468.818z"/>
		<path d="M134.478,471.857c-0.05-0.939-0.11-2.079-0.11-2.909h-0.02c-0.24,0.78-0.51,1.63-0.85,2.559l-1.189,3.269h-0.66
			l-1.099-3.208c-0.32-0.96-0.58-1.819-0.77-2.619h-0.02c-0.02,0.84-0.07,1.959-0.13,2.979l-0.18,2.889h-0.83l0.47-6.736h1.109
			l1.149,3.258c0.28,0.83,0.5,1.569,0.68,2.27h0.02c0.18-0.68,0.42-1.42,0.72-2.27l1.199-3.258h1.109l0.42,6.736h-0.86
			L134.478,471.857z"/>
		<path d="M138.83,474.926c-1.299,0-2.319-0.96-2.319-2.489c0-1.619,1.069-2.568,2.398-2.568c1.389,0,2.329,1.01,2.329,2.479
			c0,1.799-1.25,2.579-2.399,2.579H138.83z M138.859,474.266c0.839,0,1.469-0.789,1.469-1.889c0-0.819-0.41-1.85-1.449-1.85
			c-1.029,0-1.479,0.96-1.479,1.88c0,1.059,0.6,1.858,1.449,1.858H138.859z"/>
		<path d="M142.35,471.287c0-0.51-0.01-0.909-0.04-1.309h0.78l0.05,0.789h0.02c0.24-0.449,0.8-0.899,1.599-0.899
			c0.67,0,1.709,0.399,1.709,2.059v2.889h-0.879v-2.788c0-0.78-0.29-1.439-1.119-1.439c-0.57,0-1.02,0.409-1.18,0.899
			c-0.04,0.11-0.06,0.27-0.06,0.41v2.918h-0.879V471.287z"/>
	</g>
</g>
<g>
	<g>
		<line fill="none" stroke="#000000" x1="41.927" y1="393.833" x2="41.927" y2="450.667"/>
		<polygon points="38.223,447.858 41.927,449.432 45.631,447.858 41.927,456.637 		"/>
		<polygon points="45.631,396.642 41.927,395.068 38.224,396.642 41.927,387.863 		"/>
	</g>
</g>
<g>
	<g>
		<line fill="none" stroke="#000000" x1="135.125" y1="393.833" x2="135.125" y2="451"/>
		<polygon points="131.42,448.191 135.125,449.765 138.828,448.191 135.125,456.97 		"/>
		<polygon points="138.829,396.642 135.125,395.068 131.421,396.642 135.125,387.863 		"/>
	</g>
</g>
</svg>
